<?xml version="1.0" encoding="utf-8"?>
<COLLADA xmlns:xsi="http://www.w3.org/2001/XMLSchema-instance" xmlns:xsd="http://www.w3.org/2001/XMLSchema" version="1.4.1" xmlns="http://www.collada.org/2005/11/COLLADASchema">
  <asset>
    <created>2026-02-17T05:46:47.8287281-05:00</created>
    <modified>2026-02-17T05:46:47.8287283-05:00</modified>
    <up_axis>Y_UP</up_axis>
  </asset>
  <library_animations>
    <animation id="Motion_54_Waist_transform_id" name="Motion_54_Waist_transform">
      <source id="Motion_54_Waist_transform_frame_id" name="Motion_54_Waist_transform_frame">
        <float_array id="Motion_54_Waist_transform_frame_array_id" count="16">0 0.033333335 0.06666667 0.1 0.13333334 0.16666667 0.2 0.23333333 0.26666668 0.3 0.33333334 0.36666667 0.4 0.43333334 0.46666667 0.5</float_array>
        <technique_common>
          <accessor source="#Motion_54_Waist_transform_frame_array_id" count="16" stride="1">
            <param name="TIME" type="float" />
          </accessor>
        </technique_common>
      </source>
      <source id="Motion_54_Waist_transform_interp_id" name="Motion_54_Waist_transform_interp">
        <Name_array id="Motion_54_Waist_transform_interp_array_id" count="16">LINEAR LINEAR LINEAR LINEAR LINEAR LINEAR LINEAR LINEAR LINEAR LINEAR LINEAR LINEAR LINEAR LINEAR LINEAR LINEAR</Name_array>
        <technique_common>
          <accessor source="#Motion_54_Waist_transform_interp_array_id" count="16" stride="1">
            <param name="INTERPOLATION" type="Name" />
          </accessor>
        </technique_common>
      </source>
      <source id="Motion_54_Waist_transform_pose_id" name="Motion_54_Waist_transform_pose">
        <float_array id="Motion_54_Waist_transform_pose_array_id" count="256">-0.0010018349 -0.9999991 0.0010038689 0 0.9746166 -0.00075161457 0.22387958 43.92593 -0.22387859 0.0012026653 0.9746163 0 0 0 0 1 -0.00091159344 -0.99999946 0.00043348968 0 0.974505 -0.00079107285 0.22436443 43.92521 -0.22436398 0.0006269738 0.9745052 0.00038476416 0 0 0 1 -0.00080525875 -0.9999995 -0.000293985 0 0.9743463 -0.0008507967 0.22505188 43.92457 -0.22505204 -0.00010519475 0.97434676 0.00055194425 0 0 0 1 -0.0006879568 -0.9999992 -0.0010694638 0 0.9741495 -0.00091183186 0.2259023 43.924007 -0.2259031 -0.0008864105 0.97414935 0.0005140103 0 0 0 1 -0.0005646944 -0.9999983 -0.0017838404 0 0.97392315 -0.0009547472 0.22687617 43.923508 -0.22687748 -0.0016092062 0.97392195 0.00028343126 0 0 0 1 -0.00044107437 -0.99999726 -0.0023280457 0 0.9736762 -0.0009601116 0.227934 43.923065 -0.22793561 -0.0021662489 0.9736738 -0.0001273232 0 0 0 1 -0.0003222227 -0.9999966 -0.0025930405 0 0.97341746 -0.00090765953 0.22903636 43.922672 -0.22903794 -0.0024503022 0.9734144 -0.0007057814 0 0 0 1 -0.00019645691 -0.9999966 -0.0025702268 0 0.97317976 -0.00078237057 0.23004451 43.92232 -0.23004577 -0.0024560913 0.9731767 -0.0014394769 0 0 0 1 -3.71933E-05 -0.99999726 -0.002355963 0 0.97300243 -0.0005799532 0.23079407 43.921997 -0.2307948 -0.0022837669 0.97299975 -0.002315938 0 0 0 1 0.00017279387 -0.9999979 -0.002030678 0 0.9728971 -0.0003014803 0.23123795 43.921696 -0.2312381 -0.0020155981 0.9728951 -0.003322694 0 0 0 1 0.00044995546 -0.9999985 -0.0016608238 0 0.97287875 5.3584576E-05 0.2313155 43.92141 -0.23131506 -0.0017198548 0.9728774 -0.0044472767 0 0 0 1 0.0008109212 -0.9999988 -0.0013131648 0 0.97296166 0.00048571825 0.23096606 43.921124 -0.23096514 -0.0014649406 0.97296095 -0.0056772167 0 0 0 1 0.0012723207 -0.9999985 -0.0010544285 0 0.9731596 0.0009955168 0.23012874 43.920834 -0.23012736 -0.0013189018 0.9731596 -0.0070000435 0 0 0 1 0.0018497109 -0.9999979 -0.0009517744 0 0.97348577 0.0015829802 0.22874261 43.92053 -0.2287406 -0.0013496727 0.9734865 -0.008403288 0 0 0 1 0.0025119185 -0.99999624 -0.0010781214 0 0.97395164 0.002202034 0.22674492 43.9202 -0.2267417 -0.0016195998 0.9739536 -0.00987448 0 0 0 1 0.0025119185 -0.99999624 -0.0010781214 0 0.97395164 0.002202034 0.22674492 43.9202 -0.2267417 -0.0016195998 0.9739536 -0.00987448 0 0 0 1</float_array>
        <technique_common>
          <accessor source="#Motion_54_Waist_transform_pose_array_id" count="16" stride="16">
            <param name="TRANSFORM" type="float4x4" />
          </accessor>
        </technique_common>
      </source>
      <sampler id="Motion_54_Waist_transform_samp_id">
        <input semantic="INPUT" source="#Motion_54_Waist_transform_frame_id" />
        <input semantic="INTERPOLATION" source="#Motion_54_Waist_transform_interp_id" />
        <input semantic="OUTPUT" source="#Motion_54_Waist_transform_pose_id" />
      </sampler>
      <channel source="#Motion_54_Waist_transform_samp_id" target="Waist_bone_id/transform" />
    </animation>
    <animation id="Motion_54_Hips_transform_id" name="Motion_54_Hips_transform">
      <source id="Motion_54_Hips_transform_frame_id" name="Motion_54_Hips_transform_frame">
        <float_array id="Motion_54_Hips_transform_frame_array_id" count="16">0 0.033333335 0.06666667 0.1 0.13333334 0.16666667 0.2 0.23333333 0.26666668 0.3 0.33333334 0.36666667 0.4 0.43333334 0.46666667 0.5</float_array>
        <technique_common>
          <accessor source="#Motion_54_Hips_transform_frame_array_id" count="16" stride="1">
            <param name="TIME" type="float" />
          </accessor>
        </technique_common>
      </source>
      <source id="Motion_54_Hips_transform_interp_id" name="Motion_54_Hips_transform_interp">
        <Name_array id="Motion_54_Hips_transform_interp_array_id" count="16">LINEAR LINEAR LINEAR LINEAR LINEAR LINEAR LINEAR LINEAR LINEAR LINEAR LINEAR LINEAR LINEAR LINEAR LINEAR LINEAR</Name_array>
        <technique_common>
          <accessor source="#Motion_54_Hips_transform_interp_array_id" count="16" stride="1">
            <param name="INTERPOLATION" type="Name" />
          </accessor>
        </technique_common>
      </source>
      <source id="Motion_54_Hips_transform_pose_id" name="Motion_54_Hips_transform_pose">
        <float_array id="Motion_54_Hips_transform_pose_array_id" count="256">-1 -1.509958E-07 0 -0.009998 1.509958E-07 -1 0 0 0 0 1 0 0 0 0 1 -0.99999976 -0.000688941 -2.6408428E-05 -0.009998 0.00068894343 -0.99999976 -9.094986E-05 0 -2.6345764E-05 -9.096804E-05 1 0 0 0 0 1 -0.99999905 -0.0013996605 -6.562693E-05 -0.009998 0.0013996747 -0.99999905 -0.0002182781 0 -6.532136E-05 -0.00021836975 1 0 0 0 0 1 -0.99999845 -0.001881728 -0.00011568395 -0.009998 0.0018817708 -0.99999833 -0.00037124113 0 -0.00011498517 -0.00037145818 0.99999994 0 0 0 0 1 -0.9999982 -0.0018836097 -0.00017448959 -0.009998 0.0018837035 -0.9999981 -0.0005390644 0 -0.00017347386 -0.0005393921 0.9999998 0 0 0 0 1 -0.9999993 -0.0011552036 -0.00023982415 -0.009998 0.0011553738 -0.99999905 -0.00071094756 0 -0.00023900263 -0.00071122416 0.9999997 0 0 0 0 1 -0.99999964 -0.00011302572 -0.0003097145 -0.009998 0.00011329704 -0.9999993 -0.0008761636 0 -0.00030961537 -0.00087619864 0.9999996 0 0 0 0 1 -0.9999995 0.0006607027 -0.0003824883 -0.009998 -0.00066031073 -0.99999917 -0.0010240554 0 -0.00038316462 -0.0010238026 0.9999994 0 0 0 0 1 -0.9999989 0.0011688377 -0.00045629137 -0.009998 -0.001168315 -0.99999845 -0.0011439148 0 -0.00045762782 -0.0011433809 0.9999992 0 0 0 0 1 -0.9999988 0.0014142334 -0.00052926195 -0.009998 -0.0014135842 -0.9999982 -0.0012250241 0 -0.0005309935 -0.0012242746 0.9999991 0 0 0 0 1 -0.9999989 0.0014002192 -0.00059951475 -0.009998 -0.001399465 -0.99999833 -0.001256651 0 -0.0006012733 -0.0012558105 0.99999905 0 0 0 0 1 -0.99999905 0.001180906 -0.0006650851 -0.009998 -0.0011800885 -0.99999857 -0.0012280396 0 -0.00066653435 -0.0012272536 0.99999905 0 0 0 0 1 -0.9999994 0.000827093 -0.00072394894 -0.009998 -0.0008262758 -0.99999905 -0.0011284188 0 -0.00072488154 -0.00112782 0.9999991 0 0 0 0 1 -0.9999995 0.00036666484 -0.00077408017 -0.009998 -0.00036593172 -0.9999994 -0.0009470115 0 -0.00077442697 -0.00094672793 0.9999992 0 0 0 0 1 -0.9999995 -0.00017296911 -0.0008134217 -0.009998 0.00017351659 -0.99999964 -0.0006730302 0 -0.000813305 -0.0006731711 0.99999946 0 0 0 0 1 -0.9999995 -0.00017296911 -0.0008134217 -0.009998 0.00017351659 -0.99999964 -0.0006730302 0 -0.000813305 -0.0006731711 0.99999946 0 0 0 0 1</float_array>
        <technique_common>
          <accessor source="#Motion_54_Hips_transform_pose_array_id" count="16" stride="16">
            <param name="TRANSFORM" type="float4x4" />
          </accessor>
        </technique_common>
      </source>
      <sampler id="Motion_54_Hips_transform_samp_id">
        <input semantic="INPUT" source="#Motion_54_Hips_transform_frame_id" />
        <input semantic="INTERPOLATION" source="#Motion_54_Hips_transform_interp_id" />
        <input semantic="OUTPUT" source="#Motion_54_Hips_transform_pose_id" />
      </sampler>
      <channel source="#Motion_54_Hips_transform_samp_id" target="Hips_bone_id/transform" />
    </animation>
    <animation id="Motion_54_RThigh_transform_id" name="Motion_54_RThigh_transform">
      <source id="Motion_54_RThigh_transform_frame_id" name="Motion_54_RThigh_transform_frame">
        <float_array id="Motion_54_RThigh_transform_frame_array_id" count="16">0 0.033333335 0.06666667 0.1 0.13333334 0.16666667 0.2 0.23333333 0.26666668 0.3 0.33333334 0.36666667 0.4 0.43333334 0.46666667 0.5</float_array>
        <technique_common>
          <accessor source="#Motion_54_RThigh_transform_frame_array_id" count="16" stride="1">
            <param name="TIME" type="float" />
          </accessor>
        </technique_common>
      </source>
      <source id="Motion_54_RThigh_transform_interp_id" name="Motion_54_RThigh_transform_interp">
        <Name_array id="Motion_54_RThigh_transform_interp_array_id" count="16">LINEAR LINEAR LINEAR LINEAR LINEAR LINEAR LINEAR LINEAR LINEAR LINEAR LINEAR LINEAR LINEAR LINEAR LINEAR LINEAR</Name_array>
        <technique_common>
          <accessor source="#Motion_54_RThigh_transform_interp_array_id" count="16" stride="1">
            <param name="INTERPOLATION" type="Name" />
          </accessor>
        </technique_common>
      </source>
      <source id="Motion_54_RThigh_transform_pose_id" name="Motion_54_RThigh_transform_pose">
        <float_array id="Motion_54_RThigh_transform_pose_array_id" count="256">0.42586106 -0.038704827 -0.90396035 3.280003 -0.0031953081 0.999014 -0.044280067 -5.4 0.9047829 0.02174559 0.42531753 0 0 0 0 1 0.42695796 -0.03948985 -0.9034089 3.280003 -0.0024663657 0.99899143 -0.044833586 -5.4 0.90426815 0.021370195 0.42642993 0 0 0 0 1 0.42863756 -0.040489245 -0.90256876 3.280003 -0.0014584437 0.998963 -0.045506116 -5.4 0.90347534 0.020821977 0.42813402 0 0 0 0 1 0.43081003 -0.041404333 -0.90149236 3.280003 -0.0005177185 0.99893546 -0.046127174 -5.4 0.9024426 0.02033877 0.43032998 0 0 0 0 1 0.43338722 -0.04193496 -0.9002316 3.280003 8.409843E-06 0.998917 -0.046527915 -5.4 0.9012078 0.020157034 0.43291825 0 0 0 0 1 0.43628109 -0.041778862 -0.89884 3.280003 -0.00022921525 0.9989163 -0.04654175 -5.4 0.8998104 0.020511312 0.4357987 0 0 0 0 1 0.43914485 -0.04128113 -0.8974673 3.280003 -0.0009398237 0.99892217 -0.046407655 -5.4 0.89841574 0.021223145 0.43863273 0 0 0 0 1 0.44163477 -0.041003216 -0.8962574 3.280003 -0.0016160086 0.99891716 -0.046496123 -5.4 0.89719343 0.021982662 0.4410903 0 0 0 0 1 0.44366723 -0.040965572 -0.8952548 3.280003 -0.002283536 0.9988998 -0.046839885 -5.4 0.8961887 0.022825668 0.44308555 0 0 0 0 1 0.44515926 -0.041188702 -0.89450365 3.280003 -0.0029684585 0.99886817 -0.047471605 -5.4 0.8954465 0.023787724 0.4445331 0 0 0 0 1 0.4460268 -0.041624002 -0.89405125 3.280003 -0.0036279429 0.9988257 -0.048311867 -5.4 0.8950123 0.024791956 0.44535202 0 0 0 0 1 0.4461851 -0.042179108 -0.8939462 3.280003 -0.0041757207 0.9987797 -0.04920965 -5.4 0.89493096 0.025689486 0.44546455 0 0 0 0 1 0.44554883 -0.042808894 -0.8942336 3.280003 -0.0045732893 0.99873424 -0.050090194 -5.4 0.895246 0.02640722 0.4447891 0 0 0 0 1 0.44403177 -0.043467805 -0.89495605 3.280003 -0.004782278 0.99869335 -0.050879024 -5.4 0.8959983 0.02687183 0.44324374 0 0 0 0 1 0.44154555 -0.044109534 -0.89615387 3.280003 -0.004764173 0.9986615 -0.051502418 -5.4 0.89722615 0.027010094 0.4407444 0 0 0 0 1 0.44154555 -0.044109534 -0.89615387 3.280003 -0.004764173 0.9986615 -0.051502418 -5.4 0.89722615 0.027010094 0.4407444 0 0 0 0 1</float_array>
        <technique_common>
          <accessor source="#Motion_54_RThigh_transform_pose_array_id" count="16" stride="16">
            <param name="TRANSFORM" type="float4x4" />
          </accessor>
        </technique_common>
      </source>
      <sampler id="Motion_54_RThigh_transform_samp_id">
        <input semantic="INPUT" source="#Motion_54_RThigh_transform_frame_id" />
        <input semantic="INTERPOLATION" source="#Motion_54_RThigh_transform_interp_id" />
        <input semantic="OUTPUT" source="#Motion_54_RThigh_transform_pose_id" />
      </sampler>
      <channel source="#Motion_54_RThigh_transform_samp_id" target="RThigh_bone_id/transform" />
    </animation>
    <animation id="Motion_54_RLeg_transform_id" name="Motion_54_RLeg_transform">
      <source id="Motion_54_RLeg_transform_frame_id" name="Motion_54_RLeg_transform_frame">
        <float_array id="Motion_54_RLeg_transform_frame_array_id" count="16">0 0.033333335 0.06666667 0.1 0.13333334 0.16666667 0.2 0.23333333 0.26666668 0.3 0.33333334 0.36666667 0.4 0.43333334 0.46666667 0.5</float_array>
        <technique_common>
          <accessor source="#Motion_54_RLeg_transform_frame_array_id" count="16" stride="1">
            <param name="TIME" type="float" />
          </accessor>
        </technique_common>
      </source>
      <source id="Motion_54_RLeg_transform_interp_id" name="Motion_54_RLeg_transform_interp">
        <Name_array id="Motion_54_RLeg_transform_interp_array_id" count="16">LINEAR LINEAR LINEAR LINEAR LINEAR LINEAR LINEAR LINEAR LINEAR LINEAR LINEAR LINEAR LINEAR LINEAR LINEAR LINEAR</Name_array>
        <technique_common>
          <accessor source="#Motion_54_RLeg_transform_interp_array_id" count="16" stride="1">
            <param name="INTERPOLATION" type="Name" />
          </accessor>
        </technique_common>
      </source>
      <source id="Motion_54_RLeg_transform_pose_id" name="Motion_54_RLeg_transform_pose">
        <float_array id="Motion_54_RLeg_transform_pose_array_id" count="256">0.39750248 0 0.9176011 14.91 0 1 0 0 -0.9176011 0 0.39750248 0 0 0 0 1 0.39914167 0 0.9168893 14.91 0 1 0 0 -0.9168893 0 0.39914167 0 0 0 0 1 0.40213484 0 0.91558045 14.91 0 1 0 0 -0.91558045 0 0.40213484 0 0 0 0 1 0.40625578 0 0.9137594 14.91 0 1 0 0 -0.9137594 0 0.40625578 0 0 0 0 1 0.40987718 0 0.9121407 14.91 0 1 0 0 -0.9121407 0 0.40987718 0 0 0 0 1 0.41164482 0 0.91134435 14.91 0 1 0 0 -0.91134435 0 0.41164482 0 0 0 0 1 0.41098982 0 0.9116399 14.91 0 1 0 0 -0.9116399 0 0.41098982 0 0 0 0 1 0.40849012 0 0.91276276 14.91 0 1 0 0 -0.91276276 0 0.40849012 0 0 0 0 1 0.40451276 0 0.91453236 14.91 0 1 0 0 -0.91453236 0 0.40451276 0 0 0 0 1 0.3994242 0 0.9167662 14.91 0 1 0 0 -0.9167662 0 0.3994242 0 0 0 0 1 0.39359242 0 0.91928506 14.91 0 1 0 0 -0.91928506 0 0.39359242 0 0 0 0 1 0.38738823 0 0.92191666 14.91 0 1 0 0 -0.92191666 0 0.38738823 0 0 0 0 1 0.38118702 0 0.92449796 14.91 0 1 0 0 -0.92449796 0 0.38118702 0 0 0 0 1 0.3753683 0 0.9268757 14.91 0 1 0 0 -0.9268757 0 0.3753683 0 0 0 0 1 0.37031472 0 0.9289064 14.91 0 1 0 0 -0.9289064 0 0.37031472 0 0 0 0 1 0.37031472 0 0.9289064 14.91 0 1 0 0 -0.9289064 0 0.37031472 0 0 0 0 1</float_array>
        <technique_common>
          <accessor source="#Motion_54_RLeg_transform_pose_array_id" count="16" stride="16">
            <param name="TRANSFORM" type="float4x4" />
          </accessor>
        </technique_common>
      </source>
      <sampler id="Motion_54_RLeg_transform_samp_id">
        <input semantic="INPUT" source="#Motion_54_RLeg_transform_frame_id" />
        <input semantic="INTERPOLATION" source="#Motion_54_RLeg_transform_interp_id" />
        <input semantic="OUTPUT" source="#Motion_54_RLeg_transform_pose_id" />
      </sampler>
      <channel source="#Motion_54_RLeg_transform_samp_id" target="RLeg_bone_id/transform" />
    </animation>
    <animation id="Motion_54_RFoot_transform_id" name="Motion_54_RFoot_transform">
      <source id="Motion_54_RFoot_transform_frame_id" name="Motion_54_RFoot_transform_frame">
        <float_array id="Motion_54_RFoot_transform_frame_array_id" count="16">0 0.033333335 0.06666667 0.1 0.13333334 0.16666667 0.2 0.23333333 0.26666668 0.3 0.33333334 0.36666667 0.4 0.43333334 0.46666667 0.5</float_array>
        <technique_common>
          <accessor source="#Motion_54_RFoot_transform_frame_array_id" count="16" stride="1">
            <param name="TIME" type="float" />
          </accessor>
        </technique_common>
      </source>
      <source id="Motion_54_RFoot_transform_interp_id" name="Motion_54_RFoot_transform_interp">
        <Name_array id="Motion_54_RFoot_transform_interp_array_id" count="16">LINEAR LINEAR LINEAR LINEAR LINEAR LINEAR LINEAR LINEAR LINEAR LINEAR LINEAR LINEAR LINEAR LINEAR LINEAR LINEAR</Name_array>
        <technique_common>
          <accessor source="#Motion_54_RFoot_transform_interp_array_id" count="16" stride="1">
            <param name="INTERPOLATION" type="Name" />
          </accessor>
        </technique_common>
      </source>
      <source id="Motion_54_RFoot_transform_pose_id" name="Motion_54_RFoot_transform_pose">
        <float_array id="Motion_54_RFoot_transform_pose_array_id" count="256">0.58988774 0.009354042 -0.8074311 14.909829 -0.006184309 0.9999559 0.007066339 0 0.8074616 0.00082505634 0.58991957 0 0 0 0 1 0.5895088 0.009520581 -0.8077059 14.909829 -0.007006601 0.9999532 0.006672828 0 0.8077316 0.0017255819 0.5895479 0 0 0 0 1 0.58878785 0.009801365 -0.8082282 14.909829 -0.008465644 0.9999464 0.005959174 0 0.80824333 0.0033334824 0.5888393 0 0 0 0 1 0.5870045 0.010128092 -0.8095203 14.909829 -0.0103459805 0.99993396 0.005008257 0 0.80951756 0.005435412 0.58707047 0 0 0 0 1 0.5834317 0.010428005 -0.8120953 14.909829 -0.012433653 0.99991506 0.003907094 0 0.81206703 0.007817788 0.5835118 0 0 0 0 1 0.57732767 0.010624155 -0.81644344 14.909829 -0.0145164 0.99989086 0.0027463958 0 0.8163835 0.01026625 0.57741886 0 0 0 0 1 0.56886554 0.0106459 -0.82236165 14.909829 -0.016385868 0.99986446 0.001608904 0 0.82226735 0.012559859 0.5689628 0 0 0 0 1 0.5609828 0.010456506 -0.82776135 14.909829 -0.017838605 0.99984074 0.00054084277 0 0.8276352 0.014462706 0.56108 0 0 0 0 1 0.5571272 0.0100416895 -0.8303665 14.909829 -0.01866546 0.9998257 -0.00043245498 0 0.83021736 0.015740104 0.5572175 0 0 0 0 1 0.5586469 0.009369956 -0.8293527 14.909829 -0.018647898 0.9998253 -0.0012651677 0 0.8291959 0.016172465 0.55872405 0 0 0 0 1 0.5638611 0.00773614 -0.82583344 14.909829 -0.016934637 0.9998542 -0.002196292 0 0.825696 0.015223594 0.5639099 0 0 0 0 1 0.5716722 0.004801858 -0.82046807 14.909829 -0.013055379 0.9999095 -0.0032444582 0 0.8203783 0.012566287 0.57168317 0 0 0 0 1 0.58096814 0.0010366817 -0.8139257 14.909829 -0.0073637576 0.99996495 -0.003982505 0 0.813893 0.0083072595 0.5809554 0 0 0 0 1 0.5906608 -0.0033461675 -0.806913 14.909829 -0.00048725284 0.99998975 -0.004503502 0 0.8069198 0.003053213 0.5906532 0 0 0 0 1 0.5997083 -0.007566138 -0.8001829 14.909829 0.006163991 0.9999693 -0.004835531 0 0.8001949 -0.0020324122 0.5997366 0 0 0 0 1 0.5997083 -0.007566138 -0.8001829 14.909829 0.006163991 0.9999693 -0.004835531 0 0.8001949 -0.0020324122 0.5997366 0 0 0 0 1</float_array>
        <technique_common>
          <accessor source="#Motion_54_RFoot_transform_pose_array_id" count="16" stride="16">
            <param name="TRANSFORM" type="float4x4" />
          </accessor>
        </technique_common>
      </source>
      <sampler id="Motion_54_RFoot_transform_samp_id">
        <input semantic="INPUT" source="#Motion_54_RFoot_transform_frame_id" />
        <input semantic="INTERPOLATION" source="#Motion_54_RFoot_transform_interp_id" />
        <input semantic="OUTPUT" source="#Motion_54_RFoot_transform_pose_id" />
      </sampler>
      <channel source="#Motion_54_RFoot_transform_samp_id" target="RFoot_bone_id/transform" />
    </animation>
    <animation id="Motion_54_LThigh_transform_id" name="Motion_54_LThigh_transform">
      <source id="Motion_54_LThigh_transform_frame_id" name="Motion_54_LThigh_transform_frame">
        <float_array id="Motion_54_LThigh_transform_frame_array_id" count="16">0 0.033333335 0.06666667 0.1 0.13333334 0.16666667 0.2 0.23333333 0.26666668 0.3 0.33333334 0.36666667 0.4 0.43333334 0.46666667 0.5</float_array>
        <technique_common>
          <accessor source="#Motion_54_LThigh_transform_frame_array_id" count="16" stride="1">
            <param name="TIME" type="float" />
          </accessor>
        </technique_common>
      </source>
      <source id="Motion_54_LThigh_transform_interp_id" name="Motion_54_LThigh_transform_interp">
        <Name_array id="Motion_54_LThigh_transform_interp_array_id" count="16">LINEAR LINEAR LINEAR LINEAR LINEAR LINEAR LINEAR LINEAR LINEAR LINEAR LINEAR LINEAR LINEAR LINEAR LINEAR LINEAR</Name_array>
        <technique_common>
          <accessor source="#Motion_54_LThigh_transform_interp_array_id" count="16" stride="1">
            <param name="INTERPOLATION" type="Name" />
          </accessor>
        </technique_common>
      </source>
      <source id="Motion_54_LThigh_transform_pose_id" name="Motion_54_LThigh_transform_pose">
        <float_array id="Motion_54_LThigh_transform_pose_array_id" count="256">0.42910784 0.01678757 -0.9030972 3.280003 0.0056681326 0.9997575 0.021277599 5.4 0.9032355 -0.014249261 0.42890865 0 0 0 0 1 0.43042856 0.016152138 -0.9024801 3.280003 0.0065872683 0.99975705 0.021034881 5.4 0.90260065 -0.014998893 0.43021756 0 0 0 0 1 0.43260705 0.015413921 -0.9014508 3.280003 0.007929197 0.99975014 0.020899974 5.4 0.90154773 -0.016189259 0.43237674 0 0 0 0 1 0.4354803 0.014833038 -0.90007603 3.280003 0.00933013 0.99973613 0.020989574 5.4 0.90014994 -0.017538372 0.43522698 0 0 0 0 1 0.43888623 0.014671585 -0.89842284 3.280003 0.010424696 0.9997162 0.021418286 5.4 0.8984822 -0.018765977 0.43860877 0 0 0 0 1 0.44223624 0.0151987085 -0.89676976 3.280003 0.010850416 0.99969256 0.022293884 5.4 0.89683294 -0.019589487 0.44193536 0 0 0 0 1 0.44502473 0.016082475 -0.8953739 3.280003 0.010847223 0.9996686 0.023347149 5.4 0.89545256 -0.02010238 0.4447028 0 0 0 0 1 0.4472174 0.01674221 -0.8942686 3.280003 0.010895831 0.99964863 0.02416403 5.4 0.89435893 -0.020550376 0.44687784 0 0 0 0 1 0.4487772 0.01707847 -0.8934805 3.280003 0.010996143 0.9996361 0.02463073 5.4 0.8935761 -0.02087855 0.44842613 0 0 0 0 1 0.44966727 0.016991856 -0.8930345 3.280003 0.011147831 0.9996344 0.02463338 5.4 0.89312655 -0.021032223 0.44931346 0 0 0 0 1 0.44984978 0.016471885 -0.8929524 3.280003 0.011438861 0.99964166 0.024202581 5.4 0.89303106 -0.021101885 0.44950014 0 0 0 0 1 0.4492867 0.015564514 -0.8932521 3.280003 0.0120126195 0.99965256 0.023460587 5.4 0.8933069 -0.021270828 0.44894367 0 0 0 0 1 0.44790018 0.014255811 -0.8939699 3.280003 0.012951161 0.99966455 0.022430124 5.4 0.8939898 -0.021624403 0.44756532 0 0 0 0 1 0.44571286 0.012531709 -0.89508826 3.280003 0.0143343415 0.9996739 0.021133803 5.4 0.8950612 -0.022250108 0.44538784 0 0 0 0 1 0.44283348 0.010378366 -0.8965438 3.280003 0.016240379 0.9996761 0.019593898 5.4 0.8964568 -0.023237046 0.4425215 0 0 0 0 1 0.44283348 0.010378366 -0.8965438 3.280003 0.016240379 0.9996761 0.019593898 5.4 0.8964568 -0.023237046 0.4425215 0 0 0 0 1</float_array>
        <technique_common>
          <accessor source="#Motion_54_LThigh_transform_pose_array_id" count="16" stride="16">
            <param name="TRANSFORM" type="float4x4" />
          </accessor>
        </technique_common>
      </source>
      <sampler id="Motion_54_LThigh_transform_samp_id">
        <input semantic="INPUT" source="#Motion_54_LThigh_transform_frame_id" />
        <input semantic="INTERPOLATION" source="#Motion_54_LThigh_transform_interp_id" />
        <input semantic="OUTPUT" source="#Motion_54_LThigh_transform_pose_id" />
      </sampler>
      <channel source="#Motion_54_LThigh_transform_samp_id" target="LThigh_bone_id/transform" />
    </animation>
    <animation id="Motion_54_LLeg_transform_id" name="Motion_54_LLeg_transform">
      <source id="Motion_54_LLeg_transform_frame_id" name="Motion_54_LLeg_transform_frame">
        <float_array id="Motion_54_LLeg_transform_frame_array_id" count="16">0 0.033333335 0.06666667 0.1 0.13333334 0.16666667 0.2 0.23333333 0.26666668 0.3 0.33333334 0.36666667 0.4 0.43333334 0.46666667 0.5</float_array>
        <technique_common>
          <accessor source="#Motion_54_LLeg_transform_frame_array_id" count="16" stride="1">
            <param name="TIME" type="float" />
          </accessor>
        </technique_common>
      </source>
      <source id="Motion_54_LLeg_transform_interp_id" name="Motion_54_LLeg_transform_interp">
        <Name_array id="Motion_54_LLeg_transform_interp_array_id" count="16">LINEAR LINEAR LINEAR LINEAR LINEAR LINEAR LINEAR LINEAR LINEAR LINEAR LINEAR LINEAR LINEAR LINEAR LINEAR LINEAR</Name_array>
        <technique_common>
          <accessor source="#Motion_54_LLeg_transform_interp_array_id" count="16" stride="1">
            <param name="INTERPOLATION" type="Name" />
          </accessor>
        </technique_common>
      </source>
      <source id="Motion_54_LLeg_transform_pose_id" name="Motion_54_LLeg_transform_pose">
        <float_array id="Motion_54_LLeg_transform_pose_array_id" count="256">0.38483477 0 0.92298543 14.91 0 1 0 0 -0.92298543 0 0.38483477 0 0 0 0 1 0.38872373 0 0.92135435 14.91 0 1 0 0 -0.92135435 0 0.38872373 0 0 0 0 1 0.39480078 0 0.91876674 14.91 0 1 0 0 -0.91876674 0 0.39480078 0 0 0 0 1 0.3987462 0 0.9170613 14.91 0 1 0 0 -0.9170613 0 0.3987462 0 0 0 0 1 0.3981316 0 0.91732836 14.91 0 1 0 0 -0.91732836 0 0.3981316 0 0 0 0 1 0.39485925 0 0.91874164 14.91 0 1 0 0 -0.91874164 0 0.39485925 0 0 0 0 1 0.38983232 0 0.92088586 14.91 0 1 0 0 -0.92088586 0 0.38983232 0 0 0 0 1 0.38395673 0 0.9233511 14.91 0 1 0 0 -0.9233511 0 0.38395673 0 0 0 0 1 0.37771153 0 0.9259233 14.91 0 1 0 0 -0.9259233 0 0.37771153 0 0 0 0 1 0.3712539 0 0.9285314 14.91 0 1 0 0 -0.9285314 0 0.3712539 0 0 0 0 1 0.36501586 0 0.9310013 14.91 0 1 0 0 -0.9310013 0 0.36501586 0 0 0 0 1 0.35943472 0 0.9331702 14.91 0 1 0 0 -0.9331702 0 0.35943472 0 0 0 0 1 0.3549505 0 0.9348851 14.91 0 1 0 0 -0.9348851 0 0.3549505 0 0 0 0 1 0.35200566 0 0.9359979 14.91 0 1 0 0 -0.9359979 0 0.35200566 0 0 0 0 1 0.3510418 0 0.9363598 14.91 0 1 0 0 -0.9363598 0 0.3510418 0 0 0 0 1 0.3510418 0 0.9363598 14.91 0 1 0 0 -0.9363598 0 0.3510418 0 0 0 0 1</float_array>
        <technique_common>
          <accessor source="#Motion_54_LLeg_transform_pose_array_id" count="16" stride="16">
            <param name="TRANSFORM" type="float4x4" />
          </accessor>
        </technique_common>
      </source>
      <sampler id="Motion_54_LLeg_transform_samp_id">
        <input semantic="INPUT" source="#Motion_54_LLeg_transform_frame_id" />
        <input semantic="INTERPOLATION" source="#Motion_54_LLeg_transform_interp_id" />
        <input semantic="OUTPUT" source="#Motion_54_LLeg_transform_pose_id" />
      </sampler>
      <channel source="#Motion_54_LLeg_transform_samp_id" target="LLeg_bone_id/transform" />
    </animation>
    <animation id="Motion_54_LFoot_transform_id" name="Motion_54_LFoot_transform">
      <source id="Motion_54_LFoot_transform_frame_id" name="Motion_54_LFoot_transform_frame">
        <float_array id="Motion_54_LFoot_transform_frame_array_id" count="16">0 0.033333335 0.06666667 0.1 0.13333334 0.16666667 0.2 0.23333333 0.26666668 0.3 0.33333334 0.36666667 0.4 0.43333334 0.46666667 0.5</float_array>
        <technique_common>
          <accessor source="#Motion_54_LFoot_transform_frame_array_id" count="16" stride="1">
            <param name="TIME" type="float" />
          </accessor>
        </technique_common>
      </source>
      <source id="Motion_54_LFoot_transform_interp_id" name="Motion_54_LFoot_transform_interp">
        <Name_array id="Motion_54_LFoot_transform_interp_array_id" count="16">LINEAR LINEAR LINEAR LINEAR LINEAR LINEAR LINEAR LINEAR LINEAR LINEAR LINEAR LINEAR LINEAR LINEAR LINEAR LINEAR</Name_array>
        <technique_common>
          <accessor source="#Motion_54_LFoot_transform_interp_array_id" count="16" stride="1">
            <param name="INTERPOLATION" type="Name" />
          </accessor>
        </technique_common>
      </source>
      <source id="Motion_54_LFoot_transform_pose_id" name="Motion_54_LFoot_transform_pose">
        <float_array id="Motion_54_LFoot_transform_pose_array_id" count="256">0.5691545 -0.0045848098 -0.8222178 14.909826 -0.0068072258 0.9999239 -0.010287816 0 0.82220244 0.011452379 0.56908 0 0 0 0 1 0.5673359 -0.004926694 -0.82347167 14.909826 -0.0056764823 0.999935 -0.009893291 0 0.8234669 0.010287242 0.567271 0 0 0 0 1 0.56324947 -0.005507916 -0.82626855 14.909826 -0.0037388243 0.9999505 -0.009214359 0 0.82627845 0.008279256 0.563201 0 0 0 0 1 0.55569243 -0.006214925 -0.8313647 14.909826 -0.001220579 0.9999649 -0.008291155 0 0.831387 0.0056220787 0.5556654 0 0 0 0 1 0.54671896 -0.0069196187 -0.8372876 14.909826 0.0016696055 0.9999729 -0.00717391 0 0.83731455 0.0025241727 0.54671574 0 0 0 0 1 0.53899074 -0.0075113783 -0.8422782 14.909826 0.0047231317 0.99997145 -0.0058952495 0 0.84229845 -0.00080070575 0.5390109 0 0 0 0 1 0.53523034 -0.007905485 -0.84466916 14.909826 0.007726502 0.9999602 -0.004462945 0 0.84467083 -0.0041376348 0.5352701 0 0 0 0 1 0.53656495 -0.008032925 -0.84382087 14.909826 0.010454312 0.99994123 -0.0028715034 0 0.8437943 -0.0072808173 0.5366174 0 0 0 0 1 0.5416234 -0.0074673807 -0.84058803 14.909826 0.012324753 0.9999236 -0.0009415257 0 0.8405308 -0.0098500885 0.5416741 0 0 0 0 1 0.5493818 -0.005799261 -0.8355513 14.909826 0.012787816 0.99991715 0.0014680289 0 0.8354736 -0.011491385 0.54941046 0 0 0 0 1 0.55880797 -0.0031774682 -0.829291 14.909826 0.011439161 0.99992704 0.0038768756 0 0.82921815 -0.011652822 0.55880356 0 0 0 0 1 0.5688803 0.00014104648 -0.8224203 14.909826 0.007756525 0.9999546 0.0055367965 0 0.8223837 -0.009528899 0.5688534 0 0 0 0 1 0.57859635 0.004065029 -0.8156039 14.909826 0.0013845259 0.9999812 0.0059661744 0 0.81561285 -0.0045812316 0.5785799 0 0 0 0 1 0.5869829 0.008172856 -0.80955803 14.909826 -0.0067791846 0.9999636 0.0051797302 0 0.8095709 0.0024477302 0.58701694 0 0 0 0 1 0.593369 0.012021656 -0.8048408 14.909826 -0.015031501 0.9998796 0.0038529134 0 0.80479026 0.0098117655 0.5934783 0 0 0 0 1 0.593369 0.012021656 -0.8048408 14.909826 -0.015031501 0.9998796 0.0038529134 0 0.80479026 0.0098117655 0.5934783 0 0 0 0 1</float_array>
        <technique_common>
          <accessor source="#Motion_54_LFoot_transform_pose_array_id" count="16" stride="16">
            <param name="TRANSFORM" type="float4x4" />
          </accessor>
        </technique_common>
      </source>
      <sampler id="Motion_54_LFoot_transform_samp_id">
        <input semantic="INPUT" source="#Motion_54_LFoot_transform_frame_id" />
        <input semantic="INTERPOLATION" source="#Motion_54_LFoot_transform_interp_id" />
        <input semantic="OUTPUT" source="#Motion_54_LFoot_transform_pose_id" />
      </sampler>
      <channel source="#Motion_54_LFoot_transform_samp_id" target="LFoot_bone_id/transform" />
    </animation>
    <animation id="Motion_54_Spine2_transform_id" name="Motion_54_Spine2_transform">
      <source id="Motion_54_Spine2_transform_frame_id" name="Motion_54_Spine2_transform_frame">
        <float_array id="Motion_54_Spine2_transform_frame_array_id" count="16">0 0.033333335 0.06666667 0.1 0.13333334 0.16666667 0.2 0.23333333 0.26666668 0.3 0.33333334 0.36666667 0.4 0.43333334 0.46666667 0.5</float_array>
        <technique_common>
          <accessor source="#Motion_54_Spine2_transform_frame_array_id" count="16" stride="1">
            <param name="TIME" type="float" />
          </accessor>
        </technique_common>
      </source>
      <source id="Motion_54_Spine2_transform_interp_id" name="Motion_54_Spine2_transform_interp">
        <Name_array id="Motion_54_Spine2_transform_interp_array_id" count="16">LINEAR LINEAR LINEAR LINEAR LINEAR LINEAR LINEAR LINEAR LINEAR LINEAR LINEAR LINEAR LINEAR LINEAR LINEAR LINEAR</Name_array>
        <technique_common>
          <accessor source="#Motion_54_Spine2_transform_interp_array_id" count="16" stride="1">
            <param name="INTERPOLATION" type="Name" />
          </accessor>
        </technique_common>
      </source>
      <source id="Motion_54_Spine2_transform_pose_id" name="Motion_54_Spine2_transform_pose">
        <float_array id="Motion_54_Spine2_transform_pose_array_id" count="256">0.9471122 -0.0048393584 -0.3208661 8.5 -0.004260883 0.9996085 -0.027653271 0 0.32087433 0.027557923 0.9467208 0 0 0 0 1 0.94946593 -0.0048403773 -0.31383282 8.5 -0.0037123333 0.99963796 -0.026649088 0 0.3138482 0.026467454 0.9491042 0 0 0 0 1 0.95510834 -0.004708917 -0.29621926 8.5 -0.0028735755 0.9996794 -0.025156986 0 0.29624274 0.024878856 0.9547886 0 0 0 0 1 0.96223944 -0.0046647266 -0.27216452 8.5 -0.0017699769 0.9997248 -0.023392411 0 0.27219874 0.022990825 0.96196634 0 0 0 0 1 0.96881837 -0.0049724327 -0.2477222 8.5 -0.00047181966 0.9997598 -0.021913037 0 0.24777164 0.021346632 0.9685833 0 0 0 0 1 0.97384983 -0.0058292486 -0.22711799 8.5 0.0010176762 0.99977267 -0.021296684 0 0.2271905 0.02050864 0.97363436 0 0 0 0 1 0.9766148 -0.0071913553 -0.21487634 8.5 0.0025704375 0.99975955 -0.021776706 0 0.21498127 0.020715129 0.97639847 0 0 0 0 1 0.97846115 -0.008718868 -0.20624676 8.5 0.0040126266 0.9997222 -0.023225797 0 0.20639196 0.021897951 0.97822434 0 0 0 0 1 0.9795226 -0.010206168 -0.2010754 8.5 0.0052241525 0.99966645 -0.025291942 0 0.20126647 0.02372358 0.9792492 0 0 0 0 1 0.98005056 -0.011471445 -0.19841696 8.5 0.0060621053 0.9995938 -0.027848497 0 0.19865583 0.026090112 0.97972196 0 0 0 0 1 0.980307 -0.01233074 -0.19709422 8.5 0.0063868808 0.99950624 -0.030764712 0 0.19737627 0.028900044 0.97990173 0 0 0 0 1 0.9803652 -0.012610176 -0.19678688 8.5 0.0060485257 0.99940664 -0.033909418 0 0.19709772 0.032053344 0.9798597 0 0 0 0 1 0.98014444 -0.012148436 -0.1979123 8.5 0.004884213 0.99929774 -0.037151158 0 0.19822463 0.035446852 0.97951543 0 0 0 0 1 0.97962093 -0.010918334 -0.20055827 8.5 0.0028718482 0.9991808 -0.04036765 0 0.20083472 0.03896902 0.97884977 0 0 0 0 1 0.97875977 -0.009199914 -0.20480414 8.5 0.0002958714 0.99905497 -0.043464124 0 0.20501046 0.042480342 0.9778375 0 0 0 0 1 0.97875977 -0.009199914 -0.20480414 8.5 0.0002958714 0.99905497 -0.043464124 0 0.20501046 0.042480342 0.9778375 0 0 0 0 1</float_array>
        <technique_common>
          <accessor source="#Motion_54_Spine2_transform_pose_array_id" count="16" stride="16">
            <param name="TRANSFORM" type="float4x4" />
          </accessor>
        </technique_common>
      </source>
      <sampler id="Motion_54_Spine2_transform_samp_id">
        <input semantic="INPUT" source="#Motion_54_Spine2_transform_frame_id" />
        <input semantic="INTERPOLATION" source="#Motion_54_Spine2_transform_interp_id" />
        <input semantic="OUTPUT" source="#Motion_54_Spine2_transform_pose_id" />
      </sampler>
      <channel source="#Motion_54_Spine2_transform_samp_id" target="Spine2_bone_id/transform" />
    </animation>
    <animation id="Motion_54_Spine3_transform_id" name="Motion_54_Spine3_transform">
      <source id="Motion_54_Spine3_transform_frame_id" name="Motion_54_Spine3_transform_frame">
        <float_array id="Motion_54_Spine3_transform_frame_array_id" count="16">0 0.033333335 0.06666667 0.1 0.13333334 0.16666667 0.2 0.23333333 0.26666668 0.3 0.33333334 0.36666667 0.4 0.43333334 0.46666667 0.5</float_array>
        <technique_common>
          <accessor source="#Motion_54_Spine3_transform_frame_array_id" count="16" stride="1">
            <param name="TIME" type="float" />
          </accessor>
        </technique_common>
      </source>
      <source id="Motion_54_Spine3_transform_interp_id" name="Motion_54_Spine3_transform_interp">
        <Name_array id="Motion_54_Spine3_transform_interp_array_id" count="16">LINEAR LINEAR LINEAR LINEAR LINEAR LINEAR LINEAR LINEAR LINEAR LINEAR LINEAR LINEAR LINEAR LINEAR LINEAR LINEAR</Name_array>
        <technique_common>
          <accessor source="#Motion_54_Spine3_transform_interp_array_id" count="16" stride="1">
            <param name="INTERPOLATION" type="Name" />
          </accessor>
        </technique_common>
      </source>
      <source id="Motion_54_Spine3_transform_pose_id" name="Motion_54_Spine3_transform_pose">
        <float_array id="Motion_54_Spine3_transform_pose_array_id" count="256">0.99645174 -0.00042712037 0.084164955 8.5 9.131637E-05 0.999992 0.003993641 0 -0.08416598 -0.003971785 0.9964438 0 0 0 0 1 0.99689174 0.0014883741 0.07876964 8.5 -0.0019079726 0.9999844 0.005251912 0 -0.078760594 -0.005385878 0.996879 0 0 0 0 1 0.99779934 0.0052630096 0.066097185 8.5 -0.0057219486 0.9999608 0.006756001 0 -0.06605904 -0.007119338 0.99779034 0 0 0 0 1 0.9987014 0.00972546 0.050009765 8.5 -0.010144646 0.9999154 0.008135102 0 -0.049926415 -0.008631869 0.9987156 0 0 0 0 1 0.99926674 0.013592423 0.035793636 8.5 -0.0139212655 0.999863 0.008954013 0 -0.03566703 -0.00944574 0.9993191 0 0 0 0 1 0.99949753 0.016463313 0.027084906 8.5 -0.01671679 0.9998183 0.009158913 0 -0.0269292 -0.009607084 0.9995912 0 0 0 0 1 0.9995344 0.0188184 0.024016298 8.5 -0.019039623 0.9997781 0.009016214 0 -0.0238413 -0.009469278 0.9996709 0 0 0 0 1 0.9994316 0.020680167 0.026623623 8.5 -0.020913545 0.999745 0.008517399 0 -0.026440693 -0.0090693515 0.99960923 0 0 0 0 1 0.9991657 0.022078443 0.03435648 8.5 -0.02235438 0.9997207 0.007668186 0 -0.034177583 -0.008429807 0.99938023 0 0 0 0 1 0.99871224 0.023052048 0.045194145 8.5 -0.023369119 0.9997058 0.0064999405 0 -0.045031007 -0.0075477175 0.9989571 0 0 0 0 1 0.99809617 0.023639534 0.056966417 8.5 -0.023966003 0.9997 0.005054496 0 -0.05682984 -0.0064101303 0.9983633 0 0 0 0 1 0.99737775 0.023873614 0.06832058 8.5 -0.024159973 0.99970245 0.003368081 0 -0.06821985 -0.0050098724 0.9976577 0 0 0 0 1 0.9966059 0.023579951 0.078871235 8.5 -0.02377015 0.99971634 0.0014733775 0 -0.07881412 -0.0033431575 0.99688375 0 0 0 0 1 0.99587226 0.022610752 0.08790436 8.5 -0.022646384 0.99974334 -0.00059203245 0 -0.08789518 -0.0014011271 0.99612874 0 0 0 0 1 0.9952828 0.021022396 0.0947106 8.5 -0.020865297 0.9997788 -0.002648849 0 -0.09474534 0.0006601891 0.99550134 0 0 0 0 1 0.9952828 0.021022396 0.0947106 8.5 -0.020865297 0.9997788 -0.002648849 0 -0.09474534 0.0006601891 0.99550134 0 0 0 0 1</float_array>
        <technique_common>
          <accessor source="#Motion_54_Spine3_transform_pose_array_id" count="16" stride="16">
            <param name="TRANSFORM" type="float4x4" />
          </accessor>
        </technique_common>
      </source>
      <sampler id="Motion_54_Spine3_transform_samp_id">
        <input semantic="INPUT" source="#Motion_54_Spine3_transform_frame_id" />
        <input semantic="INTERPOLATION" source="#Motion_54_Spine3_transform_interp_id" />
        <input semantic="OUTPUT" source="#Motion_54_Spine3_transform_pose_id" />
      </sampler>
      <channel source="#Motion_54_Spine3_transform_samp_id" target="Spine3_bone_id/transform" />
    </animation>
    <animation id="Motion_54_Parts_transform_id" name="Motion_54_Parts_transform">
      <source id="Motion_54_Parts_transform_frame_id" name="Motion_54_Parts_transform_frame">
        <float_array id="Motion_54_Parts_transform_frame_array_id" count="16">0 0.033333335 0.06666667 0.1 0.13333334 0.16666667 0.2 0.23333333 0.26666668 0.3 0.33333334 0.36666667 0.4 0.43333334 0.46666667 0.5</float_array>
        <technique_common>
          <accessor source="#Motion_54_Parts_transform_frame_array_id" count="16" stride="1">
            <param name="TIME" type="float" />
          </accessor>
        </technique_common>
      </source>
      <source id="Motion_54_Parts_transform_interp_id" name="Motion_54_Parts_transform_interp">
        <Name_array id="Motion_54_Parts_transform_interp_array_id" count="16">LINEAR LINEAR LINEAR LINEAR LINEAR LINEAR LINEAR LINEAR LINEAR LINEAR LINEAR LINEAR LINEAR LINEAR LINEAR LINEAR</Name_array>
        <technique_common>
          <accessor source="#Motion_54_Parts_transform_interp_array_id" count="16" stride="1">
            <param name="INTERPOLATION" type="Name" />
          </accessor>
        </technique_common>
      </source>
      <source id="Motion_54_Parts_transform_pose_id" name="Motion_54_Parts_transform_pose">
        <float_array id="Motion_54_Parts_transform_pose_array_id" count="256">-0.9185215 -0.016723238 0.3950171 5.61 -0.019490417 -0.995975 -0.08748557 0 0.39489025 -0.08805643 0.9144986 3.872062 0 0 0 1 -0.9185158 -0.0161501 0.395054 5.61 -0.01951594 -0.99609554 -0.08609644 0 0.39490202 -0.08679081 0.91461456 3.872062 0 0 0 1 -0.918501 -0.01524472 0.39512447 5.61 -0.019547118 -0.99628425 -0.08387768 0 0.39493498 -0.084765285 0.9147903 3.872062 0 0 0 1 -0.9184774 -0.0140660135 0.39522323 5.61 -0.019641507 -0.99651146 -0.08111169 0 0.3949854 -0.08226203 0.914997 3.872062 0 0 0 1 -0.9184452 -0.012675249 0.3953452 5.61 -0.019854348 -0.9967493 -0.07808157 0 0.39504975 -0.079562955 0.91520786 3.872062 0 0 0 1 -0.9184046 -0.011166633 0.39548415 5.61 -0.020294268 -0.99695575 -0.075277336 0 0.39512092 -0.07716114 0.91538274 3.872062 0 0 0 1 -0.91835773 -0.009680146 0.39563254 5.61 -0.021142133 -0.99707305 -0.07347186 0 0.3951858 -0.07583797 0.91546535 3.872062 0 0 0 1 -0.91830456 -0.008347948 0.3957862 5.61 -0.022559162 -0.9970492 -0.073371686 0 0.39523092 -0.07630617 0.91540694 3.872062 0 0 0 1 -0.9182466 -0.0072957817 0.39594272 5.61 -0.024712505 -0.9968263 -0.07567962 0 0.39523807 -0.07927727 0.91515136 3.872062 0 0 0 1 -0.9181818 -0.0065358505 0.3961055 5.61 -0.027600091 -0.996379 -0.080418184 0 0.39519683 -0.08477105 0.9146766 3.872062 0 0 0 1 -0.91810787 -0.0059253257 0.396286 5.61 -0.030946141 -0.99576366 -0.08658423 0 0.39512032 -0.0917572 0.9140353 3.872062 0 0 0 1 -0.91802216 -0.0053564357 0.39649284 5.61 -0.034508273 -0.9950359 -0.093341425 0 0.3950246 -0.099371776 0.91328025 3.872062 0 0 0 1 -0.91792107 -0.0047388803 0.3967338 5.61 -0.038028017 -0.9942739 -0.0998616 0 0.39493546 -0.106752105 0.9124856 3.872062 0 0 0 1 -0.91780293 -0.0040016565 0.39701617 5.61 -0.041229144 -0.9935827 -0.10532619 0 0.3948899 -0.11303732 0.91174805 3.872062 0 0 0 1 -0.91770625 -0.0034243595 0.39724547 5.61 -0.043481104 -0.99308944 -0.10900961 0 0.3948735 -0.11731145 0.91121507 3.872062 0 0 0 1 -0.91770625 -0.0034243595 0.39724547 5.61 -0.043481104 -0.99308944 -0.10900961 0 0.3948735 -0.11731145 0.91121507 3.872062 0 0 0 1</float_array>
        <technique_common>
          <accessor source="#Motion_54_Parts_transform_pose_array_id" count="16" stride="16">
            <param name="TRANSFORM" type="float4x4" />
          </accessor>
        </technique_common>
      </source>
      <sampler id="Motion_54_Parts_transform_samp_id">
        <input semantic="INPUT" source="#Motion_54_Parts_transform_frame_id" />
        <input semantic="INTERPOLATION" source="#Motion_54_Parts_transform_interp_id" />
        <input semantic="OUTPUT" source="#Motion_54_Parts_transform_pose_id" />
      </sampler>
      <channel source="#Motion_54_Parts_transform_samp_id" target="Parts_bone_id/transform" />
    </animation>
    <animation id="Motion_54_RShoulder_transform_id" name="Motion_54_RShoulder_transform">
      <source id="Motion_54_RShoulder_transform_frame_id" name="Motion_54_RShoulder_transform_frame">
        <float_array id="Motion_54_RShoulder_transform_frame_array_id" count="16">0 0.033333335 0.06666667 0.1 0.13333334 0.16666667 0.2 0.23333333 0.26666668 0.3 0.33333334 0.36666667 0.4 0.43333334 0.46666667 0.5</float_array>
        <technique_common>
          <accessor source="#Motion_54_RShoulder_transform_frame_array_id" count="16" stride="1">
            <param name="TIME" type="float" />
          </accessor>
        </technique_common>
      </source>
      <source id="Motion_54_RShoulder_transform_interp_id" name="Motion_54_RShoulder_transform_interp">
        <Name_array id="Motion_54_RShoulder_transform_interp_array_id" count="16">LINEAR LINEAR LINEAR LINEAR LINEAR LINEAR LINEAR LINEAR LINEAR LINEAR LINEAR LINEAR LINEAR LINEAR LINEAR LINEAR</Name_array>
        <technique_common>
          <accessor source="#Motion_54_RShoulder_transform_interp_array_id" count="16" stride="1">
            <param name="INTERPOLATION" type="Name" />
          </accessor>
        </technique_common>
      </source>
      <source id="Motion_54_RShoulder_transform_pose_id" name="Motion_54_RShoulder_transform_pose">
        <float_array id="Motion_54_RShoulder_transform_pose_array_id" count="256">-0.5522703 -0.73803324 -0.3876919 7.680003 0.82642764 -0.54581976 -0.1381981 2.750001 -0.109615 -0.3967219 0.9113706 -0.047699 0 0 0 1 -0.556414 -0.7356858 -0.38622504 7.680003 0.82428145 -0.5472981 -0.14499918 2.750001 -0.10470642 -0.39903775 0.9109366 -0.047699 0 0 0 1 -0.56544197 -0.7311028 -0.38179064 7.680003 0.8195015 -0.5503284 -0.15986231 2.750001 -0.093234405 -0.40327087 0.9103186 -0.047699 0 0 0 1 -0.5755837 -0.72735816 -0.37370262 7.680003 0.81385213 -0.5540552 -0.1751219 2.750001 -0.079675496 -0.40493596 0.910867 -0.047699 0 0 0 1 -0.5824976 -0.72766167 -0.36222205 7.680003 0.8099119 -0.5573298 -0.18282765 2.750001 -0.0688405 -0.39986467 0.9139854 -0.047699 0 0 0 1 -0.5850328 -0.7322798 -0.34857327 7.680003 0.80864084 -0.55952454 -0.18174914 2.750001 -0.061944023 -0.38819972 0.9194912 -0.047699 0 0 0 1 -0.58492815 -0.73946106 -0.333251 7.680003 0.8090445 -0.5610601 -0.17509583 2.750001 -0.057497308 -0.3720334 0.92643684 -0.047699 0 0 0 1 -0.5829797 -0.74809414 -0.3170011 7.680003 0.8106528 -0.56176424 -0.165115 2.750001 -0.05455832 -0.35323656 0.93394184 -0.047699 0 0 0 1 -0.5796238 -0.7577128 -0.29984602 7.680003 0.81315964 -0.56174433 -0.1523645 2.750001 -0.05298824 -0.33213675 0.9417417 -0.047699 0 0 0 1 -0.5751233 -0.7678771 -0.2821309 7.680003 0.81639266 -0.56078553 -0.13792178 2.750001 -0.052308008 -0.30965164 0.9494102 -0.047699 0 0 0 1 -0.5696732 -0.778233 -0.2642456 7.680003 0.820224 -0.55869055 -0.1228714 2.750001 -0.05200895 -0.28673714 0.9565965 -0.047699 0 0 0 1 -0.5636679 -0.78833365 -0.24659392 7.680003 0.82438886 -0.5555587 -0.10834017 2.750001 -0.05158919 -0.26435715 0.96304405 -0.047699 0 0 0 1 -0.5574455 -0.7977803 -0.22978395 7.680003 0.8286668 -0.5515562 -0.09537639 2.750001 -0.050649412 -0.24358152 0.968557 -0.047699 0 0 0 1 -0.5513072 -0.8062517 -0.21451956 7.680003 0.8328745 -0.5468961 -0.08499807 2.750001 -0.04879009 -0.22552791 0.97301424 -0.047699 0 0 0 1 -0.5455415 -0.81351995 -0.20141976 7.680003 0.83685064 -0.54180574 -0.07827977 2.750001 -0.045448214 -0.21126312 0.97637206 -0.047699 0 0 0 1 -0.5455415 -0.81351995 -0.20141976 7.680003 0.83685064 -0.54180574 -0.07827977 2.750001 -0.045448214 -0.21126312 0.97637206 -0.047699 0 0 0 1</float_array>
        <technique_common>
          <accessor source="#Motion_54_RShoulder_transform_pose_array_id" count="16" stride="16">
            <param name="TRANSFORM" type="float4x4" />
          </accessor>
        </technique_common>
      </source>
      <sampler id="Motion_54_RShoulder_transform_samp_id">
        <input semantic="INPUT" source="#Motion_54_RShoulder_transform_frame_id" />
        <input semantic="INTERPOLATION" source="#Motion_54_RShoulder_transform_interp_id" />
        <input semantic="OUTPUT" source="#Motion_54_RShoulder_transform_pose_id" />
      </sampler>
      <channel source="#Motion_54_RShoulder_transform_samp_id" target="RShoulder_bone_id/transform" />
    </animation>
    <animation id="Motion_54_RArm_transform_id" name="Motion_54_RArm_transform">
      <source id="Motion_54_RArm_transform_frame_id" name="Motion_54_RArm_transform_frame">
        <float_array id="Motion_54_RArm_transform_frame_array_id" count="16">0 0.033333335 0.06666667 0.1 0.13333334 0.16666667 0.2 0.23333333 0.26666668 0.3 0.33333334 0.36666667 0.4 0.43333334 0.46666667 0.5</float_array>
        <technique_common>
          <accessor source="#Motion_54_RArm_transform_frame_array_id" count="16" stride="1">
            <param name="TIME" type="float" />
          </accessor>
        </technique_common>
      </source>
      <source id="Motion_54_RArm_transform_interp_id" name="Motion_54_RArm_transform_interp">
        <Name_array id="Motion_54_RArm_transform_interp_array_id" count="16">LINEAR LINEAR LINEAR LINEAR LINEAR LINEAR LINEAR LINEAR LINEAR LINEAR LINEAR LINEAR LINEAR LINEAR LINEAR LINEAR</Name_array>
        <technique_common>
          <accessor source="#Motion_54_RArm_transform_interp_array_id" count="16" stride="1">
            <param name="INTERPOLATION" type="Name" />
          </accessor>
        </technique_common>
      </source>
      <source id="Motion_54_RArm_transform_pose_id" name="Motion_54_RArm_transform_pose">
        <float_array id="Motion_54_RArm_transform_pose_array_id" count="256">0.6901926 -0.39829257 -0.60415 5.160004 0.44915995 0.8903922 -0.07387193 0 0.56735307 -0.22037414 0.79343915 0 0 0 0 1 0.6864359 -0.4001213 -0.60721385 5.160004 0.44709232 0.8907634 -0.08154159 0 0.5735104 -0.2155076 0.79034317 0 0 0 0 1 0.67467123 -0.40543535 -0.6167989 5.160004 0.44238922 0.89102733 -0.10179443 0 0.5908557 -0.20418742 0.7805107 0 0 0 0 1 0.65295875 -0.41481 -0.63370144 5.160004 0.43672973 0.8897903 -0.13243997 0 0.61879885 -0.19027844 0.76215625 0 0 0 0 1 0.6341486 -0.42702165 -0.64459914 5.160004 0.43046144 0.88750124 -0.16445215 0 0.6423071 -0.17318796 0.74662405 0 0 0 0 1 0.6371584 -0.4396271 -0.63305384 5.160004 0.42494076 0.88562554 -0.18733068 0 0.64300424 -0.14965104 0.7510992 0 0 0 0 1 0.6606006 -0.44792217 -0.60247207 5.160004 0.4190951 0.88584906 -0.19907475 0 0.62286925 -0.12098416 0.7729144 0 0 0 0 1 0.68862844 -0.45382965 -0.5655347 5.160004 0.40925992 0.8870814 -0.21352501 0 0.5985793 -0.08441134 0.79660374 0 0 0 0 1 0.7137671 -0.45912093 -0.5289087 5.160004 0.3976339 0.887305 -0.23361737 0 0.57656205 -0.043563657 0.8158912 0 0 0 0 1 0.7333469 -0.46697652 -0.49410048 5.160004 0.38694227 0.8842696 -0.26142502 0 0.55899733 0.00052686036 0.8291693 0 0 0 0 1 0.7453712 -0.48118106 -0.46139625 5.160004 0.37950864 0.87528896 -0.29973722 0 0.54808295 0.048311636 0.8350276 0 0 0 0 1 0.7497529 -0.50424093 -0.4284993 5.160004 0.37762204 0.8577976 -0.34869012 0 0.54338956 0.09962065 0.8335488 0 0 0 0 1 0.7488414 -0.5311385 -0.39639425 5.160004 0.38049233 0.8342596 -0.39904445 0 0.5426436 0.14799605 0.8268223 0 0 0 0 1 0.7449956 -0.5571906 -0.36676994 5.160004 0.3867219 0.8087559 -0.44312537 0 0.5435326 0.18828847 0.8179974 0 0 0 0 1 0.73806906 -0.5756759 -0.3519251 5.160004 0.38503763 0.787673 -0.48095462 0 0.5540759 0.21947333 0.8030139 0 0 0 0 1 0.73806906 -0.5756759 -0.3519251 5.160004 0.38503763 0.787673 -0.48095462 0 0.5540759 0.21947333 0.8030139 0 0 0 0 1</float_array>
        <technique_common>
          <accessor source="#Motion_54_RArm_transform_pose_array_id" count="16" stride="16">
            <param name="TRANSFORM" type="float4x4" />
          </accessor>
        </technique_common>
      </source>
      <sampler id="Motion_54_RArm_transform_samp_id">
        <input semantic="INPUT" source="#Motion_54_RArm_transform_frame_id" />
        <input semantic="INTERPOLATION" source="#Motion_54_RArm_transform_interp_id" />
        <input semantic="OUTPUT" source="#Motion_54_RArm_transform_pose_id" />
      </sampler>
      <channel source="#Motion_54_RArm_transform_samp_id" target="RArm_bone_id/transform" />
    </animation>
    <animation id="Motion_54_RForeArm_transform_id" name="Motion_54_RForeArm_transform">
      <source id="Motion_54_RForeArm_transform_frame_id" name="Motion_54_RForeArm_transform_frame">
        <float_array id="Motion_54_RForeArm_transform_frame_array_id" count="16">0 0.033333335 0.06666667 0.1 0.13333334 0.16666667 0.2 0.23333333 0.26666668 0.3 0.33333334 0.36666667 0.4 0.43333334 0.46666667 0.5</float_array>
        <technique_common>
          <accessor source="#Motion_54_RForeArm_transform_frame_array_id" count="16" stride="1">
            <param name="TIME" type="float" />
          </accessor>
        </technique_common>
      </source>
      <source id="Motion_54_RForeArm_transform_interp_id" name="Motion_54_RForeArm_transform_interp">
        <Name_array id="Motion_54_RForeArm_transform_interp_array_id" count="16">LINEAR LINEAR LINEAR LINEAR LINEAR LINEAR LINEAR LINEAR LINEAR LINEAR LINEAR LINEAR LINEAR LINEAR LINEAR LINEAR</Name_array>
        <technique_common>
          <accessor source="#Motion_54_RForeArm_transform_interp_array_id" count="16" stride="1">
            <param name="INTERPOLATION" type="Name" />
          </accessor>
        </technique_common>
      </source>
      <source id="Motion_54_RForeArm_transform_pose_id" name="Motion_54_RForeArm_transform_pose">
        <float_array id="Motion_54_RForeArm_transform_pose_array_id" count="256">0.80827844 0 -0.58880043 11.39995 0 1 0 0 0.58880043 0 0.80827844 0 0 0 0 1 0.81871945 0 -0.5741938 11.39995 0 1 0 0 0.5741938 0 0.81871945 0 0 0 0 1 0.8459945 0 -0.5331917 11.39995 0 1 0 0 0.5331917 0 0.8459945 0 0 0 0 1 0.88417995 0 -0.4671464 11.39995 0 1 0 0 0.4671464 0 0.88417995 0 0 0 0 1 0.91079384 0 -0.4128614 11.39995 0 1 0 0 0.4128614 0 0.91079384 0 0 0 0 1 0.9070317 0 -0.42106226 11.39995 0 1 0 0 0.42106226 0 0.9070317 0 0 0 0 1 0.87574005 0 -0.4827829 11.39995 0 1 0 0 0.4827829 0 0.87574005 0 0 0 0 1 0.83952177 0 -0.543326 11.39995 0 1 0 0 0.543326 0 0.83952177 0 0 0 0 1 0.80813354 0 -0.5889993 11.39995 0 1 0 0 0.5889993 0 0.80813354 0 0 0 0 1 0.7880731 0 -0.61558163 11.39995 0 1 0 0 0.61558163 0 0.7880731 0 0 0 0 1 0.7784878 0 -0.62765974 11.39995 0 1 0 0 0.62765974 0 0.7784878 0 0 0 0 1 0.77400285 0 -0.6331821 11.39995 0 1 0 0 0.6331821 0 0.77400285 0 0 0 0 1 0.76595855 0 -0.64289 11.39995 0 1 0 0 0.64289 0 0.76595855 0 0 0 0 1 0.7481319 0 -0.6635501 11.39995 0 1 0 0 0.6635501 0 0.7481319 0 0 0 0 1 0.728518 0 -0.6850267 11.39995 0 1 0 0 0.6850267 0 0.728518 0 0 0 0 1 0.728518 0 -0.6850267 11.39995 0 1 0 0 0.6850267 0 0.728518 0 0 0 0 1</float_array>
        <technique_common>
          <accessor source="#Motion_54_RForeArm_transform_pose_array_id" count="16" stride="16">
            <param name="TRANSFORM" type="float4x4" />
          </accessor>
        </technique_common>
      </source>
      <sampler id="Motion_54_RForeArm_transform_samp_id">
        <input semantic="INPUT" source="#Motion_54_RForeArm_transform_frame_id" />
        <input semantic="INTERPOLATION" source="#Motion_54_RForeArm_transform_interp_id" />
        <input semantic="OUTPUT" source="#Motion_54_RForeArm_transform_pose_id" />
      </sampler>
      <channel source="#Motion_54_RForeArm_transform_samp_id" target="RForeArm_bone_id/transform" />
    </animation>
    <animation id="Motion_54_RHand_transform_id" name="Motion_54_RHand_transform">
      <source id="Motion_54_RHand_transform_frame_id" name="Motion_54_RHand_transform_frame">
        <float_array id="Motion_54_RHand_transform_frame_array_id" count="16">0 0.033333335 0.06666667 0.1 0.13333334 0.16666667 0.2 0.23333333 0.26666668 0.3 0.33333334 0.36666667 0.4 0.43333334 0.46666667 0.5</float_array>
        <technique_common>
          <accessor source="#Motion_54_RHand_transform_frame_array_id" count="16" stride="1">
            <param name="TIME" type="float" />
          </accessor>
        </technique_common>
      </source>
      <source id="Motion_54_RHand_transform_interp_id" name="Motion_54_RHand_transform_interp">
        <Name_array id="Motion_54_RHand_transform_interp_array_id" count="16">LINEAR LINEAR LINEAR LINEAR LINEAR LINEAR LINEAR LINEAR LINEAR LINEAR LINEAR LINEAR LINEAR LINEAR LINEAR LINEAR</Name_array>
        <technique_common>
          <accessor source="#Motion_54_RHand_transform_interp_array_id" count="16" stride="1">
            <param name="INTERPOLATION" type="Name" />
          </accessor>
        </technique_common>
      </source>
      <source id="Motion_54_RHand_transform_pose_id" name="Motion_54_RHand_transform_pose">
        <float_array id="Motion_54_RHand_transform_pose_array_id" count="256">0.74610555 0.62635976 -0.22583145 11.4 -0.4939347 0.74812293 0.44310328 0 0.44649178 -0.2190558 0.86755955 0 0 0 0 1 0.74694407 0.62517196 -0.22635032 11.4 -0.48709458 0.7462445 0.45371568 0 0.45256305 -0.22864622 0.86192083 0 0 0 0 1 0.750839 0.62158155 -0.2233319 11.4 -0.4735303 0.74232477 0.47404954 0 0.46044526 -0.25018045 0.8517041 0 0 0 0 1 0.76239574 0.61034185 -0.21502465 11.4 -0.44699174 0.73697394 0.50701857 0 0.4679222 -0.29043454 0.83468354 0 0 0 0 1 0.79280764 0.57487595 -0.20241971 11.4 -0.40453324 0.7447655 0.5307327 0 0.45586067 -0.33888346 0.82301223 0 0 0 0 1 0.84928083 0.49377835 -0.18682855 11.4 -0.3390202 0.78135586 0.5239736 0 0.40470642 -0.38166207 0.8309914 0 0 0 0 1 0.9117705 0.37333518 -0.17115894 11.4 -0.25290352 0.8387377 0.4822436 0 0.32359594 -0.3964088 0.8591541 0 0 0 0 1 0.9584372 0.24394841 -0.14794368 11.4 -0.16851486 0.9024751 0.3964107 0 0.23021924 -0.35500407 0.90607464 0 0 0 0 1 0.9849073 0.12738572 -0.1171768 11.4 -0.09477471 0.96340626 0.25073126 0 0.14482844 -0.23584166 0.9609388 0 0 0 0 1 0.9960733 0.04157747 -0.07816222 11.4 -0.038686793 0.99852324 0.038141027 0 0.079632595 -0.034967415 0.9962108 0 0 0 0 1 0.99949825 -0.0055886544 -0.031178068 11.4 -0.0020898844 0.9705317 -0.24096437 0 0.03160597 0.24090861 0.97003305 0 0 0 0 1 0.9998016 -0.016302118 0.011447599 11.4 0.019895965 0.8454538 -0.5336779 0 -0.0009783371 0.5337997 0.8456104 0 0 0 0 1 0.99926716 -0.0051948074 0.037923686 11.4 0.032606006 0.6344994 -0.77223533 0 -0.02005094 0.7729059 0.6342038 0 0 0 0 1 0.9990585 0.010240224 0.042157233 11.4 0.034677174 0.39542413 -0.91784376 0 -0.026068911 0.9184415 0.3946967 0 0 0 0 1 0.9996238 0.0001894217 0.02742673 11.4 0.026833998 0.20012635 -0.9794026 0 -0.0056743314 0.9797701 0.200046 0 0 0 0 1 0.9996238 0.0001894217 0.02742673 11.4 0.026833998 0.20012635 -0.9794026 0 -0.0056743314 0.9797701 0.200046 0 0 0 0 1</float_array>
        <technique_common>
          <accessor source="#Motion_54_RHand_transform_pose_array_id" count="16" stride="16">
            <param name="TRANSFORM" type="float4x4" />
          </accessor>
        </technique_common>
      </source>
      <sampler id="Motion_54_RHand_transform_samp_id">
        <input semantic="INPUT" source="#Motion_54_RHand_transform_frame_id" />
        <input semantic="INTERPOLATION" source="#Motion_54_RHand_transform_interp_id" />
        <input semantic="OUTPUT" source="#Motion_54_RHand_transform_pose_id" />
      </sampler>
      <channel source="#Motion_54_RHand_transform_samp_id" target="RHand_bone_id/transform" />
    </animation>
    <animation id="Motion_54_LShoulder_transform_id" name="Motion_54_LShoulder_transform">
      <source id="Motion_54_LShoulder_transform_frame_id" name="Motion_54_LShoulder_transform_frame">
        <float_array id="Motion_54_LShoulder_transform_frame_array_id" count="16">0 0.033333335 0.06666667 0.1 0.13333334 0.16666667 0.2 0.23333333 0.26666668 0.3 0.33333334 0.36666667 0.4 0.43333334 0.46666667 0.5</float_array>
        <technique_common>
          <accessor source="#Motion_54_LShoulder_transform_frame_array_id" count="16" stride="1">
            <param name="TIME" type="float" />
          </accessor>
        </technique_common>
      </source>
      <source id="Motion_54_LShoulder_transform_interp_id" name="Motion_54_LShoulder_transform_interp">
        <Name_array id="Motion_54_LShoulder_transform_interp_array_id" count="16">LINEAR LINEAR LINEAR LINEAR LINEAR LINEAR LINEAR LINEAR LINEAR LINEAR LINEAR LINEAR LINEAR LINEAR LINEAR LINEAR</Name_array>
        <technique_common>
          <accessor source="#Motion_54_LShoulder_transform_interp_array_id" count="16" stride="1">
            <param name="INTERPOLATION" type="Name" />
          </accessor>
        </technique_common>
      </source>
      <source id="Motion_54_LShoulder_transform_pose_id" name="Motion_54_LShoulder_transform_pose">
        <float_array id="Motion_54_LShoulder_transform_pose_array_id" count="256">-0.58251023 0.7209573 -0.37536925 7.679999 -0.8041204 -0.5785396 0.13668156 -2.750001 -0.118624434 0.38146055 0.9167421 -0.0477 0 0 0 1 -0.58168817 0.7237166 -0.37131268 7.679999 -0.8042115 -0.580155 0.12908924 -2.750001 -0.12199486 0.3737036 0.9194906 -0.0477 0 0 0 1 -0.57968426 0.73072904 -0.36055624 7.679999 -0.8042663 -0.5841557 0.109167345 -2.750001 -0.13084926 0.35326588 0.926327 -0.0477 0 0 0 1 -0.57627046 0.7413095 -0.34405273 7.679999 -0.8046868 -0.58823323 0.08037808 -2.750001 -0.14279824 0.3231742 0.93550366 -0.0477 0 0 0 1 -0.57129955 0.7542868 -0.32352498 7.679999 -0.8060258 -0.58993864 0.047907352 -2.750001 -0.15472394 0.2881389 0.9450061 -0.0477 0 0 0 1 -0.5654392 0.76815933 -0.30034935 7.679999 -0.8081649 -0.5887469 0.015704222 -2.750001 -0.1647664 0.2516116 0.95369995 -0.0477 0 0 0 1 -0.5589839 0.7815914 -0.27686036 7.679999 -0.81139195 -0.58438814 -0.011549734 -2.750001 -0.17082112 0.21818614 0.96084076 -0.0477 0 0 0 1 -0.5518441 0.7938634 -0.25543892 7.679999 -0.8162744 -0.5769112 -0.029488295 -2.750001 -0.17077525 0.19223534 0.9663754 -0.0477 0 0 0 1 -0.54430425 0.8043687 -0.23816809 7.679999 -0.82281476 -0.5672169 -0.035226867 -2.750001 -0.16342834 0.17679407 0.97058487 -0.0477 0 0 0 1 -0.53694665 0.81362057 -0.22295749 7.679999 -0.8295388 -0.5572933 -0.035913475 -2.750001 -0.15347263 0.16566828 0.9741664 -0.0477 0 0 0 1 -0.5297508 0.8216989 -0.21017897 7.679999 -0.83616686 -0.5474888 -0.032880716 -2.750001 -0.14208865 0.15832609 0.97710985 -0.0477 0 0 0 1 -0.52303374 0.8286447 -0.19945878 7.679999 -0.84235686 -0.5382339 -0.027191311 -2.750001 -0.1298874 0.15379348 0.9795289 -0.0477 0 0 0 1 -0.51709676 0.8343866 -0.19081303 7.679999 -0.84784806 -0.52988267 -0.019430146 -2.750001 -0.11732083 0.15173322 0.9814341 -0.0477 0 0 0 1 -0.51253545 0.8386329 -0.18439741 7.679999 -0.8523136 -0.522948 -0.009330355 -2.750001 -0.104255006 0.15238228 0.98280746 -0.0477 0 0 0 1 -0.5095811 0.8409544 -0.18199658 7.679999 -0.85588014 -0.5171279 0.0069196075 -2.750001 -0.08829644 0.15929337 0.9832748 -0.0477 0 0 0 1 -0.5095811 0.8409544 -0.18199658 7.679999 -0.85588014 -0.5171279 0.0069196075 -2.750001 -0.08829644 0.15929337 0.9832748 -0.0477 0 0 0 1</float_array>
        <technique_common>
          <accessor source="#Motion_54_LShoulder_transform_pose_array_id" count="16" stride="16">
            <param name="TRANSFORM" type="float4x4" />
          </accessor>
        </technique_common>
      </source>
      <sampler id="Motion_54_LShoulder_transform_samp_id">
        <input semantic="INPUT" source="#Motion_54_LShoulder_transform_frame_id" />
        <input semantic="INTERPOLATION" source="#Motion_54_LShoulder_transform_interp_id" />
        <input semantic="OUTPUT" source="#Motion_54_LShoulder_transform_pose_id" />
      </sampler>
      <channel source="#Motion_54_LShoulder_transform_samp_id" target="LShoulder_bone_id/transform" />
    </animation>
    <animation id="Motion_54_LArm_transform_id" name="Motion_54_LArm_transform">
      <source id="Motion_54_LArm_transform_frame_id" name="Motion_54_LArm_transform_frame">
        <float_array id="Motion_54_LArm_transform_frame_array_id" count="16">0 0.033333335 0.06666667 0.1 0.13333334 0.16666667 0.2 0.23333333 0.26666668 0.3 0.33333334 0.36666667 0.4 0.43333334 0.46666667 0.5</float_array>
        <technique_common>
          <accessor source="#Motion_54_LArm_transform_frame_array_id" count="16" stride="1">
            <param name="TIME" type="float" />
          </accessor>
        </technique_common>
      </source>
      <source id="Motion_54_LArm_transform_interp_id" name="Motion_54_LArm_transform_interp">
        <Name_array id="Motion_54_LArm_transform_interp_array_id" count="16">LINEAR LINEAR LINEAR LINEAR LINEAR LINEAR LINEAR LINEAR LINEAR LINEAR LINEAR LINEAR LINEAR LINEAR LINEAR LINEAR</Name_array>
        <technique_common>
          <accessor source="#Motion_54_LArm_transform_interp_array_id" count="16" stride="1">
            <param name="INTERPOLATION" type="Name" />
          </accessor>
        </technique_common>
      </source>
      <source id="Motion_54_LArm_transform_pose_id" name="Motion_54_LArm_transform_pose">
        <float_array id="Motion_54_LArm_transform_pose_array_id" count="256">0.68852085 0.3575921 -0.6309254 5.159998 -0.42367673 0.9044187 0.050247975 0 0.5885891 0.23271164 0.77421457 0 0 0 0 1 0.69994247 0.34608176 -0.6247463 5.159998 -0.4141731 0.9093317 0.039705396 0 0.5818429 0.23096162 0.7798176 0 0 0 0 1 0.72349167 0.32371026 -0.6097307 5.159998 -0.38845474 0.9210406 0.028055914 0 0.5706687 0.21655455 0.79211193 0 0 0 0 1 0.7428363 0.29796392 -0.59950954 5.159998 -0.3568046 0.9339185 0.022062346 0 0.56646687 0.19751906 0.80006343 0 0 0 0 1 0.7502049 0.27952945 -0.5992127 5.159998 -0.33019954 0.9435321 0.026747935 0 0.57285327 0.17779332 0.8001429 0 0 0 0 1 0.7414198 0.27352968 -0.61276275 5.159998 -0.31329736 0.9486178 0.044373196 0 0.5934151 0.15907778 0.7890202 0 0 0 0 1 0.7186512 0.28542876 -0.6340906 5.159998 -0.31067973 0.9475954 0.07443826 0 0.62210816 0.14350396 0.7696675 0 0 0 0 1 0.7018132 0.31705958 -0.6379118 5.159998 -0.3191455 0.9405356 0.11635667 0 0.63687074 0.12192604 0.7612685 0 0 0 0 1 0.6921157 0.36545932 -0.622427 5.159998 -0.33375347 0.92665595 0.17296651 0 0.6399878 0.08802432 0.76332647 0 0 0 0 1 0.6831125 0.42199546 -0.5960512 5.159998 -0.35481602 0.905133 0.2341791 0 0.6383282 0.05151786 0.76803845 0 0 0 0 1 0.6723498 0.4754067 -0.5673924 5.159998 -0.37199003 0.8796861 0.29626977 0 0.63997585 0.011867389 0.7683034 0 0 0 0 1 0.65972096 0.52346563 -0.53921425 5.159998 -0.38381946 0.8515659 0.35709685 0 0.64610434 -0.028623357 0.7627122 0 0 0 0 1 0.6447071 0.56249285 -0.51764333 5.159998 -0.3904959 0.82448083 0.409566 0 0.65716493 -0.061912507 0.7511998 0 0 0 0 1 0.6276444 0.5916709 -0.5059526 5.159998 -0.38977218 0.8014131 0.45366794 0 0.6738992 -0.0875359 0.73361933 0 0 0 0 1 0.6091904 0.61088717 -0.50567174 5.159998 -0.3801705 0.78456926 0.4898178 0 0.6959579 -0.106150806 0.71019334 0 0 0 0 1 0.6091904 0.61088717 -0.50567174 5.159998 -0.3801705 0.78456926 0.4898178 0 0.6959579 -0.106150806 0.71019334 0 0 0 0 1</float_array>
        <technique_common>
          <accessor source="#Motion_54_LArm_transform_pose_array_id" count="16" stride="16">
            <param name="TRANSFORM" type="float4x4" />
          </accessor>
        </technique_common>
      </source>
      <sampler id="Motion_54_LArm_transform_samp_id">
        <input semantic="INPUT" source="#Motion_54_LArm_transform_frame_id" />
        <input semantic="INTERPOLATION" source="#Motion_54_LArm_transform_interp_id" />
        <input semantic="OUTPUT" source="#Motion_54_LArm_transform_pose_id" />
      </sampler>
      <channel source="#Motion_54_LArm_transform_samp_id" target="LArm_bone_id/transform" />
    </animation>
    <animation id="Motion_54_LForeArm_transform_id" name="Motion_54_LForeArm_transform">
      <source id="Motion_54_LForeArm_transform_frame_id" name="Motion_54_LForeArm_transform_frame">
        <float_array id="Motion_54_LForeArm_transform_frame_array_id" count="16">0 0.033333335 0.06666667 0.1 0.13333334 0.16666667 0.2 0.23333333 0.26666668 0.3 0.33333334 0.36666667 0.4 0.43333334 0.46666667 0.5</float_array>
        <technique_common>
          <accessor source="#Motion_54_LForeArm_transform_frame_array_id" count="16" stride="1">
            <param name="TIME" type="float" />
          </accessor>
        </technique_common>
      </source>
      <source id="Motion_54_LForeArm_transform_interp_id" name="Motion_54_LForeArm_transform_interp">
        <Name_array id="Motion_54_LForeArm_transform_interp_array_id" count="16">LINEAR LINEAR LINEAR LINEAR LINEAR LINEAR LINEAR LINEAR LINEAR LINEAR LINEAR LINEAR LINEAR LINEAR LINEAR LINEAR</Name_array>
        <technique_common>
          <accessor source="#Motion_54_LForeArm_transform_interp_array_id" count="16" stride="1">
            <param name="INTERPOLATION" type="Name" />
          </accessor>
        </technique_common>
      </source>
      <source id="Motion_54_LForeArm_transform_pose_id" name="Motion_54_LForeArm_transform_pose">
        <float_array id="Motion_54_LForeArm_transform_pose_array_id" count="256">0.8267498 -0.0001827957 -0.56256974 11.4 0.00018451885 1 -5.3761836E-05 0 0.56256974 -5.9357135E-05 0.82674986 0 0 0 0 1 0.82094735 -0.0001948737 -0.5710039 11.4 0.00019601769 1 -5.946283E-05 0 0.5710039 -6.311101E-05 0.82094735 0 0 0 0 1 0.8153118 -0.00020555398 -0.57902217 11.4 0.00020652887 1 -6.4191954E-05 0 0.57902217 -6.724834E-05 0.8153118 0 0 0 0 1 0.8200752 -0.00021698594 -0.5722557 11.4 0.0002179553 1 -6.683407E-05 0 0.5722557 -6.991719E-05 0.8200753 0 0 0 0 1 0.83778346 -0.00023084373 -0.54600257 11.4 0.00023173139 1 -6.722129E-05 0 0.54600257 -7.020905E-05 0.8377835 0 0 0 0 1 0.8656064 -0.00024839427 -0.5007249 11.4 0.00024893327 0.99999994 -6.5736705E-05 0 0.5007249 -6.7744986E-05 0.8656064 0 0 0 0 1 0.8922612 -0.00027008192 -0.45151952 11.4 0.00026992557 0.99999994 -6.4754226E-05 0 0.45151952 -6.4099E-05 0.8922612 0 0 0 0 1 0.8966508 -0.0002951445 -0.44273835 11.4 0.00029379711 0.99999994 -7.162491E-05 0 0.44273835 -6.5852706E-05 0.89665085 0 0 0 0 1 0.8812463 -0.00032480658 -0.47265717 11.4 0.00032128792 0.99999994 -8.816695E-05 0 0.47265717 -7.416226E-05 0.8812464 0 0 0 0 1 0.85380375 -0.00036084076 -0.5205949 11.4 0.00035355374 0.99999994 -0.00011328426 0 0.5205949 -8.7335764E-05 0.8538038 0 0 0 0 1 0.8248777 -0.0004054794 -0.5653111 11.4 0.0003923963 0.99999994 -0.00014469984 0 0.5653111 -0.00010246631 0.8248778 0 0 0 0 1 0.79554486 -0.00046000074 -0.6058945 11.4 0.00043859103 0.9999999 -0.00018333529 0 0.6058945 -0.00011988841 0.795545 0 0 0 0 1 0.76625043 -0.00052559417 -0.6425418 11.4 0.0004927996 0.9999999 -0.00023031372 0 0.6425418 -0.00014016638 0.76625055 0 0 0 0 1 0.73738915 -0.0006034282 -0.6754679 11.4 0.0005556565 0.9999998 -0.00028675387 0 0.6754679 -0.00016387891 0.7373893 0 0 0 0 1 0.7093859 -0.00069467357 -0.7048199 11.4 0.00062780984 0.99999976 -0.00035372714 0 0.70482004 -0.00019156381 0.70938617 0 0 0 0 1 0.7093859 -0.00069467357 -0.7048199 11.4 0.00062780984 0.99999976 -0.00035372714 0 0.70482004 -0.00019156381 0.70938617 0 0 0 0 1</float_array>
        <technique_common>
          <accessor source="#Motion_54_LForeArm_transform_pose_array_id" count="16" stride="16">
            <param name="TRANSFORM" type="float4x4" />
          </accessor>
        </technique_common>
      </source>
      <sampler id="Motion_54_LForeArm_transform_samp_id">
        <input semantic="INPUT" source="#Motion_54_LForeArm_transform_frame_id" />
        <input semantic="INTERPOLATION" source="#Motion_54_LForeArm_transform_interp_id" />
        <input semantic="OUTPUT" source="#Motion_54_LForeArm_transform_pose_id" />
      </sampler>
      <channel source="#Motion_54_LForeArm_transform_samp_id" target="LForeArm_bone_id/transform" />
    </animation>
    <animation id="Motion_54_LHand_transform_id" name="Motion_54_LHand_transform">
      <source id="Motion_54_LHand_transform_frame_id" name="Motion_54_LHand_transform_frame">
        <float_array id="Motion_54_LHand_transform_frame_array_id" count="16">0 0.033333335 0.06666667 0.1 0.13333334 0.16666667 0.2 0.23333333 0.26666668 0.3 0.33333334 0.36666667 0.4 0.43333334 0.46666667 0.5</float_array>
        <technique_common>
          <accessor source="#Motion_54_LHand_transform_frame_array_id" count="16" stride="1">
            <param name="TIME" type="float" />
          </accessor>
        </technique_common>
      </source>
      <source id="Motion_54_LHand_transform_interp_id" name="Motion_54_LHand_transform_interp">
        <Name_array id="Motion_54_LHand_transform_interp_array_id" count="16">LINEAR LINEAR LINEAR LINEAR LINEAR LINEAR LINEAR LINEAR LINEAR LINEAR LINEAR LINEAR LINEAR LINEAR LINEAR LINEAR</Name_array>
        <technique_common>
          <accessor source="#Motion_54_LHand_transform_interp_array_id" count="16" stride="1">
            <param name="INTERPOLATION" type="Name" />
          </accessor>
        </technique_common>
      </source>
      <source id="Motion_54_LHand_transform_pose_id" name="Motion_54_LHand_transform_pose">
        <float_array id="Motion_54_LHand_transform_pose_array_id" count="256">0.7289882 -0.6208062 -0.28840238 11.4 0.43981817 0.747629 -0.4976051 0 0.5245343 0.23590362 0.81805456 0 0 0 0 1 0.73780644 -0.59350467 -0.32154918 11.4 0.4218862 0.77730787 -0.46669525 0 0.5269285 0.20867361 0.8238942 0 0 0 0 1 0.7580768 -0.5148121 -0.4003599 11.4 0.37520635 0.846403 -0.3779182 0 0.5334227 0.13627347 0.8347993 0 0 0 0 1 0.78410697 -0.38658398 -0.48551935 11.4 0.3110472 0.9217475 -0.2315841 0 0.5370529 0.030567296 0.8429946 0 0 0 0 1 0.8132334 -0.22757375 -0.5355947 11.4 0.24536946 0.9686443 -0.039013438 0 0.5276792 -0.09969155 0.8435735 0 0 0 0 1 0.861057 -0.06153395 -0.5047717 11.4 0.18750489 0.9611243 0.2026869 0 0.47267622 -0.26917213 0.83912075 0 0 0 0 1 0.91393274 0.062027022 -0.40109798 11.4 0.13964795 0.87985474 0.4542621 0 0.38108447 -0.47117755 0.7954661 0 0 0 0 1 0.9607771 0.10687413 -0.255901 11.4 0.09805339 0.7322395 0.6739517 0 0.2594088 -0.67260927 0.69303954 0 0 0 0 1 0.98903835 0.07528413 -0.12702538 11.4 0.06549316 0.54734993 0.83433723 0 0.1323397 -0.83351076 0.5364195 0 0 0 0 1 0.9985991 0.014761336 -0.050812125 11.4 0.042161807 0.35825336 0.9326719 0 0.031971097 -0.9335077 0.35712916 0 0 0 0 1 0.99916214 -0.036746293 -0.018019963 11.4 0.024939673 0.19756281 0.9799729 0 -0.032450296 -0.9796012 0.19831377 0 0 0 0 1 0.9975507 -0.06968625 -0.006032735 11.4 0.012359645 0.090720534 0.9957997 0 -0.068846256 -0.9934353 0.091359615 0 0 0 0 1 0.99619514 -0.08712382 -0.0021660253 11.4 0.0047922432 0.029945672 0.99954003 0 -0.087018885 -0.99574727 0.030249238 0 0 0 0 1 0.9967557 -0.080333956 -0.0049467906 11.4 0.0049076453 -0.00068473816 0.9999877 0 -0.080336355 -0.99676776 -0.00028824806 0 0 0 0 1 0.99915725 -0.03828478 -0.014800638 11.4 0.014324501 -0.012681365 0.999817 0 -0.038465463 -0.9991864 -0.012122273 0 0 0 0 1 0.99915725 -0.03828478 -0.014800638 11.4 0.014324501 -0.012681365 0.999817 0 -0.038465463 -0.9991864 -0.012122273 0 0 0 0 1</float_array>
        <technique_common>
          <accessor source="#Motion_54_LHand_transform_pose_array_id" count="16" stride="16">
            <param name="TRANSFORM" type="float4x4" />
          </accessor>
        </technique_common>
      </source>
      <sampler id="Motion_54_LHand_transform_samp_id">
        <input semantic="INPUT" source="#Motion_54_LHand_transform_frame_id" />
        <input semantic="INTERPOLATION" source="#Motion_54_LHand_transform_interp_id" />
        <input semantic="OUTPUT" source="#Motion_54_LHand_transform_pose_id" />
      </sampler>
      <channel source="#Motion_54_LHand_transform_samp_id" target="LHand_bone_id/transform" />
    </animation>
    <animation id="Motion_54_Neck_transform_id" name="Motion_54_Neck_transform">
      <source id="Motion_54_Neck_transform_frame_id" name="Motion_54_Neck_transform_frame">
        <float_array id="Motion_54_Neck_transform_frame_array_id" count="16">0 0.033333335 0.06666667 0.1 0.13333334 0.16666667 0.2 0.23333333 0.26666668 0.3 0.33333334 0.36666667 0.4 0.43333334 0.46666667 0.5</float_array>
        <technique_common>
          <accessor source="#Motion_54_Neck_transform_frame_array_id" count="16" stride="1">
            <param name="TIME" type="float" />
          </accessor>
        </technique_common>
      </source>
      <source id="Motion_54_Neck_transform_interp_id" name="Motion_54_Neck_transform_interp">
        <Name_array id="Motion_54_Neck_transform_interp_array_id" count="16">LINEAR LINEAR LINEAR LINEAR LINEAR LINEAR LINEAR LINEAR LINEAR LINEAR LINEAR LINEAR LINEAR LINEAR LINEAR LINEAR</Name_array>
        <technique_common>
          <accessor source="#Motion_54_Neck_transform_interp_array_id" count="16" stride="1">
            <param name="INTERPOLATION" type="Name" />
          </accessor>
        </technique_common>
      </source>
      <source id="Motion_54_Neck_transform_pose_id" name="Motion_54_Neck_transform_pose">
        <float_array id="Motion_54_Neck_transform_pose_array_id" count="256">0.8834664 0.0035738177 -0.46848089 8.379997 -0.0074411114 0.9999518 -0.0064043733 0 0.4684354 0.009144067 0.88345045 0 0 0 0 1 0.8817828 0.00325249 -0.47164443 8.379997 -0.007037956 0.9999556 -0.00626235 0 0.47160313 0.008841446 0.88176656 0 0 0 0 1 0.8789091 0.002977023 -0.47698003 8.379997 -0.006619501 0.99996036 -0.0059562977 0 0.47694337 0.008392414 0.878894 0 0 0 0 1 0.8748447 0.0027655098 -0.48439568 8.379997 -0.006211229 0.99996555 -0.005508815 0 0.48436373 0.00782805 0.8748317 0 0 0 0 1 0.8709456 0.0026465734 -0.49137232 8.379997 -0.005831774 0.99997073 -0.0049507516 0 0.49134484 0.007177407 0.87093556 0 0 0 0 1 0.8685702 0.0026442448 -0.495559 8.379997 -0.0055031674 0.99997556 -0.0043096924 0 0.49553552 0.006470415 0.8685636 0 0 0 0 1 0.86839676 0.0027738055 -0.49586228 8.379997 -0.0052538496 0.9999797 -0.003607204 0 0.4958422 0.0057376698 0.86839366 0 0 0 0 1 0.8699007 0.003042173 -0.4932175 8.379997 -0.0051178304 0.99998283 -0.0028585424 0 0.49320033 0.005010851 0.8699013 0 0 0 0 1 0.8726535 0.0034586084 -0.4883277 8.379997 -0.005127965 0.9999847 -0.0020813504 0 0.48831305 0.004320425 0.87265784 0 0 0 0 1 0.8762225 0.0036851037 -0.48189265 8.379997 -0.004967035 0.9999867 -0.0013844847 0 0.48188114 0.0036066943 0.87622917 0 0 0 0 1 0.8801849 0.0034247087 -0.47461858 8.379997 -0.0043556667 0.99999017 -0.0008619913 0 0.47461095 0.0028259922 0.88019115 0 0 0 0 1 0.8842318 0.002751258 -0.46704018 8.379997 -0.0033817913 0.99999416 -0.00051183114 0 0.46703607 0.00203201 0.8842359 0 0 0 0 1 0.8882301 0.0017407271 -0.4593956 8.379997 -0.0021327597 0.9999977 -0.00033447883 0 0.45939392 0.0012768746 0.8882317 0 0 0 0 1 0.8920392 0.000470491 -0.45195782 8.379997 -0.0006958875 0.9999997 -0.00033248245 0 0.45195752 0.0006110992 0.89203924 0 0 0 0 1 0.89552814 -0.000624522 -0.44500443 8.379997 0.00048509063 0.99999976 -0.00042720826 0 0.4450046 0.00016670953 0.89552826 0 0 0 0 1 0.89552814 -0.000624522 -0.44500443 8.379997 0.00048509063 0.99999976 -0.00042720826 0 0.4450046 0.00016670953 0.89552826 0 0 0 0 1</float_array>
        <technique_common>
          <accessor source="#Motion_54_Neck_transform_pose_array_id" count="16" stride="16">
            <param name="TRANSFORM" type="float4x4" />
          </accessor>
        </technique_common>
      </source>
      <sampler id="Motion_54_Neck_transform_samp_id">
        <input semantic="INPUT" source="#Motion_54_Neck_transform_frame_id" />
        <input semantic="INTERPOLATION" source="#Motion_54_Neck_transform_interp_id" />
        <input semantic="OUTPUT" source="#Motion_54_Neck_transform_pose_id" />
      </sampler>
      <channel source="#Motion_54_Neck_transform_samp_id" target="Neck_bone_id/transform" />
    </animation>
    <animation id="Motion_54_Head_transform_id" name="Motion_54_Head_transform">
      <source id="Motion_54_Head_transform_frame_id" name="Motion_54_Head_transform_frame">
        <float_array id="Motion_54_Head_transform_frame_array_id" count="16">0 0.033333335 0.06666667 0.1 0.13333334 0.16666667 0.2 0.23333333 0.26666668 0.3 0.33333334 0.36666667 0.4 0.43333334 0.46666667 0.5</float_array>
        <technique_common>
          <accessor source="#Motion_54_Head_transform_frame_array_id" count="16" stride="1">
            <param name="TIME" type="float" />
          </accessor>
        </technique_common>
      </source>
      <source id="Motion_54_Head_transform_interp_id" name="Motion_54_Head_transform_interp">
        <Name_array id="Motion_54_Head_transform_interp_array_id" count="16">LINEAR LINEAR LINEAR LINEAR LINEAR LINEAR LINEAR LINEAR LINEAR LINEAR LINEAR LINEAR LINEAR LINEAR LINEAR LINEAR</Name_array>
        <technique_common>
          <accessor source="#Motion_54_Head_transform_interp_array_id" count="16" stride="1">
            <param name="INTERPOLATION" type="Name" />
          </accessor>
        </technique_common>
      </source>
      <source id="Motion_54_Head_transform_pose_id" name="Motion_54_Head_transform_pose">
        <float_array id="Motion_54_Head_transform_pose_array_id" count="256">0.87557274 -0.014312727 0.4828742 2.919999 0.0023760875 0.9996765 0.02532266 0 -0.48308045 -0.02102448 0.87532353 0 0 0 0 1 0.8783559 -0.014746053 0.47777966 2.919999 0.002470037 0.9996507 0.026311986 0 -0.4780008 -0.021931157 0.8780856 0 0 0 0 1 0.8851407 -0.01502873 0.46508062 2.919999 0.0025173165 0.99961835 0.02751096 0 -0.4653166 -0.023180317 0.8848407 0 0 0 0 1 0.8943087 -0.014924304 0.4472016 2.919999 0.0024096193 0.99958974 0.02854023 0 -0.44744408 -0.024446188 0.8939777 0 0 0 0 1 0.9039128 -0.014224 0.42748025 2.919999 0.0020029503 0.9995767 0.029024702 0 -0.4277121 -0.025379576 0.9035586 0 0 0 0 1 0.91227055 -0.012741035 0.40938988 2.919999 0.001129847 0.9995905 0.028591549 0 -0.40958652 -0.025620682 0.9119114 0 0 0 0 1 0.91796666 -0.010301817 0.39652377 2.919999 -0.0003858814 0.99963903 0.026864279 0 -0.3966574 -0.024813525 0.9176313 0 0 0 0 1 0.91971815 -0.006853711 0.39251956 2.919999 -0.0028293347 0.9997059 0.024085134 0 -0.3925692 -0.023262102 0.9194282 0 0 0 0 1 0.91670364 -0.0027892138 0.39955813 2.919999 -0.0061306194 0.99975973 0.021044511 0 -0.3995208 -0.021741118 0.9164663 0 0 0 0 1 0.9096736 0.0014240444 0.4153215 2.919999 -0.00986529 0.9997861 0.01817978 0 -0.41520676 -0.020634932 0.909493 0 0 0 0 1 0.8996155 0.0055868016 0.43664712 2.919999 -0.013916977 0.999777 0.015880954 0 -0.43646103 -0.020363558 0.8994927 0 0 0 0 1 0.88764983 0.009468198 0.46042162 2.919999 -0.018214313 0.99972814 0.014556894 0 -0.46015865 -0.02130769 0.887581 0 0 0 0 1 0.87473756 0.01280402 0.48442772 2.919999 -0.022734076 0.9996345 0.014629653 0 -0.48406336 -0.023810124 0.87470895 0 0 0 0 1 0.86533076 0.015605308 0.5009582 2.919999 -0.027247377 0.99950176 0.015930392 0 -0.50046 -0.027434856 0.86532485 0 0 0 0 1 0.8590623 0.017976146 0.5115552 2.919999 -0.031396437 0.9993519 0.017607097 0 -0.5109072 -0.031186607 0.85907 0 0 0 0 1 0.8590623 0.017976146 0.5115552 2.919999 -0.031396437 0.9993519 0.017607097 0 -0.5109072 -0.031186607 0.85907 0 0 0 0 1</float_array>
        <technique_common>
          <accessor source="#Motion_54_Head_transform_pose_array_id" count="16" stride="16">
            <param name="TRANSFORM" type="float4x4" />
          </accessor>
        </technique_common>
      </source>
      <sampler id="Motion_54_Head_transform_samp_id">
        <input semantic="INPUT" source="#Motion_54_Head_transform_frame_id" />
        <input semantic="INTERPOLATION" source="#Motion_54_Head_transform_interp_id" />
        <input semantic="OUTPUT" source="#Motion_54_Head_transform_pose_id" />
      </sampler>
      <channel source="#Motion_54_Head_transform_samp_id" target="Head_bone_id/transform" />
    </animation>
  </library_animations>
  <library_visual_scenes>
    <visual_scene id="tr0077_00_fi_00_clip_id" name="tr0077_00_fi_00_clip">
      <node id="tr0077_00_fi_bone_id" name="tr0077_00_fi" sid="tr0077_00_fi" type="JOINT">
        <matrix sid="transform">1 0 0 0 0 1 0 0 0 0 1 0 0 0 0 1</matrix>
        <node id="Origin_bone_id" name="Origin" sid="Origin" type="JOINT">
          <matrix sid="transform">1 0 0 0 0 1 0 0 0 0 1 0 0 0 0 1</matrix>
          <node id="Waist_bone_id" name="Waist" sid="Waist" type="JOINT">
            <matrix sid="transform">3.1391647E-07 -1 0 0 1 3.1391647E-07 0 40 0 0 1 0 0 0 0 1</matrix>
            <node id="Spine2_bone_id" name="Spine2" sid="Spine2" type="JOINT">
              <matrix sid="transform">1 0 0 8.5 0 1 0 0 0 0 1 0 0 0 0 1</matrix>
              <node id="Spine3_bone_id" name="Spine3" sid="Spine3" type="JOINT">
                <matrix sid="transform">0.99767554 0 0.06814315 8.5 0 1 0 0 -0.06814315 0 0.99767554 0 0 0 0 1</matrix>
                <node id="Neck_bone_id" name="Neck" sid="Neck" type="JOINT">
                  <matrix sid="transform">0.940507 0 -0.3397744 8.379997 0 1 0 0 0.3397744 0 0.940507 0 0 0 0 1</matrix>
                  <node id="Head_bone_id" name="Head" sid="Head" type="JOINT">
                    <matrix sid="transform">0.9614738 0 0.27489644 2.919999 0 1 0 0 -0.27489644 0 0.9614738 0 0 0 0 1</matrix>
                    <node id="Loc_Head_bone_id" name="Loc_Head" sid="Loc_Head" type="JOINT">
                      <matrix sid="transform">3.1391647E-07 1 0 31.82408 -1 3.1391647E-07 0 0 0 0 1 -0.231661 0 0 0 1</matrix>
                    </node>
                    <node id="Loc_Eye_bone_id" name="Loc_Eye" sid="Loc_Eye" type="JOINT">
                      <matrix sid="transform">3.1391647E-07 1 0 8.66803 -1 3.1391647E-07 0 0 0 0 1 10.214592 0 0 0 1</matrix>
                    </node>
                    <node id="Loc_Mouth_bone_id" name="Loc_Mouth" sid="Loc_Mouth" type="JOINT">
                      <matrix sid="transform">3.1391647E-07 1 0 1.968472 -1 3.1391647E-07 0 0 0 0 1 10.115969 0 0 0 1</matrix>
                    </node>
                  </node>
                </node>
                <node id="LShoulder_bone_id" name="LShoulder" sid="LShoulder" type="JOINT">
                  <matrix sid="transform">-0.630007 0.773594 -0.06814268 7.679999 -0.77539635 -0.63147485 -4.1138517E-07 -2.750001 -0.04303071 0.052837327 0.9976756 -0.0477 0 0 0 1</matrix>
                  <node id="LArm_bone_id" name="LArm" sid="LArm" type="JOINT">
                    <matrix sid="transform">0.7753962 -0.631475 0 5.159998 0.631475 0.7753962 0 0 0 0 1 0 0 0 0 1</matrix>
                    <node id="LForeArm_bone_id" name="LForeArm" sid="LForeArm" type="JOINT">
                      <matrix sid="transform">1 0 0 11.4 0 1 0 0 0 0 1 0 0 0 0 1</matrix>
                      <node id="LHand_bone_id" name="LHand" sid="LHand" type="JOINT">
                        <matrix sid="transform">1 0 0 11.4 0 1 0 0 0 0 1 0 0 0 0 1</matrix>
                      </node>
                    </node>
                  </node>
                </node>
                <node id="RShoulder_bone_id" name="RShoulder" sid="RShoulder" type="JOINT">
                  <matrix sid="transform">-0.63000625 -0.7735946 -0.06814268 7.680003 0.77539694 -0.6314741 4.7844173E-07 2.750001 -0.04303071 -0.052837327 0.9976756 -0.047699 0 0 0 1</matrix>
                  <node id="RArm_bone_id" name="RArm" sid="RArm" type="JOINT">
                    <matrix sid="transform">0.7753968 0.63147426 0 5.160004 -0.63147426 0.7753968 0 0 0 0 1 0 0 0 0 1</matrix>
                    <node id="RForeArm_bone_id" name="RForeArm" sid="RForeArm" type="JOINT">
                      <matrix sid="transform">1 0 0 11.39995 0 1 0 0 0 0 1 0 0 0 0 1</matrix>
                      <node id="RHand_bone_id" name="RHand" sid="RHand" type="JOINT">
                        <matrix sid="transform">1 0 0 11.4 0 1 0 0 0 0 1 0 0 0 0 1</matrix>
                      </node>
                    </node>
                  </node>
                </node>
                <node id="Parts_bone_id" name="Parts" sid="Parts" type="JOINT">
                  <matrix sid="transform">-0.9183216 -3.2584137E-07 0.39583504 5.61 2.9922717E-07 -1 -1.2897944E-07 0 0.39583504 0 0.9183216 3.872062 0 0 0 1</matrix>
                </node>
              </node>
            </node>
            <node id="Hips_bone_id" name="Hips" sid="Hips" type="JOINT">
              <matrix sid="transform">-1 -3.2584137E-07 0 -0.009998 3.2584137E-07 -1 0 0 0 0 1 0 0 0 0 1</matrix>
              <node id="LThigh_bone_id" name="LThigh" sid="LThigh" type="JOINT">
                <matrix sid="transform">1 0 0 3.280003 0 1 0 5.4 0 0 1 0 0 0 0 1</matrix>
                <node id="LLeg_bone_id" name="LLeg" sid="LLeg" type="JOINT">
                  <matrix sid="transform">1 0 0 14.91 0 1 0 0 0 0 1 0 0 0 0 1</matrix>
                  <node id="LFoot_bone_id" name="LFoot" sid="LFoot" type="JOINT">
                    <matrix sid="transform">3.1391647E-07 0 -1 14.909826 0 1 0 0 1 0 3.1391647E-07 0 0 0 0 1</matrix>
                  </node>
                </node>
              </node>
              <node id="RThigh_bone_id" name="RThigh" sid="RThigh" type="JOINT">
                <matrix sid="transform">1 0 0 3.280003 0 1 0 -5.4 0 0 1 0 0 0 0 1</matrix>
                <node id="RLeg_bone_id" name="RLeg" sid="RLeg" type="JOINT">
                  <matrix sid="transform">1 0 0 14.91 0 1 0 0 0 0 1 0 0 0 0 1</matrix>
                  <node id="RFoot_bone_id" name="RFoot" sid="RFoot" type="JOINT">
                    <matrix sid="transform">3.1391647E-07 0 -1 14.909829 0 1 0 0 1 0 3.1391647E-07 0 0 0 0 1</matrix>
                  </node>
                </node>
              </node>
            </node>
          </node>
          <node id="CamTgtHead_bone_id" name="CamTgtHead" sid="CamTgtHead" type="JOINT">
            <matrix sid="transform">1 0 0 0 0 1 0 76.83605 0 0 1 0 0 0 0 1</matrix>
          </node>
          <node id="CamTgtBust_bone_id" name="CamTgtBust" sid="CamTgtBust" type="JOINT">
            <matrix sid="transform">1 0 0 0 0 1 0 57 0 0 1 0 0 0 0 1</matrix>
          </node>
          <node id="CamTgtBody_bone_id" name="CamTgtBody" sid="CamTgtBody" type="JOINT">
            <matrix sid="transform">1 0 0 0 0 1 0 40 0 0 1 0 0 0 0 1</matrix>
          </node>
          <node id="CamTgtFoot_bone_id" name="CamTgtFoot" sid="CamTgtFoot" type="JOINT">
            <matrix sid="transform">1 0 0 0 0 1 0 0 0 0 1 0 0 0 0 1</matrix>
          </node>
        </node>
        <node id="tr0077_00_fi_HairSkin_bone_id" name="tr0077_00_fi_HairSkin" sid="tr0077_00_fi_HairSkin" type="JOINT">
          <matrix sid="transform">1 0 0 0 0 1 0 0 0 0 1 0 0 0 0 1</matrix>
        </node>
        <node id="tr0077_00_fi_FaceSkin_bone_id" name="tr0077_00_fi_FaceSkin" sid="tr0077_00_fi_FaceSkin" type="JOINT">
          <matrix sid="transform">1 0 0 0 0 1 0 0 0 0 1 0 0 0 0 1</matrix>
        </node>
        <node id="tr0077_00_fi_BodySkin_bone_id" name="tr0077_00_fi_BodySkin" sid="tr0077_00_fi_BodySkin" type="JOINT">
          <matrix sid="transform">1 0 0 0 0 1 0 0 0 0 1 0 0 0 0 1</matrix>
        </node>
      </node>
    </visual_scene>
  </library_visual_scenes>
  <scene>
    <instance_visual_scene url="#tr0077_00_fi_00_clip_id" />
  </scene>
</COLLADA>