<?xml version="1.0" encoding="utf-8"?>
<COLLADA xmlns:xsi="http://www.w3.org/2001/XMLSchema-instance" xmlns:xsd="http://www.w3.org/2001/XMLSchema" version="1.4.1" xmlns="http://www.collada.org/2005/11/COLLADASchema">
  <asset>
    <created>2026-02-17T05:46:52.6417574-05:00</created>
    <modified>2026-02-17T05:46:52.6417576-05:00</modified>
    <up_axis>Y_UP</up_axis>
  </asset>
  <library_animations>
    <animation id="Motion_7_Waist_transform_id" name="Motion_7_Waist_transform">
      <source id="Motion_7_Waist_transform_frame_id" name="Motion_7_Waist_transform_frame">
        <float_array id="Motion_7_Waist_transform_frame_array_id" count="7">0 0.033333335 0.06666667 0.1 0.13333334 0.16666667 0.2</float_array>
        <technique_common>
          <accessor source="#Motion_7_Waist_transform_frame_array_id" count="7" stride="1">
            <param name="TIME" type="float" />
          </accessor>
        </technique_common>
      </source>
      <source id="Motion_7_Waist_transform_interp_id" name="Motion_7_Waist_transform_interp">
        <Name_array id="Motion_7_Waist_transform_interp_array_id" count="7">LINEAR LINEAR LINEAR LINEAR LINEAR LINEAR LINEAR</Name_array>
        <technique_common>
          <accessor source="#Motion_7_Waist_transform_interp_array_id" count="7" stride="1">
            <param name="INTERPOLATION" type="Name" />
          </accessor>
        </technique_common>
      </source>
      <source id="Motion_7_Waist_transform_pose_id" name="Motion_7_Waist_transform_pose">
        <float_array id="Motion_7_Waist_transform_pose_array_id" count="112">-0.007534636 -0.80996484 0.0003502463 0 0.80991095 -0.007538209 -0.009349159 20.898 0.0093520135 0.00026324127 0.809946 2.9949431 0 0 0 1 -0.0054000914 -0.809979 0.002172964 -0.07546583 0.80989033 -0.0054321494 -0.012173493 20.90542 0.012187751 0.0020915114 0.8099056 2.8771567 0 0 0 1 -0.003394164 -0.80998844 0.002699793 -0.091145195 0.80977374 -0.0034560584 -0.018828953 20.922983 0.018840203 0.002620139 0.8097766 2.7021723 0 0 0 1 -0.0017108417 -0.8099949 0.0023262668 -0.066327214 0.80954385 -0.001787703 -0.027120573 20.95976 0.027125536 0.002267674 0.8095425 2.5349197 0 0 0 1 -0.0005093515 -0.8099982 0.0016752987 -0.027212093 0.80929524 -0.0005787778 -0.033778045 21.024817 0.033779167 0.0016526042 0.8092937 2.4723206 0 0 0 1 7.802009E-05 -0.8099991 0.0012083745 0 0.80917203 2.3319126E-05 -0.03661384 21.12722 0.036613766 0.0012106664 0.8091712 2.5793092 0 0 0 1 7.802009E-05 -0.8099991 0.0012083745 0 0.80917203 2.3319126E-05 -0.03661384 21.12722 0.036613766 0.0012106664 0.8091712 2.5793092 0 0 0 1</float_array>
        <technique_common>
          <accessor source="#Motion_7_Waist_transform_pose_array_id" count="7" stride="16">
            <param name="TRANSFORM" type="float4x4" />
          </accessor>
        </technique_common>
      </source>
      <sampler id="Motion_7_Waist_transform_samp_id">
        <input semantic="INPUT" source="#Motion_7_Waist_transform_frame_id" />
        <input semantic="INTERPOLATION" source="#Motion_7_Waist_transform_interp_id" />
        <input semantic="OUTPUT" source="#Motion_7_Waist_transform_pose_id" />
      </sampler>
      <channel source="#Motion_7_Waist_transform_samp_id" target="Waist_bone_id/transform" />
    </animation>
    <animation id="Motion_7_Hips_transform_id" name="Motion_7_Hips_transform">
      <source id="Motion_7_Hips_transform_frame_id" name="Motion_7_Hips_transform_frame">
        <float_array id="Motion_7_Hips_transform_frame_array_id" count="7">0 0.033333335 0.06666667 0.1 0.13333334 0.16666667 0.2</float_array>
        <technique_common>
          <accessor source="#Motion_7_Hips_transform_frame_array_id" count="7" stride="1">
            <param name="TIME" type="float" />
          </accessor>
        </technique_common>
      </source>
      <source id="Motion_7_Hips_transform_interp_id" name="Motion_7_Hips_transform_interp">
        <Name_array id="Motion_7_Hips_transform_interp_array_id" count="7">LINEAR LINEAR LINEAR LINEAR LINEAR LINEAR LINEAR</Name_array>
        <technique_common>
          <accessor source="#Motion_7_Hips_transform_interp_array_id" count="7" stride="1">
            <param name="INTERPOLATION" type="Name" />
          </accessor>
        </technique_common>
      </source>
      <source id="Motion_7_Hips_transform_pose_id" name="Motion_7_Hips_transform_pose">
        <float_array id="Motion_7_Hips_transform_pose_array_id" count="112">-0.9939964 -1.5103143E-07 -0.109413445 -0.01 1.5050657E-07 -1 1.3055526E-08 0 -0.109413445 -3.4902983E-09 0.9939963 0 0 0 0 1 -0.9939964 -1.5103143E-07 -0.109413445 -0.01 1.5050657E-07 -1 1.3055526E-08 0 -0.109413445 -3.4902983E-09 0.9939963 0 0 0 0 1 -0.9939964 -1.5103143E-07 -0.109413445 -0.01 1.5050657E-07 -1 1.3055526E-08 0 -0.109413445 -3.4902983E-09 0.9939963 0 0 0 0 1 -0.9939964 -1.5103143E-07 -0.109413445 -0.01 1.5050657E-07 -1 1.3055526E-08 0 -0.109413445 -3.4902983E-09 0.9939963 0 0 0 0 1 -0.9939964 -1.5103143E-07 -0.109413445 -0.01 1.5050657E-07 -1 1.3055526E-08 0 -0.109413445 -3.4902983E-09 0.9939963 0 0 0 0 1 -0.9939964 -1.5103143E-07 -0.109413445 -0.01 1.5050657E-07 -1 1.3055526E-08 0 -0.109413445 -3.4902983E-09 0.9939963 0 0 0 0 1 -0.9939964 -1.5103143E-07 -0.109413445 -0.01 1.5050657E-07 -1 1.3055526E-08 0 -0.109413445 -3.4902983E-09 0.9939963 0 0 0 0 1</float_array>
        <technique_common>
          <accessor source="#Motion_7_Hips_transform_pose_array_id" count="7" stride="16">
            <param name="TRANSFORM" type="float4x4" />
          </accessor>
        </technique_common>
      </source>
      <sampler id="Motion_7_Hips_transform_samp_id">
        <input semantic="INPUT" source="#Motion_7_Hips_transform_frame_id" />
        <input semantic="INTERPOLATION" source="#Motion_7_Hips_transform_interp_id" />
        <input semantic="OUTPUT" source="#Motion_7_Hips_transform_pose_id" />
      </sampler>
      <channel source="#Motion_7_Hips_transform_samp_id" target="Hips_bone_id/transform" />
    </animation>
    <animation id="Motion_7_Tail1_transform_id" name="Motion_7_Tail1_transform">
      <source id="Motion_7_Tail1_transform_frame_id" name="Motion_7_Tail1_transform_frame">
        <float_array id="Motion_7_Tail1_transform_frame_array_id" count="7">0 0.033333335 0.06666667 0.1 0.13333334 0.16666667 0.2</float_array>
        <technique_common>
          <accessor source="#Motion_7_Tail1_transform_frame_array_id" count="7" stride="1">
            <param name="TIME" type="float" />
          </accessor>
        </technique_common>
      </source>
      <source id="Motion_7_Tail1_transform_interp_id" name="Motion_7_Tail1_transform_interp">
        <Name_array id="Motion_7_Tail1_transform_interp_array_id" count="7">LINEAR LINEAR LINEAR LINEAR LINEAR LINEAR LINEAR</Name_array>
        <technique_common>
          <accessor source="#Motion_7_Tail1_transform_interp_array_id" count="7" stride="1">
            <param name="INTERPOLATION" type="Name" />
          </accessor>
        </technique_common>
      </source>
      <source id="Motion_7_Tail1_transform_pose_id" name="Motion_7_Tail1_transform_pose">
        <float_array id="Motion_7_Tail1_transform_pose_array_id" count="112">0.23837578 0.11309567 0.96456534 14.473703 -0.21714872 0.97425765 -0.060567513 0.18607174 -0.9465851 -0.19501631 0.25679803 -19.56544 0 0 0 1 0.23847884 0.13275078 0.9620317 14.473703 -0.20392412 0.9753728 -0.084040806 0.18607174 -0.94949603 -0.17613955 0.25967687 -19.56544 0 0 0 1 0.23909318 0.1376613 0.96118873 14.473703 -0.2020859 0.9752779 -0.08941081 0.18607174 -0.9497345 -0.17286518 0.2610017 -19.56544 0 0 0 1 0.24033755 0.13241279 0.9616157 14.473703 -0.20683235 0.9748879 -0.08254655 0.18607174 -0.94839776 -0.17905419 0.26168942 -19.56544 0 0 0 1 0.24207205 0.12489052 0.9621868 14.473703 -0.21254192 0.9744209 -0.07300609 0.18607174 -0.9466927 -0.18683231 0.26242453 -19.56544 0 0 0 1 0.24420762 0.12067148 0.9621855 14.473703 -0.21544743 0.97418016 -0.067494124 0.18607174 -0.94548666 -0.19081783 0.26390058 -19.56544 0 0 0 1 0.24420762 0.12067148 0.9621855 14.473703 -0.21544743 0.97418016 -0.067494124 0.18607174 -0.94548666 -0.19081783 0.26390058 -19.56544 0 0 0 1</float_array>
        <technique_common>
          <accessor source="#Motion_7_Tail1_transform_pose_array_id" count="7" stride="16">
            <param name="TRANSFORM" type="float4x4" />
          </accessor>
        </technique_common>
      </source>
      <sampler id="Motion_7_Tail1_transform_samp_id">
        <input semantic="INPUT" source="#Motion_7_Tail1_transform_frame_id" />
        <input semantic="INTERPOLATION" source="#Motion_7_Tail1_transform_interp_id" />
        <input semantic="OUTPUT" source="#Motion_7_Tail1_transform_pose_id" />
      </sampler>
      <channel source="#Motion_7_Tail1_transform_samp_id" target="Tail1_bone_id/transform" />
    </animation>
    <animation id="Motion_7_Tail3_transform_id" name="Motion_7_Tail3_transform">
      <source id="Motion_7_Tail3_transform_frame_id" name="Motion_7_Tail3_transform_frame">
        <float_array id="Motion_7_Tail3_transform_frame_array_id" count="7">0 0.033333335 0.06666667 0.1 0.13333334 0.16666667 0.2</float_array>
        <technique_common>
          <accessor source="#Motion_7_Tail3_transform_frame_array_id" count="7" stride="1">
            <param name="TIME" type="float" />
          </accessor>
        </technique_common>
      </source>
      <source id="Motion_7_Tail3_transform_interp_id" name="Motion_7_Tail3_transform_interp">
        <Name_array id="Motion_7_Tail3_transform_interp_array_id" count="7">LINEAR LINEAR LINEAR LINEAR LINEAR LINEAR LINEAR</Name_array>
        <technique_common>
          <accessor source="#Motion_7_Tail3_transform_interp_array_id" count="7" stride="1">
            <param name="INTERPOLATION" type="Name" />
          </accessor>
        </technique_common>
      </source>
      <source id="Motion_7_Tail3_transform_pose_id" name="Motion_7_Tail3_transform_pose">
        <float_array id="Motion_7_Tail3_transform_pose_array_id" count="112">-0.98977315 -0.0446786 -0.13547474 13.166308 0.023480609 -0.9877597 0.15420762 16.750237 -0.14070624 0.1494495 0.9787066 -3.0568335 0 0 0 1 -0.98977315 -0.0446786 -0.13547474 13.161353 0.023480609 -0.9877597 0.15420762 16.726385 -0.14070624 0.1494495 0.9787066 -3.4656794 0 0 0 1 -0.98977315 -0.0446786 -0.13547474 12.996759 0.023480609 -0.9877597 0.15420762 16.76602 -0.14070624 0.1494495 0.9787066 -3.5919082 0 0 0 1 -0.98977315 -0.0446786 -0.13547474 12.74506 0.023480609 -0.9877597 0.15420762 16.867113 -0.14070624 0.1494495 0.9787066 -3.5339065 0 0 0 1 -0.98977315 -0.0446786 -0.13547474 12.514808 0.023480609 -0.9877597 0.15420762 16.97189 -0.14070624 0.1494495 0.9787066 -3.4402635 0 0 0 1 -0.98977315 -0.0446786 -0.13547474 12.392344 0.023480609 -0.9877597 0.15420762 17.038689 -0.14070624 0.1494495 0.9787066 -3.4168425 0 0 0 1 -0.98977315 -0.0446786 -0.13547474 12.392344 0.023480609 -0.9877597 0.15420762 17.038689 -0.14070624 0.1494495 0.9787066 -3.4168425 0 0 0 1</float_array>
        <technique_common>
          <accessor source="#Motion_7_Tail3_transform_pose_array_id" count="7" stride="16">
            <param name="TRANSFORM" type="float4x4" />
          </accessor>
        </technique_common>
      </source>
      <sampler id="Motion_7_Tail3_transform_samp_id">
        <input semantic="INPUT" source="#Motion_7_Tail3_transform_frame_id" />
        <input semantic="INTERPOLATION" source="#Motion_7_Tail3_transform_interp_id" />
        <input semantic="OUTPUT" source="#Motion_7_Tail3_transform_pose_id" />
      </sampler>
      <channel source="#Motion_7_Tail3_transform_samp_id" target="Tail3_bone_id/transform" />
    </animation>
    <animation id="Motion_7_Tail4_transform_id" name="Motion_7_Tail4_transform">
      <source id="Motion_7_Tail4_transform_frame_id" name="Motion_7_Tail4_transform_frame">
        <float_array id="Motion_7_Tail4_transform_frame_array_id" count="7">0 0.033333335 0.06666667 0.1 0.13333334 0.16666667 0.2</float_array>
        <technique_common>
          <accessor source="#Motion_7_Tail4_transform_frame_array_id" count="7" stride="1">
            <param name="TIME" type="float" />
          </accessor>
        </technique_common>
      </source>
      <source id="Motion_7_Tail4_transform_interp_id" name="Motion_7_Tail4_transform_interp">
        <Name_array id="Motion_7_Tail4_transform_interp_array_id" count="7">LINEAR LINEAR LINEAR LINEAR LINEAR LINEAR LINEAR</Name_array>
        <technique_common>
          <accessor source="#Motion_7_Tail4_transform_interp_array_id" count="7" stride="1">
            <param name="INTERPOLATION" type="Name" />
          </accessor>
        </technique_common>
      </source>
      <source id="Motion_7_Tail4_transform_pose_id" name="Motion_7_Tail4_transform_pose">
        <float_array id="Motion_7_Tail4_transform_pose_array_id" count="112">0.9635518 -0.26639974 -0.02447611 40.063087 0.2587543 0.90483356 0.3381159 -1.0032237 -0.06792719 -0.3321255 0.9407861 0.73435444 0 0 0 1 0.9648024 -0.2614736 -0.028068732 40.154602 0.25683796 0.91397524 0.3141394 -1.172053 -0.05648503 -0.31029156 0.94896185 0.7412848 0 0 0 1 0.965747 -0.25717753 -0.034532405 40.270687 0.2551087 0.91667247 0.30762163 -1.1897708 -0.047458462 -0.30589417 0.95088196 0.7441346 0 0 0 1 0.9665852 -0.25293308 -0.041688107 40.397575 0.25306708 0.9155948 0.312479 -1.1296228 -0.040866867 -0.31258747 0.9490095 0.74082476 0 0 0 1 0.9675334 -0.24832204 -0.047066312 40.521492 0.25011182 0.913911 0.3197042 -1.1013204 -0.036375184 -0.32109633 0.9463477 0.72927636 0 0 0 1 0.96881306 -0.2429885 -0.04855815 40.62867 0.24545541 0.91421473 0.32243308 -1.190241 -0.033954952 -0.32429627 0.945346 0.7074104 0 0 0 1 0.96881306 -0.2429885 -0.04855815 40.62867 0.24545541 0.91421473 0.32243308 -1.190241 -0.033954952 -0.32429627 0.945346 0.7074104 0 0 0 1</float_array>
        <technique_common>
          <accessor source="#Motion_7_Tail4_transform_pose_array_id" count="7" stride="16">
            <param name="TRANSFORM" type="float4x4" />
          </accessor>
        </technique_common>
      </source>
      <sampler id="Motion_7_Tail4_transform_samp_id">
        <input semantic="INPUT" source="#Motion_7_Tail4_transform_frame_id" />
        <input semantic="INTERPOLATION" source="#Motion_7_Tail4_transform_interp_id" />
        <input semantic="OUTPUT" source="#Motion_7_Tail4_transform_pose_id" />
      </sampler>
      <channel source="#Motion_7_Tail4_transform_samp_id" target="Tail4_bone_id/transform" />
    </animation>
    <animation id="Motion_7_RThigh_transform_id" name="Motion_7_RThigh_transform">
      <source id="Motion_7_RThigh_transform_frame_id" name="Motion_7_RThigh_transform_frame">
        <float_array id="Motion_7_RThigh_transform_frame_array_id" count="7">0 0.033333335 0.06666667 0.1 0.13333334 0.16666667 0.2</float_array>
        <technique_common>
          <accessor source="#Motion_7_RThigh_transform_frame_array_id" count="7" stride="1">
            <param name="TIME" type="float" />
          </accessor>
        </technique_common>
      </source>
      <source id="Motion_7_RThigh_transform_interp_id" name="Motion_7_RThigh_transform_interp">
        <Name_array id="Motion_7_RThigh_transform_interp_array_id" count="7">LINEAR LINEAR LINEAR LINEAR LINEAR LINEAR LINEAR</Name_array>
        <technique_common>
          <accessor source="#Motion_7_RThigh_transform_interp_array_id" count="7" stride="1">
            <param name="INTERPOLATION" type="Name" />
          </accessor>
        </technique_common>
      </source>
      <source id="Motion_7_RThigh_transform_pose_id" name="Motion_7_RThigh_transform_pose">
        <float_array id="Motion_7_RThigh_transform_pose_array_id" count="112">0.5511912 -0.0055417717 -0.83436054 7.4517236 -0.19242586 0.97217774 -0.13357657 -13.1 0.81188697 0.23417878 0.53478944 -1.8968687 0 0 0 1 0.54383945 -0.019580282 -0.83896077 7.4517236 -0.18038142 0.97363234 -0.13965197 -13.1 0.81957376 0.2272812 0.5259678 -1.8968687 0 0 0 1 0.52441883 -0.030459926 -0.8509155 7.4517236 -0.17322268 0.9746437 -0.14164604 -13.1 0.833654 0.2216797 0.5058451 -1.8968687 0 0 0 1 0.5043123 -0.03741253 -0.8627106 7.4517236 -0.16963041 0.97530293 -0.14145562 -13.1 0.8466964 0.21767977 0.48551095 -1.8968687 0 0 0 1 0.49536204 -0.040092528 -0.86776096 7.4517236 -0.16801967 0.97564894 -0.14099137 -13.1 0.8522827 0.21564268 0.47656316 -1.8968687 0 0 0 1 0.5082892 -0.03829798 -0.86033446 7.4517236 -0.16693933 0.9756792 -0.14206102 -13.1 0.8448511 0.21583176 0.48953372 -1.8968687 0 0 0 1 0.5082892 -0.03829798 -0.86033446 7.4517236 -0.16693933 0.9756792 -0.14206102 -13.1 0.8448511 0.21583176 0.48953372 -1.8968687 0 0 0 1</float_array>
        <technique_common>
          <accessor source="#Motion_7_RThigh_transform_pose_array_id" count="7" stride="16">
            <param name="TRANSFORM" type="float4x4" />
          </accessor>
        </technique_common>
      </source>
      <sampler id="Motion_7_RThigh_transform_samp_id">
        <input semantic="INPUT" source="#Motion_7_RThigh_transform_frame_id" />
        <input semantic="INTERPOLATION" source="#Motion_7_RThigh_transform_interp_id" />
        <input semantic="OUTPUT" source="#Motion_7_RThigh_transform_pose_id" />
      </sampler>
      <channel source="#Motion_7_RThigh_transform_samp_id" target="RThigh_bone_id/transform" />
    </animation>
    <animation id="Motion_7_RLeg_transform_id" name="Motion_7_RLeg_transform">
      <source id="Motion_7_RLeg_transform_frame_id" name="Motion_7_RLeg_transform_frame">
        <float_array id="Motion_7_RLeg_transform_frame_array_id" count="7">0 0.033333335 0.06666667 0.1 0.13333334 0.16666667 0.2</float_array>
        <technique_common>
          <accessor source="#Motion_7_RLeg_transform_frame_array_id" count="7" stride="1">
            <param name="TIME" type="float" />
          </accessor>
        </technique_common>
      </source>
      <source id="Motion_7_RLeg_transform_interp_id" name="Motion_7_RLeg_transform_interp">
        <Name_array id="Motion_7_RLeg_transform_interp_array_id" count="7">LINEAR LINEAR LINEAR LINEAR LINEAR LINEAR LINEAR</Name_array>
        <technique_common>
          <accessor source="#Motion_7_RLeg_transform_interp_array_id" count="7" stride="1">
            <param name="INTERPOLATION" type="Name" />
          </accessor>
        </technique_common>
      </source>
      <source id="Motion_7_RLeg_transform_pose_id" name="Motion_7_RLeg_transform_pose">
        <float_array id="Motion_7_RLeg_transform_pose_array_id" count="112">-0.16809845 0 0.9857702 9.640697 0 1 0 0 -0.9857702 0 -0.16809845 -8.2458E-06 0 0 0 1 -0.1626699 0 0.9866805 9.640697 0 1 0 0 -0.9866805 0 -0.1626699 -8.2458E-06 0 0 0 1 -0.15493035 0 0.9879254 9.640697 0 1 0 0 -0.9879254 0 -0.15493035 -8.2458E-06 0 0 0 1 -0.14330757 0 0.9896782 9.640697 0 1 0 0 -0.9896782 0 -0.14330757 -8.2458E-06 0 0 0 1 -0.12713122 0 0.99188584 9.640697 0 1 0 0 -0.99188584 0 -0.12713122 -8.2458E-06 0 0 0 1 -0.106969476 0 0.9942623 9.640697 0 1 0 0 -0.9942623 0 -0.106969476 -8.2458E-06 0 0 0 1 -0.106969476 0 0.9942623 9.640697 0 1 0 0 -0.9942623 0 -0.106969476 -8.2458E-06 0 0 0 1</float_array>
        <technique_common>
          <accessor source="#Motion_7_RLeg_transform_pose_array_id" count="7" stride="16">
            <param name="TRANSFORM" type="float4x4" />
          </accessor>
        </technique_common>
      </source>
      <sampler id="Motion_7_RLeg_transform_samp_id">
        <input semantic="INPUT" source="#Motion_7_RLeg_transform_frame_id" />
        <input semantic="INTERPOLATION" source="#Motion_7_RLeg_transform_interp_id" />
        <input semantic="OUTPUT" source="#Motion_7_RLeg_transform_pose_id" />
      </sampler>
      <channel source="#Motion_7_RLeg_transform_samp_id" target="RLeg_bone_id/transform" />
    </animation>
    <animation id="Motion_7_RFoot_transform_id" name="Motion_7_RFoot_transform">
      <source id="Motion_7_RFoot_transform_frame_id" name="Motion_7_RFoot_transform_frame">
        <float_array id="Motion_7_RFoot_transform_frame_array_id" count="7">0 0.033333335 0.06666667 0.1 0.13333334 0.16666667 0.2</float_array>
        <technique_common>
          <accessor source="#Motion_7_RFoot_transform_frame_array_id" count="7" stride="1">
            <param name="TIME" type="float" />
          </accessor>
        </technique_common>
      </source>
      <source id="Motion_7_RFoot_transform_interp_id" name="Motion_7_RFoot_transform_interp">
        <Name_array id="Motion_7_RFoot_transform_interp_array_id" count="7">LINEAR LINEAR LINEAR LINEAR LINEAR LINEAR LINEAR</Name_array>
        <technique_common>
          <accessor source="#Motion_7_RFoot_transform_interp_array_id" count="7" stride="1">
            <param name="INTERPOLATION" type="Name" />
          </accessor>
        </technique_common>
      </source>
      <source id="Motion_7_RFoot_transform_pose_id" name="Motion_7_RFoot_transform_pose">
        <float_array id="Motion_7_RFoot_transform_pose_array_id" count="112">-0.7655494 -0.029371355 -0.6427063 10.769849 -0.02679928 0.9995462 -0.01375722 -3.1347E-05 0.6428187 0.006692234 -0.7659892 -9.111582E-05 0 0 0 1 -0.7587371 -0.02701634 -0.65083605 10.769849 -0.033854663 0.99942476 -0.0020189406 -3.1347E-05 0.6505162 0.02050199 -0.75921524 -9.111582E-05 0 0 0 1 -0.74368 -0.025393557 -0.6680532 10.769849 -0.038717244 0.9992371 0.0051179426 -3.1347E-05 0.66741353 0.029671293 -0.7440958 -9.111582E-05 0 0 0 1 -0.72558844 -0.024664517 -0.68768686 10.769849 -0.041579474 0.9991029 0.00803737 -3.1347E-05 0.6868717 0.03442548 -0.725963 -9.111582E-05 0 0 0 1 -0.7127106 -0.025131825 -0.7010078 10.769849 -0.042746704 0.9990567 0.0076431585 -3.1347E-05 0.7001545 0.03541313 -0.7131127 -9.111582E-05 0 0 0 1 -0.7112534 -0.026981574 -0.7024175 10.769849 -0.042537447 0.9990838 0.0046952926 -3.1347E-05 0.7016473 0.033218592 -0.71174943 -9.111582E-05 0 0 0 1 -0.7112534 -0.026981574 -0.7024175 10.769849 -0.042537447 0.9990838 0.0046952926 -3.1347E-05 0.7016473 0.033218592 -0.71174943 -9.111582E-05 0 0 0 1</float_array>
        <technique_common>
          <accessor source="#Motion_7_RFoot_transform_pose_array_id" count="7" stride="16">
            <param name="TRANSFORM" type="float4x4" />
          </accessor>
        </technique_common>
      </source>
      <sampler id="Motion_7_RFoot_transform_samp_id">
        <input semantic="INPUT" source="#Motion_7_RFoot_transform_frame_id" />
        <input semantic="INTERPOLATION" source="#Motion_7_RFoot_transform_interp_id" />
        <input semantic="OUTPUT" source="#Motion_7_RFoot_transform_pose_id" />
      </sampler>
      <channel source="#Motion_7_RFoot_transform_samp_id" target="RFoot_bone_id/transform" />
    </animation>
    <animation id="Motion_7_LThigh_transform_id" name="Motion_7_LThigh_transform">
      <source id="Motion_7_LThigh_transform_frame_id" name="Motion_7_LThigh_transform_frame">
        <float_array id="Motion_7_LThigh_transform_frame_array_id" count="7">0 0.033333335 0.06666667 0.1 0.13333334 0.16666667 0.2</float_array>
        <technique_common>
          <accessor source="#Motion_7_LThigh_transform_frame_array_id" count="7" stride="1">
            <param name="TIME" type="float" />
          </accessor>
        </technique_common>
      </source>
      <source id="Motion_7_LThigh_transform_interp_id" name="Motion_7_LThigh_transform_interp">
        <Name_array id="Motion_7_LThigh_transform_interp_array_id" count="7">LINEAR LINEAR LINEAR LINEAR LINEAR LINEAR LINEAR</Name_array>
        <technique_common>
          <accessor source="#Motion_7_LThigh_transform_interp_array_id" count="7" stride="1">
            <param name="INTERPOLATION" type="Name" />
          </accessor>
        </technique_common>
      </source>
      <source id="Motion_7_LThigh_transform_pose_id" name="Motion_7_LThigh_transform_pose">
        <float_array id="Motion_7_LThigh_transform_pose_array_id" count="112">0.5716461 0.03675893 -0.8196765 7.4517326 0.22833005 0.9524084 0.20194978 13.1 0.7880902 -0.30260056 0.53604734 -1.8968679 0 0 0 1 0.55249995 0.031764925 -0.8329074 7.4517326 0.23600626 0.95241815 0.19287488 13.1 0.7994028 -0.30313474 0.51871425 -1.8968679 0 0 0 1 0.527546 0.035734802 -0.84877455 7.4517326 0.23737013 0.95312023 0.1876626 13.1 0.8156903 -0.30047438 0.49433237 -1.8968679 0 0 0 1 0.5046196 0.043949887 -0.8622224 7.4517326 0.23481132 0.95406854 0.18605593 13.1 0.8307964 -0.29634705 0.47112173 -1.8968679 0 0 0 1 0.49551868 0.05001676 -0.86715597 7.4517326 0.23162553 0.9545808 0.18741706 13.1 0.83714443 -0.29372412 0.46142745 -1.8968679 0 0 0 1 0.5084369 0.04914236 -0.85969585 7.4517326 0.23019946 0.95427704 0.19069225 13.1 0.82975906 -0.2948565 0.47387713 -1.8968679 0 0 0 1 0.5084369 0.04914236 -0.85969585 7.4517326 0.23019946 0.95427704 0.19069225 13.1 0.82975906 -0.2948565 0.47387713 -1.8968679 0 0 0 1</float_array>
        <technique_common>
          <accessor source="#Motion_7_LThigh_transform_pose_array_id" count="7" stride="16">
            <param name="TRANSFORM" type="float4x4" />
          </accessor>
        </technique_common>
      </source>
      <sampler id="Motion_7_LThigh_transform_samp_id">
        <input semantic="INPUT" source="#Motion_7_LThigh_transform_frame_id" />
        <input semantic="INTERPOLATION" source="#Motion_7_LThigh_transform_interp_id" />
        <input semantic="OUTPUT" source="#Motion_7_LThigh_transform_pose_id" />
      </sampler>
      <channel source="#Motion_7_LThigh_transform_samp_id" target="LThigh_bone_id/transform" />
    </animation>
    <animation id="Motion_7_LLeg_transform_id" name="Motion_7_LLeg_transform">
      <source id="Motion_7_LLeg_transform_frame_id" name="Motion_7_LLeg_transform_frame">
        <float_array id="Motion_7_LLeg_transform_frame_array_id" count="7">0 0.033333335 0.06666667 0.1 0.13333334 0.16666667 0.2</float_array>
        <technique_common>
          <accessor source="#Motion_7_LLeg_transform_frame_array_id" count="7" stride="1">
            <param name="TIME" type="float" />
          </accessor>
        </technique_common>
      </source>
      <source id="Motion_7_LLeg_transform_interp_id" name="Motion_7_LLeg_transform_interp">
        <Name_array id="Motion_7_LLeg_transform_interp_array_id" count="7">LINEAR LINEAR LINEAR LINEAR LINEAR LINEAR LINEAR</Name_array>
        <technique_common>
          <accessor source="#Motion_7_LLeg_transform_interp_array_id" count="7" stride="1">
            <param name="INTERPOLATION" type="Name" />
          </accessor>
        </technique_common>
      </source>
      <source id="Motion_7_LLeg_transform_pose_id" name="Motion_7_LLeg_transform_pose">
        <float_array id="Motion_7_LLeg_transform_pose_array_id" count="112">-0.13685787 0 0.9905908 9.640689 0 1 0 0 -0.9905908 0 -0.13685787 0 0 0 0 1 -0.14049518 0 0.9900814 9.640689 0 1 0 0 -0.9900814 0 -0.14049518 0 0 0 0 1 -0.14120662 0 0.98998016 9.640689 0 1 0 0 -0.98998016 0 -0.14120662 0 0 0 0 1 -0.13652802 0 0.99063617 9.640689 0 1 0 0 -0.99063617 0 -0.13652802 0 0 0 0 1 -0.1250403 0 0.9921517 9.640689 0 1 0 0 -0.9921517 0 -0.1250403 0 0 0 0 1 -0.10721946 0 0.9942354 9.640689 0 1 0 0 -0.9942354 0 -0.10721946 0 0 0 0 1 -0.10721946 0 0.9942354 9.640689 0 1 0 0 -0.9942354 0 -0.10721946 0 0 0 0 1</float_array>
        <technique_common>
          <accessor source="#Motion_7_LLeg_transform_pose_array_id" count="7" stride="16">
            <param name="TRANSFORM" type="float4x4" />
          </accessor>
        </technique_common>
      </source>
      <sampler id="Motion_7_LLeg_transform_samp_id">
        <input semantic="INPUT" source="#Motion_7_LLeg_transform_frame_id" />
        <input semantic="INTERPOLATION" source="#Motion_7_LLeg_transform_interp_id" />
        <input semantic="OUTPUT" source="#Motion_7_LLeg_transform_pose_id" />
      </sampler>
      <channel source="#Motion_7_LLeg_transform_samp_id" target="LLeg_bone_id/transform" />
    </animation>
    <animation id="Motion_7_LFoot_transform_id" name="Motion_7_LFoot_transform">
      <source id="Motion_7_LFoot_transform_frame_id" name="Motion_7_LFoot_transform_frame">
        <float_array id="Motion_7_LFoot_transform_frame_array_id" count="7">0 0.033333335 0.06666667 0.1 0.13333334 0.16666667 0.2</float_array>
        <technique_common>
          <accessor source="#Motion_7_LFoot_transform_frame_array_id" count="7" stride="1">
            <param name="TIME" type="float" />
          </accessor>
        </technique_common>
      </source>
      <source id="Motion_7_LFoot_transform_interp_id" name="Motion_7_LFoot_transform_interp">
        <Name_array id="Motion_7_LFoot_transform_interp_array_id" count="7">LINEAR LINEAR LINEAR LINEAR LINEAR LINEAR LINEAR</Name_array>
        <technique_common>
          <accessor source="#Motion_7_LFoot_transform_interp_array_id" count="7" stride="1">
            <param name="INTERPOLATION" type="Name" />
          </accessor>
        </technique_common>
      </source>
      <source id="Motion_7_LFoot_transform_pose_id" name="Motion_7_LFoot_transform_pose">
        <float_array id="Motion_7_LFoot_transform_pose_array_id" count="112">-0.75651884 -0.030708373 -0.65325016 10.76985 -0.048272535 0.9987941 0.0089517785 4.091411E-05 0.6521875 0.038306236 -0.7570889 -8.509232E-05 0 0 0 1 -0.74680626 -0.028729104 -0.66442096 10.76985 -0.049859464 0.99867344 0.012859863 4.091411E-05 0.6631701 0.042731497 -0.74724805 -8.509232E-05 0 0 0 1 -0.7328311 -0.029535335 -0.6797691 10.76985 -0.048223305 0.9987996 0.008590659 4.091411E-05 0.67869943 0.039076217 -0.7333758 -8.509232E-05 0 0 0 1 -0.71828103 -0.03182767 -0.6950249 10.76985 -0.04496802 0.99898815 0.00072544534 4.091411E-05 0.69429857 0.031774964 -0.71898556 -8.509232E-05 0 0 0 1 -0.70896995 -0.033525012 -0.7044412 10.76985 -0.04261443 0.9990807 -0.004658779 4.091411E-05 0.7039498 0.026716428 -0.70974684 -8.509232E-05 0 0 0 1 -0.7092335 -0.033060048 -0.7041982 10.76985 -0.043049615 0.99906665 -0.00354583 4.091411E-05 0.70365816 0.027800636 -0.7099948 -8.509232E-05 0 0 0 1 -0.7092335 -0.033060048 -0.7041982 10.76985 -0.043049615 0.99906665 -0.00354583 4.091411E-05 0.70365816 0.027800636 -0.7099948 -8.509232E-05 0 0 0 1</float_array>
        <technique_common>
          <accessor source="#Motion_7_LFoot_transform_pose_array_id" count="7" stride="16">
            <param name="TRANSFORM" type="float4x4" />
          </accessor>
        </technique_common>
      </source>
      <sampler id="Motion_7_LFoot_transform_samp_id">
        <input semantic="INPUT" source="#Motion_7_LFoot_transform_frame_id" />
        <input semantic="INTERPOLATION" source="#Motion_7_LFoot_transform_interp_id" />
        <input semantic="OUTPUT" source="#Motion_7_LFoot_transform_pose_id" />
      </sampler>
      <channel source="#Motion_7_LFoot_transform_samp_id" target="LFoot_bone_id/transform" />
    </animation>
    <animation id="Motion_7_Spine1_transform_id" name="Motion_7_Spine1_transform">
      <source id="Motion_7_Spine1_transform_frame_id" name="Motion_7_Spine1_transform_frame">
        <float_array id="Motion_7_Spine1_transform_frame_array_id" count="7">0 0.033333335 0.06666667 0.1 0.13333334 0.16666667 0.2</float_array>
        <technique_common>
          <accessor source="#Motion_7_Spine1_transform_frame_array_id" count="7" stride="1">
            <param name="TIME" type="float" />
          </accessor>
        </technique_common>
      </source>
      <source id="Motion_7_Spine1_transform_interp_id" name="Motion_7_Spine1_transform_interp">
        <Name_array id="Motion_7_Spine1_transform_interp_array_id" count="7">LINEAR LINEAR LINEAR LINEAR LINEAR LINEAR LINEAR</Name_array>
        <technique_common>
          <accessor source="#Motion_7_Spine1_transform_interp_array_id" count="7" stride="1">
            <param name="INTERPOLATION" type="Name" />
          </accessor>
        </technique_common>
      </source>
      <source id="Motion_7_Spine1_transform_pose_id" name="Motion_7_Spine1_transform_pose">
        <float_array id="Motion_7_Spine1_transform_pose_array_id" count="112">0.98775506 -0.001751025 0.15600294 0 0.001903841 0.99999785 -0.0008301602 0 -0.15600115 0.0011169998 0.98775625 0 0 0 0 1 0.9893564 -0.0011599611 0.14550778 0 0.0012293835 0.99999917 -0.0003871838 0 -0.14550722 0.00056194764 0.98935705 0 0 0 0 1 0.99191695 -0.00071049033 0.12688693 0 0.0007322458 0.9999997 -0.0001248108 0 -0.12688681 0.00021671438 0.9919172 0 0 0 0 1 0.9942565 -0.000385218 0.10702286 0 0.00038701546 0.99999994 3.9742426E-06 0 -0.10702286 3.7468082E-05 0.99425656 0 0 0 0 1 0.9953928 -0.00016962402 0.09588105 0 0.00016647906 1 4.0800096E-05 0 -0.09588105 -2.4649937E-05 0.9953928 0 0 0 0 1 0.9949135 -4.7524416E-05 0.100732855 0 4.5191868E-05 1 2.5437717E-05 0 -0.100732855 -2.0756024E-05 0.9949135 0 0 0 0 1 0.9949135 -4.7524416E-05 0.100732855 0 4.5191868E-05 1 2.5437717E-05 0 -0.100732855 -2.0756024E-05 0.9949135 0 0 0 0 1</float_array>
        <technique_common>
          <accessor source="#Motion_7_Spine1_transform_pose_array_id" count="7" stride="16">
            <param name="TRANSFORM" type="float4x4" />
          </accessor>
        </technique_common>
      </source>
      <sampler id="Motion_7_Spine1_transform_samp_id">
        <input semantic="INPUT" source="#Motion_7_Spine1_transform_frame_id" />
        <input semantic="INTERPOLATION" source="#Motion_7_Spine1_transform_interp_id" />
        <input semantic="OUTPUT" source="#Motion_7_Spine1_transform_pose_id" />
      </sampler>
      <channel source="#Motion_7_Spine1_transform_samp_id" target="Spine1_bone_id/transform" />
    </animation>
    <animation id="Motion_7_Spine2_transform_id" name="Motion_7_Spine2_transform">
      <source id="Motion_7_Spine2_transform_frame_id" name="Motion_7_Spine2_transform_frame">
        <float_array id="Motion_7_Spine2_transform_frame_array_id" count="7">0 0.033333335 0.06666667 0.1 0.13333334 0.16666667 0.2</float_array>
        <technique_common>
          <accessor source="#Motion_7_Spine2_transform_frame_array_id" count="7" stride="1">
            <param name="TIME" type="float" />
          </accessor>
        </technique_common>
      </source>
      <source id="Motion_7_Spine2_transform_interp_id" name="Motion_7_Spine2_transform_interp">
        <Name_array id="Motion_7_Spine2_transform_interp_array_id" count="7">LINEAR LINEAR LINEAR LINEAR LINEAR LINEAR LINEAR</Name_array>
        <technique_common>
          <accessor source="#Motion_7_Spine2_transform_interp_array_id" count="7" stride="1">
            <param name="INTERPOLATION" type="Name" />
          </accessor>
        </technique_common>
      </source>
      <source id="Motion_7_Spine2_transform_pose_id" name="Motion_7_Spine2_transform_pose">
        <float_array id="Motion_7_Spine2_transform_pose_array_id" count="112">0.9996392 -0.00507935 -0.02637582 9.220472 0.0050573465 0.9999868 -0.0009008733 0 0.026380049 0.00076715654 0.9996517 0 0 0 0 1 0.9995088 -0.0041073365 -0.031069025 9.220472 0.0041183727 0.9999915 0.0002912201 0 0.031067565 -0.0004190309 0.9995172 0 0 0 0 1 0.9993891 -0.0032914896 -0.034793984 9.220472 0.0033305036 0.99999386 0.0010633937 0 0.034790274 -0.0011786255 0.99939394 0 0 0 0 1 0.999359 -0.002642916 -0.035701584 9.220472 0.002698319 0.99999523 0.0015037436 0 0.03569744 -0.001599114 0.99936134 0 0 0 0 1 0.99948734 -0.002171805 -0.031942155 9.220472 0.0022272088 0.99999607 0.0016990326 0 0.03193834 -0.0017693035 0.9994883 0 0 0 0 1 0.99976355 -0.0018863748 -0.02166341 9.220472 0.0019244372 0.99999666 0.0017362848 0 0.021660062 -0.0017775641 0.9997638 0 0 0 0 1 0.99976355 -0.0018863748 -0.02166341 9.220472 0.0019244372 0.99999666 0.0017362848 0 0.021660062 -0.0017775641 0.9997638 0 0 0 0 1</float_array>
        <technique_common>
          <accessor source="#Motion_7_Spine2_transform_pose_array_id" count="7" stride="16">
            <param name="TRANSFORM" type="float4x4" />
          </accessor>
        </technique_common>
      </source>
      <sampler id="Motion_7_Spine2_transform_samp_id">
        <input semantic="INPUT" source="#Motion_7_Spine2_transform_frame_id" />
        <input semantic="INTERPOLATION" source="#Motion_7_Spine2_transform_interp_id" />
        <input semantic="OUTPUT" source="#Motion_7_Spine2_transform_pose_id" />
      </sampler>
      <channel source="#Motion_7_Spine2_transform_samp_id" target="Spine2_bone_id/transform" />
    </animation>
    <animation id="Motion_7_RArm_transform_id" name="Motion_7_RArm_transform">
      <source id="Motion_7_RArm_transform_frame_id" name="Motion_7_RArm_transform_frame">
        <float_array id="Motion_7_RArm_transform_frame_array_id" count="7">0 0.033333335 0.06666667 0.1 0.13333334 0.16666667 0.2</float_array>
        <technique_common>
          <accessor source="#Motion_7_RArm_transform_frame_array_id" count="7" stride="1">
            <param name="TIME" type="float" />
          </accessor>
        </technique_common>
      </source>
      <source id="Motion_7_RArm_transform_interp_id" name="Motion_7_RArm_transform_interp">
        <Name_array id="Motion_7_RArm_transform_interp_array_id" count="7">LINEAR LINEAR LINEAR LINEAR LINEAR LINEAR LINEAR</Name_array>
        <technique_common>
          <accessor source="#Motion_7_RArm_transform_interp_array_id" count="7" stride="1">
            <param name="INTERPOLATION" type="Name" />
          </accessor>
        </technique_common>
      </source>
      <source id="Motion_7_RArm_transform_pose_id" name="Motion_7_RArm_transform_pose">
        <float_array id="Motion_7_RArm_transform_pose_array_id" count="112">-0.6285497 -0.74659896 -0.2179797 7.7375875 0.7348788 -0.66187036 0.1479215 13.19477 -0.25471234 -0.067212634 0.9646782 0.6766796 0 0 0 1 -0.63380456 -0.74249804 -0.2167675 7.7375875 0.73075867 -0.6666542 0.14684522 13.19477 -0.25354132 -0.06533355 0.9651157 0.6766796 0 0 0 1 -0.6407305 -0.7370473 -0.21500245 7.7375875 0.7253096 -0.67291343 0.1453058 13.19477 -0.25177523 -0.06284149 0.9657433 0.6766796 0 0 0 1 -0.6470852 -0.7320081 -0.21317878 7.7375875 0.7202934 -0.67860377 0.14378648 13.19477 -0.24991676 -0.0605092 0.9663748 0.6766796 0 0 0 1 -0.64978135 -0.7298544 -0.21235895 7.7375875 0.718147 -0.68100893 0.14314824 13.19477 -0.24909577 -0.05948988 0.96665 0.6766796 0 0 0 1 -0.6468054 -0.73221636 -0.21331263 7.7375875 0.72048604 -0.67837095 0.14392014 13.19477 -0.2500857 -0.06060045 0.9663254 0.6766796 0 0 0 1 -0.6468054 -0.73221636 -0.21331263 7.7375875 0.72048604 -0.67837095 0.14392014 13.19477 -0.2500857 -0.06060045 0.9663254 0.6766796 0 0 0 1</float_array>
        <technique_common>
          <accessor source="#Motion_7_RArm_transform_pose_array_id" count="7" stride="16">
            <param name="TRANSFORM" type="float4x4" />
          </accessor>
        </technique_common>
      </source>
      <sampler id="Motion_7_RArm_transform_samp_id">
        <input semantic="INPUT" source="#Motion_7_RArm_transform_frame_id" />
        <input semantic="INTERPOLATION" source="#Motion_7_RArm_transform_interp_id" />
        <input semantic="OUTPUT" source="#Motion_7_RArm_transform_pose_id" />
      </sampler>
      <channel source="#Motion_7_RArm_transform_samp_id" target="RArm_bone_id/transform" />
    </animation>
    <animation id="Motion_7_RForeArm_transform_id" name="Motion_7_RForeArm_transform">
      <source id="Motion_7_RForeArm_transform_frame_id" name="Motion_7_RForeArm_transform_frame">
        <float_array id="Motion_7_RForeArm_transform_frame_array_id" count="7">0 0.033333335 0.06666667 0.1 0.13333334 0.16666667 0.2</float_array>
        <technique_common>
          <accessor source="#Motion_7_RForeArm_transform_frame_array_id" count="7" stride="1">
            <param name="TIME" type="float" />
          </accessor>
        </technique_common>
      </source>
      <source id="Motion_7_RForeArm_transform_interp_id" name="Motion_7_RForeArm_transform_interp">
        <Name_array id="Motion_7_RForeArm_transform_interp_array_id" count="7">LINEAR LINEAR LINEAR LINEAR LINEAR LINEAR LINEAR</Name_array>
        <technique_common>
          <accessor source="#Motion_7_RForeArm_transform_interp_array_id" count="7" stride="1">
            <param name="INTERPOLATION" type="Name" />
          </accessor>
        </technique_common>
      </source>
      <source id="Motion_7_RForeArm_transform_pose_id" name="Motion_7_RForeArm_transform_pose">
        <float_array id="Motion_7_RForeArm_transform_pose_array_id" count="112">0.9667519 -0.2178559 -0.13390157 11.272853 0.2219029 0.97493917 0.015898198 1.4946E-05 0.12708238 -0.04508276 0.9908671 1.7279E-07 0 0 0 1 0.96351403 -0.2300502 -0.13681252 11.272853 0.23405099 0.9721279 0.013691515 1.4946E-05 0.12984954 -0.04521307 0.99050236 1.7279E-07 0 0 0 1 0.9589516 -0.24580833 -0.1413863 11.272853 0.24958202 0.96830875 0.009327022 1.4946E-05 0.13461292 -0.04423164 0.98991054 1.7279E-07 0 0 0 1 0.95374346 -0.26204208 -0.14733438 11.272853 0.26538327 0.96413785 0.003141582 1.4946E-05 0.14122744 -0.042096347 0.98908174 1.7279E-07 0 0 0 1 0.94954073 -0.27415097 -0.15236035 11.272853 0.27703238 0.96085757 -0.0024056435 1.4946E-05 0.1470561 -0.039924495 0.9883221 1.7279E-07 0 0 0 1 0.94779396 -0.27909088 -0.1542559 11.272853 0.28169042 0.9594913 -0.0051911566 1.4946E-05 0.149456 -0.038532265 0.9880173 1.7279E-07 0 0 0 1 0.94779396 -0.27909088 -0.1542559 11.272853 0.28169042 0.9594913 -0.0051911566 1.4946E-05 0.149456 -0.038532265 0.9880173 1.7279E-07 0 0 0 1</float_array>
        <technique_common>
          <accessor source="#Motion_7_RForeArm_transform_pose_array_id" count="7" stride="16">
            <param name="TRANSFORM" type="float4x4" />
          </accessor>
        </technique_common>
      </source>
      <sampler id="Motion_7_RForeArm_transform_samp_id">
        <input semantic="INPUT" source="#Motion_7_RForeArm_transform_frame_id" />
        <input semantic="INTERPOLATION" source="#Motion_7_RForeArm_transform_interp_id" />
        <input semantic="OUTPUT" source="#Motion_7_RForeArm_transform_pose_id" />
      </sampler>
      <channel source="#Motion_7_RForeArm_transform_samp_id" target="RForeArm_bone_id/transform" />
    </animation>
    <animation id="Motion_7_RHand_transform_id" name="Motion_7_RHand_transform">
      <source id="Motion_7_RHand_transform_frame_id" name="Motion_7_RHand_transform_frame">
        <float_array id="Motion_7_RHand_transform_frame_array_id" count="7">0 0.033333335 0.06666667 0.1 0.13333334 0.16666667 0.2</float_array>
        <technique_common>
          <accessor source="#Motion_7_RHand_transform_frame_array_id" count="7" stride="1">
            <param name="TIME" type="float" />
          </accessor>
        </technique_common>
      </source>
      <source id="Motion_7_RHand_transform_interp_id" name="Motion_7_RHand_transform_interp">
        <Name_array id="Motion_7_RHand_transform_interp_array_id" count="7">LINEAR LINEAR LINEAR LINEAR LINEAR LINEAR LINEAR</Name_array>
        <technique_common>
          <accessor source="#Motion_7_RHand_transform_interp_array_id" count="7" stride="1">
            <param name="INTERPOLATION" type="Name" />
          </accessor>
        </technique_common>
      </source>
      <source id="Motion_7_RHand_transform_pose_id" name="Motion_7_RHand_transform_pose">
        <float_array id="Motion_7_RHand_transform_pose_array_id" count="112">0.99244815 -0.10244141 0.06747183 10.303429 0.102675386 0.9947149 0 -4.841209E-05 -0.06711523 0.006927696 0.9977212 -2.116491E-05 0 0 0 1 0.9918456 -0.10975587 0.06477628 10.303429 0.11010432 0.99391836 -0.0018234176 -4.841209E-05 -0.0641822 0.008940697 0.99789816 -2.116491E-05 0 0 0 1 0.99106866 -0.118799366 0.060577277 10.303429 0.11929812 0.9928475 -0.00467127 -4.841209E-05 -0.059589054 0.0118563045 0.99815255 -2.116491E-05 0 0 0 1 0.9900365 -0.1295653 0.055141024 10.303429 0.13020042 0.99145484 -0.0080708545 -4.841209E-05 -0.05362413 0.015169824 0.9984459 -2.116491E-05 0 0 0 1 0.98893 -0.13978706 0.0497702 10.303429 0.14052017 0.9900107 -0.011531347 -4.841209E-05 -0.047661096 0.018397411 0.9986941 -2.116491E-05 0 0 0 1 0.9880667 -0.14708662 0.045713793 10.303429 0.1478821 0.98889846 -0.01451741 -4.841209E-05 -0.043070983 0.02110442 0.9988491 -2.116491E-05 0 0 0 1 0.9880667 -0.14708662 0.045713793 10.303429 0.1478821 0.98889846 -0.01451741 -4.841209E-05 -0.043070983 0.02110442 0.9988491 -2.116491E-05 0 0 0 1</float_array>
        <technique_common>
          <accessor source="#Motion_7_RHand_transform_pose_array_id" count="7" stride="16">
            <param name="TRANSFORM" type="float4x4" />
          </accessor>
        </technique_common>
      </source>
      <sampler id="Motion_7_RHand_transform_samp_id">
        <input semantic="INPUT" source="#Motion_7_RHand_transform_frame_id" />
        <input semantic="INTERPOLATION" source="#Motion_7_RHand_transform_interp_id" />
        <input semantic="OUTPUT" source="#Motion_7_RHand_transform_pose_id" />
      </sampler>
      <channel source="#Motion_7_RHand_transform_samp_id" target="RHand_bone_id/transform" />
    </animation>
    <animation id="Motion_7_LArm_transform_id" name="Motion_7_LArm_transform">
      <source id="Motion_7_LArm_transform_frame_id" name="Motion_7_LArm_transform_frame">
        <float_array id="Motion_7_LArm_transform_frame_array_id" count="7">0 0.033333335 0.06666667 0.1 0.13333334 0.16666667 0.2</float_array>
        <technique_common>
          <accessor source="#Motion_7_LArm_transform_frame_array_id" count="7" stride="1">
            <param name="TIME" type="float" />
          </accessor>
        </technique_common>
      </source>
      <source id="Motion_7_LArm_transform_interp_id" name="Motion_7_LArm_transform_interp">
        <Name_array id="Motion_7_LArm_transform_interp_array_id" count="7">LINEAR LINEAR LINEAR LINEAR LINEAR LINEAR LINEAR</Name_array>
        <technique_common>
          <accessor source="#Motion_7_LArm_transform_interp_array_id" count="7" stride="1">
            <param name="INTERPOLATION" type="Name" />
          </accessor>
        </technique_common>
      </source>
      <source id="Motion_7_LArm_transform_pose_id" name="Motion_7_LArm_transform_pose">
        <float_array id="Motion_7_LArm_transform_pose_array_id" count="112">-0.60392785 0.64621705 -0.46655604 8.743363 -0.69748 -0.7117784 -0.08302472 -13.189372 -0.3857365 0.27527258 0.8805864 0.8616381 0 0 0 1 -0.61148095 0.6531324 -0.44666457 8.743363 -0.6985895 -0.71070826 -0.0828641 -13.189372 -0.37156945 0.26136535 0.8908559 0.8616381 0 0 0 1 -0.61696815 0.6626248 -0.42459223 8.743363 -0.7024557 -0.7069279 -0.08251481 -13.189372 -0.3548325 0.24734823 0.90161675 0.8616381 0 0 0 1 -0.6189344 0.67391133 -0.40343982 8.743363 -0.708621 -0.7006593 -0.08326463 -13.189372 -0.33878678 0.23435059 0.9112098 0.8616381 0 0 0 1 -0.6159358 0.6857876 -0.3877093 8.743363 -0.7162182 -0.692436 -0.08697133 -13.189372 -0.32810768 0.22411568 0.9176696 0.8616381 0 0 0 1 -0.60771334 0.69705975 -0.38051564 8.743363 -0.7241088 -0.68312025 -0.09493706 -13.189372 -0.32611477 0.21784022 0.9198885 0.8616381 0 0 0 1 -0.60771334 0.69705975 -0.38051564 8.743363 -0.7241088 -0.68312025 -0.09493706 -13.189372 -0.32611477 0.21784022 0.9198885 0.8616381 0 0 0 1</float_array>
        <technique_common>
          <accessor source="#Motion_7_LArm_transform_pose_array_id" count="7" stride="16">
            <param name="TRANSFORM" type="float4x4" />
          </accessor>
        </technique_common>
      </source>
      <sampler id="Motion_7_LArm_transform_samp_id">
        <input semantic="INPUT" source="#Motion_7_LArm_transform_frame_id" />
        <input semantic="INTERPOLATION" source="#Motion_7_LArm_transform_interp_id" />
        <input semantic="OUTPUT" source="#Motion_7_LArm_transform_pose_id" />
      </sampler>
      <channel source="#Motion_7_LArm_transform_samp_id" target="LArm_bone_id/transform" />
    </animation>
    <animation id="Motion_7_LForeArm_transform_id" name="Motion_7_LForeArm_transform">
      <source id="Motion_7_LForeArm_transform_frame_id" name="Motion_7_LForeArm_transform_frame">
        <float_array id="Motion_7_LForeArm_transform_frame_array_id" count="7">0 0.033333335 0.06666667 0.1 0.13333334 0.16666667 0.2</float_array>
        <technique_common>
          <accessor source="#Motion_7_LForeArm_transform_frame_array_id" count="7" stride="1">
            <param name="TIME" type="float" />
          </accessor>
        </technique_common>
      </source>
      <source id="Motion_7_LForeArm_transform_interp_id" name="Motion_7_LForeArm_transform_interp">
        <Name_array id="Motion_7_LForeArm_transform_interp_array_id" count="7">LINEAR LINEAR LINEAR LINEAR LINEAR LINEAR LINEAR</Name_array>
        <technique_common>
          <accessor source="#Motion_7_LForeArm_transform_interp_array_id" count="7" stride="1">
            <param name="INTERPOLATION" type="Name" />
          </accessor>
        </technique_common>
      </source>
      <source id="Motion_7_LForeArm_transform_pose_id" name="Motion_7_LForeArm_transform_pose">
        <float_array id="Motion_7_LForeArm_transform_pose_array_id" count="112">0.8780504 0 -0.47856817 11.272853 0 1 0 0 0.47856817 0 0.8780504 0 0 0 0 1 0.8818178 0 -0.47159016 11.272853 0 1 0 0 0.47159016 0 0.8818178 0 0 0 0 1 0.89046854 0 -0.4550448 11.272853 0 1 0 0 0.4550448 0 0.89046854 0 0 0 0 1 0.9004557 0 -0.43494767 11.272853 0 1 0 0 0.43494767 0 0.9004557 0 0 0 0 1 0.9074061 0 -0.42025498 11.272853 0 1 0 0 0.42025498 0 0.9074061 0 0 0 0 1 0.90839106 0 -0.41812158 11.272853 0 1 0 0 0.41812158 0 0.90839106 0 0 0 0 1 0.90839106 0 -0.41812158 11.272853 0 1 0 0 0.41812158 0 0.90839106 0 0 0 0 1</float_array>
        <technique_common>
          <accessor source="#Motion_7_LForeArm_transform_pose_array_id" count="7" stride="16">
            <param name="TRANSFORM" type="float4x4" />
          </accessor>
        </technique_common>
      </source>
      <sampler id="Motion_7_LForeArm_transform_samp_id">
        <input semantic="INPUT" source="#Motion_7_LForeArm_transform_frame_id" />
        <input semantic="INTERPOLATION" source="#Motion_7_LForeArm_transform_interp_id" />
        <input semantic="OUTPUT" source="#Motion_7_LForeArm_transform_pose_id" />
      </sampler>
      <channel source="#Motion_7_LForeArm_transform_samp_id" target="LForeArm_bone_id/transform" />
    </animation>
    <animation id="Motion_7_LHand_transform_id" name="Motion_7_LHand_transform">
      <source id="Motion_7_LHand_transform_frame_id" name="Motion_7_LHand_transform_frame">
        <float_array id="Motion_7_LHand_transform_frame_array_id" count="7">0 0.033333335 0.06666667 0.1 0.13333334 0.16666667 0.2</float_array>
        <technique_common>
          <accessor source="#Motion_7_LHand_transform_frame_array_id" count="7" stride="1">
            <param name="TIME" type="float" />
          </accessor>
        </technique_common>
      </source>
      <source id="Motion_7_LHand_transform_interp_id" name="Motion_7_LHand_transform_interp">
        <Name_array id="Motion_7_LHand_transform_interp_array_id" count="7">LINEAR LINEAR LINEAR LINEAR LINEAR LINEAR LINEAR</Name_array>
        <technique_common>
          <accessor source="#Motion_7_LHand_transform_interp_array_id" count="7" stride="1">
            <param name="INTERPOLATION" type="Name" />
          </accessor>
        </technique_common>
      </source>
      <source id="Motion_7_LHand_transform_pose_id" name="Motion_7_LHand_transform_pose">
        <float_array id="Motion_7_LHand_transform_pose_array_id" count="112">0.7769813 0.62944394 -0.0100212395 10.303277 -0.58329433 0.7258197 0.3646279 0 0.23678644 -0.27746373 0.93109936 0 0 0 0 1 0.7769813 0.62944394 -0.0100212395 10.303277 -0.58329433 0.7258197 0.3646279 0 0.23678644 -0.27746373 0.93109936 0 0 0 0 1 0.7769813 0.62944394 -0.0100212395 10.303277 -0.58329433 0.7258197 0.3646279 0 0.23678644 -0.27746373 0.93109936 0 0 0 0 1 0.7769813 0.62944394 -0.0100212395 10.303277 -0.58329433 0.7258197 0.3646279 0 0.23678644 -0.27746373 0.93109936 0 0 0 0 1 0.7769813 0.62944394 -0.0100212395 10.303277 -0.58329433 0.7258197 0.3646279 0 0.23678644 -0.27746373 0.93109936 0 0 0 0 1 0.7769813 0.62944394 -0.0100212395 10.303277 -0.58329433 0.7258197 0.3646279 0 0.23678644 -0.27746373 0.93109936 0 0 0 0 1 0.7769813 0.62944394 -0.0100212395 10.303277 -0.58329433 0.7258197 0.3646279 0 0.23678644 -0.27746373 0.93109936 0 0 0 0 1</float_array>
        <technique_common>
          <accessor source="#Motion_7_LHand_transform_pose_array_id" count="7" stride="16">
            <param name="TRANSFORM" type="float4x4" />
          </accessor>
        </technique_common>
      </source>
      <sampler id="Motion_7_LHand_transform_samp_id">
        <input semantic="INPUT" source="#Motion_7_LHand_transform_frame_id" />
        <input semantic="INTERPOLATION" source="#Motion_7_LHand_transform_interp_id" />
        <input semantic="OUTPUT" source="#Motion_7_LHand_transform_pose_id" />
      </sampler>
      <channel source="#Motion_7_LHand_transform_samp_id" target="LHand_bone_id/transform" />
    </animation>
    <animation id="Motion_7_Head_transform_id" name="Motion_7_Head_transform">
      <source id="Motion_7_Head_transform_frame_id" name="Motion_7_Head_transform_frame">
        <float_array id="Motion_7_Head_transform_frame_array_id" count="7">0 0.033333335 0.06666667 0.1 0.13333334 0.16666667 0.2</float_array>
        <technique_common>
          <accessor source="#Motion_7_Head_transform_frame_array_id" count="7" stride="1">
            <param name="TIME" type="float" />
          </accessor>
        </technique_common>
      </source>
      <source id="Motion_7_Head_transform_interp_id" name="Motion_7_Head_transform_interp">
        <Name_array id="Motion_7_Head_transform_interp_array_id" count="7">LINEAR LINEAR LINEAR LINEAR LINEAR LINEAR LINEAR</Name_array>
        <technique_common>
          <accessor source="#Motion_7_Head_transform_interp_array_id" count="7" stride="1">
            <param name="INTERPOLATION" type="Name" />
          </accessor>
        </technique_common>
      </source>
      <source id="Motion_7_Head_transform_pose_id" name="Motion_7_Head_transform_pose">
        <float_array id="Motion_7_Head_transform_pose_array_id" count="112">0.9525941 -0.008284541 -0.30413133 16.489044 0.008983811 0.99995923 0.0009000137 0 0.30411148 -0.003589606 0.9526297 0 0 0 0 1 0.9501596 -0.0062868297 -0.31170058 16.489044 0.0072924728 0.9999713 0.002060837 0 0.31167865 -0.004231192 0.95017815 0 0 0 0 1 0.9462551 -0.0043727686 -0.32339165 16.489044 0.005399656 0.99998283 0.002278225 0 0.32337615 -0.003901986 0.9462625 0 0 0 0 1 0.9424794 -0.0026649348 -0.33425373 16.489044 0.0034850398 0.9999922 0.0018538733 0 0.33424616 -0.0029121249 0.9424813 0 0 0 0 1 0.9413627 -0.0012720275 -0.3373939 16.489044 0.0017338915 0.9999979 0.0010675833 0 0.33739182 -0.0015899875 0.941363 0 0 0 0 1 0.944648 -0.00027407834 -0.32808545 16.489044 0.0003503533 0.99999994 0.00017337633 0 0.3280854 -0.00027872543 0.944648 0 0 0 0 1 0.944648 -0.00027407834 -0.32808545 16.489044 0.0003503533 0.99999994 0.00017337633 0 0.3280854 -0.00027872543 0.944648 0 0 0 0 1</float_array>
        <technique_common>
          <accessor source="#Motion_7_Head_transform_pose_array_id" count="7" stride="16">
            <param name="TRANSFORM" type="float4x4" />
          </accessor>
        </technique_common>
      </source>
      <sampler id="Motion_7_Head_transform_samp_id">
        <input semantic="INPUT" source="#Motion_7_Head_transform_frame_id" />
        <input semantic="INTERPOLATION" source="#Motion_7_Head_transform_interp_id" />
        <input semantic="OUTPUT" source="#Motion_7_Head_transform_pose_id" />
      </sampler>
      <channel source="#Motion_7_Head_transform_samp_id" target="Head_bone_id/transform" />
    </animation>
    <animation id="Motion_7_Jaw_transform_id" name="Motion_7_Jaw_transform">
      <source id="Motion_7_Jaw_transform_frame_id" name="Motion_7_Jaw_transform_frame">
        <float_array id="Motion_7_Jaw_transform_frame_array_id" count="7">0 0.033333335 0.06666667 0.1 0.13333334 0.16666667 0.2</float_array>
        <technique_common>
          <accessor source="#Motion_7_Jaw_transform_frame_array_id" count="7" stride="1">
            <param name="TIME" type="float" />
          </accessor>
        </technique_common>
      </source>
      <source id="Motion_7_Jaw_transform_interp_id" name="Motion_7_Jaw_transform_interp">
        <Name_array id="Motion_7_Jaw_transform_interp_array_id" count="7">LINEAR LINEAR LINEAR LINEAR LINEAR LINEAR LINEAR</Name_array>
        <technique_common>
          <accessor source="#Motion_7_Jaw_transform_interp_array_id" count="7" stride="1">
            <param name="INTERPOLATION" type="Name" />
          </accessor>
        </technique_common>
      </source>
      <source id="Motion_7_Jaw_transform_pose_id" name="Motion_7_Jaw_transform_pose">
        <float_array id="Motion_7_Jaw_transform_pose_array_id" count="112">-0.275607 0 -0.9612704 7.7004395 0 1 0 0 0.9612704 0 -0.275607 15.861321 0 0 0 1 -0.275607 0 -0.9612704 7.7004395 0 1 0 0 0.9612704 0 -0.275607 15.861321 0 0 0 1 -0.275607 0 -0.9612704 7.7004395 0 1 0 0 0.9612704 0 -0.275607 15.861321 0 0 0 1 -0.275607 0 -0.9612704 7.7004395 0 1 0 0 0.9612704 0 -0.275607 15.861321 0 0 0 1 -0.275607 0 -0.9612704 7.7004395 0 1 0 0 0.9612704 0 -0.275607 15.861321 0 0 0 1 -0.275607 0 -0.9612704 7.7004395 0 1 0 0 0.9612704 0 -0.275607 15.861321 0 0 0 1 -0.275607 0 -0.9612704 7.7004395 0 1 0 0 0.9612704 0 -0.275607 15.861321 0 0 0 1</float_array>
        <technique_common>
          <accessor source="#Motion_7_Jaw_transform_pose_array_id" count="7" stride="16">
            <param name="TRANSFORM" type="float4x4" />
          </accessor>
        </technique_common>
      </source>
      <sampler id="Motion_7_Jaw_transform_samp_id">
        <input semantic="INPUT" source="#Motion_7_Jaw_transform_frame_id" />
        <input semantic="INTERPOLATION" source="#Motion_7_Jaw_transform_interp_id" />
        <input semantic="OUTPUT" source="#Motion_7_Jaw_transform_pose_id" />
      </sampler>
      <channel source="#Motion_7_Jaw_transform_samp_id" target="Jaw_bone_id/transform" />
    </animation>
    <animation id="Motion_7_Loc_Head_transform_id" name="Motion_7_Loc_Head_transform">
      <source id="Motion_7_Loc_Head_transform_frame_id" name="Motion_7_Loc_Head_transform_frame">
        <float_array id="Motion_7_Loc_Head_transform_frame_array_id" count="7">0 0.033333335 0.06666667 0.1 0.13333334 0.16666667 0.2</float_array>
        <technique_common>
          <accessor source="#Motion_7_Loc_Head_transform_frame_array_id" count="7" stride="1">
            <param name="TIME" type="float" />
          </accessor>
        </technique_common>
      </source>
      <source id="Motion_7_Loc_Head_transform_interp_id" name="Motion_7_Loc_Head_transform_interp">
        <Name_array id="Motion_7_Loc_Head_transform_interp_array_id" count="7">LINEAR LINEAR LINEAR LINEAR LINEAR LINEAR LINEAR</Name_array>
        <technique_common>
          <accessor source="#Motion_7_Loc_Head_transform_interp_array_id" count="7" stride="1">
            <param name="INTERPOLATION" type="Name" />
          </accessor>
        </technique_common>
      </source>
      <source id="Motion_7_Loc_Head_transform_pose_id" name="Motion_7_Loc_Head_transform_pose">
        <float_array id="Motion_7_Loc_Head_transform_pose_array_id" count="112">0.850861 0.89076364 0.08205804 26.826326 -0.89419335 0.85008055 0.044035584 0 -0.024729831 -0.08978358 1.2310505 3.6638129 0 0 0 1 0.850861 0.89076364 0.08205804 26.826326 -0.89419335 0.85008055 0.044035584 0 -0.024729831 -0.08978358 1.2310505 3.6638129 0 0 0 1 0.850861 0.89076364 0.08205804 26.826326 -0.89419335 0.85008055 0.044035584 0 -0.024729831 -0.08978358 1.2310505 3.6638129 0 0 0 1 0.850861 0.89076364 0.08205804 26.826326 -0.89419335 0.85008055 0.044035584 0 -0.024729831 -0.08978358 1.2310505 3.6638129 0 0 0 1 0.850861 0.89076364 0.08205804 26.826326 -0.89419335 0.85008055 0.044035584 0 -0.024729831 -0.08978358 1.2310505 3.6638129 0 0 0 1 0.850861 0.89076364 0.08205804 26.826326 -0.89419335 0.85008055 0.044035584 0 -0.024729831 -0.08978358 1.2310505 3.6638129 0 0 0 1 0.850861 0.89076364 0.08205804 26.826326 -0.89419335 0.85008055 0.044035584 0 -0.024729831 -0.08978358 1.2310505 3.6638129 0 0 0 1</float_array>
        <technique_common>
          <accessor source="#Motion_7_Loc_Head_transform_pose_array_id" count="7" stride="16">
            <param name="TRANSFORM" type="float4x4" />
          </accessor>
        </technique_common>
      </source>
      <sampler id="Motion_7_Loc_Head_transform_samp_id">
        <input semantic="INPUT" source="#Motion_7_Loc_Head_transform_frame_id" />
        <input semantic="INTERPOLATION" source="#Motion_7_Loc_Head_transform_interp_id" />
        <input semantic="OUTPUT" source="#Motion_7_Loc_Head_transform_pose_id" />
      </sampler>
      <channel source="#Motion_7_Loc_Head_transform_samp_id" target="Loc_Head_bone_id/transform" />
    </animation>
    <animation id="Motion_7_Loc_Eye_transform_id" name="Motion_7_Loc_Eye_transform">
      <source id="Motion_7_Loc_Eye_transform_frame_id" name="Motion_7_Loc_Eye_transform_frame">
        <float_array id="Motion_7_Loc_Eye_transform_frame_array_id" count="7">0 0.033333335 0.06666667 0.1 0.13333334 0.16666667 0.2</float_array>
        <technique_common>
          <accessor source="#Motion_7_Loc_Eye_transform_frame_array_id" count="7" stride="1">
            <param name="TIME" type="float" />
          </accessor>
        </technique_common>
      </source>
      <source id="Motion_7_Loc_Eye_transform_interp_id" name="Motion_7_Loc_Eye_transform_interp">
        <Name_array id="Motion_7_Loc_Eye_transform_interp_array_id" count="7">LINEAR LINEAR LINEAR LINEAR LINEAR LINEAR LINEAR</Name_array>
        <technique_common>
          <accessor source="#Motion_7_Loc_Eye_transform_interp_array_id" count="7" stride="1">
            <param name="INTERPOLATION" type="Name" />
          </accessor>
        </technique_common>
      </source>
      <source id="Motion_7_Loc_Eye_transform_pose_id" name="Motion_7_Loc_Eye_transform_pose">
        <float_array id="Motion_7_Loc_Eye_transform_pose_array_id" count="112">0.850861 0.89076364 0.08205804 9.922894 -0.89419335 0.85008055 0.044035584 0 -0.024729831 -0.08978358 1.2310505 19.561277 0 0 0 1 0.850861 0.89076364 0.08205804 9.922894 -0.89419335 0.85008055 0.044035584 0 -0.024729831 -0.08978358 1.2310505 19.561277 0 0 0 1 0.850861 0.89076364 0.08205804 9.922894 -0.89419335 0.85008055 0.044035584 0 -0.024729831 -0.08978358 1.2310505 19.561277 0 0 0 1 0.850861 0.89076364 0.08205804 9.922894 -0.89419335 0.85008055 0.044035584 0 -0.024729831 -0.08978358 1.2310505 19.561277 0 0 0 1 0.850861 0.89076364 0.08205804 9.922894 -0.89419335 0.85008055 0.044035584 0 -0.024729831 -0.08978358 1.2310505 19.561277 0 0 0 1 0.850861 0.89076364 0.08205804 9.922894 -0.89419335 0.85008055 0.044035584 0 -0.024729831 -0.08978358 1.2310505 19.561277 0 0 0 1 0.850861 0.89076364 0.08205804 9.922894 -0.89419335 0.85008055 0.044035584 0 -0.024729831 -0.08978358 1.2310505 19.561277 0 0 0 1</float_array>
        <technique_common>
          <accessor source="#Motion_7_Loc_Eye_transform_pose_array_id" count="7" stride="16">
            <param name="TRANSFORM" type="float4x4" />
          </accessor>
        </technique_common>
      </source>
      <sampler id="Motion_7_Loc_Eye_transform_samp_id">
        <input semantic="INPUT" source="#Motion_7_Loc_Eye_transform_frame_id" />
        <input semantic="INTERPOLATION" source="#Motion_7_Loc_Eye_transform_interp_id" />
        <input semantic="OUTPUT" source="#Motion_7_Loc_Eye_transform_pose_id" />
      </sampler>
      <channel source="#Motion_7_Loc_Eye_transform_samp_id" target="Loc_Eye_bone_id/transform" />
    </animation>
    <animation id="Motion_7_Loc_Mouth_transform_id" name="Motion_7_Loc_Mouth_transform">
      <source id="Motion_7_Loc_Mouth_transform_frame_id" name="Motion_7_Loc_Mouth_transform_frame">
        <float_array id="Motion_7_Loc_Mouth_transform_frame_array_id" count="7">0 0.033333335 0.06666667 0.1 0.13333334 0.16666667 0.2</float_array>
        <technique_common>
          <accessor source="#Motion_7_Loc_Mouth_transform_frame_array_id" count="7" stride="1">
            <param name="TIME" type="float" />
          </accessor>
        </technique_common>
      </source>
      <source id="Motion_7_Loc_Mouth_transform_interp_id" name="Motion_7_Loc_Mouth_transform_interp">
        <Name_array id="Motion_7_Loc_Mouth_transform_interp_array_id" count="7">LINEAR LINEAR LINEAR LINEAR LINEAR LINEAR LINEAR</Name_array>
        <technique_common>
          <accessor source="#Motion_7_Loc_Mouth_transform_interp_array_id" count="7" stride="1">
            <param name="INTERPOLATION" type="Name" />
          </accessor>
        </technique_common>
      </source>
      <source id="Motion_7_Loc_Mouth_transform_pose_id" name="Motion_7_Loc_Mouth_transform_pose">
        <float_array id="Motion_7_Loc_Mouth_transform_pose_array_id" count="112">0.850861 0.89076364 0.08205804 4.9566946 -0.89419335 0.85008055 0.044035584 0 -0.024729831 -0.08978358 1.2310505 30.742014 0 0 0 1 0.850861 0.89076364 0.08205804 4.9566946 -0.89419335 0.85008055 0.044035584 0 -0.024729831 -0.08978358 1.2310505 30.742014 0 0 0 1 0.850861 0.89076364 0.08205804 4.9566946 -0.89419335 0.85008055 0.044035584 0 -0.024729831 -0.08978358 1.2310505 30.742014 0 0 0 1 0.850861 0.89076364 0.08205804 4.9566946 -0.89419335 0.85008055 0.044035584 0 -0.024729831 -0.08978358 1.2310505 30.742014 0 0 0 1 0.850861 0.89076364 0.08205804 4.9566946 -0.89419335 0.85008055 0.044035584 0 -0.024729831 -0.08978358 1.2310505 30.742014 0 0 0 1 0.850861 0.89076364 0.08205804 4.9566946 -0.89419335 0.85008055 0.044035584 0 -0.024729831 -0.08978358 1.2310505 30.742014 0 0 0 1 0.850861 0.89076364 0.08205804 4.9566946 -0.89419335 0.85008055 0.044035584 0 -0.024729831 -0.08978358 1.2310505 30.742014 0 0 0 1</float_array>
        <technique_common>
          <accessor source="#Motion_7_Loc_Mouth_transform_pose_array_id" count="7" stride="16">
            <param name="TRANSFORM" type="float4x4" />
          </accessor>
        </technique_common>
      </source>
      <sampler id="Motion_7_Loc_Mouth_transform_samp_id">
        <input semantic="INPUT" source="#Motion_7_Loc_Mouth_transform_frame_id" />
        <input semantic="INTERPOLATION" source="#Motion_7_Loc_Mouth_transform_interp_id" />
        <input semantic="OUTPUT" source="#Motion_7_Loc_Mouth_transform_pose_id" />
      </sampler>
      <channel source="#Motion_7_Loc_Mouth_transform_samp_id" target="Loc_Mouth_bone_id/transform" />
    </animation>
  </library_animations>
  <library_visual_scenes>
    <visual_scene id="pm0225_00_fi_00_clip_id" name="pm0225_00_fi_00_clip">
      <node id="pm0225_00_fi_bone_id" name="pm0225_00_fi" sid="pm0225_00_fi" type="JOINT">
        <matrix sid="transform">1 0 0 0 0 1 0 0 0 0 1 0 0 0 0 1</matrix>
        <node id="Origin_bone_id" name="Origin" sid="Origin" type="JOINT">
          <matrix sid="transform">1 0 0 0 0 1 0 0 0 0 1 0 0 0 0 1</matrix>
          <node id="Waist_bone_id" name="Waist" sid="Waist" type="JOINT">
            <matrix sid="transform">3.1372525E-07 -1 1.0955656E-08 0 0.99939084 3.1391647E-07 0.03489991 28.102411 -0.03489991 0 0.99939084 1.570856 0 0 0 1</matrix>
            <node id="Spine1_bone_id" name="Spine1" sid="Spine1" type="JOINT">
              <matrix sid="transform">1 0 0 0 0 1 0 0 0 0 1 0 0 0 0 1</matrix>
              <node id="Spine2_bone_id" name="Spine2" sid="Spine2" type="JOINT">
                <matrix sid="transform">0.9898508 0 0.14211027 9.220472 0 1 0 0 -0.14211027 0 0.9898508 0 0 0 0 1</matrix>
                <node id="Head_bone_id" name="Head" sid="Head" type="JOINT">
                  <matrix sid="transform">0.9717142 0 -0.23615983 16.489044 0 1 0 0 0.23615983 0 0.9717142 0 0 0 0 1</matrix>
                  <node id="Jaw_bone_id" name="Jaw" sid="Jaw" type="JOINT">
                    <matrix sid="transform">-0.7431233 0 -0.6691545 7.700439 0 1 0 0 0.6691545 0 -0.7431233 15.861321 0 0 0 1</matrix>
                  </node>
                  <node id="Loc_Head_bone_id" name="Loc_Head" sid="Loc_Head" type="JOINT">
                    <matrix sid="transform">3.1391647E-07 0.99814546 0.06087434 26.826326 -1 3.133343E-07 1.9109457E-08 0 0 -0.06087434 0.99814546 3.663813 0 0 0 1</matrix>
                  </node>
                  <node id="Loc_Eye_bone_id" name="Loc_Eye" sid="Loc_Eye" type="JOINT">
                    <matrix sid="transform">3.1391647E-07 0.99814546 0.06087434 9.922894 -1 3.133343E-07 1.9109457E-08 0 0 -0.06087434 0.99814546 19.561277 0 0 0 1</matrix>
                  </node>
                  <node id="Loc_Mouth_bone_id" name="Loc_Mouth" sid="Loc_Mouth" type="JOINT">
                    <matrix sid="transform">3.1391647E-07 0.99814546 0.06087434 4.956695 -1 3.133343E-07 1.9109457E-08 0 0 -0.06087434 0.99814546 30.742014 0 0 0 1</matrix>
                  </node>
                </node>
                <node id="LArm_bone_id" name="LArm" sid="LArm" type="JOINT">
                  <matrix sid="transform">-0.0014286434 0.9828148 -0.18458906 8.743363 -0.991639 -0.025210893 -0.12655647 -13.189372 -0.12903522 0.1828649 0.97463346 0.861638 0 0 0 1</matrix>
                  <node id="LForeArm_bone_id" name="LForeArm" sid="LForeArm" type="JOINT">
                    <matrix sid="transform">0.97925234 0 -0.2026448 11.272853 0 1 0 0 0.2026448 0 0.97925234 0 0 0 0 1</matrix>
                    <node id="LHand_bone_id" name="LHand" sid="LHand" type="JOINT">
                      <matrix sid="transform">0.9977212 0 0.067471705 10.303277 0 1 0 0 -0.067471705 0 0.9977212 0 0 0 0 1</matrix>
                    </node>
                  </node>
                </node>
                <node id="RArm_bone_id" name="RArm" sid="RArm" type="JOINT">
                  <matrix sid="transform">-0.0014286434 -0.9828148 -0.18458906 8.743368 0.991639 -0.025210893 0.12655647 13.1894 -0.12903522 -0.1828649 0.97463346 0.861639 0 0 0 1</matrix>
                  <node id="RForeArm_bone_id" name="RForeArm" sid="RForeArm" type="JOINT">
                    <matrix sid="transform">0.97925234 0 -0.2026448 11.272853 0 1 0 1.5E-05 0.2026448 0 0.97925234 0 0 0 0 1</matrix>
                    <node id="RHand_bone_id" name="RHand" sid="RHand" type="JOINT">
                      <matrix sid="transform">0.9977212 0 0.067471705 10.303289 0 1 0 -2E-06 -0.067471705 0 0.9977212 -1E-06 0 0 0 1</matrix>
                    </node>
                  </node>
                </node>
              </node>
            </node>
            <node id="Hips_bone_id" name="Hips" sid="Hips" type="JOINT">
              <matrix sid="transform">-0.99537545 -3.2584137E-07 -0.09606064 -0.01 3.243345E-07 -1 3.130053E-08 0 -0.09606064 0 0.99537545 0 0 0 0 1</matrix>
              <node id="LThigh_bone_id" name="LThigh" sid="LThigh" type="JOINT">
                <matrix sid="transform">0.7567175 0 -0.653742 7.451733 0 1 0 13.1 0.653742 0 0.7567175 -1.896868 0 0 0 1</matrix>
                <node id="LLeg_bone_id" name="LLeg" sid="LLeg" type="JOINT">
                  <matrix sid="transform">0.23323908 0 0.97241944 9.640689 0 1 0 0 -0.97241944 0 0.23323908 0 0 0 0 1</matrix>
                  <node id="LFoot_bone_id" name="LFoot" sid="LFoot" type="JOINT">
                    <matrix sid="transform">-0.6320291 0 -0.77494466 10.769754 0 1 0 0 0.77494466 0 -0.6320291 0 0 0 0 1</matrix>
                  </node>
                </node>
              </node>
              <node id="RThigh_bone_id" name="RThigh" sid="RThigh" type="JOINT">
                <matrix sid="transform">0.7567175 0 -0.653742 7.451724 0 1 0 -13.1 0.653742 0 0.7567175 -1.896869 0 0 0 1</matrix>
                <node id="RLeg_bone_id" name="RLeg" sid="RLeg" type="JOINT">
                  <matrix sid="transform">0.23323908 0 0.97241944 9.640697 0 1 0 0 -0.97241944 0 0.23323908 -8E-06 0 0 0 1</matrix>
                  <node id="RFoot_bone_id" name="RFoot" sid="RFoot" type="JOINT">
                    <matrix sid="transform">-0.6320291 0 -0.77494466 10.76975 0 1 0 0 0.77494466 0 -0.6320291 -6E-06 0 0 0 1</matrix>
                  </node>
                </node>
              </node>
              <node id="Tail1_bone_id" name="Tail1" sid="Tail1" type="JOINT">
                <matrix sid="transform">0.36392948 0.011214522 0.931359 14.473689 -0.17421088 0.9831013 0.056235492 0.186071 -0.9149896 -0.18271863 0.35973325 -19.565308 0 0 0 1</matrix>
                <node id="Tail3_bone_id" name="Tail3" sid="Tail3" type="JOINT">
                  <matrix sid="transform">-0.98977286 -0.044678546 -0.13547504 13.166308 0.023480574 -0.98775953 0.15420714 16.750237 -0.14070652 0.14944902 0.97870666 -3.056834 0 0 0 1</matrix>
                  <node id="Tail4_bone_id" name="Tail4" sid="Tail4" type="JOINT">
                    <matrix sid="transform">0.9782376 -0.19992638 -0.0555032 50.05475 0.2073711 0.95102626 0.22922969 1E-06 0.006955944 -0.23575085 0.9717886 1E-06 0 0 0 1</matrix>
                  </node>
                </node>
              </node>
            </node>
          </node>
          <node id="CamTgtHead_bone_id" name="CamTgtHead" sid="CamTgtHead" type="JOINT">
            <matrix sid="transform">1 0 0 0 0 1 0 62.270943 0 0 1 18.466307 0 0 0 1</matrix>
          </node>
        </node>
        <node id="pm0225_00_FurSkin_bone_id" name="pm0225_00_FurSkin" sid="pm0225_00_FurSkin" type="JOINT">
          <matrix sid="transform">1 0 0 0 0 1 0 0 0 0 1 0 0 0 0 1</matrix>
        </node>
        <node id="pm0225_00_BodySkin_bone_id" name="pm0225_00_BodySkin" sid="pm0225_00_BodySkin" type="JOINT">
          <matrix sid="transform">1 0 0 0 0 1 0 0 0 0 1 0 0 0 0 1</matrix>
        </node>
        <node id="pm0225_00_TailSkin_bone_id" name="pm0225_00_TailSkin" sid="pm0225_00_TailSkin" type="JOINT">
          <matrix sid="transform">1 0 0 0 0 1 0 0 0 0 1 0 0 0 0 1</matrix>
        </node>
      </node>
    </visual_scene>
  </library_visual_scenes>
  <scene>
    <instance_visual_scene url="#pm0225_00_fi_00_clip_id" />
  </scene>
</COLLADA>