<?xml version="1.0" encoding="utf-8"?>
<COLLADA xmlns:xsi="http://www.w3.org/2001/XMLSchema-instance" xmlns:xsd="http://www.w3.org/2001/XMLSchema" version="1.4.1" xmlns="http://www.collada.org/2005/11/COLLADASchema">
  <asset>
    <created>2026-02-17T05:46:51.5691325-05:00</created>
    <modified>2026-02-17T05:46:51.5691328-05:00</modified>
    <up_axis>Y_UP</up_axis>
  </asset>
  <library_animations>
    <animation id="Motion_9_Waist_transform_id" name="Motion_9_Waist_transform">
      <source id="Motion_9_Waist_transform_frame_id" name="Motion_9_Waist_transform_frame">
        <float_array id="Motion_9_Waist_transform_frame_array_id" count="16">0 0.033333335 0.06666667 0.1 0.13333334 0.16666667 0.2 0.23333333 0.26666668 0.3 0.33333334 0.36666667 0.4 0.43333334 0.46666667 0.5</float_array>
        <technique_common>
          <accessor source="#Motion_9_Waist_transform_frame_array_id" count="16" stride="1">
            <param name="TIME" type="float" />
          </accessor>
        </technique_common>
      </source>
      <source id="Motion_9_Waist_transform_interp_id" name="Motion_9_Waist_transform_interp">
        <Name_array id="Motion_9_Waist_transform_interp_array_id" count="16">LINEAR LINEAR LINEAR LINEAR LINEAR LINEAR LINEAR LINEAR LINEAR LINEAR LINEAR LINEAR LINEAR LINEAR LINEAR LINEAR</Name_array>
        <technique_common>
          <accessor source="#Motion_9_Waist_transform_interp_array_id" count="16" stride="1">
            <param name="INTERPOLATION" type="Name" />
          </accessor>
        </technique_common>
      </source>
      <source id="Motion_9_Waist_transform_pose_id" name="Motion_9_Waist_transform_pose">
        <float_array id="Motion_9_Waist_transform_pose_array_id" count="256">0.011855066 -0.9961353 -0.08702765 -1.3373854 0.99622434 0.019251943 -0.084653914 79.975266 0.08600221 -0.08569549 0.9926026 0.6278201 0 0 0 1 0.011359692 -0.9961216 -0.087249674 -1.3312082 0.99622566 0.01878351 -0.0847437 79.96064 0.086053886 -0.08595771 0.99257547 0.63009405 0 0 0 1 0.010601103 -0.9961052 -0.08753228 -1.3160664 0.99619293 0.018095613 -0.085275695 79.9418 0.08652751 -0.08629504 0.992505 0.6335785 0 0 0 1 0.0095463395 -0.99608576 -0.08787506 -1.2902172 0.9961233 0.01715821 -0.086278796 79.92206 0.08744886 -0.08671075 0.992388 0.638101 0 0 0 1 0.008162081 -0.9960626 -0.08827708 -1.2519183 0.9960123 0.015941441 -0.08778182 79.904724 0.08884344 -0.087208554 0.9922205 0.64348936 0 0 0 1 0.006426692 -0.99603564 -0.08872293 -1.1994276 0.9958685 0.014411807 -0.08965626 79.89309 0.090579495 -0.08778018 0.9920131 0.64957124 0 0 0 1 0.004412651 -0.9960048 -0.08918892 -1.1359997 0.9957061 0.012623131 -0.09170429 79.890495 0.09246376 -0.088401325 0.9917841 0.6561745 0 0 0 1 0.0022537112 -0.99596953 -0.0896631 -1.0684575 0.9955288 0.010701656 -0.09384971 79.900246 0.094431 -0.0890507 0.9915406 0.6631268 0 0 0 1 3.0040741E-05 -0.9959299 -0.09013114 -1.0004103 0.99534136 0.008719623 -0.0960182 79.92564 0.09641331 -0.08970838 0.9912905 0.670256 0 0 0 1 -0.0021771193 -0.99588704 -0.09057948 -0.93546724 0.9951503 0.006750226 -0.09813545 79.96493 0.09834325 -0.090353824 0.99104226 0.67738974 0 0 0 1 -0.0042868853 -0.99584216 -0.090995125 -0.87723774 0.99496275 0.004866004 -0.100127235 80.010796 0.10015371 -0.090965986 0.9908049 0.6843557 0 0 0 1 -0.006217599 -0.99579805 -0.09136595 -0.8293311 0.99478775 0.0031399727 -0.10191948 80.05815 0.101778105 -0.0915234 0.99058807 0.6909817 0 0 0 1 -0.007888317 -0.9957573 -0.09168015 -0.7953564 0.99463457 0.0016441345 -0.10343815 80.10193 0.10315003 -0.09200419 0.99040157 0.69709545 0 0 0 1 -0.009217143 -0.9957231 -0.09192638 -0.7762068 0.9945133 0.000451684 -0.10460925 80.13706 0.10420337 -0.092386216 0.9902558 0.7025248 0 0 0 1 -0.010122538 -0.99569887 -0.092093356 -0.7672535 0.9944342 -0.00036489964 -0.1053588 80.158455 0.104872026 -0.09264729 0.99016076 0.7070973 0 0 0 1 -0.010122538 -0.99569887 -0.092093356 -0.7672535 0.9944342 -0.00036489964 -0.1053588 80.158455 0.104872026 -0.09264729 0.99016076 0.7070973 0 0 0 1</float_array>
        <technique_common>
          <accessor source="#Motion_9_Waist_transform_pose_array_id" count="16" stride="16">
            <param name="TRANSFORM" type="float4x4" />
          </accessor>
        </technique_common>
      </source>
      <sampler id="Motion_9_Waist_transform_samp_id">
        <input semantic="INPUT" source="#Motion_9_Waist_transform_frame_id" />
        <input semantic="INTERPOLATION" source="#Motion_9_Waist_transform_interp_id" />
        <input semantic="OUTPUT" source="#Motion_9_Waist_transform_pose_id" />
      </sampler>
      <channel source="#Motion_9_Waist_transform_samp_id" target="Waist_bone_id/transform" />
    </animation>
    <animation id="Motion_9_RThigh_transform_id" name="Motion_9_RThigh_transform">
      <source id="Motion_9_RThigh_transform_frame_id" name="Motion_9_RThigh_transform_frame">
        <float_array id="Motion_9_RThigh_transform_frame_array_id" count="16">0 0.033333335 0.06666667 0.1 0.13333334 0.16666667 0.2 0.23333333 0.26666668 0.3 0.33333334 0.36666667 0.4 0.43333334 0.46666667 0.5</float_array>
        <technique_common>
          <accessor source="#Motion_9_RThigh_transform_frame_array_id" count="16" stride="1">
            <param name="TIME" type="float" />
          </accessor>
        </technique_common>
      </source>
      <source id="Motion_9_RThigh_transform_interp_id" name="Motion_9_RThigh_transform_interp">
        <Name_array id="Motion_9_RThigh_transform_interp_array_id" count="16">LINEAR LINEAR LINEAR LINEAR LINEAR LINEAR LINEAR LINEAR LINEAR LINEAR LINEAR LINEAR LINEAR LINEAR LINEAR LINEAR</Name_array>
        <technique_common>
          <accessor source="#Motion_9_RThigh_transform_interp_array_id" count="16" stride="1">
            <param name="INTERPOLATION" type="Name" />
          </accessor>
        </technique_common>
      </source>
      <source id="Motion_9_RThigh_transform_pose_id" name="Motion_9_RThigh_transform_pose">
        <float_array id="Motion_9_RThigh_transform_pose_array_id" count="256">0.98845136 0.022314131 -0.14988653 6.260002 0.022891149 0.95576257 0.29324716 -7.1 0.14979948 -0.29329163 0.94421405 0 0 0 0 1 0.9882759 0.022814646 -0.15096442 6.260002 0.022886842 0.955463 0.2942221 -7.1 0.15095349 -0.2942277 0.9437389 0 0 0 0 1 0.98785794 0.024123056 -0.15347551 6.260002 0.022687593 0.954882 0.29611757 -7.1 0.15369426 -0.2960041 0.9427405 0 0 0 0 1 0.9871574 0.026256863 -0.15757816 6.260002 0.022328846 0.954039 0.29884955 -7.1 0.15818255 -0.29853007 0.9412003 0 0 0 0 1 0.9863384 0.029038155 -0.16215228 6.260002 0.021651251 0.9529498 0.30235383 -7.1 0.1633028 -0.301734 0.93930227 0 0 0 0 1 0.98553073 0.032330878 -0.16638488 6.260002 0.020537402 0.95162916 0.3065618 -7.1 0.16824812 -0.30554315 0.9371958 0 0 0 0 1 0.98487854 0.035991732 -0.16946644 6.260002 0.01886214 0.95009077 0.31140283 -7.1 0.17221642 -0.30989048 0.9350451 0 0 0 0 1 0.98453504 0.039868116 -0.17059095 6.260002 0.016489923 0.9483479 0.3168032 -7.1 0.17440991 -0.31471685 0.9330244 0 0 0 0 1 0.9845695 0.043871548 -0.16940534 6.260002 0.013348567 0.9464149 0.3226774 -7.1 0.1744841 -0.31995967 0.9312256 0 0 0 0 1 0.98487556 0.047865897 -0.16652021 6.260002 0.0096991975 0.94434446 0.32881528 -7.1 0.17299148 -0.32545727 0.9295975 0 0 0 0 1 0.9853447 0.051582962 -0.1625886 6.260002 0.005926555 0.94225067 0.3348561 -7.1 0.17047209 -0.33091223 0.928136 0 0 0 0 1 0.9858727 0.054892026 -0.15824622 6.260002 0.0022998843 0.94024915 0.3404794 -7.1 0.16748047 -0.3360333 0.9268397 0 0 0 0 1 0.98636556 0.057672434 -0.15413254 6.260002 -0.0009025093 0.93846476 0.34537378 -7.1 0.16456652 -0.34052572 0.9257214 0 0 0 0 1 0.98673946 0.059812088 -0.1508899 6.260002 -0.0033946522 0.93702906 0.34923494 -7.1 0.16227669 -0.34409165 0.9248066 0 0 0 0 1 0.98691696 0.061211117 -0.14915815 6.260002 -0.00487802 0.93604195 0.35185453 -7.1 0.1611557 -0.3465236 0.92409426 0 0 0 0 1 0.98691696 0.061211117 -0.14915815 6.260002 -0.00487802 0.93604195 0.35185453 -7.1 0.1611557 -0.3465236 0.92409426 0 0 0 0 1</float_array>
        <technique_common>
          <accessor source="#Motion_9_RThigh_transform_pose_array_id" count="16" stride="16">
            <param name="TRANSFORM" type="float4x4" />
          </accessor>
        </technique_common>
      </source>
      <sampler id="Motion_9_RThigh_transform_samp_id">
        <input semantic="INPUT" source="#Motion_9_RThigh_transform_frame_id" />
        <input semantic="INTERPOLATION" source="#Motion_9_RThigh_transform_interp_id" />
        <input semantic="OUTPUT" source="#Motion_9_RThigh_transform_pose_id" />
      </sampler>
      <channel source="#Motion_9_RThigh_transform_samp_id" target="RThigh_bone_id/transform" />
    </animation>
    <animation id="Motion_9_RLeg_transform_id" name="Motion_9_RLeg_transform">
      <source id="Motion_9_RLeg_transform_frame_id" name="Motion_9_RLeg_transform_frame">
        <float_array id="Motion_9_RLeg_transform_frame_array_id" count="16">0 0.033333335 0.06666667 0.1 0.13333334 0.16666667 0.2 0.23333333 0.26666668 0.3 0.33333334 0.36666667 0.4 0.43333334 0.46666667 0.5</float_array>
        <technique_common>
          <accessor source="#Motion_9_RLeg_transform_frame_array_id" count="16" stride="1">
            <param name="TIME" type="float" />
          </accessor>
        </technique_common>
      </source>
      <source id="Motion_9_RLeg_transform_interp_id" name="Motion_9_RLeg_transform_interp">
        <Name_array id="Motion_9_RLeg_transform_interp_array_id" count="16">LINEAR LINEAR LINEAR LINEAR LINEAR LINEAR LINEAR LINEAR LINEAR LINEAR LINEAR LINEAR LINEAR LINEAR LINEAR LINEAR</Name_array>
        <technique_common>
          <accessor source="#Motion_9_RLeg_transform_interp_array_id" count="16" stride="1">
            <param name="INTERPOLATION" type="Name" />
          </accessor>
        </technique_common>
      </source>
      <source id="Motion_9_RLeg_transform_pose_id" name="Motion_9_RLeg_transform_pose">
        <float_array id="Motion_9_RLeg_transform_pose_array_id" count="256">0.97360927 0 0.2282214 32.800003 0 1 0 0 -0.2282214 0 0.97360927 0 0 0 0 1 0.97296065 0 0.23097081 32.800003 0 1 0 0 -0.23097081 0 0.97296065 0 0 0 0 1 0.97183233 0 0.23567332 32.800003 0 1 0 0 -0.23567332 0 0.97183233 0 0 0 0 1 0.97017133 0 0.2424203 32.800003 0 1 0 0 -0.2424203 0 0.97017133 0 0 0 0 1 0.96837217 0 0.2495102 32.800003 0 1 0 0 -0.2495102 0 0.96837217 0 0 0 0 1 0.96678835 0 0.2555783 32.800003 0 1 0 0 -0.2555783 0 0.96678835 0 0 0 0 1 0.9658053 0 0.25926846 32.800003 0 1 0 0 -0.25926846 0 0.9658053 0 0 0 0 1 0.96581644 0 0.25922686 32.800003 0 1 0 0 -0.25922686 0 0.96581644 0 0 0 0 1 0.96702045 0 0.25469866 32.800003 0 1 0 0 -0.25469866 0 0.96702045 0 0 0 0 1 0.96906507 0 0.24680533 32.800003 0 1 0 0 -0.24680533 0 0.96906507 0 0 0 0 1 0.9715081 0 0.23700632 32.800003 0 1 0 0 -0.23700632 0 0.9715081 0 0 0 0 1 0.9739479 0 0.22677201 32.800003 0 1 0 0 -0.22677201 0 0.9739479 0 0 0 0 1 0.97604084 0 0.2175873 32.800003 0 1 0 0 -0.2175873 0 0.97604084 0 0 0 0 1 0.9774971 0 0.21094897 32.800003 0 1 0 0 -0.21094897 0 0.9774971 0 0 0 0 1 0.97811365 0 0.20807128 32.800003 0 1 0 0 -0.20807128 0 0.97811365 0 0 0 0 1 0.97811365 0 0.20807128 32.800003 0 1 0 0 -0.20807128 0 0.97811365 0 0 0 0 1</float_array>
        <technique_common>
          <accessor source="#Motion_9_RLeg_transform_pose_array_id" count="16" stride="16">
            <param name="TRANSFORM" type="float4x4" />
          </accessor>
        </technique_common>
      </source>
      <sampler id="Motion_9_RLeg_transform_samp_id">
        <input semantic="INPUT" source="#Motion_9_RLeg_transform_frame_id" />
        <input semantic="INTERPOLATION" source="#Motion_9_RLeg_transform_interp_id" />
        <input semantic="OUTPUT" source="#Motion_9_RLeg_transform_pose_id" />
      </sampler>
      <channel source="#Motion_9_RLeg_transform_samp_id" target="RLeg_bone_id/transform" />
    </animation>
    <animation id="Motion_9_RFoot_transform_id" name="Motion_9_RFoot_transform">
      <source id="Motion_9_RFoot_transform_frame_id" name="Motion_9_RFoot_transform_frame">
        <float_array id="Motion_9_RFoot_transform_frame_array_id" count="16">0 0.033333335 0.06666667 0.1 0.13333334 0.16666667 0.2 0.23333333 0.26666668 0.3 0.33333334 0.36666667 0.4 0.43333334 0.46666667 0.5</float_array>
        <technique_common>
          <accessor source="#Motion_9_RFoot_transform_frame_array_id" count="16" stride="1">
            <param name="TIME" type="float" />
          </accessor>
        </technique_common>
      </source>
      <source id="Motion_9_RFoot_transform_interp_id" name="Motion_9_RFoot_transform_interp">
        <Name_array id="Motion_9_RFoot_transform_interp_array_id" count="16">LINEAR LINEAR LINEAR LINEAR LINEAR LINEAR LINEAR LINEAR LINEAR LINEAR LINEAR LINEAR LINEAR LINEAR LINEAR LINEAR</Name_array>
        <technique_common>
          <accessor source="#Motion_9_RFoot_transform_interp_array_id" count="16" stride="1">
            <param name="INTERPOLATION" type="Name" />
          </accessor>
        </technique_common>
      </source>
      <source id="Motion_9_RFoot_transform_pose_id" name="Motion_9_RFoot_transform_pose">
        <float_array id="Motion_9_RFoot_transform_pose_array_id" count="256">-0.16244602 -0.041503172 -0.98584414 32.8 -0.12502031 0.9919285 -0.021158628 0 0.97876513 0.119813405 -0.16632366 0 0 0 0 1 -0.16421545 -0.04193221 -0.98553294 32.8 -0.12584233 0.991823 -0.021231245 0 0.9783645 0.120535254 -0.16814947 0 0 0 0 1 -0.1669203 -0.0428521 -0.98503864 32.8 -0.12754841 0.9915988 -0.021523684 0 0.97768545 0.122047395 -0.17098367 0 0 0 0 1 -0.17006588 -0.044160217 -0.9844426 32.8 -0.1300454 0.9912639 -0.022000387 0 0.97681403 0.12428072 -0.17432296 0 0 0 0 1 -0.17315865 -0.04575297 -0.9838306 32.8 -0.13324001 0.9908255 -0.022627398 0 0.9758396 0.12716748 -0.17766619 0 0 0 0 1 -0.17570543 -0.047524154 -0.983295 32.8 -0.13703905 0.9902898 -0.023374647 0 0.97485787 0.13064276 -0.18051207 0 0 0 0 1 -0.17721546 -0.049363725 -0.9829334 32.8 -0.14134961 0.9896635 -0.024217471 0 0.97396874 0.13464555 -0.18236113 0 0 0 0 1 -0.17719877 -0.051156756 -0.9828446 32.8 -0.14607954 0.9889534 -0.02513777 0 0.9732735 0.13911912 -0.18271422 0 0 0 0 1 -0.17516613 -0.052782465 -0.983123 32.8 -0.15113768 0.98816746 -0.026124615 0 0.9728691 0.14401078 -0.18107092 0 0 0 0 1 -0.17128456 -0.054158036 -0.9837319 32.8 -0.15642712 0.98731714 -0.02711878 0 0.97272414 0.1492373 -0.17758393 0 0 0 0 1 -0.16648889 -0.05519552 -0.9844973 32.8 -0.16178533 0.9864302 -0.027944282 0 0.97268033 0.15462482 -0.17315948 0 0 0 0 1 -0.16144764 -0.055714495 -0.9853074 32.8 -0.16705865 0.98553914 -0.028354198 0 0.9726388 0.1600264 -0.16842055 0 0 0 0 1 -0.15679884 -0.055878963 -0.9860486 32.8 -0.17183852 0.98471344 -0.028477997 0 0.9725666 0.1649758 -0.16400409 0 0 0 0 1 -0.15315735 -0.05605588 -0.9866106 32.8 -0.17552209 0.98405814 -0.028663523 0 0.97248894 0.1687819 -0.16055477 0 0 0 0 1 -0.15116525 -0.056058325 -0.9869177 32.8 -0.17694926 0.98379916 -0.028778031 0 0.972542 0.17028412 -0.15863574 0 0 0 0 1 -0.15116525 -0.056058325 -0.9869177 32.8 -0.17694926 0.98379916 -0.028778031 0 0.972542 0.17028412 -0.15863574 0 0 0 0 1</float_array>
        <technique_common>
          <accessor source="#Motion_9_RFoot_transform_pose_array_id" count="16" stride="16">
            <param name="TRANSFORM" type="float4x4" />
          </accessor>
        </technique_common>
      </source>
      <sampler id="Motion_9_RFoot_transform_samp_id">
        <input semantic="INPUT" source="#Motion_9_RFoot_transform_frame_id" />
        <input semantic="INTERPOLATION" source="#Motion_9_RFoot_transform_interp_id" />
        <input semantic="OUTPUT" source="#Motion_9_RFoot_transform_pose_id" />
      </sampler>
      <channel source="#Motion_9_RFoot_transform_samp_id" target="RFoot_bone_id/transform" />
    </animation>
    <animation id="Motion_9_LThigh_transform_id" name="Motion_9_LThigh_transform">
      <source id="Motion_9_LThigh_transform_frame_id" name="Motion_9_LThigh_transform_frame">
        <float_array id="Motion_9_LThigh_transform_frame_array_id" count="16">0 0.033333335 0.06666667 0.1 0.13333334 0.16666667 0.2 0.23333333 0.26666668 0.3 0.33333334 0.36666667 0.4 0.43333334 0.46666667 0.5</float_array>
        <technique_common>
          <accessor source="#Motion_9_LThigh_transform_frame_array_id" count="16" stride="1">
            <param name="TIME" type="float" />
          </accessor>
        </technique_common>
      </source>
      <source id="Motion_9_LThigh_transform_interp_id" name="Motion_9_LThigh_transform_interp">
        <Name_array id="Motion_9_LThigh_transform_interp_array_id" count="16">LINEAR LINEAR LINEAR LINEAR LINEAR LINEAR LINEAR LINEAR LINEAR LINEAR LINEAR LINEAR LINEAR LINEAR LINEAR LINEAR</Name_array>
        <technique_common>
          <accessor source="#Motion_9_LThigh_transform_interp_array_id" count="16" stride="1">
            <param name="INTERPOLATION" type="Name" />
          </accessor>
        </technique_common>
      </source>
      <source id="Motion_9_LThigh_transform_pose_id" name="Motion_9_LThigh_transform_pose">
        <float_array id="Motion_9_LThigh_transform_pose_array_id" count="256">0.9806444 -0.06484698 -0.1847468 6.260002 0.03936323 0.9895925 -0.13840969 7.1 0.19179949 0.12845846 0.97299093 0 0 0 0 1 0.98052067 -0.06421238 -0.1856232 6.260002 0.038731363 0.9897058 -0.13777626 7.1 0.1925593 0.12790301 0.97291404 0 0 0 0 1 0.98021704 -0.06312634 -0.18758895 6.260002 0.037572604 0.9898884 -0.13678168 7.1 0.19432665 0.12702753 0.9726773 0 0 0 0 1 0.97978276 -0.061624482 -0.19033703 6.260002 0.03595818 0.9901287 -0.13547006 7.1 0.19680643 0.12588707 0.97232693 0 0 0 0 1 0.9792677 -0.059742633 -0.19356036 6.260002 0.033959094 0.9904148 -0.13388558 7.1 0.19970372 0.12453668 0.97191 0 0 0 0 1 0.9788019 -0.057493843 -0.19657381 6.260002 0.03167142 0.9907346 -0.13206792 7.1 0.20234556 0.12304255 0.9715538 0 0 0 0 1 0.97854453 -0.05488709 -0.1985901 6.260002 0.029195268 0.99107635 -0.13005897 7.1 0.20395651 0.1214706 0.97141474 0 0 0 0 1 0.97859097 -0.051953964 -0.19914946 6.260002 0.026605235 0.991429 -0.12790906 7.1 0.20408794 0.119872235 0.9715857 0 0 0 0 1 0.97902477 -0.04893115 -0.19777827 6.260002 0.024176665 0.9917747 -0.12569189 7.1 0.20230173 0.118273854 0.972155 0 0 0 0 1 0.97981226 -0.046062164 -0.194541 6.260002 0.02212198 0.9920998 -0.1234849 7.1 0.19869208 0.11668839 0.9730906 0 0 0 0 1 0.98077714 -0.04341566 -0.19023988 6.260002 0.020392567 0.9924006 -0.12134763 7.1 0.19406256 0.1151355 0.9742092 0 0 0 0 1 0.98178595 -0.0410474 -0.18550329 6.260002 0.018954974 0.99267316 -0.1193344 7.1 0.1890425 0.11364463 0.9753706 0 0 0 0 1 0.982716 -0.039010845 -0.18096235 6.260002 0.017779114 0.992914 -0.11749736 7.1 0.18426374 0.11224919 0.9764461 0 0 0 0 1 0.9834565 -0.037364975 -0.17724903 6.260002 0.016829945 0.9931098 -0.11597245 7.1 0.18036105 0.111070774 0.97730917 0 0 0 0 1 0.98390436 -0.0361348 -0.17500429 6.260002 0.016107505 0.99328864 -0.11453461 7.1 0.17796846 0.109872214 0.9778831 0 0 0 0 1 0.98390436 -0.0361348 -0.17500429 6.260002 0.016107505 0.99328864 -0.11453461 7.1 0.17796846 0.109872214 0.9778831 0 0 0 0 1</float_array>
        <technique_common>
          <accessor source="#Motion_9_LThigh_transform_pose_array_id" count="16" stride="16">
            <param name="TRANSFORM" type="float4x4" />
          </accessor>
        </technique_common>
      </source>
      <sampler id="Motion_9_LThigh_transform_samp_id">
        <input semantic="INPUT" source="#Motion_9_LThigh_transform_frame_id" />
        <input semantic="INTERPOLATION" source="#Motion_9_LThigh_transform_interp_id" />
        <input semantic="OUTPUT" source="#Motion_9_LThigh_transform_pose_id" />
      </sampler>
      <channel source="#Motion_9_LThigh_transform_samp_id" target="LThigh_bone_id/transform" />
    </animation>
    <animation id="Motion_9_LLeg_transform_id" name="Motion_9_LLeg_transform">
      <source id="Motion_9_LLeg_transform_frame_id" name="Motion_9_LLeg_transform_frame">
        <float_array id="Motion_9_LLeg_transform_frame_array_id" count="16">0 0.033333335 0.06666667 0.1 0.13333334 0.16666667 0.2 0.23333333 0.26666668 0.3 0.33333334 0.36666667 0.4 0.43333334 0.46666667 0.5</float_array>
        <technique_common>
          <accessor source="#Motion_9_LLeg_transform_frame_array_id" count="16" stride="1">
            <param name="TIME" type="float" />
          </accessor>
        </technique_common>
      </source>
      <source id="Motion_9_LLeg_transform_interp_id" name="Motion_9_LLeg_transform_interp">
        <Name_array id="Motion_9_LLeg_transform_interp_array_id" count="16">LINEAR LINEAR LINEAR LINEAR LINEAR LINEAR LINEAR LINEAR LINEAR LINEAR LINEAR LINEAR LINEAR LINEAR LINEAR LINEAR</Name_array>
        <technique_common>
          <accessor source="#Motion_9_LLeg_transform_interp_array_id" count="16" stride="1">
            <param name="INTERPOLATION" type="Name" />
          </accessor>
        </technique_common>
      </source>
      <source id="Motion_9_LLeg_transform_pose_id" name="Motion_9_LLeg_transform_pose">
        <float_array id="Motion_9_LLeg_transform_pose_array_id" count="256">0.9566886 0 0.29111326 32.800003 0 1 0 0 -0.29111326 0 0.9566886 0 0 0 0 1 0.9561848 0 0.29276377 32.800003 0 1 0 0 -0.29276377 0 0.9561848 0 0 0 0 1 0.9554126 0 0.29527402 32.800003 0 1 0 0 -0.29527402 0 0.9554126 0 0 0 0 1 0.95455104 0 0.29804748 32.800003 0 1 0 0 -0.29804748 0 0.95455104 0 0 0 0 1 0.9537851 0 0.30048952 32.800003 0 1 0 0 -0.30048952 0 0.9537851 0 0 0 0 1 0.9533642 0 0.30182233 32.800003 0 1 0 0 -0.30182233 0 0.9533642 0 0 0 0 1 0.95365816 0 0.30089208 32.800003 0 1 0 0 -0.30089208 0 0.95365816 0 0 0 0 1 0.9550214 0 0.29653695 32.800003 0 1 0 0 -0.29653695 0 0.9550214 0 0 0 0 1 0.9576292 0 0.28800398 32.800003 0 1 0 0 -0.28800398 0 0.9576292 0 0 0 0 1 0.96107966 0 0.2762714 32.800003 0 1 0 0 -0.2762714 0 0.96107966 0 0 0 0 1 0.96485734 0 0.26277423 32.800003 0 1 0 0 -0.26277423 0 0.96485734 0 0 0 0 1 0.9685118 0 0.24896769 32.800003 0 1 0 0 -0.24896769 0 0.9685118 0 0 0 0 1 0.971673 0 0.23632924 32.800003 0 1 0 0 -0.23632924 0 0.971673 0 0 0 0 1 0.9739307 0 0.2268456 32.800003 0 1 0 0 -0.2268456 0 0.9739307 0 0 0 0 1 0.9752284 0 0.22120005 32.800003 0 1 0 0 -0.22120005 0 0.9752284 0 0 0 0 1 0.9752284 0 0.22120005 32.800003 0 1 0 0 -0.22120005 0 0.9752284 0 0 0 0 1</float_array>
        <technique_common>
          <accessor source="#Motion_9_LLeg_transform_pose_array_id" count="16" stride="16">
            <param name="TRANSFORM" type="float4x4" />
          </accessor>
        </technique_common>
      </source>
      <sampler id="Motion_9_LLeg_transform_samp_id">
        <input semantic="INPUT" source="#Motion_9_LLeg_transform_frame_id" />
        <input semantic="INTERPOLATION" source="#Motion_9_LLeg_transform_interp_id" />
        <input semantic="OUTPUT" source="#Motion_9_LLeg_transform_pose_id" />
      </sampler>
      <channel source="#Motion_9_LLeg_transform_samp_id" target="LLeg_bone_id/transform" />
    </animation>
    <animation id="Motion_9_LFoot_transform_id" name="Motion_9_LFoot_transform">
      <source id="Motion_9_LFoot_transform_frame_id" name="Motion_9_LFoot_transform_frame">
        <float_array id="Motion_9_LFoot_transform_frame_array_id" count="16">0 0.033333335 0.06666667 0.1 0.13333334 0.16666667 0.2 0.23333333 0.26666668 0.3 0.33333334 0.36666667 0.4 0.43333334 0.46666667 0.5</float_array>
        <technique_common>
          <accessor source="#Motion_9_LFoot_transform_frame_array_id" count="16" stride="1">
            <param name="TIME" type="float" />
          </accessor>
        </technique_common>
      </source>
      <source id="Motion_9_LFoot_transform_interp_id" name="Motion_9_LFoot_transform_interp">
        <Name_array id="Motion_9_LFoot_transform_interp_array_id" count="16">LINEAR LINEAR LINEAR LINEAR LINEAR LINEAR LINEAR LINEAR LINEAR LINEAR LINEAR LINEAR LINEAR LINEAR LINEAR LINEAR</Name_array>
        <technique_common>
          <accessor source="#Motion_9_LFoot_transform_interp_array_id" count="16" stride="1">
            <param name="INTERPOLATION" type="Name" />
          </accessor>
        </technique_common>
      </source>
      <source id="Motion_9_LFoot_transform_pose_id" name="Motion_9_LFoot_transform_pose">
        <float_array id="Motion_9_LFoot_transform_pose_array_id" count="256">-0.18513381 0.043314345 -0.9817585 32.8 0.07845179 0.9964911 0.029170405 0 0.97957706 -0.07162027 -0.1878823 0 0 0 0 1 -0.18614507 0.043188505 -0.9815727 32.8 0.07823338 0.9965129 0.029009724 0 0.9794027 -0.07139173 -0.18887472 0 0 0 0 1 -0.18754733 0.042733617 -0.9813256 32.8 0.077752836 0.99656415 0.028537368 0 0.9791734 -0.070948735 -0.1902256 0 0 0 0 1 -0.1889602 0.041990116 -0.98108673 32.8 0.07704721 0.9966394 0.027816264 0 0.97895765 -0.070333816 -0.19156039 0 0 0 0 1 -0.19000244 0.040998757 -0.9809271 32.8 0.07615391 0.9967329 0.026908595 0 0.97882557 -0.069588736 -0.19250393 0 0 0 0 1 -0.19029522 0.039800756 -0.98091984 32.8 0.07511114 0.9968394 0.025875382 0 0.9788494 -0.06875405 -0.19268334 0 0 0 0 1 -0.18945742 0.03843773 -0.9811364 32.8 0.07395776 0.99695355 0.024776155 0 0.9790997 -0.06786862 -0.19172299 0 0 0 0 1 -0.1871078 0.03695175 -0.98164403 32.8 0.07273342 0.99707055 0.023668965 0 0.979643 -0.06696968 -0.18924737 0 0 0 0 1 -0.18286395 0.03538517 -0.98250115 32.8 0.07147815 0.9971859 0.022610461 0 0.98053634 -0.06609273 -0.18487859 0 0 0 0 1 -0.17686522 0.033795174 -0.9836547 32.8 0.07023221 0.99729604 0.021635802 0 0.9817261 -0.06525763 -0.17876053 0 0 0 0 1 -0.16998374 0.032258935 -0.9849187 32.8 0.06903486 0.9973984 0.020753188 0 0.9830258 -0.064466015 -0.17176855 0 0 0 0 1 -0.16293836 0.030838106 -0.9861542 32.8 0.067934364 0.9974899 0.019968057 0 0.98429465 -0.0637402 -0.16462433 0 0 0 0 1 -0.15644872 0.029644161 -0.9872412 32.8 0.066927664 0.9975702 0.019348253 0 0.985416 -0.06304674 -0.15805256 0 0 0 0 1 -0.15123641 0.028824566 -0.9880772 32.8 0.06597426 0.9976403 0.019005436 0 0.9862935 -0.06231335 -0.15278125 0 0 0 0 1 -0.14802897 0.028360173 -0.98857623 32.8 0.06486663 0.99771476 0.018909229 0 0.9868534 -0.061326496 -0.14953029 0 0 0 0 1 -0.14802897 0.028360173 -0.98857623 32.8 0.06486663 0.99771476 0.018909229 0 0.9868534 -0.061326496 -0.14953029 0 0 0 0 1</float_array>
        <technique_common>
          <accessor source="#Motion_9_LFoot_transform_pose_array_id" count="16" stride="16">
            <param name="TRANSFORM" type="float4x4" />
          </accessor>
        </technique_common>
      </source>
      <sampler id="Motion_9_LFoot_transform_samp_id">
        <input semantic="INPUT" source="#Motion_9_LFoot_transform_frame_id" />
        <input semantic="INTERPOLATION" source="#Motion_9_LFoot_transform_interp_id" />
        <input semantic="OUTPUT" source="#Motion_9_LFoot_transform_pose_id" />
      </sampler>
      <channel source="#Motion_9_LFoot_transform_samp_id" target="LFoot_bone_id/transform" />
    </animation>
    <animation id="Motion_9_Spine2_transform_id" name="Motion_9_Spine2_transform">
      <source id="Motion_9_Spine2_transform_frame_id" name="Motion_9_Spine2_transform_frame">
        <float_array id="Motion_9_Spine2_transform_frame_array_id" count="16">0 0.033333335 0.06666667 0.1 0.13333334 0.16666667 0.2 0.23333333 0.26666668 0.3 0.33333334 0.36666667 0.4 0.43333334 0.46666667 0.5</float_array>
        <technique_common>
          <accessor source="#Motion_9_Spine2_transform_frame_array_id" count="16" stride="1">
            <param name="TIME" type="float" />
          </accessor>
        </technique_common>
      </source>
      <source id="Motion_9_Spine2_transform_interp_id" name="Motion_9_Spine2_transform_interp">
        <Name_array id="Motion_9_Spine2_transform_interp_array_id" count="16">LINEAR LINEAR LINEAR LINEAR LINEAR LINEAR LINEAR LINEAR LINEAR LINEAR LINEAR LINEAR LINEAR LINEAR LINEAR LINEAR</Name_array>
        <technique_common>
          <accessor source="#Motion_9_Spine2_transform_interp_array_id" count="16" stride="1">
            <param name="INTERPOLATION" type="Name" />
          </accessor>
        </technique_common>
      </source>
      <source id="Motion_9_Spine2_transform_pose_id" name="Motion_9_Spine2_transform_pose">
        <float_array id="Motion_9_Spine2_transform_pose_array_id" count="256">0.99797475 0.003133705 0.06353407 12.800003 0.0013911827 0.99747175 -0.07105081 0 -0.06359609 0.0709953 0.9954472 0 0 0 0 1 0.9975169 0.003386905 0.0703466 12.800003 0.0015968326 0.9974986 -0.070668675 0 -0.070409976 0.070605524 0.9950162 0 0 0 0 1 0.9969943 0.0038561635 0.077378325 12.800003 0.0015936551 0.99752843 -0.07024574 0 -0.07745796 0.070157915 0.99452406 0 0 0 0 1 0.9964058 0.004523672 0.08458786 12.800003 0.0013957989 0.9975607 -0.069790386 0 -0.08469723 0.06965762 0.9939689 0 0 0 0 1 0.9957506 0.0053717196 0.09193385 12.800003 0.0010175402 0.9975946 -0.069310874 0 -0.09208503 0.06910989 0.99334997 0 0 0 0 1 0.99502957 0.0063827056 0.09937496 12.800003 0.00047328556 0.9976293 -0.0688152 0 -0.0995786 0.06852019 0.9926677 0 0 0 0 1 0.9942444 0.007539165 0.10686995 12.800003 -0.0002224117 0.99766403 -0.068311274 0 -0.10713531 0.06789434 0.9919236 0 0 0 0 1 0.99339813 0.008823772 0.11437761 12.800003 -0.0010548579 0.99769795 -0.06780667 0 -0.11471262 0.06723837 0.9911206 0 0 0 0 1 0.9925135 0.010214346 0.12170714 12.800003 -0.0020143017 0.9977302 -0.06730863 0 -0.1221184 0.06655956 0.9902812 0 0 0 0 1 0.99162966 0.011610515 0.1285915 12.800003 -0.00301744 0.99776053 -0.06681881 0 -0.12907933 0.0658715 0.989444 0 0 0 0 1 0.99077857 0.012911055 0.13487448 12.800003 -0.0039719995 0.9977894 -0.0663368 0 -0.1354328 0.06518937 0.9886396 0 0 0 0 1 0.98999494 0.014088566 0.14039789 12.800003 -0.004858979 0.9978166 -0.065865956 0 -0.1410193 0.06452478 0.98790187 0 0 0 0 1 0.9893156 0.015115947 0.14500391 12.800003 -0.005659216 0.9978425 -0.06540915 0 -0.1456798 0.06388968 0.98726666 0 0 0 0 1 0.98877823 0.01597016 0.14853457 12.800003 -0.0063495534 0.99786377 -0.06502018 0 -0.14925563 0.06334741 0.98676735 0 0 0 0 1 0.9884196 0.016626716 0.1508319 12.800003 -0.006908329 0.997879 -0.064728506 0 -0.15158819 0.062936924 0.98643804 0 0 0 0 1 0.9884196 0.016626716 0.1508319 12.800003 -0.006908329 0.997879 -0.064728506 0 -0.15158819 0.062936924 0.98643804 0 0 0 0 1</float_array>
        <technique_common>
          <accessor source="#Motion_9_Spine2_transform_pose_array_id" count="16" stride="16">
            <param name="TRANSFORM" type="float4x4" />
          </accessor>
        </technique_common>
      </source>
      <sampler id="Motion_9_Spine2_transform_samp_id">
        <input semantic="INPUT" source="#Motion_9_Spine2_transform_frame_id" />
        <input semantic="INTERPOLATION" source="#Motion_9_Spine2_transform_interp_id" />
        <input semantic="OUTPUT" source="#Motion_9_Spine2_transform_pose_id" />
      </sampler>
      <channel source="#Motion_9_Spine2_transform_samp_id" target="Spine2_bone_id/transform" />
    </animation>
    <animation id="Motion_9_Spine3_transform_id" name="Motion_9_Spine3_transform">
      <source id="Motion_9_Spine3_transform_frame_id" name="Motion_9_Spine3_transform_frame">
        <float_array id="Motion_9_Spine3_transform_frame_array_id" count="16">0 0.033333335 0.06666667 0.1 0.13333334 0.16666667 0.2 0.23333333 0.26666668 0.3 0.33333334 0.36666667 0.4 0.43333334 0.46666667 0.5</float_array>
        <technique_common>
          <accessor source="#Motion_9_Spine3_transform_frame_array_id" count="16" stride="1">
            <param name="TIME" type="float" />
          </accessor>
        </technique_common>
      </source>
      <source id="Motion_9_Spine3_transform_interp_id" name="Motion_9_Spine3_transform_interp">
        <Name_array id="Motion_9_Spine3_transform_interp_array_id" count="16">LINEAR LINEAR LINEAR LINEAR LINEAR LINEAR LINEAR LINEAR LINEAR LINEAR LINEAR LINEAR LINEAR LINEAR LINEAR LINEAR</Name_array>
        <technique_common>
          <accessor source="#Motion_9_Spine3_transform_interp_array_id" count="16" stride="1">
            <param name="INTERPOLATION" type="Name" />
          </accessor>
        </technique_common>
      </source>
      <source id="Motion_9_Spine3_transform_pose_id" name="Motion_9_Spine3_transform_pose">
        <float_array id="Motion_9_Spine3_transform_pose_array_id" count="256">0.9886267 -0.017550258 0.14936246 12.800003 0.020046217 0.9996832 -0.015221563 0 -0.14904799 0.018042596 0.98866534 0 0 0 0 1 0.98784596 -0.017950175 0.154396 12.800003 0.02042357 0.999687 -0.0144484565 0 -0.15408832 0.017426167 0.9879034 0 0 0 0 1 0.98719454 -0.018331248 0.15846422 12.800003 0.02075582 0.99969125 -0.013658869 0 -0.15816492 0.016773015 0.98727024 0 0 0 0 1 0.98670554 -0.018693963 0.16143963 12.800003 0.021044942 0.9996958 -0.0128647685 0 -0.16115001 0.016091226 0.98679876 0 0 0 0 1 0.9864102 -0.019038482 0.16319449 12.800003 0.021293217 0.9997003 -0.012078047 0 -0.16291563 0.015388845 0.98652 0 0 0 0 1 0.986299 -0.019362934 0.16382752 12.800003 0.021504413 0.9997048 -0.011308004 0 -0.1635602 0.014676088 0.9864242 0 0 0 0 1 0.9863255 -0.0196641 0.16363178 12.800003 0.021683099 0.9997091 -0.010561596 0 -0.1633765 0.013965215 0.986465 0 0 0 0 1 0.9864625 -0.019940086 0.16277024 12.800003 0.021832734 0.9997131 -0.009847053 0 -0.1625272 0.013267468 0.9866149 0 0 0 0 1 0.9866816 -0.020189269 0.16140583 12.800003 0.021956472 0.9997169 -0.009172501 0 -0.16117495 0.012594242 0.9868455 0 0 0 0 1 0.98695433 -0.020410309 0.15970147 12.800003 0.022057155 0.99972016 -0.0085459985 0 -0.15948236 0.011957072 0.9871284 0 0 0 0 1 0.98725295 -0.020602144 0.15782015 12.800003 0.022137329 0.99972314 -0.007975556 0 -0.15761213 0.011367608 0.98743564 0 0 0 0 1 0.9875506 -0.020763986 0.15592493 12.800003 0.022199284 0.99972564 -0.007469156 0 -0.15572707 0.010837591 0.9877407 0 0 0 0 1 0.98782194 -0.020895265 0.15417928 12.800003 0.022245094 0.9997278 -0.007034771 0 -0.15399033 0.010378834 0.98801786 0 0 0 0 1 0.9880423 -0.020995578 0.1527467 12.800003 0.022276683 0.9997295 -0.0066803712 0 -0.15256512 0.010003179 0.9882428 0 0 0 0 1 0.98818815 -0.021064626 0.15179081 12.800003 0.02229589 0.9997308 -0.0064139357 0 -0.15161486 0.009722487 0.9883918 0 0 0 0 1 0.98818815 -0.021064626 0.15179081 12.800003 0.02229589 0.9997308 -0.0064139357 0 -0.15161486 0.009722487 0.9883918 0 0 0 0 1</float_array>
        <technique_common>
          <accessor source="#Motion_9_Spine3_transform_pose_array_id" count="16" stride="16">
            <param name="TRANSFORM" type="float4x4" />
          </accessor>
        </technique_common>
      </source>
      <sampler id="Motion_9_Spine3_transform_samp_id">
        <input semantic="INPUT" source="#Motion_9_Spine3_transform_frame_id" />
        <input semantic="INTERPOLATION" source="#Motion_9_Spine3_transform_interp_id" />
        <input semantic="OUTPUT" source="#Motion_9_Spine3_transform_pose_id" />
      </sampler>
      <channel source="#Motion_9_Spine3_transform_samp_id" target="Spine3_bone_id/transform" />
    </animation>
    <animation id="Motion_9_RShoulder_transform_id" name="Motion_9_RShoulder_transform">
      <source id="Motion_9_RShoulder_transform_frame_id" name="Motion_9_RShoulder_transform_frame">
        <float_array id="Motion_9_RShoulder_transform_frame_array_id" count="16">0 0.033333335 0.06666667 0.1 0.13333334 0.16666667 0.2 0.23333333 0.26666668 0.3 0.33333334 0.36666667 0.4 0.43333334 0.46666667 0.5</float_array>
        <technique_common>
          <accessor source="#Motion_9_RShoulder_transform_frame_array_id" count="16" stride="1">
            <param name="TIME" type="float" />
          </accessor>
        </technique_common>
      </source>
      <source id="Motion_9_RShoulder_transform_interp_id" name="Motion_9_RShoulder_transform_interp">
        <Name_array id="Motion_9_RShoulder_transform_interp_array_id" count="16">LINEAR LINEAR LINEAR LINEAR LINEAR LINEAR LINEAR LINEAR LINEAR LINEAR LINEAR LINEAR LINEAR LINEAR LINEAR LINEAR</Name_array>
        <technique_common>
          <accessor source="#Motion_9_RShoulder_transform_interp_array_id" count="16" stride="1">
            <param name="INTERPOLATION" type="Name" />
          </accessor>
        </technique_common>
      </source>
      <source id="Motion_9_RShoulder_transform_pose_id" name="Motion_9_RShoulder_transform_pose">
        <float_array id="Motion_9_RShoulder_transform_pose_array_id" count="256">-0.6666615 -0.74190557 -0.07168467 12.810532 0.6664777 -0.6364044 0.38832593 3.840002 -0.33372164 0.21110566 0.9187297 -0.109299 0 0 0 1 -0.6673242 -0.7413146 -0.071631715 12.810532 0.6670496 -0.6376941 0.38521558 3.840002 -0.33124506 0.20928179 0.9200423 -0.109299 0 0 0 1 -0.6680887 -0.74056464 -0.07225934 12.810532 0.66905457 -0.64038134 0.3771969 3.840002 -0.32561222 0.20365556 0.92330986 -0.109299 0 0 0 1 -0.6691375 -0.7395647 -0.07279394 12.810532 0.67239004 -0.6442355 0.3644888 3.840002 -0.31645954 0.19494721 0.9283582 -0.109299 0 0 0 1 -0.67057693 -0.7381966 -0.07343406 12.810532 0.6764662 -0.6491114 0.3479197 3.840002 -0.3045 0.18363124 0.934644 -0.109299 0 0 0 1 -0.67229664 -0.7365616 -0.074123375 12.810532 0.68097645 -0.6545981 0.32828707 3.840002 -0.29032466 0.17022999 0.9416652 -0.109299 0 0 0 1 -0.6741183 -0.734826 -0.07479835 12.810532 0.685703 -0.6602435 0.3064139 3.840002 -0.2745461 0.1552698 0.94895506 -0.109299 0 0 0 1 -0.6760504 -0.7329832 -0.07544161 12.810532 0.6903042 -0.6658261 0.28311753 3.840002 -0.25775138 0.13932408 0.9561135 -0.109299 0 0 0 1 -0.67807436 -0.73105025 -0.076034166 12.810532 0.6945152 -0.67114985 0.2592432 3.840002 -0.24055007 0.12297921 0.9628145 -0.109299 0 0 0 1 -0.68013835 -0.72907543 -0.07655728 12.810532 0.6981604 -0.6760442 0.2356616 3.840002 -0.22357118 0.10683321 0.968815 -0.109299 0 0 0 1 -0.6821625 -0.7271354 -0.07699569 12.810532 0.7011533 -0.6803696 0.21326344 3.840002 -0.20745692 0.091494545 0.97395605 -0.109299 0 0 0 1 -0.68403924 -0.7253335 -0.077339955 12.810532 0.703489 -0.6840122 0.19295183 3.840002 -0.19285592 0.077578835 0.9781555 -0.109299 0 0 0 1 -0.6856402 -0.72379404 -0.07758726 12.810532 0.7052285 -0.6868806 0.17563565 3.840002 -0.18041722 0.065706104 0.98139304 -0.109299 0 0 0 1 -0.6868237 -0.7226545 -0.0777403 12.810532 0.70647365 -0.68889654 0.1622234 3.840002 -0.1707865 0.05649742 0.9836869 -0.109299 0 0 0 1 -0.6874627 -0.7220394 -0.077805236 12.810532 0.7073191 -0.6900008 0.15361737 3.840002 -0.1646035 0.050573107 0.9850625 -0.109299 0 0 0 1 -0.6874627 -0.7220394 -0.077805236 12.810532 0.7073191 -0.6900008 0.15361737 3.840002 -0.1646035 0.050573107 0.9850625 -0.109299 0 0 0 1</float_array>
        <technique_common>
          <accessor source="#Motion_9_RShoulder_transform_pose_array_id" count="16" stride="16">
            <param name="TRANSFORM" type="float4x4" />
          </accessor>
        </technique_common>
      </source>
      <sampler id="Motion_9_RShoulder_transform_samp_id">
        <input semantic="INPUT" source="#Motion_9_RShoulder_transform_frame_id" />
        <input semantic="INTERPOLATION" source="#Motion_9_RShoulder_transform_interp_id" />
        <input semantic="OUTPUT" source="#Motion_9_RShoulder_transform_pose_id" />
      </sampler>
      <channel source="#Motion_9_RShoulder_transform_samp_id" target="RShoulder_bone_id/transform" />
    </animation>
    <animation id="Motion_9_RArm_transform_id" name="Motion_9_RArm_transform">
      <source id="Motion_9_RArm_transform_frame_id" name="Motion_9_RArm_transform_frame">
        <float_array id="Motion_9_RArm_transform_frame_array_id" count="16">0 0.033333335 0.06666667 0.1 0.13333334 0.16666667 0.2 0.23333333 0.26666668 0.3 0.33333334 0.36666667 0.4 0.43333334 0.46666667 0.5</float_array>
        <technique_common>
          <accessor source="#Motion_9_RArm_transform_frame_array_id" count="16" stride="1">
            <param name="TIME" type="float" />
          </accessor>
        </technique_common>
      </source>
      <source id="Motion_9_RArm_transform_interp_id" name="Motion_9_RArm_transform_interp">
        <Name_array id="Motion_9_RArm_transform_interp_array_id" count="16">LINEAR LINEAR LINEAR LINEAR LINEAR LINEAR LINEAR LINEAR LINEAR LINEAR LINEAR LINEAR LINEAR LINEAR LINEAR LINEAR</Name_array>
        <technique_common>
          <accessor source="#Motion_9_RArm_transform_interp_array_id" count="16" stride="1">
            <param name="INTERPOLATION" type="Name" />
          </accessor>
        </technique_common>
      </source>
      <source id="Motion_9_RArm_transform_pose_id" name="Motion_9_RArm_transform_pose">
        <float_array id="Motion_9_RArm_transform_pose_array_id" count="256">0.9376371 -0.34065488 -0.06921695 6.70358 0.32679716 0.7959569 0.5095647 0 -0.11849199 -0.5004067 0.8576437 0 0 0 0 1 0.9368531 -0.34315372 -0.06746696 6.70358 0.32834607 0.7966515 0.50747925 0 -0.12039575 -0.49758604 0.8590186 0 0 0 0 1 0.9359158 -0.34651506 -0.06315755 6.70358 0.32973176 0.79890144 0.5030243 0 -0.12384882 -0.49161342 0.86196154 0 0 0 0 1 0.9347759 -0.3509163 -0.055243425 6.70358 0.33081767 0.80326265 0.49530673 0 -0.12943622 -0.48127627 0.86695987 0 0 0 0 1 0.93343234 -0.35596475 -0.044644237 6.70358 0.33173338 0.80904037 0.48518726 0 -0.13659057 -0.4676995 0.87326986 0 0 0 0 1 0.9318743 -0.36137635 -0.031896904 6.70358 0.3325613 0.8158079 0.473139 0 -0.1449595 -0.45151377 0.8804102 0 0 0 0 1 0.93010145 -0.3668831 -0.017550707 6.70358 0.33337182 0.82315725 0.45964697 0 -0.15418972 -0.43336925 0.8879283 0 0 0 0 1 0.9281315 -0.3722461 -0.0021704733 6.70358 0.33421552 0.830713 0.44521445 0 -0.1639263 -0.413943 0.8954213 0 0 0 0 1 0.9260047 -0.3772647 0.013662592 6.70358 0.33511832 0.83814114 0.43036625 0 -0.17381316 -0.39394256 0.90255094 0 0 0 0 1 0.92378616 -0.38178205 0.029352702 6.70358 0.33607876 0.8451557 0.4156476 0 -0.18349439 -0.37410465 0.909052 0 0 0 0 1 0.9215662 -0.38568637 0.044292457 6.70358 0.33706805 0.8515192 0.40162188 0 -0.19261599 -0.3551916 0.9147339 0 0 0 0 1 0.9194576 -0.38890758 0.05786682 6.70358 0.33803263 0.8570395 0.38886657 0 -0.20082733 -0.3379855 0.91947496 0 0 0 0 1 0.9175915 -0.39140967 0.06945715 6.70358 0.33889905 0.86156136 0.37796757 0 -0.20778176 -0.32328084 0.9232097 0 0 0 0 1 0.91610974 -0.39317843 0.07844502 6.70358 0.33958188 0.86495286 0.36951414 0 -0.21313623 -0.31187698 0.925908 0 0 0 0 1 0.9151561 -0.3942043 0.08421516 6.70358 0.3399935 0.86708695 0.36409426 0 -0.21654937 -0.3045705 0.92754686 0 0 0 0 1 0.9151561 -0.3942043 0.08421516 6.70358 0.3399935 0.86708695 0.36409426 0 -0.21654937 -0.3045705 0.92754686 0 0 0 0 1</float_array>
        <technique_common>
          <accessor source="#Motion_9_RArm_transform_pose_array_id" count="16" stride="16">
            <param name="TRANSFORM" type="float4x4" />
          </accessor>
        </technique_common>
      </source>
      <sampler id="Motion_9_RArm_transform_samp_id">
        <input semantic="INPUT" source="#Motion_9_RArm_transform_frame_id" />
        <input semantic="INTERPOLATION" source="#Motion_9_RArm_transform_interp_id" />
        <input semantic="OUTPUT" source="#Motion_9_RArm_transform_pose_id" />
      </sampler>
      <channel source="#Motion_9_RArm_transform_samp_id" target="RArm_bone_id/transform" />
    </animation>
    <animation id="Motion_9_RForeArm_transform_id" name="Motion_9_RForeArm_transform">
      <source id="Motion_9_RForeArm_transform_frame_id" name="Motion_9_RForeArm_transform_frame">
        <float_array id="Motion_9_RForeArm_transform_frame_array_id" count="16">0 0.033333335 0.06666667 0.1 0.13333334 0.16666667 0.2 0.23333333 0.26666668 0.3 0.33333334 0.36666667 0.4 0.43333334 0.46666667 0.5</float_array>
        <technique_common>
          <accessor source="#Motion_9_RForeArm_transform_frame_array_id" count="16" stride="1">
            <param name="TIME" type="float" />
          </accessor>
        </technique_common>
      </source>
      <source id="Motion_9_RForeArm_transform_interp_id" name="Motion_9_RForeArm_transform_interp">
        <Name_array id="Motion_9_RForeArm_transform_interp_array_id" count="16">LINEAR LINEAR LINEAR LINEAR LINEAR LINEAR LINEAR LINEAR LINEAR LINEAR LINEAR LINEAR LINEAR LINEAR LINEAR LINEAR</Name_array>
        <technique_common>
          <accessor source="#Motion_9_RForeArm_transform_interp_array_id" count="16" stride="1">
            <param name="INTERPOLATION" type="Name" />
          </accessor>
        </technique_common>
      </source>
      <source id="Motion_9_RForeArm_transform_pose_id" name="Motion_9_RForeArm_transform_pose">
        <float_array id="Motion_9_RForeArm_transform_pose_array_id" count="256">0.22821248 1.7484555E-07 -0.97361135 21.35 -3.9901934E-08 1 1.7023162E-07 0 0.97361135 0 0.22821248 0 0 0 0 1 0.23004007 2.6877728E-05 -0.9731812 21.35 -6.182954E-06 1 2.6156897E-05 0 0.9731812 0 0.23004007 0 0 0 0 1 0.23240912 2.1632517E-05 -0.9726181 21.35 -5.027594E-06 1 2.1040178E-05 0 0.9726181 0 0.23240912 0 0 0 0 1 0.23522502 1.7484555E-07 -0.97194093 21.35 -4.1128047E-08 1 1.6993955E-07 0 0.97194093 0 0.23522502 0 0 0 0 1 0.23839283 -2.1282827E-05 -0.9711689 21.35 5.0736753E-06 1 -2.0669218E-05 0 0.9711689 0 0.23839283 0 0 0 0 1 0.24181807 -2.6528036E-05 -0.9703216 21.35 6.41496E-06 1 -2.5740726E-05 0 0.9703216 -9.094947E-13 0.24181807 0 0 0 0 1 0.24540615 1.7484555E-07 -0.9694203 21.35 -4.290817E-08 1 1.6949883E-07 0 0.9694203 0 0.24540615 0 0 0 0 1 0.24906349 1.7484555E-07 -0.96848714 21.35 -4.3547637E-08 1 1.6933566E-07 0 0.96848714 0 0.24906349 0 0 0 0 1 0.25269574 0 -0.96754575 21.35 0 1 0 0 0.96754575 0 0.25269574 0 0 0 0 1 0.25621003 1.7484555E-07 -0.96662116 21.35 -4.479719E-08 1 1.6900941E-07 0 0.96662116 0 0.25621003 0 0 0 0 1 0.25951296 1.7484557E-07 -0.96573967 21.35 -4.537469E-08 1 1.688553E-07 0 0.96573967 0 0.25951296 0 0 0 0 1 0.26251215 2.3063028E-05 -0.9649287 21.35 -6.054326E-06 1 2.2254178E-05 0 0.9649287 9.094947E-13 0.26251215 0 0 0 0 1 0.26511502 1.1618937E-05 -0.96421677 21.35 -3.0803544E-06 1 1.1203175E-05 0 0.96421677 0 0.26511502 0 0 0 0 1 0.26722926 -1.1269247E-05 -0.963633 21.35 3.0114734E-06 1 -1.0859418E-05 0 0.963633 0 0.26722926 0 0 0 0 1 0.26876295 -2.2713339E-05 -0.9632063 21.35 6.104504E-06 1 -2.1877631E-05 0 0.9632063 0 0.26876295 0 0 0 0 1 0.26876295 -2.2713339E-05 -0.9632063 21.35 6.104504E-06 1 -2.1877631E-05 0 0.9632063 0 0.26876295 0 0 0 0 1</float_array>
        <technique_common>
          <accessor source="#Motion_9_RForeArm_transform_pose_array_id" count="16" stride="16">
            <param name="TRANSFORM" type="float4x4" />
          </accessor>
        </technique_common>
      </source>
      <sampler id="Motion_9_RForeArm_transform_samp_id">
        <input semantic="INPUT" source="#Motion_9_RForeArm_transform_frame_id" />
        <input semantic="INTERPOLATION" source="#Motion_9_RForeArm_transform_interp_id" />
        <input semantic="OUTPUT" source="#Motion_9_RForeArm_transform_pose_id" />
      </sampler>
      <channel source="#Motion_9_RForeArm_transform_samp_id" target="RForeArm_bone_id/transform" />
    </animation>
    <animation id="Motion_9_RHand_transform_id" name="Motion_9_RHand_transform">
      <source id="Motion_9_RHand_transform_frame_id" name="Motion_9_RHand_transform_frame">
        <float_array id="Motion_9_RHand_transform_frame_array_id" count="16">0 0.033333335 0.06666667 0.1 0.13333334 0.16666667 0.2 0.23333333 0.26666668 0.3 0.33333334 0.36666667 0.4 0.43333334 0.46666667 0.5</float_array>
        <technique_common>
          <accessor source="#Motion_9_RHand_transform_frame_array_id" count="16" stride="1">
            <param name="TIME" type="float" />
          </accessor>
        </technique_common>
      </source>
      <source id="Motion_9_RHand_transform_interp_id" name="Motion_9_RHand_transform_interp">
        <Name_array id="Motion_9_RHand_transform_interp_array_id" count="16">LINEAR LINEAR LINEAR LINEAR LINEAR LINEAR LINEAR LINEAR LINEAR LINEAR LINEAR LINEAR LINEAR LINEAR LINEAR LINEAR</Name_array>
        <technique_common>
          <accessor source="#Motion_9_RHand_transform_interp_array_id" count="16" stride="1">
            <param name="INTERPOLATION" type="Name" />
          </accessor>
        </technique_common>
      </source>
      <source id="Motion_9_RHand_transform_pose_id" name="Motion_9_RHand_transform_pose">
        <float_array id="Motion_9_RHand_transform_pose_array_id" count="256">0.82264 0.19776934 -0.5330579 21.35 0.14734498 0.8313669 0.53583443 0 0.5491383 -0.5193422 0.6547754 0 0 0 0 1 0.8240451 0.18502718 -0.5354574 21.35 0.1595389 0.83111995 0.53271663 0 0.5435964 -0.5244088 0.6553613 0 0 0 0 1 0.8242648 0.1734315 -0.5389888 21.35 0.17092253 0.8313072 0.52887976 0 0.5397897 -0.52806234 0.65557396 0 0 0 0 1 0.82286173 0.16298778 -0.5443652 21.35 0.18155123 0.83236414 0.52364975 0 0.53845865 -0.52972156 0.65532994 0 0 0 0 1 0.81999224 0.15371543 -0.5513477 21.35 0.1914947 0.83407897 0.5173413 0 0.53939086 -0.52979606 0.6545026 0 0 0 0 1 0.81636363 0.14560123 -0.5588834 21.35 0.20079221 0.83577776 0.5110363 0 0.54150987 -0.52941084 0.65306294 0 0 0 0 1 0.8123528 0.13859552 -0.5664576 21.35 0.20945168 0.8371936 0.50520974 0 0.54425454 -0.529054 0.65106744 0 0 0 0 1 0.80834454 0.13265675 -0.57356894 21.35 0.21749407 0.8380616 0.50034904 0 0.5470607 -0.5292022 0.64859045 0 0 0 0 1 0.8047334 0.12775011 -0.57972753 21.35 0.2249517 0.8381155 0.4969498 0 0.5493641 -0.5303228 0.645722 0 0 0 0 1 0.8015436 0.12379161 -0.58498156 21.35 0.23181233 0.837485 0.4948554 0 0.55117226 -0.5322541 0.6425844 0 0 0 0 1 0.79858345 0.12063724 -0.5896703 21.35 0.23800915 0.8365582 0.49347952 0 0.55282557 -0.5344315 0.63934875 0 0 0 0 1 0.7959282 0.11816249 -0.5937474 21.35 0.24349776 0.8354509 0.492677 0 0.55426276 -0.5367117 0.6361866 0 0 0 0 1 0.793651 0.11623984 -0.59716535 21.35 0.24823242 0.8342773 0.49230283 0 0.5554267 -0.5389524 0.6332705 0 0 0 0 1 0.7918383 0.11492533 -0.5998202 21.35 0.2519819 0.8331648 0.49228197 0 0.5563248 -0.54095155 0.6307727 0 0 0 0 1 0.7905682 0.11418175 -0.60163486 21.35 0.25460535 0.83223426 0.49250615 0 0.5569364 -0.5425391 0.6288666 0 0 0 0 1 0.7905682 0.11418175 -0.60163486 21.35 0.25460535 0.83223426 0.49250615 0 0.5569364 -0.5425391 0.6288666 0 0 0 0 1</float_array>
        <technique_common>
          <accessor source="#Motion_9_RHand_transform_pose_array_id" count="16" stride="16">
            <param name="TRANSFORM" type="float4x4" />
          </accessor>
        </technique_common>
      </source>
      <sampler id="Motion_9_RHand_transform_samp_id">
        <input semantic="INPUT" source="#Motion_9_RHand_transform_frame_id" />
        <input semantic="INTERPOLATION" source="#Motion_9_RHand_transform_interp_id" />
        <input semantic="OUTPUT" source="#Motion_9_RHand_transform_pose_id" />
      </sampler>
      <channel source="#Motion_9_RHand_transform_samp_id" target="RHand_bone_id/transform" />
    </animation>
    <animation id="Motion_9_LShoulder_transform_id" name="Motion_9_LShoulder_transform">
      <source id="Motion_9_LShoulder_transform_frame_id" name="Motion_9_LShoulder_transform_frame">
        <float_array id="Motion_9_LShoulder_transform_frame_array_id" count="16">0 0.033333335 0.06666667 0.1 0.13333334 0.16666667 0.2 0.23333333 0.26666668 0.3 0.33333334 0.36666667 0.4 0.43333334 0.46666667 0.5</float_array>
        <technique_common>
          <accessor source="#Motion_9_LShoulder_transform_frame_array_id" count="16" stride="1">
            <param name="TIME" type="float" />
          </accessor>
        </technique_common>
      </source>
      <source id="Motion_9_LShoulder_transform_interp_id" name="Motion_9_LShoulder_transform_interp">
        <Name_array id="Motion_9_LShoulder_transform_interp_array_id" count="16">LINEAR LINEAR LINEAR LINEAR LINEAR LINEAR LINEAR LINEAR LINEAR LINEAR LINEAR LINEAR LINEAR LINEAR LINEAR LINEAR</Name_array>
        <technique_common>
          <accessor source="#Motion_9_LShoulder_transform_interp_array_id" count="16" stride="1">
            <param name="INTERPOLATION" type="Name" />
          </accessor>
        </technique_common>
      </source>
      <source id="Motion_9_LShoulder_transform_pose_id" name="Motion_9_LShoulder_transform_pose">
        <float_array id="Motion_9_LShoulder_transform_pose_array_id" count="256">-0.57829463 0.8156973 0.014581159 12.810532 -0.78836274 -0.55413854 -0.26723418 -3.840002 -0.20990226 -0.16603541 0.9635213 -0.109299 0 0 0 1 -0.5792029 0.8150789 0.013055734 12.810532 -0.78708607 -0.5549989 -0.26920593 -3.840002 -0.21217817 -0.16620083 0.96299416 -0.109299 0 0 0 1 -0.5815629 0.8134483 0.009269021 12.810532 -0.78510404 -0.5582415 -0.2682865 -3.840002 -0.21306288 -0.16330269 0.96329457 -0.109299 0 0 0 1 -0.58520424 0.81087863 0.0034997463 12.810532 -0.7824677 -0.56355727 -0.26485437 -3.840002 -0.21279243 -0.1577323 0.9642821 -0.109299 0 0 0 1 -0.58987534 0.80748475 -0.0038654953 12.810532 -0.7792517 -0.57049274 -0.25943092 -3.840002 -0.21169178 -0.15001978 0.9657539 -0.109299 0 0 0 1 -0.5953337 0.803382 -0.0124397725 12.810532 -0.7755268 -0.57860243 -0.25254104 -3.840002 -0.21008465 -0.14069887 0.96750623 -0.109299 0 0 0 1 -0.6013522 0.7986856 -0.021839678 12.810532 -0.7713564 -0.5874672 -0.24472795 -3.840002 -0.20829079 -0.13032149 0.9693458 -0.109299 0 0 0 1 -0.6076591 0.7935684 -0.031611487 12.810532 -0.7668667 -0.5966346 -0.23652115 -3.840002 -0.20655625 -0.11948249 0.97111195 -0.109299 0 0 0 1 -0.6139381 0.7882718 -0.04131528 12.810532 -0.76227605 -0.6056566 -0.22828645 -3.840002 -0.20497468 -0.10866017 0.972717 -0.109299 0 0 0 1 -0.61996734 0.78298956 -0.050673142 12.810532 -0.75776285 -0.6142453 -0.22022285 -3.840002 -0.20355792 -0.098132744 0.9741325 -0.109299 0 0 0 1 -0.6255369 0.7779315 -0.059383117 12.810532 -0.7535022 -0.62212205 -0.21260023 -3.840002 -0.20233193 -0.08824396 0.97533315 -0.109299 0 0 0 1 -0.6304592 0.77331287 -0.067146435 12.810532 -0.7496626 -0.6290394 -0.20570797 -3.840002 -0.20131435 -0.07935328 0.9763071 -0.109299 0 0 0 1 -0.6345644 0.7693515 -0.073667556 12.810532 -0.74640584 -0.6347749 -0.19984956 -3.840002 -0.20051682 -0.07183148 0.97705334 -0.109299 0 0 0 1 -0.63769054 0.76626617 -0.078652844 12.810532 -0.74388915 -0.63911843 -0.19533555 -3.840002 -0.19994755 -0.06605469 0.9775775 -0.109299 0 0 0 1 -0.6396792 0.7642761 -0.081809476 12.810532 -0.74226993 -0.64186347 -0.19247551 -3.840002 -0.19961493 -0.062397853 0.97788566 -0.109299 0 0 0 1 -0.6396792 0.7642761 -0.081809476 12.810532 -0.74226993 -0.64186347 -0.19247551 -3.840002 -0.19961493 -0.062397853 0.97788566 -0.109299 0 0 0 1</float_array>
        <technique_common>
          <accessor source="#Motion_9_LShoulder_transform_pose_array_id" count="16" stride="16">
            <param name="TRANSFORM" type="float4x4" />
          </accessor>
        </technique_common>
      </source>
      <sampler id="Motion_9_LShoulder_transform_samp_id">
        <input semantic="INPUT" source="#Motion_9_LShoulder_transform_frame_id" />
        <input semantic="INTERPOLATION" source="#Motion_9_LShoulder_transform_interp_id" />
        <input semantic="OUTPUT" source="#Motion_9_LShoulder_transform_pose_id" />
      </sampler>
      <channel source="#Motion_9_LShoulder_transform_samp_id" target="LShoulder_bone_id/transform" />
    </animation>
    <animation id="Motion_9_LArm_transform_id" name="Motion_9_LArm_transform">
      <source id="Motion_9_LArm_transform_frame_id" name="Motion_9_LArm_transform_frame">
        <float_array id="Motion_9_LArm_transform_frame_array_id" count="16">0 0.033333335 0.06666667 0.1 0.13333334 0.16666667 0.2 0.23333333 0.26666668 0.3 0.33333334 0.36666667 0.4 0.43333334 0.46666667 0.5</float_array>
        <technique_common>
          <accessor source="#Motion_9_LArm_transform_frame_array_id" count="16" stride="1">
            <param name="TIME" type="float" />
          </accessor>
        </technique_common>
      </source>
      <source id="Motion_9_LArm_transform_interp_id" name="Motion_9_LArm_transform_interp">
        <Name_array id="Motion_9_LArm_transform_interp_array_id" count="16">LINEAR LINEAR LINEAR LINEAR LINEAR LINEAR LINEAR LINEAR LINEAR LINEAR LINEAR LINEAR LINEAR LINEAR LINEAR LINEAR</Name_array>
        <technique_common>
          <accessor source="#Motion_9_LArm_transform_interp_array_id" count="16" stride="1">
            <param name="INTERPOLATION" type="Name" />
          </accessor>
        </technique_common>
      </source>
      <source id="Motion_9_LArm_transform_pose_id" name="Motion_9_LArm_transform_pose">
        <float_array id="Motion_9_LArm_transform_pose_array_id" count="256">0.90575683 0.42360267 0.012857497 6.70358 -0.32189205 0.7073775 -0.62928736 0 -0.27566293 0.5658426 0.77706635 0 0 0 0 1 0.90486383 0.42537898 0.016559482 6.70358 -0.3203649 0.7060634 -0.63153845 0 -0.28033525 0.5661512 0.7751677 0 0 0 0 1 0.9036554 0.42772588 0.021387324 6.70358 -0.31939617 0.7063732 -0.63168263 0 -0.28529447 0.5639924 0.774932 0 0 0 0 1 0.90205526 0.43075445 0.027329087 6.70358 -0.31941822 0.7088058 -0.62894064 0 -0.29029 0.5586098 0.77697283 0 0 0 0 1 0.90029365 0.4339407 0.034158513 6.70358 -0.31991607 0.71285427 -0.62409335 0 -0.29516953 0.5509394 0.7806028 0 0 0 0 1 0.8988343 0.43627688 0.041945666 6.70358 -0.31995 0.7185441 -0.6175163 0 -0.29954788 0.5416243 0.78543884 0 0 0 0 1 0.8979805 0.43711606 0.05060184 6.70358 -0.31892678 0.72574663 -0.60957164 0 -0.30317765 0.5312452 0.79111433 0 0 0 0 1 0.89803356 0.43581378 0.06001679 6.70358 -0.31623387 0.7343404 -0.6006165 0 -0.30582973 0.5203945 0.7972815 0 0 0 0 1 0.89908004 0.4321682 0.06989826 6.70358 -0.31168252 0.7440124 -0.5910157 0 -0.30742335 0.5095843 0.803626 0 0 0 0 1 0.90082735 0.4268082 0.0796543 6.70358 -0.30589977 0.754099 -0.5811712 0 -0.30811587 0.4991687 0.8098736 0 0 0 0 1 0.9030098 0.4203589 0.08872272 6.70358 -0.2994867 0.7639818 -0.57152385 0 -0.30802768 0.48952037 0.8157749 0 0 0 0 1 0.9053631 0.41349578 0.09663794 6.70358 -0.29303235 0.7730808 -0.5625638 0 -0.3073267 0.48100647 0.8210865 0 0 0 0 1 0.9076013 0.40696737 0.1031381 6.70358 -0.28708383 0.78085566 -0.5548399 0 -0.3063377 0.47396415 0.82553935 0 0 0 0 1 0.90945137 0.40154058 0.10799724 6.70358 -0.28220177 0.7867964 -0.5489204 0 -0.30538565 0.4687394 0.8288685 0 0 0 0 1 0.9106521 0.3979916 0.110974945 6.70358 -0.27893734 0.7903429 -0.54548323 0 -0.30480602 0.4657904 0.83074224 0 0 0 0 1 0.9106521 0.3979916 0.110974945 6.70358 -0.27893734 0.7903429 -0.54548323 0 -0.30480602 0.4657904 0.83074224 0 0 0 0 1</float_array>
        <technique_common>
          <accessor source="#Motion_9_LArm_transform_pose_array_id" count="16" stride="16">
            <param name="TRANSFORM" type="float4x4" />
          </accessor>
        </technique_common>
      </source>
      <sampler id="Motion_9_LArm_transform_samp_id">
        <input semantic="INPUT" source="#Motion_9_LArm_transform_frame_id" />
        <input semantic="INTERPOLATION" source="#Motion_9_LArm_transform_interp_id" />
        <input semantic="OUTPUT" source="#Motion_9_LArm_transform_pose_id" />
      </sampler>
      <channel source="#Motion_9_LArm_transform_samp_id" target="LArm_bone_id/transform" />
    </animation>
    <animation id="Motion_9_LForeArm_transform_id" name="Motion_9_LForeArm_transform">
      <source id="Motion_9_LForeArm_transform_frame_id" name="Motion_9_LForeArm_transform_frame">
        <float_array id="Motion_9_LForeArm_transform_frame_array_id" count="16">0 0.033333335 0.06666667 0.1 0.13333334 0.16666667 0.2 0.23333333 0.26666668 0.3 0.33333334 0.36666667 0.4 0.43333334 0.46666667 0.5</float_array>
        <technique_common>
          <accessor source="#Motion_9_LForeArm_transform_frame_array_id" count="16" stride="1">
            <param name="TIME" type="float" />
          </accessor>
        </technique_common>
      </source>
      <source id="Motion_9_LForeArm_transform_interp_id" name="Motion_9_LForeArm_transform_interp">
        <Name_array id="Motion_9_LForeArm_transform_interp_array_id" count="16">LINEAR LINEAR LINEAR LINEAR LINEAR LINEAR LINEAR LINEAR LINEAR LINEAR LINEAR LINEAR LINEAR LINEAR LINEAR LINEAR</Name_array>
        <technique_common>
          <accessor source="#Motion_9_LForeArm_transform_interp_array_id" count="16" stride="1">
            <param name="INTERPOLATION" type="Name" />
          </accessor>
        </technique_common>
      </source>
      <source id="Motion_9_LForeArm_transform_pose_id" name="Motion_9_LForeArm_transform_pose">
        <float_array id="Motion_9_LForeArm_transform_pose_array_id" count="256">-0.3022778 -0.0032027005 -0.95321447 21.35 0.0018605172 0.99999046 -0.003949859 0 0.95321804 -0.0029674266 -0.30226898 0 0 0 0 1 -0.3031031 -0.0032030025 -0.95295244 21.35 0.0018593872 0.99999046 -0.0039525144 0 0.952956 -0.0029699265 -0.30309427 0 0 0 0 1 -0.30459857 -0.0032025867 -0.9524753 21.35 0.001857701 0.99999046 -0.0039564376 0 0.9524789 -0.00297454 -0.30458975 0 0 0 0 1 -0.30663073 -0.0032015871 -0.9518231 21.35 0.0018555609 0.9999904 -0.0039613754 0 0.9518267 -0.0029808455 -0.3066219 0 0 0 0 1 -0.30906546 -0.0032001385 -0.95103526 21.35 0.0018530699 0.9999904 -0.0039670737 0 0.95103884 -0.0029884207 -0.30905652 0 0 0 0 1 -0.3117689 -0.003198377 -0.95015264 21.35 0.0018503324 0.9999904 -0.00397328 0 0.9501562 -0.0029968428 -0.31175995 0 0 0 0 1 -0.31428325 -0.00319714 -0.94932395 21.35 0.0018482413 0.99999034 -0.0039796536 0 0.9493275 -0.0030053179 -0.3142743 0 0 0 0 1 -0.31626213 -0.0031970388 -0.9486665 21.35 0.0018474322 0.99999034 -0.0039858907 0 0.9486701 -0.0030131834 -0.3162532 0 0 0 0 1 -0.3177389 -0.003197875 -0.9481729 21.35 0.0018476236 0.99999034 -0.003991789 0 0.9481765 -0.0030202132 -0.31772995 0 0 0 0 1 -0.31874526 -0.0031994507 -0.947835 21.35 0.0018485375 0.9999903 -0.003997143 0 0.9478386 -0.003026179 -0.3187363 0 0 0 0 1 -0.31931424 -0.0032015643 -0.94764346 21.35 0.0018498916 0.9999903 -0.0040017474 0 0.94764704 -0.0030308524 -0.31930518 0 0 0 0 1 -0.31947744 -0.0032040172 -0.9475886 21.35 0.0018514066 0.9999903 -0.004005397 0 0.9475922 -0.0030340054 -0.31946838 0 0 0 0 1 -0.31926644 -0.003206605 -0.9476596 21.35 0.0018528001 0.9999902 -0.004007885 0 0.9476632 -0.0030354068 -0.31925738 0 0 0 0 1 -0.31871343 -0.003209123 -0.9478458 21.35 0.0018537858 0.9999902 -0.0040090047 0 0.9478494 -0.0030348264 -0.31870437 0 0 0 0 1 -0.31784952 -0.0032113628 -0.94813585 21.35 0.0018540787 0.9999902 -0.0040085497 0 0.9481394 -0.0030320336 -0.31784046 0 0 0 0 1 -0.31784952 -0.0032113628 -0.94813585 21.35 0.0018540787 0.9999902 -0.0040085497 0 0.9481394 -0.0030320336 -0.31784046 0 0 0 0 1</float_array>
        <technique_common>
          <accessor source="#Motion_9_LForeArm_transform_pose_array_id" count="16" stride="16">
            <param name="TRANSFORM" type="float4x4" />
          </accessor>
        </technique_common>
      </source>
      <sampler id="Motion_9_LForeArm_transform_samp_id">
        <input semantic="INPUT" source="#Motion_9_LForeArm_transform_frame_id" />
        <input semantic="INTERPOLATION" source="#Motion_9_LForeArm_transform_interp_id" />
        <input semantic="OUTPUT" source="#Motion_9_LForeArm_transform_pose_id" />
      </sampler>
      <channel source="#Motion_9_LForeArm_transform_samp_id" target="LForeArm_bone_id/transform" />
    </animation>
    <animation id="Motion_9_LHand_transform_id" name="Motion_9_LHand_transform">
      <source id="Motion_9_LHand_transform_frame_id" name="Motion_9_LHand_transform_frame">
        <float_array id="Motion_9_LHand_transform_frame_array_id" count="16">0 0.033333335 0.06666667 0.1 0.13333334 0.16666667 0.2 0.23333333 0.26666668 0.3 0.33333334 0.36666667 0.4 0.43333334 0.46666667 0.5</float_array>
        <technique_common>
          <accessor source="#Motion_9_LHand_transform_frame_array_id" count="16" stride="1">
            <param name="TIME" type="float" />
          </accessor>
        </technique_common>
      </source>
      <source id="Motion_9_LHand_transform_interp_id" name="Motion_9_LHand_transform_interp">
        <Name_array id="Motion_9_LHand_transform_interp_array_id" count="16">LINEAR LINEAR LINEAR LINEAR LINEAR LINEAR LINEAR LINEAR LINEAR LINEAR LINEAR LINEAR LINEAR LINEAR LINEAR LINEAR</Name_array>
        <technique_common>
          <accessor source="#Motion_9_LHand_transform_interp_array_id" count="16" stride="1">
            <param name="INTERPOLATION" type="Name" />
          </accessor>
        </technique_common>
      </source>
      <source id="Motion_9_LHand_transform_pose_id" name="Motion_9_LHand_transform_pose">
        <float_array id="Motion_9_LHand_transform_pose_array_id" count="256">0.8637123 0.3676113 -0.34476516 21.35 0.008157566 0.67379105 0.73887694 0 0.5039192 -0.64098954 0.5789628 0 0 0 0 1 0.8649666 0.36660817 -0.34268248 21.35 0.0049182177 0.67664057 0.7362971 0 0.50180537 -0.63855773 0.58346844 0 0 0 0 1 0.86547047 0.36642355 -0.34160596 21.35 0.0026318282 0.6785676 0.73453325 0 0.500953 -0.63661593 0.5863159 0 0 0 0 1 0.86457705 0.36757457 -0.34263027 21.35 0.0018966049 0.679459 0.73371106 0 0.5024967 -0.6349996 0.58674747 0 0 0 0 1 0.8622607 0.37011626 -0.34571716 21.35 0.002762109 0.6791621 0.7339831 0 0.5064571 -0.63383967 0.58459246 0 0 0 0 1 0.85945535 0.37290573 -0.34968245 21.35 0.005203575 0.67761093 0.7354022 0 0.51118433 -0.633865 0.5804359 0 0 0 0 1 0.8568803 0.37499315 -0.353746 21.35 0.00938195 0.67474145 0.7379945 0 0.51543 -0.6356918 0.5746545 0 0 0 0 1 0.8551285 0.37605298 -0.35684648 21.35 0.01481685 0.6703299 0.7419152 0 0.51820433 -0.6397202 0.56764627 0 0 0 0 1 0.8543975 0.3758966 -0.35875714 21.35 0.021136582 0.6647092 0.74680316 0 0.51918995 -0.6456497 0.55998063 0 0 0 0 1 0.8542359 0.37516868 -0.3599021 21.35 0.027387694 0.65883577 0.751788 0 0.5191637 -0.6520612 0.5525262 0 0 0 0 1 0.85425967 0.37488043 -0.36014587 21.35 0.03210996 0.6534183 0.7563157 0 0.51885384 -0.6576543 0.5461515 0 0 0 0 1 0.8541951 0.3755802 -0.35956937 21.35 0.034323826 0.649303 0.7597548 0 0.5188184 -0.6613207 0.5417402 0 0 0 0 1 0.8537734 0.3779171 -0.35811958 21.35 0.033214763 0.64690197 0.76184946 0 0.5195842 -0.66234165 0.5397553 0 0 0 0 1 0.8528767 0.38217783 -0.35572663 21.35 0.029005364 0.64558804 0.7631349 0 0.52130604 -0.66117793 0.53952175 0 0 0 0 1 0.8519776 0.38612852 -0.35360837 21.35 0.024559975 0.6451524 0.7636591 0 0.52300185 -0.6593051 0.5401721 0 0 0 0 1 0.8519776 0.38612852 -0.35360837 21.35 0.024559975 0.6451524 0.7636591 0 0.52300185 -0.6593051 0.5401721 0 0 0 0 1</float_array>
        <technique_common>
          <accessor source="#Motion_9_LHand_transform_pose_array_id" count="16" stride="16">
            <param name="TRANSFORM" type="float4x4" />
          </accessor>
        </technique_common>
      </source>
      <sampler id="Motion_9_LHand_transform_samp_id">
        <input semantic="INPUT" source="#Motion_9_LHand_transform_frame_id" />
        <input semantic="INTERPOLATION" source="#Motion_9_LHand_transform_interp_id" />
        <input semantic="OUTPUT" source="#Motion_9_LHand_transform_pose_id" />
      </sampler>
      <channel source="#Motion_9_LHand_transform_samp_id" target="LHand_bone_id/transform" />
    </animation>
    <animation id="Motion_9_Neck_transform_id" name="Motion_9_Neck_transform">
      <source id="Motion_9_Neck_transform_frame_id" name="Motion_9_Neck_transform_frame">
        <float_array id="Motion_9_Neck_transform_frame_array_id" count="16">0 0.033333335 0.06666667 0.1 0.13333334 0.16666667 0.2 0.23333333 0.26666668 0.3 0.33333334 0.36666667 0.4 0.43333334 0.46666667 0.5</float_array>
        <technique_common>
          <accessor source="#Motion_9_Neck_transform_frame_array_id" count="16" stride="1">
            <param name="TIME" type="float" />
          </accessor>
        </technique_common>
      </source>
      <source id="Motion_9_Neck_transform_interp_id" name="Motion_9_Neck_transform_interp">
        <Name_array id="Motion_9_Neck_transform_interp_array_id" count="16">LINEAR LINEAR LINEAR LINEAR LINEAR LINEAR LINEAR LINEAR LINEAR LINEAR LINEAR LINEAR LINEAR LINEAR LINEAR LINEAR</Name_array>
        <technique_common>
          <accessor source="#Motion_9_Neck_transform_interp_array_id" count="16" stride="1">
            <param name="INTERPOLATION" type="Name" />
          </accessor>
        </technique_common>
      </source>
      <source id="Motion_9_Neck_transform_pose_id" name="Motion_9_Neck_transform_pose">
        <float_array id="Motion_9_Neck_transform_pose_array_id" count="256">0.9615404 0.026016839 -0.2734285 14.250113 -0.053765066 0.99407345 -0.09448406 0 0.2693498 0.10555114 0.95724064 0 0 0 0 1 0.9610137 0.026090715 -0.27526715 14.250113 -0.05402145 0.9940696 -0.09437873 0 0.2711723 0.10556958 0.9567239 0 0 0 0 1 0.96012 0.026141286 -0.27836347 14.250113 -0.054376543 0.9940672 -0.094199896 0 0.2742495 0.105579644 0.95584524 0 0 0 0 1 0.95879644 0.026150826 -0.28288785 14.250113 -0.054831278 0.9940662 -0.09394671 0 0.27875248 0.10558687 0.95454097 0 0 0 0 1 0.9571795 0.026140478 -0.28831258 14.250113 -0.05535314 0.9940662 -0.09363977 0 0.28415403 0.10558907 0.9529467 0 0 0 0 1 0.9554452 0.026137196 -0.29400915 14.250113 -0.05590502 0.99406695 -0.09330343 0 0.2898261 0.10558289 0.9512377 0 0 0 0 1 0.95358276 0.026131887 -0.2999951 14.250113 -0.056480777 0.99406826 -0.09294225 0 0.29578683 0.10557209 0.9494023 0 0 0 0 1 0.95158076 0.026115414 -0.3062875 14.250113 -0.057074275 0.99406993 -0.09256087 0 0.3020539 0.10556029 0.94742835 0 0 0 0 1 0.9494269 0.026078617 -0.31290329 14.250113 -0.057679437 0.9940719 -0.09216392 0 0.30864483 0.10555099 0.9453028 0 0 0 0 1 0.94721407 0.02603014 -0.3195433 14.250113 -0.05827543 0.99407387 -0.09176667 0 0.31526095 0.10554421 0.9431177 0 0 0 0 1 0.9450983 0.025987666 -0.3257513 14.250113 -0.058834333 0.9940756 -0.09139034 0 0.32144642 0.10553822 0.9410281 0 0 0 0 1 0.94316506 0.025955534 -0.33130956 14.250113 -0.059339687 0.9940769 -0.09104875 0 0.326984 0.10553379 0.9391188 0 0 0 0 1 0.9415041 0.025938088 -0.33600178 14.250113 -0.05977527 0.99407756 -0.09075604 0 0.3316578 0.105531774 0.9374786 0 0 0 0 1 0.9402076 0.025939634 -0.33961275 14.250113 -0.060124956 0.99407744 -0.090526454 0 0.33525315 0.10553286 0.9361988 0 0 0 0 1 0.93936753 0.025964487 -0.34192753 14.250113 -0.0603727 0.99407625 -0.090374336 0 0.33755553 0.1055378 0.9353705 0 0 0 0 1 0.93936753 0.025964487 -0.34192753 14.250113 -0.0603727 0.99407625 -0.090374336 0 0.33755553 0.1055378 0.9353705 0 0 0 0 1</float_array>
        <technique_common>
          <accessor source="#Motion_9_Neck_transform_pose_array_id" count="16" stride="16">
            <param name="TRANSFORM" type="float4x4" />
          </accessor>
        </technique_common>
      </source>
      <sampler id="Motion_9_Neck_transform_samp_id">
        <input semantic="INPUT" source="#Motion_9_Neck_transform_frame_id" />
        <input semantic="INTERPOLATION" source="#Motion_9_Neck_transform_interp_id" />
        <input semantic="OUTPUT" source="#Motion_9_Neck_transform_pose_id" />
      </sampler>
      <channel source="#Motion_9_Neck_transform_samp_id" target="Neck_bone_id/transform" />
    </animation>
    <animation id="Motion_9_Head_transform_id" name="Motion_9_Head_transform">
      <source id="Motion_9_Head_transform_frame_id" name="Motion_9_Head_transform_frame">
        <float_array id="Motion_9_Head_transform_frame_array_id" count="16">0 0.033333335 0.06666667 0.1 0.13333334 0.16666667 0.2 0.23333333 0.26666668 0.3 0.33333334 0.36666667 0.4 0.43333334 0.46666667 0.5</float_array>
        <technique_common>
          <accessor source="#Motion_9_Head_transform_frame_array_id" count="16" stride="1">
            <param name="TIME" type="float" />
          </accessor>
        </technique_common>
      </source>
      <source id="Motion_9_Head_transform_interp_id" name="Motion_9_Head_transform_interp">
        <Name_array id="Motion_9_Head_transform_interp_array_id" count="16">LINEAR LINEAR LINEAR LINEAR LINEAR LINEAR LINEAR LINEAR LINEAR LINEAR LINEAR LINEAR LINEAR LINEAR LINEAR LINEAR</Name_array>
        <technique_common>
          <accessor source="#Motion_9_Head_transform_interp_array_id" count="16" stride="1">
            <param name="INTERPOLATION" type="Name" />
          </accessor>
        </technique_common>
      </source>
      <source id="Motion_9_Head_transform_pose_id" name="Motion_9_Head_transform_pose">
        <float_array id="Motion_9_Head_transform_pose_array_id" count="256">0.9869408 -0.057226554 0.15057555 5.699835 0.039376937 0.9921177 0.118962035 0 -0.15619645 -0.11147928 0.9814148 0 0 0 0 1 0.98616064 -0.056867875 0.1557346 5.699835 0.0384897 0.9921981 0.11858102 0 -0.16126302 -0.110945754 0.98065555 0 0 0 0 1 0.98542273 -0.056406096 0.16050056 5.699835 0.03760872 0.99232084 0.11783421 0 -0.16591462 -0.11008029 0.9799769 0 0 0 0 1 0.9848181 -0.055828176 0.16436717 5.699835 0.036773644 0.99247813 0.11676844 0 -0.16964978 -0.10895129 0.9794634 0 0 0 0 1 0.9844437 -0.05512331 0.16682914 5.699835 0.03602187 0.9926621 0.11543137 0 -0.17196792 -0.107626185 0.9792056 0 0 0 0 1 0.9843967 -0.054283153 0.1673811 5.699835 0.0353881 0.992865 0.11387136 0 -0.17236812 -0.10617129 0.97929406 0 0 0 0 1 0.98464686 -0.053338222 0.16620967 5.699835 0.034864277 0.99307966 0.11214816 0 -0.17104122 -0.10463155 0.97969234 0 0 0 0 1 0.9850135 -0.052362196 0.16433693 5.699835 0.034394793 0.99329925 0.11033429 0 -0.1690131 -0.10302843 0.9802141 0 0 0 0 1 0.98536646 -0.051411606 0.16251068 5.699835 0.03394311 0.9935171 0.10849695 0 -0.16703515 -0.10139313 0.98072356 0 0 0 0 1 0.985581 -0.050540384 0.16147998 5.699835 0.033475686 0.99372727 0.106702775 0 -0.16585985 -0.09975858 0.9810906 0 0 0 0 1 0.98553425 -0.04979992 0.16199459 5.699835 0.03296183 0.9939239 0.10501782 0 -0.16624017 -0.09815902 0.9811876 0 0 0 0 1 0.9852251 -0.04920262 0.16404451 5.699835 0.032413356 0.9941016 0.10349604 0 -0.16816919 -0.096649654 0.98100865 0 0 0 0 1 0.9848029 -0.04871781 0.1667027 5.699835 0.03188923 0.9942549 0.10217782 0 -0.17072286 -0.095309 0.9806987 0 0 0 0 1 0.98437124 -0.048332177 0.1693436 5.699835 0.03142952 0.99437875 0.10110906 0 -0.1732785 -0.09420647 0.98035693 0 0 0 0 1 0.98403984 -0.04803423 0.17134252 5.699835 0.031072566 0.9944683 0.100336276 0 -0.17521426 -0.09341084 0.98008895 0 0 0 0 1 0.98403984 -0.04803423 0.17134252 5.699835 0.031072566 0.9944683 0.100336276 0 -0.17521426 -0.09341084 0.98008895 0 0 0 0 1</float_array>
        <technique_common>
          <accessor source="#Motion_9_Head_transform_pose_array_id" count="16" stride="16">
            <param name="TRANSFORM" type="float4x4" />
          </accessor>
        </technique_common>
      </source>
      <sampler id="Motion_9_Head_transform_samp_id">
        <input semantic="INPUT" source="#Motion_9_Head_transform_frame_id" />
        <input semantic="INTERPOLATION" source="#Motion_9_Head_transform_interp_id" />
        <input semantic="OUTPUT" source="#Motion_9_Head_transform_pose_id" />
      </sampler>
      <channel source="#Motion_9_Head_transform_samp_id" target="Head_bone_id/transform" />
    </animation>
    <animation id="Motion_9_Hair_transform_id" name="Motion_9_Hair_transform">
      <source id="Motion_9_Hair_transform_frame_id" name="Motion_9_Hair_transform_frame">
        <float_array id="Motion_9_Hair_transform_frame_array_id" count="16">0 0.033333335 0.06666667 0.1 0.13333334 0.16666667 0.2 0.23333333 0.26666668 0.3 0.33333334 0.36666667 0.4 0.43333334 0.46666667 0.5</float_array>
        <technique_common>
          <accessor source="#Motion_9_Hair_transform_frame_array_id" count="16" stride="1">
            <param name="TIME" type="float" />
          </accessor>
        </technique_common>
      </source>
      <source id="Motion_9_Hair_transform_interp_id" name="Motion_9_Hair_transform_interp">
        <Name_array id="Motion_9_Hair_transform_interp_array_id" count="16">LINEAR LINEAR LINEAR LINEAR LINEAR LINEAR LINEAR LINEAR LINEAR LINEAR LINEAR LINEAR LINEAR LINEAR LINEAR LINEAR</Name_array>
        <technique_common>
          <accessor source="#Motion_9_Hair_transform_interp_array_id" count="16" stride="1">
            <param name="INTERPOLATION" type="Name" />
          </accessor>
        </technique_common>
      </source>
      <source id="Motion_9_Hair_transform_pose_id" name="Motion_9_Hair_transform_pose">
        <float_array id="Motion_9_Hair_transform_pose_array_id" count="256">-0.9413856 -0.0011286334 -0.337331 0.918594 0.00027400954 -0.9999969 0.002581088 0 -0.3373328 0.002337367 0.9413826 -15.869438 0 0 0 1 -0.932539 0.0036545894 -0.36105105 0.918594 -0.0016013862 -0.9999809 -0.0059857583 0 -0.361066 -0.00500377 0.9325268 -15.869438 0 0 0 1 -0.9282805 0.0073090345 -0.37180838 0.918594 -0.0031779185 -0.999926 -0.011722421 0 -0.3718666 -0.009700121 0.9282355 -15.869438 0 0 0 1 -0.9282918 0.010590266 -0.3717023 0.918594 -0.005836232 -0.9998864 -0.013912573 0 -0.37180734 -0.010745585 0.92824775 -15.869438 0 0 0 1 -0.93145657 0.01302606 -0.3636185 0.918594 -0.008647061 -0.99986887 -0.013668147 0 -0.36374897 -0.009587058 0.9314477 -15.869438 0 0 0 1 -0.9365221 0.01472309 -0.35029915 0.918594 -0.011295157 -0.99986625 -0.01182691 0 -0.3504264 -0.007119479 0.9365632 -15.869438 0 0 0 1 -0.9422716 0.015756676 -0.33447984 0.918594 -0.01343872 -0.9998673 -0.00924319 0 -0.334581 -0.004214611 0.9423576 -15.869438 0 0 0 1 -0.9476404 0.016036524 -0.31893662 0.918594 -0.014640566 -0.99986994 -0.0067738993 0 -0.31900373 -0.0017498087 0.9477519 -15.869438 0 0 0 1 -0.9517487 0.015205404 -0.30650175 0.918594 -0.014419274 -0.9998845 -0.0048290766 0 -0.3065397 -0.00017653452 0.95185786 -15.869438 0 0 0 1 -0.95390594 0.013135347 -0.29981837 0.918594 -0.012751824 -0.99991345 -0.0032358598 0 -0.29983494 0.0007365254 0.9539908 -15.869438 0 0 0 1 -0.95427716 0.010340819 -0.29874396 0.918594 -0.010210812 -0.99994576 -0.0019960715 0 -0.29874843 0.001145613 0.9543312 -15.869438 0 0 0 1 -0.95329547 0.007281031 -0.30195096 0.918594 -0.0072958726 -0.9999726 -0.0010786827 0 -0.3019506 0.0011746923 0.9533228 -15.869438 0 0 0 1 -0.95137787 0.004442054 -0.30799395 0.918594 -0.0045203995 -0.9999896 -0.0004590986 0 -0.30799282 0.00095547945 0.9513882 -15.869438 0 0 0 1 -0.94915974 0.0021411532 -0.31478745 0.918594 -0.0022232265 -0.9999975 -9.8323275E-05 0 -0.31478685 0.00060651917 0.9491622 -15.869438 0 0 0 1 -0.94740546 0.00059618853 -0.32003483 0.918594 -0.00064381905 -0.99999964 4.302463E-05 0 -0.3200347 0.0002468063 0.94740576 -15.869438 0 0 0 1 -0.94740546 0.00059618853 -0.32003483 0.918594 -0.00064381905 -0.99999964 4.302463E-05 0 -0.3200347 0.0002468063 0.94740576 -15.869438 0 0 0 1</float_array>
        <technique_common>
          <accessor source="#Motion_9_Hair_transform_pose_array_id" count="16" stride="16">
            <param name="TRANSFORM" type="float4x4" />
          </accessor>
        </technique_common>
      </source>
      <sampler id="Motion_9_Hair_transform_samp_id">
        <input semantic="INPUT" source="#Motion_9_Hair_transform_frame_id" />
        <input semantic="INTERPOLATION" source="#Motion_9_Hair_transform_interp_id" />
        <input semantic="OUTPUT" source="#Motion_9_Hair_transform_pose_id" />
      </sampler>
      <channel source="#Motion_9_Hair_transform_samp_id" target="Hair_bone_id/transform" />
    </animation>
  </library_animations>
  <library_visual_scenes>
    <visual_scene id="tr0078_00_fi_00_clip_id" name="tr0078_00_fi_00_clip">
      <node id="tr0078_00_fi_bone_id" name="tr0078_00_fi" sid="tr0078_00_fi" type="JOINT">
        <matrix sid="transform">1 0 0 0 0 1 0 0 0 0 1 0 0 0 0 1</matrix>
        <node id="Origin_bone_id" name="Origin" sid="Origin" type="JOINT">
          <matrix sid="transform">1 0 0 0 0 1 0 0 0 0 1 0 0 0 0 1</matrix>
          <node id="Waist_bone_id" name="Waist" sid="Waist" type="JOINT">
            <matrix sid="transform">3.1391647E-07 -1 0 0 1 3.1391647E-07 0 80.65 0 0 1 0 0 0 0 1</matrix>
            <node id="Spine2_bone_id" name="Spine2" sid="Spine2" type="JOINT">
              <matrix sid="transform">1 0 0 12.800003 0 1 0 0 0 0 1 0 0 0 0 1</matrix>
              <node id="Spine3_bone_id" name="Spine3" sid="Spine3" type="JOINT">
                <matrix sid="transform">0.9971689 0 0.07519396 12.800003 0 1 0 0 -0.07519396 0 0.9971689 0 0 0 0 1</matrix>
                <node id="Neck_bone_id" name="Neck" sid="Neck" type="JOINT">
                  <matrix sid="transform">0.97107327 0 -0.23878163 14.250113 0 1 0 0 0.23878163 0 0.97107327 0 0 0 0 1</matrix>
                  <node id="Head_bone_id" name="Head" sid="Head" type="JOINT">
                    <matrix sid="transform">0.9862791 0 0.16508679 5.699835 0 1 0 0 -0.16508679 0 0.9862791 0 0 0 0 1</matrix>
                    <node id="Hair_bone_id" name="Hair" sid="Hair" type="JOINT">
                      <matrix sid="transform">-0.94665635 -3.2584137E-07 -0.32224497 0.918594 3.084598E-07 -1 1.05000744E-07 0 -0.32224497 0 0.94665635 -15.869438 0 0 0 1</matrix>
                    </node>
                    <node id="Loc_Head_bone_id" name="Loc_Head" sid="Loc_Head" type="JOINT">
                      <matrix sid="transform">3.1391647E-07 1 0 32.15845 -1 3.1391647E-07 0 0 0 0 1 0.130562 0 0 0 1</matrix>
                    </node>
                    <node id="Loc_Eye_bone_id" name="Loc_Eye" sid="Loc_Eye" type="JOINT">
                      <matrix sid="transform">3.1391647E-07 1 0 9 -1 3.1391647E-07 0 0 0 0 1 11.187268 0 0 0 1</matrix>
                    </node>
                    <node id="Loc_Mouth_bone_id" name="Loc_Mouth" sid="Loc_Mouth" type="JOINT">
                      <matrix sid="transform">3.1391647E-07 1 0 -0.013744 -1 3.1391647E-07 0 0 0 0 1 10.835357 0 0 0 1</matrix>
                    </node>
                  </node>
                </node>
                <node id="LShoulder_bone_id" name="LShoulder" sid="LShoulder" type="JOINT">
                  <matrix sid="transform">-0.65748256 0.74970824 -0.075194746 12.810532 -0.7518368 -0.65934926 -8.489264E-08 -3.840002 -0.049579665 0.05653412 0.99716884 -0.109299 0 0 0 1</matrix>
                  <node id="LArm_bone_id" name="LArm" sid="LArm" type="JOINT">
                    <matrix sid="transform">0.7518374 -0.65934855 0 6.70358 0.65934855 0.7518374 0 0 0 0 1 0 0 0 0 1</matrix>
                    <node id="LForeArm_bone_id" name="LForeArm" sid="LForeArm" type="JOINT">
                      <matrix sid="transform">1 0 0 21.35 0 1 0 0 0 0 1 0 0 0 0 1</matrix>
                      <node id="LHand_bone_id" name="LHand" sid="LHand" type="JOINT">
                        <matrix sid="transform">1 0 0 21.35 0 1 0 0 0 0 1 0 0 0 0 1</matrix>
                      </node>
                    </node>
                  </node>
                </node>
                <node id="RShoulder_bone_id" name="RShoulder" sid="RShoulder" type="JOINT">
                  <matrix sid="transform">-0.65748256 -0.74970824 -0.075194746 12.810532 0.7518368 -0.65934926 8.489264E-08 3.840002 -0.049579665 -0.05653412 0.99716884 -0.109299 0 0 0 1</matrix>
                  <node id="RArm_bone_id" name="RArm" sid="RArm" type="JOINT">
                    <matrix sid="transform">0.7518374 0.65934855 0 6.70358 -0.65934855 0.7518374 0 0 0 0 1 0 0 0 0 1</matrix>
                    <node id="RForeArm_bone_id" name="RForeArm" sid="RForeArm" type="JOINT">
                      <matrix sid="transform">1 0 0 21.35 0 1 0 0 0 0 1 0 0 0 0 1</matrix>
                      <node id="RHand_bone_id" name="RHand" sid="RHand" type="JOINT">
                        <matrix sid="transform">1 0 0 21.35 0 1 0 0 0 0 1 0 0 0 0 1</matrix>
                      </node>
                    </node>
                  </node>
                </node>
              </node>
            </node>
            <node id="Hips_bone_id" name="Hips" sid="Hips" type="JOINT">
              <matrix sid="transform">-1 -3.2584137E-07 0 -0.010002 3.2584137E-07 -1 0 0 0 0 1 0 0 0 0 1</matrix>
              <node id="LThigh_bone_id" name="LThigh" sid="LThigh" type="JOINT">
                <matrix sid="transform">1 0 0 6.260002 0 1 0 7.1 0 0 1 0 0 0 0 1</matrix>
                <node id="LLeg_bone_id" name="LLeg" sid="LLeg" type="JOINT">
                  <matrix sid="transform">1 0 0 32.800003 0 1 0 0 0 0 1 0 0 0 0 1</matrix>
                  <node id="LFoot_bone_id" name="LFoot" sid="LFoot" type="JOINT">
                    <matrix sid="transform">3.1391647E-07 0 -1 32.8 0 1 0 0 1 0 3.1391647E-07 0 0 0 0 1</matrix>
                  </node>
                </node>
              </node>
              <node id="RThigh_bone_id" name="RThigh" sid="RThigh" type="JOINT">
                <matrix sid="transform">1 0 0 6.260002 0 1 0 -7.1 0 0 1 0 0 0 0 1</matrix>
                <node id="RLeg_bone_id" name="RLeg" sid="RLeg" type="JOINT">
                  <matrix sid="transform">1 0 0 32.800003 0 1 0 0 0 0 1 0 0 0 0 1</matrix>
                  <node id="RFoot_bone_id" name="RFoot" sid="RFoot" type="JOINT">
                    <matrix sid="transform">3.1391647E-07 0 -1 32.8 0 1 0 0 1 0 3.1391647E-07 0 0 0 0 1</matrix>
                  </node>
                </node>
              </node>
            </node>
          </node>
          <node id="CamTgtHead_bone_id" name="CamTgtHead" sid="CamTgtHead" type="JOINT">
            <matrix sid="transform">1 0 0 0 0 1 0 135.0814 0 0 1 0 0 0 0 1</matrix>
          </node>
          <node id="CamTgtBust_bone_id" name="CamTgtBust" sid="CamTgtBust" type="JOINT">
            <matrix sid="transform">1 0 0 0 0 1 0 106.25001 0 0 1 0 0 0 0 1</matrix>
          </node>
          <node id="CamTgtBody_bone_id" name="CamTgtBody" sid="CamTgtBody" type="JOINT">
            <matrix sid="transform">1 0 0 0 0 1 0 80.65 0 0 1 0 0 0 0 1</matrix>
          </node>
          <node id="CamTgtFoot_bone_id" name="CamTgtFoot" sid="CamTgtFoot" type="JOINT">
            <matrix sid="transform">1 0 0 0 0 1 0 0 0 0 1 0 0 0 0 1</matrix>
          </node>
        </node>
        <node id="tr0078_00_fi_HeadSkin_bone_id" name="tr0078_00_fi_HeadSkin" sid="tr0078_00_fi_HeadSkin" type="JOINT">
          <matrix sid="transform">1 0 0 0 0 1 0 0 0 0 1 0 0 0 0 1</matrix>
        </node>
        <node id="tr0078_00_fi_FaceSkin_bone_id" name="tr0078_00_fi_FaceSkin" sid="tr0078_00_fi_FaceSkin" type="JOINT">
          <matrix sid="transform">1 0 0 0 0 1 0 0 0 0 1 0 0 0 0 1</matrix>
        </node>
        <node id="tr0078_00_fi_BodySkin_bone_id" name="tr0078_00_fi_BodySkin" sid="tr0078_00_fi_BodySkin" type="JOINT">
          <matrix sid="transform">1 0 0 0 0 1 0 0 0 0 1 0 0 0 0 1</matrix>
        </node>
        <node id="tr0078_00_fi_PartsSkin_bone_id" name="tr0078_00_fi_PartsSkin" sid="tr0078_00_fi_PartsSkin" type="JOINT">
          <matrix sid="transform">1 0 0 0 0 1 0 0 0 0 1 0 0 0 0 1</matrix>
        </node>
      </node>
    </visual_scene>
  </library_visual_scenes>
  <scene>
    <instance_visual_scene url="#tr0078_00_fi_00_clip_id" />
  </scene>
</COLLADA>