<?xml version="1.0" encoding="utf-8"?>
<COLLADA xmlns:xsi="http://www.w3.org/2001/XMLSchema-instance" xmlns:xsd="http://www.w3.org/2001/XMLSchema" version="1.4.1" xmlns="http://www.collada.org/2005/11/COLLADASchema">
  <asset>
    <created>2026-02-17T05:46:57.0794127-05:00</created>
    <modified>2026-02-17T05:46:57.079413-05:00</modified>
    <up_axis>Y_UP</up_axis>
  </asset>
  <library_animations>
    <animation id="Motion_54_Waist_transform_id" name="Motion_54_Waist_transform">
      <source id="Motion_54_Waist_transform_frame_id" name="Motion_54_Waist_transform_frame">
        <float_array id="Motion_54_Waist_transform_frame_array_id" count="16">0 0.033333335 0.06666667 0.1 0.13333334 0.16666667 0.2 0.23333333 0.26666668 0.3 0.33333334 0.36666667 0.4 0.43333334 0.46666667 0.5</float_array>
        <technique_common>
          <accessor source="#Motion_54_Waist_transform_frame_array_id" count="16" stride="1">
            <param name="TIME" type="float" />
          </accessor>
        </technique_common>
      </source>
      <source id="Motion_54_Waist_transform_interp_id" name="Motion_54_Waist_transform_interp">
        <Name_array id="Motion_54_Waist_transform_interp_array_id" count="16">LINEAR LINEAR LINEAR LINEAR LINEAR LINEAR LINEAR LINEAR LINEAR LINEAR LINEAR LINEAR LINEAR LINEAR LINEAR LINEAR</Name_array>
        <technique_common>
          <accessor source="#Motion_54_Waist_transform_interp_array_id" count="16" stride="1">
            <param name="INTERPOLATION" type="Name" />
          </accessor>
        </technique_common>
      </source>
      <source id="Motion_54_Waist_transform_pose_id" name="Motion_54_Waist_transform_pose">
        <float_array id="Motion_54_Waist_transform_pose_array_id" count="256">-0.005826235 -0.99904835 0.04322529 0 0.984388 0.001874268 0.1760019 52.3846 -0.17591543 0.04357589 0.98344034 0 0 0 0 1 -0.005789876 -0.9990757 0.04259423 0 0.98430437 0.0018193722 0.17647034 52.382183 -0.17638472 0.042947397 0.98338395 0.0016314969 0 0 0 1 -0.0057475567 -0.9991079 0.041837774 0 0.98418885 0.00175488 0.17711353 52.379745 -0.17702895 0.042194247 0.98330075 0.0031623056 0 0 0 1 -0.005702257 -0.9991401 0.04106736 0 0.9840432 0.0016970038 0.17792135 52.37736 -0.17783806 0.04142662 0.9831874 0.0044926396 0 0 0 1 -0.0056569576 -0.99916786 0.040394336 0 0.9838689 0.0016615391 0.1788839 52.375122 -0.17880215 0.04075466 0.98304063 0.005522711 0 0 0 1 -0.0056142807 -0.99918675 0.039930142 0 0.9836669 0.0016658306 0.179991 52.3731 -0.17991114 0.040288463 0.98285747 0.0061527337 0 0 0 1 -0.0055629015 -0.99919605 0.039701708 0 0.9834542 0.0017223954 0.18114841 52.371384 -0.18107116 0.04005254 0.9826541 0.0062829214 0 0 0 1 -0.0054779053 -0.9991983 0.039659135 0 0.98326254 0.0018405318 0.18218522 52.37005 -0.18211216 0.039993346 0.9824641 0.005813485 0 0 0 1 -0.0053417683 -0.9991934 0.03979872 0 0.98311514 0.0020323396 0.18297657 52.369175 -0.18290988 0.040104143 0.98231137 0.00464464 0 0 0 1 -0.005136013 -0.99918306 0.040083274 0 0.98302996 0.0023055077 0.18343043 52.368847 -0.183373 0.04034517 0.98221517 0.0026765997 0 0 0 1 -0.004840851 -0.99917066 0.040429845 0 0.98301613 0.0026624203 0.18349968 52.369144 -0.18345514 0.040631488 0.982188 -0.0001904238 0 0 0 1 -0.0044362545 -0.99915886 0.040765777 0 0.9830843 0.0031066537 0.18312685 52.370148 -0.18309946 0.040888608 0.9822437 -0.004056218 0 0 0 1 -0.0039024353 -0.99915063 0.041018255 0 0.98324454 0.0036418438 0.18225443 52.371155 -0.18224904 0.04104223 0.98239547 -0.009020567 0 0 0 1 -0.0032565594 -0.99914926 0.04111056 0 0.98350626 0.004234493 0.18082458 52.371506 -0.18084483 0.041021362 0.98265576 -0.0151832625 0 0 0 1 -0.002534151 -0.9991574 0.040963992 0 0.9838773 0.0048342943 0.17877924 52.37134 -0.17882665 0.04075659 0.9830361 -0.021078499 0 0 0 1 -0.002534151 -0.9991574 0.040963992 0 0.9838773 0.0048342943 0.17877924 52.37134 -0.17882665 0.04075659 0.9830361 -0.021078499 0 0 0 1</float_array>
        <technique_common>
          <accessor source="#Motion_54_Waist_transform_pose_array_id" count="16" stride="16">
            <param name="TRANSFORM" type="float4x4" />
          </accessor>
        </technique_common>
      </source>
      <sampler id="Motion_54_Waist_transform_samp_id">
        <input semantic="INPUT" source="#Motion_54_Waist_transform_frame_id" />
        <input semantic="INTERPOLATION" source="#Motion_54_Waist_transform_interp_id" />
        <input semantic="OUTPUT" source="#Motion_54_Waist_transform_pose_id" />
      </sampler>
      <channel source="#Motion_54_Waist_transform_samp_id" target="Waist_bone_id/transform" />
    </animation>
    <animation id="Motion_54_Hips_transform_id" name="Motion_54_Hips_transform">
      <source id="Motion_54_Hips_transform_frame_id" name="Motion_54_Hips_transform_frame">
        <float_array id="Motion_54_Hips_transform_frame_array_id" count="16">0 0.033333335 0.06666667 0.1 0.13333334 0.16666667 0.2 0.23333333 0.26666668 0.3 0.33333334 0.36666667 0.4 0.43333334 0.46666667 0.5</float_array>
        <technique_common>
          <accessor source="#Motion_54_Hips_transform_frame_array_id" count="16" stride="1">
            <param name="TIME" type="float" />
          </accessor>
        </technique_common>
      </source>
      <source id="Motion_54_Hips_transform_interp_id" name="Motion_54_Hips_transform_interp">
        <Name_array id="Motion_54_Hips_transform_interp_array_id" count="16">LINEAR LINEAR LINEAR LINEAR LINEAR LINEAR LINEAR LINEAR LINEAR LINEAR LINEAR LINEAR LINEAR LINEAR LINEAR LINEAR</Name_array>
        <technique_common>
          <accessor source="#Motion_54_Hips_transform_interp_array_id" count="16" stride="1">
            <param name="INTERPOLATION" type="Name" />
          </accessor>
        </technique_common>
      </source>
      <source id="Motion_54_Hips_transform_pose_id" name="Motion_54_Hips_transform_pose">
        <float_array id="Motion_54_Hips_transform_pose_array_id" count="256">-0.6722444 0.0009219283 0.7403287 -0.010002 0.0048629097 -0.9999722 0.0056609535 0 0.74031335 0.007405696 0.6722212 0 0 0 0 1 -0.6722263 0.00023481692 0.7403456 -0.010002 0.005244447 -0.9999733 0.005079069 0 0.740327 0.007296988 0.67220724 0 0 0 0 1 -0.6721802 -0.00044196285 0.7403875 -0.010002 0.005579575 -0.9999745 0.0044686436 0 0.74036664 0.0071347808 0.67216545 0 0 0 0 1 -0.6721511 -0.0008934832 0.7404131 -0.010002 0.005741899 -0.9999752 0.004005822 0 0.74039143 0.006943897 0.67214 0 0 0 0 1 -0.672186 -0.0009045305 0.74038166 -0.010002 0.0056049163 -0.99997675 0.0038669747 0 0.74036103 0.0067491042 0.6721756 0 0 0 0 1 -0.67233 -0.0002594574 0.7402515 -0.010002 0.005041602 -0.9999783 0.004228521 0 0.7402343 0.0065750154 0.6723168 0 0 0 0 1 -0.6725135 0.00065065874 0.74008495 -0.010002 0.004312456 -0.9999795 0.004797868 0 0.74007267 0.006418213 0.6724963 0 0 0 0 1 -0.6726427 0.0013072233 0.7399663 -0.010002 0.003759073 -0.9999795 0.005183628 0 0.7399579 0.006268317 0.672624 0 0 0 0 1 -0.67272806 0.001732553 0.7398875 -0.010002 0.0033777193 -0.9999794 0.005412721 0 0.73988175 0.006140423 0.67270887 0 0 0 0 1 -0.67277944 0.0019489492 0.7398406 -0.010002 0.0031645962 -0.99997985 0.0055119772 0 0.73983645 0.006049641 0.6727596 0 0 0 0 1 -0.6728051 0.0019800095 0.7398169 -0.010002 0.0031145532 -0.99997973 0.005508738 0 0.73981297 0.0060105077 0.67278576 0 0 0 0 1 -0.6728157 0.001847592 0.739808 -0.010002 0.0032241696 -0.9999802 0.005429553 0 0.73980325 0.006038354 0.67279613 0 0 0 0 1 -0.672819 0.0015750795 0.7398052 -0.010002 0.0034884864 -0.99997973 0.0053016227 0 0.73979867 0.0061478345 0.6728002 0 0 0 0 1 -0.6728252 0.0011845558 0.7398003 -0.010002 0.0039038635 -0.9999789 0.0051515917 0 0.739791 0.006354201 0.67280674 0 0 0 0 1 -0.6728432 0.0006991951 0.73978466 -0.010002 0.004465578 -0.99997735 0.0050066104 0 0.73977154 0.0066722305 0.67282504 0 0 0 0 1 -0.6728432 0.0006991951 0.73978466 -0.010002 0.004465578 -0.99997735 0.0050066104 0 0.73977154 0.0066722305 0.67282504 0 0 0 0 1</float_array>
        <technique_common>
          <accessor source="#Motion_54_Hips_transform_pose_array_id" count="16" stride="16">
            <param name="TRANSFORM" type="float4x4" />
          </accessor>
        </technique_common>
      </source>
      <sampler id="Motion_54_Hips_transform_samp_id">
        <input semantic="INPUT" source="#Motion_54_Hips_transform_frame_id" />
        <input semantic="INTERPOLATION" source="#Motion_54_Hips_transform_interp_id" />
        <input semantic="OUTPUT" source="#Motion_54_Hips_transform_pose_id" />
      </sampler>
      <channel source="#Motion_54_Hips_transform_samp_id" target="Hips_bone_id/transform" />
    </animation>
    <animation id="Motion_54_RThigh_transform_id" name="Motion_54_RThigh_transform">
      <source id="Motion_54_RThigh_transform_frame_id" name="Motion_54_RThigh_transform_frame">
        <float_array id="Motion_54_RThigh_transform_frame_array_id" count="16">0 0.033333335 0.06666667 0.1 0.13333334 0.16666667 0.2 0.23333333 0.26666668 0.3 0.33333334 0.36666667 0.4 0.43333334 0.46666667 0.5</float_array>
        <technique_common>
          <accessor source="#Motion_54_RThigh_transform_frame_array_id" count="16" stride="1">
            <param name="TIME" type="float" />
          </accessor>
        </technique_common>
      </source>
      <source id="Motion_54_RThigh_transform_interp_id" name="Motion_54_RThigh_transform_interp">
        <Name_array id="Motion_54_RThigh_transform_interp_array_id" count="16">LINEAR LINEAR LINEAR LINEAR LINEAR LINEAR LINEAR LINEAR LINEAR LINEAR LINEAR LINEAR LINEAR LINEAR LINEAR LINEAR</Name_array>
        <technique_common>
          <accessor source="#Motion_54_RThigh_transform_interp_array_id" count="16" stride="1">
            <param name="INTERPOLATION" type="Name" />
          </accessor>
        </technique_common>
      </source>
      <source id="Motion_54_RThigh_transform_pose_id" name="Motion_54_RThigh_transform_pose">
        <float_array id="Motion_54_RThigh_transform_pose_array_id" count="256">0.8786664 0.23613125 -0.41495463 11.299995 -0.30079395 0.9487384 -0.09704852 -7.8 0.3707672 0.21008912 0.90465146 0 0 0 0 1 0.87914306 0.2353262 -0.41440204 11.299995 -0.3000987 0.9488802 -0.0978115 -7.8 0.3702003 0.21035182 0.9048225 0 0 0 0 1 0.8797786 0.23431027 -0.41362825 11.299995 -0.29913676 0.94910073 -0.09861532 -7.8 0.3694683 0.21049106 0.9050893 0 0 0 0 1 0.88044703 0.23345043 -0.41269103 11.299995 -0.29820484 0.9493351 -0.09918043 -7.8 0.36862835 0.21038958 0.90545535 0 0 0 0 1 0.88102365 0.23311386 -0.4116494 11.299995 -0.29760078 0.94951963 -0.099227995 -7.8 0.36773777 0.20992938 0.90592414 0 0 0 0 1 0.88138443 0.2336675 -0.41056183 11.299995 -0.29762322 0.9495905 -0.09847978 -7.8 0.3668541 0.20899126 0.90649915 0 0 0 0 1 0.88156575 0.23476635 -0.40954435 11.299995 -0.29814857 0.94952947 -0.097474225 -7.8 0.36599076 0.20803502 0.9070679 0 0 0 0 1 0.88168305 0.23576874 -0.40871516 11.299995 -0.2987997 0.94938165 -0.09691867 -7.8 0.3651763 0.20757553 0.90750134 0 0 0 0 1 0.88173026 0.23659617 -0.40813485 11.299995 -0.29949522 0.9491758 -0.09678824 -7.8 0.36449197 0.20757554 0.9077764 0 0 0 0 1 0.88170135 0.23716985 -0.40786412 11.299995 -0.30015415 0.9489401 -0.09705776 -7.8 0.36401942 0.20799807 0.9078693 0 0 0 0 1 0.88159084 0.23741052 -0.40796298 11.299995 -0.3006958 0.94870245 -0.09770184 -7.8 0.36384004 0.2088058 0.9077558 0 0 0 0 1 0.8813926 0.2372385 -0.4084911 11.299995 -0.30104008 0.94849044 -0.098695055 -7.8 0.36403564 0.20996128 0.9074108 0 0 0 0 1 0.8810998 0.23657352 -0.4095071 11.299995 -0.30110747 0.9483311 -0.10001224 -7.8 0.36468804 0.2114264 0.90680844 0 0 0 0 1 0.8807041 0.23535177 -0.4110594 11.299995 -0.30080435 0.9482636 -0.10155246 -7.8 0.36589214 0.21308613 0.90593445 0 0 0 0 1 0.88019454 0.23352045 -0.41318977 11.299995 -0.30002797 0.94833535 -0.10316637 -7.8 0.367751 0.21477497 0.90478224 0 0 0 0 1 0.88019454 0.23352045 -0.41318977 11.299995 -0.30002797 0.94833535 -0.10316637 -7.8 0.367751 0.21477497 0.90478224 0 0 0 0 1</float_array>
        <technique_common>
          <accessor source="#Motion_54_RThigh_transform_pose_array_id" count="16" stride="16">
            <param name="TRANSFORM" type="float4x4" />
          </accessor>
        </technique_common>
      </source>
      <sampler id="Motion_54_RThigh_transform_samp_id">
        <input semantic="INPUT" source="#Motion_54_RThigh_transform_frame_id" />
        <input semantic="INTERPOLATION" source="#Motion_54_RThigh_transform_interp_id" />
        <input semantic="OUTPUT" source="#Motion_54_RThigh_transform_pose_id" />
      </sampler>
      <channel source="#Motion_54_RThigh_transform_samp_id" target="RThigh_bone_id/transform" />
    </animation>
    <animation id="Motion_54_RLeg_transform_id" name="Motion_54_RLeg_transform">
      <source id="Motion_54_RLeg_transform_frame_id" name="Motion_54_RLeg_transform_frame">
        <float_array id="Motion_54_RLeg_transform_frame_array_id" count="16">0 0.033333335 0.06666667 0.1 0.13333334 0.16666667 0.2 0.23333333 0.26666668 0.3 0.33333334 0.36666667 0.4 0.43333334 0.46666667 0.5</float_array>
        <technique_common>
          <accessor source="#Motion_54_RLeg_transform_frame_array_id" count="16" stride="1">
            <param name="TIME" type="float" />
          </accessor>
        </technique_common>
      </source>
      <source id="Motion_54_RLeg_transform_interp_id" name="Motion_54_RLeg_transform_interp">
        <Name_array id="Motion_54_RLeg_transform_interp_array_id" count="16">LINEAR LINEAR LINEAR LINEAR LINEAR LINEAR LINEAR LINEAR LINEAR LINEAR LINEAR LINEAR LINEAR LINEAR LINEAR LINEAR</Name_array>
        <technique_common>
          <accessor source="#Motion_54_RLeg_transform_interp_array_id" count="16" stride="1">
            <param name="INTERPOLATION" type="Name" />
          </accessor>
        </technique_common>
      </source>
      <source id="Motion_54_RLeg_transform_pose_id" name="Motion_54_RLeg_transform_pose">
        <float_array id="Motion_54_RLeg_transform_pose_array_id" count="256">0.03518164 0 0.99938095 34.3 0 1 0 0 -0.99938095 0 0.03518164 0 0 0 0 1 0.035134256 0 0.9993826 34.3 0 1 0 0 -0.9993826 0 0.035134256 0 0 0 0 1 0.03504765 0 0.99938565 34.3 0 1 0 0 -0.99938565 0 0.03504765 0 0 0 0 1 0.034940302 0 0.99938935 34.3 0 1 0 0 -0.99938935 0 0.034940302 0 0 0 0 1 0.034831524 0 0.9993932 34.3 0 1 0 0 -0.9993932 0 0.034831524 0 0 0 0 1 0.034739614 0 0.99939644 34.3 0 1 0 0 -0.99939644 0 0.034739614 0 0 0 0 1 0.034683287 0 0.99939835 34.3 0 1 0 0 -0.99939835 0 0.034683287 0 0 0 0 1 0.03468144 0 0.9993984 34.3 0 1 0 0 -0.9993984 0 0.03468144 0 0 0 0 1 0.034752667 0 0.9993959 34.3 0 1 0 0 -0.9993959 0 0.034752667 0 0 0 0 1 0.034915626 0 0.9993903 34.3 0 1 0 0 -0.9993903 0 0.034915626 0 0 0 0 1 0.03518939 0 0.9993807 34.3 0 1 0 0 -0.9993807 0 0.03518939 0 0 0 0 1 0.035592437 0 0.9993664 34.3 0 1 0 0 -0.9993664 0 0.035592437 0 0 0 0 1 0.036028266 0 0.9993508 34.3 0 1 0 0 -0.9993508 0 0.036028266 0 0 0 0 1 0.036382794 0 0.9993379 34.3 0 1 0 0 -0.9993379 0 0.036382794 0 0 0 0 1 0.036646903 0 0.9993283 34.3 0 1 0 0 -0.9993283 0 0.036646903 0 0 0 0 1 0.036646903 0 0.9993283 34.3 0 1 0 0 -0.9993283 0 0.036646903 0 0 0 0 1</float_array>
        <technique_common>
          <accessor source="#Motion_54_RLeg_transform_pose_array_id" count="16" stride="16">
            <param name="TRANSFORM" type="float4x4" />
          </accessor>
        </technique_common>
      </source>
      <sampler id="Motion_54_RLeg_transform_samp_id">
        <input semantic="INPUT" source="#Motion_54_RLeg_transform_frame_id" />
        <input semantic="INTERPOLATION" source="#Motion_54_RLeg_transform_interp_id" />
        <input semantic="OUTPUT" source="#Motion_54_RLeg_transform_pose_id" />
      </sampler>
      <channel source="#Motion_54_RLeg_transform_samp_id" target="RLeg_bone_id/transform" />
    </animation>
    <animation id="Motion_54_RFoot_transform_id" name="Motion_54_RFoot_transform">
      <source id="Motion_54_RFoot_transform_frame_id" name="Motion_54_RFoot_transform_frame">
        <float_array id="Motion_54_RFoot_transform_frame_array_id" count="16">0 0.033333335 0.06666667 0.1 0.13333334 0.16666667 0.2 0.23333333 0.26666668 0.3 0.33333334 0.36666667 0.4 0.43333334 0.46666667 0.5</float_array>
        <technique_common>
          <accessor source="#Motion_54_RFoot_transform_frame_array_id" count="16" stride="1">
            <param name="TIME" type="float" />
          </accessor>
        </technique_common>
      </source>
      <source id="Motion_54_RFoot_transform_interp_id" name="Motion_54_RFoot_transform_interp">
        <Name_array id="Motion_54_RFoot_transform_interp_array_id" count="16">LINEAR LINEAR LINEAR LINEAR LINEAR LINEAR LINEAR LINEAR LINEAR LINEAR LINEAR LINEAR LINEAR LINEAR LINEAR LINEAR</Name_array>
        <technique_common>
          <accessor source="#Motion_54_RFoot_transform_interp_array_id" count="16" stride="1">
            <param name="INTERPOLATION" type="Name" />
          </accessor>
        </technique_common>
      </source>
      <source id="Motion_54_RFoot_transform_pose_id" name="Motion_54_RFoot_transform_pose">
        <float_array id="Motion_54_RFoot_transform_pose_array_id" count="256">-0.12294936 0.041619368 -0.99153996 34.3 -0.09371293 0.9941688 0.053349964 0 0.98797846 0.099479444 -0.11833215 0 0 0 0 1 -0.12310636 0.041768596 -0.9915141 34.3 -0.09372136 0.9941591 0.053516448 0 0.9879581 0.09951426 -0.118472695 0 0 0 0 1 -0.123273015 0.04186351 -0.9914894 34.3 -0.09367392 0.99415785 0.05362276 0 0.98794174 0.09948694 -0.11863124 0 0 0 0 1 -0.1234386 0.041919973 -0.99146646 34.3 -0.0935778 0.9941636 0.05368454 0 0.98793024 0.099406 -0.118795395 0 0 0 0 1 -0.12359202 0.04195385 -0.9914459 34.3 -0.09344016 0.9941747 0.053717427 0 0.9879241 0.0992799 -0.11895192 0 0 0 0 1 -0.12372255 0.041980967 -0.9914284 34.3 -0.093268126 0.9941898 0.05373703 0 0.987924 0.099117145 -0.11908817 0 0 0 0 1 -0.123818755 0.042017184 -0.9914148 34.3 -0.093068875 0.9942073 0.053759016 0 0.98793066 0.09892625 -0.11919105 0 0 0 0 1 -0.123870134 0.042078335 -0.9914058 34.3 -0.09284955 0.9942256 0.05379902 0 0.9879448 0.09871569 -0.11924791 0 0 0 0 1 -0.12386584 0.042180218 -0.9914021 34.3 -0.09261728 0.9942433 0.053872705 0 0.9879673 0.09849395 -0.119246125 0 0 0 0 1 -0.12379432 0.04233866 -0.99140424 34.3 -0.09237922 0.99425876 0.053995743 0 0.9879984 0.09826952 -0.119172454 0 0 0 0 1 -0.12364483 0.042569485 -0.99141306 34.3 -0.09214254 0.9942705 0.0541838 0 0.9880393 0.09805086 -0.119013906 0 0 0 0 1 -0.12340617 0.0428885 -0.991429 34.3 -0.09191441 0.99427694 0.054452572 0 0.9880904 0.0978464 -0.118757844 0 0 0 0 1 -0.12306774 0.043311544 -0.9914527 34.3 -0.09170205 0.9942765 0.05481776 0 0.9881524 0.09766454 -0.11839163 0 0 0 0 1 -0.122618556 0.043854468 -0.99148446 34.3 -0.09151272 0.9942675 0.055295087 0 0.98822576 0.09751364 -0.1179024 0 0 0 0 1 -0.12204754 0.04453315 -0.9915248 34.3 -0.09135376 0.9942483 0.05590026 0 0.9883113 0.09740199 -0.117277384 0 0 0 0 1 -0.12204754 0.04453315 -0.9915248 34.3 -0.09135376 0.9942483 0.05590026 0 0.9883113 0.09740199 -0.117277384 0 0 0 0 1</float_array>
        <technique_common>
          <accessor source="#Motion_54_RFoot_transform_pose_array_id" count="16" stride="16">
            <param name="TRANSFORM" type="float4x4" />
          </accessor>
        </technique_common>
      </source>
      <sampler id="Motion_54_RFoot_transform_samp_id">
        <input semantic="INPUT" source="#Motion_54_RFoot_transform_frame_id" />
        <input semantic="INTERPOLATION" source="#Motion_54_RFoot_transform_interp_id" />
        <input semantic="OUTPUT" source="#Motion_54_RFoot_transform_pose_id" />
      </sampler>
      <channel source="#Motion_54_RFoot_transform_samp_id" target="RFoot_bone_id/transform" />
    </animation>
    <animation id="Motion_54_LThigh_transform_id" name="Motion_54_LThigh_transform">
      <source id="Motion_54_LThigh_transform_frame_id" name="Motion_54_LThigh_transform_frame">
        <float_array id="Motion_54_LThigh_transform_frame_array_id" count="16">0 0.033333335 0.06666667 0.1 0.13333334 0.16666667 0.2 0.23333333 0.26666668 0.3 0.33333334 0.36666667 0.4 0.43333334 0.46666667 0.5</float_array>
        <technique_common>
          <accessor source="#Motion_54_LThigh_transform_frame_array_id" count="16" stride="1">
            <param name="TIME" type="float" />
          </accessor>
        </technique_common>
      </source>
      <source id="Motion_54_LThigh_transform_interp_id" name="Motion_54_LThigh_transform_interp">
        <Name_array id="Motion_54_LThigh_transform_interp_array_id" count="16">LINEAR LINEAR LINEAR LINEAR LINEAR LINEAR LINEAR LINEAR LINEAR LINEAR LINEAR LINEAR LINEAR LINEAR LINEAR LINEAR</Name_array>
        <technique_common>
          <accessor source="#Motion_54_LThigh_transform_interp_array_id" count="16" stride="1">
            <param name="INTERPOLATION" type="Name" />
          </accessor>
        </technique_common>
      </source>
      <source id="Motion_54_LThigh_transform_pose_id" name="Motion_54_LThigh_transform_pose">
        <float_array id="Motion_54_LThigh_transform_pose_array_id" count="256">0.9083123 -0.095194735 -0.40731645 11.300003 0.13441324 0.9885406 0.068706624 7.8 0.39610833 -0.1171558 0.910699 0 0 0 0 1 0.9083011 -0.09635625 -0.4070683 11.300003 0.13525769 0.9884865 0.06782119 7.8 0.39584655 -0.116661176 0.91087633 0 0 0 0 1 0.9083667 -0.097735345 -0.4065929 11.300003 0.13631181 0.9884015 0.06694496 7.8 0.39533412 -0.11623399 0.91115344 0 0 0 0 1 0.9085424 -0.098989 -0.40589643 11.300003 0.13733351 0.98829824 0.06637815 7.8 0.394576 -0.11605054 0.91150534 0 0 0 0 1 0.90886265 -0.09977476 -0.40498605 11.300003 0.13808024 0.98819137 0.0664206 7.8 0.3935766 -0.11628777 0.91190714 0 0 0 0 1 0.90936244 -0.099750735 -0.40386853 11.300003 0.1383084 0.98809505 0.06737159 7.8 0.39234015 -0.117123604 0.9123329 0 0 0 0 1 0.9100102 -0.09924482 -0.40253186 11.300003 0.1381544 0.9880231 0.06872931 7.8 0.39088976 -0.11815593 0.9128222 0 0 0 0 1 0.9106296 -0.0988189 -0.40123382 11.300003 0.13795128 0.987979 0.06976363 7.8 0.38951662 -0.11887954 0.9133151 0 0 0 0 1 0.9110778 -0.098488286 -0.4002965 11.300003 0.1377472 0.9879596 0.07043767 7.8 0.3885395 -0.119313926 0.9136746 0 0 0 0 1 0.91131985 -0.09828545 -0.3997951 11.300003 0.1375822 0.9879615 0.0707341 7.8 0.38803002 -0.11946608 0.91387117 0 0 0 0 1 0.91132027 -0.09824316 -0.3998045 11.300003 0.13749585 0.98798054 0.070635565 7.8 0.3880596 -0.11934308 0.9138747 0 0 0 0 1 0.91104287 -0.098394684 -0.40039906 11.300003 0.13752708 0.98801255 0.070124716 7.8 0.38869938 -0.118952334 0.91365373 0 0 0 0 1 0.91045004 -0.09876809 -0.40165353 11.300003 0.1377195 0.98805016 0.06921111 7.8 0.390018 -0.11832878 0.91317266 0 0 0 0 1 0.9095023 -0.09938027 -0.40364468 11.300003 0.1381269 0.98808026 0.06795839 7.8 0.3920796 -0.11756251 0.91238844 0 0 0 0 1 0.9081579 -0.10024829 -0.4064475 11.300003 0.13880232 0.98808956 0.06642954 7.8 0.39494708 -0.11674437 0.911256 0 0 0 0 1 0.9081579 -0.10024829 -0.4064475 11.300003 0.13880232 0.98808956 0.06642954 7.8 0.39494708 -0.11674437 0.911256 0 0 0 0 1</float_array>
        <technique_common>
          <accessor source="#Motion_54_LThigh_transform_pose_array_id" count="16" stride="16">
            <param name="TRANSFORM" type="float4x4" />
          </accessor>
        </technique_common>
      </source>
      <sampler id="Motion_54_LThigh_transform_samp_id">
        <input semantic="INPUT" source="#Motion_54_LThigh_transform_frame_id" />
        <input semantic="INTERPOLATION" source="#Motion_54_LThigh_transform_interp_id" />
        <input semantic="OUTPUT" source="#Motion_54_LThigh_transform_pose_id" />
      </sampler>
      <channel source="#Motion_54_LThigh_transform_samp_id" target="LThigh_bone_id/transform" />
    </animation>
    <animation id="Motion_54_LLeg_transform_id" name="Motion_54_LLeg_transform">
      <source id="Motion_54_LLeg_transform_frame_id" name="Motion_54_LLeg_transform_frame">
        <float_array id="Motion_54_LLeg_transform_frame_array_id" count="16">0 0.033333335 0.06666667 0.1 0.13333334 0.16666667 0.2 0.23333333 0.26666668 0.3 0.33333334 0.36666667 0.4 0.43333334 0.46666667 0.5</float_array>
        <technique_common>
          <accessor source="#Motion_54_LLeg_transform_frame_array_id" count="16" stride="1">
            <param name="TIME" type="float" />
          </accessor>
        </technique_common>
      </source>
      <source id="Motion_54_LLeg_transform_interp_id" name="Motion_54_LLeg_transform_interp">
        <Name_array id="Motion_54_LLeg_transform_interp_array_id" count="16">LINEAR LINEAR LINEAR LINEAR LINEAR LINEAR LINEAR LINEAR LINEAR LINEAR LINEAR LINEAR LINEAR LINEAR LINEAR LINEAR</Name_array>
        <technique_common>
          <accessor source="#Motion_54_LLeg_transform_interp_array_id" count="16" stride="1">
            <param name="INTERPOLATION" type="Name" />
          </accessor>
        </technique_common>
      </source>
      <source id="Motion_54_LLeg_transform_pose_id" name="Motion_54_LLeg_transform_pose">
        <float_array id="Motion_54_LLeg_transform_pose_array_id" count="256">0.029915452 0 0.99955237 34.299995 0 1 0 0 -0.99955237 0 0.029915452 0 0 0 0 1 0.029401302 0 0.9995677 34.299995 0 1 0 0 -0.9995677 0 0.029401302 0 0 0 0 1 0.028882384 0 0.9995828 34.299995 0 1 0 0 -0.9995828 0 0.028882384 0 0 0 0 1 0.02841866 0 0.99959606 34.299995 0 1 0 0 -0.99959606 0 0.02841866 0 0 0 0 1 0.028069496 0 0.99960595 34.299995 0 1 0 0 -0.99960595 0 0.028069496 0 0 0 0 1 0.027894616 0 0.99961084 34.299995 0 1 0 0 -0.99961084 0 0.027894616 0 0 0 0 1 0.027953804 0 0.9996093 34.299995 0 1 0 0 -0.9996093 0 0.027953804 0 0 0 0 1 0.028306663 0 0.99959934 34.299995 0 1 0 0 -0.99959934 0 0.028306663 0 0 0 0 1 0.028792322 0 0.9995855 34.299995 0 1 0 0 -0.9995855 0 0.028792322 0 0 0 0 1 0.029195368 0 0.99957365 34.299995 0 1 0 0 -0.99957365 0 0.029195368 0 0 0 0 1 0.029493153 0 0.999565 34.299995 0 1 0 0 -0.999565 0 0.029493153 0 0 0 0 1 0.029663384 0 0.99955994 34.299995 0 1 0 0 -0.99955994 0 0.029663384 0 0 0 0 1 0.029683352 0 0.9995594 34.299995 0 1 0 0 -0.9995594 0 0.029683352 0 0 0 0 1 0.029530883 0 0.99956393 34.299995 0 1 0 0 -0.99956393 0 0.029530883 0 0 0 0 1 0.029183567 0 0.99957407 34.299995 0 1 0 0 -0.99957407 0 0.029183567 0 0 0 0 1 0.029183567 0 0.99957407 34.299995 0 1 0 0 -0.99957407 0 0.029183567 0 0 0 0 1</float_array>
        <technique_common>
          <accessor source="#Motion_54_LLeg_transform_pose_array_id" count="16" stride="16">
            <param name="TRANSFORM" type="float4x4" />
          </accessor>
        </technique_common>
      </source>
      <sampler id="Motion_54_LLeg_transform_samp_id">
        <input semantic="INPUT" source="#Motion_54_LLeg_transform_frame_id" />
        <input semantic="INTERPOLATION" source="#Motion_54_LLeg_transform_interp_id" />
        <input semantic="OUTPUT" source="#Motion_54_LLeg_transform_pose_id" />
      </sampler>
      <channel source="#Motion_54_LLeg_transform_samp_id" target="LLeg_bone_id/transform" />
    </animation>
    <animation id="Motion_54_LFoot_transform_id" name="Motion_54_LFoot_transform">
      <source id="Motion_54_LFoot_transform_frame_id" name="Motion_54_LFoot_transform_frame">
        <float_array id="Motion_54_LFoot_transform_frame_array_id" count="16">0 0.033333335 0.06666667 0.1 0.13333334 0.16666667 0.2 0.23333333 0.26666668 0.3 0.33333334 0.36666667 0.4 0.43333334 0.46666667 0.5</float_array>
        <technique_common>
          <accessor source="#Motion_54_LFoot_transform_frame_array_id" count="16" stride="1">
            <param name="TIME" type="float" />
          </accessor>
        </technique_common>
      </source>
      <source id="Motion_54_LFoot_transform_interp_id" name="Motion_54_LFoot_transform_interp">
        <Name_array id="Motion_54_LFoot_transform_interp_array_id" count="16">LINEAR LINEAR LINEAR LINEAR LINEAR LINEAR LINEAR LINEAR LINEAR LINEAR LINEAR LINEAR LINEAR LINEAR LINEAR LINEAR</Name_array>
        <technique_common>
          <accessor source="#Motion_54_LFoot_transform_interp_array_id" count="16" stride="1">
            <param name="INTERPOLATION" type="Name" />
          </accessor>
        </technique_common>
      </source>
      <source id="Motion_54_LFoot_transform_pose_id" name="Motion_54_LFoot_transform_pose">
        <float_array id="Motion_54_LFoot_transform_pose_array_id" count="256">-0.122502565 -0.030442815 -0.9920012 34.3 0.13277759 0.9900413 -0.046779417 0 0.98354626 -0.13744614 -0.11724043 0 0 0 0 1 -0.122758865 -0.030271284 -0.99197465 34.3 0.1328099 0.99004316 -0.046647847 0 0.98350984 -0.13747051 -0.11751628 0 0 0 0 1 -0.123057246 -0.030173961 -0.9919408 34.3 0.13278617 0.9900491 -0.046589486 0 0.98347586 -0.13744918 -0.117826104 0 0 0 0 1 -0.12337327 -0.030142698 -0.99190235 34.3 0.13271673 0.9900582 -0.04659404 0 0.9834455 -0.13739051 -0.1181463 0 0 0 0 1 -0.123682976 -0.030169297 -0.9918629 34.3 0.13261199 0.99006957 -0.04665117 0 0.9834207 -0.13730289 -0.11845398 0 0 0 0 1 -0.12396264 -0.030245569 -0.9918259 34.3 0.13248228 0.99008226 -0.046750598 0 0.98340315 -0.13719466 -0.11872625 0 0 0 0 1 -0.12418771 -0.030363277 -0.99179417 34.3 0.13233796 0.9900953 -0.04688198 0 0.9833942 -0.13707417 -0.1189394 0 0 0 0 1 -0.124334335 -0.030514244 -0.991771 34.3 0.13218942 0.9901079 -0.047035135 0 0.9833956 -0.13694972 -0.11907065 0 0 0 0 1 -0.12437832 -0.030690253 -0.9917601 34.3 0.13204704 0.99011904 -0.047199722 0 0.9834091 -0.13682961 -0.119096756 0 0 0 0 1 -0.12429607 -0.030883078 -0.9917645 34.3 0.13192126 0.9901279 -0.04736557 0 0.9834365 -0.13672218 -0.11899495 0 0 0 0 1 -0.12405813 -0.03104996 -0.99178904 34.3 0.13178805 0.99014 -0.047483068 0 0.9834843 -0.13659659 -0.11874294 0 0 0 0 1 -0.123636365 -0.031150773 -0.9918385 34.3 0.13162608 0.99016047 -0.04750575 0 0.9835592 -0.13642526 -0.11831963 0 0 0 0 1 -0.1230942 -0.031174947 -0.9919051 34.3 0.13144594 0.9901879 -0.04743326 0 0.98365116 -0.13622068 -0.11778867 0 0 0 0 1 -0.12253213 -0.031057883 -0.99197847 34.3 0.13130729 0.9902164 -0.04722217 0 0.9837399 -0.13604024 -0.11725509 0 0 0 0 1 -0.12198126 -0.0307629 -0.99205554 34.3 0.13125029 0.9902418 -0.046844944 0 0.983816 -0.13592178 -0.11675334 0 0 0 0 1 -0.12198126 -0.0307629 -0.99205554 34.3 0.13125029 0.9902418 -0.046844944 0 0.983816 -0.13592178 -0.11675334 0 0 0 0 1</float_array>
        <technique_common>
          <accessor source="#Motion_54_LFoot_transform_pose_array_id" count="16" stride="16">
            <param name="TRANSFORM" type="float4x4" />
          </accessor>
        </technique_common>
      </source>
      <sampler id="Motion_54_LFoot_transform_samp_id">
        <input semantic="INPUT" source="#Motion_54_LFoot_transform_frame_id" />
        <input semantic="INTERPOLATION" source="#Motion_54_LFoot_transform_interp_id" />
        <input semantic="OUTPUT" source="#Motion_54_LFoot_transform_pose_id" />
      </sampler>
      <channel source="#Motion_54_LFoot_transform_samp_id" target="LFoot_bone_id/transform" />
    </animation>
    <animation id="Motion_54_Spine2_transform_id" name="Motion_54_Spine2_transform">
      <source id="Motion_54_Spine2_transform_frame_id" name="Motion_54_Spine2_transform_frame">
        <float_array id="Motion_54_Spine2_transform_frame_array_id" count="16">0 0.033333335 0.06666667 0.1 0.13333334 0.16666667 0.2 0.23333333 0.26666668 0.3 0.33333334 0.36666667 0.4 0.43333334 0.46666667 0.5</float_array>
        <technique_common>
          <accessor source="#Motion_54_Spine2_transform_frame_array_id" count="16" stride="1">
            <param name="TIME" type="float" />
          </accessor>
        </technique_common>
      </source>
      <source id="Motion_54_Spine2_transform_interp_id" name="Motion_54_Spine2_transform_interp">
        <Name_array id="Motion_54_Spine2_transform_interp_array_id" count="16">LINEAR LINEAR LINEAR LINEAR LINEAR LINEAR LINEAR LINEAR LINEAR LINEAR LINEAR LINEAR LINEAR LINEAR LINEAR LINEAR</Name_array>
        <technique_common>
          <accessor source="#Motion_54_Spine2_transform_interp_array_id" count="16" stride="1">
            <param name="INTERPOLATION" type="Name" />
          </accessor>
        </technique_common>
      </source>
      <source id="Motion_54_Spine2_transform_pose_id" name="Motion_54_Spine2_transform_pose">
        <float_array id="Motion_54_Spine2_transform_pose_array_id" count="256">0.975608 0.015006171 -0.2190065 13.5 0.0012246566 0.9972732 0.073787935 0 0.21951659 -0.072256304 0.97292936 0 0 0 0 1 0.977208 0.015411301 -0.21172377 13.5 0.0005032378 0.99719036 0.074907824 0 0.21228334 -0.07330708 0.97445464 0 0 0 0 1 0.9809638 0.015560305 -0.19356619 13.5 -0.00071731955 0.99706805 0.076516554 0 0.1941893 -0.074921116 0.97809887 0 0 0 0 1 0.9855202 0.015386062 -0.16885854 13.5 -0.0021406766 0.9969241 0.07834401 0 0.16954456 -0.07684813 0.9825218 0 0 0 0 1 0.98948514 0.014891988 -0.14386566 13.5 -0.0033957786 0.996803 0.0798266 0 0.1445945 -0.0784987 0.98637235 0 0 0 0 1 0.9923172 0.014049106 -0.12291924 13.5 -0.0041462583 0.9967499 0.08045153 0 0.12365001 -0.07932378 0.98915035 0 0 0 0 1 0.9937823 0.012877392 -0.11059341 13.5 -0.0040085465 0.99678326 0.08004407 0 0.111268416 -0.07910306 0.9906372 0 0 0 0 1 0.99472 0.011290179 -0.10200336 13.5 -0.003245281 0.9968936 0.07869311 0 0.10257495 -0.07794657 0.9916666 0 0 0 0 1 0.9952425 0.009687986 -0.09694623 13.5 -0.002234219 0.99705166 0.07670059 0 0.097403474 -0.07611909 0.99232984 0 0 0 0 1 0.99549675 0.008309424 -0.0944309 13.5 -0.0012864708 0.9972433 0.074190125 0 0.094787054 -0.07373455 0.9927631 0 0 0 0 1 0.99561685 0.007383986 -0.09323406 13.5 -0.0007221061 0.99745566 0.07128572 0 0.09352322 -0.07090593 0.993089 0 0 0 0 1 0.99564004 0.0071748514 -0.09300265 13.5 -0.00082708034 0.99767727 0.06811325 0 0.09327532 -0.06773935 0.99333334 0 0 0 0 1 0.99552697 0.007791315 -0.09415573 13.5 -0.0016818997 0.9978974 0.0647922 0 0.09446257 -0.06434402 0.9934469 0 0 0 0 1 0.9952638 0.009022508 -0.096791476 13.5 -0.0030740143 0.9981066 0.06143071 0 0.09716247 -0.060842227 0.99340713 0 0 0 0 1 0.9948286 0.010683141 -0.10100503 13.5 -0.004817404 0.9982968 0.058140215 0 0.101454124 -0.057352964 0.99318564 0 0 0 0 1 0.9948286 0.010683141 -0.10100503 13.5 -0.004817404 0.9982968 0.058140215 0 0.101454124 -0.057352964 0.99318564 0 0 0 0 1</float_array>
        <technique_common>
          <accessor source="#Motion_54_Spine2_transform_pose_array_id" count="16" stride="16">
            <param name="TRANSFORM" type="float4x4" />
          </accessor>
        </technique_common>
      </source>
      <sampler id="Motion_54_Spine2_transform_samp_id">
        <input semantic="INPUT" source="#Motion_54_Spine2_transform_frame_id" />
        <input semantic="INTERPOLATION" source="#Motion_54_Spine2_transform_interp_id" />
        <input semantic="OUTPUT" source="#Motion_54_Spine2_transform_pose_id" />
      </sampler>
      <channel source="#Motion_54_Spine2_transform_samp_id" target="Spine2_bone_id/transform" />
    </animation>
    <animation id="Motion_54_Spine3_transform_id" name="Motion_54_Spine3_transform">
      <source id="Motion_54_Spine3_transform_frame_id" name="Motion_54_Spine3_transform_frame">
        <float_array id="Motion_54_Spine3_transform_frame_array_id" count="16">0 0.033333335 0.06666667 0.1 0.13333334 0.16666667 0.2 0.23333333 0.26666668 0.3 0.33333334 0.36666667 0.4 0.43333334 0.46666667 0.5</float_array>
        <technique_common>
          <accessor source="#Motion_54_Spine3_transform_frame_array_id" count="16" stride="1">
            <param name="TIME" type="float" />
          </accessor>
        </technique_common>
      </source>
      <source id="Motion_54_Spine3_transform_interp_id" name="Motion_54_Spine3_transform_interp">
        <Name_array id="Motion_54_Spine3_transform_interp_array_id" count="16">LINEAR LINEAR LINEAR LINEAR LINEAR LINEAR LINEAR LINEAR LINEAR LINEAR LINEAR LINEAR LINEAR LINEAR LINEAR LINEAR</Name_array>
        <technique_common>
          <accessor source="#Motion_54_Spine3_transform_interp_array_id" count="16" stride="1">
            <param name="INTERPOLATION" type="Name" />
          </accessor>
        </technique_common>
      </source>
      <source id="Motion_54_Spine3_transform_pose_id" name="Motion_54_Spine3_transform_pose">
        <float_array id="Motion_54_Spine3_transform_pose_array_id" count="256">0.9723615 0.018426241 -0.23275222 13.5 -0.013365103 0.9996391 0.02330324 0 0.2330976 -0.019548416 0.97225684 0 0 0 0 1 0.97105503 0.020843383 -0.2379446 13.5 -0.015229282 0.99956113 0.025408285 0 0.23836976 -0.021049118 0.9709463 0 0 0 0 1 0.967897 0.024464166 -0.2501537 13.5 -0.017976137 0.99944097 0.02818843 0 0.25070348 -0.0227867 0.9677957 0 0 0 0 1 0.96366155 0.028547622 -0.2655963 13.5 -0.0210648 0.999298 0.03098027 0 0.26629427 -0.024259765 0.96358645 0 0 0 0 1 0.95970106 0.03213159 -0.27917993 13.5 -0.023839168 0.9991694 0.03304832 0 0.28000993 -0.025061091 0.95966995 0 0 0 0 1 0.9571489 0.035149258 -0.28745514 13.5 -0.026398528 0.99906415 0.034262877 0 0.28839046 -0.025206283 0.9571811 0 0 0 0 1 0.9561853 0.03764117 -0.29033223 13.5 -0.028719973 0.99897707 0.034929123 0 0.29134998 -0.025060378 0.9562882 0 0 0 0 1 0.95687306 0.039612554 -0.287793 13.5 -0.030811958 0.99891055 0.035046943 0 0.2888678 -0.024668008 0.95705116 0 0 0 0 1 0.959018 0.041079547 -0.2803514 13.5 -0.032663237 0.9988663 0.034629196 0 0.2814561 -0.024052842 0.9592726 0 0 0 0 1 0.9619637 0.042076737 -0.2699173 13.5 -0.034228772 0.99884504 0.033718843 0 0.27102435 -0.023197364 0.9622929 0 0 0 0 1 0.9650539 0.042639166 -0.2585592 13.5 -0.035459243 0.9988467 0.032371357 0 0.25964126 -0.022071794 0.96545285 0 0 0 0 1 0.9679218 0.04279043 -0.24758098 13.5 -0.036322493 0.99887043 0.030635472 0 0.24861223 -0.020659983 0.9683827 0 0 0 0 1 0.97048914 0.042541727 -0.23736274 13.5 -0.03680609 0.99891466 0.028545514 0 0.23831949 -0.018966716 0.97100157 0 0 0 0 1 0.97262657 0.04163451 -0.22861342 13.5 -0.036625776 0.9989879 0.026110314 0 0.22946914 -0.017022438 0.97316706 0 0 0 0 1 0.9742186 0.03995203 -0.22204044 13.5 -0.03562395 0.9990898 0.023464857 0 0.22277579 -0.014949942 0.97475505 0 0 0 0 1 0.9742186 0.03995203 -0.22204044 13.5 -0.03562395 0.9990898 0.023464857 0 0.22277579 -0.014949942 0.97475505 0 0 0 0 1</float_array>
        <technique_common>
          <accessor source="#Motion_54_Spine3_transform_pose_array_id" count="16" stride="16">
            <param name="TRANSFORM" type="float4x4" />
          </accessor>
        </technique_common>
      </source>
      <sampler id="Motion_54_Spine3_transform_samp_id">
        <input semantic="INPUT" source="#Motion_54_Spine3_transform_frame_id" />
        <input semantic="INTERPOLATION" source="#Motion_54_Spine3_transform_interp_id" />
        <input semantic="OUTPUT" source="#Motion_54_Spine3_transform_pose_id" />
      </sampler>
      <channel source="#Motion_54_Spine3_transform_samp_id" target="Spine3_bone_id/transform" />
    </animation>
    <animation id="Motion_54_RShoulder_transform_id" name="Motion_54_RShoulder_transform">
      <source id="Motion_54_RShoulder_transform_frame_id" name="Motion_54_RShoulder_transform_frame">
        <float_array id="Motion_54_RShoulder_transform_frame_array_id" count="16">0 0.033333335 0.06666667 0.1 0.13333334 0.16666667 0.2 0.23333333 0.26666668 0.3 0.33333334 0.36666667 0.4 0.43333334 0.46666667 0.5</float_array>
        <technique_common>
          <accessor source="#Motion_54_RShoulder_transform_frame_array_id" count="16" stride="1">
            <param name="TIME" type="float" />
          </accessor>
        </technique_common>
      </source>
      <source id="Motion_54_RShoulder_transform_interp_id" name="Motion_54_RShoulder_transform_interp">
        <Name_array id="Motion_54_RShoulder_transform_interp_array_id" count="16">LINEAR LINEAR LINEAR LINEAR LINEAR LINEAR LINEAR LINEAR LINEAR LINEAR LINEAR LINEAR LINEAR LINEAR LINEAR LINEAR</Name_array>
        <technique_common>
          <accessor source="#Motion_54_RShoulder_transform_interp_array_id" count="16" stride="1">
            <param name="INTERPOLATION" type="Name" />
          </accessor>
        </technique_common>
      </source>
      <source id="Motion_54_RShoulder_transform_pose_id" name="Motion_54_RShoulder_transform_pose">
        <float_array id="Motion_54_RShoulder_transform_pose_array_id" count="256">-0.49727476 -0.8638767 0.08021924 14.18017 0.7580277 -0.47759163 -0.44418532 4.5 0.42203334 -0.16007368 0.8923364 -0.24023256 0 0 0 1 -0.501776 -0.8616221 0.07634172 14.18017 0.75505245 -0.47934985 -0.44734693 4.5 0.4220384 -0.166826 0.89109635 -0.24023256 0 0 0 1 -0.51155996 -0.8566519 0.06673753 14.18017 0.7486887 -0.48250353 -0.45459378 4.5 0.42162973 -0.18258633 0.88819516 -0.24023256 0 0 0 1 -0.5217469 -0.8515964 0.050630152 14.18017 0.7440494 -0.48328376 -0.46133178 4.5 0.4173373 -0.20302717 0.8857819 -0.24023256 0 0 0 1 -0.52688 -0.849444 0.029017776 14.18017 0.7457079 -0.47837877 -0.46375975 4.5 0.40781945 -0.22270706 0.88548565 -0.24023256 0 0 0 1 -0.52753675 -0.84953004 0.0019023269 14.18017 0.7530814 -0.46867847 -0.46174544 4.5 0.3931582 -0.24215508 0.88701046 -0.24023256 0 0 0 1 -0.52484155 -0.85069495 -0.029316217 14.18017 0.76440734 -0.45589507 -0.455896 4.5 0.3744633 -0.26168272 0.8895501 -0.24023256 0 0 0 1 -0.51977384 -0.8519919 -0.0628064 14.18017 0.7781671 -0.441831 -0.44636416 4.5 0.35254884 -0.28088236 0.8926446 -0.24023256 0 0 0 1 -0.51284945 -0.8530056 -0.09678282 14.18017 0.7932326 -0.42774045 -0.43338215 4.5 0.3282795 -0.29903108 0.8959983 -0.24023256 0 0 0 1 -0.50422513 -0.8537432 -0.12992133 14.18017 0.8086846 -0.41402268 -0.41786888 4.5 0.30296236 -0.31576535 0.8991696 -0.24023256 0 0 0 1 -0.49436796 -0.85424525 -0.16082732 14.18017 0.82362133 -0.4011712 -0.40088594 4.5 0.27793556 -0.33064598 0.90190077 -0.24023256 0 0 0 1 -0.4838531 -0.8547168 -0.18800378 14.18017 0.8372588 -0.38956916 -0.3837103 4.5 0.25472313 -0.34306726 0.90411335 -0.24023256 0 0 0 1 -0.47335052 -0.8554821 -0.20997538 14.18017 0.848971 -0.379485 -0.367749 4.5 0.23492019 -0.3523372 0.90590894 -0.24023256 0 0 0 1 -0.46359146 -0.8569207 -0.22532155 14.18017 0.858266 -0.37111115 -0.3544797 4.5 0.22014166 -0.35771957 0.90751 -0.24023256 0 0 0 1 -0.45531702 -0.85939395 -0.23265475 14.18017 0.8647188 -0.36462963 -0.34540755 4.5 0.21200836 -0.35845095 0.9091564 -0.24023256 0 0 0 1 -0.45531702 -0.85939395 -0.23265475 14.18017 0.8647188 -0.36462963 -0.34540755 4.5 0.21200836 -0.35845095 0.9091564 -0.24023256 0 0 0 1</float_array>
        <technique_common>
          <accessor source="#Motion_54_RShoulder_transform_pose_array_id" count="16" stride="16">
            <param name="TRANSFORM" type="float4x4" />
          </accessor>
        </technique_common>
      </source>
      <sampler id="Motion_54_RShoulder_transform_samp_id">
        <input semantic="INPUT" source="#Motion_54_RShoulder_transform_frame_id" />
        <input semantic="INTERPOLATION" source="#Motion_54_RShoulder_transform_interp_id" />
        <input semantic="OUTPUT" source="#Motion_54_RShoulder_transform_pose_id" />
      </sampler>
      <channel source="#Motion_54_RShoulder_transform_samp_id" target="RShoulder_bone_id/transform" />
    </animation>
    <animation id="Motion_54_RArm_transform_id" name="Motion_54_RArm_transform">
      <source id="Motion_54_RArm_transform_frame_id" name="Motion_54_RArm_transform_frame">
        <float_array id="Motion_54_RArm_transform_frame_array_id" count="16">0 0.033333335 0.06666667 0.1 0.13333334 0.16666667 0.2 0.23333333 0.26666668 0.3 0.33333334 0.36666667 0.4 0.43333334 0.46666667 0.5</float_array>
        <technique_common>
          <accessor source="#Motion_54_RArm_transform_frame_array_id" count="16" stride="1">
            <param name="TIME" type="float" />
          </accessor>
        </technique_common>
      </source>
      <source id="Motion_54_RArm_transform_interp_id" name="Motion_54_RArm_transform_interp">
        <Name_array id="Motion_54_RArm_transform_interp_array_id" count="16">LINEAR LINEAR LINEAR LINEAR LINEAR LINEAR LINEAR LINEAR LINEAR LINEAR LINEAR LINEAR LINEAR LINEAR LINEAR LINEAR</Name_array>
        <technique_common>
          <accessor source="#Motion_54_RArm_transform_interp_array_id" count="16" stride="1">
            <param name="INTERPOLATION" type="Name" />
          </accessor>
        </technique_common>
      </source>
      <source id="Motion_54_RArm_transform_pose_id" name="Motion_54_RArm_transform_pose">
        <float_array id="Motion_54_RArm_transform_pose_array_id" count="256">0.9062754 -0.29776314 -0.30000332 12.61957 0.2884256 0.9544774 -0.076049656 0 0.30899116 -0.017606694 0.9509019 0 0 0 0 1 0.90643233 -0.2976095 -0.29968157 12.61957 0.28548062 0.9546462 -0.08456615 0 0.31125757 -0.008899793 0.95028394 0 0 0 0 1 0.90567315 -0.3006443 -0.2989468 12.61957 0.28084674 0.9536329 -0.108209826 0 0.3176182 0.014044493 0.9481147 0 0 0 0 1 0.90243846 -0.3091266 -0.3000759 12.61957 0.27692887 0.9497932 -0.14561337 0 0.330023 0.048307426 0.942736 0 0 0 0 1 0.8952275 -0.32540828 -0.30442923 12.61957 0.2758991 0.9412444 -0.19477835 0 0.3499248 0.09037918 0.93240774 0 0 0 0 1 0.8841826 -0.35036665 -0.30897322 12.61957 0.27879035 0.9264828 -0.2527956 0 0.3748295 0.1373787 0.91685873 0 0 0 0 1 0.8715989 -0.3799208 -0.30979925 12.61957 0.28240332 0.90569496 -0.31617236 0 0.4007041 0.18808717 0.89669365 0 0 0 0 1 0.8579097 -0.41412354 -0.304126 12.61957 0.2891569 0.8784295 -0.38046017 0 0.42471072 0.23846033 0.87335986 0 0 0 0 1 0.84272385 -0.45244083 -0.29174274 12.61957 0.30066952 0.8450872 -0.44206953 0 0.44655836 0.28482437 0.84821033 0 0 0 0 1 0.8263117 -0.49250746 -0.27321318 12.61957 0.31513143 0.80635464 -0.50048417 0 0.46679887 0.32745788 0.82150483 0 0 0 0 1 0.80877215 -0.53192604 -0.2508831 12.61957 0.32986552 0.76344633 -0.55528224 0 0.48690486 0.36633912 0.7929182 0 0 0 0 1 0.7904569 -0.5687381 -0.22740899 12.61957 0.34219104 0.7179647 -0.6061617 0 0.50801885 0.40132737 0.76213723 0 0 0 0 1 0.7722217 -0.6011185 -0.20574312 12.61957 0.3504299 0.6730856 -0.6512716 0 0.5299741 0.4308275 0.7304212 0 0 0 0 1 0.7555399 -0.6277058 -0.18746972 12.61957 0.35486686 0.6327031 -0.68829954 0 0.5506623 0.4535109 0.70078444 0 0 0 0 1 0.7410345 -0.6459218 -0.18344703 12.61957 0.34837076 0.6033944 -0.71732354 0 0.57402587 0.46765396 0.67215633 0 0 0 0 1 0.7410345 -0.6459218 -0.18344703 12.61957 0.34837076 0.6033944 -0.71732354 0 0.57402587 0.46765396 0.67215633 0 0 0 0 1</float_array>
        <technique_common>
          <accessor source="#Motion_54_RArm_transform_pose_array_id" count="16" stride="16">
            <param name="TRANSFORM" type="float4x4" />
          </accessor>
        </technique_common>
      </source>
      <sampler id="Motion_54_RArm_transform_samp_id">
        <input semantic="INPUT" source="#Motion_54_RArm_transform_frame_id" />
        <input semantic="INTERPOLATION" source="#Motion_54_RArm_transform_interp_id" />
        <input semantic="OUTPUT" source="#Motion_54_RArm_transform_pose_id" />
      </sampler>
      <channel source="#Motion_54_RArm_transform_samp_id" target="RArm_bone_id/transform" />
    </animation>
    <animation id="Motion_54_RForeArm_transform_id" name="Motion_54_RForeArm_transform">
      <source id="Motion_54_RForeArm_transform_frame_id" name="Motion_54_RForeArm_transform_frame">
        <float_array id="Motion_54_RForeArm_transform_frame_array_id" count="16">0 0.033333335 0.06666667 0.1 0.13333334 0.16666667 0.2 0.23333333 0.26666668 0.3 0.33333334 0.36666667 0.4 0.43333334 0.46666667 0.5</float_array>
        <technique_common>
          <accessor source="#Motion_54_RForeArm_transform_frame_array_id" count="16" stride="1">
            <param name="TIME" type="float" />
          </accessor>
        </technique_common>
      </source>
      <source id="Motion_54_RForeArm_transform_interp_id" name="Motion_54_RForeArm_transform_interp">
        <Name_array id="Motion_54_RForeArm_transform_interp_array_id" count="16">LINEAR LINEAR LINEAR LINEAR LINEAR LINEAR LINEAR LINEAR LINEAR LINEAR LINEAR LINEAR LINEAR LINEAR LINEAR LINEAR</Name_array>
        <technique_common>
          <accessor source="#Motion_54_RForeArm_transform_interp_array_id" count="16" stride="1">
            <param name="INTERPOLATION" type="Name" />
          </accessor>
        </technique_common>
      </source>
      <source id="Motion_54_RForeArm_transform_pose_id" name="Motion_54_RForeArm_transform_pose">
        <float_array id="Motion_54_RForeArm_transform_pose_array_id" count="256">0.5331328 0 -0.8460315 22.6 0 1 0 0 0.8460315 0 0.5331328 0 0 0 0 1 0.53715014 0 -0.8434866 22.6 0 1 0 0 0.8434866 0 0.53715014 0 0 0 0 1 0.54827446 0 -0.83629847 22.6 0 1 0 0 0.83629847 0 0.54827446 0 0 0 0 1 0.5631602 0 -0.82634777 22.6 0 1 0 0 0.82634777 0 0.5631602 0 0 0 0 1 0.5769248 0 -0.8167973 22.6 0 1 0 0 0.8167973 0 0.5769248 0 0 0 0 1 0.58228254 0 -0.81298643 22.6 0 1 0 0 0.81298643 0 0.58228254 0 0 0 0 1 0.5741143 0 -0.8187751 22.6 0 1 0 0 0.8187751 0 0.5741143 0 0 0 0 1 0.55901927 0 -0.8291547 22.6 0 1 0 0 0.8291547 0 0.55901927 0 0 0 0 1 0.54255533 0 -0.84002006 22.6 0 1 0 0 0.84002006 0 0.54255533 0 0 0 0 1 0.5284791 0 -0.84894633 22.6 0 1 0 0 0.84894633 0 0.5284791 0 0 0 0 1 0.52036977 0 -0.853941 22.6 0 1 0 0 0.853941 0 0.52036977 0 0 0 0 1 0.5131062 0 -0.8583251 22.6 0 1 0 0 0.8583251 0 0.5131062 0 0 0 0 1 0.49936658 0 -0.8663908 22.6 0 1 0 0 0.8663908 0 0.49936658 0 0 0 0 1 0.47391135 0 -0.88057256 22.6 0 1 0 0 0.88057256 0 0.47391135 0 0 0 0 1 0.4447316 0 -0.8956639 22.6 0 1 0 0 0.8956639 0 0.4447316 0 0 0 0 1 0.4447316 0 -0.8956639 22.6 0 1 0 0 0.8956639 0 0.4447316 0 0 0 0 1</float_array>
        <technique_common>
          <accessor source="#Motion_54_RForeArm_transform_pose_array_id" count="16" stride="16">
            <param name="TRANSFORM" type="float4x4" />
          </accessor>
        </technique_common>
      </source>
      <sampler id="Motion_54_RForeArm_transform_samp_id">
        <input semantic="INPUT" source="#Motion_54_RForeArm_transform_frame_id" />
        <input semantic="INTERPOLATION" source="#Motion_54_RForeArm_transform_interp_id" />
        <input semantic="OUTPUT" source="#Motion_54_RForeArm_transform_pose_id" />
      </sampler>
      <channel source="#Motion_54_RForeArm_transform_samp_id" target="RForeArm_bone_id/transform" />
    </animation>
    <animation id="Motion_54_RHand_transform_id" name="Motion_54_RHand_transform">
      <source id="Motion_54_RHand_transform_frame_id" name="Motion_54_RHand_transform_frame">
        <float_array id="Motion_54_RHand_transform_frame_array_id" count="16">0 0.033333335 0.06666667 0.1 0.13333334 0.16666667 0.2 0.23333333 0.26666668 0.3 0.33333334 0.36666667 0.4 0.43333334 0.46666667 0.5</float_array>
        <technique_common>
          <accessor source="#Motion_54_RHand_transform_frame_array_id" count="16" stride="1">
            <param name="TIME" type="float" />
          </accessor>
        </technique_common>
      </source>
      <source id="Motion_54_RHand_transform_interp_id" name="Motion_54_RHand_transform_interp">
        <Name_array id="Motion_54_RHand_transform_interp_array_id" count="16">LINEAR LINEAR LINEAR LINEAR LINEAR LINEAR LINEAR LINEAR LINEAR LINEAR LINEAR LINEAR LINEAR LINEAR LINEAR LINEAR</Name_array>
        <technique_common>
          <accessor source="#Motion_54_RHand_transform_interp_array_id" count="16" stride="1">
            <param name="INTERPOLATION" type="Name" />
          </accessor>
        </technique_common>
      </source>
      <source id="Motion_54_RHand_transform_pose_id" name="Motion_54_RHand_transform_pose">
        <float_array id="Motion_54_RHand_transform_pose_array_id" count="256">0.98576486 0.16232441 -0.04379986 22.600002 -0.13021643 0.9019053 0.41183802 0 0.10635468 -0.40027198 0.9102038 0 0 0 0 1 0.9866406 0.15679312 -0.044229414 22.600002 -0.12370819 0.897725 0.42283115 0 0.10600285 -0.41171083 0.9051285 0 0 0 0 1 0.9890738 0.13997151 -0.046271212 22.600002 -0.10482328 0.88843375 0.44687527 0 0.10365871 -0.4371423 0.8933988 0 0 0 0 1 0.9925013 0.11134832 -0.05042539 22.600002 -0.07442138 0.87772 0.47335938 0 0.096967146 -0.4660571 0.8794249 0 0 0 0 1 0.9958964 0.070336096 -0.056948747 22.600002 -0.03370335 0.87224734 0.48790228 0 0.08399054 -0.48398077 0.87103856 0 0 0 0 1 0.9977817 0.016215341 -0.06456631 22.600002 0.016931819 0.87617177 0.48170146 0 0.06438213 -0.48172614 0.8739536 0 0 0 0 1 0.99648046 -0.052972045 -0.06496667 22.600002 0.076272756 0.89447314 0.4405681 0 0.03477315 -0.44397265 0.89536536 0 0 0 0 1 0.9921052 -0.11837812 -0.04139961 22.600002 0.1253785 0.9290369 0.34809572 0 -0.0027451515 -0.3505382 0.9365444 0 0 0 0 1 0.9879817 -0.15421668 0.0104613155 22.600002 0.14935312 0.9698774 0.19243549 0 -0.039822955 -0.18856029 0.98125386 0 0 0 0 1 0.9849845 -0.15276667 0.08042282 22.600002 0.15521991 0.9875596 -0.025154732 0 -0.075579524 0.037260246 0.9964434 0 0 0 0 1 0.9832149 -0.110382654 0.14527243 22.600002 0.14897193 0.9453858 -0.28991896 0 -0.10533648 0.30669415 0.94596136 0 0 0 0 1 0.98286307 -0.037391014 0.180505 22.600002 0.13568503 0.80957973 -0.57111317 0 -0.12477867 0.5858179 0.8007794 0 0 0 0 1 0.983959 0.04377201 0.17294109 22.600002 0.11460221 0.5878378 -0.8008203 0 -0.13671482 0.8077938 0.5733919 0 0 0 0 1 0.98660713 0.10283551 0.12661427 22.600002 0.08405074 0.3447308 -0.9349311 0 -0.13979197 0.93305176 0.3314705 0 0 0 0 1 0.9910665 0.115468726 0.0667391 22.600002 0.049749658 0.14421797 -0.98829454 0 -0.12374209 0.9827859 0.13718504 0 0 0 0 1 0.9910665 0.115468726 0.0667391 22.600002 0.049749658 0.14421797 -0.98829454 0 -0.12374209 0.9827859 0.13718504 0 0 0 0 1</float_array>
        <technique_common>
          <accessor source="#Motion_54_RHand_transform_pose_array_id" count="16" stride="16">
            <param name="TRANSFORM" type="float4x4" />
          </accessor>
        </technique_common>
      </source>
      <sampler id="Motion_54_RHand_transform_samp_id">
        <input semantic="INPUT" source="#Motion_54_RHand_transform_frame_id" />
        <input semantic="INTERPOLATION" source="#Motion_54_RHand_transform_interp_id" />
        <input semantic="OUTPUT" source="#Motion_54_RHand_transform_pose_id" />
      </sampler>
      <channel source="#Motion_54_RHand_transform_samp_id" target="RHand_bone_id/transform" />
    </animation>
    <animation id="Motion_54_LShoulder_transform_id" name="Motion_54_LShoulder_transform">
      <source id="Motion_54_LShoulder_transform_frame_id" name="Motion_54_LShoulder_transform_frame">
        <float_array id="Motion_54_LShoulder_transform_frame_array_id" count="16">0 0.033333335 0.06666667 0.1 0.13333334 0.16666667 0.2 0.23333333 0.26666668 0.3 0.33333334 0.36666667 0.4 0.43333334 0.46666667 0.5</float_array>
        <technique_common>
          <accessor source="#Motion_54_LShoulder_transform_frame_array_id" count="16" stride="1">
            <param name="TIME" type="float" />
          </accessor>
        </technique_common>
      </source>
      <source id="Motion_54_LShoulder_transform_interp_id" name="Motion_54_LShoulder_transform_interp">
        <Name_array id="Motion_54_LShoulder_transform_interp_array_id" count="16">LINEAR LINEAR LINEAR LINEAR LINEAR LINEAR LINEAR LINEAR LINEAR LINEAR LINEAR LINEAR LINEAR LINEAR LINEAR LINEAR</Name_array>
        <technique_common>
          <accessor source="#Motion_54_LShoulder_transform_interp_array_id" count="16" stride="1">
            <param name="INTERPOLATION" type="Name" />
          </accessor>
        </technique_common>
      </source>
      <source id="Motion_54_LShoulder_transform_pose_id" name="Motion_54_LShoulder_transform_pose">
        <float_array id="Motion_54_LShoulder_transform_pose_array_id" count="256">-0.49435878 0.8634857 0.100009635 14.18017 -0.769227 -0.48814857 0.41231152 -4.5 0.40484464 0.12689969 0.905537 -0.24023256 0 0 0 1 -0.49274862 0.86474836 0.09700042 14.18017 -0.7744117 -0.48662734 0.40432703 -4.5 0.39684418 0.124113336 0.9094562 -0.24023256 0 0 0 1 -0.48869193 0.86795807 0.088479474 14.18017 -0.787405 -0.48245275 0.38370854 -4.5 0.37573016 0.117846146 0.91920567 -0.24023256 0 0 0 1 -0.48231542 0.87279797 0.07480338 14.18017 -0.8052 -0.4753462 0.3545404 -4.5 0.34499964 0.11076864 0.93204373 -0.24023256 0 0 0 1 -0.4746579 0.87836546 0.056339234 14.18017 -0.8239004 -0.46592093 0.3226545 -4.5 0.30965817 0.10673256 0.9448386 -0.24023256 0 0 0 1 -0.46666896 0.8837793 0.033968285 14.18017 -0.8409461 -0.45529127 0.29243666 -4.5 0.273915 0.10790568 0.9556814 -0.24023256 0 0 0 1 -0.4581139 0.8888641 0.0072144493 14.18017 -0.8554687 -0.44307792 0.26805815 -4.5 0.24146384 0.11662946 0.9633757 -0.24023256 0 0 0 1 -0.44993234 0.8927312 -0.02432277 14.18017 -0.8665719 -0.42983997 0.25355583 -4.5 0.21590233 0.13516045 0.9670149 -0.24023256 0 0 0 1 -0.44252062 0.8947343 -0.060218364 14.18017 -0.87434536 -0.41556716 0.2506476 -4.5 0.19923821 0.16356835 0.9662037 -0.24023256 0 0 0 1 -0.43573523 0.89479345 -0.09736453 14.18017 -0.8806885 -0.40151763 0.25134003 -4.5 0.18580382 0.19526547 0.9629893 -0.24023256 0 0 0 1 -0.4286636 0.8935851 -0.13324185 14.18017 -0.88649094 -0.38755846 0.2528486 -4.5 0.17430274 0.22650465 0.9582871 -0.24023256 0 0 0 1 -0.42177343 0.8913332 -0.1662297 14.18017 -0.89148486 -0.37421966 0.25537124 -4.5 0.16541442 0.25590006 0.9524459 -0.24023256 0 0 0 1 -0.41544795 0.8884688 -0.19500338 14.18017 -0.8955752 -0.36200178 0.25864998 -4.5 0.15921088 0.28209576 0.9460834 -0.24023256 0 0 0 1 -0.41106057 0.8854289 -0.21689914 14.18017 -0.89788675 -0.35211992 0.26421824 -4.5 0.15757196 0.3033605 0.93975717 -0.24023256 0 0 0 1 -0.40835094 0.88301456 -0.23137644 14.18017 -0.8978312 -0.34277368 0.27641553 -4.5 0.16476917 0.32061148 0.9327698 -0.24023256 0 0 0 1 -0.40835094 0.88301456 -0.23137644 14.18017 -0.8978312 -0.34277368 0.27641553 -4.5 0.16476917 0.32061148 0.9327698 -0.24023256 0 0 0 1</float_array>
        <technique_common>
          <accessor source="#Motion_54_LShoulder_transform_pose_array_id" count="16" stride="16">
            <param name="TRANSFORM" type="float4x4" />
          </accessor>
        </technique_common>
      </source>
      <sampler id="Motion_54_LShoulder_transform_samp_id">
        <input semantic="INPUT" source="#Motion_54_LShoulder_transform_frame_id" />
        <input semantic="INTERPOLATION" source="#Motion_54_LShoulder_transform_interp_id" />
        <input semantic="OUTPUT" source="#Motion_54_LShoulder_transform_pose_id" />
      </sampler>
      <channel source="#Motion_54_LShoulder_transform_samp_id" target="LShoulder_bone_id/transform" />
    </animation>
    <animation id="Motion_54_LArm_transform_id" name="Motion_54_LArm_transform">
      <source id="Motion_54_LArm_transform_frame_id" name="Motion_54_LArm_transform_frame">
        <float_array id="Motion_54_LArm_transform_frame_array_id" count="16">0 0.033333335 0.06666667 0.1 0.13333334 0.16666667 0.2 0.23333333 0.26666668 0.3 0.33333334 0.36666667 0.4 0.43333334 0.46666667 0.5</float_array>
        <technique_common>
          <accessor source="#Motion_54_LArm_transform_frame_array_id" count="16" stride="1">
            <param name="TIME" type="float" />
          </accessor>
        </technique_common>
      </source>
      <source id="Motion_54_LArm_transform_interp_id" name="Motion_54_LArm_transform_interp">
        <Name_array id="Motion_54_LArm_transform_interp_array_id" count="16">LINEAR LINEAR LINEAR LINEAR LINEAR LINEAR LINEAR LINEAR LINEAR LINEAR LINEAR LINEAR LINEAR LINEAR LINEAR LINEAR</Name_array>
        <technique_common>
          <accessor source="#Motion_54_LArm_transform_interp_array_id" count="16" stride="1">
            <param name="INTERPOLATION" type="Name" />
          </accessor>
        </technique_common>
      </source>
      <source id="Motion_54_LArm_transform_pose_id" name="Motion_54_LArm_transform_pose">
        <float_array id="Motion_54_LArm_transform_pose_array_id" count="256">0.91098976 0.35916176 -0.2027325 12.61957 -0.3426079 0.93268055 0.112813264 0 0.22960287 -0.03331398 0.97271407 0 0 0 0 1 0.91125816 0.3538122 -0.21077353 12.61957 -0.33936843 0.9350627 0.10240522 0 0.23331869 -0.02178771 0.9721562 0 0 0 0 1 0.910791 0.34500688 -0.226782 12.61957 -0.3333977 0.9385848 0.08890749 0 0.24352783 -0.00536754 0.96987903 0 0 0 0 1 0.90784395 0.33819595 -0.24787669 12.61957 -0.3288391 0.9410298 0.07954715 0 0.26016188 0.009295139 0.96552026 0 0 0 0 1 0.9007891 0.33961394 -0.27063143 12.61957 -0.32921752 0.94047415 0.084404826 0 0.2831869 0.013065655 0.95897573 0 0 0 0 1 0.88920057 0.35141757 -0.29296413 12.61957 -0.33381072 0.9362188 0.109839596 0 0.3128781 0.00012512505 0.9497933 0 0 0 0 1 0.87344193 0.37675545 -0.3084713 12.61957 -0.34057215 0.9254524 0.16597739 0 0.34800836 -0.039914884 0.93664134 0 0 0 0 1 0.8574599 0.41470996 -0.30459514 12.61957 -0.3506041 0.90416527 0.24405311 0 0.3766156 -0.10247345 0.92068446 0 0 0 0 1 0.8427466 0.45500234 -0.28766474 12.61957 -0.36109892 0.87414736 0.32476765 0 0.3992314 -0.1698214 0.90098554 0 0 0 0 1 0.8277098 0.49615887 -0.2621506 12.61957 -0.37190053 0.8348516 0.40584823 0 0.42022204 -0.23843059 0.87553656 0 0 0 0 1 0.8110607 0.5364411 -0.23326272 12.61957 -0.38173363 0.78753155 0.48381144 0 0.44323808 -0.30335623 0.8435135 0 0 0 0 1 0.79309976 0.5734192 -0.20538536 12.61957 -0.38800204 0.7355593 0.555344 0 0.46951804 -0.36075327 0.80585974 0 0 0 0 1 0.77529544 0.6048292 -0.1819305 12.61957 -0.38816184 0.6835085 0.61818 0 0.49824435 -0.40865368 0.7646926 0 0 0 0 1 0.758589 0.62955505 -0.16793801 12.61957 -0.38058788 0.6373324 0.670045 0 0.52886254 -0.4443736 0.7230743 0 0 0 0 1 0.7449368 0.64509165 -0.17007637 12.61957 -0.36267188 0.6055604 0.70835423 0 0.55994487 -0.46599722 0.6850608 0 0 0 0 1 0.7449368 0.64509165 -0.17007637 12.61957 -0.36267188 0.6055604 0.70835423 0 0.55994487 -0.46599722 0.6850608 0 0 0 0 1</float_array>
        <technique_common>
          <accessor source="#Motion_54_LArm_transform_pose_array_id" count="16" stride="16">
            <param name="TRANSFORM" type="float4x4" />
          </accessor>
        </technique_common>
      </source>
      <sampler id="Motion_54_LArm_transform_samp_id">
        <input semantic="INPUT" source="#Motion_54_LArm_transform_frame_id" />
        <input semantic="INTERPOLATION" source="#Motion_54_LArm_transform_interp_id" />
        <input semantic="OUTPUT" source="#Motion_54_LArm_transform_pose_id" />
      </sampler>
      <channel source="#Motion_54_LArm_transform_samp_id" target="LArm_bone_id/transform" />
    </animation>
    <animation id="Motion_54_LForeArm_transform_id" name="Motion_54_LForeArm_transform">
      <source id="Motion_54_LForeArm_transform_frame_id" name="Motion_54_LForeArm_transform_frame">
        <float_array id="Motion_54_LForeArm_transform_frame_array_id" count="16">0 0.033333335 0.06666667 0.1 0.13333334 0.16666667 0.2 0.23333333 0.26666668 0.3 0.33333334 0.36666667 0.4 0.43333334 0.46666667 0.5</float_array>
        <technique_common>
          <accessor source="#Motion_54_LForeArm_transform_frame_array_id" count="16" stride="1">
            <param name="TIME" type="float" />
          </accessor>
        </technique_common>
      </source>
      <source id="Motion_54_LForeArm_transform_interp_id" name="Motion_54_LForeArm_transform_interp">
        <Name_array id="Motion_54_LForeArm_transform_interp_array_id" count="16">LINEAR LINEAR LINEAR LINEAR LINEAR LINEAR LINEAR LINEAR LINEAR LINEAR LINEAR LINEAR LINEAR LINEAR LINEAR LINEAR</Name_array>
        <technique_common>
          <accessor source="#Motion_54_LForeArm_transform_interp_array_id" count="16" stride="1">
            <param name="INTERPOLATION" type="Name" />
          </accessor>
        </technique_common>
      </source>
      <source id="Motion_54_LForeArm_transform_pose_id" name="Motion_54_LForeArm_transform_pose">
        <float_array id="Motion_54_LForeArm_transform_pose_array_id" count="256">0.47223455 -0.0015519921 -0.8814716 22.6 0.0012514241 0.9999986 -0.00109025 0 0.88147205 -0.00058824103 0.4722358 0 0 0 0 1 0.47332597 -0.0015403213 -0.880886 22.6 0.0012378047 0.9999986 -0.0010834932 0 0.8808865 -0.00057751936 0.47332722 0 0 0 0 1 0.47589505 -0.0015254203 -0.8795007 22.6 0.0012257328 0.9999987 -0.0010711737 0 0.87950116 -0.00056826667 0.4758963 0 0 0 0 1 0.48116595 -0.001510504 -0.8766282 22.6 0.0012174415 0.9999987 -0.0010548494 0 0.8766287 -0.0005596861 0.48116714 0 0 0 0 1 0.49033505 -0.0014987683 -0.8715327 22.6 0.0012151122 0.99999875 -0.0010360533 0 0.87153316 -0.0005509968 0.49033624 0 0 0 0 1 0.504545 -0.0014933997 -0.8633841 22.6 0.0012209006 0.99999875 -0.0010162321 0 0.8633846 -0.0005413715 0.50454617 0 0 0 0 1 0.52449393 -0.0014974211 -0.85141283 22.6 0.0012367388 0.99999875 -0.0009968809 0 0.8514133 -0.00053011737 0.5244951 0 0 0 0 1 0.5420429 -0.0015098398 -0.8403495 22.6 0.0012584588 0.99999875 -0.0009849464 0 0.84034985 -0.00052366196 0.54204416 0 0 0 0 1 0.5492941 -0.001529778 -0.83562773 22.6 0.0012821093 0.9999987 -0.0009879051 0 0.8356281 -0.00052871567 0.5492953 0 0 0 0 1 0.5457183 -0.0015595267 -0.8379672 22.6 0.0013087073 0.9999986 -0.0010087971 0 0.8379677 -0.0005461348 0.5457196 0 0 0 0 1 0.53030443 -0.001600796 -0.8478058 22.6 0.0013384329 0.99999857 -0.001050968 0 0.8478063 -0.0005773981 0.53030586 0 0 0 0 1 0.5017083 -0.0016546467 -0.86503524 22.6 0.0013704662 0.99999845 -0.0011179541 0 0.8650357 -0.00062461477 0.5017098 0 0 0 0 1 0.45845473 -0.0017213825 -0.8887161 22.6 0.001402814 0.9999983 -0.0012132702 0 0.8887167 -0.0006904738 0.45845634 0 0 0 0 1 0.40607053 -0.0018046579 -0.91384006 22.6 0.0014382486 0.9999981 -0.0013357088 0 0.91384065 -0.0007719371 0.40607232 0 0 0 0 1 0.35426098 -0.0019112757 -0.9351446 22.6 0.0014836822 0.9999978 -0.0014817608 0 0.93514544 -0.00086252735 0.35426307 0 0 0 0 1 0.35426098 -0.0019112757 -0.9351446 22.6 0.0014836822 0.9999978 -0.0014817608 0 0.93514544 -0.00086252735 0.35426307 0 0 0 0 1</float_array>
        <technique_common>
          <accessor source="#Motion_54_LForeArm_transform_pose_array_id" count="16" stride="16">
            <param name="TRANSFORM" type="float4x4" />
          </accessor>
        </technique_common>
      </source>
      <sampler id="Motion_54_LForeArm_transform_samp_id">
        <input semantic="INPUT" source="#Motion_54_LForeArm_transform_frame_id" />
        <input semantic="INTERPOLATION" source="#Motion_54_LForeArm_transform_interp_id" />
        <input semantic="OUTPUT" source="#Motion_54_LForeArm_transform_pose_id" />
      </sampler>
      <channel source="#Motion_54_LForeArm_transform_samp_id" target="LForeArm_bone_id/transform" />
    </animation>
    <animation id="Motion_54_LHand_transform_id" name="Motion_54_LHand_transform">
      <source id="Motion_54_LHand_transform_frame_id" name="Motion_54_LHand_transform_frame">
        <float_array id="Motion_54_LHand_transform_frame_array_id" count="16">0 0.033333335 0.06666667 0.1 0.13333334 0.16666667 0.2 0.23333333 0.26666668 0.3 0.33333334 0.36666667 0.4 0.43333334 0.46666667 0.5</float_array>
        <technique_common>
          <accessor source="#Motion_54_LHand_transform_frame_array_id" count="16" stride="1">
            <param name="TIME" type="float" />
          </accessor>
        </technique_common>
      </source>
      <source id="Motion_54_LHand_transform_interp_id" name="Motion_54_LHand_transform_interp">
        <Name_array id="Motion_54_LHand_transform_interp_array_id" count="16">LINEAR LINEAR LINEAR LINEAR LINEAR LINEAR LINEAR LINEAR LINEAR LINEAR LINEAR LINEAR LINEAR LINEAR LINEAR LINEAR</Name_array>
        <technique_common>
          <accessor source="#Motion_54_LHand_transform_interp_array_id" count="16" stride="1">
            <param name="INTERPOLATION" type="Name" />
          </accessor>
        </technique_common>
      </source>
      <source id="Motion_54_LHand_transform_pose_id" name="Motion_54_LHand_transform_pose">
        <float_array id="Motion_54_LHand_transform_pose_array_id" count="256">0.9870051 -0.15480922 0.043070428 22.600002 0.15611582 0.86033624 -0.4852313 0 0.038063228 0.48564973 0.8733244 0 0 0 0 1 0.98751765 -0.15408365 0.032666072 22.600002 0.15052418 0.86213946 -0.4837955 0 0.046382263 0.48267362 0.87457126 0 0 0 0 1 0.9882076 -0.15296285 0.006941408 22.600002 0.1378109 0.86873096 -0.47572544 0 0.0667381 0.4710721 0.87956643 0 0 0 0 1 0.9887691 -0.14658338 -0.029136285 22.600002 0.117978804 0.885247 -0.44990975 0 0.091742106 0.44141942 0.8925986 0 0 0 0 1 0.9890408 -0.13203447 -0.06607011 22.600002 0.09530458 0.9127209 -0.3973129 0 0.11276257 0.38666186 0.9153017 0 0 0 0 1 0.9898916 -0.10680889 -0.09330842 22.600002 0.07321618 0.94831073 -0.3087817 0 0.12146601 0.29882875 0.94654495 0 0 0 0 1 0.9923333 -0.07084036 -0.10127343 22.600002 0.052699454 0.98373204 -0.17173815 0 0.11179191 0.16508442 0.9799233 0 0 0 0 1 0.9978227 -0.015655737 -0.06406799 22.600002 0.017158397 0.99958885 0.022971462 0 0.06368202 -0.02402075 0.99768114 0 0 0 0 1 0.9997227 0.0036319643 0.023265136 22.600002 -0.00947675 0.9665414 0.2563354 0 -0.021555716 -0.25648484 0.9663079 0 0 0 0 1 0.9925726 -0.038575556 0.11537569 22.600002 -0.023883548 0.86814713 0.49573195 0 -0.1192862 -0.4948055 0.86077774 0 0 0 0 1 0.9782735 -0.12409214 0.16607843 22.600002 -0.03038203 0.7066189 0.7069418 0 -0.20508008 -0.6966283 0.68749636 0 0 0 0 1 0.9661592 -0.20595303 0.15530503 22.600002 -0.032439098 0.5002904 0.86524975 0 -0.25589845 -0.841007 0.47667927 0 0 0 0 1 0.96304905 -0.24850711 0.10382999 22.600002 -0.029520147 0.28579742 0.95783514 0 -0.26770324 -0.92550737 0.267901 0 0 0 0 1 0.9677475 -0.24811676 0.04362181 22.600002 -0.020079136 0.09663713 0.9951171 0 -0.25112072 -0.963898 0.08853835 0 0 0 0 1 0.9787208 -0.20511144 -0.005913213 22.600002 -0.0012456924 -0.034755826 0.9993951 0 -0.20519288 -0.97812134 -0.034271717 0 0 0 0 1 0.9787208 -0.20511144 -0.005913213 22.600002 -0.0012456924 -0.034755826 0.9993951 0 -0.20519288 -0.97812134 -0.034271717 0 0 0 0 1</float_array>
        <technique_common>
          <accessor source="#Motion_54_LHand_transform_pose_array_id" count="16" stride="16">
            <param name="TRANSFORM" type="float4x4" />
          </accessor>
        </technique_common>
      </source>
      <sampler id="Motion_54_LHand_transform_samp_id">
        <input semantic="INPUT" source="#Motion_54_LHand_transform_frame_id" />
        <input semantic="INTERPOLATION" source="#Motion_54_LHand_transform_interp_id" />
        <input semantic="OUTPUT" source="#Motion_54_LHand_transform_pose_id" />
      </sampler>
      <channel source="#Motion_54_LHand_transform_samp_id" target="LHand_bone_id/transform" />
    </animation>
    <animation id="Motion_54_Neck_transform_id" name="Motion_54_Neck_transform">
      <source id="Motion_54_Neck_transform_frame_id" name="Motion_54_Neck_transform_frame">
        <float_array id="Motion_54_Neck_transform_frame_array_id" count="16">0 0.033333335 0.06666667 0.1 0.13333334 0.16666667 0.2 0.23333333 0.26666668 0.3 0.33333334 0.36666667 0.4 0.43333334 0.46666667 0.5</float_array>
        <technique_common>
          <accessor source="#Motion_54_Neck_transform_frame_array_id" count="16" stride="1">
            <param name="TIME" type="float" />
          </accessor>
        </technique_common>
      </source>
      <source id="Motion_54_Neck_transform_interp_id" name="Motion_54_Neck_transform_interp">
        <Name_array id="Motion_54_Neck_transform_interp_array_id" count="16">LINEAR LINEAR LINEAR LINEAR LINEAR LINEAR LINEAR LINEAR LINEAR LINEAR LINEAR LINEAR LINEAR LINEAR LINEAR LINEAR</Name_array>
        <technique_common>
          <accessor source="#Motion_54_Neck_transform_interp_array_id" count="16" stride="1">
            <param name="INTERPOLATION" type="Name" />
          </accessor>
        </technique_common>
      </source>
      <source id="Motion_54_Neck_transform_pose_id" name="Motion_54_Neck_transform_pose">
        <float_array id="Motion_54_Neck_transform_pose_array_id" count="256">0.8240621 0 -0.5664995 16.800177 0 1 0 0 0.5664995 0 0.8240621 0 0 0 0 1 0.822453 -0.00030935835 -0.568833 16.800177 0.00043405028 0.9999999 8.372866E-05 0 0.5688329 -0.00031576498 0.8224531 0 0 0 0 1 0.81864095 -0.00056977564 -0.57430536 16.800177 0.00092034234 0.9999995 0.00031978555 0 0.5743049 -0.0007903471 0.8186411 0 0 0 0 1 0.8136541 -0.00076025643 -0.5813487 16.800177 0.0014257253 0.99999875 0.00068769703 0 0.5813475 -0.0013883912 0.8136542 0 0 0 0 1 0.80897504 -0.0008624963 -0.58784235 16.800177 0.0019163262 0.9999975 0.0011699838 0 0.58783984 -0.0020729853 0.8089747 0 0 0 0 1 0.8061497 -0.00086227176 -0.59171104 16.800177 0.0023559257 0.9999957 0.0017524785 0 0.591707 -0.0028067874 0.8061483 0 0 0 0 1 0.8059979 -0.00074751896 -0.59191793 16.800177 0.002706009 0.9999934 0.0024218285 0 0.5919122 -0.003553724 0.80599463 0 0 0 0 1 0.8078941 -0.00050309964 -0.5893274 16.800177 0.0029285932 0.9999907 0.0031610583 0 0.58932036 -0.004279701 0.8078881 0 0 0 0 1 0.8112304 -0.000112093054 -0.58472663 16.800177 0.0029861869 0.9999877 0.003951238 0 0.584719 -0.0049514673 0.81122077 0 0 0 0 1 0.8153969 0.00013829407 -0.57890236 16.800177 0.0031486712 0.99998415 0.004673861 0 0.5788938 -0.0056338245 0.8153835 0 0 0 0 1 0.8200554 -3.4544733E-05 -0.5722841 16.800177 0.0036824285 0.9999796 0.0052163796 0 0.5722723 -0.006385116 0.8200388 0 0 0 0 1 0.82505083 -0.00060482323 -0.56505823 16.800177 0.0045460686 0.9999742 0.005567445 0 0.56504023 -0.0071622184 0.82503223 0 0 0 0 1 0.83006674 -0.0015445666 -0.5576619 16.800177 0.005699762 0.99996746 0.0057143345 0 0.55763495 -0.00792182 0.8300485 0 0 0 0 1 0.83480227 -0.0028241482 -0.55054265 16.800177 0.007104108 0.9999589 0.005642603 0 0.550504 -0.0086215725 0.83478796 0 0 0 0 1 0.83897424 -0.0039683017 -0.5441567 16.800177 0.008275481 0.9999508 0.005466826 0 0.54410815 -0.009089684 0.83896583 0 0 0 0 1 0.83897424 -0.0039683017 -0.5441567 16.800177 0.008275481 0.9999508 0.005466826 0 0.54410815 -0.009089684 0.83896583 0 0 0 0 1</float_array>
        <technique_common>
          <accessor source="#Motion_54_Neck_transform_pose_array_id" count="16" stride="16">
            <param name="TRANSFORM" type="float4x4" />
          </accessor>
        </technique_common>
      </source>
      <sampler id="Motion_54_Neck_transform_samp_id">
        <input semantic="INPUT" source="#Motion_54_Neck_transform_frame_id" />
        <input semantic="INTERPOLATION" source="#Motion_54_Neck_transform_interp_id" />
        <input semantic="OUTPUT" source="#Motion_54_Neck_transform_pose_id" />
      </sampler>
      <channel source="#Motion_54_Neck_transform_samp_id" target="Neck_bone_id/transform" />
    </animation>
    <animation id="Motion_54_Head_transform_id" name="Motion_54_Head_transform">
      <source id="Motion_54_Head_transform_frame_id" name="Motion_54_Head_transform_frame">
        <float_array id="Motion_54_Head_transform_frame_array_id" count="16">0 0.033333335 0.06666667 0.1 0.13333334 0.16666667 0.2 0.23333333 0.26666668 0.3 0.33333334 0.36666667 0.4 0.43333334 0.46666667 0.5</float_array>
        <technique_common>
          <accessor source="#Motion_54_Head_transform_frame_array_id" count="16" stride="1">
            <param name="TIME" type="float" />
          </accessor>
        </technique_common>
      </source>
      <source id="Motion_54_Head_transform_interp_id" name="Motion_54_Head_transform_interp">
        <Name_array id="Motion_54_Head_transform_interp_array_id" count="16">LINEAR LINEAR LINEAR LINEAR LINEAR LINEAR LINEAR LINEAR LINEAR LINEAR LINEAR LINEAR LINEAR LINEAR LINEAR LINEAR</Name_array>
        <technique_common>
          <accessor source="#Motion_54_Head_transform_interp_array_id" count="16" stride="1">
            <param name="INTERPOLATION" type="Name" />
          </accessor>
        </technique_common>
      </source>
      <source id="Motion_54_Head_transform_pose_id" name="Motion_54_Head_transform_pose">
        <float_array id="Motion_54_Head_transform_pose_array_id" count="256">0.71066844 -0.019037083 0.7032695 5.1201954 0.03146761 0.99949354 -0.004742983 0 -0.70282304 0.025500897 0.7109075 0 0 0 0 1 0.7158903 -0.018249582 0.6979743 5.1201954 0.030875903 0.9995079 -0.00553481 0 -0.6975298 0.025512904 0.7161014 0 0 0 0 1 0.7290144 -0.016648142 0.68429583 5.1201954 0.02978024 0.999529 -0.0074089635 0 -0.6838502 0.025779737 0.72916687 0 0 0 0 1 0.74739814 -0.013956422 0.66422975 5.1201954 0.027970454 0.9995539 -0.010470578 0 -0.66378736 0.026404498 0.7474551 0 0 0 0 1 0.76775837 -0.009889172 0.6406632 5.1201954 0.025222251 0.99957234 -0.014796619 0 -0.6402429 0.027519196 0.76767945 0 0 0 0 1 0.7871231 -0.0041641407 0.6167819 5.1201954 0.02132127 0.9995633 -0.020461274 0 -0.61642736 0.029256115 0.7868681 0 0 0 0 1 0.80290574 0.0030488372 0.59609824 5.1201954 0.016549094 0.99948746 -0.027402591 0 -0.5958763 0.031866584 0.80244374 0 0 0 0 1 0.81285036 0.011073187 0.5823673 5.1201954 0.0115167145 0.9993183 -0.03507581 0 -0.5823587 0.03521834 0.8121687 0 0 0 0 1 0.8157573 0.019390507 0.5780693 5.1201954 0.006529188 0.9990655 -0.04272605 0 -0.5783576 0.03862841 0.81486833 0 0 0 0 1 0.81297004 0.027492251 0.58165616 5.1201954 0.0019090818 0.99875367 -0.04987485 0 -0.5823024 0.041657187 0.8119043 0 0 0 0 1 0.80604565 0.03483789 0.5908271 5.1201954 -0.002088327 0.99842733 -0.056022838 0 -0.5918497 0.043923125 0.80485076 0 0 0 0 1 0.7965002 0.04086078 0.603256 5.1201954 -0.0052776504 0.99814576 -0.060639866 0 -0.6046152 0.045115896 0.795239 0 0 0 0 1 0.7854629 0.045136664 0.6172606 5.1201954 -0.007666044 0.9979701 -0.0632207 0 -0.6188612 0.04492557 0.78421456 0 0 0 0 1 0.77784866 0.047647424 0.62664276 5.1201954 -0.009854041 0.99792385 -0.06364639 0 -0.6283744 0.043332294 0.77670324 0 0 0 0 1 0.77284694 0.048933037 0.632703 5.1201954 -0.01192368 0.99796635 -0.0626176 0 -0.6344804 0.040849667 0.7718587 0 0 0 0 1 0.77284694 0.048933037 0.632703 5.1201954 -0.01192368 0.99796635 -0.0626176 0 -0.6344804 0.040849667 0.7718587 0 0 0 0 1</float_array>
        <technique_common>
          <accessor source="#Motion_54_Head_transform_pose_array_id" count="16" stride="16">
            <param name="TRANSFORM" type="float4x4" />
          </accessor>
        </technique_common>
      </source>
      <sampler id="Motion_54_Head_transform_samp_id">
        <input semantic="INPUT" source="#Motion_54_Head_transform_frame_id" />
        <input semantic="INTERPOLATION" source="#Motion_54_Head_transform_interp_id" />
        <input semantic="OUTPUT" source="#Motion_54_Head_transform_pose_id" />
      </sampler>
      <channel source="#Motion_54_Head_transform_samp_id" target="Head_bone_id/transform" />
    </animation>
    <animation id="Motion_54_Parts_transform_id" name="Motion_54_Parts_transform">
      <source id="Motion_54_Parts_transform_frame_id" name="Motion_54_Parts_transform_frame">
        <float_array id="Motion_54_Parts_transform_frame_array_id" count="16">0 0.033333335 0.06666667 0.1 0.13333334 0.16666667 0.2 0.23333333 0.26666668 0.3 0.33333334 0.36666667 0.4 0.43333334 0.46666667 0.5</float_array>
        <technique_common>
          <accessor source="#Motion_54_Parts_transform_frame_array_id" count="16" stride="1">
            <param name="TIME" type="float" />
          </accessor>
        </technique_common>
      </source>
      <source id="Motion_54_Parts_transform_interp_id" name="Motion_54_Parts_transform_interp">
        <Name_array id="Motion_54_Parts_transform_interp_array_id" count="16">LINEAR LINEAR LINEAR LINEAR LINEAR LINEAR LINEAR LINEAR LINEAR LINEAR LINEAR LINEAR LINEAR LINEAR LINEAR LINEAR</Name_array>
        <technique_common>
          <accessor source="#Motion_54_Parts_transform_interp_array_id" count="16" stride="1">
            <param name="INTERPOLATION" type="Name" />
          </accessor>
        </technique_common>
      </source>
      <source id="Motion_54_Parts_transform_pose_id" name="Motion_54_Parts_transform_pose">
        <float_array id="Motion_54_Parts_transform_pose_array_id" count="256">-0.9735135 0.046083227 0.22393788 19.63721 0.04694718 0.9988963 -0.0014676293 -0.10776695 -0.22375835 0.009084496 -0.97460246 -16.800657 0 0 0 1 -0.9759425 0.043490846 0.21364675 19.635519 0.044678647 0.99900115 0.0007319716 -0.10776695 -0.21340151 0.010259809 -0.9769108 -16.79892 0 0 0 1 -0.98147976 0.039763417 0.18739457 19.633993 0.04106054 0.999152 0.0030437678 -0.10776695 -0.18711464 0.010681918 -0.98228025 -16.797737 0 0 0 1 -0.9879763 0.035190843 0.15054776 19.632614 0.03612572 0.9993412 0.0034785757 -0.10776695 -0.15032618 0.008875396 -0.9885967 -16.797096 0 0 0 1 -0.9933927 0.029907262 0.11080107 19.63137 0.03010683 0.9995467 0.00012809958 -0.10776695 -0.11074701 0.0034631216 -0.9938427 -16.796982 0 0 0 1 -0.997017 0.023869023 0.07339914 19.630247 0.023335133 0.9996947 -0.008122893 -0.10776695 -0.073570624 -0.0063858833 -0.99726963 -16.79738 0 0 0 1 -0.9989451 0.017145164 0.04259517 19.629236 0.016305357 0.9996673 -0.019985856 -0.10776695 -0.04292366 -0.019270247 -0.9988923 -16.798271 0 0 0 1 -0.9996371 0.010682173 0.024741093 19.628315 0.009845285 0.9993834 -0.03370412 -0.10776695 -0.025085868 -0.033448298 -0.99912584 -16.799643 0 0 0 1 -0.99971354 0.0057324073 0.023226162 19.62748 0.004622469 0.99885756 -0.04756327 -0.10776695 -0.023472281 -0.047442295 -0.998598 -16.801481 0 0 0 1 -0.999382 0.0034690904 0.03498121 19.626709 0.0013714117 0.9982087 -0.059812456 -0.10776695 -0.03512604 -0.059727512 -0.9975966 -16.803768 0 0 0 1 -0.998382 0.004307609 0.05669801 19.625994 0.0004031508 0.99763757 -0.068696134 -0.10776695 -0.056859978 -0.06856213 -0.9960251 -16.806488 0 0 0 1 -0.9963411 0.007430112 0.08513896 19.625319 0.0012702802 0.997391 -0.07217722 -0.10776695 -0.08545312 -0.071805 -0.99375117 -16.80963 0 0 0 1 -0.9930748 0.011963723 0.11687379 19.624672 0.0038667493 0.997591 -0.06926216 -0.10776695 -0.117420875 -0.068330586 -0.99072874 -16.813175 0 0 0 1 -0.9888816 0.016935935 0.14773883 19.624037 0.008138554 0.99816823 -0.05994937 -0.10776695 -0.1484835 -0.058080435 -0.9872081 -16.817108 0 0 0 1 -0.9842583 0.021602657 0.17541207 19.623405 0.01374343 0.99885166 -0.045896314 -0.10776695 -0.17620213 -0.042763054 -0.9834249 -16.821415 0 0 0 1 -0.9842583 0.021602657 0.17541207 19.623405 0.01374343 0.99885166 -0.045896314 -0.10776695 -0.17620213 -0.042763054 -0.9834249 -16.821415 0 0 0 1</float_array>
        <technique_common>
          <accessor source="#Motion_54_Parts_transform_pose_array_id" count="16" stride="16">
            <param name="TRANSFORM" type="float4x4" />
          </accessor>
        </technique_common>
      </source>
      <sampler id="Motion_54_Parts_transform_samp_id">
        <input semantic="INPUT" source="#Motion_54_Parts_transform_frame_id" />
        <input semantic="INTERPOLATION" source="#Motion_54_Parts_transform_interp_id" />
        <input semantic="OUTPUT" source="#Motion_54_Parts_transform_pose_id" />
      </sampler>
      <channel source="#Motion_54_Parts_transform_samp_id" target="Parts_bone_id/transform" />
    </animation>
  </library_animations>
  <library_visual_scenes>
    <visual_scene id="tr1010_00_fi_00_clip_id" name="tr1010_00_fi_00_clip">
      <node id="tr1010_00_fi_bone_id" name="tr1010_00_fi" sid="tr1010_00_fi" type="JOINT">
        <matrix sid="transform">1 0 0 0 0 1 0 0 0 0 1 0 0 0 0 1</matrix>
        <node id="Origin_bone_id" name="Origin" sid="Origin" type="JOINT">
          <matrix sid="transform">1 0 0 0 0 1 0 0 0 0 1 0 0 0 0 1</matrix>
          <node id="Waist_bone_id" name="Waist" sid="Waist" type="JOINT">
            <matrix sid="transform">3.1391647E-07 -1 0 0 1 3.1391647E-07 0 90.6 0 0 1 0 0 0 0 1</matrix>
            <node id="Spine2_bone_id" name="Spine2" sid="Spine2" type="JOINT">
              <matrix sid="transform">1 0 0 13.5 0 1 0 0 0 0 1 0 0 0 0 1</matrix>
              <node id="Spine3_bone_id" name="Spine3" sid="Spine3" type="JOINT">
                <matrix sid="transform">0.99582267 0 0.091308646 13.5 0 1 0 0 -0.091308646 0 0.99582267 0 0 0 0 1</matrix>
                <node id="Neck_bone_id" name="Neck" sid="Neck" type="JOINT">
                  <matrix sid="transform">0.9344343 0 -0.35613555 16.800177 0 1 0 0 0.35613555 0 0.9344343 0 0 0 0 1</matrix>
                  <node id="Head_bone_id" name="Head" sid="Head" type="JOINT">
                    <matrix sid="transform">0.9630491 0 0.2693259 5.120195 0 1 0 0 -0.2693259 0 0.9630491 0 0 0 0 1</matrix>
                    <node id="Parts_bone_id" name="Parts" sid="Parts" type="JOINT">
                      <matrix sid="transform">-0.9631259 0 0.2690511 18.688398 0 1 0 0 -0.2690511 0 -0.9631259 -14.598882 0 0 0 1</matrix>
                    </node>
                    <node id="Loc_Head_bone_id" name="Loc_Head" sid="Loc_Head" type="JOINT">
                      <matrix sid="transform">3.1391647E-07 1 0 32.341824 -1 3.1391647E-07 0 0 0 0 1 2.699267 0 0 0 1</matrix>
                    </node>
                    <node id="Loc_Eye_bone_id" name="Loc_Eye" sid="Loc_Eye" type="JOINT">
                      <matrix sid="transform">3.1391647E-07 1 0 9.448259 -1 3.1391647E-07 0 0 0 0 1 14.638897 0 0 0 1</matrix>
                    </node>
                    <node id="Loc_Mouth_bone_id" name="Loc_Mouth" sid="Loc_Mouth" type="JOINT">
                      <matrix sid="transform">3.1391647E-07 1 0 0.203699 -1 3.1391647E-07 0 0 0 0 1 14.743246 0 0 0 1</matrix>
                    </node>
                  </node>
                </node>
                <node id="LShoulder_bone_id" name="LShoulder" sid="LShoulder" type="JOINT">
                  <matrix sid="transform">-0.44190192 0.8924043 -0.09130862 14.18017 -0.89614785 -0.44375566 -2.0772681E-07 -4.5 -0.040518906 0.08182593 0.9958226 -0.240233 0 0 0 1</matrix>
                  <node id="LArm_bone_id" name="LArm" sid="LArm" type="JOINT">
                    <matrix sid="transform">0.8961479 -0.44375545 0 12.61957 0.44375545 0.8961479 0 0 0 0 1 0 0 0 0 1</matrix>
                    <node id="LForeArm_bone_id" name="LForeArm" sid="LForeArm" type="JOINT">
                      <matrix sid="transform">1 0 0 22.6 0 1 0 0 0 0 1 0 0 0 0 1</matrix>
                      <node id="LHand_bone_id" name="LHand" sid="LHand" type="JOINT">
                        <matrix sid="transform">1 0 0 22.600002 0 1 0 0 0 0 1 0 0 0 0 1</matrix>
                      </node>
                    </node>
                  </node>
                </node>
                <node id="RShoulder_bone_id" name="RShoulder" sid="RShoulder" type="JOINT">
                  <matrix sid="transform">-0.44190192 -0.8924043 -0.09130862 14.18017 0.89614785 -0.44375566 2.0772681E-07 4.5 -0.040518906 -0.08182593 0.9958226 -0.240233 0 0 0 1</matrix>
                  <node id="RArm_bone_id" name="RArm" sid="RArm" type="JOINT">
                    <matrix sid="transform">0.8961479 0.44375545 0 12.61957 -0.44375545 0.8961479 0 0 0 0 1 0 0 0 0 1</matrix>
                    <node id="RForeArm_bone_id" name="RForeArm" sid="RForeArm" type="JOINT">
                      <matrix sid="transform">1 0 0 22.6 0 1 0 0 0 0 1 0 0 0 0 1</matrix>
                      <node id="RHand_bone_id" name="RHand" sid="RHand" type="JOINT">
                        <matrix sid="transform">1 0 0 22.600002 0 1 0 0 0 0 1 0 0 0 0 1</matrix>
                      </node>
                    </node>
                  </node>
                </node>
              </node>
            </node>
            <node id="Hips_bone_id" name="Hips" sid="Hips" type="JOINT">
              <matrix sid="transform">-1 -3.2584137E-07 0 -0.010002 3.2584137E-07 -1 0 0 0 0 1 0 0 0 0 1</matrix>
              <node id="LThigh_bone_id" name="LThigh" sid="LThigh" type="JOINT">
                <matrix sid="transform">1 0 0 11.300003 0 1 0 7.8 0 0 1 0 0 0 0 1</matrix>
                <node id="LLeg_bone_id" name="LLeg" sid="LLeg" type="JOINT">
                  <matrix sid="transform">1 0 0 34.299995 0 1 0 0 0 0 1 0 0 0 0 1</matrix>
                  <node id="LFoot_bone_id" name="LFoot" sid="LFoot" type="JOINT">
                    <matrix sid="transform">3.1391647E-07 0 -1 34.3 0 1 0 0 1 0 3.1391647E-07 0 0 0 0 1</matrix>
                  </node>
                </node>
              </node>
              <node id="RThigh_bone_id" name="RThigh" sid="RThigh" type="JOINT">
                <matrix sid="transform">1 0 0 11.299995 0 1 0 -7.8 0 0 1 0 0 0 0 1</matrix>
                <node id="RLeg_bone_id" name="RLeg" sid="RLeg" type="JOINT">
                  <matrix sid="transform">1 0 0 34.3 0 1 0 0 0 0 1 0 0 0 0 1</matrix>
                  <node id="RFoot_bone_id" name="RFoot" sid="RFoot" type="JOINT">
                    <matrix sid="transform">3.1391647E-07 0 -1 34.3 0 1 0 0 1 0 3.1391647E-07 0 0 0 0 1</matrix>
                  </node>
                </node>
              </node>
            </node>
          </node>
          <node id="CamTgtHead_bone_id" name="CamTgtHead" sid="CamTgtHead" type="JOINT">
            <matrix sid="transform">1 0 0 0 0 1 0 148.709 0 0 1 0 0 0 0 1</matrix>
          </node>
          <node id="CamTgtBust_bone_id" name="CamTgtBust" sid="CamTgtBust" type="JOINT">
            <matrix sid="transform">1 0 0 0 0 1 0 117.6 0 0 1 0 0 0 0 1</matrix>
          </node>
          <node id="CamTgtBody_bone_id" name="CamTgtBody" sid="CamTgtBody" type="JOINT">
            <matrix sid="transform">1 0 0 0 0 1 0 90.6 0 0 1 0 0 0 0 1</matrix>
          </node>
          <node id="CamTgtFoot_bone_id" name="CamTgtFoot" sid="CamTgtFoot" type="JOINT">
            <matrix sid="transform">1 0 0 0 0 1 0 0 0 0 1 0 0 0 0 1</matrix>
          </node>
        </node>
        <node id="tr1010_00_fi_HairSkin_bone_id" name="tr1010_00_fi_HairSkin" sid="tr1010_00_fi_HairSkin" type="JOINT">
          <matrix sid="transform">1 0 0 0 0 1 0 0 0 0 1 0 0 0 0 1</matrix>
        </node>
        <node id="tr1010_00_fi_HairpartSkin_bone_id" name="tr1010_00_fi_HairpartSkin" sid="tr1010_00_fi_HairpartSkin" type="JOINT">
          <matrix sid="transform">1 0 0 0 0 1 0 0 0 0 1 0 0 0 0 1</matrix>
        </node>
        <node id="tr1010_00_fi_FaceSkin_bone_id" name="tr1010_00_fi_FaceSkin" sid="tr1010_00_fi_FaceSkin" type="JOINT">
          <matrix sid="transform">1 0 0 0 0 1 0 0 0 0 1 0 0 0 0 1</matrix>
        </node>
        <node id="tr1010_00_fi_BodySkin_bone_id" name="tr1010_00_fi_BodySkin" sid="tr1010_00_fi_BodySkin" type="JOINT">
          <matrix sid="transform">1 0 0 0 0 1 0 0 0 0 1 0 0 0 0 1</matrix>
        </node>
      </node>
    </visual_scene>
  </library_visual_scenes>
  <scene>
    <instance_visual_scene url="#tr1010_00_fi_00_clip_id" />
  </scene>
</COLLADA>