<?xml version="1.0" encoding="utf-8"?>
<COLLADA xmlns:xsi="http://www.w3.org/2001/XMLSchema-instance" xmlns:xsd="http://www.w3.org/2001/XMLSchema" version="1.4.1" xmlns="http://www.collada.org/2005/11/COLLADASchema">
  <asset>
    <created>2026-02-17T05:46:55.3821527-05:00</created>
    <modified>2026-02-17T05:46:55.3821534-05:00</modified>
    <up_axis>Y_UP</up_axis>
  </asset>
  <library_animations>
    <animation id="Motion_31_Waist_transform_id" name="Motion_31_Waist_transform">
      <source id="Motion_31_Waist_transform_frame_id" name="Motion_31_Waist_transform_frame">
        <float_array id="Motion_31_Waist_transform_frame_array_id" count="17">0 0.033333335 0.06666667 0.1 0.13333334 0.16666667 0.2 0.23333333 0.26666668 0.3 0.33333334 0.36666667 0.4 0.43333334 0.46666667 0.5 0.53333336</float_array>
        <technique_common>
          <accessor source="#Motion_31_Waist_transform_frame_array_id" count="17" stride="1">
            <param name="TIME" type="float" />
          </accessor>
        </technique_common>
      </source>
      <source id="Motion_31_Waist_transform_interp_id" name="Motion_31_Waist_transform_interp">
        <Name_array id="Motion_31_Waist_transform_interp_array_id" count="17">LINEAR LINEAR LINEAR LINEAR LINEAR LINEAR LINEAR LINEAR LINEAR LINEAR LINEAR LINEAR LINEAR LINEAR LINEAR LINEAR LINEAR</Name_array>
        <technique_common>
          <accessor source="#Motion_31_Waist_transform_interp_array_id" count="17" stride="1">
            <param name="INTERPOLATION" type="Name" />
          </accessor>
        </technique_common>
      </source>
      <source id="Motion_31_Waist_transform_pose_id" name="Motion_31_Waist_transform_pose">
        <float_array id="Motion_31_Waist_transform_pose_array_id" count="272">-0.07659745 -0.9955636 -0.054641694 -0.25134537 0.48582518 0.010590434 -0.8739917 13.018943 0.8706932 -0.09349194 0.48285878 2.3447757 0 0 0 1 -0.07659745 -0.9955636 -0.054641694 -0.21519546 0.48582518 0.010590434 -0.8739917 13.018943 0.8706932 -0.09349194 0.48285878 2.4236915 0 0 0 1 -0.07659745 -0.9955636 -0.054641694 -0.16513982 0.48582518 0.010590434 -0.8739917 13.018943 0.8706932 -0.09349194 0.48285878 2.6246052 0 0 0 1 -0.07659745 -0.9955636 -0.054641694 -0.09618737 0.48582518 0.010590434 -0.8739917 13.018943 0.8706932 -0.09349194 0.48285878 2.9160464 0 0 0 1 -0.07659745 -0.9955636 -0.054641694 -0.012487136 0.48582518 0.010590434 -0.8739917 13.018943 0.8706932 -0.09349194 0.48285878 3.2537532 0 0 0 1 -0.07659745 -0.9955636 -0.054641694 0.07188198 0.48582518 0.010590434 -0.8739917 13.018943 0.8706932 -0.09349194 0.48285878 3.5934627 0 0 0 1 -0.07659745 -0.9955636 -0.054641694 0.14701635 0.48582518 0.010590434 -0.8739917 13.018943 0.8706932 -0.09349194 0.48285878 3.8909128 0 0 0 1 -0.07659745 -0.9955636 -0.054641694 0.20301229 0.48582518 0.010590434 -0.8739917 13.018943 0.8706932 -0.09349194 0.48285878 4.101841 0 0 0 1 -0.07659745 -0.9955636 -0.054641694 0.22996616 0.48582518 0.010590434 -0.8739917 13.018943 0.8706932 -0.09349194 0.48285878 4.181985 0 0 0 1 -0.07659745 -0.9955636 -0.054641694 0.21797428 0.48582518 0.010590434 -0.8739917 13.018943 0.8706932 -0.09349194 0.48285878 4.1018376 0 0 0 1 -0.07659745 -0.9955636 -0.054641694 0.16587466 0.48582518 0.010590434 -0.8739917 13.018943 0.8706932 -0.09349194 0.48285878 3.890908 0 0 0 1 -0.07659745 -0.9955636 -0.054641694 0.08764899 0.48582518 0.010590434 -0.8739917 13.018943 0.8706932 -0.09349194 0.48285878 3.5934582 0 0 0 1 -0.07659745 -0.9955636 -0.054641694 -0.0038908618 0.48582518 0.010590434 -0.8739917 13.018943 0.8706932 -0.09349194 0.48285878 3.25375 0 0 0 1 -0.07659745 -0.9955636 -0.054641694 -0.095933035 0.48582518 0.010590434 -0.8739917 13.018943 0.8706932 -0.09349194 0.48285878 2.9160447 0 0 0 1 -0.07659745 -0.9955636 -0.054641694 -0.17566556 0.48582518 0.010590434 -0.8739917 13.018943 0.8706932 -0.09349194 0.48285878 2.624605 0 0 0 1 -0.07659745 -0.9955636 -0.054641694 -0.23027664 0.48582518 0.010590434 -0.8739917 13.018943 0.8706932 -0.09349194 0.48285878 2.4236915 0 0 0 1 -0.07659745 -0.9955636 -0.054641694 -0.23027664 0.48582518 0.010590434 -0.8739917 13.018943 0.8706932 -0.09349194 0.48285878 2.4236915 0 0 0 1</float_array>
        <technique_common>
          <accessor source="#Motion_31_Waist_transform_pose_array_id" count="17" stride="16">
            <param name="TRANSFORM" type="float4x4" />
          </accessor>
        </technique_common>
      </source>
      <sampler id="Motion_31_Waist_transform_samp_id">
        <input semantic="INPUT" source="#Motion_31_Waist_transform_frame_id" />
        <input semantic="INTERPOLATION" source="#Motion_31_Waist_transform_interp_id" />
        <input semantic="OUTPUT" source="#Motion_31_Waist_transform_pose_id" />
      </sampler>
      <channel source="#Motion_31_Waist_transform_samp_id" target="Waist_bone_id/transform" />
    </animation>
    <animation id="Motion_31_Hips_transform_id" name="Motion_31_Hips_transform">
      <source id="Motion_31_Hips_transform_frame_id" name="Motion_31_Hips_transform_frame">
        <float_array id="Motion_31_Hips_transform_frame_array_id" count="17">0 0.033333335 0.06666667 0.1 0.13333334 0.16666667 0.2 0.23333333 0.26666668 0.3 0.33333334 0.36666667 0.4 0.43333334 0.46666667 0.5 0.53333336</float_array>
        <technique_common>
          <accessor source="#Motion_31_Hips_transform_frame_array_id" count="17" stride="1">
            <param name="TIME" type="float" />
          </accessor>
        </technique_common>
      </source>
      <source id="Motion_31_Hips_transform_interp_id" name="Motion_31_Hips_transform_interp">
        <Name_array id="Motion_31_Hips_transform_interp_array_id" count="17">LINEAR LINEAR LINEAR LINEAR LINEAR LINEAR LINEAR LINEAR LINEAR LINEAR LINEAR LINEAR LINEAR LINEAR LINEAR LINEAR LINEAR</Name_array>
        <technique_common>
          <accessor source="#Motion_31_Hips_transform_interp_array_id" count="17" stride="1">
            <param name="INTERPOLATION" type="Name" />
          </accessor>
        </technique_common>
      </source>
      <source id="Motion_31_Hips_transform_pose_id" name="Motion_31_Hips_transform_pose">
        <float_array id="Motion_31_Hips_transform_pose_array_id" count="272">-0.9983145 0.010729104 -0.05703698 -0.001 -0.010743426 -0.9999424 -5.5525627E-05 0 -0.057034284 0.00055734057 0.9983721 0 0 0 0 1 -0.99574363 0.07239543 -0.05704564 -0.001 -0.07234293 -0.9973756 -0.002987675 0 -0.05711221 0.0011518905 0.99836713 0 0 0 0 1 -0.9895762 0.13225405 -0.056990262 -0.001 -0.13215248 -0.9912139 -0.005564131 0 -0.05722541 0.0020252725 0.9983592 0 0 0 0 1 -0.98050773 0.18806383 -0.056889802 -0.001 -0.18793032 -0.98215175 -0.007736385 0 -0.057329364 0.0031057326 0.9983505 0 0 0 0 1 -0.9696741 0.23771472 -0.056777366 -0.001 -0.23756574 -0.9713254 -0.009457756 0 -0.057397544 0.0043174163 0.99834204 0 0 0 0 1 -0.95854163 0.2792559 -0.056694705 -0.001 -0.27910742 -0.96020055 -0.010682079 0 -0.057421315 0.0055846972 0.9983344 0 0 0 0 1 -0.94875634 0.3108871 -0.05666023 -0.001 -0.3107453 -0.95042324 -0.011520614 0 -0.05743282 0.006676645 0.9983271 0 0 0 0 1 -0.9419644 0.3308932 -0.05668008 -0.001 -0.33075485 -0.9436393 -0.01207711 0 -0.05748179 0.0073710023 0.9983193 0 0 0 0 1 -0.93943596 0.33802718 -0.05654377 -0.001 -0.3378896 -0.9411055 -0.012267044 0 -0.057360265 0.00758145 0.99832475 0 0 0 0 1 -0.94866574 0.31117108 -0.056620464 -0.001 -0.3110297 -0.9503304 -0.011516999 0 -0.057391904 0.006684866 0.99832934 0 0 0 0 1 -0.9686457 0.2418164 -0.057008572 -0.001 -0.2416659 -0.97031164 -0.00962353 0 -0.05764322 0.004455236 0.9983273 0 0 0 0 1 -0.9874439 0.14717628 -0.057385407 -0.001 -0.14701225 -0.9891089 -0.007092689 0 -0.05780431 0.0014327241 0.9983269 0 0 0 0 1 -0.99725807 0.04629723 -0.057731792 -0.001 -0.04611566 -0.99892616 -0.004474095 0 -0.05787693 -0.0017994877 0.9983221 0 0 0 0 1 -0.9974998 -0.040472962 -0.057930373 -0.001 0.04068052 -0.99916923 -0.0024076374 0 -0.057784803 -0.0047582556 0.9983177 0 0 0 0 1 -0.993968 -0.09307913 -0.057999104 -0.001 0.093293644 -0.99563813 -0.0009960111 0 -0.057653412 -0.006400951 0.9983161 0 0 0 0 1 -0.9957583 -0.071769476 -0.057572365 -0.001 0.071919814 -0.9974102 -0.0005408614 0 -0.057384454 -0.004679161 0.9983412 0 0 0 0 1 -0.9957583 -0.071769476 -0.057572365 -0.001 0.071919814 -0.9974102 -0.0005408614 0 -0.057384454 -0.004679161 0.9983412 0 0 0 0 1</float_array>
        <technique_common>
          <accessor source="#Motion_31_Hips_transform_pose_array_id" count="17" stride="16">
            <param name="TRANSFORM" type="float4x4" />
          </accessor>
        </technique_common>
      </source>
      <sampler id="Motion_31_Hips_transform_samp_id">
        <input semantic="INPUT" source="#Motion_31_Hips_transform_frame_id" />
        <input semantic="INTERPOLATION" source="#Motion_31_Hips_transform_interp_id" />
        <input semantic="OUTPUT" source="#Motion_31_Hips_transform_pose_id" />
      </sampler>
      <channel source="#Motion_31_Hips_transform_samp_id" target="Hips_bone_id/transform" />
    </animation>
    <animation id="Motion_31_Tail1_transform_id" name="Motion_31_Tail1_transform">
      <source id="Motion_31_Tail1_transform_frame_id" name="Motion_31_Tail1_transform_frame">
        <float_array id="Motion_31_Tail1_transform_frame_array_id" count="17">0 0.033333335 0.06666667 0.1 0.13333334 0.16666667 0.2 0.23333333 0.26666668 0.3 0.33333334 0.36666667 0.4 0.43333334 0.46666667 0.5 0.53333336</float_array>
        <technique_common>
          <accessor source="#Motion_31_Tail1_transform_frame_array_id" count="17" stride="1">
            <param name="TIME" type="float" />
          </accessor>
        </technique_common>
      </source>
      <source id="Motion_31_Tail1_transform_interp_id" name="Motion_31_Tail1_transform_interp">
        <Name_array id="Motion_31_Tail1_transform_interp_array_id" count="17">LINEAR LINEAR LINEAR LINEAR LINEAR LINEAR LINEAR LINEAR LINEAR LINEAR LINEAR LINEAR LINEAR LINEAR LINEAR LINEAR LINEAR</Name_array>
        <technique_common>
          <accessor source="#Motion_31_Tail1_transform_interp_array_id" count="17" stride="1">
            <param name="INTERPOLATION" type="Name" />
          </accessor>
        </technique_common>
      </source>
      <source id="Motion_31_Tail1_transform_pose_id" name="Motion_31_Tail1_transform_pose">
        <float_array id="Motion_31_Tail1_transform_pose_array_id" count="272">0.98884916 -0.010798003 0.14852874 11.641838 0.010675197 0.9999417 0.0016240228 -1.578E-08 -0.14853762 -2.0340143E-05 0.98890674 0 0 0 0 1 0.98867404 -0.018181663 0.14897351 11.641838 0.018223263 0.99983335 0.0010858712 -1.578E-08 -0.14896841 0.0016412105 0.9888406 0 0 0 0 1 0.98800886 -0.037788793 0.1497016 11.641838 0.038112573 0.9992732 0.00070655206 -1.578E-08 -0.14961949 0.005007433 0.98873097 0 0 0 0 1 0.9863102 -0.06698039 0.1506846 11.641838 0.06767644 0.9977072 0.00051004905 -1.578E-08 -0.15037328 0.009694732 0.9885818 0 0 0 0 1 0.98310107 -0.102186315 0.15188901 11.641838 0.10331663 0.9946484 0.00045279087 -1.578E-08 -0.15112244 0.015247522 0.9883975 0 0 0 0 1 0.9782413 -0.13982594 0.15327288 11.641838 0.14142343 0.9899491 0.00048488192 -1.578E-08 -0.15180014 0.021202045 0.9881838 0 0 0 0 1 0.9720808 -0.17635238 0.15478583 11.641838 0.17841968 0.9839543 0.0005447641 -1.578E-08 -0.15239824 0.02708728 0.9879479 0 0 0 0 1 0.9654838 -0.20830481 0.15636545 11.641838 0.21080647 0.9775276 0.0005978327 -1.578E-08 -0.1529761 0.032385655 0.9876991 0 0 0 0 1 0.95976055 -0.23234297 0.15772273 11.641838 0.23518257 0.97195095 0.000678692 -1.578E-08 -0.15345643 0.036442254 0.9874832 0 0 0 0 1 0.9560799 -0.2466008 0.1584276 11.641838 0.24961337 0.96834517 0.00091122463 -1.578E-08 -0.15363729 0.03867444 0.9873702 0 0 0 0 1 0.95678216 -0.24399921 0.15821606 11.641838 0.24695474 0.9690265 0.0010100752 -1.578E-08 -0.15356201 0.038105782 0.987404 0 0 0 0 1 0.96368694 -0.21611899 0.156844 11.641838 0.21872753 0.97578573 0.0006437227 -1.578E-08 -0.15318526 0.033685755 0.98762316 0 0 0 0 1 0.97312963 -0.17067817 0.15455635 11.641838 0.1726628 0.9849808 0.0005915258 -1.578E-08 -0.15233599 0.0261105 0.9879838 0 0 0 0 1 0.98139584 -0.11709925 0.15215123 11.641838 0.11834761 0.99297184 0.0008570701 -1.578E-08 -0.15118223 0.017165607 0.9883568 0 0 0 0 1 0.98655623 -0.06456771 0.15012601 11.641838 0.065130256 0.9978761 0.0011717395 -1.578E-08 -0.14988282 0.00862176 0.9886662 0 0 0 0 1 0.988509 -0.02609302 0.14889313 11.641838 0.026169414 0.9996565 0.0014463767 -1.578E-08 -0.14887972 0.0024666898 0.98885226 0 0 0 0 1 0.988509 -0.02609302 0.14889313 11.641838 0.026169414 0.9996565 0.0014463767 -1.578E-08 -0.14887972 0.0024666898 0.98885226 0 0 0 0 1</float_array>
        <technique_common>
          <accessor source="#Motion_31_Tail1_transform_pose_array_id" count="17" stride="16">
            <param name="TRANSFORM" type="float4x4" />
          </accessor>
        </technique_common>
      </source>
      <sampler id="Motion_31_Tail1_transform_samp_id">
        <input semantic="INPUT" source="#Motion_31_Tail1_transform_frame_id" />
        <input semantic="INTERPOLATION" source="#Motion_31_Tail1_transform_interp_id" />
        <input semantic="OUTPUT" source="#Motion_31_Tail1_transform_pose_id" />
      </sampler>
      <channel source="#Motion_31_Tail1_transform_samp_id" target="Tail1_bone_id/transform" />
    </animation>
    <animation id="Motion_31_Tail2_transform_id" name="Motion_31_Tail2_transform">
      <source id="Motion_31_Tail2_transform_frame_id" name="Motion_31_Tail2_transform_frame">
        <float_array id="Motion_31_Tail2_transform_frame_array_id" count="17">0 0.033333335 0.06666667 0.1 0.13333334 0.16666667 0.2 0.23333333 0.26666668 0.3 0.33333334 0.36666667 0.4 0.43333334 0.46666667 0.5 0.53333336</float_array>
        <technique_common>
          <accessor source="#Motion_31_Tail2_transform_frame_array_id" count="17" stride="1">
            <param name="TIME" type="float" />
          </accessor>
        </technique_common>
      </source>
      <source id="Motion_31_Tail2_transform_interp_id" name="Motion_31_Tail2_transform_interp">
        <Name_array id="Motion_31_Tail2_transform_interp_array_id" count="17">LINEAR LINEAR LINEAR LINEAR LINEAR LINEAR LINEAR LINEAR LINEAR LINEAR LINEAR LINEAR LINEAR LINEAR LINEAR LINEAR LINEAR</Name_array>
        <technique_common>
          <accessor source="#Motion_31_Tail2_transform_interp_array_id" count="17" stride="1">
            <param name="INTERPOLATION" type="Name" />
          </accessor>
        </technique_common>
      </source>
      <source id="Motion_31_Tail2_transform_pose_id" name="Motion_31_Tail2_transform_pose">
        <float_array id="Motion_31_Tail2_transform_pose_array_id" count="272">0.98979056 -0.035579816 0.13801733 9.954459 0.034993112 0.99936527 0.0066758157 0 -0.13816723 -0.0017780033 0.99040735 0 0 0 0 1 0.98979056 -0.035579816 0.13801733 9.954459 0.034993112 0.99936527 0.0066758157 0 -0.13816723 -0.0017780033 0.99040735 0 0 0 0 1 0.98979056 -0.035579816 0.13801733 9.954459 0.034993112 0.99936527 0.0066758157 0 -0.13816723 -0.0017780033 0.99040735 0 0 0 0 1 0.98979056 -0.035579816 0.13801733 9.954459 0.034993112 0.99936527 0.0066758157 0 -0.13816723 -0.0017780033 0.99040735 0 0 0 0 1 0.98979056 -0.035579816 0.13801733 9.954459 0.034993112 0.99936527 0.0066758157 0 -0.13816723 -0.0017780033 0.99040735 0 0 0 0 1 0.98979056 -0.035579816 0.13801733 9.954459 0.034993112 0.99936527 0.0066758157 0 -0.13816723 -0.0017780033 0.99040735 0 0 0 0 1 0.98979056 -0.035579816 0.13801733 9.954459 0.034993112 0.99936527 0.0066758157 0 -0.13816723 -0.0017780033 0.99040735 0 0 0 0 1 0.98979056 -0.035579816 0.13801733 9.954459 0.034993112 0.99936527 0.0066758157 0 -0.13816723 -0.0017780033 0.99040735 0 0 0 0 1 0.98979056 -0.035579816 0.13801733 9.954459 0.034993112 0.99936527 0.0066758157 0 -0.13816723 -0.0017780033 0.99040735 0 0 0 0 1 0.98979056 -0.035579816 0.13801733 9.954459 0.034993112 0.99936527 0.0066758157 0 -0.13816723 -0.0017780033 0.99040735 0 0 0 0 1 0.98979056 -0.035579816 0.13801733 9.954459 0.034993112 0.99936527 0.0066758157 0 -0.13816723 -0.0017780033 0.99040735 0 0 0 0 1 0.98979056 -0.035579816 0.13801733 9.954459 0.034993112 0.99936527 0.0066758157 0 -0.13816723 -0.0017780033 0.99040735 0 0 0 0 1 0.98979056 -0.035579816 0.13801733 9.954459 0.034993112 0.99936527 0.0066758157 0 -0.13816723 -0.0017780033 0.99040735 0 0 0 0 1 0.98979056 -0.035579816 0.13801733 9.954459 0.034993112 0.99936527 0.0066758157 0 -0.13816723 -0.0017780033 0.99040735 0 0 0 0 1 0.98979056 -0.035579816 0.13801733 9.954459 0.034993112 0.99936527 0.0066758157 0 -0.13816723 -0.0017780033 0.99040735 0 0 0 0 1 0.98979056 -0.035579816 0.13801733 9.954459 0.034993112 0.99936527 0.0066758157 0 -0.13816723 -0.0017780033 0.99040735 0 0 0 0 1 0.98979056 -0.035579816 0.13801733 9.954459 0.034993112 0.99936527 0.0066758157 0 -0.13816723 -0.0017780033 0.99040735 0 0 0 0 1</float_array>
        <technique_common>
          <accessor source="#Motion_31_Tail2_transform_pose_array_id" count="17" stride="16">
            <param name="TRANSFORM" type="float4x4" />
          </accessor>
        </technique_common>
      </source>
      <sampler id="Motion_31_Tail2_transform_samp_id">
        <input semantic="INPUT" source="#Motion_31_Tail2_transform_frame_id" />
        <input semantic="INTERPOLATION" source="#Motion_31_Tail2_transform_interp_id" />
        <input semantic="OUTPUT" source="#Motion_31_Tail2_transform_pose_id" />
      </sampler>
      <channel source="#Motion_31_Tail2_transform_samp_id" target="Tail2_bone_id/transform" />
    </animation>
    <animation id="Motion_31_RTail1_transform_id" name="Motion_31_RTail1_transform">
      <source id="Motion_31_RTail1_transform_frame_id" name="Motion_31_RTail1_transform_frame">
        <float_array id="Motion_31_RTail1_transform_frame_array_id" count="17">0 0.033333335 0.06666667 0.1 0.13333334 0.16666667 0.2 0.23333333 0.26666668 0.3 0.33333334 0.36666667 0.4 0.43333334 0.46666667 0.5 0.53333336</float_array>
        <technique_common>
          <accessor source="#Motion_31_RTail1_transform_frame_array_id" count="17" stride="1">
            <param name="TIME" type="float" />
          </accessor>
        </technique_common>
      </source>
      <source id="Motion_31_RTail1_transform_interp_id" name="Motion_31_RTail1_transform_interp">
        <Name_array id="Motion_31_RTail1_transform_interp_array_id" count="17">LINEAR LINEAR LINEAR LINEAR LINEAR LINEAR LINEAR LINEAR LINEAR LINEAR LINEAR LINEAR LINEAR LINEAR LINEAR LINEAR LINEAR</Name_array>
        <technique_common>
          <accessor source="#Motion_31_RTail1_transform_interp_array_id" count="17" stride="1">
            <param name="INTERPOLATION" type="Name" />
          </accessor>
        </technique_common>
      </source>
      <source id="Motion_31_RTail1_transform_pose_id" name="Motion_31_RTail1_transform_pose">
        <float_array id="Motion_31_RTail1_transform_pose_array_id" count="272">0.5915427 0.8015334 0.087300606 3.0426648 -0.8061752 0.5896851 0.04850822 -2.04772 -0.012598917 -0.09907427 0.9950003 0.0051628673 0 0 0 1 0.5997276 0.7947339 0.093407676 3.0426648 -0.79983497 0.5988987 0.03980401 -2.04772 -0.024308141 -0.09858228 0.994832 0.0051628673 0 0 0 1 0.62072885 0.7760946 0.111233264 3.0426648 -0.782057 0.62295413 0.017746646 -2.04772 -0.05552015 -0.098006606 0.99363583 0.0051628673 0 0 0 1 0.6498374 0.74707615 0.1399596 3.0426648 -0.7532083 0.6576491 -0.013225608 -2.04772 -0.101924844 -0.09682424 0.99006885 0.0051628673 0 0 0 1 0.6812235 0.7102345 0.17748667 3.0426648 -0.714942 0.69757706 -0.047372628 -2.04772 -0.1574563 -0.09462133 0.98298234 0.0051628673 0 0 0 1 0.7100123 0.6686452 0.22089857 3.0426648 -0.67026013 0.73788905 -0.07919017 -2.04772 -0.21594876 -0.09183351 0.97207654 0.0051628673 0 0 0 1 0.73297286 0.6260832 0.26602757 3.0426648 -0.6236374 0.7746528 -0.10483069 -2.04772 -0.2717117 -0.08906669 0.9582483 0.0051628673 0 0 0 1 0.7484318 0.5870686 0.3085454 3.0426648 -0.58034104 0.8049113 -0.12378246 -2.04772 -0.32102048 -0.0864188 0.94312125 0.0051628673 0 0 0 1 0.7568159 0.5565958 0.3426817 3.0426648 -0.546281 0.8264946 -0.13595493 -2.04772 -0.35889655 -0.08430764 0.929562 0.0051628673 0 0 0 1 0.76145995 0.538148 0.36135232 3.0426648 -0.52589315 0.8387852 -0.14098151 -2.04772 -0.3789659 -0.082680926 0.92170966 0.0051628673 0 0 0 1 0.76045465 0.54139787 0.35860434 3.0426648 -0.52969426 0.83659357 -0.13976842 -2.04772 -0.37567642 -0.08366312 0.9229668 0.0051628673 0 0 0 1 0.7510348 0.5771745 0.32064995 3.0426648 -0.5693571 0.8120442 -0.12812783 -2.04772 -0.33433405 -0.08633587 0.9384918 0.0051628673 0 0 0 1 0.7292864 0.63297987 0.25976503 3.0426648 -0.63113034 0.7689591 -0.10186486 -2.04772 -0.2642271 -0.08965692 0.9602842 0.0051628673 0 0 0 1 0.69320977 0.69426554 0.19353426 3.0426648 -0.69804305 0.7135768 -0.05953233 -2.04772 -0.17943281 -0.093826845 0.97928566 0.0051628673 0 0 0 1 0.64744043 0.74978197 0.13655709 3.0426648 -0.7558565 0.6546486 -0.010776989 -2.04772 -0.097477295 -0.0962401 0.9905736 0.0051628673 0 0 0 1 0.60825706 0.7873668 0.10038389 3.0426648 -0.7928892 0.6085807 0.03092347 -2.04772 -0.03674358 -0.09840272 0.9944681 0.0051628673 0 0 0 1 0.60825706 0.7873668 0.10038389 3.0426648 -0.7928892 0.6085807 0.03092347 -2.04772 -0.03674358 -0.09840272 0.9944681 0.0051628673 0 0 0 1</float_array>
        <technique_common>
          <accessor source="#Motion_31_RTail1_transform_pose_array_id" count="17" stride="16">
            <param name="TRANSFORM" type="float4x4" />
          </accessor>
        </technique_common>
      </source>
      <sampler id="Motion_31_RTail1_transform_samp_id">
        <input semantic="INPUT" source="#Motion_31_RTail1_transform_frame_id" />
        <input semantic="INTERPOLATION" source="#Motion_31_RTail1_transform_interp_id" />
        <input semantic="OUTPUT" source="#Motion_31_RTail1_transform_pose_id" />
      </sampler>
      <channel source="#Motion_31_RTail1_transform_samp_id" target="RTail1_bone_id/transform" />
    </animation>
    <animation id="Motion_31_LTail1_transform_id" name="Motion_31_LTail1_transform">
      <source id="Motion_31_LTail1_transform_frame_id" name="Motion_31_LTail1_transform_frame">
        <float_array id="Motion_31_LTail1_transform_frame_array_id" count="17">0 0.033333335 0.06666667 0.1 0.13333334 0.16666667 0.2 0.23333333 0.26666668 0.3 0.33333334 0.36666667 0.4 0.43333334 0.46666667 0.5 0.53333336</float_array>
        <technique_common>
          <accessor source="#Motion_31_LTail1_transform_frame_array_id" count="17" stride="1">
            <param name="TIME" type="float" />
          </accessor>
        </technique_common>
      </source>
      <source id="Motion_31_LTail1_transform_interp_id" name="Motion_31_LTail1_transform_interp">
        <Name_array id="Motion_31_LTail1_transform_interp_array_id" count="17">LINEAR LINEAR LINEAR LINEAR LINEAR LINEAR LINEAR LINEAR LINEAR LINEAR LINEAR LINEAR LINEAR LINEAR LINEAR LINEAR LINEAR</Name_array>
        <technique_common>
          <accessor source="#Motion_31_LTail1_transform_interp_array_id" count="17" stride="1">
            <param name="INTERPOLATION" type="Name" />
          </accessor>
        </technique_common>
      </source>
      <source id="Motion_31_LTail1_transform_pose_id" name="Motion_31_LTail1_transform_pose">
        <float_array id="Motion_31_LTail1_transform_pose_array_id" count="272">0.856554 -0.5095171 0.08190049 3.0426917 0.5143237 0.8558551 -0.0546182 2.0477154 -0.042266052 0.08890681 0.99514276 0.0051629553 0 0 0 1 0.84968334 -0.52003413 0.087193474 3.0426917 0.52545935 0.848851 -0.057831146 2.0477154 -0.043940097 0.09495478 0.99451137 0.0051629553 0 0 0 1 0.83050597 -0.5475639 0.10214534 3.0426917 0.5548655 0.82935464 -0.065537795 2.0477154 -0.04882858 0.111106455 0.99260825 0.0051629553 0 0 0 1 0.799646 -0.5871451 0.12580499 3.0426917 0.5978404 0.7980647 -0.075362474 2.0477154 -0.05615183 0.13547462 0.9891884 0.0051629553 0 0 0 1 0.75851667 -0.63267154 0.15613854 3.0426917 0.64844173 0.7565519 -0.08457257 2.0477154 -0.06462025 0.16539645 0.98410785 0.0051629553 0 0 0 1 0.7093786 -0.6785179 0.19077604 3.0426917 0.7010005 0.7073593 -0.09078086 2.0477154 -0.07335077 0.1981321 0.9774269 0.0051629553 0 0 0 1 0.65568304 -0.7200912 0.22704268 3.0426917 0.750556 0.6543354 -0.09225446 2.0477154 -0.08213041 0.23089793 0.9695054 0.0051629553 0 0 0 1 0.6020895 -0.75408065 0.2623938 3.0426917 0.79322624 0.6023965 -0.08894162 2.0477154 -0.09099593 0.26168847 0.9608532 0.0051629553 0 0 0 1 0.5532334 -0.77963525 0.29343095 3.0426917 0.82716733 0.55583733 -0.08269834 2.0477154 -0.09862534 0.28846797 0.9523966 0.0051629553 0 0 0 1 0.5151282 -0.7965788 0.31639388 3.0426917 0.8507765 0.520011 -0.07594705 2.0477154 -0.10403049 0.30830294 0.94558287 0.0051629553 0 0 0 1 0.49344218 -0.80520475 0.32887727 3.0426917 0.86311305 0.5000294 -0.07075696 2.0477154 -0.10747449 0.31877267 0.9417182 0.0051629553 0 0 0 1 0.500901 -0.8023559 0.32453543 3.0426917 0.8589419 0.5069215 -0.07245244 2.0477154 -0.10638137 0.31504858 0.9430946 0.0051629553 0 0 0 1 0.5701132 -0.77158844 0.28217414 3.0426917 0.8159406 0.57188976 -0.08475241 2.0477154 -0.09597853 0.2785558 0.95561224 0.0051629553 0 0 0 1 0.6709323 -0.70903116 0.2170819 3.0426917 0.7372313 0.6692636 -0.09260816 2.0477154 -0.079622924 0.2221734 0.97175056 0.0051629553 0 0 0 1 0.7663291 -0.62464 0.150215 3.0426917 0.63936126 0.7644005 -0.08312094 2.0477154 -0.062903754 0.15973966 0.98515296 0.0051629553 0 0 0 1 0.83244705 -0.54493517 0.10038739 3.0426917 0.5520218 0.8312878 -0.06505788 2.0477154 -0.04799848 0.10957327 0.99281913 0.0051629553 0 0 0 1 0.83244705 -0.54493517 0.10038739 3.0426917 0.5520218 0.8312878 -0.06505788 2.0477154 -0.04799848 0.10957327 0.99281913 0.0051629553 0 0 0 1</float_array>
        <technique_common>
          <accessor source="#Motion_31_LTail1_transform_pose_array_id" count="17" stride="16">
            <param name="TRANSFORM" type="float4x4" />
          </accessor>
        </technique_common>
      </source>
      <sampler id="Motion_31_LTail1_transform_samp_id">
        <input semantic="INPUT" source="#Motion_31_LTail1_transform_frame_id" />
        <input semantic="INTERPOLATION" source="#Motion_31_LTail1_transform_interp_id" />
        <input semantic="OUTPUT" source="#Motion_31_LTail1_transform_pose_id" />
      </sampler>
      <channel source="#Motion_31_LTail1_transform_samp_id" target="LTail1_bone_id/transform" />
    </animation>
    <animation id="Motion_31_FeelerB_transform_id" name="Motion_31_FeelerB_transform">
      <source id="Motion_31_FeelerB_transform_frame_id" name="Motion_31_FeelerB_transform_frame">
        <float_array id="Motion_31_FeelerB_transform_frame_array_id" count="17">0 0.033333335 0.06666667 0.1 0.13333334 0.16666667 0.2 0.23333333 0.26666668 0.3 0.33333334 0.36666667 0.4 0.43333334 0.46666667 0.5 0.53333336</float_array>
        <technique_common>
          <accessor source="#Motion_31_FeelerB_transform_frame_array_id" count="17" stride="1">
            <param name="TIME" type="float" />
          </accessor>
        </technique_common>
      </source>
      <source id="Motion_31_FeelerB_transform_interp_id" name="Motion_31_FeelerB_transform_interp">
        <Name_array id="Motion_31_FeelerB_transform_interp_array_id" count="17">LINEAR LINEAR LINEAR LINEAR LINEAR LINEAR LINEAR LINEAR LINEAR LINEAR LINEAR LINEAR LINEAR LINEAR LINEAR LINEAR LINEAR</Name_array>
        <technique_common>
          <accessor source="#Motion_31_FeelerB_transform_interp_array_id" count="17" stride="1">
            <param name="INTERPOLATION" type="Name" />
          </accessor>
        </technique_common>
      </source>
      <source id="Motion_31_FeelerB_transform_pose_id" name="Motion_31_FeelerB_transform_pose">
        <float_array id="Motion_31_FeelerB_transform_pose_array_id" count="272">-0.9695208 -2.6045407E-07 -0.24500874 0.20008199 3.922758E-08 -0.9999999 9.0781293E-07 -0.02376926 -0.24500874 8.705325E-07 0.96952087 14.083418 0 0 0 1 -0.9695208 -2.6045407E-07 -0.24500874 0.20008199 3.922758E-08 -0.9999999 9.0781293E-07 -0.02376926 -0.24500874 8.705325E-07 0.96952087 14.083418 0 0 0 1 -0.9695208 -2.6045407E-07 -0.24500874 0.20008199 3.922758E-08 -0.9999999 9.0781293E-07 -0.02376926 -0.24500874 8.705325E-07 0.96952087 14.083418 0 0 0 1 -0.9695208 -2.6045407E-07 -0.24500874 0.20008199 3.922758E-08 -0.9999999 9.0781293E-07 -0.02376926 -0.24500874 8.705325E-07 0.96952087 14.083418 0 0 0 1 -0.9695208 -2.6045407E-07 -0.24500874 0.20008199 3.922758E-08 -0.9999999 9.0781293E-07 -0.02376926 -0.24500874 8.705325E-07 0.96952087 14.083418 0 0 0 1 -0.9695208 -2.6045407E-07 -0.24500874 0.20008199 3.922758E-08 -0.9999999 9.0781293E-07 -0.02376926 -0.24500874 8.705325E-07 0.96952087 14.083418 0 0 0 1 -0.9695208 -2.6045407E-07 -0.24500874 0.20008199 3.922758E-08 -0.9999999 9.0781293E-07 -0.02376926 -0.24500874 8.705325E-07 0.96952087 14.083418 0 0 0 1 -0.9695208 -2.6045407E-07 -0.24500874 0.20008199 3.922758E-08 -0.9999999 9.0781293E-07 -0.02376926 -0.24500874 8.705325E-07 0.96952087 14.083418 0 0 0 1 -0.9695208 -2.6045407E-07 -0.24500874 0.20008199 3.922758E-08 -0.9999999 9.0781293E-07 -0.02376926 -0.24500874 8.705325E-07 0.96952087 14.083418 0 0 0 1 -0.9695208 -2.6045407E-07 -0.24500874 0.20008199 3.922758E-08 -0.9999999 9.0781293E-07 -0.02376926 -0.24500874 8.705325E-07 0.96952087 14.083418 0 0 0 1 -0.9695208 -2.6045407E-07 -0.24500874 0.20008199 3.922758E-08 -0.9999999 9.0781293E-07 -0.02376926 -0.24500874 8.705325E-07 0.96952087 14.083418 0 0 0 1 -0.9695208 -2.6045407E-07 -0.24500874 0.20008199 3.922758E-08 -0.9999999 9.0781293E-07 -0.02376926 -0.24500874 8.705325E-07 0.96952087 14.083418 0 0 0 1 -0.9695208 -2.6045407E-07 -0.24500874 0.20008199 3.922758E-08 -0.9999999 9.0781293E-07 -0.02376926 -0.24500874 8.705325E-07 0.96952087 14.083418 0 0 0 1 -0.9695208 -2.6045407E-07 -0.24500874 0.20008199 3.922758E-08 -0.9999999 9.0781293E-07 -0.02376926 -0.24500874 8.705325E-07 0.96952087 14.083418 0 0 0 1 -0.9695208 -2.6045407E-07 -0.24500874 0.20008199 3.922758E-08 -0.9999999 9.0781293E-07 -0.02376926 -0.24500874 8.705325E-07 0.96952087 14.083418 0 0 0 1 -0.9695208 -2.6045407E-07 -0.24500874 0.20008199 3.922758E-08 -0.9999999 9.0781293E-07 -0.02376926 -0.24500874 8.705325E-07 0.96952087 14.083418 0 0 0 1 -0.9695208 -2.6045407E-07 -0.24500874 0.20008199 3.922758E-08 -0.9999999 9.0781293E-07 -0.02376926 -0.24500874 8.705325E-07 0.96952087 14.083418 0 0 0 1</float_array>
        <technique_common>
          <accessor source="#Motion_31_FeelerB_transform_pose_array_id" count="17" stride="16">
            <param name="TRANSFORM" type="float4x4" />
          </accessor>
        </technique_common>
      </source>
      <sampler id="Motion_31_FeelerB_transform_samp_id">
        <input semantic="INPUT" source="#Motion_31_FeelerB_transform_frame_id" />
        <input semantic="INTERPOLATION" source="#Motion_31_FeelerB_transform_interp_id" />
        <input semantic="OUTPUT" source="#Motion_31_FeelerB_transform_pose_id" />
      </sampler>
      <channel source="#Motion_31_FeelerB_transform_samp_id" target="FeelerB_bone_id/transform" />
    </animation>
    <animation id="Motion_31_FeelerA_transform_id" name="Motion_31_FeelerA_transform">
      <source id="Motion_31_FeelerA_transform_frame_id" name="Motion_31_FeelerA_transform_frame">
        <float_array id="Motion_31_FeelerA_transform_frame_array_id" count="17">0 0.033333335 0.06666667 0.1 0.13333334 0.16666667 0.2 0.23333333 0.26666668 0.3 0.33333334 0.36666667 0.4 0.43333334 0.46666667 0.5 0.53333336</float_array>
        <technique_common>
          <accessor source="#Motion_31_FeelerA_transform_frame_array_id" count="17" stride="1">
            <param name="TIME" type="float" />
          </accessor>
        </technique_common>
      </source>
      <source id="Motion_31_FeelerA_transform_interp_id" name="Motion_31_FeelerA_transform_interp">
        <Name_array id="Motion_31_FeelerA_transform_interp_array_id" count="17">LINEAR LINEAR LINEAR LINEAR LINEAR LINEAR LINEAR LINEAR LINEAR LINEAR LINEAR LINEAR LINEAR LINEAR LINEAR LINEAR LINEAR</Name_array>
        <technique_common>
          <accessor source="#Motion_31_FeelerA_transform_interp_array_id" count="17" stride="1">
            <param name="INTERPOLATION" type="Name" />
          </accessor>
        </technique_common>
      </source>
      <source id="Motion_31_FeelerA_transform_pose_id" name="Motion_31_FeelerA_transform_pose">
        <float_array id="Motion_31_FeelerA_transform_pose_array_id" count="272">-0.94880605 -1.2826419E-08 0.31585896 11.135662 2.8527512E-07 -0.9999999 8.163275E-07 -0.086165756 0.31585896 8.6464325E-07 0.94880617 11.671469 0 0 0 1 -0.94880605 -1.2826419E-08 0.31585896 11.135662 2.8527512E-07 -0.9999999 8.163275E-07 -0.086165756 0.31585896 8.6464325E-07 0.94880617 11.671469 0 0 0 1 -0.94880605 -1.2826419E-08 0.31585896 11.135662 2.8527512E-07 -0.9999999 8.163275E-07 -0.086165756 0.31585896 8.6464325E-07 0.94880617 11.671469 0 0 0 1 -0.94880605 -1.2826419E-08 0.31585896 11.135662 2.8527512E-07 -0.9999999 8.163275E-07 -0.086165756 0.31585896 8.6464325E-07 0.94880617 11.671469 0 0 0 1 -0.94880605 -1.2826419E-08 0.31585896 11.135662 2.8527512E-07 -0.9999999 8.163275E-07 -0.086165756 0.31585896 8.6464325E-07 0.94880617 11.671469 0 0 0 1 -0.94880605 -1.2826419E-08 0.31585896 11.135662 2.8527512E-07 -0.9999999 8.163275E-07 -0.086165756 0.31585896 8.6464325E-07 0.94880617 11.671469 0 0 0 1 -0.94880605 -1.2826419E-08 0.31585896 11.135662 2.8527512E-07 -0.9999999 8.163275E-07 -0.086165756 0.31585896 8.6464325E-07 0.94880617 11.671469 0 0 0 1 -0.94880605 -1.2826419E-08 0.31585896 11.135662 2.8527512E-07 -0.9999999 8.163275E-07 -0.086165756 0.31585896 8.6464325E-07 0.94880617 11.671469 0 0 0 1 -0.94880605 -1.2826419E-08 0.31585896 11.135662 2.8527512E-07 -0.9999999 8.163275E-07 -0.086165756 0.31585896 8.6464325E-07 0.94880617 11.671469 0 0 0 1 -0.94880605 -1.2826419E-08 0.31585896 11.135662 2.8527512E-07 -0.9999999 8.163275E-07 -0.086165756 0.31585896 8.6464325E-07 0.94880617 11.671469 0 0 0 1 -0.94880605 -1.2826419E-08 0.31585896 11.135662 2.8527512E-07 -0.9999999 8.163275E-07 -0.086165756 0.31585896 8.6464325E-07 0.94880617 11.671469 0 0 0 1 -0.94880605 -1.2826419E-08 0.31585896 11.135662 2.8527512E-07 -0.9999999 8.163275E-07 -0.086165756 0.31585896 8.6464325E-07 0.94880617 11.671469 0 0 0 1 -0.94880605 -1.2826419E-08 0.31585896 11.135662 2.8527512E-07 -0.9999999 8.163275E-07 -0.086165756 0.31585896 8.6464325E-07 0.94880617 11.671469 0 0 0 1 -0.94880605 -1.2826419E-08 0.31585896 11.135662 2.8527512E-07 -0.9999999 8.163275E-07 -0.086165756 0.31585896 8.6464325E-07 0.94880617 11.671469 0 0 0 1 -0.94880605 -1.2826419E-08 0.31585896 11.135662 2.8527512E-07 -0.9999999 8.163275E-07 -0.086165756 0.31585896 8.6464325E-07 0.94880617 11.671469 0 0 0 1 -0.94880605 -1.2826419E-08 0.31585896 11.135662 2.8527512E-07 -0.9999999 8.163275E-07 -0.086165756 0.31585896 8.6464325E-07 0.94880617 11.671469 0 0 0 1 -0.94880605 -1.2826419E-08 0.31585896 11.135662 2.8527512E-07 -0.9999999 8.163275E-07 -0.086165756 0.31585896 8.6464325E-07 0.94880617 11.671469 0 0 0 1</float_array>
        <technique_common>
          <accessor source="#Motion_31_FeelerA_transform_pose_array_id" count="17" stride="16">
            <param name="TRANSFORM" type="float4x4" />
          </accessor>
        </technique_common>
      </source>
      <sampler id="Motion_31_FeelerA_transform_samp_id">
        <input semantic="INPUT" source="#Motion_31_FeelerA_transform_frame_id" />
        <input semantic="INTERPOLATION" source="#Motion_31_FeelerA_transform_interp_id" />
        <input semantic="OUTPUT" source="#Motion_31_FeelerA_transform_pose_id" />
      </sampler>
      <channel source="#Motion_31_FeelerA_transform_samp_id" target="FeelerA_bone_id/transform" />
    </animation>
    <animation id="Motion_31_Spine2_transform_id" name="Motion_31_Spine2_transform">
      <source id="Motion_31_Spine2_transform_frame_id" name="Motion_31_Spine2_transform_frame">
        <float_array id="Motion_31_Spine2_transform_frame_array_id" count="17">0 0.033333335 0.06666667 0.1 0.13333334 0.16666667 0.2 0.23333333 0.26666668 0.3 0.33333334 0.36666667 0.4 0.43333334 0.46666667 0.5 0.53333336</float_array>
        <technique_common>
          <accessor source="#Motion_31_Spine2_transform_frame_array_id" count="17" stride="1">
            <param name="TIME" type="float" />
          </accessor>
        </technique_common>
      </source>
      <source id="Motion_31_Spine2_transform_interp_id" name="Motion_31_Spine2_transform_interp">
        <Name_array id="Motion_31_Spine2_transform_interp_array_id" count="17">LINEAR LINEAR LINEAR LINEAR LINEAR LINEAR LINEAR LINEAR LINEAR LINEAR LINEAR LINEAR LINEAR LINEAR LINEAR LINEAR LINEAR</Name_array>
        <technique_common>
          <accessor source="#Motion_31_Spine2_transform_interp_array_id" count="17" stride="1">
            <param name="INTERPOLATION" type="Name" />
          </accessor>
        </technique_common>
      </source>
      <source id="Motion_31_Spine2_transform_pose_id" name="Motion_31_Spine2_transform_pose">
        <float_array id="Motion_31_Spine2_transform_pose_array_id" count="272">0.83548737 0.020880233 0.54911274 8.858152 0.003437901 0.9990596 -0.043220486 -0.14476922 -0.54949886 0.037997965 0.83462995 -3.0758789 0 0 0 1 0.8494619 0.03839907 0.52625084 8.858152 -0.0022850167 0.9976068 -0.069104195 -0.14476922 -0.527645 0.057498887 0.8475168 -3.0758789 0 0 0 1 0.88273716 0.07841885 0.463277 8.858152 -0.017627962 0.9908076 -0.13412522 -0.14476922 -0.46953633 0.110230684 0.87600505 -3.0758789 0 0 0 1 0.9211514 0.12163599 0.369709 8.858152 -0.0409224 0.97491336 -0.21879052 -0.14476922 -0.38704705 0.18640982 0.90302044 -3.0758789 0 0 0 1 0.95366937 0.15078291 0.26034456 8.858152 -0.0672774 0.95031124 -0.30394453 -0.14476922 -0.29323798 0.27234727 0.916427 -3.0758789 0 0 0 1 0.9744992 0.16082588 0.156481 8.858152 -0.091870844 0.9221913 -0.37566325 -0.14476922 -0.20472181 0.3517075 0.91344994 -3.0758789 0 0 0 1 0.9841105 0.15866101 0.07970719 8.858152 -0.11061674 0.8989959 -0.42375737 -0.14476922 -0.1388902 0.40820712 0.90226185 -3.0758789 0 0 0 1 0.98654675 0.15563253 0.05004011 8.858152 -0.117935605 0.8895165 -0.44142 -0.14476922 -0.11321081 0.42957994 0.89590424 -3.0758789 0 0 0 1 0.9851362 0.15810151 0.067160666 8.858152 -0.11331798 0.8919888 -0.4376243 -0.14476922 -0.12909563 0.42350903 0.8966462 -3.0758789 0 0 0 1 0.97995424 0.16412878 0.11292228 8.858152 -0.10160187 0.89929384 -0.42537946 -0.14476922 -0.17136732 0.4053793 0.8979426 -3.0758789 0 0 0 1 0.96881616 0.16961695 0.18062471 8.858152 -0.084354356 0.91120553 -0.40322304 -0.14476922 -0.2329797 0.37541252 0.8970986 -3.0758789 0 0 0 1 0.95056033 0.16954714 0.26017073 8.858152 -0.06419104 0.9269848 -0.36956564 -0.14476922 -0.3038331 0.3345938 0.89203835 -3.0758789 0 0 0 1 0.92536825 0.16010575 0.34359822 8.858152 -0.043500397 0.94528913 -0.32332048 -0.14476922 -0.37656513 0.28424385 0.8817052 -3.0758789 0 0 0 1 0.8954495 0.13945179 0.4227569 8.858152 -0.02485679 0.9638487 -0.2652882 -0.14476922 -0.44446862 0.22704381 0.8665441 -3.0758789 0 0 0 1 0.8664466 0.1067894 0.4877153 8.858152 -0.009753175 0.98029137 -0.19731618 -0.14476922 -0.49917442 0.16620718 0.8504117 -3.0758789 0 0 0 1 0.84420884 0.06565566 0.5319782 8.858152 -8.2496554E-05 0.9924858 -0.12235967 -0.14476922 -0.5360144 0.10325324 0.8378707 -3.0758789 0 0 0 1 0.84420884 0.06565566 0.5319782 8.858152 -8.2496554E-05 0.9924858 -0.12235967 -0.14476922 -0.5360144 0.10325324 0.8378707 -3.0758789 0 0 0 1</float_array>
        <technique_common>
          <accessor source="#Motion_31_Spine2_transform_pose_array_id" count="17" stride="16">
            <param name="TRANSFORM" type="float4x4" />
          </accessor>
        </technique_common>
      </source>
      <sampler id="Motion_31_Spine2_transform_samp_id">
        <input semantic="INPUT" source="#Motion_31_Spine2_transform_frame_id" />
        <input semantic="INTERPOLATION" source="#Motion_31_Spine2_transform_interp_id" />
        <input semantic="OUTPUT" source="#Motion_31_Spine2_transform_pose_id" />
      </sampler>
      <channel source="#Motion_31_Spine2_transform_samp_id" target="Spine2_bone_id/transform" />
    </animation>
    <animation id="Motion_31_RArm_transform_id" name="Motion_31_RArm_transform">
      <source id="Motion_31_RArm_transform_frame_id" name="Motion_31_RArm_transform_frame">
        <float_array id="Motion_31_RArm_transform_frame_array_id" count="17">0 0.033333335 0.06666667 0.1 0.13333334 0.16666667 0.2 0.23333333 0.26666668 0.3 0.33333334 0.36666667 0.4 0.43333334 0.46666667 0.5 0.53333336</float_array>
        <technique_common>
          <accessor source="#Motion_31_RArm_transform_frame_array_id" count="17" stride="1">
            <param name="TIME" type="float" />
          </accessor>
        </technique_common>
      </source>
      <source id="Motion_31_RArm_transform_interp_id" name="Motion_31_RArm_transform_interp">
        <Name_array id="Motion_31_RArm_transform_interp_array_id" count="17">LINEAR LINEAR LINEAR LINEAR LINEAR LINEAR LINEAR LINEAR LINEAR LINEAR LINEAR LINEAR LINEAR LINEAR LINEAR LINEAR LINEAR</Name_array>
        <technique_common>
          <accessor source="#Motion_31_RArm_transform_interp_array_id" count="17" stride="1">
            <param name="INTERPOLATION" type="Name" />
          </accessor>
        </technique_common>
      </source>
      <source id="Motion_31_RArm_transform_pose_id" name="Motion_31_RArm_transform_pose">
        <float_array id="Motion_31_RArm_transform_pose_array_id" count="272">-0.5911844 -0.80206245 -0.0848352 11.54528 0.36885637 -0.17532861 -0.91280067 5.2399797 0.71724904 -0.57092535 0.39949727 5.99006 0 0 0 1 -0.61520433 -0.7749182 -0.14500141 11.54528 0.44031933 -0.1851772 -0.8785376 5.2399797 0.6539438 -0.604327 0.45513332 5.99006 0 0 0 1 -0.548682 -0.8272631 -0.12076232 11.54528 0.53396237 -0.2356137 -0.8120161 5.2399797 0.6432978 -0.5100212 0.57100457 5.99006 0 0 0 1 -0.41762316 -0.90855217 -0.0111267865 11.54528 0.62774897 -0.2796532 -0.72644705 5.2399797 0.6569034 -0.31036597 0.68713236 5.99006 0 0 0 1 -0.2610129 -0.9558339 0.13510653 11.54528 0.70373285 -0.28420925 -0.65114146 5.2399797 0.6607816 -0.07487744 0.746834 5.99006 0 0 0 1 -0.11183965 -0.96052486 0.25472307 11.54528 0.7810425 -0.24344552 -0.5750712 5.2399797 0.6143814 0.13463375 0.7774376 5.99006 0 0 0 1 0.0001526475 -0.94091654 0.33863807 11.54528 0.8267772 -0.19037509 -0.5293359 5.2399797 0.56252927 0.28005898 0.77789956 5.99006 0 0 0 1 0.06756222 -0.9244174 0.37535042 11.54528 0.806185 -0.17105842 -0.56639636 5.2399797 0.58779347 0.3408689 0.7336943 5.99006 0 0 0 1 0.07991326 -0.9274242 0.3653744 11.54528 0.73970866 -0.19052494 -0.64539254 5.2399797 0.6681655 0.321846 0.67079806 5.99006 0 0 0 1 0.039473593 -0.9419499 0.333425 11.54528 0.6568673 -0.22698963 -0.71902776 5.2399797 0.7529722 0.24739856 0.609776 5.99006 0 0 0 1 -0.050183058 -0.95401365 0.29553297 11.54528 0.5973765 -0.26581037 -0.75662816 5.2399797 0.8003893 0.13857463 0.58324444 5.99006 0 0 0 1 -0.16466248 -0.9549452 0.24691215 11.54528 0.570549 -0.29641438 -0.765906 5.2399797 0.80458677 0.014759332 0.59365165 5.99006 0 0 0 1 -0.28033555 -0.94193804 0.18483716 11.54528 0.5344727 -0.3131175 -0.7850455 5.2399797 0.7973399 -0.121285796 0.5912181 5.99006 0 0 0 1 -0.38703167 -0.9148314 0.11528379 11.54528 0.49012697 -0.31001508 -0.81465733 5.2399797 0.78101367 -0.25879443 0.5683689 5.99006 0 0 0 1 -0.47374654 -0.8794638 0.04591158 11.54528 0.44457698 -0.28383493 -0.8495818 5.2399797 0.76020765 -0.38207513 0.525455 5.99006 0 0 0 1 -0.5375347 -0.84297514 -0.021208495 11.54528 0.40655604 -0.23704731 -0.8823384 5.2399797 0.7387618 -0.4829098 0.47013748 5.99006 0 0 0 1 -0.5375347 -0.84297514 -0.021208495 11.54528 0.40655604 -0.23704731 -0.8823384 5.2399797 0.7387618 -0.4829098 0.47013748 5.99006 0 0 0 1</float_array>
        <technique_common>
          <accessor source="#Motion_31_RArm_transform_pose_array_id" count="17" stride="16">
            <param name="TRANSFORM" type="float4x4" />
          </accessor>
        </technique_common>
      </source>
      <sampler id="Motion_31_RArm_transform_samp_id">
        <input semantic="INPUT" source="#Motion_31_RArm_transform_frame_id" />
        <input semantic="INTERPOLATION" source="#Motion_31_RArm_transform_interp_id" />
        <input semantic="OUTPUT" source="#Motion_31_RArm_transform_pose_id" />
      </sampler>
      <channel source="#Motion_31_RArm_transform_samp_id" target="RArm_bone_id/transform" />
    </animation>
    <animation id="Motion_31_RForeArm_transform_id" name="Motion_31_RForeArm_transform">
      <source id="Motion_31_RForeArm_transform_frame_id" name="Motion_31_RForeArm_transform_frame">
        <float_array id="Motion_31_RForeArm_transform_frame_array_id" count="17">0 0.033333335 0.06666667 0.1 0.13333334 0.16666667 0.2 0.23333333 0.26666668 0.3 0.33333334 0.36666667 0.4 0.43333334 0.46666667 0.5 0.53333336</float_array>
        <technique_common>
          <accessor source="#Motion_31_RForeArm_transform_frame_array_id" count="17" stride="1">
            <param name="TIME" type="float" />
          </accessor>
        </technique_common>
      </source>
      <source id="Motion_31_RForeArm_transform_interp_id" name="Motion_31_RForeArm_transform_interp">
        <Name_array id="Motion_31_RForeArm_transform_interp_array_id" count="17">LINEAR LINEAR LINEAR LINEAR LINEAR LINEAR LINEAR LINEAR LINEAR LINEAR LINEAR LINEAR LINEAR LINEAR LINEAR LINEAR LINEAR</Name_array>
        <technique_common>
          <accessor source="#Motion_31_RForeArm_transform_interp_array_id" count="17" stride="1">
            <param name="INTERPOLATION" type="Name" />
          </accessor>
        </technique_common>
      </source>
      <source id="Motion_31_RForeArm_transform_pose_id" name="Motion_31_RForeArm_transform_pose">
        <float_array id="Motion_31_RForeArm_transform_pose_array_id" count="272">0.9139207 0.40272194 0.050636306 17.499994 -0.39574277 0.9118297 -0.109335326 0 -0.09020342 0.079884864 0.99271435 -1.51337E-05 0 0 0 1 0.8813827 0.45200542 0.1373159 17.499994 -0.43626192 0.8903136 -0.13045014 0 -0.18121839 0.05507079 0.98189974 -1.51337E-05 0 0 0 1 0.8982203 0.42887592 0.09625838 17.499994 -0.41732645 0.9008606 -0.11953597 0 -0.13798147 0.06719847 0.98815256 -1.51337E-05 0 0 0 1 0.92457676 0.3807647 0.013269542 17.499994 -0.3776019 0.92042303 -0.10118401 0 -0.05074089 0.088541776 0.9947792 -1.51337E-05 0 0 0 1 0.9371762 0.34595722 -0.04488127 17.499994 -0.34870458 0.93277806 -0.09127019 0 0.010288682 0.10118656 0.9948143 -1.51337E-05 0 0 0 1 0.94806886 0.27997762 -0.15092385 17.499994 -0.29369044 0.95275855 -0.077441126 0 0.12211221 0.117744416 0.9855074 -1.51337E-05 0 0 0 1 0.9430559 0.21029797 -0.25772125 17.499994 -0.23527306 0.9694138 -0.06988127 0 0.23514265 0.12653682 0.9636889 -1.51337E-05 0 0 0 1 0.94315034 0.21077403 -0.25698587 17.499994 -0.23574421 0.9692753 -0.07021462 0 0.23429064 0.12680587 0.96386105 -1.51337E-05 0 0 0 1 0.94836307 0.26503527 -0.17425208 17.499994 -0.281255 0.9566442 -0.075680174 0 0.14663933 0.12078155 0.9817885 -1.51337E-05 0 0 0 1 0.9380972 0.34269398 -0.050343476 17.499994 -0.3460127 0.9337919 -0.091147795 0 0.015774526 0.10292497 0.99456406 -1.51337E-05 0 0 0 1 0.9207309 0.3892366 0.027377186 17.499994 -0.3845633 0.917079 -0.105248064 0 -0.06607344 0.086376876 0.9940691 -1.51337E-05 0 0 0 1 0.9226486 0.38509935 0.020445067 17.499994 -0.3811617 0.9187053 -0.10342296 0 -0.058611106 0.087630175 0.9944273 -1.51337E-05 0 0 0 1 0.9276855 0.37336227 -0.0005526226 17.499994 -0.37157091 0.9230877 -0.09921743 0 -0.036533922 0.0922479 0.9950656 -1.51337E-05 0 0 0 1 0.9328175 0.35966107 -0.02225657 17.499994 -0.36009064 0.9280305 -0.09536332 0 -0.013643699 0.09697096 0.9951937 -1.51337E-05 0 0 0 1 0.9366018 0.34790444 -0.041707605 17.499994 -0.3503284 0.93209535 -0.09202312 0 0.0068602115 0.10080038 0.994883 -1.51337E-05 0 0 0 1 0.93673897 0.34744853 -0.042422615 17.499994 -0.349944 0.93227637 -0.09165155 0 0.0077054035 0.10069912 0.9948871 -1.51337E-05 0 0 0 1 0.93673897 0.34744853 -0.042422615 17.499994 -0.349944 0.93227637 -0.09165155 0 0.0077054035 0.10069912 0.9948871 -1.51337E-05 0 0 0 1</float_array>
        <technique_common>
          <accessor source="#Motion_31_RForeArm_transform_pose_array_id" count="17" stride="16">
            <param name="TRANSFORM" type="float4x4" />
          </accessor>
        </technique_common>
      </source>
      <sampler id="Motion_31_RForeArm_transform_samp_id">
        <input semantic="INPUT" source="#Motion_31_RForeArm_transform_frame_id" />
        <input semantic="INTERPOLATION" source="#Motion_31_RForeArm_transform_interp_id" />
        <input semantic="OUTPUT" source="#Motion_31_RForeArm_transform_pose_id" />
      </sampler>
      <channel source="#Motion_31_RForeArm_transform_samp_id" target="RForeArm_bone_id/transform" />
    </animation>
    <animation id="Motion_31_RHand_transform_id" name="Motion_31_RHand_transform">
      <source id="Motion_31_RHand_transform_frame_id" name="Motion_31_RHand_transform_frame">
        <float_array id="Motion_31_RHand_transform_frame_array_id" count="17">0 0.033333335 0.06666667 0.1 0.13333334 0.16666667 0.2 0.23333333 0.26666668 0.3 0.33333334 0.36666667 0.4 0.43333334 0.46666667 0.5 0.53333336</float_array>
        <technique_common>
          <accessor source="#Motion_31_RHand_transform_frame_array_id" count="17" stride="1">
            <param name="TIME" type="float" />
          </accessor>
        </technique_common>
      </source>
      <source id="Motion_31_RHand_transform_interp_id" name="Motion_31_RHand_transform_interp">
        <Name_array id="Motion_31_RHand_transform_interp_array_id" count="17">LINEAR LINEAR LINEAR LINEAR LINEAR LINEAR LINEAR LINEAR LINEAR LINEAR LINEAR LINEAR LINEAR LINEAR LINEAR LINEAR LINEAR</Name_array>
        <technique_common>
          <accessor source="#Motion_31_RHand_transform_interp_array_id" count="17" stride="1">
            <param name="INTERPOLATION" type="Name" />
          </accessor>
        </technique_common>
      </source>
      <source id="Motion_31_RHand_transform_pose_id" name="Motion_31_RHand_transform_pose">
        <float_array id="Motion_31_RHand_transform_pose_array_id" count="272">0.886753 0.46190676 0.017642073 16.018837 -0.45256343 0.8753203 -0.17029595 0 -0.09410332 0.14302629 0.98523504 1.846492E-05 0 0 0 1 0.88050944 0.47307754 0.030013107 16.018837 -0.459494 0.86735725 -0.19119811 0 -0.11648362 0.1545609 0.9810925 1.846492E-05 0 0 0 1 0.8639618 0.50034505 0.056787685 16.018837 -0.47468653 0.8468687 -0.23976251 0 -0.16805571 0.18018931 0.96916926 1.846492E-05 0 0 0 1 0.84218705 0.5326123 0.08393539 16.018837 -0.48961255 0.82063407 -0.29468513 0 -0.22583318 0.20708418 0.951901 1.846492E-05 0 0 0 1 0.8244041 0.55697477 0.100682355 16.018837 -0.49912965 0.7992846 -0.3346845 0 -0.26688468 0.22566171 0.93693614 1.846492E-05 0 0 0 1 0.8128331 0.5726869 0.106452264 16.018837 -0.50657713 0.7852019 -0.35614267 0 -0.28754476 0.23555826 0.9283482 1.846492E-05 0 0 0 1 0.8061629 0.5821339 0.105931595 16.018837 -0.5117154 0.77581567 -0.36913055 0 -0.2970668 0.24337254 0.9233207 1.846492E-05 0 0 0 1 0.8026343 0.58731806 0.104094654 16.018837 -0.51497483 0.77039206 -0.37589496 0 -0.30096358 0.24810006 0.9207971 1.846492E-05 0 0 0 1 0.80168325 0.58881706 0.10294854 16.018837 -0.5161801 0.76879156 -0.37751508 0 -0.3014333 0.24950753 0.920263 1.846492E-05 0 0 0 1 0.8059975 0.58337456 0.10021046 16.018837 -0.51439625 0.77408755 -0.36903244 0 -0.2928558 0.24589135 0.92399836 1.846492E-05 0 0 0 1 0.81721425 0.5688193 0.092765935 16.018837 -0.50914776 0.78795487 -0.34625953 0 -0.2700545 0.23573665 0.933541 1.846492E-05 0 0 0 1 0.83263856 0.5478805 0.0808704 16.018837 -0.5006394 0.80705667 -0.31308103 0 -0.23679799 0.22019643 0.946277 1.846492E-05 0 0 0 1 0.8492168 0.5239363 0.06573868 16.018837 -0.4894117 0.8277062 -0.2745516 0 -0.19825986 0.20098057 0.9593226 1.846492E-05 0 0 0 1 0.8643923 0.5004069 0.049181987 16.018837 -0.4767882 0.84677744 -0.2358835 0 -0.15968394 0.1804465 0.970536 1.846492E-05 0 0 0 1 0.87625664 0.48066667 0.033672582 16.018837 -0.46500012 0.86187273 -0.20236184 0 -0.12629007 0.16166316 0.97873175 1.846492E-05 0 0 0 1 0.8839609 0.4670304 0.022265673 16.018837 -0.4560485 0.87171996 -0.17923202 0 -0.10311623 0.14827986 0.98355484 1.846492E-05 0 0 0 1 0.8839609 0.4670304 0.022265673 16.018837 -0.4560485 0.87171996 -0.17923202 0 -0.10311623 0.14827986 0.98355484 1.846492E-05 0 0 0 1</float_array>
        <technique_common>
          <accessor source="#Motion_31_RHand_transform_pose_array_id" count="17" stride="16">
            <param name="TRANSFORM" type="float4x4" />
          </accessor>
        </technique_common>
      </source>
      <sampler id="Motion_31_RHand_transform_samp_id">
        <input semantic="INPUT" source="#Motion_31_RHand_transform_frame_id" />
        <input semantic="INTERPOLATION" source="#Motion_31_RHand_transform_interp_id" />
        <input semantic="OUTPUT" source="#Motion_31_RHand_transform_pose_id" />
      </sampler>
      <channel source="#Motion_31_RHand_transform_samp_id" target="RHand_bone_id/transform" />
    </animation>
    <animation id="Motion_31_LArm_transform_id" name="Motion_31_LArm_transform">
      <source id="Motion_31_LArm_transform_frame_id" name="Motion_31_LArm_transform_frame">
        <float_array id="Motion_31_LArm_transform_frame_array_id" count="17">0 0.033333335 0.06666667 0.1 0.13333334 0.16666667 0.2 0.23333333 0.26666668 0.3 0.33333334 0.36666667 0.4 0.43333334 0.46666667 0.5 0.53333336</float_array>
        <technique_common>
          <accessor source="#Motion_31_LArm_transform_frame_array_id" count="17" stride="1">
            <param name="TIME" type="float" />
          </accessor>
        </technique_common>
      </source>
      <source id="Motion_31_LArm_transform_interp_id" name="Motion_31_LArm_transform_interp">
        <Name_array id="Motion_31_LArm_transform_interp_array_id" count="17">LINEAR LINEAR LINEAR LINEAR LINEAR LINEAR LINEAR LINEAR LINEAR LINEAR LINEAR LINEAR LINEAR LINEAR LINEAR LINEAR LINEAR</Name_array>
        <technique_common>
          <accessor source="#Motion_31_LArm_transform_interp_array_id" count="17" stride="1">
            <param name="INTERPOLATION" type="Name" />
          </accessor>
        </technique_common>
      </source>
      <source id="Motion_31_LArm_transform_pose_id" name="Motion_31_LArm_transform_pose">
        <float_array id="Motion_31_LArm_transform_pose_array_id" count="272">-0.6129867 0.7892114 -0.037317663 11.380011 -0.41420364 -0.28077638 0.86579436 -6.0635653 0.6728169 0.54617757 0.4990065 5.202713 0 0 0 1 -0.5644033 0.82543135 -0.010593265 11.380011 -0.4334892 -0.28543627 0.8547593 -6.0635653 0.7025213 0.4870209 0.5189166 5.202713 0 0 0 1 -0.51836026 0.8550709 0.012515575 11.380011 -0.47428685 -0.29963827 0.82780975 -6.0635653 0.7115861 0.42316765 0.56086934 5.202713 0 0 0 1 -0.4700601 0.87719285 0.09785515 11.380011 -0.4787328 -0.34652686 0.8066805 -6.0635653 0.74152404 0.3323421 0.58282995 5.202713 0 0 0 1 -0.41102254 0.87782675 0.24592859 11.380011 -0.4525947 -0.4306692 0.78082156 -6.0635653 0.7913398 0.20962927 0.5743143 5.202713 0 0 0 1 -0.38566327 0.8411009 0.37922674 11.380011 -0.4600435 -0.5315883 0.7111776 -6.0635653 0.7997647 0.099814355 0.5919573 5.202713 0 0 0 1 -0.41294587 0.77949935 0.47101656 11.380011 -0.4666813 -0.62521875 0.625548 -6.0635653 0.7821026 0.038502783 0.6219591 5.202713 0 0 0 1 -0.4620639 0.7245906 0.51133686 11.380011 -0.4660805 -0.68894005 0.5550951 -6.0635653 0.7544971 0.01816532 0.65605193 5.202713 0 0 0 1 -0.5160047 0.69863725 0.4956259 11.380011 -0.46407914 -0.7143421 0.5237802 -6.0635653 0.71997887 0.04026343 0.692827 5.202713 0 0 0 1 -0.55394626 0.70642245 0.44058 11.380011 -0.44876587 -0.69908786 0.5566734 -6.0635653 0.7012508 0.110649884 0.7042755 5.202713 0 0 0 1 -0.57106805 0.7380707 0.35935056 11.380011 -0.42620018 -0.6407018 0.638635 -6.0635653 0.70159435 0.21154879 0.6804502 5.202713 0 0 0 1 -0.58209884 0.7760214 0.24280043 11.380011 -0.41847676 -0.54193544 0.72882336 -6.0635653 0.6971646 0.32264072 0.64020663 5.202713 0 0 0 1 -0.60214734 0.7908367 0.10952479 11.380011 -0.4083717 -0.42296398 0.80890906 -6.0635653 0.68604004 0.44235566 0.57764214 5.202713 0 0 0 1 -0.6260562 0.7797779 0.00020557642 11.380011 -0.3937541 -0.3163588 0.8630613 -6.0635653 0.6730612 0.54024386 0.5050992 5.202713 0 0 0 1 -0.6446452 0.7623025 -0.057683438 11.380011 -0.3786496 -0.25283527 0.89033633 -6.0635653 0.66412127 0.59579283 0.45163465 5.202713 0 0 0 1 -0.6440288 0.762123 -0.0662967 11.380011 -0.3797003 -0.24322045 0.8925645 -6.0635653 0.66411924 0.6000102 0.4460194 5.202713 0 0 0 1 -0.6440288 0.762123 -0.0662967 11.380011 -0.3797003 -0.24322045 0.8925645 -6.0635653 0.66411924 0.6000102 0.4460194 5.202713 0 0 0 1</float_array>
        <technique_common>
          <accessor source="#Motion_31_LArm_transform_pose_array_id" count="17" stride="16">
            <param name="TRANSFORM" type="float4x4" />
          </accessor>
        </technique_common>
      </source>
      <sampler id="Motion_31_LArm_transform_samp_id">
        <input semantic="INPUT" source="#Motion_31_LArm_transform_frame_id" />
        <input semantic="INTERPOLATION" source="#Motion_31_LArm_transform_interp_id" />
        <input semantic="OUTPUT" source="#Motion_31_LArm_transform_pose_id" />
      </sampler>
      <channel source="#Motion_31_LArm_transform_samp_id" target="LArm_bone_id/transform" />
    </animation>
    <animation id="Motion_31_LForeArm_transform_id" name="Motion_31_LForeArm_transform">
      <source id="Motion_31_LForeArm_transform_frame_id" name="Motion_31_LForeArm_transform_frame">
        <float_array id="Motion_31_LForeArm_transform_frame_array_id" count="17">0 0.033333335 0.06666667 0.1 0.13333334 0.16666667 0.2 0.23333333 0.26666668 0.3 0.33333334 0.36666667 0.4 0.43333334 0.46666667 0.5 0.53333336</float_array>
        <technique_common>
          <accessor source="#Motion_31_LForeArm_transform_frame_array_id" count="17" stride="1">
            <param name="TIME" type="float" />
          </accessor>
        </technique_common>
      </source>
      <source id="Motion_31_LForeArm_transform_interp_id" name="Motion_31_LForeArm_transform_interp">
        <Name_array id="Motion_31_LForeArm_transform_interp_array_id" count="17">LINEAR LINEAR LINEAR LINEAR LINEAR LINEAR LINEAR LINEAR LINEAR LINEAR LINEAR LINEAR LINEAR LINEAR LINEAR LINEAR LINEAR</Name_array>
        <technique_common>
          <accessor source="#Motion_31_LForeArm_transform_interp_array_id" count="17" stride="1">
            <param name="INTERPOLATION" type="Name" />
          </accessor>
        </technique_common>
      </source>
      <source id="Motion_31_LForeArm_transform_pose_id" name="Motion_31_LForeArm_transform_pose">
        <float_array id="Motion_31_LForeArm_transform_pose_array_id" count="272">0.9165412 -0.39985764 0.008128367 17.5 0.37523842 0.8667865 0.32844678 1E-11 -0.13837752 -0.29798493 0.9444875 4.0374E-07 0 0 0 1 0.94738066 -0.29499605 -0.1242869 17.5 0.3194302 0.8964801 0.30706325 1E-11 0.020838283 -0.3306068 0.9435385 4.0374E-07 0 0 0 1 0.9518715 -0.23313889 -0.1989644 17.5 0.28556153 0.91039217 0.29940063 1E-11 0.11133368 -0.34180754 0.93315184 4.0374E-07 0 0 0 1 0.9517832 -0.2416919 -0.18892822 17.5 0.29040393 0.90833664 0.30098188 1E-11 0.09886554 -0.341335 0.9347278 4.0374E-07 0 0 0 1 0.9517949 -0.24259861 -0.18770278 17.5 0.29086733 0.908109 0.30122116 1E-11 0.09737874 -0.34129736 0.9348976 4.0374E-07 0 0 0 1 0.94461554 -0.15605482 -0.28870115 17.5 0.24245772 0.9247123 0.29346445 1E-11 0.22116897 -0.3472089 0.91133434 4.0374E-07 0 0 0 1 0.93432564 -0.112061895 -0.33834562 17.5 0.21741462 0.9314131 0.29189122 1E-11 0.28242967 -0.34628272 0.89460707 4.0374E-07 0 0 0 1 0.9402664 -0.13515146 -0.3124632 17.5 0.23054214 0.9281212 0.2923035 1E-11 0.2504985 -0.34687907 0.90383923 4.0374E-07 0 0 0 1 0.94894123 -0.18490642 -0.25557813 17.5 0.25860563 0.9199625 0.29460484 1E-11 0.18064798 -0.34565663 0.9208082 4.0374E-07 0 0 0 1 0.95063156 -0.26648962 -0.15900591 17.5 0.3038845 0.90324676 0.30298442 1E-11 0.06287938 -0.33634597 0.93963695 4.0374E-07 0 0 0 1 0.9365582 -0.34494126 -0.062243383 17.5 0.34629357 0.8831128 0.31653208 1E-11 -0.054217044 -0.3180052 0.9465375 4.0374E-07 0 0 0 1 0.92756516 -0.37268758 -0.026960716 17.5 0.361 0.87517554 0.32209742 1E-11 -0.09644636 -0.30849916 0.94632256 4.0374E-07 0 0 0 1 0.91513664 -0.4029595 0.01219178 17.5 0.37686273 0.86582744 0.32911605 1E-11 -0.1431764 -0.29659152 0.94421077 4.0374E-07 0 0 0 1 0.8988932 -0.43480846 0.0541536 17.5 0.39331082 0.8551575 0.33765694 1E-11 -0.19312596 -0.2822183 0.93971014 4.0374E-07 0 0 0 1 0.8845262 -0.45843068 0.08634073 17.5 0.405099 0.84662706 0.34513396 1E-11 -0.23131838 -0.2703035 0.93457365 4.0374E-07 0 0 0 1 0.8876992 -0.45357335 0.079128526 17.5 0.40280193 0.848297 0.343719 1E-11 -0.22302628 -0.273246 0.93573284 4.0374E-07 0 0 0 1 0.8876992 -0.45357335 0.079128526 17.5 0.40280193 0.848297 0.343719 1E-11 -0.22302628 -0.273246 0.93573284 4.0374E-07 0 0 0 1</float_array>
        <technique_common>
          <accessor source="#Motion_31_LForeArm_transform_pose_array_id" count="17" stride="16">
            <param name="TRANSFORM" type="float4x4" />
          </accessor>
        </technique_common>
      </source>
      <sampler id="Motion_31_LForeArm_transform_samp_id">
        <input semantic="INPUT" source="#Motion_31_LForeArm_transform_frame_id" />
        <input semantic="INTERPOLATION" source="#Motion_31_LForeArm_transform_interp_id" />
        <input semantic="OUTPUT" source="#Motion_31_LForeArm_transform_pose_id" />
      </sampler>
      <channel source="#Motion_31_LForeArm_transform_samp_id" target="LForeArm_bone_id/transform" />
    </animation>
    <animation id="Motion_31_LHand_transform_id" name="Motion_31_LHand_transform">
      <source id="Motion_31_LHand_transform_frame_id" name="Motion_31_LHand_transform_frame">
        <float_array id="Motion_31_LHand_transform_frame_array_id" count="17">0 0.033333335 0.06666667 0.1 0.13333334 0.16666667 0.2 0.23333333 0.26666668 0.3 0.33333334 0.36666667 0.4 0.43333334 0.46666667 0.5 0.53333336</float_array>
        <technique_common>
          <accessor source="#Motion_31_LHand_transform_frame_array_id" count="17" stride="1">
            <param name="TIME" type="float" />
          </accessor>
        </technique_common>
      </source>
      <source id="Motion_31_LHand_transform_interp_id" name="Motion_31_LHand_transform_interp">
        <Name_array id="Motion_31_LHand_transform_interp_array_id" count="17">LINEAR LINEAR LINEAR LINEAR LINEAR LINEAR LINEAR LINEAR LINEAR LINEAR LINEAR LINEAR LINEAR LINEAR LINEAR LINEAR LINEAR</Name_array>
        <technique_common>
          <accessor source="#Motion_31_LHand_transform_interp_array_id" count="17" stride="1">
            <param name="INTERPOLATION" type="Name" />
          </accessor>
        </technique_common>
      </source>
      <source id="Motion_31_LHand_transform_pose_id" name="Motion_31_LHand_transform_pose">
        <float_array id="Motion_31_LHand_transform_pose_array_id" count="272">0.8908009 -0.45165917 0.049777202 16.01885 0.44940236 0.89190584 0.050412882 1E-11 -0.06716602 -0.022537846 0.99748725 8.3187E-07 0 0 0 1 0.89356977 -0.4486439 0.01586701 16.01885 0.44774482 0.89322555 0.04089936 1E-11 -0.032522064 -0.029442059 0.99903727 8.3187E-07 0 0 0 1 0.8937096 -0.4437122 -0.06635225 16.01885 0.44566116 0.8950325 0.017404497 1E-11 0.05166483 -0.045125186 0.9976445 8.3187E-07 0 0 0 1 0.88381 -0.43752533 -0.16568495 16.01885 0.44139796 0.8971914 -0.014678733 1E-11 0.15507342 -0.060159788 0.9860695 8.3187E-07 0 0 0 1 0.86605275 -0.43166468 -0.25222647 16.01885 0.43523118 0.89921767 -0.044512976 1E-11 0.2460212 -0.07122624 0.96664387 8.3187E-07 0 0 0 1 0.85172236 -0.4263253 -0.3046567 16.01885 0.4291369 0.9011559 -0.061315052 1E-11 0.30068335 -0.07851604 0.9504866 8.3187E-07 0 0 0 1 0.8405236 -0.41840798 -0.34417263 16.01885 0.4228317 0.90379333 -0.066113 1E-11 0.33872315 -0.08995757 0.93657583 8.3187E-07 0 0 0 1 0.83323956 -0.4081689 -0.37297454 16.01885 0.41615343 0.90710914 -0.06300239 1E-11 0.36404422 -0.10271855 0.9257001 8.3187E-07 0 0 0 1 0.8289764 -0.39949396 -0.39141124 16.01885 0.41103342 0.9097718 -0.058024295 1E-11 0.37927526 -0.11278232 0.9183847 8.3187E-07 0 0 0 1 0.827706 -0.39576605 -0.39783424 16.01885 0.40900037 0.9108637 -0.055191018 1E-11 0.38421547 -0.117032416 0.91579574 8.3187E-07 0 0 0 1 0.84519535 -0.40915027 -0.34386164 16.01885 0.42365536 0.90512156 -0.035651546 1E-11 0.32582343 -0.115546316 0.9383433 8.3187E-07 0 0 0 1 0.8719724 -0.43873173 -0.21720646 16.01885 0.45082122 0.89258766 0.0068926252 1E-11 0.1908518 -0.10393147 0.97610134 8.3187E-07 0 0 0 1 0.881343 -0.4659752 -0.07811241 16.01885 0.47015646 0.88131106 0.047367908 1E-11 0.046769053 -0.07847243 0.9958186 8.3187E-07 0 0 0 1 0.8814292 -0.47228009 0.0058392836 16.01885 0.47104585 0.87989753 0.062419068 1E-11 -0.034617253 -0.05226742 0.9980329 8.3187E-07 0 0 0 1 0.88595825 -0.46265295 0.03209743 16.01885 0.46048895 0.88580227 0.057482608 1E-11 -0.05502647 -0.036146678 0.9978304 8.3187E-07 0 0 0 1 0.88942534 -0.45486206 0.044979054 16.01885 0.4525438 0.8901535 0.053206027 1E-11 -0.064239666 -0.026967794 0.99757004 8.3187E-07 0 0 0 1 0.88942534 -0.45486206 0.044979054 16.01885 0.4525438 0.8901535 0.053206027 1E-11 -0.064239666 -0.026967794 0.99757004 8.3187E-07 0 0 0 1</float_array>
        <technique_common>
          <accessor source="#Motion_31_LHand_transform_pose_array_id" count="17" stride="16">
            <param name="TRANSFORM" type="float4x4" />
          </accessor>
        </technique_common>
      </source>
      <sampler id="Motion_31_LHand_transform_samp_id">
        <input semantic="INPUT" source="#Motion_31_LHand_transform_frame_id" />
        <input semantic="INTERPOLATION" source="#Motion_31_LHand_transform_interp_id" />
        <input semantic="OUTPUT" source="#Motion_31_LHand_transform_pose_id" />
      </sampler>
      <channel source="#Motion_31_LHand_transform_samp_id" target="LHand_bone_id/transform" />
    </animation>
    <animation id="Motion_31_Neck_transform_id" name="Motion_31_Neck_transform">
      <source id="Motion_31_Neck_transform_frame_id" name="Motion_31_Neck_transform_frame">
        <float_array id="Motion_31_Neck_transform_frame_array_id" count="17">0 0.033333335 0.06666667 0.1 0.13333334 0.16666667 0.2 0.23333333 0.26666668 0.3 0.33333334 0.36666667 0.4 0.43333334 0.46666667 0.5 0.53333336</float_array>
        <technique_common>
          <accessor source="#Motion_31_Neck_transform_frame_array_id" count="17" stride="1">
            <param name="TIME" type="float" />
          </accessor>
        </technique_common>
      </source>
      <source id="Motion_31_Neck_transform_interp_id" name="Motion_31_Neck_transform_interp">
        <Name_array id="Motion_31_Neck_transform_interp_array_id" count="17">LINEAR LINEAR LINEAR LINEAR LINEAR LINEAR LINEAR LINEAR LINEAR LINEAR LINEAR LINEAR LINEAR LINEAR LINEAR LINEAR LINEAR</Name_array>
        <technique_common>
          <accessor source="#Motion_31_Neck_transform_interp_array_id" count="17" stride="1">
            <param name="INTERPOLATION" type="Name" />
          </accessor>
        </technique_common>
      </source>
      <source id="Motion_31_Neck_transform_pose_id" name="Motion_31_Neck_transform_pose">
        <float_array id="Motion_31_Neck_transform_pose_array_id" count="272">0.9949776 -0.0060544135 0.09991492 11.7652025 0.00997373 0.99919826 -0.038773764 -1.0438E-07 -0.09960006 0.03957555 0.9942402 0 0 0 0 1 0.99341786 -0.015219709 0.113531165 11.7652025 0.019664904 0.999079 -0.038137317 -1.0438E-07 -0.11284616 0.040118873 0.9928022 0 0 0 0 1 0.9881631 -0.03497529 0.14936681 11.7652025 0.040840082 0.9985032 -0.03637837 -1.0438E-07 -0.14787091 0.042047918 0.98811245 0 0 0 0 1 0.97837687 -0.05345174 0.19980405 11.7652025 0.06157043 0.9975015 -0.034638375 -1.0438E-07 -0.19745336 0.04619141 0.97922343 0 0 0 0 1 0.96461546 -0.058814693 0.2570171 11.7652025 0.07017856 0.9969111 -0.035259552 -1.0438E-07 -0.2541494 0.052049004 0.9657634 0 0 0 0 1 0.9509549 -0.010355164 0.30915618 11.7652025 0.029289536 0.9979634 -0.056667 -1.0438E-07 -0.30793977 0.0629428 0.9493215 0 0 0 0 1 0.93509513 0.09001185 0.3427754 11.7652025 -0.05725984 0.992873 -0.10452018 -1.0438E-07 -0.3497405 0.07810905 0.9335848 0 0 0 0 1 0.9149753 0.18839201 0.35683143 11.7652025 -0.14137295 0.97793543 -0.15380502 -1.0438E-07 -0.37793374 0.090281464 0.9214203 0 0 0 0 1 0.9043673 0.2323367 0.35796565 11.7652025 -0.17875749 0.96791303 -0.17660716 -1.0438E-07 -0.38751197 0.095728695 0.91688085 0 0 0 0 1 0.91065174 0.22199929 0.34846774 11.7652025 -0.17167017 0.97044295 -0.16961664 -1.0438E-07 -0.3758228 0.09464019 0.9218462 0 0 0 0 1 0.92622006 0.19516082 0.3225348 11.7652025 -0.15277381 0.9764811 -0.15213452 -1.0438E-07 -0.34463984 0.091635175 0.9342518 0 0 0 0 1 0.94616055 0.15638402 0.28341544 11.7652025 -0.12416589 0.9839198 -0.1283927 -1.0438E-07 -0.2989366 0.08628957 0.95036364 0 0 0 0 1 0.9651613 0.11196384 0.23649053 11.7652025 -0.08949654 0.9905715 -0.10372336 -1.0438E-07 -0.24587403 0.0789447 0.9660816 0 0 0 0 1 0.9797532 0.068134345 0.18825889 11.7652025 -0.053468533 0.99520385 -0.08191699 -1.0438E-07 -0.19293734 0.0701925 0.9786972 0 0 0 0 1 0.98906755 0.030831035 0.14420393 11.7652025 -0.021782085 0.9977176 -0.063914426 -1.0438E-07 -0.14584535 0.060074627 0.9874817 0 0 0 0 1 0.9936683 0.004398863 0.11226708 11.7652025 0.0011981763 0.99876153 -0.049738582 -1.0438E-07 -0.11234683 0.049558166 0.9924325 0 0 0 0 1 0.9936683 0.004398863 0.11226708 11.7652025 0.0011981763 0.99876153 -0.049738582 -1.0438E-07 -0.11234683 0.049558166 0.9924325 0 0 0 0 1</float_array>
        <technique_common>
          <accessor source="#Motion_31_Neck_transform_pose_array_id" count="17" stride="16">
            <param name="TRANSFORM" type="float4x4" />
          </accessor>
        </technique_common>
      </source>
      <sampler id="Motion_31_Neck_transform_samp_id">
        <input semantic="INPUT" source="#Motion_31_Neck_transform_frame_id" />
        <input semantic="INTERPOLATION" source="#Motion_31_Neck_transform_interp_id" />
        <input semantic="OUTPUT" source="#Motion_31_Neck_transform_pose_id" />
      </sampler>
      <channel source="#Motion_31_Neck_transform_samp_id" target="Neck_bone_id/transform" />
    </animation>
    <animation id="Motion_31_Head_transform_id" name="Motion_31_Head_transform">
      <source id="Motion_31_Head_transform_frame_id" name="Motion_31_Head_transform_frame">
        <float_array id="Motion_31_Head_transform_frame_array_id" count="17">0 0.033333335 0.06666667 0.1 0.13333334 0.16666667 0.2 0.23333333 0.26666668 0.3 0.33333334 0.36666667 0.4 0.43333334 0.46666667 0.5 0.53333336</float_array>
        <technique_common>
          <accessor source="#Motion_31_Head_transform_frame_array_id" count="17" stride="1">
            <param name="TIME" type="float" />
          </accessor>
        </technique_common>
      </source>
      <source id="Motion_31_Head_transform_interp_id" name="Motion_31_Head_transform_interp">
        <Name_array id="Motion_31_Head_transform_interp_array_id" count="17">LINEAR LINEAR LINEAR LINEAR LINEAR LINEAR LINEAR LINEAR LINEAR LINEAR LINEAR LINEAR LINEAR LINEAR LINEAR LINEAR LINEAR</Name_array>
        <technique_common>
          <accessor source="#Motion_31_Head_transform_interp_array_id" count="17" stride="1">
            <param name="INTERPOLATION" type="Name" />
          </accessor>
        </technique_common>
      </source>
      <source id="Motion_31_Head_transform_pose_id" name="Motion_31_Head_transform_pose">
        <float_array id="Motion_31_Head_transform_pose_array_id" count="272">0.9722927 0.013835532 0.23335683 4.6038685 -0.0070661 0.9995303 -0.029820064 1E-11 -0.2336598 0.02734491 0.97193384 0 0 0 0 1 0.97197336 0.028977994 0.2332983 4.6038685 -0.012076367 0.9972183 -0.07355167 1E-11 -0.2347807 0.068672866 0.9696195 0 0 0 0 1 0.971178 0.06474076 0.2293946 4.6038685 -0.0237572 0.9839057 -0.1771024 1E-11 -0.23716839 0.16654818 0.9570856 0 0 0 0 1 0.9697457 0.10775505 0.21904814 4.6038685 -0.038622838 0.9537293 -0.29817566 1E-11 -0.24104255 0.28069434 0.9290367 0 0 0 0 1 0.9684035 0.1416071 0.20528543 4.6038685 -0.050138533 0.9168977 -0.39596045 1E-11 -0.24429655 0.3731568 0.8950269 0 0 0 0 1 0.96744466 0.15598089 0.1993007 4.6038685 -0.05506577 0.89836055 -0.4357936 1E-11 -0.24701938 0.41063157 0.8777033 0 0 0 0 1 0.96766263 0.13794234 0.21118933 4.6038685 -0.042244706 0.9140261 -0.4034497 1E-11 -0.24868536 0.3814816 0.8902962 0 0 0 0 1 0.96829164 0.09233832 0.23213124 4.6038685 -0.011457667 0.9446212 -0.32796267 1E-11 -0.24955961 0.31490383 0.9157268 0 0 0 0 1 0.96774554 0.036867034 0.24921758 4.6038685 0.025216337 0.97009176 -0.2414252 1E-11 -0.25066456 0.23992251 0.9378723 0 0 0 0 1 0.9664614 -0.007465448 0.25670332 4.6038685 0.055882867 0.9817385 -0.1818423 1E-11 -0.25065798 0.19008887 0.9492296 0 0 0 0 1 0.96595895 -0.02714977 0.25726682 4.6038685 0.068140954 0.98606145 -0.15178804 1E-11 -0.24955988 0.16415142 0.95434487 0 0 0 0 1 0.9667986 -0.02951518 0.25382924 4.6038685 0.06342055 0.9899436 -0.12644933 1E-11 -0.24754447 0.13834904 0.958948 0 0 0 0 1 0.96839654 -0.022036236 0.24844031 4.6038685 0.049364734 0.9933186 -0.10431334 1E-11 -0.2444817 0.113280855 0.96301407 0 0 0 0 1 0.9700769 -0.009856248 0.24259776 4.6038685 0.031214653 0.9959467 -0.08435492 1E-11 -0.24078304 0.08940336 0.9664526 0 0 0 0 1 0.97137964 0.0034307223 0.23750754 4.6038685 0.012570972 0.9977519 -0.06582611 1E-11 -0.23719944 0.06692784 0.96915275 0 0 0 0 1 0.9720869 0.012567885 0.23428433 4.6038685 -0.0013790778 0.9988531 -0.047860168 1E-11 -0.23461713 0.046201147 0.97098935 0 0 0 0 1 0.9720869 0.012567885 0.23428433 4.6038685 -0.0013790778 0.9988531 -0.047860168 1E-11 -0.23461713 0.046201147 0.97098935 0 0 0 0 1</float_array>
        <technique_common>
          <accessor source="#Motion_31_Head_transform_pose_array_id" count="17" stride="16">
            <param name="TRANSFORM" type="float4x4" />
          </accessor>
        </technique_common>
      </source>
      <sampler id="Motion_31_Head_transform_samp_id">
        <input semantic="INPUT" source="#Motion_31_Head_transform_frame_id" />
        <input semantic="INTERPOLATION" source="#Motion_31_Head_transform_interp_id" />
        <input semantic="OUTPUT" source="#Motion_31_Head_transform_pose_id" />
      </sampler>
      <channel source="#Motion_31_Head_transform_samp_id" target="Head_bone_id/transform" />
    </animation>
    <animation id="Motion_31_RFeelerA1_transform_id" name="Motion_31_RFeelerA1_transform">
      <source id="Motion_31_RFeelerA1_transform_frame_id" name="Motion_31_RFeelerA1_transform_frame">
        <float_array id="Motion_31_RFeelerA1_transform_frame_array_id" count="17">0 0.033333335 0.06666667 0.1 0.13333334 0.16666667 0.2 0.23333333 0.26666668 0.3 0.33333334 0.36666667 0.4 0.43333334 0.46666667 0.5 0.53333336</float_array>
        <technique_common>
          <accessor source="#Motion_31_RFeelerA1_transform_frame_array_id" count="17" stride="1">
            <param name="TIME" type="float" />
          </accessor>
        </technique_common>
      </source>
      <source id="Motion_31_RFeelerA1_transform_interp_id" name="Motion_31_RFeelerA1_transform_interp">
        <Name_array id="Motion_31_RFeelerA1_transform_interp_array_id" count="17">LINEAR LINEAR LINEAR LINEAR LINEAR LINEAR LINEAR LINEAR LINEAR LINEAR LINEAR LINEAR LINEAR LINEAR LINEAR LINEAR LINEAR</Name_array>
        <technique_common>
          <accessor source="#Motion_31_RFeelerA1_transform_interp_array_id" count="17" stride="1">
            <param name="INTERPOLATION" type="Name" />
          </accessor>
        </technique_common>
      </source>
      <source id="Motion_31_RFeelerA1_transform_pose_id" name="Motion_31_RFeelerA1_transform_pose">
        <float_array id="Motion_31_RFeelerA1_transform_pose_array_id" count="272">0.21593106 -0.7172416 0.66252416 17.28705 0.5764404 0.6413083 0.50639904 10.623 -0.7880928 0.27255842 0.5519254 -3.4558156 0 0 0 1 0.25117624 -0.68600094 0.6828713 17.28705 0.51914966 0.69090843 0.50311935 10.623 -0.8169419 0.22814082 0.5296769 -3.4558156 0 0 0 1 0.29586363 -0.60725474 0.7373644 17.28705 0.38640705 0.78203106 0.48899597 10.623 -0.873587 0.14024667 0.46602207 -3.4558156 0 0 0 1 0.2954489 -0.52183485 0.8002489 17.28705 0.25626928 0.8502329 0.45981532 10.623 -0.9203456 0.06922723 0.3849306 -3.4558156 0 0 0 1 0.28124654 -0.48253387 0.8294947 17.28705 0.20176959 0.8747972 0.44047576 10.623 -0.93818414 0.043484494 0.34339434 -3.4558156 0 0 0 1 0.28899682 -0.49706227 0.8181749 17.28705 0.22661495 0.8658722 0.44599444 10.623 -0.93012184 0.056519642 0.362876 -3.4558156 0 0 0 1 0.3001703 -0.5356332 0.7893002 17.28705 0.2959708 0.8389179 0.45674717 10.623 -0.90680707 0.09650791 0.41035002 -3.4558156 0 0 0 1 0.29464 -0.58858633 0.7528303 17.28705 0.3974465 0.79191005 0.46358895 10.623 -0.869036 0.16261788 0.46725994 -3.4558156 0 0 0 1 0.25561237 -0.6445155 0.7205984 17.28705 0.5129304 0.7222147 0.46401322 10.623 -0.8194905 0.25100935 0.5151986 -3.4558156 0 0 0 1 0.18699014 -0.6884715 0.7007436 17.28705 0.6155004 0.6380604 0.4626426 10.623 -0.76563305 0.3447984 0.5430655 -3.4558156 0 0 0 1 0.109804034 -0.7122067 0.6933287 17.28705 0.6878636 0.55797446 0.4642285 10.623 -0.71748644 0.4259414 0.5511689 -3.4558156 0 0 0 1 0.05623114 -0.7200449 0.6916454 17.28705 0.72465044 0.5059751 0.46783644 10.623 -0.6868186 0.47489417 0.5502324 -3.4558156 0 0 0 1 0.055376887 -0.7216382 0.690052 17.28705 0.72511077 0.50417614 0.46906382 10.623 -0.68640214 0.47438878 0.5511873 -3.4558156 0 0 0 1 0.09926963 -0.7260092 0.68048245 17.28705 0.6954556 0.53972566 0.47438136 10.623 -0.71167904 0.42615363 0.5584855 -3.4558156 0 0 0 1 0.15600467 -0.7257533 0.67003334 17.28705 0.64711463 0.5875869 0.48578212 10.623 -0.74626076 0.3578041 0.5613119 -3.4558156 0 0 0 1 0.19935882 -0.7206345 0.66403455 17.28705 0.5986392 0.6260524 0.4996894 10.623 -0.7758139 0.29789966 0.55620915 -3.4558156 0 0 0 1 0.19935882 -0.7206345 0.66403455 17.28705 0.5986392 0.6260524 0.4996894 10.623 -0.7758139 0.29789966 0.55620915 -3.4558156 0 0 0 1</float_array>
        <technique_common>
          <accessor source="#Motion_31_RFeelerA1_transform_pose_array_id" count="17" stride="16">
            <param name="TRANSFORM" type="float4x4" />
          </accessor>
        </technique_common>
      </source>
      <sampler id="Motion_31_RFeelerA1_transform_samp_id">
        <input semantic="INPUT" source="#Motion_31_RFeelerA1_transform_frame_id" />
        <input semantic="INTERPOLATION" source="#Motion_31_RFeelerA1_transform_interp_id" />
        <input semantic="OUTPUT" source="#Motion_31_RFeelerA1_transform_pose_id" />
      </sampler>
      <channel source="#Motion_31_RFeelerA1_transform_samp_id" target="RFeelerA1_bone_id/transform" />
    </animation>
    <animation id="Motion_31_RFeelerA2_transform_id" name="Motion_31_RFeelerA2_transform">
      <source id="Motion_31_RFeelerA2_transform_frame_id" name="Motion_31_RFeelerA2_transform_frame">
        <float_array id="Motion_31_RFeelerA2_transform_frame_array_id" count="17">0 0.033333335 0.06666667 0.1 0.13333334 0.16666667 0.2 0.23333333 0.26666668 0.3 0.33333334 0.36666667 0.4 0.43333334 0.46666667 0.5 0.53333336</float_array>
        <technique_common>
          <accessor source="#Motion_31_RFeelerA2_transform_frame_array_id" count="17" stride="1">
            <param name="TIME" type="float" />
          </accessor>
        </technique_common>
      </source>
      <source id="Motion_31_RFeelerA2_transform_interp_id" name="Motion_31_RFeelerA2_transform_interp">
        <Name_array id="Motion_31_RFeelerA2_transform_interp_array_id" count="17">LINEAR LINEAR LINEAR LINEAR LINEAR LINEAR LINEAR LINEAR LINEAR LINEAR LINEAR LINEAR LINEAR LINEAR LINEAR LINEAR LINEAR</Name_array>
        <technique_common>
          <accessor source="#Motion_31_RFeelerA2_transform_interp_array_id" count="17" stride="1">
            <param name="INTERPOLATION" type="Name" />
          </accessor>
        </technique_common>
      </source>
      <source id="Motion_31_RFeelerA2_transform_pose_id" name="Motion_31_RFeelerA2_transform_pose">
        <float_array id="Motion_31_RFeelerA2_transform_pose_array_id" count="272">0.84116113 0.5264022 -0.12388982 7.599963 -0.5401203 0.8291356 -0.1442366 5.954874E-05 0.026795011 0.18824163 0.98175716 -2.2869E-07 0 0 0 1 0.7987002 0.58787006 -0.12840086 7.599963 -0.6016137 0.7843338 -0.15126573 5.954874E-05 0.0117845535 0.19806369 0.98011833 -2.2869E-07 0 0 0 1 0.6791799 0.7191514 -0.1467512 7.599963 -0.73356915 0.65847874 -0.16817285 5.954874E-05 -0.024309196 0.22187178 0.9747728 -2.2869E-07 0 0 0 1 0.5079993 0.842065 -0.1812823 7.599963 -0.8587712 0.47883332 -0.18229277 5.954874E-05 -0.06669837 0.24828462 0.96638817 -2.2869E-07 0 0 0 1 0.3466165 0.91173524 -0.22044435 7.599963 -0.93240887 0.3092605 -0.1870067 5.954874E-05 -0.102325894 0.27036387 0.95730495 -2.2869E-07 0 0 0 1 0.27555996 0.931085 -0.23905548 7.599963 -0.95410156 0.23456603 -0.18619622 5.954874E-05 -0.1172902 0.2793914 0.9529866 -2.2869E-07 0 0 0 1 0.33491498 0.91573995 -0.22192843 7.599963 -0.9360892 0.29647905 -0.189307 5.954874E-05 -0.10755886 0.27114657 0.9565096 -2.2869E-07 0 0 0 1 0.48353064 0.8565045 -0.18054947 7.599963 -0.87165636 0.45227754 -0.18883921 5.954874E-05 -0.08008317 0.24868663 0.96526766 -2.2869E-07 0 0 0 1 0.6687093 0.7314376 -0.13351724 7.599963 -0.7423343 0.64663213 -0.17551826 5.954874E-05 -0.04204414 0.2164851 0.9753802 -2.2869E-07 0 0 0 1 0.83459735 0.5416803 -0.10014858 7.599963 -0.55085963 0.82100916 -0.1499921 5.954874E-05 0.0009751469 0.18035083 0.98360187 -2.2869E-07 0 0 0 1 0.94251436 0.32277533 -0.086502835 7.599963 -0.33163884 0.9352776 -0.12357793 5.954874E-05 0.041016255 0.14516167 0.9885574 -2.2869E-07 0 0 0 1 0.98764145 0.12893613 -0.08910555 7.599963 -0.13798426 0.9849378 -0.104201265 5.954874E-05 0.07432811 0.11520865 0.99055654 -2.2869E-07 0 0 0 1 0.9953424 0.0129563175 -0.095528215 7.599963 -0.022171736 0.99512976 -0.09604755 5.954874E-05 0.093818545 0.097718224 0.99078214 -2.2869E-07 0 0 0 1 0.99502665 0.027033955 -0.09587068 7.599963 -0.03641948 0.9945649 -0.097541094 5.954874E-05 0.09271269 0.10054755 0.99060315 -2.2869E-07 0 0 0 1 0.97182566 0.21496712 -0.09666444 7.599963 -0.22533064 0.96765184 -0.113472566 5.954874E-05 0.06914465 0.13205701 0.9888276 -2.2869E-07 0 0 0 1 0.8958342 0.43005902 -0.11193901 7.599963 -0.44245905 0.886631 -0.13459358 5.954874E-05 0.041365426 0.17010197 0.98455787 -2.2869E-07 0 0 0 1 0.8958342 0.43005902 -0.11193901 7.599963 -0.44245905 0.886631 -0.13459358 5.954874E-05 0.041365426 0.17010197 0.98455787 -2.2869E-07 0 0 0 1</float_array>
        <technique_common>
          <accessor source="#Motion_31_RFeelerA2_transform_pose_array_id" count="17" stride="16">
            <param name="TRANSFORM" type="float4x4" />
          </accessor>
        </technique_common>
      </source>
      <sampler id="Motion_31_RFeelerA2_transform_samp_id">
        <input semantic="INPUT" source="#Motion_31_RFeelerA2_transform_frame_id" />
        <input semantic="INTERPOLATION" source="#Motion_31_RFeelerA2_transform_interp_id" />
        <input semantic="OUTPUT" source="#Motion_31_RFeelerA2_transform_pose_id" />
      </sampler>
      <channel source="#Motion_31_RFeelerA2_transform_samp_id" target="RFeelerA2_bone_id/transform" />
    </animation>
    <animation id="Motion_31_LFeelerA1_transform_id" name="Motion_31_LFeelerA1_transform">
      <source id="Motion_31_LFeelerA1_transform_frame_id" name="Motion_31_LFeelerA1_transform_frame">
        <float_array id="Motion_31_LFeelerA1_transform_frame_array_id" count="17">0 0.033333335 0.06666667 0.1 0.13333334 0.16666667 0.2 0.23333333 0.26666668 0.3 0.33333334 0.36666667 0.4 0.43333334 0.46666667 0.5 0.53333336</float_array>
        <technique_common>
          <accessor source="#Motion_31_LFeelerA1_transform_frame_array_id" count="17" stride="1">
            <param name="TIME" type="float" />
          </accessor>
        </technique_common>
      </source>
      <source id="Motion_31_LFeelerA1_transform_interp_id" name="Motion_31_LFeelerA1_transform_interp">
        <Name_array id="Motion_31_LFeelerA1_transform_interp_array_id" count="17">LINEAR LINEAR LINEAR LINEAR LINEAR LINEAR LINEAR LINEAR LINEAR LINEAR LINEAR LINEAR LINEAR LINEAR LINEAR LINEAR LINEAR</Name_array>
        <technique_common>
          <accessor source="#Motion_31_LFeelerA1_transform_interp_array_id" count="17" stride="1">
            <param name="INTERPOLATION" type="Name" />
          </accessor>
        </technique_common>
      </source>
      <source id="Motion_31_LFeelerA1_transform_pose_id" name="Motion_31_LFeelerA1_transform_pose">
        <float_array id="Motion_31_LFeelerA1_transform_pose_array_id" count="272">0.107313156 0.80104446 0.5889071 17.287012 -0.61522007 0.5188073 -0.593585 -10.623 -0.7810173 -0.29860806 0.5484935 -3.4558117 0 0 0 1 0.04896146 0.81515247 0.5771736 17.287012 -0.6521103 0.463794 -0.5997061 -10.623 -0.7565415 -0.3470183 0.55427724 -3.4558117 0 0 0 1 -0.09982777 0.8240219 0.5576939 17.287012 -0.7082496 0.33483058 -0.62150705 -10.623 -0.69886845 -0.45703006 0.5501877 -3.4558117 0 0 0 1 -0.26828146 0.7976283 0.54019827 17.287012 -0.7233795 0.20352638 -0.65977204 -10.623 -0.6361974 -0.567773 0.5223856 -3.4558117 0 0 0 1 -0.3479997 0.7732321 0.530102 17.287012 -0.715129 0.14668536 -0.68342793 -10.623 -0.60620666 -0.61692417 0.5019144 -3.4558117 0 0 0 1 -0.31524122 0.78670895 0.5307655 17.287012 -0.71578085 0.17012179 -0.67728597 -10.623 -0.6231217 -0.5934202 0.5094819 -3.4558117 0 0 0 1 -0.2318381 0.8146006 0.5316739 17.287012 -0.7086216 0.23301154 -0.6660038 -10.623 -0.6664133 -0.5311606 0.5232225 -3.4558117 0 0 0 1 -0.12215912 0.8372166 0.533053 17.287012 -0.6807134 0.3201791 -0.65887374 -10.623 -0.7222925 -0.4433437 0.53079176 -3.4558117 0 0 0 1 -0.014484882 0.84203166 0.53923357 17.287012 -0.6252962 0.41319883 -0.6620207 -10.623 -0.78025305 -0.34677005 0.52053404 -3.4558117 0 0 0 1 0.070289016 0.8296129 0.5538967 17.287012 -0.5528639 0.49458396 -0.6706177 -10.623 -0.8303016 -0.25909254 0.49342698 -3.4558117 0 0 0 1 0.12197161 0.81095624 0.57225263 17.287012 -0.48398876 0.5519599 -0.67903996 -10.623 -0.8665321 -0.19414018 0.45981705 -3.4558117 0 0 0 1 0.14547968 0.79726374 0.58583796 17.287012 -0.43982327 0.582525 -0.683535 -10.623 -0.88622296 -0.15822473 0.43540072 -3.4558117 0 0 0 1 0.14812219 0.7952362 0.587928 17.287012 -0.44006664 0.58538663 -0.68092865 -10.623 -0.8856643 -0.15786678 0.43666565 -3.4558117 0 0 0 1 0.14257282 0.79754466 0.58617026 17.287012 -0.4832428 0.5729281 -0.6619893 -10.623 -0.8637994 -0.18888085 0.46709168 -3.4558117 0 0 0 1 0.13150716 0.7998837 0.58556974 17.287012 -0.5421485 0.5525658 -0.63304496 -10.623 -0.82992816 -0.23421578 0.50632215 -3.4558117 0 0 0 1 0.11566526 0.80099684 0.5873889 17.287012 -0.59360975 0.52988046 -0.6056849 -10.623 -0.79639757 -0.278623 0.53676826 -3.4558117 0 0 0 1 0.11566526 0.80099684 0.5873889 17.287012 -0.59360975 0.52988046 -0.6056849 -10.623 -0.79639757 -0.278623 0.53676826 -3.4558117 0 0 0 1</float_array>
        <technique_common>
          <accessor source="#Motion_31_LFeelerA1_transform_pose_array_id" count="17" stride="16">
            <param name="TRANSFORM" type="float4x4" />
          </accessor>
        </technique_common>
      </source>
      <sampler id="Motion_31_LFeelerA1_transform_samp_id">
        <input semantic="INPUT" source="#Motion_31_LFeelerA1_transform_frame_id" />
        <input semantic="INTERPOLATION" source="#Motion_31_LFeelerA1_transform_interp_id" />
        <input semantic="OUTPUT" source="#Motion_31_LFeelerA1_transform_pose_id" />
      </sampler>
      <channel source="#Motion_31_LFeelerA1_transform_samp_id" target="LFeelerA1_bone_id/transform" />
    </animation>
    <animation id="Motion_31_LFeelerA2_transform_id" name="Motion_31_LFeelerA2_transform">
      <source id="Motion_31_LFeelerA2_transform_frame_id" name="Motion_31_LFeelerA2_transform_frame">
        <float_array id="Motion_31_LFeelerA2_transform_frame_array_id" count="17">0 0.033333335 0.06666667 0.1 0.13333334 0.16666667 0.2 0.23333333 0.26666668 0.3 0.33333334 0.36666667 0.4 0.43333334 0.46666667 0.5 0.53333336</float_array>
        <technique_common>
          <accessor source="#Motion_31_LFeelerA2_transform_frame_array_id" count="17" stride="1">
            <param name="TIME" type="float" />
          </accessor>
        </technique_common>
      </source>
      <source id="Motion_31_LFeelerA2_transform_interp_id" name="Motion_31_LFeelerA2_transform_interp">
        <Name_array id="Motion_31_LFeelerA2_transform_interp_array_id" count="17">LINEAR LINEAR LINEAR LINEAR LINEAR LINEAR LINEAR LINEAR LINEAR LINEAR LINEAR LINEAR LINEAR LINEAR LINEAR LINEAR LINEAR</Name_array>
        <technique_common>
          <accessor source="#Motion_31_LFeelerA2_transform_interp_array_id" count="17" stride="1">
            <param name="INTERPOLATION" type="Name" />
          </accessor>
        </technique_common>
      </source>
      <source id="Motion_31_LFeelerA2_transform_pose_id" name="Motion_31_LFeelerA2_transform_pose">
        <float_array id="Motion_31_LFeelerA2_transform_pose_array_id" count="272">0.91520756 -0.39041847 -0.09984261 7.6 0.4020906 0.90118706 0.16181788 0 0.026800185 -0.18824273 0.9817568 0 0 0 0 1 0.93003625 -0.33942255 -0.14080086 7.6 0.35938206 0.9200902 0.15581563 0 0.07666215 -0.19551548 0.97769964 0 0 0 0 1 0.947847 -0.21116489 -0.23873723 7.6 0.25259408 0.95448285 0.15861489 0 0.19437668 -0.21064626 0.95804274 0 0 0 0 1 0.935231 -0.050153323 -0.3504678 7.6 0.12432592 0.97339535 0.19246972 0 0.33149076 -0.22357586 0.9165848 0 0 0 0 1 0.89714223 0.08918205 -0.43264586 7.6 0.02180254 0.9692757 0.24500865 0 0.44120347 -0.22924039 0.86763376 0 0 0 0 1 0.8740828 0.14790212 -0.46271393 7.6 -0.018286139 0.96186626 0.27290827 0 0.4854326 -0.23008317 0.8434553 0 0 0 0 1 0.89051247 0.09010838 -0.4459462 7.6 0.027502675 0.9677357 0.250462 0 0.45412675 -0.23530425 0.8593025 0 0 0 0 1 0.91606385 -0.0627208 -0.39609733 7.6 0.1531992 0.96751595 0.20110425 0 0.37061706 -0.24490613 0.89591515 0 0 0 0 1 0.9092627 -0.27199757 -0.31505343 7.6 0.3345762 0.92789686 0.16451812 0 0.24758856 -0.25499955 0.9347059 0 0 0 0 1 0.84131676 -0.49108627 -0.22587684 7.6 0.53025985 0.83092 0.16851248 0 0.104931414 -0.26154578 0.9594703 0 0 0 0 1 0.72094977 -0.6745144 -0.15893957 7.6 0.69217646 0.6898179 0.21223328 0 -0.03351503 -0.26302376 0.96420705 0 0 0 0 1 0.5915737 -0.79624087 -0.12665273 7.6 0.7930203 0.54630023 0.26958266 0 -0.14546232 -0.25991622 0.95461214 0 0 0 0 1 0.50597095 -0.8542885 -0.119098745 7.6 0.8362306 0.45198393 0.3105301 0 -0.21145156 -0.25671324 0.9430729 0 0 0 0 1 0.5240736 -0.8443458 -0.111476466 7.6 0.8260534 0.47207278 0.30786848 0 -0.20732246 -0.25343126 0.94487566 0 0 0 0 1 0.6958072 -0.71352166 -0.08209258 7.6 0.7074178 0.6610857 0.25005144 0 -0.124146864 -0.23206134 0.9647461 0 0 0 0 1 0.85846066 -0.5057654 -0.08512757 7.6 0.512379 0.838397 0.18589847 0 -0.0226503 -0.20320411 0.9788744 0 0 0 0 1 0.85846066 -0.5057654 -0.08512757 7.6 0.512379 0.838397 0.18589847 0 -0.0226503 -0.20320411 0.9788744 0 0 0 0 1</float_array>
        <technique_common>
          <accessor source="#Motion_31_LFeelerA2_transform_pose_array_id" count="17" stride="16">
            <param name="TRANSFORM" type="float4x4" />
          </accessor>
        </technique_common>
      </source>
      <sampler id="Motion_31_LFeelerA2_transform_samp_id">
        <input semantic="INPUT" source="#Motion_31_LFeelerA2_transform_frame_id" />
        <input semantic="INTERPOLATION" source="#Motion_31_LFeelerA2_transform_interp_id" />
        <input semantic="OUTPUT" source="#Motion_31_LFeelerA2_transform_pose_id" />
      </sampler>
      <channel source="#Motion_31_LFeelerA2_transform_samp_id" target="LFeelerA2_bone_id/transform" />
    </animation>
  </library_animations>
  <library_visual_scenes>
    <visual_scene id="pm0848_00_fi_00_clip_id" name="pm0848_00_fi_00_clip">
      <node id="pm0848_00_fi_bone_id" name="pm0848_00_fi" sid="pm0848_00_fi" type="JOINT">
        <matrix sid="transform">1 0 0 0 0 1 0 0 0 0 1 0 0 0 0 1</matrix>
        <node id="Origin_bone_id" name="Origin" sid="Origin" type="JOINT">
          <matrix sid="transform">1 0 0 0 0 1 0 0 0 0 1 0 0 0 0 1</matrix>
          <node id="Waist_bone_id" name="Waist" sid="Waist" type="JOINT">
            <matrix sid="transform">3.1391647E-07 -1 1.0000003E-06 1E-06 1 3.1391747E-07 9.999997E-07 42.19377 -1E-06 1E-06 1 1.221615 0 0 0 1</matrix>
            <node id="Spine2_bone_id" name="Spine2" sid="Spine2" type="JOINT">
              <matrix sid="transform">0.999949 0 0.0101008285 9.378085 0 1 0 1E-06 -0.0101008285 0 0.999949 -0.037506 0 0 0 1</matrix>
              <node id="Neck_bone_id" name="Neck" sid="Neck" type="JOINT">
                <matrix sid="transform">0.9967185 8.094534E-08 -0.08094534 11.765203 0 1 1E-06 0 0.08094534 -9.967185E-07 0.9967185 0 0 0 0 1</matrix>
                <node id="Head_bone_id" name="Head" sid="Head" type="JOINT">
                  <matrix sid="transform">0.9974854 0 0.07087254 4.603868 0 1 0 0 -0.07087254 0 0.9974854 0 0 0 0 1</matrix>
                  <node id="LFeelerA1_bone_id" name="LFeelerA1" sid="LFeelerA1" type="JOINT">
                    <matrix sid="transform">0.63302195 0.7660447 0.1116189 17.287012 -0.7544067 0.64278734 -0.13302232 -10.623 -0.17364825 0 0.9848077 -3.455812 0 0 0 1</matrix>
                    <node id="LFeelerA2_bone_id" name="LFeelerA2" sid="LFeelerA2" type="JOINT">
                      <matrix sid="transform">1 0 0 7.6 0 1 0 0 0 0 1 0 0 0 0 1</matrix>
                    </node>
                  </node>
                  <node id="RFeelerA1_bone_id" name="RFeelerA1" sid="RFeelerA1" type="JOINT">
                    <matrix sid="transform">0.63302195 -0.7660447 0.1116189 17.28705 0.7544067 0.64278734 0.13302232 10.623 -0.17364825 0 0.9848077 -3.455816 0 0 0 1</matrix>
                    <node id="RFeelerA2_bone_id" name="RFeelerA2" sid="RFeelerA2" type="JOINT">
                      <matrix sid="transform">1 0 0 7.599963 0 1 0 6E-05 0 0 1 0 0 0 0 1</matrix>
                    </node>
                  </node>
                  <node id="Loc_Head_bone_id" name="Loc_Head" sid="Loc_Head" type="JOINT">
                    <matrix sid="transform">3.1391647E-07 1 0 23.513187 -1 3.1391647E-07 0 0 0 0 1 -0.317046 0 0 0 1</matrix>
                  </node>
                  <node id="Loc_Eye_bone_id" name="Loc_Eye" sid="Loc_Eye" type="JOINT">
                    <matrix sid="transform">3.1391647E-07 1 0 19.52441 -1 3.1391647E-07 0 0 0 0 1 27.49725 0 0 0 1</matrix>
                  </node>
                  <node id="Loc_Mouth_bone_id" name="Loc_Mouth" sid="Loc_Mouth" type="JOINT">
                    <matrix sid="transform">3.1391647E-07 1 0 3.563456 -1 3.1391647E-07 0 0 0 0 1 13.439103 0 0 0 1</matrix>
                  </node>
                </node>
              </node>
              <node id="LArm_bone_id" name="LArm" sid="LArm" type="JOINT">
                <matrix sid="transform">-0.005202814 0.999949 -0.008658773 11.485571 -0.857167 -7.7249155E-08 0.5150386 -6.901371 0.5150123 0.010101665 0.85712326 4.071287 0 0 0 1</matrix>
                <node id="LForeArm_bone_id" name="LForeArm" sid="LForeArm" type="JOINT">
                  <matrix sid="transform">1 0 0 17.5 0 1 0 0 0 0 1 0 0 0 0 1</matrix>
                  <node id="LHand_bone_id" name="LHand" sid="LHand" type="JOINT">
                    <matrix sid="transform">1 0 0 16.01885 0 1 0 0 0 0 1 1E-06 0 0 0 1</matrix>
                  </node>
                </node>
              </node>
              <node id="RArm_bone_id" name="RArm" sid="RArm" type="JOINT">
                <matrix sid="transform">-0.005202817 -0.999949 -0.008658779 11.485601 0.8571675 -8.7959364E-08 -0.5150377 6.901373 0.5150114 -0.01010167 0.85712373 4.071278 0 0 0 1</matrix>
                <node id="RForeArm_bone_id" name="RForeArm" sid="RForeArm" type="JOINT">
                  <matrix sid="transform">1 0 0 17.499994 0 1 0 0 0 0 1 -1.5E-05 0 0 0 1</matrix>
                  <node id="RHand_bone_id" name="RHand" sid="RHand" type="JOINT">
                    <matrix sid="transform">1 0 0 16.018837 0 1 0 0 0 0 1 1.8E-05 0 0 0 1</matrix>
                  </node>
                </node>
              </node>
            </node>
            <node id="FeelerA_bone_id" name="FeelerA" sid="FeelerA" type="JOINT">
              <matrix sid="transform">-0.77630854 2.5202098E-09 0.63035315 9.695014 4.873921E-07 -1 6.042435E-07 1.2E-05 0.63035315 7.763085E-07 0.77630854 12.120852 0 0 0 1</matrix>
            </node>
            <node id="FeelerB_bone_id" name="FeelerB" sid="FeelerB" type="JOINT">
              <matrix sid="transform">-0.77630854 2.5202098E-09 0.63035315 1.291016 4.873921E-07 -1 6.042435E-07 1.2E-05 0.63035315 7.763085E-07 0.77630854 12.120845 0 0 0 1</matrix>
            </node>
            <node id="Hips_bone_id" name="Hips" sid="Hips" type="JOINT">
              <matrix sid="transform">-0.9986355 5.347303E-07 -0.052222233 -0.001 -3.2539674E-07 -1 -4.017016E-06 0 -0.052222233 -3.9945417E-06 0.9986355 0 0 0 0 1</matrix>
              <node id="Tail1_bone_id" name="Tail1" sid="Tail1" type="JOINT">
                <matrix sid="transform">0.9999973 -1.15699885E-08 -0.0023139978 11.641838 0 1 -5E-06 0 0.0023139978 4.9999867E-06 0.9999973 0 0 0 0 1</matrix>
                <node id="Tail2_bone_id" name="Tail2" sid="Tail2" type="JOINT">
                  <matrix sid="transform">0.9987537 0 -0.049910255 9.954459 0 1 0 0 0.049910255 0 0.9987537 0 0 0 0 1</matrix>
                  <node id="LTail1_bone_id" name="LTail1" sid="LTail1" type="JOINT">
                    <matrix sid="transform">0.7481817 -0.66349393 0 3.042692 0.66349393 0.7481817 0 2.047715 0 0 1 0.005163 0 0 0 1</matrix>
                  </node>
                  <node id="RTail1_bone_id" name="RTail1" sid="RTail1" type="JOINT">
                    <matrix sid="transform">0.7481817 0.66349393 0 3.042665 -0.66349393 0.7481817 0 -2.04772 0 0 1 0.005163 0 0 0 1</matrix>
                  </node>
                </node>
              </node>
            </node>
          </node>
          <node id="CamTgtHead_bone_id" name="CamTgtHead" sid="CamTgtHead" type="JOINT">
            <matrix sid="transform">1 0 0 0 0 1 0 87.45316 0 0 1 28.888784 0 0 0 1</matrix>
          </node>
        </node>
        <node id="pm0848_00_fi_BodySkin_bone_id" name="pm0848_00_fi_BodySkin" sid="pm0848_00_fi_BodySkin" type="JOINT">
          <matrix sid="transform">1 0 0 0 0 1 0 0 0 0 1 0 0 0 0 1</matrix>
        </node>
      </node>
    </visual_scene>
  </library_visual_scenes>
  <scene>
    <instance_visual_scene url="#pm0848_00_fi_00_clip_id" />
  </scene>
</COLLADA>