<?xml version="1.0" encoding="utf-8"?>
<COLLADA version="1.4.1" xmlns="http://www.collada.org/2005/11/COLLADASchema">
	<asset>
		<created>2026-02-16T12:33:43Z</created>
		<modified>2026-02-16T12:33:43Z</modified>
	</asset>
	<library_images />
	<library_materials>
		<material id="PressShadowMaterial_PressShadow_mat_id" name="PressShadowMaterial_PressShadow_mat">
			<instance_effect url="#eff_PressShadowMaterial_PressShadow_id" />
		</material>
	</library_materials>
	<library_effects>
		<effect id="eff_PressShadowMaterial_PressShadow_id" name="eff_PressShadowMaterial_PressShadow">
			<profile_COMMON>
				<newparam sid="img_surface">
					<surface type="2D">
						<init_from>??????_id</init_from>
						<format>PNG</format>
					</surface>
				</newparam>
				<newparam sid="img_sampler">
					<sampler2D>
						<source>img_surface</source>
						<wrap_s>CLAMP</wrap_s>
						<wrap_t>NONE</wrap_t>
						<minfilter>LINEAR_MIPMAP_LINEAR</minfilter>
						<magfilter>LINEAR</magfilter>
						<mipfilter>LINEAR</mipfilter>
					</sampler2D>
				</newparam>
				<technique sid="img_technique">
					<phong>
						<emission>
							<color>0 0 0 1</color>
						</emission>
						<ambient>
							<color>0 0 0 1</color>
						</ambient>
						<diffuse>
							<texture texture="img_sampler" texcoord="uv" />
						</diffuse>
						<specular>
							<color>1 1 1 1</color>
						</specular>
					</phong>
				</technique>
			</profile_COMMON>
		</effect>
	</library_effects>
	<library_geometries>
		<geometry id="mesh_0_PressShadowMaterial_PressShadow_id" name="mesh_0_PressShadowMaterial_PressShadow">
			<mesh>
				<source id="mesh_0_PressShadowMaterial_PressShadow_position_id" name="mesh_0_PressShadowMaterial_PressShadow_position">
					<float_array id="mesh_0_PressShadowMaterial_PressShadow_position_array_id" count="867">-41.471268 113.04611 30.030426 -20.892475 112.305405 40.41197 -11.139265 114.82965 47.303482 1.151214 106.73125 49.383553 0.033498 107.27379 41.975952 -17.000422 112.35379 35.93034 2.896894 111.199646 53.617584 0.000101 127.40692 43.95504 -4.264046 128.703 42.557343 -37.387222 109.40197 31.932665 -23.382435 113.34148 29.299454 -24.978678 124.71012 32.85127 -43.444176 118.51592 17.013317 -7.085056 133.97054 38.43434 -11.553627 144.8984 27.190416 -3.312953 136.74821 37.46372 -7E-05 138.0426 38.926605 -1.881969 155.87767 20.794685 -28.056309 112.06593 21.934914 -31.63872 111.463104 8.372333 -9.707047 155.99768 9.60214 -10.141726 151.24872 19.431538 -4.219697 158.88028 3.084747 -11.811433 155.92322 -3.314585 -15.379379 150.70189 -13.755914 -6.606791 156.65263 -13.62294 6.582296 156.02228 -13.740333 -21.45134 143.36104 -19.096792 -5.088688 147.0505 -29.326517 -25.092636 130.34128 28.256042 -18.023254 138.44568 28.430988 -38.53308 124.543 12.673655 -31.11289 127.84116 23.462357 -8.254242 107.61363 38.101402 -27.751804 120.03385 -36.546703 -45.219383 119.69971 -10.96401 -42.25563 122.33339 -3.061642 -4.283176 120.89574 -44.732086 -15.915357 110.13581 -51.32113 -36.503937 131.98657 -10.419511 -39.46833 126.40816 -1.968022 -53.699177 111.07623 -17.657473 -37.995155 108.1105 -37.134544 -53.046444 106.907845 -18.750292 -55.774498 104.75533 -5.591039 -33.108818 105.19508 -36.31779 -26.809114 109.69397 -12.442545 -18.382648 109.65115 -22.121931 -37.871956 108.50681 0.78883 -61.17037 110.38258 6.587305 -61.84776 106.01251 -3.557089 -58.72049 106.55643 10.7311 -43.444176 118.51592 17.013317 -27.132683 138.26358 -17.816051 13.5742 109.96123 -51.673107 -4.647582 105.23753 -55.147182 -21.99089 106.95604 -47.811424 -4.431875 104.08375 -52.134212 -9.089677 109.55874 -27.151468 0 107.828354 -34.07158 -41.471268 113.04611 30.030426 -48.09088 108.251785 21.973652 -37.387222 109.40197 31.932665 -31.63872 111.463104 8.372333 16.052006 105.47485 -49.953262 21.99089 106.95604 -47.811424 8.942115 109.56842 -27.177904 14.839508 120.83746 -42.696583 33.80613 118.72337 -32.230698 -5.088688 147.0505 -29.326517 -4.283176 120.89574 -44.732086 11.261787 141.65541 -31.029913 6.582296 156.02228 -13.740333 19.009445 145.91623 -18.690187 15.379379 150.70189 -13.755914 7.132775 157.40492 8.606314 11.811433 155.92322 -3.314585 10.12607 155.46089 10.550527 -4.219697 158.88028 3.084747 -1.881969 155.87767 20.794685 9.83202 146.98718 25.723816 -7E-05 138.0426 38.926605 3.312953 136.74821 37.46372 6.687392 133.788 39.331642 28.482431 123.87079 30.098663 5.941892 126.58137 42.35353 30.44282 114.37169 37.372982 39.67028 123.20456 12.681505 57.409218 111.35533 10.875002 2.896894 111.199646 53.617584 0.000101 127.40692 43.95504 18.148037 111.66314 42.031223 1.151214 106.73125 49.383553 0.033498 107.27379 41.975952 17.000422 112.35379 35.93034 38.753418 108.636055 29.037006 48.09088 108.251785 21.973652 23.382435 113.34148 29.299454 28.056309 112.06593 21.934914 31.63872 111.463104 8.372333 42.25563 122.33339 -3.061642 45.219383 119.69971 -10.96401 36.004406 130.82498 -11.497531 39.46833 126.40816 -1.968022 27.094643 129.4563 26.796204 34.63792 126.043846 19.388039 17.79537 138.49036 28.847387 8.254242 107.61363 38.101402 54.82688 110.870415 -15.94404 61.84776 106.01251 -3.557089 33.80613 118.72337 -32.230698 27.239025 137.47777 -19.566086 40.228455 109.985886 -35.00246 40.04018 106.466415 -34.862213 53.046444 106.907845 -18.750292 45.600765 105.094894 -23.727373 16.052006 105.47485 -49.953262 58.6977 105.51749 8.049138 35.781494 108.60791 -5.134068 25.191416 109.68919 -14.733547 17.744387 109.712234 -22.615501 11.261787 141.65541 -31.029913 19.009445 145.91623 -18.690187 13.5742 109.96123 -51.673107 21.99089 106.95604 -47.811424 8.942115 109.56842 -27.177904 1.527087 100.54152 40.177326 -5.769669 95.88213 35.27407 -4.396554 82.91237 50.006424 -4.879431 85.48593 39.53739 0 96.48784 45.07212 -1.317856 82.651245 56.446312 -1.940123 75.71855 46.286682 0 78.27657 41.228474 -0.198841 106.41081 32.493347 0.060238 102.10716 28.226288 0.082206 89.941864 31.926529 0.003802 86.838974 33.486298 0 91.685936 27.370663 -0.000515 82.817665 36.896336 -3.690882 61.619324 55.324257 0.513965 53.75978 52.451607 -2.371303 51.273937 45.669575 0.358896 39.739193 38.139282 0 57.420006 45.02059 4.976092 83.73515 40.486145 3.582417 56.24153 48.00554 2.96434 81.16765 55.50464 5.151296 76.57417 50.21546 7.359472 95.123276 31.847532 -3.351484 54.522034 -20.405724 -3.989149 68.97164 -18.452429 -1.837678 84.34038 -25.288113 -0.552586 31.325344 -2.697924 -0 31.321491 -7.898829 -0 66.60693 -30.73859 -0.85829 45.326935 -20.524136 -0 45.825676 -9.864513 -0 69.5905 -17.629028 -0.001738 74.87237 -17.268515 -0.001416 80.23383 -13.271042 -4.612781 88.01648 -12.892002 0.000576 88.02673 -8.666911 0.019544 101.019615 -10.28782 -0 102.59549 -15.791637 1.031169 93.64938 -23.94207 2.339892 42.235466 -15.195253 4.103073 77.911026 -19.115852 3.392986 64.78005 -21.750898 5.468843 88.699875 -13.341293 -23.988918 93.36383 1.727231 -24.852777 58.132145 1.66851 -25.855904 65.75058 -0.348779 -28.366062 105.951515 1.278323 -25.998737 103.32492 -2.061961 -20.369331 98.48554 -0.193884 -24.008057 29.689861 -2.235118 -22.250942 23.533672 1.343596 -28.253593 23.12556 -0.799532 -26.070297 25.21474 3.687555 -23.612148 100.155624 5.38671 -23.501453 77.40225 -9.959301 -21.738853 57.56653 -9.039562 -24.324385 31.808271 -12.648139 -19.12228 27.045952 -9.840182 -21.77658 18.452839 -9.457751 -24.009275 25.974072 -7.362441 -18.734821 100.16602 -11.580027 -23.776745 105.17799 -11.580721 -20.55989 89.24579 -8.689316 -19.551098 99.6557 -6.234766 -23.422943 104.30831 26.003635 -17.085928 94.11516 18.20666 0 99.2332 33.63071 -28.990564 104.851204 12.680394 -28.056309 112.06593 21.934914 -23.382435 113.34148 29.299454 -31.63872 111.463104 8.372333 -37.871956 108.50681 0.78883 -21.520428 97.98708 -7.497008 -26.809114 109.69397 -12.442545 -18.382648 109.65115 -22.121931 -9.107127 93.77579 -11.880677 -9.089677 109.55874 -27.151468 0.008955 94.11936 -16.740545 0 107.828354 -34.07158 0.000664 88.71383 4.261461 0.016276 92.39625 24.402632 -8.254242 107.61363 38.101402 0.033498 107.27379 41.975952 -17.000422 112.35379 35.93034 8.942115 109.56842 -27.177904 17.744387 109.712234 -22.615501 22.09748 99.94546 -9.571505 25.191416 109.68919 -14.733547 35.781494 108.60791 -5.134068 28.427267 105.53693 10.730525 31.63872 111.463104 8.372333 28.056309 112.06593 21.934914 23.134298 104.51027 25.768919 16.776482 99.79727 26.362522 23.382435 113.34148 29.299454 22.376436 96.084236 5.665476 8.254242 107.61363 38.101402 17.000422 112.35379 35.93034 26.49674 153.53268 -5.035162 32.481583 148.85773 11.589118 39.86995 136.87497 1.193235 19.476822 155.89246 11.424877 11.811433 155.92322 -3.314585 15.379379 150.70189 -13.755914 19.009445 145.91623 -18.690187 27.239025 137.47777 -19.566086 31.682093 143.46422 -11.78739 36.004406 130.82498 -11.497531 39.46833 126.40816 -1.968022 39.67028 123.20456 12.681505 10.12607 155.46089 10.550527 9.83202 146.98718 25.723816 26.532778 144.17271 23.71395 17.79537 138.49036 28.847387 27.094643 129.4563 26.796204 36.83075 136.24002 17.3841 34.63792 126.043846 19.388039 -19.48764 156.13509 10.354041 -27.94151 151.6674 -8.243252 -34.770298 148.78047 6.026036 -11.811433 155.92322 -3.314585 -15.379379 150.70189 -13.755914 -21.45134 143.36104 -19.096792 -27.132683 138.26358 -17.816051 -36.503937 131.98657 -10.419511 -9.707047 155.99768 9.60214 -10.141726 151.24872 19.431538 -11.553627 144.8984 27.190416 -26.15959 144.59431 23.666674 -18.023254 138.44568 28.430988 -25.092636 130.34128 28.256042 -31.11289 127.84116 23.462357 -39.553123 135.63655 12.940053 -39.46833 126.40816 -1.968022 -38.53308 124.543 12.673655 -9.422811 101.42866 -21.09138 -10.280426 74.20024 -16.233994 -9.164745 31.870443 -18.760977 -10.655317 33.54192 -14.383789 -12.038198 28.999073 -19.587421 -14.520864 31.200592 -16.786358 -13.32597 61.69603 -15.741571 -14.663257 98.38063 -13.722486 -13.857283 103.33328 -20.36906 -8.85735 96.360504 -14.200508 -7E-05 138.0426 38.926605 0.000101 127.40692 43.95504 6.687392 133.788 39.331642 -4.264046 128.703 42.557343 -7.085056 133.97054 38.43434 -3.312953 136.74821 37.46372 3.312953 136.74821 37.46372 5.941892 126.58137 42.35353 -10.250288 9.920036 22.01489 -15.734249 10.280398 28.324696 -18.026943 11.522293 24.050442 -13.916548 16.221685 20.611824 -9.027961 10.896996 27.047585 -12.760729 8.384529 30.407585 14.567994 98.47754 -13.761093 9.422811 101.42866 -21.09138 13.857283 103.33328 -20.36906</float_array>
					<technique_common>
						<accessor source="#mesh_0_PressShadowMaterial_PressShadow_position_array_id" count="289" stride="3">
							<param name="X" type="float" />
							<param name="Y" type="float" />
							<param name="Z" type="float" />
						</accessor>
					</technique_common>
				</source>
				<source id="mesh_0_PressShadowMaterial_PressShadow_normal_id" name="mesh_0_PressShadowMaterial_PressShadow_normal">
					<float_array id="mesh_0_PressShadowMaterial_PressShadow_normal_array_id" count="867">0 -0.515001 0.857189 0 -0.515001 0.857189 0 -0.515001 0.857189 0 -0.515001 0.857189 0 -0.515001 0.857189 0 -0.515001 0.857189 0 -0.515001 0.857189 0.032132 0.441107 0.896879 -0.255159 0.436815 0.862605 -0.759815 -0.551704 0.343954 0 -0.515001 0.857189 -0.536978 0.534013 0.653058 -0.647103 0.710739 0.275876 -0.407637 0.56436 0.717865 -0.204737 0.568597 0.796731 -0.431995 0.63657 0.638873 -0.039892 0.641839 0.765801 -0.071749 0.883789 0.462351 -0.786132 -0.465558 0.406512 -0.83424 -0.478924 0.27327 -0.060599 0.972851 0.223357 0.443727 0.737196 0.509557 -0.141755 0.989027 -0.041611 -0.141035 0.969999 -0.198018 -0.289571 0.855578 -0.429109 -0.30897 0.884683 -0.349102 0.274207 0.897435 -0.345574 -0.506642 0.605102 -0.614138 -0.136422 0.67566 -0.724481 -0.432828 0.155462 0.887971 0.058332 0.026662 0.997941 -0.938715 0.075689 0.336282 -0.642164 -0.228723 0.73165 0 -0.515001 0.857189 -0.501745 0.603437 -0.619771 -0.685364 0.70346 -0.188202 -0.785249 0.611641 0.096331 -0.080673 0.578326 -0.811807 -0.312162 0.399055 -0.862155 -0.894426 0.342816 -0.287192 -0.917174 -0.350613 -0.189376 -0.749437 0.494736 -0.439979 -0.572282 -0.235824 -0.785417 -0.860157 -0.197547 -0.470218 -0.827254 -0.470722 0.30671 -0.543626 -0.4115 -0.731532 -0.778955 -0.549519 -0.30209 -0.559718 -0.518399 -0.646512 -0.843881 -0.511479 -0.162031 -0.808737 0.56027 0.179004 -0.930163 -0.239687 -0.278113 -0.854423 -0.289028 0.431769 -0.647103 0.710739 0.275876 -0.513868 0.127003 -0.848416 0.316821 0.357657 -0.878468 0 -0.346453 -0.938067 -0.48684 -0.270631 -0.830509 0.171972 -0.51836 -0.837692 -0.169564 -0.564531 -0.807807 0 -0.599912 -0.800066 0 -0.515001 0.857189 -0.791734 -0.311917 0.525229 -0.759815 -0.551704 0.343954 -0.83424 -0.478924 0.27327 0.543626 -0.4115 -0.731532 0.486841 -0.270631 -0.830509 0.169564 -0.564531 -0.807807 0.237961 0.543209 -0.80517 0.555755 0.595848 -0.579742 -0.136422 0.67566 -0.724481 -0.080673 0.578326 -0.811807 0.390093 0.639446 -0.662523 0.274207 0.897435 -0.345574 0.450117 0.70951 -0.542209 0.106427 0.876631 -0.469245 0.175413 0.977799 0.114626 -0.054834 0.9801 -0.190778 0.160231 0.945031 0.285032 -0.141755 0.989027 -0.041611 -0.071749 0.883789 0.462351 0.205022 0.669146 0.714289 -0.039892 0.641839 0.765801 0.407848 0.672247 0.617854 0.381038 0.533884 0.754836 0.50724 0.434423 0.744302 0.384315 0.457365 0.801947 0 -0.515001 0.857189 0.885505 0.240781 0.397373 0.768813 0.583069 0.262598 0 -0.515001 0.857189 0.032132 0.441107 0.896879 0 -0.515001 0.857189 0 -0.515001 0.857189 0 -0.515001 0.857189 0 -0.515001 0.857189 0.759815 -0.551704 0.343954 0.791734 -0.311917 0.525229 0 -0.515001 0.857189 0.786132 -0.465558 0.406512 0.83424 -0.478924 0.27327 0.678697 0.733122 0.043612 0.690036 0.699303 -0.186617 0.876399 0.342017 -0.339042 0.829386 -0.468677 -0.304074 0.617237 0.084206 0.782258 0.578113 -0.427775 0.694834 0.164519 0.241003 0.956478 0 -0.515001 0.857189 0.77737 0.458408 -0.430763 0.930163 -0.239687 -0.278113 0.555755 0.595848 -0.579742 0.619209 0.555781 -0.554696 0.640786 0.277751 -0.715715 0.572282 -0.235824 -0.785417 0.860157 -0.197546 -0.470218 0.622553 -0.425486 -0.656802 0.543626 -0.4115 -0.731532 0.827254 -0.470722 0.30671 0.843881 -0.511479 -0.162032 0.723585 -0.543575 -0.425382 0.559718 -0.518399 -0.646512 0.390093 0.639446 -0.662523 0.450117 0.70951 -0.542209 0.316821 0.357657 -0.878468 0.486841 -0.270631 -0.830509 0.169564 -0.564531 -0.807807 0.554075 0.682078 0.477254 -0.987035 0.073091 -0.142898 -0.988462 0.12392 0.087105 -0.204516 -0.716777 -0.666636 -0.319594 0.688882 0.650616 -0.206532 0.23172 0.950605 -0.263716 -0.490202 -0.830756 -0 -0.603343 -0.797482 -0.478563 0.877466 0.032108 0.214708 0.553727 -0.804542 0.248883 -0.810234 -0.530639 0.280621 -0.766809 -0.577283 -0.206974 -0.524228 -0.826043 0.273764 -0.683336 -0.676834 -0.757967 -0.217409 0.614996 0.211402 -0.419386 0.88285 -0.944988 -0.176341 -0.275502 0.062586 -0.629788 -0.774242 0.173942 0.169796 -0.970007 0.730559 -0.464007 -0.500981 0.996216 -0.08252 -0.027266 0.720987 0.182307 0.668537 0.949712 -0.062389 -0.306848 0.904714 -0.120439 -0.40864 -0.964224 -0.124054 -0.234271 -0.814635 -0.06587 0.576222 -0.746536 0.176077 -0.641623 0.511287 0.151828 0.845893 -0.265947 -0.769666 -0.580419 0.33608 -0.216413 -0.916633 -0.208023 -0.545011 -0.812213 0.482271 0.323678 0.814032 0 -0.086765 0.996229 0 -0.365621 0.930764 0 -0.474463 0.880275 -0.211831 -0.426275 0.879441 0 -0.458919 0.888478 -0.029908 0.462031 0.886359 -0.44212 0.805677 -0.394225 0.69836 0.211064 -0.683919 0.923435 -0.254472 -0.287247 0.254949 -0.450226 0.855744 0.814635 -0.06587 0.576221 0.193199 -0.447568 0.87313 0.84927 -0.522163 0.078018 0.245328 0.088282 0.965412 -0.14828 -0.002827 -0.988941 -0.905741 -0.118875 0.406819 0.019535 -0.197003 -0.980208 0.697557 -0.624647 -0.351041 0.619821 -0.077599 -0.780898 0.820896 -0.568191 0.057345 -0.840575 -0.51877 -0.155926 -0.245652 -0.404349 0.880998 -0.019665 -0.473398 0.880629 -0.849594 -0.382068 0.363612 0.590748 0.112194 0.799018 -0.500024 -0.110652 -0.858913 0.995282 -0.097016 -0.000957 -0.228863 -0.873291 -0.430098 -0.507182 -0.119273 0.853546 0.768074 -0.122483 -0.628538 -0.917256 -0.032266 -0.39699 0.68245 -0.128755 0.719503 0.476532 -0.188831 0.858638 -0.646803 -0.501911 0.574223 -0.452096 -0.847188 0.279072 -0.060831 -0.747692 0.661253 -0.817986 -0.49508 0.292906 -0.786132 -0.465558 0.406512 0 -0.515001 0.857189 -0.83424 -0.478924 0.27327 -0.843881 -0.511479 -0.162031 -0.547996 -0.789627 -0.276025 -0.778955 -0.549519 -0.30209 -0.559718 -0.518399 -0.646512 -0.333857 -0.808869 -0.484015 -0.169564 -0.564531 -0.807807 0.13118 -0.845068 -0.518316 0 -0.599912 -0.800066 -0.061657 -0.996613 -0.05441 0.10425 -0.922495 0.371664 0 -0.515001 0.857189 0 -0.515001 0.857189 0 -0.515001 0.857189 0.169564 -0.564531 -0.807807 0.559718 -0.518399 -0.646512 0.584021 -0.71075 -0.392114 0.723585 -0.543575 -0.425382 0.843881 -0.511479 -0.162032 0.793234 -0.578958 0.188648 0.83424 -0.478924 0.27327 0.786132 -0.465558 0.406512 0.687254 -0.494603 0.532025 0.476353 -0.746543 0.464501 0 -0.515001 0.857189 0.51703 -0.855675 0.022366 0 -0.515001 0.857189 0 -0.515001 0.857189 0.46926 0.806773 -0.359044 0.701485 0.667438 0.249891 0.947124 0.302666 -0.106537 0.19619 0.937151 0.288545 -0.054834 0.9801 -0.190778 0.106427 0.876631 -0.469245 0.450117 0.70951 -0.542209 0.619209 0.555781 -0.554696 0.729872 0.456638 -0.508692 0.876399 0.342017 -0.339042 0.829386 -0.468677 -0.304074 0.885505 0.240781 0.397373 0.160231 0.945031 0.285032 0.205022 0.669146 0.714289 0.443148 0.511579 0.736143 0.164519 0.241003 0.956478 0.617237 0.084206 0.782258 0.824134 0.202508 0.528956 0.578113 -0.427775 0.694834 -0.215786 0.932521 0.289553 -0.494606 0.743616 -0.449889 -0.767715 0.635192 0.084521 -0.141035 0.969999 -0.198018 -0.289571 0.855578 -0.429109 -0.506642 0.605102 -0.614138 -0.513868 0.127003 -0.848416 -0.894426 0.342816 -0.287192 -0.060599 0.972851 0.223357 0.443727 0.737196 0.509557 -0.204737 0.568597 0.796731 -0.500882 0.47582 0.722989 0.058332 0.026662 0.997941 -0.432828 0.155462 0.887971 -0.642164 -0.228723 0.73165 -0.942995 0.1919 0.27191 -0.917174 -0.350613 -0.189376 -0.938715 0.075689 0.336282 0.109987 -0.268686 -0.956928 0.693552 -0.026541 0.719917 0.969167 -0.245531 0.020725 0.273922 -0.380141 0.883436 0.114294 -0.936934 -0.33029 -0.773482 -0.339373 0.535305 0.008968 -0.012446 0.999882 -0.287163 -0.423782 0.859038 -0.399658 -0.711162 -0.578378 0.761144 -0.10757 0.6396 -0.039892 0.641839 0.765801 0.032132 0.441107 0.896879 0.381038 0.533884 0.754836 -0.255159 0.436815 0.862605 -0.407637 0.56436 0.717865 -0.431995 0.63657 0.638873 0.407848 0.672247 0.617854 0.384315 0.457365 0.801947 0.310602 -0.704222 -0.638434 -0.485699 -0.738198 0.468146 -0.812415 -0.332715 -0.478835 0.000646 -0.07045 -0.997515 0.857326 -0.511327 0.059476 0.045645 -0.583897 0.810544 0.323617 -0.490989 0.808827 -0.266887 -0.41686 -0.868907 0.400877 -0.717142 -0.570093</float_array>
					<technique_common>
						<accessor source="#mesh_0_PressShadowMaterial_PressShadow_normal_array_id" count="289" stride="3">
							<param name="X" type="float" />
							<param name="Y" type="float" />
							<param name="Z" type="float" />
						</accessor>
					</technique_common>
				</source>
				<source id="mesh_0_PressShadowMaterial_PressShadow_color_id" name="mesh_0_PressShadowMaterial_PressShadow_color">
					<float_array id="mesh_0_PressShadowMaterial_PressShadow_color_array_id" count="1156">1 1 1 1 1 1 1 1 1 1 1 1 1 1 1 1 1 1 1 1 1 1 1 1 1 1 1 1 1 1 1 1 1 1 1 1 1 1 1 1 1 1 1 1 1 1 1 1 1 1 1 1 1 1 1 1 1 1 1 1 1 1 1 1 1 1 1 1 1 1 1 1 1 1 1 1 1 1 1 1 1 1 1 1 1 1 1 1 1 1 1 1 1 1 1 1 1 1 1 1 1 1 1 1 1 1 1 1 1 1 1 1 1 1 1 1 1 1 1 1 1 1 1 1 1 1 1 1 1 1 1 1 1 1 1 1 1 1 1 1 1 1 1 1 1 1 1 1 1 1 1 1 1 1 1 1 1 1 1 1 1 1 1 1 1 1 1 1 1 1 1 1 1 1 1 1 1 1 1 1 1 1 1 1 1 1 1 1 1 1 1 1 1 1 1 1 1 1 1 1 1 1 1 1 1 1 1 1 1 1 1 1 1 1 1 1 1 1 1 1 1 1 1 1 1 1 1 1 1 1 1 1 1 1 1 1 1 1 1 1 1 1 1 1 1 1 1 1 1 1 1 1 1 1 1 1 1 1 1 1 1 1 1 1 1 1 1 1 1 1 1 1 1 1 1 1 1 1 1 1 1 1 1 1 1 1 1 1 1 1 1 1 1 1 1 1 1 1 1 1 1 1 1 1 1 1 1 1 1 1 1 1 1 1 1 1 1 1 1 1 1 1 1 1 1 1 1 1 1 1 1 1 1 1 1 1 1 1 1 1 1 1 1 1 1 1 1 1 1 1 1 1 1 1 1 1 1 1 1 1 1 1 1 1 1 1 1 1 1 1 1 1 1 1 1 1 1 1 1 1 1 1 1 1 1 1 1 1 1 1 1 1 1 1 1 1 1 1 1 1 1 1 1 1 1 1 1 1 1 1 1 1 1 1 1 1 1 1 1 1 1 1 1 1 1 1 1 1 1 1 1 1 1 1 1 1 1 1 1 1 1 1 1 1 1 1 1 1 1 1 1 1 1 1 1 1 1 1 1 1 1 1 1 1 1 1 1 1 1 1 1 1 1 1 1 1 1 1 1 1 1 1 1 1 1 1 1 1 1 1 1 1 1 1 1 1 1 1 1 1 1 1 1 1 1 1 1 0.047058824 1 1 1 0.047058824 1 1 1 0.047058824 1 1 1 0.047058824 1 1 1 0.047058824 1 1 1 0.047058824 1 1 1 0.047058824 1 1 1 0.047058824 1 1 1 0.047058824 1 1 1 0.047058824 1 1 1 0.047058824 1 1 1 0.047058824 1 1 1 0.047058824 1 1 1 0.047058824 1 1 1 0.047058824 1 1 1 0.047058824 1 1 1 0.047058824 1 1 1 0.047058824 1 1 1 0.047058824 1 1 1 0.047058824 1 1 1 0.047058824 1 1 1 0.047058824 1 1 1 0.047058824 1 1 1 0.047058824 1 1 1 0.4 1 1 1 0.4 1 1 1 0.4 1 1 1 0.4 1 1 1 0.4 1 1 1 0.4 1 1 1 0.4 1 1 1 0.4 1 1 1 0.4 1 1 1 0.4 1 1 1 0.4 1 1 1 0.4 1 1 1 0.4 1 1 1 0.4 1 1 1 0.4 1 1 1 0.4 1 1 1 0.4 1 1 1 0.4 1 1 1 0.4 1 1 1 0.4 1 1 1 0.6 1 1 1 0.6 1 1 1 0.6 1 1 1 0.6 1 1 1 0.6 1 1 1 0.6 1 1 1 0.6 1 1 1 0.6 1 1 1 0.6 1 1 1 0.6 1 1 1 0.6 1 1 1 0.4 1 1 1 0.4 1 1 1 0.4 1 1 1 0.4 1 1 1 0.4 1 1 1 0.4 1 1 1 0.4 1 1 1 0.4 1 1 1 0.4 1 1 1 0.4 1 1 1 0.047058824 1 1 1 0.047058824 1 1 1 0.047058824 1 1 1 0.047058824 1 1 1 0.047058824 1 1 1 0.047058824 1 1 1 0.047058824 1 1 1 0.047058824 1 1 1 0.047058824 1 1 1 0.047058824 1 1 1 0.047058824 1 1 1 0.047058824 1 1 1 0.047058824 1 1 1 0.047058824 1 1 1 0.047058824 1 1 1 0.047058824 1 1 1 0.047058824 1 1 1 0.047058824 1 1 1 0.047058824 1 1 1 0.047058824 1 1 1 0.047058824 1 1 1 0.047058824 1 1 1 0.047058824 1 1 1 0.047058824 1 1 1 0.047058824 1 1 1 0.047058824 1 1 1 0.047058824 1 1 1 0.047058824 1 1 1 0.047058824 1 1 1 0.047058824 1 1 1 0.047058824 1 1 1 0.047058824 1 1 1 0.047058824 1 1 1 0.047058824 1 1 1 0.047058824 1 1 1 0.047058824 1 1 1 0.047058824 1 1 1 0.047058824 1 1 1 0.047058824 1 1 1 0.047058824 1 1 1 0.047058824 1 1 1 0.047058824 1 1 1 0.047058824 1 1 1 0.047058824 1 1 1 0.047058824 1 1 1 0.047058824 1 1 1 0.047058824 1 1 1 0.047058824 1 1 1 0.047058824 1 1 1 0.047058824 1 1 1 0.047058824 1 1 1 0.047058824 1 1 1 0.047058824 1 1 1 0.047058824 1 1 1 0.047058824 1 1 1 0.047058824 1 1 1 0.047058824 1 1 1 0.047058824 1 1 1 0.047058824 1 1 1 0.047058824 1 1 1 0.047058824 1 1 1 0.047058824 1 1 1 0.047058824 1 1 1 0.047058824 1 1 1 0.047058824 1 1 1 0.047058824 1 1 1 0.047058824 1 1 1 0.047058824 1 1 1 0.047058824 1 1 1 0.047058824 1 1 1 0.047058824 1 1 1 0.047058824 1 1 1 0.047058824 1 1 1 0.047058824 1 1 1 0.047058824 1 1 1 0.047058824 1 1 1 0.047058824 1 1 1 0.047058824 1 1 1 0.047058824 1 1 1 0.047058824 1 1 1 0.047058824 1 1 1 0.047058824 1 1 1 0.047058824 1 1 1 0.047058824 1 1 1 0.047058824 1 1 1 0.047058824 1 1 1 0.047058824 1 1 1 0.047058824 1 1 1 0.047058824 1 1 1 0.047058824 1 1 1 0.047058824 1 1 1 0.047058824 1 1 1 0.047058824 1 1 1 0.047058824 1 1 1 0.047058824 1 1 1 0.047058824 1 1 1 0.047058824 1 1 1 0.047058824</float_array>
					<technique_common>
						<accessor source="#mesh_0_PressShadowMaterial_PressShadow_color_array_id" count="289" stride="4">
							<param name="R" type="float" />
							<param name="G" type="float" />
							<param name="B" type="float" />
							<param name="A" type="float" />
						</accessor>
					</technique_common>
				</source>
				<vertices id="mesh_0_PressShadowMaterial_PressShadow_vertices_id">
					<input semantic="POSITION" source="#mesh_0_PressShadowMaterial_PressShadow_position_id" />
				</vertices>
				<triangles material="PressShadowMaterial_PressShadow" count="388">
					<input semantic="VERTEX" source="#mesh_0_PressShadowMaterial_PressShadow_vertices_id" offset="0" />
					<input semantic="NORMAL" source="#mesh_0_PressShadowMaterial_PressShadow_normal_id" offset="0" />
					<input semantic="COLOR" source="#mesh_0_PressShadowMaterial_PressShadow_color_id" offset="0" />
					<p>0 1 2 1 3 2 4 3 1 1 5 4 2 3 6 7 2 6 8 2 7 0 9 1 5 1 10 0 2 11 11 12 0 13 11 2 13 2 8 11 13 14 13 15 14 15 16 14 17 14 16 1 9 18 10 1 18 18 9 19 14 17 20 14 20 21 20 17 22 20 22 23 23 22 24 22 25 24 26 25 22 24 25 27 28 27 25 25 26 28 12 11 29 11 14 29 29 14 30 31 12 29 31 29 32 5 33 4 27 28 34 27 34 35 36 35 12 31 36 12 34 28 37 37 38 34 36 31 39 36 39 35 35 39 27 40 39 31 35 34 41 42 41 34 38 42 34 41 42 43 43 42 44 44 42 45 44 45 46 47 46 45 48 44 46 49 35 41 50 49 41 50 41 43 50 43 44 50 44 51 50 51 49 35 49 52 27 39 53 54 38 37 54 55 38 56 38 55 42 38 56 56 45 42 45 56 57 55 57 56 57 58 45 47 45 58 58 57 59 49 60 52 51 60 49 61 60 51 44 61 51 48 61 44 62 61 48 61 62 60 63 62 48 54 64 55 64 57 55 64 59 57 64 54 65 66 59 64 67 54 37 54 67 68 69 67 70 69 71 67 71 68 67 71 69 72 72 73 71 72 74 73 75 74 72 76 74 75 77 76 75 75 72 78 78 79 75 79 80 75 77 75 80 80 79 81 80 81 82 80 82 83 80 83 84 85 84 83 86 84 85 86 87 84 88 87 86 86 85 89 85 90 89 89 91 86 92 91 89 93 91 92 93 94 91 86 91 95 95 96 86 88 86 96 94 97 91 98 95 91 97 98 91 99 95 98 100 87 88 101 100 88 102 87 100 100 101 102 102 103 87 104 84 87 105 104 87 84 104 106 106 80 84 107 94 93 88 108 101 88 109 108 101 108 110 111 101 110 111 102 101 108 112 110 108 113 112 114 113 108 108 109 114 114 115 113 109 115 114 116 113 115 115 109 117 109 88 117 96 117 88 118 115 117 95 118 96 96 118 117 118 95 99 119 115 118 119 120 115 115 120 116 121 111 110 122 111 121 112 113 123 123 110 112 123 113 124 116 124 113 120 125 116 126 127 128 128 127 129 130 126 128 128 131 130 132 128 129 133 132 129 134 127 126 134 135 127 135 134 126 127 136 129 129 136 137 127 138 136 138 127 135 133 129 139 137 139 129 140 131 128 131 140 141 141 140 142 140 128 142 142 128 132 142 143 141 143 142 144 142 132 144 132 133 145 139 145 133 139 137 145 137 136 145 144 146 143 143 146 141 131 141 147 126 130 147 147 130 131 141 146 147 126 147 148 147 146 148 146 144 148 148 144 132 145 126 148 132 145 148 145 136 149 138 149 136 135 149 138 145 149 126 135 126 149 150 151 152 151 150 153 150 154 153 155 150 152 155 156 150 150 156 154 153 157 151 151 157 158 151 158 159 151 159 160 160 161 151 161 152 151 161 160 162 163 161 162 161 163 164 152 161 164 165 152 164 166 153 154 166 154 156 156 155 166 167 159 158 159 167 160 168 152 165 152 168 155 168 166 155 167 158 168 168 153 166 157 153 168 158 157 168 165 167 168 164 163 169 167 169 160 162 169 163 169 162 160 169 167 165 165 164 169 170 171 172 173 172 171 170 173 171 174 172 173 174 170 172 174 175 170 172 171 176 171 177 176 178 176 177 172 178 171 178 172 176 177 171 179 179 178 177 171 178 179 180 173 170 175 180 170 181 182 183 181 183 182 184 183 182 185 183 184 185 184 186 185 186 183 186 184 182 186 182 183 187 182 181 187 181 188 187 189 182 182 189 181 189 187 190 181 189 190 181 190 188 191 192 193 194 192 191 194 191 195 195 191 196 194 195 197 198 194 197 199 194 198 199 192 194 200 199 198 199 200 201 201 202 199 203 202 201 203 204 202 204 203 205 192 199 206 202 206 199 204 206 202 192 206 207 207 193 192 193 208 191 193 209 208 191 208 210 196 191 210 205 211 204 212 204 211 213 204 212 213 212 214 213 214 215 213 215 216 216 215 217 217 218 216 216 218 219 220 216 219 193 207 220 219 218 221 222 204 213 207 206 222 220 207 222 204 222 206 216 222 213 220 222 216 223 209 193 220 223 193 220 219 223 224 223 219 219 221 224 225 226 227 226 225 228 228 225 229 229 225 230 230 225 231 231 225 232 232 225 233 233 225 227 232 233 234 234 233 227 227 235 234 236 235 227 237 228 229 238 228 237 238 239 228 228 239 226 240 239 238 241 239 240 242 239 241 227 242 236 226 242 227 239 242 226 243 242 241 236 242 243 244 245 246 247 245 244 248 245 247 249 245 248 249 250 245 250 251 245 251 246 245 252 247 244 244 253 252 254 253 244 255 254 244 246 255 244 256 254 255 256 255 257 257 255 258 258 255 259 259 255 246 251 259 246 260 259 251 259 260 261 258 259 261 262 263 264 265 264 263 266 264 265 266 262 264 267 266 265 267 262 266 267 265 268 263 268 265 268 263 269 269 262 267 268 269 267 262 269 270 262 271 263 271 269 263 272 273 274 273 272 275 272 276 275 277 276 272 274 278 272 273 279 274 280 281 282 282 283 280 284 281 280 285 281 284 286 287 288</p>
				</triangles>
			</mesh>
		</geometry>
		<geometry id="mesh_1_PressShadowMaterial_PressShadow_id" name="mesh_1_PressShadowMaterial_PressShadow">
			<mesh>
				<source id="mesh_1_PressShadowMaterial_PressShadow_position_id" name="mesh_1_PressShadowMaterial_PressShadow_position">
					<float_array id="mesh_1_PressShadowMaterial_PressShadow_position_array_id" count="138">-21.686123 51.390152 11.729557 -25.192753 62.58036 13.211257 -22.088165 89.45841 11.81336 -23.176334 79.63031 14.460213 -21.591696 27.698826 15.910693 -26.323465 19.54397 14.240488 -20.869846 18.854683 13.085275 -24.8966 25.291172 10.221022 -18.533012 96.26184 13.899633 -20.139431 96.08172 8.506729 -25.065445 102.44305 14.27799 11.819313 61.80107 -16.021053 10.9793 93.032745 -15.25937 9.422811 101.42866 -21.09138 14.567994 98.47754 -13.761093 8.85735 96.360504 -14.200508 9.585228 30.481064 -19.462442 9.89608 26.505371 -14.415432 14.520864 31.200592 -16.786358 12.724419 28.906462 -19.755363 -18.026943 11.522293 24.050442 -16.050886 63.737137 27.211224 -13.301067 78.77023 23.957542 -15.734249 10.280398 28.324696 -13.916548 16.221685 20.611824 -11.819556 54.912643 23.806099 -10.250288 9.920036 22.01489 -9.027961 10.896996 27.047585 -12.423103 54.840652 27.892082 -12.760729 8.384529 30.407585 -16.749363 100.07523 25.036453 -12.423103 54.840652 27.892082 -13.301067 78.77023 23.957542 -9.201848 96.56545 26.338732 -11.819556 54.912643 23.806099 -10.938058 96.764206 21.571 -16.749363 100.07523 25.036453 -9.201848 96.56545 26.338732 -15.082241 102.17322 29.92496 -16.050886 63.737137 27.211224 -16.050886 63.737137 27.211224 24.852777 58.132145 1.66851 22.250942 23.533672 1.343596 26.070297 25.21474 3.687555 24.008057 29.689861 -2.235118 28.253593 23.12556 -0.799532</float_array>
					<technique_common>
						<accessor source="#mesh_1_PressShadowMaterial_PressShadow_position_array_id" count="46" stride="3">
							<param name="X" type="float" />
							<param name="Y" type="float" />
							<param name="Z" type="float" />
						</accessor>
					</technique_common>
				</source>
				<source id="mesh_1_PressShadowMaterial_PressShadow_normal_id" name="mesh_1_PressShadowMaterial_PressShadow_normal">
					<float_array id="mesh_1_PressShadowMaterial_PressShadow_normal_array_id" count="138">0.821587 0.036991 -0.568882 -0.9939 0.038233 -0.103449 0.280563 -0.225157 -0.933053 0.548252 -0.060135 0.834148 0.365805 -0.056484 0.928976 -0.801065 -0.429379 0.417047 0.835048 -0.450969 -0.315155 -0.259216 -0.143065 -0.955165 0.939287 -0.329015 0.097413 0.095514 -0.466982 -0.879093 -0.957278 -0.030702 0.287534 -0.633547 -0.004822 0.77369 -0.744694 -0.267215 0.611577 -0.266887 -0.41686 -0.868907 0.323617 -0.490989 0.808827 -0.659935 -0.57477 0.483865 -0.898174 -0.256524 -0.357042 -0.161618 -0.914481 0.370951 0.925577 -0.229918 0.300741 0.397801 -0.527223 -0.750859 -0.812415 -0.332715 -0.478835 -0.93124 -0.007527 0.364328 0.110607 -0.031411 -0.993368 -0.485699 -0.738198 0.468146 0.000646 -0.07045 -0.997515 0.916923 0.062531 -0.394136 0.310602 -0.704222 -0.638434 0.857326 -0.511327 0.059476 0.582834 0.018278 0.812386 0.045645 -0.583897 0.810544 -0.845598 -0.04079 -0.532259 0.582834 0.018278 0.812386 0.110607 -0.031411 -0.993368 0.990795 -0.116645 -0.068704 0.916923 0.062531 -0.394136 0.310277 -0.164919 -0.936232 -0.845598 -0.04079 -0.532259 0.990795 -0.116645 -0.068704 -0.333776 -0.029008 0.942206 -0.93124 -0.007527 0.364328 -0.93124 -0.007527 0.364328 -0.245328 0.088282 0.965412 -0.820896 -0.568191 0.057345 0.245652 -0.404349 0.880998 -0.61982 -0.077599 -0.780897 0.840575 -0.518769 -0.155926</float_array>
					<technique_common>
						<accessor source="#mesh_1_PressShadowMaterial_PressShadow_normal_array_id" count="46" stride="3">
							<param name="X" type="float" />
							<param name="Y" type="float" />
							<param name="Z" type="float" />
						</accessor>
					</technique_common>
				</source>
				<source id="mesh_1_PressShadowMaterial_PressShadow_color_id" name="mesh_1_PressShadowMaterial_PressShadow_color">
					<float_array id="mesh_1_PressShadowMaterial_PressShadow_color_array_id" count="184">1 1 1 0.69803923 1 1 1 0.69803923 1 1 1 0.69803923 1 1 1 0.69803923 1 1 1 0.69803923 1 1 1 0.69803923 1 1 1 0.69803923 1 1 1 0.69803923 1 1 1 0.69803923 1 1 1 0.69803923 1 1 1 0.69803923 1 1 1 0.047058824 1 1 1 0.047058824 1 1 1 0.047058824 1 1 1 0.047058824 1 1 1 0.047058824 1 1 1 0.047058824 1 1 1 0.047058824 1 1 1 0.047058824 1 1 1 0.047058824 1 1 1 0.047058824 1 1 1 0.047058824 1 1 1 0.047058824 1 1 1 0.047058824 1 1 1 0.047058824 1 1 1 0.047058824 1 1 1 0.047058824 1 1 1 0.047058824 1 1 1 0.047058824 1 1 1 0.047058824 1 1 1 0.15686275 1 1 1 0.15686275 1 1 1 0.6 1 1 1 0.6 1 1 1 0.15686275 1 1 1 0.6 1 1 1 0.6 1 1 1 0.3764706 1 1 1 0.6 1 1 1 0.3764706 1 1 1 0.6 1 1 1 0.6 1 1 1 0.6 1 1 1 0.6 1 1 1 0.6 1 1 1 0.6</float_array>
					<technique_common>
						<accessor source="#mesh_1_PressShadowMaterial_PressShadow_color_array_id" count="46" stride="4">
							<param name="R" type="float" />
							<param name="G" type="float" />
							<param name="B" type="float" />
							<param name="A" type="float" />
						</accessor>
					</technique_common>
				</source>
				<vertices id="mesh_1_PressShadowMaterial_PressShadow_vertices_id">
					<input semantic="POSITION" source="#mesh_1_PressShadowMaterial_PressShadow_position_id" />
				</vertices>
				<triangles material="PressShadowMaterial_PressShadow" count="53">
					<input semantic="VERTEX" source="#mesh_1_PressShadowMaterial_PressShadow_vertices_id" offset="0" />
					<input semantic="NORMAL" source="#mesh_1_PressShadowMaterial_PressShadow_normal_id" offset="0" />
					<input semantic="COLOR" source="#mesh_1_PressShadowMaterial_PressShadow_color_id" offset="0" />
					<p>0 1 2 0 2 3 3 1 4 0 3 4 5 4 1 6 4 5 0 4 6 7 0 6 1 7 5 7 6 5 1 0 7 8 3 2 2 9 8 9 2 10 10 3 8 10 1 3 2 1 10 11 12 13 12 11 14 12 15 13 12 14 15 13 16 11 17 11 16 18 11 17 14 18 13 14 11 18 16 19 17 17 19 18 13 19 16 13 18 19 20 21 22 23 21 20 22 24 20 22 25 24 26 24 25 27 26 25 27 25 28 21 23 28 27 28 29 29 28 23 22 21 30 31 32 33 34 32 31 32 35 33 36 35 32 31 37 38 31 38 39 38 36 40 41 42 43 44 42 41 45 42 44 42 45 43 43 45 41</p>
				</triangles>
			</mesh>
		</geometry>
		<geometry id="mesh_2_PressShadowMaterial_PressShadow_id" name="mesh_2_PressShadowMaterial_PressShadow">
			<mesh>
				<source id="mesh_2_PressShadowMaterial_PressShadow_position_id" name="mesh_2_PressShadowMaterial_PressShadow_position">
					<float_array id="mesh_2_PressShadowMaterial_PressShadow_position_array_id" count="141">20.808464 57.597515 -9.677774 23.72517 59.14283 -9.93242 21.179853 28.812416 -12.72345 19.722298 24.38403 -8.837257 24.867125 26.726055 -10.639044 22.85464 28.81242 -6.186745 18.734821 100.16602 -11.580027 23.776745 105.17799 -11.580721 21.829666 100.3004 -5.773698 20.55989 89.24579 -8.689316 17.27253 99.010994 -6.695833 25.855904 65.75058 -0.348779 24.852777 58.132145 1.66851 23.988918 93.36383 1.727231 28.366062 105.951515 1.278323 27.166075 104.40392 -2.505473 20.369331 98.48554 -0.193884 24.008057 29.689861 -2.235118 28.253593 23.12556 -0.799532 23.612148 100.155624 5.38671 10.250288 9.920036 22.01489 15.734249 10.280398 28.324696 9.027961 10.896996 27.047585 11.819556 54.912643 23.806099 13.916548 16.221685 20.611824 18.026943 11.522293 24.050442 15.33662 63.76274 25.600103 12.423103 54.840652 27.892082 12.760729 8.384529 30.407585 16.749363 100.07523 25.036453 11.819556 54.912643 23.806099 11.819556 54.912643 23.806099 12.423103 54.840652 27.892082 11.918871 93.75098 23.96556 16.749363 100.07523 25.036453 7.846087 95.37507 24.337786 10.938058 96.764206 21.571 16.749363 100.07523 25.036453 7.846087 95.37507 24.337786 15.130798 102.21808 29.946053 15.33662 63.76274 25.600103 15.33662 63.76274 25.600103 24.8966 25.291172 10.221022 24.09869 17.106659 13.074902 19.973068 25.048536 13.694834 23.56627 22.832605 16.261765 21.686123 51.390152 11.729557</float_array>
					<technique_common>
						<accessor source="#mesh_2_PressShadowMaterial_PressShadow_position_array_id" count="47" stride="3">
							<param name="X" type="float" />
							<param name="Y" type="float" />
							<param name="Z" type="float" />
						</accessor>
					</technique_common>
				</source>
				<source id="mesh_2_PressShadowMaterial_PressShadow_normal_id" name="mesh_2_PressShadowMaterial_PressShadow_normal">
					<float_array id="mesh_2_PressShadowMaterial_PressShadow_normal_array_id" count="141">-0.930903 0.028051 0.364188 0.900305 0.045125 -0.432914 -0.177443 -0.167938 -0.969696 -0.640579 -0.75837 0.120555 0.805742 -0.526735 -0.270797 0.268444 -0.174057 0.94744 -0.69476 -0.131731 -0.707075 0.824427 -0.021174 -0.565572 0.025221 -0.124326 0.991921 -0.860895 -0.160378 0.482845 -0.795 -0.366332 0.483503 0.266894 -0.006759 -0.963702 -0.245328 0.088282 0.965412 -0.844018 -0.535763 0.02431 0.878676 -0.11602 0.463106 0.084649 -0.218595 -0.972137 -0.698197 -0.624632 -0.349794 -0.61982 -0.077599 -0.780897 0.840575 -0.518769 -0.155926 0.019665 -0.473398 0.880629 -0.310602 -0.704222 -0.638434 0.575954 -0.702423 0.418186 -0.857326 -0.511327 0.059476 -0.547458 0.053406 -0.835128 0.226425 -0.048266 -0.972832 0.761478 -0.451802 -0.464786 0.998544 0.020142 -0.050034 -0.436307 0.01004 0.899742 -0.045645 -0.583897 0.810543 0.715124 -0.129678 -0.686863 -0.547458 0.053406 -0.835128 -0.547458 0.053406 -0.835128 -0.436307 0.01004 0.899742 -0.177283 -0.319918 -0.930711 0.715124 -0.129678 -0.686863 -0.676222 -0.478078 -0.560504 0.170901 -0.578304 -0.79772 0.715124 -0.129678 -0.686863 -0.676222 -0.478078 -0.560504 0.516304 -0.049126 0.854995 0.998544 0.020142 -0.050034 0.998544 0.020142 -0.050034 -0.152283 -0.089891 -0.984241 0.785766 -0.326923 0.525065 -0.976768 -0.169327 -0.131349 -0.161995 -0.215419 0.962991 -0.607672 0.034817 -0.793424</float_array>
					<technique_common>
						<accessor source="#mesh_2_PressShadowMaterial_PressShadow_normal_array_id" count="47" stride="3">
							<param name="X" type="float" />
							<param name="Y" type="float" />
							<param name="Z" type="float" />
						</accessor>
					</technique_common>
				</source>
				<source id="mesh_2_PressShadowMaterial_PressShadow_color_id" name="mesh_2_PressShadowMaterial_PressShadow_color">
					<float_array id="mesh_2_PressShadowMaterial_PressShadow_color_array_id" count="188">1 1 1 0.4 1 1 1 0.4 1 1 1 0.4 1 1 1 0.4 1 1 1 0.4 1 1 1 0.4 1 1 1 0.4 1 1 1 0.4 1 1 1 0.4 1 1 1 0.4 1 1 1 0.4 1 1 1 0.6 1 1 1 0.6 1 1 1 0.6 1 1 1 0.6 1 1 1 0.6 1 1 1 0.6 1 1 1 0.6 1 1 1 0.6 1 1 1 0.6 1 1 1 0.047058824 1 1 1 0.047058824 1 1 1 0.047058824 1 1 1 0.047058824 1 1 1 0.047058824 1 1 1 0.047058824 1 1 1 0.047058824 1 1 1 0.047058824 1 1 1 0.047058824 1 1 1 0.15686275 1 1 1 0.101960786 1 1 1 0.15686275 1 1 1 0.15686275 1 1 1 0.6 1 1 1 0.3764706 1 1 1 0.6 1 1 1 0.6 1 1 1 0.6 1 1 1 0.3764706 1 1 1 0.6 1 1 1 0.3764706 1 1 1 0.6 1 1 1 0.69803923 1 1 1 0.69803923 1 1 1 0.69803923 1 1 1 0.69803923 1 1 1 0.69803923</float_array>
					<technique_common>
						<accessor source="#mesh_2_PressShadowMaterial_PressShadow_color_array_id" count="47" stride="4">
							<param name="R" type="float" />
							<param name="G" type="float" />
							<param name="B" type="float" />
							<param name="A" type="float" />
						</accessor>
					</technique_common>
				</source>
				<vertices id="mesh_2_PressShadowMaterial_PressShadow_vertices_id">
					<input semantic="POSITION" source="#mesh_2_PressShadowMaterial_PressShadow_position_id" />
				</vertices>
				<triangles material="PressShadowMaterial_PressShadow" count="52">
					<input semantic="VERTEX" source="#mesh_2_PressShadowMaterial_PressShadow_vertices_id" offset="0" />
					<input semantic="NORMAL" source="#mesh_2_PressShadowMaterial_PressShadow_normal_id" offset="0" />
					<input semantic="COLOR" source="#mesh_2_PressShadowMaterial_PressShadow_color_id" offset="0" />
					<p>0 1 2 2 3 0 4 3 2 2 1 4 3 4 5 3 5 0 5 4 1 1 0 5 6 1 0 7 1 6 8 0 1 7 8 1 0 9 6 9 0 8 9 8 10 6 9 10 11 12 13 11 14 12 14 13 12 15 14 11 11 13 15 15 13 16 11 17 12 12 18 11 11 18 17 14 19 13 13 19 16 20 21 22 20 22 23 20 23 24 20 24 25 25 21 20 25 26 21 24 26 25 23 26 24 27 23 22 26 27 21 22 28 27 28 21 27 22 21 28 29 26 30 31 32 33 33 34 31 33 32 35 33 35 36 37 33 36 38 32 39 40 39 32 39 41 37 42 43 44 43 45 44 42 44 46</p>
				</triangles>
			</mesh>
		</geometry>
		<geometry id="mesh_3_PressShadowMaterial_PressShadow_id" name="mesh_3_PressShadowMaterial_PressShadow">
			<mesh>
				<source id="mesh_3_PressShadowMaterial_PressShadow_position_id" name="mesh_3_PressShadowMaterial_PressShadow_position">
					<float_array id="mesh_3_PressShadowMaterial_PressShadow_position_array_id" count="33">24.249023 70.39513 11.880451 22.314114 76.50954 13.556604 24.09869 17.106659 13.074902 23.56627 22.832605 16.261765 24.8966 25.291172 10.221022 23.71991 101.47852 16.068329 26.41098 103.40757 12.487652 21.686123 51.390152 11.729557 19.973068 25.048536 13.694834 20.139433 96.08172 8.506729 17.549847 100.384834 11.687282</float_array>
					<technique_common>
						<accessor source="#mesh_3_PressShadowMaterial_PressShadow_position_array_id" count="11" stride="3">
							<param name="X" type="float" />
							<param name="Y" type="float" />
							<param name="Z" type="float" />
						</accessor>
					</technique_common>
				</source>
				<source id="mesh_3_PressShadowMaterial_PressShadow_normal_id" name="mesh_3_PressShadowMaterial_PressShadow_normal">
					<float_array id="mesh_3_PressShadowMaterial_PressShadow_normal_array_id" count="33">0.949645 -0.138794 -0.280911 -0.834264 -0.135735 0.534397 0.785766 -0.326923 0.525065 -0.161995 -0.215419 0.962991 -0.152283 -0.089891 -0.984241 0.27535 -0.09508 0.95663 0.981152 -0.060882 -0.183396 -0.607672 0.034817 -0.793424 -0.976768 -0.169327 -0.131349 -0.595584 -0.203039 -0.77721 -0.952132 -0.17011 0.253985</float_array>
					<technique_common>
						<accessor source="#mesh_3_PressShadowMaterial_PressShadow_normal_array_id" count="11" stride="3">
							<param name="X" type="float" />
							<param name="Y" type="float" />
							<param name="Z" type="float" />
						</accessor>
					</technique_common>
				</source>
				<vertices id="mesh_3_PressShadowMaterial_PressShadow_vertices_id">
					<input semantic="POSITION" source="#mesh_3_PressShadowMaterial_PressShadow_position_id" />
				</vertices>
				<triangles material="PressShadowMaterial_PressShadow" count="13">
					<input semantic="VERTEX" source="#mesh_3_PressShadowMaterial_PressShadow_vertices_id" offset="0" />
					<input semantic="NORMAL" source="#mesh_3_PressShadowMaterial_PressShadow_normal_id" offset="0" />
					<p>0 1 2 3 2 1 4 0 2 1 0 5 5 0 6 7 1 0 0 4 7 1 8 3 1 7 8 6 0 9 9 0 1 10 9 1 10 1 5</p>
				</triangles>
			</mesh>
		</geometry>
	</library_geometries>
	<library_controllers>
		<controller id="mesh_0_PressShadowMaterial_PressShadow_ctrl_id">
			<skin source="#mesh_0_PressShadowMaterial_PressShadow_id">
				<bind_shape_matrix>1 0 0 0 0 1 0 0 0 0 1 0 0 0 0 1</bind_shape_matrix>
				<source id="mesh_0_PressShadowMaterial_PressShadow_ctrl_joint_names_id">
					<Name_array id="mesh_0_PressShadowMaterial_PressShadow_ctrl_joint_names_array_id" count="56">pm0073_00 Origin Waist FeelerA FeelerB LFeelerA1 LFeelerA2 LFeelerA3 LFeelerA4 LFeelerA5 RFeelerA1 RFeelerA2 RFeelerA3 RFeelerA4 RFeelerA5 LFeelerB1 LFeelerB2 LFeelerB3 LFeelerB4 LFeelerB5 RFeelerB1 RFeelerB2 RFeelerB3 RFeelerB4 RFeelerB5 LFeelerC1 LFeelerC2 LFeelerC3 LFeelerC4 LFeelerC5 RFeelerC1 RFeelerC2 RFeelerC3 RFeelerC4 RFeelerC5 LFeelerD1 LFeelerD2 LFeelerD3 LFeelerD4 LFeelerD5 RFeelerD1 RFeelerD2 RFeelerD3 RFeelerD4 RFeelerD5 LFeelerE1 LFeelerE2 LFeelerE3 LFeelerE4 LFeelerE5 RFeelerE1 RFeelerE2 RFeelerE3 RFeelerE4 RFeelerE5 pm0073_00_Skin</Name_array>
					<technique_common>
						<accessor source="#mesh_0_PressShadowMaterial_PressShadow_ctrl_joint_names_array_id" count="56" stride="1">
							<param name="JOINT" type="Name" />
						</accessor>
					</technique_common>
				</source>
				<source id="mesh_0_PressShadowMaterial_PressShadow_ctrl_inv_bind_poses_id">
					<float_array id="mesh_0_PressShadowMaterial_PressShadow_ctrl_inv_bind_poses_array_id" count="896">1 0 0 0 0 1 0 0 0 0 1 0 0 0 0 1 1 0 0 0 0 1 0 0 0 0 1 0 0 0 0 1 0 1 0 -110.4379 -1 3.1391647E-07 0 -3.4668275E-05 0 0 1 -8.834717 0 0 0 1 0 -0.98888457 0.14868562 92.32024 0.99999994 -6.3975784E-07 0 6.674892E-05 0 0.14868563 0.98888445 -48.160286 0 0 0 1 0 -1 0 93.9097 0.99999994 -6.3975784E-07 0 6.5267945E-05 0 -0 1 15.65313 0 -0 0 1 0 -1 0 98 0.79734147 -5.1010545E-07 -0.60352844 4.6056957 0.60352844 -3.8611205E-07 0.79734147 -29.579193 0 -0 0 1 0 -1 0 86 0.79734147 -5.1010545E-07 -0.60352844 4.6056976 0.60352844 -3.8611205E-07 0.79734147 -29.579193 0 -0 0 1 0 -1 0 66 0.79734147 -5.1010545E-07 -0.60352844 4.6056976 0.60352844 -3.8611205E-07 0.79734147 -29.579193 0 -0 0 1 0 -1 0 42 0.79734147 -5.1010545E-07 -0.60352844 4.6056957 0.60352844 -3.8611205E-07 0.79734147 -29.579193 0 -0 0 1 0 -1 0 22 0.79734147 -5.1010545E-07 -0.60352844 4.6056957 0.60352844 -3.8611205E-07 0.79734147 -29.579193 0 -0 0 1 0 -1 0 98 0.79734147 -5.1010545E-07 0.60352844 -4.605629 -0.60352844 3.8611205E-07 0.79734147 -29.57926 0 0 0 1 0 -1 0 86 0.79734147 -5.1010545E-07 0.60352844 -4.605629 -0.60352844 3.8611205E-07 0.79734147 -29.579262 0 0 0 1 0 -1 0 66 0.79734147 -5.1010545E-07 0.60352844 -4.605629 -0.60352844 3.8611205E-07 0.79734147 -29.57926 0 0 0 1 0 -1 0 42 0.79734147 -5.1010545E-07 0.60352844 -4.605629 -0.60352844 3.8611205E-07 0.79734147 -29.57926 0 0 0 1 0 -1 0 22 0.79734147 -5.1010545E-07 0.60352844 -4.605629 -0.60352844 3.8611205E-07 0.79734147 -29.57926 0 0 0 1 0 -1 0 128 0.1797471 2.1434658E-09 -0.9837129 8.53479 0.9837129 1.1730675E-08 0.1797471 -25.443216 0 0 0 1 0 -1 0 128 0.1797471 2.1434658E-09 -0.9837129 8.53479 0.9837129 1.1730675E-08 0.1797471 -25.443216 0 0 0 1 0 -1 0 128 0.1797471 2.1434658E-09 -0.9837129 8.53479 0.9837129 1.1730675E-08 0.1797471 -25.443216 0 0 0 1 0 -1 0 0 0.1797471 2.1434658E-09 -0.9837129 8.534805 0.9837129 1.1730675E-08 0.1797471 -25.443216 0 0 0 1 0 -1 0 32 0.1797471 -9.978567E-07 -0.9837129 8.534851 0.9837129 1.17306875E-08 0.1797471 -25.44322 0 0 0 1 0 -1 0 100 0.1797471 -1.1499469E-07 0.98371285 -8.5347595 -0.9837129 6.2933805E-07 0.17974709 -25.443264 0 0 0 1 0 -1 0 88 0.1797471 -1.1499469E-07 0.98371285 -8.5347595 -0.9837129 6.2933805E-07 0.17974709 -25.443264 0 0 0 1 0 -1 0 68 0.1797471 -1.1499469E-07 0.98371285 -8.5347595 -0.9837129 6.2933805E-07 0.17974709 -25.443262 0 0 0 1 0 -1 0 52 0.1797471 -1.1499469E-07 0.98371285 -8.5347595 -0.9837129 6.2933805E-07 0.17974709 -25.443264 0 0 0 1 0 -1 0 32 0.17974854 -1.1499537E-07 0.9837126 -8.534729 -0.9837127 6.2933793E-07 0.17974807 -25.44327 0 0 0 1 0 -1 -0 104 -0.28110242 -2.2446011E-07 -0.9596778 7.996277 0.9596778 -3.9285337E-07 -0.2811021 -24.356512 0 0 -0 1 0 -1 -0 88 -0.28110242 -2.2446011E-07 -0.9596778 7.996277 0.9596778 -3.9285337E-07 -0.2811021 -24.356514 0 0 -0 1 0 -1 -0 64 -0.28110337 -1.2244612E-06 -0.9596787 7.996292 0.9596775 -3.9285374E-07 -0.2811024 -24.356533 0 0 -0 1 0 -1 -0 56 -0.28110242 -2.2446011E-07 -0.9596778 7.9962845 0.9596778 -3.9285337E-07 -0.2811021 -24.356512 0 0 -0 1 0 -1 -0 34 -0.28110242 -1.2244598E-06 -0.95967776 7.9963226 0.9596779 -1.3928533E-06 -0.2811021 -24.356478 0 0 -0 1 0 -1 -0 100 -0.28110242 1.7983734E-07 0.9596778 -7.996269 -0.9596778 6.1396145E-07 -0.28110248 -24.356607 -0 0 -0 1 0 -1 -0 88 -0.28110242 1.7983734E-07 0.9596778 -7.996269 -0.9596778 6.1396145E-07 -0.28110248 -24.356607 -0 0 -0 1 0 -1 -0 72 -0.28110147 1.7983689E-07 0.959678 -7.996254 -0.9596781 6.139616E-07 -0.2811015 -24.356615 -0 0 -0 1 0 -1 -0 52 -0.28110027 1.798362E-07 0.9596785 -7.9962234 -0.95967835 6.139618E-07 -0.28110057 -24.356623 -0 0 -0 1 0 -1 -0 36 -0.28109837 1.7983507E-07 0.959679 -7.9961777 -0.95967895 6.1396213E-07 -0.28109863 -24.356642 -0 0 -0 1 0 -1 -0 104 -0.64698935 -4.5353147E-08 -0.7624991 6.965166 0.76249903 -4.501769E-07 -0.6469893 -23.327732 0 0 -0 1 0 -1 -0 88 -0.64698935 -4.5353147E-08 -0.7624991 6.9651604 0.76249903 -4.501769E-07 -0.6469893 -23.327738 0 0 -0 1 0 -1 -0 72 -0.64698935 -4.5353147E-08 -0.7624991 6.9651623 0.76249903 -4.501769E-07 -0.6469893 -23.327734 0 0 -0 1 0 -1 -0 56 -0.64698946 -1.0453532E-06 -0.76249903 6.9652176 0.762499 -4.5017686E-07 -0.6469892 -23.327732 0 -0 -0 1 0 -1 -0 40 -0.64698935 -4.5353147E-08 -0.7624991 6.965166 0.76249903 -4.501769E-07 -0.6469893 -23.327732 0 0 -0 1 0 -1 -0 104 -0.64698964 4.1391667E-07 0.7624989 -6.965212 -0.7624989 4.878147E-07 -0.6469896 -23.32784 -0 0 -0 1 0 -1 -0 88 -0.64698964 4.1391667E-07 0.7624989 -6.965214 -0.7624989 4.878147E-07 -0.6469896 -23.327837 -0 0 -0 1 0 -1 -0 72 -0.64698964 4.1391667E-07 0.7624989 -6.965214 -0.7624989 4.878147E-07 -0.6469896 -23.327837 -0 0 -0 1 0 -1 -0 56 -0.6469888 4.139162E-07 0.7624995 -6.965189 -0.7624995 4.8781504E-07 -0.64698875 -23.32784 -0 0 -0 1 0 -1 -0 36 -0.646988 4.1391564E-07 0.7625003 -6.965164 -0.7625003 4.8781556E-07 -0.64698803 -23.327852 -0 0 -0 1 0 -1 -0 100 -0.91332525 1.5401521E-07 -0.4072308 3.716568 0.40723082 -4.2543564E-07 -0.9133253 -20.517532 0 0 -0 1 0 -1 -0 88 -0.91332525 1.5401521E-07 -0.4072308 3.716568 0.40723082 -4.2543564E-07 -0.9133253 -20.517532 0 0 -0 1 0 -1 -0 73.5 -0.91332525 3.1540153E-06 -0.4072308 3.7163181 0.40723082 5.745644E-07 -0.9133253 -20.517618 0 0 -0 1 0 -1 -0 55.5 -0.91332537 2.1540156E-06 -0.40723082 3.7163992 0.40723076 5.745644E-07 -0.9133253 -20.517618 0 0 -0 1 0 -1 -0 37.75 -0.91332525 4.154015E-06 -0.4072308 3.7163286 0.40723082 1.5745644E-06 -0.9133253 -20.517653 0 0 -0 1 0 -1 -0 100 -0.9133251 5.8430686E-07 0.4072314 -3.7166014 -0.40723142 2.605295E-07 -0.91332513 -20.51758 -0 0 -0 1 0 -1 -0 90 -0.9133251 5.8430686E-07 0.4072314 -3.7166023 -0.40723142 2.605295E-07 -0.91332513 -20.51758 -0 0 -0 1 0 -1 -0 74 -0.9133237 5.8430606E-07 0.4072341 -3.7165394 -0.4072341 2.605312E-07 -0.9133238 -20.51759 -0 0 -0 1 0 -1 -0 56 -0.9133227 5.843053E-07 0.40723687 -3.7164392 -0.40723687 2.60533E-07 -0.9133226 -20.517693 -0 0 -0 1 0 -1 -0 38 -0.9133197 5.843035E-07 0.40724322 -3.7162952 -0.40724325 2.6053706E-07 -0.91331977 -20.517717 -0 0 -0 1 1 0 0 0 0 1 0 0 0 0 1 0 0 0 0 1</float_array>
					<technique_common>
						<accessor source="#mesh_0_PressShadowMaterial_PressShadow_ctrl_inv_bind_poses_array_id" count="56" stride="16">
							<param name="TRANSFORM" type="float4x4" />
						</accessor>
					</technique_common>
				</source>
				<source id="mesh_0_PressShadowMaterial_PressShadow_ctrl_weights_id">
					<float_array id="mesh_0_PressShadowMaterial_PressShadow_ctrl_weights_array_id" count="61">1 0.043137256 0.95686275 0.32156864 0.6784314 0.2 0.8 0.09019608 0.9098039 0.101960786 0.8980392 0.29411766 0.7058824 0.0627451 0.9372549 0.03137255 0.8901961 0.078431375 0.019607844 0.023529412 0.12941177 0.84705883 0.6431373 0.35686275 0.011764706 0.14901961 0.8392157 0.050980393 0.9490196 0.08235294 0.91764706 0.87058824 0.06666667 0.1882353 0.96862745 1 0.98039216 0.53333336 0.46666667 0.14117648 0.85882354 0.5803922 0.41960785 0.5058824 0.49411765 0 0.0627451 0.9372549 0.101960786 0.8980392 0.23921569 0.7490196 0.05490196 0.94509804 0.88235295 0.039215688 0.9607843 0.2 0.8 0.023529412 0.9764706</float_array>
					<technique_common>
						<accessor source="#mesh_0_PressShadowMaterial_PressShadow_ctrl_weights_array_id" count="61" stride="1">
							<param name="WEIGHT" type="float" />
						</accessor>
					</technique_common>
				</source>
				<joints>
					<input semantic="JOINT" source="#mesh_0_PressShadowMaterial_PressShadow_ctrl_joint_names_id" />
					<input semantic="INV_BIND_MATRIX" source="#mesh_0_PressShadowMaterial_PressShadow_ctrl_inv_bind_poses_id" />
				</joints>
				<vertex_weights count="289">
					<input semantic="JOINT" source="#mesh_0_PressShadowMaterial_PressShadow_ctrl_joint_names_id" offset="0" />
					<input semantic="WEIGHT" source="#mesh_0_PressShadowMaterial_PressShadow_ctrl_weights_id" offset="1" />
					<vcount>1 1 1 1 1 1 1 1 1 1 1 1 1 1 1 1 1 1 1 1 1 1 1 1 1 1 1 1 1 1 1 1 1 1 1 1 1 1 1 1 1 1 1 1 1 1 1 1 1 1 1 1 1 1 1 1 1 1 1 1 1 1 1 1 1 1 1 1 1 1 1 1 1 1 1 1 1 1 1 1 1 1 1 1 1 1 1 1 1 1 1 1 1 1 1 1 1 1 1 1 1 1 1 1 1 1 1 1 1 1 1 1 1 1 1 1 1 1 1 1 1 1 1 1 1 1 2 2 1 1 1 1 1 1 1 1 1 1 2 1 1 1 1 1 1 1 1 1 1 2 1 1 2 1 1 1 1 1 1 1 1 2 2 1 1 2 1 1 1 2 3 3 3 2 1 1 3 2 2 2 1 2 4 3 2 1 2 2 1 2 2 1 1 1 1 1 1 1 1 3 1 1 1 1 1 1 1 1 1 1 1 1 1 1 1 1 1 1 1 1 1 1 1 1 1 1 1 1 1 1 1 1 1 1 1 1 1 1 1 1 1 1 1 1 1 1 1 1 1 1 1 1 1 1 1 1 1 1 1 1 1 1 1 2 2 3 2 2 3 1 2 1 1 1 1 1 1 1 1 1 2 2 2 2 2 2 1 1 1</vcount>
					<v>2 0 2 0 2 0 2 0 2 0 2 0 2 0 2 0 2 0 2 0 2 0 2 0 2 0 2 0 2 0 2 0 2 0 2 0 2 0 2 0 2 0 2 0 2 0 2 0 2 0 2 0 2 0 2 0 2 0 2 0 2 0 2 0 2 0 2 0 2 0 2 0 2 0 2 0 2 0 2 0 2 0 2 0 2 0 2 0 2 0 2 0 2 0 2 0 2 0 2 0 2 0 2 0 2 0 2 0 2 0 2 0 2 0 2 0 2 0 2 0 2 0 2 0 2 0 2 0 2 0 2 0 2 0 2 0 2 0 2 0 2 0 2 0 2 0 2 0 2 0 2 0 2 0 2 0 2 0 2 0 2 0 2 0 2 0 2 0 2 0 2 0 2 0 2 0 2 0 2 0 2 0 2 0 2 0 2 0 2 0 2 0 2 0 2 0 2 0 2 0 2 0 2 0 2 0 2 0 2 0 2 0 2 0 2 0 2 0 2 0 2 0 2 0 2 0 2 0 2 0 2 0 2 0 2 0 2 0 2 0 2 0 2 0 2 0 2 0 2 0 2 0 2 1 3 2 2 1 3 2 3 0 3 0 3 0 3 0 3 0 3 0 2 0 2 0 3 0 3 0 2 3 3 4 3 0 3 0 3 0 3 0 3 0 3 0 3 0 3 0 3 0 3 0 2 5 3 6 4 0 4 0 2 1 4 2 4 0 4 0 4 0 4 0 4 0 4 0 4 0 4 0 2 7 4 8 2 9 4 10 2 0 2 0 2 11 4 12 4 0 4 0 4 0 2 13 4 14 2 15 30 16 31 17 31 1 32 14 33 18 30 19 31 20 32 21 2 22 30 23 2 0 2 0 32 24 33 25 34 26 33 27 34 28 33 29 34 30 33 29 34 30 2 0 40 27 41 28 40 24 41 27 42 31 43 32 42 24 43 33 44 6 43 15 44 34 44 35 43 18 44 36 2 37 40 38 2 35 40 39 41 40 2 41 40 42 2 35 2 35 2 35 2 35 2 35 2 35 2 35 2 35 2 43 40 44 41 45 2 35 2 35 2 35 2 35 2 35 2 35 2 35 2 35 2 35 2 35 2 35 2 35 2 35 2 35 2 35 2 35 2 35 2 35 2 35 2 35 2 35 2 35 2 35 2 35 2 35 2 35 2 35 2 35 2 35 2 35 2 35 2 35 2 35 2 35 2 35 2 35 2 35 2 35 2 35 2 35 2 35 2 35 2 35 2 35 2 35 2 35 2 35 2 35 2 35 2 35 2 35 2 35 2 35 2 35 2 35 2 35 2 35 2 35 2 35 2 35 2 35 2 35 2 35 50 46 51 47 53 48 54 49 52 24 53 50 54 51 53 52 54 53 53 48 54 49 51 27 52 54 53 32 2 35 2 35 50 45 2 35 2 35 2 35 2 35 2 35 2 35 2 35 2 35 2 35 13 55 14 56 13 27 14 28 13 27 14 28 13 57 14 58 13 27 14 28 13 59 14 60 2 35 2 35 2 35</v>
				</vertex_weights>
			</skin>
		</controller>
		<controller id="mesh_1_PressShadowMaterial_PressShadow_ctrl_id">
			<skin source="#mesh_1_PressShadowMaterial_PressShadow_id">
				<bind_shape_matrix>1 0 0 0 0 1 0 0 0 0 1 0 0 0 0 1</bind_shape_matrix>
				<source id="mesh_1_PressShadowMaterial_PressShadow_ctrl_joint_names_id">
					<Name_array id="mesh_1_PressShadowMaterial_PressShadow_ctrl_joint_names_array_id" count="56">pm0073_00 Origin Waist FeelerA FeelerB LFeelerA1 LFeelerA2 LFeelerA3 LFeelerA4 LFeelerA5 RFeelerA1 RFeelerA2 RFeelerA3 RFeelerA4 RFeelerA5 LFeelerB1 LFeelerB2 LFeelerB3 LFeelerB4 LFeelerB5 RFeelerB1 RFeelerB2 RFeelerB3 RFeelerB4 RFeelerB5 LFeelerC1 LFeelerC2 LFeelerC3 LFeelerC4 LFeelerC5 RFeelerC1 RFeelerC2 RFeelerC3 RFeelerC4 RFeelerC5 LFeelerD1 LFeelerD2 LFeelerD3 LFeelerD4 LFeelerD5 RFeelerD1 RFeelerD2 RFeelerD3 RFeelerD4 RFeelerD5 LFeelerE1 LFeelerE2 LFeelerE3 LFeelerE4 LFeelerE5 RFeelerE1 RFeelerE2 RFeelerE3 RFeelerE4 RFeelerE5 pm0073_00_Skin</Name_array>
					<technique_common>
						<accessor source="#mesh_1_PressShadowMaterial_PressShadow_ctrl_joint_names_array_id" count="56" stride="1">
							<param name="JOINT" type="Name" />
						</accessor>
					</technique_common>
				</source>
				<source id="mesh_1_PressShadowMaterial_PressShadow_ctrl_inv_bind_poses_id">
					<float_array id="mesh_1_PressShadowMaterial_PressShadow_ctrl_inv_bind_poses_array_id" count="896">1 0 0 0 0 1 0 0 0 0 1 0 0 0 0 1 1 0 0 0 0 1 0 0 0 0 1 0 0 0 0 1 0 1 0 -110.4379 -1 3.1391647E-07 0 -3.4668275E-05 0 0 1 -8.834717 0 0 0 1 0 -0.98888457 0.14868562 92.32024 0.99999994 -6.3975784E-07 0 6.674892E-05 0 0.14868563 0.98888445 -48.160286 0 0 0 1 0 -1 0 93.9097 0.99999994 -6.3975784E-07 0 6.5267945E-05 0 -0 1 15.65313 0 -0 0 1 0 -1 0 98 0.79734147 -5.1010545E-07 -0.60352844 4.6056957 0.60352844 -3.8611205E-07 0.79734147 -29.579193 0 -0 0 1 0 -1 0 86 0.79734147 -5.1010545E-07 -0.60352844 4.6056976 0.60352844 -3.8611205E-07 0.79734147 -29.579193 0 -0 0 1 0 -1 0 66 0.79734147 -5.1010545E-07 -0.60352844 4.6056976 0.60352844 -3.8611205E-07 0.79734147 -29.579193 0 -0 0 1 0 -1 0 42 0.79734147 -5.1010545E-07 -0.60352844 4.6056957 0.60352844 -3.8611205E-07 0.79734147 -29.579193 0 -0 0 1 0 -1 0 22 0.79734147 -5.1010545E-07 -0.60352844 4.6056957 0.60352844 -3.8611205E-07 0.79734147 -29.579193 0 -0 0 1 0 -1 0 98 0.79734147 -5.1010545E-07 0.60352844 -4.605629 -0.60352844 3.8611205E-07 0.79734147 -29.57926 0 0 0 1 0 -1 0 86 0.79734147 -5.1010545E-07 0.60352844 -4.605629 -0.60352844 3.8611205E-07 0.79734147 -29.579262 0 0 0 1 0 -1 0 66 0.79734147 -5.1010545E-07 0.60352844 -4.605629 -0.60352844 3.8611205E-07 0.79734147 -29.57926 0 0 0 1 0 -1 0 42 0.79734147 -5.1010545E-07 0.60352844 -4.605629 -0.60352844 3.8611205E-07 0.79734147 -29.57926 0 0 0 1 0 -1 0 22 0.79734147 -5.1010545E-07 0.60352844 -4.605629 -0.60352844 3.8611205E-07 0.79734147 -29.57926 0 0 0 1 0 -1 0 128 0.1797471 2.1434658E-09 -0.9837129 8.53479 0.9837129 1.1730675E-08 0.1797471 -25.443216 0 0 0 1 0 -1 0 128 0.1797471 2.1434658E-09 -0.9837129 8.53479 0.9837129 1.1730675E-08 0.1797471 -25.443216 0 0 0 1 0 -1 0 128 0.1797471 2.1434658E-09 -0.9837129 8.53479 0.9837129 1.1730675E-08 0.1797471 -25.443216 0 0 0 1 0 -1 0 0 0.1797471 2.1434658E-09 -0.9837129 8.534805 0.9837129 1.1730675E-08 0.1797471 -25.443216 0 0 0 1 0 -1 0 32 0.1797471 -9.978567E-07 -0.9837129 8.534851 0.9837129 1.17306875E-08 0.1797471 -25.44322 0 0 0 1 0 -1 0 100 0.1797471 -1.1499469E-07 0.98371285 -8.5347595 -0.9837129 6.2933805E-07 0.17974709 -25.443264 0 0 0 1 0 -1 0 88 0.1797471 -1.1499469E-07 0.98371285 -8.5347595 -0.9837129 6.2933805E-07 0.17974709 -25.443264 0 0 0 1 0 -1 0 68 0.1797471 -1.1499469E-07 0.98371285 -8.5347595 -0.9837129 6.2933805E-07 0.17974709 -25.443262 0 0 0 1 0 -1 0 52 0.1797471 -1.1499469E-07 0.98371285 -8.5347595 -0.9837129 6.2933805E-07 0.17974709 -25.443264 0 0 0 1 0 -1 0 32 0.17974854 -1.1499537E-07 0.9837126 -8.534729 -0.9837127 6.2933793E-07 0.17974807 -25.44327 0 0 0 1 0 -1 -0 104 -0.28110242 -2.2446011E-07 -0.9596778 7.996277 0.9596778 -3.9285337E-07 -0.2811021 -24.356512 0 0 -0 1 0 -1 -0 88 -0.28110242 -2.2446011E-07 -0.9596778 7.996277 0.9596778 -3.9285337E-07 -0.2811021 -24.356514 0 0 -0 1 0 -1 -0 64 -0.28110337 -1.2244612E-06 -0.9596787 7.996292 0.9596775 -3.9285374E-07 -0.2811024 -24.356533 0 0 -0 1 0 -1 -0 56 -0.28110242 -2.2446011E-07 -0.9596778 7.9962845 0.9596778 -3.9285337E-07 -0.2811021 -24.356512 0 0 -0 1 0 -1 -0 34 -0.28110242 -1.2244598E-06 -0.95967776 7.9963226 0.9596779 -1.3928533E-06 -0.2811021 -24.356478 0 0 -0 1 0 -1 -0 100 -0.28110242 1.7983734E-07 0.9596778 -7.996269 -0.9596778 6.1396145E-07 -0.28110248 -24.356607 -0 0 -0 1 0 -1 -0 88 -0.28110242 1.7983734E-07 0.9596778 -7.996269 -0.9596778 6.1396145E-07 -0.28110248 -24.356607 -0 0 -0 1 0 -1 -0 72 -0.28110147 1.7983689E-07 0.959678 -7.996254 -0.9596781 6.139616E-07 -0.2811015 -24.356615 -0 0 -0 1 0 -1 -0 52 -0.28110027 1.798362E-07 0.9596785 -7.9962234 -0.95967835 6.139618E-07 -0.28110057 -24.356623 -0 0 -0 1 0 -1 -0 36 -0.28109837 1.7983507E-07 0.959679 -7.9961777 -0.95967895 6.1396213E-07 -0.28109863 -24.356642 -0 0 -0 1 0 -1 -0 104 -0.64698935 -4.5353147E-08 -0.7624991 6.965166 0.76249903 -4.501769E-07 -0.6469893 -23.327732 0 0 -0 1 0 -1 -0 88 -0.64698935 -4.5353147E-08 -0.7624991 6.9651604 0.76249903 -4.501769E-07 -0.6469893 -23.327738 0 0 -0 1 0 -1 -0 72 -0.64698935 -4.5353147E-08 -0.7624991 6.9651623 0.76249903 -4.501769E-07 -0.6469893 -23.327734 0 0 -0 1 0 -1 -0 56 -0.64698946 -1.0453532E-06 -0.76249903 6.9652176 0.762499 -4.5017686E-07 -0.6469892 -23.327732 0 -0 -0 1 0 -1 -0 40 -0.64698935 -4.5353147E-08 -0.7624991 6.965166 0.76249903 -4.501769E-07 -0.6469893 -23.327732 0 0 -0 1 0 -1 -0 104 -0.64698964 4.1391667E-07 0.7624989 -6.965212 -0.7624989 4.878147E-07 -0.6469896 -23.32784 -0 0 -0 1 0 -1 -0 88 -0.64698964 4.1391667E-07 0.7624989 -6.965214 -0.7624989 4.878147E-07 -0.6469896 -23.327837 -0 0 -0 1 0 -1 -0 72 -0.64698964 4.1391667E-07 0.7624989 -6.965214 -0.7624989 4.878147E-07 -0.6469896 -23.327837 -0 0 -0 1 0 -1 -0 56 -0.6469888 4.139162E-07 0.7624995 -6.965189 -0.7624995 4.8781504E-07 -0.64698875 -23.32784 -0 0 -0 1 0 -1 -0 36 -0.646988 4.1391564E-07 0.7625003 -6.965164 -0.7625003 4.8781556E-07 -0.64698803 -23.327852 -0 0 -0 1 0 -1 -0 100 -0.91332525 1.5401521E-07 -0.4072308 3.716568 0.40723082 -4.2543564E-07 -0.9133253 -20.517532 0 0 -0 1 0 -1 -0 88 -0.91332525 1.5401521E-07 -0.4072308 3.716568 0.40723082 -4.2543564E-07 -0.9133253 -20.517532 0 0 -0 1 0 -1 -0 73.5 -0.91332525 3.1540153E-06 -0.4072308 3.7163181 0.40723082 5.745644E-07 -0.9133253 -20.517618 0 0 -0 1 0 -1 -0 55.5 -0.91332537 2.1540156E-06 -0.40723082 3.7163992 0.40723076 5.745644E-07 -0.9133253 -20.517618 0 0 -0 1 0 -1 -0 37.75 -0.91332525 4.154015E-06 -0.4072308 3.7163286 0.40723082 1.5745644E-06 -0.9133253 -20.517653 0 0 -0 1 0 -1 -0 100 -0.9133251 5.8430686E-07 0.4072314 -3.7166014 -0.40723142 2.605295E-07 -0.91332513 -20.51758 -0 0 -0 1 0 -1 -0 90 -0.9133251 5.8430686E-07 0.4072314 -3.7166023 -0.40723142 2.605295E-07 -0.91332513 -20.51758 -0 0 -0 1 0 -1 -0 74 -0.9133237 5.8430606E-07 0.4072341 -3.7165394 -0.4072341 2.605312E-07 -0.9133238 -20.51759 -0 0 -0 1 0 -1 -0 56 -0.9133227 5.843053E-07 0.40723687 -3.7164392 -0.40723687 2.60533E-07 -0.9133226 -20.517693 -0 0 -0 1 0 -1 -0 38 -0.9133197 5.843035E-07 0.40724322 -3.7162952 -0.40724325 2.6053706E-07 -0.91331977 -20.517717 -0 0 -0 1 1 0 0 0 0 1 0 0 0 0 1 0 0 0 0 1</float_array>
					<technique_common>
						<accessor source="#mesh_1_PressShadowMaterial_PressShadow_ctrl_inv_bind_poses_array_id" count="56" stride="16">
							<param name="TRANSFORM" type="float4x4" />
						</accessor>
					</technique_common>
				</source>
				<source id="mesh_1_PressShadowMaterial_PressShadow_ctrl_weights_id">
					<float_array id="mesh_1_PressShadowMaterial_PressShadow_ctrl_weights_array_id" count="40">0.043137256 0.80784315 0.14901961 0.023529412 0.078431375 0.8980392 0.050980393 0.7411765 0.20784314 0.22352941 0.7764706 0.011764706 0.9372549 1 0.6431373 0.35686275 0.88235295 0.06666667 0.07058824 0.8509804 0.101960786 0.047058824 0.9529412 0.08235294 0.91764706 0.9490196 0.8666667 0.019607844 0.23137255 0.02745098 0.2 0.8 0.039215688 0.9607843 0.9764706 0.67058825 0.32941177 0.043137256 0.14901961 0.8392157</float_array>
					<technique_common>
						<accessor source="#mesh_1_PressShadowMaterial_PressShadow_ctrl_weights_array_id" count="40" stride="1">
							<param name="WEIGHT" type="float" />
						</accessor>
					</technique_common>
				</source>
				<joints>
					<input semantic="JOINT" source="#mesh_1_PressShadowMaterial_PressShadow_ctrl_joint_names_id" />
					<input semantic="INV_BIND_MATRIX" source="#mesh_1_PressShadowMaterial_PressShadow_ctrl_inv_bind_poses_id" />
				</joints>
				<vertex_weights count="46">
					<input semantic="JOINT" source="#mesh_1_PressShadowMaterial_PressShadow_ctrl_joint_names_id" offset="0" />
					<input semantic="WEIGHT" source="#mesh_1_PressShadowMaterial_PressShadow_ctrl_weights_id" offset="1" />
					<vcount>3 3 3 2 3 1 1 1 1 1 2 3 3 1 1 1 2 2 2 2 2 4 3 2 2 4 2 2 4 2 1 4 3 2 4 1 1 2 1 4 4 3 2 2 3 2</vcount>
					<v>21 0 22 1 23 2 20 3 21 4 22 5 2 6 20 7 21 8 20 9 21 10 22 11 23 6 24 12 24 13 24 13 24 13 2 13 2 13 2 14 20 15 46 6 47 16 48 17 2 18 45 19 46 4 2 13 2 13 2 13 48 20 49 5 48 21 49 22 48 20 49 5 48 23 49 24 13 6 14 25 10 11 11 20 12 26 13 27 10 28 11 7 12 29 13 6 14 25 13 30 14 31 10 11 11 20 12 26 13 27 13 32 14 33 13 6 14 25 10 11 11 20 12 26 13 27 13 3 14 34 2 13 10 11 11 20 12 26 13 27 10 28 11 7 12 29 2 35 10 36 10 11 11 20 12 26 13 27 2 13 2 13 2 35 10 36 2 13 10 11 11 20 12 26 13 27 10 11 11 20 12 26 13 27 26 37 27 12 28 27 28 6 29 25 28 23 29 24 27 11 28 38 29 39 28 23 29 24</v>
				</vertex_weights>
			</skin>
		</controller>
		<controller id="mesh_2_PressShadowMaterial_PressShadow_ctrl_id">
			<skin source="#mesh_2_PressShadowMaterial_PressShadow_id">
				<bind_shape_matrix>1 0 0 0 0 1 0 0 0 0 1 0 0 0 0 1</bind_shape_matrix>
				<source id="mesh_2_PressShadowMaterial_PressShadow_ctrl_joint_names_id">
					<Name_array id="mesh_2_PressShadowMaterial_PressShadow_ctrl_joint_names_array_id" count="56">pm0073_00 Origin Waist FeelerA FeelerB LFeelerA1 LFeelerA2 LFeelerA3 LFeelerA4 LFeelerA5 RFeelerA1 RFeelerA2 RFeelerA3 RFeelerA4 RFeelerA5 LFeelerB1 LFeelerB2 LFeelerB3 LFeelerB4 LFeelerB5 RFeelerB1 RFeelerB2 RFeelerB3 RFeelerB4 RFeelerB5 LFeelerC1 LFeelerC2 LFeelerC3 LFeelerC4 LFeelerC5 RFeelerC1 RFeelerC2 RFeelerC3 RFeelerC4 RFeelerC5 LFeelerD1 LFeelerD2 LFeelerD3 LFeelerD4 LFeelerD5 RFeelerD1 RFeelerD2 RFeelerD3 RFeelerD4 RFeelerD5 LFeelerE1 LFeelerE2 LFeelerE3 LFeelerE4 LFeelerE5 RFeelerE1 RFeelerE2 RFeelerE3 RFeelerE4 RFeelerE5 pm0073_00_Skin</Name_array>
					<technique_common>
						<accessor source="#mesh_2_PressShadowMaterial_PressShadow_ctrl_joint_names_array_id" count="56" stride="1">
							<param name="JOINT" type="Name" />
						</accessor>
					</technique_common>
				</source>
				<source id="mesh_2_PressShadowMaterial_PressShadow_ctrl_inv_bind_poses_id">
					<float_array id="mesh_2_PressShadowMaterial_PressShadow_ctrl_inv_bind_poses_array_id" count="896">1 0 0 0 0 1 0 0 0 0 1 0 0 0 0 1 1 0 0 0 0 1 0 0 0 0 1 0 0 0 0 1 0 1 0 -110.4379 -1 3.1391647E-07 0 -3.4668275E-05 0 0 1 -8.834717 0 0 0 1 0 -0.98888457 0.14868562 92.32024 0.99999994 -6.3975784E-07 0 6.674892E-05 0 0.14868563 0.98888445 -48.160286 0 0 0 1 0 -1 0 93.9097 0.99999994 -6.3975784E-07 0 6.5267945E-05 0 -0 1 15.65313 0 -0 0 1 0 -1 0 98 0.79734147 -5.1010545E-07 -0.60352844 4.6056957 0.60352844 -3.8611205E-07 0.79734147 -29.579193 0 -0 0 1 0 -1 0 86 0.79734147 -5.1010545E-07 -0.60352844 4.6056976 0.60352844 -3.8611205E-07 0.79734147 -29.579193 0 -0 0 1 0 -1 0 66 0.79734147 -5.1010545E-07 -0.60352844 4.6056976 0.60352844 -3.8611205E-07 0.79734147 -29.579193 0 -0 0 1 0 -1 0 42 0.79734147 -5.1010545E-07 -0.60352844 4.6056957 0.60352844 -3.8611205E-07 0.79734147 -29.579193 0 -0 0 1 0 -1 0 22 0.79734147 -5.1010545E-07 -0.60352844 4.6056957 0.60352844 -3.8611205E-07 0.79734147 -29.579193 0 -0 0 1 0 -1 0 98 0.79734147 -5.1010545E-07 0.60352844 -4.605629 -0.60352844 3.8611205E-07 0.79734147 -29.57926 0 0 0 1 0 -1 0 86 0.79734147 -5.1010545E-07 0.60352844 -4.605629 -0.60352844 3.8611205E-07 0.79734147 -29.579262 0 0 0 1 0 -1 0 66 0.79734147 -5.1010545E-07 0.60352844 -4.605629 -0.60352844 3.8611205E-07 0.79734147 -29.57926 0 0 0 1 0 -1 0 42 0.79734147 -5.1010545E-07 0.60352844 -4.605629 -0.60352844 3.8611205E-07 0.79734147 -29.57926 0 0 0 1 0 -1 0 22 0.79734147 -5.1010545E-07 0.60352844 -4.605629 -0.60352844 3.8611205E-07 0.79734147 -29.57926 0 0 0 1 0 -1 0 128 0.1797471 2.1434658E-09 -0.9837129 8.53479 0.9837129 1.1730675E-08 0.1797471 -25.443216 0 0 0 1 0 -1 0 128 0.1797471 2.1434658E-09 -0.9837129 8.53479 0.9837129 1.1730675E-08 0.1797471 -25.443216 0 0 0 1 0 -1 0 128 0.1797471 2.1434658E-09 -0.9837129 8.53479 0.9837129 1.1730675E-08 0.1797471 -25.443216 0 0 0 1 0 -1 0 0 0.1797471 2.1434658E-09 -0.9837129 8.534805 0.9837129 1.1730675E-08 0.1797471 -25.443216 0 0 0 1 0 -1 0 32 0.1797471 -9.978567E-07 -0.9837129 8.534851 0.9837129 1.17306875E-08 0.1797471 -25.44322 0 0 0 1 0 -1 0 100 0.1797471 -1.1499469E-07 0.98371285 -8.5347595 -0.9837129 6.2933805E-07 0.17974709 -25.443264 0 0 0 1 0 -1 0 88 0.1797471 -1.1499469E-07 0.98371285 -8.5347595 -0.9837129 6.2933805E-07 0.17974709 -25.443264 0 0 0 1 0 -1 0 68 0.1797471 -1.1499469E-07 0.98371285 -8.5347595 -0.9837129 6.2933805E-07 0.17974709 -25.443262 0 0 0 1 0 -1 0 52 0.1797471 -1.1499469E-07 0.98371285 -8.5347595 -0.9837129 6.2933805E-07 0.17974709 -25.443264 0 0 0 1 0 -1 0 32 0.17974854 -1.1499537E-07 0.9837126 -8.534729 -0.9837127 6.2933793E-07 0.17974807 -25.44327 0 0 0 1 0 -1 -0 104 -0.28110242 -2.2446011E-07 -0.9596778 7.996277 0.9596778 -3.9285337E-07 -0.2811021 -24.356512 0 0 -0 1 0 -1 -0 88 -0.28110242 -2.2446011E-07 -0.9596778 7.996277 0.9596778 -3.9285337E-07 -0.2811021 -24.356514 0 0 -0 1 0 -1 -0 64 -0.28110337 -1.2244612E-06 -0.9596787 7.996292 0.9596775 -3.9285374E-07 -0.2811024 -24.356533 0 0 -0 1 0 -1 -0 56 -0.28110242 -2.2446011E-07 -0.9596778 7.9962845 0.9596778 -3.9285337E-07 -0.2811021 -24.356512 0 0 -0 1 0 -1 -0 34 -0.28110242 -1.2244598E-06 -0.95967776 7.9963226 0.9596779 -1.3928533E-06 -0.2811021 -24.356478 0 0 -0 1 0 -1 -0 100 -0.28110242 1.7983734E-07 0.9596778 -7.996269 -0.9596778 6.1396145E-07 -0.28110248 -24.356607 -0 0 -0 1 0 -1 -0 88 -0.28110242 1.7983734E-07 0.9596778 -7.996269 -0.9596778 6.1396145E-07 -0.28110248 -24.356607 -0 0 -0 1 0 -1 -0 72 -0.28110147 1.7983689E-07 0.959678 -7.996254 -0.9596781 6.139616E-07 -0.2811015 -24.356615 -0 0 -0 1 0 -1 -0 52 -0.28110027 1.798362E-07 0.9596785 -7.9962234 -0.95967835 6.139618E-07 -0.28110057 -24.356623 -0 0 -0 1 0 -1 -0 36 -0.28109837 1.7983507E-07 0.959679 -7.9961777 -0.95967895 6.1396213E-07 -0.28109863 -24.356642 -0 0 -0 1 0 -1 -0 104 -0.64698935 -4.5353147E-08 -0.7624991 6.965166 0.76249903 -4.501769E-07 -0.6469893 -23.327732 0 0 -0 1 0 -1 -0 88 -0.64698935 -4.5353147E-08 -0.7624991 6.9651604 0.76249903 -4.501769E-07 -0.6469893 -23.327738 0 0 -0 1 0 -1 -0 72 -0.64698935 -4.5353147E-08 -0.7624991 6.9651623 0.76249903 -4.501769E-07 -0.6469893 -23.327734 0 0 -0 1 0 -1 -0 56 -0.64698946 -1.0453532E-06 -0.76249903 6.9652176 0.762499 -4.5017686E-07 -0.6469892 -23.327732 0 -0 -0 1 0 -1 -0 40 -0.64698935 -4.5353147E-08 -0.7624991 6.965166 0.76249903 -4.501769E-07 -0.6469893 -23.327732 0 0 -0 1 0 -1 -0 104 -0.64698964 4.1391667E-07 0.7624989 -6.965212 -0.7624989 4.878147E-07 -0.6469896 -23.32784 -0 0 -0 1 0 -1 -0 88 -0.64698964 4.1391667E-07 0.7624989 -6.965214 -0.7624989 4.878147E-07 -0.6469896 -23.327837 -0 0 -0 1 0 -1 -0 72 -0.64698964 4.1391667E-07 0.7624989 -6.965214 -0.7624989 4.878147E-07 -0.6469896 -23.327837 -0 0 -0 1 0 -1 -0 56 -0.6469888 4.139162E-07 0.7624995 -6.965189 -0.7624995 4.8781504E-07 -0.64698875 -23.32784 -0 0 -0 1 0 -1 -0 36 -0.646988 4.1391564E-07 0.7625003 -6.965164 -0.7625003 4.8781556E-07 -0.64698803 -23.327852 -0 0 -0 1 0 -1 -0 100 -0.91332525 1.5401521E-07 -0.4072308 3.716568 0.40723082 -4.2543564E-07 -0.9133253 -20.517532 0 0 -0 1 0 -1 -0 88 -0.91332525 1.5401521E-07 -0.4072308 3.716568 0.40723082 -4.2543564E-07 -0.9133253 -20.517532 0 0 -0 1 0 -1 -0 73.5 -0.91332525 3.1540153E-06 -0.4072308 3.7163181 0.40723082 5.745644E-07 -0.9133253 -20.517618 0 0 -0 1 0 -1 -0 55.5 -0.91332537 2.1540156E-06 -0.40723082 3.7163992 0.40723076 5.745644E-07 -0.9133253 -20.517618 0 0 -0 1 0 -1 -0 37.75 -0.91332525 4.154015E-06 -0.4072308 3.7163286 0.40723082 1.5745644E-06 -0.9133253 -20.517653 0 0 -0 1 0 -1 -0 100 -0.9133251 5.8430686E-07 0.4072314 -3.7166014 -0.40723142 2.605295E-07 -0.91332513 -20.51758 -0 0 -0 1 0 -1 -0 90 -0.9133251 5.8430686E-07 0.4072314 -3.7166023 -0.40723142 2.605295E-07 -0.91332513 -20.51758 -0 0 -0 1 0 -1 -0 74 -0.9133237 5.8430606E-07 0.4072341 -3.7165394 -0.4072341 2.605312E-07 -0.9133238 -20.51759 -0 0 -0 1 0 -1 -0 56 -0.9133227 5.843053E-07 0.40723687 -3.7164392 -0.40723687 2.60533E-07 -0.9133226 -20.517693 -0 0 -0 1 0 -1 -0 38 -0.9133197 5.843035E-07 0.40724322 -3.7162952 -0.40724325 2.6053706E-07 -0.91331977 -20.517717 -0 0 -0 1 1 0 0 0 0 1 0 0 0 0 1 0 0 0 0 1</float_array>
					<technique_common>
						<accessor source="#mesh_2_PressShadowMaterial_PressShadow_ctrl_inv_bind_poses_array_id" count="56" stride="16">
							<param name="TRANSFORM" type="float4x4" />
						</accessor>
					</technique_common>
				</source>
				<source id="mesh_2_PressShadowMaterial_PressShadow_ctrl_weights_id">
					<float_array id="mesh_2_PressShadowMaterial_PressShadow_ctrl_weights_array_id" count="50">0.011764706 0.050980393 0.87058824 0.06666667 0.043137256 0.95686275 1 0.023529412 0.9764706 0.53333336 0.46666667 0.67058825 0.32941177 0.5803922 0.41960785 0.14117648 0.85882354 0 0.12941177 0.84705883 0.9372549 0.019607844 0.03137255 0.8901961 0.078431375 0.6431373 0.35686275 0.14901961 0.8392157 0.08235294 0.91764706 0.039215688 0.9607843 0.9490196 0.050980393 0.011764706 0.101960786 0.8666667 0.2 0.8 0.06666667 0.93333334 0.023529412 0.9764706 1 0.20392157 0.7372549 0.05882353 0.043137256 0.80784315</float_array>
					<technique_common>
						<accessor source="#mesh_2_PressShadowMaterial_PressShadow_ctrl_weights_array_id" count="50" stride="1">
							<param name="WEIGHT" type="float" />
						</accessor>
					</technique_common>
				</source>
				<joints>
					<input semantic="JOINT" source="#mesh_2_PressShadowMaterial_PressShadow_ctrl_joint_names_id" />
					<input semantic="INV_BIND_MATRIX" source="#mesh_2_PressShadowMaterial_PressShadow_ctrl_inv_bind_poses_id" />
				</joints>
				<vertex_weights count="47">
					<input semantic="JOINT" source="#mesh_2_PressShadowMaterial_PressShadow_ctrl_joint_names_id" offset="0" />
					<input semantic="WEIGHT" source="#mesh_2_PressShadowMaterial_PressShadow_ctrl_weights_id" offset="1" />
					<vcount>4 4 2 1 2 2 2 2 2 2 2 3 3 3 2 1 2 3 2 1 2 2 2 4 2 2 4 4 2 1 4 4 4 3 1 1 1 1 1 1 4 4 1 1 1 1 3</vcount>
					<v>35 0 36 1 37 2 38 3 35 0 36 1 37 2 38 3 38 4 39 5 39 6 38 7 39 8 38 4 39 5 2 9 35 10 2 11 35 12 2 13 35 14 35 15 36 16 2 6 35 17 25 7 26 18 27 19 26 4 27 20 28 21 2 22 25 23 26 24 2 25 25 26 2 6 2 6 25 17 27 0 28 27 29 28 28 29 29 30 2 6 8 31 9 32 8 1 9 33 8 34 9 33 5 35 6 36 7 37 8 21 8 38 9 39 8 40 9 41 5 35 6 36 7 37 8 21 5 35 6 36 7 37 8 21 8 42 9 43 2 44 5 35 6 36 7 37 8 21 5 35 6 36 7 37 8 21 5 35 6 36 7 37 8 21 2 45 5 46 6 47 2 44 2 44 2 44 2 44 2 44 2 44 5 35 6 36 7 37 8 21 5 35 6 36 7 37 8 21 19 44 19 44 19 44 19 44 16 48 17 49 18 27</v>
				</vertex_weights>
			</skin>
		</controller>
		<controller id="mesh_3_PressShadowMaterial_PressShadow_ctrl_id">
			<skin source="#mesh_3_PressShadowMaterial_PressShadow_id">
				<bind_shape_matrix>1 0 0 0 0 1 0 0 0 0 1 0 0 0 0 1</bind_shape_matrix>
				<source id="mesh_3_PressShadowMaterial_PressShadow_ctrl_joint_names_id">
					<Name_array id="mesh_3_PressShadowMaterial_PressShadow_ctrl_joint_names_array_id" count="56">pm0073_00 Origin Waist FeelerA FeelerB LFeelerA1 LFeelerA2 LFeelerA3 LFeelerA4 LFeelerA5 RFeelerA1 RFeelerA2 RFeelerA3 RFeelerA4 RFeelerA5 LFeelerB1 LFeelerB2 LFeelerB3 LFeelerB4 LFeelerB5 RFeelerB1 RFeelerB2 RFeelerB3 RFeelerB4 RFeelerB5 LFeelerC1 LFeelerC2 LFeelerC3 LFeelerC4 LFeelerC5 RFeelerC1 RFeelerC2 RFeelerC3 RFeelerC4 RFeelerC5 LFeelerD1 LFeelerD2 LFeelerD3 LFeelerD4 LFeelerD5 RFeelerD1 RFeelerD2 RFeelerD3 RFeelerD4 RFeelerD5 LFeelerE1 LFeelerE2 LFeelerE3 LFeelerE4 LFeelerE5 RFeelerE1 RFeelerE2 RFeelerE3 RFeelerE4 RFeelerE5 pm0073_00_Skin</Name_array>
					<technique_common>
						<accessor source="#mesh_3_PressShadowMaterial_PressShadow_ctrl_joint_names_array_id" count="56" stride="1">
							<param name="JOINT" type="Name" />
						</accessor>
					</technique_common>
				</source>
				<source id="mesh_3_PressShadowMaterial_PressShadow_ctrl_inv_bind_poses_id">
					<float_array id="mesh_3_PressShadowMaterial_PressShadow_ctrl_inv_bind_poses_array_id" count="896">1 0 0 0 0 1 0 0 0 0 1 0 0 0 0 1 1 0 0 0 0 1 0 0 0 0 1 0 0 0 0 1 0 1 0 -110.4379 -1 3.1391647E-07 0 -3.4668275E-05 0 0 1 -8.834717 0 0 0 1 0 -0.98888457 0.14868562 92.32024 0.99999994 -6.3975784E-07 0 6.674892E-05 0 0.14868563 0.98888445 -48.160286 0 0 0 1 0 -1 0 93.9097 0.99999994 -6.3975784E-07 0 6.5267945E-05 0 -0 1 15.65313 0 -0 0 1 0 -1 0 98 0.79734147 -5.1010545E-07 -0.60352844 4.6056957 0.60352844 -3.8611205E-07 0.79734147 -29.579193 0 -0 0 1 0 -1 0 86 0.79734147 -5.1010545E-07 -0.60352844 4.6056976 0.60352844 -3.8611205E-07 0.79734147 -29.579193 0 -0 0 1 0 -1 0 66 0.79734147 -5.1010545E-07 -0.60352844 4.6056976 0.60352844 -3.8611205E-07 0.79734147 -29.579193 0 -0 0 1 0 -1 0 42 0.79734147 -5.1010545E-07 -0.60352844 4.6056957 0.60352844 -3.8611205E-07 0.79734147 -29.579193 0 -0 0 1 0 -1 0 22 0.79734147 -5.1010545E-07 -0.60352844 4.6056957 0.60352844 -3.8611205E-07 0.79734147 -29.579193 0 -0 0 1 0 -1 0 98 0.79734147 -5.1010545E-07 0.60352844 -4.605629 -0.60352844 3.8611205E-07 0.79734147 -29.57926 0 0 0 1 0 -1 0 86 0.79734147 -5.1010545E-07 0.60352844 -4.605629 -0.60352844 3.8611205E-07 0.79734147 -29.579262 0 0 0 1 0 -1 0 66 0.79734147 -5.1010545E-07 0.60352844 -4.605629 -0.60352844 3.8611205E-07 0.79734147 -29.57926 0 0 0 1 0 -1 0 42 0.79734147 -5.1010545E-07 0.60352844 -4.605629 -0.60352844 3.8611205E-07 0.79734147 -29.57926 0 0 0 1 0 -1 0 22 0.79734147 -5.1010545E-07 0.60352844 -4.605629 -0.60352844 3.8611205E-07 0.79734147 -29.57926 0 0 0 1 0 -1 0 128 0.1797471 2.1434658E-09 -0.9837129 8.53479 0.9837129 1.1730675E-08 0.1797471 -25.443216 0 0 0 1 0 -1 0 128 0.1797471 2.1434658E-09 -0.9837129 8.53479 0.9837129 1.1730675E-08 0.1797471 -25.443216 0 0 0 1 0 -1 0 128 0.1797471 2.1434658E-09 -0.9837129 8.53479 0.9837129 1.1730675E-08 0.1797471 -25.443216 0 0 0 1 0 -1 0 0 0.1797471 2.1434658E-09 -0.9837129 8.534805 0.9837129 1.1730675E-08 0.1797471 -25.443216 0 0 0 1 0 -1 0 32 0.1797471 -9.978567E-07 -0.9837129 8.534851 0.9837129 1.17306875E-08 0.1797471 -25.44322 0 0 0 1 0 -1 0 100 0.1797471 -1.1499469E-07 0.98371285 -8.5347595 -0.9837129 6.2933805E-07 0.17974709 -25.443264 0 0 0 1 0 -1 0 88 0.1797471 -1.1499469E-07 0.98371285 -8.5347595 -0.9837129 6.2933805E-07 0.17974709 -25.443264 0 0 0 1 0 -1 0 68 0.1797471 -1.1499469E-07 0.98371285 -8.5347595 -0.9837129 6.2933805E-07 0.17974709 -25.443262 0 0 0 1 0 -1 0 52 0.1797471 -1.1499469E-07 0.98371285 -8.5347595 -0.9837129 6.2933805E-07 0.17974709 -25.443264 0 0 0 1 0 -1 0 32 0.17974854 -1.1499537E-07 0.9837126 -8.534729 -0.9837127 6.2933793E-07 0.17974807 -25.44327 0 0 0 1 0 -1 -0 104 -0.28110242 -2.2446011E-07 -0.9596778 7.996277 0.9596778 -3.9285337E-07 -0.2811021 -24.356512 0 0 -0 1 0 -1 -0 88 -0.28110242 -2.2446011E-07 -0.9596778 7.996277 0.9596778 -3.9285337E-07 -0.2811021 -24.356514 0 0 -0 1 0 -1 -0 64 -0.28110337 -1.2244612E-06 -0.9596787 7.996292 0.9596775 -3.9285374E-07 -0.2811024 -24.356533 0 0 -0 1 0 -1 -0 56 -0.28110242 -2.2446011E-07 -0.9596778 7.9962845 0.9596778 -3.9285337E-07 -0.2811021 -24.356512 0 0 -0 1 0 -1 -0 34 -0.28110242 -1.2244598E-06 -0.95967776 7.9963226 0.9596779 -1.3928533E-06 -0.2811021 -24.356478 0 0 -0 1 0 -1 -0 100 -0.28110242 1.7983734E-07 0.9596778 -7.996269 -0.9596778 6.1396145E-07 -0.28110248 -24.356607 -0 0 -0 1 0 -1 -0 88 -0.28110242 1.7983734E-07 0.9596778 -7.996269 -0.9596778 6.1396145E-07 -0.28110248 -24.356607 -0 0 -0 1 0 -1 -0 72 -0.28110147 1.7983689E-07 0.959678 -7.996254 -0.9596781 6.139616E-07 -0.2811015 -24.356615 -0 0 -0 1 0 -1 -0 52 -0.28110027 1.798362E-07 0.9596785 -7.9962234 -0.95967835 6.139618E-07 -0.28110057 -24.356623 -0 0 -0 1 0 -1 -0 36 -0.28109837 1.7983507E-07 0.959679 -7.9961777 -0.95967895 6.1396213E-07 -0.28109863 -24.356642 -0 0 -0 1 0 -1 -0 104 -0.64698935 -4.5353147E-08 -0.7624991 6.965166 0.76249903 -4.501769E-07 -0.6469893 -23.327732 0 0 -0 1 0 -1 -0 88 -0.64698935 -4.5353147E-08 -0.7624991 6.9651604 0.76249903 -4.501769E-07 -0.6469893 -23.327738 0 0 -0 1 0 -1 -0 72 -0.64698935 -4.5353147E-08 -0.7624991 6.9651623 0.76249903 -4.501769E-07 -0.6469893 -23.327734 0 0 -0 1 0 -1 -0 56 -0.64698946 -1.0453532E-06 -0.76249903 6.9652176 0.762499 -4.5017686E-07 -0.6469892 -23.327732 0 -0 -0 1 0 -1 -0 40 -0.64698935 -4.5353147E-08 -0.7624991 6.965166 0.76249903 -4.501769E-07 -0.6469893 -23.327732 0 0 -0 1 0 -1 -0 104 -0.64698964 4.1391667E-07 0.7624989 -6.965212 -0.7624989 4.878147E-07 -0.6469896 -23.32784 -0 0 -0 1 0 -1 -0 88 -0.64698964 4.1391667E-07 0.7624989 -6.965214 -0.7624989 4.878147E-07 -0.6469896 -23.327837 -0 0 -0 1 0 -1 -0 72 -0.64698964 4.1391667E-07 0.7624989 -6.965214 -0.7624989 4.878147E-07 -0.6469896 -23.327837 -0 0 -0 1 0 -1 -0 56 -0.6469888 4.139162E-07 0.7624995 -6.965189 -0.7624995 4.8781504E-07 -0.64698875 -23.32784 -0 0 -0 1 0 -1 -0 36 -0.646988 4.1391564E-07 0.7625003 -6.965164 -0.7625003 4.8781556E-07 -0.64698803 -23.327852 -0 0 -0 1 0 -1 -0 100 -0.91332525 1.5401521E-07 -0.4072308 3.716568 0.40723082 -4.2543564E-07 -0.9133253 -20.517532 0 0 -0 1 0 -1 -0 88 -0.91332525 1.5401521E-07 -0.4072308 3.716568 0.40723082 -4.2543564E-07 -0.9133253 -20.517532 0 0 -0 1 0 -1 -0 73.5 -0.91332525 3.1540153E-06 -0.4072308 3.7163181 0.40723082 5.745644E-07 -0.9133253 -20.517618 0 0 -0 1 0 -1 -0 55.5 -0.91332537 2.1540156E-06 -0.40723082 3.7163992 0.40723076 5.745644E-07 -0.9133253 -20.517618 0 0 -0 1 0 -1 -0 37.75 -0.91332525 4.154015E-06 -0.4072308 3.7163286 0.40723082 1.5745644E-06 -0.9133253 -20.517653 0 0 -0 1 0 -1 -0 100 -0.9133251 5.8430686E-07 0.4072314 -3.7166014 -0.40723142 2.605295E-07 -0.91332513 -20.51758 -0 0 -0 1 0 -1 -0 90 -0.9133251 5.8430686E-07 0.4072314 -3.7166023 -0.40723142 2.605295E-07 -0.91332513 -20.51758 -0 0 -0 1 0 -1 -0 74 -0.9133237 5.8430606E-07 0.4072341 -3.7165394 -0.4072341 2.605312E-07 -0.9133238 -20.51759 -0 0 -0 1 0 -1 -0 56 -0.9133227 5.843053E-07 0.40723687 -3.7164392 -0.40723687 2.60533E-07 -0.9133226 -20.517693 -0 0 -0 1 0 -1 -0 38 -0.9133197 5.843035E-07 0.40724322 -3.7162952 -0.40724325 2.6053706E-07 -0.91331977 -20.517717 -0 0 -0 1 1 0 0 0 0 1 0 0 0 0 1 0 0 0 0 1</float_array>
					<technique_common>
						<accessor source="#mesh_3_PressShadowMaterial_PressShadow_ctrl_inv_bind_poses_array_id" count="56" stride="16">
							<param name="TRANSFORM" type="float4x4" />
						</accessor>
					</technique_common>
				</source>
				<source id="mesh_3_PressShadowMaterial_PressShadow_ctrl_weights_id">
					<float_array id="mesh_3_PressShadowMaterial_PressShadow_ctrl_weights_array_id" count="10">0.050980393 0.92941177 0.019607844 1 0.6431373 0.35686275 0 0.043137256 0.80784315 0.14901961</float_array>
					<technique_common>
						<accessor source="#mesh_3_PressShadowMaterial_PressShadow_ctrl_weights_array_id" count="10" stride="1">
							<param name="WEIGHT" type="float" />
						</accessor>
					</technique_common>
				</source>
				<joints>
					<input semantic="JOINT" source="#mesh_3_PressShadowMaterial_PressShadow_ctrl_joint_names_id" />
					<input semantic="INV_BIND_MATRIX" source="#mesh_3_PressShadowMaterial_PressShadow_ctrl_inv_bind_poses_id" />
				</joints>
				<vertex_weights count="11">
					<input semantic="JOINT" source="#mesh_3_PressShadowMaterial_PressShadow_ctrl_joint_names_id" offset="0" />
					<input semantic="WEIGHT" source="#mesh_3_PressShadowMaterial_PressShadow_ctrl_weights_id" offset="1" />
					<vcount>3 3 1 1 1 2 2 3 1 1 1</vcount>
					<v>15 0 16 1 17 2 15 0 16 1 17 2 19 3 19 3 19 3 2 4 15 5 2 3 15 6 16 7 17 8 18 9 19 3 2 3 2 3</v>
				</vertex_weights>
			</skin>
		</controller>
	</library_controllers>
	<library_visual_scenes>
		<visual_scene id="vs_model_id" name="vs_model">
			<node id="pm0073_00_bone_id" name="pm0073_00" sid="pm0073_00" type="JOINT">
				<matrix>1 0 0 0 0 1 0 0 0 0 1 0 0 0 0 1</matrix>
				<node id="Origin_bone_id" name="Origin" sid="Origin" type="JOINT">
					<matrix>1 0 0 0 0 1 0 0 0 0 1 0 0 0 0 1</matrix>
					<node id="Waist_bone_id" name="Waist" sid="Waist" type="JOINT">
						<matrix>3.1391647E-07 -1 0 0 1 3.1391647E-07 0 110.4379 0 0 1 8.834717 0 0 0 1</matrix>
						<node id="FeelerA_bone_id" name="FeelerA" sid="FeelerA" type="JOINT">
							<matrix>-0.9888845 -3.2584137E-07 0.14868563 -11.98311 3.2221948E-07 -1 -4.844793E-08 0 0.14868563 0 0.9888845 25.063555 0 0 0 1</matrix>
						</node>
						<node id="FeelerB_bone_id" name="FeelerB" sid="FeelerB" type="JOINT">
							<matrix>-1 -3.2584137E-07 0 -16.528196 3.2584137E-07 -1 0 0 0 0 1 -24.487846 0 0 0 1</matrix>
						</node>
						<node id="LFeelerA1_bone_id" name="LFeelerA1" sid="LFeelerA1" type="JOINT">
							<matrix>-1 -2.5980682E-07 -1.9665454E-07 -11.507674 3.2584137E-07 -0.79734147 -0.60352844 -14.179638 0 -0.60352844 0.79734147 17.529669 0 0 0 1</matrix>
							<node id="LFeelerA2_bone_id" name="LFeelerA2" sid="LFeelerA2" type="JOINT">
								<matrix>1 0 0 13.254727 0 1 0 0 0 0 1 0 0 0 0 1</matrix>
								<node id="LFeelerA3_bone_id" name="LFeelerA3" sid="LFeelerA3" type="JOINT">
									<matrix>1 0 0 19.955791 0 1 0 0 0 0 1 0 0 0 0 1</matrix>
									<node id="LFeelerA4_bone_id" name="LFeelerA4" sid="LFeelerA4" type="JOINT">
										<matrix>1 0 0 22.927588 0 1 0 0 0 0 1 0 0 0 0 1</matrix>
										<node id="LFeelerA5_bone_id" name="LFeelerA5" sid="LFeelerA5" type="JOINT">
											<matrix>1 0 0 21.395353 0 1 0 0 0 0 1 0 0 0 0 1</matrix>
										</node>
									</node>
								</node>
							</node>
						</node>
						<node id="RFeelerA1_bone_id" name="RFeelerA1" sid="RFeelerA1" type="JOINT">
							<matrix>-1 -2.5980682E-07 1.9665454E-07 -11.507693 3.2584137E-07 -0.79734147 0.60352844 14.1796 0 0.60352844 0.79734147 17.529682 0 0 0 1</matrix>
							<node id="RFeelerA2_bone_id" name="RFeelerA2" sid="RFeelerA2" type="JOINT">
								<matrix>1 0 0 13.2547 0 1 0 0 0 0 1 0 0 0 0 1</matrix>
								<node id="RFeelerA3_bone_id" name="RFeelerA3" sid="RFeelerA3" type="JOINT">
									<matrix>1 0 0 19.9558 0 1 0 0 0 0 1 0 0 0 0 1</matrix>
									<node id="RFeelerA4_bone_id" name="RFeelerA4" sid="RFeelerA4" type="JOINT">
										<matrix>1 0 0 22.9276 0 1 0 0 0 0 1 0 0 0 0 1</matrix>
										<node id="RFeelerA5_bone_id" name="RFeelerA5" sid="RFeelerA5" type="JOINT">
											<matrix>1 0 0 21.3953 0 1 0 0 0 0 1 0 0 0 0 1</matrix>
										</node>
									</node>
								</node>
							</node>
						</node>
						<node id="LFeelerB1_bone_id" name="LFeelerB1" sid="LFeelerB1" type="JOINT">
							<matrix>-1 5.856904E-08 3.2053435E-07 -11.061318 -3.2584137E-07 -0.17974709 -0.98371285 -23.494717 0 -0.98371285 0.17974709 4.134423 0 0 0 1</matrix>
							<node id="LFeelerB2_bone_id" name="LFeelerB2" sid="LFeelerB2" type="JOINT">
								<matrix>1 0 0 12.97268 0 1 0 0 0 0 1 0 0 0 0 1</matrix>
								<node id="LFeelerB3_bone_id" name="LFeelerB3" sid="LFeelerB3" type="JOINT">
									<matrix>1 0 0 17.220325 0 1 0 0 0 0 1 0 0 0 0 1</matrix>
									<node id="LFeelerB4_bone_id" name="LFeelerB4" sid="LFeelerB4" type="JOINT">
										<matrix>1 0 0 18.785675 0 1 0 0 0 0 1 0 0 0 0 1</matrix>
										<node id="LFeelerB5_bone_id" name="LFeelerB5" sid="LFeelerB5" type="JOINT">
											<matrix>1 1E-06 0 18.211813 -1E-06 1 0 0 0 0 1 0 0 0 0 1</matrix>
										</node>
									</node>
								</node>
							</node>
						</node>
						<node id="RFeelerB1_bone_id" name="RFeelerB1" sid="RFeelerB1" type="JOINT">
							<matrix>-1 -5.856904E-08 3.2053435E-07 -11.061294 3.2584137E-07 -0.17974709 0.98371285 23.4947 0 0.98371285 0.17974709 4.134383 0 0 0 1</matrix>
							<node id="RFeelerB2_bone_id" name="RFeelerB2" sid="RFeelerB2" type="JOINT">
								<matrix>1 0 0 12.9727 0 1 0 0 0 0 1 0 0 0 0 1</matrix>
								<node id="RFeelerB3_bone_id" name="RFeelerB3" sid="RFeelerB3" type="JOINT">
									<matrix>1 0 0 17.2203 0 1 0 0 0 0 1 0 0 0 0 1</matrix>
									<node id="RFeelerB4_bone_id" name="RFeelerB4" sid="RFeelerB4" type="JOINT">
										<matrix>1 0 0 18.7857 0 1 0 0 0 0 1 0 0 0 0 1</matrix>
										<node id="RFeelerB5_bone_id" name="RFeelerB5" sid="RFeelerB5" type="JOINT">
											<matrix>1 0 0 18.2118 0 1 1E-06 0 0 -1E-06 1 0 0 0 0 1</matrix>
										</node>
									</node>
								</node>
							</node>
						</node>
						<node id="LFeelerC1_bone_id" name="LFeelerC1" sid="LFeelerC1" type="JOINT">
							<matrix>-1 -3.1270275E-07 -9.15947E-08 -9.187643 0 0.28110212 -0.9596779 -25.622213 3.2584137E-07 -0.9596779 -0.28110212 -8.007565 0 0 0 1</matrix>
							<node id="LFeelerC2_bone_id" name="LFeelerC2" sid="LFeelerC2" type="JOINT">
								<matrix>1 0 0 13.742201 0 1 0 0 0 0 1 0 0 0 0 1</matrix>
								<node id="LFeelerC3_bone_id" name="LFeelerC3" sid="LFeelerC3" type="JOINT">
									<matrix>1 1E-06 0 15.668574 -1E-06 1 0 0 0 0 1 0 0 0 0 1</matrix>
									<node id="LFeelerC4_bone_id" name="LFeelerC4" sid="LFeelerC4" type="JOINT">
										<matrix>1 -1E-06 0 18.140665 1E-06 1 0 1.5E-05 0 0 1 0 0 0 0 1</matrix>
										<node id="LFeelerC5_bone_id" name="LFeelerC5" sid="LFeelerC5" type="JOINT">
											<matrix>1 1E-06 1E-06 19.51741 -1E-06 1 -1E-12 0 -1E-06 0 1 0 0 0 0 1</matrix>
										</node>
									</node>
								</node>
							</node>
						</node>
						<node id="RFeelerC1_bone_id" name="RFeelerC1" sid="RFeelerC1" type="JOINT">
							<matrix>-1 9.1594806E-08 3.1270272E-07 -9.187893 3.2584137E-07 0.28110245 0.95967776 25.6222 0 0.95967776 -0.28110245 -8.007566 0 0 0 1</matrix>
							<node id="RFeelerC2_bone_id" name="RFeelerC2" sid="RFeelerC2" type="JOINT">
								<matrix>1 0 0 13.742 0 1 0 0 0 0 1 0 0 0 0 1</matrix>
								<node id="RFeelerC3_bone_id" name="RFeelerC3" sid="RFeelerC3" type="JOINT">
									<matrix>1 0 0 15.6685 0 1 1E-06 0 0 -1E-06 1 0 0 0 0 1</matrix>
									<node id="RFeelerC4_bone_id" name="RFeelerC4" sid="RFeelerC4" type="JOINT">
										<matrix>1 0 0 18.1407 0 1 1E-06 0 0 -1E-06 1 0 0 0 0 1</matrix>
										<node id="RFeelerC5_bone_id" name="RFeelerC5" sid="RFeelerC5" type="JOINT">
											<matrix>1 0 0 19.5174 0 1 2E-06 0 0 -2E-06 1 0 0 0 0 1</matrix>
										</node>
									</node>
								</node>
							</node>
						</node>
						<node id="LFeelerD1_bone_id" name="LFeelerD1" sid="LFeelerD1" type="JOINT">
							<matrix>-1 -2.4845374E-07 -2.1081587E-07 -8.146997 0 0.6469893 -0.7624991 -22.293795 3.2584137E-07 -0.7624991 -0.6469893 -18.616613 0 0 0 1</matrix>
							<node id="LFeelerD2_bone_id" name="LFeelerD2" sid="LFeelerD2" type="JOINT">
								<matrix>1 0 0 13.369739 0 1 0 0 0 0 1 0 0 0 0 1</matrix>
								<node id="LFeelerD3_bone_id" name="LFeelerD3" sid="LFeelerD3" type="JOINT">
									<matrix>1 0 0 15.986006 0 1 0 0 0 0 1 0 0 0 0 1</matrix>
									<node id="LFeelerD4_bone_id" name="LFeelerD4" sid="LFeelerD4" type="JOINT">
										<matrix>1 1E-06 0 18.477879 -1E-06 1 0 0 0 0 1 0 0 0 0 1</matrix>
										<node id="LFeelerD5_bone_id" name="LFeelerD5" sid="LFeelerD5" type="JOINT">
											<matrix>1 -1E-06 0 17.168978 1E-06 1 0 1.6E-05 0 0 1 0 0 0 0 1</matrix>
										</node>
									</node>
								</node>
							</node>
						</node>
						<node id="RFeelerD1_bone_id" name="RFeelerD1" sid="RFeelerD1" type="JOINT">
							<matrix>-1 2.1081595E-07 2.4845366E-07 -8.146894 3.2584137E-07 0.6469895 0.76249886 22.2938 0 0.76249886 -0.6469895 -18.616617 0 0 0 1</matrix>
							<node id="RFeelerD2_bone_id" name="RFeelerD2" sid="RFeelerD2" type="JOINT">
								<matrix>1 0 0 13.3698 0 1 0 0 0 0 1 0 0 0 0 1</matrix>
								<node id="RFeelerD3_bone_id" name="RFeelerD3" sid="RFeelerD3" type="JOINT">
									<matrix>1 0 0 15.986 0 1 0 0 0 0 1 0 0 0 0 1</matrix>
									<node id="RFeelerD4_bone_id" name="RFeelerD4" sid="RFeelerD4" type="JOINT">
										<matrix>1 0 0 18.4779 0 1 1E-06 0 0 -1E-06 1 0 0 0 0 1</matrix>
										<node id="RFeelerD5_bone_id" name="RFeelerD5" sid="RFeelerD5" type="JOINT">
											<matrix>1 0 0 17.169 0 1 1E-06 0 0 -1E-06 1 0 0 0 0 1</matrix>
										</node>
									</node>
								</node>
							</node>
						</node>
						<node id="LFeelerE1_bone_id" name="LFeelerE1" sid="LFeelerE1" type="JOINT">
							<matrix>-1 -1.3269263E-07 -2.9759917E-07 -10.080401 0 0.9133253 -0.4072308 -11.749842 3.2584137E-07 -0.4072308 -0.9133253 -26.06043 0 0 0 1</matrix>
							<node id="LFeelerE2_bone_id" name="LFeelerE2" sid="LFeelerE2" type="JOINT">
								<matrix>1 0 0 10.990366 0 1 0 0 0 0 1 0 0 0 0 1</matrix>
								<node id="LFeelerE3_bone_id" name="LFeelerE3" sid="LFeelerE3" type="JOINT">
									<matrix>1 -3E-06 -1E-06 15.750518 3E-06 1 -3.0000002E-12 2.9E-05 1E-06 0 1 1.2E-05 0 0 0 1</matrix>
									<node id="LFeelerE4_bone_id" name="LFeelerE4" sid="LFeelerE4" type="JOINT">
										<matrix>1 1E-06 0 18.052149 -1E-06 1 0 -2.6E-05 0 0 1 -3E-06 0 0 0 1</matrix>
										<node id="LFeelerE5_bone_id" name="LFeelerE5" sid="LFeelerE5" type="JOINT">
											<matrix>1 -2E-06 -1E-06 17.731485 2E-06 1 -2E-12 -5E-06 1E-06 0 1 -2E-06 0 0 0 1</matrix>
										</node>
									</node>
								</node>
							</node>
						</node>
						<node id="RFeelerE1_bone_id" name="RFeelerE1" sid="RFeelerE1" type="JOINT">
							<matrix>-1 2.975991E-07 1.3269282E-07 -10.080894 3.2584137E-07 0.913325 0.40723136 11.7498 0 0.40723136 -0.913325 -26.060417 0 0 0 1</matrix>
							<node id="RFeelerE2_bone_id" name="RFeelerE2" sid="RFeelerE2" type="JOINT">
								<matrix>1 0 0 10.9899 0 1 0 0 0 0 1 0 0 0 0 1</matrix>
								<node id="RFeelerE3_bone_id" name="RFeelerE3" sid="RFeelerE3" type="JOINT">
									<matrix>1 0 0 15.7505 0 1 3E-06 0 0 -3E-06 1 0 0 0 0 1</matrix>
									<node id="RFeelerE4_bone_id" name="RFeelerE4" sid="RFeelerE4" type="JOINT">
										<matrix>1 0 0 18.0521 0 1 3E-06 -4.1E-05 0 -3E-06 1 9.1E-05 0 0 0 1</matrix>
										<node id="RFeelerE5_bone_id" name="RFeelerE5" sid="RFeelerE5" type="JOINT">
											<matrix>1 0 0 17.7315 0 1 7E-06 0 0 -7E-06 1 0 0 0 0 1</matrix>
										</node>
									</node>
								</node>
							</node>
						</node>
					</node>
				</node>
				<node id="pm0073_00_Skin_bone_id" name="pm0073_00_Skin" sid="pm0073_00_Skin" type="JOINT">
					<matrix>1 0 0 0 0 1 0 0 0 0 1 0 0 0 0 1</matrix>
				</node>
			</node>
			<node id="vsn_mesh_0_PressShadowMaterial_PressShadow_id" name="vsn_mesh_0_PressShadowMaterial_PressShadow" type="NODE">
				<matrix>1 0 0 0 0 1 0 0 0 0 1 0 0 0 0 1</matrix>
				<instance_controller url="#mesh_0_PressShadowMaterial_PressShadow_ctrl_id">
					<skeleton>#pm0073_00_bone_id</skeleton>
					<bind_material>
						<technique_common>
							<instance_material symbol="PressShadowMaterial_PressShadow" target="#PressShadowMaterial_PressShadow_mat_id" />
						</technique_common>
					</bind_material>
				</instance_controller>
			</node>
			<node id="vsn_mesh_1_PressShadowMaterial_PressShadow_id" name="vsn_mesh_1_PressShadowMaterial_PressShadow" type="NODE">
				<matrix>1 0 0 0 0 1 0 0 0 0 1 0 0 0 0 1</matrix>
				<instance_controller url="#mesh_1_PressShadowMaterial_PressShadow_ctrl_id">
					<skeleton>#pm0073_00_bone_id</skeleton>
					<bind_material>
						<technique_common>
							<instance_material symbol="PressShadowMaterial_PressShadow" target="#PressShadowMaterial_PressShadow_mat_id" />
						</technique_common>
					</bind_material>
				</instance_controller>
			</node>
			<node id="vsn_mesh_2_PressShadowMaterial_PressShadow_id" name="vsn_mesh_2_PressShadowMaterial_PressShadow" type="NODE">
				<matrix>1 0 0 0 0 1 0 0 0 0 1 0 0 0 0 1</matrix>
				<instance_controller url="#mesh_2_PressShadowMaterial_PressShadow_ctrl_id">
					<skeleton>#pm0073_00_bone_id</skeleton>
					<bind_material>
						<technique_common>
							<instance_material symbol="PressShadowMaterial_PressShadow" target="#PressShadowMaterial_PressShadow_mat_id" />
						</technique_common>
					</bind_material>
				</instance_controller>
			</node>
			<node id="vsn_mesh_3_PressShadowMaterial_PressShadow_id" name="vsn_mesh_3_PressShadowMaterial_PressShadow" type="NODE">
				<matrix>1 0 0 0 0 1 0 0 0 0 1 0 0 0 0 1</matrix>
				<instance_controller url="#mesh_3_PressShadowMaterial_PressShadow_ctrl_id">
					<skeleton>#pm0073_00_bone_id</skeleton>
					<bind_material>
						<technique_common>
							<instance_material symbol="PressShadowMaterial_PressShadow" target="#PressShadowMaterial_PressShadow_mat_id" />
						</technique_common>
					</bind_material>
				</instance_controller>
			</node>
		</visual_scene>
	</library_visual_scenes>
	<scene>
		<instance_visual_scene url="#vs_model_id" />
	</scene>
</COLLADA>