<?xml version="1.0" encoding="utf-8"?>
<COLLADA version="1.4.1" xmlns="http://www.collada.org/2005/11/COLLADASchema">
	<asset>
		<created>2026-02-16T12:34:32Z</created>
		<modified>2026-02-16T12:34:32Z</modified>
	</asset>
	<library_images />
	<library_materials>
		<material id="PressShadowMaterial_PressShadow_mat_id" name="PressShadowMaterial_PressShadow_mat">
			<instance_effect url="#eff_PressShadowMaterial_PressShadow_id" />
		</material>
	</library_materials>
	<library_effects>
		<effect id="eff_PressShadowMaterial_PressShadow_id" name="eff_PressShadowMaterial_PressShadow">
			<profile_COMMON>
				<newparam sid="img_surface">
					<surface type="2D">
						<init_from>??????_id</init_from>
						<format>PNG</format>
					</surface>
				</newparam>
				<newparam sid="img_sampler">
					<sampler2D>
						<source>img_surface</source>
						<wrap_s>CLAMP</wrap_s>
						<wrap_t>NONE</wrap_t>
						<minfilter>LINEAR_MIPMAP_LINEAR</minfilter>
						<magfilter>LINEAR</magfilter>
						<mipfilter>LINEAR</mipfilter>
					</sampler2D>
				</newparam>
				<technique sid="img_technique">
					<phong>
						<emission>
							<color>0 0 0 1</color>
						</emission>
						<ambient>
							<color>0 0 0 1</color>
						</ambient>
						<diffuse>
							<texture texture="img_sampler" texcoord="uv" />
						</diffuse>
						<specular>
							<color>1 1 1 1</color>
						</specular>
					</phong>
				</technique>
			</profile_COMMON>
		</effect>
	</library_effects>
	<library_geometries>
		<geometry id="mesh_0_PressShadowMaterial_PressShadow_id" name="mesh_0_PressShadowMaterial_PressShadow">
			<mesh>
				<source id="mesh_0_PressShadowMaterial_PressShadow_position_id" name="mesh_0_PressShadowMaterial_PressShadow_position">
					<float_array id="mesh_0_PressShadowMaterial_PressShadow_position_array_id" count="36">-9.944939 48.625534 11.944717 -2.932155 59.03377 16.225489 -9.391578 59.07958 11.428045 -3.043611 47.569225 18.211536 -15.681152 58.260025 4.76825 -15.280189 49.640522 3.325036 2.932156 59.03377 16.225489 9.944939 48.625534 11.944717 9.391578 59.07958 11.428045 3.074203 47.550766 18.267052 15.871861 60.83426 5.291465 15.280189 49.640522 3.325036</float_array>
					<technique_common>
						<accessor source="#mesh_0_PressShadowMaterial_PressShadow_position_array_id" count="12" stride="3">
							<param name="X" type="float" />
							<param name="Y" type="float" />
							<param name="Z" type="float" />
						</accessor>
					</technique_common>
				</source>
				<source id="mesh_0_PressShadowMaterial_PressShadow_normal_id" name="mesh_0_PressShadowMaterial_PressShadow_normal">
					<float_array id="mesh_0_PressShadowMaterial_PressShadow_normal_array_id" count="36">-0.71821 0.038923 0.694738 -0.6254 0.103271 0.773441 -0.664719 0.071938 0.743622 -0.654661 0.135204 0.743733 -0.798061 -0.026753 0.601982 -0.850138 -0.125184 0.511462 0.627488 0.105499 0.771446 0.705801 0.037649 0.707409 0.635814 0.071638 0.768511 0.658584 0.139612 0.739443 0.774527 -0.031731 0.631745 0.849581 -0.134503 0.51002</float_array>
					<technique_common>
						<accessor source="#mesh_0_PressShadowMaterial_PressShadow_normal_array_id" count="12" stride="3">
							<param name="X" type="float" />
							<param name="Y" type="float" />
							<param name="Z" type="float" />
						</accessor>
					</technique_common>
				</source>
				<vertices id="mesh_0_PressShadowMaterial_PressShadow_vertices_id">
					<input semantic="POSITION" source="#mesh_0_PressShadowMaterial_PressShadow_position_id" />
				</vertices>
				<triangles material="PressShadowMaterial_PressShadow" count="8">
					<input semantic="VERTEX" source="#mesh_0_PressShadowMaterial_PressShadow_vertices_id" offset="0" />
					<input semantic="NORMAL" source="#mesh_0_PressShadowMaterial_PressShadow_normal_id" offset="0" />
					<p>0 1 2 3 1 0 2 4 0 0 4 5 6 7 8 9 7 6 7 10 8 10 7 11</p>
				</triangles>
			</mesh>
		</geometry>
		<geometry id="mesh_1_PressShadowMaterial_PressShadow_id" name="mesh_1_PressShadowMaterial_PressShadow">
			<mesh>
				<source id="mesh_1_PressShadowMaterial_PressShadow_position_id" name="mesh_1_PressShadowMaterial_PressShadow_position">
					<float_array id="mesh_1_PressShadowMaterial_PressShadow_position_array_id" count="972">10.887882 58.633224 10.037827 1.32268 57.923195 16.161913 2.758674 49.989063 18.116842 -2.674127 50.032887 17.933758 -4.420496 58.78368 14.519641 -6.775921 63.910606 10.929302 -3.642261 65.05015 9.894774 4.605237 62.835976 11.806189 -2.907278 47.70818 17.298689 -8.822671 49.8919 13.446962 -7.663252 45.248695 9.900346 -0.078418 42.54841 7.321092 -7.135561 43.513496 3.600849 -12.409186 48.941143 9.196543 -10.889448 58.634304 10.039396 -9.092934 61.529495 10.35162 -16.257053 55.600513 4.479383 -14.895227 60.811203 3.031208 -13.872549 64.26461 4.874198 -16.209478 59.733906 -2.309101 -14.730266 63.19691 -0.460205 -14.068256 48.539463 -4.248924 -3.146 42.587463 -5.322277 -6.777427 46.63833 -11.954517 -4.508039 42.41185 -1.574908 -12.882101 55.20712 -13.865477 -6.777427 46.63833 -11.954517 -1.556754 55.42845 -18.511768 -8.392773 63.17688 -14.068357 -12.98352 62.37316 -10.391365 -12.050139 66.20332 -3.527768 -14.730266 63.19691 -0.460205 -4.564371 67.57654 -9.990895 2.70307 63.832134 -15.649245 7.522097 68.49919 -7.846955 10.772478 63.34263 -13.655128 14.811434 62.230816 -7.236415 8.743562 67.29379 -0.22873 14.465071 60.44687 4.627779 10.884847 64.0394 5.110391 11.810921 62.762802 6.555171 10.887882 58.633224 10.037827 8.567589 62.080894 9.944497 -9.368425 67.90373 -4.151163 -3.072006 69.631775 -2.915061 -3.83649 68.91004 1.547983 -3.642261 65.05015 9.894774 6.489555 65.3999 7.680441 4.605237 62.835976 11.806189 4.622477 48.32536 -15.327857 0 38.609467 -6.944022 -3.146 42.587463 -5.322277 2.528839 42.360287 -5.231957 10.54026 46.140213 -7.107691 14.607499 55.40681 -11.694406 10.54026 46.140213 -7.107691 15.323967 49.422268 3.299772 17.399286 56.842495 -3.544873 16.30179 55.03969 4.412967 8.814797 49.916206 13.453177 2.758674 49.989063 18.116842 4.164978 48.019062 16.146107 7.762325 45.067097 9.968673 12.340842 49.068115 8.644546 7.858849 43.568584 5.729555 -0.078418 42.54841 7.321092 -2.907278 47.70818 17.298689 6.215263 58.76864 13.627839 8.567589 62.080894 9.944497 1.32268 57.923195 16.161913 4.605237 62.835976 11.806189 4.605237 62.835976 11.806189 8.567589 62.080894 9.944497 -0.512021 39.560028 2.909962 -7.135561 43.513496 3.600849 7.858849 43.568584 5.729555 -4.508039 42.41185 -1.574908 -2.057154 41.607677 0.384098 -2.057154 41.607677 0.384098 -0.512021 39.560028 2.909962 7.858849 43.568584 5.729555 4.408135 42.60138 -3.507617 1.839533 42.040485 0.8514 7.858849 43.568584 5.729555 -15.064641 49.57594 3.246998 -16.209478 59.733906 -2.309101 -14.068256 48.539463 -4.248924 -12.409186 48.941143 9.196543 -16.257053 55.600513 4.479383 -52.31742 39.285793 -0.193119 -44.019783 38.689236 3.183633 -35.635338 40.978157 0.783926 -34.50888 41.51293 -2.252275 -46.2176 41.527 -2.252196 -52.31742 39.285793 -4.311274 -35.635117 40.978146 -5.288441 -44.02368 38.68947 -7.688316 -53.452797 34.24942 1.307382 -49.14093 35.47825 2.280287 -38.848763 35.725723 1.385166 -55.388336 31.654104 -1.109771 -52.890377 35.182526 -1.638914 -48.361153 35.503666 -2.302084 -46.2176 41.527 -2.252196 -12.286783 37.613747 0.666153 -7.187905 39.661236 0.144533 -34.50888 41.51293 -2.252275 -8.952034 39.91439 -4.086419 -44.02368 38.68947 -7.688316 -31.99335 36.8539 -6.904743 -49.14094 35.478245 -6.784678 -34.94423 35.572548 -4.775681 -15.872159 34.82223 -2.426424 -34.94423 35.572548 -4.775681 -42.00679 35.020245 -2.252211 -48.361153 35.503666 -2.302084 -5.289566 35.98628 -4.66074 -42.00679 35.020245 -2.252211 -48.361153 35.503666 -2.302084 -6.97226 34.166145 0.003681 -12.286783 37.613747 0.666153 -8.952034 39.91439 -4.086419 10.74276 66.76104 5.191888 9.711992 68.611916 5.306467 12.981307 65.78963 4.04779 8.567589 62.080894 9.944497 11.810921 62.762802 6.555171 10.884847 64.0394 5.110391 11.806012 70.19759 2.377989 6.489555 65.3999 7.680441 8.567589 62.080894 9.944497 4.605237 62.835976 11.806189 10.884847 64.0394 5.110391 6.489555 65.3999 7.680441 4.605237 62.835976 11.806189 -3.026431 28.410543 8.428208 -9.194351 23.84247 0.450853 -3.254524 20.33246 8.677686 -12.286783 37.613747 0.666153 -6.562769 14.924933 2.311648 5.536099 26.699743 6.842804 -0.512021 39.560028 2.909962 -12.286783 37.613747 0.666153 -7.187905 39.661236 0.144533 -2.057154 41.607677 0.384098 7.471888 15.468637 2.001821 9.110144 16.45582 0.774301 9.851679 23.002789 -1.803367 -3.690047 13.838454 1.671494 1.845024 14.221838 2.772768 -2.684884 13.495952 -0.459474 -0 13.553702 -0.171313 -2.947496 14.932575 -4.332034 -6.562769 14.924933 2.311648 -2.947496 14.932575 -4.332034 -0 19.714642 -8.029807 2.947496 14.932575 -4.332034 -6.97226 34.166145 0.003681 -15.872159 34.82223 -2.426424 -5.879761 25.263546 -6.720765 -5.289566 35.98628 -4.66074 0 38.609467 -6.944022 -2.947496 14.932575 -4.332034 -5.728079 15.540446 -5.216245 5.884548 25.25756 -6.720573 2.947496 14.932575 -4.332034 -8.952034 39.91439 -4.086419 -3.146 42.587463 -5.322277 -3.146 42.587463 -5.322277 0 38.609467 -6.944022 2.696126 13.50327 -0.462246 1.845024 14.221838 2.772768 2.947496 14.932575 -4.332034 0.292504 24.56904 -13.593516 0 26.292883 -17.537792 -0.754534 23.328712 -22.894213 0 25.268719 -28.11625 0.38142 22.883886 -30.979944 0.022462 21.430098 -26.224098 0.069485 21.238642 -14.140882 -0.173374 22.687222 -9.171363 0.011193 31.850685 -21.644444 -0.16452 28.707321 -12.160633 0.214239 34.411957 -23.112822 -0.031092 26.752108 -11.909607 -0.031017 35.858795 -21.535458 0.100031 31.071537 -12.499266 -12.943566 73.11974 3.024867 -10.113943 72.92055 3.107378 -11.938171 71.04792 -2.019753 -8.449626 70.27948 -2.871066 -3.072006 69.631775 -2.915061 -6.775921 63.910606 10.929302 -12.050139 66.20332 -3.527768 -14.730266 63.19691 -0.460205 -13.872549 64.26461 4.874198 -9.092934 61.529495 10.35162 -9.092934 61.529495 10.35162 -6.775921 63.910606 10.929302 -3.642261 65.05015 9.894774 0.195879 16.278461 -13.327707 -0.337483 18.715395 -11.173716 -0.099417 12.798934 -18.923944 -0.245575 12.371292 -22.01323 -0.02549 15.236137 -20.58089 0.082207 19.501226 -13.339767 -53.452797 34.24942 -5.811774 -49.14094 35.478245 -6.784678 -54.756546 32.64645 -3.188785 -44.02368 38.68947 -7.688316 -52.31742 39.285793 -4.311274 -52.61758 35.29459 -2.886896 -48.361153 35.503666 -2.302084 -46.2176 41.527 -2.252196 -48.361153 35.503666 -2.302084 -34.94423 35.572548 -4.775681 -8.51141 0.335178 -4.967408 -4.687636 0.335178 -5.59206 -4.810661 -0 -2.890134 -6.036039 2.163543 -6.152946 -9.971069 -0.00013 -1.682115 -9.368279 4.440291 -1.53282 -1.512089 0.00172 -2.429857 -3.34084 5.014182 -4.507486 -9.368279 4.440291 -1.53282 -6.036039 2.163543 -6.152946 -3.34084 5.014182 -4.507486 -4.564371 67.57654 -9.990895 -8.449626 70.27948 -2.871066 -3.072006 69.631775 -2.915061 -9.368425 67.90373 -4.151163 10.884847 64.0394 5.110391 8.743562 67.29379 -0.22873 6.489555 65.3999 7.680441 -13.872549 64.26461 4.874198 -10.889448 58.634304 10.039396 -9.092934 61.529495 10.35162 7.471888 15.468637 2.001821 -3.254524 20.33246 8.677686 1.845024 14.221838 2.772768 -6.97226 34.166145 0.003681 -9.194351 23.84247 0.450853 -12.286783 37.613747 0.666153 -3.34084 5.014182 -4.507486 -6.036209 10.401646 -4.502155 -2.947496 14.932575 -4.332034 -2.924376 5.625514 -1.08936 -2.684884 13.495952 -0.459474 -5.728079 15.540446 -5.216245 -2.947496 14.932575 -4.332034 -8.132128 13.609716 -3.369399 -3.690047 13.838454 1.671494 -4.427947 7.132191 1.66892 -6.562769 14.924933 2.311648 -7.13939 5.602292 0.864762 -4.427947 7.132191 1.66892 -7.13939 5.602292 0.864762 -8.651279 13.261162 -0.54528 -6.775921 63.910606 10.929302 -9.092934 61.529495 10.35162 -4.420496 58.78368 14.519641 -14.730266 63.19691 -0.460205 -14.895227 60.811203 3.031208 -8.651279 13.261162 -0.54528 -6.562769 14.924933 2.311648 -9.194351 23.84247 0.450853 -8.132128 13.609716 -3.369399 -5.879761 25.263546 -6.720765 -8.132128 13.609716 -3.369399 -5.728079 15.540446 -5.216245 -11.938171 71.04792 -2.019753 -8.449626 70.27948 -2.871066 -9.368425 67.90373 -4.151163 -12.050139 66.20332 -3.527768 1.943409 60.374508 15.183276 -1.025011 55.61634 16.88073 1.079569 55.59379 16.940084 -0.87182 60.138012 14.646614 -0.645958 37.59492 3.205748 -1.044073 33.312878 5.897192 2.208278 37.335155 4.244553 0.997202 33.359962 5.824689 -9.368279 4.440291 -1.53282 -8.132128 13.609716 -3.369399 -6.036209 10.401646 -4.502155 -8.651279 13.261162 -0.54528 -3.34084 5.014182 -4.507486 -6.036039 2.163543 -6.152946 -6.110475 4.805685 -4.797849 -3.34084 5.014182 -4.507486 -6.036209 10.401646 -4.502155 -9.368279 4.440291 -1.53282 -8.952034 39.91439 -4.086419 -4.508039 42.41185 -1.574908 -3.146 42.587463 -5.322277 -2.057154 41.607677 0.384098 -7.187905 39.661236 0.144533 -3.83649 68.91004 1.547983 -10.113943 72.92055 3.107378 -3.642261 65.05015 9.894774 -3.072006 69.631775 -2.915061 -10.113943 72.92055 3.107378 -3.83649 68.91004 1.547983 4.408135 42.60138 -3.507617 7.858849 43.568584 5.729555 1.839533 42.040485 0.8514 4.408135 42.60138 -3.507617 2.528839 42.360287 -5.231957 10.54026 46.140213 -7.107691 -2.684884 13.495952 -0.459474 -4.427947 7.132191 1.66892 -2.924376 5.625514 -1.08936 -6.036209 10.401646 -4.502155 -6.110475 4.805685 -4.797849 -9.368279 4.440291 -1.53282 -9.368279 4.440291 -1.53282 -7.13939 5.602292 0.864762 -8.651279 13.261162 -0.54528 -8.952034 39.91439 -4.086419 -7.187905 39.661236 0.144533 -4.508039 42.41185 -1.574908 -2.924376 5.625514 -1.08936 -1.512089 0.00172 -2.429857 -3.34084 5.014182 -4.507486</float_array>
					<technique_common>
						<accessor source="#mesh_1_PressShadowMaterial_PressShadow_position_array_id" count="324" stride="3">
							<param name="X" type="float" />
							<param name="Y" type="float" />
							<param name="Z" type="float" />
						</accessor>
					</technique_common>
				</source>
				<source id="mesh_1_PressShadowMaterial_PressShadow_normal_id" name="mesh_1_PressShadowMaterial_PressShadow_normal">
					<float_array id="mesh_1_PressShadowMaterial_PressShadow_normal_array_id" count="972">0.665223 0.166338 0.727881 0.122419 0.355566 0.926599 0.328456 -0.103642 0.938816 -0.355079 0.089145 0.930576 -0.412627 0.3287 0.849527 -0.270203 0.559135 0.78381 0.130138 0.812918 0.567652 0.1308 0.692432 0.709527 -0.158675 -0.683146 0.712835 -0.67071 -0.187138 0.717723 -0.456721 -0.788409 0.412089 -0.052847 -0.897001 0.438858 -0.545223 -0.837379 0.039102 -0.713961 -0.601236 0.358851 -0.685182 0.200576 0.70021 -0.584776 0.286838 0.758789 -0.910299 0.057102 0.409994 -0.920678 0.24185 0.306366 -0.68156 0.302062 0.666509 -0.97966 0.166838 -0.111496 -0.907306 0.302203 -0.292352 -0.725483 -0.669849 -0.158041 -0.74134 -0.388978 -0.54691 -0.472481 -0.663774 -0.579798 -0.916273 0.347958 0.198414 -0.742411 -0.092124 -0.66358 -0.472481 -0.663774 -0.579798 -0.072188 -0.04413 -0.996414 -0.375073 0.518852 -0.768188 -0.690306 0.587227 -0.422661 -0.698343 0.449429 -0.557073 -0.907306 0.302203 -0.292352 -0.239299 0.846457 -0.475655 0.037871 0.630221 -0.775492 0.298861 0.913644 -0.275566 0.509178 0.355475 -0.783821 0.818201 0.554247 -0.152831 0.399491 0.893369 0.205665 0.810974 0.512382 0.282465 0.416703 0.580964 -0.69917 0.852891 0.324885 0.40869 0.665223 0.166338 0.727881 0.556647 0.41988 0.71683 -0.454476 0.608386 -0.650629 0.223736 0.907432 -0.355682 0.373645 0.878807 0.296795 0.130138 0.812918 0.567652 -0.299473 0.945807 -0.125559 0.1308 0.692432 0.709527 0.367821 -0.525355 -0.767274 -0.056728 -0.163126 -0.984973 -0.74134 -0.388978 -0.54691 0.562585 -0.304343 -0.768683 0.556145 -0.780402 -0.285789 0.830535 -0.195718 -0.521445 0.556145 -0.780402 -0.285789 0.858248 -0.508621 0.068666 0.996132 0.078647 -0.039195 0.889439 0.017494 0.456719 0.686115 -0.225868 0.691542 0.328456 -0.103642 0.938816 0.371773 -0.633156 0.678895 0.404248 -0.780666 0.476596 0.752791 -0.472703 0.458102 0.47012 -0.873101 0.129162 -0.052847 -0.897001 0.438858 -0.158675 -0.683146 0.712835 0.516201 0.202879 0.832092 0.556647 0.41988 0.71683 0.122419 0.355566 0.926599 0.1308 0.692432 0.709527 0.1308 0.692432 0.709527 0.556647 0.41988 0.71683 -0.034027 -0.005149 0.999408 -0.545223 -0.837379 0.039102 0.47012 -0.873101 0.129162 -0.916273 0.347958 0.198414 -0.783869 -0.213214 0.583172 -0.783869 -0.213214 0.583172 -0.034027 -0.005149 0.999408 0.47012 -0.873101 0.129162 0.830769 -0.214275 -0.513721 0.645924 -0.000117 0.763402 0.47012 -0.873101 0.129162 -0.904437 -0.421784 0.063963 -0.97966 0.166838 -0.111496 -0.725483 -0.669849 -0.158041 -0.713961 -0.601236 0.358851 -0.910299 0.057102 0.409994 -0.54003 -0.832577 -0.12322 -0.62844 -0.570853 0.528385 -0.50705 0.549632 0.663932 -0.605559 0.795801 -4.1E-05 -0.914749 -0.398592 -0.066022 -0.529107 -0.711231 0.462813 -0.506994 0.549534 -0.664055 -0.628439 -0.570853 -0.528385 -0.488793 -0.872283 0.014238 -0.256152 -0.954447 0.153026 -0.22762 -0.925704 0.302095 -0.310906 -0.935264 -0.16917 -0.357458 -0.896361 -0.262221 -0.450231 -0.892912 -7E-06 -0.914749 -0.398592 -0.066022 -0.25028 -0.000421 0.968174 -0.202518 0.80565 0.556699 -0.605559 0.795801 -4.1E-05 -0.144049 0.772196 -0.61884 -0.628439 -0.570853 -0.528385 -0.156652 -0.585151 -0.795649 -0.199319 -0.973649 0.110817 -0.228099 -0.925563 -0.302165 -0.247805 -0.968804 0.003449 -0.228099 -0.925563 -0.302165 -0.117515 -0.993071 0.000145 -0.450231 -0.892912 -7E-06 -0.228295 -0.053447 -0.972124 -0.117515 -0.993071 0.000145 -0.450231 -0.892912 -7E-06 -0.584337 -0.4228 0.692669 -0.25028 -0.000421 0.968174 -0.144049 0.772196 -0.61884 -0.485735 -0.109084 -0.867273 -0.414968 0.909332 -0.03029 0.40864 -0.172284 -0.896288 0.556647 0.41988 0.71683 0.852891 0.324885 0.40869 0.416703 0.580964 -0.69917 0 0 0 -0.299473 0.945807 -0.125559 0.556647 0.41988 0.71683 0.1308 0.692432 0.709527 0.416703 0.580964 -0.69917 -0.299473 0.945807 -0.125559 0.1308 0.692432 0.709527 -0.314387 0.176236 0.932792 -0.968187 -0.126936 0.215641 -0.176857 -0.415211 0.892368 -0.25028 -0.000421 0.968174 -0.484895 -0.22302 0.845659 0.658358 0.056293 0.750597 -0.034027 -0.005149 0.999408 -0.25028 -0.000421 0.968174 -0.202518 0.80565 0.556699 -0.783869 -0.213214 0.583172 0.333054 -0.235352 0.913063 0.910098 -0.062783 0.409609 0.999213 0.018467 0.035118 0.231516 -0.637607 0.73475 -0.112529 -0.84382 0.524696 0.661914 -0.718748 0.21277 0.000904 -0.967735 -0.25197 0.436024 -0.388546 -0.811736 -0.484895 -0.22302 0.845659 0.436024 -0.388546 -0.811736 -8.4E-05 -0.382934 -0.923776 -0.315433 -0.450914 -0.834972 -0.584337 -0.4228 0.692669 -0.247805 -0.968804 0.003449 -0.457021 -0.092381 -0.884645 -0.228295 -0.053447 -0.972124 -0.056728 -0.163126 -0.984973 0.436024 -0.388546 -0.811736 -0.152839 -0.139933 -0.978294 0.504993 -0.089474 -0.858473 -0.315433 -0.450914 -0.834972 -0.144049 0.772196 -0.61884 -0.74134 -0.388978 -0.54691 -0.74134 -0.388978 -0.54691 -0.056728 -0.163126 -0.984973 -0.788239 -0.59938 -0.139365 -0.112529 -0.84382 0.524696 -0.315433 -0.450914 -0.834972 0.987825 0.137627 0.072534 -0.885289 0.461611 0.056381 -0.9998 -0.011565 -0.016338 0.046933 0.952772 -0.300039 0.012006 -0.545618 -0.837948 0.09934 -0.98501 -0.141024 0.126485 -0.98501 0.117294 -0.984908 0.026344 0.171064 0.893033 0.223258 0.390702 -0.996746 -0.076798 -0.02447 0.995048 -0.082025 -0.056131 0.866449 0.324918 0.379071 -0.986823 0.154425 0.048296 0.987379 0.122758 0.100067 -0.284113 0.929715 -0.234328 -0.116516 0.987514 -0.106017 -0.147599 0.873063 -0.464731 -0.052751 0.809561 -0.584661 0.223736 0.907432 -0.355682 -0.270203 0.559135 0.78381 -0.698343 0.449429 -0.557073 -0.907306 0.302203 -0.292352 -0.68156 0.302062 0.666509 -0.584776 0.286838 0.758789 -0.584776 0.286838 0.758789 -0.270203 0.559135 0.78381 0.130138 0.812918 0.567652 0.979258 -0.150023 0.136186 -0.985224 -0.084826 0.148792 -0.748844 -0.572191 0.33441 0.131445 -0.742213 -0.657147 0.09087 0.769934 -0.63162 0.961262 0.2704 0.053475 -0.488793 -0.872283 -0.014238 -0.199319 -0.973649 0.110817 -0.473966 -0.840693 0.261901 -0.628439 -0.570853 -0.528385 -0.529107 -0.711231 0.462813 -0.27825 -0.868493 0.41024 -0.450231 -0.892912 -7E-06 -0.914749 -0.398592 -0.066022 -0.450231 -0.892912 -7E-06 -0.228099 -0.925563 -0.302165 -0.226933 -0.947715 -0.224361 0.432649 -0.49087 -0.756215 0.319605 -0.945691 -0.059343 -0 -0.510539 -0.859854 -0.337679 -0.941092 -0.017857 -0.900702 0.278686 -0.333273 0.728657 -0.438518 -0.526081 0.564538 0.136598 -0.814026 -0.900702 0.278686 -0.333273 -0 -0.510539 -0.859854 0.564538 0.136598 -0.814026 -0.239299 0.846457 -0.475655 -0.052751 0.809561 -0.584661 0.223736 0.907432 -0.355682 -0.454476 0.608386 -0.650629 0.416703 0.580964 -0.69917 0.399491 0.893369 0.205665 -0.299473 0.945807 -0.125559 -0.68156 0.302062 0.666509 -0.685182 0.200576 0.70021 -0.584776 0.286838 0.758789 0.333054 -0.235352 0.913063 -0.176857 -0.415211 0.892368 -0.112529 -0.84382 0.524696 -0.584337 -0.4228 0.692669 -0.968187 -0.126936 0.215641 -0.25028 -0.000421 0.968174 0.564538 0.136598 -0.814026 -0.263972 -0.036562 -0.963837 0.436024 -0.388546 -0.811736 0.971715 0.230098 0.053154 0.661914 -0.718748 0.21277 -0.152839 -0.139933 -0.978294 0.436024 -0.388546 -0.811736 -0.814307 -0.032264 -0.579537 0.231516 -0.637607 0.73475 0.457984 0.424112 0.781268 -0.484895 -0.22302 0.845659 -0.696102 0.378105 0.610311 0.457984 0.424112 0.781268 -0.696102 0.378105 0.610311 -0.938592 -0.021061 0.344387 -0.270203 0.559135 0.78381 -0.584776 0.286838 0.758789 -0.412627 0.3287 0.849527 -0.907306 0.302203 -0.292352 -0.920678 0.24185 0.306366 -0.938592 -0.021061 0.344387 -0.484895 -0.22302 0.845659 -0.968187 -0.126936 0.215641 -0.814307 -0.032264 -0.579537 -0.457021 -0.092381 -0.884645 -0.814307 -0.032264 -0.579537 -0.152839 -0.139933 -0.978294 -0.147599 0.873063 -0.464731 -0.052751 0.809561 -0.584661 -0.454476 0.608386 -0.650629 -0.698343 0.449429 -0.557073 -0.113834 0.396061 0.911141 -0.113834 0.396061 0.911141 -0.022694 0.348447 0.937054 -0.203693 0.439221 0.874983 -0.246399 0.532064 0.810059 -0.112496 0.454099 0.883821 -0.112496 0.454099 0.883821 0.024719 0.362761 0.931554 -0.900702 0.278686 -0.333273 -0.814307 -0.032264 -0.579537 -0.263972 -0.036562 -0.963837 -0.938592 -0.021061 0.344387 0.564538 0.136598 -0.814026 -0 -0.510539 -0.859854 -0.346991 0.243408 -0.905732 0.564538 0.136598 -0.814026 -0.263972 -0.036562 -0.963837 -0.900702 0.278686 -0.333273 -0.144049 0.772196 -0.61884 -0.916273 0.347958 0.198414 -0.74134 -0.388978 -0.54691 -0.783869 -0.213214 0.583172 -0.202518 0.80565 0.556699 0.373645 0.878807 0.296795 -0.116516 0.987514 -0.106017 0.130138 0.812918 0.567652 0.223736 0.907432 -0.355682 -0.116516 0.987514 -0.106017 0.373645 0.878807 0.296795 0.830769 -0.214275 -0.513721 0.47012 -0.873101 0.129162 0.645924 -0.000117 0.763402 0.830769 -0.214275 -0.513721 0.562585 -0.304343 -0.768683 0.556145 -0.780402 -0.285789 0.661914 -0.718748 0.21277 0.457984 0.424112 0.781268 0.971715 0.230098 0.053154 -0.263972 -0.036562 -0.963837 -0.346991 0.243408 -0.905732 -0.900702 0.278686 -0.333273 -0.900702 0.278686 -0.333273 -0.696102 0.378105 0.610311 -0.938592 -0.021061 0.344387 -0.144049 0.772196 -0.61884 -0.202518 0.80565 0.556699 -0.916273 0.347958 0.198414 0.971715 0.230098 0.053154 0.728657 -0.438518 -0.526081 0.564538 0.136598 -0.814026</float_array>
					<technique_common>
						<accessor source="#mesh_1_PressShadowMaterial_PressShadow_normal_array_id" count="324" stride="3">
							<param name="X" type="float" />
							<param name="Y" type="float" />
							<param name="Z" type="float" />
						</accessor>
					</technique_common>
				</source>
				<source id="mesh_1_PressShadowMaterial_PressShadow_color_id" name="mesh_1_PressShadowMaterial_PressShadow_color">
					<float_array id="mesh_1_PressShadowMaterial_PressShadow_color_array_id" count="1296">1 1 1 0.047058824 1 1 1 0.047058824 1 1 1 0.047058824 1 1 1 0.047058824 1 1 1 0.047058824 1 1 1 0.047058824 1 1 1 0.047058824 1 1 1 0.047058824 1 1 1 0.047058824 1 1 1 0.047058824 1 1 1 0.047058824 1 1 1 0.047058824 1 1 1 0.047058824 1 1 1 0.047058824 1 1 1 0.047058824 1 1 1 0.19607843 1 1 1 0.047058824 1 1 1 0.047058824 1 1 1 0.2 1 1 1 0.047058824 1 1 1 0.1764706 1 1 1 0.047058824 1 1 1 0.11372549 1 1 1 0.105882354 1 1 1 0.105882354 1 1 1 0.047058824 1 1 1 0.047058824 1 1 1 0.047058824 1 1 1 0.047058824 1 1 1 0.047058824 1 1 1 0.047058824 1 1 1 0.16470589 1 1 1 0.047058824 1 1 1 0.047058824 1 1 1 0.047058824 1 1 1 0.047058824 1 1 1 0.047058824 1 1 1 0.047058824 1 1 1 0.047058824 1 1 1 0.047058824 1 1 1 0.19215687 1 1 1 0.047058824 1 1 1 0.13725491 1 1 1 0.047058824 1 1 1 0.047058824 1 1 1 0.047058824 1 1 1 0.047058824 1 1 1 0.16862746 1 1 1 0.11372549 1 1 1 0.047058824 1 1 1 0.12156863 1 1 1 0.11764706 1 1 1 0.12156863 1 1 1 0.078431375 1 1 1 0.047058824 1 1 1 0.047058824 1 1 1 0.047058824 1 1 1 0.047058824 1 1 1 0.047058824 1 1 1 0.047058824 1 1 1 0.047058824 1 1 1 0.047058824 1 1 1 0.047058824 1 1 1 0.047058824 1 1 1 0.047058824 1 1 1 0.047058824 1 1 1 0.047058824 1 1 1 0.047058824 1 1 1 0.15294118 1 1 1 0.047058824 1 1 1 0.101960786 1 1 1 0.15686275 1 1 1 0.16470589 1 1 1 0.15686275 1 1 1 0.14901961 1 1 1 0.101960786 1 1 1 0.18039216 1 1 1 0.27450982 1 1 1 0.27058825 1 1 1 0.21568628 1 1 1 0.078431375 1 1 1 0.10980392 1 1 1 0.28627452 1 1 1 0.15294118 1 1 1 0.047058824 1 1 1 0.047058824 1 1 1 0.047058824 1 1 1 0.047058824 1 1 1 0.047058824 1 1 1 0.047058824 1 1 1 0.047058824 1 1 1 0.047058824 1 1 1 0.08627451 1 1 1 0.20392157 1 1 1 0.24705882 1 1 1 0.047058824 1 1 1 0.18431373 1 1 1 0.047058824 1 1 1 0.047058824 1 1 1 0.047058824 1 1 1 0.047058824 1 1 1 0.047058824 1 1 1 0.047058824 1 1 1 0.047058824 1 1 1 0.047058824 1 1 1 0.047058824 1 1 1 0.047058824 1 1 1 0.047058824 1 1 1 0.047058824 1 1 1 0.047058824 1 1 1 0.26666668 1 1 1 0.19607843 1 1 1 0.047058824 1 1 1 0.047058824 1 1 1 0.047058824 1 1 1 0.12156863 1 1 1 0.16862746 1 1 1 0.10980392 1 1 1 0.19215687 1 1 1 0.17254902 1 1 1 0.10980392 1 1 1 0.105882354 1 1 1 0.49803922 1 1 1 0.49803922 1 1 1 0.49803922 1 1 1 0.49803922 1 1 1 0.4 1 1 1 0.39607844 1 1 1 0.49803922 1 1 1 0.49803922 1 1 1 0.4 1 1 1 0.32941177 1 1 1 0.3647059 1 1 1 0.42352942 1 1 1 0.34509805 1 1 1 0.49803922 1 1 1 0.49803922 1 1 1 0.49803922 1 1 1 0.45882353 1 1 1 0.49803922 1 1 1 0.49803922 1 1 1 0.49803922 1 1 1 0.49803922 1 1 1 0.49803922 1 1 1 0.49803922 1 1 1 0.49803922 1 1 1 0.49803922 1 1 1 0.49803922 1 1 1 0.6156863 1 1 1 0.49803922 1 1 1 0.6392157 1 1 1 0.49803922 1 1 1 0.6392157 1 1 1 0.57254905 1 1 1 0.627451 1 1 1 0.49803922 1 1 1 0.38039216 1 1 1 0.49803922 1 1 1 0.49803922 1 1 1 0.49803922 1 1 1 0.49803922 1 1 1 0.49803922 1 1 1 0.49803922 1 1 1 0.49803922 1 1 1 0.49803922 1 1 1 0.49803922 1 1 1 0.49803922 1 1 1 0.38431373 1 1 1 0.39215687 1 1 1 0.4509804 1 1 1 0.36862746 1 1 1 0.44313726 1 1 1 0.36862746 1 1 1 0.49803922 1 1 1 0.49803922 1 1 1 0.49803922 1 1 1 0.49803922 1 1 1 0.49803922 1 1 1 0.49803922 1 1 1 0.49803922 1 1 1 0.49803922 1 1 1 0.047058824 1 1 1 0.047058824 1 1 1 0.047058824 1 1 1 0.047058824 1 1 1 0.047058824 1 1 1 0.047058824 1 1 1 0.49803922 1 1 1 0.49803922 1 1 1 0.49803922 1 1 1 0.49803922 1 1 1 0.49803922 1 1 1 0.49803922 1 1 1 0.49803922 1 1 1 0.49803922 1 1 1 0.49803922 1 1 1 0.34901962 1 1 1 0.34509805 1 1 1 0.41960785 1 1 1 0.34509805 1 1 1 0.047058824 1 1 1 0.047058824 1 1 1 0.047058824 1 1 1 0.047058824 1 1 1 0.047058824 1 1 1 0.047058824 1 1 1 0.49803922 1 1 1 0.49803922 1 1 1 0.49803922 1 1 1 0.49803922 1 1 1 0.49803922 1 1 1 0.49803922 1 1 1 0.49803922 1 1 1 0.49803922 1 1 1 0.34509805 1 1 1 0.24705882 1 1 1 0.047058824 1 1 1 0.047058824 1 1 1 0.047058824 1 1 1 0.047058824 1 1 1 0.047058824 1 1 1 0.13333334 1 1 1 0.047058824 1 1 1 0.13333334 1 1 1 0.13725491 1 1 1 0.09411765 1 1 1 0.13725491 1 1 1 0.047058824 1 1 1 0.1882353 1 1 1 0.105882354 1 1 1 0.12156863 1 1 1 0.12941177 1 1 1 0.047058824 1 1 1 0.2 1 1 1 0.2 1 1 1 0.047058824 1 1 1 0.2 1 1 1 0.43137255 1 1 1 0.49803922 1 1 1 0.39215687 1 1 1 0.4509804 1 1 1 0.49803922 1 1 1 0.41960785 1 1 1 1 1 1 1 1 1 1 1 1 1 1 1 1 1 1 1 1 1 1 1 0.8156863 1 1 1 0.90588236 1 1 1 0.9098039 1 1 1 1 1 1 1 1 1 1 1 1 1 1 1 0.9490196 1 1 1 0.8980392 1 1 1 1 1 1 1 1 1 1 1 0.16470589 1 1 1 0.19215687 1 1 1 0.047058824 1 1 1 0.19215687 1 1 1 0.047058824 1 1 1 0.8235294 1 1 1 0.7372549 1 1 1 0.654902 1 1 1 0.8235294 1 1 1 0.6509804 1 1 1 0.81960785 1 1 1 0.7294118 1 1 1 0.34509805 1 1 1 0.26666668 1 1 1 0.19215687 1 1 1 0.26666668 1 1 1 0.49803922 1 1 1 0.49803922 1 1 1 0.49803922 1 1 1 0.49803922 1 1 1 0.047058824 1 1 1 0.047058824 1 1 1 0.047058824 1 1 1 0.047058824 1 1 1 0.7882353 1 1 1 0.9019608 1 1 1 0.84705883 1 1 1 0.84313726 1 1 1 0.4392157 1 1 1 0.37254903 1 1 1 0.5137255 1 1 1 0.58431375 1 1 1 0.65882355 1 1 1 0.36862746 1 1 1 0.3647059 1 1 1 0.3529412 1 1 1 0.3764706 1 1 1 0.37254903 1 1 1 0.3647059 1 1 1 0.19607843 1 1 1 0.34901962 1 1 1 0.2 1 1 1 0.2509804 1 1 1 0.34509805 1 1 1 0.1882353 1 1 1 0.24705882 1 1 1 0.1882353 1 1 1 0.30588236 1 1 1 0.20392157 1 1 1 0.16470589 1 1 1 0.105882354 1 1 1 0.78431374 1 1 1 0.70980394 1 1 1 0.64705884 1 1 1 0.7921569 1 1 1 0.65882355 1 1 1 0.72156864 1 1 1 0.64705884 1 1 1 0.70980394 1 1 1 0.78431374 1 1 1 0.27058825 1 1 1 0.32156864 1 1 1 0.35686275 1 1 1 0.1764706 1 1 1 0.105882354 1 1 1 0.16862746</float_array>
					<technique_common>
						<accessor source="#mesh_1_PressShadowMaterial_PressShadow_color_array_id" count="324" stride="4">
							<param name="R" type="float" />
							<param name="G" type="float" />
							<param name="B" type="float" />
							<param name="A" type="float" />
						</accessor>
					</technique_common>
				</source>
				<vertices id="mesh_1_PressShadowMaterial_PressShadow_vertices_id">
					<input semantic="POSITION" source="#mesh_1_PressShadowMaterial_PressShadow_position_id" />
				</vertices>
				<triangles material="PressShadowMaterial_PressShadow" count="276">
					<input semantic="VERTEX" source="#mesh_1_PressShadowMaterial_PressShadow_vertices_id" offset="0" />
					<input semantic="NORMAL" source="#mesh_1_PressShadowMaterial_PressShadow_normal_id" offset="0" />
					<input semantic="COLOR" source="#mesh_1_PressShadowMaterial_PressShadow_color_id" offset="0" />
					<p>0 1 2 1 3 2 4 3 1 5 4 1 1 6 5 7 6 1 2 3 8 3 9 8 10 8 9 10 11 8 12 11 10 10 13 12 13 10 9 9 3 14 3 4 14 4 15 14 14 16 9 9 16 13 16 14 17 14 18 17 17 19 16 17 20 19 13 21 12 22 12 21 22 21 23 24 12 22 21 19 25 25 26 21 25 27 26 25 28 27 29 28 25 25 19 29 19 30 29 30 19 31 28 29 32 32 33 28 33 27 28 34 33 32 35 33 34 27 33 35 35 34 36 37 36 34 36 37 38 38 37 39 40 38 39 41 38 40 42 41 40 30 43 29 29 43 32 32 44 34 34 44 37 37 44 45 45 46 37 37 46 47 46 48 47 26 27 49 49 27 35 50 26 49 51 26 50 50 49 52 49 53 52 35 54 49 54 35 36 55 49 54 56 55 54 56 54 57 54 36 57 36 38 57 38 41 58 58 57 38 57 58 56 59 58 41 60 59 41 61 59 60 61 62 59 62 63 59 59 63 58 56 58 63 64 63 62 64 56 63 55 56 64 62 65 64 66 65 62 60 66 61 61 66 62 67 41 68 67 69 41 69 67 70 71 67 72 73 65 74 65 73 75 74 76 77 74 78 79 80 81 55 79 82 83 84 85 86 84 86 87 85 84 88 87 88 84 89 90 91 92 89 91 93 89 92 92 94 93 95 94 92 96 94 95 89 97 90 90 97 98 99 90 98 97 100 98 89 100 97 101 100 89 98 100 101 89 102 101 102 98 101 103 102 89 104 90 99 90 104 91 91 104 105 105 106 91 106 107 95 107 106 105 95 107 108 107 109 108 110 96 109 109 111 110 112 104 99 113 109 112 112 114 113 112 99 114 99 98 115 112 109 116 111 117 118 117 99 118 119 120 112 121 116 109 122 123 124 124 123 125 126 124 125 122 124 127 127 124 126 128 123 122 122 123 128 129 123 122 130 123 131 132 133 122 134 123 133 135 136 137 135 138 136 139 137 136 135 137 140 140 141 135 142 135 141 142 141 143 143 141 144 140 137 145 145 146 140 140 146 147 148 149 137 148 150 149 149 150 151 151 150 152 137 153 148 151 154 155 155 156 151 157 158 136 158 159 136 160 159 158 159 160 161 155 159 161 155 162 159 163 159 162 164 155 161 165 155 164 166 167 160 160 168 169 170 171 151 170 151 172 173 174 175 174 176 175 174 173 176 177 175 176 177 176 173 177 178 175 177 173 178 179 175 178 173 179 178 180 175 179 180 173 175 180 179 173 181 182 183 182 181 183 184 182 181 184 181 182 182 185 183 186 185 182 186 182 183 186 183 185 187 188 189 188 190 189 191 190 188 188 187 192 193 187 189 187 193 194 195 187 194 195 196 187 187 197 198 188 198 199 200 201 202 202 201 203 202 203 200 201 204 203 203 204 200 205 204 201 205 200 204 201 200 205 206 207 208 209 207 206 206 210 209 210 206 208 211 208 207 208 211 210 211 212 210 211 207 212 210 212 213 214 207 215 216 217 218 219 217 216 220 216 218 216 220 221 222 218 217 223 222 217 224 225 216 225 226 217 227 228 229 230 228 227 231 232 233 234 235 236 237 238 239 240 241 242 243 244 245 246 243 245 245 247 246 248 249 244 250 248 244 251 252 247 252 251 253 254 255 253 256 253 257 258 259 260 261 262 234 263 264 265 266 263 265 267 268 265 269 268 267 270 271 272 273 270 272 274 275 276 275 274 277 278 279 280 279 281 280 282 283 284 282 285 283 286 287 288 289 288 290 291 288 287 292 293 294 295 293 296 297 298 299 300 301 302 303 304 305 306 307 308 309 310 311 312 313 314 315 316 317 318 319 320 321 322 323</p>
				</triangles>
			</mesh>
		</geometry>
		<geometry id="mesh_2_PressShadowMaterial_PressShadow_id" name="mesh_2_PressShadowMaterial_PressShadow">
			<mesh>
				<source id="mesh_2_PressShadowMaterial_PressShadow_position_id" name="mesh_2_PressShadowMaterial_PressShadow_position">
					<float_array id="mesh_2_PressShadowMaterial_PressShadow_position_array_id" count="558">7.299072 0.288946 9.710058 2.315656 0.078193 2.204093 10.754714 0.427933 4.085285 8.486796 -0 -2.027745 10.55999 0.00172 -2.429857 7.384443 0.335178 -5.59206 6.214568 4.793041 -4.874769 6.036039 2.163543 -6.152946 9.583569 4.525267 -1.222079 10.654661 0.55284 7.757574 9.028042 3.038626 9.054138 7.073212 5.367389 1.708264 5.307396 2.358557 10.724181 7.52319 1.091208 14.267065 9.46452 0.084574 12.24769 6.263823 0.002185 14.677071 2.50528 3.392598 8.725828 5.307396 2.358557 10.724181 2.980513 1.354501 -4.682656 2.306678 -0.00013 -2.185864 3.515567 5.781096 0.903235 7.299072 0.288946 9.710058 2.613346 0.200305 8.596535 -4.777673 0.288941 9.408283 -4.480433 1.2068 14.537172 -3.044037 3.038626 9.054138 -6.764683 2.358557 10.724181 -1.417418 0.55284 7.757574 -2.607559 0.084574 12.24769 -5.817964 0.000108 14.166426 -1.417418 0.55284 7.757574 -2.924376 5.625514 -1.08936 -9.080448 0.200305 8.23315 -1.317365 0.427933 4.085284 -4.810661 -0 -2.890134 -9.971069 -0.00013 -1.682115 -11.115423 0.500526 3.318291 -1.512089 0.00172 -2.429857 -4.777673 0.288941 9.408283 -11.115423 0.500526 3.318291 -9.368279 4.440291 -1.53282 -6.764683 2.358557 10.724181 -9.302638 3.517275 8.755025 -4.427947 7.132191 1.66892 -9.368279 4.440291 -1.53282 -11.115423 0.500526 3.318291 44.019783 38.689236 3.183633 52.31742 39.285793 -0.193119 35.635338 40.978157 0.783926 34.50888 41.51293 -2.252275 46.2176 41.527 -2.252196 52.31742 39.285793 -4.311274 35.635117 40.978146 -5.288441 44.02368 38.68947 -7.688316 53.452797 34.24942 1.307382 49.14093 35.47825 2.280287 35.272274 36.78858 2.710691 54.75655 32.64645 -1.315608 35.023182 35.57554 0.287165 7.457571 37.752083 1.35837 12.127481 40.148098 -0.526939 34.50888 41.51293 -2.252275 6.867769 39.511898 -4.715811 8.860886 36.29273 -4.635068 44.02368 38.68947 -7.688316 38.83291 35.724174 -5.885173 32.121067 35.307556 -2.470092 9.508972 34.0496 -2.164873 48.361153 35.503666 -2.202309 52.61758 35.29459 -1.617497 48.361153 35.503666 -2.202309 46.2176 41.527 -2.252196 38.83291 35.724174 -5.885173 49.14094 35.478245 -6.784678 32.121067 35.307556 -2.470092 48.361153 35.503666 -2.202309 38.83291 35.724174 -5.885173 7.457571 37.752083 1.35837 6.97226 34.166145 0.003681 5.825686 0.000109 13.837873 4.480433 1.2068 14.537172 2.613346 0.200305 8.596535 2.50528 3.392598 8.725828 5.307396 2.358557 10.724181 2.607559 0.084574 12.24769 2.613346 0.200305 8.596535 7.299072 0.288946 9.710058 7.299072 0.288946 9.710058 5.307396 2.358557 10.724181 -6.441585 0.000209 13.838915 -7.53437 1.2068 14.756516 -9.46452 0.084574 12.24769 -6.764683 2.358557 10.724181 -9.302638 3.517275 8.755025 -9.080448 0.200305 8.23315 -9.302638 3.517275 8.755025 -9.080448 0.200305 8.23315 -4.777673 0.288941 9.408283 -4.777673 0.288941 9.408283 -6.764683 2.358557 10.724181 53.452797 34.24942 -5.811774 55.388336 31.654104 -3.394622 49.14094 35.478245 -6.784678 44.02368 38.68947 -7.688316 52.31742 39.285793 -4.311274 52.890377 35.182526 -2.865479 48.361153 35.503666 -2.202309 46.2176 41.527 -2.252196 38.83291 35.724174 -5.885173 48.361153 35.503666 -2.202309 9.508972 34.0496 -2.164873 5.884548 25.25756 -6.720573 8.860886 36.29273 -4.635068 0 38.609467 -6.944022 9.851679 23.002789 -1.803367 6.97226 34.166145 0.003681 5.536099 26.699743 6.842804 2.528839 42.360287 -5.231957 6.867769 39.511898 -4.715811 7.457571 37.752083 1.35837 -0.512021 39.560028 2.909962 1.839533 42.040485 0.8514 0 38.609467 -6.944022 2.528839 42.360287 -5.231957 7.457571 37.752083 1.35837 6.97226 34.166145 0.003681 5.728079 15.540446 -5.216245 2.947496 14.932575 -4.332034 6.409183 10.085077 -4.42455 8.132128 13.609716 -3.369399 9.583569 4.525267 -1.222079 9.110144 16.45582 0.774301 9.583569 4.525267 -1.222079 6.214568 4.793041 -4.874769 7.073212 5.367389 1.708264 9.583569 4.525267 -1.222079 5.728079 15.540446 -5.216245 2.947496 14.932575 -4.332034 8.132128 13.609716 -3.369399 7.073212 5.367389 1.708264 7.471888 15.468637 2.001821 3.515567 5.781096 0.903235 1.845024 14.221838 2.772768 2.696126 13.50327 -0.462246 3.515567 5.781096 0.903235 3.735081 6.516086 -3.271238 3.735081 6.516086 -3.271238 2.947496 14.932575 -4.332034 2.980513 1.354501 -4.682656 3.735081 6.516086 -3.271238 6.036039 2.163543 -6.152946 6.214568 4.793041 -4.874769 3.515567 5.781096 0.903235 3.735081 6.516086 -3.271238 6.409183 10.085077 -4.42455 12.127481 40.148098 -0.526939 4.408135 42.60138 -3.507617 1.839533 42.040485 0.8514 7.457571 37.752083 1.35837 6.867769 39.511898 -4.715811 2.528839 42.360287 -5.231957 -9.302638 3.517275 8.755025 -7.13939 5.602292 0.864762 -9.368279 4.440291 -1.53282 -4.427947 7.132191 1.66892 -1.317365 0.427933 4.085284 -2.924376 5.625514 -1.08936 -1.417418 0.55284 7.757574 -4.427947 7.132191 1.66892 -3.044037 3.038626 9.054138 -2.924376 5.625514 -1.08936 -1.512089 0.00172 -2.429857 8.132128 13.609716 -3.369399 5.884548 25.25756 -6.720573 9.851679 23.002789 -1.803367 5.728079 15.540446 -5.216245 9.110144 16.45582 0.774301 -9.080448 0.200305 8.23315 -9.302638 3.517275 8.755025 -11.115423 0.500526 3.318291 6.867769 39.511898 -4.715811 4.408135 42.60138 -3.507617 12.127481 40.148098 -0.526939 2.613346 0.200305 8.596535 2.50528 3.392598 8.725828 2.315656 0.078193 2.204093</float_array>
					<technique_common>
						<accessor source="#mesh_2_PressShadowMaterial_PressShadow_position_array_id" count="186" stride="3">
							<param name="X" type="float" />
							<param name="Y" type="float" />
							<param name="Z" type="float" />
						</accessor>
					</technique_common>
				</source>
				<source id="mesh_2_PressShadowMaterial_PressShadow_normal_id" name="mesh_2_PressShadowMaterial_PressShadow_normal">
					<float_array id="mesh_2_PressShadowMaterial_PressShadow_normal_array_id" count="558">-1E-06 0.038405 0.999262 -0.349315 -0.930586 0.109494 0.349315 -0.930586 0.109495 0.319605 -0.945691 -0.059341 0.728657 -0.438518 -0.52608 -0 -0.859872 -0.51051 0.407199 0.287826 -0.866802 0 -0.51054 -0.859854 0.937778 0.288086 -0.193854 0.651435 0.299769 0.696973 -0.231241 0.702624 0.672939 0.379694 0.591693 0.711148 0.378532 0.547593 0.746228 0.452936 0.281021 0.846095 0.458445 -0.002635 0.888719 -0.482792 -0.316666 0.816477 -0.522125 0.613131 0.592837 0.378532 0.547593 0.746228 -0.226928 -0.947717 -0.224356 -0.285749 -0.951139 -0.116973 -0.92164 0.1932 0.336531 -1E-06 0.038405 0.999262 -0.651441 0.299776 0.696964 0.065421 -0.751333 0.656672 0.452949 0.281037 0.846083 -0.231243 0.702626 0.672937 0.028696 0.630509 0.775651 0.651441 0.299776 0.696964 0.458468 -0.002622 0.888707 -0.280327 -0.481314 0.830514 0.651441 0.299776 0.696964 0.971715 0.230098 0.053154 -0.648923 0.306029 0.696596 0.348352 -0.931098 0.108201 0.319605 -0.945691 -0.059343 -0.337679 -0.941092 -0.017857 -0.3473 -0.937384 0.026356 0.728657 -0.438518 -0.526081 0.065421 -0.751333 0.656672 -0.3473 -0.937384 0.026356 -0.900702 0.278686 -0.333273 0.028696 0.630509 0.775651 -0.507283 0.636986 0.580441 0.457984 0.424112 0.781268 -0.900702 0.278686 -0.333273 -0.3473 -0.937384 0.026356 0.628434 -0.570852 0.528393 0.52911 -0.711231 -0.46281 0.516292 0.565201 0.643422 0.584508 0.809496 -0.055384 0.914746 -0.398616 -0.065915 0.531368 -0.824871 -0.192967 0.445185 0.549272 -0.707185 0.536864 -0.4769 -0.695948 0.488618 -0.872383 0.014169 0.19932 -0.973648 -0.110819 0.157824 -0.587995 0.793318 0.473786 -0.840775 -0.261962 0.227541 -0.928593 0.293155 0.38106 -0.044042 0.923501 0.087628 0.857423 0.507097 0.584508 0.809496 -0.055384 0.196913 0.666711 -0.718833 0.207182 -0.206231 -0.956318 0.536864 -0.4769 -0.695948 0.213705 -0.90697 -0.362954 0.113008 -0.993297 -0.024286 0.711768 -0.6907 0.12775 0.444118 -0.893187 -0.070536 0.278253 -0.868493 -0.410239 0.444118 -0.893187 -0.070536 0.914746 -0.398616 -0.065915 0.213705 -0.90697 -0.362954 0.247679 -0.937624 -0.243959 0.113008 -0.993297 -0.024286 0.444118 -0.893187 -0.070536 0.213705 -0.90697 -0.362954 0.38106 -0.044042 0.923501 0.853317 -0.077284 0.515633 0.280327 -0.481314 0.830514 -0.452948 0.281037 0.846083 -0.651441 0.299776 0.696964 -0.522125 0.613131 0.592837 0.378532 0.547593 0.746228 -0.458468 -0.002621 0.888707 -0.651441 0.299776 0.696964 -1E-06 0.038405 0.999262 -1E-06 0.038405 0.999262 0.378532 0.547593 0.746228 0.104602 -0.493503 0.863431 0.099798 0.097168 0.990252 -0.279217 -0.321976 0.904638 0.028696 0.630509 0.775651 -0.507283 0.636986 0.580441 -0.648923 0.306029 0.696596 -0.507283 0.636986 0.580441 -0.648923 0.306029 0.696596 0.065421 -0.751333 0.656672 0.065421 -0.751333 0.656672 0.028696 0.630509 0.775651 0.462479 -0.831312 -0.308274 0.310905 -0.935264 -0.169169 0.247679 -0.937624 -0.243959 0.536864 -0.4769 -0.695948 0.531368 -0.824871 -0.192967 0.373134 -0.927712 -0.011026 0.444118 -0.893187 -0.070536 0.914746 -0.398616 -0.065915 0.213705 -0.90697 -0.362954 0.444118 -0.893187 -0.070536 0.711768 -0.6907 0.12775 0.504993 -0.089474 -0.858473 0.207182 -0.206231 -0.956318 -0.056728 -0.163126 -0.984973 0.999213 0.018467 0.035118 0.853317 -0.077284 0.515633 0.658358 0.056293 0.750597 0.562585 -0.304343 -0.768683 0.196913 0.666711 -0.718833 0.38106 -0.044042 0.923501 -0.034027 -0.005149 0.999408 0.645924 -0.000117 0.763402 -0.056728 -0.163126 -0.984973 0.562585 -0.304343 -0.768683 0.38106 -0.044042 0.923501 0.853317 -0.077284 0.515633 0.160298 -0.136727 -0.977553 -0.315433 -0.450914 -0.834972 0.189283 -0.061479 -0.979996 0.788485 -0.065592 -0.611547 0.937778 0.288086 -0.193854 0.910098 -0.062783 0.409609 0.937778 0.288086 -0.193854 0.407199 0.287826 -0.866802 0.379694 0.591693 0.711148 0.937778 0.288086 -0.193854 0.160298 -0.136727 -0.977553 -0.315433 -0.450914 -0.834972 0.788485 -0.065592 -0.611547 0.379694 0.591693 0.711148 0.333054 -0.235352 0.913063 -0.92164 0.1932 0.336531 -0.112529 -0.84382 0.524696 -0.788239 -0.59938 -0.139365 -0.92164 0.1932 0.336531 -0.760826 0.104972 -0.64041 -0.760826 0.104972 -0.64041 -0.315433 -0.450914 -0.834972 -0.226928 -0.947717 -0.224356 -0.760826 0.104972 -0.64041 0 -0.51054 -0.859854 0.407199 0.287826 -0.866802 -0.92164 0.1932 0.336531 -0.760826 0.104972 -0.64041 0.189283 -0.061479 -0.979996 0.087628 0.857423 0.507097 0.830769 -0.214275 -0.513721 0.645924 -0.000117 0.763402 0.38106 -0.044042 0.923501 0.196913 0.666711 -0.718833 0.562585 -0.304343 -0.768683 -0.507283 0.636986 0.580441 -0.696102 0.378105 0.610311 -0.900702 0.278686 -0.333273 0.457984 0.424112 0.781268 0.348352 -0.931098 0.108201 0.971715 0.230098 0.053154 0.651441 0.299776 0.696964 0.457984 0.424112 0.781268 -0.231243 0.702626 0.672937 0.971715 0.230098 0.053154 0.728657 -0.438518 -0.526081 0.788485 -0.065592 -0.611547 0.504993 -0.089474 -0.858473 0.999213 0.018467 0.035118 0.160298 -0.136727 -0.977553 0.910098 -0.062783 0.409609 -0.648923 0.306029 0.696596 -0.507283 0.636986 0.580441 -0.3473 -0.937384 0.026356 0.196913 0.666711 -0.718833 0.830769 -0.214275 -0.513721 0.087628 0.857423 0.507097 -0.651441 0.299776 0.696964 -0.522125 0.613131 0.592837 -0.349315 -0.930586 0.109494</float_array>
					<technique_common>
						<accessor source="#mesh_2_PressShadowMaterial_PressShadow_normal_array_id" count="186" stride="3">
							<param name="X" type="float" />
							<param name="Y" type="float" />
							<param name="Z" type="float" />
						</accessor>
					</technique_common>
				</source>
				<source id="mesh_2_PressShadowMaterial_PressShadow_color_id" name="mesh_2_PressShadowMaterial_PressShadow_color">
					<float_array id="mesh_2_PressShadowMaterial_PressShadow_color_array_id" count="744">1 1 1 0.49803922 1 1 1 0.49803922 1 1 1 0.49803922 1 1 1 0.49803922 1 1 1 0.49803922 1 1 1 0.49803922 1 1 1 0.49803922 1 1 1 0.49803922 1 1 1 0.49803922 1 1 1 0.49803922 1 1 1 0.49803922 1 1 1 0.49803922 1 1 1 0.6666667 1 1 1 0.49803922 1 1 1 0.49803922 1 1 1 0.49803922 1 1 1 0.49803922 1 1 1 0.49803922 1 1 1 0.49803922 1 1 1 0.49803922 1 1 1 0.49803922 1 1 1 0.5019608 1 1 1 0.5764706 1 1 1 0.047058824 1 1 1 0.047058824 1 1 1 0.047058824 1 1 1 0.22745098 1 1 1 0.047058824 1 1 1 0.047058824 1 1 1 0.047058824 1 1 1 0.05490196 1 1 1 0.078431375 1 1 1 0.047058824 1 1 1 0.047058824 1 1 1 0.047058824 1 1 1 0.047058824 1 1 1 0.047058824 1 1 1 0.047058824 1 1 1 0.09411765 1 1 1 0.078431375 1 1 1 0.12156863 1 1 1 0.13725491 1 1 1 0.047058824 1 1 1 0.05882353 1 1 1 0.078431375 1 1 1 0.05490196 1 1 1 1 1 1 1 1 1 1 1 1 1 1 1 0.9529412 1 1 1 0.8156863 1 1 1 0.69411767 1 1 1 1 1 1 1 0.72156864 1 1 1 1 1 1 1 1 1 1 1 1 1 1 1 1 1 1 1 1 1 1 1 1 1 1 1 1 1 1 1 1 1 1 1 1 1 1 1 1 1 1 1 1 1 1 1 1 1 1 1 1 1 1 1 1 1 1 1 0.90588236 1 1 1 1 1 1 1 1 1 1 1 1 1 1 1 0.7882353 1 1 1 0.65882355 1 1 1 0.89411765 1 1 1 0.8156863 1 1 1 0.75686276 1 1 1 0.92941177 1 1 1 0.8627451 1 1 1 1 1 1 1 1 1 1 1 1 1 1 1 0.7490196 1 1 1 1 1 1 1 1 1 1 1 0.8509804 1 1 1 0.65882355 1 1 1 1 1 1 1 0.83137256 1 1 1 0.49803922 1 1 1 0.49803922 1 1 1 0.49803922 1 1 1 0.49803922 1 1 1 0.3882353 1 1 1 0.49803922 1 1 1 0.39607844 1 1 1 0.41960785 1 1 1 0.22745098 1 1 1 0.25490198 1 1 1 0.36078432 1 1 1 0.49803922 1 1 1 0.49803922 1 1 1 0.49803922 1 1 1 0.49803922 1 1 1 0.49803922 1 1 1 0.49803922 1 1 1 0.49803922 1 1 1 0.49803922 1 1 1 0.69411767 1 1 1 0.65882355 1 1 1 0.49803922 1 1 1 0.49803922 1 1 1 0.49803922 1 1 1 0.49803922 1 1 1 0.49803922 1 1 1 0.49803922 1 1 1 0.49803922 1 1 1 0.43137255 1 1 1 0.49803922 1 1 1 0.49803922 1 1 1 0.49803922 1 1 1 0.49803922 1 1 1 0.4509804 1 1 1 0.41568628 1 1 1 0.5803922 1 1 1 0.54901963 1 1 1 0.49803922 1 1 1 0.49803922 1 1 1 0.047058824 1 1 1 0.047058824 1 1 1 0.047058824 1 1 1 0.047058824 1 1 1 0.08235294 1 1 1 0.12156863 1 1 1 0.08235294 1 1 1 0.12156863 1 1 1 0.21176471 1 1 1 0.13333334 1 1 1 0.12941177 1 1 1 0.047058824 1 1 1 0.047058824 1 1 1 0.047058824 1 1 1 0.047058824 1 1 1 0.047058824 1 1 1 0.08235294 1 1 1 0.12156863 1 1 1 0.047058824 1 1 1 0.047058824 1 1 1 0.42745098 1 1 1 0.27450982 1 1 1 0.42745098 1 1 1 0.27450982 1 1 1 0.34901962 1 1 1 0.19607843 1 1 1 0.12156863 1 1 1 0.5764706 1 1 1 0.5058824 1 1 1 0.44705883 1 1 1 0.54509807 1 1 1 0.5803922 1 1 1 0.4509804 1 1 1 0.08627451 1 1 1 0.15294118 1 1 1 0.09803922 1 1 1 0.09019608 1 1 1 0.08235294 1 1 1 0.09803922 1 1 1 0.0627451 1 1 1 0.15294118 1 1 1 0.08627451 1 1 1 0.14901961 1 1 1 0.105882354 1 1 1 0.20784314 1 1 1 0.36078432 1 1 1 0.35686275 1 1 1 0.2901961 1 1 1 0.28235295 1 1 1 0.39607844 1 1 1 0.32156864 1 1 1 0.24313726 1 1 1 0.64705884 1 1 1 0.57254905 1 1 1 0.7137255 1 1 1 0.7490196 1 1 1 0.68235296 1 1 1 0.6156863</float_array>
					<technique_common>
						<accessor source="#mesh_2_PressShadowMaterial_PressShadow_color_array_id" count="186" stride="4">
							<param name="R" type="float" />
							<param name="G" type="float" />
							<param name="B" type="float" />
							<param name="A" type="float" />
						</accessor>
					</technique_common>
				</source>
				<vertices id="mesh_2_PressShadowMaterial_PressShadow_vertices_id">
					<input semantic="POSITION" source="#mesh_2_PressShadowMaterial_PressShadow_position_id" />
				</vertices>
				<triangles material="PressShadowMaterial_PressShadow" count="154">
					<input semantic="VERTEX" source="#mesh_2_PressShadowMaterial_PressShadow_vertices_id" offset="0" />
					<input semantic="NORMAL" source="#mesh_2_PressShadowMaterial_PressShadow_normal_id" offset="0" />
					<input semantic="COLOR" source="#mesh_2_PressShadowMaterial_PressShadow_color_id" offset="0" />
					<p>0 1 2 2 1 3 4 2 3 4 3 5 1 5 3 6 4 5 7 6 5 8 4 6 8 2 4 2 8 9 9 0 2 10 9 8 8 11 10 10 12 0 9 10 13 0 13 10 14 0 9 13 0 14 14 9 13 13 0 15 15 0 13 10 11 16 17 10 16 7 5 18 18 5 1 19 1 18 19 18 1 1 16 20 18 1 20 20 16 11 1 21 22 23 24 25 25 26 23 27 25 24 28 23 27 24 23 28 28 27 24 23 29 24 24 29 23 25 30 31 23 32 33 33 32 34 32 35 34 35 32 36 37 33 34 27 38 33 35 39 40 41 25 42 25 43 42 44 45 42 46 47 48 48 47 49 49 47 50 50 51 49 49 51 52 51 53 52 54 47 46 46 55 54 55 46 56 54 55 57 47 54 57 56 58 55 56 59 58 56 60 59 60 56 46 48 60 46 61 60 48 60 61 62 62 61 52 52 63 62 64 63 52 63 64 65 66 63 65 67 63 66 67 66 58 58 59 67 68 55 58 69 57 55 57 69 47 69 70 47 69 55 70 47 70 71 72 53 73 58 74 75 74 76 75 77 78 67 79 80 81 80 82 81 83 82 80 80 79 83 80 84 81 80 81 84 79 85 86 79 87 88 89 90 91 90 89 92 92 93 90 89 91 94 90 94 91 90 95 94 89 96 97 89 98 99 100 101 102 103 100 102 104 100 103 104 101 100 105 101 104 102 101 105 104 106 105 106 102 105 107 106 104 108 102 109 110 111 112 113 112 111 114 111 110 114 110 115 115 116 114 112 117 118 119 120 116 121 120 119 122 123 112 124 116 125 111 126 127 128 129 130 130 129 131 128 132 133 131 134 135 136 128 137 136 138 128 139 131 140 141 139 140 140 142 141 142 143 141 144 143 145 146 147 128 147 146 143 148 149 150 150 149 151 152 149 148 151 153 154 155 156 157 158 155 157 156 159 160 161 162 163 162 161 164 165 166 167 166 168 169 170 165 171 172 173 174 172 175 173 172 174 176 177 178 179 180 181 182 183 184 185</p>
				</triangles>
			</mesh>
		</geometry>
		<geometry id="mesh_3_PressShadowMaterial_PressShadow_id" name="mesh_3_PressShadowMaterial_PressShadow">
			<mesh>
				<source id="mesh_3_PressShadowMaterial_PressShadow_position_id" name="mesh_3_PressShadowMaterial_PressShadow_position">
					<float_array id="mesh_3_PressShadowMaterial_PressShadow_position_array_id" count="51">7.999447 64.576675 7.682495 15.330418 72.76843 -4.380791 10.4711 70.84473 1.653318 13.581412 73.8875 -4.351038 14.636467 65.2061 1.975429 11.851479 63.491844 5.605173 9.823271 73.04573 -1.429511 8.174684 70.97214 1.638187 6.588871 67.91597 5.142753 10.164145 63.669147 7.017163 7.993997 63.085472 8.282349 15.863517 66.99288 -0.568981 17.042423 69.72467 -3.530017 16.493212 72.37638 -4.992716 8.657877 66.21214 2.128656 10.795256 63.913097 3.175383 14.464184 71.00397 -4.651415</float_array>
					<technique_common>
						<accessor source="#mesh_3_PressShadowMaterial_PressShadow_position_array_id" count="17" stride="3">
							<param name="X" type="float" />
							<param name="Y" type="float" />
							<param name="Z" type="float" />
						</accessor>
					</technique_common>
				</source>
				<source id="mesh_3_PressShadowMaterial_PressShadow_normal_id" name="mesh_3_PressShadowMaterial_PressShadow_normal">
					<float_array id="mesh_3_PressShadowMaterial_PressShadow_normal_array_id" count="51">-0.534005 -0.609273 0.586195 0.510953 0.154655 -0.845582 0.047837 0.220182 0.974285 0.218055 0.416882 -0.882418 0.711878 -0.67813 -0.182672 0.037003 -0.884442 0.46518 -0.674208 0.677039 -0.295062 -0.941339 0.290396 0.171905 -0.923155 -0.019729 0.383921 0.27698 -0.547505 0.789633 -0.242998 -0.792428 0.559473 0.296302 -0.798146 -0.524564 0.628118 0.015921 -0.777955 0.850944 0.282138 -0.443049 -0.944337 -0.294758 -0.146099 0.234597 -0.89191 -0.386603 0.186576 -0.130628 -0.973717</float_array>
					<technique_common>
						<accessor source="#mesh_3_PressShadowMaterial_PressShadow_normal_array_id" count="17" stride="3">
							<param name="X" type="float" />
							<param name="Y" type="float" />
							<param name="Z" type="float" />
						</accessor>
					</technique_common>
				</source>
				<vertices id="mesh_3_PressShadowMaterial_PressShadow_vertices_id">
					<input semantic="POSITION" source="#mesh_3_PressShadowMaterial_PressShadow_position_id" />
				</vertices>
				<triangles material="PressShadowMaterial_PressShadow" count="30">
					<input semantic="VERTEX" source="#mesh_3_PressShadowMaterial_PressShadow_vertices_id" offset="0" />
					<input semantic="NORMAL" source="#mesh_3_PressShadowMaterial_PressShadow_normal_id" offset="0" />
					<p>0 1 2 2 1 3 4 1 0 5 4 0 6 2 3 6 7 2 8 2 7 8 0 2 0 9 5 0 10 9 9 10 5 1 4 11 1 11 12 12 13 1 1 13 12 0 14 10 0 8 14 7 6 14 8 7 14 10 14 15 5 15 4 10 15 5 4 15 11 14 16 15 11 15 16 6 3 16 14 6 16 12 11 16 1 16 3 1 12 16</p>
				</triangles>
			</mesh>
		</geometry>
	</library_geometries>
	<library_controllers>
		<controller id="mesh_0_PressShadowMaterial_PressShadow_ctrl_id">
			<skin source="#mesh_0_PressShadowMaterial_PressShadow_id">
				<bind_shape_matrix>1 0 0 0 0 1 0 0 0 0 1 0 0 0 0 1</bind_shape_matrix>
				<source id="mesh_0_PressShadowMaterial_PressShadow_ctrl_joint_names_id">
					<Name_array id="mesh_0_PressShadowMaterial_PressShadow_ctrl_joint_names_array_id" count="36">pm0215_00_nyula Origin Waist Spine1 Spine2 Head LEar1 LEar2 REar LArm LForeArm LHand LFinger RArm RForeArm RHand RFinger Hips LThigh LLeg LFoot LToe RThigh RLeg RFoot RToe TailA1 TailA2 TailB1 TailB2 TailC1 TailC2 pm0215_00_IrisSkin pm0215_00_BodySkin VriVis01 pm0215_01_LeftEarSkin</Name_array>
					<technique_common>
						<accessor source="#mesh_0_PressShadowMaterial_PressShadow_ctrl_joint_names_array_id" count="36" stride="1">
							<param name="JOINT" type="Name" />
						</accessor>
					</technique_common>
				</source>
				<source id="mesh_0_PressShadowMaterial_PressShadow_ctrl_inv_bind_poses_id">
					<float_array id="mesh_0_PressShadowMaterial_PressShadow_ctrl_inv_bind_poses_array_id" count="576">1 0 0 0 0 1 0 0 0 0 1 0 0 0 0 1 1 0 0 0 0 1 0 0 0 0 1 0 0 0 0 1 0 0.9951661 -0.09820546 -25.2997 -1 3.1391647E-07 -2.3275544E-15 -7.976204E-06 0 0.098205455 0.9951662 -2.3550153 0 0 0 1 0 0.9951661 -0.09820546 -25.2997 -1 3.1391647E-07 -2.3275544E-15 -7.976204E-06 0 0.098205455 0.9951662 -2.3550153 0 0 0 1 0 0.9938606 -0.11064002 -31.602274 -1 3.1391647E-07 0 -7.976204E-06 0 0.11064002 0.9938605 -2.7503433 0 0 0 1 0 1 0 -41.559532 -1 3.1391647E-07 0 -7.976204E-06 0 0 1 1.8592186 0 0 0 1 0.43743032 0.5868647 -0.6813548 -36.14274 -0.8017789 0.59762067 0 -31.128069 0.40719178 0.54629594 0.7319533 -42.46494 0 0 0 1 0.43743032 0.5868647 -0.6813548 -47.47199 -0.8017789 0.59762067 0 -31.12807 0.40719178 0.54629594 0.7319533 -42.464943 0 0 0 1 -0.44256744 0.89555293 -0.04603172 -61.50382 -0.89650327 -0.44303718 -1.6486925E-09 21.053148 -0.020393768 0.041267585 0.99893993 -5.1827173 -0 0 0 1 1 -1.9272761E-09 -3.4731723E-08 -3.756076 1.9272477E-09 1 1.0835923E-14 -38.296803 3.4731727E-08 -6.6937626E-17 1 2.1709824 0 0 0 1 1 -1.9272761E-09 -3.4731723E-08 -22.18914 1.9272477E-09 1 1.0835923E-14 -38.296803 3.4731727E-08 -6.6937626E-17 1 2.1709826 0 0 0 1 0.9993128 0.0370655 -3.4707856E-08 -36.695923 -0.0370655 0.99931276 1.2873597E-09 -36.962044 3.4159097E-08 8.722698E-09 1 2.170778 0 0 0 1 0.99954134 0.030287368 -3.4715793E-08 -49.26845 -0.030287368 0.9995413 1.0519434E-09 -37.297047 3.4450196E-08 8.497885E-09 1 2.170778 0 0 0 1 -1 6.2590567E-07 -3.4731723E-08 -3.75609 -6.259057E-07 -1 -1.0835924E-14 38.296795 -3.4731727E-08 2.1738785E-14 1 2.170984 -0 0 0 1 -1 6.2590567E-07 -3.4731723E-08 -22.18912 -6.259057E-07 -1 -1.0835924E-14 38.2968 -3.4731727E-08 2.1738785E-14 1 2.170984 -0 0 0 1 -0.99931276 0.037066128 -3.4707853E-08 -36.69595 -0.037066124 -0.99931276 -1.2873596E-09 36.96204 -3.4159093E-08 8.722719E-09 1 2.1707737 -0 0 0 1 -0.9995413 0.030287994 -3.4715793E-08 -49.26845 -0.030287992 -0.9995413 -1.0519433E-09 37.297 -3.445019E-08 8.497907E-09 1 2.1707737 -0 0 0 1 0.125 -0.99579287 -0.09163328 25.28887 1 -6.381828E-07 3.1999402E-08 1.6219894E-05 0 -0.09163329 0.99579287 2.4686253 0 -0 0 1 0 -0.9996554 0.026245989 17.026245 1 -6.3818277E-07 3.19994E-08 -6.112303 0 0.02624599 0.99965537 0.99965537 0 0 0 1 -0.125 -0.96959865 -0.24470071 10.082373 1 -6.381828E-07 3.1999406E-08 -6.1123013 0 -0.2447007 0.96959865 3.635995 0 -0 0 1 0 0 1 0 1 -6.388873E-07 3.1999402E-08 -6.112302 0 1.0000001 1.9446018E-06 -4.5729876 0 0 0 1 0 0 1 0 1 -6.388873E-07 3.1999402E-08 -6.112302 0 1.0000001 1.9446018E-06 -2.0345201 0 0 0 1 0 -0.9996554 0.026245989 16.026655 1 -6.3818277E-07 3.19994E-08 6.112335 0 0.02624599 0.99965537 1.015275 0 0 0 1 -0.125 -0.96959865 -0.24470071 9.082373 1 -6.381828E-07 3.1999406E-08 6.112336 0 -0.2447007 0.96959865 3.635995 0 -0 0 1 0 0 1 0 1 -6.388873E-07 3.1999402E-08 6.1123357 0 1.0000001 1.9446018E-06 -4.57305 0 0 0 1 0 0 1 0 1 -6.388873E-07 3.1999402E-08 6.112336 0 1.0000001 1.9446018E-06 -2.0345824 0 0 0 1 0 0.48196602 -0.8761899 -20.015163 -1 9.626533E-07 -2.1414823E-09 -2.4611994E-05 0 0.8761899 0.48196614 -19.370281 0 0 0 1 0 0.48196602 -0.8761899 -31.058857 -1 9.626533E-07 -2.1414823E-09 -2.4611994E-05 0 0.8761899 0.48196614 -19.370281 0 0 0 1 0 -0.0012817383 -0.9999991 -8.34375 -0.99999994 3.123405E-07 -3.156982E-08 -8.570787E-06 0 0.999999 -0.001318365 -23.47458 0 0 -0 1 0 -0.0012817383 -0.9999991 -21.214844 -0.99999994 3.123405E-07 -3.156982E-08 -8.570787E-06 0 0.999999 -0.001318365 -23.47458 0 0 -0 1 0 -0.48860073 -0.87250745 2.9402962 -0.99999994 9.2248166E-07 -1.9120567E-07 -2.3380682E-05 -0 0.8725074 -0.48860073 -21.976316 -0 0 -0 1 0 -0.48860073 -0.87250745 -6.398369 -0.99999994 9.2248166E-07 -1.9120567E-07 -2.3380682E-05 -0 0.8725074 -0.48860073 -21.976316 -0 0 -0 1 1 0 0 0 0 1 0 0 0 0 1 0 0 0 0 1 1 0 0 0 0 1 0 0 0 0 1 0 0 0 0 1 1 0 0 0 0 1 0 0 0 0 1 0 0 0 0 1 1 0 0 0 0 1 0 0 0 0 1 0 0 0 0 1</float_array>
					<technique_common>
						<accessor source="#mesh_0_PressShadowMaterial_PressShadow_ctrl_inv_bind_poses_array_id" count="36" stride="16">
							<param name="TRANSFORM" type="float4x4" />
						</accessor>
					</technique_common>
				</source>
				<source id="mesh_0_PressShadowMaterial_PressShadow_ctrl_weights_id">
					<float_array id="mesh_0_PressShadowMaterial_PressShadow_ctrl_weights_array_id" count="1">1</float_array>
					<technique_common>
						<accessor source="#mesh_0_PressShadowMaterial_PressShadow_ctrl_weights_array_id" count="1" stride="1">
							<param name="WEIGHT" type="float" />
						</accessor>
					</technique_common>
				</source>
				<joints>
					<input semantic="JOINT" source="#mesh_0_PressShadowMaterial_PressShadow_ctrl_joint_names_id" />
					<input semantic="INV_BIND_MATRIX" source="#mesh_0_PressShadowMaterial_PressShadow_ctrl_inv_bind_poses_id" />
				</joints>
				<vertex_weights count="12">
					<input semantic="JOINT" source="#mesh_0_PressShadowMaterial_PressShadow_ctrl_joint_names_id" offset="0" />
					<input semantic="WEIGHT" source="#mesh_0_PressShadowMaterial_PressShadow_ctrl_weights_id" offset="1" />
					<vcount>1 1 1 1 1 1 1 1 1 1 1 1</vcount>
					<v>5 0 5 0 5 0 5 0 5 0 5 0 5 0 5 0 5 0 5 0 5 0 5 0</v>
				</vertex_weights>
			</skin>
		</controller>
		<controller id="mesh_1_PressShadowMaterial_PressShadow_ctrl_id">
			<skin source="#mesh_1_PressShadowMaterial_PressShadow_id">
				<bind_shape_matrix>1 0 0 0 0 1 0 0 0 0 1 0 0 0 0 1</bind_shape_matrix>
				<source id="mesh_1_PressShadowMaterial_PressShadow_ctrl_joint_names_id">
					<Name_array id="mesh_1_PressShadowMaterial_PressShadow_ctrl_joint_names_array_id" count="36">pm0215_00_nyula Origin Waist Spine1 Spine2 Head LEar1 LEar2 REar LArm LForeArm LHand LFinger RArm RForeArm RHand RFinger Hips LThigh LLeg LFoot LToe RThigh RLeg RFoot RToe TailA1 TailA2 TailB1 TailB2 TailC1 TailC2 pm0215_00_IrisSkin pm0215_00_BodySkin VriVis01 pm0215_01_LeftEarSkin</Name_array>
					<technique_common>
						<accessor source="#mesh_1_PressShadowMaterial_PressShadow_ctrl_joint_names_array_id" count="36" stride="1">
							<param name="JOINT" type="Name" />
						</accessor>
					</technique_common>
				</source>
				<source id="mesh_1_PressShadowMaterial_PressShadow_ctrl_inv_bind_poses_id">
					<float_array id="mesh_1_PressShadowMaterial_PressShadow_ctrl_inv_bind_poses_array_id" count="576">1 0 0 0 0 1 0 0 0 0 1 0 0 0 0 1 1 0 0 0 0 1 0 0 0 0 1 0 0 0 0 1 0 0.9951661 -0.09820546 -25.2997 -1 3.1391647E-07 -2.3275544E-15 -7.976204E-06 0 0.098205455 0.9951662 -2.3550153 0 0 0 1 0 0.9951661 -0.09820546 -25.2997 -1 3.1391647E-07 -2.3275544E-15 -7.976204E-06 0 0.098205455 0.9951662 -2.3550153 0 0 0 1 0 0.9938606 -0.11064002 -31.602274 -1 3.1391647E-07 0 -7.976204E-06 0 0.11064002 0.9938605 -2.7503433 0 0 0 1 0 1 0 -41.559532 -1 3.1391647E-07 0 -7.976204E-06 0 0 1 1.8592186 0 0 0 1 0.43743032 0.5868647 -0.6813548 -36.14274 -0.8017789 0.59762067 0 -31.128069 0.40719178 0.54629594 0.7319533 -42.46494 0 0 0 1 0.43743032 0.5868647 -0.6813548 -47.47199 -0.8017789 0.59762067 0 -31.12807 0.40719178 0.54629594 0.7319533 -42.464943 0 0 0 1 -0.44256744 0.89555293 -0.04603172 -61.50382 -0.89650327 -0.44303718 -1.6486925E-09 21.053148 -0.020393768 0.041267585 0.99893993 -5.1827173 -0 0 0 1 1 -1.9272761E-09 -3.4731723E-08 -3.756076 1.9272477E-09 1 1.0835923E-14 -38.296803 3.4731727E-08 -6.6937626E-17 1 2.1709824 0 0 0 1 1 -1.9272761E-09 -3.4731723E-08 -22.18914 1.9272477E-09 1 1.0835923E-14 -38.296803 3.4731727E-08 -6.6937626E-17 1 2.1709826 0 0 0 1 0.9993128 0.0370655 -3.4707856E-08 -36.695923 -0.0370655 0.99931276 1.2873597E-09 -36.962044 3.4159097E-08 8.722698E-09 1 2.170778 0 0 0 1 0.99954134 0.030287368 -3.4715793E-08 -49.26845 -0.030287368 0.9995413 1.0519434E-09 -37.297047 3.4450196E-08 8.497885E-09 1 2.170778 0 0 0 1 -1 6.2590567E-07 -3.4731723E-08 -3.75609 -6.259057E-07 -1 -1.0835924E-14 38.296795 -3.4731727E-08 2.1738785E-14 1 2.170984 -0 0 0 1 -1 6.2590567E-07 -3.4731723E-08 -22.18912 -6.259057E-07 -1 -1.0835924E-14 38.2968 -3.4731727E-08 2.1738785E-14 1 2.170984 -0 0 0 1 -0.99931276 0.037066128 -3.4707853E-08 -36.69595 -0.037066124 -0.99931276 -1.2873596E-09 36.96204 -3.4159093E-08 8.722719E-09 1 2.1707737 -0 0 0 1 -0.9995413 0.030287994 -3.4715793E-08 -49.26845 -0.030287992 -0.9995413 -1.0519433E-09 37.297 -3.445019E-08 8.497907E-09 1 2.1707737 -0 0 0 1 0.125 -0.99579287 -0.09163328 25.28887 1 -6.381828E-07 3.1999402E-08 1.6219894E-05 0 -0.09163329 0.99579287 2.4686253 0 -0 0 1 0 -0.9996554 0.026245989 17.026245 1 -6.3818277E-07 3.19994E-08 -6.112303 0 0.02624599 0.99965537 0.99965537 0 0 0 1 -0.125 -0.96959865 -0.24470071 10.082373 1 -6.381828E-07 3.1999406E-08 -6.1123013 0 -0.2447007 0.96959865 3.635995 0 -0 0 1 0 0 1 0 1 -6.388873E-07 3.1999402E-08 -6.112302 0 1.0000001 1.9446018E-06 -4.5729876 0 0 0 1 0 0 1 0 1 -6.388873E-07 3.1999402E-08 -6.112302 0 1.0000001 1.9446018E-06 -2.0345201 0 0 0 1 0 -0.9996554 0.026245989 16.026655 1 -6.3818277E-07 3.19994E-08 6.112335 0 0.02624599 0.99965537 1.015275 0 0 0 1 -0.125 -0.96959865 -0.24470071 9.082373 1 -6.381828E-07 3.1999406E-08 6.112336 0 -0.2447007 0.96959865 3.635995 0 -0 0 1 0 0 1 0 1 -6.388873E-07 3.1999402E-08 6.1123357 0 1.0000001 1.9446018E-06 -4.57305 0 0 0 1 0 0 1 0 1 -6.388873E-07 3.1999402E-08 6.112336 0 1.0000001 1.9446018E-06 -2.0345824 0 0 0 1 0 0.48196602 -0.8761899 -20.015163 -1 9.626533E-07 -2.1414823E-09 -2.4611994E-05 0 0.8761899 0.48196614 -19.370281 0 0 0 1 0 0.48196602 -0.8761899 -31.058857 -1 9.626533E-07 -2.1414823E-09 -2.4611994E-05 0 0.8761899 0.48196614 -19.370281 0 0 0 1 0 -0.0012817383 -0.9999991 -8.34375 -0.99999994 3.123405E-07 -3.156982E-08 -8.570787E-06 0 0.999999 -0.001318365 -23.47458 0 0 -0 1 0 -0.0012817383 -0.9999991 -21.214844 -0.99999994 3.123405E-07 -3.156982E-08 -8.570787E-06 0 0.999999 -0.001318365 -23.47458 0 0 -0 1 0 -0.48860073 -0.87250745 2.9402962 -0.99999994 9.2248166E-07 -1.9120567E-07 -2.3380682E-05 -0 0.8725074 -0.48860073 -21.976316 -0 0 -0 1 0 -0.48860073 -0.87250745 -6.398369 -0.99999994 9.2248166E-07 -1.9120567E-07 -2.3380682E-05 -0 0.8725074 -0.48860073 -21.976316 -0 0 -0 1 1 0 0 0 0 1 0 0 0 0 1 0 0 0 0 1 1 0 0 0 0 1 0 0 0 0 1 0 0 0 0 1 1 0 0 0 0 1 0 0 0 0 1 0 0 0 0 1 1 0 0 0 0 1 0 0 0 0 1 0 0 0 0 1</float_array>
					<technique_common>
						<accessor source="#mesh_1_PressShadowMaterial_PressShadow_ctrl_inv_bind_poses_array_id" count="36" stride="16">
							<param name="TRANSFORM" type="float4x4" />
						</accessor>
					</technique_common>
				</source>
				<source id="mesh_1_PressShadowMaterial_PressShadow_ctrl_weights_id">
					<float_array id="mesh_1_PressShadowMaterial_PressShadow_ctrl_weights_array_id" count="307">1 0 0.84313726 0.15686275 0.99215686 0.007843138 0.9843137 0.015686275 0.003921569 0.99607843 0.07058824 0.92941177 0.011764706 0.9882353 0.9372549 0.0627451 0.83137256 0.16862746 0.22352941 0.7764706 0.23137255 0.76862746 0.98039216 0.019607844 0.57254905 0.42745098 0.043137256 0.95686275 0.56078434 0.4392157 0.24313726 0.75686276 0.972549 0.02745098 0.5529412 0.44705883 0.93333334 0.06666667 1 0.6 0.4 0.050980393 0.9411765 0.007843138 0.05882353 0.03137255 0.9019608 0.34117648 0.65882355 0.11372549 0.8784314 0.8509804 0.14901961 0.9529412 0.015686275 0.0627451 0.92941177 0.57254905 0.42745098 0.32156864 0.67058825 0.21176471 0.7882353 0.17254902 0.827451 0.8862745 0.98039216 0.019607844 0.9882353 0.011764706 0.96862745 1 0.9843137 0.6509804 0.14117648 0.20784314 0.22352941 0.7764706 0.03137255 0.9019608 0.06666667 0.34117648 0.65882355 0.48235294 0.039215688 0.47843137 0.043137256 0.95686275 0.56078434 0.4392157 0.42352942 0.5764706 0.57254905 0.42745098 0.07058824 0.92156863 0.007843138 0.3529412 0.64705884 0.62352943 0.36862746 0.37254903 0.627451 0.78039217 0.10980392 0.015686275 0.9843137 0.32156864 0.67058825 0.101960786 0.8980392 0.0627451 0.92941177 0.9372549 0.4509804 0.54901963 0 0.11372549 0.8784314 0.22352941 0.7764706 0.08235294 0.039215688 0.03137255 0.8392157 0.12941177 0.27058825 0.7294118 0.21176471 0.7882353 0.078431375 0.92156863 0.2 0.8 0.17254902 0.827451 0.105882354 0.85882354 0.03529412 0.39215687 0.60784316 0.6117647 0.3882353 0.8627451 0.13725491 1 0.84313726 0.15686275 0.99215686 0.007843138 0.83137256 0.16862746 0.9372549 0.0627451 0.10980392 0.08235294 0.8901961 0.02745098 0.23137255 0.76862746 0.11372549 0.8862745 0.043137256 0.09411765 0.6 0.4 0.972549 0.24313726 0.75686276 0.08627451 0.9137255 0.57254905 0.42745098 0.93333334 0.06666667 0.5529412 0.44705883 0.05490196 0.94509804 1 0.3019608 0.69803923 0.023529412 0.5372549 0.4392157 0.8627451 0.13725491 0 0.99215686 0.007843138 0.83137256 0.16862746 0.9372549 0.0627451 0.42352942 0.5764706 0.11372549 0.8862745 0.62352943 0.36862746 0.32156864 0.67058825 0.22352941 0.7764706 0.03137255 0.9019608 0.011764706 0.49019608 0.6 0.3764706 0.37254903 0.627451 0.4509804 0.54901963 0.84705883 0.039215688 0.3529412 0.64705884 0.101960786 0.7882353 0.10980392 0.34117648 0.65882355 0.023529412 0.5882353 0.3882353 0.18039216 0.78039217 0.84313726 0.15686275 0.9372549 0.0627451 1 0 0.99215686 0.007843138 0.22352941 0.7764706 0.11372549 0.8980392 0.6117647 0.8627451 0.13725491 0.09803922 0.9019608 0.5019608 0.49411765 0.003921569 0.14509805 0.85490197 0.49803922 0.3019608 0.69803923 0.84705883 0.039215688 0.011764706 0.49019608 0.023529412 0.5372549 0.4392157 0.05490196 0.94509804 0.019607844 0.47843137 0.8784314 0.23137255 0.76862746 0.56078434 0.34117648 0.65882355 0.99215686 0.007843138 0.39215687 0.60784316 1 0 0.22352941 0.7764706 0.9882353 0.57254905 0.42745098 0.37254903 0.627451 0.101960786 0.7882353 0.10980392 0.6 0.3764706 0.011764706 0.49019608 0.5019608 0.3019608 0.69803923 0.023529412 0.5882353 0.3882353 0.18039216 0.78039217 0.039215688 0.11372549 0.8784314 0.34117648 0.65882355 0.23137255 0.76862746 0.5372549 0.4392157</float_array>
					<technique_common>
						<accessor source="#mesh_1_PressShadowMaterial_PressShadow_ctrl_weights_array_id" count="307" stride="1">
							<param name="WEIGHT" type="float" />
						</accessor>
					</technique_common>
				</source>
				<joints>
					<input semantic="JOINT" source="#mesh_1_PressShadowMaterial_PressShadow_ctrl_joint_names_id" />
					<input semantic="INV_BIND_MATRIX" source="#mesh_1_PressShadowMaterial_PressShadow_ctrl_inv_bind_poses_id" />
				</joints>
				<vertex_weights count="324">
					<input semantic="JOINT" source="#mesh_1_PressShadowMaterial_PressShadow_ctrl_joint_names_id" offset="0" />
					<input semantic="WEIGHT" source="#mesh_1_PressShadowMaterial_PressShadow_ctrl_weights_id" offset="1" />
					<vcount>1 1 1 1 2 2 2 2 1 1 2 2 2 1 1 2 1 2 2 1 2 1 2 1 2 1 1 1 1 1 2 2 1 1 1 1 1 1 1 1 2 1 2 2 2 2 2 1 2 1 2 2 2 1 1 1 1 1 1 1 1 1 2 1 2 2 1 1 2 1 2 2 2 2 2 2 2 2 2 2 2 2 2 2 1 1 1 1 1 2 2 2 2 2 2 2 2 1 2 3 1 2 2 2 3 2 2 3 2 2 2 2 3 2 3 2 3 3 2 3 3 3 2 2 2 2 2 1 2 1 2 2 1 1 2 3 2 2 3 2 3 2 3 2 2 2 2 3 2 3 2 3 2 2 2 2 2 3 3 2 3 2 2 3 2 2 3 2 2 2 2 3 2 3 3 2 2 2 2 3 2 2 3 2 3 2 3 2 2 2 2 2 2 2 2 2 2 2 2 2 3 3 2 2 2 3 1 2 1 2 2 2 2 2 2 2 1 1 1 2 1 2 1 3 2 2 3 1 2 2 2 1 1 1 2 1 2 2 2 3 3 2 3 3 4 2 3 2 3 2 3 2 3 2 3 3 3 3 2 2 2 2 2 3 2 2 3 2 3 3 2 2 2 2 1 1 1 1 2 3 2 3 2 3 4 3 3 2 3 3 4 2 3 2 2 2 2 2 2 2 2 2 2 2 2 2 2 2 1 2 3 3 4 3 2 2 3 3 3 2 2 3 1 3</vcount>
					<v>5 0 5 0 5 0 5 0 5 0 8 1 5 2 8 3 5 4 8 5 5 6 6 7 5 0 5 0 4 8 5 9 4 10 5 11 4 12 5 13 5 0 5 0 5 14 8 15 5 0 5 0 8 1 5 16 8 17 5 0 5 4 8 5 5 0 4 18 5 19 5 0 4 20 5 21 5 0 5 0 5 0 5 0 5 0 5 4 8 5 5 4 8 5 5 0 5 0 5 0 5 0 5 0 5 0 5 0 5 0 5 13 6 12 5 0 5 22 6 23 5 4 8 5 5 0 8 1 5 4 8 5 5 4 8 5 5 0 5 6 6 7 5 0 3 15 4 14 4 18 5 19 4 24 5 25 5 0 5 0 5 0 5 0 5 0 5 0 5 0 5 0 5 0 4 8 5 9 5 0 4 12 5 13 4 10 5 11 5 0 5 0 5 22 6 23 5 0 5 6 6 7 5 6 6 7 5 22 6 23 3 26 4 27 4 12 5 13 4 12 5 13 4 20 5 21 4 28 5 29 4 28 5 29 3 26 4 27 4 12 5 13 4 18 5 19 4 28 5 29 4 12 5 13 5 0 5 0 5 0 5 0 5 0 15 30 16 31 15 32 16 33 14 34 15 35 14 34 15 35 15 36 16 37 15 30 16 31 14 34 15 35 15 32 16 33 16 38 15 39 16 40 14 41 15 42 16 43 16 38 15 44 16 42 15 24 16 25 15 36 16 37 4 45 13 46 14 37 4 47 13 48 14 34 15 35 4 49 13 50 14 43 15 32 16 33 14 51 15 52 15 39 16 40 14 34 15 35 4 45 13 46 14 37 14 34 15 35 14 45 15 53 16 54 15 24 16 25 3 55 4 56 13 43 14 45 15 53 16 54 15 57 16 58 3 59 4 60 13 43 4 45 13 46 14 37 4 49 13 50 14 43 5 61 6 62 5 63 6 64 5 49 6 65 5 66 6 67 5 68 6 69 5 38 5 45 6 70 5 71 5 66 6 67 5 72 6 54 5 71 5 71 5 72 6 54 3 73 4 74 17 75 3 76 17 77 3 49 17 65 4 78 13 79 14 80 17 81 22 82 3 83 4 84 17 85 3 86 4 87 4 78 13 79 14 80 4 81 13 82 4 88 5 89 17 90 18 91 17 92 18 93 3 94 17 95 18 96 17 97 22 98 17 99 18 100 22 96 17 101 22 102 17 103 18 104 22 104 17 90 22 91 17 81 22 82 17 90 22 91 3 105 17 106 17 90 18 91 3 107 4 108 13 96 4 78 13 79 14 80 3 109 17 110 3 111 4 112 13 96 3 111 4 113 17 90 22 91 17 114 22 115 23 116 3 109 17 110 17 90 18 91 4 117 13 118 14 96 4 119 5 120 4 119 5 120 3 111 4 113 17 101 18 102 17 99 18 100 22 96 17 90 18 91 17 121 28 118 29 122 17 123 28 124 29 125 28 126 29 127 28 128 29 129 28 130 29 131 28 128 29 129 17 121 28 118 29 122 17 132 28 133 26 132 27 133 17 121 26 118 27 122 26 134 27 135 17 136 26 137 27 138 26 132 27 133 17 123 26 124 27 125 5 111 8 113 5 139 8 140 5 141 8 142 5 143 8 144 5 145 8 116 5 146 8 147 5 148 8 149 5 148 8 149 5 150 8 151 5 152 8 153 5 152 8 153 5 146 8 147 5 148 8 149 17 123 30 137 31 154 17 155 30 156 31 157 30 158 31 159 30 160 31 161 30 158 31 159 17 162 30 143 31 163 16 145 15 164 16 165 16 145 15 166 16 157 15 167 16 168 15 169 16 170 15 171 16 172 15 173 16 174 15 171 16 172 14 175 15 176 24 145 24 145 24 145 23 177 24 178 24 179 23 180 24 181 24 179 22 182 23 183 24 184 23 180 24 181 23 177 24 178 22 182 23 183 24 184 5 179 5 185 8 186 5 179 8 187 5 188 8 189 5 179 5 179 5 179 5 190 8 191 5 179 5 192 8 193 17 194 18 195 3 196 17 197 17 198 18 199 22 189 3 200 4 201 13 189 3 202 17 203 4 204 13 205 14 174 22 182 23 183 24 184 17 206 22 207 23 207 24 189 17 194 22 195 22 182 23 208 24 209 17 210 22 211 17 212 22 213 23 187 17 194 22 195 17 196 22 214 23 215 17 216 22 217 22 218 23 219 24 220 17 221 22 222 22 223 23 224 24 225 22 218 23 219 24 220 22 223 23 224 24 225 17 226 22 227 23 215 5 228 8 229 5 230 8 231 5 232 8 233 5 234 8 235 5 232 8 233 17 226 22 227 23 215 17 221 22 222 3 236 17 237 17 238 22 214 23 215 3 218 17 239 17 238 22 214 23 215 17 212 22 213 23 233 5 240 8 225 5 241 8 242 5 234 8 235 5 234 8 235 5 232 5 232 5 232 5 232 3 243 4 244 3 245 4 246 17 247 3 248 4 249 3 250 4 245 17 233 23 251 24 252 17 238 22 253 23 254 17 255 22 256 23 256 24 235 17 226 22 227 23 254 22 257 23 258 24 259 23 260 24 261 22 262 23 245 24 263 22 257 23 258 24 259 17 255 22 256 23 256 24 235 23 251 24 252 4 238 13 264 14 235 4 265 5 266 4 236 5 237 4 267 5 259 4 268 13 269 5 270 8 271 5 272 8 273 5 270 8 271 5 274 8 275 5 272 8 273 5 270 8 271 4 276 5 277 4 255 5 278 4 267 5 259 4 276 5 277 4 279 5 280 5 274 17 281 22 282 22 283 23 284 24 285 22 257 23 286 24 287 17 288 22 289 23 289 24 271 22 262 23 290 24 263 23 291 24 292 23 291 24 292 22 293 23 294 24 295 17 296 22 297 23 298 4 299 13 300 14 271 4 301 13 302 4 303 5 304 22 293 23 286 24 287 24 274 22 293 23 305 24 306</v>
				</vertex_weights>
			</skin>
		</controller>
		<controller id="mesh_2_PressShadowMaterial_PressShadow_ctrl_id">
			<skin source="#mesh_2_PressShadowMaterial_PressShadow_id">
				<bind_shape_matrix>1 0 0 0 0 1 0 0 0 0 1 0 0 0 0 1</bind_shape_matrix>
				<source id="mesh_2_PressShadowMaterial_PressShadow_ctrl_joint_names_id">
					<Name_array id="mesh_2_PressShadowMaterial_PressShadow_ctrl_joint_names_array_id" count="36">pm0215_00_nyula Origin Waist Spine1 Spine2 Head LEar1 LEar2 REar LArm LForeArm LHand LFinger RArm RForeArm RHand RFinger Hips LThigh LLeg LFoot LToe RThigh RLeg RFoot RToe TailA1 TailA2 TailB1 TailB2 TailC1 TailC2 pm0215_00_IrisSkin pm0215_00_BodySkin VriVis01 pm0215_01_LeftEarSkin</Name_array>
					<technique_common>
						<accessor source="#mesh_2_PressShadowMaterial_PressShadow_ctrl_joint_names_array_id" count="36" stride="1">
							<param name="JOINT" type="Name" />
						</accessor>
					</technique_common>
				</source>
				<source id="mesh_2_PressShadowMaterial_PressShadow_ctrl_inv_bind_poses_id">
					<float_array id="mesh_2_PressShadowMaterial_PressShadow_ctrl_inv_bind_poses_array_id" count="576">1 0 0 0 0 1 0 0 0 0 1 0 0 0 0 1 1 0 0 0 0 1 0 0 0 0 1 0 0 0 0 1 0 0.9951661 -0.09820546 -25.2997 -1 3.1391647E-07 -2.3275544E-15 -7.976204E-06 0 0.098205455 0.9951662 -2.3550153 0 0 0 1 0 0.9951661 -0.09820546 -25.2997 -1 3.1391647E-07 -2.3275544E-15 -7.976204E-06 0 0.098205455 0.9951662 -2.3550153 0 0 0 1 0 0.9938606 -0.11064002 -31.602274 -1 3.1391647E-07 0 -7.976204E-06 0 0.11064002 0.9938605 -2.7503433 0 0 0 1 0 1 0 -41.559532 -1 3.1391647E-07 0 -7.976204E-06 0 0 1 1.8592186 0 0 0 1 0.43743032 0.5868647 -0.6813548 -36.14274 -0.8017789 0.59762067 0 -31.128069 0.40719178 0.54629594 0.7319533 -42.46494 0 0 0 1 0.43743032 0.5868647 -0.6813548 -47.47199 -0.8017789 0.59762067 0 -31.12807 0.40719178 0.54629594 0.7319533 -42.464943 0 0 0 1 -0.44256744 0.89555293 -0.04603172 -61.50382 -0.89650327 -0.44303718 -1.6486925E-09 21.053148 -0.020393768 0.041267585 0.99893993 -5.1827173 -0 0 0 1 1 -1.9272761E-09 -3.4731723E-08 -3.756076 1.9272477E-09 1 1.0835923E-14 -38.296803 3.4731727E-08 -6.6937626E-17 1 2.1709824 0 0 0 1 1 -1.9272761E-09 -3.4731723E-08 -22.18914 1.9272477E-09 1 1.0835923E-14 -38.296803 3.4731727E-08 -6.6937626E-17 1 2.1709826 0 0 0 1 0.9993128 0.0370655 -3.4707856E-08 -36.695923 -0.0370655 0.99931276 1.2873597E-09 -36.962044 3.4159097E-08 8.722698E-09 1 2.170778 0 0 0 1 0.99954134 0.030287368 -3.4715793E-08 -49.26845 -0.030287368 0.9995413 1.0519434E-09 -37.297047 3.4450196E-08 8.497885E-09 1 2.170778 0 0 0 1 -1 6.2590567E-07 -3.4731723E-08 -3.75609 -6.259057E-07 -1 -1.0835924E-14 38.296795 -3.4731727E-08 2.1738785E-14 1 2.170984 -0 0 0 1 -1 6.2590567E-07 -3.4731723E-08 -22.18912 -6.259057E-07 -1 -1.0835924E-14 38.2968 -3.4731727E-08 2.1738785E-14 1 2.170984 -0 0 0 1 -0.99931276 0.037066128 -3.4707853E-08 -36.69595 -0.037066124 -0.99931276 -1.2873596E-09 36.96204 -3.4159093E-08 8.722719E-09 1 2.1707737 -0 0 0 1 -0.9995413 0.030287994 -3.4715793E-08 -49.26845 -0.030287992 -0.9995413 -1.0519433E-09 37.297 -3.445019E-08 8.497907E-09 1 2.1707737 -0 0 0 1 0.125 -0.99579287 -0.09163328 25.28887 1 -6.381828E-07 3.1999402E-08 1.6219894E-05 0 -0.09163329 0.99579287 2.4686253 0 -0 0 1 0 -0.9996554 0.026245989 17.026245 1 -6.3818277E-07 3.19994E-08 -6.112303 0 0.02624599 0.99965537 0.99965537 0 0 0 1 -0.125 -0.96959865 -0.24470071 10.082373 1 -6.381828E-07 3.1999406E-08 -6.1123013 0 -0.2447007 0.96959865 3.635995 0 -0 0 1 0 0 1 0 1 -6.388873E-07 3.1999402E-08 -6.112302 0 1.0000001 1.9446018E-06 -4.5729876 0 0 0 1 0 0 1 0 1 -6.388873E-07 3.1999402E-08 -6.112302 0 1.0000001 1.9446018E-06 -2.0345201 0 0 0 1 0 -0.9996554 0.026245989 16.026655 1 -6.3818277E-07 3.19994E-08 6.112335 0 0.02624599 0.99965537 1.015275 0 0 0 1 -0.125 -0.96959865 -0.24470071 9.082373 1 -6.381828E-07 3.1999406E-08 6.112336 0 -0.2447007 0.96959865 3.635995 0 -0 0 1 0 0 1 0 1 -6.388873E-07 3.1999402E-08 6.1123357 0 1.0000001 1.9446018E-06 -4.57305 0 0 0 1 0 0 1 0 1 -6.388873E-07 3.1999402E-08 6.112336 0 1.0000001 1.9446018E-06 -2.0345824 0 0 0 1 0 0.48196602 -0.8761899 -20.015163 -1 9.626533E-07 -2.1414823E-09 -2.4611994E-05 0 0.8761899 0.48196614 -19.370281 0 0 0 1 0 0.48196602 -0.8761899 -31.058857 -1 9.626533E-07 -2.1414823E-09 -2.4611994E-05 0 0.8761899 0.48196614 -19.370281 0 0 0 1 0 -0.0012817383 -0.9999991 -8.34375 -0.99999994 3.123405E-07 -3.156982E-08 -8.570787E-06 0 0.999999 -0.001318365 -23.47458 0 0 -0 1 0 -0.0012817383 -0.9999991 -21.214844 -0.99999994 3.123405E-07 -3.156982E-08 -8.570787E-06 0 0.999999 -0.001318365 -23.47458 0 0 -0 1 0 -0.48860073 -0.87250745 2.9402962 -0.99999994 9.2248166E-07 -1.9120567E-07 -2.3380682E-05 -0 0.8725074 -0.48860073 -21.976316 -0 0 -0 1 0 -0.48860073 -0.87250745 -6.398369 -0.99999994 9.2248166E-07 -1.9120567E-07 -2.3380682E-05 -0 0.8725074 -0.48860073 -21.976316 -0 0 -0 1 1 0 0 0 0 1 0 0 0 0 1 0 0 0 0 1 1 0 0 0 0 1 0 0 0 0 1 0 0 0 0 1 1 0 0 0 0 1 0 0 0 0 1 0 0 0 0 1 1 0 0 0 0 1 0 0 0 0 1 0 0 0 0 1</float_array>
					<technique_common>
						<accessor source="#mesh_2_PressShadowMaterial_PressShadow_ctrl_inv_bind_poses_array_id" count="36" stride="16">
							<param name="TRANSFORM" type="float4x4" />
						</accessor>
					</technique_common>
				</source>
				<source id="mesh_2_PressShadowMaterial_PressShadow_ctrl_weights_id">
					<float_array id="mesh_2_PressShadowMaterial_PressShadow_ctrl_weights_array_id" count="147">1 0.9607843 0.039215688 0.023529412 0.5176471 0.45882353 0.05490196 0.94509804 0.3019608 0.69803923 0.0627451 0.9372549 0.9764706 0.6 0.3764706 0.007843138 0.99215686 0.5882353 0.3882353 0.09803922 0.9019608 0.03137255 0.96862745 0.09019608 0.9098039 0.101960786 0.7882353 0.10980392 0.972549 0.02745098 0.24313726 0.75686276 0.5529412 0.44705883 0.93333334 0.06666667 1 0.4 0.34117648 0.65882355 0.11372549 0.8784314 0.14117648 0.8509804 0.050980393 0.9411765 0.14901961 0.57254905 0.42745098 0.08627451 0.9137255 0.007843138 0.6 0.32156864 0.67058825 0.09803922 0.9019608 0.023529412 0.9764706 0.99215686 0.09019608 0.9098039 0.03137255 0.96862745 0.972549 0.02745098 0.24313726 0.75686276 0.05882353 0.93333334 0.06666667 0.101960786 0.8980392 0.0627451 0.9372549 0.07058824 0.92156863 0.48235294 0.039215688 0.47843137 0.57254905 0.42745098 0.34117648 0.65882355 0.043137256 0.95686275 0.56078434 0.4392157 0.32156864 0.67058825 0.007843138 0.4509804 0.54901963 0 0.42352942 0.5764706 0.011764706 0.49019608 0.11372549 0.84705883 0.3019608 0.69803923 0.023529412 0.5176471 0.45882353 0.6 0.3764706 0.5882353 0.3882353 0.62352943 0.36862746 0.37254903 0.627451 0.101960786 0.7882353 0.10980392 0.9764706 0.05490196 0.94509804 0.8784314 0.22352941 0.7764706 0.56078434 0.4392157 0.34117648 0.65882355 0.57254905 0.42745098 0.9607843 0.039215688 0.0627451 0.9372549 1 0.11372549 0.84705883 0.8980392 0.07058824 0.92156863 0.007843138 0.4509804 0.54901963 0 0.09019608 0.9098039 0.023529412 0.09803922 0.9019608</float_array>
					<technique_common>
						<accessor source="#mesh_2_PressShadowMaterial_PressShadow_ctrl_weights_array_id" count="147" stride="1">
							<param name="WEIGHT" type="float" />
						</accessor>
					</technique_common>
				</source>
				<joints>
					<input semantic="JOINT" source="#mesh_2_PressShadowMaterial_PressShadow_ctrl_joint_names_id" />
					<input semantic="INV_BIND_MATRIX" source="#mesh_2_PressShadowMaterial_PressShadow_ctrl_inv_bind_poses_id" />
				</joints>
				<vertex_weights count="186">
					<input semantic="JOINT" source="#mesh_2_PressShadowMaterial_PressShadow_ctrl_joint_names_id" offset="0" />
					<input semantic="WEIGHT" source="#mesh_2_PressShadowMaterial_PressShadow_ctrl_weights_id" offset="1" />
					<vcount>1 1 2 1 1 1 3 2 2 2 2 3 2 1 1 1 2 2 2 1 3 1 2 2 1 2 2 2 1 1 2 3 2 2 1 1 2 1 2 2 2 2 2 3 2 2 2 2 2 2 2 2 2 2 1 2 2 1 2 2 3 2 2 3 2 3 2 3 2 2 2 2 3 2 2 2 3 2 3 1 1 2 2 2 1 2 1 1 2 1 1 1 2 2 2 2 2 2 2 2 1 1 2 2 2 2 2 2 3 2 3 2 3 2 3 3 3 2 2 2 2 2 2 2 2 3 3 2 4 3 2 2 2 3 3 2 3 2 3 3 2 3 3 2 3 3 3 2 2 3 2 3 3 3 4 3 2 2 2 2 2 2 3 2 3 2 3 2 3 2 3 1 3 2 3 3 2 2 2 2 2 2 3 2 2 1</vcount>
					<v>21 0 20 0 20 1 21 2 20 0 20 0 20 0 18 3 19 4 20 5 19 6 20 7 19 8 20 9 20 10 21 11 20 3 21 12 18 3 19 13 20 14 20 15 21 16 21 0 21 0 21 0 20 3 21 12 20 15 21 16 19 3 20 12 20 0 18 3 19 17 20 18 21 0 20 19 21 20 24 21 25 22 25 0 24 3 25 12 24 15 25 16 24 10 25 11 25 0 25 0 24 10 25 11 22 3 23 13 24 14 24 23 25 24 24 1 25 2 24 0 24 0 24 1 25 2 24 0 24 21 25 22 24 1 25 2 23 8 24 9 24 15 25 16 24 3 25 12 22 25 23 26 24 27 23 8 24 9 24 1 25 2 11 28 12 29 11 30 12 31 10 32 11 33 10 32 11 33 11 34 12 35 11 30 12 31 10 32 11 33 11 28 12 29 12 36 11 13 12 37 10 32 11 33 12 36 10 32 11 33 4 38 9 39 4 40 9 41 10 15 10 32 11 33 4 38 9 39 4 42 9 43 10 15 11 28 12 29 10 44 11 45 12 15 10 43 11 46 4 42 9 43 10 15 11 47 12 48 11 49 12 50 11 47 12 48 11 34 12 35 10 44 11 45 12 51 11 52 12 37 10 43 11 46 11 47 12 48 10 44 11 45 12 51 4 38 9 39 3 53 4 54 9 51 21 36 21 36 20 55 21 56 20 57 21 58 20 51 21 59 21 36 20 55 21 56 21 36 21 36 20 51 21 59 25 36 25 36 25 36 24 51 25 59 24 57 25 58 24 60 25 61 24 57 25 58 24 60 25 61 24 62 25 63 24 62 25 63 24 51 25 59 12 36 12 36 11 52 12 37 11 64 12 65 11 66 12 67 11 68 12 45 11 47 12 48 11 69 12 70 10 44 11 45 12 51 11 47 12 48 4 42 9 43 10 51 3 71 17 72 4 42 9 43 10 51 3 73 4 74 3 75 17 76 18 51 3 53 4 54 9 51 3 77 4 78 17 79 4 80 5 81 4 82 9 83 4 82 9 83 3 84 4 85 4 86 5 87 3 73 4 74 4 80 5 81 4 82 9 83 3 88 4 89 9 90 17 91 18 92 19 93 17 94 18 95 17 96 18 97 19 97 20 90 17 98 18 99 19 78 19 100 20 101 17 80 18 81 19 100 20 101 18 102 19 103 20 104 18 102 19 105 20 106 19 100 20 101 17 91 18 92 19 93 17 94 18 95 17 98 18 99 19 78 18 102 19 105 20 106 17 94 18 95 18 102 19 107 20 108 17 109 18 110 22 90 17 111 18 112 18 102 19 107 20 108 18 113 19 114 20 115 18 113 19 114 20 115 17 94 18 95 19 102 20 116 18 113 19 114 20 115 19 117 20 118 18 102 19 103 20 104 18 102 19 107 20 108 18 113 19 114 20 115 17 96 18 97 19 97 20 90 4 98 9 119 10 90 4 120 5 121 4 122 5 123 4 124 9 125 4 124 9 125 4 126 5 127 24 102 25 116 22 102 23 107 24 108 23 100 24 101 22 113 23 114 24 115 24 128 25 129 22 102 23 105 24 106 24 130 25 131 22 113 23 114 24 115 24 102 25 116 22 102 23 105 24 106 24 132 17 133 18 134 19 129 3 113 17 135 3 136 17 137 18 138 17 139 18 140 19 141 17 126 18 127 24 142 25 143 24 144 25 116 24 128 25 129 4 124 9 125 4 120 5 121 4 133 9 119 10 138 20 145 21 146 20 144 21 116 20 132</v>
				</vertex_weights>
			</skin>
		</controller>
		<controller id="mesh_3_PressShadowMaterial_PressShadow_ctrl_id">
			<skin source="#mesh_3_PressShadowMaterial_PressShadow_id">
				<bind_shape_matrix>1 0 0 0 0 1 0 0 0 0 1 0 0 0 0 1</bind_shape_matrix>
				<source id="mesh_3_PressShadowMaterial_PressShadow_ctrl_joint_names_id">
					<Name_array id="mesh_3_PressShadowMaterial_PressShadow_ctrl_joint_names_array_id" count="36">pm0215_00_nyula Origin Waist Spine1 Spine2 Head LEar1 LEar2 REar LArm LForeArm LHand LFinger RArm RForeArm RHand RFinger Hips LThigh LLeg LFoot LToe RThigh RLeg RFoot RToe TailA1 TailA2 TailB1 TailB2 TailC1 TailC2 pm0215_00_IrisSkin pm0215_00_BodySkin VriVis01 pm0215_01_LeftEarSkin</Name_array>
					<technique_common>
						<accessor source="#mesh_3_PressShadowMaterial_PressShadow_ctrl_joint_names_array_id" count="36" stride="1">
							<param name="JOINT" type="Name" />
						</accessor>
					</technique_common>
				</source>
				<source id="mesh_3_PressShadowMaterial_PressShadow_ctrl_inv_bind_poses_id">
					<float_array id="mesh_3_PressShadowMaterial_PressShadow_ctrl_inv_bind_poses_array_id" count="576">1 0 0 0 0 1 0 0 0 0 1 0 0 0 0 1 1 0 0 0 0 1 0 0 0 0 1 0 0 0 0 1 0 0.9951661 -0.09820546 -25.2997 -1 3.1391647E-07 -2.3275544E-15 -7.976204E-06 0 0.098205455 0.9951662 -2.3550153 0 0 0 1 0 0.9951661 -0.09820546 -25.2997 -1 3.1391647E-07 -2.3275544E-15 -7.976204E-06 0 0.098205455 0.9951662 -2.3550153 0 0 0 1 0 0.9938606 -0.11064002 -31.602274 -1 3.1391647E-07 0 -7.976204E-06 0 0.11064002 0.9938605 -2.7503433 0 0 0 1 0 1 0 -41.559532 -1 3.1391647E-07 0 -7.976204E-06 0 0 1 1.8592186 0 0 0 1 0.43743032 0.5868647 -0.6813548 -36.14274 -0.8017789 0.59762067 0 -31.128069 0.40719178 0.54629594 0.7319533 -42.46494 0 0 0 1 0.43743032 0.5868647 -0.6813548 -47.47199 -0.8017789 0.59762067 0 -31.12807 0.40719178 0.54629594 0.7319533 -42.464943 0 0 0 1 -0.44256744 0.89555293 -0.04603172 -61.50382 -0.89650327 -0.44303718 -1.6486925E-09 21.053148 -0.020393768 0.041267585 0.99893993 -5.1827173 -0 0 0 1 1 -1.9272761E-09 -3.4731723E-08 -3.756076 1.9272477E-09 1 1.0835923E-14 -38.296803 3.4731727E-08 -6.6937626E-17 1 2.1709824 0 0 0 1 1 -1.9272761E-09 -3.4731723E-08 -22.18914 1.9272477E-09 1 1.0835923E-14 -38.296803 3.4731727E-08 -6.6937626E-17 1 2.1709826 0 0 0 1 0.9993128 0.0370655 -3.4707856E-08 -36.695923 -0.0370655 0.99931276 1.2873597E-09 -36.962044 3.4159097E-08 8.722698E-09 1 2.170778 0 0 0 1 0.99954134 0.030287368 -3.4715793E-08 -49.26845 -0.030287368 0.9995413 1.0519434E-09 -37.297047 3.4450196E-08 8.497885E-09 1 2.170778 0 0 0 1 -1 6.2590567E-07 -3.4731723E-08 -3.75609 -6.259057E-07 -1 -1.0835924E-14 38.296795 -3.4731727E-08 2.1738785E-14 1 2.170984 -0 0 0 1 -1 6.2590567E-07 -3.4731723E-08 -22.18912 -6.259057E-07 -1 -1.0835924E-14 38.2968 -3.4731727E-08 2.1738785E-14 1 2.170984 -0 0 0 1 -0.99931276 0.037066128 -3.4707853E-08 -36.69595 -0.037066124 -0.99931276 -1.2873596E-09 36.96204 -3.4159093E-08 8.722719E-09 1 2.1707737 -0 0 0 1 -0.9995413 0.030287994 -3.4715793E-08 -49.26845 -0.030287992 -0.9995413 -1.0519433E-09 37.297 -3.445019E-08 8.497907E-09 1 2.1707737 -0 0 0 1 0.125 -0.99579287 -0.09163328 25.28887 1 -6.381828E-07 3.1999402E-08 1.6219894E-05 0 -0.09163329 0.99579287 2.4686253 0 -0 0 1 0 -0.9996554 0.026245989 17.026245 1 -6.3818277E-07 3.19994E-08 -6.112303 0 0.02624599 0.99965537 0.99965537 0 0 0 1 -0.125 -0.96959865 -0.24470071 10.082373 1 -6.381828E-07 3.1999406E-08 -6.1123013 0 -0.2447007 0.96959865 3.635995 0 -0 0 1 0 0 1 0 1 -6.388873E-07 3.1999402E-08 -6.112302 0 1.0000001 1.9446018E-06 -4.5729876 0 0 0 1 0 0 1 0 1 -6.388873E-07 3.1999402E-08 -6.112302 0 1.0000001 1.9446018E-06 -2.0345201 0 0 0 1 0 -0.9996554 0.026245989 16.026655 1 -6.3818277E-07 3.19994E-08 6.112335 0 0.02624599 0.99965537 1.015275 0 0 0 1 -0.125 -0.96959865 -0.24470071 9.082373 1 -6.381828E-07 3.1999406E-08 6.112336 0 -0.2447007 0.96959865 3.635995 0 -0 0 1 0 0 1 0 1 -6.388873E-07 3.1999402E-08 6.1123357 0 1.0000001 1.9446018E-06 -4.57305 0 0 0 1 0 0 1 0 1 -6.388873E-07 3.1999402E-08 6.112336 0 1.0000001 1.9446018E-06 -2.0345824 0 0 0 1 0 0.48196602 -0.8761899 -20.015163 -1 9.626533E-07 -2.1414823E-09 -2.4611994E-05 0 0.8761899 0.48196614 -19.370281 0 0 0 1 0 0.48196602 -0.8761899 -31.058857 -1 9.626533E-07 -2.1414823E-09 -2.4611994E-05 0 0.8761899 0.48196614 -19.370281 0 0 0 1 0 -0.0012817383 -0.9999991 -8.34375 -0.99999994 3.123405E-07 -3.156982E-08 -8.570787E-06 0 0.999999 -0.001318365 -23.47458 0 0 -0 1 0 -0.0012817383 -0.9999991 -21.214844 -0.99999994 3.123405E-07 -3.156982E-08 -8.570787E-06 0 0.999999 -0.001318365 -23.47458 0 0 -0 1 0 -0.48860073 -0.87250745 2.9402962 -0.99999994 9.2248166E-07 -1.9120567E-07 -2.3380682E-05 -0 0.8725074 -0.48860073 -21.976316 -0 0 -0 1 0 -0.48860073 -0.87250745 -6.398369 -0.99999994 9.2248166E-07 -1.9120567E-07 -2.3380682E-05 -0 0.8725074 -0.48860073 -21.976316 -0 0 -0 1 1 0 0 0 0 1 0 0 0 0 1 0 0 0 0 1 1 0 0 0 0 1 0 0 0 0 1 0 0 0 0 1 1 0 0 0 0 1 0 0 0 0 1 0 0 0 0 1 1 0 0 0 0 1 0 0 0 0 1 0 0 0 0 1</float_array>
					<technique_common>
						<accessor source="#mesh_3_PressShadowMaterial_PressShadow_ctrl_inv_bind_poses_array_id" count="36" stride="16">
							<param name="TRANSFORM" type="float4x4" />
						</accessor>
					</technique_common>
				</source>
				<source id="mesh_3_PressShadowMaterial_PressShadow_ctrl_weights_id">
					<float_array id="mesh_3_PressShadowMaterial_PressShadow_ctrl_weights_array_id" count="34">0.36078432 0.6392157 0.17254902 0.827451 0.67058825 0.32941177 0.15686275 0.84313726 0.039215688 0.79607844 0.16470589 0.40784314 0.5921569 0.44705883 0.5529412 0.019607844 0.73333335 0.24705882 0.23137255 0.76862746 0.34509805 0.654902 0.4 0.6 0.5411765 0.45882353 0.27058825 0.7294118 0.11372549 0.8862745 0.2 0.8 0.25490198 0.74509805</float_array>
					<technique_common>
						<accessor source="#mesh_3_PressShadowMaterial_PressShadow_ctrl_weights_array_id" count="34" stride="1">
							<param name="WEIGHT" type="float" />
						</accessor>
					</technique_common>
				</source>
				<joints>
					<input semantic="JOINT" source="#mesh_3_PressShadowMaterial_PressShadow_ctrl_joint_names_id" />
					<input semantic="INV_BIND_MATRIX" source="#mesh_3_PressShadowMaterial_PressShadow_ctrl_inv_bind_poses_id" />
				</joints>
				<vertex_weights count="17">
					<input semantic="JOINT" source="#mesh_3_PressShadowMaterial_PressShadow_ctrl_joint_names_id" offset="0" />
					<input semantic="WEIGHT" source="#mesh_3_PressShadowMaterial_PressShadow_ctrl_weights_id" offset="1" />
					<vcount>2 2 2 2 3 2 2 3 2 2 2 2 2 2 2 2 2</vcount>
					<v>5 0 6 1 6 2 7 3 6 4 7 5 6 6 7 7 5 8 6 9 7 10 5 11 6 12 6 13 7 14 5 15 6 16 7 17 5 18 6 19 5 20 6 21 5 22 6 23 6 24 7 25 6 26 7 27 6 28 7 29 5 30 6 31 5 32 6 33 6 30 7 31</v>
				</vertex_weights>
			</skin>
		</controller>
	</library_controllers>
	<library_visual_scenes>
		<visual_scene id="vs_model_id" name="vs_model">
			<node id="pm0215_00_nyula_bone_id" name="pm0215_00_nyula" sid="pm0215_00_nyula" type="JOINT">
				<matrix>1 0 0 0 0 1 0 0 0 0 1 0 0 0 0 1</matrix>
				<node id="Origin_bone_id" name="Origin" sid="Origin" type="JOINT">
					<matrix>1 0 0 0 0 1 0 0 0 0 1 0 0 0 0 1</matrix>
					<node id="Waist_bone_id" name="Waist" sid="Waist" type="JOINT">
						<matrix>3.1239907E-07 -1 3.082831E-08 0 0.9951662 3.1391647E-07 0.09820546 25.408682 -0.09820546 0 0.9951662 -0.140937 0 0 0 1</matrix>
						<node id="Spine1_bone_id" name="Spine1" sid="Spine1" type="JOINT">
							<matrix>1 0 0 0 0 1 0 0 0 0 1 0 0 0 0 1</matrix>
							<node id="Spine2_bone_id" name="Spine2" sid="Spine2" type="JOINT">
								<matrix>0.99992186 0 0.012502674 6.334489 0 1 0 0 -0.012502674 0 0.99992186 0 0 0 0 1</matrix>
								<node id="Head_bone_id" name="Head" sid="Head" type="JOINT">
									<matrix>0.99386054 0 -0.11064002 9.90781 0 1 0 0 0.11064002 0 0.99386054 0 0 0 0 1</matrix>
									<node id="LEar1_bone_id" name="LEar1" sid="LEar1" type="JOINT">
										<matrix>0.5868649 0.5976205 0.54629606 21.452572 -0.4374303 0.80177915 -0.4071916 -8.143463 -0.6813548 0 0.7319533 8.315543 0 0 0 1</matrix>
										<node id="LEar2_bone_id" name="LEar2" sid="LEar2" type="JOINT">
											<matrix>1 0 0 11.329249 0 1 0 0 0 0 1 0 0 0 0 1</matrix>
										</node>
									</node>
									<node id="REar_bone_id" name="REar" sid="REar" type="JOINT">
										<matrix>0.8955528 -0.44303748 0.041267585 23.061602 0.44256786 0.8965031 0.020393781 8.451085 -0.04603173 0 0.99894 4.205315 0 0 0 1</matrix>
									</node>
								</node>
								<node id="LArm_bone_id" name="LArm" sid="LArm" type="JOINT">
									<matrix>3.1391647E-07 0.99386054 -0.11064002 6.699606 -1 3.119892E-07 -3.4731723E-08 -3.756072 0 0.11064002 0.99386054 -0.670838 0 0 0 1</matrix>
									<node id="LForeArm_bone_id" name="LForeArm" sid="LForeArm" type="JOINT">
										<matrix>1 0 0 18.433064 0 1 0 0 0 0 1 0 0 0 0 1</matrix>
										<node id="LHand_bone_id" name="LHand" sid="LHand" type="JOINT">
											<matrix>0.9993128 -0.037065506 0 13.111548 0.037065506 0.9993128 0 0 0 0 1 0.000204 0 0 0 1</matrix>
											<node id="LFinger_bone_id" name="LFinger" sid="LFinger" type="JOINT">
												<matrix>0.999977 0.006781948 0 12.824342 -0.006781948 0.999977 0 0 0 0 1 0 0 0 0 1</matrix>
											</node>
										</node>
									</node>
								</node>
								<node id="RArm_bone_id" name="RArm" sid="RArm" type="JOINT">
									<matrix>3.1391647E-07 -0.99386054 -0.11064002 6.699602 1 3.119892E-07 3.4731723E-08 3.75607 0 -0.11064002 0.99386054 -0.67084 0 0 0 1</matrix>
									<node id="RForeArm_bone_id" name="RForeArm" sid="RForeArm" type="JOINT">
										<matrix>1 0 0 18.43303 0 1 0 0 0 0 1 0 0 0 0 1</matrix>
										<node id="RHand_bone_id" name="RHand" sid="RHand" type="JOINT">
											<matrix>0.9993128 0.037065506 0 13.1116 -0.037065506 0.9993128 0 0 0 0 1 0.00021 0 0 0 1</matrix>
											<node id="RFinger_bone_id" name="RFinger" sid="RFinger" type="JOINT">
												<matrix>0.999977 -0.006781948 0 12.824311 0.006781948 0.999977 0 4E-05 0 0 1 0 0 0 0 1</matrix>
											</node>
										</node>
									</node>
								</node>
							</node>
						</node>
						<node id="Hips_bone_id" name="Hips" sid="Hips" type="JOINT">
							<matrix>-0.98198044 -3.2584137E-07 -0.18898262 0 3.1996984E-07 -1 6.1578355E-08 0 -0.18898262 0 0.98198044 0 0 0 0 1</matrix>
							<node id="LThigh_bone_id" name="LThigh" sid="LThigh" type="JOINT">
								<matrix>0.9930448 0 -0.11773727 8.012269 0 1 0 6.112318 0.11773727 0 0.9930448 -0.559064 0 0 0 1</matrix>
								<node id="LLeg_bone_id" name="LLeg" sid="LLeg" type="JOINT">
									<matrix>0.9628422 0 0.27006447 7.680025 0 1 0 0 -0.27006447 0 0.9628422 0 0 0 0 1</matrix>
									<node id="LFoot_bone_id" name="LFoot" sid="LFoot" type="JOINT">
										<matrix>-0.24469882 0 -0.9695991 5.39497 0 1 0 0 0.9695991 0 -0.24469882 0 0 0 0 1</matrix>
										<node id="LToe_bone_id" name="LToe" sid="LToe" type="JOINT">
											<matrix>1 0 0 9.598964 0 1 0 0 0 0 1 -2.53844 0 0 0 1</matrix>
										</node>
									</node>
								</node>
							</node>
							<node id="RThigh_bone_id" name="RThigh" sid="RThigh" type="JOINT">
								<matrix>0.9930448 0 -0.11773727 8.012219 0 1 0 -6.11232 0.11773727 0 0.9930448 -0.559068 0 0 0 1</matrix>
								<node id="RLeg_bone_id" name="RLeg" sid="RLeg" type="JOINT">
									<matrix>0.9628422 0 0.27006447 7.680076 0 1 0 0 -0.27006447 0 0.9628422 1E-06 0 0 0 1</matrix>
									<node id="RFoot_bone_id" name="RFoot" sid="RFoot" type="JOINT">
										<matrix>-0.24469882 0 -0.9695991 5.394966 0 1 0 0 0.9695991 0 -0.24469882 -6E-06 0 0 0 1</matrix>
										<node id="RToe_bone_id" name="RToe" sid="RToe" type="JOINT">
											<matrix>1 0 0 9.598968 0 1 0 0 0 0 1 -2.538442 0 0 0 1</matrix>
										</node>
									</node>
								</node>
							</node>
							<node id="TailA1_bone_id" name="TailA1" sid="TailA1" type="JOINT">
								<matrix>-0.39965025 -3.2584137E-07 -0.9166677 -0.466309 1.3022259E-07 -1 2.9868826E-07 0 -0.9166677 0 0.39965025 -8.137297 0 0 0 1</matrix>
								<node id="TailA2_bone_id" name="TailA2" sid="TailA2" type="JOINT">
									<matrix>1 0 0 11.043689 0 1 0 0 0 0 1 0 0 0 0 1</matrix>
								</node>
							</node>
							<node id="TailB1_bone_id" name="TailB1" sid="TailB1" type="JOINT">
								<matrix>0.09294601 3.2443086E-07 -0.99567115 2.691466 0 -1 -3.2584137E-07 0 -0.99567115 3.0285655E-08 -0.09294601 -8.021364 0 0 0 1</matrix>
								<node id="TailB2_bone_id" name="TailB2" sid="TailB2" type="JOINT">
									<matrix>1 0 0 12.871913 0 1 0 0 0 0 1 0 0 0 0 1</matrix>
								</node>
							</node>
							<node id="TailC1_bone_id" name="TailC1" sid="TailC1" type="JOINT">
								<matrix>0.56649584 -2.6851436E-07 -0.8240646 5.513296 0 -1 3.2584137E-07 0 -0.8240646 -1.8458778E-07 -0.56649584 -7.557872 0 0 0 1</matrix>
								<node id="TailC2_bone_id" name="TailC2" sid="TailC2" type="JOINT">
									<matrix>1 0 0 9.338667 0 1 0 0 0 0 1 0 0 0 0 1</matrix>
								</node>
							</node>
						</node>
					</node>
				</node>
				<node id="pm0215_00_IrisSkin_bone_id" name="pm0215_00_IrisSkin" sid="pm0215_00_IrisSkin" type="JOINT">
					<matrix>1 0 0 0 0 1 0 0 0 0 1 0 0 0 0 1</matrix>
				</node>
				<node id="pm0215_00_BodySkin_bone_id" name="pm0215_00_BodySkin" sid="pm0215_00_BodySkin" type="JOINT">
					<matrix>1 0 0 0 0 1 0 0 0 0 1 0 0 0 0 1</matrix>
				</node>
				<node id="VriVis01_bone_id" name="VriVis01" sid="VriVis01" type="JOINT">
					<matrix>1 0 0 0 0 1 0 0 0 0 1 0 0 0 0 1</matrix>
					<node id="pm0215_01_LeftEarSkin_bone_id" name="pm0215_01_LeftEarSkin" sid="pm0215_01_LeftEarSkin" type="JOINT">
						<matrix>1 0 0 0 0 1 0 0 0 0 1 0 0 0 0 1</matrix>
					</node>
				</node>
			</node>
			<node id="vsn_mesh_0_PressShadowMaterial_PressShadow_id" name="vsn_mesh_0_PressShadowMaterial_PressShadow" type="NODE">
				<matrix>1 0 0 0 0 1 0 0 0 0 1 0 0 0 0 1</matrix>
				<instance_controller url="#mesh_0_PressShadowMaterial_PressShadow_ctrl_id">
					<skeleton>#pm0215_00_nyula_bone_id</skeleton>
					<bind_material>
						<technique_common>
							<instance_material symbol="PressShadowMaterial_PressShadow" target="#PressShadowMaterial_PressShadow_mat_id" />
						</technique_common>
					</bind_material>
				</instance_controller>
			</node>
			<node id="vsn_mesh_1_PressShadowMaterial_PressShadow_id" name="vsn_mesh_1_PressShadowMaterial_PressShadow" type="NODE">
				<matrix>1 0 0 0 0 1 0 0 0 0 1 0 0 0 0 1</matrix>
				<instance_controller url="#mesh_1_PressShadowMaterial_PressShadow_ctrl_id">
					<skeleton>#pm0215_00_nyula_bone_id</skeleton>
					<bind_material>
						<technique_common>
							<instance_material symbol="PressShadowMaterial_PressShadow" target="#PressShadowMaterial_PressShadow_mat_id" />
						</technique_common>
					</bind_material>
				</instance_controller>
			</node>
			<node id="vsn_mesh_2_PressShadowMaterial_PressShadow_id" name="vsn_mesh_2_PressShadowMaterial_PressShadow" type="NODE">
				<matrix>1 0 0 0 0 1 0 0 0 0 1 0 0 0 0 1</matrix>
				<instance_controller url="#mesh_2_PressShadowMaterial_PressShadow_ctrl_id">
					<skeleton>#pm0215_00_nyula_bone_id</skeleton>
					<bind_material>
						<technique_common>
							<instance_material symbol="PressShadowMaterial_PressShadow" target="#PressShadowMaterial_PressShadow_mat_id" />
						</technique_common>
					</bind_material>
				</instance_controller>
			</node>
			<node id="vsn_mesh_3_PressShadowMaterial_PressShadow_id" name="vsn_mesh_3_PressShadowMaterial_PressShadow" type="NODE">
				<matrix>1 0 0 0 0 1 0 0 0 0 1 0 0 0 0 1</matrix>
				<instance_controller url="#mesh_3_PressShadowMaterial_PressShadow_ctrl_id">
					<skeleton>#pm0215_00_nyula_bone_id</skeleton>
					<bind_material>
						<technique_common>
							<instance_material symbol="PressShadowMaterial_PressShadow" target="#PressShadowMaterial_PressShadow_mat_id" />
						</technique_common>
					</bind_material>
				</instance_controller>
			</node>
		</visual_scene>
	</library_visual_scenes>
	<scene>
		<instance_visual_scene url="#vs_model_id" />
	</scene>
</COLLADA>