<?xml version="1.0" encoding="utf-8"?>
<COLLADA xmlns:xsi="http://www.w3.org/2001/XMLSchema-instance" xmlns:xsd="http://www.w3.org/2001/XMLSchema" version="1.4.1" xmlns="http://www.collada.org/2005/11/COLLADASchema">
  <asset>
    <created>2026-02-17T05:46:51.29117-05:00</created>
    <modified>2026-02-17T05:46:51.2911702-05:00</modified>
    <up_axis>Y_UP</up_axis>
  </asset>
  <library_animations>
    <animation id="Motion_7_Waist_transform_id" name="Motion_7_Waist_transform">
      <source id="Motion_7_Waist_transform_frame_id" name="Motion_7_Waist_transform_frame">
        <float_array id="Motion_7_Waist_transform_frame_array_id" count="15">0 0.033333335 0.06666667 0.1 0.13333334 0.16666667 0.2 0.23333333 0.26666668 0.3 0.33333334 0.36666667 0.4 0.43333334 0.46666667</float_array>
        <technique_common>
          <accessor source="#Motion_7_Waist_transform_frame_array_id" count="15" stride="1">
            <param name="TIME" type="float" />
          </accessor>
        </technique_common>
      </source>
      <source id="Motion_7_Waist_transform_interp_id" name="Motion_7_Waist_transform_interp">
        <Name_array id="Motion_7_Waist_transform_interp_array_id" count="15">LINEAR LINEAR LINEAR LINEAR LINEAR LINEAR LINEAR LINEAR LINEAR LINEAR LINEAR LINEAR LINEAR LINEAR LINEAR</Name_array>
        <technique_common>
          <accessor source="#Motion_7_Waist_transform_interp_array_id" count="15" stride="1">
            <param name="INTERPOLATION" type="Name" />
          </accessor>
        </technique_common>
      </source>
      <source id="Motion_7_Waist_transform_pose_id" name="Motion_7_Waist_transform_pose">
        <float_array id="Motion_7_Waist_transform_pose_array_id" count="240">0.14907068 -0.9884875 -0.025894262 -0.022982448 0.97448814 0.15130204 -0.16577318 87.19261 0.16778255 -0.000521712 0.98582387 -0.00020882348 0 0 0 1 0.1482901 -0.98854256 -0.02817247 -0.19051808 0.9748992 0.15090883 -0.16370112 87.14073 0.16607699 -0.003190063 0.98610765 0.13965657 0 0 0 1 0.14417219 -0.9890338 -0.032039598 -0.29915428 0.9762505 0.14745063 -0.15872405 87.0921 0.16170771 -0.008395076 0.986803 0.4103789 0 0 0 1 0.13700908 -0.9898969 -0.03650478 -0.27061692 0.97837424 0.14099532 -0.15134141 87.05823 0.15495941 -0.0149801895 0.9878073 0.7942229 0 0 0 1 0.12719333 -0.9910577 -0.04033093 -0.05449675 0.98101526 0.1316976 -0.14235449 87.05059 0.14639299 -0.021458708 0.98899376 1.2637856 0 0 0 1 0.11497414 -0.99246377 -0.042384397 0.40060696 0.98391646 0.1196484 -0.13263683 87.08068 0.13670848 -0.02645291 0.99025804 1.791665 0 0 0 1 0.09273422 -0.99481 -0.041874904 1.4997456 0.9876034 0.09724897 -0.123215586 87.15999 0.1266484 -0.029929489 0.991496 2.350458 0 0 0 1 0.057439625 -0.9975765 -0.03926634 3.3045173 0.9915137 0.06159675 -0.11448267 87.29511 0.1166239 -0.032357287 0.9926489 2.9157667 0 0 0 1 0.01634413 -0.99923056 -0.03565289 5.3532963 0.9940854 0.020068169 -0.10673109 87.45349 0.10736446 -0.033697587 0.9936485 3.416404 0 0 0 1 -0.023166776 -0.99922085 -0.031952254 7.184525 0.9947603 -0.019856453 -0.100287504 87.58792 0.099574916 -0.03410817 0.9944453 3.7547843 0 0 0 1 -0.05366695 -0.9981395 -0.028935742 8.336652 0.9941342 -0.05068195 -0.09554294 87.669044 0.09389867 -0.033893526 0.99500465 3.866825 0 0 0 1 -0.07601249 -0.996752 -0.026595578 8.922137 0.9929613 -0.0732398 -0.093079105 87.70764 0.09082894 -0.03348356 0.99530345 3.8141017 0 0 0 1 -0.095302105 -0.9951505 -0.024354365 9.365454 0.99135834 -0.09266651 -0.092852525 87.716705 0.090145394 -0.032992937 0.99538195 3.687516 0 0 0 1 -0.11059332 -0.99361855 -0.0221682 9.673537 0.989664 -0.10804951 -0.09428946 87.70921 0.091292486 -0.03236685 0.99529797 3.5463023 0 0 0 1 -0.11059332 -0.99361855 -0.0221682 9.673537 0.989664 -0.10804951 -0.09428946 87.70921 0.091292486 -0.03236685 0.99529797 3.5463023 0 0 0 1</float_array>
        <technique_common>
          <accessor source="#Motion_7_Waist_transform_pose_array_id" count="15" stride="16">
            <param name="TRANSFORM" type="float4x4" />
          </accessor>
        </technique_common>
      </source>
      <sampler id="Motion_7_Waist_transform_samp_id">
        <input semantic="INPUT" source="#Motion_7_Waist_transform_frame_id" />
        <input semantic="INTERPOLATION" source="#Motion_7_Waist_transform_interp_id" />
        <input semantic="OUTPUT" source="#Motion_7_Waist_transform_pose_id" />
      </sampler>
      <channel source="#Motion_7_Waist_transform_samp_id" target="Waist_bone_id/transform" />
    </animation>
    <animation id="Motion_7_Spine2_transform_id" name="Motion_7_Spine2_transform">
      <source id="Motion_7_Spine2_transform_frame_id" name="Motion_7_Spine2_transform_frame">
        <float_array id="Motion_7_Spine2_transform_frame_array_id" count="15">0 0.033333335 0.06666667 0.1 0.13333334 0.16666667 0.2 0.23333333 0.26666668 0.3 0.33333334 0.36666667 0.4 0.43333334 0.46666667</float_array>
        <technique_common>
          <accessor source="#Motion_7_Spine2_transform_frame_array_id" count="15" stride="1">
            <param name="TIME" type="float" />
          </accessor>
        </technique_common>
      </source>
      <source id="Motion_7_Spine2_transform_interp_id" name="Motion_7_Spine2_transform_interp">
        <Name_array id="Motion_7_Spine2_transform_interp_array_id" count="15">LINEAR LINEAR LINEAR LINEAR LINEAR LINEAR LINEAR LINEAR LINEAR LINEAR LINEAR LINEAR LINEAR LINEAR LINEAR</Name_array>
        <technique_common>
          <accessor source="#Motion_7_Spine2_transform_interp_array_id" count="15" stride="1">
            <param name="INTERPOLATION" type="Name" />
          </accessor>
        </technique_common>
      </source>
      <source id="Motion_7_Spine2_transform_pose_id" name="Motion_7_Spine2_transform_pose">
        <float_array id="Motion_7_Spine2_transform_pose_array_id" count="240">0.96153915 -0.09541413 0.25756285 12.099998 0.09456998 0.9953945 0.015693111 0 -0.25787398 0.009268174 0.96613413 0 0 0 0 1 0.96226454 -0.09750946 0.25404507 12.099998 0.09606315 0.99521023 0.018123731 0 -0.25459546 0.0069645466 0.96702254 0 0 0 0 1 0.9651994 -0.08992299 0.24556853 12.099998 0.08806155 0.9959419 0.018573646 0 -0.24624218 0.003697873 0.96920127 0 0 0 0 1 0.96943676 -0.07432245 0.23381299 12.099998 0.07220477 0.9972342 0.017616322 0 -0.23447561 -0.00019549578 0.97212195 0 0 0 0 1 0.97376144 -0.05302953 0.22130641 12.099998 0.05076216 0.9985838 0.015924491 0 -0.22183746 -0.004272663 0.9750743 0 0 0 0 1 0.9772837 -0.028412094 0.21002218 12.099998 0.026045805 0.9995624 0.0140248025 0 -0.21032873 -0.008236014 0.97759604 0 0 0 0 1 0.9797654 -0.0028724223 0.20012854 12.099998 0.0004222463 0.9999245 0.01228462 0 -0.20014872 -0.0119515415 0.97969264 0 0 0 0 1 0.98126715 0.02118593 0.19148354 12.099998 -0.023709726 0.9996595 0.010898372 0 -0.19118746 -0.015234238 0.9814353 0 0 0 0 1 0.9820447 0.041847948 0.18394834 12.099998 -0.044401642 0.99896586 0.0097838435 0 -0.18334869 -0.017775781 0.9828872 0 0 0 0 1 0.98251384 0.056607537 0.17737578 12.099998 -0.05912084 0.998211 0.008912021 0 -0.17655398 -0.019242788 0.98410285 0 0 0 0 1 0.98313737 0.063155465 0.17161657 12.099998 -0.06553408 0.99781644 0.008224407 0 -0.17072241 -0.019332455 0.9851295 0 0 0 0 1 0.98390704 0.064744756 0.16653849 12.099998 -0.06687161 0.9977357 0.007189339 0 -0.16569592 -0.01821034 0.98600876 0 0 0 0 1 0.984649 0.064960815 0.1620074 12.099998 -0.066697024 0.9977592 0.005295505 0 -0.16130038 -0.016019627 0.98677534 0 0 0 0 1 0.98536 0.06432188 0.15788698 12.099998 -0.065545 0.99784636 0.002546527 0 -0.15738314 -0.0128579475 0.9874539 0 0 0 0 1 0.98536 0.06432188 0.15788698 12.099998 -0.065545 0.99784636 0.002546527 0 -0.15738314 -0.0128579475 0.9874539 0 0 0 0 1</float_array>
        <technique_common>
          <accessor source="#Motion_7_Spine2_transform_pose_array_id" count="15" stride="16">
            <param name="TRANSFORM" type="float4x4" />
          </accessor>
        </technique_common>
      </source>
      <sampler id="Motion_7_Spine2_transform_samp_id">
        <input semantic="INPUT" source="#Motion_7_Spine2_transform_frame_id" />
        <input semantic="INTERPOLATION" source="#Motion_7_Spine2_transform_interp_id" />
        <input semantic="OUTPUT" source="#Motion_7_Spine2_transform_pose_id" />
      </sampler>
      <channel source="#Motion_7_Spine2_transform_samp_id" target="Spine2_bone_id/transform" />
    </animation>
    <animation id="Motion_7_Spine3_transform_id" name="Motion_7_Spine3_transform">
      <source id="Motion_7_Spine3_transform_frame_id" name="Motion_7_Spine3_transform_frame">
        <float_array id="Motion_7_Spine3_transform_frame_array_id" count="15">0 0.033333335 0.06666667 0.1 0.13333334 0.16666667 0.2 0.23333333 0.26666668 0.3 0.33333334 0.36666667 0.4 0.43333334 0.46666667</float_array>
        <technique_common>
          <accessor source="#Motion_7_Spine3_transform_frame_array_id" count="15" stride="1">
            <param name="TIME" type="float" />
          </accessor>
        </technique_common>
      </source>
      <source id="Motion_7_Spine3_transform_interp_id" name="Motion_7_Spine3_transform_interp">
        <Name_array id="Motion_7_Spine3_transform_interp_array_id" count="15">LINEAR LINEAR LINEAR LINEAR LINEAR LINEAR LINEAR LINEAR LINEAR LINEAR LINEAR LINEAR LINEAR LINEAR LINEAR</Name_array>
        <technique_common>
          <accessor source="#Motion_7_Spine3_transform_interp_array_id" count="15" stride="1">
            <param name="INTERPOLATION" type="Name" />
          </accessor>
        </technique_common>
      </source>
      <source id="Motion_7_Spine3_transform_pose_id" name="Motion_7_Spine3_transform_pose">
        <float_array id="Motion_7_Spine3_transform_pose_array_id" count="240">0.9647174 -0.10537049 0.24128288 12.099991 0.106851175 0.99425054 0.0069772215 0 -0.24063084 0.019050313 0.9704297 0 0 0 0 1 0.96341497 -0.11178996 0.24358691 12.099991 0.11498527 0.9933666 0.0011079405 0 -0.24209495 0.026941499 0.96987844 0 0 0 0 1 0.9615497 -0.12173052 0.24617854 12.099991 0.126216 0.99199975 -0.0024628798 0 -0.24390924 0.033439852 0.96922135 0 0 0 0 1 0.9594469 -0.13368402 0.24817388 12.099991 0.13850982 0.990359 -0.0020052604 0 -0.24551316 0.03629846 0.9687134 0 0 0 0 1 0.9580855 -0.14519058 0.24696547 12.099991 0.14905299 0.98882437 0.0030873679 0 -0.24465373 0.03385298 0.96901935 0 0 0 0 1 0.9583044 -0.15440927 0.24043792 12.099991 0.1557538 0.9877034 0.01352118 0 -0.23956913 0.024491712 0.9705703 0 0 0 0 1 0.9618668 -0.15585788 0.22476786 12.099991 0.15413292 0.98772585 0.025312852 0 -0.22595423 0.010296534 0.9740835 0 0 0 0 1 0.9687466 -0.14426255 0.20178783 12.099991 0.14005464 0.98952305 0.03505491 0 -0.20473081 -0.005698004 0.9788017 0 0 0 0 1 0.97697884 -0.119493335 0.17673048 12.099991 0.11356071 0.99258494 0.043347858 0 -0.18059981 -0.022280298 0.98330426 0 0 0 0 1 0.984214 -0.08142355 0.1571401 12.099991 0.07430467 0.9959476 0.050667517 0 -0.16062886 -0.038191438 0.98627573 0 0 0 0 1 0.98846513 -0.030457256 0.14835438 12.099991 0.022234006 0.9981393 0.056776524 0 -0.1498076 -0.052823104 0.9873031 0 0 0 0 1 0.988855 0.018138805 0.14777286 12.099991 -0.02753844 0.9977078 0.061813094 0 -0.1463129 -0.065193616 0.9870878 0 0 0 0 1 0.9876796 0.0497821 0.14836025 12.099991 -0.06019484 0.9959664 0.06654019 0 -0.14444932 -0.074650906 0.98669225 0 0 0 0 1 0.98636264 0.06806646 0.14985214 12.099991 -0.07930884 0.9943635 0.07036585 0 -0.14421795 -0.08129085 0.9862013 0 0 0 0 1 0.98636264 0.06806646 0.14985214 12.099991 -0.07930884 0.9943635 0.07036585 0 -0.14421795 -0.08129085 0.9862013 0 0 0 0 1</float_array>
        <technique_common>
          <accessor source="#Motion_7_Spine3_transform_pose_array_id" count="15" stride="16">
            <param name="TRANSFORM" type="float4x4" />
          </accessor>
        </technique_common>
      </source>
      <sampler id="Motion_7_Spine3_transform_samp_id">
        <input semantic="INPUT" source="#Motion_7_Spine3_transform_frame_id" />
        <input semantic="INTERPOLATION" source="#Motion_7_Spine3_transform_interp_id" />
        <input semantic="OUTPUT" source="#Motion_7_Spine3_transform_pose_id" />
      </sampler>
      <channel source="#Motion_7_Spine3_transform_samp_id" target="Spine3_bone_id/transform" />
    </animation>
    <animation id="Motion_7_Neck_transform_id" name="Motion_7_Neck_transform">
      <source id="Motion_7_Neck_transform_frame_id" name="Motion_7_Neck_transform_frame">
        <float_array id="Motion_7_Neck_transform_frame_array_id" count="15">0 0.033333335 0.06666667 0.1 0.13333334 0.16666667 0.2 0.23333333 0.26666668 0.3 0.33333334 0.36666667 0.4 0.43333334 0.46666667</float_array>
        <technique_common>
          <accessor source="#Motion_7_Neck_transform_frame_array_id" count="15" stride="1">
            <param name="TIME" type="float" />
          </accessor>
        </technique_common>
      </source>
      <source id="Motion_7_Neck_transform_interp_id" name="Motion_7_Neck_transform_interp">
        <Name_array id="Motion_7_Neck_transform_interp_array_id" count="15">LINEAR LINEAR LINEAR LINEAR LINEAR LINEAR LINEAR LINEAR LINEAR LINEAR LINEAR LINEAR LINEAR LINEAR LINEAR</Name_array>
        <technique_common>
          <accessor source="#Motion_7_Neck_transform_interp_array_id" count="15" stride="1">
            <param name="INTERPOLATION" type="Name" />
          </accessor>
        </technique_common>
      </source>
      <source id="Motion_7_Neck_transform_pose_id" name="Motion_7_Neck_transform_pose">
        <float_array id="Motion_7_Neck_transform_pose_array_id" count="240">0.8129275 0.043597158 -0.58073074 15.720233 -0.03882349 0.9990326 0.02065381 0 0.5810694 0.005755945 0.81383365 0 0 0 0 1 0.81488645 0.03855376 -0.578337 15.720233 -0.034779146 0.9992399 0.017608076 0 0.57857627 0.005765481 0.8156079 0 0 0 0 1 0.8185218 0.030938525 -0.5736418 15.720233 -0.02866374 0.9995045 0.013006894 0 0.5737599 0.0057962933 0.81900305 0 0 0 0 1 0.82424724 0.020035194 -0.5658754 15.720233 -0.01963546 0.9997841 0.006797249 0 0.5658895 0.0055086114 0.8244627 0 0 0 0 1 0.8310227 0.007061977 -0.55619377 15.720233 -0.008775258 0.99996144 -0.00041484507 0 0.55616933 0.005225489 0.8310526 0 0 0 0 1 0.83807683 -0.0070271725 -0.5455069 15.720233 0.0030843783 0.9999621 -0.008142811 0 0.5455435 0.005141752 0.83806676 0 0 0 0 1 0.8447262 -0.021267364 -0.534776 15.720233 0.015078908 0.99975926 -0.015940681 0 0.53498626 0.0054016737 0.8448435 0 0 0 0 1 0.85038555 -0.03468585 -0.5250156 15.720233 0.0263107 0.9993797 -0.023409009 0 0.52550185 0.0060931547 0.85077065 0 0 0 0 1 0.85455894 -0.046307717 -0.5172858 15.720233 0.035854075 0.9989009 -0.030191038 0 0.5181154 0.0072532147 0.85528 0 0 0 0 1 0.8568084 -0.05516211 -0.51267576 15.720233 0.04276462 0.9984379 -0.03595812 0 0.51385844 0.008884838 0.857829 0 0 0 0 1 0.85660803 -0.060872078 -0.51236445 15.720233 0.04667306 0.9980869 -0.040547527 0 0.5138524 0.010819728 0.8578104 0 0 0 0 1 0.854404 -0.06414331 -0.515635 15.720233 0.048168764 0.99785566 -0.044314645 0 0.5173718 0.013025111 0.85566163 0 0 0 0 1 0.85119927 -0.06560885 -0.5207257 15.720233 0.04778202 0.99772286 -0.0476017 0 0.5226631 0.015637202 0.8523959 0 0 0 0 1 0.84800225 -0.065815665 -0.5258902 15.720233 0.04613834 0.9976598 -0.050459646 0 0.5279805 0.018526198 0.8490544 0 0 0 0 1 0.84800225 -0.065815665 -0.5258902 15.720233 0.04613834 0.9976598 -0.050459646 0 0.5279805 0.018526198 0.8490544 0 0 0 0 1</float_array>
        <technique_common>
          <accessor source="#Motion_7_Neck_transform_pose_array_id" count="15" stride="16">
            <param name="TRANSFORM" type="float4x4" />
          </accessor>
        </technique_common>
      </source>
      <sampler id="Motion_7_Neck_transform_samp_id">
        <input semantic="INPUT" source="#Motion_7_Neck_transform_frame_id" />
        <input semantic="INTERPOLATION" source="#Motion_7_Neck_transform_interp_id" />
        <input semantic="OUTPUT" source="#Motion_7_Neck_transform_pose_id" />
      </sampler>
      <channel source="#Motion_7_Neck_transform_samp_id" target="Neck_bone_id/transform" />
    </animation>
    <animation id="Motion_7_Head_transform_id" name="Motion_7_Head_transform">
      <source id="Motion_7_Head_transform_frame_id" name="Motion_7_Head_transform_frame">
        <float_array id="Motion_7_Head_transform_frame_array_id" count="15">0 0.033333335 0.06666667 0.1 0.13333334 0.16666667 0.2 0.23333333 0.26666668 0.3 0.33333334 0.36666667 0.4 0.43333334 0.46666667</float_array>
        <technique_common>
          <accessor source="#Motion_7_Head_transform_frame_array_id" count="15" stride="1">
            <param name="TIME" type="float" />
          </accessor>
        </technique_common>
      </source>
      <source id="Motion_7_Head_transform_interp_id" name="Motion_7_Head_transform_interp">
        <Name_array id="Motion_7_Head_transform_interp_array_id" count="15">LINEAR LINEAR LINEAR LINEAR LINEAR LINEAR LINEAR LINEAR LINEAR LINEAR LINEAR LINEAR LINEAR LINEAR LINEAR</Name_array>
        <technique_common>
          <accessor source="#Motion_7_Head_transform_interp_array_id" count="15" stride="1">
            <param name="INTERPOLATION" type="Name" />
          </accessor>
        </technique_common>
      </source>
      <source id="Motion_7_Head_transform_pose_id" name="Motion_7_Head_transform_pose">
        <float_array id="Motion_7_Head_transform_pose_array_id" count="240">0.97867405 0.019010948 0.20453782 5.129917 -0.019027786 0.9998172 -0.0018845976 0 -0.20453624 -0.0020474952 0.97885686 0 0 0 0 1 0.9789488 0.022218479 0.20289317 5.129917 -0.023943068 0.999695 0.0060491655 0 -0.20269689 -0.010779709 0.9791822 0 0 0 0 1 0.97851676 0.02487282 0.20466128 5.129917 -0.0281487 0.9995178 0.013110197 0 -0.2042365 -0.018589497 0.97874504 0 0 0 0 1 0.97713333 0.027063169 0.21089815 5.129917 -0.031620823 0.99933296 0.01826779 0 -0.21026309 -0.024518838 0.97733736 0 0 0 0 1 0.9748701 0.028924473 0.22088836 5.129917 -0.03429731 0.9992009 0.020526493 0 -0.22011812 -0.02758654 0.97508305 0 0 0 0 1 0.9714598 0.031060975 0.23516181 5.129917 -0.036681045 0.99913555 0.019561155 0 -0.23435095 -0.027628856 0.9717594 0 0 0 0 1 0.96615136 0.03559089 0.255509 5.129917 -0.04101186 0.99903184 0.015918145 0 -0.2546951 -0.025858236 0.96667564 0 0 0 0 1 0.95900565 0.04369719 0.27999762 5.129917 -0.0484497 0.9987748 0.010071104 0 -0.27921447 -0.023224046 0.9599479 0 0 0 0 1 0.95130336 0.050450664 0.3040998 5.129917 -0.053788763 0.9985489 0.002604317 0 -0.30352712 -0.018834645 0.9526366 0 0 0 0 1 0.9452709 0.049387176 0.32252732 5.129917 -0.049855944 0.99873316 -0.006812577 0 -0.3224552 -0.009640171 0.94653565 0 0 0 0 1 0.9426341 0.035354942 0.3319502 5.129917 -0.031186521 0.9993537 -0.017878022 0 -0.33236772 0.0065000616 0.9431275 0 0 0 0 1 0.9412636 0.020763591 0.3370337 5.129917 -0.012002107 0.9995342 -0.02805884 0 -0.33745933 0.02236565 0.9410744 0 0 0 0 1 0.9398826 0.018788643 0.3409805 5.129917 -0.007275206 0.9993604 -0.035013102 0 -0.34142026 0.0304275 0.9394181 0 0 0 0 1 0.9388874 0.025652539 0.34326726 5.129917 -0.012944388 0.9991451 -0.03926179 0 -0.34398097 0.032419015 0.93841684 0 0 0 0 1 0.9388874 0.025652539 0.34326726 5.129917 -0.012944388 0.9991451 -0.03926179 0 -0.34398097 0.032419015 0.93841684 0 0 0 0 1</float_array>
        <technique_common>
          <accessor source="#Motion_7_Head_transform_pose_array_id" count="15" stride="16">
            <param name="TRANSFORM" type="float4x4" />
          </accessor>
        </technique_common>
      </source>
      <sampler id="Motion_7_Head_transform_samp_id">
        <input semantic="INPUT" source="#Motion_7_Head_transform_frame_id" />
        <input semantic="INTERPOLATION" source="#Motion_7_Head_transform_interp_id" />
        <input semantic="OUTPUT" source="#Motion_7_Head_transform_pose_id" />
      </sampler>
      <channel source="#Motion_7_Head_transform_samp_id" target="Head_bone_id/transform" />
    </animation>
    <animation id="Motion_7_Hair_transform_id" name="Motion_7_Hair_transform">
      <source id="Motion_7_Hair_transform_frame_id" name="Motion_7_Hair_transform_frame">
        <float_array id="Motion_7_Hair_transform_frame_array_id" count="15">0 0.033333335 0.06666667 0.1 0.13333334 0.16666667 0.2 0.23333333 0.26666668 0.3 0.33333334 0.36666667 0.4 0.43333334 0.46666667</float_array>
        <technique_common>
          <accessor source="#Motion_7_Hair_transform_frame_array_id" count="15" stride="1">
            <param name="TIME" type="float" />
          </accessor>
        </technique_common>
      </source>
      <source id="Motion_7_Hair_transform_interp_id" name="Motion_7_Hair_transform_interp">
        <Name_array id="Motion_7_Hair_transform_interp_array_id" count="15">LINEAR LINEAR LINEAR LINEAR LINEAR LINEAR LINEAR LINEAR LINEAR LINEAR LINEAR LINEAR LINEAR LINEAR LINEAR</Name_array>
        <technique_common>
          <accessor source="#Motion_7_Hair_transform_interp_array_id" count="15" stride="1">
            <param name="INTERPOLATION" type="Name" />
          </accessor>
        </technique_common>
      </source>
      <source id="Motion_7_Hair_transform_pose_id" name="Motion_7_Hair_transform_pose">
        <float_array id="Motion_7_Hair_transform_pose_array_id" count="240">-0.9573411 0 0.28896025 13 0 1 0 0 -0.28896025 0 -0.9573411 -8.7 0 0 0 1 -0.956527 0.008567587 0.2915181 13 0.013085097 0.99982256 0.013550387 0 -0.29135025 0.016775852 -0.9564694 -8.7 0 0 0 1 -0.954952 0.025767796 0.29564053 13 0.04151851 0.9980259 0.047122244 0 -0.29384267 0.057274017 -0.9541366 -8.7 0 0 0 1 -0.95163167 0.0485197 0.30338466 13 0.08087802 0.99218506 0.095013335 0 -0.2964037 0.11495489 -0.9481189 -8.7 0 0 0 1 -0.94583845 0.07279281 0.31637135 13 0.1254062 0.9808152 0.14924774 0 -0.29943767 0.18083918 -0.93682146 -8.7 0 0 0 1 -0.9381676 0.09475886 0.33295962 13 0.16911155 0.96468425 0.20195428 0 -0.30206397 0.2457743 -0.9210603 -8.7 0 0 0 1 -0.9296113 0.11052829 0.3515771 13 0.20632985 0.9465352 0.24799006 0 -0.3053702 0.3030752 -0.9027152 -8.7 0 0 0 1 -0.92247164 0.11814453 0.3675438 13 0.23165362 0.93098146 0.2821527 0 -0.30884168 0.34542066 -0.88617265 -8.7 0 0 0 1 -0.9187416 0.11840998 0.37668645 13 0.24165173 0.9230756 0.2992254 0 -0.3122788 0.36593777 -0.8766819 -8.7 0 0 0 1 -0.91827905 0.10994844 0.38036156 13 0.2378894 0.9211484 0.30804902 0 -0.31649995 0.37335896 -0.8720269 -8.7 0 0 0 1 -0.91969645 0.09543744 0.38085425 13 0.22677776 0.9209673 0.3168455 0 -0.3205154 0.377771 -0.8686534 -8.7 0 0 0 1 -0.9214722 0.07792687 0.3805476 13 0.21222267 0.9215323 0.32517654 0 -0.32534692 0.38040197 -0.8657043 -8.7 0 0 0 1 -0.92321885 0.059276164 0.3796748 13 0.19605717 0.9224194 0.33272216 0 -0.3304969 0.3816134 -0.8632164 -8.7 0 0 0 1 -0.9244238 0.042597212 0.3789805 13 0.18147227 0.92315775 0.3388917 0 -0.33542296 0.382054 -0.8611193 -8.7 0 0 0 1 -0.9244238 0.042597212 0.3789805 13 0.18147227 0.92315775 0.3388917 0 -0.33542296 0.382054 -0.8611193 -8.7 0 0 0 1</float_array>
        <technique_common>
          <accessor source="#Motion_7_Hair_transform_pose_array_id" count="15" stride="16">
            <param name="TRANSFORM" type="float4x4" />
          </accessor>
        </technique_common>
      </source>
      <sampler id="Motion_7_Hair_transform_samp_id">
        <input semantic="INPUT" source="#Motion_7_Hair_transform_frame_id" />
        <input semantic="INTERPOLATION" source="#Motion_7_Hair_transform_interp_id" />
        <input semantic="OUTPUT" source="#Motion_7_Hair_transform_pose_id" />
      </sampler>
      <channel source="#Motion_7_Hair_transform_samp_id" target="Hair_bone_id/transform" />
    </animation>
    <animation id="Motion_7_LShoulder_transform_id" name="Motion_7_LShoulder_transform">
      <source id="Motion_7_LShoulder_transform_frame_id" name="Motion_7_LShoulder_transform_frame">
        <float_array id="Motion_7_LShoulder_transform_frame_array_id" count="15">0 0.033333335 0.06666667 0.1 0.13333334 0.16666667 0.2 0.23333333 0.26666668 0.3 0.33333334 0.36666667 0.4 0.43333334 0.46666667</float_array>
        <technique_common>
          <accessor source="#Motion_7_LShoulder_transform_frame_array_id" count="15" stride="1">
            <param name="TIME" type="float" />
          </accessor>
        </technique_common>
      </source>
      <source id="Motion_7_LShoulder_transform_interp_id" name="Motion_7_LShoulder_transform_interp">
        <Name_array id="Motion_7_LShoulder_transform_interp_array_id" count="15">LINEAR LINEAR LINEAR LINEAR LINEAR LINEAR LINEAR LINEAR LINEAR LINEAR LINEAR LINEAR LINEAR LINEAR LINEAR</Name_array>
        <technique_common>
          <accessor source="#Motion_7_LShoulder_transform_interp_array_id" count="15" stride="1">
            <param name="INTERPOLATION" type="Name" />
          </accessor>
        </technique_common>
      </source>
      <source id="Motion_7_LShoulder_transform_pose_id" name="Motion_7_LShoulder_transform_pose">
        <float_array id="Motion_7_LShoulder_transform_pose_array_id" count="240">-0.7030766 0.6881089 -0.17941487 14.14009 -0.6638609 -0.72555983 -0.1812509 -3.930001 -0.25489655 -0.008326717 0.9669325 -0.201936 0 0 0 1 -0.673066 0.7165879 -0.18298706 14.14009 -0.68697286 -0.69739807 -0.20421654 -3.930001 -0.27395388 -0.01174403 0.9616711 -0.201936 0 0 0 1 -0.6171031 0.76208514 -0.19598468 14.14009 -0.7260137 -0.64747643 -0.23168597 -3.930001 -0.30345988 -0.00068654865 0.95284396 -0.201936 0 0 0 1 -0.54538715 0.81104726 -0.21155402 14.14009 -0.76368517 -0.5848478 -0.27338222 -3.930001 -0.34545282 0.012461513 0.93835336 -0.201936 0 0 0 1 -0.47419953 0.8509374 -0.22592059 14.14009 -0.786761 -0.52473617 -0.32505226 -3.930001 -0.3951479 0.023605853 0.91831416 -0.201936 0 0 0 1 -0.42095768 0.87447166 -0.24102738 14.14009 -0.7909719 -0.48394966 -0.37437472 -3.930001 -0.44402513 0.03305 0.8954046 -0.201936 0 0 0 1 -0.39247346 0.8825892 -0.25884485 14.14009 -0.77935207 -0.4685688 -0.4159971 -3.930001 -0.48844117 0.03846346 0.8717487 -0.201936 0 0 0 1 -0.3798257 0.88143736 -0.2807142 14.14009 -0.7593991 -0.47038984 -0.44949552 -3.930001 -0.5282473 0.04244414 0.848029 -0.201936 0 0 0 1 -0.3780266 0.8724816 -0.3096316 14.14009 -0.7350656 -0.48618758 -0.4725465 -3.930001 -0.5628271 0.04896435 0.8251231 -0.201936 0 0 0 1 -0.3834275 0.85729206 -0.34356028 14.14009 -0.7127241 -0.51123774 -0.48027098 -3.930001 -0.5873735 0.060714528 0.8070354 -0.201936 0 0 0 1 -0.392177 0.8386819 -0.3779019 14.14009 -0.6889244 -0.5400094 -0.48350066 -3.930001 -0.60957384 0.070728004 0.78956777 -0.201936 0 0 0 1 -0.39880836 0.8205731 -0.40940413 14.14009 -0.66853 -0.565745 -0.482701 -3.930001 -0.62770975 0.081193745 0.7742015 -0.201936 0 0 0 1 -0.40169215 0.8057223 -0.4352644 14.14009 -0.6516847 -0.58542633 -0.48226875 -3.930001 -0.6433899 0.08993162 0.76023793 -0.201936 0 0 0 1 -0.40083385 0.7950496 -0.4552233 14.14009 -0.6396559 -0.59859145 -0.48221213 -3.930001 -0.6558754 0.09789932 0.74849397 -0.201936 0 0 0 1 -0.40083385 0.7950496 -0.4552233 14.14009 -0.6396559 -0.59859145 -0.48221213 -3.930001 -0.6558754 0.09789932 0.74849397 -0.201936 0 0 0 1</float_array>
        <technique_common>
          <accessor source="#Motion_7_LShoulder_transform_pose_array_id" count="15" stride="16">
            <param name="TRANSFORM" type="float4x4" />
          </accessor>
        </technique_common>
      </source>
      <sampler id="Motion_7_LShoulder_transform_samp_id">
        <input semantic="INPUT" source="#Motion_7_LShoulder_transform_frame_id" />
        <input semantic="INTERPOLATION" source="#Motion_7_LShoulder_transform_interp_id" />
        <input semantic="OUTPUT" source="#Motion_7_LShoulder_transform_pose_id" />
      </sampler>
      <channel source="#Motion_7_LShoulder_transform_samp_id" target="LShoulder_bone_id/transform" />
    </animation>
    <animation id="Motion_7_LArm_transform_id" name="Motion_7_LArm_transform">
      <source id="Motion_7_LArm_transform_frame_id" name="Motion_7_LArm_transform_frame">
        <float_array id="Motion_7_LArm_transform_frame_array_id" count="15">0 0.033333335 0.06666667 0.1 0.13333334 0.16666667 0.2 0.23333333 0.26666668 0.3 0.33333334 0.36666667 0.4 0.43333334 0.46666667</float_array>
        <technique_common>
          <accessor source="#Motion_7_LArm_transform_frame_array_id" count="15" stride="1">
            <param name="TIME" type="float" />
          </accessor>
        </technique_common>
      </source>
      <source id="Motion_7_LArm_transform_interp_id" name="Motion_7_LArm_transform_interp">
        <Name_array id="Motion_7_LArm_transform_interp_array_id" count="15">LINEAR LINEAR LINEAR LINEAR LINEAR LINEAR LINEAR LINEAR LINEAR LINEAR LINEAR LINEAR LINEAR LINEAR LINEAR</Name_array>
        <technique_common>
          <accessor source="#Motion_7_LArm_transform_interp_array_id" count="15" stride="1">
            <param name="INTERPOLATION" type="Name" />
          </accessor>
        </technique_common>
      </source>
      <source id="Motion_7_LArm_transform_pose_id" name="Motion_7_LArm_transform_pose">
        <float_array id="Motion_7_LArm_transform_pose_array_id" count="240">0.8356351 0.4539427 0.3092733 8.161509 -0.47329822 0.8807913 -0.013981685 0 -0.27875215 -0.13469492 0.9508704 0 0 0 0 1 0.81588435 0.495189 0.29853067 8.161509 -0.51385707 0.85768044 -0.018309627 0 -0.26511064 -0.13846354 0.9542244 0 0 0 0 1 0.7785804 0.5696633 0.2632418 8.161509 -0.5718143 0.8168191 -0.07638766 0 -0.2585362 -0.091051474 0.9617009 0 0 0 0 1 0.7359595 0.6469187 0.19964938 8.161509 -0.62227947 0.7625355 -0.1769403 0 -0.26670572 0.005983174 0.9637594 0 0 0 0 1 0.70847964 0.69725513 0.109049805 8.161509 -0.6421747 0.70101774 -0.3101383 0 -0.29269138 0.14969765 0.9444164 0 0 0 0 1 0.71938604 0.6937853 0.03384821 8.161509 -0.6064197 0.6510669 -0.45647234 0 -0.33873123 0.30785364 0.8890935 0 0 0 0 1 0.77006036 0.6379649 -0.0028082877 8.161509 -0.5151518 0.61920923 -0.59262 0 -0.37633187 0.45779988 0.80547726 0 0 0 0 1 0.8336768 0.5518111 0.022077382 8.161509 -0.38140616 0.6042193 -0.6996058 0 -0.39938986 0.5748247 0.71418786 0 0 0 0 1 0.8724087 0.47633368 0.109586835 8.161509 -0.24050957 0.61353683 -0.7521487 0 -0.42550933 0.62982434 0.6498177 0 0 0 0 1 0.8860257 0.41918337 0.19810009 8.161509 -0.13313632 0.639314 -0.7573324 0 -0.44410932 0.6446417 0.62225723 0 0 0 0 1 0.89429224 0.37321556 0.24688351 8.161509 -0.07454215 0.6682543 -0.7401889 0 -0.441231 0.643542 0.625435 0 0 0 0 1 0.9123702 0.33535966 0.23476472 8.161509 -0.0596731 0.6763104 -0.7341957 0 -0.40499344 0.6558492 0.6370574 0 0 0 0 1 0.9279828 0.31091267 0.20538059 8.161509 -0.0704553 0.68763715 -0.72262794 0 -0.3659015 0.6561162 0.66002095 0 0 0 0 1 0.9427201 0.28527045 0.1729148 8.161509 -0.0836765 0.70400405 -0.70524925 0 -0.32291952 0.6503838 0.68754923 0 0 0 0 1 0.9427201 0.28527045 0.1729148 8.161509 -0.0836765 0.70400405 -0.70524925 0 -0.32291952 0.6503838 0.68754923 0 0 0 0 1</float_array>
        <technique_common>
          <accessor source="#Motion_7_LArm_transform_pose_array_id" count="15" stride="16">
            <param name="TRANSFORM" type="float4x4" />
          </accessor>
        </technique_common>
      </source>
      <sampler id="Motion_7_LArm_transform_samp_id">
        <input semantic="INPUT" source="#Motion_7_LArm_transform_frame_id" />
        <input semantic="INTERPOLATION" source="#Motion_7_LArm_transform_interp_id" />
        <input semantic="OUTPUT" source="#Motion_7_LArm_transform_pose_id" />
      </sampler>
      <channel source="#Motion_7_LArm_transform_samp_id" target="LArm_bone_id/transform" />
    </animation>
    <animation id="Motion_7_LForeArm_transform_id" name="Motion_7_LForeArm_transform">
      <source id="Motion_7_LForeArm_transform_frame_id" name="Motion_7_LForeArm_transform_frame">
        <float_array id="Motion_7_LForeArm_transform_frame_array_id" count="15">0 0.033333335 0.06666667 0.1 0.13333334 0.16666667 0.2 0.23333333 0.26666668 0.3 0.33333334 0.36666667 0.4 0.43333334 0.46666667</float_array>
        <technique_common>
          <accessor source="#Motion_7_LForeArm_transform_frame_array_id" count="15" stride="1">
            <param name="TIME" type="float" />
          </accessor>
        </technique_common>
      </source>
      <source id="Motion_7_LForeArm_transform_interp_id" name="Motion_7_LForeArm_transform_interp">
        <Name_array id="Motion_7_LForeArm_transform_interp_array_id" count="15">LINEAR LINEAR LINEAR LINEAR LINEAR LINEAR LINEAR LINEAR LINEAR LINEAR LINEAR LINEAR LINEAR LINEAR LINEAR</Name_array>
        <technique_common>
          <accessor source="#Motion_7_LForeArm_transform_interp_array_id" count="15" stride="1">
            <param name="INTERPOLATION" type="Name" />
          </accessor>
        </technique_common>
      </source>
      <source id="Motion_7_LForeArm_transform_pose_id" name="Motion_7_LForeArm_transform_pose">
        <float_array id="Motion_7_LForeArm_transform_pose_array_id" count="240">0.9296736 6.874996E-05 -0.36838424 22.9 -6.426278E-05 1 2.4448804E-05 0 0.36838424 9.439891E-07 0.9296736 0 0 0 0 1 0.92087275 -5.9723643E-06 -0.38986328 22.9 1.2955047E-07 1 -1.501312E-05 0 0.38986328 1.37746665E-05 0.92087275 0 0 0 0 1 0.9045307 -0.00026243765 -0.4264084 22.9 0.00023232035 0.99999994 -0.00012264476 0 0.4264084 1.1872602E-05 0.90453076 0 0 0 0 1 0.86367345 -0.0006642305 -0.50405127 22.9 0.00058839837 0.99999976 -0.00030958425 0 0.5040514 -2.9203235E-05 0.8636737 0 0 0 0 1 0.7734721 -0.001162823 -0.63382936 22.9 0.001003118 0.9999993 -0.0006104775 0 0.6338296 -0.00016361833 0.77347267 0 0 0 0 1 0.62375236 -0.0016905452 -0.7816202 22.9 0.0013973947 0.99999845 -0.001047714 0 0.7816208 -0.0004387179 0.6237538 0 0 0 0 1 0.4046566 -0.0021585259 -0.91446614 22.9 0.0016793787 0.99999726 -0.0016172805 0 0.9144671 -0.00088129175 0.4046591 0 0 0 0 1 0.13794798 -0.0024859137 -0.9904364 22.9 0.001785867 0.9999958 -0.0022611716 0 0.9904379 -0.0014568635 0.13795185 0 0 0 0 1 -0.11660659 -0.0026617274 -0.9931746 22.9 0.0017409343 0.99999434 -0.0028844038 0 0.99317664 -0.0020653922 -0.11660135 0 0 0 0 1 -0.30814433 -0.002750476 -0.9513355 22.9 0.0016366629 0.9999928 -0.0034212794 0 0.9513381 -0.002611264 -0.30813766 0 0 0 0 1 -0.44448948 -0.0027826284 -0.89577967 22.9 0.0015095891 0.9999914 -0.003855413 0 0.89578277 -0.00306595 -0.44448137 0 0 0 0 1 -0.4967096 -0.002884661 -0.867912 22.9 0.0014958747 0.99999017 -0.0041797417 0 0.86791545 -0.0033744054 -0.4967004 0 0 0 0 1 -0.4931805 -0.0030399745 -0.86992157 22.9 0.0015782437 0.9999891 -0.0043892465 0 0.8699255 -0.0035376395 -0.49317038 0 0 0 0 1 -0.45522928 -0.0031931968 -0.89036876 22.9 0.0017060488 0.9999886 -0.0044586067 0 0.8903728 -0.0035487 -0.45521867 0 0 0 0 1 -0.45522928 -0.0031931968 -0.89036876 22.9 0.0017060488 0.9999886 -0.0044586067 0 0.8903728 -0.0035487 -0.45521867 0 0 0 0 1</float_array>
        <technique_common>
          <accessor source="#Motion_7_LForeArm_transform_pose_array_id" count="15" stride="16">
            <param name="TRANSFORM" type="float4x4" />
          </accessor>
        </technique_common>
      </source>
      <sampler id="Motion_7_LForeArm_transform_samp_id">
        <input semantic="INPUT" source="#Motion_7_LForeArm_transform_frame_id" />
        <input semantic="INTERPOLATION" source="#Motion_7_LForeArm_transform_interp_id" />
        <input semantic="OUTPUT" source="#Motion_7_LForeArm_transform_pose_id" />
      </sampler>
      <channel source="#Motion_7_LForeArm_transform_samp_id" target="LForeArm_bone_id/transform" />
    </animation>
    <animation id="Motion_7_LHand_transform_id" name="Motion_7_LHand_transform">
      <source id="Motion_7_LHand_transform_frame_id" name="Motion_7_LHand_transform_frame">
        <float_array id="Motion_7_LHand_transform_frame_array_id" count="15">0 0.033333335 0.06666667 0.1 0.13333334 0.16666667 0.2 0.23333333 0.26666668 0.3 0.33333334 0.36666667 0.4 0.43333334 0.46666667</float_array>
        <technique_common>
          <accessor source="#Motion_7_LHand_transform_frame_array_id" count="15" stride="1">
            <param name="TIME" type="float" />
          </accessor>
        </technique_common>
      </source>
      <source id="Motion_7_LHand_transform_interp_id" name="Motion_7_LHand_transform_interp">
        <Name_array id="Motion_7_LHand_transform_interp_array_id" count="15">LINEAR LINEAR LINEAR LINEAR LINEAR LINEAR LINEAR LINEAR LINEAR LINEAR LINEAR LINEAR LINEAR LINEAR LINEAR</Name_array>
        <technique_common>
          <accessor source="#Motion_7_LHand_transform_interp_array_id" count="15" stride="1">
            <param name="INTERPOLATION" type="Name" />
          </accessor>
        </technique_common>
      </source>
      <source id="Motion_7_LHand_transform_pose_id" name="Motion_7_LHand_transform_pose">
        <float_array id="Motion_7_LHand_transform_pose_array_id" count="240">0.9995011 -0.017421642 0.026345218 22.900002 0.024216024 0.9581968 -0.28508326 0 -0.020277286 0.285579 0.9581406 0 0 0 0 1 0.99964356 -0.003826468 0.026422197 22.900002 0.011002416 0.9607722 -0.2771204 0 -0.02432532 0.27731234 0.9604718 0 0 0 0 1 0.99921256 0.017418247 0.035648588 22.900002 -0.0075678453 0.96565783 -0.2597068 0 -0.038947973 0.25923252 0.9650293 0 0 0 0 1 0.9972331 0.036546756 0.064733826 22.900002 -0.020433724 0.97202396 -0.23399106 0 -0.07147444 0.23202088 0.97008127 0 0 0 0 1 0.9936182 0.0395357 0.10564015 22.900002 -0.017671816 0.9795582 -0.20038296 0 -0.111402966 0.1972373 0.9740056 0 0 0 0 1 0.9886666 0.022610996 0.14841516 22.900002 0.0012511397 0.9873177 -0.15875195 0 -0.15012245 0.15713845 0.9760998 0 0 0 0 1 0.98237264 -0.016266871 0.18622401 22.900002 0.037210666 0.9932868 -0.109529756 0 -0.18319213 0.11452856 0.97638303 0 0 0 0 1 0.9745845 -0.07822603 0.20991828 22.900002 0.09172498 0.9942452 -0.055344805 0 -0.20438083 0.07319294 0.9761512 0 0 0 0 1 0.963024 -0.16307448 0.21445604 22.900002 0.16701724 0.9859539 -0.00026899762 0 -0.2113999 0.036076903 0.9767336 0 0 0 0 1 0.94201005 -0.26907188 0.20054272 22.900002 0.26387656 0.9631146 0.052720293 0 -0.20733118 0.0032554846 0.9782654 0 0 0 0 1 0.89789325 -0.40708223 0.16754632 22.900002 0.3953083 0.91308737 0.10001403 0 -0.19369836 -0.023569468 0.980778 0 0 0 0 1 0.83647037 -0.53485566 0.11935956 22.900002 0.52078015 0.8436257 0.13070452 0 -0.17060286 -0.04717036 0.98421013 0 0 0 0 1 0.80322933 -0.59113806 0.07333766 22.900002 0.5790567 0.80376107 0.13660713 0 -0.13969964 -0.06726019 0.98790693 0 0 0 0 1 0.81700677 -0.5751775 0.040875454 22.900002 0.5664479 0.81382513 0.12971297 0 -0.107873455 -0.08282257 0.9907087 0 0 0 0 1 0.81700677 -0.5751775 0.040875454 22.900002 0.5664479 0.81382513 0.12971297 0 -0.107873455 -0.08282257 0.9907087 0 0 0 0 1</float_array>
        <technique_common>
          <accessor source="#Motion_7_LHand_transform_pose_array_id" count="15" stride="16">
            <param name="TRANSFORM" type="float4x4" />
          </accessor>
        </technique_common>
      </source>
      <sampler id="Motion_7_LHand_transform_samp_id">
        <input semantic="INPUT" source="#Motion_7_LHand_transform_frame_id" />
        <input semantic="INTERPOLATION" source="#Motion_7_LHand_transform_interp_id" />
        <input semantic="OUTPUT" source="#Motion_7_LHand_transform_pose_id" />
      </sampler>
      <channel source="#Motion_7_LHand_transform_samp_id" target="LHand_bone_id/transform" />
    </animation>
    <animation id="Motion_7_RShoulder_transform_id" name="Motion_7_RShoulder_transform">
      <source id="Motion_7_RShoulder_transform_frame_id" name="Motion_7_RShoulder_transform_frame">
        <float_array id="Motion_7_RShoulder_transform_frame_array_id" count="15">0 0.033333335 0.06666667 0.1 0.13333334 0.16666667 0.2 0.23333333 0.26666668 0.3 0.33333334 0.36666667 0.4 0.43333334 0.46666667</float_array>
        <technique_common>
          <accessor source="#Motion_7_RShoulder_transform_frame_array_id" count="15" stride="1">
            <param name="TIME" type="float" />
          </accessor>
        </technique_common>
      </source>
      <source id="Motion_7_RShoulder_transform_interp_id" name="Motion_7_RShoulder_transform_interp">
        <Name_array id="Motion_7_RShoulder_transform_interp_array_id" count="15">LINEAR LINEAR LINEAR LINEAR LINEAR LINEAR LINEAR LINEAR LINEAR LINEAR LINEAR LINEAR LINEAR LINEAR LINEAR</Name_array>
        <technique_common>
          <accessor source="#Motion_7_RShoulder_transform_interp_array_id" count="15" stride="1">
            <param name="INTERPOLATION" type="Name" />
          </accessor>
        </technique_common>
      </source>
      <source id="Motion_7_RShoulder_transform_pose_id" name="Motion_7_RShoulder_transform_pose">
        <float_array id="Motion_7_RShoulder_transform_pose_array_id" count="240">-0.58920884 -0.7933457 -0.15308592 14.14009 0.7832303 -0.60735047 0.13294895 3.93 -0.19845131 -0.04156683 0.9792289 -0.201935 0 0 0 1 -0.59430325 -0.7892073 -0.15477514 14.14009 0.7818597 -0.6120496 0.118703276 3.93 -0.1884116 -0.050466713 0.98079264 -0.201935 0 0 0 1 -0.5992663 -0.78457206 -0.15914372 14.14009 0.78161985 -0.6163932 0.09555115 3.93 -0.17306185 -0.067129314 0.9826206 -0.201935 0 0 0 1 -0.60407376 -0.7796363 -0.1651132 14.14009 0.782118 -0.61974156 0.06490117 3.93 -0.15292679 -0.0899329 0.98413694 -0.201935 0 0 0 1 -0.60860443 -0.77461195 -0.1719796 14.14009 0.7828213 -0.6215569 0.02928776 3.93 -0.12958175 -0.116804644 0.98466504 -0.201935 0 0 0 1 -0.61270845 -0.7697602 -0.17904699 14.14009 0.78350073 -0.62131 -0.010040991 3.93 -0.1035145 -0.14643562 0.98378927 -0.201935 0 0 0 1 -0.616364 -0.7651868 -0.18596882 14.14009 0.78402793 -0.6183467 -0.05428785 3.93 -0.07345289 -0.17926584 0.9810548 -0.201935 0 0 0 1 -0.6195632 -0.7608007 -0.19319296 14.14009 0.7839415 -0.612187 -0.10325933 3.93 -0.039710484 -0.2154277 0.97571206 -0.201935 0 0 0 1 -0.62220776 -0.7569211 -0.19982043 14.14009 0.7828278 -0.60359824 -0.15116222 3.93 -0.0061933845 -0.25047928 0.96810216 -0.201935 0 0 0 1 -0.62357056 -0.7542446 -0.20560789 14.14009 0.7814835 -0.59431684 -0.18992326 3.93 0.021052338 -0.27910975 0.9600284 -0.201935 0 0 0 1 -0.6228099 -0.75339633 -0.21095511 14.14009 0.7814744 -0.58613145 -0.21388738 3.93 0.03749454 -0.29806715 0.95380825 -0.201935 0 0 0 1 -0.62043655 -0.7542204 -0.2149641 14.14009 0.78291017 -0.57959723 -0.22609374 3.93 0.04593189 -0.30857447 0.9500905 -0.201935 0 0 0 1 -0.6176863 -0.7557535 -0.21748626 14.14009 0.7847308 -0.574177 -0.23349147 3.93 0.051586382 -0.31489265 0.94772434 -0.201935 0 0 0 1 -0.6144779 -0.75853676 -0.21688351 14.14009 0.78694373 -0.5697987 -0.23674572 3.93 0.05600036 -0.3161502 0.9470549 -0.201935 0 0 0 1 -0.6144779 -0.75853676 -0.21688351 14.14009 0.78694373 -0.5697987 -0.23674572 3.93 0.05600036 -0.3161502 0.9470549 -0.201935 0 0 0 1</float_array>
        <technique_common>
          <accessor source="#Motion_7_RShoulder_transform_pose_array_id" count="15" stride="16">
            <param name="TRANSFORM" type="float4x4" />
          </accessor>
        </technique_common>
      </source>
      <sampler id="Motion_7_RShoulder_transform_samp_id">
        <input semantic="INPUT" source="#Motion_7_RShoulder_transform_frame_id" />
        <input semantic="INTERPOLATION" source="#Motion_7_RShoulder_transform_interp_id" />
        <input semantic="OUTPUT" source="#Motion_7_RShoulder_transform_pose_id" />
      </sampler>
      <channel source="#Motion_7_RShoulder_transform_samp_id" target="RShoulder_bone_id/transform" />
    </animation>
    <animation id="Motion_7_RArm_transform_id" name="Motion_7_RArm_transform">
      <source id="Motion_7_RArm_transform_frame_id" name="Motion_7_RArm_transform_frame">
        <float_array id="Motion_7_RArm_transform_frame_array_id" count="15">0 0.033333335 0.06666667 0.1 0.13333334 0.16666667 0.2 0.23333333 0.26666668 0.3 0.33333334 0.36666667 0.4 0.43333334 0.46666667</float_array>
        <technique_common>
          <accessor source="#Motion_7_RArm_transform_frame_array_id" count="15" stride="1">
            <param name="TIME" type="float" />
          </accessor>
        </technique_common>
      </source>
      <source id="Motion_7_RArm_transform_interp_id" name="Motion_7_RArm_transform_interp">
        <Name_array id="Motion_7_RArm_transform_interp_array_id" count="15">LINEAR LINEAR LINEAR LINEAR LINEAR LINEAR LINEAR LINEAR LINEAR LINEAR LINEAR LINEAR LINEAR LINEAR LINEAR</Name_array>
        <technique_common>
          <accessor source="#Motion_7_RArm_transform_interp_array_id" count="15" stride="1">
            <param name="INTERPOLATION" type="Name" />
          </accessor>
        </technique_common>
      </source>
      <source id="Motion_7_RArm_transform_pose_id" name="Motion_7_RArm_transform_pose">
        <float_array id="Motion_7_RArm_transform_pose_array_id" count="240">0.87661314 -0.44902265 0.17299739 8.161548 0.44858122 0.8926635 0.043896105 0 -0.17413878 0.03912347 0.98394364 0 0 0 0 1 0.8780281 -0.4488174 0.16622151 8.161548 0.44442907 0.89346313 0.06485675 0 -0.17762165 0.016927626 0.98395324 0 0 0 0 1 0.8794482 -0.44705394 0.16344312 8.161548 0.43892267 0.8945021 0.08492832 0 -0.18416777 -0.00295116 0.98289037 0 0 0 0 1 0.881068 -0.44466394 0.16122383 8.161548 0.43332547 0.8954797 0.10171131 0 -0.18960002 -0.019752182 0.9816627 0 0 0 0 1 0.88232917 -0.44405463 0.15591905 8.161548 0.43067345 0.895409 0.112973854 0 -0.18977788 -0.032529935 0.981288 0 0 0 0 1 0.8839477 -0.44710988 0.13685498 8.161548 0.43422997 0.8935059 0.11441861 0 -0.17343843 -0.041713525 0.9839609 0 0 0 0 1 0.88482666 -0.45436555 0.10311982 8.161548 0.4447915 0.8896467 0.103388615 0 -0.13871644 -0.045614175 0.9892811 0 0 0 0 1 0.8833263 -0.46495575 0.059588417 8.161548 0.46019995 0.8843436 0.07843714 0 -0.08916643 -0.041863002 0.9951366 0 0 0 0 1 0.8777167 -0.47901186 0.012689059 8.161548 0.47823152 0.8773376 0.039665334 0 -0.030132756 -0.02874662 0.99913245 0 0 0 0 1 0.86733955 -0.49673 -0.03132754 8.161548 0.4966533 0.8678826 -0.010734473 0 0.032520764 -0.006248492 0.9994515 0 0 0 0 1 0.85234815 -0.51861054 -0.067422405 8.161548 0.51438814 0.8546233 -0.0708791 0 0.09437941 0.025732381 0.9952037 0 0 0 0 1 0.8342963 -0.54437214 -0.087227315 8.161548 0.5303189 0.83566195 -0.14293686 0 0.1507034 0.07299338 0.98588055 0 0 0 0 1 0.816009 -0.57166994 -0.085573286 8.161548 0.54392076 0.8094918 -0.22107288 0 0.19565159 0.13385239 0.97149575 0 0 0 0 1 0.79957694 -0.5969766 -0.06554138 8.161548 0.55678684 0.7777685 -0.29165828 0 0.22508919 0.19671065 0.9542745 0 0 0 0 1 0.79957694 -0.5969766 -0.06554138 8.161548 0.55678684 0.7777685 -0.29165828 0 0.22508919 0.19671065 0.9542745 0 0 0 0 1</float_array>
        <technique_common>
          <accessor source="#Motion_7_RArm_transform_pose_array_id" count="15" stride="16">
            <param name="TRANSFORM" type="float4x4" />
          </accessor>
        </technique_common>
      </source>
      <sampler id="Motion_7_RArm_transform_samp_id">
        <input semantic="INPUT" source="#Motion_7_RArm_transform_frame_id" />
        <input semantic="INTERPOLATION" source="#Motion_7_RArm_transform_interp_id" />
        <input semantic="OUTPUT" source="#Motion_7_RArm_transform_pose_id" />
      </sampler>
      <channel source="#Motion_7_RArm_transform_samp_id" target="RArm_bone_id/transform" />
    </animation>
    <animation id="Motion_7_RForeArm_transform_id" name="Motion_7_RForeArm_transform">
      <source id="Motion_7_RForeArm_transform_frame_id" name="Motion_7_RForeArm_transform_frame">
        <float_array id="Motion_7_RForeArm_transform_frame_array_id" count="15">0 0.033333335 0.06666667 0.1 0.13333334 0.16666667 0.2 0.23333333 0.26666668 0.3 0.33333334 0.36666667 0.4 0.43333334 0.46666667</float_array>
        <technique_common>
          <accessor source="#Motion_7_RForeArm_transform_frame_array_id" count="15" stride="1">
            <param name="TIME" type="float" />
          </accessor>
        </technique_common>
      </source>
      <source id="Motion_7_RForeArm_transform_interp_id" name="Motion_7_RForeArm_transform_interp">
        <Name_array id="Motion_7_RForeArm_transform_interp_array_id" count="15">LINEAR LINEAR LINEAR LINEAR LINEAR LINEAR LINEAR LINEAR LINEAR LINEAR LINEAR LINEAR LINEAR LINEAR LINEAR</Name_array>
        <technique_common>
          <accessor source="#Motion_7_RForeArm_transform_interp_array_id" count="15" stride="1">
            <param name="INTERPOLATION" type="Name" />
          </accessor>
        </technique_common>
      </source>
      <source id="Motion_7_RForeArm_transform_pose_id" name="Motion_7_RForeArm_transform_pose">
        <float_array id="Motion_7_RForeArm_transform_pose_array_id" count="240">0.96362764 -1.7484554E-07 -0.2672486 22.9 1.6848601E-07 1 -4.6727138E-08 0 0.2672486 -9.05942E-14 0.96362764 0 0 0 0 1 0.97211033 -1.7494565E-07 -0.23452392 22.9 1.693729E-07 1 -4.390392E-08 0 0.23452392 2.9574636E-09 0.97211033 0 0 0 0 1 0.9796294 -1.7497908E-07 -0.20081402 22.9 1.7021338E-07 1 -4.099836E-08 0 0.20081402 5.9819634E-09 0.9796294 0 0 0 0 1 0.98593336 -1.749434E-07 -0.167139 22.9 1.7098107E-07 1 -3.8096722E-08 0 0.167139 8.983222E-09 0.98593336 0 0 0 0 1 0.9906877 -1.7485067E-07 -0.1361537 22.9 1.7162549E-07 1 -3.5426183E-08 0 0.1361537 1.1728842E-08 0.9906877 0 0 0 0 1 0.9938558 -1.74732E-07 -0.110682964 22.9 1.7211154E-07 1 -3.3229508E-08 0 0.110682964 1.3975522E-08 0.9938558 0 0 0 0 1 0.995614 -1.7463086E-07 -0.093556106 22.9 1.7241655E-07 1 -3.1751327E-08 0 0.093556106 1.5481444E-08 0.995614 0 0 0 0 1 0.99615717 -1.7459156E-07 -0.087583356 22.9 1.725188E-07 1 -3.1235576E-08 0 0.087583356 1.6005767E-08 0.99615717 0 0 0 0 1 0.99542475 -1.746435E-07 -0.09554896 22.9 1.7238196E-07 1 -3.192338E-08 0 0.09554896 1.5306405E-08 0.99542475 0 0 0 0 1 0.99206704 -1.7480663E-07 -0.12571017 22.9 1.7182951E-07 1 -3.452571E-08 0 0.12571017 1.2651097E-08 0.99206704 0 0 0 0 1 0.98288417 -1.7497005E-07 -0.18422459 22.9 1.7060044E-07 1 -3.956891E-08 0 0.18422459 7.4628606E-09 0.98288417 0 0 0 0 1 0.9640882 -1.7485229E-07 -0.26558217 22.9 1.6853292E-07 1 -4.658329E-08 0 0.26558217 1.5106494E-10 0.9640882 0 0 0 0 1 0.9319536 -1.7415555E-07 -0.36257756 22.9 1.6548047E-07 1 -5.4982475E-08 0 0.36257756 -8.758388E-09 0.9319536 0 0 0 0 1 0.8840352 -1.7264612E-07 -0.46742028 22.9 1.6136796E-07 1 -6.416314E-08 0 0.46742028 -1.8704183E-08 0.8840352 0 0 0 0 1 0.8840352 -1.7264612E-07 -0.46742028 22.9 1.6136796E-07 1 -6.416314E-08 0 0.46742028 -1.8704183E-08 0.8840352 0 0 0 0 1</float_array>
        <technique_common>
          <accessor source="#Motion_7_RForeArm_transform_pose_array_id" count="15" stride="16">
            <param name="TRANSFORM" type="float4x4" />
          </accessor>
        </technique_common>
      </source>
      <sampler id="Motion_7_RForeArm_transform_samp_id">
        <input semantic="INPUT" source="#Motion_7_RForeArm_transform_frame_id" />
        <input semantic="INTERPOLATION" source="#Motion_7_RForeArm_transform_interp_id" />
        <input semantic="OUTPUT" source="#Motion_7_RForeArm_transform_pose_id" />
      </sampler>
      <channel source="#Motion_7_RForeArm_transform_samp_id" target="RForeArm_bone_id/transform" />
    </animation>
    <animation id="Motion_7_RHand_transform_id" name="Motion_7_RHand_transform">
      <source id="Motion_7_RHand_transform_frame_id" name="Motion_7_RHand_transform_frame">
        <float_array id="Motion_7_RHand_transform_frame_array_id" count="15">0 0.033333335 0.06666667 0.1 0.13333334 0.16666667 0.2 0.23333333 0.26666668 0.3 0.33333334 0.36666667 0.4 0.43333334 0.46666667</float_array>
        <technique_common>
          <accessor source="#Motion_7_RHand_transform_frame_array_id" count="15" stride="1">
            <param name="TIME" type="float" />
          </accessor>
        </technique_common>
      </source>
      <source id="Motion_7_RHand_transform_interp_id" name="Motion_7_RHand_transform_interp">
        <Name_array id="Motion_7_RHand_transform_interp_array_id" count="15">LINEAR LINEAR LINEAR LINEAR LINEAR LINEAR LINEAR LINEAR LINEAR LINEAR LINEAR LINEAR LINEAR LINEAR LINEAR</Name_array>
        <technique_common>
          <accessor source="#Motion_7_RHand_transform_interp_array_id" count="15" stride="1">
            <param name="INTERPOLATION" type="Name" />
          </accessor>
        </technique_common>
      </source>
      <source id="Motion_7_RHand_transform_pose_id" name="Motion_7_RHand_transform_pose">
        <float_array id="Motion_7_RHand_transform_pose_array_id" count="240">0.9892745 -0.09710621 -0.109116256 22.900002 0.1258938 0.9456543 0.2998144 0 0.074072406 -0.31033581 0.94773674 0 0 0 0 1 0.98819673 -0.11105499 -0.10551759 22.900002 0.14071757 0.93030095 0.33873108 0 0.060545333 -0.34958115 0.9349477 0 0 0 0 1 0.9879272 -0.12003212 -0.09793933 22.900002 0.14781873 0.91956776 0.3640669 0 0.046362128 -0.37414885 0.92620903 0 0 0 0 1 0.9887249 -0.12396453 -0.08399961 22.900002 0.14645936 0.9173996 0.37003735 0 0.031189708 -0.37816766 0.92521155 0 0 0 0 1 0.9906169 -0.121118054 -0.06331307 22.900002 0.1358756 0.9226284 0.36096355 0 0.014695225 -0.36617932 0.93042827 0 0 0 0 1 0.99311614 -0.1112879 -0.036541417 22.900002 0.11708266 0.9339475 0.33768874 0 -0.0034529045 -0.33964252 0.94054824 0 0 0 0 1 0.99540585 -0.095717326 -0.0023247516 22.900002 0.09279558 0.9584717 0.26966822 0 -0.023583718 -0.26864505 0.96295047 0 0 0 0 1 0.9968358 -0.07039623 0.03691411 22.900002 0.064809665 0.9886814 0.13530996 0 -0.04602161 -0.13248944 0.9901154 0 0 0 0 1 0.9968573 -0.030974438 0.07291181 22.900002 0.034966968 0.9979212 -0.054134265 0 -0.071083464 0.056513645 0.99586815 0 0 0 0 1 0.9952912 0.022209316 0.0943518 22.900002 0.004599545 0.9614789 -0.27484033 0 -0.09682128 0.2739801 0.9568493 0 0 0 0 1 0.99241614 0.08082458 0.09261546 22.900002 -0.02450298 0.86839056 -0.49527514 0 -0.12045679 0.4892497 0.8637852 0 0 0 0 1 0.98870224 0.1333438 0.06846362 22.900002 -0.050679762 0.72723156 -0.68451875 0 -0.14106523 0.67331547 0.72577333 0 0 0 0 1 0.98490626 0.17022005 0.031381264 22.900002 -0.07126534 0.5640143 -0.8226841 0 -0.15773681 0.8080303 0.56763196 0 0 0 0 1 0.9817574 0.19002363 -0.006590061 22.900002 -0.08600802 0.41291612 -0.9066989 0 -0.16957307 0.8907251 0.421727 0 0 0 0 1 0.9817574 0.19002363 -0.006590061 22.900002 -0.08600802 0.41291612 -0.9066989 0 -0.16957307 0.8907251 0.421727 0 0 0 0 1</float_array>
        <technique_common>
          <accessor source="#Motion_7_RHand_transform_pose_array_id" count="15" stride="16">
            <param name="TRANSFORM" type="float4x4" />
          </accessor>
        </technique_common>
      </source>
      <sampler id="Motion_7_RHand_transform_samp_id">
        <input semantic="INPUT" source="#Motion_7_RHand_transform_frame_id" />
        <input semantic="INTERPOLATION" source="#Motion_7_RHand_transform_interp_id" />
        <input semantic="OUTPUT" source="#Motion_7_RHand_transform_pose_id" />
      </sampler>
      <channel source="#Motion_7_RHand_transform_samp_id" target="RHand_bone_id/transform" />
    </animation>
    <animation id="Motion_7_Hips_transform_id" name="Motion_7_Hips_transform">
      <source id="Motion_7_Hips_transform_frame_id" name="Motion_7_Hips_transform_frame">
        <float_array id="Motion_7_Hips_transform_frame_array_id" count="15">0 0.033333335 0.06666667 0.1 0.13333334 0.16666667 0.2 0.23333333 0.26666668 0.3 0.33333334 0.36666667 0.4 0.43333334 0.46666667</float_array>
        <technique_common>
          <accessor source="#Motion_7_Hips_transform_frame_array_id" count="15" stride="1">
            <param name="TIME" type="float" />
          </accessor>
        </technique_common>
      </source>
      <source id="Motion_7_Hips_transform_interp_id" name="Motion_7_Hips_transform_interp">
        <Name_array id="Motion_7_Hips_transform_interp_array_id" count="15">LINEAR LINEAR LINEAR LINEAR LINEAR LINEAR LINEAR LINEAR LINEAR LINEAR LINEAR LINEAR LINEAR LINEAR LINEAR</Name_array>
        <technique_common>
          <accessor source="#Motion_7_Hips_transform_interp_array_id" count="15" stride="1">
            <param name="INTERPOLATION" type="Name" />
          </accessor>
        </technique_common>
      </source>
      <source id="Motion_7_Hips_transform_pose_id" name="Motion_7_Hips_transform_pose">
        <float_array id="Motion_7_Hips_transform_pose_array_id" count="240">-0.9999763 -0.0013068784 0.0068067336 -0.010002 0.0011513445 -0.9997395 -0.02280402 0 0.006834761 -0.022795634 0.99971676 0 0 0 0 1 -0.99996924 -0.0045549995 0.0063919523 -0.010002 0.0043976535 -0.9996922 -0.024418108 0 0.0065012095 -0.024389245 0.9996814 0 0 0 0 1 -0.9999113 -0.0120181 0.005765579 -0.010002 0.011851556 -0.9995351 -0.028099049 0 0.0061005945 -0.02802822 0.9995885 0 0 0 0 1 -0.9997579 -0.021430288 0.004976196 -0.010002 0.021257468 -0.99924517 -0.03251274 0 0.005669198 -0.03239909 0.9994589 0 0 0 0 1 -0.9995477 -0.029786369 0.0041298736 -0.010002 0.02962049 -0.998925 -0.03565674 0 0.005187519 -0.035518285 0.99935555 0 0 0 0 1 -0.99941313 -0.0340847 0.00337315 -0.010002 0.033940673 -0.99876916 -0.036165934 0 0.004601704 -0.03603023 0.9993401 0 0 0 0 1 -0.99945617 -0.03283919 0.0029300917 -0.010002 0.032751177 -0.9991188 -0.026240773 0 0.0037892363 -0.026130542 0.9996514 0 0 0 0 1 -0.9996085 -0.027839206 0.002773088 -0.010002 0.027827814 -0.99960446 -0.0040651984 0 0.0028851628 -0.0039864383 0.9999879 0 0 0 0 1 -0.9997748 -0.021064363 0.0027046187 -0.010002 0.021124016 -0.99948084 0.024340842 0 0.0021904896 0.024392486 0.99970007 0 0 0 0 1 -0.9998845 -0.0149482135 0.0026443487 -0.010002 0.015062574 -0.9986141 0.050423924 0 0.0018869366 0.050457943 0.9987244 0 0 0 0 1 -0.9999323 -0.01132415 0.002722983 -0.010002 0.011483734 -0.9975983 0.06830918 0 0.0019428993 0.06833582 0.99766046 0 0 0 0 1 -0.9999474 -0.009700807 0.0032674707 -0.010002 0.009927314 -0.99686754 0.078462265 0 0.0024960884 0.07849059 0.9969117 0 0 0 0 1 -0.9999486 -0.009137663 0.004357411 -0.010002 0.009479727 -0.9962231 0.086310156 0 0.0035522808 0.086347036 0.9962588 0 0 0 0 1 -0.9999434 -0.00892813 0.0057391063 -0.010002 0.009417788 -0.99572563 0.09187595 0 0.004894296 0.091924824 0.99575394 0 0 0 0 1 -0.9999434 -0.00892813 0.0057391063 -0.010002 0.009417788 -0.99572563 0.09187595 0 0.004894296 0.091924824 0.99575394 0 0 0 0 1</float_array>
        <technique_common>
          <accessor source="#Motion_7_Hips_transform_pose_array_id" count="15" stride="16">
            <param name="TRANSFORM" type="float4x4" />
          </accessor>
        </technique_common>
      </source>
      <sampler id="Motion_7_Hips_transform_samp_id">
        <input semantic="INPUT" source="#Motion_7_Hips_transform_frame_id" />
        <input semantic="INTERPOLATION" source="#Motion_7_Hips_transform_interp_id" />
        <input semantic="OUTPUT" source="#Motion_7_Hips_transform_pose_id" />
      </sampler>
      <channel source="#Motion_7_Hips_transform_samp_id" target="Hips_bone_id/transform" />
    </animation>
    <animation id="Motion_7_LThigh_transform_id" name="Motion_7_LThigh_transform">
      <source id="Motion_7_LThigh_transform_frame_id" name="Motion_7_LThigh_transform_frame">
        <float_array id="Motion_7_LThigh_transform_frame_array_id" count="15">0 0.033333335 0.06666667 0.1 0.13333334 0.16666667 0.2 0.23333333 0.26666668 0.3 0.33333334 0.36666667 0.4 0.43333334 0.46666667</float_array>
        <technique_common>
          <accessor source="#Motion_7_LThigh_transform_frame_array_id" count="15" stride="1">
            <param name="TIME" type="float" />
          </accessor>
        </technique_common>
      </source>
      <source id="Motion_7_LThigh_transform_interp_id" name="Motion_7_LThigh_transform_interp">
        <Name_array id="Motion_7_LThigh_transform_interp_array_id" count="15">LINEAR LINEAR LINEAR LINEAR LINEAR LINEAR LINEAR LINEAR LINEAR LINEAR LINEAR LINEAR LINEAR LINEAR LINEAR</Name_array>
        <technique_common>
          <accessor source="#Motion_7_LThigh_transform_interp_array_id" count="15" stride="1">
            <param name="INTERPOLATION" type="Name" />
          </accessor>
        </technique_common>
      </source>
      <source id="Motion_7_LThigh_transform_pose_id" name="Motion_7_LThigh_transform_pose">
        <float_array id="Motion_7_LThigh_transform_pose_array_id" count="240">0.87293434 -0.40762004 -0.26801395 10.510002 0.34891406 0.9056472 -0.24096082 7.199996 0.34094656 0.11682914 0.9327949 0 0 0 0 1 0.8704519 -0.41248918 -0.26863745 10.510002 0.35341537 0.90355664 -0.24224561 7.199996 0.34265283 0.11592257 0.9322827 0 0 0 0 1 0.8684965 -0.41687483 -0.26819637 10.510002 0.35602665 0.9010603 -0.24765977 7.199996 0.3449042 0.11960661 0.9309862 0 0 0 0 1 0.86830735 -0.41853288 -0.26621905 10.510002 0.35499743 0.899194 -0.255787 7.199996 0.34643784 0.12759465 0.92935485 0 0 0 0 1 0.8718717 -0.41333103 -0.26267323 10.510002 0.34685743 0.89981645 -0.26461354 7.199996 0.3457307 0.13959888 0.9278914 0 0 0 0 1 0.8803494 -0.3977237 -0.25845852 10.510002 0.32840315 0.9042543 -0.27290204 7.199996 0.34225187 0.15537053 0.9266734 0 0 0 0 1 0.8981473 -0.3563019 -0.2576439 10.510002 0.28532988 0.91812056 -0.27503 7.199996 0.3345419 0.17350394 0.9262711 0 0 0 0 1 0.92230266 -0.28603578 -0.25988716 10.510002 0.21619403 0.9392668 -0.2665295 7.199996 0.32034034 0.1896348 0.9281275 0 0 0 0 1 0.9443024 -0.20287944 -0.25910035 10.510002 0.13667901 0.95802295 -0.25201374 7.199996 0.2993525 0.20256358 0.93239266 0 0 0 0 1 0.95976436 -0.12500781 -0.2514467 10.510002 0.0637376 0.96905255 -0.23848417 7.199996 0.27347746 0.21286201 0.93802977 0 0 0 0 1 0.9681565 -0.0704755 -0.2402211 10.510002 0.013287686 0.97267103 -0.23180693 7.199996 0.24999283 0.2212334 0.9426343 0 0 0 0 1 0.9724013 -0.03667195 -0.23041454 10.510002 -0.017978948 0.9728561 -0.2307115 7.199996 0.23262084 0.22848679 0.9453472 0 0 0 0 1 0.97495 -0.010009212 -0.22219881 10.510002 -0.042849198 0.97182214 -0.2317879 7.199996 0.21825776 0.23550265 0.94704914 0 0 0 0 1 0.976445 0.009344252 -0.2155639 10.510002 -0.060822748 0.9704665 -0.23344257 7.199996 0.20701617 0.24105504 0.9481755 0 0 0 0 1 0.976445 0.009344252 -0.2155639 10.510002 -0.060822748 0.9704665 -0.23344257 7.199996 0.20701617 0.24105504 0.9481755 0 0 0 0 1</float_array>
        <technique_common>
          <accessor source="#Motion_7_LThigh_transform_pose_array_id" count="15" stride="16">
            <param name="TRANSFORM" type="float4x4" />
          </accessor>
        </technique_common>
      </source>
      <sampler id="Motion_7_LThigh_transform_samp_id">
        <input semantic="INPUT" source="#Motion_7_LThigh_transform_frame_id" />
        <input semantic="INTERPOLATION" source="#Motion_7_LThigh_transform_interp_id" />
        <input semantic="OUTPUT" source="#Motion_7_LThigh_transform_pose_id" />
      </sampler>
      <channel source="#Motion_7_LThigh_transform_samp_id" target="LThigh_bone_id/transform" />
    </animation>
    <animation id="Motion_7_LLeg_transform_id" name="Motion_7_LLeg_transform">
      <source id="Motion_7_LLeg_transform_frame_id" name="Motion_7_LLeg_transform_frame">
        <float_array id="Motion_7_LLeg_transform_frame_array_id" count="15">0 0.033333335 0.06666667 0.1 0.13333334 0.16666667 0.2 0.23333333 0.26666668 0.3 0.33333334 0.36666667 0.4 0.43333334 0.46666667</float_array>
        <technique_common>
          <accessor source="#Motion_7_LLeg_transform_frame_array_id" count="15" stride="1">
            <param name="TIME" type="float" />
          </accessor>
        </technique_common>
      </source>
      <source id="Motion_7_LLeg_transform_interp_id" name="Motion_7_LLeg_transform_interp">
        <Name_array id="Motion_7_LLeg_transform_interp_array_id" count="15">LINEAR LINEAR LINEAR LINEAR LINEAR LINEAR LINEAR LINEAR LINEAR LINEAR LINEAR LINEAR LINEAR LINEAR LINEAR</Name_array>
        <technique_common>
          <accessor source="#Motion_7_LLeg_transform_interp_array_id" count="15" stride="1">
            <param name="INTERPOLATION" type="Name" />
          </accessor>
        </technique_common>
      </source>
      <source id="Motion_7_LLeg_transform_pose_id" name="Motion_7_LLeg_transform_pose">
        <float_array id="Motion_7_LLeg_transform_pose_array_id" count="240">0.9880314 0 0.15425281 33.899998 0 1 0 0 -0.15425281 0 0.9880314 0 0 0 0 1 0.9861766 0 0.16569765 33.899998 0 1 0 0 -0.16569765 0 0.9861766 0 0 0 0 1 0.98215497 0 0.18807334 33.899998 0 1 0 0 -0.18807334 0 0.98215497 0 0 0 0 1 0.9761515 0 0.21709031 33.899998 0 1 0 0 -0.21709031 0 0.9761515 0 0 0 0 1 0.9689125 0 0.24740383 33.899998 0 1 0 0 -0.24740383 0 0.9689125 0 0 0 0 1 0.9612501 0 0.2756777 33.899998 0 1 0 0 -0.2756777 0 0.9612501 0 0 0 0 1 0.95166516 0 0.30713743 33.899998 0 1 0 0 -0.30713743 0 0.95166516 0 0 0 0 1 0.94429934 0 0.32908773 33.899998 0 1 0 0 -0.32908773 0 0.94429934 0 0 0 0 1 0.9446263 0 0.32814816 33.899998 0 1 0 0 -0.32814816 0 0.9446263 0 0 0 0 1 0.95279956 0 0.3036001 33.899998 0 1 0 0 -0.3036001 0 0.95279956 0 0 0 0 1 0.9632611 0 0.26856655 33.899998 0 1 0 0 -0.26856655 0 0.9632611 0 0 0 0 1 0.9717433 0 0.23604025 33.899998 0 1 0 0 -0.23604025 0 0.9717433 0 0 0 0 1 0.9795268 0 0.2013137 33.899998 0 1 0 0 -0.2013137 0 0.9795268 0 0 0 0 1 0.98562646 0 0.16893934 33.899998 0 1 0 0 -0.16893934 0 0.98562646 0 0 0 0 1 0.98562646 0 0.16893934 33.899998 0 1 0 0 -0.16893934 0 0.98562646 0 0 0 0 1</float_array>
        <technique_common>
          <accessor source="#Motion_7_LLeg_transform_pose_array_id" count="15" stride="16">
            <param name="TRANSFORM" type="float4x4" />
          </accessor>
        </technique_common>
      </source>
      <sampler id="Motion_7_LLeg_transform_samp_id">
        <input semantic="INPUT" source="#Motion_7_LLeg_transform_frame_id" />
        <input semantic="INTERPOLATION" source="#Motion_7_LLeg_transform_interp_id" />
        <input semantic="OUTPUT" source="#Motion_7_LLeg_transform_pose_id" />
      </sampler>
      <channel source="#Motion_7_LLeg_transform_samp_id" target="LLeg_bone_id/transform" />
    </animation>
    <animation id="Motion_7_LFoot_transform_id" name="Motion_7_LFoot_transform">
      <source id="Motion_7_LFoot_transform_frame_id" name="Motion_7_LFoot_transform_frame">
        <float_array id="Motion_7_LFoot_transform_frame_array_id" count="15">0 0.033333335 0.06666667 0.1 0.13333334 0.16666667 0.2 0.23333333 0.26666668 0.3 0.33333334 0.36666667 0.4 0.43333334 0.46666667</float_array>
        <technique_common>
          <accessor source="#Motion_7_LFoot_transform_frame_array_id" count="15" stride="1">
            <param name="TIME" type="float" />
          </accessor>
        </technique_common>
      </source>
      <source id="Motion_7_LFoot_transform_interp_id" name="Motion_7_LFoot_transform_interp">
        <Name_array id="Motion_7_LFoot_transform_interp_array_id" count="15">LINEAR LINEAR LINEAR LINEAR LINEAR LINEAR LINEAR LINEAR LINEAR LINEAR LINEAR LINEAR LINEAR LINEAR LINEAR</Name_array>
        <technique_common>
          <accessor source="#Motion_7_LFoot_transform_interp_array_id" count="15" stride="1">
            <param name="INTERPOLATION" type="Name" />
          </accessor>
        </technique_common>
      </source>
      <source id="Motion_7_LFoot_transform_pose_id" name="Motion_7_LFoot_transform_pose">
        <float_array id="Motion_7_LFoot_transform_pose_array_id" count="240">0.007887781 0.24379788 -0.9697939 33.9 0.04770519 0.96862817 0.24389282 4E-06 0.9988302 -0.04818795 -0.003990054 0 0 0 0 1 -0.00054717064 0.24710736 -0.968988 33.9 0.04818856 0.9678689 0.24679479 4E-06 0.9988381 -0.046559125 -0.012437344 0 0 0 0 1 -0.016763926 0.24977514 -0.9681588 33.9 0.051238365 0.9672372 0.24865018 4E-06 0.9985458 -0.045438543 -0.0290128 0 0 0 0 1 -0.038123965 0.25054172 -0.9673548 33.9 0.057564437 0.9670017 0.2481816 4E-06 0.99761355 -0.046223566 -0.051288247 0 0 0 0 1 -0.061281085 0.2482548 -0.9667544 33.9 0.06768632 0.9673788 0.24412459 4E-06 0.99582285 -0.050475806 -0.07608545 0 0 0 0 1 -0.08417094 0.24109754 -0.96684396 33.9 0.08174779 0.96868724 0.23444045 4E-06 0.9930924 -0.05930429 -0.10124457 0 0 0 0 1 -0.10916901 0.22478972 -0.9682724 33.9 0.1026703 0.97143453 0.2139481 4E-06 0.9887065 -0.07605628 -0.12912977 0 0 0 0 1 -0.12850857 0.1966643 -0.9720128 33.9 0.13168016 0.9748447 0.17982805 4E-06 0.98292726 -0.10488537 -0.15117264 0 0 0 0 1 -0.1346451 0.162464 -0.9774847 33.9 0.162875 0.97667867 0.13989459 4E-06 0.9774163 -0.1403717 -0.15796638 0 0 0 0 1 -0.12628102 0.13048375 -0.9833754 33.9 0.19048807 0.97605264 0.10505041 4E-06 0.97353345 -0.1740554 -0.14811254 0 0 0 0 1 -0.11002219 0.10740781 -0.9881085 33.9 0.21085197 0.9740388 0.0824008 4E-06 0.97130656 -0.19927871 -0.12981308 0 0 0 0 1 -0.09193361 0.093246914 -0.99138963 33.9 0.22473899 0.97186023 0.07056955 4E-06 0.9700725 -0.21631616 -0.110302806 0 0 0 0 1 -0.07291412 0.081583016 -0.99399585 33.9 0.23640645 0.96965855 0.062244006 4E-06 0.96891457 -0.23044857 -0.08998859 0 0 0 0 1 -0.054980278 0.072313935 -0.99586546 33.9 0.24497727 0.9678662 0.05675596 4E-06 0.9679687 -0.24084392 -0.07092881 0 0 0 0 1 -0.054980278 0.072313935 -0.99586546 33.9 0.24497727 0.9678662 0.05675596 4E-06 0.9679687 -0.24084392 -0.07092881 0 0 0 0 1</float_array>
        <technique_common>
          <accessor source="#Motion_7_LFoot_transform_pose_array_id" count="15" stride="16">
            <param name="TRANSFORM" type="float4x4" />
          </accessor>
        </technique_common>
      </source>
      <sampler id="Motion_7_LFoot_transform_samp_id">
        <input semantic="INPUT" source="#Motion_7_LFoot_transform_frame_id" />
        <input semantic="INTERPOLATION" source="#Motion_7_LFoot_transform_interp_id" />
        <input semantic="OUTPUT" source="#Motion_7_LFoot_transform_pose_id" />
      </sampler>
      <channel source="#Motion_7_LFoot_transform_samp_id" target="LFoot_bone_id/transform" />
    </animation>
    <animation id="Motion_7_RThigh_transform_id" name="Motion_7_RThigh_transform">
      <source id="Motion_7_RThigh_transform_frame_id" name="Motion_7_RThigh_transform_frame">
        <float_array id="Motion_7_RThigh_transform_frame_array_id" count="15">0 0.033333335 0.06666667 0.1 0.13333334 0.16666667 0.2 0.23333333 0.26666668 0.3 0.33333334 0.36666667 0.4 0.43333334 0.46666667</float_array>
        <technique_common>
          <accessor source="#Motion_7_RThigh_transform_frame_array_id" count="15" stride="1">
            <param name="TIME" type="float" />
          </accessor>
        </technique_common>
      </source>
      <source id="Motion_7_RThigh_transform_interp_id" name="Motion_7_RThigh_transform_interp">
        <Name_array id="Motion_7_RThigh_transform_interp_array_id" count="15">LINEAR LINEAR LINEAR LINEAR LINEAR LINEAR LINEAR LINEAR LINEAR LINEAR LINEAR LINEAR LINEAR LINEAR LINEAR</Name_array>
        <technique_common>
          <accessor source="#Motion_7_RThigh_transform_interp_array_id" count="15" stride="1">
            <param name="INTERPOLATION" type="Name" />
          </accessor>
        </technique_common>
      </source>
      <source id="Motion_7_RThigh_transform_pose_id" name="Motion_7_RThigh_transform_pose">
        <float_array id="Motion_7_RThigh_transform_pose_array_id" count="240">0.9757161 -0.14335112 -0.16561545 10.510002 0.17084785 0.97123456 0.16587476 -7.2 0.13707311 -0.19014172 0.9721405 0 0 0 0 1 0.97463727 -0.14994928 -0.16612473 10.510002 0.17739713 0.9702026 0.16503665 -7.2 0.13642752 -0.19032091 0.9721962 0 0 0 0 1 0.97524774 -0.15729469 -0.15540329 10.510002 0.1823479 0.96964693 0.16289271 -7.2 0.12506416 -0.1871982 0.9743284 0 0 0 0 1 0.97708297 -0.16312754 -0.13674153 10.510002 0.1840756 0.9701344 0.15797311 -7.2 0.10688789 -0.17952362 0.9779296 0 0 0 0 1 0.97995144 -0.162529 -0.11523651 10.510002 0.17898102 0.9722269 0.15079977 -7.2 0.0875267 -0.16840161 0.9818248 0 0 0 0 1 0.98391163 -0.151445 -0.09477487 10.510002 0.16392937 0.976211 0.14191265 -7.2 0.07102831 -0.1551659 0.98533165 0 0 0 0 1 0.9899905 -0.11336959 -0.08406056 10.510002 0.12385028 0.98344773 0.13225624 -7.2 0.06767533 -0.14134336 0.98764473 0 0 0 0 1 0.9963487 -0.044187233 -0.07305308 10.510002 0.053241536 0.99046683 0.1270466 -7.2 0.06674281 -0.13047217 0.9892029 0 0 0 0 1 0.9978324 0.038700316 -0.053223923 10.510002 -0.031893272 0.99186 0.12327457 -7.2 0.057561442 -0.121309884 0.99094427 0 0 0 0 1 0.99261963 0.11768939 -0.02924852 10.510002 -0.11354407 0.9866568 0.116688274 -7.2 0.04259122 -0.11250607 0.9927378 0 0 0 0 1 0.9846621 0.17366971 -0.016713895 10.510002 -0.17093112 0.97944343 0.10711288 -7.2 0.03497258 -0.10261307 0.99410635 0 0 0 0 1 0.9775768 0.20924799 -0.023641206 10.510002 -0.20601277 0.9735848 0.09844501 -7.2 0.04361614 -0.09136717 0.99486166 0 0 0 0 1 0.97054636 0.23843646 -0.034464262 10.510002 -0.23452169 0.9678117 0.091324344 -7.2 0.055129968 -0.08055189 0.99522465 0 0 0 0 1 0.96432483 0.26044345 -0.04740027 10.510002 -0.255772 0.96283025 0.086824775 -7.2 0.06825136 -0.071603626 0.9950953 0 0 0 0 1 0.96432483 0.26044345 -0.04740027 10.510002 -0.255772 0.96283025 0.086824775 -7.2 0.06825136 -0.071603626 0.9950953 0 0 0 0 1</float_array>
        <technique_common>
          <accessor source="#Motion_7_RThigh_transform_pose_array_id" count="15" stride="16">
            <param name="TRANSFORM" type="float4x4" />
          </accessor>
        </technique_common>
      </source>
      <sampler id="Motion_7_RThigh_transform_samp_id">
        <input semantic="INPUT" source="#Motion_7_RThigh_transform_frame_id" />
        <input semantic="INTERPOLATION" source="#Motion_7_RThigh_transform_interp_id" />
        <input semantic="OUTPUT" source="#Motion_7_RThigh_transform_pose_id" />
      </sampler>
      <channel source="#Motion_7_RThigh_transform_samp_id" target="RThigh_bone_id/transform" />
    </animation>
    <animation id="Motion_7_RLeg_transform_id" name="Motion_7_RLeg_transform">
      <source id="Motion_7_RLeg_transform_frame_id" name="Motion_7_RLeg_transform_frame">
        <float_array id="Motion_7_RLeg_transform_frame_array_id" count="15">0 0.033333335 0.06666667 0.1 0.13333334 0.16666667 0.2 0.23333333 0.26666668 0.3 0.33333334 0.36666667 0.4 0.43333334 0.46666667</float_array>
        <technique_common>
          <accessor source="#Motion_7_RLeg_transform_frame_array_id" count="15" stride="1">
            <param name="TIME" type="float" />
          </accessor>
        </technique_common>
      </source>
      <source id="Motion_7_RLeg_transform_interp_id" name="Motion_7_RLeg_transform_interp">
        <Name_array id="Motion_7_RLeg_transform_interp_array_id" count="15">LINEAR LINEAR LINEAR LINEAR LINEAR LINEAR LINEAR LINEAR LINEAR LINEAR LINEAR LINEAR LINEAR LINEAR LINEAR</Name_array>
        <technique_common>
          <accessor source="#Motion_7_RLeg_transform_interp_array_id" count="15" stride="1">
            <param name="INTERPOLATION" type="Name" />
          </accessor>
        </technique_common>
      </source>
      <source id="Motion_7_RLeg_transform_pose_id" name="Motion_7_RLeg_transform_pose">
        <float_array id="Motion_7_RLeg_transform_pose_array_id" count="240">0.995042 0 0.09945565 33.899998 0 1 0 0 -0.09945565 0 0.995042 0 0 0 0 1 0.9943541 0 0.10611258 33.899998 0 1 0 0 -0.10611258 0 0.9943541 0 0 0 0 1 0.99490273 0 0.10083927 33.899998 0 1 0 0 -0.10083927 0 0.99490273 0 0 0 0 1 0.99595296 0 0.08987613 33.899998 0 1 0 0 -0.08987613 0 0.99595296 0 0 0 0 1 0.99658483 0 0.082575575 33.899998 0 1 0 0 -0.082575575 0 0.99658483 0 0 0 0 1 0.9963062 0 0.0858721 33.899998 0 1 0 0 -0.0858721 0 0.9963062 0 0 0 0 1 0.9929219 0 0.118769296 33.899998 0 1 0 0 -0.118769296 0 0.9929219 0 0 0 0 1 0.98845303 0 0.15152755 33.899998 0 1 0 0 -0.15152755 0 0.98845303 0 0 0 0 1 0.9877756 0 0.1558824 33.899998 0 1 0 0 -0.1558824 0 0.9877756 0 0 0 0 1 0.9909358 0 0.13433625 33.899998 0 1 0 0 -0.13433625 0 0.9909358 0 0 0 0 1 0.9929634 0 0.11842162 33.899998 0 1 0 0 -0.11842162 0 0.9929634 0 0 0 0 1 0.9914059 0 0.13082172 33.899998 0 1 0 0 -0.13082172 0 0.9914059 0 0 0 0 1 0.98939455 0 0.14525297 33.899998 0 1 0 0 -0.14525297 0 0.98939455 0 0 0 0 1 0.98702675 0 0.16055574 33.899998 0 1 0 0 -0.16055574 0 0.98702675 0 0 0 0 1 0.98702675 0 0.16055574 33.899998 0 1 0 0 -0.16055574 0 0.98702675 0 0 0 0 1</float_array>
        <technique_common>
          <accessor source="#Motion_7_RLeg_transform_pose_array_id" count="15" stride="16">
            <param name="TRANSFORM" type="float4x4" />
          </accessor>
        </technique_common>
      </source>
      <sampler id="Motion_7_RLeg_transform_samp_id">
        <input semantic="INPUT" source="#Motion_7_RLeg_transform_frame_id" />
        <input semantic="INTERPOLATION" source="#Motion_7_RLeg_transform_interp_id" />
        <input semantic="OUTPUT" source="#Motion_7_RLeg_transform_pose_id" />
      </sampler>
      <channel source="#Motion_7_RLeg_transform_samp_id" target="RLeg_bone_id/transform" />
    </animation>
    <animation id="Motion_7_RFoot_transform_id" name="Motion_7_RFoot_transform">
      <source id="Motion_7_RFoot_transform_frame_id" name="Motion_7_RFoot_transform_frame">
        <float_array id="Motion_7_RFoot_transform_frame_array_id" count="15">0 0.033333335 0.06666667 0.1 0.13333334 0.16666667 0.2 0.23333333 0.26666668 0.3 0.33333334 0.36666667 0.4 0.43333334 0.46666667</float_array>
        <technique_common>
          <accessor source="#Motion_7_RFoot_transform_frame_array_id" count="15" stride="1">
            <param name="TIME" type="float" />
          </accessor>
        </technique_common>
      </source>
      <source id="Motion_7_RFoot_transform_interp_id" name="Motion_7_RFoot_transform_interp">
        <Name_array id="Motion_7_RFoot_transform_interp_array_id" count="15">LINEAR LINEAR LINEAR LINEAR LINEAR LINEAR LINEAR LINEAR LINEAR LINEAR LINEAR LINEAR LINEAR LINEAR LINEAR</Name_array>
        <technique_common>
          <accessor source="#Motion_7_RFoot_transform_interp_array_id" count="15" stride="1">
            <param name="INTERPOLATION" type="Name" />
          </accessor>
        </technique_common>
      </source>
      <source id="Motion_7_RFoot_transform_pose_id" name="Motion_7_RFoot_transform_pose">
        <float_array id="Motion_7_RFoot_transform_pose_array_id" count="240">-0.12301624 0.007895917 -0.9923733 33.9 -0.14839034 0.98858017 0.026260462 0 0.98124784 0.15048906 -0.12043977 0 0 0 0 1 -0.1276877 0.010976955 -0.99175376 33.9 -0.14780122 0.9885629 0.029970944 0 0.9807399 0.15040933 -0.12460494 0 0 0 0 1 -0.13056397 0.0139498785 -0.99134165 33.9 -0.14565954 0.988781 0.033097852 0 0.9806815 0.14871977 -0.12706733 0 0 0 0 1 -0.13207674 0.015322179 -0.991121 33.9 -0.14147197 0.9893531 0.034147393 0 0.9810919 0.14472592 -0.12850285 0 0 0 0 1 -0.13641775 0.013327815 -0.9905618 33.9 -0.1346026 0.99038726 0.03186261 0 0.98146445 0.1376788 -0.13331246 0 0 0 0 1 -0.14717841 0.005624201 -0.9890941 33.9 -0.124754235 0.9918924 0.0242037 0 0.981211 0.12695593 -0.14528358 0 0 0 0 1 -0.17277741 -0.013285931 -0.98487127 33.9 -0.109911114 0.9939241 0.005873807 0 0.97880924 0.10926316 -0.17318785 0 0 0 0 1 -0.19696748 -0.044564985 -0.9793965 33.9 -0.089042924 0.99565095 -0.02739706 0 0.976358 0.081812 -0.20007908 0 0 0 0 1 -0.2050029 -0.07998004 -0.975488 33.9 -0.06550755 0.9955421 -0.06785758 0 0.9765666 0.049990833 -0.2093283 0 0 0 0 1 -0.19793475 -0.11098095 -0.9739123 33.9 -0.043199517 0.99359214 -0.10444382 0 0.9792629 0.021399487 -0.20146072 0 0 0 0 1 -0.1898669 -0.13167185 -0.9729403 33.9 -0.025655799 0.99129325 -0.12914896 0 0.9814745 0.00044044107 -0.19159198 0 0 0 0 1 -0.19427288 -0.14405961 -0.9703118 33.9 -0.013005391 0.98944896 -0.14429697 0 0.98086137 -0.015413694 -0.19409668 0 0 0 0 1 -0.19897342 -0.15208533 -0.9681322 33.9 -0.0028790608 0.98797137 -0.15461022 0 0.9800008 -0.027975991 -0.19701791 0 0 0 0 1 -0.20373762 -0.15779611 -0.9662254 33.9 0.0047179535 0.98675585 -0.16214381 0 0.9790143 -0.037593395 -0.20029485 0 0 0 0 1 -0.20373762 -0.15779611 -0.9662254 33.9 0.0047179535 0.98675585 -0.16214381 0 0.9790143 -0.037593395 -0.20029485 0 0 0 0 1</float_array>
        <technique_common>
          <accessor source="#Motion_7_RFoot_transform_pose_array_id" count="15" stride="16">
            <param name="TRANSFORM" type="float4x4" />
          </accessor>
        </technique_common>
      </source>
      <sampler id="Motion_7_RFoot_transform_samp_id">
        <input semantic="INPUT" source="#Motion_7_RFoot_transform_frame_id" />
        <input semantic="INTERPOLATION" source="#Motion_7_RFoot_transform_interp_id" />
        <input semantic="OUTPUT" source="#Motion_7_RFoot_transform_pose_id" />
      </sampler>
      <channel source="#Motion_7_RFoot_transform_samp_id" target="RFoot_bone_id/transform" />
    </animation>
  </library_animations>
  <library_visual_scenes>
    <visual_scene id="tr0110_00_fi_00_clip_id" name="tr0110_00_fi_00_clip">
      <node id="tr0110_00_fi_bone_id" name="tr0110_00_fi" sid="tr0110_00_fi" type="JOINT">
        <matrix sid="transform">1 0 0 0 0 1 0 0 0 0 1 0 0 0 0 1</matrix>
        <node id="Origin_bone_id" name="Origin" sid="Origin" type="JOINT">
          <matrix sid="transform">1 0 0 0 0 1 0 0 0 0 1 0 0 0 0 1</matrix>
          <node id="Waist_bone_id" name="Waist" sid="Waist" type="JOINT">
            <matrix sid="transform">3.1391647E-07 -1 0 0 1 3.1391647E-07 0 88.8 0 0 1 0 0 0 0 1</matrix>
            <node id="Spine2_bone_id" name="Spine2" sid="Spine2" type="JOINT">
              <matrix sid="transform">1 0 0 12.099998 0 1 0 0 0 0 1 0 0 0 0 1</matrix>
              <node id="Spine3_bone_id" name="Spine3" sid="Spine3" type="JOINT">
                <matrix sid="transform">0.9919065 0 0.12697035 12.099991 0 1 0 0 -0.12697035 0 0.9919065 0 0 0 0 1</matrix>
                <node id="Neck_bone_id" name="Neck" sid="Neck" type="JOINT">
                  <matrix sid="transform">0.9441987 0 -0.32937634 15.720233 0 1 0 0 0.32937634 0 0.9441987 0 0 0 0 1</matrix>
                  <node id="Head_bone_id" name="Head" sid="Head" type="JOINT">
                    <matrix sid="transform">0.9783777 0 0.2068263 5.129917 0 1 0 0 -0.2068263 0 0.9783777 0 0 0 0 1</matrix>
                    <node id="Hair_bone_id" name="Hair" sid="Hair" type="JOINT">
                      <matrix sid="transform">-0.9573411 0 0.28896025 13 0 1 0 0 -0.28896025 0 -0.9573411 -8.7 0 0 0 1</matrix>
                    </node>
                    <node id="Loc_Head_bone_id" name="Loc_Head" sid="Loc_Head" type="JOINT">
                      <matrix sid="transform">3.1391647E-07 1 0 31.57833 -1 3.1391647E-07 0 0 0 0 1 0.935 0 0 0 1</matrix>
                    </node>
                    <node id="Loc_Eye_bone_id" name="Loc_Eye" sid="Loc_Eye" type="JOINT">
                      <matrix sid="transform">3.1391647E-07 1 0 9.278537 -1 3.1391647E-07 0 0 0 0 1 13.201164 0 0 0 1</matrix>
                    </node>
                    <node id="Loc_Mouth_bone_id" name="Loc_Mouth" sid="Loc_Mouth" type="JOINT">
                      <matrix sid="transform">3.1391647E-07 1 0 1.209505 -1 3.1391647E-07 0 0 0 0 1 13.426648 0 0 0 1</matrix>
                    </node>
                  </node>
                </node>
                <node id="LShoulder_bone_id" name="LShoulder" sid="LShoulder" type="JOINT">
                  <matrix sid="transform">-0.5887142 0.798307 -0.12697051 14.14009 -0.80482084 -0.59351784 -2.6574628E-07 -3.930001 -0.075359486 0.10218836 0.99190646 -0.201936 0 0 0 1</matrix>
                  <node id="LArm_bone_id" name="LArm" sid="LArm" type="JOINT">
                    <matrix sid="transform">0.8048207 -0.593518 0 8.161509 0.593518 0.8048207 0 0 0 0 1 0 0 0 0 1</matrix>
                    <node id="LForeArm_bone_id" name="LForeArm" sid="LForeArm" type="JOINT">
                      <matrix sid="transform">1 0 0 22.9 0 1 0 0 0 0 1 0 0 0 0 1</matrix>
                      <node id="LHand_bone_id" name="LHand" sid="LHand" type="JOINT">
                        <matrix sid="transform">1 0 0 22.900002 0 1 0 0 0 0 1 0 0 0 0 1</matrix>
                      </node>
                    </node>
                  </node>
                </node>
                <node id="RShoulder_bone_id" name="RShoulder" sid="RShoulder" type="JOINT">
                  <matrix sid="transform">-0.58871174 -0.79830885 -0.12696993 14.14009 0.8048227 -0.5935153 -1.4453335E-07 3.93 -0.07535849 -0.10218837 0.9919065 -0.201935 0 0 0 1</matrix>
                  <node id="RArm_bone_id" name="RArm" sid="RArm" type="JOINT">
                    <matrix sid="transform">0.8048231 0.5935148 0 8.161548 -0.5935148 0.8048231 0 0 0 0 1 0 0 0 0 1</matrix>
                    <node id="RForeArm_bone_id" name="RForeArm" sid="RForeArm" type="JOINT">
                      <matrix sid="transform">1 0 0 22.9 0 1 0 0 0 0 1 0 0 0 0 1</matrix>
                      <node id="RHand_bone_id" name="RHand" sid="RHand" type="JOINT">
                        <matrix sid="transform">1 0 0 22.900002 0 1 0 0 0 0 1 0 0 0 0 1</matrix>
                      </node>
                    </node>
                  </node>
                </node>
              </node>
            </node>
            <node id="Hips_bone_id" name="Hips" sid="Hips" type="JOINT">
              <matrix sid="transform">-1 -3.2584137E-07 0 -0.010002 3.2584137E-07 -1 0 0 0 0 1 0 0 0 0 1</matrix>
              <node id="LThigh_bone_id" name="LThigh" sid="LThigh" type="JOINT">
                <matrix sid="transform">1 0 0 10.510002 0 1 0 7.199996 0 0 1 0 0 0 0 1</matrix>
                <node id="LLeg_bone_id" name="LLeg" sid="LLeg" type="JOINT">
                  <matrix sid="transform">1 0 0 33.899998 0 1 0 0 0 0 1 0 0 0 0 1</matrix>
                  <node id="LFoot_bone_id" name="LFoot" sid="LFoot" type="JOINT">
                    <matrix sid="transform">3.1391647E-07 0 -1 33.9 0 1 0 4E-06 1 0 3.1391647E-07 0 0 0 0 1</matrix>
                  </node>
                </node>
              </node>
              <node id="RThigh_bone_id" name="RThigh" sid="RThigh" type="JOINT">
                <matrix sid="transform">1 0 0 10.510002 0 1 0 -7.2 0 0 1 0 0 0 0 1</matrix>
                <node id="RLeg_bone_id" name="RLeg" sid="RLeg" type="JOINT">
                  <matrix sid="transform">1 0 0 33.899998 0 1 0 0 0 0 1 0 0 0 0 1</matrix>
                  <node id="RFoot_bone_id" name="RFoot" sid="RFoot" type="JOINT">
                    <matrix sid="transform">3.1391647E-07 0 -1 33.9 0 1 0 0 1 0 3.1391647E-07 0 0 0 0 1</matrix>
                  </node>
                </node>
              </node>
            </node>
          </node>
          <node id="CamTgtHead_bone_id" name="CamTgtHead" sid="CamTgtHead" type="JOINT">
            <matrix sid="transform">1 0 0 0 0 1 0 142.89053 0 0 1 0 0 0 0 1</matrix>
          </node>
          <node id="CamTgtBust_bone_id" name="CamTgtBust" sid="CamTgtBust" type="JOINT">
            <matrix sid="transform">1 0 0 0 0 1 0 112.99999 0 0 1 0 0 0 0 1</matrix>
          </node>
          <node id="CamTgtBody_bone_id" name="CamTgtBody" sid="CamTgtBody" type="JOINT">
            <matrix sid="transform">1 0 0 0 0 1 0 88.8 0 0 1 0 0 0 0 1</matrix>
          </node>
          <node id="CamTgtFoot_bone_id" name="CamTgtFoot" sid="CamTgtFoot" type="JOINT">
            <matrix sid="transform">1 0 0 0 0 1 0 0 0 0 1 0 0 0 0 1</matrix>
          </node>
        </node>
        <node id="tr0110_00_fi_BodySkin_bone_id" name="tr0110_00_fi_BodySkin" sid="tr0110_00_fi_BodySkin" type="JOINT">
          <matrix sid="transform">1 0 0 0 0 1 0 0 0 0 1 0 0 0 0 1</matrix>
        </node>
        <node id="tr0110_00_fi_FaceSkin_bone_id" name="tr0110_00_fi_FaceSkin" sid="tr0110_00_fi_FaceSkin" type="JOINT">
          <matrix sid="transform">1 0 0 0 0 1 0 0 0 0 1 0 0 0 0 1</matrix>
        </node>
        <node id="tr0110_00_fi_HeadSkin_bone_id" name="tr0110_00_fi_HeadSkin" sid="tr0110_00_fi_HeadSkin" type="JOINT">
          <matrix sid="transform">1 0 0 0 0 1 0 0 0 0 1 0 0 0 0 1</matrix>
        </node>
        <node id="tr0110_00_fi_BodypartsSkin_bone_id" name="tr0110_00_fi_BodypartsSkin" sid="tr0110_00_fi_BodypartsSkin" type="JOINT">
          <matrix sid="transform">1 0 0 0 0 1 0 0 0 0 1 0 0 0 0 1</matrix>
        </node>
      </node>
    </visual_scene>
  </library_visual_scenes>
  <scene>
    <instance_visual_scene url="#tr0110_00_fi_00_clip_id" />
  </scene>
</COLLADA>