<?xml version="1.0" encoding="utf-8"?>
<COLLADA xmlns="http://www.collada.org/2005/11/COLLADASchema" version="1.4.1">
	<asset>
		<created>2026-02-17T06:55:53Z</created>
		<modified>2026-02-17T06:55:53Z</modified>
		<up_axis>Y_UP</up_axis>
	</asset>
	<library_animations>
		<animation id="anim_Jaw_transform" name="anim_Jaw_transform">
			<source id="anim_Jaw_transform_input">
				<float_array id="anim_Jaw_transform_input_array" count="71">0 0.03333333333333333 0.06666666666666667 0.1 0.13333333333333333 0.16666666666666666 0.2 0.23333333333333334 0.26666666666666666 0.3 0.3333333333333333 0.36666666666666664 0.4 0.43333333333333335 0.4666666666666667 0.5 0.5333333333333333 0.5666666666666667 0.6 0.6333333333333333 0.6666666666666666 0.7 0.7333333333333333 0.7666666666666667 0.8 0.8333333333333334 0.8666666666666667 0.9 0.9333333333333333 0.9666666666666667 1 1.0333333333333334 1.0666666666666667 1.1 1.1333333333333333 1.1666666666666667 1.2 1.2333333333333334 1.2666666666666666 1.3 1.3333333333333333 1.3666666666666667 1.4 1.4333333333333333 1.4666666666666666 1.5 1.5333333333333334 1.5666666666666667 1.6 1.6333333333333333 1.6666666666666667 1.7 1.7333333333333334 1.7666666666666666 1.8 1.8333333333333333 1.8666666666666667 1.9 1.9333333333333333 1.9666666666666666 2 2.033333333333333 2.066666666666667 2.1 2.1333333333333333 2.1666666666666665 2.2 2.2333333333333334 2.2666666666666666 2.3 2.3333333333333335</float_array>
				<technique_common>
					<accessor source="#anim_Jaw_transform_input_array" count="71" stride="1">
						<param name="TIME" type="float"/>
					</accessor>
				</technique_common>
			</source>
			<source id="anim_Jaw_transform_output">
				<float_array id="anim_Jaw_transform_output_array" count="1136">0.9544889591664323 1.0356955529440257e-7 0.29824625199551125 12.22148323059082 -6.388596863960281e-9 -0.9999999999999332 3.6770755619507855e-7 0 0.2982462519955291 -3.528781776604594e-7 -0.9544889591663679 3.3274340629577637 0 0 0 1 0.9544889591664323 1.0356955529440257e-7 0.29824625199551125 12.22148323059082 -6.388596863960281e-9 -0.9999999999999332 3.6770755619507855e-7 0 0.2982462519955291 -3.528781776604594e-7 -0.9544889591663679 3.3274340629577637 0 0 0 1 0.9544889591664323 1.0356955529440257e-7 0.29824625199551125 12.22148323059082 -6.388596863960281e-9 -0.9999999999999332 3.6770755619507855e-7 0 0.2982462519955291 -3.528781776604594e-7 -0.9544889591663679 3.3274340629577637 0 0 0 1 0.9544889591664323 1.0356955529440257e-7 0.29824625199551125 12.22148323059082 -6.388596863960281e-9 -0.9999999999999332 3.6770755619507855e-7 0 0.2982462519955291 -3.528781776604594e-7 -0.9544889591663679 3.3274340629577637 0 0 0 1 0.9544889591664323 1.0356955529440257e-7 0.29824625199551125 12.22148323059082 -6.388596863960281e-9 -0.9999999999999332 3.6770755619507855e-7 0 0.2982462519955291 -3.528781776604594e-7 -0.9544889591663679 3.3274340629577637 0 0 0 1 0.9544889591664323 1.0356955529440257e-7 0.29824625199551125 12.22148323059082 -6.388596863960281e-9 -0.9999999999999332 3.6770755619507855e-7 0 0.2982462519955291 -3.528781776604594e-7 -0.9544889591663679 3.3274340629577637 0 0 0 1 0.9544889591664323 1.0356955529440257e-7 0.29824625199551125 12.22148323059082 -6.388596863960281e-9 -0.9999999999999332 3.6770755619507855e-7 0 0.2982462519955291 -3.528781776604594e-7 -0.9544889591663679 3.3274340629577637 0 0 0 1 0.9544889591664323 1.0356955529440257e-7 0.29824625199551125 12.22148323059082 -6.388596863960281e-9 -0.9999999999999332 3.6770755619507855e-7 0 0.2982462519955291 -3.528781776604594e-7 -0.9544889591663679 3.3274340629577637 0 0 0 1 0.9544889591664323 1.0356955529440257e-7 0.29824625199551125 12.22148323059082 -6.388596863960281e-9 -0.9999999999999332 3.6770755619507855e-7 0 0.2982462519955291 -3.528781776604594e-7 -0.9544889591663679 3.3274340629577637 0 0 0 1 0.9544889591664323 1.0356955529440257e-7 0.29824625199551125 12.22148323059082 -6.388596863960281e-9 -0.9999999999999332 3.6770755619507855e-7 0 0.2982462519955291 -3.528781776604594e-7 -0.9544889591663679 3.3274340629577637 0 0 0 1 0.8539847056152874 -4.2710011035714936e-7 0.520298109332514 12.22148323059082 5.217495253095554e-7 -0.9999999999984575 -0.0000016772427373461406 0 0.5202981093324276 0.0000017038049368616208 -0.8539847056137471 3.3274340629577637 0 0 0 1 0.8539847056152874 -4.2710011035714936e-7 0.520298109332514 12.22148323059082 5.217495253095554e-7 -0.9999999999984575 -0.0000016772427373461406 0 0.5202981093324276 0.0000017038049368616208 -0.8539847056137471 3.3274340629577637 0 0 0 1 0.8539847056152874 -4.2710011035714936e-7 0.520298109332514 12.22148323059082 5.217495253095554e-7 -0.9999999999984575 -0.0000016772427373461406 0 0.5202981093324276 0.0000017038049368616208 -0.8539847056137471 3.3274340629577637 0 0 0 1 0.8539847056152874 -4.2710011035714936e-7 0.520298109332514 12.22148323059082 5.217495253095554e-7 -0.9999999999984575 -0.0000016772427373461406 0 0.5202981093324276 0.0000017038049368616208 -0.8539847056137471 3.3274340629577637 0 0 0 1 0.8539847056152874 -4.2710011035714936e-7 0.520298109332514 12.22148323059082 5.217495253095554e-7 -0.9999999999984575 -0.0000016772427373461406 0 0.5202981093324276 0.0000017038049368616208 -0.8539847056137471 3.3274340629577637 0 0 0 1 0.8539847056152874 -4.2710011035714936e-7 0.520298109332514 12.22148323059082 5.217495253095554e-7 -0.9999999999984575 -0.0000016772427373461406 0 0.5202981093324276 0.0000017038049368616208 -0.8539847056137471 3.3274340629577637 0 0 0 1 0.8539847056152874 -4.2710011035714936e-7 0.520298109332514 12.22148323059082 5.217495253095554e-7 -0.9999999999984575 -0.0000016772427373461406 0 0.5202981093324276 0.0000017038049368616208 -0.8539847056137471 3.3274340629577637 0 0 0 1 0.8539847056152874 -4.2710011035714936e-7 0.520298109332514 12.22148323059082 5.217495253095554e-7 -0.9999999999984575 -0.0000016772427373461406 0 0.5202981093324276 0.0000017038049368616208 -0.8539847056137471 3.3274340629577637 0 0 0 1 0.8539847056152874 -4.2710011035714936e-7 0.520298109332514 12.22148323059082 5.217495253095554e-7 -0.9999999999984575 -0.0000016772427373461406 0 0.5202981093324276 0.0000017038049368616208 -0.8539847056137471 3.3274340629577637 0 0 0 1 0.8539847056152874 -4.2710011035714936e-7 0.520298109332514 12.22148323059082 5.217495253095554e-7 -0.9999999999984575 -0.0000016772427373461406 0 0.5202981093324276 0.0000017038049368616208 -0.8539847056137471 3.3274340629577637 0 0 0 1 0.7271465096583989 2.0267131927061895e-7 0.6864823038444379 12.22148323059082 -1.1131698682422463e-7 -0.999999999999909 4.131425910285297e-7 0 0.6864823038444587 -3.7683233462973735e-7 -0.7271465096583103 3.3274340629577637 0 0 0 1 0.7271465096583989 2.0267131927061895e-7 0.6864823038444379 12.22148323059082 -1.1131698682422463e-7 -0.999999999999909 4.131425910285297e-7 0 0.6864823038444587 -3.7683233462973735e-7 -0.7271465096583103 3.3274340629577637 0 0 0 1 0.7271465096583989 2.0267131927061895e-7 0.6864823038444379 12.22148323059082 -1.1131698682422463e-7 -0.999999999999909 4.131425910285297e-7 0 0.6864823038444587 -3.7683233462973735e-7 -0.7271465096583103 3.3274340629577637 0 0 0 1 0.7271465096583989 2.0267131927061895e-7 0.6864823038444379 12.22148323059082 -1.1131698682422463e-7 -0.999999999999909 4.131425910285297e-7 0 0.6864823038444587 -3.7683233462973735e-7 -0.7271465096583103 3.3274340629577637 0 0 0 1 0.7271465096583989 2.0267131927061895e-7 0.6864823038444379 12.22148323059082 -1.1131698682422463e-7 -0.999999999999909 4.131425910285297e-7 0 0.6864823038444587 -3.7683233462973735e-7 -0.7271465096583103 3.3274340629577637 0 0 0 1 0.7271465096583989 2.0267131927061895e-7 0.6864823038444379 12.22148323059082 -1.1131698682422463e-7 -0.999999999999909 4.131425910285297e-7 0 0.6864823038444587 -3.7683233462973735e-7 -0.7271465096583103 3.3274340629577637 0 0 0 1 0.7271465096583989 2.0267131927061895e-7 0.6864823038444379 12.22148323059082 -1.1131698682422463e-7 -0.999999999999909 4.131425910285297e-7 0 0.6864823038444587 -3.7683233462973735e-7 -0.7271465096583103 3.3274340629577637 0 0 0 1 0.7271465096583989 2.0267131927061895e-7 0.6864823038444379 12.22148323059082 -1.1131698682422463e-7 -0.999999999999909 4.131425910285297e-7 0 0.6864823038444587 -3.7683233462973735e-7 -0.7271465096583103 3.3274340629577637 0 0 0 1 0.7271465096583989 2.0267131927061895e-7 0.6864823038444379 12.22148323059082 -1.1131698682422463e-7 -0.999999999999909 4.131425910285297e-7 0 0.6864823038444587 -3.7683233462973735e-7 -0.7271465096583103 3.3274340629577637 0 0 0 1 0.7271465096583989 2.0267131927061895e-7 0.6864823038444379 12.22148323059082 -1.1131698682422463e-7 -0.999999999999909 4.131425910285297e-7 0 0.6864823038444587 -3.7683233462973735e-7 -0.7271465096583103 3.3274340629577637 0 0 0 1 0.9544889591664323 1.0356955529440257e-7 0.29824625199551125 12.22148323059082 -6.388596863960281e-9 -0.9999999999999332 3.6770755619507855e-7 0 0.2982462519955291 -3.528781776604594e-7 -0.9544889591663679 3.3274340629577637 0 0 0 1 0.9544889591664323 1.0356955529440257e-7 0.29824625199551125 12.22148323059082 -6.388596863960281e-9 -0.9999999999999332 3.6770755619507855e-7 0 0.2982462519955291 -3.528781776604594e-7 -0.9544889591663679 3.3274340629577637 0 0 0 1 0.9544889591664323 1.0356955529440257e-7 0.29824625199551125 12.22148323059082 -6.388596863960281e-9 -0.9999999999999332 3.6770755619507855e-7 0 0.2982462519955291 -3.528781776604594e-7 -0.9544889591663679 3.3274340629577637 0 0 0 1 0.9544889591664323 1.0356955529440257e-7 0.29824625199551125 12.22148323059082 -6.388596863960281e-9 -0.9999999999999332 3.6770755619507855e-7 0 0.2982462519955291 -3.528781776604594e-7 -0.9544889591663679 3.3274340629577637 0 0 0 1 0.9544889591664323 1.0356955529440257e-7 0.29824625199551125 12.22148323059082 -6.388596863960281e-9 -0.9999999999999332 3.6770755619507855e-7 0 0.2982462519955291 -3.528781776604594e-7 -0.9544889591663679 3.3274340629577637 0 0 0 1 0.9544889591664323 1.0356955529440257e-7 0.29824625199551125 12.22148323059082 -6.388596863960281e-9 -0.9999999999999332 3.6770755619507855e-7 0 0.2982462519955291 -3.528781776604594e-7 -0.9544889591663679 3.3274340629577637 0 0 0 1 0.9544889591664323 1.0356955529440257e-7 0.29824625199551125 12.22148323059082 -6.388596863960281e-9 -0.9999999999999332 3.6770755619507855e-7 0 0.2982462519955291 -3.528781776604594e-7 -0.9544889591663679 3.3274340629577637 0 0 0 1 0.9544889591664323 1.0356955529440257e-7 0.29824625199551125 12.22148323059082 -6.388596863960281e-9 -0.9999999999999332 3.6770755619507855e-7 0 0.2982462519955291 -3.528781776604594e-7 -0.9544889591663679 3.3274340629577637 0 0 0 1 0.9544889591664323 1.0356955529440257e-7 0.29824625199551125 12.22148323059082 -6.388596863960281e-9 -0.9999999999999332 3.6770755619507855e-7 0 0.2982462519955291 -3.528781776604594e-7 -0.9544889591663679 3.3274340629577637 0 0 0 1 0.9544889591664323 1.0356955529440257e-7 0.29824625199551125 12.22148323059082 -6.388596863960281e-9 -0.9999999999999332 3.6770755619507855e-7 0 0.2982462519955291 -3.528781776604594e-7 -0.9544889591663679 3.3274340629577637 0 0 0 1 0.8881986597422113 -3.8205990170419427e-7 0.45945961828216597 12.22148323059082 4.775786695030615e-7 -0.9999999999983469 -0.0000017547671303346508 0 0.4594596182820766 0.0000017780099265125042 -0.8881986597405604 3.3274340629577637 0 0 0 1 0.8881986597422113 -3.8205990170419427e-7 0.45945961828216597 12.22148323059082 4.775786695030615e-7 -0.9999999999983469 -0.0000017547671303346508 0 0.4594596182820766 0.0000017780099265125042 -0.8881986597405604 3.3274340629577637 0 0 0 1 0.8881986597422113 -3.8205990170419427e-7 0.45945961828216597 12.22148323059082 4.775786695030615e-7 -0.9999999999983469 -0.0000017547671303346508 0 0.4594596182820766 0.0000017780099265125042 -0.8881986597405604 3.3274340629577637 0 0 0 1 0.8881986597422113 -3.8205990170419427e-7 0.45945961828216597 12.22148323059082 4.775786695030615e-7 -0.9999999999983469 -0.0000017547671303346508 0 0.4594596182820766 0.0000017780099265125042 -0.8881986597405604 3.3274340629577637 0 0 0 1 0.8881986597422113 -3.8205990170419427e-7 0.45945961828216597 12.22148323059082 4.775786695030615e-7 -0.9999999999983469 -0.0000017547671303346508 0 0.4594596182820766 0.0000017780099265125042 -0.8881986597405604 3.3274340629577637 0 0 0 1 0.8881986597422113 -3.8205990170419427e-7 0.45945961828216597 12.22148323059082 4.775786695030615e-7 -0.9999999999983469 -0.0000017547671303346508 0 0.4594596182820766 0.0000017780099265125042 -0.8881986597405604 3.3274340629577637 0 0 0 1 0.8881986597422113 -3.8205990170419427e-7 0.45945961828216597 12.22148323059082 4.775786695030615e-7 -0.9999999999983469 -0.0000017547671303346508 0 0.4594596182820766 0.0000017780099265125042 -0.8881986597405604 3.3274340629577637 0 0 0 1 0.8881986597422113 -3.8205990170419427e-7 0.45945961828216597 12.22148323059082 4.775786695030615e-7 -0.9999999999983469 -0.0000017547671303346508 0 0.4594596182820766 0.0000017780099265125042 -0.8881986597405604 3.3274340629577637 0 0 0 1 0.8881986597422113 -3.8205990170419427e-7 0.45945961828216597 12.22148323059082 4.775786695030615e-7 -0.9999999999983469 -0.0000017547671303346508 0 0.4594596182820766 0.0000017780099265125042 -0.8881986597405604 3.3274340629577637 0 0 0 1 0.8881986597422113 -3.8205990170419427e-7 0.45945961828216597 12.22148323059082 4.775786695030615e-7 -0.9999999999983469 -0.0000017547671303346508 0 0.4594596182820766 0.0000017780099265125042 -0.8881986597405604 3.3274340629577637 0 0 0 1 0.9544889591664323 1.0356955529440257e-7 0.29824625199551125 12.22148323059082 -6.388596863960281e-9 -0.9999999999999332 3.6770755619507855e-7 0 0.2982462519955291 -3.528781776604594e-7 -0.9544889591663679 3.3274340629577637 0 0 0 1 0.9544889591664323 1.0356955529440257e-7 0.29824625199551125 12.22148323059082 -6.388596863960281e-9 -0.9999999999999332 3.6770755619507855e-7 0 0.2982462519955291 -3.528781776604594e-7 -0.9544889591663679 3.3274340629577637 0 0 0 1 0.9544889591664323 1.0356955529440257e-7 0.29824625199551125 12.22148323059082 -6.388596863960281e-9 -0.9999999999999332 3.6770755619507855e-7 0 0.2982462519955291 -3.528781776604594e-7 -0.9544889591663679 3.3274340629577637 0 0 0 1 0.9544889591664323 1.0356955529440257e-7 0.29824625199551125 12.22148323059082 -6.388596863960281e-9 -0.9999999999999332 3.6770755619507855e-7 0 0.2982462519955291 -3.528781776604594e-7 -0.9544889591663679 3.3274340629577637 0 0 0 1 0.9544889591664323 1.0356955529440257e-7 0.29824625199551125 12.22148323059082 -6.388596863960281e-9 -0.9999999999999332 3.6770755619507855e-7 0 0.2982462519955291 -3.528781776604594e-7 -0.9544889591663679 3.3274340629577637 0 0 0 1 0.9544889591664323 1.0356955529440257e-7 0.29824625199551125 12.22148323059082 -6.388596863960281e-9 -0.9999999999999332 3.6770755619507855e-7 0 0.2982462519955291 -3.528781776604594e-7 -0.9544889591663679 3.3274340629577637 0 0 0 1 0.9544889591664323 1.0356955529440257e-7 0.29824625199551125 12.22148323059082 -6.388596863960281e-9 -0.9999999999999332 3.6770755619507855e-7 0 0.2982462519955291 -3.528781776604594e-7 -0.9544889591663679 3.3274340629577637 0 0 0 1 0.9544889591664323 1.0356955529440257e-7 0.29824625199551125 12.22148323059082 -6.388596863960281e-9 -0.9999999999999332 3.6770755619507855e-7 0 0.2982462519955291 -3.528781776604594e-7 -0.9544889591663679 3.3274340629577637 0 0 0 1 0.9544889591664323 1.0356955529440257e-7 0.29824625199551125 12.22148323059082 -6.388596863960281e-9 -0.9999999999999332 3.6770755619507855e-7 0 0.2982462519955291 -3.528781776604594e-7 -0.9544889591663679 3.3274340629577637 0 0 0 1 0.9544889591664323 1.0356955529440257e-7 0.29824625199551125 12.22148323059082 -6.388596863960281e-9 -0.9999999999999332 3.6770755619507855e-7 0 0.2982462519955291 -3.528781776604594e-7 -0.9544889591663679 3.3274340629577637 0 0 0 1 0.9544889591664323 1.0356955529440257e-7 0.29824625199551125 12.22148323059082 -6.388596863960281e-9 -0.9999999999999332 3.6770755619507855e-7 0 0.2982462519955291 -3.528781776604594e-7 -0.9544889591663679 3.3274340629577637 0 0 0 1 0.9544889591664323 1.0356955529440257e-7 0.29824625199551125 12.22148323059082 -6.388596863960281e-9 -0.9999999999999332 3.6770755619507855e-7 0 0.2982462519955291 -3.528781776604594e-7 -0.9544889591663679 3.3274340629577637 0 0 0 1 0.9544889591664323 1.0356955529440257e-7 0.29824625199551125 12.22148323059082 -6.388596863960281e-9 -0.9999999999999332 3.6770755619507855e-7 0 0.2982462519955291 -3.528781776604594e-7 -0.9544889591663679 3.3274340629577637 0 0 0 1 0.9544889591664323 1.0356955529440257e-7 0.29824625199551125 12.22148323059082 -6.388596863960281e-9 -0.9999999999999332 3.6770755619507855e-7 0 0.2982462519955291 -3.528781776604594e-7 -0.9544889591663679 3.3274340629577637 0 0 0 1 0.9544889591664323 1.0356955529440257e-7 0.29824625199551125 12.22148323059082 -6.388596863960281e-9 -0.9999999999999332 3.6770755619507855e-7 0 0.2982462519955291 -3.528781776604594e-7 -0.9544889591663679 3.3274340629577637 0 0 0 1 0.9544889591664323 1.0356955529440257e-7 0.29824625199551125 12.22148323059082 -6.388596863960281e-9 -0.9999999999999332 3.6770755619507855e-7 0 0.2982462519955291 -3.528781776604594e-7 -0.9544889591663679 3.3274340629577637 0 0 0 1 0.9544889591664323 1.0356955529440257e-7 0.29824625199551125 12.22148323059082 -6.388596863960281e-9 -0.9999999999999332 3.6770755619507855e-7 0 0.2982462519955291 -3.528781776604594e-7 -0.9544889591663679 3.3274340629577637 0 0 0 1 0.9544889591664323 1.0356955529440257e-7 0.29824625199551125 12.22148323059082 -6.388596863960281e-9 -0.9999999999999332 3.6770755619507855e-7 0 0.2982462519955291 -3.528781776604594e-7 -0.9544889591663679 3.3274340629577637 0 0 0 1 0.9544889591664323 1.0356955529440257e-7 0.29824625199551125 12.22148323059082 -6.388596863960281e-9 -0.9999999999999332 3.6770755619507855e-7 0 0.2982462519955291 -3.528781776604594e-7 -0.9544889591663679 3.3274340629577637 0 0 0 1 0.9544889591664323 1.0356955529440257e-7 0.29824625199551125 12.22148323059082 -6.388596863960281e-9 -0.9999999999999332 3.6770755619507855e-7 0 0.2982462519955291 -3.528781776604594e-7 -0.9544889591663679 3.3274340629577637 0 0 0 1 0.9544889591664323 1.0356955529440257e-7 0.29824625199551125 12.22148323059082 -6.388596863960281e-9 -0.9999999999999332 3.6770755619507855e-7 0 0.2982462519955291 -3.528781776604594e-7 -0.9544889591663679 3.3274340629577637 0 0 0 1</float_array>
				<technique_common>
					<accessor source="#anim_Jaw_transform_output_array" count="71" stride="16">
						<param name="TRANSFORM" type="float4x4"/>
					</accessor>
				</technique_common>
			</source>
			<source id="anim_Jaw_transform_interpolation">
				<Name_array id="anim_Jaw_transform_interpolation_array" count="71">LINEAR LINEAR LINEAR LINEAR LINEAR LINEAR LINEAR LINEAR LINEAR LINEAR LINEAR LINEAR LINEAR LINEAR LINEAR LINEAR LINEAR LINEAR LINEAR LINEAR LINEAR LINEAR LINEAR LINEAR LINEAR LINEAR LINEAR LINEAR LINEAR LINEAR LINEAR LINEAR LINEAR LINEAR LINEAR LINEAR LINEAR LINEAR LINEAR LINEAR LINEAR LINEAR LINEAR LINEAR LINEAR LINEAR LINEAR LINEAR LINEAR LINEAR LINEAR LINEAR LINEAR LINEAR LINEAR LINEAR LINEAR LINEAR LINEAR LINEAR LINEAR LINEAR LINEAR LINEAR LINEAR LINEAR LINEAR LINEAR LINEAR LINEAR LINEAR</Name_array>
				<technique_common>
					<accessor source="#anim_Jaw_transform_interpolation_array" count="71" stride="1">
						<param name="INTERPOLATION" type="Name"/>
					</accessor>
				</technique_common>
			</source>
			<sampler id="anim_Jaw_transform_sampler">
				<input semantic="INPUT" source="#anim_Jaw_transform_input"/>
				<input semantic="OUTPUT" source="#anim_Jaw_transform_output"/>
				<input semantic="INTERPOLATION" source="#anim_Jaw_transform_interpolation"/>
			</sampler>
			<channel source="#anim_Jaw_transform_sampler" target="Jaw_bone_id/transform"/>
		</animation>
		<animation id="anim_LJaw_transform" name="anim_LJaw_transform">
			<source id="anim_LJaw_transform_input">
				<float_array id="anim_LJaw_transform_input_array" count="71">0 0.03333333333333333 0.06666666666666667 0.1 0.13333333333333333 0.16666666666666666 0.2 0.23333333333333334 0.26666666666666666 0.3 0.3333333333333333 0.36666666666666664 0.4 0.43333333333333335 0.4666666666666667 0.5 0.5333333333333333 0.5666666666666667 0.6 0.6333333333333333 0.6666666666666666 0.7 0.7333333333333333 0.7666666666666667 0.8 0.8333333333333334 0.8666666666666667 0.9 0.9333333333333333 0.9666666666666667 1 1.0333333333333334 1.0666666666666667 1.1 1.1333333333333333 1.1666666666666667 1.2 1.2333333333333334 1.2666666666666666 1.3 1.3333333333333333 1.3666666666666667 1.4 1.4333333333333333 1.4666666666666666 1.5 1.5333333333333334 1.5666666666666667 1.6 1.6333333333333333 1.6666666666666667 1.7 1.7333333333333334 1.7666666666666666 1.8 1.8333333333333333 1.8666666666666667 1.9 1.9333333333333333 1.9666666666666666 2 2.033333333333333 2.066666666666667 2.1 2.1333333333333333 2.1666666666666665 2.2 2.2333333333333334 2.2666666666666666 2.3 2.3333333333333335</float_array>
				<technique_common>
					<accessor source="#anim_LJaw_transform_input_array" count="71" stride="1">
						<param name="TIME" type="float"/>
					</accessor>
				</technique_common>
			</source>
			<source id="anim_LJaw_transform_output">
				<float_array id="anim_LJaw_transform_output_array" count="1136">-0.5118335624455606 0.01998057712713118 0.8588522462519119 46.67332458496094 -0.22939024179932765 -0.9666097526052055 -0.11421778817570907 32.83843994140625 0.8278928199480498 -0.25547282185424713 0.4993266625890256 -4 0 0 0 1 -0.5118335624455606 0.01998057712713118 0.8588522462519119 46.67332458496094 -0.22939024179932765 -0.9666097526052055 -0.11421778817570907 32.83843994140625 0.8278928199480498 -0.25547282185424713 0.4993266625890256 -4 0 0 0 1 -0.5118335624455606 0.01998057712713118 0.8588522462519119 46.67332458496094 -0.22939024179932765 -0.9666097526052055 -0.11421778817570907 32.83843994140625 0.8278928199480498 -0.25547282185424713 0.4993266625890256 -4 0 0 0 1 -0.5118335624455606 0.01998057712713118 0.8588522462519119 46.67332458496094 -0.22939024179932765 -0.9666097526052055 -0.11421778817570907 32.83843994140625 0.8278928199480498 -0.25547282185424713 0.4993266625890256 -4 0 0 0 1 -0.5118335624455606 0.01998057712713118 0.8588522462519119 46.67332458496094 -0.22939024179932765 -0.9666097526052055 -0.11421778817570907 32.83843994140625 0.8278928199480498 -0.25547282185424713 0.4993266625890256 -4 0 0 0 1 -0.5118335624455606 0.01998057712713118 0.8588522462519119 46.67332458496094 -0.22939024179932765 -0.9666097526052055 -0.11421778817570907 32.83843994140625 0.8278928199480498 -0.25547282185424713 0.4993266625890256 -4 0 0 0 1 -0.5118335624455606 0.01998057712713118 0.8588522462519119 46.67332458496094 -0.22939024179932765 -0.9666097526052055 -0.11421778817570907 32.83843994140625 0.8278928199480498 -0.25547282185424713 0.4993266625890256 -4 0 0 0 1 -0.5118335624455606 0.01998057712713118 0.8588522462519119 46.67332458496094 -0.22939024179932765 -0.9666097526052055 -0.11421778817570907 32.83843994140625 0.8278928199480498 -0.25547282185424713 0.4993266625890256 -4 0 0 0 1 -0.5118335624455606 0.01998057712713118 0.8588522462519119 46.67332458496094 -0.22939024179932765 -0.9666097526052055 -0.11421778817570907 32.83843994140625 0.8278928199480498 -0.25547282185424713 0.4993266625890256 -4 0 0 0 1 -0.5118335624455606 0.01998057712713118 0.8588522462519119 46.67332458496094 -0.22939024179932765 -0.9666097526052055 -0.11421778817570907 32.83843994140625 0.8278928199480498 -0.25547282185424713 0.4993266625890256 -4 0 0 0 1 -0.11918289061628662 -0.01339153226393289 0.9927820029835203 46.67332458496094 0.020333961077458888 -0.9997322419525425 -0.011044203341277564 32.83843994140625 0.9926640764182245 0.018870910528301064 0.11942328133402713 0.9567572493206455 0 0 0 1 -0.11918289061628662 -0.01339153226393289 0.9927820029835203 46.67332458496094 0.020333961077458888 -0.9997322419525425 -0.011044203341277564 32.83843994140625 0.9926640764182245 0.018870910528301064 0.11942328133402713 0.9567572493206455 0 0 0 1 -0.11918289061628662 -0.01339153226393289 0.9927820029835203 46.67332458496094 0.020333961077458888 -0.9997322419525425 -0.011044203341277564 32.83843994140625 0.9926640764182245 0.018870910528301064 0.11942328133402713 0.9567572493206455 0 0 0 1 -0.11918289061628662 -0.01339153226393289 0.9927820029835203 46.67332458496094 0.020333961077458888 -0.9997322419525425 -0.011044203341277564 32.83843994140625 0.9926640764182245 0.018870910528301064 0.11942328133402713 0.9567572493206455 0 0 0 1 -0.11918289061628662 -0.01339153226393289 0.9927820029835203 46.67332458496094 0.020333961077458888 -0.9997322419525425 -0.011044203341277564 32.83843994140625 0.9926640764182245 0.018870910528301064 0.11942328133402713 0.9567572493206455 0 0 0 1 -0.11918289061628662 -0.01339153226393289 0.9927820029835203 46.67332458496094 0.020333961077458888 -0.9997322419525425 -0.011044203341277564 32.83843994140625 0.9926640764182245 0.018870910528301064 0.11942328133402713 0.9567572493206455 0 0 0 1 -0.11918289061628662 -0.01339153226393289 0.9927820029835203 46.67332458496094 0.020333961077458888 -0.9997322419525425 -0.011044203341277564 32.83843994140625 0.9926640764182245 0.018870910528301064 0.11942328133402713 0.9567572493206455 0 0 0 1 -0.11918289061628662 -0.01339153226393289 0.9927820029835203 46.67332458496094 0.020333961077458888 -0.9997322419525425 -0.011044203341277564 32.83843994140625 0.9926640764182245 0.018870910528301064 0.11942328133402713 0.9567572493206455 0 0 0 1 -0.11918289061628662 -0.01339153226393289 0.9927820029835203 46.67332458496094 0.020333961077458888 -0.9997322419525425 -0.011044203341277564 32.83843994140625 0.9926640764182245 0.018870910528301064 0.11942328133402713 0.9567572493206455 0 0 0 1 -0.11918289061628662 -0.01339153226393289 0.9927820029835203 46.67332458496094 0.020333961077458888 -0.9997322419525425 -0.011044203341277564 32.83843994140625 0.9926640764182245 0.018870910528301064 0.11942328133402713 0.9567572493206455 0 0 0 1 -0.11918289061628662 -0.01339153226393289 0.9927820029835203 46.67332458496094 0.020333961077458888 -0.9997322419525425 -0.011044203341277564 32.83843994140625 0.9926640764182245 0.018870910528301064 0.11942328133402713 0.9567572493206455 0 0 0 1 -0.11918289061628662 -0.01339153226393289 0.9927820029835203 46.67332458496094 0.020333961077458888 -0.9997322419525425 -0.011044203341277564 32.83843994140625 0.9926640764182245 0.018870910528301064 0.11942328133402713 0.9567572493206455 0 0 0 1 -0.11918289061628662 -0.01339153226393289 0.9927820029835203 46.67332458496094 0.020333961077458888 -0.9997322419525425 -0.011044203341277564 32.83843994140625 0.9926640764182245 0.018870910528301064 0.11942328133402713 0.9567572493206455 0 0 0 1 -0.11918289061628662 -0.01339153226393289 0.9927820029835203 46.67332458496094 0.020333961077458888 -0.9997322419525425 -0.011044203341277564 32.83843994140625 0.9926640764182245 0.018870910528301064 0.11942328133402713 0.9567572493206455 0 0 0 1 -0.11918289061628662 -0.01339153226393289 0.9927820029835203 46.67332458496094 0.020333961077458888 -0.9997322419525425 -0.011044203341277564 32.83843994140625 0.9926640764182245 0.018870910528301064 0.11942328133402713 0.9567572493206455 0 0 0 1 -0.11918289061628662 -0.01339153226393289 0.9927820029835203 46.67332458496094 0.020333961077458888 -0.9997322419525425 -0.011044203341277564 32.83843994140625 0.9926640764182245 0.018870910528301064 0.11942328133402713 0.9567572493206455 0 0 0 1 -0.11918289061628662 -0.01339153226393289 0.9927820029835203 46.67332458496094 0.020333961077458888 -0.9997322419525425 -0.011044203341277564 32.83843994140625 0.9926640764182245 0.018870910528301064 0.11942328133402713 0.9567572493206455 0 0 0 1 -0.11918289061628662 -0.01339153226393289 0.9927820029835203 46.67332458496094 0.020333961077458888 -0.9997322419525425 -0.011044203341277564 32.83843994140625 0.9926640764182245 0.018870910528301064 0.11942328133402713 0.9567572493206455 0 0 0 1 -0.11918289061628662 -0.01339153226393289 0.9927820029835203 46.67332458496094 0.020333961077458888 -0.9997322419525425 -0.011044203341277564 32.83843994140625 0.9926640764182245 0.018870910528301064 0.11942328133402713 0.9567572493206455 0 0 0 1 -0.11918289061628662 -0.01339153226393289 0.9927820029835203 46.67332458496094 0.020333961077458888 -0.9997322419525425 -0.011044203341277564 32.83843994140625 0.9926640764182245 0.018870910528301064 0.11942328133402713 0.9567572493206455 0 0 0 1 -0.5118335624455606 0.01998057712713118 0.8588522462519119 46.67332458496094 -0.22939024179932765 -0.9666097526052055 -0.11421778817570907 32.83843994140625 0.8278928199480498 -0.25547282185424713 0.4993266625890256 -4 0 0 0 1 -0.5118335624455606 0.01998057712713118 0.8588522462519119 46.67332458496094 -0.22939024179932765 -0.9666097526052055 -0.11421778817570907 32.83843994140625 0.8278928199480498 -0.25547282185424713 0.4993266625890256 -4 0 0 0 1 -0.5118335624455606 0.01998057712713118 0.8588522462519119 46.67332458496094 -0.22939024179932765 -0.9666097526052055 -0.11421778817570907 32.83843994140625 0.8278928199480498 -0.25547282185424713 0.4993266625890256 -4 0 0 0 1 -0.5118335624455606 0.01998057712713118 0.8588522462519119 46.67332458496094 -0.22939024179932765 -0.9666097526052055 -0.11421778817570907 32.83843994140625 0.8278928199480498 -0.25547282185424713 0.4993266625890256 -4 0 0 0 1 -0.5118335624455606 0.01998057712713118 0.8588522462519119 46.67332458496094 -0.22939024179932765 -0.9666097526052055 -0.11421778817570907 32.83843994140625 0.8278928199480498 -0.25547282185424713 0.4993266625890256 -4 0 0 0 1 -0.5118335624455606 0.01998057712713118 0.8588522462519119 46.67332458496094 -0.22939024179932765 -0.9666097526052055 -0.11421778817570907 32.83843994140625 0.8278928199480498 -0.25547282185424713 0.4993266625890256 -4 0 0 0 1 -0.5118335624455606 0.01998057712713118 0.8588522462519119 46.67332458496094 -0.22939024179932765 -0.9666097526052055 -0.11421778817570907 32.83843994140625 0.8278928199480498 -0.25547282185424713 0.4993266625890256 -4 0 0 0 1 -0.5118335624455606 0.01998057712713118 0.8588522462519119 46.67332458496094 -0.22939024179932765 -0.9666097526052055 -0.11421778817570907 32.83843994140625 0.8278928199480498 -0.25547282185424713 0.4993266625890256 -4 0 0 0 1 -0.5118335624455606 0.01998057712713118 0.8588522462519119 46.67332458496094 -0.22939024179932765 -0.9666097526052055 -0.11421778817570907 32.83843994140625 0.8278928199480498 -0.25547282185424713 0.4993266625890256 -4 0 0 0 1 -0.5118335624455606 0.01998057712713118 0.8588522462519119 46.67332458496094 -0.22939024179932765 -0.9666097526052055 -0.11421778817570907 32.83843994140625 0.8278928199480498 -0.25547282185424713 0.4993266625890256 -4 0 0 0 1 -0.11918289061628662 -0.01339153226393289 0.9927820029835203 46.67332458496094 0.020333961077458888 -0.9997322419525425 -0.011044203341277564 32.83843994140625 0.9926640764182245 0.018870910528301064 0.11942328133402713 0.9567572493206455 0 0 0 1 -0.11918289061628662 -0.01339153226393289 0.9927820029835203 46.67332458496094 0.020333961077458888 -0.9997322419525425 -0.011044203341277564 32.83843994140625 0.9926640764182245 0.018870910528301064 0.11942328133402713 0.9567572493206455 0 0 0 1 -0.11918289061628662 -0.01339153226393289 0.9927820029835203 46.67332458496094 0.020333961077458888 -0.9997322419525425 -0.011044203341277564 32.83843994140625 0.9926640764182245 0.018870910528301064 0.11942328133402713 0.9567572493206455 0 0 0 1 -0.11918289061628662 -0.01339153226393289 0.9927820029835203 46.67332458496094 0.020333961077458888 -0.9997322419525425 -0.011044203341277564 32.83843994140625 0.9926640764182245 0.018870910528301064 0.11942328133402713 0.9567572493206455 0 0 0 1 -0.11918289061628662 -0.01339153226393289 0.9927820029835203 46.67332458496094 0.020333961077458888 -0.9997322419525425 -0.011044203341277564 32.83843994140625 0.9926640764182245 0.018870910528301064 0.11942328133402713 0.9567572493206455 0 0 0 1 -0.11918289061628662 -0.01339153226393289 0.9927820029835203 46.67332458496094 0.020333961077458888 -0.9997322419525425 -0.011044203341277564 32.83843994140625 0.9926640764182245 0.018870910528301064 0.11942328133402713 0.9567572493206455 0 0 0 1 -0.11918289061628662 -0.01339153226393289 0.9927820029835203 46.67332458496094 0.020333961077458888 -0.9997322419525425 -0.011044203341277564 32.83843994140625 0.9926640764182245 0.018870910528301064 0.11942328133402713 0.9567572493206455 0 0 0 1 -0.11918289061628662 -0.01339153226393289 0.9927820029835203 46.67332458496094 0.020333961077458888 -0.9997322419525425 -0.011044203341277564 32.83843994140625 0.9926640764182245 0.018870910528301064 0.11942328133402713 0.9567572493206455 0 0 0 1 -0.11918289061628662 -0.01339153226393289 0.9927820029835203 46.67332458496094 0.020333961077458888 -0.9997322419525425 -0.011044203341277564 32.83843994140625 0.9926640764182245 0.018870910528301064 0.11942328133402713 0.9567572493206455 0 0 0 1 -0.11918289061628662 -0.01339153226393289 0.9927820029835203 46.67332458496094 0.020333961077458888 -0.9997322419525425 -0.011044203341277564 32.83843994140625 0.9926640764182245 0.018870910528301064 0.11942328133402713 0.9567572493206455 0 0 0 1 -0.5118335624455606 0.01998057712713118 0.8588522462519119 46.67332458496094 -0.22939024179932765 -0.9666097526052055 -0.11421778817570907 32.83843994140625 0.8278928199480498 -0.25547282185424713 0.4993266625890256 -4 0 0 0 1 -0.5118335624455606 0.01998057712713118 0.8588522462519119 46.67332458496094 -0.22939024179932765 -0.9666097526052055 -0.11421778817570907 32.83843994140625 0.8278928199480498 -0.25547282185424713 0.4993266625890256 -4 0 0 0 1 -0.5118335624455606 0.01998057712713118 0.8588522462519119 46.67332458496094 -0.22939024179932765 -0.9666097526052055 -0.11421778817570907 32.83843994140625 0.8278928199480498 -0.25547282185424713 0.4993266625890256 -4 0 0 0 1 -0.5118335624455606 0.01998057712713118 0.8588522462519119 46.67332458496094 -0.22939024179932765 -0.9666097526052055 -0.11421778817570907 32.83843994140625 0.8278928199480498 -0.25547282185424713 0.4993266625890256 -4 0 0 0 1 -0.5118335624455606 0.01998057712713118 0.8588522462519119 46.67332458496094 -0.22939024179932765 -0.9666097526052055 -0.11421778817570907 32.83843994140625 0.8278928199480498 -0.25547282185424713 0.4993266625890256 -4 0 0 0 1 -0.5118335624455606 0.01998057712713118 0.8588522462519119 46.67332458496094 -0.22939024179932765 -0.9666097526052055 -0.11421778817570907 32.83843994140625 0.8278928199480498 -0.25547282185424713 0.4993266625890256 -4 0 0 0 1 -0.5118335624455606 0.01998057712713118 0.8588522462519119 46.67332458496094 -0.22939024179932765 -0.9666097526052055 -0.11421778817570907 32.83843994140625 0.8278928199480498 -0.25547282185424713 0.4993266625890256 -4 0 0 0 1 -0.5118335624455606 0.01998057712713118 0.8588522462519119 46.67332458496094 -0.22939024179932765 -0.9666097526052055 -0.11421778817570907 32.83843994140625 0.8278928199480498 -0.25547282185424713 0.4993266625890256 -4 0 0 0 1 -0.5118335624455606 0.01998057712713118 0.8588522462519119 46.67332458496094 -0.22939024179932765 -0.9666097526052055 -0.11421778817570907 32.83843994140625 0.8278928199480498 -0.25547282185424713 0.4993266625890256 -4 0 0 0 1 -0.5118335624455606 0.01998057712713118 0.8588522462519119 46.67332458496094 -0.22939024179932765 -0.9666097526052055 -0.11421778817570907 32.83843994140625 0.8278928199480498 -0.25547282185424713 0.4993266625890256 -4 0 0 0 1 -0.5118335624455606 0.01998057712713118 0.8588522462519119 46.67332458496094 -0.22939024179932765 -0.9666097526052055 -0.11421778817570907 32.83843994140625 0.8278928199480498 -0.25547282185424713 0.4993266625890256 -4 0 0 0 1 -0.5118335624455606 0.01998057712713118 0.8588522462519119 46.67332458496094 -0.22939024179932765 -0.9666097526052055 -0.11421778817570907 32.83843994140625 0.8278928199480498 -0.25547282185424713 0.4993266625890256 -4 0 0 0 1 -0.5118335624455606 0.01998057712713118 0.8588522462519119 46.67332458496094 -0.22939024179932765 -0.9666097526052055 -0.11421778817570907 32.83843994140625 0.8278928199480498 -0.25547282185424713 0.4993266625890256 -4 0 0 0 1 -0.5118335624455606 0.01998057712713118 0.8588522462519119 46.67332458496094 -0.22939024179932765 -0.9666097526052055 -0.11421778817570907 32.83843994140625 0.8278928199480498 -0.25547282185424713 0.4993266625890256 -4 0 0 0 1 -0.5118335624455606 0.01998057712713118 0.8588522462519119 46.67332458496094 -0.22939024179932765 -0.9666097526052055 -0.11421778817570907 32.83843994140625 0.8278928199480498 -0.25547282185424713 0.4993266625890256 -4 0 0 0 1 -0.5118335624455606 0.01998057712713118 0.8588522462519119 46.67332458496094 -0.22939024179932765 -0.9666097526052055 -0.11421778817570907 32.83843994140625 0.8278928199480498 -0.25547282185424713 0.4993266625890256 -4 0 0 0 1 -0.5118335624455606 0.01998057712713118 0.8588522462519119 46.67332458496094 -0.22939024179932765 -0.9666097526052055 -0.11421778817570907 32.83843994140625 0.8278928199480498 -0.25547282185424713 0.4993266625890256 -4 0 0 0 1 -0.5118335624455606 0.01998057712713118 0.8588522462519119 46.67332458496094 -0.22939024179932765 -0.9666097526052055 -0.11421778817570907 32.83843994140625 0.8278928199480498 -0.25547282185424713 0.4993266625890256 -4 0 0 0 1 -0.5118335624455606 0.01998057712713118 0.8588522462519119 46.67332458496094 -0.22939024179932765 -0.9666097526052055 -0.11421778817570907 32.83843994140625 0.8278928199480498 -0.25547282185424713 0.4993266625890256 -4 0 0 0 1 -0.5118335624455606 0.01998057712713118 0.8588522462519119 46.67332458496094 -0.22939024179932765 -0.9666097526052055 -0.11421778817570907 32.83843994140625 0.8278928199480498 -0.25547282185424713 0.4993266625890256 -4 0 0 0 1 -0.5118335624455606 0.01998057712713118 0.8588522462519119 46.67332458496094 -0.22939024179932765 -0.9666097526052055 -0.11421778817570907 32.83843994140625 0.8278928199480498 -0.25547282185424713 0.4993266625890256 -4 0 0 0 1</float_array>
				<technique_common>
					<accessor source="#anim_LJaw_transform_output_array" count="71" stride="16">
						<param name="TRANSFORM" type="float4x4"/>
					</accessor>
				</technique_common>
			</source>
			<source id="anim_LJaw_transform_interpolation">
				<Name_array id="anim_LJaw_transform_interpolation_array" count="71">LINEAR LINEAR LINEAR LINEAR LINEAR LINEAR LINEAR LINEAR LINEAR LINEAR LINEAR LINEAR LINEAR LINEAR LINEAR LINEAR LINEAR LINEAR LINEAR LINEAR LINEAR LINEAR LINEAR LINEAR LINEAR LINEAR LINEAR LINEAR LINEAR LINEAR LINEAR LINEAR LINEAR LINEAR LINEAR LINEAR LINEAR LINEAR LINEAR LINEAR LINEAR LINEAR LINEAR LINEAR LINEAR LINEAR LINEAR LINEAR LINEAR LINEAR LINEAR LINEAR LINEAR LINEAR LINEAR LINEAR LINEAR LINEAR LINEAR LINEAR LINEAR LINEAR LINEAR LINEAR LINEAR LINEAR LINEAR LINEAR LINEAR LINEAR LINEAR</Name_array>
				<technique_common>
					<accessor source="#anim_LJaw_transform_interpolation_array" count="71" stride="1">
						<param name="INTERPOLATION" type="Name"/>
					</accessor>
				</technique_common>
			</source>
			<sampler id="anim_LJaw_transform_sampler">
				<input semantic="INPUT" source="#anim_LJaw_transform_input"/>
				<input semantic="OUTPUT" source="#anim_LJaw_transform_output"/>
				<input semantic="INTERPOLATION" source="#anim_LJaw_transform_interpolation"/>
			</sampler>
			<channel source="#anim_LJaw_transform_sampler" target="LJaw_bone_id/transform"/>
		</animation>
		<animation id="anim_RJaw_transform" name="anim_RJaw_transform">
			<source id="anim_RJaw_transform_input">
				<float_array id="anim_RJaw_transform_input_array" count="71">0 0.03333333333333333 0.06666666666666667 0.1 0.13333333333333333 0.16666666666666666 0.2 0.23333333333333334 0.26666666666666666 0.3 0.3333333333333333 0.36666666666666664 0.4 0.43333333333333335 0.4666666666666667 0.5 0.5333333333333333 0.5666666666666667 0.6 0.6333333333333333 0.6666666666666666 0.7 0.7333333333333333 0.7666666666666667 0.8 0.8333333333333334 0.8666666666666667 0.9 0.9333333333333333 0.9666666666666667 1 1.0333333333333334 1.0666666666666667 1.1 1.1333333333333333 1.1666666666666667 1.2 1.2333333333333334 1.2666666666666666 1.3 1.3333333333333333 1.3666666666666667 1.4 1.4333333333333333 1.4666666666666666 1.5 1.5333333333333334 1.5666666666666667 1.6 1.6333333333333333 1.6666666666666667 1.7 1.7333333333333334 1.7666666666666666 1.8 1.8333333333333333 1.8666666666666667 1.9 1.9333333333333333 1.9666666666666666 2 2.033333333333333 2.066666666666667 2.1 2.1333333333333333 2.1666666666666665 2.2 2.2333333333333334 2.2666666666666666 2.3 2.3333333333333335</float_array>
				<technique_common>
					<accessor source="#anim_RJaw_transform_input_array" count="71" stride="1">
						<param name="TIME" type="float"/>
					</accessor>
				</technique_common>
			</source>
			<source id="anim_RJaw_transform_output">
				<float_array id="anim_RJaw_transform_output_array" count="1136">-0.5118163785604677 -0.019969056266310334 0.8588627547106011 46.6729621887207 0.2293803994940094 -0.9666119627253846 0.11421885065149912 -32.838401794433594 0.8279061703872113 0.25546536028983213 0.49930834433921567 -4 0 0 0 1 -0.5118163785604677 -0.019969056266310334 0.8588627547106011 46.6729621887207 0.2293803994940094 -0.9666119627253846 0.11421885065149912 -32.838401794433594 0.8279061703872113 0.25546536028983213 0.49930834433921567 -4 0 0 0 1 -0.5118163785604677 -0.019969056266310334 0.8588627547106011 46.6729621887207 0.2293803994940094 -0.9666119627253846 0.11421885065149912 -32.838401794433594 0.8279061703872113 0.25546536028983213 0.49930834433921567 -4 0 0 0 1 -0.5118163785604677 -0.019969056266310334 0.8588627547106011 46.6729621887207 0.2293803994940094 -0.9666119627253846 0.11421885065149912 -32.838401794433594 0.8279061703872113 0.25546536028983213 0.49930834433921567 -4 0 0 0 1 -0.5118163785604677 -0.019969056266310334 0.8588627547106011 46.6729621887207 0.2293803994940094 -0.9666119627253846 0.11421885065149912 -32.838401794433594 0.8279061703872113 0.25546536028983213 0.49930834433921567 -4 0 0 0 1 -0.5118163785604677 -0.019969056266310334 0.8588627547106011 46.6729621887207 0.2293803994940094 -0.9666119627253846 0.11421885065149912 -32.838401794433594 0.8279061703872113 0.25546536028983213 0.49930834433921567 -4 0 0 0 1 -0.5118163785604677 -0.019969056266310334 0.8588627547106011 46.6729621887207 0.2293803994940094 -0.9666119627253846 0.11421885065149912 -32.838401794433594 0.8279061703872113 0.25546536028983213 0.49930834433921567 -4 0 0 0 1 -0.5118163785604677 -0.019969056266310334 0.8588627547106011 46.6729621887207 0.2293803994940094 -0.9666119627253846 0.11421885065149912 -32.838401794433594 0.8279061703872113 0.25546536028983213 0.49930834433921567 -4 0 0 0 1 -0.5118163785604677 -0.019969056266310334 0.8588627547106011 46.6729621887207 0.2293803994940094 -0.9666119627253846 0.11421885065149912 -32.838401794433594 0.8279061703872113 0.25546536028983213 0.49930834433921567 -4 0 0 0 1 -0.5118163785604677 -0.019969056266310334 0.8588627547106011 46.6729621887207 0.2293803994940094 -0.9666119627253846 0.11421885065149912 -32.838401794433594 0.8279061703872113 0.25546536028983213 0.49930834433921567 -4 0 0 0 1 -0.11916044303928164 0.013394957435717168 0.9927846513368233 46.6729621887207 -0.020345068840625383 -0.9997319878716224 0.01104674613289412 -32.838401794433594 0.992666543703651 -0.018881936912025804 0.119401027926471 0.9566144943237305 0 0 0 1 -0.11916044303928164 0.013394957435717168 0.9927846513368233 46.6729621887207 -0.020345068840625383 -0.9997319878716224 0.01104674613289412 -32.838401794433594 0.992666543703651 -0.018881936912025804 0.119401027926471 0.9566144943237305 0 0 0 1 -0.11916044303928164 0.013394957435717168 0.9927846513368233 46.6729621887207 -0.020345068840625383 -0.9997319878716224 0.01104674613289412 -32.838401794433594 0.992666543703651 -0.018881936912025804 0.119401027926471 0.9566144943237305 0 0 0 1 -0.11916044303928164 0.013394957435717168 0.9927846513368233 46.6729621887207 -0.020345068840625383 -0.9997319878716224 0.01104674613289412 -32.838401794433594 0.992666543703651 -0.018881936912025804 0.119401027926471 0.9566144943237305 0 0 0 1 -0.11916044303928164 0.013394957435717168 0.9927846513368233 46.6729621887207 -0.020345068840625383 -0.9997319878716224 0.01104674613289412 -32.838401794433594 0.992666543703651 -0.018881936912025804 0.119401027926471 0.9566144943237305 0 0 0 1 -0.11916044303928164 0.013394957435717168 0.9927846513368233 46.6729621887207 -0.020345068840625383 -0.9997319878716224 0.01104674613289412 -32.838401794433594 0.992666543703651 -0.018881936912025804 0.119401027926471 0.9566144943237305 0 0 0 1 -0.11916044303928164 0.013394957435717168 0.9927846513368233 46.6729621887207 -0.020345068840625383 -0.9997319878716224 0.01104674613289412 -32.838401794433594 0.992666543703651 -0.018881936912025804 0.119401027926471 0.9566144943237305 0 0 0 1 -0.11916044303928164 0.013394957435717168 0.9927846513368233 46.6729621887207 -0.020345068840625383 -0.9997319878716224 0.01104674613289412 -32.838401794433594 0.992666543703651 -0.018881936912025804 0.119401027926471 0.9566144943237305 0 0 0 1 -0.11916044303928164 0.013394957435717168 0.9927846513368233 46.6729621887207 -0.020345068840625383 -0.9997319878716224 0.01104674613289412 -32.838401794433594 0.992666543703651 -0.018881936912025804 0.119401027926471 0.9566144943237305 0 0 0 1 -0.11916044303928164 0.013394957435717168 0.9927846513368233 46.6729621887207 -0.020345068840625383 -0.9997319878716224 0.01104674613289412 -32.838401794433594 0.992666543703651 -0.018881936912025804 0.119401027926471 0.9566144943237305 0 0 0 1 -0.11916044303928164 0.013394957435717168 0.9927846513368233 46.6729621887207 -0.020345068840625383 -0.9997319878716224 0.01104674613289412 -32.838401794433594 0.992666543703651 -0.018881936912025804 0.119401027926471 0.9566144943237305 0 0 0 1 -0.11916044303928164 0.013394957435717168 0.9927846513368233 46.6729621887207 -0.020345068840625383 -0.9997319878716224 0.01104674613289412 -32.838401794433594 0.992666543703651 -0.018881936912025804 0.119401027926471 0.9566144943237305 0 0 0 1 -0.11916044303928164 0.013394957435717168 0.9927846513368233 46.6729621887207 -0.020345068840625383 -0.9997319878716224 0.01104674613289412 -32.838401794433594 0.992666543703651 -0.018881936912025804 0.119401027926471 0.9566144943237305 0 0 0 1 -0.11916044303928164 0.013394957435717168 0.9927846513368233 46.6729621887207 -0.020345068840625383 -0.9997319878716224 0.01104674613289412 -32.838401794433594 0.992666543703651 -0.018881936912025804 0.119401027926471 0.9566144943237305 0 0 0 1 -0.11916044303928164 0.013394957435717168 0.9927846513368233 46.6729621887207 -0.020345068840625383 -0.9997319878716224 0.01104674613289412 -32.838401794433594 0.992666543703651 -0.018881936912025804 0.119401027926471 0.9566144943237305 0 0 0 1 -0.11916044303928164 0.013394957435717168 0.9927846513368233 46.6729621887207 -0.020345068840625383 -0.9997319878716224 0.01104674613289412 -32.838401794433594 0.992666543703651 -0.018881936912025804 0.119401027926471 0.9566144943237305 0 0 0 1 -0.11916044303928164 0.013394957435717168 0.9927846513368233 46.6729621887207 -0.020345068840625383 -0.9997319878716224 0.01104674613289412 -32.838401794433594 0.992666543703651 -0.018881936912025804 0.119401027926471 0.9566144943237305 0 0 0 1 -0.11916044303928164 0.013394957435717168 0.9927846513368233 46.6729621887207 -0.020345068840625383 -0.9997319878716224 0.01104674613289412 -32.838401794433594 0.992666543703651 -0.018881936912025804 0.119401027926471 0.9566144943237305 0 0 0 1 -0.11916044303928164 0.013394957435717168 0.9927846513368233 46.6729621887207 -0.020345068840625383 -0.9997319878716224 0.01104674613289412 -32.838401794433594 0.992666543703651 -0.018881936912025804 0.119401027926471 0.9566144943237305 0 0 0 1 -0.11916044303928164 0.013394957435717168 0.9927846513368233 46.6729621887207 -0.020345068840625383 -0.9997319878716224 0.01104674613289412 -32.838401794433594 0.992666543703651 -0.018881936912025804 0.119401027926471 0.9566144943237305 0 0 0 1 -0.5118163785604677 -0.019969056266310334 0.8588627547106011 46.6729621887207 0.2293803994940094 -0.9666119627253846 0.11421885065149912 -32.838401794433594 0.8279061703872113 0.25546536028983213 0.49930834433921567 -4 0 0 0 1 -0.5118163785604677 -0.019969056266310334 0.8588627547106011 46.6729621887207 0.2293803994940094 -0.9666119627253846 0.11421885065149912 -32.838401794433594 0.8279061703872113 0.25546536028983213 0.49930834433921567 -4 0 0 0 1 -0.5118163785604677 -0.019969056266310334 0.8588627547106011 46.6729621887207 0.2293803994940094 -0.9666119627253846 0.11421885065149912 -32.838401794433594 0.8279061703872113 0.25546536028983213 0.49930834433921567 -4 0 0 0 1 -0.5118163785604677 -0.019969056266310334 0.8588627547106011 46.6729621887207 0.2293803994940094 -0.9666119627253846 0.11421885065149912 -32.838401794433594 0.8279061703872113 0.25546536028983213 0.49930834433921567 -4 0 0 0 1 -0.5118163785604677 -0.019969056266310334 0.8588627547106011 46.6729621887207 0.2293803994940094 -0.9666119627253846 0.11421885065149912 -32.838401794433594 0.8279061703872113 0.25546536028983213 0.49930834433921567 -4 0 0 0 1 -0.5118163785604677 -0.019969056266310334 0.8588627547106011 46.6729621887207 0.2293803994940094 -0.9666119627253846 0.11421885065149912 -32.838401794433594 0.8279061703872113 0.25546536028983213 0.49930834433921567 -4 0 0 0 1 -0.5118163785604677 -0.019969056266310334 0.8588627547106011 46.6729621887207 0.2293803994940094 -0.9666119627253846 0.11421885065149912 -32.838401794433594 0.8279061703872113 0.25546536028983213 0.49930834433921567 -4 0 0 0 1 -0.5118163785604677 -0.019969056266310334 0.8588627547106011 46.6729621887207 0.2293803994940094 -0.9666119627253846 0.11421885065149912 -32.838401794433594 0.8279061703872113 0.25546536028983213 0.49930834433921567 -4 0 0 0 1 -0.5118163785604677 -0.019969056266310334 0.8588627547106011 46.6729621887207 0.2293803994940094 -0.9666119627253846 0.11421885065149912 -32.838401794433594 0.8279061703872113 0.25546536028983213 0.49930834433921567 -4 0 0 0 1 -0.5118163785604677 -0.019969056266310334 0.8588627547106011 46.6729621887207 0.2293803994940094 -0.9666119627253846 0.11421885065149912 -32.838401794433594 0.8279061703872113 0.25546536028983213 0.49930834433921567 -4 0 0 0 1 -0.11916044303928164 0.013394957435717168 0.9927846513368233 46.6729621887207 -0.020345068840625383 -0.9997319878716224 0.01104674613289412 -32.838401794433594 0.992666543703651 -0.018881936912025804 0.119401027926471 0.9566144943237305 0 0 0 1 -0.11916044303928164 0.013394957435717168 0.9927846513368233 46.6729621887207 -0.020345068840625383 -0.9997319878716224 0.01104674613289412 -32.838401794433594 0.992666543703651 -0.018881936912025804 0.119401027926471 0.9566144943237305 0 0 0 1 -0.11916044303928164 0.013394957435717168 0.9927846513368233 46.6729621887207 -0.020345068840625383 -0.9997319878716224 0.01104674613289412 -32.838401794433594 0.992666543703651 -0.018881936912025804 0.119401027926471 0.9566144943237305 0 0 0 1 -0.11916044303928164 0.013394957435717168 0.9927846513368233 46.6729621887207 -0.020345068840625383 -0.9997319878716224 0.01104674613289412 -32.838401794433594 0.992666543703651 -0.018881936912025804 0.119401027926471 0.9566144943237305 0 0 0 1 -0.11916044303928164 0.013394957435717168 0.9927846513368233 46.6729621887207 -0.020345068840625383 -0.9997319878716224 0.01104674613289412 -32.838401794433594 0.992666543703651 -0.018881936912025804 0.119401027926471 0.9566144943237305 0 0 0 1 -0.11916044303928164 0.013394957435717168 0.9927846513368233 46.6729621887207 -0.020345068840625383 -0.9997319878716224 0.01104674613289412 -32.838401794433594 0.992666543703651 -0.018881936912025804 0.119401027926471 0.9566144943237305 0 0 0 1 -0.11916044303928164 0.013394957435717168 0.9927846513368233 46.6729621887207 -0.020345068840625383 -0.9997319878716224 0.01104674613289412 -32.838401794433594 0.992666543703651 -0.018881936912025804 0.119401027926471 0.9566144943237305 0 0 0 1 -0.11916044303928164 0.013394957435717168 0.9927846513368233 46.6729621887207 -0.020345068840625383 -0.9997319878716224 0.01104674613289412 -32.838401794433594 0.992666543703651 -0.018881936912025804 0.119401027926471 0.9566144943237305 0 0 0 1 -0.11916044303928164 0.013394957435717168 0.9927846513368233 46.6729621887207 -0.020345068840625383 -0.9997319878716224 0.01104674613289412 -32.838401794433594 0.992666543703651 -0.018881936912025804 0.119401027926471 0.9566144943237305 0 0 0 1 -0.11916044303928164 0.013394957435717168 0.9927846513368233 46.6729621887207 -0.020345068840625383 -0.9997319878716224 0.01104674613289412 -32.838401794433594 0.992666543703651 -0.018881936912025804 0.119401027926471 0.9566144943237305 0 0 0 1 -0.5118163785604677 -0.019969056266310334 0.8588627547106011 46.6729621887207 0.2293803994940094 -0.9666119627253846 0.11421885065149912 -32.838401794433594 0.8279061703872113 0.25546536028983213 0.49930834433921567 -4 0 0 0 1 -0.5118163785604677 -0.019969056266310334 0.8588627547106011 46.6729621887207 0.2293803994940094 -0.9666119627253846 0.11421885065149912 -32.838401794433594 0.8279061703872113 0.25546536028983213 0.49930834433921567 -4 0 0 0 1 -0.5118163785604677 -0.019969056266310334 0.8588627547106011 46.6729621887207 0.2293803994940094 -0.9666119627253846 0.11421885065149912 -32.838401794433594 0.8279061703872113 0.25546536028983213 0.49930834433921567 -4 0 0 0 1 -0.5118163785604677 -0.019969056266310334 0.8588627547106011 46.6729621887207 0.2293803994940094 -0.9666119627253846 0.11421885065149912 -32.838401794433594 0.8279061703872113 0.25546536028983213 0.49930834433921567 -4 0 0 0 1 -0.5118163785604677 -0.019969056266310334 0.8588627547106011 46.6729621887207 0.2293803994940094 -0.9666119627253846 0.11421885065149912 -32.838401794433594 0.8279061703872113 0.25546536028983213 0.49930834433921567 -4 0 0 0 1 -0.5118163785604677 -0.019969056266310334 0.8588627547106011 46.6729621887207 0.2293803994940094 -0.9666119627253846 0.11421885065149912 -32.838401794433594 0.8279061703872113 0.25546536028983213 0.49930834433921567 -4 0 0 0 1 -0.5118163785604677 -0.019969056266310334 0.8588627547106011 46.6729621887207 0.2293803994940094 -0.9666119627253846 0.11421885065149912 -32.838401794433594 0.8279061703872113 0.25546536028983213 0.49930834433921567 -4 0 0 0 1 -0.5118163785604677 -0.019969056266310334 0.8588627547106011 46.6729621887207 0.2293803994940094 -0.9666119627253846 0.11421885065149912 -32.838401794433594 0.8279061703872113 0.25546536028983213 0.49930834433921567 -4 0 0 0 1 -0.5118163785604677 -0.019969056266310334 0.8588627547106011 46.6729621887207 0.2293803994940094 -0.9666119627253846 0.11421885065149912 -32.838401794433594 0.8279061703872113 0.25546536028983213 0.49930834433921567 -4 0 0 0 1 -0.5118163785604677 -0.019969056266310334 0.8588627547106011 46.6729621887207 0.2293803994940094 -0.9666119627253846 0.11421885065149912 -32.838401794433594 0.8279061703872113 0.25546536028983213 0.49930834433921567 -4 0 0 0 1 -0.5118163785604677 -0.019969056266310334 0.8588627547106011 46.6729621887207 0.2293803994940094 -0.9666119627253846 0.11421885065149912 -32.838401794433594 0.8279061703872113 0.25546536028983213 0.49930834433921567 -4 0 0 0 1 -0.5118163785604677 -0.019969056266310334 0.8588627547106011 46.6729621887207 0.2293803994940094 -0.9666119627253846 0.11421885065149912 -32.838401794433594 0.8279061703872113 0.25546536028983213 0.49930834433921567 -4 0 0 0 1 -0.5118163785604677 -0.019969056266310334 0.8588627547106011 46.6729621887207 0.2293803994940094 -0.9666119627253846 0.11421885065149912 -32.838401794433594 0.8279061703872113 0.25546536028983213 0.49930834433921567 -4 0 0 0 1 -0.5118163785604677 -0.019969056266310334 0.8588627547106011 46.6729621887207 0.2293803994940094 -0.9666119627253846 0.11421885065149912 -32.838401794433594 0.8279061703872113 0.25546536028983213 0.49930834433921567 -4 0 0 0 1 -0.5118163785604677 -0.019969056266310334 0.8588627547106011 46.6729621887207 0.2293803994940094 -0.9666119627253846 0.11421885065149912 -32.838401794433594 0.8279061703872113 0.25546536028983213 0.49930834433921567 -4 0 0 0 1 -0.5118163785604677 -0.019969056266310334 0.8588627547106011 46.6729621887207 0.2293803994940094 -0.9666119627253846 0.11421885065149912 -32.838401794433594 0.8279061703872113 0.25546536028983213 0.49930834433921567 -4 0 0 0 1 -0.5118163785604677 -0.019969056266310334 0.8588627547106011 46.6729621887207 0.2293803994940094 -0.9666119627253846 0.11421885065149912 -32.838401794433594 0.8279061703872113 0.25546536028983213 0.49930834433921567 -4 0 0 0 1 -0.5118163785604677 -0.019969056266310334 0.8588627547106011 46.6729621887207 0.2293803994940094 -0.9666119627253846 0.11421885065149912 -32.838401794433594 0.8279061703872113 0.25546536028983213 0.49930834433921567 -4 0 0 0 1 -0.5118163785604677 -0.019969056266310334 0.8588627547106011 46.6729621887207 0.2293803994940094 -0.9666119627253846 0.11421885065149912 -32.838401794433594 0.8279061703872113 0.25546536028983213 0.49930834433921567 -4 0 0 0 1 -0.5118163785604677 -0.019969056266310334 0.8588627547106011 46.6729621887207 0.2293803994940094 -0.9666119627253846 0.11421885065149912 -32.838401794433594 0.8279061703872113 0.25546536028983213 0.49930834433921567 -4 0 0 0 1 -0.5118163785604677 -0.019969056266310334 0.8588627547106011 46.6729621887207 0.2293803994940094 -0.9666119627253846 0.11421885065149912 -32.838401794433594 0.8279061703872113 0.25546536028983213 0.49930834433921567 -4 0 0 0 1</float_array>
				<technique_common>
					<accessor source="#anim_RJaw_transform_output_array" count="71" stride="16">
						<param name="TRANSFORM" type="float4x4"/>
					</accessor>
				</technique_common>
			</source>
			<source id="anim_RJaw_transform_interpolation">
				<Name_array id="anim_RJaw_transform_interpolation_array" count="71">LINEAR LINEAR LINEAR LINEAR LINEAR LINEAR LINEAR LINEAR LINEAR LINEAR LINEAR LINEAR LINEAR LINEAR LINEAR LINEAR LINEAR LINEAR LINEAR LINEAR LINEAR LINEAR LINEAR LINEAR LINEAR LINEAR LINEAR LINEAR LINEAR LINEAR LINEAR LINEAR LINEAR LINEAR LINEAR LINEAR LINEAR LINEAR LINEAR LINEAR LINEAR LINEAR LINEAR LINEAR LINEAR LINEAR LINEAR LINEAR LINEAR LINEAR LINEAR LINEAR LINEAR LINEAR LINEAR LINEAR LINEAR LINEAR LINEAR LINEAR LINEAR LINEAR LINEAR LINEAR LINEAR LINEAR LINEAR LINEAR LINEAR LINEAR LINEAR</Name_array>
				<technique_common>
					<accessor source="#anim_RJaw_transform_interpolation_array" count="71" stride="1">
						<param name="INTERPOLATION" type="Name"/>
					</accessor>
				</technique_common>
			</source>
			<sampler id="anim_RJaw_transform_sampler">
				<input semantic="INPUT" source="#anim_RJaw_transform_input"/>
				<input semantic="OUTPUT" source="#anim_RJaw_transform_output"/>
				<input semantic="INTERPOLATION" source="#anim_RJaw_transform_interpolation"/>
			</sampler>
			<channel source="#anim_RJaw_transform_sampler" target="RJaw_bone_id/transform"/>
		</animation>
	</library_animations>
</COLLADA>