<?xml version="1.0" encoding="utf-8"?>
<COLLADA xmlns:xsi="http://www.w3.org/2001/XMLSchema-instance" xmlns:xsd="http://www.w3.org/2001/XMLSchema" version="1.4.1" xmlns="http://www.collada.org/2005/11/COLLADASchema">
  <asset>
    <created>2026-02-17T05:46:45.0885653-05:00</created>
    <modified>2026-02-17T05:46:45.0885659-05:00</modified>
    <up_axis>Y_UP</up_axis>
  </asset>
  <library_animations>
    <animation id="Motion_7_Waist_transform_id" name="Motion_7_Waist_transform">
      <source id="Motion_7_Waist_transform_frame_id" name="Motion_7_Waist_transform_frame">
        <float_array id="Motion_7_Waist_transform_frame_array_id" count="16">0 0.033333335 0.06666667 0.1 0.13333334 0.16666667 0.2 0.23333333 0.26666668 0.3 0.33333334 0.36666667 0.4 0.43333334 0.46666667 0.5</float_array>
        <technique_common>
          <accessor source="#Motion_7_Waist_transform_frame_array_id" count="16" stride="1">
            <param name="TIME" type="float" />
          </accessor>
        </technique_common>
      </source>
      <source id="Motion_7_Waist_transform_interp_id" name="Motion_7_Waist_transform_interp">
        <Name_array id="Motion_7_Waist_transform_interp_array_id" count="16">LINEAR LINEAR LINEAR LINEAR LINEAR LINEAR LINEAR LINEAR LINEAR LINEAR LINEAR LINEAR LINEAR LINEAR LINEAR LINEAR</Name_array>
        <technique_common>
          <accessor source="#Motion_7_Waist_transform_interp_array_id" count="16" stride="1">
            <param name="INTERPOLATION" type="Name" />
          </accessor>
        </technique_common>
      </source>
      <source id="Motion_7_Waist_transform_pose_id" name="Motion_7_Waist_transform_pose">
        <float_array id="Motion_7_Waist_transform_pose_array_id" count="256">0.1510793 -0.9884873 -0.008227283 -0.024908692 0.9872065 0.15130222 -0.050306752 95.07701 0.050972395 -0.0005217269 0.9986999 3.7891483 0 0 0 1 0.15146017 -0.9884298 -0.008155109 -0.03335716 0.9871777 0.15167868 -0.049736746 95.06316 0.05039823 -0.00051740743 0.99872905 3.8212671 0 0 0 1 0.15202874 -0.98834336 -0.008046148 -0.045912802 0.98713374 0.15224063 -0.048886247 95.0425 0.049541347 -0.0005105082 0.99877197 3.8789403 0 0 0 1 0.15276098 -0.98823154 -0.007899355 -0.061968666 0.9870769 0.1529643 -0.04776168 95.01585 0.04840792 -0.00050115027 0.9988275 3.9775715 0 0 0 1 0.153633 -0.9880978 -0.007713612 -0.08091779 0.9870093 0.15382576 -0.04636945 94.98399 0.047004107 -0.0004895311 0.9988946 4.1072803 0 0 0 1 0.15462053 -0.9879456 -0.007487748 -0.10215321 0.9869333 0.15480101 -0.044715956 94.94772 0.04533604 -0.00047590025 0.9989717 4.2612333 0 0 0 1 0.15569973 -0.9877781 -0.007220583 -0.12506801 0.9868502 0.15586638 -0.042807586 94.90785 0.04340984 -0.00046050362 0.99905723 4.4325986 0 0 0 1 0.15684485 -0.9875991 -0.006921701 -0.14905515 0.9867591 0.1569969 -0.040724732 94.865166 0.041306388 -0.00044258498 0.9991464 4.6145434 0 0 0 1 0.15803027 -0.9874122 -0.0066091884 -0.17350775 0.98665774 0.15816784 -0.03859605 94.820465 0.039155573 -0.0004216563 0.99923307 4.800235 0 0 0 1 0.159231 -0.9872213 -0.006294826 -0.19781882 0.98654634 0.15935487 -0.036500353 94.77457 0.037037037 -0.00039815158 0.99931383 4.982839 0 0 0 1 0.16037053 -0.9870387 -0.005989778 -0.2213814 0.986435 0.16048187 -0.03451643 94.72959 0.0350303 -0.00037311204 0.9993862 5.1555257 0 0 0 1 0.16137505 -0.9868767 -0.0057057394 -0.24358855 0.9863341 0.16147554 -0.032723144 94.68743 0.033215042 -0.0003470648 0.9994482 5.31146 0 0 0 1 0.1622253 -0.9867386 -0.005455683 -0.26383328 0.98624533 0.16231668 -0.031199448 94.64851 0.03167125 -0.00031930208 0.9994983 5.4438105 0 0 0 1 0.16290182 -0.98662823 -0.005252675 -0.28150868 0.9861713 0.16298622 -0.030024305 94.61325 0.030478943 -0.00028902665 0.9995354 5.5457435 0 0 0 1 0.16338456 -0.9865493 -0.0051097637 -0.29600772 0.9861148 0.16346425 -0.02927668 94.582054 0.02971815 -0.00025545433 0.99955827 5.610427 0 0 0 1 0.16338456 -0.9865493 -0.0051097637 -0.29600772 0.9861148 0.16346425 -0.02927668 94.582054 0.02971815 -0.00025545433 0.99955827 5.610427 0 0 0 1</float_array>
        <technique_common>
          <accessor source="#Motion_7_Waist_transform_pose_array_id" count="16" stride="16">
            <param name="TRANSFORM" type="float4x4" />
          </accessor>
        </technique_common>
      </source>
      <sampler id="Motion_7_Waist_transform_samp_id">
        <input semantic="INPUT" source="#Motion_7_Waist_transform_frame_id" />
        <input semantic="INTERPOLATION" source="#Motion_7_Waist_transform_interp_id" />
        <input semantic="OUTPUT" source="#Motion_7_Waist_transform_pose_id" />
      </sampler>
      <channel source="#Motion_7_Waist_transform_samp_id" target="Waist_bone_id/transform" />
    </animation>
    <animation id="Motion_7_Hips_transform_id" name="Motion_7_Hips_transform">
      <source id="Motion_7_Hips_transform_frame_id" name="Motion_7_Hips_transform_frame">
        <float_array id="Motion_7_Hips_transform_frame_array_id" count="16">0 0.033333335 0.06666667 0.1 0.13333334 0.16666667 0.2 0.23333333 0.26666668 0.3 0.33333334 0.36666667 0.4 0.43333334 0.46666667 0.5</float_array>
        <technique_common>
          <accessor source="#Motion_7_Hips_transform_frame_array_id" count="16" stride="1">
            <param name="TIME" type="float" />
          </accessor>
        </technique_common>
      </source>
      <source id="Motion_7_Hips_transform_interp_id" name="Motion_7_Hips_transform_interp">
        <Name_array id="Motion_7_Hips_transform_interp_array_id" count="16">LINEAR LINEAR LINEAR LINEAR LINEAR LINEAR LINEAR LINEAR LINEAR LINEAR LINEAR LINEAR LINEAR LINEAR LINEAR LINEAR</Name_array>
        <technique_common>
          <accessor source="#Motion_7_Hips_transform_interp_array_id" count="16" stride="1">
            <param name="INTERPOLATION" type="Name" />
          </accessor>
        </technique_common>
      </source>
      <source id="Motion_7_Hips_transform_pose_id" name="Motion_7_Hips_transform_pose">
        <float_array id="Motion_7_Hips_transform_pose_array_id" count="256">-0.99843776 0.055456523 0.0068067345 -0.010002 -0.055598367 -0.99819267 -0.022803914 0 0.0055298074 -0.023146734 0.99971676 0 0 0 0 1 -0.99843776 0.055456523 0.0068067345 -0.010002 -0.055598367 -0.99819267 -0.022803914 0 0.0055298074 -0.023146734 0.99971676 0 0 0 0 1 -0.99843776 0.055456523 0.0068067345 -0.010002 -0.055598367 -0.99819267 -0.022803914 0 0.0055298074 -0.023146734 0.99971676 0 0 0 0 1 -0.99843776 0.055456523 0.0068067345 -0.010002 -0.055598367 -0.99819267 -0.022803914 0 0.0055298074 -0.023146734 0.99971676 0 0 0 0 1 -0.99843776 0.055456523 0.0068067345 -0.010002 -0.055598367 -0.99819267 -0.022803914 0 0.0055298074 -0.023146734 0.99971676 0 0 0 0 1 -0.99843776 0.055456523 0.0068067345 -0.010002 -0.055598367 -0.99819267 -0.022803914 0 0.0055298074 -0.023146734 0.99971676 0 0 0 0 1 -0.99843776 0.055456523 0.0068067345 -0.010002 -0.055598367 -0.99819267 -0.022803914 0 0.0055298074 -0.023146734 0.99971676 0 0 0 0 1 -0.99843776 0.055456523 0.0068067345 -0.010002 -0.055598367 -0.99819267 -0.022803914 0 0.0055298074 -0.023146734 0.99971676 0 0 0 0 1 -0.99843776 0.055456523 0.0068067345 -0.010002 -0.055598367 -0.99819267 -0.022803914 0 0.0055298074 -0.023146734 0.99971676 0 0 0 0 1 -0.99843776 0.055456523 0.0068067345 -0.010002 -0.055598367 -0.99819267 -0.022803914 0 0.0055298074 -0.023146734 0.99971676 0 0 0 0 1 -0.99843776 0.055456523 0.0068067345 -0.010002 -0.055598367 -0.99819267 -0.022803914 0 0.0055298074 -0.023146734 0.99971676 0 0 0 0 1 -0.99843776 0.055456523 0.0068067345 -0.010002 -0.055598367 -0.99819267 -0.022803914 0 0.0055298074 -0.023146734 0.99971676 0 0 0 0 1 -0.99843776 0.055456523 0.0068067345 -0.010002 -0.055598367 -0.99819267 -0.022803914 0 0.0055298074 -0.023146734 0.99971676 0 0 0 0 1 -0.99843776 0.055456523 0.0068067345 -0.010002 -0.055598367 -0.99819267 -0.022803914 0 0.0055298074 -0.023146734 0.99971676 0 0 0 0 1 -0.99843776 0.055456523 0.0068067345 -0.010002 -0.055598367 -0.99819267 -0.022803914 0 0.0055298074 -0.023146734 0.99971676 0 0 0 0 1 -0.99843776 0.055456523 0.0068067345 -0.010002 -0.055598367 -0.99819267 -0.022803914 0 0.0055298074 -0.023146734 0.99971676 0 0 0 0 1</float_array>
        <technique_common>
          <accessor source="#Motion_7_Hips_transform_pose_array_id" count="16" stride="16">
            <param name="TRANSFORM" type="float4x4" />
          </accessor>
        </technique_common>
      </source>
      <sampler id="Motion_7_Hips_transform_samp_id">
        <input semantic="INPUT" source="#Motion_7_Hips_transform_frame_id" />
        <input semantic="INTERPOLATION" source="#Motion_7_Hips_transform_interp_id" />
        <input semantic="OUTPUT" source="#Motion_7_Hips_transform_pose_id" />
      </sampler>
      <channel source="#Motion_7_Hips_transform_samp_id" target="Hips_bone_id/transform" />
    </animation>
    <animation id="Motion_7_RThigh_transform_id" name="Motion_7_RThigh_transform">
      <source id="Motion_7_RThigh_transform_frame_id" name="Motion_7_RThigh_transform_frame">
        <float_array id="Motion_7_RThigh_transform_frame_array_id" count="16">0 0.033333335 0.06666667 0.1 0.13333334 0.16666667 0.2 0.23333333 0.26666668 0.3 0.33333334 0.36666667 0.4 0.43333334 0.46666667 0.5</float_array>
        <technique_common>
          <accessor source="#Motion_7_RThigh_transform_frame_array_id" count="16" stride="1">
            <param name="TIME" type="float" />
          </accessor>
        </technique_common>
      </source>
      <source id="Motion_7_RThigh_transform_interp_id" name="Motion_7_RThigh_transform_interp">
        <Name_array id="Motion_7_RThigh_transform_interp_array_id" count="16">LINEAR LINEAR LINEAR LINEAR LINEAR LINEAR LINEAR LINEAR LINEAR LINEAR LINEAR LINEAR LINEAR LINEAR LINEAR LINEAR</Name_array>
        <technique_common>
          <accessor source="#Motion_7_RThigh_transform_interp_array_id" count="16" stride="1">
            <param name="INTERPOLATION" type="Name" />
          </accessor>
        </technique_common>
      </source>
      <source id="Motion_7_RThigh_transform_pose_id" name="Motion_7_RThigh_transform_pose">
        <float_array id="Motion_7_RThigh_transform_pose_array_id" count="256">0.99303275 -0.117502175 0.008896127 11.461266 0.114112474 0.9777235 0.17616804 -7.85106 -0.02939808 -0.17392547 0.9843199 0 0 0 0 1 0.99293387 -0.11825713 0.0098800855 11.461266 0.114683636 0.9776506 0.17620175 -7.85106 -0.030496385 -0.17382358 0.9843045 0 0 0 0 1 0.99277204 -0.11946383 0.011491594 11.461266 0.11558634 0.9775145 0.17636661 -7.85106 -0.03230263 -0.17376356 0.98425746 0 0 0 0 1 0.9925505 -0.12106321 0.013684864 11.461266 0.11677041 0.9773233 0.17664596 -7.85106 -0.034759864 -0.17373204 0.9841793 0 0 0 0 1 0.99227136 -0.12299625 0.016414035 11.461266 0.11818553 0.97708493 0.17702323 -7.85106 -0.037811104 -0.17371517 0.98406976 0 0 0 0 1 0.99193674 -0.12520392 0.019633196 11.461266 0.1197814 0.97680736 0.177482 -7.85106 -0.04139929 -0.17369922 0.9839282 0 0 0 0 1 0.9915486 -0.12762703 0.02329648 11.461266 0.12150766 0.97649884 0.17800552 -7.85106 -0.0454673 -0.17367041 0.9837537 0 0 0 0 1 0.99111354 -0.13019715 0.027250946 11.461266 0.12332399 0.9761679 0.17857024 -7.85106 -0.049850836 -0.1736227 0.9835497 0 0 0 0 1 0.9906461 -0.13283537 0.031226058 11.461266 0.12520106 0.97582376 0.17914434 -7.85106 -0.054267835 -0.17355911 0.98332715 0 0 0 0 1 0.99016345 -0.13546708 0.0349999 11.461266 0.12710574 0.9754757 0.17969762 -7.85106 -0.058484666 -0.17348133 0.98309904 0 0 0 0 1 0.98968697 -0.13801776 0.038350955 11.461266 0.12900542 0.97513384 0.18019874 -7.85106 -0.062267937 -0.17339288 0.9828823 0 0 0 0 1 0.9892537 -0.1403234 0.041066423 11.461266 0.1307784 0.9748209 0.18061352 -7.85106 -0.06537671 -0.173302 0.9826965 0 0 0 0 1 0.98889977 -0.14224675 0.042931426 11.461266 0.13232988 0.9745571 0.18090682 -7.85106 -0.067572534 -0.17321761 0.9825628 0 0 0 0 1 0.9886473 -0.14375332 0.043721713 11.461266 0.13366777 0.9743488 0.18104517 -7.85106 -0.068626046 -0.17314562 0.98250246 0 0 0 0 1 0.9885156 -0.14480871 0.043212816 11.461266 0.13479975 0.97420216 0.18099508 -7.85106 -0.06830768 -0.17309138 0.98253417 0 0 0 0 1 0.9885156 -0.14480871 0.043212816 11.461266 0.13479975 0.97420216 0.18099508 -7.85106 -0.06830768 -0.17309138 0.98253417 0 0 0 0 1</float_array>
        <technique_common>
          <accessor source="#Motion_7_RThigh_transform_pose_array_id" count="16" stride="16">
            <param name="TRANSFORM" type="float4x4" />
          </accessor>
        </technique_common>
      </source>
      <sampler id="Motion_7_RThigh_transform_samp_id">
        <input semantic="INPUT" source="#Motion_7_RThigh_transform_frame_id" />
        <input semantic="INTERPOLATION" source="#Motion_7_RThigh_transform_interp_id" />
        <input semantic="OUTPUT" source="#Motion_7_RThigh_transform_pose_id" />
      </sampler>
      <channel source="#Motion_7_RThigh_transform_samp_id" target="RThigh_bone_id/transform" />
    </animation>
    <animation id="Motion_7_RLeg_transform_id" name="Motion_7_RLeg_transform">
      <source id="Motion_7_RLeg_transform_frame_id" name="Motion_7_RLeg_transform_frame">
        <float_array id="Motion_7_RLeg_transform_frame_array_id" count="16">0 0.033333335 0.06666667 0.1 0.13333334 0.16666667 0.2 0.23333333 0.26666668 0.3 0.33333334 0.36666667 0.4 0.43333334 0.46666667 0.5</float_array>
        <technique_common>
          <accessor source="#Motion_7_RLeg_transform_frame_array_id" count="16" stride="1">
            <param name="TIME" type="float" />
          </accessor>
        </technique_common>
      </source>
      <source id="Motion_7_RLeg_transform_interp_id" name="Motion_7_RLeg_transform_interp">
        <Name_array id="Motion_7_RLeg_transform_interp_array_id" count="16">LINEAR LINEAR LINEAR LINEAR LINEAR LINEAR LINEAR LINEAR LINEAR LINEAR LINEAR LINEAR LINEAR LINEAR LINEAR LINEAR</Name_array>
        <technique_common>
          <accessor source="#Motion_7_RLeg_transform_interp_array_id" count="16" stride="1">
            <param name="INTERPOLATION" type="Name" />
          </accessor>
        </technique_common>
      </source>
      <source id="Motion_7_RLeg_transform_pose_id" name="Motion_7_RLeg_transform_pose">
        <float_array id="Motion_7_RLeg_transform_pose_array_id" count="256">0.9905591 0 0.13708644 36.965405 0 1 0 0 -0.13708644 0 0.9905591 0 0 0 0 1 0.99052984 0 0.13729781 36.965405 0 1 0 0 -0.13729781 0 0.99052984 0 0 0 0 1 0.9904927 0 0.13756526 36.965405 0 1 0 0 -0.13756526 0 0.9904927 0 0 0 0 1 0.9904434 0 0.13791966 36.965405 0 1 0 0 -0.13791966 0 0.9904434 0 0 0 0 1 0.99037755 0 0.138392 36.965405 0 1 0 0 -0.138392 0 0.99037755 0 0 0 0 1 0.9902905 0 0.13901305 36.965405 0 1 0 0 -0.13901305 0 0.9902905 0 0 0 0 1 0.9901778 0 0.13981375 36.965405 0 1 0 0 -0.13981375 0 0.9901778 0 0 0 0 1 0.9900345 0 0.1408249 36.965405 0 1 0 0 -0.1408249 0 0.9900345 0 0 0 0 1 0.9898556 0 0.14207733 36.965405 0 1 0 0 -0.14207733 0 0.9898556 0 0 0 0 1 0.9896356 0 0.14360172 36.965405 0 1 0 0 -0.14360172 0 0.9896356 0 0 0 0 1 0.98936874 0 0.14542885 36.965405 0 1 0 0 -0.14542885 0 0.98936874 0 0 0 0 1 0.9890487 0 0.14758927 36.965405 0 1 0 0 -0.14758927 0 0.9890487 0 0 0 0 1 0.98863584 0 0.15033013 36.965405 0 1 0 0 -0.15033013 0 0.98863584 0 0 0 0 1 0.98809665 0 0.15383433 36.965405 0 1 0 0 -0.15383433 0 0.98809665 0 0 0 0 1 0.9874334 0 0.1580358 36.965405 0 1 0 0 -0.1580358 0 0.9874334 0 0 0 0 1 0.9874334 0 0.1580358 36.965405 0 1 0 0 -0.1580358 0 0.9874334 0 0 0 0 1</float_array>
        <technique_common>
          <accessor source="#Motion_7_RLeg_transform_pose_array_id" count="16" stride="16">
            <param name="TRANSFORM" type="float4x4" />
          </accessor>
        </technique_common>
      </source>
      <sampler id="Motion_7_RLeg_transform_samp_id">
        <input semantic="INPUT" source="#Motion_7_RLeg_transform_frame_id" />
        <input semantic="INTERPOLATION" source="#Motion_7_RLeg_transform_interp_id" />
        <input semantic="OUTPUT" source="#Motion_7_RLeg_transform_pose_id" />
      </sampler>
      <channel source="#Motion_7_RLeg_transform_samp_id" target="RLeg_bone_id/transform" />
    </animation>
    <animation id="Motion_7_RFoot_transform_id" name="Motion_7_RFoot_transform">
      <source id="Motion_7_RFoot_transform_frame_id" name="Motion_7_RFoot_transform_frame">
        <float_array id="Motion_7_RFoot_transform_frame_array_id" count="16">0 0.033333335 0.06666667 0.1 0.13333334 0.16666667 0.2 0.23333333 0.26666668 0.3 0.33333334 0.36666667 0.4 0.43333334 0.46666667 0.5</float_array>
        <technique_common>
          <accessor source="#Motion_7_RFoot_transform_frame_array_id" count="16" stride="1">
            <param name="TIME" type="float" />
          </accessor>
        </technique_common>
      </source>
      <source id="Motion_7_RFoot_transform_interp_id" name="Motion_7_RFoot_transform_interp">
        <Name_array id="Motion_7_RFoot_transform_interp_array_id" count="16">LINEAR LINEAR LINEAR LINEAR LINEAR LINEAR LINEAR LINEAR LINEAR LINEAR LINEAR LINEAR LINEAR LINEAR LINEAR LINEAR</Name_array>
        <technique_common>
          <accessor source="#Motion_7_RFoot_transform_interp_array_id" count="16" stride="1">
            <param name="INTERPOLATION" type="Name" />
          </accessor>
        </technique_common>
      </source>
      <source id="Motion_7_RFoot_transform_pose_id" name="Motion_7_RFoot_transform_pose">
        <float_array id="Motion_7_RFoot_transform_pose_array_id" count="256">-0.21032238 -0.00026144087 -0.97763216 36.96541 -0.1500624 0.9881579 0.032019336 0 0.9660466 0.15344019 -0.20787096 0 0 0 0 1 -0.21111834 -0.00013858825 -0.97746056 36.96541 -0.15009692 0.9881442 0.032278802 0 0.9658676 0.15352845 -0.20863616 0 0 0 0 1 -0.212412 9.603053E-05 -0.9771801 36.96541 -0.1501928 0.9881143 0.032744884 0 0.9655688 0.15372084 -0.20987284 0 0 0 0 1 -0.21415138 0.00042190403 -0.9768003 36.96541 -0.15034011 0.9880704 0.033386994 0 0.96516156 0.15400214 -0.21153319 0 0 0 0 1 -0.21628451 0.0008184612 -0.97633004 36.96541 -0.15052873 0.98801476 0.034174595 0 0.9646565 0.15435717 -0.21356905 0 0 0 0 1 -0.2187593 0.001265116 -0.97577816 36.96541 -0.15074864 0.9879496 0.03507715 0 0.96406406 0.15477066 -0.21593237 0 0 0 0 1 -0.22152305 0.0017413795 -0.97515357 36.96541 -0.15098985 0.98787725 0.036064077 0 0.96339476 0.15522732 -0.21857464 0 0 0 0 1 -0.22452402 0.0022269264 -0.9744659 36.96541 -0.1512427 0.9878 0.037104826 0 0.96266 0.15571178 -0.22144806 0 0 0 0 1 -0.22771025 0.002701588 -0.973725 36.96541 -0.15149766 0.9877204 0.03816888 0 0.9618712 0.15620854 -0.22450483 0 0 0 0 1 -0.23102903 0.003145434 -0.9729417 36.96541 -0.15174568 0.9876409 0.039225597 0 0.96104044 0.15670195 -0.22769642 0 0 0 0 1 -0.23442912 0.003538698 -0.97212666 36.96541 -0.1519778 0.98756427 0.040244482 0 0.96018 0.15717617 -0.23097599 0 0 0 0 1 -0.23785865 0.003861986 -0.97129214 36.96541 -0.15218571 0.98749304 0.041194983 0 0.95930326 0.15761536 -0.23429596 0 0 0 0 1 -0.24126542 0.0040960535 -0.9704505 36.96541 -0.15236112 0.9874301 0.04204649 0 0.9584242 0.15800332 -0.23760855 0 0 0 0 1 -0.24459791 0.004221916 -0.96961534 36.96541 -0.15249638 0.9873782 0.042768434 0 0.95755756 0.15832391 -0.24086678 0 0 0 0 1 -0.24780512 0.004220769 -0.9688008 36.96541 -0.15258391 0.9873402 0.043330275 0 0.9567188 0.15856087 -0.24402392 0 0 0 0 1 -0.24780512 0.004220769 -0.9688008 36.96541 -0.15258391 0.9873402 0.043330275 0 0.9567188 0.15856087 -0.24402392 0 0 0 0 1</float_array>
        <technique_common>
          <accessor source="#Motion_7_RFoot_transform_pose_array_id" count="16" stride="16">
            <param name="TRANSFORM" type="float4x4" />
          </accessor>
        </technique_common>
      </source>
      <sampler id="Motion_7_RFoot_transform_samp_id">
        <input semantic="INPUT" source="#Motion_7_RFoot_transform_frame_id" />
        <input semantic="INTERPOLATION" source="#Motion_7_RFoot_transform_interp_id" />
        <input semantic="OUTPUT" source="#Motion_7_RFoot_transform_pose_id" />
      </sampler>
      <channel source="#Motion_7_RFoot_transform_samp_id" target="RFoot_bone_id/transform" />
    </animation>
    <animation id="Motion_7_LThigh_transform_id" name="Motion_7_LThigh_transform">
      <source id="Motion_7_LThigh_transform_frame_id" name="Motion_7_LThigh_transform_frame">
        <float_array id="Motion_7_LThigh_transform_frame_array_id" count="16">0 0.033333335 0.06666667 0.1 0.13333334 0.16666667 0.2 0.23333333 0.26666668 0.3 0.33333334 0.36666667 0.4 0.43333334 0.46666667 0.5</float_array>
        <technique_common>
          <accessor source="#Motion_7_LThigh_transform_frame_array_id" count="16" stride="1">
            <param name="TIME" type="float" />
          </accessor>
        </technique_common>
      </source>
      <source id="Motion_7_LThigh_transform_interp_id" name="Motion_7_LThigh_transform_interp">
        <Name_array id="Motion_7_LThigh_transform_interp_array_id" count="16">LINEAR LINEAR LINEAR LINEAR LINEAR LINEAR LINEAR LINEAR LINEAR LINEAR LINEAR LINEAR LINEAR LINEAR LINEAR LINEAR</Name_array>
        <technique_common>
          <accessor source="#Motion_7_LThigh_transform_interp_array_id" count="16" stride="1">
            <param name="INTERPOLATION" type="Name" />
          </accessor>
        </technique_common>
      </source>
      <source id="Motion_7_LThigh_transform_pose_id" name="Motion_7_LThigh_transform_pose">
        <float_array id="Motion_7_LThigh_transform_pose_array_id" count="256">0.9348541 -0.32230875 -0.14887883 11.461266 0.28360096 0.93020624 -0.23299538 7.851056 0.21358447 0.1755945 0.96101415 0 0 0 0 1 0.93473065 -0.3226467 -0.14892168 11.461266 0.28389493 0.9300776 -0.23315075 7.851056 0.21373405 0.17565507 0.96096987 0 0 0 0 1 0.9345521 -0.32316843 -0.14891125 11.461266 0.28435805 0.9298709 -0.23341085 7.851056 0.21389927 0.17579047 0.9609083 0 0 0 0 1 0.9343293 -0.32384363 -0.14884263 11.461266 0.28496405 0.929597 -0.23376235 7.851056 0.21406612 0.17599621 0.9608335 0 0 0 0 1 0.9340732 -0.32464182 -0.14871089 11.461266 0.2856865 0.92926717 -0.23419175 7.851056 0.21422057 0.17626753 0.9607493 0 0 0 0 1 0.9337949 -0.32553267 -0.14851105 11.461266 0.28649908 0.9288923 -0.23468558 7.851056 0.21434858 0.17659993 0.96065974 0 0 0 0 1 0.9335055 -0.32648575 -0.14823824 11.461266 0.28737545 0.9284837 -0.23523043 7.851056 0.21443617 0.17698886 0.9605686 0 0 0 0 1 0.93321604 -0.32747078 -0.14788762 11.461266 0.28828943 0.92805254 -0.23581277 7.851056 0.21446928 0.17742981 0.96047986 0 0 0 0 1 0.9329378 -0.32845742 -0.14745435 11.461266 0.28921485 0.9276103 -0.23641911 7.851056 0.21443379 0.17791834 0.9603974 0 0 0 0 1 0.93268216 -0.32941538 -0.14693375 11.461266 0.29012555 0.9271683 -0.23703606 7.851056 0.21431564 0.17845006 0.9603251 0 0 0 0 1 0.9324605 -0.33031443 -0.1463211 11.461266 0.2909955 0.9267384 -0.23765011 7.851056 0.21410064 0.17902054 0.96026695 0 0 0 0 1 0.93225604 -0.33113766 -0.14576188 11.461266 0.29177916 0.9263326 -0.23827045 7.851056 0.21392429 0.1795988 0.9601982 0 0 0 0 1 0.93204665 -0.33187145 -0.14543164 11.461266 0.29242694 0.9259633 -0.23891106 7.851056 0.21395212 0.18014812 0.96008915 0 0 0 0 1 0.9318357 -0.3324898 -0.1453711 11.461266 0.29290652 0.9256425 -0.2395657 7.851056 0.21421482 0.18065575 0.9599352 0 0 0 0 1 0.9316263 -0.332967 -0.14562081 11.461266 0.2931858 0.9253824 -0.24022816 7.851056 0.21474297 0.1811089 0.95973176 0 0 0 0 1 0.9316263 -0.332967 -0.14562081 11.461266 0.2931858 0.9253824 -0.24022816 7.851056 0.21474297 0.1811089 0.95973176 0 0 0 0 1</float_array>
        <technique_common>
          <accessor source="#Motion_7_LThigh_transform_pose_array_id" count="16" stride="16">
            <param name="TRANSFORM" type="float4x4" />
          </accessor>
        </technique_common>
      </source>
      <sampler id="Motion_7_LThigh_transform_samp_id">
        <input semantic="INPUT" source="#Motion_7_LThigh_transform_frame_id" />
        <input semantic="INTERPOLATION" source="#Motion_7_LThigh_transform_interp_id" />
        <input semantic="OUTPUT" source="#Motion_7_LThigh_transform_pose_id" />
      </sampler>
      <channel source="#Motion_7_LThigh_transform_samp_id" target="LThigh_bone_id/transform" />
    </animation>
    <animation id="Motion_7_LLeg_transform_id" name="Motion_7_LLeg_transform">
      <source id="Motion_7_LLeg_transform_frame_id" name="Motion_7_LLeg_transform_frame">
        <float_array id="Motion_7_LLeg_transform_frame_array_id" count="16">0 0.033333335 0.06666667 0.1 0.13333334 0.16666667 0.2 0.23333333 0.26666668 0.3 0.33333334 0.36666667 0.4 0.43333334 0.46666667 0.5</float_array>
        <technique_common>
          <accessor source="#Motion_7_LLeg_transform_frame_array_id" count="16" stride="1">
            <param name="TIME" type="float" />
          </accessor>
        </technique_common>
      </source>
      <source id="Motion_7_LLeg_transform_interp_id" name="Motion_7_LLeg_transform_interp">
        <Name_array id="Motion_7_LLeg_transform_interp_array_id" count="16">LINEAR LINEAR LINEAR LINEAR LINEAR LINEAR LINEAR LINEAR LINEAR LINEAR LINEAR LINEAR LINEAR LINEAR LINEAR LINEAR</Name_array>
        <technique_common>
          <accessor source="#Motion_7_LLeg_transform_interp_array_id" count="16" stride="1">
            <param name="INTERPOLATION" type="Name" />
          </accessor>
        </technique_common>
      </source>
      <source id="Motion_7_LLeg_transform_pose_id" name="Motion_7_LLeg_transform_pose">
        <float_array id="Motion_7_LLeg_transform_pose_array_id" count="256">0.96899366 0 0.24708568 36.965405 0 1 0 0 -0.24708568 0 0.96899366 0 0 0 0 1 0.9684396 0 0.24924853 36.965405 0 1 0 0 -0.24924853 0 0.9684396 0 0 0 0 1 0.96746874 0 0.25299066 36.965405 0 1 0 0 -0.25299066 0 0.96746874 0 0 0 0 1 0.9660507 0 0.25835255 36.965405 0 1 0 0 -0.25835255 0 0.9660507 0 0 0 0 1 0.9641461 0 0.2653721 36.965405 0 1 0 0 -0.2653721 0 0.9641461 0 0 0 0 1 0.96185553 0 0.27355802 36.965405 0 1 0 0 -0.27355802 0 0.96185553 0 0 0 0 1 0.9593453 0 0.282235 36.965405 0 1 0 0 -0.282235 0 0.9593453 0 0 0 0 1 0.9566731 0 0.2911642 36.965405 0 1 0 0 -0.2911642 0 0.9566731 0 0 0 0 1 0.95390487 0 0.3001091 36.965405 0 1 0 0 -0.3001091 0 0.95390487 0 0 0 0 1 0.95111537 0 0.30883583 36.965405 0 1 0 0 -0.30883583 0 0.95111537 0 0 0 0 1 0.9483876 0 0.31711334 36.965405 0 1 0 0 -0.31711334 0 0.9483876 0 0 0 0 1 0.9458125 0 0.32471317 36.965405 0 1 0 0 -0.32471317 0 0.9458125 0 0 0 0 1 0.9434871 0 0.3314093 36.965405 0 1 0 0 -0.3314093 0 0.9434871 0 0 0 0 1 0.9415127 0 0.33697757 36.965405 0 1 0 0 -0.33697757 0 0.9415127 0 0 0 0 1 0.9400109 0 0.34114432 36.965405 0 1 0 0 -0.34114432 0 0.9400109 0 0 0 0 1 0.9400109 0 0.34114432 36.965405 0 1 0 0 -0.34114432 0 0.9400109 0 0 0 0 1</float_array>
        <technique_common>
          <accessor source="#Motion_7_LLeg_transform_pose_array_id" count="16" stride="16">
            <param name="TRANSFORM" type="float4x4" />
          </accessor>
        </technique_common>
      </source>
      <sampler id="Motion_7_LLeg_transform_samp_id">
        <input semantic="INPUT" source="#Motion_7_LLeg_transform_frame_id" />
        <input semantic="INTERPOLATION" source="#Motion_7_LLeg_transform_interp_id" />
        <input semantic="OUTPUT" source="#Motion_7_LLeg_transform_pose_id" />
      </sampler>
      <channel source="#Motion_7_LLeg_transform_samp_id" target="LLeg_bone_id/transform" />
    </animation>
    <animation id="Motion_7_LFoot_transform_id" name="Motion_7_LFoot_transform">
      <source id="Motion_7_LFoot_transform_frame_id" name="Motion_7_LFoot_transform_frame">
        <float_array id="Motion_7_LFoot_transform_frame_array_id" count="16">0 0.033333335 0.06666667 0.1 0.13333334 0.16666667 0.2 0.23333333 0.26666668 0.3 0.33333334 0.36666667 0.4 0.43333334 0.46666667 0.5</float_array>
        <technique_common>
          <accessor source="#Motion_7_LFoot_transform_frame_array_id" count="16" stride="1">
            <param name="TIME" type="float" />
          </accessor>
        </technique_common>
      </source>
      <source id="Motion_7_LFoot_transform_interp_id" name="Motion_7_LFoot_transform_interp">
        <Name_array id="Motion_7_LFoot_transform_interp_array_id" count="16">LINEAR LINEAR LINEAR LINEAR LINEAR LINEAR LINEAR LINEAR LINEAR LINEAR LINEAR LINEAR LINEAR LINEAR LINEAR LINEAR</Name_array>
        <technique_common>
          <accessor source="#Motion_7_LFoot_transform_interp_array_id" count="16" stride="1">
            <param name="INTERPOLATION" type="Name" />
          </accessor>
        </technique_common>
      </source>
      <source id="Motion_7_LFoot_transform_pose_id" name="Motion_7_LFoot_transform_pose">
        <float_array id="Motion_7_LFoot_transform_pose_array_id" count="256">-0.10731876 0.22891311 -0.967513 36.96541 0.058037415 0.9729162 0.22375384 4E-06 0.9925292 -0.032138966 -0.117697716 0 0 0 0 1 -0.109080076 0.22900817 -0.9672935 36.96541 0.057900846 0.97291166 0.22380888 4E-06 0.9923452 -0.03159401 -0.119385004 0 0 0 0 1 -0.11215234 0.22918238 -0.9669008 36.96541 0.057715163 0.9728995 0.22390974 4E-06 0.99201345 -0.030692838 -0.1223402 0 0 0 0 1 -0.11644411 0.22941998 -0.966337 36.96541 0.057502687 0.972881 0.22404449 4E-06 0.9915312 -0.029478297 -0.12647855 0 0 0 0 1 -0.12186396 0.22970475 -0.9656009 36.96541 0.05728601 0.9728577 0.22420129 4E-06 0.99089235 -0.027993388 -0.13171518 0 0 0 0 1 -0.12831962 0.23002017 -0.964689 36.96541 0.05708763 0.97283095 0.22436795 4E-06 0.99008846 -0.026281007 -0.1379646 0 0 0 0 1 -0.13546741 0.23035546 -0.9636312 36.96541 0.05690305 0.97280025 0.2245479 4E-06 0.98914653 -0.024414659 -0.14489067 0 0 0 0 1 -0.14288104 0.23070353 -0.96247643 36.96541 0.0567187 0.97276443 0.22474958 4E-06 0.98811334 -0.022477955 -0.15207481 0 0 0 0 1 -0.1503458 0.23105463 -0.9612544 36.96541 0.056542687 0.9727242 0.22496802 4E-06 0.9870153 -0.020528913 -0.15930939 0 0 0 0 1 -0.15764749 0.23140045 -0.9600005 36.96541 0.05638276 0.9726803 0.22519782 4E-06 0.9858844 -0.01862561 -0.16638756 0 0 0 0 1 -0.16457272 0.23173437 -0.9587571 36.96541 0.05624599 0.9726336 0.22543362 4E-06 0.9847601 -0.016826034 -0.1731031 0 0 0 0 1 -0.17090917 0.23205101 -0.9575711 36.96541 0.056139074 0.972585 0.2256696 4E-06 0.98368615 -0.01518815 -0.17925084 0 0 0 0 1 -0.17644596 0.23234636 -0.9564946 36.96541 0.056068353 0.9725356 0.22589993 4E-06 0.9827121 -0.013769932 -0.1846273 0 0 0 0 1 -0.18097234 0.23261698 -0.9555827 36.96541 0.056039736 0.97248644 0.22611877 4E-06 0.98189026 -0.0126293525 -0.18902898 0 0 0 0 1 -0.18427825 0.23285976 -0.95489144 36.96541 0.056059092 0.97243845 0.22632027 4E-06 0.981274 -0.011824399 -0.19225323 0 0 0 0 1 -0.18427825 0.23285976 -0.95489144 36.96541 0.056059092 0.97243845 0.22632027 4E-06 0.981274 -0.011824399 -0.19225323 0 0 0 0 1</float_array>
        <technique_common>
          <accessor source="#Motion_7_LFoot_transform_pose_array_id" count="16" stride="16">
            <param name="TRANSFORM" type="float4x4" />
          </accessor>
        </technique_common>
      </source>
      <sampler id="Motion_7_LFoot_transform_samp_id">
        <input semantic="INPUT" source="#Motion_7_LFoot_transform_frame_id" />
        <input semantic="INTERPOLATION" source="#Motion_7_LFoot_transform_interp_id" />
        <input semantic="OUTPUT" source="#Motion_7_LFoot_transform_pose_id" />
      </sampler>
      <channel source="#Motion_7_LFoot_transform_samp_id" target="LFoot_bone_id/transform" />
    </animation>
    <animation id="Motion_7_Spine2_transform_id" name="Motion_7_Spine2_transform">
      <source id="Motion_7_Spine2_transform_frame_id" name="Motion_7_Spine2_transform_frame">
        <float_array id="Motion_7_Spine2_transform_frame_array_id" count="16">0 0.033333335 0.06666667 0.1 0.13333334 0.16666667 0.2 0.23333333 0.26666668 0.3 0.33333334 0.36666667 0.4 0.43333334 0.46666667 0.5</float_array>
        <technique_common>
          <accessor source="#Motion_7_Spine2_transform_frame_array_id" count="16" stride="1">
            <param name="TIME" type="float" />
          </accessor>
        </technique_common>
      </source>
      <source id="Motion_7_Spine2_transform_interp_id" name="Motion_7_Spine2_transform_interp">
        <Name_array id="Motion_7_Spine2_transform_interp_array_id" count="16">LINEAR LINEAR LINEAR LINEAR LINEAR LINEAR LINEAR LINEAR LINEAR LINEAR LINEAR LINEAR LINEAR LINEAR LINEAR LINEAR</Name_array>
        <technique_common>
          <accessor source="#Motion_7_Spine2_transform_interp_array_id" count="16" stride="1">
            <param name="INTERPOLATION" type="Name" />
          </accessor>
        </technique_common>
      </source>
      <source id="Motion_7_Spine2_transform_pose_id" name="Motion_7_Spine2_transform_pose">
        <float_array id="Motion_7_Spine2_transform_pose_array_id" count="256">0.96153903 -0.09541517 0.25756282 13.194138 0.09457102 0.9953944 0.015693245 0 -0.25787395 0.009268308 0.96613413 0 0 0 0 1 0.96102774 -0.095463686 0.25944632 13.194138 0.094521545 0.9953921 0.01613422 0 -0.25979102 0.009017836 0.9656227 0 0 0 0 1 0.9604408 -0.0955452 0.2615809 13.194138 0.09446573 0.99538755 0.01672813 0 -0.2619727 0.008644056 0.9650366 0 0 0 0 1 0.9597862 -0.095655255 0.26393288 13.194138 0.09440393 0.995381 0.017450787 0 -0.26438302 0.008167274 0.9643832 0 0 0 0 1 0.95907193 -0.095789365 0.2664684 13.194138 0.09433661 0.99537253 0.018278016 0 -0.2669862 0.007607793 0.9636703 0 0 0 0 1 0.9583064 -0.095942974 0.26915398 13.194138 0.09426434 0.99536234 0.01918565 0 -0.26974645 0.006985891 0.96290606 0 0 0 0 1 0.9574981 -0.09611132 0.2719559 13.194138 0.09418783 0.99535054 0.020149529 0 -0.27262807 0.0063218055 0.9620987 0 0 0 0 1 0.9566561 -0.09628957 0.2748407 13.194138 0.09410796 0.9953374 0.0211455 0 -0.2755953 0.0056357286 0.9612572 0 0 0 0 1 0.9558054 -0.09647297 0.27772096 13.194138 0.09402662 0.9953233 0.022146834 0 -0.2785587 0.0049450975 0.9604065 0 0 0 0 1 0.9549819 -0.096656665 0.28047645 13.194138 0.09394643 0.99530864 0.023125209 0 -0.28139585 0.0042656055 0.95958227 0 0 0 0 1 0.9542116 -0.09683539 0.28302503 13.194138 0.09386988 0.99529386 0.024054192 0 -0.2840224 0.0036147404 0.9588108 0 0 0 0 1 0.9535213 -0.09700363 0.28528482 13.194138 0.09379972 0.9952795 0.024907367 0 -0.28635424 0.0030099303 0.9581191 0 0 0 0 1 0.95293856 -0.09715576 0.28717402 13.194138 0.093738906 0.99526614 0.025658356 0 -0.2883074 0.0024685394 0.95753473 0 0 0 0 1 0.95249104 -0.09728598 0.28861094 13.194138 0.09369052 0.99525446 0.02628079 0 -0.28979808 0.0020078933 0.9570857 0 0 0 0 1 0.95220643 -0.097388566 0.28951406 13.194138 0.09365772 0.9952451 0.026748316 0 -0.29074246 0.0016453099 0.9567999 0 0 0 0 1 0.95220643 -0.097388566 0.28951406 13.194138 0.09365772 0.9952451 0.026748316 0 -0.29074246 0.0016453099 0.9567999 0 0 0 0 1</float_array>
        <technique_common>
          <accessor source="#Motion_7_Spine2_transform_pose_array_id" count="16" stride="16">
            <param name="TRANSFORM" type="float4x4" />
          </accessor>
        </technique_common>
      </source>
      <sampler id="Motion_7_Spine2_transform_samp_id">
        <input semantic="INPUT" source="#Motion_7_Spine2_transform_frame_id" />
        <input semantic="INTERPOLATION" source="#Motion_7_Spine2_transform_interp_id" />
        <input semantic="OUTPUT" source="#Motion_7_Spine2_transform_pose_id" />
      </sampler>
      <channel source="#Motion_7_Spine2_transform_samp_id" target="Spine2_bone_id/transform" />
    </animation>
    <animation id="Motion_7_Spine3_transform_id" name="Motion_7_Spine3_transform">
      <source id="Motion_7_Spine3_transform_frame_id" name="Motion_7_Spine3_transform_frame">
        <float_array id="Motion_7_Spine3_transform_frame_array_id" count="16">0 0.033333335 0.06666667 0.1 0.13333334 0.16666667 0.2 0.23333333 0.26666668 0.3 0.33333334 0.36666667 0.4 0.43333334 0.46666667 0.5</float_array>
        <technique_common>
          <accessor source="#Motion_7_Spine3_transform_frame_array_id" count="16" stride="1">
            <param name="TIME" type="float" />
          </accessor>
        </technique_common>
      </source>
      <source id="Motion_7_Spine3_transform_interp_id" name="Motion_7_Spine3_transform_interp">
        <Name_array id="Motion_7_Spine3_transform_interp_array_id" count="16">LINEAR LINEAR LINEAR LINEAR LINEAR LINEAR LINEAR LINEAR LINEAR LINEAR LINEAR LINEAR LINEAR LINEAR LINEAR LINEAR</Name_array>
        <technique_common>
          <accessor source="#Motion_7_Spine3_transform_interp_array_id" count="16" stride="1">
            <param name="INTERPOLATION" type="Name" />
          </accessor>
        </technique_common>
      </source>
      <source id="Motion_7_Spine3_transform_pose_id" name="Motion_7_Spine3_transform_pose">
        <float_array id="Motion_7_Spine3_transform_pose_array_id" count="256">0.9647757 -0.10482408 0.24128775 13.19413 0.10632135 0.9943083 0.0068432996 0 -0.24063174 0.01905179 0.9704295 0 0 0 0 1 0.9647602 -0.10482284 0.24135025 13.19413 0.10631994 0.9943084 0.0068488726 0 -0.24069451 0.019052826 0.9704139 0 0 0 0 1 0.96473205 -0.10482051 0.2414636 13.19413 0.1063114 0.99430907 0.0068828515 0 -0.2408109 0.019030228 0.9703855 0 0 0 0 1 0.9646742 -0.104824744 0.24169311 13.19413 0.10628904 0.99431056 0.00700913 0 -0.24105275 0.018927803 0.97032744 0 0 0 0 1 0.96456903 -0.10484329 0.24210416 13.19413 0.10624613 0.9943131 0.007291602 0 -0.24149181 0.018689377 0.9702229 0 0 0 0 1 0.9643993 -0.104884 0.24276206 13.19413 0.106175736 0.9943168 0.007794124 0 -0.24219987 0.018258791 0.97005457 0 0 0 0 1 0.96414685 -0.104955085 0.24373198 13.19413 0.10607072 0.9943216 0.008580519 0 -0.24324852 0.017579949 0.96980464 0 0 0 0 1 0.96379334 -0.10506508 0.24507894 13.19413 0.10592334 0.99432683 0.00971451 0 -0.24470921 0.016596798 0.96945447 0 0 0 0 1 0.9633195 -0.10522323 0.24686776 13.19413 0.10572518 0.99433166 0.011259731 0 -0.24665321 0.015253421 0.96898377 0 0 0 0 1 0.9627047 -0.105439566 0.24916282 13.19413 0.10546679 0.99433416 0.0132796215 0 -0.24915129 0.013494047 0.96837056 0 0 0 0 1 0.9619273 -0.10572532 0.25202796 13.19413 0.10513742 0.9943316 0.015837409 0 -0.25227377 0.011263132 0.96759033 0 0 0 0 1 0.96102434 -0.10607292 0.2553052 13.19413 0.10474925 0.99432063 0.018816354 0 -0.25585112 0.008660054 0.9666774 0 0 0 0 1 0.96012443 -0.10643704 0.25851923 13.19413 0.104359105 0.99430096 0.021788402 0 -0.25936502 0.006059259 0.96576035 0 0 0 0 1 0.9593456 -0.10676965 0.26125902 13.19413 0.10402593 0.99427646 0.024350297 0 -0.26236355 0.0038173618 0.9649615 0 0 0 0 1 0.95881045 -0.10701903 0.2631149 13.19413 0.103812955 0.99425435 0.026099566 0 -0.26439628 0.0022901976 0.9644114 0 0 0 0 1 0.95881045 -0.10701903 0.2631149 13.19413 0.103812955 0.99425435 0.026099566 0 -0.26439628 0.0022901976 0.9644114 0 0 0 0 1</float_array>
        <technique_common>
          <accessor source="#Motion_7_Spine3_transform_pose_array_id" count="16" stride="16">
            <param name="TRANSFORM" type="float4x4" />
          </accessor>
        </technique_common>
      </source>
      <sampler id="Motion_7_Spine3_transform_samp_id">
        <input semantic="INPUT" source="#Motion_7_Spine3_transform_frame_id" />
        <input semantic="INTERPOLATION" source="#Motion_7_Spine3_transform_interp_id" />
        <input semantic="OUTPUT" source="#Motion_7_Spine3_transform_pose_id" />
      </sampler>
      <channel source="#Motion_7_Spine3_transform_samp_id" target="Spine3_bone_id/transform" />
    </animation>
    <animation id="Motion_7_RShoulder_transform_id" name="Motion_7_RShoulder_transform">
      <source id="Motion_7_RShoulder_transform_frame_id" name="Motion_7_RShoulder_transform_frame">
        <float_array id="Motion_7_RShoulder_transform_frame_array_id" count="16">0 0.033333335 0.06666667 0.1 0.13333334 0.16666667 0.2 0.23333333 0.26666668 0.3 0.33333334 0.36666667 0.4 0.43333334 0.46666667 0.5</float_array>
        <technique_common>
          <accessor source="#Motion_7_RShoulder_transform_frame_array_id" count="16" stride="1">
            <param name="TIME" type="float" />
          </accessor>
        </technique_common>
      </source>
      <source id="Motion_7_RShoulder_transform_interp_id" name="Motion_7_RShoulder_transform_interp">
        <Name_array id="Motion_7_RShoulder_transform_interp_array_id" count="16">LINEAR LINEAR LINEAR LINEAR LINEAR LINEAR LINEAR LINEAR LINEAR LINEAR LINEAR LINEAR LINEAR LINEAR LINEAR LINEAR</Name_array>
        <technique_common>
          <accessor source="#Motion_7_RShoulder_transform_interp_array_id" count="16" stride="1">
            <param name="INTERPOLATION" type="Name" />
          </accessor>
        </technique_common>
      </source>
      <source id="Motion_7_RShoulder_transform_pose_id" name="Motion_7_RShoulder_transform_pose">
        <float_array id="Motion_7_RShoulder_transform_pose_array_id" count="256">-0.46667087 -0.83746725 -0.28437167 15.41874 0.73231286 -0.5461762 0.40670592 4.285369 -0.49591988 -0.018451259 0.8681722 -0.220194 0 0 0 1 -0.46766305 -0.83611685 -0.28670514 15.41874 0.7315871 -0.54817927 0.4053144 4.285369 -0.49605602 -0.020199224 0.8680555 -0.220194 0 0 0 1 -0.46928334 -0.83368814 -0.29109612 15.41874 0.7305031 -0.551723 0.40245107 4.285369 -0.49612316 -0.023782998 0.86792636 -0.220194 0 0 0 1 -0.47164822 -0.8298528 -0.29814827 15.41874 0.72910404 -0.5571792 0.39744017 4.285369 -0.49593884 -0.02992919 0.86784154 -0.220194 0 0 0 1 -0.4748212 -0.8248621 -0.30683395 15.41874 0.7275002 -0.5640714 0.3905977 4.285369 -0.49526557 -0.037757665 0.8679207 -0.220194 0 0 0 1 -0.47839522 -0.8192115 -0.31627616 15.41874 0.7260765 -0.57158065 0.38224155 4.285369 -0.49391398 -0.046778172 0.86825156 -0.220194 0 0 0 1 -0.48220038 -0.81328315 -0.3256583 15.41874 0.72508687 -0.5791242 0.37264478 4.285369 -0.49166235 -0.056441084 0.86895484 -0.220194 0 0 0 1 -0.48606527 -0.807503 -0.3341848 15.41874 0.72479534 -0.5861356 0.36210048 4.285369 -0.48827484 -0.06621115 0.8701745 -0.220194 0 0 0 1 -0.4898113 -0.8023385 -0.3410832 15.41874 0.7254752 -0.59206665 0.35091698 4.285369 -0.48349825 -0.07556428 0.8720777 -0.220194 0 0 0 1 -0.49317276 -0.79820263 -0.34590927 15.41874 0.72726786 -0.5964869 0.3395362 4.285369 -0.477349 -0.084118694 0.8746782 -0.220194 0 0 0 1 -0.49597275 -0.7950137 -0.34923404 15.41874 0.7296826 -0.5996039 0.3286925 4.285369 -0.47071707 -0.09180752 0.87749463 -0.220194 0 0 0 1 -0.4982791 -0.792421 -0.35183316 15.41874 0.7319914 -0.60196304 0.3191061 4.285369 -0.464657 -0.09853491 0.8799913 -0.220194 0 0 0 1 -0.500103 -0.7903431 -0.3539133 15.41874 0.733936 -0.60374963 0.3111659 4.285369 -0.4596029 -0.104134716 0.8819984 -0.220194 0 0 0 1 -0.5015837 -0.78881735 -0.3552196 15.41874 0.7357184 -0.6049589 0.3045375 4.285369 -0.45511776 -0.10859055 0.883785 -0.220194 0 0 0 1 -0.50279844 -0.7877819 -0.3557999 15.41874 0.7374379 -0.6056702 0.29891345 4.285369 -0.45097595 -0.11208713 0.88547003 -0.220194 0 0 0 1 -0.50279844 -0.7877819 -0.3557999 15.41874 0.7374379 -0.6056702 0.29891345 4.285369 -0.45097595 -0.11208713 0.88547003 -0.220194 0 0 0 1</float_array>
        <technique_common>
          <accessor source="#Motion_7_RShoulder_transform_pose_array_id" count="16" stride="16">
            <param name="TRANSFORM" type="float4x4" />
          </accessor>
        </technique_common>
      </source>
      <sampler id="Motion_7_RShoulder_transform_samp_id">
        <input semantic="INPUT" source="#Motion_7_RShoulder_transform_frame_id" />
        <input semantic="INTERPOLATION" source="#Motion_7_RShoulder_transform_interp_id" />
        <input semantic="OUTPUT" source="#Motion_7_RShoulder_transform_pose_id" />
      </sampler>
      <channel source="#Motion_7_RShoulder_transform_samp_id" target="RShoulder_bone_id/transform" />
    </animation>
    <animation id="Motion_7_RArm_transform_id" name="Motion_7_RArm_transform">
      <source id="Motion_7_RArm_transform_frame_id" name="Motion_7_RArm_transform_frame">
        <float_array id="Motion_7_RArm_transform_frame_array_id" count="16">0 0.033333335 0.06666667 0.1 0.13333334 0.16666667 0.2 0.23333333 0.26666668 0.3 0.33333334 0.36666667 0.4 0.43333334 0.46666667 0.5</float_array>
        <technique_common>
          <accessor source="#Motion_7_RArm_transform_frame_array_id" count="16" stride="1">
            <param name="TIME" type="float" />
          </accessor>
        </technique_common>
      </source>
      <source id="Motion_7_RArm_transform_interp_id" name="Motion_7_RArm_transform_interp">
        <Name_array id="Motion_7_RArm_transform_interp_array_id" count="16">LINEAR LINEAR LINEAR LINEAR LINEAR LINEAR LINEAR LINEAR LINEAR LINEAR LINEAR LINEAR LINEAR LINEAR LINEAR LINEAR</Name_array>
        <technique_common>
          <accessor source="#Motion_7_RArm_transform_interp_array_id" count="16" stride="1">
            <param name="INTERPOLATION" type="Name" />
          </accessor>
        </technique_common>
      </source>
      <source id="Motion_7_RArm_transform_pose_id" name="Motion_7_RArm_transform_pose">
        <float_array id="Motion_7_RArm_transform_pose_array_id" count="256">0.8271798 -0.5609137 0.03390462 8.899513 0.55291486 0.8231842 0.12904616 0 -0.100293495 -0.087998 0.9910588 0 0 0 0 1 0.8279269 -0.55982864 0.033599235 8.899513 0.55213237 0.8241278 0.12634568 0 -0.098422 -0.08605377 0.9914171 0 0 0 0 1 0.82908255 -0.55812854 0.03338681 8.899513 0.5509713 0.82569367 0.121080786 0 -0.095145926 -0.08199079 0.99208105 0 0 0 0 1 0.83054334 -0.555918 0.03395603 8.899513 0.5495125 0.827855 0.11265938 0 -0.09074003 -0.07490924 0.9930533 0 0 0 0 1 0.83221614 -0.55331755 0.03544095 8.899513 0.5477369 0.8303743 0.10228801 0 -0.086027004 -0.06571342 0.9941233 0 0 0 0 1 0.83400905 -0.550432 0.038125902 8.899513 0.54567033 0.8330768 0.09070263 0 -0.081687436 -0.054842643 0.99514794 0 0 0 0 1 0.83566475 -0.5476094 0.042289384 8.899513 0.5436147 0.8356422 0.078646235 0 -0.07840621 -0.04273276 0.99600524 0 0 0 0 1 0.83692944 -0.5451821 0.048224732 8.899513 0.5418875 0.8377867 0.06686811 0 -0.07685734 -0.02983151 0.99659574 0 0 0 0 1 0.837709 -0.5432174 0.05620018 8.899513 0.5405679 0.8394276 0.056105003 0 -0.0776532 -0.016619653 0.9968419 0 0 0 0 1 0.83797914 -0.5417807 0.06530371 8.899513 0.53977406 0.84051067 0.046751786 0 -0.08021769 -0.0039277673 0.9967696 0 0 0 0 1 0.8377681 -0.54095995 0.07420918 8.899513 0.5396354 0.8410131 0.03860834 0 -0.08329646 0.007701068 0.99649507 0 0 0 0 1 0.83731973 -0.54057044 0.08172678 8.899513 0.53998464 0.84110284 0.031024225 0 -0.08551141 0.018154014 0.9961718 0 0 0 0 1 0.836903 -0.54037416 0.08711588 8.899513 0.5405407 0.8409836 0.023711704 0 -0.08607622 0.027245283 0.99591595 0 0 0 0 1 0.8365093 -0.540364 0.090878576 8.899513 0.54124796 0.84069604 0.016757976 0 -0.08545667 0.03516964 0.995721 0 0 0 0 1 0.8361086 -0.5405152 0.09362541 8.899513 0.54205894 0.84027755 0.010281976 0 -0.0842289 0.042153645 0.9955544 0 0 0 0 1 0.8361086 -0.5405152 0.09362541 8.899513 0.54205894 0.84027755 0.010281976 0 -0.0842289 0.042153645 0.9955544 0 0 0 0 1</float_array>
        <technique_common>
          <accessor source="#Motion_7_RArm_transform_pose_array_id" count="16" stride="16">
            <param name="TRANSFORM" type="float4x4" />
          </accessor>
        </technique_common>
      </source>
      <sampler id="Motion_7_RArm_transform_samp_id">
        <input semantic="INPUT" source="#Motion_7_RArm_transform_frame_id" />
        <input semantic="INTERPOLATION" source="#Motion_7_RArm_transform_interp_id" />
        <input semantic="OUTPUT" source="#Motion_7_RArm_transform_pose_id" />
      </sampler>
      <channel source="#Motion_7_RArm_transform_samp_id" target="RArm_bone_id/transform" />
    </animation>
    <animation id="Motion_7_RForeArm_transform_id" name="Motion_7_RForeArm_transform">
      <source id="Motion_7_RForeArm_transform_frame_id" name="Motion_7_RForeArm_transform_frame">
        <float_array id="Motion_7_RForeArm_transform_frame_array_id" count="16">0 0.033333335 0.06666667 0.1 0.13333334 0.16666667 0.2 0.23333333 0.26666668 0.3 0.33333334 0.36666667 0.4 0.43333334 0.46666667 0.5</float_array>
        <technique_common>
          <accessor source="#Motion_7_RForeArm_transform_frame_array_id" count="16" stride="1">
            <param name="TIME" type="float" />
          </accessor>
        </technique_common>
      </source>
      <source id="Motion_7_RForeArm_transform_interp_id" name="Motion_7_RForeArm_transform_interp">
        <Name_array id="Motion_7_RForeArm_transform_interp_array_id" count="16">LINEAR LINEAR LINEAR LINEAR LINEAR LINEAR LINEAR LINEAR LINEAR LINEAR LINEAR LINEAR LINEAR LINEAR LINEAR LINEAR</Name_array>
        <technique_common>
          <accessor source="#Motion_7_RForeArm_transform_interp_array_id" count="16" stride="1">
            <param name="INTERPOLATION" type="Name" />
          </accessor>
        </technique_common>
      </source>
      <source id="Motion_7_RForeArm_transform_pose_id" name="Motion_7_RForeArm_transform_pose">
        <float_array id="Motion_7_RForeArm_transform_pose_array_id" count="256">0.9886803 -1.7484555E-07 -0.15003757 24.9707 1.7286635E-07 1 -2.6233403E-08 0 0.15003757 0 0.9886803 0 0 0 0 1 0.9887977 0 -0.1492617 24.9707 0 1 0 0 0.1492617 0 0.9887977 0 0 0 0 1 0.98897016 -1.7484555E-07 -0.14811498 24.9707 1.7291703E-07 1 -2.5897245E-08 0 0.14811498 0 0.98897016 0 0 0 0 1 0.9891781 -1.7484555E-07 -0.14671965 24.9707 1.729534E-07 1 -2.5653279E-08 0 0.14671965 -8.881784E-16 0.9891781 0 0 0 0 1 0.9894026 -1.7484554E-07 -0.14519802 24.9707 1.7299264E-07 1 -2.5387228E-08 0 0.14519802 0 0.9894026 0 0 0 0 1 0.9896253 0 -0.14367251 24.9707 0 1 0 0 0.14367251 0 0.9896253 0 0 0 0 1 0.9898285 0 -0.14226563 24.9707 0 1 0 0 0.14226563 0 0.9898285 0 0 0 0 1 0.98999536 0 -0.14110005 24.9707 0 1 0 0 0.14110005 0 0.98999536 0 0 0 0 1 0.99010926 -1.7484555E-07 -0.14029838 24.9707 1.731162E-07 1 -2.453055E-08 0 0.14029838 8.881784E-16 0.99010926 0 0 0 0 1 0.99015385 -1.7484554E-07 -0.13998334 24.9707 1.7312398E-07 1 -2.4475465E-08 0 0.13998334 8.881784E-16 0.99015385 0 0 0 0 1 0.99011225 0 -0.14027756 24.9707 0 1 0 0 0.14027756 0 0.99011225 0 0 0 0 1 0.98996633 0 -0.14130346 24.9707 0 1 0 0 0.14130346 0 0.98996633 0 0 0 0 1 0.9896962 0 -0.14318328 24.9707 0 1 0 0 0.14318328 0 0.9896962 0 0 0 0 1 0.98927885 -1.7484555E-07 -0.14603871 24.9707 1.72971E-07 1 -2.553422E-08 0 0.14603871 8.881784E-16 0.98927885 0 0 0 0 1 0.988725 -1.7484557E-07 -0.1497425 24.9707 1.7287418E-07 1 -2.618181E-08 0 0.1497425 0 0.988725 0 0 0 0 1 0.988725 -1.7484557E-07 -0.1497425 24.9707 1.7287418E-07 1 -2.618181E-08 0 0.1497425 0 0.988725 0 0 0 0 1</float_array>
        <technique_common>
          <accessor source="#Motion_7_RForeArm_transform_pose_array_id" count="16" stride="16">
            <param name="TRANSFORM" type="float4x4" />
          </accessor>
        </technique_common>
      </source>
      <sampler id="Motion_7_RForeArm_transform_samp_id">
        <input semantic="INPUT" source="#Motion_7_RForeArm_transform_frame_id" />
        <input semantic="INTERPOLATION" source="#Motion_7_RForeArm_transform_interp_id" />
        <input semantic="OUTPUT" source="#Motion_7_RForeArm_transform_pose_id" />
      </sampler>
      <channel source="#Motion_7_RForeArm_transform_samp_id" target="RForeArm_bone_id/transform" />
    </animation>
    <animation id="Motion_7_RHand_transform_id" name="Motion_7_RHand_transform">
      <source id="Motion_7_RHand_transform_frame_id" name="Motion_7_RHand_transform_frame">
        <float_array id="Motion_7_RHand_transform_frame_array_id" count="16">0 0.033333335 0.06666667 0.1 0.13333334 0.16666667 0.2 0.23333333 0.26666668 0.3 0.33333334 0.36666667 0.4 0.43333334 0.46666667 0.5</float_array>
        <technique_common>
          <accessor source="#Motion_7_RHand_transform_frame_array_id" count="16" stride="1">
            <param name="TIME" type="float" />
          </accessor>
        </technique_common>
      </source>
      <source id="Motion_7_RHand_transform_interp_id" name="Motion_7_RHand_transform_interp">
        <Name_array id="Motion_7_RHand_transform_interp_array_id" count="16">LINEAR LINEAR LINEAR LINEAR LINEAR LINEAR LINEAR LINEAR LINEAR LINEAR LINEAR LINEAR LINEAR LINEAR LINEAR LINEAR</Name_array>
        <technique_common>
          <accessor source="#Motion_7_RHand_transform_interp_array_id" count="16" stride="1">
            <param name="INTERPOLATION" type="Name" />
          </accessor>
        </technique_common>
      </source>
      <source id="Motion_7_RHand_transform_pose_id" name="Motion_7_RHand_transform_pose">
        <float_array id="Motion_7_RHand_transform_pose_array_id" count="256">0.9984985 -0.03864541 0.038822982 24.970798 0.04287532 0.9924632 -0.11479788 0 -0.034093972 0.11629007 0.99262995 0 0 0 0 1 0.9984299 -0.03840228 0.040780522 24.970798 0.04285843 0.99247426 -0.11470822 0 -0.03606856 0.1162759 0.9925618 0 0 0 0 1 0.99829924 -0.037968732 0.044238262 24.970798 0.042823985 0.9924943 -0.114547946 0 -0.03955698 0.11624759 0.99243224 0 0 0 0 1 0.99809253 -0.037370805 0.049139246 24.970798 0.04279088 0.99252117 -0.114327 0 -0.04449925 0.11621164 0.99222714 0 0 0 0 1 0.99779046 -0.03663453 0.05542615 24.970798 0.042777877 0.992553 -0.11405527 0 -0.05083503 0.11617427 0.9919271 0 0 0 0 1 0.9973691 -0.035785884 0.063041136 24.970798 0.042803697 0.9925878 -0.11374243 0 -0.058503486 0.11614158 0.9915082 0 0 0 0 1 0.99680936 -0.0348578 0.071805455 24.970798 0.042880263 0.9926236 -0.11340046 0 -0.0673229 0.11611767 0.99095124 0 0 0 0 1 0.99613863 -0.033916004 0.08097842 24.970798 0.042987898 0.9926585 -0.11305355 0 -0.076549605 0.1160981 0.9902835 0 0 0 0 1 0.99542433 -0.03303549 0.08966054 24.970798 0.043098602 0.99269056 -0.11272939 0 -0.085281104 0.11607783 0.98957217 0 0 0 0 1 0.9947648 -0.032291103 0.09695484 24.970798 0.04318517 0.99271786 -0.11245583 0 -0.09261748 0.11605412 0.98891526 0 0 0 0 1 0.99428076 -0.031757582 0.10196682 24.970798 0.04322103 0.99273837 -0.112260714 0 -0.09766125 0.116025776 0.98843324 0 0 0 0 1 0.99409866 -0.031509545 0.10380294 24.970798 0.043179702 0.9927502 -0.11217192 0 -0.09951591 0.11599213 0.9882522 0 0 0 0 1 0.9942798 -0.0315947 0.102026895 24.970798 0.043060094 0.9927515 -0.112206645 0 -0.097742215 0.11595809 0.9884332 0 0 0 0 1 0.9947509 -0.032002576 0.097192846 24.970798 0.042916067 0.9927404 -0.11235959 0 -0.09289148 0.115940936 0.98890287 0 0 0 0 1 0.99541396 -0.03272089 0.08989128 24.970798 0.042802844 0.9927152 -0.11262522 0 -0.08555124 0.115956314 0.9895631 0 0 0 0 1 0.99541396 -0.03272089 0.08989128 24.970798 0.042802844 0.9927152 -0.11262522 0 -0.08555124 0.115956314 0.9895631 0 0 0 0 1</float_array>
        <technique_common>
          <accessor source="#Motion_7_RHand_transform_pose_array_id" count="16" stride="16">
            <param name="TRANSFORM" type="float4x4" />
          </accessor>
        </technique_common>
      </source>
      <sampler id="Motion_7_RHand_transform_samp_id">
        <input semantic="INPUT" source="#Motion_7_RHand_transform_frame_id" />
        <input semantic="INTERPOLATION" source="#Motion_7_RHand_transform_interp_id" />
        <input semantic="OUTPUT" source="#Motion_7_RHand_transform_pose_id" />
      </sampler>
      <channel source="#Motion_7_RHand_transform_samp_id" target="RHand_bone_id/transform" />
    </animation>
    <animation id="Motion_7_LShoulder_transform_id" name="Motion_7_LShoulder_transform">
      <source id="Motion_7_LShoulder_transform_frame_id" name="Motion_7_LShoulder_transform_frame">
        <float_array id="Motion_7_LShoulder_transform_frame_array_id" count="16">0 0.033333335 0.06666667 0.1 0.13333334 0.16666667 0.2 0.23333333 0.26666668 0.3 0.33333334 0.36666667 0.4 0.43333334 0.46666667 0.5</float_array>
        <technique_common>
          <accessor source="#Motion_7_LShoulder_transform_frame_array_id" count="16" stride="1">
            <param name="TIME" type="float" />
          </accessor>
        </technique_common>
      </source>
      <source id="Motion_7_LShoulder_transform_interp_id" name="Motion_7_LShoulder_transform_interp">
        <Name_array id="Motion_7_LShoulder_transform_interp_array_id" count="16">LINEAR LINEAR LINEAR LINEAR LINEAR LINEAR LINEAR LINEAR LINEAR LINEAR LINEAR LINEAR LINEAR LINEAR LINEAR LINEAR</Name_array>
        <technique_common>
          <accessor source="#Motion_7_LShoulder_transform_interp_array_id" count="16" stride="1">
            <param name="INTERPOLATION" type="Name" />
          </accessor>
        </technique_common>
      </source>
      <source id="Motion_7_LShoulder_transform_pose_id" name="Motion_7_LShoulder_transform_pose">
        <float_array id="Motion_7_LShoulder_transform_pose_array_id" count="256">-0.35461068 0.8528812 -0.38320374 15.41871 -0.7406453 -0.5063703 -0.44162643 -4.285372 -0.5706978 0.12721266 0.8112466 -0.220198 0 0 0 1 -0.35454834 0.853876 -0.38103986 15.41871 -0.74395645 -0.50446534 -0.43822783 -4.285372 -0.5664136 0.12810417 0.81410384 -0.220198 0 0 0 1 -0.35446703 0.8565484 -0.37507066 15.41871 -0.75206983 -0.49951112 -0.42997628 -4.285372 -0.55564743 0.12966692 0.8212444 -0.220198 0 0 0 1 -0.3539958 0.8610231 -0.36513844 15.41871 -0.7630449 -0.49164653 -0.41957855 -4.285372 -0.5407859 0.13008793 0.83104014 -0.220198 0 0 0 1 -0.3529644 0.86710536 -0.3514892 15.41871 -0.77466 -0.48150742 -0.40994242 -4.285372 -0.52470785 0.1275895 0.8416666 -0.220198 0 0 0 1 -0.35168695 0.87376446 -0.33593476 15.41871 -0.78647286 -0.47041965 -0.40020752 -4.285372 -0.5077173 0.12345582 0.8526323 -0.220198 0 0 0 1 -0.35017097 0.88038635 -0.31984395 15.41871 -0.79852736 -0.45906985 -0.3893701 -4.285372 -0.48962682 0.11905798 0.8637655 -0.220198 0 0 0 1 -0.34873784 0.88663745 -0.30373642 15.41871 -0.8097367 -0.44822538 -0.37870872 -4.285372 -0.47191975 0.11387648 0.8742562 -0.220198 0 0 0 1 -0.34710693 0.8924397 -0.2882146 15.41871 -0.8190719 -0.4381646 -0.3703142 -4.285372 -0.45676866 0.10752979 0.88306266 -0.220198 0 0 0 1 -0.34513605 0.8976677 -0.27399662 15.41871 -0.8259124 -0.42915392 -0.36564463 -4.285372 -0.44581398 0.100100115 0.88951105 -0.220198 0 0 0 1 -0.34348047 0.90170324 -0.2625882 15.41871 -0.8306787 -0.42213762 -0.36300534 -4.285372 -0.4381714 0.09344119 0.8940216 -0.220198 0 0 0 1 -0.34242642 0.9041765 -0.25536036 15.41871 -0.8337413 -0.41772854 -0.3610791 -4.285372 -0.4331506 0.08926146 0.8968907 -0.220198 0 0 0 1 -0.34182334 0.9053615 -0.25194722 15.41871 -0.83518726 -0.41557312 -0.36022374 -4.285372 -0.4308352 0.0872902 0.898199 -0.220198 0 0 0 1 -0.34176302 0.9055768 -0.25125432 15.41871 -0.83547354 -0.41518962 -0.36000216 -4.285372 -0.43032777 0.08688089 0.8984819 -0.220198 0 0 0 1 -0.3417827 0.90569305 -0.25080797 15.41871 -0.8345015 -0.4152223 -0.36221236 -4.285372 -0.43219426 0.085501686 0.897718 -0.220198 0 0 0 1 -0.3417827 0.90569305 -0.25080797 15.41871 -0.8345015 -0.4152223 -0.36221236 -4.285372 -0.43219426 0.085501686 0.897718 -0.220198 0 0 0 1</float_array>
        <technique_common>
          <accessor source="#Motion_7_LShoulder_transform_pose_array_id" count="16" stride="16">
            <param name="TRANSFORM" type="float4x4" />
          </accessor>
        </technique_common>
      </source>
      <sampler id="Motion_7_LShoulder_transform_samp_id">
        <input semantic="INPUT" source="#Motion_7_LShoulder_transform_frame_id" />
        <input semantic="INTERPOLATION" source="#Motion_7_LShoulder_transform_interp_id" />
        <input semantic="OUTPUT" source="#Motion_7_LShoulder_transform_pose_id" />
      </sampler>
      <channel source="#Motion_7_LShoulder_transform_samp_id" target="LShoulder_bone_id/transform" />
    </animation>
    <animation id="Motion_7_LArm_transform_id" name="Motion_7_LArm_transform">
      <source id="Motion_7_LArm_transform_frame_id" name="Motion_7_LArm_transform_frame">
        <float_array id="Motion_7_LArm_transform_frame_array_id" count="16">0 0.033333335 0.06666667 0.1 0.13333334 0.16666667 0.2 0.23333333 0.26666668 0.3 0.33333334 0.36666667 0.4 0.43333334 0.46666667 0.5</float_array>
        <technique_common>
          <accessor source="#Motion_7_LArm_transform_frame_array_id" count="16" stride="1">
            <param name="TIME" type="float" />
          </accessor>
        </technique_common>
      </source>
      <source id="Motion_7_LArm_transform_interp_id" name="Motion_7_LArm_transform_interp">
        <Name_array id="Motion_7_LArm_transform_interp_array_id" count="16">LINEAR LINEAR LINEAR LINEAR LINEAR LINEAR LINEAR LINEAR LINEAR LINEAR LINEAR LINEAR LINEAR LINEAR LINEAR LINEAR</Name_array>
        <technique_common>
          <accessor source="#Motion_7_LArm_transform_interp_array_id" count="16" stride="1">
            <param name="INTERPOLATION" type="Name" />
          </accessor>
        </technique_common>
      </source>
      <source id="Motion_7_LArm_transform_pose_id" name="Motion_7_LArm_transform_pose">
        <float_array id="Motion_7_LArm_transform_pose_array_id" count="256">0.9742283 0.014305741 -0.2251099 8.899508 -0.2253225 0.107890904 -0.968292 0 0.010435171 0.9940598 0.10833377 0 0 0 0 1 0.97381234 0.02071035 -0.22640806 8.899508 -0.22731887 0.10602981 -0.968031 0 0.003957756 0.99414736 0.107961 0 0 0 0 1 0.97221863 0.03664732 -0.23118812 8.899508 -0.23376632 0.101329505 -0.9669982 0 -0.012011729 0.9941777 0.10708135 0 0 0 0 1 0.969603 0.058063753 -0.2376943 8.899508 -0.2423068 0.092785835 -0.96575266 0 -0.034020565 0.9939917 0.10403466 0 0 0 0 1 0.96624386 0.080992565 -0.24456704 8.899508 -0.2508998 0.080275774 -0.96467876 0 -0.058498986 0.99347675 0.09788698 0 0 0 0 1 0.9619951 0.10495125 -0.25209242 8.899508 -0.25958788 0.06502235 -0.963528 0 -0.08473183 0.9923493 0.08979523 0 0 0 0 1 0.95692873 0.12947795 -0.25985152 8.899508 -0.26785752 0.04851848 -0.9622361 0 -0.11198078 0.99039453 0.08111036 0 0 0 0 1 0.9513777 0.15294756 -0.26737142 8.899508 -0.27509022 0.031354666 -0.960907 0 -0.13858505 0.9877367 0.07190448 0 0 0 0 1 0.9460374 0.17332304 -0.2738107 8.899508 -0.28030965 0.013712525 -0.95981175 0 -0.16260283 0.98476964 0.061556697 0 0 0 0 1 0.94159186 0.1891581 -0.27861086 8.899508 -0.28309637 -0.0034382343 -0.95908535 0 -0.18237668 0.9819406 0.05031258 0 0 0 0 1 0.938448 0.20031966 -0.2814025 8.899508 -0.28356194 -0.018440366 -0.9587766 0 -0.19725098 0.97955704 0.039497733 0 0 0 0 1 0.9364738 0.20793195 -0.2824556 8.899508 -0.28252095 -0.030021787 -0.95879126 0 -0.20784315 0.9776825 0.03063047 0 0 0 0 1 0.9355526 0.21245645 -0.28214115 8.899508 -0.28064668 -0.037807107 -0.95906633 0 -0.21442673 0.97643894 0.02425468 0 0 0 0 1 0.93552697 0.21422663 -0.28088483 8.899508 -0.2784899 -0.04192245 -0.95952386 0 -0.2173309 0.975884 0.0204404 0 0 0 0 1 0.93637764 0.212715 -0.27919388 8.899508 -0.27599135 -0.045227766 -0.9600954 0 -0.21685404 0.97606695 0.016357183 0 0 0 0 1 0.93637764 0.212715 -0.27919388 8.899508 -0.27599135 -0.045227766 -0.9600954 0 -0.21685404 0.97606695 0.016357183 0 0 0 0 1</float_array>
        <technique_common>
          <accessor source="#Motion_7_LArm_transform_pose_array_id" count="16" stride="16">
            <param name="TRANSFORM" type="float4x4" />
          </accessor>
        </technique_common>
      </source>
      <sampler id="Motion_7_LArm_transform_samp_id">
        <input semantic="INPUT" source="#Motion_7_LArm_transform_frame_id" />
        <input semantic="INTERPOLATION" source="#Motion_7_LArm_transform_interp_id" />
        <input semantic="OUTPUT" source="#Motion_7_LArm_transform_pose_id" />
      </sampler>
      <channel source="#Motion_7_LArm_transform_samp_id" target="LArm_bone_id/transform" />
    </animation>
    <animation id="Motion_7_LForeArm_transform_id" name="Motion_7_LForeArm_transform">
      <source id="Motion_7_LForeArm_transform_frame_id" name="Motion_7_LForeArm_transform_frame">
        <float_array id="Motion_7_LForeArm_transform_frame_array_id" count="16">0 0.033333335 0.06666667 0.1 0.13333334 0.16666667 0.2 0.23333333 0.26666668 0.3 0.33333334 0.36666667 0.4 0.43333334 0.46666667 0.5</float_array>
        <technique_common>
          <accessor source="#Motion_7_LForeArm_transform_frame_array_id" count="16" stride="1">
            <param name="TIME" type="float" />
          </accessor>
        </technique_common>
      </source>
      <source id="Motion_7_LForeArm_transform_interp_id" name="Motion_7_LForeArm_transform_interp">
        <Name_array id="Motion_7_LForeArm_transform_interp_array_id" count="16">LINEAR LINEAR LINEAR LINEAR LINEAR LINEAR LINEAR LINEAR LINEAR LINEAR LINEAR LINEAR LINEAR LINEAR LINEAR LINEAR</Name_array>
        <technique_common>
          <accessor source="#Motion_7_LForeArm_transform_interp_array_id" count="16" stride="1">
            <param name="INTERPOLATION" type="Name" />
          </accessor>
        </technique_common>
      </source>
      <source id="Motion_7_LForeArm_transform_pose_id" name="Motion_7_LForeArm_transform_pose">
        <float_array id="Motion_7_LForeArm_transform_pose_array_id" count="256">0.13186526 -0.0025092186 -0.9912646 24.970732 0.0017625089 0.9999958 -0.0022968585 0 0.99126613 -0.0014442363 0.13186914 0 0 0 0 1 0.13189483 -0.0025067388 -0.9912606 24.970732 0.0017600388 0.9999958 -0.0022946422 0 0.99126214 -0.0014420055 0.13189864 0 0 0 0 1 0.13261408 -0.00250485 -0.9911647 24.970732 0.0017583922 0.9999958 -0.002291902 0 0.99116623 -0.0014389176 0.13261789 0 0 0 0 1 0.133838 -0.0025034824 -0.99100006 24.970732 0.0017574371 0.9999958 -0.0022888596 0 0.9910016 -0.0014352838 0.13384181 0 0 0 0 1 0.13538063 -0.002502567 -0.9907906 24.970732 0.0017570422 0.9999958 -0.0022857375 0 0.99079216 -0.0014314163 0.13538444 0 0 0 0 1 0.13705713 -0.002502036 -0.9905601 24.970732 0.0017570786 0.9999958 -0.0022827548 0 0.99056166 -0.0014276238 0.13706094 0 0 0 0 1 0.13868225 -0.0025018246 -0.99033374 24.970732 0.001757418 0.9999958 -0.002280132 0 0.9903353 -0.0014242165 0.13868606 0 0 0 0 1 0.14007062 -0.0025018714 -0.9901384 24.970732 0.0017579361 0.9999959 -0.0022780916 0 0.99013996 -0.0014215062 0.14007443 0 0 0 0 1 0.14103758 -0.0025021129 -0.9900011 24.970732 0.0017585063 0.9999959 -0.002276853 0 0.99000263 -0.0014198013 0.1410414 0 0 0 0 1 0.14139867 -0.0025024887 -0.9899495 24.970732 0.001759005 0.9999959 -0.0022766388 0 0.9899511 -0.0014194129 0.14140248 0 0 0 0 1 0.1409682 -0.002502936 -0.990011 24.970732 0.001759306 0.9999959 -0.0022776711 0 0.9900125 -0.0014206528 0.14097202 0 0 0 0 1 0.13956153 -0.002503387 -0.99021024 24.970732 0.0017592788 0.9999958 -0.0022801713 0 0.9902118 -0.0014238316 0.13956535 0 0 0 0 1 0.13741559 -0.0025042053 -0.9905103 24.970732 0.0017593693 0.9999958 -0.0022841059 0 0.99051183 -0.0014288019 0.1374194 0 0 0 0 1 0.1349675 -0.0025059613 -0.99084693 24.970732 0.0017602973 0.9999958 -0.0022893224 0 0.9908485 -0.0014352009 0.13497132 0 0 0 0 1 0.1323328 -0.0025088915 -0.99120224 24.970732 0.0017623391 0.9999958 -0.0022958643 0 0.9912038 -0.001443016 0.13233668 0 0 0 0 1 0.1323328 -0.0025088915 -0.99120224 24.970732 0.0017623391 0.9999958 -0.0022958643 0 0.9912038 -0.001443016 0.13233668 0 0 0 0 1</float_array>
        <technique_common>
          <accessor source="#Motion_7_LForeArm_transform_pose_array_id" count="16" stride="16">
            <param name="TRANSFORM" type="float4x4" />
          </accessor>
        </technique_common>
      </source>
      <sampler id="Motion_7_LForeArm_transform_samp_id">
        <input semantic="INPUT" source="#Motion_7_LForeArm_transform_frame_id" />
        <input semantic="INTERPOLATION" source="#Motion_7_LForeArm_transform_interp_id" />
        <input semantic="OUTPUT" source="#Motion_7_LForeArm_transform_pose_id" />
      </sampler>
      <channel source="#Motion_7_LForeArm_transform_samp_id" target="LForeArm_bone_id/transform" />
    </animation>
    <animation id="Motion_7_LHand_transform_id" name="Motion_7_LHand_transform">
      <source id="Motion_7_LHand_transform_frame_id" name="Motion_7_LHand_transform_frame">
        <float_array id="Motion_7_LHand_transform_frame_array_id" count="16">0 0.033333335 0.06666667 0.1 0.13333334 0.16666667 0.2 0.23333333 0.26666668 0.3 0.33333334 0.36666667 0.4 0.43333334 0.46666667 0.5</float_array>
        <technique_common>
          <accessor source="#Motion_7_LHand_transform_frame_array_id" count="16" stride="1">
            <param name="TIME" type="float" />
          </accessor>
        </technique_common>
      </source>
      <source id="Motion_7_LHand_transform_interp_id" name="Motion_7_LHand_transform_interp">
        <Name_array id="Motion_7_LHand_transform_interp_array_id" count="16">LINEAR LINEAR LINEAR LINEAR LINEAR LINEAR LINEAR LINEAR LINEAR LINEAR LINEAR LINEAR LINEAR LINEAR LINEAR LINEAR</Name_array>
        <technique_common>
          <accessor source="#Motion_7_LHand_transform_interp_array_id" count="16" stride="1">
            <param name="INTERPOLATION" type="Name" />
          </accessor>
        </technique_common>
      </source>
      <source id="Motion_7_LHand_transform_pose_id" name="Motion_7_LHand_transform_pose">
        <float_array id="Motion_7_LHand_transform_pose_array_id" count="256">0.6518127 -0.53672135 -0.5357896 24.970737 0.7509695 0.35827023 0.5546956 0 -0.10575953 -0.76391923 0.6365864 0 0 0 0 1 0.6514225 -0.53743887 -0.5355447 24.970737 0.7513033 0.3585077 0.5540898 0 -0.10579254 -0.76330304 0.6373197 0 0 0 0 1 0.6508087 -0.5386658 -0.5350581 24.970737 0.7519281 0.3597064 0.552463 0 -0.10512911 -0.76187295 0.63913804 0 0 0 0 1 0.6500222 -0.54028213 -0.53438413 24.970737 0.7527777 0.361655 0.55002856 0 -0.1039079 -0.7598032 0.6417961 0 0 0 0 1 0.64911366 -0.54216844 -0.5335773 24.970737 0.75378567 0.36414224 0.5469987 0 -0.102267414 -0.7572673 0.64504856 0 0 0 0 1 0.6481339 -0.5442056 -0.53269386 24.970737 0.7548861 0.36695874 0.54358834 0 -0.100347206 -0.7544412 0.6486516 0 0 0 0 1 0.6471418 -0.54622304 -0.5318345 24.970737 0.75599873 0.3697915 0.5401113 0 -0.09835334 -0.7515948 0.6522515 0 0 0 0 1 0.646196 -0.548055 -0.53109926 24.970737 0.75704736 0.37234342 0.53687954 0 -0.09648822 -0.74899673 0.6555104 0 0 0 0 1 0.64534587 -0.54959047 -0.53054595 24.970737 0.75797427 0.3744337 0.5341109 0 -0.09488796 -0.7468264 0.6582147 0 0 0 0 1 0.6446409 -0.55071837 -0.5302334 24.970737 0.75872284 0.3758843 0.53202504 0 -0.093689576 -0.7452653 0.6601529 0 0 0 0 1 0.6441308 -0.55132717 -0.53022057 24.970737 0.759237 0.37651753 0.5308424 0 -0.09303051 -0.74449503 0.6611146 0 0 0 0 1 0.6438313 -0.55151683 -0.5303871 24.970737 0.7595219 0.37658912 0.53038394 0 -0.092777625 -0.74431837 0.661349 0 0 0 0 1 0.6437414 -0.5514892 -0.53052497 24.970737 0.75961167 0.3765602 0.53027594 0 -0.092666835 -0.74435353 0.661325 0 0 0 0 1 0.6437759 -0.55137616 -0.5306005 24.970737 0.7595784 0.37645733 0.5303966 0 -0.09269965 -0.7444892 0.6611676 0 0 0 0 1 0.64381075 -0.5512736 -0.53066474 24.970737 0.7595364 0.37629724 0.5305702 0 -0.092801675 -0.744646 0.66097665 0 0 0 0 1 0.64381075 -0.5512736 -0.53066474 24.970737 0.7595364 0.37629724 0.5305702 0 -0.092801675 -0.744646 0.66097665 0 0 0 0 1</float_array>
        <technique_common>
          <accessor source="#Motion_7_LHand_transform_pose_array_id" count="16" stride="16">
            <param name="TRANSFORM" type="float4x4" />
          </accessor>
        </technique_common>
      </source>
      <sampler id="Motion_7_LHand_transform_samp_id">
        <input semantic="INPUT" source="#Motion_7_LHand_transform_frame_id" />
        <input semantic="INTERPOLATION" source="#Motion_7_LHand_transform_interp_id" />
        <input semantic="OUTPUT" source="#Motion_7_LHand_transform_pose_id" />
      </sampler>
      <channel source="#Motion_7_LHand_transform_samp_id" target="LHand_bone_id/transform" />
    </animation>
    <animation id="Motion_7_Neck_transform_id" name="Motion_7_Neck_transform">
      <source id="Motion_7_Neck_transform_frame_id" name="Motion_7_Neck_transform_frame">
        <float_array id="Motion_7_Neck_transform_frame_array_id" count="16">0 0.033333335 0.06666667 0.1 0.13333334 0.16666667 0.2 0.23333333 0.26666668 0.3 0.33333334 0.36666667 0.4 0.43333334 0.46666667 0.5</float_array>
        <technique_common>
          <accessor source="#Motion_7_Neck_transform_frame_array_id" count="16" stride="1">
            <param name="TIME" type="float" />
          </accessor>
        </technique_common>
      </source>
      <source id="Motion_7_Neck_transform_interp_id" name="Motion_7_Neck_transform_interp">
        <Name_array id="Motion_7_Neck_transform_interp_array_id" count="16">LINEAR LINEAR LINEAR LINEAR LINEAR LINEAR LINEAR LINEAR LINEAR LINEAR LINEAR LINEAR LINEAR LINEAR LINEAR LINEAR</Name_array>
        <technique_common>
          <accessor source="#Motion_7_Neck_transform_interp_array_id" count="16" stride="1">
            <param name="INTERPOLATION" type="Name" />
          </accessor>
        </technique_common>
      </source>
      <source id="Motion_7_Neck_transform_pose_id" name="Motion_7_Neck_transform_pose">
        <float_array id="Motion_7_Neck_transform_pose_array_id" count="256">0.81292737 0.04359716 -0.5807309 17.141743 -0.038823485 0.9990326 0.020653818 0 0.5810696 0.005755946 0.81383353 0 0 0 0 1 0.8123699 0.043591786 -0.5815109 17.141743 -0.038800556 0.99903286 0.02068615 0 0.5818502 0.0057581426 0.8132756 0 0 0 0 1 0.811486 0.04358345 -0.5827443 17.141743 -0.03876849 0.99903315 0.020731604 0 0.5830844 0.0057687103 0.81239104 0 0 0 0 1 0.8103641 0.04357298 -0.58430415 17.141743 -0.03873009 0.9990335 0.020786084 0 0.5846451 0.005785853 0.8112685 0 0 0 0 1 0.80909306 0.04356121 -0.58606386 17.141743 -0.03868817 0.99903387 0.0208455 0 0.58640575 0.0058077914 0.80999666 0 0 0 0 1 0.80776244 0.04354894 -0.5878973 17.141743 -0.038645566 0.9990343 0.02090577 0 0.58824 0.0058327303 0.80866534 0 0 0 0 1 0.80646306 0.04353702 -0.5896794 17.141743 -0.038605146 0.99903464 0.020962853 0 0.59002286 0.005858896 0.8073653 0 0 0 0 1 0.80550784 0.04352823 -0.5909842 17.141743 -0.038574487 0.99903494 0.02100592 0 0.59132826 0.005876484 0.80640954 0 0 0 0 1 0.8051236 0.04352463 -0.5915079 17.141743 -0.038559362 0.99903506 0.021026898 0 0.5918523 0.005878916 0.806025 0 0 0 0 1 0.8052708 0.04352586 -0.59130734 17.141743 -0.038559847 0.99903506 0.021025848 0 0.591652 0.0058692214 0.80617213 0 0 0 0 1 0.8059081 0.043531585 -0.5904381 17.141743 -0.038576018 0.99903494 0.021002796 0 0.59078264 0.0058504287 0.80680954 0 0 0 0 1 0.8069924 0.043541443 -0.5889545 17.141743 -0.038607877 0.99903464 0.020957729 0 0.5892984 0.0058255526 0.8078944 0 0 0 0 1 0.8084797 0.043555126 -0.58691007 17.141743 -0.038655438 0.9990342 0.020890627 0 0.58725315 0.005797619 0.80938256 0 0 0 0 1 0.81023043 0.043571427 -0.5844897 17.141743 -0.038716614 0.99903363 0.020804375 0 0.58483136 0.005773123 0.8111344 0 0 0 0 1 0.8120711 0.043588925 -0.5819284 17.141743 -0.038788613 0.999033 0.020703005 0 0.582268 0.0057598823 0.8129765 0 0 0 0 1 0.8120711 0.043588925 -0.5819284 17.141743 -0.038788613 0.999033 0.020703005 0 0.582268 0.0057598823 0.8129765 0 0 0 0 1</float_array>
        <technique_common>
          <accessor source="#Motion_7_Neck_transform_pose_array_id" count="16" stride="16">
            <param name="TRANSFORM" type="float4x4" />
          </accessor>
        </technique_common>
      </source>
      <sampler id="Motion_7_Neck_transform_samp_id">
        <input semantic="INPUT" source="#Motion_7_Neck_transform_frame_id" />
        <input semantic="INTERPOLATION" source="#Motion_7_Neck_transform_interp_id" />
        <input semantic="OUTPUT" source="#Motion_7_Neck_transform_pose_id" />
      </sampler>
      <channel source="#Motion_7_Neck_transform_samp_id" target="Neck_bone_id/transform" />
    </animation>
    <animation id="Motion_7_Head_transform_id" name="Motion_7_Head_transform">
      <source id="Motion_7_Head_transform_frame_id" name="Motion_7_Head_transform_frame">
        <float_array id="Motion_7_Head_transform_frame_array_id" count="16">0 0.033333335 0.06666667 0.1 0.13333334 0.16666667 0.2 0.23333333 0.26666668 0.3 0.33333334 0.36666667 0.4 0.43333334 0.46666667 0.5</float_array>
        <technique_common>
          <accessor source="#Motion_7_Head_transform_frame_array_id" count="16" stride="1">
            <param name="TIME" type="float" />
          </accessor>
        </technique_common>
      </source>
      <source id="Motion_7_Head_transform_interp_id" name="Motion_7_Head_transform_interp">
        <Name_array id="Motion_7_Head_transform_interp_array_id" count="16">LINEAR LINEAR LINEAR LINEAR LINEAR LINEAR LINEAR LINEAR LINEAR LINEAR LINEAR LINEAR LINEAR LINEAR LINEAR LINEAR</Name_array>
        <technique_common>
          <accessor source="#Motion_7_Head_transform_interp_array_id" count="16" stride="1">
            <param name="INTERPOLATION" type="Name" />
          </accessor>
        </technique_common>
      </source>
      <source id="Motion_7_Head_transform_pose_id" name="Motion_7_Head_transform_pose">
        <float_array id="Motion_7_Head_transform_pose_array_id" count="256">0.99588656 0.013039302 0.089665376 5.59379 -0.014525546 0.99976736 0.015942914 0 -0.08943663 -0.017179774 0.99584436 0 0 0 0 1 0.99552196 0.012606683 0.09368595 5.59379 -0.014162735 0.99977225 0.01596293 0 -0.09346337 -0.017218297 0.9954738 0 0 0 0 1 0.9951502 0.011920249 0.09764178 5.59379 -0.013544396 0.9997804 0.015987784 0 -0.09742977 -0.017232746 0.9950932 0 0 0 0 1 0.99476755 0.011073542 0.1015624 5.59379 -0.012759627 0.9997911 0.015966872 0 -0.10136438 -0.017179223 0.994701 0 0 0 0 1 0.9943698 0.010160425 0.10547735 5.59379 -0.011897112 0.9998036 0.015848905 0 -0.1052956 -0.017014548 0.9942954 0 0 0 0 1 0.99395275 0.009275106 0.10941617 5.59379 -0.011045125 0.9998176 0.015581962 0 -0.10925169 -0.016696248 0.9938739 0 0 0 0 1 0.993512 0.008512142 0.113408476 5.59379 -0.010291484 0.9998328 0.015113455 0 -0.113260865 -0.01618254 0.9934335 0 0 0 0 1 0.9930428 0.007966473 0.117483705 5.59379 -0.009723528 0.9998492 0.0143901585 0 -0.11735135 -0.0154324 0.9929705 0 0 0 0 1 0.9924981 0.0077309273 0.12201526 5.59379 -0.0094303265 0.9998663 0.013356425 0 -0.12189569 -0.014406871 0.9924384 0 0 0 0 1 0.99178445 0.007897721 0.12767637 5.59379 -0.0095011415 0.9998834 0.011954319 0 -0.12756708 -0.013069179 0.99174386 0 0 0 0 1 0.99081624 0.008563244 0.13494408 5.59379 -0.010020702 0.99989855 0.010124926 0 -0.13484368 -0.011384175 0.9908015 0 0 0 0 1 0.9895629 0.009696004 0.14377494 5.59379 -0.010960936 0.99990785 0.008008519 0 -0.14368404 -0.009500843 0.989578 0 0 0 0 1 0.98825794 0.011197325 0.15238382 5.59379 -0.012222959 0.9999085 0.005795476 0 -0.15230499 -0.007590007 0.9883044 0 0 0 0 1 0.9872501 0.013059197 0.15864012 5.59379 -0.013789555 0.9998988 0.0035039291 0 -0.1585783 -0.0056468314 0.98733026 0 0 0 0 1 0.98693067 0.015334465 0.160414 5.59379 -0.015585 0.9998785 0.0003036725 0 -0.16038986 -0.0027997564 0.98704976 0 0 0 0 1 0.98693067 0.015334465 0.160414 5.59379 -0.015585 0.9998785 0.0003036725 0 -0.16038986 -0.0027997564 0.98704976 0 0 0 0 1</float_array>
        <technique_common>
          <accessor source="#Motion_7_Head_transform_pose_array_id" count="16" stride="16">
            <param name="TRANSFORM" type="float4x4" />
          </accessor>
        </technique_common>
      </source>
      <sampler id="Motion_7_Head_transform_samp_id">
        <input semantic="INPUT" source="#Motion_7_Head_transform_frame_id" />
        <input semantic="INTERPOLATION" source="#Motion_7_Head_transform_interp_id" />
        <input semantic="OUTPUT" source="#Motion_7_Head_transform_pose_id" />
      </sampler>
      <channel source="#Motion_7_Head_transform_samp_id" target="Head_bone_id/transform" />
    </animation>
    <animation id="Motion_7_RHair_transform_id" name="Motion_7_RHair_transform">
      <source id="Motion_7_RHair_transform_frame_id" name="Motion_7_RHair_transform_frame">
        <float_array id="Motion_7_RHair_transform_frame_array_id" count="16">0 0.033333335 0.06666667 0.1 0.13333334 0.16666667 0.2 0.23333333 0.26666668 0.3 0.33333334 0.36666667 0.4 0.43333334 0.46666667 0.5</float_array>
        <technique_common>
          <accessor source="#Motion_7_RHair_transform_frame_array_id" count="16" stride="1">
            <param name="TIME" type="float" />
          </accessor>
        </technique_common>
      </source>
      <source id="Motion_7_RHair_transform_interp_id" name="Motion_7_RHair_transform_interp">
        <Name_array id="Motion_7_RHair_transform_interp_array_id" count="16">LINEAR LINEAR LINEAR LINEAR LINEAR LINEAR LINEAR LINEAR LINEAR LINEAR LINEAR LINEAR LINEAR LINEAR LINEAR LINEAR</Name_array>
        <technique_common>
          <accessor source="#Motion_7_RHair_transform_interp_array_id" count="16" stride="1">
            <param name="INTERPOLATION" type="Name" />
          </accessor>
        </technique_common>
      </source>
      <source id="Motion_7_RHair_transform_pose_id" name="Motion_7_RHair_transform_pose">
        <float_array id="Motion_7_RHair_transform_pose_array_id" count="256">-0.95543706 -0.26640427 0.12715842 23.655146 0.15798844 -0.097601414 0.98260564 18.4976 -0.2493595 0.9589072 0.13534057 3.221567 0 0 0 1 -0.9554838 -0.2643985 0.13093345 23.655146 0.16162582 -0.09778738 0.9819951 18.4976 -0.24683441 0.959443 0.13616818 3.221567 0 0 0 1 -0.9554422 -0.26227605 0.13543108 23.655146 0.16593452 -0.09778023 0.98127717 18.4976 -0.24412298 0.9600262 0.136944 3.221567 0 0 0 1 -0.95539117 -0.259961 0.14017148 23.655146 0.17044216 -0.097703695 0.98051184 18.4976 -0.2411996 0.9606635 0.13765353 3.221567 0 0 0 1 -0.95541763 -0.25738287 0.1446766 23.655146 0.17467827 -0.09767997 0.9797684 18.4976 -0.2380436 0.96135986 0.13828433 3.221567 0 0 0 1 -0.9556141 -0.2544767 0.14847054 23.655146 0.1781745 -0.09782827 0.97912383 18.4976 -0.2346396 0.96211815 0.13882726 3.221567 0 0 0 1 -0.9560766 -0.25118223 0.15107971 23.655146 0.18046457 -0.09826398 0.9786607 18.4976 -0.23097649 0.96293914 0.13927734 3.221567 0 0 0 1 -0.9569013 -0.24743964 0.15203112 23.655146 0.1810819 -0.09909785 0.9784625 18.4976 -0.22704446 0.9638222 0.13963377 3.221567 0 0 0 1 -0.958177 -0.24318722 0.15085316 23.655146 0.17956 -0.10043442 0.9786067 18.4976 -0.22283381 0.96476567 0.13990074 3.221567 0 0 0 1 -0.95994306 -0.23821579 0.14752312 23.655146 0.17583366 -0.10222089 0.9790984 18.4976 -0.21815674 0.965818 0.14001238 3.221567 0 0 0 1 -0.9620271 -0.23259252 0.14284468 23.655146 0.17067793 -0.10420561 0.9798012 18.4976 -0.21300921 0.9669757 0.13994694 3.221567 0 0 0 1 -0.96424747 -0.2265416 0.13749775 23.655146 0.16475756 -0.10609627 0.98061126 18.4976 -0.20756125 0.96820575 0.13962752 3.221567 0 0 0 1 -0.96651435 -0.2200613 0.13199832 23.655146 0.15850356 -0.1074245 0.9814972 18.4976 -0.20180969 0.96955305 0.13870764 3.221567 0 0 0 1 -0.9687474 -0.21315813 0.12685482 23.655146 0.15235218 -0.1077317 0.982437 18.4976 -0.19574817 0.9710599 0.13683999 3.221567 0 0 0 1 -0.9708793 -0.20584273 0.12256591 23.655146 0.14674345 -0.1065706 0.9834171 18.4976 -0.18936734 0.9727649 0.13367307 3.221567 0 0 0 1 -0.9708793 -0.20584273 0.12256591 23.655146 0.14674345 -0.1065706 0.9834171 18.4976 -0.18936734 0.9727649 0.13367307 3.221567 0 0 0 1</float_array>
        <technique_common>
          <accessor source="#Motion_7_RHair_transform_pose_array_id" count="16" stride="16">
            <param name="TRANSFORM" type="float4x4" />
          </accessor>
        </technique_common>
      </source>
      <sampler id="Motion_7_RHair_transform_samp_id">
        <input semantic="INPUT" source="#Motion_7_RHair_transform_frame_id" />
        <input semantic="INTERPOLATION" source="#Motion_7_RHair_transform_interp_id" />
        <input semantic="OUTPUT" source="#Motion_7_RHair_transform_pose_id" />
      </sampler>
      <channel source="#Motion_7_RHair_transform_samp_id" target="RHair_bone_id/transform" />
    </animation>
    <animation id="Motion_7_LHair_transform_id" name="Motion_7_LHair_transform">
      <source id="Motion_7_LHair_transform_frame_id" name="Motion_7_LHair_transform_frame">
        <float_array id="Motion_7_LHair_transform_frame_array_id" count="16">0 0.033333335 0.06666667 0.1 0.13333334 0.16666667 0.2 0.23333333 0.26666668 0.3 0.33333334 0.36666667 0.4 0.43333334 0.46666667 0.5</float_array>
        <technique_common>
          <accessor source="#Motion_7_LHair_transform_frame_array_id" count="16" stride="1">
            <param name="TIME" type="float" />
          </accessor>
        </technique_common>
      </source>
      <source id="Motion_7_LHair_transform_interp_id" name="Motion_7_LHair_transform_interp">
        <Name_array id="Motion_7_LHair_transform_interp_array_id" count="16">LINEAR LINEAR LINEAR LINEAR LINEAR LINEAR LINEAR LINEAR LINEAR LINEAR LINEAR LINEAR LINEAR LINEAR LINEAR LINEAR</Name_array>
        <technique_common>
          <accessor source="#Motion_7_LHair_transform_interp_array_id" count="16" stride="1">
            <param name="INTERPOLATION" type="Name" />
          </accessor>
        </technique_common>
      </source>
      <source id="Motion_7_LHair_transform_pose_id" name="Motion_7_LHair_transform_pose">
        <float_array id="Motion_7_LHair_transform_pose_array_id" count="256">-0.9534031 0.27046305 0.13368705 23.655027 -0.15490109 -0.058573842 -0.98619205 -18.497566 -0.25889796 -0.96094686 0.09773946 3.221565 0 0 0 1 -0.95321035 0.27018553 0.135607 23.655027 -0.1569219 -0.0588125 -0.9858582 -18.497566 -0.25838926 -0.9610102 0.098458886 3.221565 0 0 0 1 -0.95286834 0.26978177 0.13877799 23.655027 -0.16022302 -0.059054136 -0.98531264 -18.497566 -0.257624 -0.96110886 0.099496245 3.221565 0 0 0 1 -0.9524865 0.26900354 0.14285171 23.655027 -0.16442269 -0.059322476 -0.98460454 -18.497566 -0.25638777 -0.96131057 0.100734055 3.221565 0 0 0 1 -0.9521756 0.26760197 0.14748277 23.655027 -0.16914117 -0.059643388 -0.98378557 -18.497566 -0.25446656 -0.9616819 0.102053285 3.221565 0 0 0 1 -0.95201325 0.26562163 0.15203978 23.655027 -0.17373791 -0.060055017 -0.9829591 -18.497566 -0.25196445 -0.9622051 0.10332161 3.221565 0 0 0 1 -0.9520807 0.26318753 0.15580401 23.655027 -0.17749299 -0.06059718 -0.9822547 -18.497566 -0.24907589 -0.9628398 0.10440725 3.221565 0 0 0 1 -0.95250034 0.2601631 0.15829909 23.655027 -0.17990696 -0.061299443 -0.9817718 -18.497566 -0.24571717 -0.96361697 0.10519278 3.221565 0 0 0 1 -0.95339346 0.25640783 0.15904701 23.655027 -0.1804792 -0.06218779 -0.9816109 -18.497566 -0.24180195 -0.9645661 0.10556561 3.221565 0 0 0 1 -0.95478666 0.25199282 0.15773994 23.655027 -0.17893489 -0.06338632 -0.9818169 -18.497566 -0.23741224 -0.9656509 0.10561085 3.221565 0 0 0 1 -0.9565656 0.24705255 0.15474692 23.655027 -0.17567065 -0.06489062 -0.98230785 -18.497566 -0.23264006 -0.96682674 0.10547227 3.221565 0 0 0 1 -0.9586055 0.24154681 0.15076518 23.655027 -0.17133638 -0.0664314 -0.98297024 -18.497566 -0.22741777 -0.96811247 0.10506755 3.221565 0 0 0 1 -0.96080637 0.2355447 0.14618614 23.655027 -0.16631104 -0.0678606 -0.9837357 -18.497566 -0.22179344 -0.9694916 0.10437417 3.221565 0 0 0 1 -0.9630735 0.22911713 0.14140312 23.655027 -0.16097775 -0.06903112 -0.98454094 -18.497566 -0.21581395 -0.970948 0.103364885 3.221565 0 0 0 1 -0.965323 0.22233705 0.1368126 23.655027 -0.15572537 -0.069802046 -0.985331 -18.497566 -0.2095258 -0.97246784 0.102005124 3.221565 0 0 0 1 -0.965323 0.22233705 0.1368126 23.655027 -0.15572537 -0.069802046 -0.985331 -18.497566 -0.2095258 -0.97246784 0.102005124 3.221565 0 0 0 1</float_array>
        <technique_common>
          <accessor source="#Motion_7_LHair_transform_pose_array_id" count="16" stride="16">
            <param name="TRANSFORM" type="float4x4" />
          </accessor>
        </technique_common>
      </source>
      <sampler id="Motion_7_LHair_transform_samp_id">
        <input semantic="INPUT" source="#Motion_7_LHair_transform_frame_id" />
        <input semantic="INTERPOLATION" source="#Motion_7_LHair_transform_interp_id" />
        <input semantic="OUTPUT" source="#Motion_7_LHair_transform_pose_id" />
      </sampler>
      <channel source="#Motion_7_LHair_transform_samp_id" target="LHair_bone_id/transform" />
    </animation>
  </library_animations>
  <library_visual_scenes>
    <visual_scene id="tr0016_00_fi_00_clip_id" name="tr0016_00_fi_00_clip">
      <node id="tr0016_00_fi_bone_id" name="tr0016_00_fi" sid="tr0016_00_fi" type="JOINT">
        <matrix sid="transform">1 0 0 0 0 1 0 0 0 0 1 0 0 0 0 1</matrix>
        <node id="Origin_bone_id" name="Origin" sid="Origin" type="JOINT">
          <matrix sid="transform">1 0 0 0 0 1 0 0 0 0 1 0 0 0 0 1</matrix>
          <node id="Waist_bone_id" name="Waist" sid="Waist" type="JOINT">
            <matrix sid="transform">3.1391647E-07 -1 0 0 1 3.1391647E-07 0 96.82974 0 0 1 0 0 0 0 1</matrix>
            <node id="Spine2_bone_id" name="Spine2" sid="Spine2" type="JOINT">
              <matrix sid="transform">1 0 0 13.194138 0 1 0 0 0 0 1 0 0 0 0 1</matrix>
              <node id="Spine3_bone_id" name="Spine3" sid="Spine3" type="JOINT">
                <matrix sid="transform">0.9919065 0 0.12697035 13.19413 0 1 0 0 -0.12697035 0 0.9919065 0 0 0 0 1</matrix>
                <node id="Neck_bone_id" name="Neck" sid="Neck" type="JOINT">
                  <matrix sid="transform">0.9441987 0 -0.32937634 17.141743 0 1 0 0 0.32937634 0 0.9441987 0 0 0 0 1</matrix>
                  <node id="Head_bone_id" name="Head" sid="Head" type="JOINT">
                    <matrix sid="transform">0.9783777 0 0.2068263 5.59379 0 1 0 0 -0.2068263 0 0.9783777 0 0 0 0 1</matrix>
                    <node id="LHair_bone_id" name="LHair" sid="LHair" type="JOINT">
                      <matrix sid="transform">-0.9534029 0.26206163 0.14948809 23.655027 -0.15490164 3.6247735E-07 -0.9879299 -18.497566 -0.2588986 -0.9650511 0.040593434 3.221565 0 0 0 1</matrix>
                    </node>
                    <node id="RHair_bone_id" name="RHair" sid="RHair" type="JOINT">
                      <matrix sid="transform">-0.9534033 -0.26206088 0.14948684 23.655146 0.15490031 3.1319223E-07 0.9879301 18.4976 -0.25889787 0.96505135 0.040593013 3.221567 0 0 0 1</matrix>
                    </node>
                    <node id="Loc_Eye_bone_id" name="Loc_Eye" sid="Loc_Eye" type="JOINT">
                      <matrix sid="transform">3.1391647E-07 1 0 10.174804 -1 3.1391647E-07 0 0 0 0 1 13.689274 0 0 0 1</matrix>
                    </node>
                    <node id="Loc_Mouth_bone_id" name="Loc_Mouth" sid="Loc_Mouth" type="JOINT">
                      <matrix sid="transform">3.1391647E-07 1 0 1.010448 -1 3.1391647E-07 0 0 0 0 1 12.530409 0 0 0 1</matrix>
                    </node>
                    <node id="Loc_Head_bone_id" name="Loc_Head" sid="Loc_Head" type="JOINT">
                      <matrix sid="transform">3.1391647E-07 1 0 32.530735 -1 3.1391647E-07 0 0 0 0 1 1.019547 0 0 0 1</matrix>
                    </node>
                  </node>
                </node>
                <node id="LShoulder_bone_id" name="LShoulder" sid="LShoulder" type="JOINT">
                  <matrix sid="transform">-0.58871424 0.79830706 -0.12696993 15.41871 -0.8048209 -0.5935178 5.3519113E-07 -4.285372 -0.07535849 0.10218837 0.9919065 -0.220198 0 0 0 1</matrix>
                  <node id="LArm_bone_id" name="LArm" sid="LArm" type="JOINT">
                    <matrix sid="transform">0.8048213 -0.5935172 0 8.899508 0.5935172 0.8048213 0 0 0 0 1 0 0 0 0 1</matrix>
                    <node id="LForeArm_bone_id" name="LForeArm" sid="LForeArm" type="JOINT">
                      <matrix sid="transform">1 0 0 24.970732 0 1 0 0 0 0 1 0 0 0 0 1</matrix>
                      <node id="LHand_bone_id" name="LHand" sid="LHand" type="JOINT">
                        <matrix sid="transform">1 0 0 24.970737 0 1 0 0 0 0 1 0 0 0 0 1</matrix>
                      </node>
                    </node>
                  </node>
                </node>
                <node id="RShoulder_bone_id" name="RShoulder" sid="RShoulder" type="JOINT">
                  <matrix sid="transform">-0.58871174 -0.79830885 -0.12696993 15.41874 0.8048227 -0.5935153 -1.4453335E-07 4.285369 -0.07535849 -0.10218837 0.9919065 -0.220194 0 0 0 1</matrix>
                  <node id="RArm_bone_id" name="RArm" sid="RArm" type="JOINT">
                    <matrix sid="transform">0.8048225 0.59351563 0 8.899513 -0.59351563 0.8048225 0 0 0 0 1 0 0 0 0 1</matrix>
                    <node id="RForeArm_bone_id" name="RForeArm" sid="RForeArm" type="JOINT">
                      <matrix sid="transform">1 0 0 24.9707 0 1 0 0 0 0 1 0 0 0 0 1</matrix>
                      <node id="RHand_bone_id" name="RHand" sid="RHand" type="JOINT">
                        <matrix sid="transform">1 0 0 24.970798 0 1 0 0 0 0 1 0 0 0 0 1</matrix>
                      </node>
                    </node>
                  </node>
                </node>
              </node>
            </node>
            <node id="Hips_bone_id" name="Hips" sid="Hips" type="JOINT">
              <matrix sid="transform">-1 -3.2584137E-07 0 -0.010002 3.2584137E-07 -1 0 0 0 0 1 0 0 0 0 1</matrix>
              <node id="LThigh_bone_id" name="LThigh" sid="LThigh" type="JOINT">
                <matrix sid="transform">1 0 0 11.461266 0 1 0 7.851056 0 0 1 0 0 0 0 1</matrix>
                <node id="LLeg_bone_id" name="LLeg" sid="LLeg" type="JOINT">
                  <matrix sid="transform">1 0 0 36.965405 0 1 0 0 0 0 1 0 0 0 0 1</matrix>
                  <node id="LFoot_bone_id" name="LFoot" sid="LFoot" type="JOINT">
                    <matrix sid="transform">3.1391647E-07 0 -1 36.96541 0 1 0 4E-06 1 0 3.1391647E-07 0 0 0 0 1</matrix>
                  </node>
                </node>
              </node>
              <node id="RThigh_bone_id" name="RThigh" sid="RThigh" type="JOINT">
                <matrix sid="transform">1 0 0 11.461266 0 1 0 -7.85106 0 0 1 0 0 0 0 1</matrix>
                <node id="RLeg_bone_id" name="RLeg" sid="RLeg" type="JOINT">
                  <matrix sid="transform">1 0 0 36.965405 0 1 0 0 0 0 1 0 0 0 0 1</matrix>
                  <node id="RFoot_bone_id" name="RFoot" sid="RFoot" type="JOINT">
                    <matrix sid="transform">3.1391647E-07 0 -1 36.96541 0 1 0 0 1 0 3.1391647E-07 0 0 0 0 1</matrix>
                  </node>
                </node>
              </node>
            </node>
          </node>
          <node id="CamTgtHead_bone_id" name="CamTgtHead" sid="CamTgtHead" type="JOINT">
            <matrix sid="transform">1 0 0 0 0 1 0 155.86865 0 0 1 0 0 0 0 1</matrix>
          </node>
          <node id="CamTgtBust_bone_id" name="CamTgtBust" sid="CamTgtBust" type="JOINT">
            <matrix sid="transform">1 0 0 0 0 1 0 123.21801 0 0 1 0 0 0 0 1</matrix>
          </node>
          <node id="CamTgtBody_bone_id" name="CamTgtBody" sid="CamTgtBody" type="JOINT">
            <matrix sid="transform">1 0 0 0 0 1 0 96.82974 0 0 1 0 0 0 0 1</matrix>
          </node>
          <node id="CamTgtFoot_bone_id" name="CamTgtFoot" sid="CamTgtFoot" type="JOINT">
            <matrix sid="transform">1 0 0 0 0 1 0 0 0 0 1 0 0 0 0 1</matrix>
          </node>
        </node>
        <node id="tr0016_00_fi_FaceSkin_bone_id" name="tr0016_00_fi_FaceSkin" sid="tr0016_00_fi_FaceSkin" type="JOINT">
          <matrix sid="transform">1 0 0 0 0 1 0 0 0 0 1 0 0 0 0 1</matrix>
        </node>
        <node id="tr0016_00_fi_BottomSkin_bone_id" name="tr0016_00_fi_BottomSkin" sid="tr0016_00_fi_BottomSkin" type="JOINT">
          <matrix sid="transform">1 0 0 0 0 1 0 0 0 0 1 0 0 0 0 1</matrix>
        </node>
        <node id="tr0016_00_fi_HairSkin_bone_id" name="tr0016_00_fi_HairSkin" sid="tr0016_00_fi_HairSkin" type="JOINT">
          <matrix sid="transform">1 0 0 0 0 1 0 0 0 0 1 0 0 0 0 1</matrix>
        </node>
        <node id="tr0016_00_fi_HeadSkin_bone_id" name="tr0016_00_fi_HeadSkin" sid="tr0016_00_fi_HeadSkin" type="JOINT">
          <matrix sid="transform">1 0 0 0 0 1 0 0 0 0 1 0 0 0 0 1</matrix>
        </node>
        <node id="tr0016_00_fi_HatSkin_bone_id" name="tr0016_00_fi_HatSkin" sid="tr0016_00_fi_HatSkin" type="JOINT">
          <matrix sid="transform">1 0 0 0 0 1 0 0 0 0 1 0 0 0 0 1</matrix>
        </node>
        <node id="tr0016_00_fi_PartsSkin_bone_id" name="tr0016_00_fi_PartsSkin" sid="tr0016_00_fi_PartsSkin" type="JOINT">
          <matrix sid="transform">1 0 0 0 0 1 0 0 0 0 1 0 0 0 0 1</matrix>
        </node>
        <node id="tr0016_00_fi_BodySkin_bone_id" name="tr0016_00_fi_BodySkin" sid="tr0016_00_fi_BodySkin" type="JOINT">
          <matrix sid="transform">1 0 0 0 0 1 0 0 0 0 1 0 0 0 0 1</matrix>
        </node>
      </node>
    </visual_scene>
  </library_visual_scenes>
  <scene>
    <instance_visual_scene url="#tr0016_00_fi_00_clip_id" />
  </scene>
</COLLADA>