<?xml version="1.0" encoding="utf-8"?>
<COLLADA version="1.4.1" xmlns="http://www.collada.org/2005/11/COLLADASchema">
	<asset>
		<created>2026-02-16T12:37:40Z</created>
		<modified>2026-02-16T12:37:40Z</modified>
	</asset>
	<library_images />
	<library_materials>
		<material id="PressShadowMaterial_PressShadow_mat_id" name="PressShadowMaterial_PressShadow_mat">
			<instance_effect url="#eff_PressShadowMaterial_PressShadow_id" />
		</material>
	</library_materials>
	<library_effects>
		<effect id="eff_PressShadowMaterial_PressShadow_id" name="eff_PressShadowMaterial_PressShadow">
			<profile_COMMON>
				<newparam sid="img_surface">
					<surface type="2D">
						<init_from>??????_id</init_from>
						<format>PNG</format>
					</surface>
				</newparam>
				<newparam sid="img_sampler">
					<sampler2D>
						<source>img_surface</source>
						<wrap_s>CLAMP</wrap_s>
						<wrap_t>NONE</wrap_t>
						<minfilter>LINEAR_MIPMAP_LINEAR</minfilter>
						<magfilter>LINEAR</magfilter>
						<mipfilter>LINEAR</mipfilter>
					</sampler2D>
				</newparam>
				<technique sid="img_technique">
					<phong>
						<emission>
							<color>0 0 0 1</color>
						</emission>
						<ambient>
							<color>0 0 0 1</color>
						</ambient>
						<diffuse>
							<texture texture="img_sampler" texcoord="uv" />
						</diffuse>
						<specular>
							<color>1 1 1 1</color>
						</specular>
					</phong>
				</technique>
			</profile_COMMON>
		</effect>
	</library_effects>
	<library_geometries>
		<geometry id="mesh_0_PressShadowMaterial_PressShadow_id" name="mesh_0_PressShadowMaterial_PressShadow">
			<mesh>
				<source id="mesh_0_PressShadowMaterial_PressShadow_position_id" name="mesh_0_PressShadowMaterial_PressShadow_position">
					<float_array id="mesh_0_PressShadowMaterial_PressShadow_position_array_id" count="633">6.542408 25.436615 4.38974 -1.362778 25.639042 9.185642 5.128974 19.412836 8.394584 7.271915 21.777859 4.871373 7.274161 24.48418 -8.695578 7.154136 16.89811 -8.912531 5.418014 23.31151 -29.437233 4.758409 26.986256 -17.385952 4.778137 28.132637 -1.686552 4.377861 27.444351 5.754091 2.406003 28.953995 3.878974 2.419616 28.05656 -21.100397 1E-06 30.014105 -9.95706 2.034641 24.206242 -52.743248 3.691874 21.790192 -52.09713 2.396934 21.163872 -70.24256 2.468062 18.533031 -51.773655 5.933209 19.98981 -27.48103 3.723068 17.41065 -35.38121 -0.026531 18.274933 -62.033592 -0.219326 15.065252 -30.678036 -2.64563 18.056843 -46.56357 -1.679635 19.456863 -71.45644 -3.85773 21.464619 -50.09562 1.687848 20.266685 -80.71291 0.32735 19.935448 -90.49277 1.40255 20.594662 -93.48257 1.701578 21.176937 -92.69157 1.49494 21.664139 -93.48717 -0.029398 22.88861 -80.084274 0.192534 22.495634 -95.50508 0.307909 24.105179 -62.184196 -2.937304 23.67877 -50.268875 -2.15245 25.321508 -41.76999 -0.156186 26.841513 -35.95731 4.407457 14.302741 -12.86199 4.885101 14.052744 -2.827503 1.981215 14.930454 -27.323538 -0.000198 12.663642 -8.376385 -1.132503 21.902327 -93.46013 -1.979366 21.55528 -79.70276 -1.24732 20.523712 -93.47743 -1.701579 21.176937 -92.69157 -5.423434 17.52663 -24.719822 -3.076861 14.219034 -18.762672 -4.825107 14.239521 -5.443807 -7.424714 17.58584 -6.490694 -6.775474 17.587057 5.750093 -7.568482 21.513567 1.631369 -6.379869 25.011925 -15.557801 -6.807314 24.441437 5.07052 -4.393185 14.692146 5.726677 -6.947716 22.152761 -19.176044 -0.000182 13.002892 4.299967 4.429744 14.637151 5.710149 6.706485 17.431915 5.748492 7.271915 21.777859 4.871373 5.128974 19.412836 8.394584 -1.073584 16.20007 9.180828 2.027773 16.875248 7.890155 1E-06 15.966579 7.208858 3.968756 18.890661 7.890535 4.188463 22.072819 7.890897 4.646467 19.938688 6.547202 1E-06 15.966579 7.208858 4.188463 22.072819 7.890897 2.030946 25.15418 7.890814 -1.362778 25.639042 9.185642 1E-06 25.604927 7.892972 -0.611119 26.082256 6.547117 1E-06 25.604927 7.892972 -0.00058 25.384989 2.208933 4.109576 20.848099 1.503197 0.53076 16.880814 2.761144 -4.191545 21.771769 8.541153 -4.377862 27.444351 5.754091 -4.778136 28.132637 -1.686592 -4.765661 27.915165 -11.406941 -2.59876 28.452538 -18.025536 -1.24625 29.484102 2.163273 1E-06 30.014105 -9.95706 -1.15975 28.764065 5.76467 2.406003 28.953995 3.878974 -0.156186 26.841513 -35.95731 -2.15245 25.321508 -41.76999 -6.379869 25.011925 -15.557801 -2.030947 25.154182 7.890814 -4.191545 21.771769 8.541153 -2.027773 16.875248 7.890155 -4.188416 19.9514 7.890897 -4.646469 19.938692 6.547202 -4.093882 20.892908 1.528907 0.071952 10.235038 -1.993246 -0.140384 5.022992 -1.287311 0.623865 9.415552 -5.007831 -0.117855 7.672108 -0.85145 0.278968 3.693339 -1.931476 0.151758 2.055002 -5.23824 -0.151757 2.242704 -4.138044 0.326932 13.83814 -3.807522 1E-06 13.838574 -4.503682 0.425852 13.128534 -6.709705 0.073118 12.269754 -7.930336 0.284891 3.503549 -8.18299 -0.025637 7.893091 -9.415697 -0.480551 6.371289 -7.554246 -0.279407 3.686622 -8.563414 -0.450508 12.553272 -4.126996 -0.414963 12.792564 -6.916311 -0.015538 33.302776 -1.293413 0.128751 37.671383 -1.03078 -0.360741 39.784866 -1.935249 -0.124569 36.07625 -0.283299 -0.476171 30.51347 -3.980889 1E-06 29.048677 -4.405792 -0.497115 31.229952 -7.118124 -0.054724 29.048443 -7.583171 -0.128878 37.67219 -9.471538 0.236603 40.875496 -7.952482 1E-06 41.00513 -9.53113 -0.156871 41.86419 -3.384297 0.156873 42.175987 -4.627057 -0.016357 32.85046 -9.117296 0.525684 37.113243 -8.852219 0.579577 32.22969 -4.798677 0.345557 29.049171 -3.619901 0.345557 29.049171 -6.902239 0.059403 20.345896 -102.98449 8.775054 20.963459 -104.065094 4.251912 20.526903 -100.506454 1.537044 20.440464 -100.16284 7.692451 20.909073 -100.29011 6.332989 21.176517 -108.5272 8.474407 21.180943 -107.192314 8.501344 21.429737 -104.85107 2.495548 21.3568 -108.44481 1E-06 21.183275 -109.76549 2.469196 20.424534 -95.74623 2.937362 20.391605 -97.6055 7.211022 21.174065 -97.40938 4.489397 21.177 -94.53343 1.40255 20.594662 -93.48257 1.701578 21.176937 -92.69157 3.996753 21.958765 -100.325485 3.352259 21.888115 -97.190575 1.722924 22.059914 -95.28019 1.49494 21.664139 -93.48717 3.021989 21.993076 -98.74813 0.564989 22.191788 -100.8278 -2.565196 21.174992 -109.6304 -4.415247 21.53784 -106.80037 -8.746689 20.963459 -105.18292 -8.217765 21.406872 -106.031494 -3.594638 20.459255 -99.05598 -8.666549 21.043036 -101.69342 -1.763281 20.442509 -100.625244 -2.469196 20.424534 -95.74623 -7.211035 21.174065 -97.4094 -4.489396 21.177 -94.53343 -1.24732 20.523712 -93.47743 -1.701579 21.176937 -92.69157 -2.472002 22.106527 -100.25358 -3.35226 21.888115 -97.190575 -1.722922 22.059914 -95.2802 -1.132503 21.902327 -93.46013 -3.021986 21.993076 -98.74813 7.154136 16.89811 -8.912531 7.271915 21.777859 4.871373 4.885101 14.052744 -2.827503 0.059403 20.345896 -102.98449 1.537044 20.440464 -100.16284 0.32735 19.935448 -90.49277 2.937362 20.391605 -97.6055 4.251912 20.526903 -100.506454 2.469196 20.424534 -95.74623 1.40255 20.594662 -93.48257 -2.469196 20.424534 -95.74623 -1.24732 20.523712 -93.47743 -3.594638 20.459255 -99.05598 -1.763281 20.442509 -100.625244 1.49494 21.664139 -93.48717 1.722924 22.059914 -95.28019 0.192534 22.495634 -95.50508 3.352259 21.888115 -97.190575 3.021989 21.993076 -98.74813 3.996753 21.958765 -100.325485 0.564989 22.191788 -100.8278 -2.472002 22.106527 -100.25358 -3.021986 21.993076 -98.74813 -3.35226 21.888115 -97.190575 -1.722922 22.059914 -95.2802 -1.132503 21.902327 -93.46013 1E-06 25.690342 8.014664 0.690107 25.952078 8.50839 -1.380214 25.838743 8.499827 -2.392014 25.150812 8.20749 2.392014 25.150812 8.20749 1E-06 16.376017 8.014665 -0.690132 16.114258 8.508485 1.380264 16.227587 8.500016 -2.394959 16.917503 8.207535 2.394962 16.917503 8.207535 4.291677 18.752007 8.409756 4.614322 21.035818 8.237392 3.933215 18.540585 8.212884 3.938912 23.526934 8.21274 4.614322 21.035818 8.237392 4.291679 23.319637 8.409757 -3.933216 18.540585 8.212884 -4.564654 21.378403 8.240627 -4.291676 18.752007 8.409756</float_array>
					<technique_common>
						<accessor source="#mesh_0_PressShadowMaterial_PressShadow_position_array_id" count="211" stride="3">
							<param name="X" type="float" />
							<param name="Y" type="float" />
							<param name="Z" type="float" />
						</accessor>
					</technique_common>
				</source>
				<source id="mesh_0_PressShadowMaterial_PressShadow_normal_id" name="mesh_0_PressShadowMaterial_PressShadow_normal">
					<float_array id="mesh_0_PressShadowMaterial_PressShadow_normal_array_id" count="633">0.305648 0.206488 0.929485 0.260556 -0.809372 0.526335 -0.80209 0.267348 0.53402 0.364594 0.110908 0.924538 0.946248 0.321626 -0.034226 0.950287 -0.308403 -0.042916 0.912104 0.396367 -0.104685 0.709766 0.696754 -0.103759 0.622121 0.782829 0.012048 0.216661 0.284053 0.934008 0.108905 0.331917 0.937001 0.466564 0.879379 -0.094923 0.039843 0.998059 -0.04786 0.643736 0.758284 -0.102999 0.98996 0.106132 -0.093359 0.925952 0.367471 -0.087051 0.812657 -0.576738 -0.083438 0.974629 -0.202358 -0.095649 0.648003 -0.750209 -0.131447 0.107424 -0.990963 -0.080331 -0.139618 -0.980267 -0.139942 -0.657735 -0.747833 -0.090172 -0.723173 -0.686627 -0.074592 -0.992652 -0.086995 -0.084112 0.952619 -0.301612 -0.039346 -0.001742 -0.99559 0.093796 0.689307 -0.682139 0.244012 0.933407 0.0173 0.358402 0.549195 0.816674 0.177283 0.165295 0.984977 -0.049988 0.045295 0.99664 0.068242 0.099896 0.989319 -0.106158 -0.684916 0.723247 -0.088336 -0.525435 0.843687 -0.110051 -0.010253 0.992887 -0.118619 0.542712 -0.835485 -0.08619 0.666775 -0.745107 0.015042 0.310363 -0.940306 -0.139641 0.023282 -0.998549 -0.048566 -0.456848 0.879996 0.129988 -0.997813 0.041905 -0.051126 -0.620469 -0.735718 0.271545 -0.922105 0.003628 0.386924 -0.861297 -0.457196 -0.221676 -0.465592 -0.877665 -0.113701 -0.599986 -0.799983 -0.006638 -0.971921 -0.234266 -0.022112 -0.368246 -0.098778 0.924466 -0.381963 0.005743 0.92416 -0.869117 0.478389 -0.125616 -0.365656 0.10872 0.924378 -0.236685 -0.28748 0.928081 -0.87688 0.349055 -0.330519 -0.01878 -0.974092 0.22537 0.235578 -0.288828 0.927945 0.881249 -0.350761 0.316807 0.364594 0.110908 0.924538 -0.80209 0.267348 0.53402 0.492158 0.686798 0.534872 -0.580757 0.805701 0.116474 0.021146 0.96287 0.269135 -0.806944 0.404395 0.430472 -0.846843 0.008627 0.531774 -0.954658 0.094857 0.282188 0.021146 0.96287 0.269135 -0.846843 0.008627 0.531774 -0.571174 -0.794215 -0.207323 0.260556 -0.809372 0.526335 -0.003948 -0.9874 -0.158193 0.066251 -0.981553 0.179344 -0.003948 -0.9874 -0.158193 0.029334 -0.75921 0.650184 -0.725397 0.062038 0.685529 -0.019597 0.759159 0.650611 0.680388 0.501257 0.534615 -0.22294 0.275859 0.934986 -0.611874 0.789493 0.04808 -0.664729 0.743183 -0.076248 -0.455862 0.885763 -0.08726 -0.244032 0.9663 0.081929 0.039843 0.998059 -0.04786 -0.118711 0.321372 0.939483 0.108905 0.331917 0.937001 -0.010253 0.992887 -0.118619 -0.525435 0.843687 -0.110051 -0.869117 0.478389 -0.125616 0.636907 -0.767113 0.076733 0.680388 0.501257 0.534615 0.711261 0.675589 -0.194132 0.778429 0.350878 -0.520511 0.976875 0.099984 0.188994 0.70134 0.090493 0.707059 -0.668541 0.281566 0.688312 -0.595927 -0.239591 0.766464 0.999469 0.030558 -0.01134 0 1 0 0.77277 -0.442423 0.45507 0.843366 -0.534809 0.052089 -0.775131 -0.62744 0.074098 0.898968 0.411922 0.148921 -0.343532 0.939132 0.004154 0.832674 0.485523 -0.26631 0.254801 0.711283 -0.655098 0.293093 -0.527533 -0.797374 -0.480354 0.070646 -0.874225 -0.98621 0.007512 -0.165326 -0.370466 -0.521124 -0.768885 -0.961288 0.182062 0.206831 -0.891701 0.359799 -0.274615 -0.783106 -0.237888 0.574591 0.931264 0.099098 0.350611 -0.945212 0.157107 0.286169 0 0 0 -0.965479 -0.187109 0.181222 -0.538491 -0.818478 0.200301 -0.988943 -0.11034 -0.099077 -0.744196 -0.562161 -0.36076 -0.77657 0.071785 -0.625928 -0.684739 0.470619 -0.556463 0.791149 0.14834 0.593362 -0.904602 0.425834 0.019021 0.927092 0.306347 0.215993 0.830825 -0.125886 -0.54211 0.96635 0.037964 -0.254415 0.995351 -0.075294 -0.060055 0.94641 -0.269045 0.178673 0.889998 -0.428281 -0.156455 -0.005353 -0.996548 -0.082846 0.730513 -0.678557 0.076879 0.10872 -0.993998 0.012184 0.06041 -0.997862 -0.024948 0.670532 -0.72754 0.145162 0.051171 -0.975391 -0.214464 0.581823 0.794505 -0.173905 0.401403 0.915494 0.027345 0.091494 0.963317 -0.252289 0.097006 0.852946 -0.512906 0.420398 -0.885754 0.196735 0.245762 -0.96832 0.044236 0.690855 0.636142 0.343573 0.639941 0.357676 0.680106 0.689307 -0.682139 0.244012 0.933407 0.0173 0.358402 0.217819 0.974118 0.06041 0.200799 0.974871 0.096467 0.24781 0.950572 0.187091 0.549195 0.816674 0.177283 0.256462 0.960199 0.110658 0.011432 0.996478 -0.083078 -0.237469 -0.932262 -0.272942 -0.223189 0.678567 -0.69981 -0.27346 -0.929321 -0.248158 -0.438187 0.867704 -0.234696 -0.088342 -0.996061 0.007661 -0.974243 -0.154953 0.163832 0 0 0 -0.295025 -0.942752 0.155495 -0.645227 0.674964 0.357919 -0.660353 0.341325 0.668903 -0.620469 -0.735718 0.271545 -0.922105 0.003628 0.386924 -0.131685 0.991022 -0.023133 -0.244347 0.964525 0.099936 -0.234723 0.962301 0.137411 -0.456848 0.879996 0.129988 -0.292423 0.95617 -0.015083 0.950287 -0.308403 -0.042916 0.364594 0.110908 0.924538 0.666775 -0.745107 0.015042 -0.005353 -0.996548 -0.082846 0.06041 -0.997862 -0.024948 -0.001742 -0.99559 0.093796 0.245762 -0.96832 0.044236 0.10872 -0.993998 0.012184 0.420398 -0.885754 0.196735 0.689307 -0.682139 0.244012 -0.295025 -0.942752 0.155495 -0.620469 -0.735718 0.271545 -0.088342 -0.996061 0.007661 0 0 0 0.549195 0.816674 0.177283 0.24781 0.950572 0.187091 0.045295 0.99664 0.068242 0.200799 0.974871 0.096467 0.256462 0.960199 0.110658 0.217819 0.974118 0.06041 0.011432 0.996478 -0.083078 -0.131685 0.991022 -0.023133 -0.292423 0.95617 -0.015083 -0.244347 0.964525 0.099936 -0.234723 0.962301 0.137411 -0.456848 0.879996 0.129988 0.20126 -0.917773 -0.342327 0.12085 -0.991028 0.05708 -0.522549 -0.405338 0.750096 -0.577 -0.808925 0.112747 0.412878 -0.899224 0.144667 0.473061 0.653105 0.591326 -1E-06 0.262612 0.964901 0.49443 0.473037 0.729229 -0.502219 0.859381 0.096129 0.502216 0.859383 0.096129 -0.433319 -0.507632 0.744677 -0.58816 -0.49609 0.638719 -0.765654 -0.635774 0.097805 -0.834162 0.535977 0.130009 -0.669479 0.401024 0.625282 -0.479493 0.446422 0.755509 0.349915 -0.261461 0.899554 0.333253 -0.052052 0.9414 0.049685 -0.202783 0.977962</float_array>
					<technique_common>
						<accessor source="#mesh_0_PressShadowMaterial_PressShadow_normal_array_id" count="211" stride="3">
							<param name="X" type="float" />
							<param name="Y" type="float" />
							<param name="Z" type="float" />
						</accessor>
					</technique_common>
				</source>
				<source id="mesh_0_PressShadowMaterial_PressShadow_color_id" name="mesh_0_PressShadowMaterial_PressShadow_color">
					<float_array id="mesh_0_PressShadowMaterial_PressShadow_color_array_id" count="844">1 1 1 1 1 1 1 1 1 1 1 1 1 1 1 1 1 1 1 1 1 1 1 1 1 1 1 1 1 1 1 1 1 1 1 1 1 1 1 1 1 1 1 1 1 1 1 1 1 1 1 1 1 1 1 1 1 1 1 1 1 1 1 1 1 1 1 1 1 1 1 1 1 1 1 1 1 1 1 1 1 1 1 1 1 1 1 1 1 1 1 1 1 1 1 1 1 1 1 1 1 1 1 1 1 1 1 1 1 1 1 1 1 1 1 1 1 1 1 1 1 1 1 1 1 1 1 1 1 1 1 1 1 1 1 1 1 1 1 1 1 1 1 1 1 1 1 1 1 1 1 1 1 1 1 1 1 1 1 1 1 1 1 1 1 1 1 1 1 1 1 1 1 1 1 1 1 1 1 1 1 1 1 1 1 1 1 1 1 1 1 1 1 1 1 1 1 1 1 1 1 1 1 1 1 1 1 1 1 1 1 1 1 1 1 1 1 1 1 1 1 1 1 1 1 1 1 1 1 1 1 1 1 1 1 1 1 1 1 0.827451 1 1 1 0.9137255 1 1 1 0.827451 1 1 1 0.9137255 1 1 1 0.67058825 1 1 1 0.67058825 1 1 1 0.827451 1 1 1 0.827451 1 1 1 1 1 1 1 0.9137255 1 1 1 0.67058825 1 1 1 0.827451 1 1 1 0.49803922 1 1 1 0.49803922 1 1 1 0.49803922 1 1 1 1 1 1 1 1 1 1 1 1 1 1 1 1 1 1 1 1 1 1 1 1 1 1 1 1 1 1 1 1 1 1 1 1 1 1 1 1 1 1 1 1 1 1 1 1 1 1 1 0.827451 1 1 1 0.827451 1 1 1 0.827451 1 1 1 0.827451 1 1 1 0.67058825 1 1 1 0.49803922 1 1 1 0.49803922 1 1 1 0.49803922 1 1 1 0.49803922 1 1 1 0.49803922 1 1 1 0.49803922 1 1 1 0.49803922 1 1 1 0.49803922 1 1 1 0.49803922 1 1 1 0.49803922 1 1 1 0.49803922 1 1 1 0.49803922 1 1 1 0.49803922 1 1 1 0.49803922 1 1 1 0.49803922 1 1 1 0.49803922 1 1 1 0.49803922 1 1 1 0.49803922 1 1 1 0.49803922 1 1 1 0.49803922 1 1 1 0.49803922 1 1 1 0.49803922 1 1 1 0.49803922 1 1 1 0.49803922 1 1 1 0.49803922 1 1 1 0.49803922 1 1 1 0.49803922 1 1 1 0.49803922 1 1 1 0.49803922 1 1 1 0.49803922 1 1 1 0.49803922 1 1 1 0.49803922 1 1 1 0.49803922 1 1 1 0.49803922 1 1 1 0.49803922 1 1 1 0.49803922 1 1 1 0.09803922 1 1 1 0.09803922 1 1 1 0.09803922 1 1 1 0.09803922 1 1 1 0.09803922 1 1 1 0.09803922 1 1 1 0.09803922 1 1 1 0.09803922 1 1 1 0.09803922 1 1 1 0.09803922 1 1 1 0.09803922 1 1 1 0.09803922 1 1 1 0.09803922 1 1 1 0.09803922 1 1 1 0.09803922 1 1 1 0.09803922 1 1 1 0.09803922 1 1 1 0.09803922 1 1 1 0.09803922 1 1 1 0.09803922 1 1 1 0.09803922 1 1 1 0.09803922 1 1 1 0.09803922 1 1 1 0.09803922 1 1 1 0.09803922 1 1 1 0.09803922 1 1 1 0.09803922 1 1 1 0.09803922 1 1 1 0.09803922 1 1 1 0.09803922 1 1 1 0.09803922 1 1 1 0.09803922 1 1 1 0.09803922 1 1 1 0.09803922 1 1 1 0.09803922 1 1 1 0.09803922 1 1 1 0.09803922 1 1 1 0.09803922 1 1 1 0.09803922 1 1 1 1 1 1 1 1 1 1 1 1 1 1 1 1 1 1 1 1 1 1 1 1 1 1 1 1 1 1 1 1 1 1 1 1 1 1 1 1 1 1 1 1 1 1 1 1 1 1 1 1 1 1 1 1 1 1 1 1 1 1 1 1 1 1 1 1 1 1 1 1 1 1 1 1 1 1 1 1 1 1 1 1 1 1 1 1 1 1 1 1 1 1 1 1 1 1 1 1 1 1 1 1 1 1 1 0.09803922 1 1 1 0.09803922 1 1 1 0.09803922 1 1 1 0.09803922 1 1 1 0.09803922 1 1 1 0.09803922 1 1 1 0.09803922 1 1 1 0.09803922 1 1 1 0.09803922 1 1 1 0.09803922 1 1 1 0.09803922 1 1 1 0.09803922 1 1 1 0.09803922 1 1 1 0.09803922 1 1 1 0.09803922 1 1 1 0.09803922 1 1 1 0.09803922 1 1 1 0.09803922 1 1 1 0.09803922</float_array>
					<technique_common>
						<accessor source="#mesh_0_PressShadowMaterial_PressShadow_color_array_id" count="211" stride="4">
							<param name="R" type="float" />
							<param name="G" type="float" />
							<param name="B" type="float" />
							<param name="A" type="float" />
						</accessor>
					</technique_common>
				</source>
				<vertices id="mesh_0_PressShadowMaterial_PressShadow_vertices_id">
					<input semantic="POSITION" source="#mesh_0_PressShadowMaterial_PressShadow_position_id" />
				</vertices>
				<triangles material="PressShadowMaterial_PressShadow" count="293">
					<input semantic="VERTEX" source="#mesh_0_PressShadowMaterial_PressShadow_vertices_id" offset="0" />
					<input semantic="NORMAL" source="#mesh_0_PressShadowMaterial_PressShadow_normal_id" offset="0" />
					<input semantic="COLOR" source="#mesh_0_PressShadowMaterial_PressShadow_color_id" offset="0" />
					<p>0 1 2 0 2 3 3 4 0 5 4 3 6 4 5 7 4 6 4 7 8 4 8 0 8 9 0 9 1 0 8 10 9 10 1 9 8 11 10 6 11 7 7 11 8 11 12 10 6 13 11 14 13 6 14 15 13 16 15 14 14 17 16 14 6 17 17 6 5 16 17 18 18 17 5 19 16 18 20 19 18 19 20 21 19 21 22 22 21 23 24 15 16 19 24 16 25 24 19 19 22 25 25 26 24 27 24 26 27 28 24 28 29 24 24 29 15 28 30 29 15 31 13 15 29 31 32 31 29 32 33 31 33 34 31 31 34 13 13 34 11 11 34 12 35 18 5 35 5 36 18 35 37 18 37 20 20 37 38 37 35 38 35 36 38 39 29 30 39 40 29 40 23 32 40 22 23 40 32 29 25 22 40 41 25 40 41 40 42 42 40 39 21 43 23 20 43 21 20 38 44 44 43 20 44 45 43 44 38 45 43 45 46 45 47 46 46 47 48 46 48 49 32 49 33 43 49 23 23 49 32 48 50 49 51 47 45 52 46 49 43 52 49 46 52 43 53 45 38 53 51 45 38 36 53 53 36 54 36 55 54 36 56 55 54 55 57 55 56 57 53 54 58 54 57 58 53 58 51 51 58 47 58 57 59 60 58 59 59 57 61 57 62 61 61 63 59 59 63 64 65 63 61 57 66 65 65 66 63 67 66 57 67 68 66 63 66 69 66 70 69 69 71 63 63 71 72 64 63 73 73 63 72 71 73 72 74 67 50 47 58 74 47 74 48 48 74 50 50 67 75 50 75 76 49 50 76 77 49 76 49 77 78 77 76 78 78 76 79 79 80 78 75 81 76 76 81 79 75 67 81 79 81 82 81 67 82 80 79 82 83 78 80 84 78 83 84 85 78 86 68 67 86 69 70 87 86 67 58 60 88 58 88 74 74 88 89 87 90 86 86 90 69 64 90 88 88 90 89 89 90 87 90 71 69 64 73 90 91 71 90 90 73 91 91 73 71 92 93 94 95 93 92 93 95 92 94 93 96 97 94 96 98 97 96 96 93 98 94 99 92 94 100 99 99 100 92 94 101 100 102 100 101 101 94 102 103 94 97 97 98 103 102 94 104 104 94 103 104 103 105 93 105 98 92 105 93 105 103 106 98 105 106 103 98 106 107 92 100 107 105 92 107 100 108 108 100 102 105 108 104 108 105 107 104 108 102 109 110 111 109 112 110 109 110 112 113 109 111 113 114 109 113 115 114 115 113 111 116 114 115 115 111 117 115 117 116 117 111 118 118 119 117 118 117 119 118 111 120 118 120 121 121 111 110 111 121 120 116 117 122 122 117 123 110 123 121 121 123 118 123 117 118 124 123 110 123 124 122 124 125 114 125 124 110 125 110 109 125 109 114 124 114 126 114 116 126 124 126 122 126 116 122 127 128 129 127 129 130 131 129 128 132 128 127 132 133 128 133 134 128 135 132 127 134 133 135 135 133 132 127 136 135 137 129 131 137 138 129 131 139 137 140 137 139 137 140 141 140 142 141 128 134 143 131 143 139 128 143 131 143 134 135 144 140 139 139 143 144 145 140 144 140 145 146 140 146 142 143 147 144 148 143 135 136 148 135 149 136 127 149 127 150 136 150 148 150 136 149 127 151 150 152 150 151 153 151 127 151 153 154 151 154 152 155 153 127 154 153 156 157 154 156 156 158 157 158 156 159 158 159 160 152 154 161 154 157 161 150 152 161 150 161 148 158 162 157 161 157 162 163 162 158 163 158 164 158 160 164 162 165 161 166 167 168 169 170 171 170 172 171 172 170 173 172 174 171 174 175 171 171 176 169 171 177 176 169 176 178 179 169 178 180 181 182 183 182 181 184 182 183 185 182 184 186 182 185 187 182 186 188 182 187 189 182 188 189 190 182 190 191 182 192 193 194 194 195 192 192 196 193 197 198 199 197 200 198 199 201 197 202 203 204 205 206 207 208 209 210</p>
				</triangles>
			</mesh>
		</geometry>
	</library_geometries>
	<library_controllers>
		<controller id="mesh_0_PressShadowMaterial_PressShadow_ctrl_id">
			<skin source="#mesh_0_PressShadowMaterial_PressShadow_id">
				<bind_shape_matrix>1 0 0 0 0 1 0 0 0 0 1 0 0 0 0 1</bind_shape_matrix>
				<source id="mesh_0_PressShadowMaterial_PressShadow_ctrl_joint_names_id">
					<Name_array id="mesh_0_PressShadowMaterial_PressShadow_ctrl_joint_names_array_id" count="20">pm0603_00 Origin Waist Tail01 Tail02 Tail03 Tail04 Tail05 Tail06 Tail07 Tail08 LowerFeeler UpperFeeler Head Jaw UpperTeeth LowerTeeth LTeeth RTeeth pm0603_00_Skin</Name_array>
					<technique_common>
						<accessor source="#mesh_0_PressShadowMaterial_PressShadow_ctrl_joint_names_array_id" count="20" stride="1">
							<param name="JOINT" type="Name" />
						</accessor>
					</technique_common>
				</source>
				<source id="mesh_0_PressShadowMaterial_PressShadow_ctrl_inv_bind_poses_id">
					<float_array id="mesh_0_PressShadowMaterial_PressShadow_ctrl_inv_bind_poses_array_id" count="320">1 0 0 0 0 1 0 0 0 0 1 0 0 0 0 1 1 0 0 0 0 1 0 0 0 0 1 0 0 0 0 1 0 0 1 0 1 0 -3.1391647E-07 0 -3.1391647E-07 1 9.854355E-14 -21.016323 0 0 0 1 0 0 -1 -16 1 2.9802322E-07 -3.139165E-07 -9.536743E-06 4.0730188E-07 -1 -3.258415E-07 21.01632 0 0 -0 1 0 0 -1 -28 1 2.9802322E-07 -3.139165E-07 -9.536743E-06 4.0730188E-07 -1 -3.258415E-07 21.01632 0 0 -0 1 0 0 -1 -40 1 2.9802322E-07 -3.139165E-07 -9.536743E-06 4.0730188E-07 -1 -3.258415E-07 21.01632 0 0 -0 1 0 0 -1 -52 1 2.9802322E-07 -3.139165E-07 -9.536743E-06 4.0730188E-07 -1 -3.258415E-07 21.01632 0 0 -0 1 0 0 -1 -64 1 2.9802322E-07 -3.139165E-07 -9.536743E-06 4.0730188E-07 -1 -3.258415E-07 21.01632 0 0 -0 1 0 0 -1 -76 1 2.9802322E-07 -3.139165E-07 -9.536743E-06 4.0730188E-07 -1 -3.258415E-07 21.01632 0 0 -0 1 0 0 -1 -84 1 2.9802322E-07 -3.139165E-07 -9.536743E-06 4.0730188E-07 -1 -3.258415E-07 21.01632 0 0 -0 1 0 0 -1 -92 1 2.9802322E-07 -3.139165E-07 -1.1444092E-05 4.0730188E-07 -1 -3.258415E-07 21.016294 0 0 -0 1 8.881784E-14 -1 2.9802322E-07 13.292757 1 3.1391647E-07 -3.1391647E-07 -1.1124823E-05 2.9802322E-07 3.1391647E-07 1 5.276007 0 0 0 1 1.5631942E-13 1 2.384186E-07 -29.999998 -1 -3.139166E-07 6.397579E-07 1.284397E-05 6.5565115E-07 -3.139164E-07 1.0000001 5.2760215 0 -0 0 1 0 0 1 0 1 0 -3.1391647E-07 0 -3.1391647E-07 1 9.854355E-14 -21.016323 0 0 0 1 0 0 1 0 1 0 -3.1391647E-07 0 -3.1391647E-07 1 9.854355E-14 -21.016323 0 0 0 1 0 0.5047809 0.8632476 -15.389269 -1 -3.2634702E-08 1.4943802E-07 5.6266017E-06 0 -0.86324763 0.50478077 16.873924 0 0 0 1 0 -0.5047816 0.8632471 5.828018 1 3.1391647E-07 -3.1391647E-07 -1.1124824E-05 0 0.8632471 0.5047817 -19.410631 0 0 0 1 0.50478196 1.584593E-07 0.8632469 -4.8598394 -4.292903E-08 1 -1.5845929E-07 -20.935144 -0.863247 4.292902E-08 0.504782 -1.3149803 0 0 0 1 -0.5047804 -1.5845899E-07 0.8632478 -4.8598294 5.8490417E-07 -1 1.584588E-07 20.935144 0.8632478 5.8490417E-07 0.50478053 -1.3149939 0 0 0 1 1 0 0 0 0 1 0 0 0 0 1 0 0 0 0 1</float_array>
					<technique_common>
						<accessor source="#mesh_0_PressShadowMaterial_PressShadow_ctrl_inv_bind_poses_array_id" count="20" stride="16">
							<param name="TRANSFORM" type="float4x4" />
						</accessor>
					</technique_common>
				</source>
				<source id="mesh_0_PressShadowMaterial_PressShadow_ctrl_weights_id">
					<float_array id="mesh_0_PressShadowMaterial_PressShadow_ctrl_weights_array_id" count="204">0.4 0.6 1 0.17254902 0.827451 0.8509804 0.14901961 0.4509804 0.5019608 0.047058824 0.38039216 0.5254902 0.09411765 0.88235295 0.007843138 0.10980392 0.1764706 0.8235294 0.15294118 0.24705882 0.050980393 0.54901963 0.3019608 0.42352942 0.5764706 0.44313726 0.5568628 0.34117648 0.65882355 0.34901962 0.3529412 0.64705884 0.9607843 0.019607844 0.67058825 0.32941177 0.17254902 0.827451 0.29803923 0.5529412 0.14901961 0.4 0.6 0.18431373 0.8156863 0.18039216 0.81960785 1 0.8901961 0.10980392 0.6901961 0.30980393 0.5372549 0.4627451 0.8509804 0.050980393 0.3019608 0.54901963 0.4509804 0.5019608 0.047058824 0.69803923 0.22745098 0.77254903 0.05490196 0.94509804 0.02745098 0.972549 0.03137255 0.96862745 0.74509805 0.25490198 0.46666667 0.53333336 0.05882353 0.9411765 0.23921569 0.7607843 0.16078432 0.8392157 0.5803922 0.41960785 0.60784316 0.39215687 0.13725491 0.8627451 0.07450981 0.9254902 0.2 0.8 1 0.3529412 0.64705884 0.12941177 0.87058824 0.047058824 0.9529412 0.011764706 0.9882353 0.3019608 0.69803923 0.15686275 0.84313726 0.15294118 0.84705883 0.18431373 0.8156863 0.19607843 0.8039216 0.003921569 0.99607843 0.023529412 0.9764706 0.019607844 0.98039216 0.34117648 0.65882355 0.27058825 0.7294118 0.25490198 0.74509805 0.3764706 0.62352943 0.42352942 0.5764706 0.44313726 0.5568628 0.19215687 0.80784315 0.28235295 0.7176471 0.3529412 0.64705884 0.4 0.6 0.24313726 0.75686276 0.1882353 0.8117647 0.047058824 0.9529412 0.039215688 0.9607843 0.03529412 0.9647059 0.22745098 0.77254903 0.11764706 0.88235295 0.2 0.8 0.34117648 0.65882355 0.25490198 0.74509805 0.3764706 0.62352943 0.42352942 0.5764706 0.44313726 0.5568628 0.19607843 0.8039216 0.28235295 0.7176471 0.3529412 0.64705884 0.4 0.6 0.24313726 0.75686276 0.8509804 0.14901961 0.17254902 0.827451 0.007843138 0.10980392 0.15294118 0.84705883 0.050980393 0.54901963 0.27058825 0.7294118 0.18431373 0.8156863 0.34117648 0.65882355 0.22745098 0.77254903 0.2 0.8 0.19215687 0.80784315 0.1882353 0.8117647 0.19607843 0.8039216 0.28235295 0.7176471 0.3529412 0.64705884 0.4 0.6 1</float_array>
					<technique_common>
						<accessor source="#mesh_0_PressShadowMaterial_PressShadow_ctrl_weights_array_id" count="204" stride="1">
							<param name="WEIGHT" type="float" />
						</accessor>
					</technique_common>
				</source>
				<joints>
					<input semantic="JOINT" source="#mesh_0_PressShadowMaterial_PressShadow_ctrl_joint_names_id" />
					<input semantic="INV_BIND_MATRIX" source="#mesh_0_PressShadowMaterial_PressShadow_ctrl_inv_bind_poses_id" />
				</joints>
				<vertex_weights count="211">
					<input semantic="JOINT" source="#mesh_0_PressShadowMaterial_PressShadow_ctrl_joint_names_id" offset="0" />
					<input semantic="WEIGHT" source="#mesh_0_PressShadowMaterial_PressShadow_ctrl_weights_id" offset="1" />
					<vcount>2 1 1 2 2 2 3 3 3 2 2 3 2 3 3 3 3 3 3 3 3 3 3 3 3 3 2 2 2 3 2 3 3 3 3 2 3 3 2 2 3 2 2 3 3 3 3 2 2 3 2 2 3 2 2 2 2 1 1 1 1 1 1 1 1 1 1 1 1 1 1 1 1 1 1 2 2 2 3 2 2 2 2 3 3 3 1 1 1 1 1 1 2 2 2 2 2 2 2 1 1 2 2 2 2 2 2 2 2 2 2 2 2 2 1 2 1 2 2 2 2 2 2 2 2 1 1 2 2 2 2 2 2 2 2 2 2 2 2 2 2 2 2 2 2 2 2 2 2 2 2 2 2 2 2 2 2 2 2 2 2 2 2 2 2 2 2 2 3 2 2 3 2 2 2 2 2 2 2 2 2 2 2 2 2 2 2 2 2 2 2 2 1 1 1 1 1 1 1 1 1 1 1 1 1 1 1 1 1 1 1</vcount>
					<v>2 0 13 1 13 2 13 2 2 3 13 4 2 5 3 6 2 5 3 6 3 7 4 8 5 9 2 10 3 11 4 12 2 13 3 14 13 15 2 16 13 17 2 0 13 1 2 18 3 1 4 19 2 5 3 6 5 7 6 8 7 9 5 7 6 8 7 9 6 20 7 21 8 0 5 7 6 8 7 9 3 7 4 8 5 9 3 18 4 1 5 19 6 7 7 8 8 9 3 22 4 21 5 6 4 18 5 1 6 19 7 7 8 8 9 9 4 20 5 21 6 0 7 20 8 21 9 0 8 20 9 21 10 0 9 23 10 24 9 25 10 26 9 0 10 1 7 20 8 21 9 0 9 27 10 28 6 7 7 8 8 9 5 7 6 8 7 9 4 22 5 21 6 6 3 20 4 1 5 29 2 1 3 0 2 13 3 14 13 15 3 7 4 8 5 9 2 30 11 31 9 0 10 1 7 20 8 21 9 0 9 23 10 24 9 25 10 26 2 20 3 21 4 0 2 22 3 21 4 6 2 32 3 33 13 33 2 32 3 33 13 33 2 3 13 4 2 34 13 35 2 7 3 8 4 9 2 36 13 37 2 16 13 17 2 38 3 39 4 40 2 41 13 42 2 43 13 44 2 45 13 46 2 36 13 37 13 47 13 47 13 47 13 47 13 47 13 47 13 47 13 47 13 47 13 47 13 47 13 47 13 47 13 47 13 47 13 47 13 47 18 47 2 36 13 37 2 48 13 49 2 50 3 51 2 22 3 21 4 40 2 52 13 53 2 54 3 40 2 36 13 37 2 41 13 42 3 55 4 42 5 29 4 56 5 57 6 40 2 58 3 59 4 60 13 47 18 47 13 47 13 47 13 47 13 47 2 56 11 61 2 49 11 48 2 56 11 61 2 62 11 63 2 64 11 65 2 66 11 67 2 68 11 69 2 47 2 47 2 70 11 71 2 72 11 73 2 74 11 75 2 76 11 77 2 78 11 79 2 64 11 65 2 80 11 81 2 82 11 83 2 56 12 61 2 84 12 85 2 86 12 87 2 88 12 89 2 80 12 81 2 90 2 91 12 92 2 90 2 93 12 94 2 95 12 96 2 97 12 98 2 68 12 69 2 68 12 69 2 99 12 100 2 101 12 102 2 91 12 92 2 90 2 90 9 103 10 104 9 74 10 75 9 105 10 106 9 107 10 108 9 78 10 79 9 109 10 110 9 111 10 112 9 95 10 96 9 113 10 114 9 109 10 110 9 115 10 116 9 117 10 118 9 119 10 120 9 121 10 122 9 123 10 124 9 125 10 126 9 127 10 128 9 129 10 130 9 131 10 132 9 133 10 134 9 135 10 136 9 137 10 138 9 109 10 110 9 139 10 140 9 141 10 142 9 143 10 144 9 145 10 146 9 147 10 148 9 149 10 150 9 151 10 152 9 153 10 154 9 155 10 156 9 157 10 158 9 159 10 160 9 161 10 162 9 163 10 164 9 165 10 166 9 167 10 168 9 169 10 170 2 171 3 172 2 173 13 174 2 148 3 175 13 176 9 177 10 178 9 161 10 162 8 179 9 180 10 167 9 181 10 182 9 183 10 184 9 185 10 186 9 157 10 158 9 185 10 186 9 157 10 158 9 187 10 188 9 189 10 190 9 167 10 168 9 165 10 166 9 185 10 186 9 163 10 164 9 169 10 170 9 191 10 192 9 193 10 194 9 195 10 196 9 169 10 170 9 197 10 198 9 199 10 200 9 201 10 202 13 203 13 203 13 203 13 203 13 203 13 203 13 203 13 203 13 203 13 203 13 203 13 203 13 203 13 203 13 203 13 203 13 203 13 203 18 203</v>
				</vertex_weights>
			</skin>
		</controller>
	</library_controllers>
	<library_visual_scenes>
		<visual_scene id="vs_model_id" name="vs_model">
			<node id="pm0603_00_bone_id" name="pm0603_00" sid="pm0603_00" type="JOINT">
				<matrix>1 0 0 0 0 1 0 0 0 0 1 0 0 0 0 1</matrix>
				<node id="Origin_bone_id" name="Origin" sid="Origin" type="JOINT">
					<matrix>1 0 0 0 0 1 0 0 0 0 1 0 0 0 0 1</matrix>
					<node id="Waist_bone_id" name="Waist" sid="Waist" type="JOINT">
						<matrix>3.1391647E-07 1 -3.1391647E-07 0 0 3.1391647E-07 1 21.016323 1 -3.1391647E-07 9.854355E-14 -14.422478 0 0 0 1</matrix>
						<node id="Tail01_bone_id" name="Tail01" sid="Tail01" type="JOINT">
							<matrix>-1 0 -3.2584137E-07 0 0 1 0 0 3.2584137E-07 0 -1 0 0 0 0 1</matrix>
							<node id="Tail02_bone_id" name="Tail02" sid="Tail02" type="JOINT">
								<matrix>1 0 0 13.936262 0 1 0 0 0 0 1 0 0 0 0 1</matrix>
								<node id="Tail03_bone_id" name="Tail03" sid="Tail03" type="JOINT">
									<matrix>1 0 0 11.94112 0 1 0 0 0 0 1 0 0 0 0 1</matrix>
									<node id="Tail04_bone_id" name="Tail04" sid="Tail04" type="JOINT">
										<matrix>1 0 0 11.248874 0 1 0 0 0 0 1 0 0 0 0 1</matrix>
										<node id="Tail05_bone_id" name="Tail05" sid="Tail05" type="JOINT">
											<matrix>1 0 0 10.607751 0 1 0 0 0 0 1 0 0 0 0 1</matrix>
											<node id="Tail06_bone_id" name="Tail06" sid="Tail06" type="JOINT">
												<matrix>1 0 0 10.359151 0 1 0 0 0 0 1 0 0 0 0 1</matrix>
												<node id="Tail07_bone_id" name="Tail07" sid="Tail07" type="JOINT">
													<matrix>1 0 0 9.934331 0 1 0 0 0 0 1 0 0 0 0 1</matrix>
													<node id="Tail08_bone_id" name="Tail08" sid="Tail08" type="JOINT">
														<matrix>1 0 0 9.099471 0 1 0 0 0 0 1 2.4E-05 0 0 0 1</matrix>
													</node>
												</node>
											</node>
										</node>
									</node>
								</node>
							</node>
						</node>
						<node id="LowerFeeler_bone_id" name="LowerFeeler" sid="LowerFeeler" type="JOINT">
							<matrix>3.1391647E-07 0 1 9.146466 0 1 0 0 -1 0 3.1391647E-07 -7.723567 0 0 0 1</matrix>
						</node>
						<node id="UpperFeeler_bone_id" name="UpperFeeler" sid="UpperFeeler" type="JOINT">
							<matrix>3.1391647E-07 3.2584137E-07 1 9.146466 0 -1 3.2584137E-07 0 1 -1.02286974E-13 -3.1391647E-07 8.983676 0 0 0 1</matrix>
						</node>
						<node id="Head_bone_id" name="Head" sid="Head" type="JOINT">
							<matrix>1 0 0 17.610138 0 1 0 0 0 0 1 0 0 0 0 1</matrix>
							<node id="Jaw_bone_id" name="Jaw" sid="Jaw" type="JOINT">
								<matrix>1 0 0 5.082268 0 1 0 0 0 0 1 0 0 0 0 1</matrix>
								<node id="UpperTeeth_bone_id" name="UpperTeeth" sid="UpperTeeth" type="JOINT">
									<matrix>0.8632476 -1.6447845E-07 0.50478077 -3.502812 0 -1 -3.2584137E-07 0 0.50478077 2.8128179E-07 -0.8632476 1.318256 0 0 0 1</matrix>
								</node>
								<node id="LowerTeeth_bone_id" name="LowerTeeth" sid="LowerTeeth" type="JOINT">
									<matrix>0.86324704 0 0.50478166 -3.502817 0 1 0 0 -0.50478166 0 0.86324704 -1.318277 0 0 0 1</matrix>
								</node>
								<node id="LTeeth_bone_id" name="LTeeth" sid="LTeeth" type="JOINT">
									<matrix>0.86324704 -1.5845929E-07 0.50478166 -3.410913 0.50478166 2.7098747E-07 -0.86324704 1.318 0 1 3.1391647E-07 -0.081179 0 0 0 1</matrix>
								</node>
								<node id="RTeeth_bone_id" name="RTeeth" sid="RTeeth" type="JOINT">
									<matrix>0.8632476 1.58459E-07 0.50478077 -3.410913 -0.50478077 2.7098764E-07 0.8632476 -1.318 0 -1 3.1391647E-07 -0.081179 0 0 0 1</matrix>
								</node>
							</node>
						</node>
					</node>
				</node>
				<node id="pm0603_00_Skin_bone_id" name="pm0603_00_Skin" sid="pm0603_00_Skin" type="JOINT">
					<matrix>1 0 0 0 0 1 0 0 0 0 1 0 0 0 0 1</matrix>
				</node>
			</node>
			<node id="vsn_mesh_0_PressShadowMaterial_PressShadow_id" name="vsn_mesh_0_PressShadowMaterial_PressShadow" type="NODE">
				<matrix>1 0 0 0 0 1 0 0 0 0 1 0 0 0 0 1</matrix>
				<instance_controller url="#mesh_0_PressShadowMaterial_PressShadow_ctrl_id">
					<skeleton>#pm0603_00_bone_id</skeleton>
					<bind_material>
						<technique_common>
							<instance_material symbol="PressShadowMaterial_PressShadow" target="#PressShadowMaterial_PressShadow_mat_id" />
						</technique_common>
					</bind_material>
				</instance_controller>
			</node>
		</visual_scene>
	</library_visual_scenes>
	<scene>
		<instance_visual_scene url="#vs_model_id" />
	</scene>
</COLLADA>