<?xml version="1.0" encoding="utf-8"?>
<COLLADA xmlns:xsi="http://www.w3.org/2001/XMLSchema-instance" xmlns:xsd="http://www.w3.org/2001/XMLSchema" version="1.4.1" xmlns="http://www.collada.org/2005/11/COLLADASchema">
  <asset>
    <created>2026-02-17T05:46:47.0955745-05:00</created>
    <modified>2026-02-17T05:46:47.0955746-05:00</modified>
    <up_axis>Y_UP</up_axis>
  </asset>
  <library_animations>
    <animation id="Motion_7_Waist_transform_id" name="Motion_7_Waist_transform">
      <source id="Motion_7_Waist_transform_frame_id" name="Motion_7_Waist_transform_frame">
        <float_array id="Motion_7_Waist_transform_frame_array_id" count="16">0 0.033333335 0.06666667 0.1 0.13333334 0.16666667 0.2 0.23333333 0.26666668 0.3 0.33333334 0.36666667 0.4 0.43333334 0.46666667 0.5</float_array>
        <technique_common>
          <accessor source="#Motion_7_Waist_transform_frame_array_id" count="16" stride="1">
            <param name="TIME" type="float" />
          </accessor>
        </technique_common>
      </source>
      <source id="Motion_7_Waist_transform_interp_id" name="Motion_7_Waist_transform_interp">
        <Name_array id="Motion_7_Waist_transform_interp_array_id" count="16">LINEAR LINEAR LINEAR LINEAR LINEAR LINEAR LINEAR LINEAR LINEAR LINEAR LINEAR LINEAR LINEAR LINEAR LINEAR LINEAR</Name_array>
        <technique_common>
          <accessor source="#Motion_7_Waist_transform_interp_array_id" count="16" stride="1">
            <param name="INTERPOLATION" type="Name" />
          </accessor>
        </technique_common>
      </source>
      <source id="Motion_7_Waist_transform_pose_id" name="Motion_7_Waist_transform_pose">
        <float_array id="Motion_7_Waist_transform_pose_array_id" count="256">5.9604645E-08 -0.99999994 0 -0.00022452138 0.99999994 5.9604645E-08 0 90.1061 0 0 1 0 0 0 0 1 0.001046896 -0.9999994 9.0462185E-05 -0.025835434 0.9999989 0.0010470152 0.0009960586 90.09495 -0.0009961528 8.941931E-05 0.9999995 0.1445588 0 0 0 1 0.0030326247 -0.99999535 0.00021877931 -0.055229053 0.99999225 0.0030331612 0.0025122166 90.079285 -0.0025128685 0.000211159 0.99999684 0.51696604 0 0 0 1 0.006213844 -0.99998057 0.00040536746 -0.078412786 0.99996936 0.0062156916 0.0047493586 90.05976 -0.004751786 0.0003758436 0.9999886 1.0526855 0 0 0 1 0.010059655 -0.99994916 0.0006580048 -0.08539401 0.9999209 0.010064304 0.007539493 90.03701 -0.007545733 0.0005821083 0.9999714 1.6564494 0 0 0 1 0.014169335 -0.9998992 0.00096424716 -0.06618015 0.9998444 0.014178693 0.010498514 90.01168 -0.010511128 0.0008153403 0.99994445 2.23299 0 0 0 1 0.018142879 -0.99983454 0.0013128533 -0.010778578 0.99974394 0.018158972 0.013502896 89.98443 -0.0135245025 0.001067536 0.999908 2.717832 0 0 0 1 0.021922886 -0.99975824 0.0016920366 0.08058475 0.99962413 0.021947742 0.01642906 89.95588 -0.016462224 0.0013312274 0.9998636 3.0509367 0 0 0 1 0.025859237 -0.9996633 0.0021108324 0.19145104 0.9994742 0.025895536 0.019509252 89.92669 -0.019557346 0.0016052295 0.9998075 3.3627224 0 0 0 1 0.03016299 -0.9995416 0.0025735563 0.30746362 0.99928087 0.03021413 0.02290757 89.89751 -0.02297483 0.0018807463 0.9997343 3.652735 0 0 0 1 0.034778178 -0.9993903 0.0030605877 0.4142658 0.9990439 0.03484696 0.026398098 89.868965 -0.026488658 0.002139585 0.99964684 3.9153614 0 0 0 1 0.03928125 -0.9992219 0.0035443017 0.5055969 0.9987817 0.039369464 0.029753795 89.84171 -0.029870182 0.0023712162 0.999551 4.14499 0 0 0 1 0.043333054 -0.9990527 0.0039934814 0.58099663 0.9985191 0.04344082 0.032747243 89.81641 -0.0328897 0.002568529 0.9994557 4.3360066 0 0 0 1 0.046596587 -0.9989042 0.0043733064 0.6348091 0.99828935 0.046721816 0.035150677 89.79534 -0.03531649 0.0027279202 0.9993725 4.482801 0 0 0 1 0.04873538 -0.99880093 0.0046468507 0.6613784 0.9981292 0.048873544 0.036736194 89.7797 -0.03691925 0.0028478056 0.9993142 4.578587 0 0 0 1 0.04873538 -0.99880093 0.0046468507 0.6613784 0.9981292 0.048873544 0.036736194 89.7797 -0.03691925 0.0028478056 0.9993142 4.578587 0 0 0 1</float_array>
        <technique_common>
          <accessor source="#Motion_7_Waist_transform_pose_array_id" count="16" stride="16">
            <param name="TRANSFORM" type="float4x4" />
          </accessor>
        </technique_common>
      </source>
      <sampler id="Motion_7_Waist_transform_samp_id">
        <input semantic="INPUT" source="#Motion_7_Waist_transform_frame_id" />
        <input semantic="INTERPOLATION" source="#Motion_7_Waist_transform_interp_id" />
        <input semantic="OUTPUT" source="#Motion_7_Waist_transform_pose_id" />
      </sampler>
      <channel source="#Motion_7_Waist_transform_samp_id" target="Waist_bone_id/transform" />
    </animation>
    <animation id="Motion_7_Hips_transform_id" name="Motion_7_Hips_transform">
      <source id="Motion_7_Hips_transform_frame_id" name="Motion_7_Hips_transform_frame">
        <float_array id="Motion_7_Hips_transform_frame_array_id" count="16">0 0.033333335 0.06666667 0.1 0.13333334 0.16666667 0.2 0.23333333 0.26666668 0.3 0.33333334 0.36666667 0.4 0.43333334 0.46666667 0.5</float_array>
        <technique_common>
          <accessor source="#Motion_7_Hips_transform_frame_array_id" count="16" stride="1">
            <param name="TIME" type="float" />
          </accessor>
        </technique_common>
      </source>
      <source id="Motion_7_Hips_transform_interp_id" name="Motion_7_Hips_transform_interp">
        <Name_array id="Motion_7_Hips_transform_interp_array_id" count="16">LINEAR LINEAR LINEAR LINEAR LINEAR LINEAR LINEAR LINEAR LINEAR LINEAR LINEAR LINEAR LINEAR LINEAR LINEAR LINEAR</Name_array>
        <technique_common>
          <accessor source="#Motion_7_Hips_transform_interp_array_id" count="16" stride="1">
            <param name="INTERPOLATION" type="Name" />
          </accessor>
        </technique_common>
      </source>
      <source id="Motion_7_Hips_transform_pose_id" name="Motion_7_Hips_transform_pose">
        <float_array id="Motion_7_Hips_transform_pose_array_id" count="256">-1 -1.509958E-07 0 -0.010002 1.509958E-07 -1 0 0 0 0 1 0 0 0 0 1 -0.9999981 0.0014822084 0.0010571617 -0.010002 -0.0014824615 -0.9999987 -0.00023869544 0 0.0010568067 -0.00024026225 0.9999994 0 0 0 0 1 -0.99998796 0.003943231 0.0028384603 -0.010002 -0.0039447546 -0.9999919 -0.0005313684 0 0.0028363424 -0.0005425592 0.9999958 0 0 0 0 1 -0.9999584 0.0073184394 0.0054531274 -0.010002 -0.007323311 -0.99997294 -0.00087391096 0 0.005446583 -0.0009138095 0.99998474 0 0 0 0 1 -0.9998957 0.011544464 0.008672526 -0.010002 -0.011555828 -0.9999324 -0.0012614375 0 0.008657377 -0.0013615242 0.9999616 0 0 0 0 1 -0.99978864 0.016554635 0.012180705 -0.010002 -0.016576428 -0.9998611 -0.0016902752 0 0.012151031 -0.0018918306 0.99992436 0 0 0 0 1 -0.9996244 0.022283938 0.015954709 -0.010002 -0.022321116 -0.99974847 -0.0021560637 0 0.015902651 -0.002511381 0.9998704 0 0 0 0 1 -0.9993892 0.028666446 0.01997164 -0.010002 -0.028725067 -0.9995835 -0.0026545255 0 0.019887233 -0.0032265917 0.99979705 0 0 0 0 1 -0.99907184 0.035635337 0.024208747 -0.010002 -0.0357226 -0.99935687 -0.003181647 0 0.024079792 -0.0040434925 0.99970186 0 0 0 0 1 -0.9986683 0.042898502 0.028645162 -0.010002 -0.043022815 -0.9990667 -0.0037373195 0 0.028458115 -0.0049647395 0.99958265 0 0 0 0 1 -0.9981699 0.05050689 0.03325848 -0.010002 -0.05067788 -0.99870574 -0.004318048 0 0.032997344 -0.005995614 0.99943745 0 0 0 0 1 -0.9975387 0.05891194 0.03802208 -0.010002 -0.059140418 -0.9982374 -0.00491161 0 0.037665717 -0.0071481634 0.99926484 0 0 0 0 1 -0.99676025 0.06802234 0.042913143 -0.010002 -0.068320304 -0.997648 -0.005513714 0 0.042437162 -0.008427691 0.9990636 0 0 0 0 1 -0.9959426 0.07634276 0.04765128 -0.010002 -0.07672152 -0.9970337 -0.0061682663 0 0.04703902 -0.009799116 0.998845 0 0 0 0 1 -0.99529743 0.08219468 0.051258847 -0.010002 -0.08265761 -0.9965539 -0.006974184 0 0.050508946 -0.011178319 0.99866104 0 0 0 0 1 -0.99529743 0.08219468 0.051258847 -0.010002 -0.08265761 -0.9965539 -0.006974184 0 0.050508946 -0.011178319 0.99866104 0 0 0 0 1</float_array>
        <technique_common>
          <accessor source="#Motion_7_Hips_transform_pose_array_id" count="16" stride="16">
            <param name="TRANSFORM" type="float4x4" />
          </accessor>
        </technique_common>
      </source>
      <sampler id="Motion_7_Hips_transform_samp_id">
        <input semantic="INPUT" source="#Motion_7_Hips_transform_frame_id" />
        <input semantic="INTERPOLATION" source="#Motion_7_Hips_transform_interp_id" />
        <input semantic="OUTPUT" source="#Motion_7_Hips_transform_pose_id" />
      </sampler>
      <channel source="#Motion_7_Hips_transform_samp_id" target="Hips_bone_id/transform" />
    </animation>
    <animation id="Motion_7_RThigh_transform_id" name="Motion_7_RThigh_transform">
      <source id="Motion_7_RThigh_transform_frame_id" name="Motion_7_RThigh_transform_frame">
        <float_array id="Motion_7_RThigh_transform_frame_array_id" count="16">0 0.033333335 0.06666667 0.1 0.13333334 0.16666667 0.2 0.23333333 0.26666668 0.3 0.33333334 0.36666667 0.4 0.43333334 0.46666667 0.5</float_array>
        <technique_common>
          <accessor source="#Motion_7_RThigh_transform_frame_array_id" count="16" stride="1">
            <param name="TIME" type="float" />
          </accessor>
        </technique_common>
      </source>
      <source id="Motion_7_RThigh_transform_interp_id" name="Motion_7_RThigh_transform_interp">
        <Name_array id="Motion_7_RThigh_transform_interp_array_id" count="16">LINEAR LINEAR LINEAR LINEAR LINEAR LINEAR LINEAR LINEAR LINEAR LINEAR LINEAR LINEAR LINEAR LINEAR LINEAR LINEAR</Name_array>
        <technique_common>
          <accessor source="#Motion_7_RThigh_transform_interp_array_id" count="16" stride="1">
            <param name="INTERPOLATION" type="Name" />
          </accessor>
        </technique_common>
      </source>
      <source id="Motion_7_RThigh_transform_pose_id" name="Motion_7_RThigh_transform_pose">
        <float_array id="Motion_7_RThigh_transform_pose_array_id" count="256">0.9972632 0.06445155 -0.036223125 11.299995 -0.068655305 0.98910016 -0.13025855 -7.8 0.027432935 0.13238896 0.99081814 0 0 0 0 1 0.9973407 0.06496643 -0.03302998 11.299995 -0.068758614 0.9890094 -0.13089187 -7.8 0.024163382 0.13281487 0.9908463 0 0 0 0 1 0.9975256 0.06608683 -0.023984587 11.299995 -0.06868768 0.9888612 -0.1320437 -7.8 0.014991077 0.13336442 0.9909537 0 0 0 0 1 0.9976342 0.06799162 -0.0101614725 11.299995 -0.06874006 0.9886422 -0.1336465 -7.8 0.0009592185 0.1340288 0.990977 0 0 0 0 1 0.9974671 0.07081432 0.0066855205 11.299995 -0.06925719 0.9883376 -0.13561806 -7.8 -0.016211253 0.13481152 0.99073863 0 0 0 0 1 0.9968868 0.07471326 0.025192188 11.299995 -0.07055703 0.9879295 -0.13790213 -7.8 -0.035191223 0.13569532 0.9901254 0 0 0 0 1 0.9959383 0.079699464 0.041891105 11.299995 -0.07311127 0.9873951 -0.14037696 -7.8 -0.05255104 0.13674408 0.9892115 0 0 0 0 1 0.99485475 0.085812055 0.053854633 11.299995 -0.077371664 0.98670375 -0.14293131 -7.8 -0.0654038 0.13802907 0.98826635 0 0 0 0 1 0.99362546 0.092489064 0.06445287 11.299995 -0.082323134 0.98590606 -0.14564382 -7.8 -0.07701494 0.13940944 0.98723537 0 0 0 0 1 0.99213696 0.09927836 0.076210536 11.299995 -0.08715731 0.9850537 -0.14856909 -7.8 -0.08982117 0.14075859 0.985961 0 0 0 0 1 0.99043363 0.10656068 0.08766989 11.299995 -0.09245665 0.98410195 -0.15164143 -7.8 -0.10243512 0.1420851 0.9845399 0 0 0 0 1 0.98861355 0.114711426 0.097388335 11.299995 -0.09881074 0.9829933 -0.15479194 -7.8 -0.11348849 0.1434064 0.9831353 0 0 0 0 1 0.9867869 0.123713344 0.10462585 11.299995 -0.10632901 0.9817052 -0.15795286 -7.8 -0.12225261 0.14474104 0.9818882 0 0 0 0 1 0.9851261 0.13208672 0.10990778 11.299995 -0.113509074 0.980427 -0.16086808 -7.8 -0.1290051 0.14599982 0.9808373 0 0 0 0 1 0.98388183 0.13802168 0.113695174 11.299995 -0.11852764 0.97943175 -0.16329299 -7.8 -0.13389464 0.14718498 0.9800045 0 0 0 0 1 0.98388183 0.13802168 0.113695174 11.299995 -0.11852764 0.97943175 -0.16329299 -7.8 -0.13389464 0.14718498 0.9800045 0 0 0 0 1</float_array>
        <technique_common>
          <accessor source="#Motion_7_RThigh_transform_pose_array_id" count="16" stride="16">
            <param name="TRANSFORM" type="float4x4" />
          </accessor>
        </technique_common>
      </source>
      <sampler id="Motion_7_RThigh_transform_samp_id">
        <input semantic="INPUT" source="#Motion_7_RThigh_transform_frame_id" />
        <input semantic="INTERPOLATION" source="#Motion_7_RThigh_transform_interp_id" />
        <input semantic="OUTPUT" source="#Motion_7_RThigh_transform_pose_id" />
      </sampler>
      <channel source="#Motion_7_RThigh_transform_samp_id" target="RThigh_bone_id/transform" />
    </animation>
    <animation id="Motion_7_RLeg_transform_id" name="Motion_7_RLeg_transform">
      <source id="Motion_7_RLeg_transform_frame_id" name="Motion_7_RLeg_transform_frame">
        <float_array id="Motion_7_RLeg_transform_frame_array_id" count="16">0 0.033333335 0.06666667 0.1 0.13333334 0.16666667 0.2 0.23333333 0.26666668 0.3 0.33333334 0.36666667 0.4 0.43333334 0.46666667 0.5</float_array>
        <technique_common>
          <accessor source="#Motion_7_RLeg_transform_frame_array_id" count="16" stride="1">
            <param name="TIME" type="float" />
          </accessor>
        </technique_common>
      </source>
      <source id="Motion_7_RLeg_transform_interp_id" name="Motion_7_RLeg_transform_interp">
        <Name_array id="Motion_7_RLeg_transform_interp_array_id" count="16">LINEAR LINEAR LINEAR LINEAR LINEAR LINEAR LINEAR LINEAR LINEAR LINEAR LINEAR LINEAR LINEAR LINEAR LINEAR LINEAR</Name_array>
        <technique_common>
          <accessor source="#Motion_7_RLeg_transform_interp_array_id" count="16" stride="1">
            <param name="INTERPOLATION" type="Name" />
          </accessor>
        </technique_common>
      </source>
      <source id="Motion_7_RLeg_transform_pose_id" name="Motion_7_RLeg_transform_pose">
        <float_array id="Motion_7_RLeg_transform_pose_array_id" count="256">0.99276876 0 0.12004244 34.3 0 1 0 0 -0.12004244 0 0.99276876 0 0 0 0 1 0.9926075 0 0.12136876 34.3 0 1 0 0 -0.12136876 0 0.9926075 0 0 0 0 1 0.99244803 0 0.12266563 34.3 0 1 0 0 -0.12266563 0 0.99244803 0 0 0 0 1 0.9924387 0 0.122741304 34.3 0 1 0 0 -0.122741304 0 0.9924387 0 0 0 0 1 0.992725 0 0.12040371 34.3 0 1 0 0 -0.12040371 0 0.992725 0 0 0 0 1 0.9934292 0 0.11444826 34.3 0 1 0 0 -0.11444826 0 0.9934292 0 0 0 0 1 0.99402285 0 0.10917225 34.3 0 1 0 0 -0.10917225 0 0.99402285 0 0 0 0 1 0.9939819 0 0.109544374 34.3 0 1 0 0 -0.109544374 0 0.9939819 0 0 0 0 1 0.9936962 0 0.11210639 34.3 0 1 0 0 -0.11210639 0 0.9936962 0 0 0 0 1 0.993617 0 0.11280628 34.3 0 1 0 0 -0.11280628 0 0.993617 0 0 0 0 1 0.99347365 0 0.11406162 34.3 0 1 0 0 -0.11406162 0 0.99347365 0 0 0 0 1 0.9928894 0 0.11904067 34.3 0 1 0 0 -0.11904067 0 0.9928894 0 0 0 0 1 0.9919598 0 0.12655339 34.3 0 1 0 0 -0.12655339 0 0.9919598 0 0 0 0 1 0.9909545 0 0.1341983 34.3 0 1 0 0 -0.1341983 0 0.9909545 0 0 0 0 1 0.9902104 0 0.13958256 34.3 0 1 0 0 -0.13958256 0 0.9902104 0 0 0 0 1 0.9902104 0 0.13958256 34.3 0 1 0 0 -0.13958256 0 0.9902104 0 0 0 0 1</float_array>
        <technique_common>
          <accessor source="#Motion_7_RLeg_transform_pose_array_id" count="16" stride="16">
            <param name="TRANSFORM" type="float4x4" />
          </accessor>
        </technique_common>
      </source>
      <sampler id="Motion_7_RLeg_transform_samp_id">
        <input semantic="INPUT" source="#Motion_7_RLeg_transform_frame_id" />
        <input semantic="INTERPOLATION" source="#Motion_7_RLeg_transform_interp_id" />
        <input semantic="OUTPUT" source="#Motion_7_RLeg_transform_pose_id" />
      </sampler>
      <channel source="#Motion_7_RLeg_transform_samp_id" target="RLeg_bone_id/transform" />
    </animation>
    <animation id="Motion_7_RFoot_transform_id" name="Motion_7_RFoot_transform">
      <source id="Motion_7_RFoot_transform_frame_id" name="Motion_7_RFoot_transform_frame">
        <float_array id="Motion_7_RFoot_transform_frame_array_id" count="16">0 0.033333335 0.06666667 0.1 0.13333334 0.16666667 0.2 0.23333333 0.26666668 0.3 0.33333334 0.36666667 0.4 0.43333334 0.46666667 0.5</float_array>
        <technique_common>
          <accessor source="#Motion_7_RFoot_transform_frame_array_id" count="16" stride="1">
            <param name="TIME" type="float" />
          </accessor>
        </technique_common>
      </source>
      <source id="Motion_7_RFoot_transform_interp_id" name="Motion_7_RFoot_transform_interp">
        <Name_array id="Motion_7_RFoot_transform_interp_array_id" count="16">LINEAR LINEAR LINEAR LINEAR LINEAR LINEAR LINEAR LINEAR LINEAR LINEAR LINEAR LINEAR LINEAR LINEAR LINEAR LINEAR</Name_array>
        <technique_common>
          <accessor source="#Motion_7_RFoot_transform_interp_array_id" count="16" stride="1">
            <param name="INTERPOLATION" type="Name" />
          </accessor>
        </technique_common>
      </source>
      <source id="Motion_7_RFoot_transform_pose_id" name="Motion_7_RFoot_transform_pose">
        <float_array id="Motion_7_RFoot_transform_pose_array_id" count="256">-0.07569814 -0.073720135 -0.99440193 34.3 -0.11830012 0.9908838 -0.06445381 0 0.99008834 0.11275883 -0.08372915 0 0 0 0 1 -0.079271674 -0.07448284 -0.9940666 34.3 -0.1181948 0.9908726 -0.064818114 0 0.9898212 0.11235526 -0.08735168 0 0 0 0 1 -0.08532107 -0.075828046 -0.99346393 34.3 -0.11800887 0.9908504 -0.06549369 0 0.98934036 0.11164956 -0.09348881 0 0 0 0 1 -0.09358728 -0.07770048 -0.9925744 34.3 -0.11773181 0.99081886 -0.06646241 0 0.9886256 0.110637546 -0.10187578 0 0 0 0 1 -0.101908565 -0.07996038 -0.991575 34.3 -0.11732269 0.99077415 -0.067838036 0 0.98785126 0.10942098 -0.110349536 0 0 0 0 1 -0.10878885 -0.08250362 -0.99063534 34.3 -0.11674708 0.99071366 -0.06968931 0 0.98718554 0.10807236 -0.11741066 0 0 0 0 1 -0.11428177 -0.08529704 -0.9897799 34.3 -0.1159927 0.9906386 -0.07197832 0 0.98665375 0.10658143 -0.123105764 0 0 0 0 1 -0.11955762 -0.0883529 -0.98888814 34.3 -0.11506817 0.9905532 -0.074589804 0 0.98613656 0.104871765 -0.12859476 0 0 0 0 1 -0.1247977 -0.0916398 -0.98794115 34.3 -0.113965675 0.990459 -0.077477105 0 0.98561525 0.10292242 -0.13405085 0 0 0 0 1 -0.13018358 -0.095052704 -0.9869231 34.3 -0.11275068 0.99035615 -0.080510564 0 0.98505807 0.1007951 -0.13964534 0 0 0 0 1 -0.13589609 -0.098425 -0.98582184 34.3 -0.111549914 0.99024546 -0.08348943 0 0.98442304 0.098622456 -0.14554977 0 0 0 0 1 -0.14267886 -0.10165159 -0.9845353 34.3 -0.11046267 0.9901333 -0.086221315 0 0.98358566 0.09645244 -0.1524998 0 0 0 0 1 -0.1502068 -0.10459059 -0.9831067 34.3 -0.10955974 0.99002475 -0.08858718 0 0.98256534 0.09440252 -0.16016734 0 0 0 0 1 -0.15705752 -0.10707111 -0.98176813 34.3 -0.10887476 0.9899233 -0.09054335 0 0.98156977 0.092669256 -0.16713226 0 0 0 0 1 -0.16182184 -0.108807094 -0.9808031 34.3 -0.10830925 0.9898565 -0.0919416 0 0.98085815 0.09135189 -0.17196512 0 0 0 0 1 -0.16182184 -0.108807094 -0.9808031 34.3 -0.10830925 0.9898565 -0.0919416 0 0.98085815 0.09135189 -0.17196512 0 0 0 0 1</float_array>
        <technique_common>
          <accessor source="#Motion_7_RFoot_transform_pose_array_id" count="16" stride="16">
            <param name="TRANSFORM" type="float4x4" />
          </accessor>
        </technique_common>
      </source>
      <sampler id="Motion_7_RFoot_transform_samp_id">
        <input semantic="INPUT" source="#Motion_7_RFoot_transform_frame_id" />
        <input semantic="INTERPOLATION" source="#Motion_7_RFoot_transform_interp_id" />
        <input semantic="OUTPUT" source="#Motion_7_RFoot_transform_pose_id" />
      </sampler>
      <channel source="#Motion_7_RFoot_transform_samp_id" target="RFoot_bone_id/transform" />
    </animation>
    <animation id="Motion_7_LThigh_transform_id" name="Motion_7_LThigh_transform">
      <source id="Motion_7_LThigh_transform_frame_id" name="Motion_7_LThigh_transform_frame">
        <float_array id="Motion_7_LThigh_transform_frame_array_id" count="16">0 0.033333335 0.06666667 0.1 0.13333334 0.16666667 0.2 0.23333333 0.26666668 0.3 0.33333334 0.36666667 0.4 0.43333334 0.46666667 0.5</float_array>
        <technique_common>
          <accessor source="#Motion_7_LThigh_transform_frame_array_id" count="16" stride="1">
            <param name="TIME" type="float" />
          </accessor>
        </technique_common>
      </source>
      <source id="Motion_7_LThigh_transform_interp_id" name="Motion_7_LThigh_transform_interp">
        <Name_array id="Motion_7_LThigh_transform_interp_array_id" count="16">LINEAR LINEAR LINEAR LINEAR LINEAR LINEAR LINEAR LINEAR LINEAR LINEAR LINEAR LINEAR LINEAR LINEAR LINEAR LINEAR</Name_array>
        <technique_common>
          <accessor source="#Motion_7_LThigh_transform_interp_array_id" count="16" stride="1">
            <param name="INTERPOLATION" type="Name" />
          </accessor>
        </technique_common>
      </source>
      <source id="Motion_7_LThigh_transform_pose_id" name="Motion_7_LThigh_transform_pose">
        <float_array id="Motion_7_LThigh_transform_pose_array_id" count="256">0.98898035 -0.04092176 -0.14227867 11.300003 0.053595107 0.99481666 0.08641396 7.8 0.13800499 -0.093087144 0.9860474 0 0 0 0 1 0.98925483 -0.04160132 -0.14015791 11.300003 0.054054942 0.9948059 0.08625181 7.8 0.13584173 -0.092901245 0.98636526 0 0 0 0 1 0.98985076 -0.042543195 -0.13559313 11.300003 0.05454187 0.9947976 0.08604012 7.8 0.1312273 -0.092562385 0.98702157 0 0 0 0 1 0.99086684 -0.043516725 -0.12762918 11.300003 0.054741763 0.99480706 0.08580372 7.8 0.123232506 -0.0920067 0.9881035 0 0 0 0 1 0.99209803 -0.044189148 -0.11742599 11.300003 0.05443182 0.99485004 0.08550172 7.8 0.11304301 -0.09121779 0.98939407 0 0 0 0 1 0.99338835 -0.044236805 -0.10593734 11.300003 0.053380366 0.9949422 0.085091494 7.8 0.101637356 -0.09018388 0.99072534 0 0 0 0 1 0.99464434 -0.04275702 -0.09409807 11.300003 0.0507766 0.9951245 0.08455112 7.8 0.09002415 -0.08887627 0.99196607 0 0 0 0 1 0.99584395 -0.039623775 -0.08200452 11.300003 0.046509147 0.99539393 0.083831795 7.8 0.078305066 -0.08729734 0.9930999 0 0 0 0 1 0.996948 -0.035674714 -0.06944079 11.300003 0.041401275 0.9957012 0.08285561 7.8 0.06618642 -0.08547768 0.9941393 0 0 0 0 1 0.99787647 -0.0317182 -0.056890715 11.300003 0.036308054 0.9960078 0.08154898 7.8 0.05407701 -0.0834414 0.99504435 0 0 0 0 1 0.99863434 -0.027857175 -0.04419833 11.300003 0.031328212 0.99631125 0.079890154 7.8 0.04180978 -0.08116571 0.9958233 0 0 0 0 1 0.99927837 -0.022953259 -0.030264711 11.300003 0.025256136 0.9966299 0.07804486 7.8 0.028371332 -0.078752905 0.99649036 0 0 0 0 1 0.9997468 -0.016771203 -0.0150015 11.300003 0.017866952 0.99693495 0.07616768 7.8 0.013678096 -0.076416425 0.99698216 0 0 0 0 1 0.9999415 -0.010786358 -0.0008081881 11.300003 0.010816593 0.9971802 0.07426031 7.8 4.910893E-06 -0.074264705 0.9972386 0 0 0 0 1 0.9999334 -0.006522787 0.0095169395 11.300003 0.0058169216 0.99735874 0.0723997 7.8 -0.009964051 -0.07233953 0.9973303 0 0 0 0 1 0.9999334 -0.006522787 0.0095169395 11.300003 0.0058169216 0.99735874 0.0723997 7.8 -0.009964051 -0.07233953 0.9973303 0 0 0 0 1</float_array>
        <technique_common>
          <accessor source="#Motion_7_LThigh_transform_pose_array_id" count="16" stride="16">
            <param name="TRANSFORM" type="float4x4" />
          </accessor>
        </technique_common>
      </source>
      <sampler id="Motion_7_LThigh_transform_samp_id">
        <input semantic="INPUT" source="#Motion_7_LThigh_transform_frame_id" />
        <input semantic="INTERPOLATION" source="#Motion_7_LThigh_transform_interp_id" />
        <input semantic="OUTPUT" source="#Motion_7_LThigh_transform_pose_id" />
      </sampler>
      <channel source="#Motion_7_LThigh_transform_samp_id" target="LThigh_bone_id/transform" />
    </animation>
    <animation id="Motion_7_LLeg_transform_id" name="Motion_7_LLeg_transform">
      <source id="Motion_7_LLeg_transform_frame_id" name="Motion_7_LLeg_transform_frame">
        <float_array id="Motion_7_LLeg_transform_frame_array_id" count="16">0 0.033333335 0.06666667 0.1 0.13333334 0.16666667 0.2 0.23333333 0.26666668 0.3 0.33333334 0.36666667 0.4 0.43333334 0.46666667 0.5</float_array>
        <technique_common>
          <accessor source="#Motion_7_LLeg_transform_frame_array_id" count="16" stride="1">
            <param name="TIME" type="float" />
          </accessor>
        </technique_common>
      </source>
      <source id="Motion_7_LLeg_transform_interp_id" name="Motion_7_LLeg_transform_interp">
        <Name_array id="Motion_7_LLeg_transform_interp_array_id" count="16">LINEAR LINEAR LINEAR LINEAR LINEAR LINEAR LINEAR LINEAR LINEAR LINEAR LINEAR LINEAR LINEAR LINEAR LINEAR LINEAR</Name_array>
        <technique_common>
          <accessor source="#Motion_7_LLeg_transform_interp_array_id" count="16" stride="1">
            <param name="INTERPOLATION" type="Name" />
          </accessor>
        </technique_common>
      </source>
      <source id="Motion_7_LLeg_transform_pose_id" name="Motion_7_LLeg_transform_pose">
        <float_array id="Motion_7_LLeg_transform_pose_array_id" count="256">0.98427445 0 0.17664604 34.299995 0 1 0 0 -0.17664604 0 0.98427445 0 0 0 0 1 0.9835627 0 0.1805669 34.299995 0 1 0 0 -0.1805669 0 0.9835627 0 0 0 0 1 0.98193437 0 0.18922178 34.299995 0 1 0 0 -0.18922178 0 0.98193437 0 0 0 0 1 0.97972566 0 0.20034373 34.299995 0 1 0 0 -0.20034373 0 0.97972566 0 0 0 0 1 0.97747946 0 0.2110305 34.299995 0 1 0 0 -0.2110305 0 0.97747946 0 0 0 0 1 0.97555333 0 0.2197627 34.299995 0 1 0 0 -0.2197627 0 0.97555333 0 0 0 0 1 0.97421193 0 0.22563478 34.299995 0 1 0 0 -0.22563478 0 0.97421193 0 0 0 0 1 0.9737239 0 0.22773176 34.299995 0 1 0 0 -0.22773176 0 0.9737239 0 0 0 0 1 0.9734954 0 0.22870658 34.299995 0 1 0 0 -0.22870658 0 0.9734954 0 0 0 0 1 0.9730672 0 0.23052154 34.299995 0 1 0 0 -0.23052154 0 0.9730672 0 0 0 0 1 0.9728184 0 0.23156942 34.299995 0 1 0 0 -0.23156942 0 0.9728184 0 0 0 0 1 0.9732172 0 0.2298875 34.299995 0 1 0 0 -0.2298875 0 0.9732172 0 0 0 0 1 0.9744479 0 0.22461371 34.299995 0 1 0 0 -0.22461371 0 0.9744479 0 0 0 0 1 0.9759732 0 0.21789064 34.299995 0 1 0 0 -0.21789064 0 0.9759732 0 0 0 0 1 0.9772111 0 0.21226977 34.299995 0 1 0 0 -0.21226977 0 0.9772111 0 0 0 0 1 0.9772111 0 0.21226977 34.299995 0 1 0 0 -0.21226977 0 0.9772111 0 0 0 0 1</float_array>
        <technique_common>
          <accessor source="#Motion_7_LLeg_transform_pose_array_id" count="16" stride="16">
            <param name="TRANSFORM" type="float4x4" />
          </accessor>
        </technique_common>
      </source>
      <sampler id="Motion_7_LLeg_transform_samp_id">
        <input semantic="INPUT" source="#Motion_7_LLeg_transform_frame_id" />
        <input semantic="INTERPOLATION" source="#Motion_7_LLeg_transform_interp_id" />
        <input semantic="OUTPUT" source="#Motion_7_LLeg_transform_pose_id" />
      </sampler>
      <channel source="#Motion_7_LLeg_transform_samp_id" target="LLeg_bone_id/transform" />
    </animation>
    <animation id="Motion_7_LFoot_transform_id" name="Motion_7_LFoot_transform">
      <source id="Motion_7_LFoot_transform_frame_id" name="Motion_7_LFoot_transform_frame">
        <float_array id="Motion_7_LFoot_transform_frame_array_id" count="16">0 0.033333335 0.06666667 0.1 0.13333334 0.16666667 0.2 0.23333333 0.26666668 0.3 0.33333334 0.36666667 0.4 0.43333334 0.46666667 0.5</float_array>
        <technique_common>
          <accessor source="#Motion_7_LFoot_transform_frame_array_id" count="16" stride="1">
            <param name="TIME" type="float" />
          </accessor>
        </technique_common>
      </source>
      <source id="Motion_7_LFoot_transform_interp_id" name="Motion_7_LFoot_transform_interp">
        <Name_array id="Motion_7_LFoot_transform_interp_array_id" count="16">LINEAR LINEAR LINEAR LINEAR LINEAR LINEAR LINEAR LINEAR LINEAR LINEAR LINEAR LINEAR LINEAR LINEAR LINEAR LINEAR</Name_array>
        <technique_common>
          <accessor source="#Motion_7_LFoot_transform_interp_array_id" count="16" stride="1">
            <param name="INTERPOLATION" type="Name" />
          </accessor>
        </technique_common>
      </source>
      <source id="Motion_7_LFoot_transform_pose_id" name="Motion_7_LFoot_transform_pose">
        <float_array id="Motion_7_LFoot_transform_pose_array_id" count="256">-0.030685067 0.04398016 -0.998561 34.3 0.0940117 0.9947297 0.040922508 0 0.9950981 -0.092620715 -0.034657955 0 0 0 0 1 -0.034903646 0.045031577 -0.9983757 34.3 0.09367193 0.9947339 0.041592516 0 0.99499124 -0.092068054 -0.038938046 0 0 0 0 1 -0.044844866 0.04672865 -0.9979005 34.3 0.09315749 0.9947484 0.042394623 0 0.99464095 -0.09106073 -0.048962474 0 0 0 0 1 -0.058446884 0.048719876 -0.997101 34.3 0.09261746 0.99476516 0.043176807 0 0.9939849 -0.089825414 -0.062653184 0 0 0 0 1 -0.07347739 0.05065702 -0.9960095 34.3 0.092190325 0.9947779 0.043793336 0 0.9930267 -0.088604614 -0.07776368 0 0 0 0 1 -0.087708235 0.052206963 -0.9947773 34.3 0.09200287 0.9947819 0.04409544 0 0.9918885 -0.08765483 -0.09205377 0 0 0 0 1 -0.0989207 0.05305002 -0.99368024 34.3 0.09217302 0.9947734 0.043932572 0 0.9908173 -0.08724466 -0.10329354 0 0 0 0 1 -0.106655836 0.052934714 -0.9928858 34.3 0.09283162 0.9947502 0.043062117 0 0.9899528 -0.08757837 -0.111009955 0 0 0 0 1 -0.11282754 0.05209226 -0.9922482 34.3 0.09373181 0.99472946 0.041564383 0 0.98918366 -0.08831561 -0.1171155 0 0 0 0 1 -0.11877644 0.051016808 -0.99160945 34.3 0.0945698 0.99472034 0.039849155 0 0.98840714 -0.08904318 -0.12297392 0 0 0 0 1 -0.12415314 0.049871992 -0.991009 34.3 0.09539296 0.99471 0.038107462 0 0.9876671 -0.08980412 -0.12825382 0 0 0 0 1 -0.12777531 0.048694566 -0.99060714 34.3 0.09615512 0.99469715 0.036492884 0 0.9871311 -0.09058906 -0.13177991 0 0 0 0 1 -0.12973917 0.047567923 -0.9904065 34.3 0.09681921 0.9946832 0.035090417 0 0.98680997 -0.09133777 -0.13365483 0 0 0 0 1 -0.13013935 0.04657565 -0.99040127 34.3 0.097347274 0.99467003 0.033984922 0 0.9867053 -0.09199009 -0.13397968 0 0 0 0 1 -0.1295209 0.045820124 -0.9905175 34.3 0.0977009 0.9946607 0.033236336 0 0.9867517 -0.09246965 -0.13330603 0 0 0 0 1 -0.1295209 0.045820124 -0.9905175 34.3 0.0977009 0.9946607 0.033236336 0 0.9867517 -0.09246965 -0.13330603 0 0 0 0 1</float_array>
        <technique_common>
          <accessor source="#Motion_7_LFoot_transform_pose_array_id" count="16" stride="16">
            <param name="TRANSFORM" type="float4x4" />
          </accessor>
        </technique_common>
      </source>
      <sampler id="Motion_7_LFoot_transform_samp_id">
        <input semantic="INPUT" source="#Motion_7_LFoot_transform_frame_id" />
        <input semantic="INTERPOLATION" source="#Motion_7_LFoot_transform_interp_id" />
        <input semantic="OUTPUT" source="#Motion_7_LFoot_transform_pose_id" />
      </sampler>
      <channel source="#Motion_7_LFoot_transform_samp_id" target="LFoot_bone_id/transform" />
    </animation>
    <animation id="Motion_7_Spine2_transform_id" name="Motion_7_Spine2_transform">
      <source id="Motion_7_Spine2_transform_frame_id" name="Motion_7_Spine2_transform_frame">
        <float_array id="Motion_7_Spine2_transform_frame_array_id" count="16">0 0.033333335 0.06666667 0.1 0.13333334 0.16666667 0.2 0.23333333 0.26666668 0.3 0.33333334 0.36666667 0.4 0.43333334 0.46666667 0.5</float_array>
        <technique_common>
          <accessor source="#Motion_7_Spine2_transform_frame_array_id" count="16" stride="1">
            <param name="TIME" type="float" />
          </accessor>
        </technique_common>
      </source>
      <source id="Motion_7_Spine2_transform_interp_id" name="Motion_7_Spine2_transform_interp">
        <Name_array id="Motion_7_Spine2_transform_interp_array_id" count="16">LINEAR LINEAR LINEAR LINEAR LINEAR LINEAR LINEAR LINEAR LINEAR LINEAR LINEAR LINEAR LINEAR LINEAR LINEAR LINEAR</Name_array>
        <technique_common>
          <accessor source="#Motion_7_Spine2_transform_interp_array_id" count="16" stride="1">
            <param name="INTERPOLATION" type="Name" />
          </accessor>
        </technique_common>
      </source>
      <source id="Motion_7_Spine2_transform_pose_id" name="Motion_7_Spine2_transform_pose">
        <float_array id="Motion_7_Spine2_transform_pose_array_id" count="256">0.9999947 -0.0017506877 -0.0027546962 13.5 0.001750681 0.99999845 -4.821887E-06 0 0.0027547004 -7.3282536E-10 0.9999962 0 0 0 0 1 0.9999943 -0.0032326148 0.0010189433 13.5 0.003233021 0.9999947 -0.0003971087 0 -0.0010176541 0.0004004007 0.9999994 0 0 0 0 1 0.9999333 -0.005990711 0.009875807 13.5 0.0060007162 0.9999815 -0.0009837806 0 -0.009869731 0.0010429769 0.99995077 0 0 0 0 1 0.9997299 -0.010144137 0.020910114 13.5 0.010182772 0.99994665 -0.0017420202 0 -0.020891327 0.0019544726 0.9997798 0 0 0 0 1 0.99944264 -0.01507627 0.029784752 13.5 0.015162764 0.99988145 -0.0026802511 0 -0.029740812 0.0031303766 0.9995527 0 0 0 0 1 0.99923193 -0.020699307 0.033273347 13.5 0.020838484 0.99977547 -0.0038415077 0 -0.03318636 0.004531923 0.9994389 0 0 0 0 1 0.9991531 -0.026928479 0.031113323 13.5 0.027105296 0.99961865 -0.005275232 0 -0.030959405 0.0061141 0.99950194 0 0 0 0 1 0.99914694 -0.033679742 0.0238962 13.5 0.033856463 0.999402 -0.0070297336 0 -0.02364515 0.007832778 0.99968976 0 0 0 0 1 0.9990836 -0.04086684 0.012723399 13.5 0.040984664 0.999118 -0.00914171 0 -0.012338584 0.009654796 0.9998773 0 0 0 0 1 0.99883276 -0.048277948 -0.0015285446 13.5 0.04825696 0.99876714 -0.011640751 0 0.0020886515 0.0115534 0.9999311 0 0 0 0 1 0.99829555 -0.05552192 -0.01798212 13.5 0.055263966 0.99836594 -0.014538097 0 0.01875992 0.013519554 0.9997326 0 0 0 0 1 0.9974203 -0.06224036 -0.035760805 13.5 0.06163576 0.99794054 -0.01776862 0 0.036793083 0.015518637 0.99920243 0 0 0 0 1 0.9962185 -0.068069965 -0.053992435 13.5 0.067010775 0.9975271 -0.02119301 0 0.055301525 0.017494796 0.9983164 0 0 0 0 1 0.99476945 -0.07264333 -0.071810015 13.5 0.071037315 0.9971684 -0.02467463 0 0.07339912 0.019444378 0.99711305 0 0 0 0 1 0.9932168 -0.075589314 -0.088354915 13.5 0.073374376 0.9969097 -0.028057884 0 0.09020275 0.021384574 0.9956938 0 0 0 0 1 0.9932168 -0.075589314 -0.088354915 13.5 0.073374376 0.9969097 -0.028057884 0 0.09020275 0.021384574 0.9956938 0 0 0 0 1</float_array>
        <technique_common>
          <accessor source="#Motion_7_Spine2_transform_pose_array_id" count="16" stride="16">
            <param name="TRANSFORM" type="float4x4" />
          </accessor>
        </technique_common>
      </source>
      <sampler id="Motion_7_Spine2_transform_samp_id">
        <input semantic="INPUT" source="#Motion_7_Spine2_transform_frame_id" />
        <input semantic="INTERPOLATION" source="#Motion_7_Spine2_transform_interp_id" />
        <input semantic="OUTPUT" source="#Motion_7_Spine2_transform_pose_id" />
      </sampler>
      <channel source="#Motion_7_Spine2_transform_samp_id" target="Spine2_bone_id/transform" />
    </animation>
    <animation id="Motion_7_Spine3_transform_id" name="Motion_7_Spine3_transform">
      <source id="Motion_7_Spine3_transform_frame_id" name="Motion_7_Spine3_transform_frame">
        <float_array id="Motion_7_Spine3_transform_frame_array_id" count="16">0 0.033333335 0.06666667 0.1 0.13333334 0.16666667 0.2 0.23333333 0.26666668 0.3 0.33333334 0.36666667 0.4 0.43333334 0.46666667 0.5</float_array>
        <technique_common>
          <accessor source="#Motion_7_Spine3_transform_frame_array_id" count="16" stride="1">
            <param name="TIME" type="float" />
          </accessor>
        </technique_common>
      </source>
      <source id="Motion_7_Spine3_transform_interp_id" name="Motion_7_Spine3_transform_interp">
        <Name_array id="Motion_7_Spine3_transform_interp_array_id" count="16">LINEAR LINEAR LINEAR LINEAR LINEAR LINEAR LINEAR LINEAR LINEAR LINEAR LINEAR LINEAR LINEAR LINEAR LINEAR LINEAR</Name_array>
        <technique_common>
          <accessor source="#Motion_7_Spine3_transform_interp_array_id" count="16" stride="1">
            <param name="INTERPOLATION" type="Name" />
          </accessor>
        </technique_common>
      </source>
      <source id="Motion_7_Spine3_transform_pose_id" name="Motion_7_Spine3_transform_pose">
        <float_array id="Motion_7_Spine3_transform_pose_array_id" count="256">0.9958149 -0.003971357 0.09130646 13.5 0.0039547672 0.99999213 0.00036261656 0 -0.09130718 -3.1286618E-09 0.9958228 0 0 0 0 1 0.9961095 -0.0033173335 0.08806188 13.5 0.0032695008 0.9999944 0.00068740564 0 -0.088063665 -0.00039681286 0.9961148 0 0 0 0 1 0.9967895 -0.0023277064 0.08003303 13.5 0.0022444355 0.99999684 0.0011304007 0 -0.08003541 -0.0009471425 0.99679154 0 0 0 0 1 0.99762213 -0.001043638 0.06891251 13.5 0.0009298548 0.99999815 0.0016831823 0 -0.06891414 -0.0016151012 0.9976213 0 0 0 0 1 0.99836755 0.0004913317 0.05711441 13.5 -0.00062571047 0.9999971 0.0023349412 0 -0.0571131 -0.0023668665 0.9983649 0 0 0 0 1 0.99888957 0.0022297495 0.047060404 13.5 -0.0023767238 0.9999925 0.003067379 0 -0.047053207 -0.0031758226 0.99888736 0 0 0 0 1 0.9991434 0.0041195 0.04117632 13.5 -0.0042817197 0.99998343 0.0038522158 0 -0.041159764 -0.0040252213 0.9991445 0 0 0 0 1 0.9991257 0.006104873 0.041358627 13.5 -0.0063025723 0.9999693 0.0046514235 0 -0.04132896 -0.0049080225 0.9991335 0 0 0 0 1 0.9988539 0.00813304 0.047167215 13.5 -0.008398241 0.99995 0.0054271496 0 -0.047120716 -0.0058170515 0.9988723 0 0 0 0 1 0.9982927 0.010153913 0.057520486 13.5 -0.010524637 0.99992573 0.0061457977 0 -0.05745381 -0.0067406874 0.9983254 0 0 0 0 1 0.9973789 0.012119629 0.07133358 13.5 -0.012635051 0.9998972 0.0067787007 0 -0.0712441 -0.007662236 0.9974295 0 0 0 0 1 0.9960646 0.013985003 0.087519616 13.5 -0.014680059 0.9998656 0.007303088 0 -0.08740571 -0.00855914 0.996136 0 0 0 0 1 0.9943411 0.015707461 0.10506697 13.5 -0.016608035 0.9998324 0.007701987 0 -0.10492839 -0.009403358 0.9944353 0 0 0 0 1 0.9922873 0.017091693 0.12277539 13.5 -0.018208006 0.9998024 0.007976019 0 -0.1226148 -0.010149998 0.99240243 0 0 0 0 1 0.9900887 0.01801478 0.1392831 13.5 -0.01933542 0.99977994 0.008134274 0 -0.13910593 -0.010746751 0.9902192 0 0 0 0 1 0.9900887 0.01801478 0.1392831 13.5 -0.01933542 0.99977994 0.008134274 0 -0.13910593 -0.010746751 0.9902192 0 0 0 0 1</float_array>
        <technique_common>
          <accessor source="#Motion_7_Spine3_transform_pose_array_id" count="16" stride="16">
            <param name="TRANSFORM" type="float4x4" />
          </accessor>
        </technique_common>
      </source>
      <sampler id="Motion_7_Spine3_transform_samp_id">
        <input semantic="INPUT" source="#Motion_7_Spine3_transform_frame_id" />
        <input semantic="INTERPOLATION" source="#Motion_7_Spine3_transform_interp_id" />
        <input semantic="OUTPUT" source="#Motion_7_Spine3_transform_pose_id" />
      </sampler>
      <channel source="#Motion_7_Spine3_transform_samp_id" target="Spine3_bone_id/transform" />
    </animation>
    <animation id="Motion_7_RShoulder_transform_id" name="Motion_7_RShoulder_transform">
      <source id="Motion_7_RShoulder_transform_frame_id" name="Motion_7_RShoulder_transform_frame">
        <float_array id="Motion_7_RShoulder_transform_frame_array_id" count="16">0 0.033333335 0.06666667 0.1 0.13333334 0.16666667 0.2 0.23333333 0.26666668 0.3 0.33333334 0.36666667 0.4 0.43333334 0.46666667 0.5</float_array>
        <technique_common>
          <accessor source="#Motion_7_RShoulder_transform_frame_array_id" count="16" stride="1">
            <param name="TIME" type="float" />
          </accessor>
        </technique_common>
      </source>
      <source id="Motion_7_RShoulder_transform_interp_id" name="Motion_7_RShoulder_transform_interp">
        <Name_array id="Motion_7_RShoulder_transform_interp_array_id" count="16">LINEAR LINEAR LINEAR LINEAR LINEAR LINEAR LINEAR LINEAR LINEAR LINEAR LINEAR LINEAR LINEAR LINEAR LINEAR LINEAR</Name_array>
        <technique_common>
          <accessor source="#Motion_7_RShoulder_transform_interp_array_id" count="16" stride="1">
            <param name="INTERPOLATION" type="Name" />
          </accessor>
        </technique_common>
      </source>
      <source id="Motion_7_RShoulder_transform_pose_id" name="Motion_7_RShoulder_transform_pose">
        <float_array id="Motion_7_RShoulder_transform_pose_array_id" count="256">-0.44302464 -0.8919258 -0.09054172 14.18017 0.89648247 -0.44153142 -0.0370059 4.5 -0.0069704875 -0.09756358 0.99520487 -0.24023256 0 0 0 1 -0.4398589 -0.893587 -0.0895914 14.18017 0.8980186 -0.43867707 -0.033545412 4.5 -0.009325933 -0.09520998 0.99541354 -0.24023256 0 0 0 1 -0.43140423 -0.8980427 -0.08608111 14.18017 0.90203583 -0.43095315 -0.0247178 4.5 -0.014899276 -0.0883116 0.99598145 -0.24023256 0 0 0 1 -0.4186375 -0.90461904 -0.080044635 14.18017 0.90786 -0.4191141 -0.011563655 4.5 -0.023087129 -0.0775103 0.9967242 -0.24023256 0 0 0 1 -0.4030701 -0.9123551 -0.07171229 14.18017 0.9145704 -0.4044019 0.0044921003 4.5 -0.033098973 -0.0637753 0.99741524 -0.24023256 0 0 0 1 -0.3862238 -0.9203603 -0.06138599 14.18017 0.9213512 -0.38810778 0.022012165 4.5 -0.0440835 -0.04805643 0.99787134 -0.24023256 0 0 0 1 -0.36961532 -0.92786646 -0.04947998 14.18017 0.9275502 -0.37159884 0.039559215 4.5 -0.055092376 -0.03127347 0.9979914 -0.24023256 0 0 0 1 -0.3547356 -0.93425274 -0.036533315 14.18017 0.9326998 -0.35632467 0.0557134 4.5 -0.0650681 -0.014311092 0.9977782 -0.24023256 0 0 0 1 -0.34255266 -0.939222 -0.022793863 14.18017 0.9366391 -0.34330106 0.06965279 4.5 -0.07324459 0.0025101304 0.9973109 -0.24023256 0 0 0 1 -0.3323015 -0.943143 -0.007530749 14.18017 0.9397911 -0.33177495 0.08196294 4.5 -0.0798013 0.020159084 0.99660695 -0.24023256 0 0 0 1 -0.32285893 -0.9463934 0.010084979 14.18017 0.9426098 -0.3205731 0.09337931 4.5 -0.085140586 0.039654545 0.99557954 -0.24023256 0 0 0 1 -0.3137641 -0.94903517 0.029739454 14.18017 0.945225 -0.30922866 0.10453393 4.5 -0.090010084 0.060909472 0.99407655 -0.24023256 0 0 0 1 -0.30558693 -0.95084494 0.050107285 14.18017 0.94743735 -0.29841137 0.11538323 4.5 -0.09475897 0.0827331 0.9920564 -0.24023256 0 0 0 1 -0.29874694 -0.9517656 0.069948114 14.18017 0.94909996 -0.28864503 0.12606923 4.5 -0.09979818 0.10405053 0.9895523 -0.24023256 0 0 0 1 -0.29364038 -0.9518557 0.088011146 14.18017 0.9500757 -0.28044486 0.136773 4.5 -0.1055059 0.123779334 0.9866849 -0.24023256 0 0 0 1 -0.29364038 -0.9518557 0.088011146 14.18017 0.9500757 -0.28044486 0.136773 4.5 -0.1055059 0.123779334 0.9866849 -0.24023256 0 0 0 1</float_array>
        <technique_common>
          <accessor source="#Motion_7_RShoulder_transform_pose_array_id" count="16" stride="16">
            <param name="TRANSFORM" type="float4x4" />
          </accessor>
        </technique_common>
      </source>
      <sampler id="Motion_7_RShoulder_transform_samp_id">
        <input semantic="INPUT" source="#Motion_7_RShoulder_transform_frame_id" />
        <input semantic="INTERPOLATION" source="#Motion_7_RShoulder_transform_interp_id" />
        <input semantic="OUTPUT" source="#Motion_7_RShoulder_transform_pose_id" />
      </sampler>
      <channel source="#Motion_7_RShoulder_transform_samp_id" target="RShoulder_bone_id/transform" />
    </animation>
    <animation id="Motion_7_RArm_transform_id" name="Motion_7_RArm_transform">
      <source id="Motion_7_RArm_transform_frame_id" name="Motion_7_RArm_transform_frame">
        <float_array id="Motion_7_RArm_transform_frame_array_id" count="16">0 0.033333335 0.06666667 0.1 0.13333334 0.16666667 0.2 0.23333333 0.26666668 0.3 0.33333334 0.36666667 0.4 0.43333334 0.46666667 0.5</float_array>
        <technique_common>
          <accessor source="#Motion_7_RArm_transform_frame_array_id" count="16" stride="1">
            <param name="TIME" type="float" />
          </accessor>
        </technique_common>
      </source>
      <source id="Motion_7_RArm_transform_interp_id" name="Motion_7_RArm_transform_interp">
        <Name_array id="Motion_7_RArm_transform_interp_array_id" count="16">LINEAR LINEAR LINEAR LINEAR LINEAR LINEAR LINEAR LINEAR LINEAR LINEAR LINEAR LINEAR LINEAR LINEAR LINEAR LINEAR</Name_array>
        <technique_common>
          <accessor source="#Motion_7_RArm_transform_interp_array_id" count="16" stride="1">
            <param name="INTERPOLATION" type="Name" />
          </accessor>
        </technique_common>
      </source>
      <source id="Motion_7_RArm_transform_pose_id" name="Motion_7_RArm_transform_pose">
        <float_array id="Motion_7_RArm_transform_pose_array_id" count="256">0.622051 -0.77932817 -0.07549966 12.61957 0.7745258 0.59834045 0.20517905 0 -0.11472731 -0.18610828 0.975808 0 0 0 0 1 0.62109864 -0.78014344 -0.074918024 12.61957 0.7763702 0.5993751 0.19493264 0 -0.10717141 -0.17923653 0.9779512 0 0 0 0 1 0.6191367 -0.78189677 -0.0728512 12.61957 0.7804416 0.60238 0.16747932 0 -0.08706742 -0.1605487 0.9831802 0 0 0 0 1 0.6157726 -0.78489774 -0.068990275 12.61957 0.78585154 0.6054479 0.125977 0 -0.05710904 -0.13178931 0.9896313 0 0 0 0 1 0.6106559 -0.7893812 -0.06306012 12.61957 0.79162127 0.606408 0.0748667 0 -0.02085821 -0.09563753 0.99519765 0 0 0 0 1 0.6038774 -0.79519665 -0.054721825 12.61957 0.79687226 0.60385466 0.018821448 0 0.018077277 -0.05497215 0.9983242 0 0 0 0 1 0.59606814 -0.8017441 -0.043695007 12.61957 0.80097723 0.5975313 -0.037307926 0 0.05602054 -0.012760637 0.99834806 0 0 0 0 1 0.5877744 -0.8084736 -0.029860595 12.61957 0.80408895 0.5878612 -0.08865761 0 0.08923122 0.028100103 0.99561447 0 0 0 0 1 0.57949674 -0.814857 -0.013841137 12.61957 0.8068862 0.57604945 -0.13077353 0 0.114534914 0.06461461 0.99131566 0 0 0 0 1 0.5712309 -0.8207875 -0.0017780513 12.61957 0.80975693 0.5639055 -0.16218582 0 0.13412274 0.09120577 0.98675865 0 0 0 0 1 0.5625598 -0.8267558 0.0011634156 12.61957 0.8128312 0.5528266 -0.18354368 0 0.15110263 0.104199946 0.9830109 0 0 0 0 1 0.5535468 -0.8328121 -0.0031712055 12.61957 0.81620336 0.54325634 -0.19668405 0 0.16552363 0.10628547 0.9804618 0 0 0 0 1 0.544701 -0.8385366 -0.012538992 12.61957 0.8197284 0.5355209 -0.20313236 0 0.1770488 0.10036782 0.979071 0 0 0 0 1 0.53662 -0.8434629 -0.024684824 12.61957 0.823204 0.5297104 -0.20430884 0 0.18540272 0.08931557 0.9785952 0 0 0 0 1 0.52998054 -0.84718794 -0.037325896 12.61957 0.8263636 0.52583337 -0.20155019 0 0.1903781 0.07597294 0.97876674 0 0 0 0 1 0.52998054 -0.84718794 -0.037325896 12.61957 0.8263636 0.52583337 -0.20155019 0 0.1903781 0.07597294 0.97876674 0 0 0 0 1</float_array>
        <technique_common>
          <accessor source="#Motion_7_RArm_transform_pose_array_id" count="16" stride="16">
            <param name="TRANSFORM" type="float4x4" />
          </accessor>
        </technique_common>
      </source>
      <sampler id="Motion_7_RArm_transform_samp_id">
        <input semantic="INPUT" source="#Motion_7_RArm_transform_frame_id" />
        <input semantic="INTERPOLATION" source="#Motion_7_RArm_transform_interp_id" />
        <input semantic="OUTPUT" source="#Motion_7_RArm_transform_pose_id" />
      </sampler>
      <channel source="#Motion_7_RArm_transform_samp_id" target="RArm_bone_id/transform" />
    </animation>
    <animation id="Motion_7_RForeArm_transform_id" name="Motion_7_RForeArm_transform">
      <source id="Motion_7_RForeArm_transform_frame_id" name="Motion_7_RForeArm_transform_frame">
        <float_array id="Motion_7_RForeArm_transform_frame_array_id" count="16">0 0.033333335 0.06666667 0.1 0.13333334 0.16666667 0.2 0.23333333 0.26666668 0.3 0.33333334 0.36666667 0.4 0.43333334 0.46666667 0.5</float_array>
        <technique_common>
          <accessor source="#Motion_7_RForeArm_transform_frame_array_id" count="16" stride="1">
            <param name="TIME" type="float" />
          </accessor>
        </technique_common>
      </source>
      <source id="Motion_7_RForeArm_transform_interp_id" name="Motion_7_RForeArm_transform_interp">
        <Name_array id="Motion_7_RForeArm_transform_interp_array_id" count="16">LINEAR LINEAR LINEAR LINEAR LINEAR LINEAR LINEAR LINEAR LINEAR LINEAR LINEAR LINEAR LINEAR LINEAR LINEAR LINEAR</Name_array>
        <technique_common>
          <accessor source="#Motion_7_RForeArm_transform_interp_array_id" count="16" stride="1">
            <param name="INTERPOLATION" type="Name" />
          </accessor>
        </technique_common>
      </source>
      <source id="Motion_7_RForeArm_transform_pose_id" name="Motion_7_RForeArm_transform_pose">
        <float_array id="Motion_7_RForeArm_transform_pose_array_id" count="256">0.9810363 0 -0.19382413 22.6 0 1 0 0 0.19382413 0 0.9810363 0 0 0 0 1 0.98304784 0 -0.18334933 22.6 0 1 0 0 0.18334933 0 0.98304784 0 0 0 0 1 0.98732847 0 -0.15869004 22.6 0 1 0 0 0.15869004 0 0.98732847 0 0 0 0 1 0.99178123 0 -0.12794541 22.6 0 1 0 0 0.12794541 0 0.99178123 0 0 0 0 1 0.99467933 0 -0.103019364 22.6 0 1 0 0 0.103019364 0 0.99467933 0 0 0 0 1 0.9957216 0 -0.09240426 22.6 0 1 0 0 0.09240426 0 0.9957216 0 0 0 0 1 0.99324214 0 -0.11606072 22.6 0 1 0 0 0.11606072 0 0.99324214 0 0 0 0 1 0.9845439 0 -0.17513776 22.6 0 1 0 0 0.17513776 0 0.9845439 0 0 0 0 1 0.9668495 0 -0.25534686 22.6 0 1 0 0 0.25534686 0 0.9668495 0 0 0 0 1 0.9393882 0 -0.34285527 22.6 0 1 0 0 0.34285527 0 0.9393882 0 0 0 0 1 0.89462507 0 -0.44681758 22.6 0 1 0 0 0.44681758 0 0.89462507 0 0 0 0 1 0.83190435 0 -0.554919 22.6 0 1 0 0 0.554919 0 0.83190435 0 0 0 0 1 0.7557194 0 -0.6548955 22.6 0 1 0 0 0.6548955 0 0.7557194 0 0 0 0 1 0.6750591 0 -0.7377637 22.6 0 1 0 0 0.7377637 0 0.6750591 0 0 0 0 1 0.6053504 0 -0.7959591 22.6 0 1 0 0 0.7959591 0 0.6053504 0 0 0 0 1 0.6053504 0 -0.7959591 22.6 0 1 0 0 0.7959591 0 0.6053504 0 0 0 0 1</float_array>
        <technique_common>
          <accessor source="#Motion_7_RForeArm_transform_pose_array_id" count="16" stride="16">
            <param name="TRANSFORM" type="float4x4" />
          </accessor>
        </technique_common>
      </source>
      <sampler id="Motion_7_RForeArm_transform_samp_id">
        <input semantic="INPUT" source="#Motion_7_RForeArm_transform_frame_id" />
        <input semantic="INTERPOLATION" source="#Motion_7_RForeArm_transform_interp_id" />
        <input semantic="OUTPUT" source="#Motion_7_RForeArm_transform_pose_id" />
      </sampler>
      <channel source="#Motion_7_RForeArm_transform_samp_id" target="RForeArm_bone_id/transform" />
    </animation>
    <animation id="Motion_7_RHand_transform_id" name="Motion_7_RHand_transform">
      <source id="Motion_7_RHand_transform_frame_id" name="Motion_7_RHand_transform_frame">
        <float_array id="Motion_7_RHand_transform_frame_array_id" count="16">0 0.033333335 0.06666667 0.1 0.13333334 0.16666667 0.2 0.23333333 0.26666668 0.3 0.33333334 0.36666667 0.4 0.43333334 0.46666667 0.5</float_array>
        <technique_common>
          <accessor source="#Motion_7_RHand_transform_frame_array_id" count="16" stride="1">
            <param name="TIME" type="float" />
          </accessor>
        </technique_common>
      </source>
      <source id="Motion_7_RHand_transform_interp_id" name="Motion_7_RHand_transform_interp">
        <Name_array id="Motion_7_RHand_transform_interp_array_id" count="16">LINEAR LINEAR LINEAR LINEAR LINEAR LINEAR LINEAR LINEAR LINEAR LINEAR LINEAR LINEAR LINEAR LINEAR LINEAR LINEAR</Name_array>
        <technique_common>
          <accessor source="#Motion_7_RHand_transform_interp_array_id" count="16" stride="1">
            <param name="INTERPOLATION" type="Name" />
          </accessor>
        </technique_common>
      </source>
      <source id="Motion_7_RHand_transform_pose_id" name="Motion_7_RHand_transform_pose">
        <float_array id="Motion_7_RHand_transform_pose_array_id" count="256">0.9985907 0.02986536 -0.043870755 22.600002 -0.03422521 0.9941699 -0.10224892 0 0.04056128 0.10360631 0.993791 0 0 0 0 1 0.99903023 0.029442856 -0.03273681 22.600002 -0.032253403 0.99551547 -0.0889307 0 0.029971628 0.08990034 0.9954997 0 0 0 0 1 0.9996082 0.027661942 -0.004271447 22.600002 -0.027860865 0.9979797 -0.057098437 0 0.0026833643 0.05719507 0.99835944 0 0 0 0 1 0.9991089 0.021336403 0.036416978 22.600002 -0.020772167 0.99965936 -0.015802514 0 -0.03674174 0.015031972 0.9992117 0 0 0 0 1 0.99654144 0.009071861 0.08260049 22.600002 -0.010947964 0.99969167 0.022288436 0 -0.082372814 -0.02311566 0.9963335 0 0 0 0 1 0.99177223 -0.007481969 0.1277962 22.600002 0.0018101148 0.9990104 0.044440623 0 -0.12800223 -0.043843653 0.9908043 0 0 0 0 1 0.9857611 -0.025542269 0.16620064 22.600002 0.018871663 0.99895644 0.041592266 0 -0.16708955 -0.037863556 0.9852144 0 0 0 0 1 0.980093 -0.03867568 0.19473556 22.600002 0.03928703 0.9992277 0.00072339247 0 -0.19461313 0.0069415886 0.9808555 0 0 0 0 1 0.97691715 -0.039876297 0.20986377 22.600002 0.06012149 0.9940354 -0.09098883 0 -0.20498373 0.101505876 0.9734877 0 0 0 0 1 0.97573006 -0.025556559 0.21748032 22.600002 0.07808433 0.96848434 -0.23651841 0 -0.2045817 0.24775994 0.9469749 0 0 0 0 1 0.97522175 0.002977565 0.22120944 22.600002 0.09126213 0.9054503 -0.41452506 0 -0.20152843 0.4244419 0.8827431 0 0 0 0 1 0.97631013 0.040624052 0.21252826 22.600002 0.09611106 0.7985837 -0.59416056 0 -0.1938588 0.6005113 0.7757609 0 0 0 0 1 0.98226714 0.10493532 0.15536995 22.600002 0.049949262 0.6522813 -0.75632936 0 -0.18071057 0.7506781 0.6354731 0 0 0 0 1 0.98599297 0.16396198 0.030567072 22.600002 -0.053149737 0.48259872 -0.8742274 0 -0.15809166 0.8603574 0.48455346 0 0 0 0 1 0.9796418 0.17165998 -0.10409012 22.600002 -0.15728351 0.3340752 -0.9293308 0 -0.12475496 0.92678297 0.35427332 0 0 0 0 1 0.9796418 0.17165998 -0.10409012 22.600002 -0.15728351 0.3340752 -0.9293308 0 -0.12475496 0.92678297 0.35427332 0 0 0 0 1</float_array>
        <technique_common>
          <accessor source="#Motion_7_RHand_transform_pose_array_id" count="16" stride="16">
            <param name="TRANSFORM" type="float4x4" />
          </accessor>
        </technique_common>
      </source>
      <sampler id="Motion_7_RHand_transform_samp_id">
        <input semantic="INPUT" source="#Motion_7_RHand_transform_frame_id" />
        <input semantic="INTERPOLATION" source="#Motion_7_RHand_transform_interp_id" />
        <input semantic="OUTPUT" source="#Motion_7_RHand_transform_pose_id" />
      </sampler>
      <channel source="#Motion_7_RHand_transform_samp_id" target="RHand_bone_id/transform" />
    </animation>
    <animation id="Motion_7_LShoulder_transform_id" name="Motion_7_LShoulder_transform">
      <source id="Motion_7_LShoulder_transform_frame_id" name="Motion_7_LShoulder_transform_frame">
        <float_array id="Motion_7_LShoulder_transform_frame_array_id" count="16">0 0.033333335 0.06666667 0.1 0.13333334 0.16666667 0.2 0.23333333 0.26666668 0.3 0.33333334 0.36666667 0.4 0.43333334 0.46666667 0.5</float_array>
        <technique_common>
          <accessor source="#Motion_7_LShoulder_transform_frame_array_id" count="16" stride="1">
            <param name="TIME" type="float" />
          </accessor>
        </technique_common>
      </source>
      <source id="Motion_7_LShoulder_transform_interp_id" name="Motion_7_LShoulder_transform_interp">
        <Name_array id="Motion_7_LShoulder_transform_interp_array_id" count="16">LINEAR LINEAR LINEAR LINEAR LINEAR LINEAR LINEAR LINEAR LINEAR LINEAR LINEAR LINEAR LINEAR LINEAR LINEAR LINEAR</Name_array>
        <technique_common>
          <accessor source="#Motion_7_LShoulder_transform_interp_array_id" count="16" stride="1">
            <param name="INTERPOLATION" type="Name" />
          </accessor>
        </technique_common>
      </source>
      <source id="Motion_7_LShoulder_transform_pose_id" name="Motion_7_LShoulder_transform_pose">
        <float_array id="Motion_7_LShoulder_transform_pose_array_id" count="256">-0.4453032 0.8908 -0.09044601 14.18017 -0.8953663 -0.44357467 0.039505668 -4.5 -0.0049279146 0.0985743 0.9951175 -0.24023256 0 0 0 1 -0.4426267 0.89232475 -0.08853288 14.18017 -0.8966829 -0.44116104 0.036561914 -4.5 -0.0064321533 0.0955692 0.995402 -0.24023256 0 0 0 1 -0.4354365 0.8963504 -0.08337264 14.18017 -0.9001578 -0.4346192 0.028672539 -4.5 -0.010534707 0.08753359 0.99610585 -0.24023256 0 0 0 1 -0.42458677 0.9022554 -0.07524119 14.18017 -0.9052329 -0.42458022 0.016881112 -4.5 -0.016714849 0.0752783 0.99702245 -0.24023256 0 0 0 1 -0.4114076 0.90915656 -0.06463745 14.18017 -0.9111291 -0.41211247 0.0026402846 -4.5 -0.024237473 0.059979305 0.9979053 -0.24023256 0 0 0 1 -0.39722204 0.916241 -0.052127913 14.18017 -0.9171538 -0.3983345 -0.012597424 -4.5 -0.03230662 0.04280534 0.99856097 -0.24023256 0 0 0 1 -0.38332605 0.92281526 -0.03837891 14.18017 -0.9227449 -0.38443613 -0.027394036 -4.5 -0.040033877 0.024913097 0.9988877 -0.24023256 0 0 0 1 -0.37097394 0.9283289 -0.024161983 14.18017 -0.9274818 -0.3716854 -0.040341064 -4.5 -0.046430435 0.007444313 0.9988938 -0.24023256 0 0 0 1 -0.3610102 0.9325084 -0.00998809 14.18017 -0.93117934 -0.36103725 -0.050569095 -4.5 -0.050762177 -0.008955253 0.99867064 -0.24023256 0 0 0 1 -0.35284495 0.9356704 0.0046427026 14.18017 -0.93416345 -0.35198545 -0.05869374 -4.5 -0.053283826 -0.02504683 0.99826527 -0.24023256 0 0 0 1 -0.34555888 0.9381743 0.020447481 14.18017 -0.9368152 -0.34362972 -0.06554354 -4.5 -0.054464903 -0.041804664 0.9976402 -0.24023256 0 0 0 1 -0.33875573 0.94012475 0.03754944 14.18017 -0.9392834 -0.33559358 -0.07157865 -4.5 -0.054691512 -0.05951725 0.99672794 -0.24023256 0 0 0 1 -0.33278883 0.9413885 0.05512783 14.18017 -0.94143176 -0.32829523 -0.07699522 -4.5 -0.05438421 -0.077522255 0.9955062 -0.24023256 0 0 0 1 -0.32789266 0.94192755 0.07251718 14.18017 -0.94316494 -0.32199347 -0.08221918 -4.5 -0.054094456 -0.095354736 0.9939725 -0.24023256 0 0 0 1 -0.32430983 0.9417497 0.08905245 14.18017 -0.94438744 -0.31692588 -0.08769362 -4.5 -0.05436242 -0.11253993 0.992159 -0.24023256 0 0 0 1 -0.32430983 0.9417497 0.08905245 14.18017 -0.94438744 -0.31692588 -0.08769362 -4.5 -0.05436242 -0.11253993 0.992159 -0.24023256 0 0 0 1</float_array>
        <technique_common>
          <accessor source="#Motion_7_LShoulder_transform_pose_array_id" count="16" stride="16">
            <param name="TRANSFORM" type="float4x4" />
          </accessor>
        </technique_common>
      </source>
      <sampler id="Motion_7_LShoulder_transform_samp_id">
        <input semantic="INPUT" source="#Motion_7_LShoulder_transform_frame_id" />
        <input semantic="INTERPOLATION" source="#Motion_7_LShoulder_transform_interp_id" />
        <input semantic="OUTPUT" source="#Motion_7_LShoulder_transform_pose_id" />
      </sampler>
      <channel source="#Motion_7_LShoulder_transform_samp_id" target="LShoulder_bone_id/transform" />
    </animation>
    <animation id="Motion_7_LArm_transform_id" name="Motion_7_LArm_transform">
      <source id="Motion_7_LArm_transform_frame_id" name="Motion_7_LArm_transform_frame">
        <float_array id="Motion_7_LArm_transform_frame_array_id" count="16">0 0.033333335 0.06666667 0.1 0.13333334 0.16666667 0.2 0.23333333 0.26666668 0.3 0.33333334 0.36666667 0.4 0.43333334 0.46666667 0.5</float_array>
        <technique_common>
          <accessor source="#Motion_7_LArm_transform_frame_array_id" count="16" stride="1">
            <param name="TIME" type="float" />
          </accessor>
        </technique_common>
      </source>
      <source id="Motion_7_LArm_transform_interp_id" name="Motion_7_LArm_transform_interp">
        <Name_array id="Motion_7_LArm_transform_interp_array_id" count="16">LINEAR LINEAR LINEAR LINEAR LINEAR LINEAR LINEAR LINEAR LINEAR LINEAR LINEAR LINEAR LINEAR LINEAR LINEAR LINEAR</Name_array>
        <technique_common>
          <accessor source="#Motion_7_LArm_transform_interp_array_id" count="16" stride="1">
            <param name="INTERPOLATION" type="Name" />
          </accessor>
        </technique_common>
      </source>
      <source id="Motion_7_LArm_transform_pose_id" name="Motion_7_LArm_transform_pose">
        <float_array id="Motion_7_LArm_transform_pose_array_id" count="256">0.61746955 0.7858777 -0.03358088 12.61957 -0.7783457 0.60427046 -0.17039713 0 -0.11361936 0.13135257 0.9848031 0 0 0 0 1 0.6166424 0.7867516 -0.027822278 12.61957 -0.7800312 0.6058386 -0.15655966 0 -0.10631775 0.11824357 0.98727655 0 0 0 0 1 0.6148374 0.78856766 -0.011661429 12.61957 -0.7837745 0.60932434 -0.1200891 0 -0.087592795 0.082975194 0.9926946 0 0 0 0 1 0.6118424 0.7908807 0.0125140175 12.61957 -0.788712 0.6112091 -0.06600603 0 -0.059851572 0.030515336 0.99774075 0 0 0 0 1 0.60743713 0.7932916 0.041335143 12.61957 -0.79392546 0.6080127 -0.0017312253 0 -0.026505657 -0.031765413 0.99914384 0 0 0 0 1 0.60162497 0.79557854 0.07142885 12.61957 -0.7987285 0.59817547 0.06495246 0 0.008947799 -0.09612928 0.99532866 0 0 0 0 1 0.5950537 0.7974246 0.100125685 12.61957 -0.80250067 0.58278334 0.12789151 0 0.043632254 -0.15645325 0.98672116 0 0 0 0 1 0.5882964 0.79900104 0.1245175 12.61957 -0.8052154 0.5646471 0.18111269 0 0.0744008 -0.20681135 0.97554785 0 0 0 0 1 0.58180696 0.8011789 0.1400467 12.61957 -0.8074196 0.5482389 0.21796252 0 0.097847916 -0.23988856 0.96585673 0 0 0 0 1 0.5753912 0.80608445 0.13839372 12.61957 -0.8095295 0.5371893 0.23683257 0 0.116563454 -0.24830516 0.9616431 0 0 0 0 1 0.5686193 0.8142811 0.11669769 12.61957 -0.81128156 0.53167 0.24320608 0 0.13599348 -0.23296636 0.96292907 0 0 0 0 1 0.5615419 0.8234526 0.08121846 12.61957 -0.8129356 0.5307261 0.23971972 0 0.15429309 -0.20063806 0.9674389 0 0 0 0 1 0.554659 0.8311452 0.03938318 12.61957 -0.81480724 0.53294456 0.22816494 0 0.16864914 -0.15864342 0.97282565 0 0 0 0 1 0.5490955 0.8357576 -0.0018057004 12.61957 -0.81706285 0.537265 0.20917577 0 0.17579037 -0.1133821 0.97787637 0 0 0 0 1 0.5461911 0.83695334 -0.034414627 12.61957 -0.81953484 0.5424216 0.18477392 0 0.1733144 -0.0727179 0.98217833 0 0 0 0 1 0.5461911 0.83695334 -0.034414627 12.61957 -0.81953484 0.5424216 0.18477392 0 0.1733144 -0.0727179 0.98217833 0 0 0 0 1</float_array>
        <technique_common>
          <accessor source="#Motion_7_LArm_transform_pose_array_id" count="16" stride="16">
            <param name="TRANSFORM" type="float4x4" />
          </accessor>
        </technique_common>
      </source>
      <sampler id="Motion_7_LArm_transform_samp_id">
        <input semantic="INPUT" source="#Motion_7_LArm_transform_frame_id" />
        <input semantic="INTERPOLATION" source="#Motion_7_LArm_transform_interp_id" />
        <input semantic="OUTPUT" source="#Motion_7_LArm_transform_pose_id" />
      </sampler>
      <channel source="#Motion_7_LArm_transform_samp_id" target="LArm_bone_id/transform" />
    </animation>
    <animation id="Motion_7_LForeArm_transform_id" name="Motion_7_LForeArm_transform">
      <source id="Motion_7_LForeArm_transform_frame_id" name="Motion_7_LForeArm_transform_frame">
        <float_array id="Motion_7_LForeArm_transform_frame_array_id" count="16">0 0.033333335 0.06666667 0.1 0.13333334 0.16666667 0.2 0.23333333 0.26666668 0.3 0.33333334 0.36666667 0.4 0.43333334 0.46666667 0.5</float_array>
        <technique_common>
          <accessor source="#Motion_7_LForeArm_transform_frame_array_id" count="16" stride="1">
            <param name="TIME" type="float" />
          </accessor>
        </technique_common>
      </source>
      <source id="Motion_7_LForeArm_transform_interp_id" name="Motion_7_LForeArm_transform_interp">
        <Name_array id="Motion_7_LForeArm_transform_interp_array_id" count="16">LINEAR LINEAR LINEAR LINEAR LINEAR LINEAR LINEAR LINEAR LINEAR LINEAR LINEAR LINEAR LINEAR LINEAR LINEAR LINEAR</Name_array>
        <technique_common>
          <accessor source="#Motion_7_LForeArm_transform_interp_array_id" count="16" stride="1">
            <param name="INTERPOLATION" type="Name" />
          </accessor>
        </technique_common>
      </source>
      <source id="Motion_7_LForeArm_transform_pose_id" name="Motion_7_LForeArm_transform_pose">
        <float_array id="Motion_7_LForeArm_transform_pose_array_id" count="256">0.95951647 8.4260835E-05 -0.28165245 22.6 -8.265045E-05 1 1.7597482E-05 0 0.28165245 6.393625E-06 0.95951647 0 0 0 0 1 0.96364444 8.749063E-05 -0.26718795 22.6 -8.585351E-05 1 1.7809078E-05 0 0.26718795 5.7774078E-06 0.96364444 0 0 0 0 1 0.97251123 8.709161E-05 -0.23285599 22.6 -8.481498E-05 1 1.9789451E-05 0 0.23285599 5.0421113E-07 0.97251123 0 0 0 0 1 0.9818077 8.0987054E-05 -0.18987787 22.6 -7.803789E-05 1 2.3008706E-05 0 0.18987787 -7.772458E-06 0.9818077 0 0 0 0 1 0.9879187 6.7306515E-05 -0.15497307 22.6 -6.3854946E-05 1 2.7250046E-05 0 0.15497307 -1.7025033E-05 0.9879187 0 0 0 0 1 0.990138 4.4539353E-05 -0.1400957 22.6 -4.049248E-05 1 3.1736974E-05 0 0.1400957 -2.5751162E-05 0.990138 0 0 0 0 1 0.98812526 1.1388852E-05 -0.15365063 22.6 -6.1236433E-06 1 3.4740668E-05 0 0.15365063 -3.338723E-05 0.98812526 0 0 0 0 1 0.9814186 -3.357589E-05 -0.19187887 22.6 4.073373E-05 1 3.3359345E-05 0 0.19187887 -4.0555427E-05 0.9814186 0 0 0 0 1 0.96841645 -9.188784E-05 -0.24933827 22.6 0.0001010833 1 2.4075263E-05 0 0.24933827 -4.8518814E-05 0.96841645 0 0 0 0 1 0.9467466 -0.00016501527 -0.32197967 22.6 0.0001752712 1 2.8640043E-06 0 0.32197967 -5.9145248E-05 0.9467466 0 0 0 0 1 0.9113561 -0.00025392795 -0.41161877 22.6 0.00026258535 0.99999994 -3.5516336E-05 0 0.41161877 -7.571703E-05 0.9113561 0 0 0 0 1 0.8611152 -0.00035952055 -0.5084098 22.6 0.00036108872 0.99999994 -9.555585E-05 0 0.5084098 -0.000101296435 0.8611153 0 0 0 0 1 0.80016327 -0.0004828481 -0.59978205 22.6 0.00046876253 0.9999999 -0.00017966764 0 0.59978205 -0.00013739188 0.8001634 0 0 0 0 1 0.73484176 -0.0006252834 -0.67823833 22.6 0.0005844122 0.99999976 -0.00028873736 0 0.67823833 -0.00018419446 0.73484194 0 0 0 0 1 0.67571765 -0.00078974396 -0.7371601 22.6 0.00070958957 0.99999964 -0.00042088755 0 0.7371602 -0.00023868005 0.67571795 0 0 0 0 1 0.67571765 -0.00078974396 -0.7371601 22.6 0.00070958957 0.99999964 -0.00042088755 0 0.7371602 -0.00023868005 0.67571795 0 0 0 0 1</float_array>
        <technique_common>
          <accessor source="#Motion_7_LForeArm_transform_pose_array_id" count="16" stride="16">
            <param name="TRANSFORM" type="float4x4" />
          </accessor>
        </technique_common>
      </source>
      <sampler id="Motion_7_LForeArm_transform_samp_id">
        <input semantic="INPUT" source="#Motion_7_LForeArm_transform_frame_id" />
        <input semantic="INTERPOLATION" source="#Motion_7_LForeArm_transform_interp_id" />
        <input semantic="OUTPUT" source="#Motion_7_LForeArm_transform_pose_id" />
      </sampler>
      <channel source="#Motion_7_LForeArm_transform_samp_id" target="LForeArm_bone_id/transform" />
    </animation>
    <animation id="Motion_7_LHand_transform_id" name="Motion_7_LHand_transform">
      <source id="Motion_7_LHand_transform_frame_id" name="Motion_7_LHand_transform_frame">
        <float_array id="Motion_7_LHand_transform_frame_array_id" count="16">0 0.033333335 0.06666667 0.1 0.13333334 0.16666667 0.2 0.23333333 0.26666668 0.3 0.33333334 0.36666667 0.4 0.43333334 0.46666667 0.5</float_array>
        <technique_common>
          <accessor source="#Motion_7_LHand_transform_frame_array_id" count="16" stride="1">
            <param name="TIME" type="float" />
          </accessor>
        </technique_common>
      </source>
      <source id="Motion_7_LHand_transform_interp_id" name="Motion_7_LHand_transform_interp">
        <Name_array id="Motion_7_LHand_transform_interp_array_id" count="16">LINEAR LINEAR LINEAR LINEAR LINEAR LINEAR LINEAR LINEAR LINEAR LINEAR LINEAR LINEAR LINEAR LINEAR LINEAR LINEAR</Name_array>
        <technique_common>
          <accessor source="#Motion_7_LHand_transform_interp_array_id" count="16" stride="1">
            <param name="INTERPOLATION" type="Name" />
          </accessor>
        </technique_common>
      </source>
      <source id="Motion_7_LHand_transform_pose_id" name="Motion_7_LHand_transform_pose">
        <float_array id="Motion_7_LHand_transform_pose_array_id" count="256">0.996388 -0.06935972 -0.048991222 22.600002 0.0714404 0.99655694 0.042078055 0 0.04590402 -0.045426026 0.99791247 0 0 0 0 1 0.9973009 -0.061515905 -0.04008314 22.600002 0.06264269 0.9976574 0.027488414 0 0.038298264 -0.029925138 0.99881816 0 0 0 0 1 0.9990105 -0.040460944 -0.018462619 22.600002 0.040315032 0.9991533 -0.008208011 0 0.01877909 0.0074555683 0.99979585 0 0 0 0 1 0.99989694 -0.009836903 0.01045772 22.600002 0.010397131 0.99843556 -0.054939788 0 -0.009900921 0.05504286 0.9984349 0 0 0 0 1 0.99890953 0.02328552 0.04046649 22.600002 -0.019255925 0.99507254 -0.097261995 0 -0.04253189 0.09637672 0.9944358 0 0 0 0 1 0.9962533 0.052404262 0.068797804 22.600002 -0.043627597 0.9913981 -0.123395614 0 -0.07467247 0.11993181 0.9899699 0 0 0 0 1 0.99255115 0.07655929 0.09476782 22.600002 -0.06483702 0.9905169 -0.12112982 0 -0.10314273 0.114083074 0.98810256 0 0 0 0 1 0.98864406 0.094456404 0.116879895 22.600002 -0.086208075 0.9935452 -0.07373037 0 -0.12308976 0.062817104 0.99040544 0 0 0 0 1 0.98562974 0.101828806 0.13477716 22.600002 -0.10692448 0.99378043 0.03110668 0 -0.13077134 -0.04507065 0.99038756 0 0 0 0 1 0.98393005 0.09441745 0.15154858 22.600002 -0.12377113 0.9724053 0.19775905 0 -0.12869473 -0.21333842 0.968465 0 0 0 0 1 0.9835439 0.071321696 0.16599615 22.600002 -0.13336623 0.90642685 0.40075406 0 -0.121880904 -0.41629747 0.90102243 0 0 0 0 1 0.9863356 0.030276269 0.16194294 22.600002 -0.12313886 0.7885024 0.6025785 0 -0.10944857 -0.61428607 0.7814561 0 0 0 0 1 0.99487257 -0.041332643 0.09230485 22.600002 -0.04607099 0.6272683 0.77743936 0 -0.090033524 -0.77770567 0.6221478 0 0 0 0 1 0.99600285 -0.084268816 -0.029615419 22.600002 0.06461225 0.4507926 0.8902872 0 -0.061673045 -0.88864213 0.45443553 0 0 0 0 1 0.98615134 -0.0741411 -0.14835307 22.600002 0.16415888 0.30902368 0.93677974 0 -0.023609284 -0.94816005 0.31691504 0 0 0 0 1 0.98615134 -0.0741411 -0.14835307 22.600002 0.16415888 0.30902368 0.93677974 0 -0.023609284 -0.94816005 0.31691504 0 0 0 0 1</float_array>
        <technique_common>
          <accessor source="#Motion_7_LHand_transform_pose_array_id" count="16" stride="16">
            <param name="TRANSFORM" type="float4x4" />
          </accessor>
        </technique_common>
      </source>
      <sampler id="Motion_7_LHand_transform_samp_id">
        <input semantic="INPUT" source="#Motion_7_LHand_transform_frame_id" />
        <input semantic="INTERPOLATION" source="#Motion_7_LHand_transform_interp_id" />
        <input semantic="OUTPUT" source="#Motion_7_LHand_transform_pose_id" />
      </sampler>
      <channel source="#Motion_7_LHand_transform_samp_id" target="LHand_bone_id/transform" />
    </animation>
    <animation id="Motion_7_Neck_transform_id" name="Motion_7_Neck_transform">
      <source id="Motion_7_Neck_transform_frame_id" name="Motion_7_Neck_transform_frame">
        <float_array id="Motion_7_Neck_transform_frame_array_id" count="16">0 0.033333335 0.06666667 0.1 0.13333334 0.16666667 0.2 0.23333333 0.26666668 0.3 0.33333334 0.36666667 0.4 0.43333334 0.46666667 0.5</float_array>
        <technique_common>
          <accessor source="#Motion_7_Neck_transform_frame_array_id" count="16" stride="1">
            <param name="TIME" type="float" />
          </accessor>
        </technique_common>
      </source>
      <source id="Motion_7_Neck_transform_interp_id" name="Motion_7_Neck_transform_interp">
        <Name_array id="Motion_7_Neck_transform_interp_array_id" count="16">LINEAR LINEAR LINEAR LINEAR LINEAR LINEAR LINEAR LINEAR LINEAR LINEAR LINEAR LINEAR LINEAR LINEAR LINEAR LINEAR</Name_array>
        <technique_common>
          <accessor source="#Motion_7_Neck_transform_interp_array_id" count="16" stride="1">
            <param name="INTERPOLATION" type="Name" />
          </accessor>
        </technique_common>
      </source>
      <source id="Motion_7_Neck_transform_pose_id" name="Motion_7_Neck_transform_pose">
        <float_array id="Motion_7_Neck_transform_pose_array_id" count="256">0.9344344 0 -0.35613522 16.800177 0 1 0 0 0.35613522 0 0.9344344 0 0 0 0 1 0.9357761 -0.00029266672 -0.35259455 16.800177 0.00043074257 0.9999999 0.00031314144 0 0.35259444 -0.00044490775 0.9357761 0 0 0 0 1 0.9384474 -0.0007261768 -0.34542128 16.800177 0.0010787832 0.99999905 0.0008285683 0 0.3454204 -0.0011502025 0.93844736 0 0 0 0 1 0.9428583 -0.0012841222 -0.33319157 16.800177 0.001904611 0.999997 0.001535633 0 0.3331886 -0.0020824848 0.9428579 0 0 0 0 1 0.9483519 -0.0019507778 -0.31721416 16.800177 0.0028677278 0.99999297 0.0024237605 0 0.3172072 -0.003208262 0.94835085 0 0 0 0 1 0.9544826 -0.0027101191 -0.29825425 16.800177 0.003927214 0.99998623 0.0034815108 0 0.29824072 -0.0044943495 0.9544801 0 0 0 0 1 0.9608363 -0.00354434 -0.2770939 16.800177 0.0050427625 0.9999763 0.004695208 0 0.27707064 -0.0059086448 0.9608314 0 0 0 0 1 0.96705276 -0.0044328235 -0.2545374 16.800177 0.006175588 0.9999626 0.0060480745 0 0.2545011 -0.0074207257 0.967044 0 0 0 0 1 0.97284085 -0.0053514196 -0.23141308 16.800177 0.0072892644 0.99994516 0.0075197467 0 0.23136015 -0.009002348 0.97282654 0 0 0 0 1 0.9779872 -0.0062720086 -0.20857081 16.800177 0.008350456 0.9999238 0.009086159 0 0.20849794 -0.010627809 0.97796506 0 0 0 0 1 0.9823571 -0.007162327 -0.18687776 16.800177 0.009329487 0.999899 0.010719752 0 0.18678212 -0.012274098 0.98232466 0 0 0 0 1 0.98588854 -0.007986015 -0.1672125 16.800177 0.010200694 0.9998712 0.012389986 0 0.16709201 -0.013920829 0.985843 0 0 0 0 1 0.98857796 -0.008702837 -0.15045889 16.800177 0.010942508 0.9998412 0.014064087 0 0.15031259 -0.015549844 0.9885162 0 0 0 0 1 0.99045825 -0.009269062 -0.13750084 16.800177 0.011537248 0.99981004 0.015707992 0 0.13732912 -0.017144494 0.99037707 0 0 0 0 1 0.99156934 -0.009637988 -0.12921816 16.800177 0.011970627 0.9997789 0.017287431 0 0.12902299 -0.01868851 0.9914655 0 0 0 0 1 0.99156934 -0.009637988 -0.12921816 16.800177 0.011970627 0.9997789 0.017287431 0 0.12902299 -0.01868851 0.9914655 0 0 0 0 1</float_array>
        <technique_common>
          <accessor source="#Motion_7_Neck_transform_pose_array_id" count="16" stride="16">
            <param name="TRANSFORM" type="float4x4" />
          </accessor>
        </technique_common>
      </source>
      <sampler id="Motion_7_Neck_transform_samp_id">
        <input semantic="INPUT" source="#Motion_7_Neck_transform_frame_id" />
        <input semantic="INTERPOLATION" source="#Motion_7_Neck_transform_interp_id" />
        <input semantic="OUTPUT" source="#Motion_7_Neck_transform_pose_id" />
      </sampler>
      <channel source="#Motion_7_Neck_transform_samp_id" target="Neck_bone_id/transform" />
    </animation>
    <animation id="Motion_7_Head_transform_id" name="Motion_7_Head_transform">
      <source id="Motion_7_Head_transform_frame_id" name="Motion_7_Head_transform_frame">
        <float_array id="Motion_7_Head_transform_frame_array_id" count="16">0 0.033333335 0.06666667 0.1 0.13333334 0.16666667 0.2 0.23333333 0.26666668 0.3 0.33333334 0.36666667 0.4 0.43333334 0.46666667 0.5</float_array>
        <technique_common>
          <accessor source="#Motion_7_Head_transform_frame_array_id" count="16" stride="1">
            <param name="TIME" type="float" />
          </accessor>
        </technique_common>
      </source>
      <source id="Motion_7_Head_transform_interp_id" name="Motion_7_Head_transform_interp">
        <Name_array id="Motion_7_Head_transform_interp_array_id" count="16">LINEAR LINEAR LINEAR LINEAR LINEAR LINEAR LINEAR LINEAR LINEAR LINEAR LINEAR LINEAR LINEAR LINEAR LINEAR LINEAR</Name_array>
        <technique_common>
          <accessor source="#Motion_7_Head_transform_interp_array_id" count="16" stride="1">
            <param name="INTERPOLATION" type="Name" />
          </accessor>
        </technique_common>
      </source>
      <source id="Motion_7_Head_transform_pose_id" name="Motion_7_Head_transform_pose">
        <float_array id="Motion_7_Head_transform_pose_array_id" count="256">0.9630499 3.633302E-07 0.26932296 5.1201954 -3.633302E-07 1 -4.9847518E-08 0 -0.26932296 -4.9847518E-08 0.9630499 0 0 0 0 1 0.96477175 0.0018476642 0.26308188 5.1201954 -0.0019431295 0.9999981 0.00010268937 0 -0.26308116 -0.0006102739 0.96477354 0 0 0 0 1 0.9689393 0.0046552713 0.24725486 5.1201954 -0.004841613 0.99998826 0.0001456489 0 -0.24725129 -0.0013382372 0.96895045 0 0 0 0 1 0.97426677 0.0076368763 0.22526853 5.1201954 -0.007885958 0.9999689 0.00020592549 0 -0.22525994 -0.0019770847 0.9742967 0 0 0 0 1 0.97926015 0.009989422 0.20236044 5.1201954 -0.010263234 0.9999473 0.00030382164 0 -0.20234673 -0.002374393 0.97931105 0 0 0 0 1 0.9832107 0.010898106 0.18214822 5.1201954 -0.011158595 0.99993765 0.00040528935 0 -0.18213245 -0.002431003 0.983271 0 0 0 0 1 0.98674244 0.009551117 0.16201265 5.1201954 -0.009757003 0.99995226 0.00047519314 0 -0.16200037 -0.0020496512 0.9867886 0 0 0 0 1 0.99022365 0.0057933745 0.13936837 5.1201954 -0.005906182 0.9999825 0.00039584129 0 -0.13936363 -0.0012151063 0.9902405 0 0 0 0 1 0.9931482 0.0004538375 0.11686078 5.1201954 -0.00045153912 0.9999999 -4.614223E-05 0 -0.11686079 -6.941138E-06 0.9931483 0 0 0 0 1 0.9951394 -0.00579642 0.098305486 5.1201954 0.0059224716 0.999982 -0.0009904739 0 -0.098297976 0.0015678711 0.9951558 0 0 0 0 1 0.99608535 -0.012285759 0.08753852 5.1201954 0.012520733 0.99991935 -0.0021356544 0 -0.087505214 0.0032233405 0.99615884 0 0 0 0 1 0.99603546 -0.018323842 0.08704978 5.1201954 0.018663399 0.99982107 -0.0030883672 0 -0.086977616 0.004700768 0.9961992 0 0 0 0 1 0.9953141 -0.023216162 0.09386584 5.1201954 0.0236809 0.99971217 -0.0038400744 0 -0.09374967 0.006044908 0.99557745 0 0 0 0 1 0.99425346 -0.02689067 0.10361947 5.1201954 0.027497308 0.99961203 -0.0044302037 0 -0.10346015 0.0072540017 0.99460715 0 0 0 0 1 0.9932601 -0.03000654 0.11195522 5.1201954 0.030748732 0.9995151 -0.0049082134 0 -0.11175365 0.008317614 0.99370116 0 0 0 0 1 0.9932601 -0.03000654 0.11195522 5.1201954 0.030748732 0.9995151 -0.0049082134 0 -0.11175365 0.008317614 0.99370116 0 0 0 0 1</float_array>
        <technique_common>
          <accessor source="#Motion_7_Head_transform_pose_array_id" count="16" stride="16">
            <param name="TRANSFORM" type="float4x4" />
          </accessor>
        </technique_common>
      </source>
      <sampler id="Motion_7_Head_transform_samp_id">
        <input semantic="INPUT" source="#Motion_7_Head_transform_frame_id" />
        <input semantic="INTERPOLATION" source="#Motion_7_Head_transform_interp_id" />
        <input semantic="OUTPUT" source="#Motion_7_Head_transform_pose_id" />
      </sampler>
      <channel source="#Motion_7_Head_transform_samp_id" target="Head_bone_id/transform" />
    </animation>
  </library_animations>
  <library_visual_scenes>
    <visual_scene id="tr0063_00_fi_00_clip_id" name="tr0063_00_fi_00_clip">
      <node id="tr0063_00_fi_bone_id" name="tr0063_00_fi" sid="tr0063_00_fi" type="JOINT">
        <matrix sid="transform">1 0 0 0 0 1 0 0 0 0 1 0 0 0 0 1</matrix>
        <node id="Origin_bone_id" name="Origin" sid="Origin" type="JOINT">
          <matrix sid="transform">1 0 0 0 0 1 0 0 0 0 1 0 0 0 0 1</matrix>
          <node id="Waist_bone_id" name="Waist" sid="Waist" type="JOINT">
            <matrix sid="transform">3.1391647E-07 -1 0 0 1 3.1391647E-07 0 90.6 0 0 1 0 0 0 0 1</matrix>
            <node id="Spine2_bone_id" name="Spine2" sid="Spine2" type="JOINT">
              <matrix sid="transform">1 0 0 13.5 0 1 0 0 0 0 1 0 0 0 0 1</matrix>
              <node id="Spine3_bone_id" name="Spine3" sid="Spine3" type="JOINT">
                <matrix sid="transform">0.99582267 0 0.091308646 13.5 0 1 0 0 -0.091308646 0 0.99582267 0 0 0 0 1</matrix>
                <node id="Neck_bone_id" name="Neck" sid="Neck" type="JOINT">
                  <matrix sid="transform">0.9344343 0 -0.35613555 16.800177 0 1 0 0 0.35613555 0 0.9344343 0 0 0 0 1</matrix>
                  <node id="Head_bone_id" name="Head" sid="Head" type="JOINT">
                    <matrix sid="transform">0.9630491 0 0.2693259 5.120195 0 1 0 0 -0.2693259 0 0.9630491 0 0 0 0 1</matrix>
                    <node id="Loc_Head_bone_id" name="Loc_Head" sid="Loc_Head" type="JOINT">
                      <matrix sid="transform">3.1391647E-07 1 0 33.088493 -1 3.1391647E-07 0 0 0 0 1 0.155 0 0 0 1</matrix>
                    </node>
                    <node id="Loc_Eye_bone_id" name="Loc_Eye" sid="Loc_Eye" type="JOINT">
                      <matrix sid="transform">3.1391647E-07 1 0 10.198341 -1 3.1391647E-07 0 0 0 0 1 13.582737 0 0 0 1</matrix>
                    </node>
                    <node id="Loc_Mouth_bone_id" name="Loc_Mouth" sid="Loc_Mouth" type="JOINT">
                      <matrix sid="transform">3.1391647E-07 1 0 0.474586 -1 3.1391647E-07 0 0 0 0 1 12.860065 0 0 0 1</matrix>
                    </node>
                  </node>
                </node>
                <node id="LShoulder_bone_id" name="LShoulder" sid="LShoulder" type="JOINT">
                  <matrix sid="transform">-0.44190192 0.8924043 -0.09130862 14.18017 -0.89614785 -0.44375566 -2.0772681E-07 -4.5 -0.040518906 0.08182593 0.9958226 -0.240233 0 0 0 1</matrix>
                  <node id="LArm_bone_id" name="LArm" sid="LArm" type="JOINT">
                    <matrix sid="transform">0.8961479 -0.44375545 0 12.61957 0.44375545 0.8961479 0 0 0 0 1 0 0 0 0 1</matrix>
                    <node id="LForeArm_bone_id" name="LForeArm" sid="LForeArm" type="JOINT">
                      <matrix sid="transform">1 0 0 22.6 0 1 0 0 0 0 1 0 0 0 0 1</matrix>
                      <node id="LHand_bone_id" name="LHand" sid="LHand" type="JOINT">
                        <matrix sid="transform">1 0 0 22.600002 0 1 0 0 0 0 1 0 0 0 0 1</matrix>
                      </node>
                    </node>
                  </node>
                </node>
                <node id="RShoulder_bone_id" name="RShoulder" sid="RShoulder" type="JOINT">
                  <matrix sid="transform">-0.44190192 -0.8924043 -0.09130862 14.18017 0.89614785 -0.44375566 2.0772681E-07 4.5 -0.040518906 -0.08182593 0.9958226 -0.240233 0 0 0 1</matrix>
                  <node id="RArm_bone_id" name="RArm" sid="RArm" type="JOINT">
                    <matrix sid="transform">0.8961479 0.44375545 0 12.61957 -0.44375545 0.8961479 0 0 0 0 1 0 0 0 0 1</matrix>
                    <node id="RForeArm_bone_id" name="RForeArm" sid="RForeArm" type="JOINT">
                      <matrix sid="transform">1 0 0 22.6 0 1 0 0 0 0 1 0 0 0 0 1</matrix>
                      <node id="RHand_bone_id" name="RHand" sid="RHand" type="JOINT">
                        <matrix sid="transform">1 0 0 22.600002 0 1 0 0 0 0 1 0 0 0 0 1</matrix>
                      </node>
                    </node>
                  </node>
                </node>
              </node>
            </node>
            <node id="Hips_bone_id" name="Hips" sid="Hips" type="JOINT">
              <matrix sid="transform">-1 -3.2584137E-07 0 -0.010002 3.2584137E-07 -1 0 0 0 0 1 0 0 0 0 1</matrix>
              <node id="LThigh_bone_id" name="LThigh" sid="LThigh" type="JOINT">
                <matrix sid="transform">1 0 0 11.300003 0 1 0 7.8 0 0 1 0 0 0 0 1</matrix>
                <node id="LLeg_bone_id" name="LLeg" sid="LLeg" type="JOINT">
                  <matrix sid="transform">1 0 0 34.299995 0 1 0 0 0 0 1 0 0 0 0 1</matrix>
                  <node id="LFoot_bone_id" name="LFoot" sid="LFoot" type="JOINT">
                    <matrix sid="transform">3.1391647E-07 0 -1 34.3 0 1 0 0 1 0 3.1391647E-07 0 0 0 0 1</matrix>
                  </node>
                </node>
              </node>
              <node id="RThigh_bone_id" name="RThigh" sid="RThigh" type="JOINT">
                <matrix sid="transform">1 0 0 11.299995 0 1 0 -7.8 0 0 1 0 0 0 0 1</matrix>
                <node id="RLeg_bone_id" name="RLeg" sid="RLeg" type="JOINT">
                  <matrix sid="transform">1 0 0 34.3 0 1 0 0 0 0 1 0 0 0 0 1</matrix>
                  <node id="RFoot_bone_id" name="RFoot" sid="RFoot" type="JOINT">
                    <matrix sid="transform">3.1391647E-07 0 -1 34.3 0 1 0 0 1 0 3.1391647E-07 0 0 0 0 1</matrix>
                  </node>
                </node>
              </node>
            </node>
          </node>
          <node id="CamTgtHead_bone_id" name="CamTgtHead" sid="CamTgtHead" type="JOINT">
            <matrix sid="transform">1 0 0 0 0 1 0 149.45934 0 0 1 0 0 0 0 1</matrix>
          </node>
          <node id="CamTgtBust_bone_id" name="CamTgtBust" sid="CamTgtBust" type="JOINT">
            <matrix sid="transform">1 0 0 0 0 1 0 117.6 0 0 1 0 0 0 0 1</matrix>
          </node>
          <node id="CamTgtBody_bone_id" name="CamTgtBody" sid="CamTgtBody" type="JOINT">
            <matrix sid="transform">1 0 0 0 0 1 0 90.6 0 0 1 0 0 0 0 1</matrix>
          </node>
          <node id="CamTgtFoot_bone_id" name="CamTgtFoot" sid="CamTgtFoot" type="JOINT">
            <matrix sid="transform">1 0 0 0 0 1 0 0 0 0 1 0 0 0 0 1</matrix>
          </node>
        </node>
        <node id="tr0063_00_fi_HeadSkin_bone_id" name="tr0063_00_fi_HeadSkin" sid="tr0063_00_fi_HeadSkin" type="JOINT">
          <matrix sid="transform">1 0 0 0 0 1 0 0 0 0 1 0 0 0 0 1</matrix>
        </node>
        <node id="tr0063_00_fi_FaceSkin_bone_id" name="tr0063_00_fi_FaceSkin" sid="tr0063_00_fi_FaceSkin" type="JOINT">
          <matrix sid="transform">1 0 0 0 0 1 0 0 0 0 1 0 0 0 0 1</matrix>
        </node>
        <node id="tr0063_00_fi_BodySkin_bone_id" name="tr0063_00_fi_BodySkin" sid="tr0063_00_fi_BodySkin" type="JOINT">
          <matrix sid="transform">1 0 0 0 0 1 0 0 0 0 1 0 0 0 0 1</matrix>
        </node>
        <node id="tr0063_00_fi_BotSkin_bone_id" name="tr0063_00_fi_BotSkin" sid="tr0063_00_fi_BotSkin" type="JOINT">
          <matrix sid="transform">1 0 0 0 0 1 0 0 0 0 1 0 0 0 0 1</matrix>
        </node>
      </node>
    </visual_scene>
  </library_visual_scenes>
  <scene>
    <instance_visual_scene url="#tr0063_00_fi_00_clip_id" />
  </scene>
</COLLADA>