<?xml version="1.0" encoding="utf-8"?>
<COLLADA xmlns:xsi="http://www.w3.org/2001/XMLSchema-instance" xmlns:xsd="http://www.w3.org/2001/XMLSchema" version="1.4.1" xmlns="http://www.collada.org/2005/11/COLLADASchema">
  <asset>
    <created>2026-02-17T05:46:49.390035-05:00</created>
    <modified>2026-02-17T05:46:49.3900352-05:00</modified>
    <up_axis>Y_UP</up_axis>
  </asset>
  <library_animations>
    <animation id="Motion_24_Waist_transform_id" name="Motion_24_Waist_transform">
      <source id="Motion_24_Waist_transform_frame_id" name="Motion_24_Waist_transform_frame">
        <float_array id="Motion_24_Waist_transform_frame_array_id" count="16">0 0.033333335 0.06666667 0.1 0.13333334 0.16666667 0.2 0.23333333 0.26666668 0.3 0.33333334 0.36666667 0.4 0.43333334 0.46666667 0.5</float_array>
        <technique_common>
          <accessor source="#Motion_24_Waist_transform_frame_array_id" count="16" stride="1">
            <param name="TIME" type="float" />
          </accessor>
        </technique_common>
      </source>
      <source id="Motion_24_Waist_transform_interp_id" name="Motion_24_Waist_transform_interp">
        <Name_array id="Motion_24_Waist_transform_interp_array_id" count="16">LINEAR LINEAR LINEAR LINEAR LINEAR LINEAR LINEAR LINEAR LINEAR LINEAR LINEAR LINEAR LINEAR LINEAR LINEAR LINEAR</Name_array>
        <technique_common>
          <accessor source="#Motion_24_Waist_transform_interp_array_id" count="16" stride="1">
            <param name="INTERPOLATION" type="Name" />
          </accessor>
        </technique_common>
      </source>
      <source id="Motion_24_Waist_transform_pose_id" name="Motion_24_Waist_transform_pose">
        <float_array id="Motion_24_Waist_transform_pose_array_id" count="256">-0.0051333904 -0.99997395 -0.0050826725 -2.8252602E-05 0.9988716 -0.004887581 -0.04724188 88.603874 0.047215804 -0.0053194463 0.99887055 0 0 0 0 1 -0.005076885 -0.99987495 -0.014979022 0.018864736 0.9985019 -0.004252672 -0.054552794 88.55484 0.054482274 -0.015233537 0.99839854 0.18936749 0 0 0 1 -0.0059354305 -0.99926937 -0.037755065 0.04514868 0.9973519 -0.003178835 -0.07265784 88.43316 0.07248474 -0.038086336 0.99664205 0.6639296 0 0 0 1 -0.007979274 -0.9979806 -0.06301707 0.08205187 0.9953902 -0.0019036531 -0.09589002 88.27162 0.09557642 -0.063491695 0.99339515 1.2827989 0 0 0 1 -0.010529399 -0.99670374 -0.08044112 0.12994611 0.9929391 -0.0009160042 -0.11862148 88.11908 0.11815679 -0.081122145 0.9896758 1.9051805 0 0 0 1 -0.011560082 -0.99662834 -0.081229664 0.23302445 0.9911794 -0.000695467 -0.1325252 88.0067 0.13202187 -0.082045175 0.98784554 2.454874 0 0 0 1 -0.011808991 -0.9969335 -0.07735736 0.2843293 0.9898258 -0.00068438053 -0.14228316 87.920616 0.1417939 -0.07825053 0.9867985 3.0509238 0 0 0 1 -0.012028813 -0.9972264 -0.07344998 0.18509375 0.9883124 -0.0006933212 -0.15244058 87.84215 0.15196684 -0.074425176 0.9855795 3.7030165 0 0 0 1 -0.01222384 -0.9974961 -0.069658 -0.034797672 0.98667073 -0.0007274151 -0.16272841 87.76264 0.1622703 -0.07071866 0.98420894 4.4277344 0 0 0 1 -0.012390256 -0.9977374 -0.06607978 -0.3395419 0.984952 -0.0007852316 -0.17282629 87.68888 0.17238335 -0.067226775 0.9827332 5.235621 0 0 0 1 -0.012524724 -0.9979455 -0.06283242 -0.69333583 0.98322445 -0.0008558035 -0.182398 87.62531 0.1819695 -0.06406285 0.9812151 6.085801 0 0 0 1 -0.012625337 -0.9981131 -0.060090013 -1.0603765 0.981579 -0.00091409683 -0.19105424 87.5764 0.19063881 -0.061395243 0.9797385 6.9177322 0 0 0 1 -0.012706995 -0.9982337 -0.05803545 -1.4048609 0.980121 -0.0009418726 -0.19839855 87.5466 0.19799344 -0.05940281 0.9784017 7.67087 0 0 0 1 -0.012791753 -0.99830085 -0.056850582 -1.6909856 0.97896296 -0.00092470646 -0.20403633 87.54037 0.20363706 -0.058264576 0.9773112 8.284669 0 0 0 1 -0.0128849745 -0.9983135 -0.056603782 -1.882948 0.9781987 -0.0008506775 -0.207669 87.562164 0.20727062 -0.05804558 0.97656006 8.698586 0 0 0 1 -0.0128849745 -0.9983135 -0.056603782 -1.882948 0.9781987 -0.0008506775 -0.207669 87.562164 0.20727062 -0.05804558 0.97656006 8.698586 0 0 0 1</float_array>
        <technique_common>
          <accessor source="#Motion_24_Waist_transform_pose_array_id" count="16" stride="16">
            <param name="TRANSFORM" type="float4x4" />
          </accessor>
        </technique_common>
      </source>
      <sampler id="Motion_24_Waist_transform_samp_id">
        <input semantic="INPUT" source="#Motion_24_Waist_transform_frame_id" />
        <input semantic="INTERPOLATION" source="#Motion_24_Waist_transform_interp_id" />
        <input semantic="OUTPUT" source="#Motion_24_Waist_transform_pose_id" />
      </sampler>
      <channel source="#Motion_24_Waist_transform_samp_id" target="Waist_bone_id/transform" />
    </animation>
    <animation id="Motion_24_Hips_transform_id" name="Motion_24_Hips_transform">
      <source id="Motion_24_Hips_transform_frame_id" name="Motion_24_Hips_transform_frame">
        <float_array id="Motion_24_Hips_transform_frame_array_id" count="16">0 0.033333335 0.06666667 0.1 0.13333334 0.16666667 0.2 0.23333333 0.26666668 0.3 0.33333334 0.36666667 0.4 0.43333334 0.46666667 0.5</float_array>
        <technique_common>
          <accessor source="#Motion_24_Hips_transform_frame_array_id" count="16" stride="1">
            <param name="TIME" type="float" />
          </accessor>
        </technique_common>
      </source>
      <source id="Motion_24_Hips_transform_interp_id" name="Motion_24_Hips_transform_interp">
        <Name_array id="Motion_24_Hips_transform_interp_array_id" count="16">LINEAR LINEAR LINEAR LINEAR LINEAR LINEAR LINEAR LINEAR LINEAR LINEAR LINEAR LINEAR LINEAR LINEAR LINEAR LINEAR</Name_array>
        <technique_common>
          <accessor source="#Motion_24_Hips_transform_interp_array_id" count="16" stride="1">
            <param name="INTERPOLATION" type="Name" />
          </accessor>
        </technique_common>
      </source>
      <source id="Motion_24_Hips_transform_pose_id" name="Motion_24_Hips_transform_pose">
        <float_array id="Motion_24_Hips_transform_pose_array_id" count="256">-0.99942994 -0.00017947832 -0.03375959 -0.010002 0.00088634435 -0.99978065 -0.020924428 0 -0.03374843 -0.020942422 0.9992109 0 0 0 0 1 -0.99999976 -0.00057402445 3.602359E-07 -0.010002 0.00057402445 -0.99999976 -2.5881287E-05 0 3.7509233E-07 -2.5881076E-05 1 0 0 0 0 1 -0.99999976 -0.0006214699 2.9177247E-06 -0.010002 0.0006214696 -0.99999976 -9.895624E-05 0 2.9792225E-06 -9.8954406E-05 1 0 0 0 0 1 -0.9999993 -0.0011519514 6.034333E-06 -0.010002 0.0011519502 -0.9999993 -0.00020571987 0 6.2713084E-06 -0.00020571277 1 0 0 0 0 1 -0.99999785 -0.0020219407 9.619134E-06 -0.010002 0.0020219374 -0.99999785 -0.00033990448 0 1.0306381E-05 -0.00033988434 0.99999994 0 0 0 0 1 -0.9999951 -0.0030876698 1.3539922E-05 -0.010002 0.0030876629 -0.999995 -0.0004960108 0 1.5071373E-05 -0.0004959667 0.9999999 0 0 0 0 1 -0.9999912 -0.004207041 1.770207E-05 -0.010002 0.004207028 -0.99999094 -0.0006685149 0 2.051438E-05 -0.0006684345 0.99999976 0 0 0 0 1 -0.9999863 -0.0052362853 2.2066217E-05 -0.010002 0.005236265 -0.99998593 -0.00085185503 0 2.6526463E-05 -0.0008517278 0.99999964 0 0 0 0 1 -0.99998176 -0.0060318806 2.6657173E-05 -0.010002 0.00603185 -0.99998116 -0.0010404275 0 3.2932407E-05 -0.0010402477 0.99999946 0 0 0 0 1 -0.99997926 -0.00645078 3.156486E-05 -0.010002 0.0064507364 -0.99997854 -0.0012285846 0 3.9489507E-05 -0.0012283555 0.9999992 0 0 0 0 1 -0.99997973 -0.0063496996 3.6937745E-05 -0.010002 0.006349641 -0.9999788 -0.0014106397 0 4.58941E-05 -0.0014103769 0.999999 0 0 0 0 1 -0.9999845 -0.0055767684 4.297431E-05 -0.010002 0.005576694 -0.9999833 -0.0015808712 0 5.1789735E-05 -0.0015806069 0.99999875 0 0 0 0 1 -0.9999918 -0.0040876325 4.9804188E-05 -0.010002 0.0040875403 -0.9999902 -0.0017336003 0 5.6890018E-05 -0.0017333821 0.9999985 0 0 0 0 1 -0.999998 -0.0019025459 5.7461388E-05 -0.010002 0.0019024356 -0.9999962 -0.0018632092 0 6.1006023E-05 -0.0018630965 0.9999983 0 0 0 0 1 -0.9999995 0.0009596578 6.5907254E-05 -0.010002 -0.00095978536 -0.9999976 -0.0019641262 0 6.402221E-05 -0.0019641886 0.9999981 0 0 0 0 1 -0.9999995 0.0009596578 6.5907254E-05 -0.010002 -0.00095978536 -0.9999976 -0.0019641262 0 6.402221E-05 -0.0019641886 0.9999981 0 0 0 0 1</float_array>
        <technique_common>
          <accessor source="#Motion_24_Hips_transform_pose_array_id" count="16" stride="16">
            <param name="TRANSFORM" type="float4x4" />
          </accessor>
        </technique_common>
      </source>
      <sampler id="Motion_24_Hips_transform_samp_id">
        <input semantic="INPUT" source="#Motion_24_Hips_transform_frame_id" />
        <input semantic="INTERPOLATION" source="#Motion_24_Hips_transform_interp_id" />
        <input semantic="OUTPUT" source="#Motion_24_Hips_transform_pose_id" />
      </sampler>
      <channel source="#Motion_24_Hips_transform_samp_id" target="Hips_bone_id/transform" />
    </animation>
    <animation id="Motion_24_RThigh_transform_id" name="Motion_24_RThigh_transform">
      <source id="Motion_24_RThigh_transform_frame_id" name="Motion_24_RThigh_transform_frame">
        <float_array id="Motion_24_RThigh_transform_frame_array_id" count="16">0 0.033333335 0.06666667 0.1 0.13333334 0.16666667 0.2 0.23333333 0.26666668 0.3 0.33333334 0.36666667 0.4 0.43333334 0.46666667 0.5</float_array>
        <technique_common>
          <accessor source="#Motion_24_RThigh_transform_frame_array_id" count="16" stride="1">
            <param name="TIME" type="float" />
          </accessor>
        </technique_common>
      </source>
      <source id="Motion_24_RThigh_transform_interp_id" name="Motion_24_RThigh_transform_interp">
        <Name_array id="Motion_24_RThigh_transform_interp_array_id" count="16">LINEAR LINEAR LINEAR LINEAR LINEAR LINEAR LINEAR LINEAR LINEAR LINEAR LINEAR LINEAR LINEAR LINEAR LINEAR LINEAR</Name_array>
        <technique_common>
          <accessor source="#Motion_24_RThigh_transform_interp_array_id" count="16" stride="1">
            <param name="INTERPOLATION" type="Name" />
          </accessor>
        </technique_common>
      </source>
      <source id="Motion_24_RThigh_transform_pose_id" name="Motion_24_RThigh_transform_pose">
        <float_array id="Motion_24_RThigh_transform_pose_array_id" count="256">0.9975387 0.016266426 -0.06820497 10.510002 -0.009711749 0.99539596 0.09535506 -7.2 0.069442034 -0.094457984 0.993104 0 0 0 0 1 0.99867594 0.01421892 -0.049439177 10.510002 -0.007860319 0.9919348 0.12650552 -7.2 0.050839208 -0.12594941 0.99073315 0 0 0 0 1 0.9963016 0.016398497 -0.08434597 10.510002 -0.0035649221 0.98866343 0.15010625 -7.2 0.0858513 -0.14925042 0.9850654 0 0 0 0 1 0.9922388 0.020714376 -0.12260923 10.510002 0.0012350632 0.9843366 0.17629501 -7.2 0.124340594 -0.17507818 0.9766714 0 0 0 0 1 0.9877335 0.025567006 -0.15404184 10.510002 0.0050833067 0.9807167 0.19536863 -7.2 0.1560664 -0.1937552 0.96855676 0 0 0 0 1 0.9854089 0.027815193 -0.16791539 10.510002 0.006072064 0.98018295 0.19800119 -7.2 0.17009525 -0.19613172 0.96571213 0 0 0 0 1 0.97649527 0.031827614 -0.21317606 10.510002 0.01116486 0.98024035 0.19749473 -7.2 0.21524955 -0.19523273 0.9568447 0 0 0 0 1 0.953195 0.039614297 -0.29974997 10.510002 0.02170455 0.9798574 0.19851555 -7.2 0.30157626 -0.19572996 0.93313533 0 0 0 0 1 0.92065936 0.049230717 -0.38725019 10.510002 0.03205196 0.9791329 0.20067738 -7.2 0.38904887 -0.19716762 0.8998699 0 0 0 0 1 0.8875536 0.05981356 -0.45680523 10.510002 0.039013676 0.97821647 0.2038885 -7.2 0.4590497 -0.1987836 0.865886 0 0 0 0 1 0.8638646 0.07099858 -0.49869543 10.510002 0.03996359 0.9772365 0.20835471 -7.2 0.5021363 -0.19991991 0.8413627 0 0 0 0 1 0.8819313 0.07772803 -0.46492532 10.510002 0.027412077 0.9761849 0.21520124 -7.2 0.47058025 -0.20253728 0.8587973 0 0 0 0 1 0.9004967 0.08189197 -0.42708236 10.510002 0.015843656 0.9752779 0.2204132 -7.2 0.43457407 -0.2052479 0.8769371 0 0 0 0 1 0.9023708 0.08176191 -0.4231335 10.510002 0.016219702 0.9746993 0.22293076 -7.2 0.43065518 -0.2080293 0.87821406 0 0 0 0 1 0.90146226 0.08271413 -0.4248814 10.510002 0.016754098 0.97416985 0.22519413 -7.2 0.43253338 -0.2101225 0.87679154 0 0 0 0 1 0.90146226 0.08271413 -0.4248814 10.510002 0.016754098 0.97416985 0.22519413 -7.2 0.43253338 -0.2101225 0.87679154 0 0 0 0 1</float_array>
        <technique_common>
          <accessor source="#Motion_24_RThigh_transform_pose_array_id" count="16" stride="16">
            <param name="TRANSFORM" type="float4x4" />
          </accessor>
        </technique_common>
      </source>
      <sampler id="Motion_24_RThigh_transform_samp_id">
        <input semantic="INPUT" source="#Motion_24_RThigh_transform_frame_id" />
        <input semantic="INTERPOLATION" source="#Motion_24_RThigh_transform_interp_id" />
        <input semantic="OUTPUT" source="#Motion_24_RThigh_transform_pose_id" />
      </sampler>
      <channel source="#Motion_24_RThigh_transform_samp_id" target="RThigh_bone_id/transform" />
    </animation>
    <animation id="Motion_24_RLeg_transform_id" name="Motion_24_RLeg_transform">
      <source id="Motion_24_RLeg_transform_frame_id" name="Motion_24_RLeg_transform_frame">
        <float_array id="Motion_24_RLeg_transform_frame_array_id" count="16">0 0.033333335 0.06666667 0.1 0.13333334 0.16666667 0.2 0.23333333 0.26666668 0.3 0.33333334 0.36666667 0.4 0.43333334 0.46666667 0.5</float_array>
        <technique_common>
          <accessor source="#Motion_24_RLeg_transform_frame_array_id" count="16" stride="1">
            <param name="TIME" type="float" />
          </accessor>
        </technique_common>
      </source>
      <source id="Motion_24_RLeg_transform_interp_id" name="Motion_24_RLeg_transform_interp">
        <Name_array id="Motion_24_RLeg_transform_interp_array_id" count="16">LINEAR LINEAR LINEAR LINEAR LINEAR LINEAR LINEAR LINEAR LINEAR LINEAR LINEAR LINEAR LINEAR LINEAR LINEAR LINEAR</Name_array>
        <technique_common>
          <accessor source="#Motion_24_RLeg_transform_interp_array_id" count="16" stride="1">
            <param name="INTERPOLATION" type="Name" />
          </accessor>
        </technique_common>
      </source>
      <source id="Motion_24_RLeg_transform_pose_id" name="Motion_24_RLeg_transform_pose">
        <float_array id="Motion_24_RLeg_transform_pose_array_id" count="256">0.9953048 0 0.09679031 33.899998 0 1 0 0 -0.09679031 0 0.9953048 0 0 0 0 1 0.9928645 0 0.11924809 33.899998 0 1 0 0 -0.11924809 0 0.9928645 0 0 0 0 1 0.9876259 0 0.15682817 33.899998 0 1 0 0 -0.15682817 0 0.9876259 0 0 0 0 1 0.9812955 0 0.1925074 33.899998 0 1 0 0 -0.1925074 0 0.9812955 0 0 0 0 1 0.97558177 0 0.21963659 33.899998 0 1 0 0 -0.21963659 0 0.97558177 0 0 0 0 1 0.9727801 0 0.23173006 33.899998 0 1 0 0 -0.23173006 0 0.9727801 0 0 0 0 1 0.9577188 0 0.28770596 33.899998 0 1 0 0 -0.28770596 0 0.9577188 0 0 0 0 1 0.92567444 0 0.37832102 33.899998 0 1 0 0 -0.37832102 0 0.92567444 0 0 0 0 1 0.8939858 0 0.44809523 33.899998 0 1 0 0 -0.44809523 0 0.8939858 0 0 0 0 1 0.87532043 0 0.48354328 33.899998 0 1 0 0 -0.48354328 0 0.87532043 0 0 0 0 1 0.8750099 0 0.484105 33.899998 0 1 0 0 -0.484105 0 0.8750099 0 0 0 0 1 0.9257451 0 0.378148 33.899998 0 1 0 0 -0.378148 0 0.9257451 0 0 0 0 1 0.9573883 0 0.28880396 33.899998 0 1 0 0 -0.28880396 0 0.9573883 0 0 0 0 1 0.958385 0 0.285479 33.899998 0 1 0 0 -0.285479 0 0.958385 0 0 0 0 1 0.95599324 0 0.2933887 33.899998 0 1 0 0 -0.2933887 0 0.95599324 0 0 0 0 1 0.95599324 0 0.2933887 33.899998 0 1 0 0 -0.2933887 0 0.95599324 0 0 0 0 1</float_array>
        <technique_common>
          <accessor source="#Motion_24_RLeg_transform_pose_array_id" count="16" stride="16">
            <param name="TRANSFORM" type="float4x4" />
          </accessor>
        </technique_common>
      </source>
      <sampler id="Motion_24_RLeg_transform_samp_id">
        <input semantic="INPUT" source="#Motion_24_RLeg_transform_frame_id" />
        <input semantic="INTERPOLATION" source="#Motion_24_RLeg_transform_interp_id" />
        <input semantic="OUTPUT" source="#Motion_24_RLeg_transform_pose_id" />
      </sampler>
      <channel source="#Motion_24_RLeg_transform_samp_id" target="RLeg_bone_id/transform" />
    </animation>
    <animation id="Motion_24_RFoot_transform_id" name="Motion_24_RFoot_transform">
      <source id="Motion_24_RFoot_transform_frame_id" name="Motion_24_RFoot_transform_frame">
        <float_array id="Motion_24_RFoot_transform_frame_array_id" count="16">0 0.033333335 0.06666667 0.1 0.13333334 0.16666667 0.2 0.23333333 0.26666668 0.3 0.33333334 0.36666667 0.4 0.43333334 0.46666667 0.5</float_array>
        <technique_common>
          <accessor source="#Motion_24_RFoot_transform_frame_array_id" count="16" stride="1">
            <param name="TIME" type="float" />
          </accessor>
        </technique_common>
      </source>
      <source id="Motion_24_RFoot_transform_interp_id" name="Motion_24_RFoot_transform_interp">
        <Name_array id="Motion_24_RFoot_transform_interp_array_id" count="16">LINEAR LINEAR LINEAR LINEAR LINEAR LINEAR LINEAR LINEAR LINEAR LINEAR LINEAR LINEAR LINEAR LINEAR LINEAR LINEAR</Name_array>
        <technique_common>
          <accessor source="#Motion_24_RFoot_transform_interp_array_id" count="16" stride="1">
            <param name="INTERPOLATION" type="Name" />
          </accessor>
        </technique_common>
      </source>
      <source id="Motion_24_RFoot_transform_pose_id" name="Motion_24_RFoot_transform_pose">
        <float_array id="Motion_24_RFoot_transform_pose_array_id" count="256">-0.1034683 -0.032708153 -0.9940949 33.9 -0.2759173 0.961177 -0.0029068142 0 0.95559627 0.27398717 -0.10847616 0 0 0 0 1 -0.117750645 -0.037176974 -0.992347 33.9 -0.2766154 0.96097547 -0.003178835 0 0.9537393 0.27412418 -0.12343919 0 0 0 0 1 -0.13686168 -0.043008387 -0.98965603 33.9 -0.27760085 0.9606906 -0.0033595562 0 0.95089775 0.27426958 -0.14342093 0 0 0 0 1 -0.1571573 -0.049297385 -0.9863424 33.9 -0.27891943 0.9603079 -0.003554985 0 0.9473676 0.2745514 -0.1646694 0 0 0 0 1 -0.17421365 -0.055044636 -0.9831683 33.9 -0.28064483 0.95980334 -0.0040073395 0 0.9438688 0.27522296 -0.18265891 0 0 0 0 1 -0.1855061 -0.059614025 -0.98083323 33.9 -0.28271636 0.9591914 -0.004828185 0 0.9410946 0.27640194 -0.19478977 0 0 0 0 1 -0.19792545 -0.06376397 -0.97814095 33.9 -0.26066202 0.9653764 -0.010187261 0 0.94492376 0.25294787 -0.20769346 0 0 0 0 1 -0.19721603 -0.061383367 -0.9784365 33.9 -0.20419297 0.9787213 -0.020243615 0 0.95885926 0.19579749 -0.20555353 0 0 0 0 1 -0.17058873 -0.05509093 -0.98380107 33.9 -0.13590632 0.9902085 -0.03188391 0 0.9759247 0.12826575 -0.17640555 0 0 0 0 1 -0.12628984 -0.050777365 -0.9906931 33.9 -0.079338565 0.99600685 -0.04093595 0 0.98881567 0.07343037 -0.12981427 0 0 0 0 1 -0.08135939 -0.05340741 -0.9952529 33.9 -0.05933564 0.9970517 -0.048653394 0 0.9949171 0.055095553 -0.08428848 0 0 0 0 1 -0.054801464 -0.053794067 -0.99704725 33.9 -0.067744404 0.99644715 -0.05003821 0 0.99619657 0.0648022 -0.058251023 0 0 0 0 1 -0.03849125 -0.051488824 -0.99793154 33.9 -0.07430265 0.9960544 -0.04852605 0 0.9964927 0.07228113 -0.04216504 0 0 0 0 1 -0.048980594 -0.048556425 -0.99761873 33.9 -0.07900839 0.9958761 -0.044592492 0 0.9956699 0.07663608 -0.052615047 0 0 0 0 1 -0.058303952 -0.04599981 -0.99723846 33.9 -0.08146112 0.99582577 -0.041171987 0 0.99496967 0.07883568 -0.06180775 0 0 0 0 1 -0.058303952 -0.04599981 -0.99723846 33.9 -0.08146112 0.99582577 -0.041171987 0 0.99496967 0.07883568 -0.06180775 0 0 0 0 1</float_array>
        <technique_common>
          <accessor source="#Motion_24_RFoot_transform_pose_array_id" count="16" stride="16">
            <param name="TRANSFORM" type="float4x4" />
          </accessor>
        </technique_common>
      </source>
      <sampler id="Motion_24_RFoot_transform_samp_id">
        <input semantic="INPUT" source="#Motion_24_RFoot_transform_frame_id" />
        <input semantic="INTERPOLATION" source="#Motion_24_RFoot_transform_interp_id" />
        <input semantic="OUTPUT" source="#Motion_24_RFoot_transform_pose_id" />
      </sampler>
      <channel source="#Motion_24_RFoot_transform_samp_id" target="RFoot_bone_id/transform" />
    </animation>
    <animation id="Motion_24_LThigh_transform_id" name="Motion_24_LThigh_transform">
      <source id="Motion_24_LThigh_transform_frame_id" name="Motion_24_LThigh_transform_frame">
        <float_array id="Motion_24_LThigh_transform_frame_array_id" count="16">0 0.033333335 0.06666667 0.1 0.13333334 0.16666667 0.2 0.23333333 0.26666668 0.3 0.33333334 0.36666667 0.4 0.43333334 0.46666667 0.5</float_array>
        <technique_common>
          <accessor source="#Motion_24_LThigh_transform_frame_array_id" count="16" stride="1">
            <param name="TIME" type="float" />
          </accessor>
        </technique_common>
      </source>
      <source id="Motion_24_LThigh_transform_interp_id" name="Motion_24_LThigh_transform_interp">
        <Name_array id="Motion_24_LThigh_transform_interp_array_id" count="16">LINEAR LINEAR LINEAR LINEAR LINEAR LINEAR LINEAR LINEAR LINEAR LINEAR LINEAR LINEAR LINEAR LINEAR LINEAR LINEAR</Name_array>
        <technique_common>
          <accessor source="#Motion_24_LThigh_transform_interp_array_id" count="16" stride="1">
            <param name="INTERPOLATION" type="Name" />
          </accessor>
        </technique_common>
      </source>
      <source id="Motion_24_LThigh_transform_pose_id" name="Motion_24_LThigh_transform_pose">
        <float_array id="Motion_24_LThigh_transform_pose_array_id" count="256">0.98975784 -0.008326085 -0.14251338 10.510002 -0.007011692 0.9942575 -0.106784 7.199996 0.1425841 0.10668956 0.9840158 0 0 0 0 1 0.9920291 -0.0050159916 -0.12590933 10.510002 -0.004994482 0.99685705 -0.07906402 7.199996 0.1259102 0.07906266 0.9888861 0 0 0 0 1 0.98671573 -0.0077616423 -0.16227071 10.510002 -0.0026414972 0.9979595 -0.06379594 7.199996 0.16243474 0.0633771 0.98468184 0 0 0 0 1 0.97933525 -0.011863547 -0.20189545 10.510002 0.0017251596 0.99873173 -0.05031808 7.199996 0.20223635 0.04892997 0.97811365 0 0 0 0 1 0.9714169 -0.0165209 -0.23680437 10.510002 0.00541247 0.9988574 -0.047483325 7.199996 0.23731825 0.044844404 0.97039634 0 0 0 0 1 0.965771 -0.02268703 -0.25840208 10.510002 0.0063458225 0.9979362 -0.06389885 7.199996 0.25931844 0.060071878 0.96392184 0 0 0 0 1 0.9618855 -0.030286882 -0.27177 10.510002 0.0072189495 0.9963136 -0.08548196 7.199996 0.2733571 0.08026196 0.95855826 0 0 0 0 1 0.9585207 -0.03999224 -0.2822032 10.510002 0.009498625 0.9940394 -0.10860695 7.199996 0.28486454 0.101421475 0.9531872 0 0 0 0 1 0.95595324 -0.05143947 -0.28897643 10.510002 0.013837405 0.9913271 -0.1306869 7.199996 0.29319263 0.12093188 0.94837415 0 0 0 0 1 0.95457447 -0.06338452 -0.29115278 10.510002 0.019365521 0.9882444 -0.15165082 7.199996 0.29734242 0.13912368 0.9445804 0 0 0 0 1 0.9545572 -0.07484347 -0.28847712 10.510002 0.025619686 0.98497754 -0.17077152 7.199996 0.2969246 0.1556205 0.94213486 0 0 0 0 1 0.9555836 -0.08498078 -0.2822026 10.510002 0.03198576 0.98177487 -0.18733677 7.199996 0.29297942 0.16998947 0.9408861 0 0 0 0 1 0.95730245 -0.093039654 -0.27370718 10.510002 0.03776961 0.9789322 -0.2006618 7.199996 0.28661028 0.18175621 0.9406483 0 0 0 0 1 0.95939213 -0.09832603 -0.2643836 10.510002 0.04221037 0.97676945 -0.21009457 7.199996 0.2788996 0.19040334 0.94125533 0 0 0 0 1 0.96156996 -0.10017958 -0.255631 10.510002 0.044506803 0.97561675 -0.21492103 7.199996 0.2709286 0.19528428 0.9425825 0 0 0 0 1 0.96156996 -0.10017958 -0.255631 10.510002 0.044506803 0.97561675 -0.21492103 7.199996 0.2709286 0.19528428 0.9425825 0 0 0 0 1</float_array>
        <technique_common>
          <accessor source="#Motion_24_LThigh_transform_pose_array_id" count="16" stride="16">
            <param name="TRANSFORM" type="float4x4" />
          </accessor>
        </technique_common>
      </source>
      <sampler id="Motion_24_LThigh_transform_samp_id">
        <input semantic="INPUT" source="#Motion_24_LThigh_transform_frame_id" />
        <input semantic="INTERPOLATION" source="#Motion_24_LThigh_transform_interp_id" />
        <input semantic="OUTPUT" source="#Motion_24_LThigh_transform_pose_id" />
      </sampler>
      <channel source="#Motion_24_LThigh_transform_samp_id" target="LThigh_bone_id/transform" />
    </animation>
    <animation id="Motion_24_LLeg_transform_id" name="Motion_24_LLeg_transform">
      <source id="Motion_24_LLeg_transform_frame_id" name="Motion_24_LLeg_transform_frame">
        <float_array id="Motion_24_LLeg_transform_frame_array_id" count="16">0 0.033333335 0.06666667 0.1 0.13333334 0.16666667 0.2 0.23333333 0.26666668 0.3 0.33333334 0.36666667 0.4 0.43333334 0.46666667 0.5</float_array>
        <technique_common>
          <accessor source="#Motion_24_LLeg_transform_frame_array_id" count="16" stride="1">
            <param name="TIME" type="float" />
          </accessor>
        </technique_common>
      </source>
      <source id="Motion_24_LLeg_transform_interp_id" name="Motion_24_LLeg_transform_interp">
        <Name_array id="Motion_24_LLeg_transform_interp_array_id" count="16">LINEAR LINEAR LINEAR LINEAR LINEAR LINEAR LINEAR LINEAR LINEAR LINEAR LINEAR LINEAR LINEAR LINEAR LINEAR LINEAR</Name_array>
        <technique_common>
          <accessor source="#Motion_24_LLeg_transform_interp_array_id" count="16" stride="1">
            <param name="INTERPOLATION" type="Name" />
          </accessor>
        </technique_common>
      </source>
      <source id="Motion_24_LLeg_transform_pose_id" name="Motion_24_LLeg_transform_pose">
        <float_array id="Motion_24_LLeg_transform_pose_array_id" count="256">0.99293387 0 0.11866916 33.899998 0 1 0 0 -0.11866916 0 0.99293387 0 0 0 0 1 0.987399 0 0.15825054 33.899998 0 1 0 0 -0.15825054 0 0.987399 0 0 0 0 1 0.9778553 0 0.20928214 33.899998 0 1 0 0 -0.20928214 0 0.9778553 0 0 0 0 1 0.96529615 0 0.26115778 33.899998 0 1 0 0 -0.26115778 0 0.96529615 0 0 0 0 1 0.95248234 0 0.30459386 33.899998 0 1 0 0 -0.30459386 0 0.95248234 0 0 0 0 1 0.94149536 0 0.33702597 33.899998 0 1 0 0 -0.33702597 0 0.94149536 0 0 0 0 1 0.9317864 0 0.36300698 33.899998 0 1 0 0 -0.36300698 0 0.9317864 0 0 0 0 1 0.92261994 0 0.38571027 33.899998 0 1 0 0 -0.38571027 0 0.92261994 0 0 0 0 1 0.9147877 0 0.403935 33.899998 0 1 0 0 -0.403935 0 0.9147877 0 0 0 0 1 0.9088853 0 0.4170462 33.899998 0 1 0 0 -0.4170462 0 0.9088853 0 0 0 0 1 0.9054731 0 0.42440364 33.899998 0 1 0 0 -0.42440364 0 0.9054731 0 0 0 0 1 0.9048119 0 0.4258114 33.899998 0 1 0 0 -0.4258114 0 0.9048119 0 0 0 0 1 0.906464 0 0.4222832 33.899998 0 1 0 0 -0.4222832 0 0.906464 0 0 0 0 1 0.9098431 0 0.41495255 33.899998 0 1 0 0 -0.41495255 0 0.9098431 0 0 0 0 1 0.9143415 0 0.4049439 33.899998 0 1 0 0 -0.4049439 0 0.9143415 0 0 0 0 1 0.9143415 0 0.4049439 33.899998 0 1 0 0 -0.4049439 0 0.9143415 0 0 0 0 1</float_array>
        <technique_common>
          <accessor source="#Motion_24_LLeg_transform_pose_array_id" count="16" stride="16">
            <param name="TRANSFORM" type="float4x4" />
          </accessor>
        </technique_common>
      </source>
      <sampler id="Motion_24_LLeg_transform_samp_id">
        <input semantic="INPUT" source="#Motion_24_LLeg_transform_frame_id" />
        <input semantic="INTERPOLATION" source="#Motion_24_LLeg_transform_interp_id" />
        <input semantic="OUTPUT" source="#Motion_24_LLeg_transform_pose_id" />
      </sampler>
      <channel source="#Motion_24_LLeg_transform_samp_id" target="LLeg_bone_id/transform" />
    </animation>
    <animation id="Motion_24_LFoot_transform_id" name="Motion_24_LFoot_transform">
      <source id="Motion_24_LFoot_transform_frame_id" name="Motion_24_LFoot_transform_frame">
        <float_array id="Motion_24_LFoot_transform_frame_array_id" count="16">0 0.033333335 0.06666667 0.1 0.13333334 0.16666667 0.2 0.23333333 0.26666668 0.3 0.33333334 0.36666667 0.4 0.43333334 0.46666667 0.5</float_array>
        <technique_common>
          <accessor source="#Motion_24_LFoot_transform_frame_array_id" count="16" stride="1">
            <param name="TIME" type="float" />
          </accessor>
        </technique_common>
      </source>
      <source id="Motion_24_LFoot_transform_interp_id" name="Motion_24_LFoot_transform_interp">
        <Name_array id="Motion_24_LFoot_transform_interp_array_id" count="16">LINEAR LINEAR LINEAR LINEAR LINEAR LINEAR LINEAR LINEAR LINEAR LINEAR LINEAR LINEAR LINEAR LINEAR LINEAR LINEAR</Name_array>
        <technique_common>
          <accessor source="#Motion_24_LFoot_transform_interp_array_id" count="16" stride="1">
            <param name="INTERPOLATION" type="Name" />
          </accessor>
        </technique_common>
      </source>
      <source id="Motion_24_LFoot_transform_pose_id" name="Motion_24_LFoot_transform_pose">
        <float_array id="Motion_24_LFoot_transform_pose_array_id" count="256">-0.053268194 0.020906657 -0.9983614 33.9 0.27699885 0.9608554 0.005341813 4E-06 0.9593926 -0.27626038 -0.056974173 0 0 0 0 1 -0.081584215 0.028813146 -0.99625003 33.9 0.2749928 0.96143174 0.005286664 4E-06 0.9579787 -0.27353024 -0.08636117 0 0 0 0 1 -0.11039257 0.037559897 -0.99317807 33.9 0.270768 0.96262395 0.006308317 4E-06 0.956294 -0.26822445 -0.1164366 0 0 0 0 1 -0.13941145 0.046945766 -0.9891211 33.9 0.26388192 0.96451676 0.0085852 4E-06 0.9544269 -0.25981432 -0.14685285 0 0 0 0 1 -0.16404259 0.05519574 -0.9849078 33.9 0.2550388 0.96685994 0.011705987 4E-06 0.95291406 -0.24926943 -0.17268324 0 0 0 0 1 -0.18122244 0.061359018 -0.98152614 33.9 0.2443392 0.969566 0.015498184 4E-06 0.95260525 -0.23701668 -0.19069946 0 0 0 0 1 -0.19523823 0.0666808 -0.97848636 33.9 0.2315118 0.97262466 0.0200876 4E-06 0.95303947 -0.22260928 -0.20533085 0 0 0 0 1 -0.2089535 0.07234718 -0.9752457 33.9 0.21688397 0.97585315 0.025923237 4E-06 0.95357203 -0.20609841 -0.21959889 0 0 0 0 1 -0.22177112 0.077978715 -0.97197586 33.9 0.20123695 0.9789991 0.03262692 4E-06 0.9541077 -0.18836173 -0.23280597 0 0 0 0 1 -0.2333715 0.0832705 -0.9688156 33.9 0.18532524 0.9818729 0.039751023 4E-06 0.9545639 -0.17026922 -0.24457324 0 0 0 0 1 -0.24340034 0.08795394 -0.9659298 33.9 0.16988634 0.9843507 0.046822388 4E-06 0.9549319 -0.1527017 -0.25453353 0 0 0 0 1 -0.25146925 0.09179105 -0.96350276 33.9 0.1556425 0.9863719 0.05334784 4E-06 0.95526886 -0.13654663 -0.26232886 0 0 0 0 1 -0.25716317 0.09456479 -0.96172994 33.9 0.14330466 0.98792905 0.05882172 4E-06 0.9556834 -0.12269361 -0.26761055 0 0 0 0 1 -0.2600268 0.09644926 -0.9607724 33.9 0.13396287 0.9889802 0.06302478 4E-06 0.95626354 -0.112319686 -0.270082 0 0 0 0 1 -0.2596239 0.0971269 -0.9608131 33.9 0.12852253 0.9895541 0.06530387 4E-06 0.9571193 -0.10653169 -0.26939487 0 0 0 0 1 -0.2596239 0.0971269 -0.9608131 33.9 0.12852253 0.9895541 0.06530387 4E-06 0.9571193 -0.10653169 -0.26939487 0 0 0 0 1</float_array>
        <technique_common>
          <accessor source="#Motion_24_LFoot_transform_pose_array_id" count="16" stride="16">
            <param name="TRANSFORM" type="float4x4" />
          </accessor>
        </technique_common>
      </source>
      <sampler id="Motion_24_LFoot_transform_samp_id">
        <input semantic="INPUT" source="#Motion_24_LFoot_transform_frame_id" />
        <input semantic="INTERPOLATION" source="#Motion_24_LFoot_transform_interp_id" />
        <input semantic="OUTPUT" source="#Motion_24_LFoot_transform_pose_id" />
      </sampler>
      <channel source="#Motion_24_LFoot_transform_samp_id" target="LFoot_bone_id/transform" />
    </animation>
    <animation id="Motion_24_Spine2_transform_id" name="Motion_24_Spine2_transform">
      <source id="Motion_24_Spine2_transform_frame_id" name="Motion_24_Spine2_transform_frame">
        <float_array id="Motion_24_Spine2_transform_frame_array_id" count="16">0 0.033333335 0.06666667 0.1 0.13333334 0.16666667 0.2 0.23333333 0.26666668 0.3 0.33333334 0.36666667 0.4 0.43333334 0.46666667 0.5</float_array>
        <technique_common>
          <accessor source="#Motion_24_Spine2_transform_frame_array_id" count="16" stride="1">
            <param name="TIME" type="float" />
          </accessor>
        </technique_common>
      </source>
      <source id="Motion_24_Spine2_transform_interp_id" name="Motion_24_Spine2_transform_interp">
        <Name_array id="Motion_24_Spine2_transform_interp_array_id" count="16">LINEAR LINEAR LINEAR LINEAR LINEAR LINEAR LINEAR LINEAR LINEAR LINEAR LINEAR LINEAR LINEAR LINEAR LINEAR LINEAR</Name_array>
        <technique_common>
          <accessor source="#Motion_24_Spine2_transform_interp_array_id" count="16" stride="1">
            <param name="INTERPOLATION" type="Name" />
          </accessor>
        </technique_common>
      </source>
      <source id="Motion_24_Spine2_transform_pose_id" name="Motion_24_Spine2_transform_pose">
        <float_array id="Motion_24_Spine2_transform_pose_array_id" count="256">0.9955694 0.003780329 0.093953505 12.099998 -0.0027774123 0.9999378 -0.010803078 0 -0.09398849 0.010494267 0.99551797 0 0 0 0 1 0.9950412 0.0055463323 0.09930886 12.099998 -0.003932407 0.9998571 -0.016439952 0 -0.09938586 0.015967906 0.99492085 0 0 0 0 1 0.9936913 0.008925332 0.1117939 12.099998 -0.0055955 0.99953234 -0.030063871 0 -0.11200995 0.029248666 0.99327654 0 0 0 0 1 0.9917906 0.013997917 0.12710418 12.099998 -0.007977978 0.9988275 -0.047748398 0 -0.12762354 0.046342377 0.9907394 0 0 0 0 1 0.990071 0.019438136 0.13921772 12.099998 -0.010627082 0.99790895 -0.0637557 0 -0.14016591 0.06164319 0.9882073 0 0 0 0 1 0.989279 0.023849372 0.14407742 12.099998 -0.01325816 0.997168 -0.07402833 0 -0.14543492 0.07132447 0.9867935 0 0 0 0 1 0.9897149 0.026790317 0.14052275 12.099998 -0.015683185 0.9967066 -0.07956151 0 -0.14219144 0.076539375 0.98687553 0 0 0 0 1 0.990166 0.02944192 0.13676438 12.099998 -0.017831843 0.99619114 -0.085353315 0 -0.13875642 0.08207519 0.9869196 0 0 0 0 1 0.99060786 0.032278765 0.13286902 12.099998 -0.02019107 0.99561536 -0.09133657 0 -0.13523467 0.08779595 0.9869161 0 0 0 0 1 0.9910169 0.035402812 0.12896542 12.099998 -0.022867851 0.99498147 -0.097411476 0 -0.13176684 0.09358726 0.98685306 0 0 0 0 1 0.9913817 0.03856289 0.12520057 12.099998 -0.025611233 0.99430424 -0.103455916 0 -0.128477 0.09935777 0.9867227 0 0 0 0 1 0.9916885 0.04170858 0.121714175 12.099998 -0.028366297 0.9935971 -0.10936273 0 -0.12549621 0.105001174 0.9865219 0 0 0 0 1 0.99192566 0.044791743 0.11864737 12.099998 -0.031076029 0.9928763 -0.11502612 0 -0.12295437 0.11041027 0.9862514 0 0 0 0 1 0.9920833 0.047766186 0.11614245 12.099998 -0.033681624 0.992161 -0.12034164 0 -0.12098028 0.11547707 0.98591524 0 0 0 0 1 0.9921526 0.050587248 0.11434273 12.099998 -0.036122974 0.99147296 -0.1252059 0 -0.11970154 0.12009296 0.98551977 0 0 0 0 1 0.9921526 0.050587248 0.11434273 12.099998 -0.036122974 0.99147296 -0.1252059 0 -0.11970154 0.12009296 0.98551977 0 0 0 0 1</float_array>
        <technique_common>
          <accessor source="#Motion_24_Spine2_transform_pose_array_id" count="16" stride="16">
            <param name="TRANSFORM" type="float4x4" />
          </accessor>
        </technique_common>
      </source>
      <sampler id="Motion_24_Spine2_transform_samp_id">
        <input semantic="INPUT" source="#Motion_24_Spine2_transform_frame_id" />
        <input semantic="INTERPOLATION" source="#Motion_24_Spine2_transform_interp_id" />
        <input semantic="OUTPUT" source="#Motion_24_Spine2_transform_pose_id" />
      </sampler>
      <channel source="#Motion_24_Spine2_transform_samp_id" target="Spine2_bone_id/transform" />
    </animation>
    <animation id="Motion_24_Spine3_transform_id" name="Motion_24_Spine3_transform">
      <source id="Motion_24_Spine3_transform_frame_id" name="Motion_24_Spine3_transform_frame">
        <float_array id="Motion_24_Spine3_transform_frame_array_id" count="16">0 0.033333335 0.06666667 0.1 0.13333334 0.16666667 0.2 0.23333333 0.26666668 0.3 0.33333334 0.36666667 0.4 0.43333334 0.46666667 0.5</float_array>
        <technique_common>
          <accessor source="#Motion_24_Spine3_transform_frame_array_id" count="16" stride="1">
            <param name="TIME" type="float" />
          </accessor>
        </technique_common>
      </source>
      <source id="Motion_24_Spine3_transform_interp_id" name="Motion_24_Spine3_transform_interp">
        <Name_array id="Motion_24_Spine3_transform_interp_array_id" count="16">LINEAR LINEAR LINEAR LINEAR LINEAR LINEAR LINEAR LINEAR LINEAR LINEAR LINEAR LINEAR LINEAR LINEAR LINEAR LINEAR</Name_array>
        <technique_common>
          <accessor source="#Motion_24_Spine3_transform_interp_array_id" count="16" stride="1">
            <param name="INTERPOLATION" type="Name" />
          </accessor>
        </technique_common>
      </source>
      <source id="Motion_24_Spine3_transform_pose_id" name="Motion_24_Spine3_transform_pose">
        <float_array id="Motion_24_Spine3_transform_pose_array_id" count="256">0.97747844 0.0033083581 0.21100923 12.099991 -0.0026111417 0.99999017 -0.0035827388 0 -0.21101901 0.0029510753 0.9774775 0 0 0 0 1 0.9787862 0.0068249064 0.20477067 12.099991 -0.0058719707 0.99996895 -0.005260961 0 -0.2048002 0.003946949 0.9787958 0 0 0 0 1 0.98187804 0.015741237 0.18885903 12.099991 -0.014370621 0.9998595 -0.008624568 0 -0.18896826 0.005754252 0.9819663 0 0 0 0 1 0.985631 0.028290533 0.16652697 12.099991 -0.026417684 0.9995605 -0.0134513425 0 -0.16683432 0.008858803 0.98594517 0 0 0 0 1 0.98887473 0.04179843 0.14275712 12.099991 -0.039466787 0.9990378 -0.019126922 0 -0.14341924 0.013279966 0.98957294 0 0 0 0 1 0.9911623 0.054512702 0.120936625 12.099991 -0.051738203 0.998323 -0.025966773 0 -0.12214934 0.019480241 0.99232054 0 0 0 0 1 0.99307114 0.07316133 0.091962524 12.099991 -0.07019203 0.996915 -0.035122387 0 -0.09424842 0.028423995 0.9951429 0 0 0 0 1 0.9942186 0.087282695 0.062539086 12.099991 -0.08445615 0.9953415 -0.046502374 0 -0.066306606 0.040951714 0.99695855 0 0 0 0 1 0.99486303 0.095554665 0.03341849 12.099991 -0.09347221 0.993864 -0.05913765 0 -0.038864315 0.05571016 0.9976903 0 0 0 0 1 0.9949405 0.100316495 0.0054690926 12.099991 -0.09966549 0.9924107 -0.07202614 0 -0.012652995 0.07111665 0.99738777 0 0 0 0 1 0.9944171 0.10351331 -0.020486861 12.099991 -0.10488693 0.9908866 -0.08451252 0 0.011551987 0.08618949 0.99621177 0 0 0 0 1 0.99347085 0.10541887 -0.043617886 12.099991 -0.10920931 0.9893418 -0.096312925 0 0.032999795 0.100447565 0.99439496 0 0 0 0 1 0.9922906 0.106639355 -0.063146085 12.099991 -0.11299367 0.9877634 -0.10749844 0 0.050909825 0.1138048 0.9921979 0 0 0 0 1 0.9910836 0.1078034 -0.07830523 12.099991 -0.116581805 0.98616034 -0.1178833 0 0.064513296 0.12596117 0.9899353 0 0 0 0 1 0.99004686 0.10955267 -0.08834843 12.099991 -0.120301336 0.9845451 -0.12727353 0 0.07303986 0.13663518 0.9879251 0 0 0 0 1 0.99004686 0.10955267 -0.08834843 12.099991 -0.120301336 0.9845451 -0.12727353 0 0.07303986 0.13663518 0.9879251 0 0 0 0 1</float_array>
        <technique_common>
          <accessor source="#Motion_24_Spine3_transform_pose_array_id" count="16" stride="16">
            <param name="TRANSFORM" type="float4x4" />
          </accessor>
        </technique_common>
      </source>
      <sampler id="Motion_24_Spine3_transform_samp_id">
        <input semantic="INPUT" source="#Motion_24_Spine3_transform_frame_id" />
        <input semantic="INTERPOLATION" source="#Motion_24_Spine3_transform_interp_id" />
        <input semantic="OUTPUT" source="#Motion_24_Spine3_transform_pose_id" />
      </sampler>
      <channel source="#Motion_24_Spine3_transform_samp_id" target="Spine3_bone_id/transform" />
    </animation>
    <animation id="Motion_24_RShoulder_transform_id" name="Motion_24_RShoulder_transform">
      <source id="Motion_24_RShoulder_transform_frame_id" name="Motion_24_RShoulder_transform_frame">
        <float_array id="Motion_24_RShoulder_transform_frame_array_id" count="16">0 0.033333335 0.06666667 0.1 0.13333334 0.16666667 0.2 0.23333333 0.26666668 0.3 0.33333334 0.36666667 0.4 0.43333334 0.46666667 0.5</float_array>
        <technique_common>
          <accessor source="#Motion_24_RShoulder_transform_frame_array_id" count="16" stride="1">
            <param name="TIME" type="float" />
          </accessor>
        </technique_common>
      </source>
      <source id="Motion_24_RShoulder_transform_interp_id" name="Motion_24_RShoulder_transform_interp">
        <Name_array id="Motion_24_RShoulder_transform_interp_array_id" count="16">LINEAR LINEAR LINEAR LINEAR LINEAR LINEAR LINEAR LINEAR LINEAR LINEAR LINEAR LINEAR LINEAR LINEAR LINEAR LINEAR</Name_array>
        <technique_common>
          <accessor source="#Motion_24_RShoulder_transform_interp_array_id" count="16" stride="1">
            <param name="INTERPOLATION" type="Name" />
          </accessor>
        </technique_common>
      </source>
      <source id="Motion_24_RShoulder_transform_pose_id" name="Motion_24_RShoulder_transform_pose">
        <float_array id="Motion_24_RShoulder_transform_pose_array_id" count="256">-0.5894897 -0.79748553 -0.12852487 14.14009 0.77746135 -0.6033189 0.1776515 3.93 -0.21921599 0.0048006326 0.97566456 -0.20193532 0 0 0 1 -0.5876118 -0.7990241 -0.12756543 14.14009 0.7816366 -0.60129464 0.16579795 3.93 -0.20918097 -0.0022849888 0.9778743 -0.20193532 0 0 0 1 -0.5851588 -0.8011596 -0.12542921 14.14009 0.79314685 -0.5976516 0.11717778 3.93 -0.16884106 -0.030916177 0.9851583 -0.20193532 0 0 0 1 -0.58365893 -0.80267215 -0.122717865 14.14009 0.8066206 -0.59049904 0.025960917 3.93 -0.0933029 -0.08383444 0.99210197 -0.20193532 0 0 0 1 -0.5838139 -0.8030367 -0.119554296 14.14009 0.81187415 -0.57659745 -0.09162753 3.93 0.00464556 -0.15055647 0.9885905 -0.20193532 0 0 0 1 -0.57902443 -0.8067114 -0.11809856 14.14009 0.812424 -0.5587126 -0.16675505 3.93 0.06854002 -0.19250137 0.97890013 -0.20193532 0 0 0 1 -0.5592704 -0.820626 -0.117428206 14.14009 0.82069516 -0.5281116 -0.21807638 3.93 0.11694396 -0.21833643 0.9688412 -0.20193532 0 0 0 1 -0.5360235 -0.83577424 -0.11899732 14.14009 0.82881254 -0.49420404 -0.26235884 3.93 0.1604638 -0.23925698 0.95760506 -0.20193532 0 0 0 1 -0.5092534 -0.8518493 -0.12253013 14.14009 0.83752656 -0.45778334 -0.29830125 3.93 0.19801548 -0.2545332 0.9465742 -0.20193532 0 0 0 1 -0.4801761 -0.8676346 -0.12899996 14.14009 0.8461645 -0.41940987 -0.32878673 3.93 0.23116289 -0.26703078 0.9355524 -0.20193532 0 0 0 1 -0.4513117 -0.8817802 -0.13704666 14.14009 0.8511706 -0.37924635 -0.36287904 3.93 0.2680051 -0.28042156 0.92170334 -0.20193532 0 0 0 1 -0.42355108 -0.89395666 -0.14644487 14.14009 0.8523817 -0.3385694 -0.39851767 3.93 0.3066758 -0.2936195 0.9053936 -0.20193532 0 0 0 1 -0.3930148 -0.9057443 -0.1586391 14.14009 0.85935044 -0.30039763 -0.41385743 3.93 0.3271942 -0.29897872 0.8964127 -0.20193532 0 0 0 1 -0.36145902 -0.91629696 -0.17247437 14.14009 0.8728415 -0.26748812 -0.40816426 3.93 0.32786483 -0.2980774 0.8964678 -0.20193532 0 0 0 1 -0.29561412 -0.934008 -0.20060214 14.14009 0.8965137 -0.19870603 -0.3959532 3.93 0.32996258 -0.29689196 0.8960914 -0.20193532 0 0 0 1 -0.29561412 -0.934008 -0.20060214 14.14009 0.8965137 -0.19870603 -0.3959532 3.93 0.32996258 -0.29689196 0.8960914 -0.20193532 0 0 0 1</float_array>
        <technique_common>
          <accessor source="#Motion_24_RShoulder_transform_pose_array_id" count="16" stride="16">
            <param name="TRANSFORM" type="float4x4" />
          </accessor>
        </technique_common>
      </source>
      <sampler id="Motion_24_RShoulder_transform_samp_id">
        <input semantic="INPUT" source="#Motion_24_RShoulder_transform_frame_id" />
        <input semantic="INTERPOLATION" source="#Motion_24_RShoulder_transform_interp_id" />
        <input semantic="OUTPUT" source="#Motion_24_RShoulder_transform_pose_id" />
      </sampler>
      <channel source="#Motion_24_RShoulder_transform_samp_id" target="RShoulder_bone_id/transform" />
    </animation>
    <animation id="Motion_24_RArm_transform_id" name="Motion_24_RArm_transform">
      <source id="Motion_24_RArm_transform_frame_id" name="Motion_24_RArm_transform_frame">
        <float_array id="Motion_24_RArm_transform_frame_array_id" count="16">0 0.033333335 0.06666667 0.1 0.13333334 0.16666667 0.2 0.23333333 0.26666668 0.3 0.33333334 0.36666667 0.4 0.43333334 0.46666667 0.5</float_array>
        <technique_common>
          <accessor source="#Motion_24_RArm_transform_frame_array_id" count="16" stride="1">
            <param name="TIME" type="float" />
          </accessor>
        </technique_common>
      </source>
      <source id="Motion_24_RArm_transform_interp_id" name="Motion_24_RArm_transform_interp">
        <Name_array id="Motion_24_RArm_transform_interp_array_id" count="16">LINEAR LINEAR LINEAR LINEAR LINEAR LINEAR LINEAR LINEAR LINEAR LINEAR LINEAR LINEAR LINEAR LINEAR LINEAR LINEAR</Name_array>
        <technique_common>
          <accessor source="#Motion_24_RArm_transform_interp_array_id" count="16" stride="1">
            <param name="INTERPOLATION" type="Name" />
          </accessor>
        </technique_common>
      </source>
      <source id="Motion_24_RArm_transform_pose_id" name="Motion_24_RArm_transform_pose">
        <float_array id="Motion_24_RArm_transform_pose_array_id" count="256">0.7998463 -0.55357754 0.2319435 8.161548 0.56820464 0.8228749 0.004521176 0 -0.1933633 0.12817512 0.9727188 0 0 0 0 1 0.8067003 -0.5491163 0.21841684 8.161548 0.55587953 0.8305288 0.03492751 0 -0.20058075 0.09323742 0.97523034 0 0 0 0 1 0.83153784 -0.5255003 0.17998385 8.161548 0.52048814 0.85030365 0.077947415 0 -0.19400233 0.028863238 0.9805764 0 0 0 0 1 0.8677155 -0.47772342 0.13729616 8.161548 0.46954703 0.8784187 0.08891709 0 -0.16308127 -0.012687739 0.9865311 0 0 0 0 1 0.89877105 -0.42273942 0.1161981 8.161548 0.41883835 0.90624666 0.057370827 0 -0.12955704 -0.0028950162 0.99156773 0 0 0 0 1 0.9308274 -0.3349433 0.14619645 8.161548 0.33609337 0.9416659 0.017509121 0 -0.14353278 0.03283769 0.98910064 0 0 0 0 1 0.9527452 -0.25136828 0.1705597 8.161548 0.26298088 0.9635595 -0.04892969 0 -0.15204504 0.09147146 0.98413175 0 0 0 0 1 0.9683277 -0.15255593 0.19765675 8.161548 0.17874138 0.9762853 -0.1221416 0 -0.17433596 0.15360254 0.9726321 0 0 0 0 1 0.9751765 -0.016688403 0.22079921 8.161548 0.06492631 0.97487754 -0.21306896 0 -0.21169642 0.22211552 0.9517612 0 0 0 0 1 0.9658129 0.13991825 0.21823896 8.161548 -0.055776134 0.9342792 -0.35215253 0 -0.2531687 0.32794094 0.910143 0 0 0 0 1 0.9538621 0.25679412 0.15557595 8.161548 -0.11808544 0.797265 -0.59196657 0 -0.27604878 0.5462832 0.7908045 0 0 0 0 1 0.938742 0.34267026 0.03661467 8.161548 -0.18531966 0.5915272 -0.7846988 0 -0.29055148 0.7298443 0.618795 0 0 0 0 1 0.90540713 0.41593078 -0.0850854 8.161548 -0.2761897 0.42485952 -0.8620984 0 -0.3224239 0.8040498 0.49954665 0 0 0 0 1 0.8634548 0.4753525 -0.16877723 8.161548 -0.3493673 0.32221514 -0.87984085 0 -0.36385196 0.8186681 0.44429082 0 0 0 0 1 0.8546007 0.49076164 -0.16973688 8.161548 -0.33767778 0.27687848 -0.89961773 0 -0.3945014 0.82613033 0.40233988 0 0 0 0 1 0.8546007 0.49076164 -0.16973688 8.161548 -0.33767778 0.27687848 -0.89961773 0 -0.3945014 0.82613033 0.40233988 0 0 0 0 1</float_array>
        <technique_common>
          <accessor source="#Motion_24_RArm_transform_pose_array_id" count="16" stride="16">
            <param name="TRANSFORM" type="float4x4" />
          </accessor>
        </technique_common>
      </source>
      <sampler id="Motion_24_RArm_transform_samp_id">
        <input semantic="INPUT" source="#Motion_24_RArm_transform_frame_id" />
        <input semantic="INTERPOLATION" source="#Motion_24_RArm_transform_interp_id" />
        <input semantic="OUTPUT" source="#Motion_24_RArm_transform_pose_id" />
      </sampler>
      <channel source="#Motion_24_RArm_transform_samp_id" target="RArm_bone_id/transform" />
    </animation>
    <animation id="Motion_24_RForeArm_transform_id" name="Motion_24_RForeArm_transform">
      <source id="Motion_24_RForeArm_transform_frame_id" name="Motion_24_RForeArm_transform_frame">
        <float_array id="Motion_24_RForeArm_transform_frame_array_id" count="16">0 0.033333335 0.06666667 0.1 0.13333334 0.16666667 0.2 0.23333333 0.26666668 0.3 0.33333334 0.36666667 0.4 0.43333334 0.46666667 0.5</float_array>
        <technique_common>
          <accessor source="#Motion_24_RForeArm_transform_frame_array_id" count="16" stride="1">
            <param name="TIME" type="float" />
          </accessor>
        </technique_common>
      </source>
      <source id="Motion_24_RForeArm_transform_interp_id" name="Motion_24_RForeArm_transform_interp">
        <Name_array id="Motion_24_RForeArm_transform_interp_array_id" count="16">LINEAR LINEAR LINEAR LINEAR LINEAR LINEAR LINEAR LINEAR LINEAR LINEAR LINEAR LINEAR LINEAR LINEAR LINEAR LINEAR</Name_array>
        <technique_common>
          <accessor source="#Motion_24_RForeArm_transform_interp_array_id" count="16" stride="1">
            <param name="INTERPOLATION" type="Name" />
          </accessor>
        </technique_common>
      </source>
      <source id="Motion_24_RForeArm_transform_pose_id" name="Motion_24_RForeArm_transform_pose">
        <float_array id="Motion_24_RForeArm_transform_pose_array_id" count="256">0.9373392 -1.7484554E-07 -0.34841818 22.9 1.6388957E-07 1 -6.091936E-08 0 0.34841818 3.5527137E-15 0.9373392 0 0 0 0 1 0.91189957 -1.7436679E-07 -0.4104134 22.9 1.614041E-07 1 -6.623186E-08 0 0.4104134 -5.845603E-09 0.91189957 0 0 0 0 1 0.8678344 -1.7321364E-07 -0.49685356 22.9 1.5739741E-07 1 -7.3701266E-08 0 0.49685356 -1.4242964E-08 0.8678344 0 0 0 0 1 0.8477416 -1.7259669E-07 -0.53040946 22.9 1.5565072E-07 1 -7.662967E-08 0 0.53040946 -1.7596456E-08 0.8477416 0 0 0 0 1 0.86147976 -1.730236E-07 -0.50779194 22.9 1.5684064E-07 1 -7.465373E-08 0 0.50779194 -1.532974E-08 0.86147976 0 0 0 0 1 0.7940682 -1.7075634E-07 -0.6078287 22.9 1.5114274E-07 1 -8.347531E-08 0 0.6078287 -2.5583795E-08 0.7940682 0 0 0 0 1 0.71586466 -1.6771511E-07 -0.698239 22.9 1.4484101E-07 1 -9.170006E-08 0 0.698239 -3.5488824E-08 0.71586466 0 0 0 0 1 0.6224493 -1.63688E-07 -0.7826601 22.9 1.3755361E-07 1 -9.97468E-08 0 0.7826601 -4.5570403E-08 0.6224493 0 0 0 0 1 0.5185114 -1.5882448E-07 -0.8550707 22.9 1.2961438E-07 1 -1.0714661E-07 0 0.8550707 -5.5272714E-08 0.5185114 0 0 0 0 1 0.42631686 -1.5422832E-07 -0.9045739 22.9 1.226485E-07 1 -1.1269527E-07 0 0.9045739 -6.290073E-08 0.42631686 0 0 0 0 1 0.36264956 -1.5091359E-07 -0.9319256 22.9 1.1785593E-07 1 -1.1607493E-07 0 0.9319256 -6.7738426E-08 0.36264956 0 0 0 0 1 0.3760001 -1.5161788E-07 -0.92661965 22.9 1.18860406E-07 1 -1.15394016E-07 0 0.92661965 -6.675022E-08 0.3760001 0 0 0 0 1 0.3929929 -1.5250728E-07 -0.9195415 22.9 1.2013916E-07 1 -1.14506456E-07 0 0.9195415 -6.5472726E-08 0.3929929 0 0 0 0 1 0.3607059 -1.5081066E-07 -0.9326796 22.9 1.1770971E-07 1 -1.1617288E-07 0 0.9326796 -6.7881196E-08 0.3607059 0 0 0 0 1 0.30550337 -1.4784457E-07 -0.952191 22.9 1.1355611E-07 1 -1.1883414E-07 0 0.952191 -7.182288E-08 0.30550337 0 0 0 0 1 0.30550337 -1.4784457E-07 -0.952191 22.9 1.1355611E-07 1 -1.1883414E-07 0 0.952191 -7.182288E-08 0.30550337 0 0 0 0 1</float_array>
        <technique_common>
          <accessor source="#Motion_24_RForeArm_transform_pose_array_id" count="16" stride="16">
            <param name="TRANSFORM" type="float4x4" />
          </accessor>
        </technique_common>
      </source>
      <sampler id="Motion_24_RForeArm_transform_samp_id">
        <input semantic="INPUT" source="#Motion_24_RForeArm_transform_frame_id" />
        <input semantic="INTERPOLATION" source="#Motion_24_RForeArm_transform_interp_id" />
        <input semantic="OUTPUT" source="#Motion_24_RForeArm_transform_pose_id" />
      </sampler>
      <channel source="#Motion_24_RForeArm_transform_samp_id" target="RForeArm_bone_id/transform" />
    </animation>
    <animation id="Motion_24_RHand_transform_id" name="Motion_24_RHand_transform">
      <source id="Motion_24_RHand_transform_frame_id" name="Motion_24_RHand_transform_frame">
        <float_array id="Motion_24_RHand_transform_frame_array_id" count="16">0 0.033333335 0.06666667 0.1 0.13333334 0.16666667 0.2 0.23333333 0.26666668 0.3 0.33333334 0.36666667 0.4 0.43333334 0.46666667 0.5</float_array>
        <technique_common>
          <accessor source="#Motion_24_RHand_transform_frame_array_id" count="16" stride="1">
            <param name="TIME" type="float" />
          </accessor>
        </technique_common>
      </source>
      <source id="Motion_24_RHand_transform_interp_id" name="Motion_24_RHand_transform_interp">
        <Name_array id="Motion_24_RHand_transform_interp_array_id" count="16">LINEAR LINEAR LINEAR LINEAR LINEAR LINEAR LINEAR LINEAR LINEAR LINEAR LINEAR LINEAR LINEAR LINEAR LINEAR LINEAR</Name_array>
        <technique_common>
          <accessor source="#Motion_24_RHand_transform_interp_array_id" count="16" stride="1">
            <param name="INTERPOLATION" type="Name" />
          </accessor>
        </technique_common>
      </source>
      <source id="Motion_24_RHand_transform_pose_id" name="Motion_24_RHand_transform_pose">
        <float_array id="Motion_24_RHand_transform_pose_array_id" count="256">0.98800254 0.1345886 0.07574211 22.900002 -0.134478 0.99089473 -0.006581714 0 -0.075938284 -0.0036828988 0.9971057 0 0 0 0 1 0.99436826 0.082311995 0.06675737 22.900002 -0.08354489 0.99637735 0.015886884 0 -0.06520786 -0.02137465 0.99764276 0 0 0 0 1 0.9982059 -0.04942552 0.033794247 22.900002 0.04715278 0.99676865 0.06502948 0 -0.036899164 -0.06331932 0.99731094 0 0 0 0 1 0.97517735 -0.22008507 -0.024325743 22.900002 0.22142337 0.96880513 0.11130262 0 -0.00092913955 -0.113926075 0.9934888 0 0 0 0 1 0.9167939 -0.38750917 -0.09656943 22.900002 0.39753413 0.908619 0.12797712 0 0.03815251 -0.15571828 0.9870644 0 0 0 0 1 0.8396756 -0.52098376 -0.15336478 22.900002 0.53827244 0.8358806 0.10754757 0 0.072164096 -0.17285709 0.98229975 0 0 0 0 1 0.8018051 -0.5792561 -0.14687088 22.900002 0.5897662 0.8066706 0.03818782 0 0.09635589 -0.11723867 0.9884182 0 0 0 0 1 0.8066865 -0.5801217 -0.11276346 22.900002 0.5777777 0.81428164 -0.05584207 0 0.124216415 -0.020105159 0.9920514 0 0 0 0 1 0.8222294 -0.5652509 -0.06655988 22.900002 0.5476655 0.81758636 -0.17780633 0 0.15492363 0.10974504 0.98181194 0 0 0 0 1 0.84404725 -0.5357852 -0.022769257 22.900002 0.50159895 0.8037863 -0.31988445 0 0.18969098 0.25857654 0.9471829 0 0 0 0 1 0.86744976 -0.49743694 0.009350315 22.900002 0.44374514 0.76504767 -0.4666822 0 0.22499152 0.4089725 0.8843757 0 0 0 0 1 0.88804364 -0.45918313 0.023006357 22.900002 0.37882182 0.702438 -0.60255694 0 0.26052344 0.54381216 0.7977442 0 0 0 0 1 0.90341973 -0.42829642 0.019872993 22.900002 0.31267622 0.6264069 -0.71403635 0 0.29337066 0.6512884 0.6998265 0 0 0 0 1 0.91340244 -0.40703613 0.0041857213 22.900002 0.2495224 0.5517529 -0.79580605 0 0.3216123 0.7279357 0.6055372 0 0 0 0 1 0.9181921 -0.39558974 -0.020786017 22.900002 0.1943498 0.49558055 -0.8465389 0 0.34518322 0.7732456 0.5319209 0 0 0 0 1 0.9181921 -0.39558974 -0.020786017 22.900002 0.1943498 0.49558055 -0.8465389 0 0.34518322 0.7732456 0.5319209 0 0 0 0 1</float_array>
        <technique_common>
          <accessor source="#Motion_24_RHand_transform_pose_array_id" count="16" stride="16">
            <param name="TRANSFORM" type="float4x4" />
          </accessor>
        </technique_common>
      </source>
      <sampler id="Motion_24_RHand_transform_samp_id">
        <input semantic="INPUT" source="#Motion_24_RHand_transform_frame_id" />
        <input semantic="INTERPOLATION" source="#Motion_24_RHand_transform_interp_id" />
        <input semantic="OUTPUT" source="#Motion_24_RHand_transform_pose_id" />
      </sampler>
      <channel source="#Motion_24_RHand_transform_samp_id" target="RHand_bone_id/transform" />
    </animation>
    <animation id="Motion_24_LShoulder_transform_id" name="Motion_24_LShoulder_transform">
      <source id="Motion_24_LShoulder_transform_frame_id" name="Motion_24_LShoulder_transform_frame">
        <float_array id="Motion_24_LShoulder_transform_frame_array_id" count="16">0 0.033333335 0.06666667 0.1 0.13333334 0.16666667 0.2 0.23333333 0.26666668 0.3 0.33333334 0.36666667 0.4 0.43333334 0.46666667 0.5</float_array>
        <technique_common>
          <accessor source="#Motion_24_LShoulder_transform_frame_array_id" count="16" stride="1">
            <param name="TIME" type="float" />
          </accessor>
        </technique_common>
      </source>
      <source id="Motion_24_LShoulder_transform_interp_id" name="Motion_24_LShoulder_transform_interp">
        <Name_array id="Motion_24_LShoulder_transform_interp_array_id" count="16">LINEAR LINEAR LINEAR LINEAR LINEAR LINEAR LINEAR LINEAR LINEAR LINEAR LINEAR LINEAR LINEAR LINEAR LINEAR LINEAR</Name_array>
        <technique_common>
          <accessor source="#Motion_24_LShoulder_transform_interp_array_id" count="16" stride="1">
            <param name="INTERPOLATION" type="Name" />
          </accessor>
        </technique_common>
      </source>
      <source id="Motion_24_LShoulder_transform_pose_id" name="Motion_24_LShoulder_transform_pose">
        <float_array id="Motion_24_LShoulder_transform_pose_array_id" count="256">-0.59378433 0.7942934 -0.12852298 14.14009 -0.77707183 -0.6075305 -0.16451819 -3.930001 -0.20875733 0.0021832585 0.97796506 -0.20193632 0 0 0 1 -0.59025383 0.7961253 -0.13336277 14.14009 -0.778144 -0.60511625 -0.1683065 -3.930001 -0.21469295 0.004431896 0.9766715 -0.20193632 0 0 0 1 -0.58346295 0.7986784 -0.14725247 14.14009 -0.78315675 -0.601321 -0.15836096 -3.930001 -0.21502551 0.022923984 0.97633934 -0.20193632 0 0 0 1 -0.57731485 0.79878753 -0.16925095 14.14009 -0.7906247 -0.5986538 -0.12855399 -3.930001 -0.20401008 0.059597842 0.977153 -0.20193632 0 0 0 1 -0.57289207 0.7954387 -0.197665 14.14009 -0.7975034 -0.5966314 -0.0895475 -3.930001 -0.18916276 0.10633746 0.97617096 -0.20193632 0 0 0 1 -0.5709331 0.7883511 -0.22921228 14.14009 -0.80097145 -0.5961453 -0.055279233 -3.930001 -0.18022323 0.15203175 0.9718055 -0.20193632 0 0 0 1 -0.5720556 0.77720714 -0.26210898 14.14009 -0.8025125 -0.59639454 -0.016940683 -3.930001 -0.16948682 0.20065475 0.9648896 -0.20193632 0 0 0 1 -0.57338357 0.7636806 -0.29668695 14.14009 -0.8045019 -0.5933081 0.027605914 -3.930001 -0.15494466 0.25451398 0.9545757 -0.20193632 0 0 0 1 -0.5739132 0.7492478 -0.330532 14.14009 -0.80713606 -0.5857494 0.073682986 -3.930001 -0.13840209 0.30907193 0.94091415 -0.20193632 0 0 0 1 -0.5738832 0.7340763 -0.3630281 14.14009 -0.8100739 -0.57388985 0.120125204 -3.930001 -0.12015718 0.36301753 0.9240024 -0.20193632 0 0 0 1 -0.57387316 0.7185664 -0.3928501 14.14009 -0.8128481 -0.5582061 0.16638312 -3.930001 -0.09973405 0.4148104 0.90442544 -0.20193632 0 0 0 1 -0.5745033 0.70355594 -0.41827583 14.14009 -0.8155316 -0.53552854 0.219356 -3.930001 -0.0696695 0.467138 0.88143533 -0.20193632 0 0 0 1 -0.5695207 0.6925999 -0.4426642 14.14009 -0.81785405 -0.53134406 0.22088061 -3.930001 -0.0822251 0.48783076 0.86905706 -0.20193632 0 0 0 1 -0.56665397 0.6831838 -0.46061152 14.14009 -0.819893 -0.52297103 0.23297353 -3.930001 -0.081722796 0.5096676 0.8564814 -0.20193632 0 0 0 1 -0.565809 0.6763594 -0.471591 14.14009 -0.8209481 -0.51540864 0.24576038 -3.930001 -0.0768397 0.5262052 0.8468788 -0.20193632 0 0 0 1 -0.565809 0.6763594 -0.471591 14.14009 -0.8209481 -0.51540864 0.24576038 -3.930001 -0.0768397 0.5262052 0.8468788 -0.20193632 0 0 0 1</float_array>
        <technique_common>
          <accessor source="#Motion_24_LShoulder_transform_pose_array_id" count="16" stride="16">
            <param name="TRANSFORM" type="float4x4" />
          </accessor>
        </technique_common>
      </source>
      <sampler id="Motion_24_LShoulder_transform_samp_id">
        <input semantic="INPUT" source="#Motion_24_LShoulder_transform_frame_id" />
        <input semantic="INTERPOLATION" source="#Motion_24_LShoulder_transform_interp_id" />
        <input semantic="OUTPUT" source="#Motion_24_LShoulder_transform_pose_id" />
      </sampler>
      <channel source="#Motion_24_LShoulder_transform_samp_id" target="LShoulder_bone_id/transform" />
    </animation>
    <animation id="Motion_24_LArm_transform_id" name="Motion_24_LArm_transform">
      <source id="Motion_24_LArm_transform_frame_id" name="Motion_24_LArm_transform_frame">
        <float_array id="Motion_24_LArm_transform_frame_array_id" count="16">0 0.033333335 0.06666667 0.1 0.13333334 0.16666667 0.2 0.23333333 0.26666668 0.3 0.33333334 0.36666667 0.4 0.43333334 0.46666667 0.5</float_array>
        <technique_common>
          <accessor source="#Motion_24_LArm_transform_frame_array_id" count="16" stride="1">
            <param name="TIME" type="float" />
          </accessor>
        </technique_common>
      </source>
      <source id="Motion_24_LArm_transform_interp_id" name="Motion_24_LArm_transform_interp">
        <Name_array id="Motion_24_LArm_transform_interp_array_id" count="16">LINEAR LINEAR LINEAR LINEAR LINEAR LINEAR LINEAR LINEAR LINEAR LINEAR LINEAR LINEAR LINEAR LINEAR LINEAR LINEAR</Name_array>
        <technique_common>
          <accessor source="#Motion_24_LArm_transform_interp_array_id" count="16" stride="1">
            <param name="INTERPOLATION" type="Name" />
          </accessor>
        </technique_common>
      </source>
      <source id="Motion_24_LArm_transform_pose_id" name="Motion_24_LArm_transform_pose">
        <float_array id="Motion_24_LArm_transform_pose_array_id" count="256">0.79742277 0.55038095 0.24738196 8.161509 -0.569222 0.8221642 0.0056878924 0 -0.20025808 -0.1453509 0.96890134 0 0 0 0 1 0.7878475 0.5550149 0.26693574 8.161509 -0.57112294 0.8206067 -0.020571243 0 -0.23046662 -0.13624611 0.9634948 0 0 0 0 1 0.7677951 0.5639548 0.3040488 8.161509 -0.5757466 0.81551576 -0.058735915 0 -0.281081 -0.12995791 0.95084405 0 0 0 0 1 0.74743164 0.57350993 0.33530924 8.161509 -0.5834346 0.808054 -0.08156496 0 -0.31772628 -0.13466679 0.9385706 0 0 0 0 1 0.7356912 0.58114535 0.34789157 8.161509 -0.59094983 0.8017207 -0.08956706 0 -0.3309633 -0.13969275 0.9332466 0 0 0 0 1 0.7376976 0.58621037 0.3349025 8.161509 -0.5953853 0.7987529 -0.08666089 0 -0.31830588 -0.13546649 0.9382591 0 0 0 0 1 0.753272 0.58803844 0.29460493 8.161509 -0.5996833 0.79801923 -0.05954192 0 -0.27011332 -0.13181841 0.9537624 0 0 0 0 1 0.7703105 0.58640677 0.25049713 8.161509 -0.6015125 0.7986176 -0.019814204 0 -0.2116706 -0.13541406 0.9679146 0 0 0 0 1 0.7865372 0.58254987 0.20492655 8.161509 -0.5995253 0.79989403 0.027183939 0 -0.14808351 -0.14423983 0.9783998 0 0 0 0 1 0.80089307 0.5770527 0.15993917 8.161509 -0.5929804 0.8014571 0.07772256 0 -0.08333437 -0.15708825 0.9840623 0 0 0 0 1 0.81279445 0.5706818 0.116993174 8.161509 -0.5822773 0.80201155 0.13315627 0 -0.01784001 -0.17635116 0.98416567 0 0 0 0 1 0.8196669 0.5662984 0.086326554 8.161509 -0.5714341 0.797763 0.19245088 0 0.04011649 -0.20707554 0.9775021 0 0 0 0 1 0.8306201 0.5567953 0.007015057 8.161509 -0.54322225 0.8074744 0.22998846 0 0.122392006 -0.19484377 0.9731681 0 0 0 0 1 0.83386093 0.5497136 -0.049909256 8.161509 -0.519009 0.8116283 0.26812157 0 0.18789783 -0.19767274 0.96209145 0 0 0 0 1 0.8329903 0.5482278 -0.07465535 8.161509 -0.5080222 0.81129944 0.28932106 0 0.21918169 -0.20307505 0.95431644 0 0 0 0 1 0.8329903 0.5482278 -0.07465535 8.161509 -0.5080222 0.81129944 0.28932106 0 0.21918169 -0.20307505 0.95431644 0 0 0 0 1</float_array>
        <technique_common>
          <accessor source="#Motion_24_LArm_transform_pose_array_id" count="16" stride="16">
            <param name="TRANSFORM" type="float4x4" />
          </accessor>
        </technique_common>
      </source>
      <sampler id="Motion_24_LArm_transform_samp_id">
        <input semantic="INPUT" source="#Motion_24_LArm_transform_frame_id" />
        <input semantic="INTERPOLATION" source="#Motion_24_LArm_transform_interp_id" />
        <input semantic="OUTPUT" source="#Motion_24_LArm_transform_pose_id" />
      </sampler>
      <channel source="#Motion_24_LArm_transform_samp_id" target="LArm_bone_id/transform" />
    </animation>
    <animation id="Motion_24_LForeArm_transform_id" name="Motion_24_LForeArm_transform">
      <source id="Motion_24_LForeArm_transform_frame_id" name="Motion_24_LForeArm_transform_frame">
        <float_array id="Motion_24_LForeArm_transform_frame_array_id" count="16">0 0.033333335 0.06666667 0.1 0.13333334 0.16666667 0.2 0.23333333 0.26666668 0.3 0.33333334 0.36666667 0.4 0.43333334 0.46666667 0.5</float_array>
        <technique_common>
          <accessor source="#Motion_24_LForeArm_transform_frame_array_id" count="16" stride="1">
            <param name="TIME" type="float" />
          </accessor>
        </technique_common>
      </source>
      <source id="Motion_24_LForeArm_transform_interp_id" name="Motion_24_LForeArm_transform_interp">
        <Name_array id="Motion_24_LForeArm_transform_interp_array_id" count="16">LINEAR LINEAR LINEAR LINEAR LINEAR LINEAR LINEAR LINEAR LINEAR LINEAR LINEAR LINEAR LINEAR LINEAR LINEAR LINEAR</Name_array>
        <technique_common>
          <accessor source="#Motion_24_LForeArm_transform_interp_array_id" count="16" stride="1">
            <param name="INTERPOLATION" type="Name" />
          </accessor>
        </technique_common>
      </source>
      <source id="Motion_24_LForeArm_transform_pose_id" name="Motion_24_LForeArm_transform_pose">
        <float_array id="Motion_24_LForeArm_transform_pose_array_id" count="256">0.942551 7.729355E-05 -0.33406213 22.9 -7.422883E-05 1 2.1939293E-05 0 0.33406213 4.11814E-06 0.9425511 0 0 0 0 1 0.90259194 -7.407228E-05 -0.4304972 22.9 6.556941E-05 1 -3.45876E-05 0 0.4304972 2.9910407E-06 0.90259194 0 0 0 0 1 0.7967342 -0.00033835857 -0.6043297 22.9 0.00029672426 0.99999994 -0.0001686963 0 0.6043297 -4.491319E-05 0.7967343 0 0 0 0 1 0.64827263 -0.00067790644 -0.76140803 22.9 0.00057284907 0.99999976 -0.0004026014 0 0.76140815 -0.00017517633 0.6482729 0 0 0 0 1 0.47928727 -0.0010532498 -0.8776575 22.9 0.00085385126 0.99999934 -0.00073378184 0 0.8776577 -0.00039769663 0.47928786 0 0 0 0 1 0.30860102 -0.0014319149 -0.9511905 22.9 0.0011117161 0.99999875 -0.0011447088 0 0.95119095 -0.0007041954 0.3086022 0 0 0 0 1 0.15463197 -0.0017960933 -0.9879705 22.9 0.0013367292 0.9999978 -0.0016087408 0 0.9879712 -0.0010718862 0.15463406 0 0 0 0 1 0.015575767 -0.0021288102 -0.9998765 22.9 0.0015175832 0.9999966 -0.0021054256 0 0.9998776 -0.0014846018 0.015578926 0 0 0 0 1 -0.11351371 -0.0024124957 -0.99353355 22.9 0.0016417707 0.99999523 -0.0026157626 0 0.9935351 -0.0019280792 -0.11350918 0 0 0 0 1 -0.2301215 -0.002640551 -0.9731583 22.9 0.0017094711 0.9999937 -0.0031176019 0 0.9731603 -0.0023810132 -0.23011541 0 0 0 0 1 -0.33275592 -0.0028118468 -0.94300884 22.9 0.0017259369 0.9999921 -0.0035907829 0 0.94301146 -0.0028224278 -0.3327484 0 0 0 0 1 -0.4210111 -0.0029289252 -0.90705097 22.9 0.0016993863 0.99999046 -0.004017809 0 0.90705407 -0.003232971 -0.42100203 0 0 0 0 1 -0.4815526 -0.003033517 -0.8764116 22.9 0.0016787263 0.999989 -0.0043836455 0 0.8764153 -0.0035822126 -0.48154223 0 0 0 0 1 -0.5249276 -0.0031145918 -0.8511413 22.9 0.0016547465 0.99998766 -0.004679805 0 0.8511453 -0.0038649815 -0.52491605 0 0 0 0 1 -0.5609764 -0.0031499239 -0.82782596 22.9 0.0016075713 0.9999867 -0.0048943763 0 0.8278304 -0.004076418 -0.56096387 0 0 0 0 1 -0.5609764 -0.0031499239 -0.82782596 22.9 0.0016075713 0.9999867 -0.0048943763 0 0.8278304 -0.004076418 -0.56096387 0 0 0 0 1</float_array>
        <technique_common>
          <accessor source="#Motion_24_LForeArm_transform_pose_array_id" count="16" stride="16">
            <param name="TRANSFORM" type="float4x4" />
          </accessor>
        </technique_common>
      </source>
      <sampler id="Motion_24_LForeArm_transform_samp_id">
        <input semantic="INPUT" source="#Motion_24_LForeArm_transform_frame_id" />
        <input semantic="INTERPOLATION" source="#Motion_24_LForeArm_transform_interp_id" />
        <input semantic="OUTPUT" source="#Motion_24_LForeArm_transform_pose_id" />
      </sampler>
      <channel source="#Motion_24_LForeArm_transform_samp_id" target="LForeArm_bone_id/transform" />
    </animation>
    <animation id="Motion_24_LHand_transform_id" name="Motion_24_LHand_transform">
      <source id="Motion_24_LHand_transform_frame_id" name="Motion_24_LHand_transform_frame">
        <float_array id="Motion_24_LHand_transform_frame_array_id" count="16">0 0.033333335 0.06666667 0.1 0.13333334 0.16666667 0.2 0.23333333 0.26666668 0.3 0.33333334 0.36666667 0.4 0.43333334 0.46666667 0.5</float_array>
        <technique_common>
          <accessor source="#Motion_24_LHand_transform_frame_array_id" count="16" stride="1">
            <param name="TIME" type="float" />
          </accessor>
        </technique_common>
      </source>
      <source id="Motion_24_LHand_transform_interp_id" name="Motion_24_LHand_transform_interp">
        <Name_array id="Motion_24_LHand_transform_interp_array_id" count="16">LINEAR LINEAR LINEAR LINEAR LINEAR LINEAR LINEAR LINEAR LINEAR LINEAR LINEAR LINEAR LINEAR LINEAR LINEAR LINEAR</Name_array>
        <technique_common>
          <accessor source="#Motion_24_LHand_transform_interp_array_id" count="16" stride="1">
            <param name="INTERPOLATION" type="Name" />
          </accessor>
        </technique_common>
      </source>
      <source id="Motion_24_LHand_transform_pose_id" name="Motion_24_LHand_transform_pose">
        <float_array id="Motion_24_LHand_transform_pose_array_id" count="256">0.98520184 -0.14613648 0.08956246 22.900002 0.14528756 0.98926073 0.015960865 0 -0.090933084 -0.0027123624 0.9958533 0 0 0 0 1 0.98687154 -0.14043432 0.0797668 22.900002 0.13909051 0.99003106 0.022188265 0 -0.08208761 -0.010802161 0.9965666 0 0 0 0 1 0.9908408 -0.12249557 0.056827027 22.900002 0.12010806 0.9917988 0.043693975 0 -0.061713297 -0.036468387 0.99742746 0 0 0 0 1 0.99533886 -0.09154481 0.030333962 22.900002 0.08873348 0.9925272 0.08376224 0 -0.03777528 -0.08068018 0.99602395 0 0 0 0 1 0.9987373 -0.047943644 0.015008017 22.900002 0.04524809 0.98826164 0.14591603 0 -0.021827593 -0.14505269 0.9891831 0 0 0 0 1 0.9997009 0.0064967065 0.023577234 22.900002 -0.011758992 0.97300535 0.23048277 0 -0.021443395 -0.23069109 0.9727907 0 0 0 0 1 0.99705625 0.05606651 0.052301183 22.900002 -0.07067364 0.93655413 0.34332427 0 -0.029733896 -0.34600994 0.9377596 0 0 0 0 1 0.9923365 0.08599683 0.088729024 22.900002 -0.11721829 0.8823333 0.4557937 0 -0.03909175 -0.4627014 0.8856519 0 0 0 0 1 0.9870722 0.100082055 0.12518787 22.900002 -0.15369143 0.81262213 0.5621603 0 -0.04546828 -0.5741331 0.8174985 0 0 0 0 1 0.9814067 0.10462846 0.1609153 22.900002 -0.18554257 0.7317846 0.65579367 0 -0.04914066 -0.6734569 0.7375913 0 0 0 0 1 0.9751686 0.10449344 0.1952622 22.900002 -0.2159043 0.6448791 0.73315495 0 -0.049310625 -0.7571077 0.65142643 0 0 0 0 1 0.9773967 0.15089671 0.14807385 22.900002 -0.2062604 0.5269164 0.8245094 0 0.046393223 -0.8364146 0.5461304 0 0 0 0 1 0.9538607 0.29989645 0.0145572275 22.900002 -0.13302818 0.378654 0.9159283 0 0.26917148 -0.87560457 0.4010778 0 0 0 0 1 0.856188 0.506396 -0.102494866 22.900002 -0.040081322 0.26288056 0.9639956 0 0.5151074 -0.8212533 0.24537224 0 0 0 0 1 0.72017324 0.67509556 -0.15998888 22.900002 0.022752404 0.20749491 0.97797143 0 0.69342107 -0.70794904 0.13407224 0 0 0 0 1 0.72017324 0.67509556 -0.15998888 22.900002 0.022752404 0.20749491 0.97797143 0 0.69342107 -0.70794904 0.13407224 0 0 0 0 1</float_array>
        <technique_common>
          <accessor source="#Motion_24_LHand_transform_pose_array_id" count="16" stride="16">
            <param name="TRANSFORM" type="float4x4" />
          </accessor>
        </technique_common>
      </source>
      <sampler id="Motion_24_LHand_transform_samp_id">
        <input semantic="INPUT" source="#Motion_24_LHand_transform_frame_id" />
        <input semantic="INTERPOLATION" source="#Motion_24_LHand_transform_interp_id" />
        <input semantic="OUTPUT" source="#Motion_24_LHand_transform_pose_id" />
      </sampler>
      <channel source="#Motion_24_LHand_transform_samp_id" target="LHand_bone_id/transform" />
    </animation>
    <animation id="Motion_24_Neck_transform_id" name="Motion_24_Neck_transform">
      <source id="Motion_24_Neck_transform_frame_id" name="Motion_24_Neck_transform_frame">
        <float_array id="Motion_24_Neck_transform_frame_array_id" count="16">0 0.033333335 0.06666667 0.1 0.13333334 0.16666667 0.2 0.23333333 0.26666668 0.3 0.33333334 0.36666667 0.4 0.43333334 0.46666667 0.5</float_array>
        <technique_common>
          <accessor source="#Motion_24_Neck_transform_frame_array_id" count="16" stride="1">
            <param name="TIME" type="float" />
          </accessor>
        </technique_common>
      </source>
      <source id="Motion_24_Neck_transform_interp_id" name="Motion_24_Neck_transform_interp">
        <Name_array id="Motion_24_Neck_transform_interp_array_id" count="16">LINEAR LINEAR LINEAR LINEAR LINEAR LINEAR LINEAR LINEAR LINEAR LINEAR LINEAR LINEAR LINEAR LINEAR LINEAR LINEAR</Name_array>
        <technique_common>
          <accessor source="#Motion_24_Neck_transform_interp_array_id" count="16" stride="1">
            <param name="INTERPOLATION" type="Name" />
          </accessor>
        </technique_common>
      </source>
      <source id="Motion_24_Neck_transform_pose_id" name="Motion_24_Neck_transform_pose">
        <float_array id="Motion_24_Neck_transform_pose_array_id" count="256">0.89843595 -0.0002988057 -0.4391045 15.720233 -0.0007565518 0.99999726 -0.0022284403 0 0.43910396 0.0023343163 0.8984332 0 0 0 0 1 0.9002431 0.0018802823 -0.4353835 15.720233 -0.0074457806 0.99991095 -0.0110773565 0 0.4353239 0.013214084 0.90017694 0 0 0 0 1 0.90462285 0.0068479385 -0.42615792 15.720233 -0.022720141 0.99922407 -0.032172427 0 0.42560694 0.038786285 0.9040765 0 0 0 0 1 0.91037166 0.013160528 -0.41358224 15.720233 -0.041096874 0.997428 -0.058722895 0 0.4117457 0.070456594 0.90857106 0 0 0 0 1 0.916179 0.018355168 -0.40034878 15.720233 -0.055160165 0.9952189 -0.080602646 0 0.3969552 0.09592976 0.9128111 0 0 0 0 1 0.9216522 0.02073566 -0.3874626 15.720233 -0.060092293 0.994151 -0.089737214 0 0.38333556 0.105990015 0.91750747 0 0 0 0 1 0.9275335 0.020986492 -0.37315035 15.720233 -0.059245825 0.994054 -0.09135936 0 0.36901426 0.10684647 0.92326176 0 0 0 0 1 0.9338244 0.02048458 -0.35714474 15.720233 -0.057167575 0.99407405 -0.09245913 0 0.3531343 0.106757686 0.92946166 0 0 0 0 1 0.93995196 0.02050697 -0.34069017 15.720233 -0.05555938 0.9940725 -0.0934507 0 0.33675435 0.10676771 0.93551975 0 0 0 0 1 0.94570464 0.020542243 -0.32437754 15.720233 -0.05397121 0.99407053 -0.09439734 0 0.32051504 0.10677905 0.9412058 0 0 0 0 1 0.9508927 0.020580772 -0.30883583 15.720233 -0.0524568 0.99406856 -0.09526771 0 0.3050433 0.1067899 0.9463321 0 0 0 0 1 0.9553657 0.020612825 -0.29470578 15.720233 -0.051071692 0.994067 -0.096033454 0 0.2909778 0.10679819 0.9507503 0 0 0 0 1 0.9590053 0.020628516 -0.2826364 15.720233 -0.049872663 0.99406636 -0.09666848 0 0.27896523 0.10680142 0.9543437 0 0 0 0 1 0.9617135 0.020617932 -0.27328023 15.720233 -0.048917204 0.9940671 -0.09714836 0 0.26965585 0.106796995 0.9570162 0 0 0 0 1 0.9633967 0.020571148 -0.26728928 15.720233 -0.048262812 0.99406964 -0.09744904 0 0.26369953 0.10678222 0.9586762 0 0 0 0 1 0.9633967 0.020571148 -0.26728928 15.720233 -0.048262812 0.99406964 -0.09744904 0 0.26369953 0.10678222 0.9586762 0 0 0 0 1</float_array>
        <technique_common>
          <accessor source="#Motion_24_Neck_transform_pose_array_id" count="16" stride="16">
            <param name="TRANSFORM" type="float4x4" />
          </accessor>
        </technique_common>
      </source>
      <sampler id="Motion_24_Neck_transform_samp_id">
        <input semantic="INPUT" source="#Motion_24_Neck_transform_frame_id" />
        <input semantic="INTERPOLATION" source="#Motion_24_Neck_transform_interp_id" />
        <input semantic="OUTPUT" source="#Motion_24_Neck_transform_pose_id" />
      </sampler>
      <channel source="#Motion_24_Neck_transform_samp_id" target="Neck_bone_id/transform" />
    </animation>
    <animation id="Motion_24_Head_transform_id" name="Motion_24_Head_transform">
      <source id="Motion_24_Head_transform_frame_id" name="Motion_24_Head_transform_frame">
        <float_array id="Motion_24_Head_transform_frame_array_id" count="16">0 0.033333335 0.06666667 0.1 0.13333334 0.16666667 0.2 0.23333333 0.26666668 0.3 0.33333334 0.36666667 0.4 0.43333334 0.46666667 0.5</float_array>
        <technique_common>
          <accessor source="#Motion_24_Head_transform_frame_array_id" count="16" stride="1">
            <param name="TIME" type="float" />
          </accessor>
        </technique_common>
      </source>
      <source id="Motion_24_Head_transform_interp_id" name="Motion_24_Head_transform_interp">
        <Name_array id="Motion_24_Head_transform_interp_array_id" count="16">LINEAR LINEAR LINEAR LINEAR LINEAR LINEAR LINEAR LINEAR LINEAR LINEAR LINEAR LINEAR LINEAR LINEAR LINEAR LINEAR</Name_array>
        <technique_common>
          <accessor source="#Motion_24_Head_transform_interp_array_id" count="16" stride="1">
            <param name="INTERPOLATION" type="Name" />
          </accessor>
        </technique_common>
      </source>
      <source id="Motion_24_Head_transform_pose_id" name="Motion_24_Head_transform_pose">
        <float_array id="Motion_24_Head_transform_pose_array_id" count="256">0.98110604 0.0031473194 0.19344501 5.129917 -0.0032177665 0.9999948 4.9974537E-05 0 -0.19344385 -0.0006714912 0.9811111 0 0 0 0 1 0.98021066 -0.003320605 0.19792935 5.129917 0.00094341126 0.9999263 0.012103402 0 -0.19795495 -0.011677154 0.9801416 0 0 0 0 1 0.9778123 -0.019519543 0.20857161 5.129917 0.010741169 0.9990114 0.04313818 0 -0.20920745 -0.03994074 0.97705525 0 0 0 0 1 0.97411966 -0.042144593 0.22206905 5.129917 0.023302268 0.9959535 0.08679667 0 -0.22482845 -0.07937564 0.97115993 0 0 0 0 1 0.9698875 -0.066161424 0.23439485 5.129917 0.035241485 0.99039114 0.13372912 0 -0.24099028 -0.12144177 0.96289957 0 0 0 0 1 0.9658336 -0.086545564 0.24428535 5.129917 0.043303885 0.98323435 0.17712986 0 -0.25551954 -0.16049948 0.9533885 0 0 0 0 1 0.96205294 -0.099312395 0.25414804 5.129917 0.047328576 0.9780295 0.20302284 0 -0.26872697 -0.18329024 0.9456165 0 0 0 0 1 0.95830876 -0.11058699 0.26346704 5.129917 0.049049772 0.9720491 0.22959669 0 -0.28149334 -0.20710151 0.9369474 0 0 0 0 1 0.9543212 -0.122748405 0.27240387 5.129917 0.05088013 0.9651608 0.2566629 0 -0.29441848 -0.23107892 0.9273189 0 0 0 0 1 0.9502416 -0.13460402 0.28093165 5.129917 0.051866565 0.95760304 0.28338367 0 -0.30716556 -0.254712 0.9169357 0 0 0 0 1 0.9463327 -0.14579752 0.28843993 5.129917 0.05210504 0.9496166 0.3090524 0 -0.3189664 -0.2774372 0.90625 0 0 0 0 1 0.94277704 -0.15598622 0.2946859 5.129917 0.051691003 0.94151 0.3329969 0 -0.32939267 -0.2987092 0.8956971 0 0 0 0 1 0.9397673 -0.16481116 0.2994573 5.129917 0.050752617 0.93364906 0.35457522 0 -0.338026 -0.31802 0.8857775 0 0 0 0 1 0.9374991 -0.17190386 0.30256313 5.129917 0.049440295 0.92644286 0.37317458 0 -0.34445763 -0.334892 0.87703836 0 0 0 0 1 0.93616295 -0.17689346 0.30382165 5.129917 0.047913 0.92032635 0.38820583 0 -0.34828612 -0.34886694 0.8700509 0 0 0 0 1 0.93616295 -0.17689346 0.30382165 5.129917 0.047913 0.92032635 0.38820583 0 -0.34828612 -0.34886694 0.8700509 0 0 0 0 1</float_array>
        <technique_common>
          <accessor source="#Motion_24_Head_transform_pose_array_id" count="16" stride="16">
            <param name="TRANSFORM" type="float4x4" />
          </accessor>
        </technique_common>
      </source>
      <sampler id="Motion_24_Head_transform_samp_id">
        <input semantic="INPUT" source="#Motion_24_Head_transform_frame_id" />
        <input semantic="INTERPOLATION" source="#Motion_24_Head_transform_interp_id" />
        <input semantic="OUTPUT" source="#Motion_24_Head_transform_pose_id" />
      </sampler>
      <channel source="#Motion_24_Head_transform_samp_id" target="Head_bone_id/transform" />
    </animation>
  </library_animations>
  <library_visual_scenes>
    <visual_scene id="tr0097_00_fi_00_clip_id" name="tr0097_00_fi_00_clip">
      <node id="tr0097_00_fi_bone_id" name="tr0097_00_fi" sid="tr0097_00_fi" type="JOINT">
        <matrix sid="transform">1 0 0 0 0 1 0 0 0 0 1 0 0 0 0 1</matrix>
        <node id="Origin_bone_id" name="Origin" sid="Origin" type="JOINT">
          <matrix sid="transform">1 0 0 0 0 1 0 0 0 0 1 0 0 0 0 1</matrix>
          <node id="Waist_bone_id" name="Waist" sid="Waist" type="JOINT">
            <matrix sid="transform">3.1391647E-07 -1 0 0 1 3.1391647E-07 0 88.8 0 0 1 0 0 0 0 1</matrix>
            <node id="Spine2_bone_id" name="Spine2" sid="Spine2" type="JOINT">
              <matrix sid="transform">1 0 0 12.099998 0 1 0 0 0 0 1 0 0 0 0 1</matrix>
              <node id="Spine3_bone_id" name="Spine3" sid="Spine3" type="JOINT">
                <matrix sid="transform">0.9919065 0 0.12697035 12.099991 0 1 0 0 -0.12697035 0 0.9919065 0 0 0 0 1</matrix>
                <node id="Neck_bone_id" name="Neck" sid="Neck" type="JOINT">
                  <matrix sid="transform">0.9441987 0 -0.32937634 15.720233 0 1 0 0 0.32937634 0 0.9441987 0 0 0 0 1</matrix>
                  <node id="Head_bone_id" name="Head" sid="Head" type="JOINT">
                    <matrix sid="transform">0.9783777 0 0.2068263 5.129917 0 1 0 0 -0.2068263 0 0.9783777 0 0 0 0 1</matrix>
                    <node id="Loc_Head_bone_id" name="Loc_Head" sid="Loc_Head" type="JOINT">
                      <matrix sid="transform">3.1391647E-07 1 0 32.13641 -1 3.1391647E-07 0 0 0 0 1 0 0 0 0 1</matrix>
                    </node>
                    <node id="Loc_Eye_bone_id" name="Loc_Eye" sid="Loc_Eye" type="JOINT">
                      <matrix sid="transform">3.1391647E-07 1 0 10.908144 -1 3.1391647E-07 0 0 0 0 1 11.36679 0 0 0 1</matrix>
                    </node>
                    <node id="Loc_Mouth_bone_id" name="Loc_Mouth" sid="Loc_Mouth" type="JOINT">
                      <matrix sid="transform">3.1391647E-07 1 0 2.02417 -1 3.1391647E-07 0 0 0 0 1 11.358904 0 0 0 1</matrix>
                    </node>
                  </node>
                </node>
                <node id="LShoulder_bone_id" name="LShoulder" sid="LShoulder" type="JOINT">
                  <matrix sid="transform">-0.5887142 0.798307 -0.12697051 14.14009 -0.80482084 -0.59351784 -2.6574628E-07 -3.930001 -0.075359486 0.10218836 0.99190646 -0.201936 0 0 0 1</matrix>
                  <node id="LArm_bone_id" name="LArm" sid="LArm" type="JOINT">
                    <matrix sid="transform">0.8048207 -0.593518 0 8.161509 0.593518 0.8048207 0 0 0 0 1 0 0 0 0 1</matrix>
                    <node id="LForeArm_bone_id" name="LForeArm" sid="LForeArm" type="JOINT">
                      <matrix sid="transform">1 0 0 22.9 0 1 0 0 0 0 1 0 0 0 0 1</matrix>
                      <node id="LHand_bone_id" name="LHand" sid="LHand" type="JOINT">
                        <matrix sid="transform">1 0 0 22.900002 0 1 0 0 0 0 1 0 0 0 0 1</matrix>
                      </node>
                    </node>
                  </node>
                </node>
                <node id="RShoulder_bone_id" name="RShoulder" sid="RShoulder" type="JOINT">
                  <matrix sid="transform">-0.58871174 -0.79830885 -0.12696993 14.14009 0.8048227 -0.5935153 -1.4453335E-07 3.93 -0.07535849 -0.10218837 0.9919065 -0.201935 0 0 0 1</matrix>
                  <node id="RArm_bone_id" name="RArm" sid="RArm" type="JOINT">
                    <matrix sid="transform">0.8048231 0.5935148 0 8.161548 -0.5935148 0.8048231 0 0 0 0 1 0 0 0 0 1</matrix>
                    <node id="RForeArm_bone_id" name="RForeArm" sid="RForeArm" type="JOINT">
                      <matrix sid="transform">1 0 0 22.9 0 1 0 0 0 0 1 0 0 0 0 1</matrix>
                      <node id="RHand_bone_id" name="RHand" sid="RHand" type="JOINT">
                        <matrix sid="transform">1 0 0 22.900002 0 1 0 0 0 0 1 0 0 0 0 1</matrix>
                      </node>
                    </node>
                  </node>
                </node>
              </node>
            </node>
            <node id="Hips_bone_id" name="Hips" sid="Hips" type="JOINT">
              <matrix sid="transform">-1 -3.2584137E-07 0 -0.010002 3.2584137E-07 -1 0 0 0 0 1 0 0 0 0 1</matrix>
              <node id="LThigh_bone_id" name="LThigh" sid="LThigh" type="JOINT">
                <matrix sid="transform">1 0 0 10.510002 0 1 0 7.199996 0 0 1 0 0 0 0 1</matrix>
                <node id="LLeg_bone_id" name="LLeg" sid="LLeg" type="JOINT">
                  <matrix sid="transform">1 0 0 33.899998 0 1 0 0 0 0 1 0 0 0 0 1</matrix>
                  <node id="LFoot_bone_id" name="LFoot" sid="LFoot" type="JOINT">
                    <matrix sid="transform">3.1391647E-07 0 -1 33.9 0 1 0 4E-06 1 0 3.1391647E-07 0 0 0 0 1</matrix>
                  </node>
                </node>
              </node>
              <node id="RThigh_bone_id" name="RThigh" sid="RThigh" type="JOINT">
                <matrix sid="transform">1 0 0 10.510002 0 1 0 -7.2 0 0 1 0 0 0 0 1</matrix>
                <node id="RLeg_bone_id" name="RLeg" sid="RLeg" type="JOINT">
                  <matrix sid="transform">1 0 0 33.899998 0 1 0 0 0 0 1 0 0 0 0 1</matrix>
                  <node id="RFoot_bone_id" name="RFoot" sid="RFoot" type="JOINT">
                    <matrix sid="transform">3.1391647E-07 0 -1 33.9 0 1 0 0 1 0 3.1391647E-07 0 0 0 0 1</matrix>
                  </node>
                </node>
              </node>
            </node>
          </node>
          <node id="CamTgtHead_bone_id" name="CamTgtHead" sid="CamTgtHead" type="JOINT">
            <matrix sid="transform">1 0 0 0 0 1 0 144.52014 0 0 1 0 0 0 0 1</matrix>
          </node>
          <node id="CamTgtBust_bone_id" name="CamTgtBust" sid="CamTgtBust" type="JOINT">
            <matrix sid="transform">1 0 0 0 0 1 0 113 0 0 1 0 0 0 0 1</matrix>
          </node>
          <node id="CamTgtBody_bone_id" name="CamTgtBody" sid="CamTgtBody" type="JOINT">
            <matrix sid="transform">1 0 0 0 0 1 0 88.8 0 0 1 0 0 0 0 1</matrix>
          </node>
          <node id="CamTgtFoot_bone_id" name="CamTgtFoot" sid="CamTgtFoot" type="JOINT">
            <matrix sid="transform">1 0 0 0 0 1 0 0 0 0 1 0 0 0 0 1</matrix>
          </node>
        </node>
        <node id="tr0097_00_fi_HeadSkin_bone_id" name="tr0097_00_fi_HeadSkin" sid="tr0097_00_fi_HeadSkin" type="JOINT">
          <matrix sid="transform">1 0 0 0 0 1 0 0 0 0 1 0 0 0 0 1</matrix>
        </node>
        <node id="tr0097_00_fi_FaceSkin_bone_id" name="tr0097_00_fi_FaceSkin" sid="tr0097_00_fi_FaceSkin" type="JOINT">
          <matrix sid="transform">1 0 0 0 0 1 0 0 0 0 1 0 0 0 0 1</matrix>
        </node>
        <node id="tr0097_00_fi_BodySkin_bone_id" name="tr0097_00_fi_BodySkin" sid="tr0097_00_fi_BodySkin" type="JOINT">
          <matrix sid="transform">1 0 0 0 0 1 0 0 0 0 1 0 0 0 0 1</matrix>
        </node>
        <node id="tr0097_00_fi_BottomsSkin_bone_id" name="tr0097_00_fi_BottomsSkin" sid="tr0097_00_fi_BottomsSkin" type="JOINT">
          <matrix sid="transform">1 0 0 0 0 1 0 0 0 0 1 0 0 0 0 1</matrix>
        </node>
      </node>
    </visual_scene>
  </library_visual_scenes>
  <scene>
    <instance_visual_scene url="#tr0097_00_fi_00_clip_id" />
  </scene>
</COLLADA>