<?xml version="1.0" encoding="utf-8"?>
<COLLADA xmlns:xsi="http://www.w3.org/2001/XMLSchema-instance" xmlns:xsd="http://www.w3.org/2001/XMLSchema" version="1.4.1" xmlns="http://www.collada.org/2005/11/COLLADASchema">
  <asset>
    <created>2026-02-17T05:46:55.0783878-05:00</created>
    <modified>2026-02-17T05:46:55.078388-05:00</modified>
    <up_axis>Y_UP</up_axis>
  </asset>
  <library_animations>
    <animation id="Motion_30_Waist_transform_id" name="Motion_30_Waist_transform">
      <source id="Motion_30_Waist_transform_frame_id" name="Motion_30_Waist_transform_frame">
        <float_array id="Motion_30_Waist_transform_frame_array_id" count="17">0 0.033333335 0.06666667 0.1 0.13333334 0.16666667 0.2 0.23333333 0.26666668 0.3 0.33333334 0.36666667 0.4 0.43333334 0.46666667 0.5 0.53333336</float_array>
        <technique_common>
          <accessor source="#Motion_30_Waist_transform_frame_array_id" count="17" stride="1">
            <param name="TIME" type="float" />
          </accessor>
        </technique_common>
      </source>
      <source id="Motion_30_Waist_transform_interp_id" name="Motion_30_Waist_transform_interp">
        <Name_array id="Motion_30_Waist_transform_interp_array_id" count="17">LINEAR LINEAR LINEAR LINEAR LINEAR LINEAR LINEAR LINEAR LINEAR LINEAR LINEAR LINEAR LINEAR LINEAR LINEAR LINEAR LINEAR</Name_array>
        <technique_common>
          <accessor source="#Motion_30_Waist_transform_interp_array_id" count="17" stride="1">
            <param name="INTERPOLATION" type="Name" />
          </accessor>
        </technique_common>
      </source>
      <source id="Motion_30_Waist_transform_pose_id" name="Motion_30_Waist_transform_pose">
        <float_array id="Motion_30_Waist_transform_pose_array_id" count="272">0.003243346 -0.9187608 -0.13751058 -0.043632388 0.9289943 0.0032074645 0.00048116123 31.652119 -1.0866895E-06 -0.13751142 0.9187664 -0.6727514 0 0 0 1 0.008530222 -0.9239123 -0.096718915 0.3887459 0.9289545 0.008843189 -0.00254484 31.606947 0.0034515786 -0.096690804 0.92394805 -0.5182476 0 0 0 1 0.021248283 -0.9202158 -0.12566686 1.555495 0.9287061 0.022365704 -0.0067469026 31.541164 0.009708523 -0.1254728 0.9204365 -0.35662293 0 0 0 1 0.035283383 -0.91085017 -0.17929888 2.935741 0.9282309 0.0372335 -0.0064865053 31.451693 0.013545931 -0.17890407 0.9115102 -0.49262285 0 0 0 1 0.042455312 -0.9032925 -0.21284139 4.004269 0.92795193 0.044074576 -0.001953328 31.350895 0.011997129 -0.21251199 0.90428746 -1.035274 0 0 0 1 0.033085197 -0.9016447 -0.22132175 4.4749084 0.9284086 0.03260329 0.0059641884 31.24344 0.00197873 -0.22139324 0.90223175 -2.012197 0 0 0 1 0.009007702 -0.9002531 -0.22913831 4.2310543 0.928882 0.0058284216 0.013616289 31.13399 -0.0117573375 -0.22924122 0.9001951 -3.123016 0 0 0 1 -0.01681924 -0.8983281 -0.2361452 3.2393365 0.92861843 -0.021509863 0.015686205 31.027205 -0.020635957 -0.2357642 0.89834875 -3.892028 0 0 0 1 -0.03034004 -0.8966388 -0.24116263 1.994668 0.92825186 -0.034919363 0.013048622 30.927755 -0.021658907 -0.24054223 0.89705706 -4.2202244 0 0 0 1 -0.024853269 -0.8962519 -0.24321964 0.6351892 0.9284676 -0.029028593 0.012093775 30.833351 -0.019267358 -0.2427567 0.8965149 -4.172262 0 0 0 1 -0.010722816 -0.89676845 -0.24234769 -0.70423436 0.9287587 -0.015112875 0.014829041 30.76014 -0.018257042 -0.24211358 0.89671 -3.8436918 0 0 0 1 0.0030175915 -0.89796305 -0.23810577 -1.6016903 0.9288751 -0.0009116564 0.015210124 30.738548 -0.014935628 -0.23812316 0.89783925 -3.2976873 0 0 0 1 0.012679079 -0.8979101 -0.23798679 -1.809393 0.9288707 0.009970079 0.0118703805 30.82125 -0.008919043 -0.23811567 0.89792114 -2.5979517 0 0 0 1 0.0161659 -0.89702445 -0.24109522 -1.4699724 0.9288457 0.014303492 0.009063053 31.045424 -0.005039056 -0.24121287 0.8971243 -1.8090873 0 0 0 1 0.012291359 -0.8988922 -0.23427086 -0.86322385 0.92891455 0.011187503 0.005810633 31.3283 -0.0028010842 -0.23432615 0.89895743 -1.164099 0 0 0 1 0.006366146 -0.9062171 -0.20437983 -0.2724315 0.9289778 0.00601093 0.0022840484 31.555674 -0.00090562075 -0.20439059 0.9062366 -0.783612 0 0 0 1 0.006366146 -0.9062171 -0.20437983 -0.2724315 0.9289778 0.00601093 0.0022840484 31.555674 -0.00090562075 -0.20439059 0.9062366 -0.783612 0 0 0 1</float_array>
        <technique_common>
          <accessor source="#Motion_30_Waist_transform_pose_array_id" count="17" stride="16">
            <param name="TRANSFORM" type="float4x4" />
          </accessor>
        </technique_common>
      </source>
      <sampler id="Motion_30_Waist_transform_samp_id">
        <input semantic="INPUT" source="#Motion_30_Waist_transform_frame_id" />
        <input semantic="INTERPOLATION" source="#Motion_30_Waist_transform_interp_id" />
        <input semantic="OUTPUT" source="#Motion_30_Waist_transform_pose_id" />
      </sampler>
      <channel source="#Motion_30_Waist_transform_samp_id" target="Waist_bone_id/transform" />
    </animation>
    <animation id="Motion_30_Hips_transform_id" name="Motion_30_Hips_transform">
      <source id="Motion_30_Hips_transform_frame_id" name="Motion_30_Hips_transform_frame">
        <float_array id="Motion_30_Hips_transform_frame_array_id" count="17">0 0.033333335 0.06666667 0.1 0.13333334 0.16666667 0.2 0.23333333 0.26666668 0.3 0.33333334 0.36666667 0.4 0.43333334 0.46666667 0.5 0.53333336</float_array>
        <technique_common>
          <accessor source="#Motion_30_Hips_transform_frame_array_id" count="17" stride="1">
            <param name="TIME" type="float" />
          </accessor>
        </technique_common>
      </source>
      <source id="Motion_30_Hips_transform_interp_id" name="Motion_30_Hips_transform_interp">
        <Name_array id="Motion_30_Hips_transform_interp_array_id" count="17">LINEAR LINEAR LINEAR LINEAR LINEAR LINEAR LINEAR LINEAR LINEAR LINEAR LINEAR LINEAR LINEAR LINEAR LINEAR LINEAR LINEAR</Name_array>
        <technique_common>
          <accessor source="#Motion_30_Hips_transform_interp_array_id" count="17" stride="1">
            <param name="INTERPOLATION" type="Name" />
          </accessor>
        </technique_common>
      </source>
      <source id="Motion_30_Hips_transform_pose_id" name="Motion_30_Hips_transform_pose">
        <float_array id="Motion_30_Hips_transform_pose_array_id" count="272">-0.99949443 -0.0028604183 -0.031668708 -0.001 0.0039624744 -0.9993868 -0.03479165 0 -0.031549767 -0.03489954 0.9988927 0 0 0 0 1 -0.99947834 -0.006846753 -0.031556554 -0.001 0.007946057 -0.99936104 -0.034843303 0 -0.031297833 -0.03507588 0.99889445 0 0 0 0 1 -0.99937 -0.016195975 -0.03157854 -0.001 0.017294172 -0.999244 -0.03481939 0 -0.030990733 -0.035343584 0.9988946 0 0 0 0 1 -0.9991096 -0.027833432 -0.03169728 -0.001 0.028931968 -0.99897707 -0.034742553 0 -0.030697864 -0.035628695 0.9988935 0 0 0 0 1 -0.99880147 -0.037176628 -0.031835437 -0.001 0.038275797 -0.9986665 -0.03464276 0 -0.030505085 -0.035819765 0.9988926 0 0 0 0 1 -0.9986416 -0.041156154 -0.03195833 -0.001 0.042256188 -0.9985095 -0.034544054 0 -0.030488996 -0.035847563 0.99889207 0 0 0 0 1 -0.99897146 -0.032224063 -0.031909186 -0.001 0.03332198 -0.9988495 -0.034495384 0 -0.030760882 -0.03552317 0.99889535 0 0 0 0 1 -0.9994476 -0.009878885 -0.031721048 -0.001 0.010973116 -0.9993439 -0.03450869 0 -0.031359337 -0.034837715 0.99890083 0 0 0 0 1 -0.99928284 0.020904753 -0.031570923 -0.001 -0.01981096 -0.9992058 -0.03456981 0 -0.032268528 -0.03391957 0.9989035 0 0 0 0 1 -0.9980866 0.053203557 -0.03150322 -0.001 -0.052107092 -0.99803984 -0.034659203 0 -0.033285465 -0.032951344 0.99890256 0 0 0 0 1 -0.9962907 0.08009827 -0.031449325 -0.001 -0.078999564 -0.99626875 -0.034750447 0 -0.034115434 -0.032137066 0.99890107 0 0 0 0 1 -0.99485826 0.09627549 -0.03142818 -0.001 -0.09517479 -0.99485123 -0.034821324 0 -0.03461881 -0.031651117 0.9988993 0 0 0 0 1 -0.9949299 0.09551445 -0.03148737 -0.001 -0.09441103 -0.99492323 -0.034845475 0 -0.03465577 -0.031696048 0.99889654 0 0 0 0 1 -0.99687076 0.07243916 -0.03164195 -0.001 -0.071332626 -0.9968451 -0.034802645 0 -0.0340632 -0.03243664 0.99889314 0 0 0 0 1 -0.99870825 0.0396795 -0.03173675 -0.001 -0.038572285 -0.99865067 -0.034770288 0 -0.033073593 -0.033501215 0.9988913 0 0 0 0 1 -0.9994433 0.010022964 -0.031818315 -0.001 -0.008915452 -0.9993558 -0.034760453 0 -0.032146223 -0.03445743 0.998889 0 0 0 0 1 -0.9994433 0.010022964 -0.031818315 -0.001 -0.008915452 -0.9993558 -0.034760453 0 -0.032146223 -0.03445743 0.998889 0 0 0 0 1</float_array>
        <technique_common>
          <accessor source="#Motion_30_Hips_transform_pose_array_id" count="17" stride="16">
            <param name="TRANSFORM" type="float4x4" />
          </accessor>
        </technique_common>
      </source>
      <sampler id="Motion_30_Hips_transform_samp_id">
        <input semantic="INPUT" source="#Motion_30_Hips_transform_frame_id" />
        <input semantic="INTERPOLATION" source="#Motion_30_Hips_transform_interp_id" />
        <input semantic="OUTPUT" source="#Motion_30_Hips_transform_pose_id" />
      </sampler>
      <channel source="#Motion_30_Hips_transform_samp_id" target="Hips_bone_id/transform" />
    </animation>
    <animation id="Motion_30_RThigh_transform_id" name="Motion_30_RThigh_transform">
      <source id="Motion_30_RThigh_transform_frame_id" name="Motion_30_RThigh_transform_frame">
        <float_array id="Motion_30_RThigh_transform_frame_array_id" count="17">0 0.033333335 0.06666667 0.1 0.13333334 0.16666667 0.2 0.23333333 0.26666668 0.3 0.33333334 0.36666667 0.4 0.43333334 0.46666667 0.5 0.53333336</float_array>
        <technique_common>
          <accessor source="#Motion_30_RThigh_transform_frame_array_id" count="17" stride="1">
            <param name="TIME" type="float" />
          </accessor>
        </technique_common>
      </source>
      <source id="Motion_30_RThigh_transform_interp_id" name="Motion_30_RThigh_transform_interp">
        <Name_array id="Motion_30_RThigh_transform_interp_array_id" count="17">LINEAR LINEAR LINEAR LINEAR LINEAR LINEAR LINEAR LINEAR LINEAR LINEAR LINEAR LINEAR LINEAR LINEAR LINEAR LINEAR LINEAR</Name_array>
        <technique_common>
          <accessor source="#Motion_30_RThigh_transform_interp_array_id" count="17" stride="1">
            <param name="INTERPOLATION" type="Name" />
          </accessor>
        </technique_common>
      </source>
      <source id="Motion_30_RThigh_transform_pose_id" name="Motion_30_RThigh_transform_pose">
        <float_array id="Motion_30_RThigh_transform_pose_array_id" count="272">0.9276123 0.0036650058 0.3735264 14.063893 0.06262782 0.9842718 -0.165187 -8.200001 -0.36825693 0.17662263 0.9127931 0.74043494 0 0 0 1 0.9377617 0.03484952 0.34552643 14.063893 0.061638113 0.96245277 -0.26435858 -8.200001 -0.3417656 0.26920295 0.90040326 0.74043494 0 0 0 1 0.83415115 0.07856469 0.54591155 14.063893 0.12818475 0.93508255 -0.33043802 -8.200001 -0.5364331 0.34561282 0.7699294 0.74043494 0 0 0 1 0.6439978 0.20434934 0.73723006 14.063893 0.2121852 0.8781466 -0.42876092 -8.200001 -0.7350131 0.4325504 0.5221646 0.74043494 0 0 0 1 0.6388758 0.22669059 0.7351524 14.063893 0.2538011 0.8399919 -0.47958168 -8.200001 -0.7262388 0.49297562 0.4791162 0.74043494 0 0 0 1 0.7219878 0.17299339 0.6699305 14.063893 0.26998746 0.8210455 -0.50298214 -8.200001 -0.63705605 0.5440198 0.5460788 0.74043494 0 0 0 1 0.78854865 0.12729958 0.60165256 14.063893 0.27284598 0.804358 -0.5277909 -8.200001 -0.55113167 0.5803473 0.59954226 0.74043494 0 0 0 1 0.81663024 0.08209161 0.57129323 14.063893 0.29169124 0.79541636 -0.5312523 -8.200001 -0.49802732 0.600478 0.62561566 0.74043494 0 0 0 1 0.8276354 0.06228655 0.55779934 14.063893 0.29894185 0.7922069 -0.53201693 -8.200001 -0.47502995 0.6070656 0.63703835 0.74043494 0 0 0 1 0.8149134 0.059375733 0.5765334 14.063893 0.30893123 0.79714966 -0.51876193 -8.200001 -0.49038523 0.6008552 0.6312649 0.74043494 0 0 0 1 0.7971875 0.045682102 0.602001 14.063893 0.3189575 0.8147497 -0.48419926 -8.200001 -0.5125994 0.5780103 0.6349377 0.74043494 0 0 0 1 0.78806 0.031871274 0.61477286 14.063893 0.30920142 0.8430537 -0.4400625 -8.200001 -0.53231186 0.5368843 0.65452224 0.74043494 0 0 0 1 0.8002433 0.021399885 0.5992935 14.063893 0.26362985 0.885057 -0.38363197 -8.200001 -0.53861856 0.4649906 0.70261925 0.74043494 0 0 0 1 0.831557 0.008048557 0.5553812 14.063893 0.19244862 0.93378395 -0.3016804 -8.200001 -0.5210341 0.35774678 0.7749456 0.74043494 0 0 0 1 0.8733591 -0.0027439333 0.48706916 14.063893 0.11733991 0.97171825 -0.20492686 -8.200001 -0.47273168 0.23612739 0.8489809 0.74043494 0 0 0 1 0.91124755 -0.0055506695 0.41182166 14.063893 0.067363724 0.98845243 -0.13573462 -8.200001 -0.4063127 0.15142968 0.9010988 0.74043494 0 0 0 1 0.91124755 -0.0055506695 0.41182166 14.063893 0.067363724 0.98845243 -0.13573462 -8.200001 -0.4063127 0.15142968 0.9010988 0.74043494 0 0 0 1</float_array>
        <technique_common>
          <accessor source="#Motion_30_RThigh_transform_pose_array_id" count="17" stride="16">
            <param name="TRANSFORM" type="float4x4" />
          </accessor>
        </technique_common>
      </source>
      <sampler id="Motion_30_RThigh_transform_samp_id">
        <input semantic="INPUT" source="#Motion_30_RThigh_transform_frame_id" />
        <input semantic="INTERPOLATION" source="#Motion_30_RThigh_transform_interp_id" />
        <input semantic="OUTPUT" source="#Motion_30_RThigh_transform_pose_id" />
      </sampler>
      <channel source="#Motion_30_RThigh_transform_samp_id" target="RThigh_bone_id/transform" />
    </animation>
    <animation id="Motion_30_RLeg_transform_id" name="Motion_30_RLeg_transform">
      <source id="Motion_30_RLeg_transform_frame_id" name="Motion_30_RLeg_transform_frame">
        <float_array id="Motion_30_RLeg_transform_frame_array_id" count="17">0 0.033333335 0.06666667 0.1 0.13333334 0.16666667 0.2 0.23333333 0.26666668 0.3 0.33333334 0.36666667 0.4 0.43333334 0.46666667 0.5 0.53333336</float_array>
        <technique_common>
          <accessor source="#Motion_30_RLeg_transform_frame_array_id" count="17" stride="1">
            <param name="TIME" type="float" />
          </accessor>
        </technique_common>
      </source>
      <source id="Motion_30_RLeg_transform_interp_id" name="Motion_30_RLeg_transform_interp">
        <Name_array id="Motion_30_RLeg_transform_interp_array_id" count="17">LINEAR LINEAR LINEAR LINEAR LINEAR LINEAR LINEAR LINEAR LINEAR LINEAR LINEAR LINEAR LINEAR LINEAR LINEAR LINEAR LINEAR</Name_array>
        <technique_common>
          <accessor source="#Motion_30_RLeg_transform_interp_array_id" count="17" stride="1">
            <param name="INTERPOLATION" type="Name" />
          </accessor>
        </technique_common>
      </source>
      <source id="Motion_30_RLeg_transform_pose_id" name="Motion_30_RLeg_transform_pose">
        <float_array id="Motion_30_RLeg_transform_pose_array_id" count="272">0.86070377 2.5324798E-06 -0.5091061 9.475058 -2.179715E-06 1 1.2893008E-06 0 0.5091061 -5.684342E-14 0.86070377 -6.3E-10 0 0 0 1 0.8566994 2.5315694E-06 -0.515816 9.475058 -2.173896E-06 1 1.2973505E-06 0 0.515816 9.890755E-09 0.8566994 -6.3E-10 0 0 0 1 0.6359107 2.4433025E-06 -0.7717626 9.475058 -1.8846545E-06 1 1.6129706E-06 0 0.7717626 4.2880072E-07 0.6359107 -6.3E-10 0 0 0 1 0.4240284 2.319967E-06 -0.90564895 9.475058 -1.6322457E-06 1 1.7974389E-06 0 0.90564895 7.1607633E-07 0.4240284 -6.3E-10 0 0 0 1 0.3756886 2.2883137E-06 -0.92674595 9.475058 -1.5760378E-06 1 1.8302906E-06 0 0.92674595 7.729675E-07 0.3756886 -6.3E-10 0 0 0 1 0.4558084 2.3401226E-06 -0.8900779 9.475058 -1.6693939E-06 1 1.7742254E-06 0 0.8900779 6.7718383E-07 0.4558084 -6.3E-10 0 0 0 1 0.53121084 2.3857401E-06 -0.8472396 9.475058 -1.7583576E-06 1 1.7134248E-06 0 0.8472396 5.795605E-07 0.53121084 -6.3E-10 0 0 0 1 0.59710765 2.4228282E-06 -0.80216116 9.475058 -1.837379E-06 1 1.6526794E-06 0 0.80216116 4.8704646E-07 0.59710765 -6.3E-10 0 0 0 1 0.61872447 2.4343676E-06 -0.7856081 9.475058 -1.8636373E-06 1 1.630953E-06 0 0.7856081 4.5497814E-07 0.61872447 -6.3E-10 0 0 0 1 0.5620169 2.403422E-06 -0.8271257 9.475058 -1.7951247E-06 1 1.685997E-06 0 0.8271257 5.3723505E-07 0.5620169 -6.3E-10 0 0 0 1 0.5535264 2.3986072E-06 -0.8328316 9.475058 -1.7849629E-06 1 1.6937195E-06 0 0.8328316 5.4905513E-07 0.5535264 -6.3E-10 0 0 0 1 0.56274855 2.4038347E-06 -0.8266281 9.475058 -1.7960014E-06 1 1.6853255E-06 0 0.8266281 5.3621073E-07 0.56274855 -6.3E-10 0 0 0 1 0.59295917 2.4205765E-06 -0.8052325 9.475058 -1.8323607E-06 1 1.6567407E-06 0 0.8052325 4.9309676E-07 0.59295917 -6.3E-10 0 0 0 1 0.6647874 2.4578053E-06 -0.74703264 9.475058 -1.920283E-06 1 1.581223E-06 0 0.74703264 3.833369E-07 0.6647874 -6.3E-10 0 0 0 1 0.7505125 2.496493E-06 -0.6608563 9.475058 -2.0290354E-06 1 1.4733562E-06 0 0.6608563 2.3512877E-07 0.7505125 -6.3E-10 0 0 0 1 0.82678795 2.5236318E-06 -0.56251377 9.475058 -2.1314368E-06 1 1.3535414E-06 0 0.56251377 7.9870745E-08 0.82678795 -6.3E-10 0 0 0 1 0.82678795 2.5236318E-06 -0.56251377 9.475058 -2.1314368E-06 1 1.3535414E-06 0 0.56251377 7.9870745E-08 0.82678795 -6.3E-10 0 0 0 1</float_array>
        <technique_common>
          <accessor source="#Motion_30_RLeg_transform_pose_array_id" count="17" stride="16">
            <param name="TRANSFORM" type="float4x4" />
          </accessor>
        </technique_common>
      </source>
      <sampler id="Motion_30_RLeg_transform_samp_id">
        <input semantic="INPUT" source="#Motion_30_RLeg_transform_frame_id" />
        <input semantic="INTERPOLATION" source="#Motion_30_RLeg_transform_interp_id" />
        <input semantic="OUTPUT" source="#Motion_30_RLeg_transform_pose_id" />
      </sampler>
      <channel source="#Motion_30_RLeg_transform_samp_id" target="RLeg_bone_id/transform" />
    </animation>
    <animation id="Motion_30_RFoot_transform_id" name="Motion_30_RFoot_transform">
      <source id="Motion_30_RFoot_transform_frame_id" name="Motion_30_RFoot_transform_frame">
        <float_array id="Motion_30_RFoot_transform_frame_array_id" count="17">0 0.033333335 0.06666667 0.1 0.13333334 0.16666667 0.2 0.23333333 0.26666668 0.3 0.33333334 0.36666667 0.4 0.43333334 0.46666667 0.5 0.53333336</float_array>
        <technique_common>
          <accessor source="#Motion_30_RFoot_transform_frame_array_id" count="17" stride="1">
            <param name="TIME" type="float" />
          </accessor>
        </technique_common>
      </source>
      <source id="Motion_30_RFoot_transform_interp_id" name="Motion_30_RFoot_transform_interp">
        <Name_array id="Motion_30_RFoot_transform_interp_array_id" count="17">LINEAR LINEAR LINEAR LINEAR LINEAR LINEAR LINEAR LINEAR LINEAR LINEAR LINEAR LINEAR LINEAR LINEAR LINEAR LINEAR LINEAR</Name_array>
        <technique_common>
          <accessor source="#Motion_30_RFoot_transform_interp_array_id" count="17" stride="1">
            <param name="INTERPOLATION" type="Name" />
          </accessor>
        </technique_common>
      </source>
      <source id="Motion_30_RFoot_transform_pose_id" name="Motion_30_RFoot_transform_pose">
        <float_array id="Motion_30_RFoot_transform_pose_array_id" count="272">0.12227672 -0.003398303 -0.99249023 6.97659 -0.097421244 0.9951239 -0.015409812 0 0.98770314 0.0985739 0.121349454 0 0 0 0 1 0.15595001 -0.06700225 -0.98548985 6.97659 0.05030519 0.9969408 -0.059820183 0 0.9864831 -0.0402463 0.15884352 0 0 0 0 1 0.28025228 -0.12939787 -0.95116496 6.97659 0.14190003 0.9855713 -0.092268996 0 0.9493803 -0.10911176 0.2945702 0 0 0 0 1 0.31294268 -0.21007 -0.92624915 6.97659 0.17491661 0.9712991 -0.16118982 0 0.93352616 -0.11157319 0.3407057 0 0 0 0 1 0.38601857 -0.2100128 -0.8982673 6.97659 0.1582492 0.974382 -0.1598027 0 0.90881616 -0.08046329 0.40936393 0 0 0 0 1 0.31773716 -0.14088774 -0.9376533 6.97659 0.040266093 0.99001205 -0.1351102 0 0.94732344 0.005173892 0.32023662 0 0 0 0 1 0.23394293 -0.10720537 -0.9663217 6.97659 -0.07313075 0.9891463 -0.12744224 0 0.969496 0.10048204 0.22356379 0 0 0 0 1 0.2392034 -0.019722499 -0.97076917 6.97659 -0.22924545 0.97038126 -0.07620207 0 0.9435191 0.24077222 0.22759718 0 0 0 0 1 0.25566602 0.05091779 -0.9654234 6.97659 -0.29101145 0.95634896 -0.026627228 0 0.92192584 0.28775692 0.25932354 0 0 0 0 1 0.28441054 0.055267185 -0.9571082 6.97659 -0.20067155 0.9796538 -0.0030617118 0 0.9374655 0.19293518 0.28971446 0 0 0 0 1 0.26063615 0.05796159 -0.96369565 6.97659 -0.1311787 0.991065 0.024129808 0 0.9564836 0.120127246 0.26591069 0 0 0 0 1 0.23867708 0.06148859 -0.96915036 6.97659 -0.08676282 0.9953524 0.041783527 0 0.96721536 0.07411344 0.2429027 0 0 0 0 1 0.23109996 0.05963656 -0.97110045 6.97659 -0.0714113 0.9964672 0.04420009 0 0.9703057 0.059132922 0.23454225 0 0 0 0 1 0.20757186 0.05469423 -0.9766895 6.97659 -0.08763318 0.9954609 0.037121095 0 0.9742866 0.07788511 0.21142274 0 0 0 0 1 0.17645043 0.04519128 -0.9832716 6.97659 -0.1249089 0.9918976 0.023172535 0 0.97635186 0.11873057 0.18066555 0 0 0 0 1 0.14065176 0.02539951 -0.9897332 6.97659 -0.14682007 0.9891529 0.004519917 0 0.97911227 0.14467698 0.14285523 0 0 0 0 1 0.14065176 0.02539951 -0.9897332 6.97659 -0.14682007 0.9891529 0.004519917 0 0.97911227 0.14467698 0.14285523 0 0 0 0 1</float_array>
        <technique_common>
          <accessor source="#Motion_30_RFoot_transform_pose_array_id" count="17" stride="16">
            <param name="TRANSFORM" type="float4x4" />
          </accessor>
        </technique_common>
      </source>
      <sampler id="Motion_30_RFoot_transform_samp_id">
        <input semantic="INPUT" source="#Motion_30_RFoot_transform_frame_id" />
        <input semantic="INTERPOLATION" source="#Motion_30_RFoot_transform_interp_id" />
        <input semantic="OUTPUT" source="#Motion_30_RFoot_transform_pose_id" />
      </sampler>
      <channel source="#Motion_30_RFoot_transform_samp_id" target="RFoot_bone_id/transform" />
    </animation>
    <animation id="Motion_30_RToe_transform_id" name="Motion_30_RToe_transform">
      <source id="Motion_30_RToe_transform_frame_id" name="Motion_30_RToe_transform_frame">
        <float_array id="Motion_30_RToe_transform_frame_array_id" count="17">0 0.033333335 0.06666667 0.1 0.13333334 0.16666667 0.2 0.23333333 0.26666668 0.3 0.33333334 0.36666667 0.4 0.43333334 0.46666667 0.5 0.53333336</float_array>
        <technique_common>
          <accessor source="#Motion_30_RToe_transform_frame_array_id" count="17" stride="1">
            <param name="TIME" type="float" />
          </accessor>
        </technique_common>
      </source>
      <source id="Motion_30_RToe_transform_interp_id" name="Motion_30_RToe_transform_interp">
        <Name_array id="Motion_30_RToe_transform_interp_array_id" count="17">LINEAR LINEAR LINEAR LINEAR LINEAR LINEAR LINEAR LINEAR LINEAR LINEAR LINEAR LINEAR LINEAR LINEAR LINEAR LINEAR LINEAR</Name_array>
        <technique_common>
          <accessor source="#Motion_30_RToe_transform_interp_array_id" count="17" stride="1">
            <param name="INTERPOLATION" type="Name" />
          </accessor>
        </technique_common>
      </source>
      <source id="Motion_30_RToe_transform_pose_id" name="Motion_30_RToe_transform_pose">
        <float_array id="Motion_30_RToe_transform_pose_array_id" count="272">0.998852 -2.1620766E-08 -0.047902603 8.792506 -7.460699E-14 1 -4.5135E-07 1.15604E-06 0.047902603 4.5083186E-07 0.998852 -2.56425 0 0 0 1 0.998852 -2.1620766E-08 -0.047902603 8.792506 -7.460699E-14 1 -4.5135E-07 1.15604E-06 0.047902603 4.5083186E-07 0.998852 -2.56425 0 0 0 1 0.9999565 -1.2919236E-08 -0.009328886 8.792506 8.709418E-09 1 -4.5130756E-07 1.15604E-06 0.009328886 4.5120666E-07 0.9999565 -2.56425 0 0 0 1 0.9871472 2.5368507E-08 0.1598135 8.792506 4.690473E-08 1 -4.4846266E-07 1.15604E-06 -0.1598135 4.5019468E-07 0.9871472 -2.56425 0 0 0 1 0.9941259 1.3650806E-08 0.10823006 8.792506 3.523741E-08 1 -4.4979393E-07 1.15604E-06 -0.10823006 4.5096553E-07 0.9941259 -2.56425 0 0 0 1 0.9581198 -7.573478E-08 -0.2863676 8.792506 -5.440861E-08 1 -4.4650562E-07 1.15604E-06 0.2863676 4.4338674E-07 0.9581198 -2.56425 0 0 0 1 0.94058824 -8.798817E-08 -0.3395494 8.792506 -6.6789255E-08 1 -4.4414554E-07 1.15604E-06 0.3395494 4.4043634E-07 0.94058824 -2.56425 0 0 0 1 0.98638594 -4.795445E-08 -0.164447 8.792506 -2.6423727E-08 1 -4.5010515E-07 1.15604E-06 0.164447 4.483227E-07 0.98638594 -2.56425 0 0 0 1 0.998852 -2.1620766E-08 -0.047902603 8.792506 -7.460699E-14 1 -4.5135E-07 1.15604E-06 0.047902603 4.5083186E-07 0.998852 -2.56425 0 0 0 1 0.998852 -2.1620766E-08 -0.047902603 8.792506 -7.460699E-14 1 -4.5135E-07 1.15604E-06 0.047902603 4.5083186E-07 0.998852 -2.56425 0 0 0 1 0.99885195 -2.1620973E-08 -0.047903523 8.792506 -2.8244074E-13 1 -4.5135002E-07 1.15604E-06 0.047903523 4.508319E-07 0.99885195 -2.56425 0 0 0 1 0.99885195 -2.1620973E-08 -0.047903523 8.792506 -2.8244074E-13 1 -4.5135002E-07 1.15604E-06 0.047903523 4.508319E-07 0.99885195 -2.56425 0 0 0 1 0.998852 -2.1620849E-08 -0.04790297 8.792506 -1.5809576E-13 1 -4.5135002E-07 1.15604E-06 0.04790297 4.508319E-07 0.998852 -2.56425 0 0 0 1 0.998852 -2.1620682E-08 -0.047902234 8.792506 8.881784E-15 1 -4.5135E-07 1.15604E-06 0.047902234 4.5083186E-07 0.998852 -2.56425 0 0 0 1 0.9988521 -2.1620558E-08 -0.047901683 8.792506 1.3322676E-13 1 -4.5135E-07 1.15604E-06 0.047901683 4.5083186E-07 0.9988521 -2.56425 0 0 0 1 0.9988521 -2.1620558E-08 -0.047901683 8.792506 1.3322676E-13 1 -4.5135E-07 1.15604E-06 0.047901683 4.5083186E-07 0.9988521 -2.56425 0 0 0 1 0.9988521 -2.1620558E-08 -0.047901683 8.792506 1.3322676E-13 1 -4.5135E-07 1.15604E-06 0.047901683 4.5083186E-07 0.9988521 -2.56425 0 0 0 1</float_array>
        <technique_common>
          <accessor source="#Motion_30_RToe_transform_pose_array_id" count="17" stride="16">
            <param name="TRANSFORM" type="float4x4" />
          </accessor>
        </technique_common>
      </source>
      <sampler id="Motion_30_RToe_transform_samp_id">
        <input semantic="INPUT" source="#Motion_30_RToe_transform_frame_id" />
        <input semantic="INTERPOLATION" source="#Motion_30_RToe_transform_interp_id" />
        <input semantic="OUTPUT" source="#Motion_30_RToe_transform_pose_id" />
      </sampler>
      <channel source="#Motion_30_RToe_transform_samp_id" target="RToe_bone_id/transform" />
    </animation>
    <animation id="Motion_30_LThigh_transform_id" name="Motion_30_LThigh_transform">
      <source id="Motion_30_LThigh_transform_frame_id" name="Motion_30_LThigh_transform_frame">
        <float_array id="Motion_30_LThigh_transform_frame_array_id" count="17">0 0.033333335 0.06666667 0.1 0.13333334 0.16666667 0.2 0.23333333 0.26666668 0.3 0.33333334 0.36666667 0.4 0.43333334 0.46666667 0.5 0.53333336</float_array>
        <technique_common>
          <accessor source="#Motion_30_LThigh_transform_frame_array_id" count="17" stride="1">
            <param name="TIME" type="float" />
          </accessor>
        </technique_common>
      </source>
      <source id="Motion_30_LThigh_transform_interp_id" name="Motion_30_LThigh_transform_interp">
        <Name_array id="Motion_30_LThigh_transform_interp_array_id" count="17">LINEAR LINEAR LINEAR LINEAR LINEAR LINEAR LINEAR LINEAR LINEAR LINEAR LINEAR LINEAR LINEAR LINEAR LINEAR LINEAR LINEAR</Name_array>
        <technique_common>
          <accessor source="#Motion_30_LThigh_transform_interp_array_id" count="17" stride="1">
            <param name="INTERPOLATION" type="Name" />
          </accessor>
        </technique_common>
      </source>
      <source id="Motion_30_LThigh_transform_pose_id" name="Motion_30_LThigh_transform_pose">
        <float_array id="Motion_30_LThigh_transform_pose_array_id" count="272">0.95937395 -0.016727934 0.28164133 14.063933 -0.04913535 0.97308004 0.22516865 8.200001 -0.27782616 -0.22985947 0.9327257 0.74043494 0 0 0 1 0.945137 -0.004327379 0.32664543 14.063933 -0.04858045 0.98693186 0.15364064 8.200001 -0.32304162 -0.16108005 0.93257564 0.74043494 0 0 0 1 0.91095144 0.027027903 0.41162723 14.063933 -0.07818651 0.9910764 0.107955456 8.200001 -0.4050362 -0.13052587 0.9049357 0.74043494 0 0 0 1 0.85192144 -0.0012703165 0.5236681 14.063933 -0.08131217 0.9875477 0.13467705 8.200001 -0.5173183 -0.15731487 0.8412097 0.74043494 0 0 0 1 0.77991027 -0.10490082 0.61703795 14.063933 -0.04281661 0.9746031 0.21980786 8.200001 -0.6244251 -0.19784987 0.7556115 0.74043494 0 0 0 1 0.71222633 -0.24468437 0.6579234 14.063933 0.015549369 0.9425493 0.3337051 8.200001 -0.70177764 -0.22744325 0.6751131 0.74043494 0 0 0 1 0.6526096 -0.36271864 0.6652337 14.063933 0.052574962 0.8975327 0.4378024 8.200001 -0.755868 -0.25073943 0.6048084 0.74043494 0 0 0 1 0.6090587 -0.42045796 0.6725047 14.063933 0.061155155 0.8702893 0.4887296 8.200001 -0.7907639 -0.25653785 0.5557704 0.74043494 0 0 0 1 0.58902305 -0.39019585 0.7076716 14.063933 0.03897956 0.8884043 0.45740402 8.200001 -0.8071756 -0.24183679 0.5385003 0.74043494 0 0 0 1 0.5787886 -0.3131376 0.7529599 14.063933 0.006998807 0.9252095 0.37939212 8.200001 -0.8154476 -0.214318 0.5376923 0.74043494 0 0 0 1 0.5922375 -0.20770486 0.7785329 14.063933 -0.021183312 0.9618578 0.2727285 8.200001 -0.80548495 -0.17801195 0.56524837 0.74043494 0 0 0 1 0.6529782 -0.1307824 0.7459997 14.063933 -0.03970533 0.9777127 0.20615871 8.200001 -0.75633526 -0.1642373 0.63323224 0.74043494 0 0 0 1 0.70038986 -0.08995492 0.7080693 14.063933 -0.07168051 0.9781466 0.1951693 8.200001 -0.71015203 -0.18744937 0.67863595 0.74043494 0 0 0 1 0.77450985 -0.058014095 0.62989587 14.063933 -0.09908922 0.972365 0.2113944 8.200001 -0.6247526 -0.22614294 0.7473577 0.74043494 0 0 0 1 0.86326176 -0.03299384 0.503677 14.063933 -0.10569875 0.96392137 0.24430172 8.200001 -0.4935655 -0.26413438 0.8286291 0.74043494 0 0 0 1 0.93299407 -0.019995432 0.35933587 14.063933 -0.08173357 0.96059334 0.26566902 8.200001 -0.3504878 -0.27723745 0.8945936 0.74043494 0 0 0 1 0.93299407 -0.019995432 0.35933587 14.063933 -0.08173357 0.96059334 0.26566902 8.200001 -0.3504878 -0.27723745 0.8945936 0.74043494 0 0 0 1</float_array>
        <technique_common>
          <accessor source="#Motion_30_LThigh_transform_pose_array_id" count="17" stride="16">
            <param name="TRANSFORM" type="float4x4" />
          </accessor>
        </technique_common>
      </source>
      <sampler id="Motion_30_LThigh_transform_samp_id">
        <input semantic="INPUT" source="#Motion_30_LThigh_transform_frame_id" />
        <input semantic="INTERPOLATION" source="#Motion_30_LThigh_transform_interp_id" />
        <input semantic="OUTPUT" source="#Motion_30_LThigh_transform_pose_id" />
      </sampler>
      <channel source="#Motion_30_LThigh_transform_samp_id" target="LThigh_bone_id/transform" />
    </animation>
    <animation id="Motion_30_LLeg_transform_id" name="Motion_30_LLeg_transform">
      <source id="Motion_30_LLeg_transform_frame_id" name="Motion_30_LLeg_transform_frame">
        <float_array id="Motion_30_LLeg_transform_frame_array_id" count="17">0 0.033333335 0.06666667 0.1 0.13333334 0.16666667 0.2 0.23333333 0.26666668 0.3 0.33333334 0.36666667 0.4 0.43333334 0.46666667 0.5 0.53333336</float_array>
        <technique_common>
          <accessor source="#Motion_30_LLeg_transform_frame_array_id" count="17" stride="1">
            <param name="TIME" type="float" />
          </accessor>
        </technique_common>
      </source>
      <source id="Motion_30_LLeg_transform_interp_id" name="Motion_30_LLeg_transform_interp">
        <Name_array id="Motion_30_LLeg_transform_interp_array_id" count="17">LINEAR LINEAR LINEAR LINEAR LINEAR LINEAR LINEAR LINEAR LINEAR LINEAR LINEAR LINEAR LINEAR LINEAR LINEAR LINEAR LINEAR</Name_array>
        <technique_common>
          <accessor source="#Motion_30_LLeg_transform_interp_array_id" count="17" stride="1">
            <param name="INTERPOLATION" type="Name" />
          </accessor>
        </technique_common>
      </source>
      <source id="Motion_30_LLeg_transform_pose_id" name="Motion_30_LLeg_transform_pose">
        <float_array id="Motion_30_LLeg_transform_pose_array_id" count="272">0.77256364 0 -0.63493735 9.4750185 0 1 0 0 0.63493735 0 0.77256364 0 0 0 0 1 0.75170934 0 -0.6594945 9.4750185 0 1 0 0 0.6594945 0 0.75170934 0 0 0 0 1 0.70265055 0 -0.7115351 9.4750185 0 1 0 0 0.7115351 0 0.70265055 0 0 0 0 1 0.53643095 0 -0.84394425 9.4750185 0 1 0 0 0.84394425 0 0.53643095 0 0 0 0 1 0.3169909 0 -0.9484286 9.4750185 0 1 0 0 0.9484286 0 0.3169909 0 0 0 0 1 0.15942705 0 -0.98720974 9.4750185 0 1 0 0 0.98720974 0 0.15942705 0 0 0 0 1 0.13597614 0 -0.9907121 9.4750185 0 1 0 0 0.9907121 0 0.13597614 0 0 0 0 1 0.24865454 0 -0.96859217 9.4750185 0 1 0 0 0.96859217 0 0.24865454 0 0 0 0 1 0.41635597 0 -0.9092017 9.4750185 0 1 0 0 0.9092017 0 0.41635597 0 0 0 0 1 0.43344855 0 -0.9011783 9.4750185 0 1 0 0 0.9011783 0 0.43344855 0 0 0 0 1 0.26719278 0 -0.9636431 9.4750185 0 1 0 0 0.9636431 0 0.26719278 0 0 0 0 1 0.1255967 0 -0.9920814 9.4750185 0 1 0 0 0.9920814 0 0.1255967 0 0 0 0 1 0.11258882 0 -0.9936417 9.4750185 0 1 0 0 0.9936417 0 0.11258882 0 0 0 0 1 0.23701686 0 -0.9715055 9.4750185 0 1 0 0 0.9715055 0 0.23701686 0 0 0 0 1 0.45116282 0 -0.89244163 9.4750185 0 1 0 0 0.89244163 0 0.45116282 0 0 0 0 1 0.67017317 0 -0.7422048 9.4750185 0 1 0 0 0.7422048 0 0.67017317 0 0 0 0 1 0.67017317 0 -0.7422048 9.4750185 0 1 0 0 0.7422048 0 0.67017317 0 0 0 0 1</float_array>
        <technique_common>
          <accessor source="#Motion_30_LLeg_transform_pose_array_id" count="17" stride="16">
            <param name="TRANSFORM" type="float4x4" />
          </accessor>
        </technique_common>
      </source>
      <sampler id="Motion_30_LLeg_transform_samp_id">
        <input semantic="INPUT" source="#Motion_30_LLeg_transform_frame_id" />
        <input semantic="INTERPOLATION" source="#Motion_30_LLeg_transform_interp_id" />
        <input semantic="OUTPUT" source="#Motion_30_LLeg_transform_pose_id" />
      </sampler>
      <channel source="#Motion_30_LLeg_transform_samp_id" target="LLeg_bone_id/transform" />
    </animation>
    <animation id="Motion_30_LFoot_transform_id" name="Motion_30_LFoot_transform">
      <source id="Motion_30_LFoot_transform_frame_id" name="Motion_30_LFoot_transform_frame">
        <float_array id="Motion_30_LFoot_transform_frame_array_id" count="17">0 0.033333335 0.06666667 0.1 0.13333334 0.16666667 0.2 0.23333333 0.26666668 0.3 0.33333334 0.36666667 0.4 0.43333334 0.46666667 0.5 0.53333336</float_array>
        <technique_common>
          <accessor source="#Motion_30_LFoot_transform_frame_array_id" count="17" stride="1">
            <param name="TIME" type="float" />
          </accessor>
        </technique_common>
      </source>
      <source id="Motion_30_LFoot_transform_interp_id" name="Motion_30_LFoot_transform_interp">
        <Name_array id="Motion_30_LFoot_transform_interp_array_id" count="17">LINEAR LINEAR LINEAR LINEAR LINEAR LINEAR LINEAR LINEAR LINEAR LINEAR LINEAR LINEAR LINEAR LINEAR LINEAR LINEAR LINEAR</Name_array>
        <technique_common>
          <accessor source="#Motion_30_LFoot_transform_interp_array_id" count="17" stride="1">
            <param name="INTERPOLATION" type="Name" />
          </accessor>
        </technique_common>
      </source>
      <source id="Motion_30_LFoot_transform_pose_id" name="Motion_30_LFoot_transform_pose">
        <float_array id="Motion_30_LFoot_transform_pose_array_id" count="272">0.36239344 0.005849167 -0.9320069 6.9765844 0.02953288 0.9994061 0.017755466 2.79671E-06 0.93155724 -0.033959314 0.3620054 0 0 0 0 1 0.33847106 -0.057880547 -0.93919504 6.9765844 0.15217845 0.9883344 -0.006066188 2.79671E-06 0.92858994 -0.14087202 0.34333074 0 0 0 0 1 0.28529537 -0.15252557 -0.94622535 6.9765844 0.28781852 0.9553235 -0.067212276 2.79671E-06 0.91420287 -0.25316584 0.31644905 0 0 0 0 1 0.3598494 -0.20516329 -0.9101739 6.9765844 0.28750718 0.95243615 -0.101019874 2.79671E-06 0.88760805 -0.2253296 0.40171945 0 0 0 0 1 0.5373384 -0.1524029 -0.8294822 6.9765844 0.18153696 0.9813824 -0.062712304 2.79671E-06 0.82359684 -0.116883956 0.55500126 0 0 0 0 1 0.700498 0.017065844 -0.7134504 6.9765844 0.015958896 0.9990894 0.03956754 2.79671E-06 0.713476 -0.039102864 0.69958776 0 0 0 0 1 0.7501917 0.21668065 -0.6247094 6.9765844 -0.15031108 0.9759318 0.15799889 2.79671E-06 0.64390916 -0.024628699 0.7647055 0 0 0 0 1 0.6914035 0.34235176 -0.6362048 6.9765844 -0.23251145 0.9391896 0.25270793 2.79671E-06 0.6840319 -0.02679827 0.7289597 0 0 0 0 1 0.58403206 0.3304636 -0.7414178 6.9765844 -0.15474856 0.9419554 0.29794782 2.79671E-06 0.79684347 -0.059277758 0.6012709 0 0 0 0 1 0.50154924 0.32422796 -0.80207515 6.9765844 -0.071697086 0.9395046 0.3349487 2.79671E-06 0.86215305 -0.11048683 0.49445403 0 0 0 0 1 0.47675574 0.29770473 -0.82708883 6.9765844 -0.013819367 0.94332665 0.33157787 2.79671E-06 0.87892723 -0.1466518 0.45385045 0 0 0 0 1 0.4766627 0.234518 -0.8472272 6.9765844 0.0109577775 0.96209896 0.27248025 2.79671E-06 0.87901795 -0.1391649 0.4560269 0 0 0 0 1 0.5048485 0.17942196 -0.8443552 6.9765844 0.00209371 0.9779023 0.209052 2.79671E-06 0.86320543 -0.10730741 0.49331683 0 0 0 0 1 0.507398 0.12878501 -0.8520339 6.9765844 -0.019402552 0.9902257 0.13811824 2.79671E-06 0.8614934 -0.053549282 0.5049373 0 0 0 0 1 0.47451895 0.08294472 -0.87632865 6.9765844 -0.035890788 0.9965458 0.074888974 2.79671E-06 0.8795132 -0.0040841065 0.47585684 0 0 0 0 1 0.40969992 0.042092845 -0.91124874 6.9765844 -0.028659401 0.99903566 0.0332626 2.79671E-06 0.91177005 0.012488157 0.4105112 0 0 0 0 1 0.40969992 0.042092845 -0.91124874 6.9765844 -0.028659401 0.99903566 0.0332626 2.79671E-06 0.91177005 0.012488157 0.4105112 0 0 0 0 1</float_array>
        <technique_common>
          <accessor source="#Motion_30_LFoot_transform_pose_array_id" count="17" stride="16">
            <param name="TRANSFORM" type="float4x4" />
          </accessor>
        </technique_common>
      </source>
      <sampler id="Motion_30_LFoot_transform_samp_id">
        <input semantic="INPUT" source="#Motion_30_LFoot_transform_frame_id" />
        <input semantic="INTERPOLATION" source="#Motion_30_LFoot_transform_interp_id" />
        <input semantic="OUTPUT" source="#Motion_30_LFoot_transform_pose_id" />
      </sampler>
      <channel source="#Motion_30_LFoot_transform_samp_id" target="LFoot_bone_id/transform" />
    </animation>
    <animation id="Motion_30_LToe_transform_id" name="Motion_30_LToe_transform">
      <source id="Motion_30_LToe_transform_frame_id" name="Motion_30_LToe_transform_frame">
        <float_array id="Motion_30_LToe_transform_frame_array_id" count="17">0 0.033333335 0.06666667 0.1 0.13333334 0.16666667 0.2 0.23333333 0.26666668 0.3 0.33333334 0.36666667 0.4 0.43333334 0.46666667 0.5 0.53333336</float_array>
        <technique_common>
          <accessor source="#Motion_30_LToe_transform_frame_array_id" count="17" stride="1">
            <param name="TIME" type="float" />
          </accessor>
        </technique_common>
      </source>
      <source id="Motion_30_LToe_transform_interp_id" name="Motion_30_LToe_transform_interp">
        <Name_array id="Motion_30_LToe_transform_interp_array_id" count="17">LINEAR LINEAR LINEAR LINEAR LINEAR LINEAR LINEAR LINEAR LINEAR LINEAR LINEAR LINEAR LINEAR LINEAR LINEAR LINEAR LINEAR</Name_array>
        <technique_common>
          <accessor source="#Motion_30_LToe_transform_interp_array_id" count="17" stride="1">
            <param name="INTERPOLATION" type="Name" />
          </accessor>
        </technique_common>
      </source>
      <source id="Motion_30_LToe_transform_pose_id" name="Motion_30_LToe_transform_pose">
        <float_array id="Motion_30_LToe_transform_pose_array_id" count="272">0.99825126 2.6700423E-08 -0.05911389 8.792502 2.5073277E-12 1 4.5172E-07 -5.44608E-06 0.05911389 -4.5093023E-07 0.99825126 -2.564256 0 0 0 1 0.99827087 2.6625507E-08 -0.058781996 8.792502 -7.2584605E-11 1 4.5172075E-07 -5.44608E-06 0.058781996 -4.509354E-07 0.99827087 -2.564256 0 0 0 1 0.9991732 2.2534064E-08 -0.040655315 8.792502 -4.1720654E-09 1 4.5173547E-07 -5.44608E-06 0.040655315 -4.511924E-07 0.9991732 -2.564256 0 0 0 1 0.9999266 1.0621036E-08 0.012114347 8.792502 -1.60918E-08 1 4.514964E-07 -5.44608E-06 -0.012114347 -4.5165822E-07 0.9999266 -2.564256 0 0 0 1 0.9988304 2.4271142E-08 -0.04835144 8.792502 -2.431932E-09 1 4.5173533E-07 -5.44608E-06 0.04835144 -4.5108936E-07 0.9988304 -2.564256 0 0 0 1 0.98392814 5.3712636E-08 -0.17856474 8.792502 2.714241E-08 1 4.5036225E-07 -5.44608E-06 0.17856474 -4.479708E-07 0.98392814 -2.564256 0 0 0 1 0.9260958 9.929424E-08 -0.37728846 8.792502 7.3242134E-08 1 4.4295942E-07 -5.44608E-06 0.37728846 -4.3785624E-07 0.9260958 -2.564256 0 0 0 1 0.8314645 1.4180168E-07 -0.5555779 8.792502 1.16606486E-07 1 4.297432E-07 -5.44608E-06 0.5555779 -4.2210021E-07 0.8314645 -2.564256 0 0 0 1 0.81156415 1.4888377E-07 -0.5842633 8.792502 1.2387028E-07 1 4.2688362E-07 -5.44608E-06 0.5842633 -4.1881628E-07 0.81156415 -2.564256 0 0 0 1 0.91343904 1.06231155E-07 -0.40697554 8.792502 8.029299E-08 1 4.4124005E-07 -5.44608E-06 0.40697554 -4.3572317E-07 0.91343904 -2.564256 0 0 0 1 0.99925023 2.2096303E-08 -0.038715813 8.792502 -4.6105075E-09 1 4.5173408E-07 -5.44608E-06 0.038715813 -4.5121692E-07 0.99925023 -2.564256 0 0 0 1 0.9862361 -2.4124189E-08 0.16534314 8.792502 -5.0715002E-08 1 4.4840783E-07 -5.44608E-06 -0.16534314 -4.5062137E-07 0.9862361 -2.564256 0 0 0 1 0.999515 6.3227423E-09 0.031140195 8.792502 -2.038643E-08 1 4.5130741E-07 -5.44608E-06 -0.031140195 -4.517234E-07 0.999515 -2.564256 0 0 0 1 0.97647554 6.2132E-08 -0.21562824 8.792502 3.562832E-08 1 4.494874E-07 -5.44608E-06 0.21562824 -4.4659595E-07 0.97647554 -2.564256 0 0 0 1 0.93884265 9.16455E-08 -0.34434643 8.792502 6.547884E-08 1 4.4466796E-07 -5.44608E-06 0.34434643 -4.4002067E-07 0.93884265 -2.564256 0 0 0 1 0.9789918 5.946485E-08 -0.20389947 8.792502 3.293869E-08 1 4.4978813E-07 -5.44608E-06 0.20389947 -4.470551E-07 0.9789918 -2.564256 0 0 0 1 0.9789918 5.946485E-08 -0.20389947 8.792502 3.293869E-08 1 4.4978813E-07 -5.44608E-06 0.20389947 -4.470551E-07 0.9789918 -2.564256 0 0 0 1</float_array>
        <technique_common>
          <accessor source="#Motion_30_LToe_transform_pose_array_id" count="17" stride="16">
            <param name="TRANSFORM" type="float4x4" />
          </accessor>
        </technique_common>
      </source>
      <sampler id="Motion_30_LToe_transform_samp_id">
        <input semantic="INPUT" source="#Motion_30_LToe_transform_frame_id" />
        <input semantic="INTERPOLATION" source="#Motion_30_LToe_transform_interp_id" />
        <input semantic="OUTPUT" source="#Motion_30_LToe_transform_pose_id" />
      </sampler>
      <channel source="#Motion_30_LToe_transform_samp_id" target="LToe_bone_id/transform" />
    </animation>
    <animation id="Motion_30_Tail_transform_id" name="Motion_30_Tail_transform">
      <source id="Motion_30_Tail_transform_frame_id" name="Motion_30_Tail_transform_frame">
        <float_array id="Motion_30_Tail_transform_frame_array_id" count="17">0 0.033333335 0.06666667 0.1 0.13333334 0.16666667 0.2 0.23333333 0.26666668 0.3 0.33333334 0.36666667 0.4 0.43333334 0.46666667 0.5 0.53333336</float_array>
        <technique_common>
          <accessor source="#Motion_30_Tail_transform_frame_array_id" count="17" stride="1">
            <param name="TIME" type="float" />
          </accessor>
        </technique_common>
      </source>
      <source id="Motion_30_Tail_transform_interp_id" name="Motion_30_Tail_transform_interp">
        <Name_array id="Motion_30_Tail_transform_interp_array_id" count="17">LINEAR LINEAR LINEAR LINEAR LINEAR LINEAR LINEAR LINEAR LINEAR LINEAR LINEAR LINEAR LINEAR LINEAR LINEAR LINEAR LINEAR</Name_array>
        <technique_common>
          <accessor source="#Motion_30_Tail_transform_interp_array_id" count="17" stride="1">
            <param name="INTERPOLATION" type="Name" />
          </accessor>
        </technique_common>
      </source>
      <source id="Motion_30_Tail_transform_pose_id" name="Motion_30_Tail_transform_pose">
        <float_array id="Motion_30_Tail_transform_pose_array_id" count="272">0.98987734 -0.017349418 0.14086092 3.3598173 0.017441187 0.9998477 0.0005831258 0 -0.14084959 0.0018795584 0.9900292 -10.920661 0 0 0 1 0.9850642 -0.009985151 0.17189774 3.3598173 0.011433994 0.99990696 -0.007440458 0 -0.17180744 0.009294807 0.9850867 -10.920661 0 0 0 1 0.9686565 0.010789732 0.24816965 3.3598173 -0.0036228476 0.9995636 -0.029317562 0 -0.24837767 0.027499564 0.96827286 -10.920661 0 0 0 1 0.9380941 0.042055063 0.34381807 3.3598173 -0.02219025 0.9978597 -0.06151075 0 -0.34566903 0.05007346 0.9370195 -10.920661 0 0 0 1 0.8975549 0.07635385 0.4342411 3.3598173 -0.038022384 0.9946261 -0.096297555 0 -0.4392602 0.06992146 0.89563465 -10.920661 0 0 0 1 0.85975504 0.10607478 0.49956924 3.3598173 -0.04966354 0.99092126 -0.12493419 0 -0.5082862 0.08260242 0.85721755 -10.920661 0 0 0 1 0.8431346 0.11837654 0.52451026 3.3598173 -0.053629715 0.98911476 -0.13702478 0 -0.5350214 0.08740099 0.8403054 -10.920661 0 0 0 1 0.8464062 0.10317567 0.52244747 3.3598173 -0.04330082 0.99113756 -0.12558432 0 -0.5307746 0.08367294 0.8433725 -10.920661 0 0 0 1 0.8549887 0.06511889 0.5145424 3.3598173 -0.017947808 0.9952072 -0.09612738 0 -0.518336 0.07295292 0.85205966 -10.920661 0 0 0 1 0.86663437 0.013761239 0.49875402 3.3598173 0.017064678 0.9982172 -0.05719361 0 -0.49865192 0.058077026 0.8648545 -10.920661 0 0 0 1 0.8794871 -0.038154133 0.4743909 3.3598173 0.053165816 0.9984186 -0.018265206 0 -0.4729438 0.041285392 0.8801248 -10.920661 0 0 0 1 0.89344245 -0.0779012 0.44237083 3.3598173 0.08118805 0.9966321 0.011533254 0 -0.44177943 0.025610931 0.8967581 -10.920661 0 0 0 1 0.90935457 -0.096670546 0.4046345 3.3598173 0.09395609 0.99522054 0.026614431 0 -0.4052734 0.013815922 0.9140911 -10.920661 0 0 0 1 0.9355505 -0.0863077 0.34248534 3.3598173 0.08315676 0.99624974 0.023903705 0 -0.343264 0.0061168475 0.93921906 -10.920661 0 0 0 1 0.96511525 -0.059441842 0.25498858 3.3598173 0.058154672 0.9982282 0.012590998 0 -0.25528523 0.002677014 0.9668621 -10.920661 0 0 0 1 0.983993 -0.030577645 0.17556413 3.3598173 0.03046617 0.99953026 0.0033308866 0 -0.1755835 0.002071197 0.9844624 -10.920661 0 0 0 1 0.983993 -0.030577645 0.17556413 3.3598173 0.03046617 0.99953026 0.0033308866 0 -0.1755835 0.002071197 0.9844624 -10.920661 0 0 0 1</float_array>
        <technique_common>
          <accessor source="#Motion_30_Tail_transform_pose_array_id" count="17" stride="16">
            <param name="TRANSFORM" type="float4x4" />
          </accessor>
        </technique_common>
      </source>
      <sampler id="Motion_30_Tail_transform_samp_id">
        <input semantic="INPUT" source="#Motion_30_Tail_transform_frame_id" />
        <input semantic="INTERPOLATION" source="#Motion_30_Tail_transform_interp_id" />
        <input semantic="OUTPUT" source="#Motion_30_Tail_transform_pose_id" />
      </sampler>
      <channel source="#Motion_30_Tail_transform_samp_id" target="Tail_bone_id/transform" />
    </animation>
    <animation id="Motion_30_RFeelerF1_transform_id" name="Motion_30_RFeelerF1_transform">
      <source id="Motion_30_RFeelerF1_transform_frame_id" name="Motion_30_RFeelerF1_transform_frame">
        <float_array id="Motion_30_RFeelerF1_transform_frame_array_id" count="17">0 0.033333335 0.06666667 0.1 0.13333334 0.16666667 0.2 0.23333333 0.26666668 0.3 0.33333334 0.36666667 0.4 0.43333334 0.46666667 0.5 0.53333336</float_array>
        <technique_common>
          <accessor source="#Motion_30_RFeelerF1_transform_frame_array_id" count="17" stride="1">
            <param name="TIME" type="float" />
          </accessor>
        </technique_common>
      </source>
      <source id="Motion_30_RFeelerF1_transform_interp_id" name="Motion_30_RFeelerF1_transform_interp">
        <Name_array id="Motion_30_RFeelerF1_transform_interp_array_id" count="17">LINEAR LINEAR LINEAR LINEAR LINEAR LINEAR LINEAR LINEAR LINEAR LINEAR LINEAR LINEAR LINEAR LINEAR LINEAR LINEAR LINEAR</Name_array>
        <technique_common>
          <accessor source="#Motion_30_RFeelerF1_transform_interp_array_id" count="17" stride="1">
            <param name="INTERPOLATION" type="Name" />
          </accessor>
        </technique_common>
      </source>
      <source id="Motion_30_RFeelerF1_transform_pose_id" name="Motion_30_RFeelerF1_transform_pose">
        <float_array id="Motion_30_RFeelerF1_transform_pose_array_id" count="272">-0.98673844 0.061099816 -0.15038125 11.451711 -0.06146502 -0.99810696 -0.002222723 19.289698 -0.15023236 0.0070499396 0.9886256 1.303258 0 0 0 1 -0.9877608 0.018598277 -0.1548642 11.451711 -0.021982558 -0.999555 0.020169348 19.289698 -0.15442015 0.0233268 0.98772985 1.303258 0 0 0 1 -0.9845731 -0.07455556 -0.1582934 11.451711 0.06446467 -0.99560297 0.06795963 19.289698 -0.16266418 0.05670691 0.9850506 1.303258 0 0 0 1 -0.97387576 -0.16535401 -0.15564069 11.451711 0.14920026 -0.9826274 0.11037511 19.289698 -0.17118779 0.08427 0.9816279 1.303258 0 0 0 1 -0.96516407 -0.20997234 -0.15610926 11.451711 0.1936294 -0.9744791 0.11357105 19.289698 -0.17597197 0.07938735 0.98118883 1.303258 0 0 0 1 -0.95927036 -0.22548687 -0.17016493 11.451711 0.21870953 -0.9740753 0.057823934 19.289698 -0.17879198 0.018252091 0.98371756 1.303258 0 0 0 1 -0.95537126 -0.2250895 -0.19131309 11.451711 0.23418458 -0.9718435 -0.026038172 19.289698 -0.18006545 -0.069678694 0.98118365 1.303258 0 0 0 1 -0.9533063 -0.21666156 -0.21039228 11.451711 0.24182929 -0.9649364 -0.10206054 19.289698 -0.18090259 -0.14817397 0.972275 1.303258 0 0 0 1 -0.9527426 -0.21125604 -0.21829405 11.451711 0.24389966 -0.96034145 -0.1351189 19.289698 -0.18109217 -0.1819754 0.9664836 1.303258 0 0 0 1 -0.95611 -0.20026623 -0.21388637 11.451711 0.23110278 -0.96416426 -0.13030337 19.289698 -0.1801262 -0.17401408 0.9681289 1.303258 0 0 0 1 -0.96424794 -0.17160629 -0.20193253 11.451711 0.19774358 -0.9732244 -0.11717978 19.289698 -0.17641695 -0.15292126 0.9723642 1.303258 0 0 0 1 -0.97386944 -0.1289523 -0.18694884 11.451711 0.14894965 -0.98406196 -0.09714138 19.289698 -0.1714426 -0.12244897 0.977555 1.303258 0 0 0 1 -0.98179245 -0.07858775 -0.17293616 11.451711 0.092365526 -0.9930372 -0.07310912 19.289698 -0.16598661 -0.087751344 0.98221594 1.303258 0 0 0 1 -0.9864186 -0.028017722 -0.16184402 11.451711 0.03626675 -0.9981772 -0.0482412 19.289698 -0.16019738 -0.053455573 0.9856365 1.303258 0 0 0 1 -0.9878262 0.016873969 -0.15464428 11.451711 -0.01314042 -0.9995978 -0.025133364 19.289698 -0.15500617 -0.0227953 0.98765045 1.303258 0 0 0 1 -0.98726285 0.048930287 -0.15138476 11.451711 -0.04818946 -0.99880123 -0.008560773 19.289698 -0.15162222 -0.0011565846 0.98843783 1.303258 0 0 0 1 -0.98726285 0.048930287 -0.15138476 11.451711 -0.04818946 -0.99880123 -0.008560773 19.289698 -0.15162222 -0.0011565846 0.98843783 1.303258 0 0 0 1</float_array>
        <technique_common>
          <accessor source="#Motion_30_RFeelerF1_transform_pose_array_id" count="17" stride="16">
            <param name="TRANSFORM" type="float4x4" />
          </accessor>
        </technique_common>
      </source>
      <sampler id="Motion_30_RFeelerF1_transform_samp_id">
        <input semantic="INPUT" source="#Motion_30_RFeelerF1_transform_frame_id" />
        <input semantic="INTERPOLATION" source="#Motion_30_RFeelerF1_transform_interp_id" />
        <input semantic="OUTPUT" source="#Motion_30_RFeelerF1_transform_pose_id" />
      </sampler>
      <channel source="#Motion_30_RFeelerF1_transform_samp_id" target="RFeelerF1_bone_id/transform" />
    </animation>
    <animation id="Motion_30_RFeelerF2_transform_id" name="Motion_30_RFeelerF2_transform">
      <source id="Motion_30_RFeelerF2_transform_frame_id" name="Motion_30_RFeelerF2_transform_frame">
        <float_array id="Motion_30_RFeelerF2_transform_frame_array_id" count="17">0 0.033333335 0.06666667 0.1 0.13333334 0.16666667 0.2 0.23333333 0.26666668 0.3 0.33333334 0.36666667 0.4 0.43333334 0.46666667 0.5 0.53333336</float_array>
        <technique_common>
          <accessor source="#Motion_30_RFeelerF2_transform_frame_array_id" count="17" stride="1">
            <param name="TIME" type="float" />
          </accessor>
        </technique_common>
      </source>
      <source id="Motion_30_RFeelerF2_transform_interp_id" name="Motion_30_RFeelerF2_transform_interp">
        <Name_array id="Motion_30_RFeelerF2_transform_interp_array_id" count="17">LINEAR LINEAR LINEAR LINEAR LINEAR LINEAR LINEAR LINEAR LINEAR LINEAR LINEAR LINEAR LINEAR LINEAR LINEAR LINEAR LINEAR</Name_array>
        <technique_common>
          <accessor source="#Motion_30_RFeelerF2_transform_interp_array_id" count="17" stride="1">
            <param name="INTERPOLATION" type="Name" />
          </accessor>
        </technique_common>
      </source>
      <source id="Motion_30_RFeelerF2_transform_pose_id" name="Motion_30_RFeelerF2_transform_pose">
        <float_array id="Motion_30_RFeelerF2_transform_pose_array_id" count="272">0.9900074 -0.14100906 -0.0013191972 12.000042 0.14100894 0.9900083 -0.00018789628 -3.0631E-07 0.0013325112 1.09139364E-10 0.9999991 1.63E-09 0 0 0 1 0.98761 -0.15692268 -0.0013173782 12.000042 0.15692256 0.9876109 -0.00019846542 -3.0631E-07 0.001332201 -1.0719938E-05 0.9999991 1.63E-09 0 0 0 1 0.9814364 -0.19178341 -0.0013129791 12.000042 0.1917833 0.98143727 -0.0002216393 -3.0631E-07 0.0013311134 -3.428258E-05 0.9999991 1.63E-09 0 0 0 1 0.97403264 -0.22640376 -0.0013080362 12.000042 0.22640364 0.97403353 -0.00024469412 -3.0631E-07 0.0013294708 -5.7804064E-05 0.9999991 1.63E-09 0 0 0 1 0.97026306 -0.24204922 -0.0013056104 12.000042 0.2420491 0.97026396 -0.00025513046 -3.0631E-07 0.001328541 -6.847817E-05 0.9999991 1.63E-09 0 0 0 1 0.97286505 -0.23136963 -0.0013072793 12.000042 0.23136951 0.97286594 -0.00024800532 -3.0631E-07 0.0013291885 -6.118889E-05 0.9999991 1.63E-09 0 0 0 1 0.97933656 -0.20223308 -0.0013115482 12.000042 0.20223296 0.9793374 -0.0002285931 -3.0631E-07 0.0013306773 -4.1368672E-05 0.9999991 1.63E-09 0 0 0 1 0.9867302 -0.16236286 -0.0013167295 12.000042 0.16236274 0.9867311 -0.00020207974 -3.0631E-07 0.0013320681 -1.4389618E-05 0.9999991 1.63E-09 0 0 0 1 0.99318606 -0.116532095 -0.0013217669 12.000042 0.116531976 0.99318695 -0.00017164703 -3.0631E-07 0.0013327639 1.6449332E-05 0.9999991 1.63E-09 0 0 0 1 0.9974179 -0.071803376 -0.0013257574 12.000042 0.07180326 0.9974188 -0.00014196135 -3.0631E-07 0.0013325285 4.64011E-05 0.9999991 1.63E-09 0 0 0 1 0.9993734 -0.0353705 -0.0013283432 12.000042 0.035370372 0.9993743 -0.000117771575 -3.0631E-07 0.0013316775 7.0713795E-05 0.9999991 1.63E-09 0 0 0 1 0.9998951 -0.014424612 -0.0013295618 12.000042 0.014424487 0.99989593 -0.00010385365 -3.0631E-07 0.0013309215 8.4664505E-05 0.9999991 1.63E-09 0 0 0 1 0.9998696 -0.016096063 -0.0013294717 12.000042 0.016095936 0.9998704 -0.000104964674 -3.0631E-07 0.0013309891 8.3551895E-05 0.9999991 1.63E-09 0 0 0 1 0.99896055 -0.04556336 -0.0013276795 12.000042 0.045563232 0.99896145 -0.00012454113 -3.0631E-07 0.0013319752 6.391831E-05 0.9999991 1.63E-09 0 0 0 1 0.9961878 -0.08722446 -0.0013244838 12.000042 0.08722434 0.9961887 -0.00015219627 -3.0631E-07 0.0013327111 3.608886E-05 0.9999991 1.63E-09 0 0 0 1 0.992185 -0.124768496 -0.0013209328 12.000042 0.12476838 0.9921859 -0.00017711407 -3.0631E-07 0.0013327091 1.0919299E-05 0.9999991 1.63E-09 0 0 0 1 0.992185 -0.124768496 -0.0013209328 12.000042 0.12476838 0.9921859 -0.00017711407 -3.0631E-07 0.0013327091 1.0919299E-05 0.9999991 1.63E-09 0 0 0 1</float_array>
        <technique_common>
          <accessor source="#Motion_30_RFeelerF2_transform_pose_array_id" count="17" stride="16">
            <param name="TRANSFORM" type="float4x4" />
          </accessor>
        </technique_common>
      </source>
      <sampler id="Motion_30_RFeelerF2_transform_samp_id">
        <input semantic="INPUT" source="#Motion_30_RFeelerF2_transform_frame_id" />
        <input semantic="INTERPOLATION" source="#Motion_30_RFeelerF2_transform_interp_id" />
        <input semantic="OUTPUT" source="#Motion_30_RFeelerF2_transform_pose_id" />
      </sampler>
      <channel source="#Motion_30_RFeelerF2_transform_samp_id" target="RFeelerF2_bone_id/transform" />
    </animation>
    <animation id="Motion_30_RFeelerF3_transform_id" name="Motion_30_RFeelerF3_transform">
      <source id="Motion_30_RFeelerF3_transform_frame_id" name="Motion_30_RFeelerF3_transform_frame">
        <float_array id="Motion_30_RFeelerF3_transform_frame_array_id" count="17">0 0.033333335 0.06666667 0.1 0.13333334 0.16666667 0.2 0.23333333 0.26666668 0.3 0.33333334 0.36666667 0.4 0.43333334 0.46666667 0.5 0.53333336</float_array>
        <technique_common>
          <accessor source="#Motion_30_RFeelerF3_transform_frame_array_id" count="17" stride="1">
            <param name="TIME" type="float" />
          </accessor>
        </technique_common>
      </source>
      <source id="Motion_30_RFeelerF3_transform_interp_id" name="Motion_30_RFeelerF3_transform_interp">
        <Name_array id="Motion_30_RFeelerF3_transform_interp_array_id" count="17">LINEAR LINEAR LINEAR LINEAR LINEAR LINEAR LINEAR LINEAR LINEAR LINEAR LINEAR LINEAR LINEAR LINEAR LINEAR LINEAR LINEAR</Name_array>
        <technique_common>
          <accessor source="#Motion_30_RFeelerF3_transform_interp_array_id" count="17" stride="1">
            <param name="INTERPOLATION" type="Name" />
          </accessor>
        </technique_common>
      </source>
      <source id="Motion_30_RFeelerF3_transform_pose_id" name="Motion_30_RFeelerF3_transform_pose">
        <float_array id="Motion_30_RFeelerF3_transform_pose_array_id" count="272">0.99837166 0.012993837 0.055544537 15.0239 -0.013079932 0.99991375 0.0011867578 2.0144E-07 -0.055524323 -0.0019113442 0.9984555 9.65E-09 0 0 0 1 0.99813455 -0.025373803 0.05552969 15.0239 0.025372172 0.9996778 0.000734521 2.0144E-07 -0.055530436 0.00067575794 0.9984568 9.65E-09 0 0 0 1 0.9924212 -0.10961796 0.05553377 15.0239 0.10972877 0.993961 0.0010592446 2.0144E-07 -0.055314515 0.0050424347 0.99845624 9.65E-09 0 0 0 1 0.9796082 -0.19308153 0.05556411 15.0239 0.19329739 0.98113906 0.0015139738 2.0144E-07 -0.054808434 0.009257296 0.998454 9.65E-09 0 0 0 1 0.9714593 -0.23059319 0.055619605 15.0239 0.2308722 0.972983 0.0014439747 2.0144E-07 -0.0544499 0.011438257 0.998451 9.65E-09 0 0 0 1 0.9767386 -0.20709105 0.055632986 15.0239 0.20735715 0.9782648 0.0010092831 2.0144E-07 -0.054632805 0.010550091 0.99845076 9.65E-09 0 0 0 1 0.98770297 -0.14613153 0.055573154 15.0239 0.14631061 0.9892383 0.00085462676 2.0144E-07 -0.055099983 0.0072868248 0.9984543 9.65E-09 0 0 0 1 0.996756 -0.05825306 0.05553377 15.0239 0.05830879 0.9982984 0.0006176813 2.0144E-07 -0.055475254 0.0026224293 0.9984566 9.65E-09 0 0 0 1 0.9976282 0.04064445 0.055551704 15.0239 -0.04072917 0.9991701 0.0003932377 2.0144E-07 -0.05548962 -0.0026548796 0.99845576 9.65E-09 0 0 0 1 0.98943084 0.13390665 0.055637896 15.0239 -0.13412918 0.9909638 0.00026809284 2.0144E-07 -0.05509924 -0.007727925 0.998451 9.65E-09 0 0 0 1 0.9761396 0.20986082 0.055766124 15.0239 -0.2101991 0.97765857 0.0002053082 2.0144E-07 -0.054477144 -0.011922398 0.99844384 9.65E-09 0 0 0 1 0.9656871 0.25362504 0.055882175 15.0239 -0.2540384 0.9671941 0.00030311523 2.0144E-07 -0.053972032 -0.014488932 0.99843735 9.65E-09 0 0 0 1 0.96625745 0.25143445 0.055921577 15.0239 -0.25186402 0.9677624 0.0006563789 2.0144E-07 -0.053953767 -0.014718866 0.99843496 9.65E-09 0 0 0 1 0.9789652 0.19624002 0.055829324 15.0239 -0.19660814 0.9804815 0.0011252458 2.0144E-07 -0.054518804 -0.012078077 0.99843967 9.65E-09 0 0 0 1 0.99158615 0.11686127 0.05568074 15.0239 -0.11711916 0.9931169 0.0013798447 2.0144E-07 -0.055136237 -0.007889517 0.99844766 9.65E-09 0 0 0 1 0.9974627 0.044485763 0.055580296 15.0239 -0.044642136 0.9990018 0.0015744711 2.0144E-07 -0.055454776 -0.0040516993 0.99845296 9.65E-09 0 0 0 1 0.9974627 0.044485763 0.055580296 15.0239 -0.044642136 0.9990018 0.0015744711 2.0144E-07 -0.055454776 -0.0040516993 0.99845296 9.65E-09 0 0 0 1</float_array>
        <technique_common>
          <accessor source="#Motion_30_RFeelerF3_transform_pose_array_id" count="17" stride="16">
            <param name="TRANSFORM" type="float4x4" />
          </accessor>
        </technique_common>
      </source>
      <sampler id="Motion_30_RFeelerF3_transform_samp_id">
        <input semantic="INPUT" source="#Motion_30_RFeelerF3_transform_frame_id" />
        <input semantic="INTERPOLATION" source="#Motion_30_RFeelerF3_transform_interp_id" />
        <input semantic="OUTPUT" source="#Motion_30_RFeelerF3_transform_pose_id" />
      </sampler>
      <channel source="#Motion_30_RFeelerF3_transform_samp_id" target="RFeelerF3_bone_id/transform" />
    </animation>
    <animation id="Motion_30_LFeelerF1_transform_id" name="Motion_30_LFeelerF1_transform">
      <source id="Motion_30_LFeelerF1_transform_frame_id" name="Motion_30_LFeelerF1_transform_frame">
        <float_array id="Motion_30_LFeelerF1_transform_frame_array_id" count="17">0 0.033333335 0.06666667 0.1 0.13333334 0.16666667 0.2 0.23333333 0.26666668 0.3 0.33333334 0.36666667 0.4 0.43333334 0.46666667 0.5 0.53333336</float_array>
        <technique_common>
          <accessor source="#Motion_30_LFeelerF1_transform_frame_array_id" count="17" stride="1">
            <param name="TIME" type="float" />
          </accessor>
        </technique_common>
      </source>
      <source id="Motion_30_LFeelerF1_transform_interp_id" name="Motion_30_LFeelerF1_transform_interp">
        <Name_array id="Motion_30_LFeelerF1_transform_interp_array_id" count="17">LINEAR LINEAR LINEAR LINEAR LINEAR LINEAR LINEAR LINEAR LINEAR LINEAR LINEAR LINEAR LINEAR LINEAR LINEAR LINEAR LINEAR</Name_array>
        <technique_common>
          <accessor source="#Motion_30_LFeelerF1_transform_interp_array_id" count="17" stride="1">
            <param name="INTERPOLATION" type="Name" />
          </accessor>
        </technique_common>
      </source>
      <source id="Motion_30_LFeelerF1_transform_pose_id" name="Motion_30_LFeelerF1_transform_pose">
        <float_array id="Motion_30_LFeelerF1_transform_pose_array_id" count="272">-0.9954003 -0.054733504 -0.07862744 11.45166 0.06919329 -0.97837806 -0.19490607 -19.289717 -0.06625947 -0.19945006 0.97766525 1.303258 0 0 0 1 -0.9956851 -0.03780976 -0.084746316 11.45166 0.05325783 -0.9806876 -0.18819065 -19.289717 -0.07599421 -0.19189201 0.9784694 1.303258 0 0 0 1 -0.9947467 0.00580711 -0.102199875 11.45166 0.011904699 -0.985052 -0.17184432 -19.289717 -0.10167012 -0.17215826 0.9798085 1.303258 0 0 0 1 -0.9893174 0.067589924 -0.1291609 11.45166 -0.047721215 -0.98735666 -0.15115981 -19.289717 -0.13774477 -0.14338131 0.98003477 1.303258 0 0 0 1 -0.97716856 0.13542795 -0.16370961 11.45166 -0.11424107 -0.98456633 -0.13258246 -19.289717 -0.17913833 -0.11085305 0.97755873 1.303258 0 0 0 1 -0.95902085 0.2001289 -0.20056804 11.45166 -0.1787767 -0.97659016 -0.11962691 -19.289717 -0.21981357 -0.07886781 0.97234863 1.303258 0 0 0 1 -0.93823075 0.25428835 -0.23464878 11.45166 -0.23364909 -0.96580184 -0.1124036 -19.289717 -0.25520718 -0.050635066 0.9655596 1.303258 0 0 0 1 -0.9210241 0.29062524 -0.2593297 11.45166 -0.27083936 -0.956337 -0.109845 -19.289717 -0.27993026 -0.030933175 0.95952183 1.303258 0 0 0 1 -0.9138833 0.3043254 -0.2687072 11.45166 -0.28480202 -0.95226884 -0.1098734 -19.289717 -0.2893187 -0.023883104 0.95693487 1.303258 0 0 0 1 -0.92106056 0.2906061 -0.2592209 11.45166 -0.27074662 -0.9563328 -0.11010745 -19.289717 -0.27989936 -0.031232458 0.9595212 1.303258 0 0 0 1 -0.9384017 0.2537264 -0.2345747 11.45166 -0.23314062 -0.96595395 -0.112153895 -19.289717 -0.25504476 -0.050556503 0.96560663 1.303258 0 0 0 1 -0.95903504 0.2002823 -0.20034559 11.45166 -0.17900121 -0.97657585 -0.11940576 -19.289717 -0.21956758 -0.07865223 0.97242165 1.303258 0 0 0 1 -0.9772363 0.13521099 -0.16348363 11.45166 -0.11397926 -0.9845456 -0.13295968 -19.289717 -0.17893474 -0.111299306 0.9775453 1.303258 0 0 0 1 -0.9892937 0.06758479 -0.12934539 11.45166 -0.04767742 -0.98734605 -0.1512432 -19.289717 -0.1379304 -0.1434571 0.9799976 1.303258 0 0 0 1 -0.99475837 0.006328252 -0.10205696 11.45166 0.011339958 -0.98509884 -0.17161468 -19.289717 -0.10162222 -0.17187247 0.97986364 1.303258 0 0 0 1 -0.9956851 -0.03780976 -0.084746316 11.45166 0.05325783 -0.9806876 -0.18819065 -19.289717 -0.07599421 -0.19189201 0.9784694 1.303258 0 0 0 1 -0.9956851 -0.03780976 -0.084746316 11.45166 0.05325783 -0.9806876 -0.18819065 -19.289717 -0.07599421 -0.19189201 0.9784694 1.303258 0 0 0 1</float_array>
        <technique_common>
          <accessor source="#Motion_30_LFeelerF1_transform_pose_array_id" count="17" stride="16">
            <param name="TRANSFORM" type="float4x4" />
          </accessor>
        </technique_common>
      </source>
      <sampler id="Motion_30_LFeelerF1_transform_samp_id">
        <input semantic="INPUT" source="#Motion_30_LFeelerF1_transform_frame_id" />
        <input semantic="INTERPOLATION" source="#Motion_30_LFeelerF1_transform_interp_id" />
        <input semantic="OUTPUT" source="#Motion_30_LFeelerF1_transform_pose_id" />
      </sampler>
      <channel source="#Motion_30_LFeelerF1_transform_samp_id" target="LFeelerF1_bone_id/transform" />
    </animation>
    <animation id="Motion_30_LFeelerF2_transform_id" name="Motion_30_LFeelerF2_transform">
      <source id="Motion_30_LFeelerF2_transform_frame_id" name="Motion_30_LFeelerF2_transform_frame">
        <float_array id="Motion_30_LFeelerF2_transform_frame_array_id" count="17">0 0.033333335 0.06666667 0.1 0.13333334 0.16666667 0.2 0.23333333 0.26666668 0.3 0.33333334 0.36666667 0.4 0.43333334 0.46666667 0.5 0.53333336</float_array>
        <technique_common>
          <accessor source="#Motion_30_LFeelerF2_transform_frame_array_id" count="17" stride="1">
            <param name="TIME" type="float" />
          </accessor>
        </technique_common>
      </source>
      <source id="Motion_30_LFeelerF2_transform_interp_id" name="Motion_30_LFeelerF2_transform_interp">
        <Name_array id="Motion_30_LFeelerF2_transform_interp_array_id" count="17">LINEAR LINEAR LINEAR LINEAR LINEAR LINEAR LINEAR LINEAR LINEAR LINEAR LINEAR LINEAR LINEAR LINEAR LINEAR LINEAR LINEAR</Name_array>
        <technique_common>
          <accessor source="#Motion_30_LFeelerF2_transform_interp_array_id" count="17" stride="1">
            <param name="INTERPOLATION" type="Name" />
          </accessor>
        </technique_common>
      </source>
      <source id="Motion_30_LFeelerF2_transform_pose_id" name="Motion_30_LFeelerF2_transform_pose">
        <float_array id="Motion_30_LFeelerF2_transform_pose_array_id" count="272">0.9897761 0.1426296 -0.00041215256 11.999999 -0.1426296 0.98977613 5.939223E-05 4.7666E-07 0.00041640986 1.382432E-10 0.99999994 4.369E-08 0 0 0 1 0.9887702 0.14944364 -0.00041191088 11.999999 -0.14944364 0.98877025 6.080619E-05 4.7666E-07 0.00041637232 1.4341131E-06 0.99999994 4.369E-08 0 0 0 1 0.9865131 0.16368197 -0.00041138416 11.999999 -0.16368197 0.98651314 6.376165E-05 4.7666E-07 0.0004162725 4.4344742E-06 0.99999994 4.369E-08 0 0 0 1 0.98388726 0.17878945 -0.00041079283 11.999999 -0.17878945 0.9838874 6.689912E-05 4.7666E-07 0.00041613472 7.6242195E-06 0.99999994 4.369E-08 0 0 0 1 0.9825297 0.18610533 -0.00041049437 11.999999 -0.18610533 0.9825298 6.841918E-05 4.7666E-07 0.0004160561 9.171306E-06 0.99999994 4.369E-08 0 0 0 1 0.9835545 0.18061134 -0.0004107192 11.999999 -0.18061134 0.98355454 6.727762E-05 4.7666E-07 0.00041611586 8.009349E-06 0.99999994 4.369E-08 0 0 0 1 0.9862288 0.16538587 -0.0004113191 11.999999 -0.16538587 0.98622894 6.411541E-05 4.7666E-07 0.0004162586 4.793901E-06 0.99999994 4.369E-08 0 0 0 1 0.98958474 0.14395098 -0.00041210622 11.999999 -0.14395098 0.9895848 5.966641E-05 4.7666E-07 0.0004164031 2.781253E-07 0.99999994 4.369E-08 0 0 0 1 0.99279046 0.11986216 -0.0004129114 11.999999 -0.11986215 0.9927905 5.466931E-05 4.7666E-07 0.00041648734 -4.782727E-06 0.99999994 4.369E-08 0 0 0 1 0.9953111 0.09672472 -0.00041360673 11.999999 -0.096724704 0.9953112 4.9870992E-05 4.7666E-07 0.00041649115 -9.631163E-06 0.99999994 4.369E-08 0 0 0 1 0.9969391 0.07818071 -0.00041410926 11.999999 -0.07818069 0.9969392 4.6025372E-05 4.7666E-07 0.00041644007 -1.3509143E-05 0.99999994 4.369E-08 0 0 0 1 0.9976931 0.06788424 -0.0004143673 11.999999 -0.06788422 0.9976932 4.388987E-05 4.7666E-07 0.0004163909 -1.5659618E-05 0.99999994 4.369E-08 0 0 0 1 0.9976212 0.06893362 -0.00041434175 11.999999 -0.068933606 0.99762124 4.410753E-05 4.7666E-07 0.0004163966 -1.5440533E-05 0.99999994 4.369E-08 0 0 0 1 0.9962861 0.0861034 -0.0004139005 11.999999 -0.08610339 0.9962862 4.76684E-05 4.7666E-07 0.00041646775 -1.1853132E-05 0.99999994 4.369E-08 0 0 0 1 0.993774 0.11141396 -0.0004131741 11.999999 -0.11141395 0.99377406 5.291721E-05 4.7666E-07 0.0004164974 -6.554388E-06 0.99999994 4.369E-08 0 0 0 1 0.9911112 0.13303532 -0.00041248143 11.999999 -0.13303532 0.9911113 5.740174E-05 4.7666E-07 0.00041645148 -2.01691E-06 0.99999994 4.369E-08 0 0 0 1 0.9911112 0.13303532 -0.00041248143 11.999999 -0.13303532 0.9911113 5.740174E-05 4.7666E-07 0.00041645148 -2.01691E-06 0.99999994 4.369E-08 0 0 0 1</float_array>
        <technique_common>
          <accessor source="#Motion_30_LFeelerF2_transform_pose_array_id" count="17" stride="16">
            <param name="TRANSFORM" type="float4x4" />
          </accessor>
        </technique_common>
      </source>
      <sampler id="Motion_30_LFeelerF2_transform_samp_id">
        <input semantic="INPUT" source="#Motion_30_LFeelerF2_transform_frame_id" />
        <input semantic="INTERPOLATION" source="#Motion_30_LFeelerF2_transform_interp_id" />
        <input semantic="OUTPUT" source="#Motion_30_LFeelerF2_transform_pose_id" />
      </sampler>
      <channel source="#Motion_30_LFeelerF2_transform_samp_id" target="LFeelerF2_bone_id/transform" />
    </animation>
    <animation id="Motion_30_LFeelerF3_transform_id" name="Motion_30_LFeelerF3_transform">
      <source id="Motion_30_LFeelerF3_transform_frame_id" name="Motion_30_LFeelerF3_transform_frame">
        <float_array id="Motion_30_LFeelerF3_transform_frame_array_id" count="17">0 0.033333335 0.06666667 0.1 0.13333334 0.16666667 0.2 0.23333333 0.26666668 0.3 0.33333334 0.36666667 0.4 0.43333334 0.46666667 0.5 0.53333336</float_array>
        <technique_common>
          <accessor source="#Motion_30_LFeelerF3_transform_frame_array_id" count="17" stride="1">
            <param name="TIME" type="float" />
          </accessor>
        </technique_common>
      </source>
      <source id="Motion_30_LFeelerF3_transform_interp_id" name="Motion_30_LFeelerF3_transform_interp">
        <Name_array id="Motion_30_LFeelerF3_transform_interp_array_id" count="17">LINEAR LINEAR LINEAR LINEAR LINEAR LINEAR LINEAR LINEAR LINEAR LINEAR LINEAR LINEAR LINEAR LINEAR LINEAR LINEAR LINEAR</Name_array>
        <technique_common>
          <accessor source="#Motion_30_LFeelerF3_transform_interp_array_id" count="17" stride="1">
            <param name="INTERPOLATION" type="Name" />
          </accessor>
        </technique_common>
      </source>
      <source id="Motion_30_LFeelerF3_transform_pose_id" name="Motion_30_LFeelerF3_transform_pose">
        <float_array id="Motion_30_LFeelerF3_transform_pose_array_id" count="272">0.9986191 -0.005802364 0.052213512 15.023909 0.005872024 0.99998206 -0.0011808292 7.1829E-07 -0.052205727 0.0014857976 0.99863523 -2.844E-08 0 0 0 1 0.99827254 0.02696482 0.052200533 15.023909 -0.02695296 0.9996363 -0.0009312924 7.1829E-07 -0.052206658 -0.00047727523 0.9986362 -2.844E-08 0 0 0 1 0.9937249 0.09893403 0.05218159 15.023909 -0.09899431 0.99508697 -0.0014344713 7.1829E-07 -0.052067142 -0.0037402106 0.9986366 -2.844E-08 0 0 0 1 0.98399484 0.17039055 0.052164927 15.023909 -0.17051873 0.9853524 -0.0020162463 7.1829E-07 -0.051744387 -0.0069111213 0.9986364 -2.844E-08 0 0 0 1 0.9778723 0.2025889 0.052187055 15.023909 -0.2027625 0.9792259 -0.0020016131 7.1829E-07 -0.05150842 -0.008624256 0.9986353 -2.844E-08 0 0 0 1 0.9818156 0.18251052 0.052230567 15.023909 -0.18268907 0.9831698 -0.0013756163 7.1829E-07 -0.05160258 -0.008191352 0.9986341 -2.844E-08 0 0 0 1 0.990065 0.13055554 0.052216616 15.023909 -0.13067997 0.9914241 -0.0010389569 7.1829E-07 -0.05190445 -0.0057950304 0.99863523 -2.844E-08 0 0 0 1 0.99707323 0.05586126 0.05219657 15.023909 -0.05588715 0.9984366 -0.00096455764 7.1829E-07 -0.052168846 -0.001955383 0.99863636 -2.844E-08 0 0 0 1 0.99823856 -0.028148312 0.052224856 15.023909 0.028229326 0.9996011 -0.0008140859 7.1829E-07 -0.052181114 0.0022869245 0.998635 -2.844E-08 0 0 0 1 0.9928232 -0.1075507 0.052297466 15.023909 0.107733615 0.99417955 -0.0006828513 7.1829E-07 -0.05191963 0.006312146 0.9986313 -2.844E-08 0 0 0 1 0.9836236 -0.17245206 0.05239081 15.023909 0.17271864 0.98497105 -0.0005696891 7.1829E-07 -0.05150519 0.00960923 0.9986265 -2.844E-08 0 0 0 1 0.97630674 -0.20993416 0.052467305 15.023909 0.2102534 0.97764677 -0.00057853386 7.1829E-07 -0.051173035 0.011596256 0.9986225 -2.844E-08 0 0 0 1 0.976701 -0.20808703 0.05248679 15.023909 0.20841542 0.97804004 -0.0008020508 7.1829E-07 -0.051167283 0.011722419 0.9986213 -2.844E-08 0 0 0 1 0.98555344 -0.16104901 0.052417394 15.023909 0.16133004 0.98689985 -0.0011475631 7.1829E-07 -0.051545907 0.009587485 0.9986246 -2.844E-08 0 0 0 1 0.9942281 -0.093669474 0.05231155 15.023909 0.09386799 0.9955838 -0.0013456554 7.1829E-07 -0.05195448 0.0062482688 0.9986299 -2.844E-08 0 0 0 1 0.99810815 -0.032422155 0.05223878 15.023909 0.03254459 0.99946916 -0.0014946539 7.1829E-07 -0.05216259 0.0031919158 0.9986335 -2.844E-08 0 0 0 1 0.99810815 -0.032422155 0.05223878 15.023909 0.03254459 0.99946916 -0.0014946539 7.1829E-07 -0.05216259 0.0031919158 0.9986335 -2.844E-08 0 0 0 1</float_array>
        <technique_common>
          <accessor source="#Motion_30_LFeelerF3_transform_pose_array_id" count="17" stride="16">
            <param name="TRANSFORM" type="float4x4" />
          </accessor>
        </technique_common>
      </source>
      <sampler id="Motion_30_LFeelerF3_transform_samp_id">
        <input semantic="INPUT" source="#Motion_30_LFeelerF3_transform_frame_id" />
        <input semantic="INTERPOLATION" source="#Motion_30_LFeelerF3_transform_interp_id" />
        <input semantic="OUTPUT" source="#Motion_30_LFeelerF3_transform_pose_id" />
      </sampler>
      <channel source="#Motion_30_LFeelerF3_transform_samp_id" target="LFeelerF3_bone_id/transform" />
    </animation>
    <animation id="Motion_30_Head_transform_id" name="Motion_30_Head_transform">
      <source id="Motion_30_Head_transform_frame_id" name="Motion_30_Head_transform_frame">
        <float_array id="Motion_30_Head_transform_frame_array_id" count="17">0 0.033333335 0.06666667 0.1 0.13333334 0.16666667 0.2 0.23333333 0.26666668 0.3 0.33333334 0.36666667 0.4 0.43333334 0.46666667 0.5 0.53333336</float_array>
        <technique_common>
          <accessor source="#Motion_30_Head_transform_frame_array_id" count="17" stride="1">
            <param name="TIME" type="float" />
          </accessor>
        </technique_common>
      </source>
      <source id="Motion_30_Head_transform_interp_id" name="Motion_30_Head_transform_interp">
        <Name_array id="Motion_30_Head_transform_interp_array_id" count="17">LINEAR LINEAR LINEAR LINEAR LINEAR LINEAR LINEAR LINEAR LINEAR LINEAR LINEAR LINEAR LINEAR LINEAR LINEAR LINEAR LINEAR</Name_array>
        <technique_common>
          <accessor source="#Motion_30_Head_transform_interp_array_id" count="17" stride="1">
            <param name="INTERPOLATION" type="Name" />
          </accessor>
        </technique_common>
      </source>
      <source id="Motion_30_Head_transform_pose_id" name="Motion_30_Head_transform_pose">
        <float_array id="Motion_30_Head_transform_pose_array_id" count="272">0.9999512 -0.0022574642 0.009621479 8.001 0.0036627103 0.9888842 -0.14864248 0 -0.009178974 0.14867046 0.9888442 0 0 0 0 1 0.99981385 -0.015198344 0.011887889 8.001 0.01659139 0.9916946 -0.12754028 0 -0.009850755 0.12771375 0.99176216 0 0 0 0 1 0.998846 -0.046018958 0.013745488 8.001 0.04693245 0.9960129 -0.07586565 0 -0.010199425 0.076423205 0.9970233 0 0 0 0 1 0.9963632 -0.08438466 0.011814696 8.001 0.084482156 0.9963928 -0.008010448 0 -0.011096119 0.008979446 0.99989814 0 0 0 0 1 0.99333 -0.115155645 0.005887404 8.001 0.114664055 0.99189144 0.05480453 0 -0.012150716 -0.053763907 0.9984797 0 0 0 0 1 0.991763 -0.12808639 -1.6650185E-05 8.001 0.12747091 0.9869847 0.09804267 0 -0.012541497 -0.097237214 0.9951822 0 0 0 0 1 0.9925711 -0.12164318 -0.0023546005 8.001 0.12108358 0.98574364 0.11682587 0 -0.011890038 -0.11624309 0.99314964 0 0 0 0 1 0.99468184 -0.10298733 -0.0013027745 8.001 0.1023993 0.9874852 0.11994747 0 -0.011066599 -0.11944298 0.9927794 0 0 0 0 1 0.99693096 -0.07827374 0.0013751476 8.001 0.07765578 0.99097914 0.10922402 0 -0.009912115 -0.10878202 0.99401623 0 0 0 0 1 0.99870664 -0.0506472 0.004460751 8.001 0.05006726 0.9949414 0.08709109 0 -0.008849106 -0.08675511 0.99619037 0 0 0 0 1 0.9996613 -0.025114095 0.006817688 8.001 0.02469323 0.99812293 0.05604343 0 -0.008212371 -0.0558561 0.99840504 0 0 0 0 1 0.99994695 -0.0067717913 0.0077591976 8.001 0.006625909 0.99980366 0.018675191 0 -0.007884138 -0.018622788 0.9997955 0 0 0 0 1 0.9999689 0.0008288651 0.007842358 8.001 -0.0006533122 0.9997497 -0.022361362 0 -0.00785893 0.022355543 0.9997192 0 0 0 0 1 0.99996686 0.0010959838 0.008068189 8.001 -0.0005609448 0.9978181 -0.06602054 0 -0.008122943 0.06601382 0.9977856 0 0 0 0 1 0.9999633 -0.0006910588 0.008543633 8.001 0.0016020483 0.99424845 -0.1070862 0 -0.008420492 0.10709596 0.99421304 0 0 0 0 1 0.9999574 -0.001609846 0.009092414 8.001 0.0028383327 0.9905998 -0.13676222 0 -0.008786778 0.13678218 0.9905622 0 0 0 0 1 0.9999574 -0.001609846 0.009092414 8.001 0.0028383327 0.9905998 -0.13676222 0 -0.008786778 0.13678218 0.9905622 0 0 0 0 1</float_array>
        <technique_common>
          <accessor source="#Motion_30_Head_transform_pose_array_id" count="17" stride="16">
            <param name="TRANSFORM" type="float4x4" />
          </accessor>
        </technique_common>
      </source>
      <sampler id="Motion_30_Head_transform_samp_id">
        <input semantic="INPUT" source="#Motion_30_Head_transform_frame_id" />
        <input semantic="INTERPOLATION" source="#Motion_30_Head_transform_interp_id" />
        <input semantic="OUTPUT" source="#Motion_30_Head_transform_pose_id" />
      </sampler>
      <channel source="#Motion_30_Head_transform_samp_id" target="Head_bone_id/transform" />
    </animation>
    <animation id="Motion_30_LowerJaw_transform_id" name="Motion_30_LowerJaw_transform">
      <source id="Motion_30_LowerJaw_transform_frame_id" name="Motion_30_LowerJaw_transform_frame">
        <float_array id="Motion_30_LowerJaw_transform_frame_array_id" count="17">0 0.033333335 0.06666667 0.1 0.13333334 0.16666667 0.2 0.23333333 0.26666668 0.3 0.33333334 0.36666667 0.4 0.43333334 0.46666667 0.5 0.53333336</float_array>
        <technique_common>
          <accessor source="#Motion_30_LowerJaw_transform_frame_array_id" count="17" stride="1">
            <param name="TIME" type="float" />
          </accessor>
        </technique_common>
      </source>
      <source id="Motion_30_LowerJaw_transform_interp_id" name="Motion_30_LowerJaw_transform_interp">
        <Name_array id="Motion_30_LowerJaw_transform_interp_array_id" count="17">LINEAR LINEAR LINEAR LINEAR LINEAR LINEAR LINEAR LINEAR LINEAR LINEAR LINEAR LINEAR LINEAR LINEAR LINEAR LINEAR LINEAR</Name_array>
        <technique_common>
          <accessor source="#Motion_30_LowerJaw_transform_interp_array_id" count="17" stride="1">
            <param name="INTERPOLATION" type="Name" />
          </accessor>
        </technique_common>
      </source>
      <source id="Motion_30_LowerJaw_transform_pose_id" name="Motion_30_LowerJaw_transform_pose">
        <float_array id="Motion_30_LowerJaw_transform_pose_array_id" count="272">-0.26921082 0 -0.9630812 11.338609 0 1 0 0 0.9630812 0 -0.26921082 14.19865 0 0 0 1 -0.26921082 0 -0.9630812 11.338609 0 1 0 0 0.9630812 0 -0.26921082 14.19865 0 0 0 1 -0.26921082 0 -0.9630812 11.338609 0 1 0 0 0.9630812 0 -0.26921082 14.19865 0 0 0 1 -0.26921082 0 -0.9630812 11.338609 0 1 0 0 0.9630812 0 -0.26921082 14.19865 0 0 0 1 -0.26921082 0 -0.9630812 11.338609 0 1 0 0 0.9630812 0 -0.26921082 14.19865 0 0 0 1 -0.26921082 0 -0.9630812 11.338609 0 1 0 0 0.9630812 0 -0.26921082 14.19865 0 0 0 1 -0.26921082 0 -0.9630812 11.338609 0 1 0 0 0.9630812 0 -0.26921082 14.19865 0 0 0 1 -0.26921082 0 -0.9630812 11.338609 0 1 0 0 0.9630812 0 -0.26921082 14.19865 0 0 0 1 -0.26921082 0 -0.9630812 11.338609 0 1 0 0 0.9630812 0 -0.26921082 14.19865 0 0 0 1 -0.26921082 0 -0.9630812 11.338609 0 1 0 0 0.9630812 0 -0.26921082 14.19865 0 0 0 1 -0.26921082 0 -0.9630812 11.338609 0 1 0 0 0.9630812 0 -0.26921082 14.19865 0 0 0 1 -0.26921082 0 -0.9630812 11.338609 0 1 0 0 0.9630812 0 -0.26921082 14.19865 0 0 0 1 -0.26921082 0 -0.9630812 11.338609 0 1 0 0 0.9630812 0 -0.26921082 14.19865 0 0 0 1 -0.26921082 0 -0.9630812 11.338609 0 1 0 0 0.9630812 0 -0.26921082 14.19865 0 0 0 1 -0.26921082 0 -0.9630812 11.338609 0 1 0 0 0.9630812 0 -0.26921082 14.19865 0 0 0 1 -0.26921082 0 -0.9630812 11.338609 0 1 0 0 0.9630812 0 -0.26921082 14.19865 0 0 0 1 -0.26921082 0 -0.9630812 11.338609 0 1 0 0 0.9630812 0 -0.26921082 14.19865 0 0 0 1</float_array>
        <technique_common>
          <accessor source="#Motion_30_LowerJaw_transform_pose_array_id" count="17" stride="16">
            <param name="TRANSFORM" type="float4x4" />
          </accessor>
        </technique_common>
      </source>
      <sampler id="Motion_30_LowerJaw_transform_samp_id">
        <input semantic="INPUT" source="#Motion_30_LowerJaw_transform_frame_id" />
        <input semantic="INTERPOLATION" source="#Motion_30_LowerJaw_transform_interp_id" />
        <input semantic="OUTPUT" source="#Motion_30_LowerJaw_transform_pose_id" />
      </sampler>
      <channel source="#Motion_30_LowerJaw_transform_samp_id" target="LowerJaw_bone_id/transform" />
    </animation>
    <animation id="Motion_30_UpperJaw_transform_id" name="Motion_30_UpperJaw_transform">
      <source id="Motion_30_UpperJaw_transform_frame_id" name="Motion_30_UpperJaw_transform_frame">
        <float_array id="Motion_30_UpperJaw_transform_frame_array_id" count="17">0 0.033333335 0.06666667 0.1 0.13333334 0.16666667 0.2 0.23333333 0.26666668 0.3 0.33333334 0.36666667 0.4 0.43333334 0.46666667 0.5 0.53333336</float_array>
        <technique_common>
          <accessor source="#Motion_30_UpperJaw_transform_frame_array_id" count="17" stride="1">
            <param name="TIME" type="float" />
          </accessor>
        </technique_common>
      </source>
      <source id="Motion_30_UpperJaw_transform_interp_id" name="Motion_30_UpperJaw_transform_interp">
        <Name_array id="Motion_30_UpperJaw_transform_interp_array_id" count="17">LINEAR LINEAR LINEAR LINEAR LINEAR LINEAR LINEAR LINEAR LINEAR LINEAR LINEAR LINEAR LINEAR LINEAR LINEAR LINEAR LINEAR</Name_array>
        <technique_common>
          <accessor source="#Motion_30_UpperJaw_transform_interp_array_id" count="17" stride="1">
            <param name="INTERPOLATION" type="Name" />
          </accessor>
        </technique_common>
      </source>
      <source id="Motion_30_UpperJaw_transform_pose_id" name="Motion_30_UpperJaw_transform_pose">
        <float_array id="Motion_30_UpperJaw_transform_pose_array_id" count="272">-0.25274026 -8.683966E-08 0.96753436 12.630662 1.5216722E-07 -1.0000005 -5.000435E-08 0 0.96753436 1.3458889E-07 0.2527399 13.730237 0 0 0 1 -0.25274026 -8.683966E-08 0.96753436 12.630662 1.5216722E-07 -1.0000005 -5.000435E-08 0 0.96753436 1.3458889E-07 0.2527399 13.730237 0 0 0 1 -0.25274026 -8.683966E-08 0.96753436 12.630662 1.5216722E-07 -1.0000005 -5.000435E-08 0 0.96753436 1.3458889E-07 0.2527399 13.730237 0 0 0 1 -0.25274026 -8.683966E-08 0.96753436 12.630662 1.5216722E-07 -1.0000005 -5.000435E-08 0 0.96753436 1.3458889E-07 0.2527399 13.730237 0 0 0 1 -0.25274026 -8.683966E-08 0.96753436 12.630662 1.5216722E-07 -1.0000005 -5.000435E-08 0 0.96753436 1.3458889E-07 0.2527399 13.730237 0 0 0 1 -0.25274026 -8.683966E-08 0.96753436 12.630662 1.5216722E-07 -1.0000005 -5.000435E-08 0 0.96753436 1.3458889E-07 0.2527399 13.730237 0 0 0 1 -0.25274026 -8.683966E-08 0.96753436 12.630662 1.5216722E-07 -1.0000005 -5.000435E-08 0 0.96753436 1.3458889E-07 0.2527399 13.730237 0 0 0 1 -0.25274026 -8.683966E-08 0.96753436 12.630662 1.5216722E-07 -1.0000005 -5.000435E-08 0 0.96753436 1.3458889E-07 0.2527399 13.730237 0 0 0 1 -0.25274026 -8.683966E-08 0.96753436 12.630662 1.5216722E-07 -1.0000005 -5.000435E-08 0 0.96753436 1.3458889E-07 0.2527399 13.730237 0 0 0 1 -0.25274026 -8.683966E-08 0.96753436 12.630662 1.5216722E-07 -1.0000005 -5.000435E-08 0 0.96753436 1.3458889E-07 0.2527399 13.730237 0 0 0 1 -0.25274026 -8.683966E-08 0.96753436 12.630662 1.5216722E-07 -1.0000005 -5.000435E-08 0 0.96753436 1.3458889E-07 0.2527399 13.730237 0 0 0 1 -0.25274026 -8.683966E-08 0.96753436 12.630662 1.5216722E-07 -1.0000005 -5.000435E-08 0 0.96753436 1.3458889E-07 0.2527399 13.730237 0 0 0 1 -0.25274026 -8.683966E-08 0.96753436 12.630662 1.5216722E-07 -1.0000005 -5.000435E-08 0 0.96753436 1.3458889E-07 0.2527399 13.730237 0 0 0 1 -0.25274026 -8.683966E-08 0.96753436 12.630662 1.5216722E-07 -1.0000005 -5.000435E-08 0 0.96753436 1.3458889E-07 0.2527399 13.730237 0 0 0 1 -0.25274026 -8.683966E-08 0.96753436 12.630662 1.5216722E-07 -1.0000005 -5.000435E-08 0 0.96753436 1.3458889E-07 0.2527399 13.730237 0 0 0 1 -0.25274026 -8.683966E-08 0.96753436 12.630662 1.5216722E-07 -1.0000005 -5.000435E-08 0 0.96753436 1.3458889E-07 0.2527399 13.730237 0 0 0 1 -0.25274026 -8.683966E-08 0.96753436 12.630662 1.5216722E-07 -1.0000005 -5.000435E-08 0 0.96753436 1.3458889E-07 0.2527399 13.730237 0 0 0 1</float_array>
        <technique_common>
          <accessor source="#Motion_30_UpperJaw_transform_pose_array_id" count="17" stride="16">
            <param name="TRANSFORM" type="float4x4" />
          </accessor>
        </technique_common>
      </source>
      <sampler id="Motion_30_UpperJaw_transform_samp_id">
        <input semantic="INPUT" source="#Motion_30_UpperJaw_transform_frame_id" />
        <input semantic="INTERPOLATION" source="#Motion_30_UpperJaw_transform_interp_id" />
        <input semantic="OUTPUT" source="#Motion_30_UpperJaw_transform_pose_id" />
      </sampler>
      <channel source="#Motion_30_UpperJaw_transform_samp_id" target="UpperJaw_bone_id/transform" />
    </animation>
    <animation id="Motion_30_FeelerA1_transform_id" name="Motion_30_FeelerA1_transform">
      <source id="Motion_30_FeelerA1_transform_frame_id" name="Motion_30_FeelerA1_transform_frame">
        <float_array id="Motion_30_FeelerA1_transform_frame_array_id" count="17">0 0.033333335 0.06666667 0.1 0.13333334 0.16666667 0.2 0.23333333 0.26666668 0.3 0.33333334 0.36666667 0.4 0.43333334 0.46666667 0.5 0.53333336</float_array>
        <technique_common>
          <accessor source="#Motion_30_FeelerA1_transform_frame_array_id" count="17" stride="1">
            <param name="TIME" type="float" />
          </accessor>
        </technique_common>
      </source>
      <source id="Motion_30_FeelerA1_transform_interp_id" name="Motion_30_FeelerA1_transform_interp">
        <Name_array id="Motion_30_FeelerA1_transform_interp_array_id" count="17">LINEAR LINEAR LINEAR LINEAR LINEAR LINEAR LINEAR LINEAR LINEAR LINEAR LINEAR LINEAR LINEAR LINEAR LINEAR LINEAR LINEAR</Name_array>
        <technique_common>
          <accessor source="#Motion_30_FeelerA1_transform_interp_array_id" count="17" stride="1">
            <param name="INTERPOLATION" type="Name" />
          </accessor>
        </technique_common>
      </source>
      <source id="Motion_30_FeelerA1_transform_pose_id" name="Motion_30_FeelerA1_transform_pose">
        <float_array id="Motion_30_FeelerA1_transform_pose_array_id" count="272">-0.87921655 0.07278279 0.47083077 25.39861 0.28727302 -0.70740294 0.6457987 12.129999 0.38006994 0.7030536 0.6010513 15.620434 0 0 0 1 -0.86866117 0.104411826 0.48427835 25.39861 0.27001685 -0.7197908 0.6395245 12.129999 0.41535315 0.68629354 0.59706175 15.620434 0 0 0 1 -0.8370824 0.17814344 0.51725984 25.39861 0.22881845 -0.7448156 0.6268106 12.129999 0.49692547 0.64305085 0.5827098 15.620434 0 0 0 1 -0.7874335 0.26138294 0.55823636 25.39861 0.18094374 -0.76772237 0.6147049 12.129999 0.58924377 0.5850485 0.55723435 15.620434 0 0 0 1 -0.737255 0.32584935 0.59184194 25.39861 0.14307648 -0.78083503 0.6081328 12.129999 0.6602907 0.5330277 0.52905345 15.620434 0 0 0 1 -0.71369123 0.35158366 0.6058333 25.39861 0.1279485 -0.78492105 0.60624117 12.129999 0.68867576 0.51018435 0.51520646 15.620434 0 0 0 1 -0.7225685 0.33584362 0.60423845 25.39861 0.14072776 -0.7842994 0.6042107 12.129999 0.67682403 0.52161664 0.5194472 15.620434 0 0 0 1 -0.74406195 0.29601997 0.5989524 25.39861 0.17388175 -0.7797929 0.60140514 12.129999 0.64508677 0.55162954 0.5287418 15.620434 0 0 0 1 -0.76951087 0.23723648 0.59293455 25.39861 0.22370382 -0.7694888 0.5981999 12.129999 0.59817153 0.59296316 0.5390597 15.620434 0 0 0 1 -0.79133725 0.1700263 0.58726186 25.39861 0.28142166 -0.75143886 0.596776 12.129999 0.542759 0.63751924 0.5467924 15.620434 0 0 0 1 -0.80579114 0.102717765 0.5832232 25.39861 0.33985803 -0.7263082 0.5974717 12.129999 0.48497093 0.67965066 0.55034363 15.620434 0 0 0 1 -0.81262136 0.04725477 0.5808735 25.39861 0.38797808 -0.6998781 0.5997033 12.129999 0.4348793 0.71269774 0.5504017 15.620434 0 0 0 1 -0.81633997 0.011560842 0.5774561 25.39861 0.4168222 -0.6802957 0.60287416 12.129999 0.3998106 0.73284674 0.5505336 15.620434 0 0 0 1 -0.8230932 0.004850775 0.567886 25.39861 0.41548967 -0.6765487 0.6079891 12.129999 0.38715157 0.73638225 0.55484676 15.620434 0 0 0 1 -0.8467419 0.026360974 0.5313506 25.39861 0.37035054 -0.6878146 0.6243011 12.129999 0.3819278 0.72540784 0.5726384 15.620434 0 0 0 1 -0.8695264 0.056766957 0.49061322 25.39861 0.31507456 -0.7012162 0.63954973 12.129999 0.38033122 0.71068513 0.5918402 15.620434 0 0 0 1 -0.8695264 0.056766957 0.49061322 25.39861 0.31507456 -0.7012162 0.63954973 12.129999 0.38033122 0.71068513 0.5918402 15.620434 0 0 0 1</float_array>
        <technique_common>
          <accessor source="#Motion_30_FeelerA1_transform_pose_array_id" count="17" stride="16">
            <param name="TRANSFORM" type="float4x4" />
          </accessor>
        </technique_common>
      </source>
      <sampler id="Motion_30_FeelerA1_transform_samp_id">
        <input semantic="INPUT" source="#Motion_30_FeelerA1_transform_frame_id" />
        <input semantic="INTERPOLATION" source="#Motion_30_FeelerA1_transform_interp_id" />
        <input semantic="OUTPUT" source="#Motion_30_FeelerA1_transform_pose_id" />
      </sampler>
      <channel source="#Motion_30_FeelerA1_transform_samp_id" target="FeelerA1_bone_id/transform" />
    </animation>
  </library_animations>
  <library_visual_scenes>
    <visual_scene id="pm0842_00_fi_00_clip_id" name="pm0842_00_fi_00_clip">
      <node id="pm0842_00_fi_bone_id" name="pm0842_00_fi" sid="pm0842_00_fi" type="JOINT">
        <matrix sid="transform">1 0 0 0 0 1 0 0 0 0 1 0 0 0 0 1</matrix>
        <node id="Origin_bone_id" name="Origin" sid="Origin" type="JOINT">
          <matrix sid="transform">1 0 0 0 0 1 0 0 0 0 1 0 0 0 0 1</matrix>
          <node id="Waist_bone_id" name="Waist" sid="Waist" type="JOINT">
            <matrix sid="transform">3.1391647E-07 -1 0 0 1 3.1391647E-07 0 34.960392 0 0 1 -0.740435 0 0 0 1</matrix>
            <node id="Head_bone_id" name="Head" sid="Head" type="JOINT">
              <matrix sid="transform">1 0 0 8.001 0 1 0 0 0 0 1 0 0 0 0 1</matrix>
              <node id="FeelerA1_bone_id" name="FeelerA1" sid="FeelerA1" type="JOINT">
                <matrix sid="transform">-0.89229816 0.07278529 0.44554034 25.39861 0.2687187 -0.7074033 0.653736 12.129999 0.3627591 0.70305246 0.61165595 15.620434 0 0 0 1</matrix>
              </node>
              <node id="UpperJaw_bone_id" name="UpperJaw" sid="UpperJaw" type="JOINT">
                <matrix sid="transform">-0.2527402 -3.2584137E-07 0.9675342 12.630662 8.235322E-08 -1 -3.1526267E-07 0 0.9675342 0 0.2527402 13.730237 0 0 0 1</matrix>
              </node>
              <node id="LowerJaw_bone_id" name="LowerJaw" sid="LowerJaw" type="JOINT">
                <matrix sid="transform">-0.2692103 0 -0.9630814 11.338609 0 1 0 0 0.9630814 0 -0.2692103 14.19865 0 0 0 1</matrix>
              </node>
              <node id="Loc_Head_bone_id" name="Loc_Head" sid="Loc_Head" type="JOINT">
                <matrix sid="transform">3.1391647E-07 1 0 26.72893 -1 3.1391647E-07 0 0 0 0 1 1.424941 0 0 0 1</matrix>
              </node>
              <node id="Loc_Eye_bone_id" name="Loc_Eye" sid="Loc_Eye" type="JOINT">
                <matrix sid="transform">3.1391647E-07 1 0 14.692812 -1 3.1391647E-07 0 0 0 0 1 22.132488 0 0 0 1</matrix>
              </node>
              <node id="Loc_Mouth_bone_id" name="Loc_Mouth" sid="Loc_Mouth" type="JOINT">
                <matrix sid="transform">3.1391647E-07 1 0 9.372914 -1 3.1391647E-07 0 0 0 0 1 23.184376 0 0 0 1</matrix>
              </node>
            </node>
            <node id="LFeelerF1_bone_id" name="LFeelerF1" sid="LFeelerF1" type="JOINT">
              <matrix sid="transform">-0.9912047 -0.05847505 -0.118718036 11.45166 0.07012804 -0.9928616 -0.0964774 -19.289717 -0.11222906 -0.10395431 0.9882299 1.303258 0 0 0 1</matrix>
              <node id="LFeelerF2_bone_id" name="LFeelerF2" sid="LFeelerF2" type="JOINT">
                <matrix sid="transform">0.98977625 0.14262894 0 11.999999 -0.14262894 0.98977625 0 0 0 0 1 0 0 0 0 1</matrix>
                <node id="LFeelerF3_bone_id" name="LFeelerF3" sid="LFeelerF3" type="JOINT">
                  <matrix sid="transform">0.9936395 0.11260764 -4.219603E-06 15.023909 -0.11260764 0.9936395 -1.0592212E-05 1E-06 3E-06 1.1E-05 1 0 0 0 0 1</matrix>
                </node>
              </node>
            </node>
            <node id="RFeelerF1_bone_id" name="RFeelerF1" sid="RFeelerF1" type="JOINT">
              <matrix sid="transform">-0.99120486 0.05847221 -0.11871776 11.451711 -0.0701252 -0.9928618 0.09647773 19.289698 -0.11222906 0.10395431 0.9882299 1.303258 0 0 0 1</matrix>
              <node id="RFeelerF2_bone_id" name="RFeelerF2" sid="RFeelerF2" type="JOINT">
                <matrix sid="transform">0.98977554 -0.14263389 9.897756E-07 12.000042 0.14263389 0.98977554 1.4263388E-07 0 -1E-06 0 1 0 0 0 0 1</matrix>
                <node id="RFeelerF3_bone_id" name="RFeelerF3" sid="RFeelerF3" type="JOINT">
                  <matrix sid="transform">0.99364007 -0.11260268 -4.2195497E-06 15.0239 0.11260268 0.99364007 1.0592233E-05 0 3E-06 -1.1E-05 1 0 0 0 0 1</matrix>
                </node>
              </node>
            </node>
            <node id="Hips_bone_id" name="Hips" sid="Hips" type="JOINT">
              <matrix sid="transform">-1 -3.2584137E-07 0 -0.001 3.2584137E-07 -1 0 0 0 0 1 0 0 0 0 1</matrix>
              <node id="Tail_bone_id" name="Tail" sid="Tail" type="JOINT">
                <matrix sid="transform">0.9941799 0 0.107732505 3.359817 0 1 0 0 -0.107732505 0 0.9941799 -10.920661 0 0 0 1</matrix>
              </node>
              <node id="LThigh_bone_id" name="LThigh" sid="LThigh" type="JOINT">
                <matrix sid="transform">0.9999939 0 -0.003490993 14.063933 0 1 0 8.200001 0.003490993 0 0.9999939 0.740435 0 0 0 1</matrix>
                <node id="LLeg_bone_id" name="LLeg" sid="LLeg" type="JOINT">
                  <matrix sid="transform">0.9999939 0 0.003490993 9.475019 0 1 0 0 -0.003490993 0 0.9999939 0 0 0 0 1</matrix>
                  <node id="LFoot_bone_id" name="LFoot" sid="LFoot" type="JOINT">
                    <matrix sid="transform">3.1391647E-07 -1E-06 -1 6.976584 0 1 -1E-06 3E-06 1 3.1391648E-13 3.1391647E-07 0 0 0 0 1</matrix>
                    <node id="LToe_bone_id" name="LToe" sid="LToe" type="JOINT">
                      <matrix sid="transform">1 -1E-06 0 8.792503 1E-06 1 0 -1E-06 0 0 1 -2.564252 0 0 0 1</matrix>
                    </node>
                  </node>
                </node>
              </node>
              <node id="RThigh_bone_id" name="RThigh" sid="RThigh" type="JOINT">
                <matrix sid="transform">0.9999939 0 -0.003490993 14.063893 0 1 0 -8.200001 0.003490993 0 0.9999939 0.740435 0 0 0 1</matrix>
                <node id="RLeg_bone_id" name="RLeg" sid="RLeg" type="JOINT">
                  <matrix sid="transform">0.9999939 0 0.003490993 9.475058 0 1 0 0 -0.003490993 0 0.9999939 0 0 0 0 1</matrix>
                  <node id="RFoot_bone_id" name="RFoot" sid="RFoot" type="JOINT">
                    <matrix sid="transform">3.1391647E-07 0 -1 6.97659 0 1 0 0 1 0 3.1391647E-07 0 0 0 0 1</matrix>
                    <node id="RToe_bone_id" name="RToe" sid="RToe" type="JOINT">
                      <matrix sid="transform">1 0 0 8.792506 0 1 1E-06 1E-06 0 -1E-06 1 -2.56425 0 0 0 1</matrix>
                    </node>
                  </node>
                </node>
              </node>
            </node>
          </node>
          <node id="CamTgtHead_bone_id" name="CamTgtHead" sid="CamTgtHead" type="JOINT">
            <matrix sid="transform">1 0 0 0 0 1 0 57.654205 0 0 1 21.392054 0 0 0 1</matrix>
          </node>
        </node>
        <node id="pm0842_00_fi_HairSkin_bone_id" name="pm0842_00_fi_HairSkin" sid="pm0842_00_fi_HairSkin" type="JOINT">
          <matrix sid="transform">1 0 0 0 0 1 0 0 0 0 1 0 0 0 0 1</matrix>
        </node>
        <node id="pm0842_00_fi_TieSkin_bone_id" name="pm0842_00_fi_TieSkin" sid="pm0842_00_fi_TieSkin" type="JOINT">
          <matrix sid="transform">1 0 0 0 0 1 0 0 0 0 1 0 0 0 0 1</matrix>
        </node>
        <node id="pm0842_00_fi_BodySkin_bone_id" name="pm0842_00_fi_BodySkin" sid="pm0842_00_fi_BodySkin" type="JOINT">
          <matrix sid="transform">1 0 0 0 0 1 0 0 0 0 1 0 0 0 0 1</matrix>
        </node>
        <node id="pm0842_00_fi_WingSkin_bone_id" name="pm0842_00_fi_WingSkin" sid="pm0842_00_fi_WingSkin" type="JOINT">
          <matrix sid="transform">1 0 0 0 0 1 0 0 0 0 1 0 0 0 0 1</matrix>
        </node>
        <node id="pm0842_00_fi_FootSkin_bone_id" name="pm0842_00_fi_FootSkin" sid="pm0842_00_fi_FootSkin" type="JOINT">
          <matrix sid="transform">1 0 0 0 0 1 0 0 0 0 1 0 0 0 0 1</matrix>
        </node>
      </node>
    </visual_scene>
  </library_visual_scenes>
  <scene>
    <instance_visual_scene url="#pm0842_00_fi_00_clip_id" />
  </scene>
</COLLADA>