<?xml version="1.0" encoding="utf-8"?>
<COLLADA xmlns:xsi="http://www.w3.org/2001/XMLSchema-instance" xmlns:xsd="http://www.w3.org/2001/XMLSchema" version="1.4.1" xmlns="http://www.collada.org/2005/11/COLLADASchema">
  <asset>
    <created>2026-02-17T05:46:55.4680837-05:00</created>
    <modified>2026-02-17T05:46:55.4680838-05:00</modified>
    <up_axis>Y_UP</up_axis>
  </asset>
  <library_animations>
    <animation id="Motion_30_Waist_transform_id" name="Motion_30_Waist_transform">
      <source id="Motion_30_Waist_transform_frame_id" name="Motion_30_Waist_transform_frame">
        <float_array id="Motion_30_Waist_transform_frame_array_id" count="17">0 0.033333335 0.06666667 0.1 0.13333334 0.16666667 0.2 0.23333333 0.26666668 0.3 0.33333334 0.36666667 0.4 0.43333334 0.46666667 0.5 0.53333336</float_array>
        <technique_common>
          <accessor source="#Motion_30_Waist_transform_frame_array_id" count="17" stride="1">
            <param name="TIME" type="float" />
          </accessor>
        </technique_common>
      </source>
      <source id="Motion_30_Waist_transform_interp_id" name="Motion_30_Waist_transform_interp">
        <Name_array id="Motion_30_Waist_transform_interp_array_id" count="17">LINEAR LINEAR LINEAR LINEAR LINEAR LINEAR LINEAR LINEAR LINEAR LINEAR LINEAR LINEAR LINEAR LINEAR LINEAR LINEAR LINEAR</Name_array>
        <technique_common>
          <accessor source="#Motion_30_Waist_transform_interp_array_id" count="17" stride="1">
            <param name="INTERPOLATION" type="Name" />
          </accessor>
        </technique_common>
      </source>
      <source id="Motion_30_Waist_transform_pose_id" name="Motion_30_Waist_transform_pose">
        <float_array id="Motion_30_Waist_transform_pose_array_id" count="272">-0.16142902 -1.0754211 0.28815824 0.27083337 1.1133579 -0.15592848 0.041780896 28.888594 -1.6763806E-08 0.29117143 1.0866666 0.7635851 0 0 0 1 -0.1631522 -1.0751764 0.28810078 0.22806814 1.1131065 -0.15758125 0.042270526 28.836859 -4.3535605E-05 0.29118523 1.0866629 0.699582 0 0 0 1 -0.16659495 -1.0746825 0.28797364 0.12353532 1.1125965 -0.1609017 0.043180354 28.703594 -6.197579E-05 0.29119295 1.0866607 0.5481852 0 0 0 1 -0.17239979 -1.0738298 0.28773755 -0.017833643 1.1117117 -0.16652468 0.044623367 28.508171 -2.2128224E-06 0.29117715 1.086665 0.3441762 0 0 0 1 -0.17975816 -1.0727032 0.2874362 -0.1591967 1.1105458 -0.17363186 0.046529252 28.277803 -3.5036355E-06 0.29117787 1.0866648 0.13586646 0 0 0 1 -0.18853596 -1.071293 0.28707245 -0.2637117 1.1090894 -0.18208082 0.04891247 28.039705 -0.0001148656 0.29120955 1.0866563 -0.028432459 0 0 0 1 -0.20035243 -1.0692898 0.28653654 -0.3074056 1.1070157 -0.1934853 0.052005358 27.821095 -0.0001494661 0.29121765 1.0866542 -0.10040916 0 0 0 1 -0.2161021 -1.0664294 0.28575054 -0.2998289 1.1040493 -0.2087346 0.05594602 27.64918 -1.4634803E-05 0.29117575 1.0866654 -0.05305122 0 0 0 1 -0.23247819 -1.0632142 0.28487587 -0.25442472 1.1007173 -0.224587 0.060056753 27.551176 0.00011223368 0.29113758 1.0866756 0.08404021 0 0 0 1 -0.24514438 -1.0605584 0.28415665 -0.18463632 1.0979658 -0.23685206 0.06322126 27.554302 0.00022512116 0.29110456 1.0866845 0.27425638 0 0 0 1 -0.24982336 -1.059538 0.28388828 -0.1039069 1.0969108 -0.24136032 0.064474136 27.675667 0.0001836475 0.29111758 1.086681 0.48098868 0 0 0 1 -0.24307331 -1.0609975 0.28429705 -0.019066911 1.0984265 -0.23478073 0.06294958 27.88718 -3.726594E-05 0.29118282 1.0866635 0.66762835 0 0 0 1 -0.22724238 -1.0642682 0.28516477 0.06689337 1.1018103 -0.21949147 0.058843717 28.14825 -3.04766E-05 0.29117268 1.0866662 0.79756665 0 0 0 1 -0.20585029 -1.0683235 0.28624347 0.14629105 1.1060065 -0.1988335 0.0532879 28.418291 -1.2388453E-05 0.29116136 1.0866692 0.8410446 0 0 0 1 -0.18447 -1.0719616 0.28721824 0.2114432 1.1097729 -0.17819296 0.047712 28.656708 3.0929223E-05 0.2911542 1.0866711 0.82237184 0 0 0 1 -0.16802122 -1.0744786 0.28790563 0.25466692 1.112382 -0.16229604 0.043487065 28.822912 3.3527613E-08 0.2911714 1.0866666 0.7860431 0 0 0 1 -0.16802122 -1.0744786 0.28790563 0.25466692 1.112382 -0.16229604 0.043487065 28.822912 3.3527613E-08 0.2911714 1.0866666 0.7860431 0 0 0 1</float_array>
        <technique_common>
          <accessor source="#Motion_30_Waist_transform_pose_array_id" count="17" stride="16">
            <param name="TRANSFORM" type="float4x4" />
          </accessor>
        </technique_common>
      </source>
      <sampler id="Motion_30_Waist_transform_samp_id">
        <input semantic="INPUT" source="#Motion_30_Waist_transform_frame_id" />
        <input semantic="INTERPOLATION" source="#Motion_30_Waist_transform_interp_id" />
        <input semantic="OUTPUT" source="#Motion_30_Waist_transform_pose_id" />
      </sampler>
      <channel source="#Motion_30_Waist_transform_samp_id" target="Waist_bone_id/transform" />
    </animation>
    <animation id="Motion_30_Hips_transform_id" name="Motion_30_Hips_transform">
      <source id="Motion_30_Hips_transform_frame_id" name="Motion_30_Hips_transform_frame">
        <float_array id="Motion_30_Hips_transform_frame_array_id" count="17">0 0.033333335 0.06666667 0.1 0.13333334 0.16666667 0.2 0.23333333 0.26666668 0.3 0.33333334 0.36666667 0.4 0.43333334 0.46666667 0.5 0.53333336</float_array>
        <technique_common>
          <accessor source="#Motion_30_Hips_transform_frame_array_id" count="17" stride="1">
            <param name="TIME" type="float" />
          </accessor>
        </technique_common>
      </source>
      <source id="Motion_30_Hips_transform_interp_id" name="Motion_30_Hips_transform_interp">
        <Name_array id="Motion_30_Hips_transform_interp_array_id" count="17">LINEAR LINEAR LINEAR LINEAR LINEAR LINEAR LINEAR LINEAR LINEAR LINEAR LINEAR LINEAR LINEAR LINEAR LINEAR LINEAR LINEAR</Name_array>
        <technique_common>
          <accessor source="#Motion_30_Hips_transform_interp_array_id" count="17" stride="1">
            <param name="INTERPOLATION" type="Name" />
          </accessor>
        </technique_common>
      </source>
      <source id="Motion_30_Hips_transform_pose_id" name="Motion_30_Hips_transform_pose">
        <float_array id="Motion_30_Hips_transform_pose_array_id" count="272">-1 8.742278E-08 0 0 -8.742278E-08 -1 0 0 0 0 1 0 0 0 0 1 -0.9999865 0.0007665438 -0.005137878 0 -0.00074662745 -0.99999225 -0.0038771606 0 -0.00514081 -0.0038732723 0.99997926 0 0 0 0 1 -0.9998294 0.002061976 -0.018372469 0 -0.001807951 -0.99990296 -0.01383229 0 -0.018399201 -0.0137967095 0.99973553 0 0 0 0 1 -0.99928784 0.0042581316 -0.037496738 0 -0.0031977007 -0.9995947 -0.028295316 0 -0.037602015 -0.028155256 0.99889606 0 0 0 0 1 -0.99820054 0.0075718295 -0.05948332 0 -0.004891718 -0.9989716 -0.045073614 0 -0.05976344 -0.04470153 0.99721116 0 0 0 0 1 -0.9966177 0.011805923 -0.08132483 0 -0.006766253 -0.9980551 -0.061968714 0 -0.08189826 -0.06120885 0.9947593 0 0 0 0 1 -0.994846 0.016264325 -0.10008524 0 -0.008575877 -0.99701166 -0.07677501 0 -0.101034835 -0.075520985 0.9920124 0 0 0 0 1 -0.99340487 0.019845441 -0.112928085 0 -0.009978015 -0.9961337 -0.08728124 0 -0.11422361 -0.085578814 0.9897622 0 0 0 0 1 -0.9927982 0.021404 -0.1178732 0 -0.010630386 -0.99576867 -0.09128116 0 -0.11932819 -0.08937071 0.98882437 0 0 0 0 1 -0.99341655 0.020107854 -0.11277959 0 -0.010252155 -0.9961295 -0.087297425 0 -0.114098445 -0.085566476 0.9897777 0 0 0 0 1 -0.9949001 0.01660374 -0.09948829 0 -0.008959169 -0.9970063 -0.07679856 0 -0.100465596 -0.07551557 0.9920706 0 0 0 0 1 -0.9966606 0.012145138 -0.08074904 0 -0.0071391603 -0.9980509 -0.061996367 0 -0.0813446 -0.06121285 0.9948045 0 0 0 0 1 -0.99820507 0.00785292 -0.059373986 0 -0.005176244 -0.9989691 -0.045101773 0 -0.05966695 -0.04471348 0.9972164 0 0 0 0 1 -0.99927795 0.0044127232 -0.03773135 0 -0.0033448427 -0.99959314 -0.02831863 0 -0.03784097 -0.028171984 0.9988866 0 0 0 0 1 -0.99982643 0.0020790887 -0.018519789 0 -0.0018227812 -0.9999026 -0.013845807 0 -0.018546771 -0.013809646 0.9997326 0 0 0 0 1 -0.9999865 0.00071528077 -0.0051380615 0 -0.00069537095 -0.99999225 -0.0038757077 0 -0.005140794 -0.0038720826 0.9999793 0 0 0 0 1 -0.9999865 0.00071528077 -0.0051380615 0 -0.00069537095 -0.99999225 -0.0038757077 0 -0.005140794 -0.0038720826 0.9999793 0 0 0 0 1</float_array>
        <technique_common>
          <accessor source="#Motion_30_Hips_transform_pose_array_id" count="17" stride="16">
            <param name="TRANSFORM" type="float4x4" />
          </accessor>
        </technique_common>
      </source>
      <sampler id="Motion_30_Hips_transform_samp_id">
        <input semantic="INPUT" source="#Motion_30_Hips_transform_frame_id" />
        <input semantic="INTERPOLATION" source="#Motion_30_Hips_transform_interp_id" />
        <input semantic="OUTPUT" source="#Motion_30_Hips_transform_pose_id" />
      </sampler>
      <channel source="#Motion_30_Hips_transform_samp_id" target="Hips_bone_id/transform" />
    </animation>
    <animation id="Motion_30_RFeelerE_transform_id" name="Motion_30_RFeelerE_transform">
      <source id="Motion_30_RFeelerE_transform_frame_id" name="Motion_30_RFeelerE_transform_frame">
        <float_array id="Motion_30_RFeelerE_transform_frame_array_id" count="17">0 0.033333335 0.06666667 0.1 0.13333334 0.16666667 0.2 0.23333333 0.26666668 0.3 0.33333334 0.36666667 0.4 0.43333334 0.46666667 0.5 0.53333336</float_array>
        <technique_common>
          <accessor source="#Motion_30_RFeelerE_transform_frame_array_id" count="17" stride="1">
            <param name="TIME" type="float" />
          </accessor>
        </technique_common>
      </source>
      <source id="Motion_30_RFeelerE_transform_interp_id" name="Motion_30_RFeelerE_transform_interp">
        <Name_array id="Motion_30_RFeelerE_transform_interp_array_id" count="17">LINEAR LINEAR LINEAR LINEAR LINEAR LINEAR LINEAR LINEAR LINEAR LINEAR LINEAR LINEAR LINEAR LINEAR LINEAR LINEAR LINEAR</Name_array>
        <technique_common>
          <accessor source="#Motion_30_RFeelerE_transform_interp_array_id" count="17" stride="1">
            <param name="INTERPOLATION" type="Name" />
          </accessor>
        </technique_common>
      </source>
      <source id="Motion_30_RFeelerE_transform_pose_id" name="Motion_30_RFeelerE_transform_pose">
        <float_array id="Motion_30_RFeelerE_transform_pose_array_id" count="272">0.99847853 -0.054043412 -0.0109498855 10.453332 -0.038534388 -0.54182684 -0.8396064 -6.3797417 0.03944225 0.83875096 -0.5430851 -5.2520576 0 0 0 1 0.9978079 -0.06524975 -0.011037702 10.453332 -0.04471688 -0.5418415 -0.83929026 -6.3797417 0.048782796 0.83794403 -0.5435715 -5.2520576 0 0 0 1 0.9955257 -0.09383038 -0.011154586 10.453332 -0.060400803 -0.5411303 -0.8387669 -6.3797417 0.07266572 0.8356877 -0.5443765 -5.2520576 0 0 0 1 0.9908578 -0.1344395 -0.011261653 10.453332 -0.08266542 -0.53905356 -0.8382049 -6.3797417 0.10661723 0.8314728 -0.54523885 -5.2520576 0 0 0 1 0.9836158 -0.17992431 -0.011277616 10.453332 -0.10748923 -0.53510463 -0.8379193 -6.3797417 0.14472735 0.8254029 -0.5456773 -5.2520576 0 0 0 1 0.9746991 -0.22324178 -0.011172429 10.453332 -0.13087484 -0.52946675 -0.8381744 -6.3797417 0.18120013 0.81843 -0.5452875 -5.2520576 0 0 0 1 0.9662089 -0.25753298 -0.010823786 10.453332 -0.1490021 -0.52377343 -0.838725 -6.3797417 0.21033014 0.8119962 -0.54444754 -5.2520576 0 0 0 1 0.96062046 -0.27765048 -0.010888562 10.453332 -0.15973762 -0.5197505 -0.83925164 -6.3797417 0.22735927 0.80794156 -0.5436342 -5.2520576 0 0 0 1 0.9604408 -0.27827248 -0.010856874 10.453332 -0.15992926 -0.5192317 -0.8395364 -6.3797417 0.22798264 0.80806136 -0.54319525 -5.2520576 0 0 0 1 0.9649225 -0.26231226 -0.010811843 10.453332 -0.15135525 -0.5221704 -0.8393032 -6.3797417 0.21451387 0.81149894 -0.54355633 -5.2520576 0 0 0 1 0.97214556 -0.23412645 -0.010856375 10.453332 -0.13626459 -0.5269002 -0.83893293 -6.3797417 0.19069614 0.8170442 -0.54412687 -5.2520576 0 0 0 1 0.9801285 -0.19805771 -0.011008717 10.453332 -0.11696407 -0.5322143 -0.83849126 -6.3797417 0.16021064 0.82311684 -0.544804 -5.2520576 0 0 0 1 0.9872826 -0.15857385 -0.011289112 10.453332 -0.09583022 -0.53697133 -0.8381396 -6.3797417 0.12684509 0.82856244 -0.54533863 -5.2520576 0 0 0 1 0.9927417 -0.1197239 -0.01140511 10.453332 -0.07477443 -0.54017305 -0.83822525 -6.3797417 0.09419487 0.832994 -0.5452045 -5.2520576 0 0 0 1 0.99622804 -0.08604476 -0.011223646 10.453332 -0.056226328 -0.5415815 -0.83876604 -6.3797417 0.0660929 0.8362333 -0.5443766 -5.2520576 0 0 0 1 0.99796087 -0.0628703 -0.011017287 10.453332 -0.043406926 -0.5419352 -0.8392988 -6.3797417 0.046796307 0.83806556 -0.5435592 -5.2520576 0 0 0 1 0.99796087 -0.0628703 -0.011017287 10.453332 -0.043406926 -0.5419352 -0.8392988 -6.3797417 0.046796307 0.83806556 -0.5435592 -5.2520576 0 0 0 1</float_array>
        <technique_common>
          <accessor source="#Motion_30_RFeelerE_transform_pose_array_id" count="17" stride="16">
            <param name="TRANSFORM" type="float4x4" />
          </accessor>
        </technique_common>
      </source>
      <sampler id="Motion_30_RFeelerE_transform_samp_id">
        <input semantic="INPUT" source="#Motion_30_RFeelerE_transform_frame_id" />
        <input semantic="INTERPOLATION" source="#Motion_30_RFeelerE_transform_interp_id" />
        <input semantic="OUTPUT" source="#Motion_30_RFeelerE_transform_pose_id" />
      </sampler>
      <channel source="#Motion_30_RFeelerE_transform_samp_id" target="RFeelerE_bone_id/transform" />
    </animation>
    <animation id="Motion_30_LFeelerE_transform_id" name="Motion_30_LFeelerE_transform">
      <source id="Motion_30_LFeelerE_transform_frame_id" name="Motion_30_LFeelerE_transform_frame">
        <float_array id="Motion_30_LFeelerE_transform_frame_array_id" count="17">0 0.033333335 0.06666667 0.1 0.13333334 0.16666667 0.2 0.23333333 0.26666668 0.3 0.33333334 0.36666667 0.4 0.43333334 0.46666667 0.5 0.53333336</float_array>
        <technique_common>
          <accessor source="#Motion_30_LFeelerE_transform_frame_array_id" count="17" stride="1">
            <param name="TIME" type="float" />
          </accessor>
        </technique_common>
      </source>
      <source id="Motion_30_LFeelerE_transform_interp_id" name="Motion_30_LFeelerE_transform_interp">
        <Name_array id="Motion_30_LFeelerE_transform_interp_array_id" count="17">LINEAR LINEAR LINEAR LINEAR LINEAR LINEAR LINEAR LINEAR LINEAR LINEAR LINEAR LINEAR LINEAR LINEAR LINEAR LINEAR LINEAR</Name_array>
        <technique_common>
          <accessor source="#Motion_30_LFeelerE_transform_interp_array_id" count="17" stride="1">
            <param name="INTERPOLATION" type="Name" />
          </accessor>
        </technique_common>
      </source>
      <source id="Motion_30_LFeelerE_transform_pose_id" name="Motion_30_LFeelerE_transform_pose">
        <float_array id="Motion_30_LFeelerE_transform_pose_array_id" count="272">0.96446484 0.16380852 -0.20730254 10.205299 0.25861222 -0.4246173 0.867652 6.763953 0.054104567 -0.89043087 -0.4518913 -5.4801784 0 0 0 1 0.96557343 0.15977576 -0.20527959 10.205299 0.25545847 -0.43352127 0.8641762 6.763953 0.049081348 -0.88686603 -0.4594127 -5.4801784 0 0 0 1 0.9683916 0.1500257 -0.1992738 10.205299 0.24661267 -0.45602357 0.8551168 6.763953 0.03741593 -0.8772313 -0.47860765 -5.4801784 0 0 0 1 0.9720911 0.13552354 -0.19150013 10.205299 0.23370294 -0.4879278 0.8410168 6.763953 0.020539336 -0.86229914 -0.5059824 -5.4801784 0 0 0 1 0.9757599 0.11801846 -0.18429384 10.205299 0.21884282 -0.52378607 0.8232594 6.763953 0.00062926114 -0.8436349 -0.536917 -5.4801784 0 0 0 1 0.978831 0.099982314 -0.17858729 10.205299 0.20375574 -0.5584173 0.80414766 6.763953 -0.019325726 -0.82351285 -0.5669682 -5.4801784 0 0 0 1 0.9810371 0.08398439 -0.17467916 10.205299 0.19035663 -0.58711076 0.7868068 6.763953 -0.036476552 -0.805138 -0.5919645 -5.4801784 0 0 0 1 0.9823388 0.0725861 -0.17245792 10.205299 0.18073481 -0.606652 0.7741501 6.763953 -0.04842941 -0.7916468 -0.6090566 -5.4801784 0 0 0 1 0.98277926 0.0682797 -0.1717056 10.205299 0.17704307 -0.6140646 0.7691425 6.763953 -0.052921526 -0.7862966 -0.6155783 -5.4801784 0 0 0 1 0.98234755 0.072642736 -0.17238432 10.205299 0.18071643 -0.6065651 0.7742222 6.763953 -0.048320718 -0.79170793 -0.60898554 -5.4801784 0 0 0 1 0.98105216 0.08403821 -0.1745687 10.205299 0.1903256 -0.58653784 0.78724164 6.763953 -0.03623277 -0.80555004 -0.59141874 -5.4801784 0 0 0 1 0.9788515 0.10003057 -0.17844781 10.205299 0.20368767 -0.55758834 0.8047403 6.763953 -0.01900176 -0.8240689 -0.56617117 -5.4801784 0 0 0 1 0.9757888 0.118101604 -0.18408775 10.205299 0.21871334 -0.5235295 0.8234569 6.763953 0.00087621063 -0.8437824 -0.53668463 -5.4801784 0 0 0 1 0.97212464 0.13563196 -0.19125283 10.205299 0.23355998 -0.48859298 0.84067047 6.763953 0.020576999 -0.86190546 -0.5066515 -5.4801784 0 0 0 1 0.96841365 0.15007848 -0.19912672 10.205299 0.24653265 -0.45659602 0.8548343 6.763953 0.03737177 -0.8769245 -0.47917306 -5.4801784 0 0 0 1 0.96557474 0.15978333 -0.20526744 10.205299 0.25545105 -0.43352032 0.86417884 6.763953 0.049093768 -0.8868651 -0.45941305 -5.4801784 0 0 0 1 0.96557474 0.15978333 -0.20526744 10.205299 0.25545105 -0.43352032 0.86417884 6.763953 0.049093768 -0.8868651 -0.45941305 -5.4801784 0 0 0 1</float_array>
        <technique_common>
          <accessor source="#Motion_30_LFeelerE_transform_pose_array_id" count="17" stride="16">
            <param name="TRANSFORM" type="float4x4" />
          </accessor>
        </technique_common>
      </source>
      <sampler id="Motion_30_LFeelerE_transform_samp_id">
        <input semantic="INPUT" source="#Motion_30_LFeelerE_transform_frame_id" />
        <input semantic="INTERPOLATION" source="#Motion_30_LFeelerE_transform_interp_id" />
        <input semantic="OUTPUT" source="#Motion_30_LFeelerE_transform_pose_id" />
      </sampler>
      <channel source="#Motion_30_LFeelerE_transform_samp_id" target="LFeelerE_bone_id/transform" />
    </animation>
    <animation id="Motion_30_RFeelerD_transform_id" name="Motion_30_RFeelerD_transform">
      <source id="Motion_30_RFeelerD_transform_frame_id" name="Motion_30_RFeelerD_transform_frame">
        <float_array id="Motion_30_RFeelerD_transform_frame_array_id" count="17">0 0.033333335 0.06666667 0.1 0.13333334 0.16666667 0.2 0.23333333 0.26666668 0.3 0.33333334 0.36666667 0.4 0.43333334 0.46666667 0.5 0.53333336</float_array>
        <technique_common>
          <accessor source="#Motion_30_RFeelerD_transform_frame_array_id" count="17" stride="1">
            <param name="TIME" type="float" />
          </accessor>
        </technique_common>
      </source>
      <source id="Motion_30_RFeelerD_transform_interp_id" name="Motion_30_RFeelerD_transform_interp">
        <Name_array id="Motion_30_RFeelerD_transform_interp_array_id" count="17">LINEAR LINEAR LINEAR LINEAR LINEAR LINEAR LINEAR LINEAR LINEAR LINEAR LINEAR LINEAR LINEAR LINEAR LINEAR LINEAR LINEAR</Name_array>
        <technique_common>
          <accessor source="#Motion_30_RFeelerD_transform_interp_array_id" count="17" stride="1">
            <param name="INTERPOLATION" type="Name" />
          </accessor>
        </technique_common>
      </source>
      <source id="Motion_30_RFeelerD_transform_pose_id" name="Motion_30_RFeelerD_transform_pose">
        <float_array id="Motion_30_RFeelerD_transform_pose_array_id" count="272">0.98493326 -0.16305745 -0.05760833 9.008236 0.04002194 0.539 -0.8413544 -6.418722 0.16823998 0.8263723 0.5374049 5.784932 0 0 0 1 0.98333377 -0.17247236 -0.057515103 9.008236 0.045437865 0.539443 -0.8407952 -6.418722 0.17604007 0.824169 0.5382893 5.784932 0 0 0 1 0.97878546 -0.19672218 -0.057266504 9.008236 0.059147246 0.5388974 -0.84029233 -6.418722 0.1961649 0.8190787 0.53910047 5.784932 0 0 0 1 0.9711329 -0.23162656 -0.057008967 9.008236 0.07873936 0.53686845 -0.8399835 -6.418722 0.22516881 0.8112468 0.5396087 5.784932 0 0 0 1 0.9607616 -0.2714869 -0.056850456 9.008236 0.10096934 0.5332056 -0.8399386 -6.418722 0.25834534 0.8012406 0.5396954 5.784932 0 0 0 1 0.94879454 -0.31072897 -0.05688998 9.008236 0.12263603 0.5282846 -0.8401641 -6.418722 0.29111743 0.7901663 0.53934014 5.784932 0 0 0 1 0.9372174 -0.34401527 -0.057245493 9.008236 0.14066383 0.5230942 -0.8405868 -6.418722 0.31911948 0.77976024 0.5386435 5.784932 0 0 0 1 0.9283769 -0.36715588 -0.05755797 9.008236 0.15303251 0.5188066 -0.84108317 -6.418722 0.33867005 0.77203393 0.5378348 5.784932 0 0 0 1 0.92483306 -0.37598777 -0.05759339 9.008236 0.15774113 0.5168866 -0.8413953 -6.418722 0.34612358 0.7690653 0.53734255 5.784932 0 0 0 1 0.9284085 -0.3670683 -0.057605892 9.008236 0.15286188 0.51864254 -0.84121525 -6.418722 0.33866036 0.7721857 0.5376229 5.784932 0 0 0 1 0.9373908 -0.34348983 -0.057560563 9.008236 0.14004467 0.523067 -0.84070706 -6.418722 0.31888235 0.78001 0.5384221 5.784932 0 0 0 1 0.9490375 -0.30989116 -0.057404988 9.008236 0.12174911 0.5284891 -0.8401645 -6.418722 0.29069746 0.7903586 0.53928494 5.784932 0 0 0 1 0.9608659 -0.27105886 -0.057129428 9.008236 0.1005414 0.5334166 -0.839856 -6.418722 0.25812417 0.8012452 0.53979445 5.784932 0 0 0 1 0.9710496 -0.2320313 -0.05678191 9.008236 0.07915209 0.5368087 -0.8399829 -6.418722 0.22538334 0.81117064 0.5396337 5.784932 0 0 0 1 0.97871137 -0.19717026 -0.056991175 9.008236 0.059593372 0.5387161 -0.84037703 -6.418722 0.19639944 0.8190902 0.53899753 5.784932 0 0 0 1 0.98333395 -0.17247336 -0.05750879 9.008236 0.04543151 0.53938544 -0.8408325 -6.418722 0.17604062 0.8242065 0.53823173 5.784932 0 0 0 1 0.98333395 -0.17247336 -0.05750879 9.008236 0.04543151 0.53938544 -0.8408325 -6.418722 0.17604062 0.8242065 0.53823173 5.784932 0 0 0 1</float_array>
        <technique_common>
          <accessor source="#Motion_30_RFeelerD_transform_pose_array_id" count="17" stride="16">
            <param name="TRANSFORM" type="float4x4" />
          </accessor>
        </technique_common>
      </source>
      <sampler id="Motion_30_RFeelerD_transform_samp_id">
        <input semantic="INPUT" source="#Motion_30_RFeelerD_transform_frame_id" />
        <input semantic="INTERPOLATION" source="#Motion_30_RFeelerD_transform_interp_id" />
        <input semantic="OUTPUT" source="#Motion_30_RFeelerD_transform_pose_id" />
      </sampler>
      <channel source="#Motion_30_RFeelerD_transform_samp_id" target="RFeelerD_bone_id/transform" />
    </animation>
    <animation id="Motion_30_LFeelerD_transform_id" name="Motion_30_LFeelerD_transform">
      <source id="Motion_30_LFeelerD_transform_frame_id" name="Motion_30_LFeelerD_transform_frame">
        <float_array id="Motion_30_LFeelerD_transform_frame_array_id" count="17">0 0.033333335 0.06666667 0.1 0.13333334 0.16666667 0.2 0.23333333 0.26666668 0.3 0.33333334 0.36666667 0.4 0.43333334 0.46666667 0.5 0.53333336</float_array>
        <technique_common>
          <accessor source="#Motion_30_LFeelerD_transform_frame_array_id" count="17" stride="1">
            <param name="TIME" type="float" />
          </accessor>
        </technique_common>
      </source>
      <source id="Motion_30_LFeelerD_transform_interp_id" name="Motion_30_LFeelerD_transform_interp">
        <Name_array id="Motion_30_LFeelerD_transform_interp_array_id" count="17">LINEAR LINEAR LINEAR LINEAR LINEAR LINEAR LINEAR LINEAR LINEAR LINEAR LINEAR LINEAR LINEAR LINEAR LINEAR LINEAR LINEAR</Name_array>
        <technique_common>
          <accessor source="#Motion_30_LFeelerD_transform_interp_array_id" count="17" stride="1">
            <param name="INTERPOLATION" type="Name" />
          </accessor>
        </technique_common>
      </source>
      <source id="Motion_30_LFeelerD_transform_pose_id" name="Motion_30_LFeelerD_transform_pose">
        <float_array id="Motion_30_LFeelerD_transform_pose_array_id" count="272">0.9512175 -0.18534207 -0.24664487 8.742439 0.30827126 0.538797 0.7840068 7.022282 -0.012417898 -0.82179445 0.5696488 5.5113316 0 0 0 1 0.9514662 -0.19902727 -0.23473434 8.742439 0.30610654 0.533233 0.7886452 7.022282 -0.031793818 -0.822223 0.5682767 5.5113316 0 0 0 1 0.950458 -0.23407598 -0.20454362 8.742439 0.30013293 0.51970977 0.7998888 7.022282 -0.08093142 -0.8216509 0.56421614 5.5113316 0 0 0 1 0.9450965 -0.28346452 -0.16260517 8.742439 0.29055056 0.501131 0.8151369 7.022282 -0.14957589 -0.817628 0.55597794 5.5113316 0 0 0 1 0.93400085 -0.3372435 -0.117937565 8.742439 0.27871788 0.481277 0.8310769 7.022282 -0.22351465 -0.8090978 0.5435089 5.5113316 0 0 0 1 0.9193022 -0.3855566 -0.0789272 8.742439 0.26715133 0.46409738 0.8445377 7.022282 -0.28898716 -0.79747087 0.5296477 5.5113316 0 0 0 1 0.9058805 -0.42054373 -0.05023396 8.742439 0.25759137 0.4529155 0.8535305 7.022282 -0.33619517 -0.7861365 0.5186157 5.5113316 0 0 0 1 0.9001418 -0.43382987 -0.039197013 8.742439 0.25363 0.44883108 0.8568678 7.022282 -0.354142 -0.78124404 0.5140439 5.5113316 0 0 0 1 0.9034409 -0.42626357 -0.04575911 8.742439 0.25614762 0.45111525 0.8549171 7.022282 -0.34377745 -0.7840882 0.51674235 5.5113316 0 0 0 1 0.9127351 -0.40343532 -0.06445607 8.742439 0.262625 0.4585234 0.8489902 7.022282 -0.31295803 -0.7918309 0.5244626 5.5113316 0 0 0 1 0.92440015 -0.37050685 -0.0906039 8.742439 0.27064398 0.4697631 0.8402824 7.022282 -0.268768 -0.80127853 0.53452456 5.5113316 0 0 0 1 0.9356321 -0.33092362 -0.122809276 8.742439 0.27986598 0.48346967 0.8294167 7.022282 -0.21509905 -0.810399 0.544964 5.5113316 0 0 0 1 0.94416195 -0.289263 -0.15775017 8.742439 0.28923106 0.49833053 0.81732005 7.022282 -0.15780874 -0.8173087 0.5541686 5.5113316 0 0 0 1 0.9492046 -0.24970026 -0.19146907 8.742439 0.29740566 0.5132166 0.805083 7.022282 -0.10276431 -0.8211325 0.56140983 5.5113316 0 0 0 1 0.9512269 -0.2163494 -0.21990994 8.742439 0.30334523 0.5263039 0.7943462 7.022282 -0.05611687 -0.8223121 0.56626296 5.5113316 0 0 0 1 0.9514139 -0.1938069 -0.23927057 8.742439 0.30694562 0.5353461 0.7868857 7.022282 -0.024411298 -0.822097 0.56882393 5.5113316 0 0 0 1 0.9514139 -0.1938069 -0.23927057 8.742439 0.30694562 0.5353461 0.7868857 7.022282 -0.024411298 -0.822097 0.56882393 5.5113316 0 0 0 1</float_array>
        <technique_common>
          <accessor source="#Motion_30_LFeelerD_transform_pose_array_id" count="17" stride="16">
            <param name="TRANSFORM" type="float4x4" />
          </accessor>
        </technique_common>
      </source>
      <sampler id="Motion_30_LFeelerD_transform_samp_id">
        <input semantic="INPUT" source="#Motion_30_LFeelerD_transform_frame_id" />
        <input semantic="INTERPOLATION" source="#Motion_30_LFeelerD_transform_interp_id" />
        <input semantic="OUTPUT" source="#Motion_30_LFeelerD_transform_pose_id" />
      </sampler>
      <channel source="#Motion_30_LFeelerD_transform_samp_id" target="LFeelerD_bone_id/transform" />
    </animation>
    <animation id="Motion_30_RFeelerC_transform_id" name="Motion_30_RFeelerC_transform">
      <source id="Motion_30_RFeelerC_transform_frame_id" name="Motion_30_RFeelerC_transform_frame">
        <float_array id="Motion_30_RFeelerC_transform_frame_array_id" count="17">0 0.033333335 0.06666667 0.1 0.13333334 0.16666667 0.2 0.23333333 0.26666668 0.3 0.33333334 0.36666667 0.4 0.43333334 0.46666667 0.5 0.53333336</float_array>
        <technique_common>
          <accessor source="#Motion_30_RFeelerC_transform_frame_array_id" count="17" stride="1">
            <param name="TIME" type="float" />
          </accessor>
        </technique_common>
      </source>
      <source id="Motion_30_RFeelerC_transform_interp_id" name="Motion_30_RFeelerC_transform_interp">
        <Name_array id="Motion_30_RFeelerC_transform_interp_array_id" count="17">LINEAR LINEAR LINEAR LINEAR LINEAR LINEAR LINEAR LINEAR LINEAR LINEAR LINEAR LINEAR LINEAR LINEAR LINEAR LINEAR LINEAR</Name_array>
        <technique_common>
          <accessor source="#Motion_30_RFeelerC_transform_interp_array_id" count="17" stride="1">
            <param name="INTERPOLATION" type="Name" />
          </accessor>
        </technique_common>
      </source>
      <source id="Motion_30_RFeelerC_transform_pose_id" name="Motion_30_RFeelerC_transform_pose">
        <float_array id="Motion_30_RFeelerC_transform_pose_array_id" count="272">0.92061555 0.014396884 -0.39020476 6.6812644 -0.16948083 -0.88554657 -0.4325313 -6.2974324 -0.35177162 0.46432728 -0.8128079 -11.442402 0 0 0 1 0.92099965 0.00025419146 -0.38956338 6.6812644 -0.18265721 -0.88298154 -0.43241143 -6.2974324 -0.34408724 0.46940732 -0.81317914 -11.442402 0 0 0 1 0.92087126 -0.036534816 -0.38815117 6.6812644 -0.21626592 -0.87624705 -0.43060428 -6.2974324 -0.32438427 0.48047495 -0.81481206 -11.442402 0 0 0 1 0.9179121 -0.088792965 -0.38672101 6.6812644 -0.26425987 -0.863835 -0.42890054 -6.2974324 -0.2959798 0.49588788 -0.8163891 -11.442402 0 0 0 1 0.9107007 -0.1466071 -0.38617435 6.6812644 -0.3180836 -0.84534764 -0.42919743 -6.2974324 -0.26352814 0.5137061 -0.81649196 -11.442402 0 0 0 1 0.900049 -0.20054585 -0.38690203 6.6812644 -0.36864412 -0.8238542 -0.430541 -6.2974324 -0.23240769 0.5301372 -0.8154392 -11.442402 0 0 0 1 0.8884425 -0.24390171 -0.38882113 6.6812644 -0.40943843 -0.8039975 -0.43121642 -6.2974324 -0.20743687 0.5423093 -0.8141682 -11.442402 0 0 0 1 0.8803612 -0.2691964 -0.39050925 6.6812644 -0.43348813 -0.7907984 -0.432118 -6.2974324 -0.19248946 0.54970104 -0.8128817 -11.442402 0 0 0 1 0.8802837 -0.2700437 -0.3900987 6.6812644 -0.4340208 -0.7904576 -0.43220693 -6.2974324 -0.1916417 0.54977566 -0.81303155 -11.442402 0 0 0 1 0.8867404 -0.24991912 -0.38888544 6.6812644 -0.4150123 -0.80093265 -0.4315918 -6.2974324 -0.20360804 0.54410213 -0.81393886 -11.442402 0 0 0 1 0.8966306 -0.21432 -0.38745388 6.6812644 -0.38155955 -0.8179536 -0.4305393 -6.2974324 -0.22464612 0.5338715 -0.81517804 -11.442402 0 0 0 1 0.9067598 -0.16881543 -0.38637808 6.6812644 -0.33879954 -0.8372005 -0.42931384 -6.2974324 -0.2510011 0.5201892 -0.81633437 -11.442402 0 0 0 1 0.9147073 -0.1190629 -0.38617942 6.6812644 -0.2922597 -0.8548784 -0.42868105 -6.2974324 -0.2790964 0.50498235 -0.8167609 -11.442402 0 0 0 1 0.91950166 -0.06973464 -0.38685116 6.6812644 -0.24659723 -0.868729 -0.42953494 -6.2974324 -0.30611524 0.4903545 -0.815994 -11.442402 0 0 0 1 0.92116433 -0.026552454 -0.38826698 6.6812644 -0.20692478 -0.87837434 -0.43085998 -6.2974324 -0.32960343 0.4772349 -0.81462145 -11.442402 0 0 0 1 0.92096144 0.0031418428 -0.3896411 6.6812644 -0.17972896 -0.88381445 -0.43193653 -6.2974324 -0.34572756 0.4678267 -0.8133943 -11.442402 0 0 0 1 0.92096144 0.0031418428 -0.3896411 6.6812644 -0.17972896 -0.88381445 -0.43193653 -6.2974324 -0.34572756 0.4678267 -0.8133943 -11.442402 0 0 0 1</float_array>
        <technique_common>
          <accessor source="#Motion_30_RFeelerC_transform_pose_array_id" count="17" stride="16">
            <param name="TRANSFORM" type="float4x4" />
          </accessor>
        </technique_common>
      </source>
      <sampler id="Motion_30_RFeelerC_transform_samp_id">
        <input semantic="INPUT" source="#Motion_30_RFeelerC_transform_frame_id" />
        <input semantic="INTERPOLATION" source="#Motion_30_RFeelerC_transform_interp_id" />
        <input semantic="OUTPUT" source="#Motion_30_RFeelerC_transform_pose_id" />
      </sampler>
      <channel source="#Motion_30_RFeelerC_transform_samp_id" target="RFeelerC_bone_id/transform" />
    </animation>
    <animation id="Motion_30_LFeelerC_transform_id" name="Motion_30_LFeelerC_transform">
      <source id="Motion_30_LFeelerC_transform_frame_id" name="Motion_30_LFeelerC_transform_frame">
        <float_array id="Motion_30_LFeelerC_transform_frame_array_id" count="17">0 0.033333335 0.06666667 0.1 0.13333334 0.16666667 0.2 0.23333333 0.26666668 0.3 0.33333334 0.36666667 0.4 0.43333334 0.46666667 0.5 0.53333336</float_array>
        <technique_common>
          <accessor source="#Motion_30_LFeelerC_transform_frame_array_id" count="17" stride="1">
            <param name="TIME" type="float" />
          </accessor>
        </technique_common>
      </source>
      <source id="Motion_30_LFeelerC_transform_interp_id" name="Motion_30_LFeelerC_transform_interp">
        <Name_array id="Motion_30_LFeelerC_transform_interp_array_id" count="17">LINEAR LINEAR LINEAR LINEAR LINEAR LINEAR LINEAR LINEAR LINEAR LINEAR LINEAR LINEAR LINEAR LINEAR LINEAR LINEAR LINEAR</Name_array>
        <technique_common>
          <accessor source="#Motion_30_LFeelerC_transform_interp_array_id" count="17" stride="1">
            <param name="INTERPOLATION" type="Name" />
          </accessor>
        </technique_common>
      </source>
      <source id="Motion_30_LFeelerC_transform_pose_id" name="Motion_30_LFeelerC_transform_pose">
        <float_array id="Motion_30_LFeelerC_transform_pose_array_id" count="272">0.8979798 0.38560218 -0.2119982 6.4394155 0.43241453 -0.6839838 0.5875237 7.644003 0.081547104 -0.61925554 -0.78094363 -10.370181 0 0 0 1 0.90346265 0.37287182 -0.21147552 6.4394155 0.42247725 -0.690989 0.5865556 7.644003 0.07258279 -0.6192746 -0.78181267 -10.370181 0 0 0 1 0.91696244 0.33895266 -0.2104542 6.4394155 0.3959524 -0.708326 0.5843763 7.644003 0.049005695 -0.619181 -0.7837174 -10.370181 0 0 0 1 0.93438077 0.28809467 -0.20960447 6.4394155 0.35597858 -0.73090243 0.58228916 7.644003 0.014553972 -0.6186945 -0.7854967 -10.370181 0 0 0 1 0.9510726 0.22724722 -0.20933141 6.4394155 0.30790406 -0.75327635 0.5811795 7.644003 -0.025612995 -0.6171979 -0.7863909 -10.370181 0 0 0 1 0.96386915 0.16421476 -0.20973736 6.4394155 0.2579566 -0.7718177 0.58116764 7.644003 -0.06644273 -0.61427265 -0.7862915 -10.370181 0 0 0 1 0.9718887 0.1052247 -0.21061824 6.4394155 0.21124867 -0.784708 0.58275837 7.644003 -0.10395326 -0.6108691 -0.78487754 -10.370181 0 0 0 1 0.9756921 0.057534184 -0.21145871 6.4394155 0.17357172 -0.79194415 0.5854036 7.644003 -0.13378274 -0.60787696 -0.7826799 -10.370181 0 0 0 1 0.9768011 0.030811626 -0.21192032 6.4394155 0.15250647 -0.7948073 0.5873868 7.644003 -0.15033746 -0.6060793 -0.7810677 -10.370181 0 0 0 1 0.9767688 0.031864073 -0.2119138 6.4394155 0.15332083 -0.79479635 0.58718956 7.644003 -0.14971805 -0.60603917 -0.7812177 -10.370181 0 0 0 1 0.97512054 0.06613754 -0.21157917 6.4394155 0.18053615 -0.79078996 0.5848573 7.644003 -0.12863365 -0.608504 -0.78305566 -10.370181 0 0 0 1 0.96973413 0.12362507 -0.21055302 6.4394155 0.22598323 -0.7809621 0.5822627 7.644003 -0.09245166 -0.6122214 -0.7852628 -10.370181 0 0 0 1 0.95852804 0.1932541 -0.2094681 6.4394155 0.28098196 -0.76376295 0.58113265 7.644003 -0.047677718 -0.6158887 -0.7863891 -10.370181 0 0 0 1 0.9412029 0.26509959 -0.20942631 6.4394155 0.3378409 -0.74005413 0.58153516 7.644003 -0.0008221194 -0.61809534 -0.78610253 -10.370181 0 0 0 1 0.9215448 0.3264539 -0.21019769 6.4394155 0.3861744 -0.71443844 0.58347833 7.644003 0.040305465 -0.61887443 -0.78445506 -10.370181 0 0 0 1 0.9049097 0.3693906 -0.21139799 6.4394155 0.4197803 -0.6927593 0.58640355 7.644003 0.07016404 -0.6193829 -0.7819475 -10.370181 0 0 0 1 0.9049097 0.3693906 -0.21139799 6.4394155 0.4197803 -0.6927593 0.58640355 7.644003 0.07016404 -0.6193829 -0.7819475 -10.370181 0 0 0 1</float_array>
        <technique_common>
          <accessor source="#Motion_30_LFeelerC_transform_pose_array_id" count="17" stride="16">
            <param name="TRANSFORM" type="float4x4" />
          </accessor>
        </technique_common>
      </source>
      <sampler id="Motion_30_LFeelerC_transform_samp_id">
        <input semantic="INPUT" source="#Motion_30_LFeelerC_transform_frame_id" />
        <input semantic="INTERPOLATION" source="#Motion_30_LFeelerC_transform_interp_id" />
        <input semantic="OUTPUT" source="#Motion_30_LFeelerC_transform_pose_id" />
      </sampler>
      <channel source="#Motion_30_LFeelerC_transform_samp_id" target="LFeelerC_bone_id/transform" />
    </animation>
    <animation id="Motion_30_RFeelerB_transform_id" name="Motion_30_RFeelerB_transform">
      <source id="Motion_30_RFeelerB_transform_frame_id" name="Motion_30_RFeelerB_transform_frame">
        <float_array id="Motion_30_RFeelerB_transform_frame_array_id" count="17">0 0.033333335 0.06666667 0.1 0.13333334 0.16666667 0.2 0.23333333 0.26666668 0.3 0.33333334 0.36666667 0.4 0.43333334 0.46666667 0.5 0.53333336</float_array>
        <technique_common>
          <accessor source="#Motion_30_RFeelerB_transform_frame_array_id" count="17" stride="1">
            <param name="TIME" type="float" />
          </accessor>
        </technique_common>
      </source>
      <source id="Motion_30_RFeelerB_transform_interp_id" name="Motion_30_RFeelerB_transform_interp">
        <Name_array id="Motion_30_RFeelerB_transform_interp_array_id" count="17">LINEAR LINEAR LINEAR LINEAR LINEAR LINEAR LINEAR LINEAR LINEAR LINEAR LINEAR LINEAR LINEAR LINEAR LINEAR LINEAR LINEAR</Name_array>
        <technique_common>
          <accessor source="#Motion_30_RFeelerB_transform_interp_array_id" count="17" stride="1">
            <param name="INTERPOLATION" type="Name" />
          </accessor>
        </technique_common>
      </source>
      <source id="Motion_30_RFeelerB_transform_pose_id" name="Motion_30_RFeelerB_transform_pose">
        <float_array id="Motion_30_RFeelerB_transform_pose_array_id" count="272">0.98854697 -0.14495483 -0.041988213 6.7368674 -0.03556317 0.046635747 -0.9982787 -12.268736 0.14666347 0.98833853 0.040946603 0.6467176 0 0 0 1 0.9874216 -0.15246502 -0.041870017 6.7368674 -0.035013318 0.047383904 -0.9982629 -12.268736 0.15418413 0.98717225 0.041449606 0.6467176 0 0 0 1 0.98422664 -0.17188717 -0.041865386 6.7368674 -0.03400232 0.048438907 -0.99824715 -12.268736 0.17361382 0.983925 0.0418303 0.6467176 0 0 0 1 0.9788705 -0.20014629 -0.041880906 6.7368674 -0.0325818 0.04953313 -0.99824095 -12.268736 0.2018687 0.9785131 0.041965365 0.6467176 0 0 0 1 0.9715263 -0.23319766 -0.04189837 6.7368674 -0.030936152 0.05047041 -0.9982464 -12.268736 0.23490334 0.97111875 0.041819096 0.6467176 0 0 0 1 0.96277153 -0.26704854 -0.04190576 6.7368674 -0.029252969 0.05118531 -0.9982606 -12.268736 0.268729 0.9623227 0.041467786 0.6467176 0 0 0 1 0.9537013 -0.29782015 -0.04191634 6.7368674 -0.027705088 0.051781595 -0.99827415 -12.268736 0.29947662 0.9532166 0.041133046 0.6467176 0 0 0 1 0.9458884 -0.32177308 -0.041919813 6.7368674 -0.026494086 0.052171946 -0.9982866 -12.268736 0.32340878 0.9453783 0.040823758 0.6467176 0 0 0 1 0.9411863 -0.3352793 -0.04190655 6.7368674 -0.025824085 0.052284658 -0.9982983 -12.268736 0.33689976 0.9406669 0.040551364 0.6467176 0 0 0 1 0.94138443 -0.33472067 -0.0419209 6.7368674 -0.025845736 0.052338183 -0.99829483 -12.268736 0.336344 0.9408628 0.040619254 0.6467176 0 0 0 1 0.9472265 -0.3178059 -0.04196824 6.7368674 -0.026702657 0.052240968 -0.9982775 -12.268736 0.3194509 0.94671553 0.040997744 0.6467176 0 0 0 1 0.95663106 -0.2882579 -0.04200413 6.7368674 -0.028247133 0.051720977 -0.9982621 -12.268736 0.28992942 0.9561551 0.041335464 0.6467176 0 0 0 1 0.96695495 -0.2514593 -0.042028308 6.7368674 -0.030160375 0.05086714 -0.99824995 -12.268736 0.25315708 0.96653026 0.041602135 0.6467176 0 0 0 1 0.9761478 -0.21300146 -0.042022474 6.7368674 -0.03214676 0.049619257 -0.99825084 -12.268736 0.21471399 0.9757912 0.041588426 0.6467176 0 0 0 1 0.9830073 -0.17869654 -0.04200246 6.7368674 -0.033892103 0.048200607 -0.9982625 -12.268736 0.1804106 0.9827229 0.041325152 0.6467176 0 0 0 1 0.98710304 -0.15448156 -0.041988906 6.7368674 -0.035094637 0.04708916 -0.99827397 -12.268736 0.15619214 0.9868728 0.041060388 0.6467176 0 0 0 1 0.98710304 -0.15448156 -0.041988906 6.7368674 -0.035094637 0.04708916 -0.99827397 -12.268736 0.15619214 0.9868728 0.041060388 0.6467176 0 0 0 1</float_array>
        <technique_common>
          <accessor source="#Motion_30_RFeelerB_transform_pose_array_id" count="17" stride="16">
            <param name="TRANSFORM" type="float4x4" />
          </accessor>
        </technique_common>
      </source>
      <sampler id="Motion_30_RFeelerB_transform_samp_id">
        <input semantic="INPUT" source="#Motion_30_RFeelerB_transform_frame_id" />
        <input semantic="INTERPOLATION" source="#Motion_30_RFeelerB_transform_interp_id" />
        <input semantic="OUTPUT" source="#Motion_30_RFeelerB_transform_pose_id" />
      </sampler>
      <channel source="#Motion_30_RFeelerB_transform_samp_id" target="RFeelerB_bone_id/transform" />
    </animation>
    <animation id="Motion_30_LFeelerB_transform_id" name="Motion_30_LFeelerB_transform">
      <source id="Motion_30_LFeelerB_transform_frame_id" name="Motion_30_LFeelerB_transform_frame">
        <float_array id="Motion_30_LFeelerB_transform_frame_array_id" count="17">0 0.033333335 0.06666667 0.1 0.13333334 0.16666667 0.2 0.23333333 0.26666668 0.3 0.33333334 0.36666667 0.4 0.43333334 0.46666667 0.5 0.53333336</float_array>
        <technique_common>
          <accessor source="#Motion_30_LFeelerB_transform_frame_array_id" count="17" stride="1">
            <param name="TIME" type="float" />
          </accessor>
        </technique_common>
      </source>
      <source id="Motion_30_LFeelerB_transform_interp_id" name="Motion_30_LFeelerB_transform_interp">
        <Name_array id="Motion_30_LFeelerB_transform_interp_array_id" count="17">LINEAR LINEAR LINEAR LINEAR LINEAR LINEAR LINEAR LINEAR LINEAR LINEAR LINEAR LINEAR LINEAR LINEAR LINEAR LINEAR LINEAR</Name_array>
        <technique_common>
          <accessor source="#Motion_30_LFeelerB_transform_interp_array_id" count="17" stride="1">
            <param name="INTERPOLATION" type="Name" />
          </accessor>
        </technique_common>
      </source>
      <source id="Motion_30_LFeelerB_transform_pose_id" name="Motion_30_LFeelerB_transform_pose">
        <float_array id="Motion_30_LFeelerB_transform_pose_array_id" count="272">0.88812345 -0.1324726 -0.44009972 5.3121066 0.4299464 -0.098942995 0.89741653 13.641616 -0.1624279 -0.9862359 -0.030917525 -0.6655937 0 0 0 1 0.8868316 -0.14131692 -0.43995374 5.3121066 0.42867127 -0.10390818 0.8974653 13.641616 -0.17254186 -0.98449606 -0.031570554 -0.6655937 0 0 0 1 0.88276386 -0.16522826 -0.43980396 5.3121066 0.42561918 -0.115136385 0.8975476 13.641616 -0.19893771 -0.9795116 -0.031313896 -0.6655937 0 0 0 1 0.8755047 -0.2005882 -0.43960884 5.3121066 0.4204913 -0.13197017 0.8976475 13.641616 -0.23807272 -0.9707463 -0.031194925 -0.6655937 0 0 0 1 0.86479867 -0.2428385 -0.43949145 5.3121066 0.41353273 -0.15200853 0.8977104 13.641616 -0.28480512 -0.95808285 -0.031035066 -0.6655937 0 0 0 1 0.8509985 -0.28739524 -0.43955138 5.3121066 0.4051317 -0.17331576 0.8976802 13.641616 -0.33417025 -0.9420008 -0.03105855 -0.6655937 0 0 0 1 0.8352759 -0.32996845 -0.43981242 5.3121066 0.3960287 -0.19383335 0.8975465 13.641616 -0.3814124 -0.92387736 -0.03122735 -0.6655937 0 0 0 1 0.81961966 -0.366688 -0.44018584 5.3121066 0.38735312 -0.21141768 0.89736307 13.641616 -0.4221152 -0.9060037 -0.031244397 -0.6655937 0 0 0 1 0.8066558 -0.3947006 -0.43990657 5.3121066 0.37967294 -0.22435379 0.89750415 13.641616 -0.4529402 -0.8909976 -0.031119108 -0.6655937 0 0 0 1 0.79846483 -0.41043788 -0.44044825 5.3121066 0.37583458 -0.23170853 0.8972511 13.641616 -0.47032145 -0.8819592 -0.030754447 -0.6655937 0 0 0 1 0.7999294 -0.40797108 -0.44008246 5.3121066 0.3764304 -0.22999406 0.89744246 13.641616 -0.46734688 -0.883551 -0.030406237 -0.6655937 0 0 0 1 0.815382 -0.376478 -0.4397915 5.3121066 0.38466862 -0.21539724 0.89757127 13.641616 -0.43264568 -0.9010374 -0.030811667 -0.6655937 0 0 0 1 0.8381452 -0.3228856 -0.4396106 5.3121066 0.39737257 -0.19063926 0.89763665 13.641616 -0.37364107 -0.927039 -0.03147745 -0.6655937 0 0 0 1 0.8595932 -0.25931236 -0.44029143 5.3121066 0.41119567 -0.16048646 0.89730823 13.641616 -0.30334398 -0.952366 -0.031324983 -0.6655937 0 0 0 1 0.8757974 -0.19732034 -0.44050384 5.3121066 0.4218508 -0.13059425 0.89721066 13.641616 -0.2345652 -0.97160167 -0.031134248 -0.6655937 0 0 0 1 0.8851792 -0.15093973 -0.44008517 5.3121066 0.42772278 -0.108171344 0.8974141 13.641616 -0.18306005 -0.98260677 -0.031190634 -0.6655937 0 0 0 1 0.8851792 -0.15093973 -0.44008517 5.3121066 0.42772278 -0.108171344 0.8974141 13.641616 -0.18306005 -0.98260677 -0.031190634 -0.6655937 0 0 0 1</float_array>
        <technique_common>
          <accessor source="#Motion_30_LFeelerB_transform_pose_array_id" count="17" stride="16">
            <param name="TRANSFORM" type="float4x4" />
          </accessor>
        </technique_common>
      </source>
      <sampler id="Motion_30_LFeelerB_transform_samp_id">
        <input semantic="INPUT" source="#Motion_30_LFeelerB_transform_frame_id" />
        <input semantic="INTERPOLATION" source="#Motion_30_LFeelerB_transform_interp_id" />
        <input semantic="OUTPUT" source="#Motion_30_LFeelerB_transform_pose_id" />
      </sampler>
      <channel source="#Motion_30_LFeelerB_transform_samp_id" target="LFeelerB_bone_id/transform" />
    </animation>
    <animation id="Motion_30_RFeelerA_transform_id" name="Motion_30_RFeelerA_transform">
      <source id="Motion_30_RFeelerA_transform_frame_id" name="Motion_30_RFeelerA_transform_frame">
        <float_array id="Motion_30_RFeelerA_transform_frame_array_id" count="17">0 0.033333335 0.06666667 0.1 0.13333334 0.16666667 0.2 0.23333333 0.26666668 0.3 0.33333334 0.36666667 0.4 0.43333334 0.46666667 0.5 0.53333336</float_array>
        <technique_common>
          <accessor source="#Motion_30_RFeelerA_transform_frame_array_id" count="17" stride="1">
            <param name="TIME" type="float" />
          </accessor>
        </technique_common>
      </source>
      <source id="Motion_30_RFeelerA_transform_interp_id" name="Motion_30_RFeelerA_transform_interp">
        <Name_array id="Motion_30_RFeelerA_transform_interp_array_id" count="17">LINEAR LINEAR LINEAR LINEAR LINEAR LINEAR LINEAR LINEAR LINEAR LINEAR LINEAR LINEAR LINEAR LINEAR LINEAR LINEAR LINEAR</Name_array>
        <technique_common>
          <accessor source="#Motion_30_RFeelerA_transform_interp_array_id" count="17" stride="1">
            <param name="INTERPOLATION" type="Name" />
          </accessor>
        </technique_common>
      </source>
      <source id="Motion_30_RFeelerA_transform_pose_id" name="Motion_30_RFeelerA_transform_pose">
        <float_array id="Motion_30_RFeelerA_transform_pose_array_id" count="272">0.9393161 -0.02197783 -0.34234813 5.9951816 -0.13438453 0.89461607 -0.42614886 -6.3891687 0.31563595 0.44629475 0.83737385 12.165529 0 0 0 1 0.93811136 -0.02608782 -0.34534976 5.9951816 -0.1304423 0.89711416 -0.422103 -6.3891687 0.3208299 0.44102782 0.8381901 12.165529 0 0 0 1 0.9346558 -0.036680166 -0.35365686 5.9951816 -0.12032251 0.9033483 -0.41168466 -6.3891687 0.33457598 0.4273363 0.83990633 12.165529 0 0 0 1 0.9289712 -0.051970977 -0.3664855 5.9951816 -0.10541196 0.911953 -0.3965225 -6.3891687 0.35482523 0.4069899 0.8416996 12.165529 0 0 0 1 0.9214002 -0.06955509 -0.38233992 5.9951816 -0.087584645 0.9213719 -0.37868556 -6.3891687 0.37861678 0.38240805 0.8428603 12.165529 0 0 0 1 0.9125356 -0.087144196 -0.39960563 5.9951816 -0.06889275 0.93032616 -0.36020413 -6.3891687 0.4031533 0.35622904 0.84295213 12.165529 0 0 0 1 0.9033042 -0.1026419 -0.41654074 5.9951816 -0.05160504 0.9379078 -0.34302455 -6.3891687 0.4258855 0.3313511 0.84191924 12.165529 0 0 0 1 0.8949169 -0.11498002 -0.43116516 5.9951816 -0.037367366 0.9435301 -0.32917267 -6.3891687 0.44466555 0.31069368 0.8400845 12.165529 0 0 0 1 0.8887678 -0.123282164 -0.4414673 5.9951816 -0.027598158 0.9470092 -0.32001853 -6.3891687 0.45752615 0.29660583 0.83826894 12.165529 0 0 0 1 0.88661206 -0.12595479 -0.44503313 5.9951816 -0.024391588 0.9481327 -0.31693763 -6.3891687 0.46187025 0.29185575 0.8375536 12.165529 0 0 0 1 0.89014983 -0.12140633 -0.43919668 5.9951816 -0.029866505 0.94623494 -0.32209846 -6.3891687 0.45468804 0.29983315 0.8386649 12.165529 0 0 0 1 0.8994354 -0.10839406 -0.42339897 5.9951816 -0.045121614 0.9405508 -0.3366425 -6.3891687 0.4347183 0.32189262 0.8410738 12.165529 0 0 0 1 0.9113361 -0.08897935 -0.4019318 5.9951816 -0.06679681 0.9314598 -0.35766026 -6.3891687 0.40620765 0.35279647 0.8429294 12.165529 0 0 0 1 0.9228254 -0.06659138 -0.3794191 5.9951816 -0.09033646 0.9200696 -0.38119715 -6.3891687 0.37447643 0.3860538 0.843048 12.165529 0 0 0 1 0.9317378 -0.04526955 -0.36029908 5.9951816 -0.11170319 0.9083593 -0.402996 -6.3891687 0.34552446 0.41573316 0.8412959 12.165529 0 0 0 1 0.93734837 -0.028600883 -0.34721753 5.9951816 -0.12801945 0.89862555 -0.4196226 -6.3891687 0.32402012 0.43778318 0.83866376 12.165529 0 0 0 1 0.93734837 -0.028600883 -0.34721753 5.9951816 -0.12801945 0.89862555 -0.4196226 -6.3891687 0.32402012 0.43778318 0.83866376 12.165529 0 0 0 1</float_array>
        <technique_common>
          <accessor source="#Motion_30_RFeelerA_transform_pose_array_id" count="17" stride="16">
            <param name="TRANSFORM" type="float4x4" />
          </accessor>
        </technique_common>
      </source>
      <sampler id="Motion_30_RFeelerA_transform_samp_id">
        <input semantic="INPUT" source="#Motion_30_RFeelerA_transform_frame_id" />
        <input semantic="INTERPOLATION" source="#Motion_30_RFeelerA_transform_interp_id" />
        <input semantic="OUTPUT" source="#Motion_30_RFeelerA_transform_pose_id" />
      </sampler>
      <channel source="#Motion_30_RFeelerA_transform_samp_id" target="RFeelerA_bone_id/transform" />
    </animation>
    <animation id="Motion_30_LFeelerA_transform_id" name="Motion_30_LFeelerA_transform">
      <source id="Motion_30_LFeelerA_transform_frame_id" name="Motion_30_LFeelerA_transform_frame">
        <float_array id="Motion_30_LFeelerA_transform_frame_array_id" count="17">0 0.033333335 0.06666667 0.1 0.13333334 0.16666667 0.2 0.23333333 0.26666668 0.3 0.33333334 0.36666667 0.4 0.43333334 0.46666667 0.5 0.53333336</float_array>
        <technique_common>
          <accessor source="#Motion_30_LFeelerA_transform_frame_array_id" count="17" stride="1">
            <param name="TIME" type="float" />
          </accessor>
        </technique_common>
      </source>
      <source id="Motion_30_LFeelerA_transform_interp_id" name="Motion_30_LFeelerA_transform_interp">
        <Name_array id="Motion_30_LFeelerA_transform_interp_array_id" count="17">LINEAR LINEAR LINEAR LINEAR LINEAR LINEAR LINEAR LINEAR LINEAR LINEAR LINEAR LINEAR LINEAR LINEAR LINEAR LINEAR LINEAR</Name_array>
        <technique_common>
          <accessor source="#Motion_30_LFeelerA_transform_interp_array_id" count="17" stride="1">
            <param name="INTERPOLATION" type="Name" />
          </accessor>
        </technique_common>
      </source>
      <source id="Motion_30_LFeelerA_transform_pose_id" name="Motion_30_LFeelerA_transform_pose">
        <float_array id="Motion_30_LFeelerA_transform_pose_array_id" count="272">0.89605486 -0.37114477 -0.24359235 5.887136 0.44026 0.6723683 0.59505635 7.834719 -0.057068296 -0.6404471 0.76587903 10.916535 0 0 0 1 0.89446414 -0.37520546 -0.24321756 5.887136 0.44306785 0.6704906 0.5950909 7.834719 -0.060206257 -0.6400494 0.7659713 10.916535 0 0 0 1 0.8914626 -0.38247192 -0.24291891 5.887136 0.44832057 0.6669656 0.5951181 7.834719 -0.065597385 -0.63943106 0.766045 10.916535 0 0 0 1 0.88661706 -0.39343402 -0.24314567 5.887136 0.45667204 0.6614753 0.5948958 7.834719 -0.0732174 -0.63848263 0.76614565 10.916535 0 0 0 1 0.8808936 -0.4059491 -0.24337578 5.887136 0.4661611 0.6550431 0.5946532 7.834719 -0.08197728 -0.6372785 0.766261 10.916535 0 0 0 1 0.8751499 -0.41802183 -0.24366044 5.887136 0.47532424 0.6486275 0.5944319 7.834719 -0.090440616 -0.6360347 0.7663422 10.916535 0 0 0 1 0.8703474 -0.42770192 -0.24406251 5.887136 0.4827567 0.6432742 0.5942595 7.834719 -0.09716681 -0.63503504 0.76634794 10.916535 0 0 0 1 0.8675606 -0.4332587 -0.24418321 5.887136 0.48692918 0.64008707 0.59429663 7.834719 -0.10118571 -0.6344883 0.76628065 10.916535 0 0 0 1 0.8675294 -0.4335187 -0.24383259 5.887136 0.4868663 0.6398512 0.5946021 7.834719 -0.10175458 -0.63454866 0.76615536 10.916535 0 0 0 1 0.8698008 -0.42911935 -0.24352244 5.887136 0.48339283 0.64221555 0.59488696 7.834719 -0.09888363 -0.63515013 0.7660328 10.916535 0 0 0 1 0.87367463 -0.42121774 -0.24345072 5.887136 0.47750163 0.64656144 0.59493744 7.834719 -0.093192324 -0.63602984 0.7660165 10.916535 0 0 0 1 0.87848854 -0.41111025 -0.2434055 5.887136 0.46998748 0.65208316 0.5948944 7.834719 -0.08584656 -0.63700545 0.7660642 10.916535 0 0 0 1 0.8835959 -0.4000078 -0.24341744 5.887136 0.46173903 0.65793455 0.5949111 7.834719 -0.07781633 -0.6380564 0.7660475 10.916535 0 0 0 1 0.88840294 -0.38918504 -0.24346495 5.887136 0.45369276 0.66346085 0.5949643 7.834719 -0.07002177 -0.63902634 0.76599103 10.916535 0 0 0 1 0.8923775 -0.37994584 -0.24352336 5.887136 0.44681558 0.668057 0.5950258 7.834719 -0.063390054 -0.63979757 0.76592475 10.916535 0 0 0 1 0.89503515 -0.37361458 -0.24356577 5.887136 0.44209555 0.6711578 0.59506196 7.834719 -0.058852755 -0.64028066 0.76588315 10.916535 0 0 0 1 0.89503515 -0.37361458 -0.24356577 5.887136 0.44209555 0.6711578 0.59506196 7.834719 -0.058852755 -0.64028066 0.76588315 10.916535 0 0 0 1</float_array>
        <technique_common>
          <accessor source="#Motion_30_LFeelerA_transform_pose_array_id" count="17" stride="16">
            <param name="TRANSFORM" type="float4x4" />
          </accessor>
        </technique_common>
      </source>
      <sampler id="Motion_30_LFeelerA_transform_samp_id">
        <input semantic="INPUT" source="#Motion_30_LFeelerA_transform_frame_id" />
        <input semantic="INTERPOLATION" source="#Motion_30_LFeelerA_transform_interp_id" />
        <input semantic="OUTPUT" source="#Motion_30_LFeelerA_transform_pose_id" />
      </sampler>
      <channel source="#Motion_30_LFeelerA_transform_samp_id" target="LFeelerA_bone_id/transform" />
    </animation>
    <animation id="Motion_30_FeelerB_transform_id" name="Motion_30_FeelerB_transform">
      <source id="Motion_30_FeelerB_transform_frame_id" name="Motion_30_FeelerB_transform_frame">
        <float_array id="Motion_30_FeelerB_transform_frame_array_id" count="17">0 0.033333335 0.06666667 0.1 0.13333334 0.16666667 0.2 0.23333333 0.26666668 0.3 0.33333334 0.36666667 0.4 0.43333334 0.46666667 0.5 0.53333336</float_array>
        <technique_common>
          <accessor source="#Motion_30_FeelerB_transform_frame_array_id" count="17" stride="1">
            <param name="TIME" type="float" />
          </accessor>
        </technique_common>
      </source>
      <source id="Motion_30_FeelerB_transform_interp_id" name="Motion_30_FeelerB_transform_interp">
        <Name_array id="Motion_30_FeelerB_transform_interp_array_id" count="17">LINEAR LINEAR LINEAR LINEAR LINEAR LINEAR LINEAR LINEAR LINEAR LINEAR LINEAR LINEAR LINEAR LINEAR LINEAR LINEAR LINEAR</Name_array>
        <technique_common>
          <accessor source="#Motion_30_FeelerB_transform_interp_array_id" count="17" stride="1">
            <param name="INTERPOLATION" type="Name" />
          </accessor>
        </technique_common>
      </source>
      <source id="Motion_30_FeelerB_transform_pose_id" name="Motion_30_FeelerB_transform_pose">
        <float_array id="Motion_30_FeelerB_transform_pose_array_id" count="272">0.95887643 0.26585025 -0.09939654 9.620356 0.27267683 -0.96006143 0.06268678 0.9841036 -0.07876149 -0.087212004 -0.99307144 -10.12219 0 0 0 1 0.9621494 0.25371364 -0.099488705 9.620356 0.26057354 -0.9633833 0.06319441 0.9841036 -0.0798125 -0.08672659 -0.9930297 -10.12219 0 0 0 1 0.9699798 0.22204584 -0.09917029 9.620356 0.22877374 -0.9714737 0.062460434 0.9841036 -0.08247226 -0.08327292 -0.99310815 -10.12219 0 0 0 1 0.97955406 0.17528374 -0.09873962 9.620356 0.18184291 -0.98138213 0.061825514 0.9841036 -0.08606429 -0.07851653 -0.9931909 -10.12219 0 0 0 1 0.98789215 0.1199357 -0.098409936 9.620356 0.12634099 -0.9900696 0.061646055 0.9841036 -0.09003912 -0.07333286 -0.9932349 -10.12219 0 0 0 1 0.99316895 0.06284982 -0.09831225 9.620356 0.06913805 -0.9956839 0.061917182 0.9841036 -0.09399643 -0.068291344 -0.9932276 -10.12219 0 0 0 1 0.99507 0.011102235 -0.09855188 9.620356 0.017291404 -0.9979155 0.06217093 0.9841036 -0.09765623 -0.063568525 -0.99318767 -10.12219 0 0 0 1 0.9946551 -0.029642766 -0.09890716 9.620356 -0.023511956 -0.9977629 0.06258558 0.9841036 -0.10054107 -0.05992556 -0.99312687 -10.12219 0 0 0 1 0.9936433 -0.053409167 -0.09909827 9.620356 -0.04731652 -0.9969008 0.06284574 0.9841036 -0.102147706 -0.05775726 -0.99309087 -10.12219 0 0 0 1 0.99367523 -0.052721657 -0.09914622 9.620356 -0.0466474 -0.9969473 0.06261787 0.9841036 -0.10214482 -0.057596914 -0.9931011 -10.12219 0 0 0 1 0.9948244 -0.022994207 -0.09897296 9.620356 -0.016884962 -0.9979253 0.062127367 0.9841036 -0.1001962 -0.060134664 -0.9931488 -10.12219 0 0 0 1 0.9947277 0.028141716 -0.09861511 9.620356 0.034348488 -0.99749637 0.061817467 0.9841036 -0.09662855 -0.06487882 -0.9932039 -10.12219 0 0 0 1 0.99109715 0.0896965 -0.09839182 9.620356 0.0960549 -0.9934491 0.06190364 0.9841036 -0.09219474 -0.07080354 -0.9932203 -10.12219 0 0 0 1 0.9832503 0.1534199 -0.09839292 9.620356 0.15989546 -0.98520625 0.061661076 0.9841036 -0.08747728 -0.07636085 -0.99323547 -10.12219 0 0 0 1 0.9725573 0.21070257 -0.09867494 9.620356 0.21732605 -0.9741335 0.06191668 0.9841036 -0.08307654 -0.08166215 -0.9931917 -10.12219 0 0 0 1 0.9630138 0.25055212 -0.09913639 9.620356 0.257326 -0.9642974 0.06255721 0.9841036 -0.079923145 -0.085753836 -0.9931053 -10.12219 0 0 0 1 0.9630138 0.25055212 -0.09913639 9.620356 0.257326 -0.9642974 0.06255721 0.9841036 -0.079923145 -0.085753836 -0.9931053 -10.12219 0 0 0 1</float_array>
        <technique_common>
          <accessor source="#Motion_30_FeelerB_transform_pose_array_id" count="17" stride="16">
            <param name="TRANSFORM" type="float4x4" />
          </accessor>
        </technique_common>
      </source>
      <sampler id="Motion_30_FeelerB_transform_samp_id">
        <input semantic="INPUT" source="#Motion_30_FeelerB_transform_frame_id" />
        <input semantic="INTERPOLATION" source="#Motion_30_FeelerB_transform_interp_id" />
        <input semantic="OUTPUT" source="#Motion_30_FeelerB_transform_pose_id" />
      </sampler>
      <channel source="#Motion_30_FeelerB_transform_samp_id" target="FeelerB_bone_id/transform" />
    </animation>
    <animation id="Motion_30_FeelerA_transform_id" name="Motion_30_FeelerA_transform">
      <source id="Motion_30_FeelerA_transform_frame_id" name="Motion_30_FeelerA_transform_frame">
        <float_array id="Motion_30_FeelerA_transform_frame_array_id" count="17">0 0.033333335 0.06666667 0.1 0.13333334 0.16666667 0.2 0.23333333 0.26666668 0.3 0.33333334 0.36666667 0.4 0.43333334 0.46666667 0.5 0.53333336</float_array>
        <technique_common>
          <accessor source="#Motion_30_FeelerA_transform_frame_array_id" count="17" stride="1">
            <param name="TIME" type="float" />
          </accessor>
        </technique_common>
      </source>
      <source id="Motion_30_FeelerA_transform_interp_id" name="Motion_30_FeelerA_transform_interp">
        <Name_array id="Motion_30_FeelerA_transform_interp_array_id" count="17">LINEAR LINEAR LINEAR LINEAR LINEAR LINEAR LINEAR LINEAR LINEAR LINEAR LINEAR LINEAR LINEAR LINEAR LINEAR LINEAR LINEAR</Name_array>
        <technique_common>
          <accessor source="#Motion_30_FeelerA_transform_interp_array_id" count="17" stride="1">
            <param name="INTERPOLATION" type="Name" />
          </accessor>
        </technique_common>
      </source>
      <source id="Motion_30_FeelerA_transform_pose_id" name="Motion_30_FeelerA_transform_pose">
        <float_array id="Motion_30_FeelerA_transform_pose_array_id" count="272">0.94935334 -0.26308483 -0.1717983 9.690062 0.27555203 0.95983243 0.05284623 0.9841066 0.15099455 -0.09750912 0.9837137 9.9640875 0 0 0 1 0.9465819 -0.2731241 -0.17142321 9.690062 0.28573352 0.9568253 0.053307384 0.9841066 0.14946254 -0.099441156 0.9837542 9.9640875 0 0 0 1 0.93876696 -0.29901797 -0.17118652 9.690062 0.31186962 0.94863176 0.05324563 0.9841066 0.14647157 -0.10337311 0.9837988 9.9640875 0 0 0 1 0.9261646 -0.33606482 -0.1711127 9.690062 0.34923142 0.9355454 0.052841745 0.9841066 0.14232545 -0.10869809 0.98383343 9.9640875 0 0 0 1 0.90977716 -0.37815225 -0.17119096 9.690062 0.39168233 0.9186073 0.05239887 0.9841066 0.13744251 -0.11472377 0.9838435 9.9640875 0 0 0 1 0.89146185 -0.4194205 -0.17141227 9.690062 0.4333432 0.89971524 0.052212834 0.9841066 0.1323231 -0.120826095 0.98381484 9.9640875 0 0 0 1 0.8740677 -0.45446727 -0.17165415 9.690062 0.46872583 0.8818047 0.052120898 0.9841066 0.1276782 -0.12601593 0.9837775 9.9640875 0 0 0 1 0.86122507 -0.4783199 -0.17175987 9.690062 0.49278322 0.86859757 0.051989708 0.9841066 0.124322504 -0.12941523 0.983766 9.9640875 0 0 0 1 0.85609555 -0.4874602 -0.17170596 9.690062 0.5019981 0.86330265 0.052023165 0.9841066 0.122875 -0.13073286 0.9837737 9.9640875 0 0 0 1 0.86134183 -0.47820857 -0.17148416 9.690062 0.49268773 0.86862636 0.052412864 0.9841066 0.12389137 -0.12963353 0.9837917 9.9640875 0 0 0 1 0.8745919 -0.45363903 -0.1711744 9.690062 0.46789408 0.88221616 0.052628536 0.9841066 0.12713847 -0.12611999 0.9838341 9.9640875 0 0 0 1 0.8920415 -0.41841406 -0.17085561 9.690062 0.43230516 0.9001942 0.05256029 0.9841066 0.13181129 -0.12074773 0.98389316 9.9640875 0 0 0 1 0.9101893 -0.3773892 -0.1706837 9.690062 0.39087135 0.9189448 0.05253612 0.9841066 0.13702233 -0.114533186 0.9839243 9.9640875 0 0 0 1 0.92630947 -0.33587483 -0.17070104 9.690062 0.34895197 0.9356659 0.05255335 0.9841066 0.1420678 -0.10824714 0.9839204 9.9640875 0 0 0 1 0.93863726 -0.29957727 -0.17091978 9.690062 0.31231186 0.9485218 0.052609384 0.9841066 0.14636055 -0.1027614 0.9838794 9.9640875 0 0 0 1 0.9465904 -0.27317262 -0.171299 9.690062 0.28569418 0.9568647 0.052808978 0.9841066 0.149484 -0.098927595 0.98380274 9.9640875 0 0 0 1 0.9465904 -0.27317262 -0.171299 9.690062 0.28569418 0.9568647 0.052808978 0.9841066 0.149484 -0.098927595 0.98380274 9.9640875 0 0 0 1</float_array>
        <technique_common>
          <accessor source="#Motion_30_FeelerA_transform_pose_array_id" count="17" stride="16">
            <param name="TRANSFORM" type="float4x4" />
          </accessor>
        </technique_common>
      </source>
      <sampler id="Motion_30_FeelerA_transform_samp_id">
        <input semantic="INPUT" source="#Motion_30_FeelerA_transform_frame_id" />
        <input semantic="INTERPOLATION" source="#Motion_30_FeelerA_transform_interp_id" />
        <input semantic="OUTPUT" source="#Motion_30_FeelerA_transform_pose_id" />
      </sampler>
      <channel source="#Motion_30_FeelerA_transform_samp_id" target="FeelerA_bone_id/transform" />
    </animation>
    <animation id="Motion_30_Head_transform_id" name="Motion_30_Head_transform">
      <source id="Motion_30_Head_transform_frame_id" name="Motion_30_Head_transform_frame">
        <float_array id="Motion_30_Head_transform_frame_array_id" count="17">0 0.033333335 0.06666667 0.1 0.13333334 0.16666667 0.2 0.23333333 0.26666668 0.3 0.33333334 0.36666667 0.4 0.43333334 0.46666667 0.5 0.53333336</float_array>
        <technique_common>
          <accessor source="#Motion_30_Head_transform_frame_array_id" count="17" stride="1">
            <param name="TIME" type="float" />
          </accessor>
        </technique_common>
      </source>
      <source id="Motion_30_Head_transform_interp_id" name="Motion_30_Head_transform_interp">
        <Name_array id="Motion_30_Head_transform_interp_array_id" count="17">LINEAR LINEAR LINEAR LINEAR LINEAR LINEAR LINEAR LINEAR LINEAR LINEAR LINEAR LINEAR LINEAR LINEAR LINEAR LINEAR LINEAR</Name_array>
        <technique_common>
          <accessor source="#Motion_30_Head_transform_interp_array_id" count="17" stride="1">
            <param name="INTERPOLATION" type="Name" />
          </accessor>
        </technique_common>
      </source>
      <source id="Motion_30_Head_transform_pose_id" name="Motion_30_Head_transform_pose">
        <float_array id="Motion_30_Head_transform_pose_array_id" count="272">0.9680469 0.24991198 0.020717803 0 -0.24813662 0.94266945 0.22316477 0 0.03624151 -0.2211748 0.97456056 0 0 0 0 1 0.9662159 0.25736886 0.01371452 0 -0.25302672 0.9371015 0.24045427 0 0.049033538 -0.23580088 0.9705636 0 0 0 0 1 0.96114606 0.27604035 -0.00017732382 0 -0.26468447 0.9217879 0.2832828 0 0.07836094 -0.27222916 0.9590364 0 0 0 0 1 0.9541832 0.29903144 -0.010703955 0 -0.2777797 0.8985346 0.33981463 0 0.11123313 -0.3212721 0.94043154 0 0 0 0 1 0.94799066 0.31815007 -0.009706669 0 -0.2887986 0.87255335 0.3940128 0 0.1338248 -0.37071717 0.9190537 0 0 0 0 1 0.94613373 0.32373223 0.0053290576 0 -0.29361388 0.85094094 0.43553457 0 0.13646185 -0.41363862 0.90015626 0 0 0 0 1 0.9517047 0.3066064 0.015834332 0 -0.27783245 0.8381501 0.46937576 0 0.13064207 -0.4511064 0.88285655 0 0 0 0 1 0.9633149 0.2679459 0.015148018 0 -0.23948069 0.8327577 0.49916297 0 0.12113403 -0.48447877 0.86637574 0 0 0 0 1 0.9750739 0.2217832 0.006571397 0 -0.19337486 0.83490777 0.515301 0 0.1087986 -0.5037273 0.8569841 0 0 0 0 1 0.98332447 0.18183738 -0.002859924 0 -0.15432435 0.8426553 0.5158643 0 0.09621334 -0.5068206 0.8566655 0 0 0 0 1 0.9867083 0.16246293 -0.0035433397 0 -0.13770853 0.84754276 0.5125502 0 0.086273536 -0.50524956 0.85864997 0 0 0 0 1 0.98625773 0.1650926 0.0063303374 0 -0.14594944 0.85266113 0.50166494 0 0.07742353 -0.49569482 0.8650389 0 0 0 0 1 0.983699 0.17886364 0.018546863 0 -0.16626549 0.8653975 0.47269753 0 0.068497986 -0.46807578 0.88102955 0 0 0 0 1 0.97931135 0.2003299 0.028586509 0 -0.19316441 0.8833396 0.42708153 0 0.06030561 -0.4237677 0.90376115 0 0 0 0 1 0.97414416 0.22342068 0.03356176 0 -0.21994221 0.90384895 0.3669911 0 0.051658645 -0.3648839 0.92961884 0 0 0 0 1 0.9698638 0.24160668 0.03147187 0 -0.24002734 0.9252628 0.29372716 0 0.0418467 -0.29242945 0.9553711 0 0 0 0 1 0.9698638 0.24160668 0.03147187 0 -0.24002734 0.9252628 0.29372716 0 0.0418467 -0.29242945 0.9553711 0 0 0 0 1</float_array>
        <technique_common>
          <accessor source="#Motion_30_Head_transform_pose_array_id" count="17" stride="16">
            <param name="TRANSFORM" type="float4x4" />
          </accessor>
        </technique_common>
      </source>
      <sampler id="Motion_30_Head_transform_samp_id">
        <input semantic="INPUT" source="#Motion_30_Head_transform_frame_id" />
        <input semantic="INTERPOLATION" source="#Motion_30_Head_transform_interp_id" />
        <input semantic="OUTPUT" source="#Motion_30_Head_transform_pose_id" />
      </sampler>
      <channel source="#Motion_30_Head_transform_samp_id" target="Head_bone_id/transform" />
    </animation>
    <animation id="Motion_30_RArm_transform_id" name="Motion_30_RArm_transform">
      <source id="Motion_30_RArm_transform_frame_id" name="Motion_30_RArm_transform_frame">
        <float_array id="Motion_30_RArm_transform_frame_array_id" count="17">0 0.033333335 0.06666667 0.1 0.13333334 0.16666667 0.2 0.23333333 0.26666668 0.3 0.33333334 0.36666667 0.4 0.43333334 0.46666667 0.5 0.53333336</float_array>
        <technique_common>
          <accessor source="#Motion_30_RArm_transform_frame_array_id" count="17" stride="1">
            <param name="TIME" type="float" />
          </accessor>
        </technique_common>
      </source>
      <source id="Motion_30_RArm_transform_interp_id" name="Motion_30_RArm_transform_interp">
        <Name_array id="Motion_30_RArm_transform_interp_array_id" count="17">LINEAR LINEAR LINEAR LINEAR LINEAR LINEAR LINEAR LINEAR LINEAR LINEAR LINEAR LINEAR LINEAR LINEAR LINEAR LINEAR LINEAR</Name_array>
        <technique_common>
          <accessor source="#Motion_30_RArm_transform_interp_array_id" count="17" stride="1">
            <param name="INTERPOLATION" type="Name" />
          </accessor>
        </technique_common>
      </source>
      <source id="Motion_30_RArm_transform_pose_id" name="Motion_30_RArm_transform_pose">
        <float_array id="Motion_30_RArm_transform_pose_array_id" count="272">-0.48910105 -0.8584423 0.15445629 1.2413455 0.49333143 -0.41830003 -0.7626592 4.3996 0.719308 -0.29681936 0.62808776 4.89057 0 0 0 1 -0.4201188 -0.88175076 0.21451342 1.2413455 0.4690923 -0.41336882 -0.780435 4.3996 0.77682227 -0.22724873 0.58728635 4.89057 0 0 0 1 -0.25738597 -0.9065035 0.3346701 1.2413455 0.37716717 -0.4131118 -0.82890517 4.3996 0.88966155 -0.087121904 0.4482324 4.89057 0 0 0 1 -0.09054589 -0.9024315 0.42121103 1.2413455 0.20622781 -0.4307711 -0.8785819 4.3996 0.9743056 0.0073133707 0.22511113 4.89057 0 0 0 1 -0.0041536093 -0.8998667 0.43614495 1.2413455 0.01976484 -0.4361372 -0.89966285 4.3996 0.9997959 0.004883319 0.019597411 4.89057 0 0 0 1 0.0005378723 -0.923856 0.38273987 1.2413455 -0.066547245 -0.38192463 -0.92179453 4.3996 0.9977832 -0.024974436 -0.061685562 4.89057 0 0 0 1 -0.007227421 -0.95521224 0.2958334 1.2413455 -0.04658249 -0.29519844 -0.9542998 4.3996 0.9988883 -0.020677775 -0.04236269 4.89057 0 0 0 1 0.0015109777 -0.9696379 0.24454048 1.2413455 0.005945623 -0.24452758 -0.96962404 4.3996 0.99998116 0.0029189885 0.0053957105 4.89057 0 0 0 1 0.02150786 -0.9644114 0.26353 1.2413455 0.083143085 -0.26095247 -0.96176445 4.3996 0.99630547 0.04259619 0.07457161 4.89057 0 0 0 1 0.03216523 -0.9380983 0.34487206 1.2413455 0.18033266 -0.33394074 -0.92518294 4.3996 0.9830795 0.0919503 0.15842867 4.89057 0 0 0 1 0.012786567 -0.8851304 0.4651677 1.2413455 0.2890555 -0.4420719 -0.8491287 4.3996 0.95722705 0.14531681 0.25019902 4.89057 0 0 0 1 -0.048444748 -0.842034 0.5372448 1.2413455 0.39329088 -0.5105057 -0.764661 4.3996 0.91813695 0.17424971 0.35589546 4.89057 0 0 0 1 -0.14854324 -0.84645593 0.5113193 1.2413455 0.47145593 -0.51512957 -0.71580094 4.3996 0.8692895 0.13473713 0.47558558 4.89057 0 0 0 1 -0.26793075 -0.86875075 0.4165153 1.2413455 0.5115164 -0.49462807 -0.70263344 4.3996 0.8164336 0.024797201 0.57690656 4.89057 0 0 0 1 -0.37994862 -0.8767487 0.294874 1.2413455 0.515741 -0.46542203 -0.7193006 4.3996 0.7678868 -0.12121871 0.6290118 4.89057 0 0 0 1 -0.45948148 -0.8665947 0.19465399 1.2413455 0.5020591 -0.43419993 -0.74793506 4.3996 0.7326754 -0.24593458 0.63458884 4.89057 0 0 0 1 -0.45948148 -0.8665947 0.19465399 1.2413455 0.5020591 -0.43419993 -0.74793506 4.3996 0.7326754 -0.24593458 0.63458884 4.89057 0 0 0 1</float_array>
        <technique_common>
          <accessor source="#Motion_30_RArm_transform_pose_array_id" count="17" stride="16">
            <param name="TRANSFORM" type="float4x4" />
          </accessor>
        </technique_common>
      </source>
      <sampler id="Motion_30_RArm_transform_samp_id">
        <input semantic="INPUT" source="#Motion_30_RArm_transform_frame_id" />
        <input semantic="INTERPOLATION" source="#Motion_30_RArm_transform_interp_id" />
        <input semantic="OUTPUT" source="#Motion_30_RArm_transform_pose_id" />
      </sampler>
      <channel source="#Motion_30_RArm_transform_samp_id" target="RArm_bone_id/transform" />
    </animation>
    <animation id="Motion_30_RForeArm_transform_id" name="Motion_30_RForeArm_transform">
      <source id="Motion_30_RForeArm_transform_frame_id" name="Motion_30_RForeArm_transform_frame">
        <float_array id="Motion_30_RForeArm_transform_frame_array_id" count="17">0 0.033333335 0.06666667 0.1 0.13333334 0.16666667 0.2 0.23333333 0.26666668 0.3 0.33333334 0.36666667 0.4 0.43333334 0.46666667 0.5 0.53333336</float_array>
        <technique_common>
          <accessor source="#Motion_30_RForeArm_transform_frame_array_id" count="17" stride="1">
            <param name="TIME" type="float" />
          </accessor>
        </technique_common>
      </source>
      <source id="Motion_30_RForeArm_transform_interp_id" name="Motion_30_RForeArm_transform_interp">
        <Name_array id="Motion_30_RForeArm_transform_interp_array_id" count="17">LINEAR LINEAR LINEAR LINEAR LINEAR LINEAR LINEAR LINEAR LINEAR LINEAR LINEAR LINEAR LINEAR LINEAR LINEAR LINEAR LINEAR</Name_array>
        <technique_common>
          <accessor source="#Motion_30_RForeArm_transform_interp_array_id" count="17" stride="1">
            <param name="INTERPOLATION" type="Name" />
          </accessor>
        </technique_common>
      </source>
      <source id="Motion_30_RForeArm_transform_pose_id" name="Motion_30_RForeArm_transform_pose">
        <float_array id="Motion_30_RForeArm_transform_pose_array_id" count="272">0.86298937 -0.3578393 -0.3566517 4.257444 0.3307101 0.9337832 -0.13667393 3.850501E-05 0.38194266 -1.6391277E-07 0.92418605 -4.21634E-06 0 0 0 1 0.85183465 -0.35725495 -0.3830752 4.257444 0.32576558 0.93400687 -0.14665577 3.850501E-05 0.4101884 0.00013373047 0.9120008 -4.21634E-06 0 0 0 1 0.82155144 -0.35701385 -0.4445158 4.257444 0.31398943 0.9340991 -0.16991031 3.850501E-05 0.47588214 1.680851E-05 0.8795091 -4.21634E-06 0 0 0 1 0.77944076 -0.35741472 -0.5145161 4.257444 0.2981093 0.9339457 -0.19717059 3.850501E-05 0.5510018 0.00030076504 0.834504 -4.21634E-06 0 0 0 1 0.73946416 -0.35786414 -0.5701983 4.257444 0.28340322 0.93377364 -0.21851628 3.850501E-05 0.6106353 -1.1071563E-05 0.79191196 -4.21634E-06 0 0 0 1 0.72161496 -0.35789087 -0.59260947 4.257444 0.27643362 0.9337634 -0.2273112 3.850501E-05 0.63470966 0.00021400303 0.77275074 -4.21634E-06 0 0 0 1 0.72914773 -0.35805556 -0.58321506 4.257444 0.27699664 0.9336921 -0.22691831 3.850501E-05 0.6257927 0.0039083734 0.7799797 -4.21634E-06 0 0 0 1 0.74819344 -0.35840413 -0.5583485 4.257444 0.279893 0.93349653 -0.22415191 3.850501E-05 0.6015534 0.011431143 0.7987508 -4.21634E-06 0 0 0 1 0.7749369 -0.35887742 -0.5202689 4.257444 0.28329206 0.9330661 -0.22166014 3.850501E-05 0.5649941 0.024384566 0.82473457 -4.21634E-06 0 0 0 1 0.8047861 -0.35827687 -0.47324097 4.257444 0.2863964 0.9327238 -0.21909669 3.850501E-05 0.5199004 0.040791474 0.8532524 -4.21634E-06 0 0 0 1 0.83386403 -0.3556859 -0.42208803 4.257444 0.28828275 0.93275136 -0.21649006 3.850501E-05 0.47070563 0.058842577 0.8803259 -4.21634E-06 0 0 0 1 0.85920537 -0.35097516 -0.37226686 4.257444 0.2884814 0.93325293 -0.21405023 3.850501E-05 0.42254546 0.07652104 0.9031057 -4.21634E-06 0 0 0 1 0.87860066 -0.34554973 -0.32963046 4.257444 0.2876992 0.9339198 -0.21218613 3.850501E-05 0.3811693 0.09159244 0.9199569 -4.21634E-06 0 0 0 1 0.8907243 -0.34121963 -0.30029875 4.257444 0.28676644 0.9344343 -0.21118134 3.850501E-05 0.35266864 0.10198876 0.9301737 -4.21634E-06 0 0 0 1 0.89512104 -0.3394036 -0.28907353 4.257444 0.28627184 0.9346434 -0.21092685 3.850501E-05 0.34177 0.10605146 0.93378067 -4.21634E-06 0 0 0 1 0.8795357 -0.350128 -0.3222226 4.257444 0.3088929 0.9352193 -0.1730609 3.850501E-05 0.36194223 0.052680977 0.9307108 -4.21634E-06 0 0 0 1 0.8795357 -0.350128 -0.3222226 4.257444 0.3088929 0.9352193 -0.1730609 3.850501E-05 0.36194223 0.052680977 0.9307108 -4.21634E-06 0 0 0 1</float_array>
        <technique_common>
          <accessor source="#Motion_30_RForeArm_transform_pose_array_id" count="17" stride="16">
            <param name="TRANSFORM" type="float4x4" />
          </accessor>
        </technique_common>
      </source>
      <sampler id="Motion_30_RForeArm_transform_samp_id">
        <input semantic="INPUT" source="#Motion_30_RForeArm_transform_frame_id" />
        <input semantic="INTERPOLATION" source="#Motion_30_RForeArm_transform_interp_id" />
        <input semantic="OUTPUT" source="#Motion_30_RForeArm_transform_pose_id" />
      </sampler>
      <channel source="#Motion_30_RForeArm_transform_samp_id" target="RForeArm_bone_id/transform" />
    </animation>
    <animation id="Motion_30_LArm_transform_id" name="Motion_30_LArm_transform">
      <source id="Motion_30_LArm_transform_frame_id" name="Motion_30_LArm_transform_frame">
        <float_array id="Motion_30_LArm_transform_frame_array_id" count="17">0 0.033333335 0.06666667 0.1 0.13333334 0.16666667 0.2 0.23333333 0.26666668 0.3 0.33333334 0.36666667 0.4 0.43333334 0.46666667 0.5 0.53333336</float_array>
        <technique_common>
          <accessor source="#Motion_30_LArm_transform_frame_array_id" count="17" stride="1">
            <param name="TIME" type="float" />
          </accessor>
        </technique_common>
      </source>
      <source id="Motion_30_LArm_transform_interp_id" name="Motion_30_LArm_transform_interp">
        <Name_array id="Motion_30_LArm_transform_interp_array_id" count="17">LINEAR LINEAR LINEAR LINEAR LINEAR LINEAR LINEAR LINEAR LINEAR LINEAR LINEAR LINEAR LINEAR LINEAR LINEAR LINEAR LINEAR</Name_array>
        <technique_common>
          <accessor source="#Motion_30_LArm_transform_interp_array_id" count="17" stride="1">
            <param name="INTERPOLATION" type="Name" />
          </accessor>
        </technique_common>
      </source>
      <source id="Motion_30_LArm_transform_pose_id" name="Motion_30_LArm_transform_pose">
        <float_array id="Motion_30_LArm_transform_pose_array_id" count="272">0.17225933 0.98301876 0.0632533 1.2413353 -0.8275602 0.10959017 0.5505762 -4.3995996 0.5342948 -0.14718777 0.83238506 4.8905706 0 0 0 1 0.18020976 0.98052084 0.07812449 1.2413353 -0.84636915 0.11410385 0.52023053 -4.3995996 0.50118256 -0.15987282 0.85044503 4.8905706 0 0 0 1 0.19655967 0.9740147 0.11251497 1.2413353 -0.88317126 0.1260367 0.45179993 -4.3995996 0.42587876 -0.18817562 0.8849956 4.8905706 0 0 0 1 0.21232611 0.9658797 0.14830351 1.2413353 -0.9133923 0.14222264 0.3814278 -4.3995996 0.34732127 -0.21644631 0.91242474 4.8905706 0 0 0 1 0.21918118 0.9616009 0.16517688 1.2413353 -0.92486393 0.150841 0.34910408 -4.3995996 0.31078333 -0.22928318 0.92241144 4.8905706 0 0 0 1 0.17124856 0.9690347 0.17789224 1.2413353 -0.9275366 0.09769189 0.36073807 -4.3995996 0.3321891 -0.2267774 0.91554487 4.8905706 0 0 0 1 0.061849117 0.97545123 0.21135193 1.2413353 -0.92038023 -0.026176333 0.39014745 -4.3995996 0.3861022 -0.21865441 0.89616704 4.8905706 0 0 0 1 -0.054846287 0.96431446 0.2590164 1.2413353 -0.8853055 -0.1669296 0.43401456 -4.3995996 0.46176404 -0.20550454 0.8628684 4.8905706 0 0 0 1 -0.12656915 0.9447387 0.3024057 1.2413353 -0.8297233 -0.26790416 0.48968017 -4.3995996 0.5436355 -0.18893468 0.81778 4.8905706 0 0 0 1 -0.12159681 0.9431617 0.3092901 1.2413353 -0.7745229 -0.28503227 0.56468666 -4.3995996 0.6207484 -0.17088819 0.76515925 4.8905706 0 0 0 1 -0.06777835 0.9601095 0.271286 1.2413353 -0.7266563 -0.23382556 0.64598477 -4.3995996 0.6836496 -0.15334797 0.7135178 4.8905706 0 0 0 1 0.0052022934 0.9801054 0.19840968 1.2413353 -0.68862987 -0.14035833 0.71139896 -4.3995996 0.7250944 -0.14033177 0.67419964 4.8905706 0 0 0 1 0.07675797 0.99058735 0.11333433 1.2413353 -0.66796696 -0.033299446 0.7434454 -4.3995996 0.74022174 -0.13276887 0.6591238 4.8905706 0 0 0 1 0.1394108 0.9890443 0.04853812 1.2413353 -0.68898773 0.061676502 0.72214395 -4.3995996 0.71123874 -0.13411683 0.6900378 4.8905706 0 0 0 1 0.1779111 0.98355246 0.031178445 1.2413353 -0.74483037 0.113888144 0.65746266 -4.3995996 0.64309824 -0.14019251 0.7528418 4.8905706 0 0 0 1 0.17926878 0.982515 0.050269604 1.2413353 -0.8022531 0.11642063 0.5855222 -4.3995996 0.56943184 -0.14529482 0.8090963 4.8905706 0 0 0 1 0.17926878 0.982515 0.050269604 1.2413353 -0.8022531 0.11642063 0.5855222 -4.3995996 0.56943184 -0.14529482 0.8090963 4.8905706 0 0 0 1</float_array>
        <technique_common>
          <accessor source="#Motion_30_LArm_transform_pose_array_id" count="17" stride="16">
            <param name="TRANSFORM" type="float4x4" />
          </accessor>
        </technique_common>
      </source>
      <sampler id="Motion_30_LArm_transform_samp_id">
        <input semantic="INPUT" source="#Motion_30_LArm_transform_frame_id" />
        <input semantic="INTERPOLATION" source="#Motion_30_LArm_transform_interp_id" />
        <input semantic="OUTPUT" source="#Motion_30_LArm_transform_pose_id" />
      </sampler>
      <channel source="#Motion_30_LArm_transform_samp_id" target="LArm_bone_id/transform" />
    </animation>
    <animation id="Motion_30_LForeArm_transform_id" name="Motion_30_LForeArm_transform">
      <source id="Motion_30_LForeArm_transform_frame_id" name="Motion_30_LForeArm_transform_frame">
        <float_array id="Motion_30_LForeArm_transform_frame_array_id" count="17">0 0.033333335 0.06666667 0.1 0.13333334 0.16666667 0.2 0.23333333 0.26666668 0.3 0.33333334 0.36666667 0.4 0.43333334 0.46666667 0.5 0.53333336</float_array>
        <technique_common>
          <accessor source="#Motion_30_LForeArm_transform_frame_array_id" count="17" stride="1">
            <param name="TIME" type="float" />
          </accessor>
        </technique_common>
      </source>
      <source id="Motion_30_LForeArm_transform_interp_id" name="Motion_30_LForeArm_transform_interp">
        <Name_array id="Motion_30_LForeArm_transform_interp_array_id" count="17">LINEAR LINEAR LINEAR LINEAR LINEAR LINEAR LINEAR LINEAR LINEAR LINEAR LINEAR LINEAR LINEAR LINEAR LINEAR LINEAR LINEAR</Name_array>
        <technique_common>
          <accessor source="#Motion_30_LForeArm_transform_interp_array_id" count="17" stride="1">
            <param name="INTERPOLATION" type="Name" />
          </accessor>
        </technique_common>
      </source>
      <source id="Motion_30_LForeArm_transform_pose_id" name="Motion_30_LForeArm_transform_pose">
        <float_array id="Motion_30_LForeArm_transform_pose_array_id" count="272">0.9700158 -0.13866104 -0.19960578 4.257445 0.13581552 0.9903399 -0.027946915 0 0.2015527 -6.137416E-07 0.97947764 0 0 0 0 1 0.9789019 -0.14826012 -0.14060585 4.257445 0.14625046 0.9889422 -0.02457814 0 0.14269502 0.0034959177 0.9897605 0 0 0 0 1 0.9854959 -0.16961889 0.005211216 4.257445 0.16966991 0.98543066 -0.011772695 0 -0.0031384206 0.012486129 0.99991715 0 0 0 0 1 0.9632906 -0.193069 0.18653591 4.257445 0.19420119 0.98088384 0.012362726 0 -0.1853569 0.024316598 0.9823704 0 0 0 0 1 0.9132458 -0.2106403 0.34873033 4.257445 0.20870812 0.9770068 0.043572914 0 -0.3498901 0.032990072 0.9362097 0 0 0 0 1 0.867074 -0.220921 0.4465161 4.257445 0.21401225 0.97455823 0.0665954 0 -0.44986826 0.03781678 0.89229393 0 0 0 0 1 0.8641356 -0.22250468 0.45139933 4.257445 0.21506026 0.97419536 0.06850209 0 -0.45499313 0.037882954 0.8896888 0 0 0 0 1 0.8958601 -0.22366016 0.3839412 4.257445 0.21951349 0.9740454 0.05522142 0 -0.386327 0.034809608 0.9217048 0 0 0 0 1 0.93699825 -0.2235008 0.2684803 4.257445 0.2230566 0.9742612 0.03257044 0 -0.2688495 0.029367864 0.9627344 0 0 0 0 1 0.9674522 -0.22106054 0.123160265 4.257445 0.22201976 0.9750234 0.0060547115 0 -0.1214226 0.021486368 0.99236834 0 0 0 0 1 0.97627103 -0.21506067 -0.025372451 4.257445 0.21464555 0.976524 -0.01811676 0 0.02867301 0.012240784 0.99951386 0 0 0 0 1 0.96724725 -0.20544186 -0.14908504 4.257445 0.20236024 0.9786595 -0.035719547 0 0.15324178 0.0043807514 0.988179 0 0 0 0 1 0.95544046 -0.19426858 -0.222246 4.257445 0.18917912 0.9809484 -0.04417651 0 0.22659396 0.00016372651 0.9739893 0 0 0 0 1 0.9556445 -0.18275242 -0.23096566 4.257445 0.17763804 0.98315895 -0.042932145 0 0.23492192 -4.2282045E-07 0.97201425 0 0 0 0 1 0.9615809 -0.1642733 -0.21994673 4.257445 0.16001947 0.98641473 -0.037145086 0 0.22306062 0.0005222466 0.97480446 0 0 0 0 1 0.96742815 -0.14674598 -0.20627269 4.257445 0.14337268 0.98917395 -0.031291336 0 0.20863146 0.0006982479 0.9779941 0 0 0 0 1 0.96742815 -0.14674598 -0.20627269 4.257445 0.14337268 0.98917395 -0.031291336 0 0.20863146 0.0006982479 0.9779941 0 0 0 0 1</float_array>
        <technique_common>
          <accessor source="#Motion_30_LForeArm_transform_pose_array_id" count="17" stride="16">
            <param name="TRANSFORM" type="float4x4" />
          </accessor>
        </technique_common>
      </source>
      <sampler id="Motion_30_LForeArm_transform_samp_id">
        <input semantic="INPUT" source="#Motion_30_LForeArm_transform_frame_id" />
        <input semantic="INTERPOLATION" source="#Motion_30_LForeArm_transform_interp_id" />
        <input semantic="OUTPUT" source="#Motion_30_LForeArm_transform_pose_id" />
      </sampler>
      <channel source="#Motion_30_LForeArm_transform_samp_id" target="LForeArm_bone_id/transform" />
    </animation>
    <animation id="Motion_30_RHair_transform_id" name="Motion_30_RHair_transform">
      <source id="Motion_30_RHair_transform_frame_id" name="Motion_30_RHair_transform_frame">
        <float_array id="Motion_30_RHair_transform_frame_array_id" count="17">0 0.033333335 0.06666667 0.1 0.13333334 0.16666667 0.2 0.23333333 0.26666668 0.3 0.33333334 0.36666667 0.4 0.43333334 0.46666667 0.5 0.53333336</float_array>
        <technique_common>
          <accessor source="#Motion_30_RHair_transform_frame_array_id" count="17" stride="1">
            <param name="TIME" type="float" />
          </accessor>
        </technique_common>
      </source>
      <source id="Motion_30_RHair_transform_interp_id" name="Motion_30_RHair_transform_interp">
        <Name_array id="Motion_30_RHair_transform_interp_array_id" count="17">LINEAR LINEAR LINEAR LINEAR LINEAR LINEAR LINEAR LINEAR LINEAR LINEAR LINEAR LINEAR LINEAR LINEAR LINEAR LINEAR LINEAR</Name_array>
        <technique_common>
          <accessor source="#Motion_30_RHair_transform_interp_array_id" count="17" stride="1">
            <param name="INTERPOLATION" type="Name" />
          </accessor>
        </technique_common>
      </source>
      <source id="Motion_30_RHair_transform_pose_id" name="Motion_30_RHair_transform_pose">
        <float_array id="Motion_30_RHair_transform_pose_array_id" count="272">0.5299947 -0.7600864 -0.3759975 11.479746 0.5827575 0.6485651 -0.48964983 6.78326 0.6160351 0.040396437 0.7866822 3.82497 0 0 0 1 0.54945004 -0.7608216 -0.34533343 11.479746 0.5711497 0.64367765 -0.50937915 6.78326 0.60983 0.08264132 0.7882117 3.82497 0 0 0 1 0.59220815 -0.75592434 -0.27904823 11.479746 0.5428803 0.6302116 -0.5550805 6.78326 0.59545827 0.1772334 0.7835928 3.82497 0 0 0 1 0.6333414 -0.7434331 -0.21490918 11.479746 0.51371527 0.61158353 -0.60171604 6.78326 0.5787705 0.27068955 0.7692541 3.82497 0 0 0 1 0.65413755 -0.73366004 -0.18397559 11.479746 0.5008648 0.6024181 -0.6214715 6.78326 0.5667791 0.31438097 0.7615288 3.82497 0 0 0 1 0.65401983 -0.7330938 -0.18663228 11.479746 0.50926334 0.60911185 -0.60797507 6.78326 0.5593826 0.3025828 0.77170897 3.82497 0 0 0 1 0.6466862 -0.7351966 -0.20318194 11.479746 0.5257684 0.62264 -0.57955754 6.78326 0.55259794 0.2679652 0.7891959 3.82497 0 0 0 1 0.6336 -0.7384385 -0.23078042 11.479746 0.54791117 0.6388898 -0.54001224 6.78326 0.5462091 0.2157046 0.80939925 3.82497 0 0 0 1 0.6170065 -0.74099296 -0.26501393 11.479746 0.57246786 0.6536935 -0.49493977 6.78326 0.53998476 0.15366909 0.82752776 3.82497 0 0 0 1 0.59919524 -0.7417979 -0.30116576 11.479746 0.59619355 0.66450095 -0.4505461 6.78326 0.53433913 0.090412006 0.84042096 3.82497 0 0 0 1 0.5824498 -0.7408809 -0.33443648 11.479746 0.61578256 0.6707307 -0.41343945 6.78326 0.53062624 0.03486757 0.8468885 3.82497 0 0 0 1 0.5702357 -0.7388978 -0.3589725 11.479746 0.62925744 0.67379886 -0.38733736 6.78326 0.52807796 -0.005012512 0.84918106 3.82497 0 0 0 1 0.5649561 -0.7380202 -0.3689862 11.479746 0.63425267 0.6744664 -0.3779136 6.78326 0.5277766 -0.020525888 0.84913516 3.82497 0 0 0 1 0.5600465 -0.74135745 -0.36977965 11.479746 0.6270045 0.6710322 -0.39570338 6.78326 0.5414917 -0.010241225 0.8406437 3.82497 0 0 0 1 0.5486344 -0.748327 -0.37283644 11.479746 0.60932696 0.6632349 -0.43455753 6.78326 0.57246923 0.011233956 0.81984925 3.82497 0 0 0 1 0.5362119 -0.75611067 -0.3751979 11.479746 0.5910468 0.6536773 -0.47262004 6.78326 0.60261136 0.031664997 0.7974063 3.82497 0 0 0 1 0.5362119 -0.75611067 -0.3751979 11.479746 0.5910468 0.6536773 -0.47262004 6.78326 0.60261136 0.031664997 0.7974063 3.82497 0 0 0 1</float_array>
        <technique_common>
          <accessor source="#Motion_30_RHair_transform_pose_array_id" count="17" stride="16">
            <param name="TRANSFORM" type="float4x4" />
          </accessor>
        </technique_common>
      </source>
      <sampler id="Motion_30_RHair_transform_samp_id">
        <input semantic="INPUT" source="#Motion_30_RHair_transform_frame_id" />
        <input semantic="INTERPOLATION" source="#Motion_30_RHair_transform_interp_id" />
        <input semantic="OUTPUT" source="#Motion_30_RHair_transform_pose_id" />
      </sampler>
      <channel source="#Motion_30_RHair_transform_samp_id" target="RHair_bone_id/transform" />
    </animation>
    <animation id="Motion_30_LHair_transform_id" name="Motion_30_LHair_transform">
      <source id="Motion_30_LHair_transform_frame_id" name="Motion_30_LHair_transform_frame">
        <float_array id="Motion_30_LHair_transform_frame_array_id" count="17">0 0.033333335 0.06666667 0.1 0.13333334 0.16666667 0.2 0.23333333 0.26666668 0.3 0.33333334 0.36666667 0.4 0.43333334 0.46666667 0.5 0.53333336</float_array>
        <technique_common>
          <accessor source="#Motion_30_LHair_transform_frame_array_id" count="17" stride="1">
            <param name="TIME" type="float" />
          </accessor>
        </technique_common>
      </source>
      <source id="Motion_30_LHair_transform_interp_id" name="Motion_30_LHair_transform_interp">
        <Name_array id="Motion_30_LHair_transform_interp_array_id" count="17">LINEAR LINEAR LINEAR LINEAR LINEAR LINEAR LINEAR LINEAR LINEAR LINEAR LINEAR LINEAR LINEAR LINEAR LINEAR LINEAR LINEAR</Name_array>
        <technique_common>
          <accessor source="#Motion_30_LHair_transform_interp_array_id" count="17" stride="1">
            <param name="INTERPOLATION" type="Name" />
          </accessor>
        </technique_common>
      </source>
      <source id="Motion_30_LHair_transform_pose_id" name="Motion_30_LHair_transform_pose">
        <float_array id="Motion_30_LHair_transform_pose_array_id" count="272">0.33380628 0.9233725 -0.18962228 11.479766 -0.66584504 0.37335956 0.6459513 -6.783258 0.66725093 -0.089363575 0.7394527 3.8249671 0 0 0 1 0.33940107 0.92137045 -0.18942916 11.479766 -0.6744377 0.37874323 0.6337881 -6.783258 0.65569866 -0.08735022 0.7499528 3.8249671 0 0 0 1 0.3520584 0.91684437 -0.18828528 11.479766 -0.69519675 0.39083904 0.60327965 -6.783258 0.6267027 -0.08149433 0.7749854 3.8249671 0 0 0 1 0.36930835 0.9104001 -0.18650214 11.479766 -0.72099763 0.40731633 0.56058526 -6.783258 0.58632225 -0.072561234 0.8068216 3.8249671 0 0 0 1 0.38809943 0.90284985 -0.18504304 11.479766 -0.74363106 0.42537653 0.51581746 -6.783258 0.5444187 -0.06258471 0.8364756 3.8249671 0 0 0 1 0.40598166 0.8948011 -0.18576828 11.479766 -0.7567715 0.4431243 0.48055983 -6.783258 0.51232386 -0.054514304 0.8570603 3.8249671 0 0 0 1 0.42143154 0.8864541 -0.19129713 11.479766 -0.7568741 0.4600132 0.46425146 -6.783258 0.4995368 -0.050862372 0.86479825 3.8249671 0 0 0 1 0.43724775 0.8779975 -0.19476847 11.479766 -0.7438139 0.47478414 0.47044754 -6.783258 0.50552475 -0.060830638 0.8606651 3.8249671 0 0 0 1 0.45515996 0.8690048 -0.19406188 11.479766 -0.72087604 0.48756993 0.49255788 -6.783258 0.52265394 -0.084298074 0.8483671 3.8249671 0 0 0 1 0.47234392 0.86024153 -0.1920305 11.479766 -0.6915456 0.49677378 0.5243858 -6.783258 0.5464942 -0.1148926 0.8295443 3.8249671 0 0 0 1 0.48589694 0.8529171 -0.1908835 11.479766 -0.65997696 0.5012295 0.5596422 -6.783258 0.57300484 -0.14594969 0.80645156 3.8249671 0 0 0 1 0.49310815 0.84843725 -0.1923502 11.479766 -0.6309691 0.50100726 0.5923426 -6.783258 0.59893435 -0.17072192 0.78238845 3.8249671 0 0 0 1 0.49260616 0.8474231 -0.19802338 11.479766 -0.6092434 0.49829936 0.6168632 -6.783258 0.6214191 -0.18322615 0.76175225 3.8249671 0 0 0 1 0.47776353 0.8539784 -0.20606546 11.479766 -0.60307634 0.48939365 0.62991494 -6.783258 0.63878083 -0.17667718 0.7488286 3.8249671 0 0 0 1 0.4254881 0.88209146 -0.20217443 11.479766 -0.62651354 0.44833392 0.6375559 -6.783258 0.65302426 -0.14460744 0.74340296 3.8249671 0 0 0 1 0.36391956 0.9110015 -0.19400725 11.479766 -0.6539251 0.3982172 0.6432767 -6.783258 0.6632831 -0.10723472 0.7406458 3.8249671 0 0 0 1 0.36391956 0.9110015 -0.19400725 11.479766 -0.6539251 0.3982172 0.6432767 -6.783258 0.6632831 -0.10723472 0.7406458 3.8249671 0 0 0 1</float_array>
        <technique_common>
          <accessor source="#Motion_30_LHair_transform_pose_array_id" count="17" stride="16">
            <param name="TRANSFORM" type="float4x4" />
          </accessor>
        </technique_common>
      </source>
      <sampler id="Motion_30_LHair_transform_samp_id">
        <input semantic="INPUT" source="#Motion_30_LHair_transform_frame_id" />
        <input semantic="INTERPOLATION" source="#Motion_30_LHair_transform_interp_id" />
        <input semantic="OUTPUT" source="#Motion_30_LHair_transform_pose_id" />
      </sampler>
      <channel source="#Motion_30_LHair_transform_samp_id" target="LHair_bone_id/transform" />
    </animation>
  </library_animations>
  <library_visual_scenes>
    <visual_scene id="pm0182_00_fi_00_clip_id" name="pm0182_00_fi_00_clip">
      <node id="pm0182_00_fi_bone_id" name="pm0182_00_fi" sid="pm0182_00_fi" type="JOINT">
        <matrix sid="transform">1 0 0 0 0 1 0 0 0 0 1 0 0 0 0 1</matrix>
        <node id="Origin_bone_id" name="Origin" sid="Origin" type="JOINT">
          <matrix sid="transform">1 0 0 0 0 1 0 0 0 0 1 0 0 0 0 1</matrix>
          <node id="Waist_bone_id" name="Waist" sid="Waist" type="JOINT">
            <matrix sid="transform">3.1391647E-07 -1 0 0 1 3.1391647E-07 0 21.928154 0 0 1 0 0 0 0 1</matrix>
            <node id="Head_bone_id" name="Head" sid="Head" type="JOINT">
              <matrix sid="transform">1 0 0 0 0 1 0 0 0 0 1 0 0 0 0 1</matrix>
              <node id="LHair_bone_id" name="LHair" sid="LHair" type="JOINT">
                <matrix sid="transform">0.4349103 0.8232605 -0.36482218 11.479766 -0.6307333 0.5676638 0.52908725 -6.783258 0.64267296 0 0.76614064 3.824967 0 0 0 1</matrix>
              </node>
              <node id="RHair_bone_id" name="RHair" sid="RHair" type="JOINT">
                <matrix sid="transform">0.4349103 -0.8232605 -0.36482218 11.479746 0.6307333 0.5676638 -0.52908725 6.78326 0.64267296 0 0.76614064 3.82497 0 0 0 1</matrix>
              </node>
              <node id="LArm_bone_id" name="LArm" sid="LArm" type="JOINT">
                <matrix sid="transform">0.0007607032 0.9990208 0.044236083 1.241335 -0.770436 -0.027615769 0.63691896 -4.3996 0.6375169 -0.034565575 0.76966053 4.890571 0 0 0 1</matrix>
                <node id="LForeArm_bone_id" name="LForeArm" sid="LForeArm" type="JOINT">
                  <matrix sid="transform">1 0 0 4.257445 0 1 0 0 0 0 1 0 0 0 0 1</matrix>
                </node>
              </node>
              <node id="RArm_bone_id" name="RArm" sid="RArm" type="JOINT">
                <matrix sid="transform">0.0007607032 -0.9990208 0.044236083 1.241346 0.770436 -0.027615769 -0.63691896 4.3996 0.6375169 0.034565575 0.76966053 4.89057 0 0 0 1</matrix>
                <node id="RForeArm_bone_id" name="RForeArm" sid="RForeArm" type="JOINT">
                  <matrix sid="transform">1 0 0 4.257444 0 1 0 3.9E-05 0 0 1 -4E-06 0 0 0 1</matrix>
                </node>
              </node>
              <node id="Loc_Head_bone_id" name="Loc_Head" sid="Loc_Head" type="JOINT">
                <matrix sid="transform">3.1391647E-07 1 0 17.005642 -1 3.1391647E-07 0 0 0 0 1 -0.003617 0 0 0 1</matrix>
              </node>
              <node id="Loc_Eye_bone_id" name="Loc_Eye" sid="Loc_Eye" type="JOINT">
                <matrix sid="transform">3.1391647E-07 1 0 6.925243 -1 3.1391647E-07 0 0 0 0 1 9.090524 0 0 0 1</matrix>
              </node>
              <node id="Loc_Mouth_bone_id" name="Loc_Mouth" sid="Loc_Mouth" type="JOINT">
                <matrix sid="transform">3.1391647E-07 1 0 4.915969 -1 3.1391647E-07 0 0 0 0 1 8.542155 0 0 0 1</matrix>
              </node>
            </node>
            <node id="Hips_bone_id" name="Hips" sid="Hips" type="JOINT">
              <matrix sid="transform">-1 3.2584137E-07 0 0 -3.2584137E-07 -1 0 0 0 0 1 0 0 0 0 1</matrix>
              <node id="FeelerA_bone_id" name="FeelerA" sid="FeelerA" type="JOINT">
                <matrix sid="transform">0.9926232 0 0.12124 9.718658 0 1 0 0 -0.12124 0 0.9926232 10.071114 0 0 0 1</matrix>
              </node>
              <node id="FeelerB_bone_id" name="FeelerB" sid="FeelerB" type="JOINT">
                <matrix sid="transform">0.9926232 -5.3073654E-06 0.12124 9.718657 -4.9631158E-06 -1 -3.1413817E-06 0 0.12124 2.5164802E-06 -0.9926232 -10.071114 0 0 0 1</matrix>
              </node>
              <node id="LFeelerA_bone_id" name="LFeelerA" sid="LFeelerA" type="JOINT">
                <matrix sid="transform">0.9802012 -0.19314203 -0.04361038 6.588299 0.1826455 0.7969141 0.57581997 7.025056 -0.0764613 -0.5723846 0.8164126 10.895967 0 0 0 1</matrix>
              </node>
              <node id="RFeelerA_bone_id" name="RFeelerA" sid="RFeelerA" type="JOINT">
                <matrix sid="transform">0.9802012 0.19314235 -0.043608207 6.588253 -0.18264449 0.79691404 -0.57582027 -7.025061 -0.07646329 0.57238454 0.8164125 10.896 0 0 0 1</matrix>
              </node>
              <node id="LFeelerB_bone_id" name="LFeelerB" sid="LFeelerB" type="JOINT">
                <matrix sid="transform">0.99884695 -0.00041045228 -0.048006535 6.076387 0.04800654 -4.3670556E-07 0.998847 13.008999 -0.00041 -0.99999994 1.9268191E-05 -0.009467 0 0 0 1</matrix>
              </node>
              <node id="RFeelerB_bone_id" name="RFeelerB" sid="RFeelerB" type="JOINT">
                <matrix sid="transform">0.9988469 0.00041045225 -0.048007533 6.076357 -0.048007537 -4.3711597E-07 -0.99884695 -13.009 -0.00041 0.99999994 1.9268191E-05 -0.009467 0 0 0 1</matrix>
              </node>
              <node id="LFeelerC_bone_id" name="LFeelerC" sid="LFeelerC" type="JOINT">
                <matrix sid="transform">0.97744817 0.20326927 -0.057242006 7.157976 0.19717404 -0.78141594 0.5920402 6.863004 0.07561376 -0.58997524 -0.803873 -10.129627 0 0 0 1</matrix>
              </node>
              <node id="RFeelerC_bone_id" name="RFeelerC" sid="RFeelerC" type="JOINT">
                <matrix sid="transform">0.9774483 -0.20326813 -0.057243578 7.157955 -0.19717407 -0.7814162 -0.5920399 -6.863 0.07561177 0.5899753 -0.8038731 -10.1296 0 0 0 1</matrix>
              </node>
              <node id="LFeelerD_bone_id" name="LFeelerD" sid="LFeelerD" type="JOINT">
                <matrix sid="transform">0.9999688 -0.00048679128 0.007876277 8.928975 -0.0063068867 0.5505944 0.8347491 6.677083 -0.0047429823 -0.83477277 0.5505742 5.611551 0 0 0 1</matrix>
              </node>
              <node id="RFeelerD_bone_id" name="RFeelerD" sid="RFeelerD" type="JOINT">
                <matrix sid="transform">0.9999688 0.00048679128 0.007876277 8.928954 0.0063068867 0.5505944 -0.8347491 -6.67708 -0.0047429823 0.83477277 0.5505742 5.61155 0 0 0 1</matrix>
              </node>
              <node id="LFeelerE_bone_id" name="LFeelerE" sid="LFeelerE" type="JOINT">
                <matrix sid="transform">0.9996206 0.026982721 -0.005532111 10.391635 0.01858109 -0.5123376 0.8585831 6.333902 0.020332599 -0.8583602 -0.51264465 -5.622462 0 0 0 1</matrix>
              </node>
              <node id="RFeelerE_bone_id" name="RFeelerE" sid="RFeelerE" type="JOINT">
                <matrix sid="transform">0.9996206 -0.026982373 -0.0055334815 10.391655 -0.018582087 -0.5123376 -0.8585831 -6.3339 0.020331599 0.8583602 -0.51264465 -5.622459 0 0 0 1</matrix>
              </node>
            </node>
          </node>
          <node id="CamTgtHead_bone_id" name="CamTgtHead" sid="CamTgtHead" type="JOINT">
            <matrix sid="transform">1 0 0 0 0 1 0 28.853397 0 0 1 9.090524 0 0 0 1</matrix>
          </node>
        </node>
        <node id="pm0182_00_fi_Skin_bone_id" name="pm0182_00_fi_Skin" sid="pm0182_00_fi_Skin" type="JOINT">
          <matrix sid="transform">1 0 0 0 0 1 0 0 0 0 1 0 0 0 0 1</matrix>
        </node>
      </node>
    </visual_scene>
  </library_visual_scenes>
  <scene>
    <instance_visual_scene url="#pm0182_00_fi_00_clip_id" />
  </scene>
</COLLADA>