<?xml version="1.0" encoding="utf-8"?>
<COLLADA xmlns:xsi="http://www.w3.org/2001/XMLSchema-instance" xmlns:xsd="http://www.w3.org/2001/XMLSchema" version="1.4.1" xmlns="http://www.collada.org/2005/11/COLLADASchema">
  <asset>
    <created>2026-02-17T05:46:53.3995928-05:00</created>
    <modified>2026-02-17T05:46:53.399593-05:00</modified>
    <up_axis>Y_UP</up_axis>
  </asset>
  <library_animations>
    <animation id="Motion_31_Waist_transform_id" name="Motion_31_Waist_transform">
      <source id="Motion_31_Waist_transform_frame_id" name="Motion_31_Waist_transform_frame">
        <float_array id="Motion_31_Waist_transform_frame_array_id" count="17">0 0.033333335 0.06666667 0.1 0.13333334 0.16666667 0.2 0.23333333 0.26666668 0.3 0.33333334 0.36666667 0.4 0.43333334 0.46666667 0.5 0.53333336</float_array>
        <technique_common>
          <accessor source="#Motion_31_Waist_transform_frame_array_id" count="17" stride="1">
            <param name="TIME" type="float" />
          </accessor>
        </technique_common>
      </source>
      <source id="Motion_31_Waist_transform_interp_id" name="Motion_31_Waist_transform_interp">
        <Name_array id="Motion_31_Waist_transform_interp_array_id" count="17">LINEAR LINEAR LINEAR LINEAR LINEAR LINEAR LINEAR LINEAR LINEAR LINEAR LINEAR LINEAR LINEAR LINEAR LINEAR LINEAR LINEAR</Name_array>
        <technique_common>
          <accessor source="#Motion_31_Waist_transform_interp_array_id" count="17" stride="1">
            <param name="INTERPOLATION" type="Name" />
          </accessor>
        </technique_common>
      </source>
      <source id="Motion_31_Waist_transform_pose_id" name="Motion_31_Waist_transform_pose">
        <float_array id="Motion_31_Waist_transform_pose_array_id" count="272">-0.0051327944 -0.7761894 0.630479 4.9995875 0.99959034 0.01377213 0.025092691 87.94991 -0.028159708 0.6303495 0.7758006 -1.4242508 0 0 0 1 0.0030552149 -0.813016 0.5822333 5.203133 0.99977285 0.01476419 0.01537022 87.88542 -0.021092445 0.58205414 0.81287646 -2.002258 0 0 0 1 0.012391508 -0.8273071 0.5616132 5.666573 0.99988186 0.015363514 0.00057035685 87.73707 -0.009100199 0.56153977 0.82739973 -3.239348 0 0 0 1 0.019991815 -0.835664 0.5488771 6.377793 0.9997974 0.015416145 -0.012944698 87.55617 0.0023558438 0.54902464 0.8358028 -4.423298 0 0 0 1 0.023243368 -0.8408828 0.54071796 7.0517 0.999702 0.015511334 -0.01885122 87.41816 0.0074644387 0.54099494 0.8409927 -4.8452253 0 0 0 1 0.020979822 -0.8437391 0.5363434 7.1700206 0.99975735 0.014096379 -0.016931504 87.37038 0.0067252517 0.5365684 0.84383 -4.106024 0 0 0 1 0.014804006 -0.84610087 0.53281724 6.495573 0.99988574 0.01089102 -0.010486573 87.392685 0.0030697882 0.53291154 0.84616536 -2.6081176 0 0 0 1 0.0065464973 -0.8476613 0.53049743 5.128723 0.999975 0.0069783926 -0.0011895895 87.45928 -0.0026936233 0.53049195 0.8476857 -0.88138056 0 0 0 1 -0.0012395382 -0.8482661 0.5295688 3.3718185 0.99994934 0.0042378902 0.009128839 87.55696 -0.00998798 0.5295533 0.84821784 0.5487218 0 0 0 1 -0.007614374 -0.84495234 0.5347873 1.670934 0.9998027 0.0033774376 0.019571632 87.72211 -0.01834327 0.5348308 0.84476 1.3393502 0 0 0 1 -0.016856551 -0.8348665 0.5501944 0.47107422 0.99952555 0.00011706352 0.030800581 87.98554 -0.0257788 0.5504525 0.8344684 1.3615122 0 0 0 1 -0.017679214 -0.8378431 0.54562473 0.082152694 0.9993246 0.0027754307 0.036641777 88.18929 -0.032214373 0.545904 0.8372282 0.7956276 0 0 0 1 -0.019674897 -0.84318036 0.53727055 0.12357565 0.9991141 0.0034125447 0.041943178 88.27723 -0.03719911 0.53761977 0.8423664 0.10619074 0 0 0 1 -0.019552588 -0.84109384 0.5405357 0.68922067 0.99904317 0.004718125 0.04347959 88.26084 -0.039120734 0.54086864 0.84019685 -0.5914769 0 0 0 1 -0.015778065 -0.80060315 0.5989872 2.287952 0.9992738 0.008153856 0.037220478 88.146835 -0.0346829 0.5991395 0.7998931 -1.1848271 0 0 0 1 -0.0098952055 -0.760077 0.64975774 4.0799546 0.9995023 0.011947334 0.029197335 88.01517 -0.029955149 0.64972323 0.75958043 -1.4307857 0 0 0 1 -0.0098952055 -0.760077 0.64975774 4.0799546 0.9995023 0.011947334 0.029197335 88.01517 -0.029955149 0.64972323 0.75958043 -1.4307857 0 0 0 1</float_array>
        <technique_common>
          <accessor source="#Motion_31_Waist_transform_pose_array_id" count="17" stride="16">
            <param name="TRANSFORM" type="float4x4" />
          </accessor>
        </technique_common>
      </source>
      <sampler id="Motion_31_Waist_transform_samp_id">
        <input semantic="INPUT" source="#Motion_31_Waist_transform_frame_id" />
        <input semantic="INTERPOLATION" source="#Motion_31_Waist_transform_interp_id" />
        <input semantic="OUTPUT" source="#Motion_31_Waist_transform_pose_id" />
      </sampler>
      <channel source="#Motion_31_Waist_transform_samp_id" target="Waist_bone_id/transform" />
    </animation>
    <animation id="Motion_31_Spine2_transform_id" name="Motion_31_Spine2_transform">
      <source id="Motion_31_Spine2_transform_frame_id" name="Motion_31_Spine2_transform_frame">
        <float_array id="Motion_31_Spine2_transform_frame_array_id" count="17">0 0.033333335 0.06666667 0.1 0.13333334 0.16666667 0.2 0.23333333 0.26666668 0.3 0.33333334 0.36666667 0.4 0.43333334 0.46666667 0.5 0.53333336</float_array>
        <technique_common>
          <accessor source="#Motion_31_Spine2_transform_frame_array_id" count="17" stride="1">
            <param name="TIME" type="float" />
          </accessor>
        </technique_common>
      </source>
      <source id="Motion_31_Spine2_transform_interp_id" name="Motion_31_Spine2_transform_interp">
        <Name_array id="Motion_31_Spine2_transform_interp_array_id" count="17">LINEAR LINEAR LINEAR LINEAR LINEAR LINEAR LINEAR LINEAR LINEAR LINEAR LINEAR LINEAR LINEAR LINEAR LINEAR LINEAR LINEAR</Name_array>
        <technique_common>
          <accessor source="#Motion_31_Spine2_transform_interp_array_id" count="17" stride="1">
            <param name="INTERPOLATION" type="Name" />
          </accessor>
        </technique_common>
      </source>
      <source id="Motion_31_Spine2_transform_pose_id" name="Motion_31_Spine2_transform_pose">
        <float_array id="Motion_31_Spine2_transform_pose_array_id" count="272">0.9955694 0.0037796798 0.093953505 12.099998 -0.0027767632 0.9999378 -0.010803048 0 -0.09398849 0.010494297 0.99551797 0 0 0 0 1 0.9957528 0.0051888544 0.09192085 12.099998 -0.003722528 0.9998632 -0.01611633 0 -0.0919919 0.015705703 0.99563587 0 0 0 0 1 0.99631006 0.0074629737 0.085501805 12.099998 -0.0048528863 0.999517 -0.030693978 0 -0.085689574 0.030165788 0.9958651 0 0 0 0 1 0.9970832 0.01015787 0.075643785 12.099998 -0.006417876 0.9987524 -0.049522135 0 -0.07605245 0.04889222 0.9959044 0 0 0 0 1 0.9978914 0.0128897885 0.063612975 12.099998 -0.008607102 0.9977061 -0.06714462 0 -0.06433254 0.06645551 0.9957133 0 0 0 0 1 0.9986336 0.0153335985 0.04995714 12.099998 -0.011253621 0.99665457 -0.08095053 0 -0.051031277 0.080277726 0.99546534 0 0 0 0 1 0.99923104 0.017314317 0.035179522 12.099998 -0.01403675 0.9957184 -0.09136641 0 -0.036610845 0.09080234 0.99519575 0 0 0 0 1 0.99961215 0.018852465 0.020497926 12.099998 -0.016737767 0.9949616 -0.09884925 0 -0.022258203 0.09846783 0.9948913 0 0 0 0 1 0.99977577 0.019972771 0.0070399763 12.099998 -0.019134164 0.9944074 -0.103864156 0 -0.00907506 0.10370616 0.99456656 0 0 0 0 1 0.999778 0.020701068 -0.0039328923 12.099998 -0.021002917 0.9940496 -0.10688443 0 0.0016968682 0.1069433 0.99426365 0 0 0 0 1 0.99971765 0.021057341 -0.011007412 12.099998 -0.022127423 0.99386233 -0.10838852 0 0.008657479 0.10860149 0.99404764 0 0 0 0 1 0.99969697 0.02104402 -0.012771947 12.099998 -0.022308826 0.9938274 -0.10867111 0 0.010406233 0.1089231 0.9939957 0 0 0 0 1 0.9997512 0.020888794 -0.007825271 12.099998 -0.02161019 0.9939555 -0.1076358 0 0.005529589 0.107778125 0.9941596 0 0 0 0 1 0.999807 0.018998418 0.00500306 12.099998 -0.018399265 0.99476 -0.10056871 0 -0.00688749 0.10045725 0.9949175 0 0 0 0 1 0.9991375 0.013523646 0.039260317 12.099998 -0.010823447 0.9976135 -0.06819252 0 -0.04008883 0.06770877 0.9968994 0 0 0 0 1 0.99704045 0.0068581305 0.07657205 12.099998 -0.0046059056 0.99955267 -0.029551098 0 -0.076740466 0.029110959 0.996626 0 0 0 0 1 0.99704045 0.0068581305 0.07657205 12.099998 -0.0046059056 0.99955267 -0.029551098 0 -0.076740466 0.029110959 0.996626 0 0 0 0 1</float_array>
        <technique_common>
          <accessor source="#Motion_31_Spine2_transform_pose_array_id" count="17" stride="16">
            <param name="TRANSFORM" type="float4x4" />
          </accessor>
        </technique_common>
      </source>
      <sampler id="Motion_31_Spine2_transform_samp_id">
        <input semantic="INPUT" source="#Motion_31_Spine2_transform_frame_id" />
        <input semantic="INTERPOLATION" source="#Motion_31_Spine2_transform_interp_id" />
        <input semantic="OUTPUT" source="#Motion_31_Spine2_transform_pose_id" />
      </sampler>
      <channel source="#Motion_31_Spine2_transform_samp_id" target="Spine2_bone_id/transform" />
    </animation>
    <animation id="Motion_31_Spine3_transform_id" name="Motion_31_Spine3_transform">
      <source id="Motion_31_Spine3_transform_frame_id" name="Motion_31_Spine3_transform_frame">
        <float_array id="Motion_31_Spine3_transform_frame_array_id" count="17">0 0.033333335 0.06666667 0.1 0.13333334 0.16666667 0.2 0.23333333 0.26666668 0.3 0.33333334 0.36666667 0.4 0.43333334 0.46666667 0.5 0.53333336</float_array>
        <technique_common>
          <accessor source="#Motion_31_Spine3_transform_frame_array_id" count="17" stride="1">
            <param name="TIME" type="float" />
          </accessor>
        </technique_common>
      </source>
      <source id="Motion_31_Spine3_transform_interp_id" name="Motion_31_Spine3_transform_interp">
        <Name_array id="Motion_31_Spine3_transform_interp_array_id" count="17">LINEAR LINEAR LINEAR LINEAR LINEAR LINEAR LINEAR LINEAR LINEAR LINEAR LINEAR LINEAR LINEAR LINEAR LINEAR LINEAR LINEAR</Name_array>
        <technique_common>
          <accessor source="#Motion_31_Spine3_transform_interp_array_id" count="17" stride="1">
            <param name="INTERPOLATION" type="Name" />
          </accessor>
        </technique_common>
      </source>
      <source id="Motion_31_Spine3_transform_pose_id" name="Motion_31_Spine3_transform_pose">
        <float_array id="Motion_31_Spine3_transform_pose_array_id" count="272">0.97747844 0.003308358 0.21100923 12.1 -0.0026111414 0.99999017 -0.0035827388 0 -0.21101901 0.0029510753 0.9774775 0 0 0 0 1 0.97812515 0.002791739 0.20799847 12.1 0.00035345147 0.9998862 -0.0150825195 0 -0.20801692 0.01482611 0.97801286 0 0 0 0 1 0.979926 0.0029262654 0.19934025 12.1 0.00542279 0.9991311 -0.041324597 0 -0.19928795 0.041576024 0.9790586 0 0 0 0 1 0.9819047 0.0028391723 0.18935448 12.1 0.011249984 0.9972472 -0.07328988 0 -0.18904132 0.074093916 0.9791698 0 0 0 0 1 0.9831832 0.0020307917 0.18261078 12.1 0.016853878 0.99466175 -0.1018034 0 -0.18184271 0.10316909 0.9779005 0 0 0 0 1 0.98389924 -2.2633001E-05 0.17872405 12.1 0.022392679 0.9921355 -0.123148985 0 -0.17731568 0.12516831 0.9761619 0 0 0 0 1 0.98425007 -0.003257609 0.1767518 12.1 0.028281566 0.9898542 -0.13924369 0 -0.17450492 0.14204943 0.9743562 0 0 0 0 1 0.984419 -0.007078234 0.17569628 12.1 0.03414674 0.9878634 -0.15152495 0 -0.1724914 0.15516348 0.97271323 0 0 0 0 1 0.9844985 -0.011010324 0.175047 12.1 0.039497953 0.98630923 -0.1601061 0 -0.17088766 0.1645382 0.97145486 0 0 0 0 1 0.9844888 -0.014512963 0.17484623 12.1 0.043912236 0.98523617 -0.16547348 0 -0.16986331 0.17058466 0.97059125 0 0 0 0 1 0.9844355 -0.017069183 0.17491531 12.1 0.04694341 0.9846493 -0.1681134 0 -0.16936067 0.17370792 0.970125 0 0 0 0 1 0.98438597 -0.018183477 0.17508164 12.1 0.048123136 0.9845577 -0.16831611 0 -0.1693174 0.1741135 0.9700599 0 0 0 0 1 0.9843591 -0.018085882 0.17524303 12.1 0.046284005 0.9863235 -0.15818916 0 -0.16998534 0.16382588 0.9717335 0 0 0 0 1 0.98400813 -0.016672682 0.17734136 12.1 0.041067738 0.9900221 -0.13479464 0 -0.17332448 0.13992204 0.97487456 0 0 0 0 1 0.98187953 -0.009021607 0.1892914 12.1 0.025195312 0.9962133 -0.083211996 0 -0.1878239 0.08647341 0.9783887 0 0 0 0 1 0.97905564 -0.000865442 0.20359106 12.1 0.0068552652 0.99956405 -0.028717475 0 -0.20347746 0.029511677 0.9786348 0 0 0 0 1 0.97905564 -0.000865442 0.20359106 12.1 0.0068552652 0.99956405 -0.028717475 0 -0.20347746 0.029511677 0.9786348 0 0 0 0 1</float_array>
        <technique_common>
          <accessor source="#Motion_31_Spine3_transform_pose_array_id" count="17" stride="16">
            <param name="TRANSFORM" type="float4x4" />
          </accessor>
        </technique_common>
      </source>
      <sampler id="Motion_31_Spine3_transform_samp_id">
        <input semantic="INPUT" source="#Motion_31_Spine3_transform_frame_id" />
        <input semantic="INTERPOLATION" source="#Motion_31_Spine3_transform_interp_id" />
        <input semantic="OUTPUT" source="#Motion_31_Spine3_transform_pose_id" />
      </sampler>
      <channel source="#Motion_31_Spine3_transform_samp_id" target="Spine3_bone_id/transform" />
    </animation>
    <animation id="Motion_31_Neck_transform_id" name="Motion_31_Neck_transform">
      <source id="Motion_31_Neck_transform_frame_id" name="Motion_31_Neck_transform_frame">
        <float_array id="Motion_31_Neck_transform_frame_array_id" count="17">0 0.033333335 0.06666667 0.1 0.13333334 0.16666667 0.2 0.23333333 0.26666668 0.3 0.33333334 0.36666667 0.4 0.43333334 0.46666667 0.5 0.53333336</float_array>
        <technique_common>
          <accessor source="#Motion_31_Neck_transform_frame_array_id" count="17" stride="1">
            <param name="TIME" type="float" />
          </accessor>
        </technique_common>
      </source>
      <source id="Motion_31_Neck_transform_interp_id" name="Motion_31_Neck_transform_interp">
        <Name_array id="Motion_31_Neck_transform_interp_array_id" count="17">LINEAR LINEAR LINEAR LINEAR LINEAR LINEAR LINEAR LINEAR LINEAR LINEAR LINEAR LINEAR LINEAR LINEAR LINEAR LINEAR LINEAR</Name_array>
        <technique_common>
          <accessor source="#Motion_31_Neck_transform_interp_array_id" count="17" stride="1">
            <param name="INTERPOLATION" type="Name" />
          </accessor>
        </technique_common>
      </source>
      <source id="Motion_31_Neck_transform_pose_id" name="Motion_31_Neck_transform_pose">
        <float_array id="Motion_31_Neck_transform_pose_array_id" count="272">0.89843595 -0.0002988057 -0.4391045 15.720233 -0.0007565518 0.99999726 -0.0022284403 0 0.43910396 0.0023343163 0.8984332 0 0 0 0 1 0.9012979 0.0025886835 -0.433192 15.720233 -0.009507296 0.9998595 -0.013805856 0 0.4330954 0.016561674 0.90119594 0 0 0 0 1 0.9062841 0.0043185493 -0.42264703 15.720233 -0.022024646 0.99907184 -0.037019182 0 0.42209485 0.042858545 0.905538 0 0 0 0 1 0.91215533 0.0058304705 -0.40980318 15.720233 -0.037046872 0.9969784 -0.068275824 0 0.40816686 0.07746008 0.90961516 0 0 0 0 1 0.917553 0.0083510205 -0.39752576 15.720233 -0.052990496 0.99342924 -0.101441085 0 0.3940666 0.11414266 0.91196656 0 0 0 0 1 0.9217414 0.011936469 -0.38762125 15.720233 -0.06822112 0.9889296 -0.13177271 0 0.38175723 0.14790432 0.9123517 0 0 0 0 1 0.9243498 0.016347297 -0.38119575 15.720233 -0.08055817 0.98492086 -0.15310542 0 0.3729448 0.17223139 0.9117283 0 0 0 0 1 0.92471856 0.02136331 -0.3800516 15.720233 -0.08860263 0.9830801 -0.16032204 0 0.37019616 0.18192634 0.9109652 0 0 0 0 1 0.9226684 0.02555767 -0.38474646 15.720233 -0.09412189 0.9825465 -0.16044772 0 0.3739306 0.1842531 0.9089701 0 0 0 0 1 0.91899323 0.028431986 -0.39324674 15.720233 -0.09880644 0.982177 -0.15989251 0 0.38169184 0.18579544 0.9054233 0 0 0 0 1 0.9145087 0.03004855 -0.40344885 15.720233 -0.10223831 0.98203444 -0.15860528 0 0.39143482 0.18629384 0.9011512 0 0 0 0 1 0.9101034 0.03029856 -0.41327217 15.720233 -0.10392144 0.98213965 -0.15685025 0 0.40113863 0.18569776 0.8969973 0 0 0 0 1 0.90684193 0.02418767 -0.42077622 15.720233 -0.09138602 0.9858855 -0.14027981 0 0.4114441 0.16566469 0.89625275 0 0 0 0 1 0.90420574 0.01484579 -0.426839 15.720233 -0.06788878 0.9916853 -0.109322414 0 0.42166698 0.12782754 0.8976954 0 0 0 0 1 0.90171313 0.007579569 -0.43226844 15.720233 -0.03868715 0.9972498 -0.06321532 0 0.43060046 0.07372532 0.8995265 0 0 0 0 1 0.89971447 0.0018597585 -0.43647498 15.720233 -0.012274088 0.9997033 -0.021041226 0 0.43630636 0.024288427 0.8994703 0 0 0 0 1 0.89971447 0.0018597585 -0.43647498 15.720233 -0.012274088 0.9997033 -0.021041226 0 0.43630636 0.024288427 0.8994703 0 0 0 0 1</float_array>
        <technique_common>
          <accessor source="#Motion_31_Neck_transform_pose_array_id" count="17" stride="16">
            <param name="TRANSFORM" type="float4x4" />
          </accessor>
        </technique_common>
      </source>
      <sampler id="Motion_31_Neck_transform_samp_id">
        <input semantic="INPUT" source="#Motion_31_Neck_transform_frame_id" />
        <input semantic="INTERPOLATION" source="#Motion_31_Neck_transform_interp_id" />
        <input semantic="OUTPUT" source="#Motion_31_Neck_transform_pose_id" />
      </sampler>
      <channel source="#Motion_31_Neck_transform_samp_id" target="Neck_bone_id/transform" />
    </animation>
    <animation id="Motion_31_Head_transform_id" name="Motion_31_Head_transform">
      <source id="Motion_31_Head_transform_frame_id" name="Motion_31_Head_transform_frame">
        <float_array id="Motion_31_Head_transform_frame_array_id" count="17">0 0.033333335 0.06666667 0.1 0.13333334 0.16666667 0.2 0.23333333 0.26666668 0.3 0.33333334 0.36666667 0.4 0.43333334 0.46666667 0.5 0.53333336</float_array>
        <technique_common>
          <accessor source="#Motion_31_Head_transform_frame_array_id" count="17" stride="1">
            <param name="TIME" type="float" />
          </accessor>
        </technique_common>
      </source>
      <source id="Motion_31_Head_transform_interp_id" name="Motion_31_Head_transform_interp">
        <Name_array id="Motion_31_Head_transform_interp_array_id" count="17">LINEAR LINEAR LINEAR LINEAR LINEAR LINEAR LINEAR LINEAR LINEAR LINEAR LINEAR LINEAR LINEAR LINEAR LINEAR LINEAR LINEAR</Name_array>
        <technique_common>
          <accessor source="#Motion_31_Head_transform_interp_array_id" count="17" stride="1">
            <param name="INTERPOLATION" type="Name" />
          </accessor>
        </technique_common>
      </source>
      <source id="Motion_31_Head_transform_pose_id" name="Motion_31_Head_transform_pose">
        <float_array id="Motion_31_Head_transform_pose_array_id" count="272">0.9511376 -0.26590738 0.15694103 5.129917 0.10540261 0.7573667 0.6444269 0 -0.29021975 -0.5963966 0.74838734 0 0 0 0 1 0.9496453 -0.27196983 0.15558371 5.129917 0.11951799 0.77343607 0.62250465 0 -0.28963652 -0.5725636 0.7669952 0 0 0 0 1 0.9474306 -0.27266166 0.16742423 5.129917 0.1427257 0.8284659 0.5415475 0 -0.2863645 -0.4891829 0.82382977 0 0 0 0 1 0.94533557 -0.2625293 0.19344005 5.129917 0.16176556 0.8925915 0.42084718 0 -0.28314766 -0.36654985 0.88626665 0 0 0 0 1 0.9454786 -0.23748925 0.2228655 5.129917 0.16503921 0.9393045 0.30078083 0 -0.28077078 -0.2476003 0.92728734 0 0 0 0 1 0.94716054 -0.21004851 0.24241802 5.129917 0.15082817 0.95864886 0.24133632 0 -0.2830861 -0.19202077 0.9396756 0 0 0 0 1 0.9480468 -0.18996899 0.2551844 5.129917 0.12706439 0.9614893 0.24370676 0 -0.2916538 -0.19862056 0.93567514 0 0 0 0 1 0.947006 -0.17696598 0.26807225 5.129917 0.10589829 0.95990056 0.25956973 0 -0.3032577 -0.2174257 0.927772 0 0 0 0 1 0.9440387 -0.17595863 0.2789793 5.129917 0.090697646 0.95169497 0.29334384 0 -0.3171196 -0.25162518 0.9143959 0 0 0 0 1 0.94019103 -0.18475154 0.2861953 5.129917 0.076833814 0.93351316 0.35021383 0 -0.33186963 -0.3072784 0.89187586 0 0 0 0 1 0.93645763 -0.20018534 0.28805017 5.129917 0.059778586 0.9002311 0.4312893 0 -0.34564954 -0.3866649 0.85499513 0 0 0 0 1 0.9332062 -0.21414068 0.28856543 5.129917 0.045166947 0.86657184 0.49700418 0 -0.35649148 -0.45077375 0.8183623 0 0 0 0 1 0.9311043 -0.22598286 0.28631544 5.129917 0.03701444 0.83944404 0.54218405 0 -0.3628701 -0.49423212 0.78997463 0 0 0 0 1 0.93106496 -0.23665458 0.2776917 5.129917 0.03605347 0.8170563 0.57542956 0 -0.36306778 -0.5257505 0.7692647 0 0 0 0 1 0.9382838 -0.24940494 0.23962626 5.129917 0.053719163 0.7895088 0.6113837 0 -0.34166917 -0.56077886 0.75418115 0 0 0 0 1 0.9474772 -0.26095605 0.18490237 5.129917 0.08701895 0.7666718 0.6361149 0 -0.30775744 -0.5866143 0.7491121 0 0 0 0 1 0.9474772 -0.26095605 0.18490237 5.129917 0.08701895 0.7666718 0.6361149 0 -0.30775744 -0.5866143 0.7491121 0 0 0 0 1</float_array>
        <technique_common>
          <accessor source="#Motion_31_Head_transform_pose_array_id" count="17" stride="16">
            <param name="TRANSFORM" type="float4x4" />
          </accessor>
        </technique_common>
      </source>
      <sampler id="Motion_31_Head_transform_samp_id">
        <input semantic="INPUT" source="#Motion_31_Head_transform_frame_id" />
        <input semantic="INTERPOLATION" source="#Motion_31_Head_transform_interp_id" />
        <input semantic="OUTPUT" source="#Motion_31_Head_transform_pose_id" />
      </sampler>
      <channel source="#Motion_31_Head_transform_samp_id" target="Head_bone_id/transform" />
    </animation>
    <animation id="Motion_31_Loc_Eye_transform_id" name="Motion_31_Loc_Eye_transform">
      <source id="Motion_31_Loc_Eye_transform_frame_id" name="Motion_31_Loc_Eye_transform_frame">
        <float_array id="Motion_31_Loc_Eye_transform_frame_array_id" count="17">0 0.033333335 0.06666667 0.1 0.13333334 0.16666667 0.2 0.23333333 0.26666668 0.3 0.33333334 0.36666667 0.4 0.43333334 0.46666667 0.5 0.53333336</float_array>
        <technique_common>
          <accessor source="#Motion_31_Loc_Eye_transform_frame_array_id" count="17" stride="1">
            <param name="TIME" type="float" />
          </accessor>
        </technique_common>
      </source>
      <source id="Motion_31_Loc_Eye_transform_interp_id" name="Motion_31_Loc_Eye_transform_interp">
        <Name_array id="Motion_31_Loc_Eye_transform_interp_array_id" count="17">LINEAR LINEAR LINEAR LINEAR LINEAR LINEAR LINEAR LINEAR LINEAR LINEAR LINEAR LINEAR LINEAR LINEAR LINEAR LINEAR LINEAR</Name_array>
        <technique_common>
          <accessor source="#Motion_31_Loc_Eye_transform_interp_array_id" count="17" stride="1">
            <param name="INTERPOLATION" type="Name" />
          </accessor>
        </technique_common>
      </source>
      <source id="Motion_31_Loc_Eye_transform_pose_id" name="Motion_31_Loc_Eye_transform_pose">
        <float_array id="Motion_31_Loc_Eye_transform_pose_array_id" count="272">7.1525574E-06 50 0 9.585958 -20 1.7881393E-05 0 0 0 0 400 13.348955 0 0 0 1 7.1535587E-06 50.0028 0 9.585958 -20.0028 1.7882394E-05 0 0 0 0 400.0028 13.348955 0 0 0 1 7.155054E-06 50.00698 0 9.585958 -20.00698 1.7883889E-05 0 0 0 0 400.007 13.348955 0 0 0 1 7.156971E-06 50.012344 0 9.585958 -20.012342 1.7885808E-05 0 0 0 0 400.01233 13.348955 0 0 0 1 7.159242E-06 50.018692 0 9.585958 -20.018692 1.7888078E-05 0 0 0 0 400.01868 13.348955 0 0 0 1 7.1617947E-06 50.02583 0 9.585958 -20.02583 1.789063E-05 0 0 0 0 400.02582 13.348955 0 0 0 1 7.1645586E-06 50.033554 0 9.585958 -20.033558 1.7893393E-05 0 0 0 0 400.03357 13.348955 0 0 0 1 7.167464E-06 50.04168 0 9.585958 -20.041681 1.7896298E-05 0 0 0 0 400.0417 13.348955 0 0 0 1 7.1704385E-06 50.05 0 9.585958 -20.05 1.7899274E-05 0 0 0 0 400.05 13.348955 0 0 0 1 7.173414E-06 50.05832 0 9.585958 -20.05832 1.790225E-05 0 0 0 0 400.05832 13.348955 0 0 0 1 7.176319E-06 50.066444 0 9.585958 -20.066442 1.7905157E-05 0 0 0 0 400.06644 13.348955 0 0 0 1 7.179083E-06 50.07417 0 9.585958 -20.074171 1.7907918E-05 0 0 0 0 400.0742 13.348955 0 0 0 1 7.1816357E-06 50.081306 0 9.585958 -20.081308 1.7910472E-05 0 0 0 0 400.0813 13.348955 0 0 0 1 7.1839063E-06 50.087654 0 9.585958 -20.087658 1.7912742E-05 0 0 0 0 400.08768 13.348955 0 0 0 1 7.185824E-06 50.093018 0 9.585958 -20.09302 1.791466E-05 0 0 0 0 400.09302 13.348955 0 0 0 1 7.187319E-06 50.0972 0 9.585958 -20.0972 1.7916154E-05 0 0 0 0 400.0972 13.348955 0 0 0 1 7.187319E-06 50.0972 0 9.585958 -20.0972 1.7916154E-05 0 0 0 0 400.0972 13.348955 0 0 0 1</float_array>
        <technique_common>
          <accessor source="#Motion_31_Loc_Eye_transform_pose_array_id" count="17" stride="16">
            <param name="TRANSFORM" type="float4x4" />
          </accessor>
        </technique_common>
      </source>
      <sampler id="Motion_31_Loc_Eye_transform_samp_id">
        <input semantic="INPUT" source="#Motion_31_Loc_Eye_transform_frame_id" />
        <input semantic="INTERPOLATION" source="#Motion_31_Loc_Eye_transform_interp_id" />
        <input semantic="OUTPUT" source="#Motion_31_Loc_Eye_transform_pose_id" />
      </sampler>
      <channel source="#Motion_31_Loc_Eye_transform_samp_id" target="Loc_Eye_bone_id/transform" />
    </animation>
    <animation id="Motion_31_LShoulder_transform_id" name="Motion_31_LShoulder_transform">
      <source id="Motion_31_LShoulder_transform_frame_id" name="Motion_31_LShoulder_transform_frame">
        <float_array id="Motion_31_LShoulder_transform_frame_array_id" count="17">0 0.033333335 0.06666667 0.1 0.13333334 0.16666667 0.2 0.23333333 0.26666668 0.3 0.33333334 0.36666667 0.4 0.43333334 0.46666667 0.5 0.53333336</float_array>
        <technique_common>
          <accessor source="#Motion_31_LShoulder_transform_frame_array_id" count="17" stride="1">
            <param name="TIME" type="float" />
          </accessor>
        </technique_common>
      </source>
      <source id="Motion_31_LShoulder_transform_interp_id" name="Motion_31_LShoulder_transform_interp">
        <Name_array id="Motion_31_LShoulder_transform_interp_array_id" count="17">LINEAR LINEAR LINEAR LINEAR LINEAR LINEAR LINEAR LINEAR LINEAR LINEAR LINEAR LINEAR LINEAR LINEAR LINEAR LINEAR LINEAR</Name_array>
        <technique_common>
          <accessor source="#Motion_31_LShoulder_transform_interp_array_id" count="17" stride="1">
            <param name="INTERPOLATION" type="Name" />
          </accessor>
        </technique_common>
      </source>
      <source id="Motion_31_LShoulder_transform_pose_id" name="Motion_31_LShoulder_transform_pose">
        <float_array id="Motion_31_LShoulder_transform_pose_array_id" count="272">-0.5907439 0.79653484 -0.12866019 14.14009 -0.77284354 -0.6044109 -0.1933907 -3.930001 -0.23180608 -0.014810212 0.9726493 -0.201936 0 0 0 1 -0.59253216 0.7952262 -0.12853418 14.14009 -0.77192545 -0.6061437 -0.19162756 -3.930001 -0.23029743 -0.014326684 0.97301483 -0.201936 0 0 0 1 -0.59507346 0.7933396 -0.1284506 14.14009 -0.7703899 -0.6086161 -0.18996203 -3.930001 -0.22888154 -0.014084339 0.9733524 -0.201936 0 0 0 1 -0.59817946 0.791009 -0.12839837 14.14009 -0.76832753 -0.6116406 -0.18859664 -3.930001 -0.2277153 -0.0141626075 0.97362477 -0.201936 0 0 0 1 -0.6011257 0.7887948 -0.12826024 14.14009 -0.76627094 -0.6144842 -0.18771803 -3.930001 -0.22688489 -0.014560036 0.97381276 -0.201936 0 0 0 1 -0.60340345 0.78712225 -0.12783763 14.14009 -0.7646265 -0.61660516 -0.18746755 -3.930001 -0.22638527 -0.015370548 0.97391653 -0.201936 0 0 0 1 -0.60457015 0.78622603 -0.12784374 14.14009 -0.76333964 -0.61771333 -0.18905859 -3.930001 -0.22761351 -0.016710937 0.97360814 -0.201936 0 0 0 1 -0.60415936 0.7865564 -0.12775202 14.14009 -0.7618781 -0.6171447 -0.1966579 -3.930001 -0.23352401 -0.021481246 0.9721137 -0.201936 0 0 0 1 -0.6029464 0.78748393 -0.12776807 14.14009 -0.7600777 -0.6156888 -0.20786816 -3.930001 -0.24235821 -0.028219685 0.96977633 -0.201936 0 0 0 1 -0.6015669 0.7885109 -0.12793644 14.14009 -0.75826573 -0.6140368 -0.2190707 -3.930001 -0.25129732 -0.034775883 0.96728504 -0.201936 0 0 0 1 -0.6006757 0.78920627 -0.12783468 14.14009 -0.75671566 -0.6128228 -0.2276603 -3.930001 -0.25801098 -0.04001555 0.96531296 -0.201936 0 0 0 1 -0.6009908 0.7889121 -0.1281696 14.14009 -0.7557493 -0.6131084 -0.23008865 -3.930001 -0.26010162 -0.0414171 0.9646926 -0.201936 0 0 0 1 -0.60140955 0.7886004 -0.12812337 14.14009 -0.75561005 -0.61352587 -0.22943227 -3.930001 -0.25953743 -0.041171476 0.964855 -0.201936 0 0 0 1 -0.60125434 0.78868586 -0.12832639 14.14009 -0.7566888 -0.6135837 -0.22569269 -3.930001 -0.25673962 -0.038595594 0.9657097 -0.201936 0 0 0 1 -0.5975628 0.791469 -0.12843418 14.14009 -0.76279056 -0.61050117 -0.21316335 -3.930001 -0.24712142 -0.029410116 0.9685381 -0.201936 0 0 0 1 -0.59301305 0.79486454 -0.12855239 14.14009 -0.7696012 -0.6064725 -0.19976236 -3.930001 -0.23674752 -0.019527614 0.9713749 -0.201936 0 0 0 1 -0.59301305 0.79486454 -0.12855239 14.14009 -0.7696012 -0.6064725 -0.19976236 -3.930001 -0.23674752 -0.019527614 0.9713749 -0.201936 0 0 0 1</float_array>
        <technique_common>
          <accessor source="#Motion_31_LShoulder_transform_pose_array_id" count="17" stride="16">
            <param name="TRANSFORM" type="float4x4" />
          </accessor>
        </technique_common>
      </source>
      <sampler id="Motion_31_LShoulder_transform_samp_id">
        <input semantic="INPUT" source="#Motion_31_LShoulder_transform_frame_id" />
        <input semantic="INTERPOLATION" source="#Motion_31_LShoulder_transform_interp_id" />
        <input semantic="OUTPUT" source="#Motion_31_LShoulder_transform_pose_id" />
      </sampler>
      <channel source="#Motion_31_LShoulder_transform_samp_id" target="LShoulder_bone_id/transform" />
    </animation>
    <animation id="Motion_31_LArm_transform_id" name="Motion_31_LArm_transform">
      <source id="Motion_31_LArm_transform_frame_id" name="Motion_31_LArm_transform_frame">
        <float_array id="Motion_31_LArm_transform_frame_array_id" count="17">0 0.033333335 0.06666667 0.1 0.13333334 0.16666667 0.2 0.23333333 0.26666668 0.3 0.33333334 0.36666667 0.4 0.43333334 0.46666667 0.5 0.53333336</float_array>
        <technique_common>
          <accessor source="#Motion_31_LArm_transform_frame_array_id" count="17" stride="1">
            <param name="TIME" type="float" />
          </accessor>
        </technique_common>
      </source>
      <source id="Motion_31_LArm_transform_interp_id" name="Motion_31_LArm_transform_interp">
        <Name_array id="Motion_31_LArm_transform_interp_array_id" count="17">LINEAR LINEAR LINEAR LINEAR LINEAR LINEAR LINEAR LINEAR LINEAR LINEAR LINEAR LINEAR LINEAR LINEAR LINEAR LINEAR LINEAR</Name_array>
        <technique_common>
          <accessor source="#Motion_31_LArm_transform_interp_array_id" count="17" stride="1">
            <param name="INTERPOLATION" type="Name" />
          </accessor>
        </technique_common>
      </source>
      <source id="Motion_31_LArm_transform_pose_id" name="Motion_31_LArm_transform_pose">
        <float_array id="Motion_31_LArm_transform_pose_array_id" count="272">0.8752639 0.43539688 0.2105768 8.161509 -0.383639 0.8901435 -0.24589753 0 -0.29450658 0.13443977 0.9461458 0 0 0 0 1 0.88194567 0.43199962 0.18854219 8.161509 -0.38295054 0.8899309 -0.2477335 0 -0.27481028 0.14628515 0.9503052 0 0 0 0 1 0.89769506 0.41769806 0.14025666 8.161509 -0.37921515 0.8944988 -0.23678617 0 -0.22436453 0.15937431 0.9613846 0 0 0 0 1 0.9146836 0.3961303 0.08021675 8.161509 -0.3713478 0.90202975 -0.22009808 0 -0.15954542 0.1715318 0.9721739 0 0 0 0 1 0.92762333 0.37274435 0.024011623 8.161509 -0.3602883 0.9098764 -0.20571163 0 -0.098525465 0.18217182 0.97831804 0 0 0 0 1 0.93552744 0.35295707 -0.014480328 8.161509 -0.34862322 0.91587234 -0.19909717 0 -0.057010613 0.19130905 0.97987276 0 0 0 0 1 0.9393186 0.34237084 -0.021512626 8.161509 -0.33950898 0.91882175 -0.20124668 0 -0.049134716 0.19633847 0.9793043 0 0 0 0 1 0.9398249 0.34129435 -0.015727013 8.161509 -0.3370031 0.9184702 -0.20698157 0 -0.056196846 0.19982648 0.97821844 0 0 0 0 1 0.93768996 0.34747064 0.0012848563 8.161509 -0.33911574 0.9159368 -0.21461636 0 -0.07574974 0.2008079 0.97669756 0 0 0 0 1 0.9330973 0.35853773 0.027929902 8.161509 -0.3438636 0.91224957 -0.22261742 0 -0.10529579 0.19811964 0.9745057 0 0 0 0 1 0.92572534 0.37234443 0.06627361 8.161509 -0.3489257 0.9084595 -0.23011345 0 -0.14588836 0.1898973 0.9709045 0 0 0 0 1 0.9158418 0.3858421 0.11117355 8.161509 -0.35304597 0.9056573 -0.23482633 0 -0.19129103 0.17581442 0.96565884 0 0 0 0 1 0.9047589 0.39597574 0.15689029 8.161509 -0.35525993 0.9047823 -0.23486027 0 -0.23495053 0.15675509 0.9592842 0 0 0 0 1 0.895246 0.40118217 0.19387491 8.161509 -0.35562825 0.9054904 -0.23155053 0 -0.26844582 0.13834728 0.9533084 0 0 0 0 1 0.8854856 0.4145718 0.20987013 8.161509 -0.36566558 0.9003867 -0.23578057 0 -0.28671226 0.13203803 0.9488741 0 0 0 0 1 0.87818795 0.42868292 0.21217173 8.161509 -0.37767786 0.89365524 -0.24236289 0 -0.2935052 0.13270763 0.9467013 0 0 0 0 1 0.87818795 0.42868292 0.21217173 8.161509 -0.37767786 0.89365524 -0.24236289 0 -0.2935052 0.13270763 0.9467013 0 0 0 0 1</float_array>
        <technique_common>
          <accessor source="#Motion_31_LArm_transform_pose_array_id" count="17" stride="16">
            <param name="TRANSFORM" type="float4x4" />
          </accessor>
        </technique_common>
      </source>
      <sampler id="Motion_31_LArm_transform_samp_id">
        <input semantic="INPUT" source="#Motion_31_LArm_transform_frame_id" />
        <input semantic="INTERPOLATION" source="#Motion_31_LArm_transform_interp_id" />
        <input semantic="OUTPUT" source="#Motion_31_LArm_transform_pose_id" />
      </sampler>
      <channel source="#Motion_31_LArm_transform_samp_id" target="LArm_bone_id/transform" />
    </animation>
    <animation id="Motion_31_LForeArm_transform_id" name="Motion_31_LForeArm_transform">
      <source id="Motion_31_LForeArm_transform_frame_id" name="Motion_31_LForeArm_transform_frame">
        <float_array id="Motion_31_LForeArm_transform_frame_array_id" count="17">0 0.033333335 0.06666667 0.1 0.13333334 0.16666667 0.2 0.23333333 0.26666668 0.3 0.33333334 0.36666667 0.4 0.43333334 0.46666667 0.5 0.53333336</float_array>
        <technique_common>
          <accessor source="#Motion_31_LForeArm_transform_frame_array_id" count="17" stride="1">
            <param name="TIME" type="float" />
          </accessor>
        </technique_common>
      </source>
      <source id="Motion_31_LForeArm_transform_interp_id" name="Motion_31_LForeArm_transform_interp">
        <Name_array id="Motion_31_LForeArm_transform_interp_array_id" count="17">LINEAR LINEAR LINEAR LINEAR LINEAR LINEAR LINEAR LINEAR LINEAR LINEAR LINEAR LINEAR LINEAR LINEAR LINEAR LINEAR LINEAR</Name_array>
        <technique_common>
          <accessor source="#Motion_31_LForeArm_transform_interp_array_id" count="17" stride="1">
            <param name="INTERPOLATION" type="Name" />
          </accessor>
        </technique_common>
      </source>
      <source id="Motion_31_LForeArm_transform_pose_id" name="Motion_31_LForeArm_transform_pose">
        <float_array id="Motion_31_LForeArm_transform_pose_array_id" count="272">0.9351304 7.26397E-05 -0.35430366 22.9 -6.8789144E-05 1 2.3462555E-05 0 0.35430366 2.4316969E-06 0.9351304 0 0 0 0 1 0.9284114 7.257237E-05 -0.37155375 22.9 -6.852965E-05 1 2.408444E-05 0 0.37155375 3.1021773E-06 0.9284114 0 0 0 0 1 0.9133015 7.240459E-05 -0.40728405 22.9 -6.7961395E-05 1 2.5376241E-05 0 0.40728405 4.503432E-06 0.9133015 0 0 0 0 1 0.89158857 7.213236E-05 -0.4528464 22.9 -6.7173154E-05 1 2.7032434E-05 0 0.4528464 6.3173147E-06 0.89158857 0 0 0 0 1 0.8679148 7.180413E-05 -0.49671307 22.9 -6.6341454E-05 1 2.8639046E-05 0 0.49671307 8.096416E-06 0.8679148 0 0 0 0 1 0.8469701 7.149253E-05 -0.5316405 22.9 -6.562351E-05 1 2.992883E-05 0 0.5316405 9.539293E-06 0.8469701 0 0 0 0 1 0.8334381 7.128243E-05 -0.5526128 22.9 -6.516676E-05 1 3.0708623E-05 0 0.5526128 1.0418248E-05 0.8334381 0 0 0 0 1 0.82335174 7.112188E-05 -0.5675314 22.9 -6.48294E-05 1 3.1266078E-05 0 0.5675314 1.1049746E-05 0.82335174 0 0 0 0 1 0.8162751 7.100737E-05 -0.5776633 22.9 -6.459414E-05 1 3.164608E-05 0 0.5776633 1.14817585E-05 0.8162751 0 0 0 0 1 0.8115617 7.0930284E-05 -0.5842667 22.9 -6.443805E-05 1 3.189439E-05 0 0.5842667 1.1764744E-05 0.8115617 0 0 0 0 1 0.80847013 7.087937E-05 -0.5885372 22.9 -6.433591E-05 1 3.2055254E-05 0 0.5885372 1.1948367E-05 0.80847013 0 0 0 0 1 0.8067672 7.085122E-05 -0.5908694 22.9 -6.427974E-05 1 3.21432E-05 0 0.5908694 1.2048852E-05 0.8067672 0 0 0 0 1 0.81611735 7.1004804E-05 -0.5778862 22.9 -6.458891E-05 1 3.165445E-05 0 0.5778862 1.1491294E-05 0.81611735 0 0 0 0 1 0.8388361 7.1367E-05 -0.54438406 22.9 -6.534836E-05 1 3.0402141E-05 0 0.54438406 1.0072187E-05 0.8388361 0 0 0 0 1 0.88167703 7.199843E-05 -0.47185338 22.9 -6.682195E-05 1 2.7726934E-05 0 0.47185338 7.0839615E-06 0.88167703 0 0 0 0 1 0.91986716 7.248002E-05 -0.39223006 22.9 -6.8205976E-05 1 2.4831317E-05 0 0.39223006 3.91092E-06 0.91986716 0 0 0 0 1 0.91986716 7.248002E-05 -0.39223006 22.9 -6.8205976E-05 1 2.4831317E-05 0 0.39223006 3.91092E-06 0.91986716 0 0 0 0 1</float_array>
        <technique_common>
          <accessor source="#Motion_31_LForeArm_transform_pose_array_id" count="17" stride="16">
            <param name="TRANSFORM" type="float4x4" />
          </accessor>
        </technique_common>
      </source>
      <sampler id="Motion_31_LForeArm_transform_samp_id">
        <input semantic="INPUT" source="#Motion_31_LForeArm_transform_frame_id" />
        <input semantic="INTERPOLATION" source="#Motion_31_LForeArm_transform_interp_id" />
        <input semantic="OUTPUT" source="#Motion_31_LForeArm_transform_pose_id" />
      </sampler>
      <channel source="#Motion_31_LForeArm_transform_samp_id" target="LForeArm_bone_id/transform" />
    </animation>
    <animation id="Motion_31_LHand_transform_id" name="Motion_31_LHand_transform">
      <source id="Motion_31_LHand_transform_frame_id" name="Motion_31_LHand_transform_frame">
        <float_array id="Motion_31_LHand_transform_frame_array_id" count="17">0 0.033333335 0.06666667 0.1 0.13333334 0.16666667 0.2 0.23333333 0.26666668 0.3 0.33333334 0.36666667 0.4 0.43333334 0.46666667 0.5 0.53333336</float_array>
        <technique_common>
          <accessor source="#Motion_31_LHand_transform_frame_array_id" count="17" stride="1">
            <param name="TIME" type="float" />
          </accessor>
        </technique_common>
      </source>
      <source id="Motion_31_LHand_transform_interp_id" name="Motion_31_LHand_transform_interp">
        <Name_array id="Motion_31_LHand_transform_interp_array_id" count="17">LINEAR LINEAR LINEAR LINEAR LINEAR LINEAR LINEAR LINEAR LINEAR LINEAR LINEAR LINEAR LINEAR LINEAR LINEAR LINEAR LINEAR</Name_array>
        <technique_common>
          <accessor source="#Motion_31_LHand_transform_interp_array_id" count="17" stride="1">
            <param name="INTERPOLATION" type="Name" />
          </accessor>
        </technique_common>
      </source>
      <source id="Motion_31_LHand_transform_pose_id" name="Motion_31_LHand_transform_pose">
        <float_array id="Motion_31_LHand_transform_pose_array_id" count="272">0.9968199 0.05058731 0.061571267 22.900002 -0.06929925 0.9317633 0.35639137 0 -0.03934096 -0.35952485 0.9323058 0 0 0 0 1 0.99522793 0.07110855 0.06682055 22.900002 -0.09029938 0.9306773 0.35452187 0 -0.036978833 -0.3588639 0.9326571 0 0 0 0 1 0.9930063 0.0948364 0.07031799 22.900002 -0.11363199 0.9293511 0.35127527 0 -0.032036424 -0.3568089 0.9336279 0 0 0 0 1 0.99000686 0.12183244 0.07101605 22.900002 -0.13898647 0.9281769 0.34521073 0 -0.023857588 -0.35163128 0.9358345 0 0 0 0 1 0.98634464 0.15025723 0.06743138 22.900002 -0.16424012 0.92778724 0.3350164 0 -0.012223341 -0.34151658 0.93979627 0 0 0 0 1 0.9821152 0.17866412 0.059404366 22.900002 -0.18826956 0.9284119 0.32032153 0 0.0020782426 -0.32577667 0.94544446 0 0 0 0 1 0.9775968 0.20685782 0.038914617 22.900002 -0.20905347 0.93266845 0.29398334 0 0.024518307 -0.2955324 0.95501804 0 0 0 0 1 0.9723104 0.23365894 -0.003990559 22.900002 -0.22537574 0.9420838 0.2483625 0 0.061791554 -0.24058606 0.9686589 0 0 0 0 1 0.96530944 0.25411093 -0.060044292 22.900002 -0.23857877 0.951825 0.19263788 0 0.10610305 -0.17162986 0.97943115 0 0 0 0 1 0.9576063 0.26497105 -0.11305085 22.900002 -0.24855642 0.9583363 0.14075233 0 0.14563602 -0.10668581 0.98356915 0 0 0 0 1 0.9516032 0.26729733 -0.15166913 22.900002 -0.25399595 0.9618612 0.101533905 0 0.1730244 -0.058096636 0.9832026 0 0 0 0 1 0.9509489 0.2663125 -0.15739699 22.900002 -0.25445732 0.96273863 0.09157382 0 0.17591943 -0.04703121 0.9832804 0 0 0 0 1 0.9618698 0.24276254 -0.12598753 22.900002 -0.22681457 0.96541256 0.12858343 0 0.15284517 -0.09510472 0.98366326 0 0 0 0 1 0.9768095 0.19904199 -0.07890179 22.900002 -0.1807875 0.96417505 0.19411956 0 0.11471308 -0.17535336 0.97779965 0 0 0 0 1 0.99023116 0.13864529 -0.014825312 22.900002 -0.12973607 0.9550874 0.26641434 0 0.05109656 -0.26188838 0.9637446 0 0 0 0 1 0.99614197 0.07848896 0.039251782 22.900002 -0.087057024 0.9402051 0.32929534 0 -0.011058679 -0.33144206 0.94341075 0 0 0 0 1 0.99614197 0.07848896 0.039251782 22.900002 -0.087057024 0.9402051 0.32929534 0 -0.011058679 -0.33144206 0.94341075 0 0 0 0 1</float_array>
        <technique_common>
          <accessor source="#Motion_31_LHand_transform_pose_array_id" count="17" stride="16">
            <param name="TRANSFORM" type="float4x4" />
          </accessor>
        </technique_common>
      </source>
      <sampler id="Motion_31_LHand_transform_samp_id">
        <input semantic="INPUT" source="#Motion_31_LHand_transform_frame_id" />
        <input semantic="INTERPOLATION" source="#Motion_31_LHand_transform_interp_id" />
        <input semantic="OUTPUT" source="#Motion_31_LHand_transform_pose_id" />
      </sampler>
      <channel source="#Motion_31_LHand_transform_samp_id" target="LHand_bone_id/transform" />
    </animation>
    <animation id="Motion_31_RShoulder_transform_id" name="Motion_31_RShoulder_transform">
      <source id="Motion_31_RShoulder_transform_frame_id" name="Motion_31_RShoulder_transform_frame">
        <float_array id="Motion_31_RShoulder_transform_frame_array_id" count="17">0 0.033333335 0.06666667 0.1 0.13333334 0.16666667 0.2 0.23333333 0.26666668 0.3 0.33333334 0.36666667 0.4 0.43333334 0.46666667 0.5 0.53333336</float_array>
        <technique_common>
          <accessor source="#Motion_31_RShoulder_transform_frame_array_id" count="17" stride="1">
            <param name="TIME" type="float" />
          </accessor>
        </technique_common>
      </source>
      <source id="Motion_31_RShoulder_transform_interp_id" name="Motion_31_RShoulder_transform_interp">
        <Name_array id="Motion_31_RShoulder_transform_interp_array_id" count="17">LINEAR LINEAR LINEAR LINEAR LINEAR LINEAR LINEAR LINEAR LINEAR LINEAR LINEAR LINEAR LINEAR LINEAR LINEAR LINEAR LINEAR</Name_array>
        <technique_common>
          <accessor source="#Motion_31_RShoulder_transform_interp_array_id" count="17" stride="1">
            <param name="INTERPOLATION" type="Name" />
          </accessor>
        </technique_common>
      </source>
      <source id="Motion_31_RShoulder_transform_pose_id" name="Motion_31_RShoulder_transform_pose">
        <float_array id="Motion_31_RShoulder_transform_pose_array_id" count="272">-0.3291775 -0.9156792 -0.23059428 14.14009 0.87216055 -0.3884313 0.29741752 3.93 -0.3619091 -0.10321207 0.9264821 -0.201935 0 0 0 1 -0.3321134 -0.91470754 -0.23024097 14.14009 0.87083817 -0.39113247 0.29775232 3.93 -0.362411 -0.10161508 0.9264624 -0.201935 0 0 0 1 -0.33549953 -0.9137819 -0.22900413 14.14009 0.86877143 -0.3941183 0.29984528 3.93 -0.36424786 -0.09835431 0.9260939 -0.201935 0 0 0 1 -0.33882213 -0.91320527 -0.22639757 14.14009 0.8654268 -0.39690375 0.30578443 3.93 -0.369102 -0.09232398 0.9247919 -0.201935 0 0 0 1 -0.34162903 -0.9132515 -0.2219491 14.14009 0.86019397 -0.39897442 0.31762552 3.93 -0.37862396 -0.08240918 0.9218745 -0.201935 0 0 0 1 -0.34356165 -0.91410506 -0.21535395 14.14009 0.8523654 -0.39977908 0.33711982 3.93 -0.39425695 -0.067738816 0.91650033 -0.201935 0 0 0 1 -0.3443632 -0.915397 -0.20847623 14.14009 0.84267336 -0.39927208 0.3612247 3.93 -0.41390276 -0.051284835 0.90887535 -0.201935 0 0 0 1 -0.34447312 -0.9167577 -0.20222202 14.14009 0.8334122 -0.39778435 0.38365617 3.93 -0.43216047 -0.036375076 0.90106285 -0.201935 0 0 0 1 -0.3441831 -0.917999 -0.19701788 14.14009 0.82628024 -0.39580297 0.40075088 3.93 -0.44586912 -0.024860322 0.89475286 -0.201935 0 0 0 1 -0.34394717 -0.9189028 -0.19317856 14.14009 0.8210848 -0.3941344 0.4128896 3.93 -0.45554373 -0.016603768 0.8900585 -0.201935 0 0 0 1 -0.3440193 -0.91933334 -0.19098806 14.14009 0.8179457 -0.39330268 0.419854 3.93 -0.461102 -0.011779919 0.8872689 -0.201935 0 0 0 1 -0.34403312 -0.9194069 -0.1906099 14.14009 0.8171638 -0.39316082 0.42150652 3.93 -0.46247634 -0.010747299 0.88656646 -0.201935 0 0 0 1 -0.3438338 -0.91930205 -0.19147405 14.14009 0.8181326 -0.39335656 0.41944006 3.93 -0.46090963 -0.012433529 0.88736 -0.201935 0 0 0 1 -0.34226048 -0.91912436 -0.19510983 14.14009 0.82492816 -0.3933512 0.40591645 3.93 -0.4498344 -0.022022381 0.8928404 -0.201935 0 0 0 1 -0.33691776 -0.9181511 -0.20853007 14.14009 0.84462184 -0.39260173 0.36397466 3.93 -0.41605306 -0.05349949 0.9077652 -0.201935 0 0 0 1 -0.33188128 -0.91648316 -0.22341362 14.14009 0.8636904 -0.39045858 0.31871828 3.93 -0.37933365 -0.08718356 0.9211433 -0.201935 0 0 0 1 -0.33188128 -0.91648316 -0.22341362 14.14009 0.8636904 -0.39045858 0.31871828 3.93 -0.37933365 -0.08718356 0.9211433 -0.201935 0 0 0 1</float_array>
        <technique_common>
          <accessor source="#Motion_31_RShoulder_transform_pose_array_id" count="17" stride="16">
            <param name="TRANSFORM" type="float4x4" />
          </accessor>
        </technique_common>
      </source>
      <sampler id="Motion_31_RShoulder_transform_samp_id">
        <input semantic="INPUT" source="#Motion_31_RShoulder_transform_frame_id" />
        <input semantic="INTERPOLATION" source="#Motion_31_RShoulder_transform_interp_id" />
        <input semantic="OUTPUT" source="#Motion_31_RShoulder_transform_pose_id" />
      </sampler>
      <channel source="#Motion_31_RShoulder_transform_samp_id" target="RShoulder_bone_id/transform" />
    </animation>
    <animation id="Motion_31_RArm_transform_id" name="Motion_31_RArm_transform">
      <source id="Motion_31_RArm_transform_frame_id" name="Motion_31_RArm_transform_frame">
        <float_array id="Motion_31_RArm_transform_frame_array_id" count="17">0 0.033333335 0.06666667 0.1 0.13333334 0.16666667 0.2 0.23333333 0.26666668 0.3 0.33333334 0.36666667 0.4 0.43333334 0.46666667 0.5 0.53333336</float_array>
        <technique_common>
          <accessor source="#Motion_31_RArm_transform_frame_array_id" count="17" stride="1">
            <param name="TIME" type="float" />
          </accessor>
        </technique_common>
      </source>
      <source id="Motion_31_RArm_transform_interp_id" name="Motion_31_RArm_transform_interp">
        <Name_array id="Motion_31_RArm_transform_interp_array_id" count="17">LINEAR LINEAR LINEAR LINEAR LINEAR LINEAR LINEAR LINEAR LINEAR LINEAR LINEAR LINEAR LINEAR LINEAR LINEAR LINEAR LINEAR</Name_array>
        <technique_common>
          <accessor source="#Motion_31_RArm_transform_interp_array_id" count="17" stride="1">
            <param name="INTERPOLATION" type="Name" />
          </accessor>
        </technique_common>
      </source>
      <source id="Motion_31_RArm_transform_pose_id" name="Motion_31_RArm_transform_pose">
        <float_array id="Motion_31_RArm_transform_pose_array_id" count="272">0.85296106 -0.49637556 0.16145831 8.161548 0.20868564 0.60781527 0.7661664 0 -0.4784431 -0.619816 0.6220292 0 0 0 0 1 0.8267994 -0.52880836 0.19174075 8.161548 0.22083268 0.61866194 0.753983 0 -0.5173352 -0.58105004 0.62828743 0 0 0 0 1 0.7730087 -0.5845514 0.24648978 8.161548 0.24660696 0.6348655 0.7322095 0 -0.584502 -0.5052182 0.634911 0 0 0 0 1 0.71382403 -0.6321348 0.3014314 8.161548 0.27129236 0.64640623 0.7131335 0 -0.6456436 -0.42727584 0.63291365 0 0 0 0 1 0.6689082 -0.6606361 0.3407665 8.161548 0.28757417 0.6527126 0.70090467 0 -0.6854655 -0.37084526 0.6265867 0 0 0 0 1 0.6472009 -0.67190367 0.3601063 8.161548 0.29447818 0.6560705 0.6948771 0 -0.70314556 -0.34368163 0.6224703 0 0 0 0 1 0.6427788 -0.6727189 0.3664487 8.161548 0.2955578 0.65910447 0.6915394 0 -0.7067396 -0.33620012 0.62248576 0 0 0 0 1 0.6473584 -0.6676536 0.36764884 8.161548 0.29432577 0.66392446 0.6874421 0 -0.7030643 -0.3368129 0.62630475 0 0 0 0 1 0.6590121 -0.65735877 0.36548948 8.161548 0.28761527 0.6692567 0.685108 0 -0.694968 -0.3463741 0.6301146 0 0 0 0 1 0.67991525 -0.6415116 0.3552155 8.161548 0.2745856 0.6719023 0.687859 0 -0.6799397 -0.37014872 0.6329865 0 0 0 0 1 0.7076702 -0.62077725 0.33739963 8.161548 0.25379893 0.6690098 0.69857854 0 -0.6593853 -0.40873152 0.63099086 0 0 0 0 1 0.7400175 -0.5956174 0.31243247 8.161548 0.2221973 0.65493834 0.722277 0 -0.63482475 -0.4650759 0.6170104 0 0 0 0 1 0.7807765 -0.5601888 0.2767249 8.161548 0.1858277 0.63104975 0.7531561 0 -0.59653676 -0.5366234 0.5968074 0 0 0 0 1 0.8112842 -0.5308895 0.24489662 8.161548 0.16828987 0.6131985 0.7717941 0 -0.55990756 -0.58493066 0.58682156 0 0 0 0 1 0.8305385 -0.51590514 0.20987538 8.161548 0.18154238 0.6070024 0.7736863 0 -0.5265436 -0.6044749 0.5977975 0 0 0 0 1 0.8464848 -0.5022829 0.1765657 8.161548 0.19959496 0.60682505 0.7693668 0 -0.49358428 -0.6160156 0.6139213 0 0 0 0 1 0.8464848 -0.5022829 0.1765657 8.161548 0.19959496 0.60682505 0.7693668 0 -0.49358428 -0.6160156 0.6139213 0 0 0 0 1</float_array>
        <technique_common>
          <accessor source="#Motion_31_RArm_transform_pose_array_id" count="17" stride="16">
            <param name="TRANSFORM" type="float4x4" />
          </accessor>
        </technique_common>
      </source>
      <sampler id="Motion_31_RArm_transform_samp_id">
        <input semantic="INPUT" source="#Motion_31_RArm_transform_frame_id" />
        <input semantic="INTERPOLATION" source="#Motion_31_RArm_transform_interp_id" />
        <input semantic="OUTPUT" source="#Motion_31_RArm_transform_pose_id" />
      </sampler>
      <channel source="#Motion_31_RArm_transform_samp_id" target="RArm_bone_id/transform" />
    </animation>
    <animation id="Motion_31_RForeArm_transform_id" name="Motion_31_RForeArm_transform">
      <source id="Motion_31_RForeArm_transform_frame_id" name="Motion_31_RForeArm_transform_frame">
        <float_array id="Motion_31_RForeArm_transform_frame_array_id" count="17">0 0.033333335 0.06666667 0.1 0.13333334 0.16666667 0.2 0.23333333 0.26666668 0.3 0.33333334 0.36666667 0.4 0.43333334 0.46666667 0.5 0.53333336</float_array>
        <technique_common>
          <accessor source="#Motion_31_RForeArm_transform_frame_array_id" count="17" stride="1">
            <param name="TIME" type="float" />
          </accessor>
        </technique_common>
      </source>
      <source id="Motion_31_RForeArm_transform_interp_id" name="Motion_31_RForeArm_transform_interp">
        <Name_array id="Motion_31_RForeArm_transform_interp_array_id" count="17">LINEAR LINEAR LINEAR LINEAR LINEAR LINEAR LINEAR LINEAR LINEAR LINEAR LINEAR LINEAR LINEAR LINEAR LINEAR LINEAR LINEAR</Name_array>
        <technique_common>
          <accessor source="#Motion_31_RForeArm_transform_interp_array_id" count="17" stride="1">
            <param name="INTERPOLATION" type="Name" />
          </accessor>
        </technique_common>
      </source>
      <source id="Motion_31_RForeArm_transform_pose_id" name="Motion_31_RForeArm_transform_pose">
        <float_array id="Motion_31_RForeArm_transform_pose_array_id" count="272">-0.19126296 -1.7323163E-07 -0.9815389 22.9 -1.672074E-08 1 -1.7323163E-07 0 0.9815389 -1.672074E-08 -0.19126296 0 0 0 0 1 -0.1844877 -1.5006267E-09 -0.9828349 22.9 -1.6128423E-08 1 1.5006267E-09 0 0.9828349 1.6128423E-08 -0.1844877 0 0 0 0 1 -0.17193139 -1.7354373E-07 -0.9851089 22.9 -1.5030722E-08 1 -1.7354373E-07 0 0.9851089 -1.5030722E-08 -0.17193139 0 0 0 0 1 -0.15438652 -1.7379739E-07 -0.9880105 22.9 -1.3496901E-08 1 -1.7379739E-07 0 0.9880105 -1.3496901E-08 -0.15438652 0 0 0 0 1 -0.13264775 -1.7407302E-07 -0.99116325 22.9 -1.1596434E-08 1 -1.7407302E-07 0 0.99116325 -1.1596434E-08 -0.13264775 0 0 0 0 1 -0.110720515 -1.7430804E-07 -0.9938516 22.9 -9.679489E-09 1 -1.7430804E-07 0 0.9938516 -9.679489E-09 -0.110720515 0 0 0 0 1 -0.09506929 -1.7444958E-07 -0.9954707 22.9 -8.3112255E-09 1 -1.7444958E-07 0 0.9954707 -8.3112255E-09 -0.09506929 0 0 0 0 1 -0.09018886 -3.562759E-10 -0.9959246 22.9 -7.884561E-09 1 3.562759E-10 0 0.9959246 7.884561E-09 -0.09018886 0 0 0 0 1 -0.10054934 -1.744025E-07 -0.99493206 22.9 -8.790309E-09 1 -1.744025E-07 0 0.99493206 -8.790309E-09 -0.10054934 0 0 0 0 1 -0.12458396 -1.7416446E-07 -0.992209 22.9 -1.0891476E-08 1 -1.7416446E-07 0 0.992209 -1.0891476E-08 -0.12458396 0 0 0 0 1 -0.15237713 -1.7382467E-07 -0.98832244 22.9 -1.3321234E-08 1 -1.7382467E-07 0 0.98832244 -1.3321234E-08 -0.15237713 0 0 0 0 1 -0.17590392 -1.7348239E-07 -0.9844073 22.9 -1.5378014E-08 1 -1.7348239E-07 0 0.9844073 -1.5378014E-08 -0.17590392 0 0 0 0 1 -0.19007349 -1.7325183E-07 -0.98176986 22.9 -1.661676E-08 1 -1.7325183E-07 0 0.98176986 -1.661676E-08 -0.19007349 0 0 0 0 1 -0.19654298 -1.7314039E-07 -0.9804953 22.9 -1.718233E-08 1 -1.7314039E-07 0 0.9804953 -1.718233E-08 -0.19654298 0 0 0 0 1 -0.19747424 -1.7312402E-07 -0.98030806 22.9 -1.7263751E-08 1 -1.7312402E-07 0 0.98030806 -1.7263751E-08 -0.19747424 0 0 0 0 1 -0.19500363 -1.7316725E-07 -0.9808025 22.9 -1.704776E-08 1 -1.7316725E-07 0 0.9808025 -1.704776E-08 -0.19500363 0 0 0 0 1 -0.19500363 -1.7316725E-07 -0.9808025 22.9 -1.704776E-08 1 -1.7316725E-07 0 0.9808025 -1.704776E-08 -0.19500363 0 0 0 0 1</float_array>
        <technique_common>
          <accessor source="#Motion_31_RForeArm_transform_pose_array_id" count="17" stride="16">
            <param name="TRANSFORM" type="float4x4" />
          </accessor>
        </technique_common>
      </source>
      <sampler id="Motion_31_RForeArm_transform_samp_id">
        <input semantic="INPUT" source="#Motion_31_RForeArm_transform_frame_id" />
        <input semantic="INTERPOLATION" source="#Motion_31_RForeArm_transform_interp_id" />
        <input semantic="OUTPUT" source="#Motion_31_RForeArm_transform_pose_id" />
      </sampler>
      <channel source="#Motion_31_RForeArm_transform_samp_id" target="RForeArm_bone_id/transform" />
    </animation>
    <animation id="Motion_31_RHand_transform_id" name="Motion_31_RHand_transform">
      <source id="Motion_31_RHand_transform_frame_id" name="Motion_31_RHand_transform_frame">
        <float_array id="Motion_31_RHand_transform_frame_array_id" count="17">0 0.033333335 0.06666667 0.1 0.13333334 0.16666667 0.2 0.23333333 0.26666668 0.3 0.33333334 0.36666667 0.4 0.43333334 0.46666667 0.5 0.53333336</float_array>
        <technique_common>
          <accessor source="#Motion_31_RHand_transform_frame_array_id" count="17" stride="1">
            <param name="TIME" type="float" />
          </accessor>
        </technique_common>
      </source>
      <source id="Motion_31_RHand_transform_interp_id" name="Motion_31_RHand_transform_interp">
        <Name_array id="Motion_31_RHand_transform_interp_array_id" count="17">LINEAR LINEAR LINEAR LINEAR LINEAR LINEAR LINEAR LINEAR LINEAR LINEAR LINEAR LINEAR LINEAR LINEAR LINEAR LINEAR LINEAR</Name_array>
        <technique_common>
          <accessor source="#Motion_31_RHand_transform_interp_array_id" count="17" stride="1">
            <param name="INTERPOLATION" type="Name" />
          </accessor>
        </technique_common>
      </source>
      <source id="Motion_31_RHand_transform_pose_id" name="Motion_31_RHand_transform_pose">
        <float_array id="Motion_31_RHand_transform_pose_array_id" count="272">0.860475 0.3539018 -0.36651918 22.900002 -0.42161363 0.89849645 -0.12225409 0 0.28605023 0.25972605 0.92234355 0 0 0 0 1 0.8593867 0.33399186 -0.3871743 22.900002 -0.4009795 0.9100517 -0.1049827 0 0.3172853 0.24546969 0.9160102 0 0 0 0 1 0.85316235 0.2981882 -0.42801613 22.900002 -0.3642704 0.9278794 -0.079667814 0 0.37339133 0.22388318 0.9002529 0 0 0 0 1 0.8342195 0.26591048 -0.48308325 22.900002 -0.3355991 0.93995297 -0.06214249 0 0.4375512 0.2139628 0.8733664 0 0 0 0 1 0.80627763 0.2439377 -0.53889775 22.900002 -0.32123926 0.94553506 -0.052619196 0 0.4967109 0.21554083 0.84072614 0 0 0 0 1 0.7762789 0.22926854 -0.5872197 22.900002 -0.31736794 0.94699335 -0.049811445 0 0.54467297 0.22503227 0.80789346 0 0 0 0 1 0.7525668 0.21920049 -0.62096244 22.900002 -0.3170418 0.94709754 -0.04990784 0 0.5771722 0.23443004 0.78224987 0 0 0 0 1 0.7442578 0.2123097 -0.6332495 22.900002 -0.31261063 0.94859725 -0.049374692 0 0.59021604 0.23470801 0.7723712 0 0 0 0 1 0.7617887 0.20870806 -0.6132853 22.900002 -0.2994825 0.9529079 -0.04771486 0 0.57444596 0.22001687 0.78841895 0 0 0 0 1 0.7926109 0.21846454 -0.5692462 22.900002 -0.29486996 0.9545122 -0.044251658 0 0.53368497 0.20292795 0.8209754 0 0 0 0 1 0.8180664 0.24282299 -0.52134866 22.900002 -0.309283 0.95000494 -0.042833112 0 0.48488292 0.19628456 0.8522681 0 0 0 0 1 0.8196147 0.29377484 -0.49186185 22.900002 -0.36018264 0.9318616 -0.043616958 0 0.4455336 0.21290922 0.86958003 0 0 0 0 1 0.8086972 0.35689703 -0.46758246 22.900002 -0.42916456 0.9016063 -0.05407291 0 0.4022768 0.24439842 0.88229406 0 0 0 0 1 0.8118553 0.3858859 -0.43815863 22.900002 -0.46033907 0.88466805 -0.07382672 0 0.35913628 0.26163813 0.89586085 0 0 0 0 1 0.8332157 0.37712064 -0.40439042 22.900002 -0.4492536 0.88807166 -0.09746766 0 0.32237062 0.26288542 0.90937805 0 0 0 0 1 0.85242736 0.36224082 -0.3770268 22.900002 -0.4310204 0.89504 -0.114563614 0 0.29595447 0.2601634 0.91908973 0 0 0 0 1 0.85242736 0.36224082 -0.3770268 22.900002 -0.4310204 0.89504 -0.114563614 0 0.29595447 0.2601634 0.91908973 0 0 0 0 1</float_array>
        <technique_common>
          <accessor source="#Motion_31_RHand_transform_pose_array_id" count="17" stride="16">
            <param name="TRANSFORM" type="float4x4" />
          </accessor>
        </technique_common>
      </source>
      <sampler id="Motion_31_RHand_transform_samp_id">
        <input semantic="INPUT" source="#Motion_31_RHand_transform_frame_id" />
        <input semantic="INTERPOLATION" source="#Motion_31_RHand_transform_interp_id" />
        <input semantic="OUTPUT" source="#Motion_31_RHand_transform_pose_id" />
      </sampler>
      <channel source="#Motion_31_RHand_transform_samp_id" target="RHand_bone_id/transform" />
    </animation>
    <animation id="Motion_31_Hips_transform_id" name="Motion_31_Hips_transform">
      <source id="Motion_31_Hips_transform_frame_id" name="Motion_31_Hips_transform_frame">
        <float_array id="Motion_31_Hips_transform_frame_array_id" count="17">0 0.033333335 0.06666667 0.1 0.13333334 0.16666667 0.2 0.23333333 0.26666668 0.3 0.33333334 0.36666667 0.4 0.43333334 0.46666667 0.5 0.53333336</float_array>
        <technique_common>
          <accessor source="#Motion_31_Hips_transform_frame_array_id" count="17" stride="1">
            <param name="TIME" type="float" />
          </accessor>
        </technique_common>
      </source>
      <source id="Motion_31_Hips_transform_interp_id" name="Motion_31_Hips_transform_interp">
        <Name_array id="Motion_31_Hips_transform_interp_array_id" count="17">LINEAR LINEAR LINEAR LINEAR LINEAR LINEAR LINEAR LINEAR LINEAR LINEAR LINEAR LINEAR LINEAR LINEAR LINEAR LINEAR LINEAR</Name_array>
        <technique_common>
          <accessor source="#Motion_31_Hips_transform_interp_array_id" count="17" stride="1">
            <param name="INTERPOLATION" type="Name" />
          </accessor>
        </technique_common>
      </source>
      <source id="Motion_31_Hips_transform_pose_id" name="Motion_31_Hips_transform_pose">
        <float_array id="Motion_31_Hips_transform_pose_array_id" count="272">-0.99943054 0.00078706746 -0.033739544 -0.010002 -7.982628E-05 -0.99978054 -0.020958014 0 -0.033748627 -0.02094338 0.9992109 0 0 0 0 1 -0.99971735 0.0043495344 -0.023365334 -0.010002 -0.0039581675 -0.99985135 -0.016770124 0 -0.023434807 -0.016672902 0.99958634 0 0 0 0 1 -0.9998568 0.013261093 -0.010501278 -0.010002 -0.013138065 -0.99984515 -0.011699112 0 -0.010654795 -0.0115594715 0.99987644 0 0 0 0 1 -0.99965155 0.025689743 0.006082454 -0.010002 -0.025724534 -0.99965274 -0.0057124323 0 0.0059335916 -0.00586691 0.9999652 0 0 0 0 1 -0.99888396 0.039115507 0.026458347 -0.010002 -0.03913827 -0.99923337 -0.00034281856 0 0.026424663 -0.0013779702 0.9996499 0 0 0 0 1 -0.99755 0.05085257 0.048044648 -0.010002 -0.05079369 -0.99870634 0.0024464955 0 0.048106898 1.3655517E-07 0.9988422 0 0 0 0 1 -0.9962456 0.058418635 0.063889876 -0.010002 -0.05847319 -0.9982885 0.0010172455 0 0.06383996 -0.0027224189 0.99795645 0 0 0 0 1 -0.9959526 0.059752084 0.06714309 -0.010002 -0.060446374 -0.9981365 -0.008355033 0 0.06651873 -0.012379771 0.9977084 0 0 0 0 1 -0.99766564 0.053040903 0.043007858 -0.010002 -0.05410556 -0.99824715 -0.02398008 0 0.041660547 -0.026251068 0.9987869 0 0 0 0 1 -0.9991996 0.039794657 0.0040615844 -0.010002 -0.03993256 -0.9982791 -0.042945135 0 0.0023456076 -0.04307295 0.99906915 0 0 0 0 1 -0.99925125 0.024304237 -0.030113162 -0.010002 -0.022443984 -0.9979074 -0.060644522 0 -0.031524055 -0.05992324 0.9977051 0 0 0 0 1 -0.9989207 0.008936993 -0.04557573 -0.010002 -0.0059097623 -0.99779344 -0.06612925 0 -0.046066165 -0.06578855 0.99676967 0 0 0 0 1 -0.9985951 -0.0014939916 -0.052963316 -0.010002 0.004933181 -0.99788177 -0.064864226 0 -0.05275423 -0.0650344 0.9964876 0 0 0 0 1 -0.99850714 -0.004138272 -0.05446914 -0.010002 0.007239522 -0.998356 -0.056862384 0 -0.05414427 -0.057171814 0.9968951 0 0 0 0 1 -0.99888265 -0.00255764 -0.047190662 -0.010002 0.004530646 -0.99911785 -0.041749783 0 -0.047042254 -0.041916937 0.998013 0 0 0 0 1 -0.99927557 -0.00017982227 -0.03806089 -0.010002 0.001218183 -0.9996277 -0.027260134 0 -0.038041815 -0.027286747 0.9989035 0 0 0 0 1 -0.99927557 -0.00017982227 -0.03806089 -0.010002 0.001218183 -0.9996277 -0.027260134 0 -0.038041815 -0.027286747 0.9989035 0 0 0 0 1</float_array>
        <technique_common>
          <accessor source="#Motion_31_Hips_transform_pose_array_id" count="17" stride="16">
            <param name="TRANSFORM" type="float4x4" />
          </accessor>
        </technique_common>
      </source>
      <sampler id="Motion_31_Hips_transform_samp_id">
        <input semantic="INPUT" source="#Motion_31_Hips_transform_frame_id" />
        <input semantic="INTERPOLATION" source="#Motion_31_Hips_transform_interp_id" />
        <input semantic="OUTPUT" source="#Motion_31_Hips_transform_pose_id" />
      </sampler>
      <channel source="#Motion_31_Hips_transform_samp_id" target="Hips_bone_id/transform" />
    </animation>
    <animation id="Motion_31_LThigh_transform_id" name="Motion_31_LThigh_transform">
      <source id="Motion_31_LThigh_transform_frame_id" name="Motion_31_LThigh_transform_frame">
        <float_array id="Motion_31_LThigh_transform_frame_array_id" count="17">0 0.033333335 0.06666667 0.1 0.13333334 0.16666667 0.2 0.23333333 0.26666668 0.3 0.33333334 0.36666667 0.4 0.43333334 0.46666667 0.5 0.53333336</float_array>
        <technique_common>
          <accessor source="#Motion_31_LThigh_transform_frame_array_id" count="17" stride="1">
            <param name="TIME" type="float" />
          </accessor>
        </technique_common>
      </source>
      <source id="Motion_31_LThigh_transform_interp_id" name="Motion_31_LThigh_transform_interp">
        <Name_array id="Motion_31_LThigh_transform_interp_array_id" count="17">LINEAR LINEAR LINEAR LINEAR LINEAR LINEAR LINEAR LINEAR LINEAR LINEAR LINEAR LINEAR LINEAR LINEAR LINEAR LINEAR LINEAR</Name_array>
        <technique_common>
          <accessor source="#Motion_31_LThigh_transform_interp_array_id" count="17" stride="1">
            <param name="INTERPOLATION" type="Name" />
          </accessor>
        </technique_common>
      </source>
      <source id="Motion_31_LThigh_transform_pose_id" name="Motion_31_LThigh_transform_pose">
        <float_array id="Motion_31_LThigh_transform_pose_array_id" count="272">0.9998139 -0.019288545 -0.00034628646 10.510002 0.018672315 0.9630483 0.26868072 7.199996 -0.004848969 -0.2686372 0.96322924 0 0 0 0 1 0.9995805 -0.0021694899 -0.02888181 10.510002 0.0088291485 0.97255236 0.23251666 7.199996 0.027584631 -0.2326741 0.9721635 0 0 0 0 1 0.9968462 0.03090377 -0.07309298 10.510002 -0.019122193 0.98745966 0.15670916 7.199996 0.077019274 -0.15481725 0.98493636 0 0 0 0 1 0.9919764 0.0670286 -0.1071916 10.510002 -0.05926447 0.99549204 0.07404946 7.199996 0.11167181 -0.067102656 0.991477 0 0 0 0 1 0.9886944 0.09433453 -0.11655158 10.510002 -0.09617704 0.9953112 -0.010274411 7.199996 0.11503586 0.02136784 0.9931315 0 0 0 0 1 0.9889331 0.10778649 -0.10194802 10.510002 -0.117291614 0.9887943 -0.092349924 7.199996 0.090851545 0.10328554 0.99049383 0 0 0 0 1 0.99086124 0.10606113 -0.083337136 10.510002 -0.11914106 0.9778529 -0.17207302 7.199996 0.063241206 0.18042935 0.9815527 0 0 0 0 1 0.9936796 0.08589477 -0.07227023 10.510002 -0.099909045 0.9702479 -0.22053833 7.199996 0.051176947 0.2263649 0.9726972 0 0 0 0 1 0.99243337 0.046657532 -0.113574095 10.510002 -0.06853637 0.97798103 -0.19711888 7.199996 0.10187624 0.20341131 0.9737788 0 0 0 0 1 0.9728368 0.0076505113 -0.23136555 10.510002 -0.040058456 0.9899395 -0.13570213 7.199996 0.2279997 0.14128417 0.9633561 0 0 0 0 1 0.9451443 -0.012958842 -0.32639602 10.510002 -0.00646739 0.99827456 -0.05836193 7.199996 0.32658914 0.057271373 0.94342965 0 0 0 0 1 0.9388555 -0.022664389 -0.3435646 10.510002 0.053008713 0.9954493 0.079188235 7.199996 0.3402064 -0.09255823 0.93578446 0 0 0 0 1 0.95010495 -0.028191198 -0.31065378 10.510002 0.10768953 0.9643197 0.24184808 7.199996 0.29275158 -0.26323524 0.91924083 0 0 0 0 1 0.97005105 -0.030752111 -0.24094652 10.510002 0.116444945 0.929414 0.35018602 7.199996 0.2131701 -0.36775532 0.90515995 0 0 0 0 1 0.9886675 -0.026813665 -0.14770797 10.510002 0.07693646 0.93538356 0.34516424 7.199996 0.12890849 -0.3526168 0.92684627 0 0 0 0 1 0.9984523 -0.023574231 -0.05037065 10.510002 0.037531085 0.9539962 0.29746044 7.199996 0.041041 -0.29889053 0.9534045 0 0 0 0 1 0.9984523 -0.023574231 -0.05037065 10.510002 0.037531085 0.9539962 0.29746044 7.199996 0.041041 -0.29889053 0.9534045 0 0 0 0 1</float_array>
        <technique_common>
          <accessor source="#Motion_31_LThigh_transform_pose_array_id" count="17" stride="16">
            <param name="TRANSFORM" type="float4x4" />
          </accessor>
        </technique_common>
      </source>
      <sampler id="Motion_31_LThigh_transform_samp_id">
        <input semantic="INPUT" source="#Motion_31_LThigh_transform_frame_id" />
        <input semantic="INTERPOLATION" source="#Motion_31_LThigh_transform_interp_id" />
        <input semantic="OUTPUT" source="#Motion_31_LThigh_transform_pose_id" />
      </sampler>
      <channel source="#Motion_31_LThigh_transform_samp_id" target="LThigh_bone_id/transform" />
    </animation>
    <animation id="Motion_31_LLeg_transform_id" name="Motion_31_LLeg_transform">
      <source id="Motion_31_LLeg_transform_frame_id" name="Motion_31_LLeg_transform_frame">
        <float_array id="Motion_31_LLeg_transform_frame_array_id" count="17">0 0.033333335 0.06666667 0.1 0.13333334 0.16666667 0.2 0.23333333 0.26666668 0.3 0.33333334 0.36666667 0.4 0.43333334 0.46666667 0.5 0.53333336</float_array>
        <technique_common>
          <accessor source="#Motion_31_LLeg_transform_frame_array_id" count="17" stride="1">
            <param name="TIME" type="float" />
          </accessor>
        </technique_common>
      </source>
      <source id="Motion_31_LLeg_transform_interp_id" name="Motion_31_LLeg_transform_interp">
        <Name_array id="Motion_31_LLeg_transform_interp_array_id" count="17">LINEAR LINEAR LINEAR LINEAR LINEAR LINEAR LINEAR LINEAR LINEAR LINEAR LINEAR LINEAR LINEAR LINEAR LINEAR LINEAR LINEAR</Name_array>
        <technique_common>
          <accessor source="#Motion_31_LLeg_transform_interp_array_id" count="17" stride="1">
            <param name="INTERPOLATION" type="Name" />
          </accessor>
        </technique_common>
      </source>
      <source id="Motion_31_LLeg_transform_pose_id" name="Motion_31_LLeg_transform_pose">
        <float_array id="Motion_31_LLeg_transform_pose_array_id" count="272">0.9749229 0 0.22254302 33.899998 0 1 0 0 -0.22254302 0 0.9749229 0 0 0 0 1 0.9664876 0 0.25671342 33.899998 0 1 0 0 -0.25671342 0 0.9664876 0 0 0 0 1 0.95413834 0 0.299366 33.899998 0 1 0 0 -0.299366 0 0.95413834 0 0 0 0 1 0.94598705 0 0.3242044 33.899998 0 1 0 0 -0.3242044 0 0.94598705 0 0 0 0 1 0.9429552 0 0.3329196 33.899998 0 1 0 0 -0.3329196 0 0.9429552 0 0 0 0 1 0.94456816 0 0.32831535 33.899998 0 1 0 0 -0.32831535 0 0.94456816 0 0 0 0 1 0.9468776 0 0.32159424 33.899998 0 1 0 0 -0.32159424 0 0.9468776 0 0 0 0 1 0.9490924 0 0.31499785 33.899998 0 1 0 0 -0.31499785 0 0.9490924 0 0 0 0 1 0.93128914 0 0.36428085 33.899998 0 1 0 0 -0.36428085 0 0.93128914 0 0 0 0 1 0.85141116 0 0.5244989 33.899998 0 1 0 0 -0.5244989 0 0.85141116 0 0 0 0 1 0.7654451 0 0.6435012 33.899998 0 1 0 0 -0.6435012 0 0.7654451 0 0 0 0 1 0.7406312 0 0.6719117 33.899998 0 1 0 0 -0.6719117 0 0.7406312 0 0 0 0 1 0.76622945 0 0.64256704 33.899998 0 1 0 0 -0.64256704 0 0.76622945 0 0 0 0 1 0.8250189 0 0.5651052 33.899998 0 1 0 0 -0.5651052 0 0.8250189 0 0 0 0 1 0.8940252 0 0.44801673 33.899998 0 1 0 0 -0.44801673 0 0.8940252 0 0 0 0 1 0.95181906 0 0.30666023 33.899998 0 1 0 0 -0.30666023 0 0.95181906 0 0 0 0 1 0.95181906 0 0.30666023 33.899998 0 1 0 0 -0.30666023 0 0.95181906 0 0 0 0 1</float_array>
        <technique_common>
          <accessor source="#Motion_31_LLeg_transform_pose_array_id" count="17" stride="16">
            <param name="TRANSFORM" type="float4x4" />
          </accessor>
        </technique_common>
      </source>
      <sampler id="Motion_31_LLeg_transform_samp_id">
        <input semantic="INPUT" source="#Motion_31_LLeg_transform_frame_id" />
        <input semantic="INTERPOLATION" source="#Motion_31_LLeg_transform_interp_id" />
        <input semantic="OUTPUT" source="#Motion_31_LLeg_transform_pose_id" />
      </sampler>
      <channel source="#Motion_31_LLeg_transform_samp_id" target="LLeg_bone_id/transform" />
    </animation>
    <animation id="Motion_31_LFoot_transform_id" name="Motion_31_LFoot_transform">
      <source id="Motion_31_LFoot_transform_frame_id" name="Motion_31_LFoot_transform_frame">
        <float_array id="Motion_31_LFoot_transform_frame_array_id" count="17">0 0.033333335 0.06666667 0.1 0.13333334 0.16666667 0.2 0.23333333 0.26666668 0.3 0.33333334 0.36666667 0.4 0.43333334 0.46666667 0.5 0.53333336</float_array>
        <technique_common>
          <accessor source="#Motion_31_LFoot_transform_frame_array_id" count="17" stride="1">
            <param name="TIME" type="float" />
          </accessor>
        </technique_common>
      </source>
      <source id="Motion_31_LFoot_transform_interp_id" name="Motion_31_LFoot_transform_interp">
        <Name_array id="Motion_31_LFoot_transform_interp_array_id" count="17">LINEAR LINEAR LINEAR LINEAR LINEAR LINEAR LINEAR LINEAR LINEAR LINEAR LINEAR LINEAR LINEAR LINEAR LINEAR LINEAR LINEAR</Name_array>
        <technique_common>
          <accessor source="#Motion_31_LFoot_transform_interp_array_id" count="17" stride="1">
            <param name="INTERPOLATION" type="Name" />
          </accessor>
        </technique_common>
      </source>
      <source id="Motion_31_LFoot_transform_pose_id" name="Motion_31_LFoot_transform_pose">
        <float_array id="Motion_31_LFoot_transform_pose_array_id" count="272">-0.21523428 0.092518136 -0.97217 33.9 0.3615374 0.93231714 0.008682638 4E-06 0.9071741 -0.34960705 -0.23411536 0 0 0 0 1 -0.22510803 0.08135082 -0.9709318 33.9 0.36446154 0.9311959 -0.006477952 4E-06 0.90360075 -0.35532555 -0.2392689 0 0 0 0 1 -0.23269677 0.060738236 -0.97065073 33.9 0.374619 0.9266325 -0.031824693 4E-06 0.89750355 -0.37102973 -0.23837817 0 0 0 0 1 -0.2317512 0.037490636 -0.97205245 33.9 0.38525453 0.9210898 -0.056325093 4E-06 0.8932359 -0.387541 -0.22790706 0 0 0 0 1 -0.22410679 0.020265162 -0.9743538 33.9 0.38994032 0.9181303 -0.07059266 4E-06 0.8931532 -0.39576018 -0.21366143 0 0 0 0 1 -0.21298528 0.017144874 -0.97690505 33.9 0.38424963 0.92074996 -0.06761494 4E-06 0.898326 -0.38977635 -0.20269406 0 0 0 0 1 -0.20206118 0.028362587 -0.97896224 33.9 0.36942983 0.9279464 -0.04936698 4E-06 0.9070243 -0.37163296 -0.19797993 0 0 0 0 1 -0.19052947 0.043118805 -0.98073405 33.9 0.3141939 0.9491625 -0.019308478 4E-06 0.9300434 -0.3118195 -0.19439113 0 0 0 0 1 -0.19281387 0.05450297 -0.97972053 33.9 0.20098594 0.97948027 0.014934577 4E-06 0.9604309 -0.19403043 -0.1998117 0 0 0 0 1 -0.20201409 0.06704161 -0.9770854 33.9 0.12438104 0.99133235 0.04230317 4E-06 0.9714524 -0.11298506 -0.20860183 0 0 0 0 1 -0.1855607 0.07143219 -0.980033 33.9 0.10082315 0.9934744 0.053321917 4E-06 0.9774466 -0.08891556 -0.1915518 0 0 0 0 1 -0.18943441 0.06296455 -0.9798724 33.9 0.09122006 0.9947545 0.046285663 4E-06 0.9776469 -0.08061592 -0.19418442 0 0 0 0 1 -0.24111557 0.06493432 -0.9683216 33.9 0.107089646 0.9934463 0.039953437 4E-06 0.96456987 -0.09406382 -0.24648917 0 0 0 0 1 -0.29766786 0.08112623 -0.9512163 33.9 0.15908073 0.9866672 0.034367964 4E-06 0.941322 -0.14108995 -0.30660474 0 0 0 0 1 -0.33242273 0.10009789 -0.93780375 33.9 0.25481698 0.9669035 0.012879126 4E-06 0.90805495 -0.23468697 -0.3469273 0 0 0 0 1 -0.3045926 0.099238776 -0.9472987 33.9 0.32026497 0.94732064 -0.003736332 4E-06 0.8970248 -0.30452466 -0.32032955 0 0 0 0 1 -0.3045926 0.099238776 -0.9472987 33.9 0.32026497 0.94732064 -0.003736332 4E-06 0.8970248 -0.30452466 -0.32032955 0 0 0 0 1</float_array>
        <technique_common>
          <accessor source="#Motion_31_LFoot_transform_pose_array_id" count="17" stride="16">
            <param name="TRANSFORM" type="float4x4" />
          </accessor>
        </technique_common>
      </source>
      <sampler id="Motion_31_LFoot_transform_samp_id">
        <input semantic="INPUT" source="#Motion_31_LFoot_transform_frame_id" />
        <input semantic="INTERPOLATION" source="#Motion_31_LFoot_transform_interp_id" />
        <input semantic="OUTPUT" source="#Motion_31_LFoot_transform_pose_id" />
      </sampler>
      <channel source="#Motion_31_LFoot_transform_samp_id" target="LFoot_bone_id/transform" />
    </animation>
    <animation id="Motion_31_RThigh_transform_id" name="Motion_31_RThigh_transform">
      <source id="Motion_31_RThigh_transform_frame_id" name="Motion_31_RThigh_transform_frame">
        <float_array id="Motion_31_RThigh_transform_frame_array_id" count="17">0 0.033333335 0.06666667 0.1 0.13333334 0.16666667 0.2 0.23333333 0.26666668 0.3 0.33333334 0.36666667 0.4 0.43333334 0.46666667 0.5 0.53333336</float_array>
        <technique_common>
          <accessor source="#Motion_31_RThigh_transform_frame_array_id" count="17" stride="1">
            <param name="TIME" type="float" />
          </accessor>
        </technique_common>
      </source>
      <source id="Motion_31_RThigh_transform_interp_id" name="Motion_31_RThigh_transform_interp">
        <Name_array id="Motion_31_RThigh_transform_interp_array_id" count="17">LINEAR LINEAR LINEAR LINEAR LINEAR LINEAR LINEAR LINEAR LINEAR LINEAR LINEAR LINEAR LINEAR LINEAR LINEAR LINEAR LINEAR</Name_array>
        <technique_common>
          <accessor source="#Motion_31_RThigh_transform_interp_array_id" count="17" stride="1">
            <param name="INTERPOLATION" type="Name" />
          </accessor>
        </technique_common>
      </source>
      <source id="Motion_31_RThigh_transform_pose_id" name="Motion_31_RThigh_transform_pose">
        <float_array id="Motion_31_RThigh_transform_pose_array_id" count="272">0.99511594 0.093208835 0.03250261 10.510002 -0.056645047 0.80884683 -0.5852847 -7.2 -0.080843344 0.580585 0.81017613 0 0 0 0 1 0.9927884 0.08938067 -0.07988955 10.510002 -0.11820926 0.84076583 -0.5283365 -7.2 0.019945333 0.53397 0.84526813 0 0 0 0 1 0.97496045 0.0891362 -0.20373242 10.510002 -0.16184272 0.91271883 -0.37516838 -7.2 0.15250932 0.3987469 0.9042908 0 0 0 0 1 0.95377123 0.11046044 -0.2794976 10.510002 -0.16646515 0.9684798 -0.18530025 -7.2 0.25021943 0.22326066 0.942096 0 0 0 0 1 0.9461584 0.1451714 -0.28932592 10.510002 -0.16564655 0.9850431 -0.04744754 -7.2 0.27811047 0.09281873 0.956054 0 0 0 0 1 0.9596807 0.16741611 -0.22579837 10.510002 -0.15554006 0.9853796 0.06952944 -7.2 0.23413745 -0.031605363 0.97168964 0 0 0 0 1 0.9811227 0.15849581 -0.11080322 10.510002 -0.13312423 0.9691332 0.20750616 -7.2 0.14027193 -0.1888384 0.9719382 0 0 0 0 1 0.9908362 0.12156839 -0.058861762 10.510002 -0.098242216 0.9477194 0.3036057 -7.2 0.092693284 -0.29504082 0.95097786 0 0 0 0 1 0.99382377 0.08443952 -0.07200238 10.510002 -0.060298108 0.9556094 0.2884004 -7.2 0.09315854 -0.28227758 0.9547989 0 0 0 0 1 0.99350536 0.057317384 -0.09829476 10.510002 -0.039168067 0.9833385 0.17751412 -7.2 0.10683166 -0.1725112 0.9791971 0 0 0 0 1 0.9943858 0.03356126 -0.1003524 10.510002 -0.028728144 0.99837446 0.049224995 -7.2 0.10184132 -0.046065696 0.9937335 0 0 0 0 1 0.9968432 0.014178065 -0.07811939 10.510002 -0.017976344 0.9986791 -0.048134774 -7.2 0.07733374 0.04938712 0.9957813 0 0 0 0 1 0.99839365 0.0066459617 -0.05626685 10.510002 -0.014154795 0.99086326 -0.13412546 -7.2 0.054861367 0.13470645 0.98936564 0 0 0 0 1 0.99894714 0.015646847 -0.04312468 10.510002 -0.025113454 0.973189 -0.22863184 -7.2 0.038391095 0.22947414 0.9725573 0 0 0 0 1 0.99882984 0.044275235 -0.019458896 10.510002 -0.048351716 0.9227578 -0.38233516 -7.2 0.0010278691 0.38282862 0.9238188 0 0 0 0 1 0.9968935 0.077036865 0.016388685 10.510002 -0.056999363 0.849262 -0.52488583 -7.2 -0.054353848 0.52232116 0.85101485 0 0 0 0 1 0.9968935 0.077036865 0.016388685 10.510002 -0.056999363 0.849262 -0.52488583 -7.2 -0.054353848 0.52232116 0.85101485 0 0 0 0 1</float_array>
        <technique_common>
          <accessor source="#Motion_31_RThigh_transform_pose_array_id" count="17" stride="16">
            <param name="TRANSFORM" type="float4x4" />
          </accessor>
        </technique_common>
      </source>
      <sampler id="Motion_31_RThigh_transform_samp_id">
        <input semantic="INPUT" source="#Motion_31_RThigh_transform_frame_id" />
        <input semantic="INTERPOLATION" source="#Motion_31_RThigh_transform_interp_id" />
        <input semantic="OUTPUT" source="#Motion_31_RThigh_transform_pose_id" />
      </sampler>
      <channel source="#Motion_31_RThigh_transform_samp_id" target="RThigh_bone_id/transform" />
    </animation>
    <animation id="Motion_31_RLeg_transform_id" name="Motion_31_RLeg_transform">
      <source id="Motion_31_RLeg_transform_frame_id" name="Motion_31_RLeg_transform_frame">
        <float_array id="Motion_31_RLeg_transform_frame_array_id" count="17">0 0.033333335 0.06666667 0.1 0.13333334 0.16666667 0.2 0.23333333 0.26666668 0.3 0.33333334 0.36666667 0.4 0.43333334 0.46666667 0.5 0.53333336</float_array>
        <technique_common>
          <accessor source="#Motion_31_RLeg_transform_frame_array_id" count="17" stride="1">
            <param name="TIME" type="float" />
          </accessor>
        </technique_common>
      </source>
      <source id="Motion_31_RLeg_transform_interp_id" name="Motion_31_RLeg_transform_interp">
        <Name_array id="Motion_31_RLeg_transform_interp_array_id" count="17">LINEAR LINEAR LINEAR LINEAR LINEAR LINEAR LINEAR LINEAR LINEAR LINEAR LINEAR LINEAR LINEAR LINEAR LINEAR LINEAR LINEAR</Name_array>
        <technique_common>
          <accessor source="#Motion_31_RLeg_transform_interp_array_id" count="17" stride="1">
            <param name="INTERPOLATION" type="Name" />
          </accessor>
        </technique_common>
      </source>
      <source id="Motion_31_RLeg_transform_pose_id" name="Motion_31_RLeg_transform_pose">
        <float_array id="Motion_31_RLeg_transform_pose_array_id" count="272">0.9942172 0 0.10738774 33.899998 0 1 0 0 -0.10738774 0 0.9942172 0 0 0 0 1 0.9537592 0 0.3005719 33.899998 0 1 0 0 -0.3005719 0 0.9537592 0 0 0 0 1 0.8789269 0 0.4769565 33.899998 0 1 0 0 -0.4769565 0 0.8789269 0 0 0 0 1 0.8260197 0 0.56364125 33.899998 0 1 0 0 -0.56364125 0 0.8260197 0 0 0 0 1 0.81748646 0 0.5759478 33.899998 0 1 0 0 -0.5759478 0 0.81748646 0 0 0 0 1 0.8547353 0 0.5190641 33.899998 0 1 0 0 -0.5190641 0 0.8547353 0 0 0 0 1 0.91440165 0 0.40480813 33.899998 0 1 0 0 -0.40480813 0 0.91440165 0 0 0 0 1 0.9238046 0 0.38286436 33.899998 0 1 0 0 -0.38286436 0 0.9238046 0 0 0 0 1 0.92133117 0 0.38877875 33.899998 0 1 0 0 -0.38877875 0 0.92133117 0 0 0 0 1 0.93067765 0 0.36584035 33.899998 0 1 0 0 -0.36584035 0 0.93067765 0 0 0 0 1 0.94977397 0 0.31293678 33.899998 0 1 0 0 -0.31293678 0 0.94977397 0 0 0 0 1 0.96897596 0 0.24715498 33.899998 0 1 0 0 -0.24715498 0 0.96897596 0 0 0 0 1 0.9789241 0 0.2042244 33.899998 0 1 0 0 -0.2042244 0 0.9789241 0 0 0 0 1 0.98190486 0 0.18937483 33.899998 0 1 0 0 -0.18937483 0 0.98190486 0 0 0 0 1 0.98448485 0 0.17546976 33.899998 0 1 0 0 -0.17546976 0 0.98448485 0 0 0 0 1 0.99086714 0 0.13484195 33.899998 0 1 0 0 -0.13484195 0 0.99086714 0 0 0 0 1 0.99086714 0 0.13484195 33.899998 0 1 0 0 -0.13484195 0 0.99086714 0 0 0 0 1</float_array>
        <technique_common>
          <accessor source="#Motion_31_RLeg_transform_pose_array_id" count="17" stride="16">
            <param name="TRANSFORM" type="float4x4" />
          </accessor>
        </technique_common>
      </source>
      <sampler id="Motion_31_RLeg_transform_samp_id">
        <input semantic="INPUT" source="#Motion_31_RLeg_transform_frame_id" />
        <input semantic="INTERPOLATION" source="#Motion_31_RLeg_transform_interp_id" />
        <input semantic="OUTPUT" source="#Motion_31_RLeg_transform_pose_id" />
      </sampler>
      <channel source="#Motion_31_RLeg_transform_samp_id" target="RLeg_bone_id/transform" />
    </animation>
    <animation id="Motion_31_RFoot_transform_id" name="Motion_31_RFoot_transform">
      <source id="Motion_31_RFoot_transform_frame_id" name="Motion_31_RFoot_transform_frame">
        <float_array id="Motion_31_RFoot_transform_frame_array_id" count="17">0 0.033333335 0.06666667 0.1 0.13333334 0.16666667 0.2 0.23333333 0.26666668 0.3 0.33333334 0.36666667 0.4 0.43333334 0.46666667 0.5 0.53333336</float_array>
        <technique_common>
          <accessor source="#Motion_31_RFoot_transform_frame_array_id" count="17" stride="1">
            <param name="TIME" type="float" />
          </accessor>
        </technique_common>
      </source>
      <source id="Motion_31_RFoot_transform_interp_id" name="Motion_31_RFoot_transform_interp">
        <Name_array id="Motion_31_RFoot_transform_interp_array_id" count="17">LINEAR LINEAR LINEAR LINEAR LINEAR LINEAR LINEAR LINEAR LINEAR LINEAR LINEAR LINEAR LINEAR LINEAR LINEAR LINEAR LINEAR</Name_array>
        <technique_common>
          <accessor source="#Motion_31_RFoot_transform_interp_array_id" count="17" stride="1">
            <param name="INTERPOLATION" type="Name" />
          </accessor>
        </technique_common>
      </source>
      <source id="Motion_31_RFoot_transform_pose_id" name="Motion_31_RFoot_transform_pose">
        <float_array id="Motion_31_RFoot_transform_pose_array_id" count="272">-0.108258724 -0.139169 -0.9843332 33.9 -0.2446333 0.9634345 -0.109308995 0 0.963553 0.22896704 -0.1383456 0 0 0 0 1 -0.13903415 -0.15203916 -0.9785466 33.9 -0.23590909 0.96478087 -0.11638181 0 0.9617777 0.214667 -0.17000484 0 0 0 0 1 -0.15762079 -0.15483408 -0.9752855 33.9 -0.21283926 0.96974516 -0.11955646 0 0.96428984 0.18873447 -0.18580687 0 0 0 0 1 -0.21519923 -0.14773661 -0.96533066 33.9 -0.15523776 0.9810969 -0.11554269 0 0.96415275 0.12499107 -0.23406565 0 0 0 0 1 -0.2853297 -0.12669024 -0.9500192 33.9 -0.033531196 0.99193776 -0.122209504 0 0.95784265 -0.0030147322 -0.28727746 0 0 0 0 1 -0.33711123 -0.10930836 -0.93509775 33.9 0.053619836 0.9893956 -0.13498595 0 0.9399367 -0.09564507 -0.32767534 0 0 0 0 1 -0.3374791 -0.11443689 -0.93435115 33.9 0.003213048 0.9924372 -0.12271163 0 0.9413275 -0.044414725 -0.33455908 0 0 0 0 1 -0.23105896 -0.12312774 -0.9651172 33.9 -0.14645372 0.985059 -0.09060934 0 0.961854 0.12040891 -0.2456392 0 0 0 0 1 -0.23954916 -0.11331898 -0.9642485 33.9 -0.24625537 0.967779 -0.052556455 0 0.939135 0.2248615 -0.25973606 0 0 0 0 1 -0.22900784 -0.08753053 -0.9694813 33.9 -0.2582739 0.9657169 -0.026182018 0 0.9385362 0.24439579 -0.24376357 0 0 0 0 1 -0.20373917 -0.06849196 -0.9766266 33.9 -0.26552805 0.96402574 -0.0122151 0 0.9423298 0.25683305 -0.21459627 0 0 0 0 1 -0.17067671 -0.057589807 -0.9836426 33.9 -0.26883453 0.9631371 -0.009742439 0 0.9479437 0.2627743 -0.17986715 0 0 0 0 1 -0.14888012 -0.057393745 -0.98718816 33.9 -0.26910365 0.962988 -0.015402615 0 0.95153445 0.26336282 -0.15881467 0 0 0 0 1 -0.14177871 -0.06904289 -0.98748755 33.9 -0.26739767 0.9631513 -0.02894967 0 0.95309865 0.25994745 -0.1550163 0 0 0 0 1 -0.14031577 -0.09841213 -0.98520386 33.9 -0.25905514 0.96403414 -0.059402063 0 0.955616 0.24688707 -0.16076338 0 0 0 0 1 -0.12433362 -0.12693562 -0.9840876 33.9 -0.24955662 0.9639031 -0.09280206 0 0.96034503 0.23404716 -0.15152311 0 0 0 0 1 -0.12433362 -0.12693562 -0.9840876 33.9 -0.24955662 0.9639031 -0.09280206 0 0.96034503 0.23404716 -0.15152311 0 0 0 0 1</float_array>
        <technique_common>
          <accessor source="#Motion_31_RFoot_transform_pose_array_id" count="17" stride="16">
            <param name="TRANSFORM" type="float4x4" />
          </accessor>
        </technique_common>
      </source>
      <sampler id="Motion_31_RFoot_transform_samp_id">
        <input semantic="INPUT" source="#Motion_31_RFoot_transform_frame_id" />
        <input semantic="INTERPOLATION" source="#Motion_31_RFoot_transform_interp_id" />
        <input semantic="OUTPUT" source="#Motion_31_RFoot_transform_pose_id" />
      </sampler>
      <channel source="#Motion_31_RFoot_transform_samp_id" target="RFoot_bone_id/transform" />
    </animation>
  </library_animations>
  <library_visual_scenes>
    <visual_scene id="tr0011_01_fi_00_clip_id" name="tr0011_01_fi_00_clip">
      <node id="tr0011_01_fi_bone_id" name="tr0011_01_fi" sid="tr0011_01_fi" type="JOINT">
        <matrix sid="transform">1 0 0 0 0 1 0 0 0 0 1 0 0 0 0 1</matrix>
        <node id="Origin_bone_id" name="Origin" sid="Origin" type="JOINT">
          <matrix sid="transform">1 0 0 0 0 1 0 0 0 0 1 0 0 0 0 1</matrix>
          <node id="Waist_bone_id" name="Waist" sid="Waist" type="JOINT">
            <matrix sid="transform">3.1391647E-07 -1 0 0 1 3.1391647E-07 0 88.8 0 0 1 0 0 0 0 1</matrix>
            <node id="Spine2_bone_id" name="Spine2" sid="Spine2" type="JOINT">
              <matrix sid="transform">1 0 0 12.099998 0 1 0 0 0 0 1 0 0 0 0 1</matrix>
              <node id="Spine3_bone_id" name="Spine3" sid="Spine3" type="JOINT">
                <matrix sid="transform">0.9919065 0 0.12697035 12.1 0 1 0 0 -0.12697035 0 0.9919065 0 0 0 0 1</matrix>
                <node id="Neck_bone_id" name="Neck" sid="Neck" type="JOINT">
                  <matrix sid="transform">0.9441987 0 -0.32937634 15.720233 0 1 0 0 0.32937634 0 0.9441987 0 0 0 0 1</matrix>
                  <node id="Head_bone_id" name="Head" sid="Head" type="JOINT">
                    <matrix sid="transform">0.9783777 0 0.2068263 5.129917 0 1 0 0 -0.2068263 0 0.9783777 0 0 0 0 1</matrix>
                    <node id="Loc_Head_bone_id" name="Loc_Head" sid="Loc_Head" type="JOINT">
                      <matrix sid="transform">3.1391647E-07 1 0 33.231968 -1 3.1391647E-07 0 0 0 0 1 0 0 0 0 1</matrix>
                    </node>
                    <node id="Loc_Eye_bone_id" name="Loc_Eye" sid="Loc_Eye" type="JOINT">
                      <matrix sid="transform">3.1391647E-07 1 0 9.585958 -1 3.1391647E-07 0 0 0 0 1 13.348955 0 0 0 1</matrix>
                    </node>
                    <node id="Loc_Mouth_bone_id" name="Loc_Mouth" sid="Loc_Mouth" type="JOINT">
                      <matrix sid="transform">3.1391647E-07 1 0 1.771563 -1 3.1391647E-07 0 0 0 0 1 13.51358 0 0 0 1</matrix>
                    </node>
                  </node>
                </node>
                <node id="LShoulder_bone_id" name="LShoulder" sid="LShoulder" type="JOINT">
                  <matrix sid="transform">-0.5887142 0.798307 -0.12697051 14.14009 -0.80482084 -0.59351784 -2.6574628E-07 -3.930001 -0.075359486 0.10218836 0.99190646 -0.201936 0 0 0 1</matrix>
                  <node id="LArm_bone_id" name="LArm" sid="LArm" type="JOINT">
                    <matrix sid="transform">0.8048207 -0.593518 0 8.161509 0.593518 0.8048207 0 0 0 0 1 0 0 0 0 1</matrix>
                    <node id="LForeArm_bone_id" name="LForeArm" sid="LForeArm" type="JOINT">
                      <matrix sid="transform">1 0 0 22.9 0 1 0 0 0 0 1 0 0 0 0 1</matrix>
                      <node id="LHand_bone_id" name="LHand" sid="LHand" type="JOINT">
                        <matrix sid="transform">1 0 0 22.900002 0 1 0 0 0 0 1 0 0 0 0 1</matrix>
                      </node>
                    </node>
                  </node>
                </node>
                <node id="RShoulder_bone_id" name="RShoulder" sid="RShoulder" type="JOINT">
                  <matrix sid="transform">-0.58871174 -0.79830885 -0.12696993 14.14009 0.8048227 -0.5935153 -1.4453335E-07 3.93 -0.07535849 -0.10218837 0.9919065 -0.201935 0 0 0 1</matrix>
                  <node id="RArm_bone_id" name="RArm" sid="RArm" type="JOINT">
                    <matrix sid="transform">0.8048231 0.5935148 0 8.161548 -0.5935148 0.8048231 0 0 0 0 1 0 0 0 0 1</matrix>
                    <node id="RForeArm_bone_id" name="RForeArm" sid="RForeArm" type="JOINT">
                      <matrix sid="transform">1 0 0 22.9 0 1 0 0 0 0 1 0 0 0 0 1</matrix>
                      <node id="RHand_bone_id" name="RHand" sid="RHand" type="JOINT">
                        <matrix sid="transform">1 0 0 22.900002 0 1 0 0 0 0 1 0 0 0 0 1</matrix>
                      </node>
                    </node>
                  </node>
                </node>
              </node>
            </node>
            <node id="Hips_bone_id" name="Hips" sid="Hips" type="JOINT">
              <matrix sid="transform">-1 -3.2584137E-07 0 -0.010002 3.2584137E-07 -1 0 0 0 0 1 0 0 0 0 1</matrix>
              <node id="LThigh_bone_id" name="LThigh" sid="LThigh" type="JOINT">
                <matrix sid="transform">1 0 0 10.510002 0 1 0 7.199996 0 0 1 0 0 0 0 1</matrix>
                <node id="LLeg_bone_id" name="LLeg" sid="LLeg" type="JOINT">
                  <matrix sid="transform">1 0 0 33.899998 0 1 0 0 0 0 1 0 0 0 0 1</matrix>
                  <node id="LFoot_bone_id" name="LFoot" sid="LFoot" type="JOINT">
                    <matrix sid="transform">3.1391647E-07 0 -1 33.9 0 1 0 4E-06 1 0 3.1391647E-07 0 0 0 0 1</matrix>
                  </node>
                </node>
              </node>
              <node id="RThigh_bone_id" name="RThigh" sid="RThigh" type="JOINT">
                <matrix sid="transform">1 0 0 10.510002 0 1 0 -7.2 0 0 1 0 0 0 0 1</matrix>
                <node id="RLeg_bone_id" name="RLeg" sid="RLeg" type="JOINT">
                  <matrix sid="transform">1 0 0 33.899998 0 1 0 0 0 0 1 0 0 0 0 1</matrix>
                  <node id="RFoot_bone_id" name="RFoot" sid="RFoot" type="JOINT">
                    <matrix sid="transform">3.1391647E-07 0 -1 33.9 0 1 0 0 1 0 3.1391647E-07 0 0 0 0 1</matrix>
                  </node>
                </node>
              </node>
            </node>
          </node>
          <node id="CamTgtHead_bone_id" name="CamTgtHead" sid="CamTgtHead" type="JOINT">
            <matrix sid="transform">1 0 0 0 0 1 0 143.19795 0 0 1 0 0 0 0 1</matrix>
          </node>
          <node id="CamTgtBust_bone_id" name="CamTgtBust" sid="CamTgtBust" type="JOINT">
            <matrix sid="transform">1 0 0 0 0 1 0 112.99999 0 0 1 0 0 0 0 1</matrix>
          </node>
          <node id="CamTgtBody_bone_id" name="CamTgtBody" sid="CamTgtBody" type="JOINT">
            <matrix sid="transform">1 0 0 0 0 1 0 88.8 0 0 1 0 0 0 0 1</matrix>
          </node>
          <node id="CamTgtFoot_bone_id" name="CamTgtFoot" sid="CamTgtFoot" type="JOINT">
            <matrix sid="transform">1 0 0 0 0 1 0 0 0 0 1 0 0 0 0 1</matrix>
          </node>
        </node>
        <node id="tr0011_01_fi_CapSkin_bone_id" name="tr0011_01_fi_CapSkin" sid="tr0011_01_fi_CapSkin" type="JOINT">
          <matrix sid="transform">1 0 0 0 0 1 0 0 0 0 1 0 0 0 0 1</matrix>
        </node>
        <node id="tr0011_01_fi_FaceSkin_bone_id" name="tr0011_01_fi_FaceSkin" sid="tr0011_01_fi_FaceSkin" type="JOINT">
          <matrix sid="transform">1 0 0 0 0 1 0 0 0 0 1 0 0 0 0 1</matrix>
        </node>
        <node id="tr0011_01_fi_BodySkin_bone_id" name="tr0011_01_fi_BodySkin" sid="tr0011_01_fi_BodySkin" type="JOINT">
          <matrix sid="transform">1 0 0 0 0 1 0 0 0 0 1 0 0 0 0 1</matrix>
        </node>
        <node id="tr0011_01_fi_HeadSkin_bone_id" name="tr0011_01_fi_HeadSkin" sid="tr0011_01_fi_HeadSkin" type="JOINT">
          <matrix sid="transform">1 0 0 0 0 1 0 0 0 0 1 0 0 0 0 1</matrix>
        </node>
      </node>
    </visual_scene>
  </library_visual_scenes>
  <scene>
    <instance_visual_scene url="#tr0011_01_fi_00_clip_id" />
  </scene>
</COLLADA>