<?xml version="1.0" encoding="utf-8"?>
<COLLADA xmlns:xsi="http://www.w3.org/2001/XMLSchema-instance" xmlns:xsd="http://www.w3.org/2001/XMLSchema" version="1.4.1" xmlns="http://www.collada.org/2005/11/COLLADASchema">
  <asset>
    <created>2026-02-17T05:46:48.6532335-05:00</created>
    <modified>2026-02-17T05:46:48.6532337-05:00</modified>
    <up_axis>Y_UP</up_axis>
  </asset>
  <library_animations>
    <animation id="Motion_31_Waist_transform_id" name="Motion_31_Waist_transform">
      <source id="Motion_31_Waist_transform_frame_id" name="Motion_31_Waist_transform_frame">
        <float_array id="Motion_31_Waist_transform_frame_array_id" count="17">0 0.033333335 0.06666667 0.1 0.13333334 0.16666667 0.2 0.23333333 0.26666668 0.3 0.33333334 0.36666667 0.4 0.43333334 0.46666667 0.5 0.53333336</float_array>
        <technique_common>
          <accessor source="#Motion_31_Waist_transform_frame_array_id" count="17" stride="1">
            <param name="TIME" type="float" />
          </accessor>
        </technique_common>
      </source>
      <source id="Motion_31_Waist_transform_interp_id" name="Motion_31_Waist_transform_interp">
        <Name_array id="Motion_31_Waist_transform_interp_array_id" count="17">LINEAR LINEAR LINEAR LINEAR LINEAR LINEAR LINEAR LINEAR LINEAR LINEAR LINEAR LINEAR LINEAR LINEAR LINEAR LINEAR LINEAR</Name_array>
        <technique_common>
          <accessor source="#Motion_31_Waist_transform_interp_array_id" count="17" stride="1">
            <param name="INTERPOLATION" type="Name" />
          </accessor>
        </technique_common>
      </source>
      <source id="Motion_31_Waist_transform_pose_id" name="Motion_31_Waist_transform_pose">
        <float_array id="Motion_31_Waist_transform_pose_array_id" count="272">0.0047249794 -0.9999391 -0.009975612 -0.31909823 0.9961982 0.005574584 -0.086937375 88.17585 0.08698769 -0.009526908 0.99616385 -2.0134914 0 0 0 1 -0.0021578074 -0.99680334 -0.07986603 -1.0980844 0.9966387 0.004396975 -0.081805855 88.07422 0.08189552 -0.07977408 0.99344313 -1.7218204 0 0 0 1 -0.008874297 -0.994963 -0.09985028 -2.002881 0.9974862 -0.0017875433 -0.070840545 87.864204 0.07030524 -0.100227915 0.9924775 -1.2495793 0 0 0 1 -0.016760945 -0.99627566 -0.08457947 -2.852099 0.99825346 -0.011881471 -0.057867832 87.60074 0.056647386 -0.08540168 0.99473494 -0.8851918 0 0 0 1 -0.02786076 -0.9986132 -0.04466997 -3.7469788 0.9985866 -0.025781155 -0.046475463 87.3665 0.045259364 -0.045901686 0.99792016 -0.56209505 0 0 0 1 -0.032565832 -0.9993961 0.012118564 -4.1788774 0.9986503 -0.03302765 -0.04008309 87.21894 0.040459134 0.010796867 0.99912286 -0.41326833 0 0 0 1 -0.023431659 -0.996665 0.078166 -3.287698 0.99848044 -0.027231693 -0.04790908 87.16651 0.049877893 0.07692463 0.9957885 -1.1845546 0 0 0 1 -0.0036861897 -0.9894027 0.1451505 -2.0692644 0.9973425 -0.014198899 -0.07145735 87.21412 0.07276109 0.14450136 0.9868258 -1.9558408 0 0 0 1 0.020742536 -0.9785458 0.20498267 -1.3872998 0.99471533 -0.00042176247 -0.10266989 87.49371 0.10055363 0.20602903 0.9733658 -1.9014623 0 0 0 1 0.041086614 -0.9672087 0.25063747 -0.7066126 0.9912326 0.007929742 -0.1318905 87.7323 0.12557815 0.25385898 0.9590546 -1.7685397 0 0 0 1 0.052219152 -0.959656 0.27628493 -0.08170915 0.9885864 0.010526061 -0.15028596 87.83517 0.14131466 0.28097937 0.9492527 -1.5940871 0 0 0 1 0.053493917 -0.95988566 0.2752413 0.40869072 0.98848087 0.0118227005 -0.15088321 87.92873 0.14157659 0.28014207 0.94946116 -1.4345555 0 0 0 1 0.045419335 -0.96882766 0.24353658 0.68586737 0.99066204 0.012310624 -0.13578367 88.01114 0.12855287 0.24742964 0.9603399 -1.346396 0 0 0 1 0.033998847 -0.98115176 0.19022414 0.6711011 0.9933271 0.012185633 -0.11468575 88.07968 0.11020613 0.19285399 0.975019 -1.3696175 0 0 0 1 0.022364795 -0.99188876 0.12512614 0.31211716 0.99522865 0.01019907 -0.09703583 88.131645 0.09497258 0.1266993 0.98738414 -1.6050168 0 0 0 1 0.013268113 -0.9981189 0.05985554 -0.1112895 0.99600244 0.007904291 -0.08897561 88.164314 0.08833512 0.060796797 0.9942337 -1.8783631 0 0 0 1 0.013268113 -0.9981189 0.05985554 -0.1112895 0.99600244 0.007904291 -0.08897561 88.164314 0.08833512 0.060796797 0.9942337 -1.8783631 0 0 0 1</float_array>
        <technique_common>
          <accessor source="#Motion_31_Waist_transform_pose_array_id" count="17" stride="16">
            <param name="TRANSFORM" type="float4x4" />
          </accessor>
        </technique_common>
      </source>
      <sampler id="Motion_31_Waist_transform_samp_id">
        <input semantic="INPUT" source="#Motion_31_Waist_transform_frame_id" />
        <input semantic="INTERPOLATION" source="#Motion_31_Waist_transform_interp_id" />
        <input semantic="OUTPUT" source="#Motion_31_Waist_transform_pose_id" />
      </sampler>
      <channel source="#Motion_31_Waist_transform_samp_id" target="Waist_bone_id/transform" />
    </animation>
    <animation id="Motion_31_Hips_transform_id" name="Motion_31_Hips_transform">
      <source id="Motion_31_Hips_transform_frame_id" name="Motion_31_Hips_transform_frame">
        <float_array id="Motion_31_Hips_transform_frame_array_id" count="17">0 0.033333335 0.06666667 0.1 0.13333334 0.16666667 0.2 0.23333333 0.26666668 0.3 0.33333334 0.36666667 0.4 0.43333334 0.46666667 0.5 0.53333336</float_array>
        <technique_common>
          <accessor source="#Motion_31_Hips_transform_frame_array_id" count="17" stride="1">
            <param name="TIME" type="float" />
          </accessor>
        </technique_common>
      </source>
      <source id="Motion_31_Hips_transform_interp_id" name="Motion_31_Hips_transform_interp">
        <Name_array id="Motion_31_Hips_transform_interp_array_id" count="17">LINEAR LINEAR LINEAR LINEAR LINEAR LINEAR LINEAR LINEAR LINEAR LINEAR LINEAR LINEAR LINEAR LINEAR LINEAR LINEAR LINEAR</Name_array>
        <technique_common>
          <accessor source="#Motion_31_Hips_transform_interp_array_id" count="17" stride="1">
            <param name="INTERPOLATION" type="Name" />
          </accessor>
        </technique_common>
      </source>
      <source id="Motion_31_Hips_transform_pose_id" name="Motion_31_Hips_transform_pose">
        <float_array id="Motion_31_Hips_transform_pose_array_id" count="272">-0.99999607 -5.465822E-06 0.0028234385 -0.010002 1.3432783E-05 -0.99999607 0.0028217116 0 0.002823412 0.0028217381 0.999992 0 0 0 0 1 -0.9999989 -0.00036494134 0.001559485 -0.010002 0.00038540908 -0.9999137 0.013144579 0 0.0015545532 0.013145164 0.9999124 0 0 0 0 1 -0.99999976 7.1411436E-05 -0.00022181569 -0.010002 -7.6572825E-05 -0.999727 0.02335663 0 -0.00022008724 0.023356644 0.9997272 0 0 0 0 1 -0.9999918 0.0030976734 -0.002703588 -0.010002 -0.0031284466 -0.99992967 0.0114533985 0 -0.0026679183 0.01146176 0.99993074 0 0 0 0 1 -0.99993086 0.01043174 -0.005452795 -0.010002 -0.010330031 -0.99977815 -0.018359516 0 -0.005643107 -0.018301915 0.9998166 0 0 0 0 1 -0.9997579 0.020634208 -0.007602698 -0.010002 -0.020167265 -0.9981655 -0.057081297 0 -0.008766581 -0.056914166 0.9983406 0 0 0 0 1 -0.99948454 0.03086947 -0.008821078 -0.010002 -0.029884214 -0.99495375 -0.09578075 0 -0.011733266 -0.09546777 0.99536335 0 0 0 0 1 -0.9992182 0.03846664 -0.009150675 -0.010002 -0.037017256 -0.99141 -0.12544411 0 -0.013897482 -0.12500727 0.9920585 0 0 0 0 1 -0.99909604 0.04149277 -0.009236675 -0.010002 -0.03983457 -0.98973 -0.13728693 0 -0.014838228 -0.1367949 0.99048823 0 0 0 0 1 -0.9995191 0.029309291 -0.010143498 -0.010002 -0.027753 -0.99121106 -0.12934776 0 -0.013845436 -0.12900402 0.9915474 0 0 0 0 1 -0.9998982 0.009579174 -0.010588146 -0.010002 -0.008341709 -0.9937519 -0.111300245 0 -0.011588153 -0.11120057 0.9937304 0 0 0 0 1 -0.9999541 0.0037029432 -0.008809719 -0.010002 -0.002875748 -0.9957434 -0.09212154 0 -0.009113343 -0.09209201 0.9957088 0 0 0 0 1 -0.99998176 0.0014002026 -0.005870413 -0.010002 -0.0009917802 -0.9976157 -0.06900739 0 -0.00595304 -0.06900031 0.9975989 0 0 0 0 1 -0.99999607 0.0007868556 -0.002699396 -0.010002 -0.00065484806 -0.99882007 -0.04855964 0 -0.0027344204 -0.04855768 0.9988166 0 0 0 0 1 -1.0000002 0.0001549977 0.000113390095 -0.010002 -0.00015795474 -0.9996474 -0.026560696 0 0.00010923324 -0.026560714 0.9996472 0 0 0 0 1 -0.99999774 -1.682676E-05 0.0020657356 -0.010002 6.412265E-07 -0.99996924 -0.0078349905 0 0.002065804 -0.007834972 0.99996716 0 0 0 0 1 -0.99999774 -1.682676E-05 0.0020657356 -0.010002 6.412265E-07 -0.99996924 -0.0078349905 0 0.002065804 -0.007834972 0.99996716 0 0 0 0 1</float_array>
        <technique_common>
          <accessor source="#Motion_31_Hips_transform_pose_array_id" count="17" stride="16">
            <param name="TRANSFORM" type="float4x4" />
          </accessor>
        </technique_common>
      </source>
      <sampler id="Motion_31_Hips_transform_samp_id">
        <input semantic="INPUT" source="#Motion_31_Hips_transform_frame_id" />
        <input semantic="INTERPOLATION" source="#Motion_31_Hips_transform_interp_id" />
        <input semantic="OUTPUT" source="#Motion_31_Hips_transform_pose_id" />
      </sampler>
      <channel source="#Motion_31_Hips_transform_samp_id" target="Hips_bone_id/transform" />
    </animation>
    <animation id="Motion_31_RThigh_transform_id" name="Motion_31_RThigh_transform">
      <source id="Motion_31_RThigh_transform_frame_id" name="Motion_31_RThigh_transform_frame">
        <float_array id="Motion_31_RThigh_transform_frame_array_id" count="17">0 0.033333335 0.06666667 0.1 0.13333334 0.16666667 0.2 0.23333333 0.26666668 0.3 0.33333334 0.36666667 0.4 0.43333334 0.46666667 0.5 0.53333336</float_array>
        <technique_common>
          <accessor source="#Motion_31_RThigh_transform_frame_array_id" count="17" stride="1">
            <param name="TIME" type="float" />
          </accessor>
        </technique_common>
      </source>
      <source id="Motion_31_RThigh_transform_interp_id" name="Motion_31_RThigh_transform_interp">
        <Name_array id="Motion_31_RThigh_transform_interp_array_id" count="17">LINEAR LINEAR LINEAR LINEAR LINEAR LINEAR LINEAR LINEAR LINEAR LINEAR LINEAR LINEAR LINEAR LINEAR LINEAR LINEAR LINEAR</Name_array>
        <technique_common>
          <accessor source="#Motion_31_RThigh_transform_interp_array_id" count="17" stride="1">
            <param name="INTERPOLATION" type="Name" />
          </accessor>
        </technique_common>
      </source>
      <source id="Motion_31_RThigh_transform_pose_id" name="Motion_31_RThigh_transform_pose">
        <float_array id="Motion_31_RThigh_transform_pose_array_id" count="272">0.9712416 -0.016159073 -0.2375471 10.510002 0.03900549 0.99501383 0.09179338 -8.8 0.23487934 -0.0984192 0.96702915 0 0 0 0 1 0.9658623 0.0030535404 -0.25903812 10.510002 0.04650414 0.9816434 0.18496923 -8.8 0.25484785 -0.19070114 0.9479903 0 0 0 0 1 0.9603325 0.03615047 -0.27650434 10.510002 0.033950604 0.96902794 0.24460623 -8.8 0.27678305 -0.2442908 0.9293617 0 0 0 0 1 0.9588196 0.04201115 -0.28089145 10.510002 0.028537055 0.96974427 0.24244939 -8.8 0.28257844 -0.24048103 0.9286109 0 0 0 0 1 0.9608132 0.043874763 -0.27370235 10.510002 0.009593995 0.98153913 0.19102077 -8.8 0.27703056 -0.18616118 0.9426548 0 0 0 0 1 0.96477044 0.05580528 -0.25710663 10.510002 -0.031110229 0.9945873 0.09913782 -8.8 0.26124743 -0.087646596 0.9612845 0 0 0 0 1 0.96091133 0.10788109 -0.2549728 10.510002 -0.11609512 0.9930867 -0.017342385 -8.8 0.25133917 0.04626559 0.9667927 0 0 0 0 1 0.95270944 0.1406869 -0.26935473 10.510002 -0.17717627 0.9772926 -0.11622306 -8.8 0.24688731 0.15845007 0.95600224 0 0 0 0 1 0.95244527 0.14563447 -0.267654 10.510002 -0.19887096 0.9626153 -0.18390802 -8.8 0.2308645 0.2283909 0.94580084 0 0 0 0 1 0.95159775 0.12530904 -0.28064102 10.510002 -0.18791433 0.95977116 -0.20863257 -8.8 0.24320762 0.25127077 0.9368634 0 0 0 0 1 0.95519835 0.08556597 -0.28332776 10.510002 -0.14592004 0.96901274 -0.19930297 -8.8 0.25749463 0.23171705 0.93808514 0 0 0 0 1 0.94472206 0.051174663 -0.32385397 10.510002 -0.10575221 0.9825145 -0.15323757 -8.8 0.31034935 0.17901517 0.9336149 0 0 0 0 1 0.9448882 0.022698382 -0.32660547 10.510002 -0.055634007 0.9942169 -0.09185639 -8.8 0.3226317 0.10496439 0.9406866 0 0 0 0 1 0.9545756 -0.0044292947 -0.29793584 10.510002 -0.006693392 0.9993185 -0.03630186 -8.8 0.29789358 0.036647074 0.9538954 0 0 0 0 1 0.9640755 -0.019748641 -0.26489317 10.510002 0.024520041 0.999591 0.014717656 -8.8 0.26449418 -0.020684123 0.96416545 0 0 0 0 1 0.9696802 -0.016181272 -0.24384102 10.510002 0.03379843 0.99709636 0.068238646 -8.8 0.2420288 -0.07441111 0.9674115 0 0 0 0 1 0.9696802 -0.016181272 -0.24384102 10.510002 0.03379843 0.99709636 0.068238646 -8.8 0.2420288 -0.07441111 0.9674115 0 0 0 0 1</float_array>
        <technique_common>
          <accessor source="#Motion_31_RThigh_transform_pose_array_id" count="17" stride="16">
            <param name="TRANSFORM" type="float4x4" />
          </accessor>
        </technique_common>
      </source>
      <sampler id="Motion_31_RThigh_transform_samp_id">
        <input semantic="INPUT" source="#Motion_31_RThigh_transform_frame_id" />
        <input semantic="INTERPOLATION" source="#Motion_31_RThigh_transform_interp_id" />
        <input semantic="OUTPUT" source="#Motion_31_RThigh_transform_pose_id" />
      </sampler>
      <channel source="#Motion_31_RThigh_transform_samp_id" target="RThigh_bone_id/transform" />
    </animation>
    <animation id="Motion_31_RLeg_transform_id" name="Motion_31_RLeg_transform">
      <source id="Motion_31_RLeg_transform_frame_id" name="Motion_31_RLeg_transform_frame">
        <float_array id="Motion_31_RLeg_transform_frame_array_id" count="17">0 0.033333335 0.06666667 0.1 0.13333334 0.16666667 0.2 0.23333333 0.26666668 0.3 0.33333334 0.36666667 0.4 0.43333334 0.46666667 0.5 0.53333336</float_array>
        <technique_common>
          <accessor source="#Motion_31_RLeg_transform_frame_array_id" count="17" stride="1">
            <param name="TIME" type="float" />
          </accessor>
        </technique_common>
      </source>
      <source id="Motion_31_RLeg_transform_interp_id" name="Motion_31_RLeg_transform_interp">
        <Name_array id="Motion_31_RLeg_transform_interp_array_id" count="17">LINEAR LINEAR LINEAR LINEAR LINEAR LINEAR LINEAR LINEAR LINEAR LINEAR LINEAR LINEAR LINEAR LINEAR LINEAR LINEAR LINEAR</Name_array>
        <technique_common>
          <accessor source="#Motion_31_RLeg_transform_interp_array_id" count="17" stride="1">
            <param name="INTERPOLATION" type="Name" />
          </accessor>
        </technique_common>
      </source>
      <source id="Motion_31_RLeg_transform_pose_id" name="Motion_31_RLeg_transform_pose">
        <float_array id="Motion_31_RLeg_transform_pose_array_id" count="272">0.97322744 0 0.22984429 33.899998 0 1 0 0 -0.22984429 0 0.97322744 0 0 0 0 1 0.9704316 0 0.2413763 33.899998 0 1 0 0 -0.2413763 0 0.9704316 0 0 0 0 1 0.9558013 0 0.2940134 33.899998 0 1 0 0 -0.2940134 0 0.9558013 0 0 0 0 1 0.9281336 0 0.3722472 33.899998 0 1 0 0 -0.3722472 0 0.9281336 0 0 0 0 1 0.8996276 0 0.4366579 33.899998 0 1 0 0 -0.4366579 0 0.8996276 0 0 0 0 1 0.8813419 0 0.4724791 33.899998 0 1 0 0 -0.4724791 0 0.8813419 0 0 0 0 1 0.87117296 0 0.49097624 33.899998 0 1 0 0 -0.49097624 0 0.87117296 0 0 0 0 1 0.86535716 0 0.5011556 33.899998 0 1 0 0 -0.5011556 0 0.86535716 0 0 0 0 1 0.87333953 0 0.48711202 33.899998 0 1 0 0 -0.48711202 0 0.87333953 0 0 0 0 1 0.86338973 0 0.5045376 33.899998 0 1 0 0 -0.5045376 0 0.86338973 0 0 0 0 1 0.8561127 0 0.51678914 33.899998 0 1 0 0 -0.51678914 0 0.8561127 0 0 0 0 1 0.85800135 0 0.5136474 33.899998 0 1 0 0 -0.5136474 0 0.85800135 0 0 0 0 1 0.899357 0 0.43721503 33.899998 0 1 0 0 -0.43721503 0 0.899357 0 0 0 0 1 0.9412473 0 0.3377182 33.899998 0 1 0 0 -0.3377182 0 0.9412473 0 0 0 0 1 0.9619883 0 0.2730907 33.899998 0 1 0 0 -0.2730907 0 0.9619883 0 0 0 0 1 0.97143286 0 0.2373146 33.899998 0 1 0 0 -0.2373146 0 0.97143286 0 0 0 0 1 0.97143286 0 0.2373146 33.899998 0 1 0 0 -0.2373146 0 0.97143286 0 0 0 0 1</float_array>
        <technique_common>
          <accessor source="#Motion_31_RLeg_transform_pose_array_id" count="17" stride="16">
            <param name="TRANSFORM" type="float4x4" />
          </accessor>
        </technique_common>
      </source>
      <sampler id="Motion_31_RLeg_transform_samp_id">
        <input semantic="INPUT" source="#Motion_31_RLeg_transform_frame_id" />
        <input semantic="INTERPOLATION" source="#Motion_31_RLeg_transform_interp_id" />
        <input semantic="OUTPUT" source="#Motion_31_RLeg_transform_pose_id" />
      </sampler>
      <channel source="#Motion_31_RLeg_transform_samp_id" target="RLeg_bone_id/transform" />
    </animation>
    <animation id="Motion_31_RFoot_transform_id" name="Motion_31_RFoot_transform">
      <source id="Motion_31_RFoot_transform_frame_id" name="Motion_31_RFoot_transform_frame">
        <float_array id="Motion_31_RFoot_transform_frame_array_id" count="17">0 0.033333335 0.06666667 0.1 0.13333334 0.16666667 0.2 0.23333333 0.26666668 0.3 0.33333334 0.36666667 0.4 0.43333334 0.46666667 0.5 0.53333336</float_array>
        <technique_common>
          <accessor source="#Motion_31_RFoot_transform_frame_array_id" count="17" stride="1">
            <param name="TIME" type="float" />
          </accessor>
        </technique_common>
      </source>
      <source id="Motion_31_RFoot_transform_interp_id" name="Motion_31_RFoot_transform_interp">
        <Name_array id="Motion_31_RFoot_transform_interp_array_id" count="17">LINEAR LINEAR LINEAR LINEAR LINEAR LINEAR LINEAR LINEAR LINEAR LINEAR LINEAR LINEAR LINEAR LINEAR LINEAR LINEAR LINEAR</Name_array>
        <technique_common>
          <accessor source="#Motion_31_RFoot_transform_interp_array_id" count="17" stride="1">
            <param name="INTERPOLATION" type="Name" />
          </accessor>
        </technique_common>
      </source>
      <source id="Motion_31_RFoot_transform_pose_id" name="Motion_31_RFoot_transform_pose">
        <float_array id="Motion_31_RFoot_transform_pose_array_id" count="272">-0.07850373 -0.0032493323 -0.9969085 33.9 -0.27577507 0.9610425 0.018584073 0 0.9580111 0.27638143 -0.07634151 0 0 0 0 1 -0.065412045 -0.0051951036 -0.9978449 33.9 -0.21494105 0.9765855 0.009005666 0 0.9744341 0.21506688 -0.06499708 0 0 0 0 1 -0.094845414 -0.021488365 -0.99526006 33.9 -0.07113473 0.9973576 -0.014754714 0 0.9929473 0.06939814 -0.09612334 0 0 0 0 1 -0.15876019 -0.030717995 -0.98683923 33.9 -0.1396815 0.9901613 -0.008349806 0 0.97738653 0.13651757 -0.16148901 0 0 0 0 1 -0.22034085 -0.047398992 -0.9742707 33.9 -0.24946973 0.96833783 0.009309635 0 0.94298196 0.2451023 -0.22518897 0 0 0 0 1 -0.26656377 -0.06870221 -0.9613654 33.9 -0.29613397 0.9550458 0.01386039 0 0.91719574 0.28838766 -0.2749257 0 0 0 0 1 -0.28809023 -0.06913425 -0.9551044 33.9 -0.16923052 0.98536783 -0.02027946 0 0.94253117 0.15579051 -0.29557443 0 0 0 0 1 -0.2858857 -0.06513137 -0.9560477 33.9 -0.0920204 0.9949427 -0.040264383 0 0.9538352 0.076464884 -0.2904333 0 0 0 0 1 -0.27045774 -0.061205048 -0.9607844 33.9 -0.06288571 0.9969689 -0.045808 0 0.9606759 0.048030477 -0.27348685 0 0 0 0 1 -0.24565566 -0.037993975 -0.9686124 33.9 -0.076107375 0.996903 -0.019801639 0 0.9663649 0.06885416 -0.2477864 0 0 0 0 1 -0.21819353 0.0018903948 -0.9759037 33.9 -0.10151164 0.9945296 0.024622548 0 0.97061163 0.10443807 -0.21680796 0 0 0 0 1 -0.24964559 -0.0085479915 -0.9682997 33.9 -0.13862279 0.9899771 0.027000152 0 0.9583637 0.14096886 -0.24832833 0 0 0 0 1 -0.24787128 -0.04036469 -0.96795166 33.9 -0.21277907 0.97700363 0.013745911 0 0.9451375 0.2093671 -0.25075984 0 0 0 0 1 -0.2194972 -0.038397014 -0.97485733 33.9 -0.25289175 0.96731114 0.018840857 0 0.94226694 0.25066888 -0.22203231 0 0 0 0 1 -0.16764975 -0.012828894 -0.98576313 33.9 -0.24964738 0.96787626 0.029861704 0 0.9537136 0.25109947 -0.1654669 0 0 0 0 1 -0.10378599 -0.0061160326 -0.994581 33.9 -0.2585084 0.9657799 0.021036804 0 0.9604176 0.25929084 -0.10181546 0 0 0 0 1 -0.10378599 -0.0061160326 -0.994581 33.9 -0.2585084 0.9657799 0.021036804 0 0.9604176 0.25929084 -0.10181546 0 0 0 0 1</float_array>
        <technique_common>
          <accessor source="#Motion_31_RFoot_transform_pose_array_id" count="17" stride="16">
            <param name="TRANSFORM" type="float4x4" />
          </accessor>
        </technique_common>
      </source>
      <sampler id="Motion_31_RFoot_transform_samp_id">
        <input semantic="INPUT" source="#Motion_31_RFoot_transform_frame_id" />
        <input semantic="INTERPOLATION" source="#Motion_31_RFoot_transform_interp_id" />
        <input semantic="OUTPUT" source="#Motion_31_RFoot_transform_pose_id" />
      </sampler>
      <channel source="#Motion_31_RFoot_transform_samp_id" target="RFoot_bone_id/transform" />
    </animation>
    <animation id="Motion_31_LThigh_transform_id" name="Motion_31_LThigh_transform">
      <source id="Motion_31_LThigh_transform_frame_id" name="Motion_31_LThigh_transform_frame">
        <float_array id="Motion_31_LThigh_transform_frame_array_id" count="17">0 0.033333335 0.06666667 0.1 0.13333334 0.16666667 0.2 0.23333333 0.26666668 0.3 0.33333334 0.36666667 0.4 0.43333334 0.46666667 0.5 0.53333336</float_array>
        <technique_common>
          <accessor source="#Motion_31_LThigh_transform_frame_array_id" count="17" stride="1">
            <param name="TIME" type="float" />
          </accessor>
        </technique_common>
      </source>
      <source id="Motion_31_LThigh_transform_interp_id" name="Motion_31_LThigh_transform_interp">
        <Name_array id="Motion_31_LThigh_transform_interp_array_id" count="17">LINEAR LINEAR LINEAR LINEAR LINEAR LINEAR LINEAR LINEAR LINEAR LINEAR LINEAR LINEAR LINEAR LINEAR LINEAR LINEAR LINEAR</Name_array>
        <technique_common>
          <accessor source="#Motion_31_LThigh_transform_interp_array_id" count="17" stride="1">
            <param name="INTERPOLATION" type="Name" />
          </accessor>
        </technique_common>
      </source>
      <source id="Motion_31_LThigh_transform_pose_id" name="Motion_31_LThigh_transform_pose">
        <float_array id="Motion_31_LThigh_transform_pose_array_id" count="272">0.98655105 -0.01387857 -0.16286322 10.510002 -0.004845175 0.99346787 -0.11400931 8.799997 0.16338167 0.113265105 0.98003954 0 0 0 0 1 0.98605216 -0.023557674 -0.16476116 10.510002 0.02803244 0.9992972 0.024886511 8.799997 0.1640591 -0.029158056 0.9860195 0 0 0 0 1 0.98456335 -0.034072056 -0.17168027 10.510002 0.05739498 0.98948264 0.13277754 8.799997 0.16535065 -0.14058149 0.9761639 0 0 0 0 1 0.977599 -0.04507077 -0.20559363 10.510002 0.09183417 0.9702599 0.22396915 8.799997 0.1893848 -0.23783253 0.9526642 0 0 0 0 1 0.9730828 -0.04833475 -0.22533005 10.510002 0.11742373 0.94530547 0.3043176 8.799997 0.19829664 -0.32258528 0.92553616 0 0 0 0 1 0.9868965 -0.014857769 -0.16066879 10.510002 0.07470056 0.92468494 0.37333304 8.799997 0.1430211 -0.38044316 0.9136783 0 0 0 0 1 0.9926824 0.051637813 -0.109156564 10.510002 -0.0048061404 0.9201345 0.391573 8.799997 0.120658696 -0.388183 0.9136495 0 0 0 0 1 0.9919391 0.10771045 -0.066747524 10.510002 -0.07903126 0.9376226 0.33855268 8.799997 0.09904965 -0.3305485 0.93857706 0 0 0 0 1 0.9884903 0.108529516 -0.10539572 10.510002 -0.07728728 0.96117634 0.26489004 8.799997 0.13005227 -0.25369552 0.95850146 0 0 0 0 1 0.983222 0.08786118 -0.15985899 10.510002 -0.059831038 0.9832093 0.17239404 8.799997 0.17232157 -0.15993708 0.97196984 0 0 0 0 1 0.9751548 0.052058436 -0.21532065 10.510002 -0.039543517 0.9972906 0.06203 8.799997 0.21796644 -0.051974315 0.97457135 0 0 0 0 1 0.9739892 0.03027824 -0.22456254 10.510002 -0.034565043 0.9992871 -0.015182054 8.799997 0.22394277 0.02254917 0.9743414 0 0 0 0 1 0.9778214 0.018024886 -0.20866323 10.510002 -0.028779147 0.9984028 -0.048617914 8.799997 0.20745361 0.05354479 0.9767783 0 0 0 0 1 0.9824142 0.010656349 -0.1864103 10.510002 -0.020458492 0.9985024 -0.050739266 8.799997 0.18559043 0.053660646 0.9811609 0 0 0 0 1 0.9855002 0.0032205 -0.1696437 10.510002 -0.010360235 0.99909645 -0.041218292 8.799997 0.16935769 0.042378183 0.9846431 0 0 0 0 1 0.9864895 -0.0072229723 -0.16366538 10.510002 -0.006378287 0.9965767 -0.082426466 8.799997 0.16370049 0.08235674 0.9830664 0 0 0 0 1 0.9864895 -0.0072229723 -0.16366538 10.510002 -0.006378287 0.9965767 -0.082426466 8.799997 0.16370049 0.08235674 0.9830664 0 0 0 0 1</float_array>
        <technique_common>
          <accessor source="#Motion_31_LThigh_transform_pose_array_id" count="17" stride="16">
            <param name="TRANSFORM" type="float4x4" />
          </accessor>
        </technique_common>
      </source>
      <sampler id="Motion_31_LThigh_transform_samp_id">
        <input semantic="INPUT" source="#Motion_31_LThigh_transform_frame_id" />
        <input semantic="INTERPOLATION" source="#Motion_31_LThigh_transform_interp_id" />
        <input semantic="OUTPUT" source="#Motion_31_LThigh_transform_pose_id" />
      </sampler>
      <channel source="#Motion_31_LThigh_transform_samp_id" target="LThigh_bone_id/transform" />
    </animation>
    <animation id="Motion_31_LLeg_transform_id" name="Motion_31_LLeg_transform">
      <source id="Motion_31_LLeg_transform_frame_id" name="Motion_31_LLeg_transform_frame">
        <float_array id="Motion_31_LLeg_transform_frame_array_id" count="17">0 0.033333335 0.06666667 0.1 0.13333334 0.16666667 0.2 0.23333333 0.26666668 0.3 0.33333334 0.36666667 0.4 0.43333334 0.46666667 0.5 0.53333336</float_array>
        <technique_common>
          <accessor source="#Motion_31_LLeg_transform_frame_array_id" count="17" stride="1">
            <param name="TIME" type="float" />
          </accessor>
        </technique_common>
      </source>
      <source id="Motion_31_LLeg_transform_interp_id" name="Motion_31_LLeg_transform_interp">
        <Name_array id="Motion_31_LLeg_transform_interp_array_id" count="17">LINEAR LINEAR LINEAR LINEAR LINEAR LINEAR LINEAR LINEAR LINEAR LINEAR LINEAR LINEAR LINEAR LINEAR LINEAR LINEAR LINEAR</Name_array>
        <technique_common>
          <accessor source="#Motion_31_LLeg_transform_interp_array_id" count="17" stride="1">
            <param name="INTERPOLATION" type="Name" />
          </accessor>
        </technique_common>
      </source>
      <source id="Motion_31_LLeg_transform_pose_id" name="Motion_31_LLeg_transform_pose">
        <float_array id="Motion_31_LLeg_transform_pose_array_id" count="272">0.9676107 0 0.25244713 33.899998 0 1 0 0 -0.25244713 0 0.9676107 0 0 0 0 1 0.96313244 0 0.26902762 33.899998 0 1 0 0 -0.26902762 0 0.96313244 0 0 0 0 1 0.9554801 0 0.2950555 33.899998 0 1 0 0 -0.2950555 0 0.9554801 0 0 0 0 1 0.9318534 0 0.362835 33.899998 0 1 0 0 -0.362835 0 0.9318534 0 0 0 0 1 0.9033309 0 0.42894435 33.899998 0 1 0 0 -0.42894435 0 0.9033309 0 0 0 0 1 0.914587 0 0.4043892 33.899998 0 1 0 0 -0.4043892 0 0.914587 0 0 0 0 1 0.935136 0 0.35428882 33.899998 0 1 0 0 -0.35428882 0 0.935136 0 0 0 0 1 0.9683369 0 0.24964707 33.899998 0 1 0 0 -0.24964707 0 0.9683369 0 0 0 0 1 0.97666514 0 0.21476765 33.899998 0 1 0 0 -0.21476765 0 0.97666514 0 0 0 0 1 0.9780006 0 0.20860219 33.899998 0 1 0 0 -0.20860219 0 0.9780006 0 0 0 0 1 0.9703234 0 0.24181102 33.899998 0 1 0 0 -0.24181102 0 0.9703234 0 0 0 0 1 0.96902955 0 0.2469449 33.899998 0 1 0 0 -0.2469449 0 0.96902955 0 0 0 0 1 0.96813726 0 0.2504201 33.899998 0 1 0 0 -0.2504201 0 0.96813726 0 0 0 0 1 0.96743083 0 0.25313562 33.899998 0 1 0 0 -0.25313562 0 0.96743083 0 0 0 0 1 0.96708333 0 0.25445977 33.899998 0 1 0 0 -0.25445977 0 0.96708333 0 0 0 0 1 0.9672037 0 0.25400198 33.899998 0 1 0 0 -0.25400198 0 0.9672037 0 0 0 0 1 0.9672037 0 0.25400198 33.899998 0 1 0 0 -0.25400198 0 0.9672037 0 0 0 0 1</float_array>
        <technique_common>
          <accessor source="#Motion_31_LLeg_transform_pose_array_id" count="17" stride="16">
            <param name="TRANSFORM" type="float4x4" />
          </accessor>
        </technique_common>
      </source>
      <sampler id="Motion_31_LLeg_transform_samp_id">
        <input semantic="INPUT" source="#Motion_31_LLeg_transform_frame_id" />
        <input semantic="INTERPOLATION" source="#Motion_31_LLeg_transform_interp_id" />
        <input semantic="OUTPUT" source="#Motion_31_LLeg_transform_pose_id" />
      </sampler>
      <channel source="#Motion_31_LLeg_transform_samp_id" target="LLeg_bone_id/transform" />
    </animation>
    <animation id="Motion_31_LFoot_transform_id" name="Motion_31_LFoot_transform">
      <source id="Motion_31_LFoot_transform_frame_id" name="Motion_31_LFoot_transform_frame">
        <float_array id="Motion_31_LFoot_transform_frame_array_id" count="17">0 0.033333335 0.06666667 0.1 0.13333334 0.16666667 0.2 0.23333333 0.26666668 0.3 0.33333334 0.36666667 0.4 0.43333334 0.46666667 0.5 0.53333336</float_array>
        <technique_common>
          <accessor source="#Motion_31_LFoot_transform_frame_array_id" count="17" stride="1">
            <param name="TIME" type="float" />
          </accessor>
        </technique_common>
      </source>
      <source id="Motion_31_LFoot_transform_interp_id" name="Motion_31_LFoot_transform_interp">
        <Name_array id="Motion_31_LFoot_transform_interp_array_id" count="17">LINEAR LINEAR LINEAR LINEAR LINEAR LINEAR LINEAR LINEAR LINEAR LINEAR LINEAR LINEAR LINEAR LINEAR LINEAR LINEAR LINEAR</Name_array>
        <technique_common>
          <accessor source="#Motion_31_LFoot_transform_interp_array_id" count="17" stride="1">
            <param name="INTERPOLATION" type="Name" />
          </accessor>
        </technique_common>
      </source>
      <source id="Motion_31_LFoot_transform_pose_id" name="Motion_31_LFoot_transform_pose">
        <float_array id="Motion_31_LFoot_transform_pose_array_id" count="272">-0.16625977 0.050367147 -0.9847947 33.9 0.2979577 0.9545779 -0.001481548 4E-06 0.9399887 -0.29367352 -0.17371511 0 0 0 0 1 -0.18102288 0.04636009 -0.9823856 33.9 0.14300087 0.9895134 0.020345874 4E-06 0.97302693 -0.13679892 -0.18575406 0 0 0 0 1 -0.19723344 0.03623316 -0.97968686 33.9 -0.035068985 0.9984164 0.04398606 4E-06 0.9797292 0.04303214 -0.19565046 0 0 0 0 1 -0.22081494 0.03176526 -0.9747982 33.9 -0.19721693 0.9773687 0.07652334 4E-06 0.9551681 0.20914423 -0.20955288 0 0 0 0 1 -0.25529075 0.043963745 -0.96586454 33.9 -0.21266766 0.97194755 0.10045144 4E-06 0.9431859 0.2310524 -0.23877954 0 0 0 0 1 -0.31531346 0.0023566857 -0.94898456 33.9 -0.08779363 0.995636 0.031643216 4E-06 0.94491774 0.09329234 -0.3137306 0 0 0 0 1 -0.31748044 0.044942036 -0.9471993 33.9 0.14194986 0.98987365 -0.0006116554 4E-06 0.93758017 -0.13464898 -0.32064497 0 0 0 0 1 -0.22299445 0.0812522 -0.97142744 33.9 0.43216783 0.90147895 -0.023804039 4E-06 0.8737873 -0.42512792 -0.23613942 0 0 0 0 1 -0.19806683 0.046039 -0.9791067 33.9 0.3469289 0.93752825 -0.026097536 4E-06 0.9167387 -0.34484944 -0.20166552 0 0 0 0 1 -0.18172884 0.030829653 -0.9828653 33.9 0.30558622 0.95179147 -0.026647016 4E-06 0.9346613 -0.3051926 -0.18238902 0 0 0 0 1 -0.1861422 0.031765968 -0.98200905 33.9 0.30653727 0.9514663 -0.027326941 4E-06 0.9334805 -0.3061091 -0.18684554 0 0 0 0 1 -0.18278491 0.030066162 -0.98269314 33.9 0.30478826 0.9520212 -0.027564108 4E-06 0.9347159 -0.30455163 -0.1831789 0 0 0 0 1 -0.18323004 0.029176489 -0.9826371 33.9 0.2960521 0.9547942 -0.026854351 4E-06 0.9374327 -0.29583228 -0.18358481 0 0 0 0 1 -0.18384504 0.029819638 -0.98250276 33.9 0.27655384 0.9607329 -0.022589624 4E-06 0.94324905 -0.2758679 -0.18487275 0 0 0 0 1 -0.18047774 0.03347636 -0.98300916 33.9 0.25782308 0.9660843 -0.014435612 4E-06 0.9491865 -0.25604776 -0.18298769 0 0 0 0 1 -0.17237496 0.043894216 -0.98405296 33.9 0.28427 0.9587185 -0.007030934 4E-06 0.94312114 -0.28094867 -0.17773688 0 0 0 0 1 -0.17237496 0.043894216 -0.98405296 33.9 0.28427 0.9587185 -0.007030934 4E-06 0.94312114 -0.28094867 -0.17773688 0 0 0 0 1</float_array>
        <technique_common>
          <accessor source="#Motion_31_LFoot_transform_pose_array_id" count="17" stride="16">
            <param name="TRANSFORM" type="float4x4" />
          </accessor>
        </technique_common>
      </source>
      <sampler id="Motion_31_LFoot_transform_samp_id">
        <input semantic="INPUT" source="#Motion_31_LFoot_transform_frame_id" />
        <input semantic="INTERPOLATION" source="#Motion_31_LFoot_transform_interp_id" />
        <input semantic="OUTPUT" source="#Motion_31_LFoot_transform_pose_id" />
      </sampler>
      <channel source="#Motion_31_LFoot_transform_samp_id" target="LFoot_bone_id/transform" />
    </animation>
    <animation id="Motion_31_Spine2_transform_id" name="Motion_31_Spine2_transform">
      <source id="Motion_31_Spine2_transform_frame_id" name="Motion_31_Spine2_transform_frame">
        <float_array id="Motion_31_Spine2_transform_frame_array_id" count="17">0 0.033333335 0.06666667 0.1 0.13333334 0.16666667 0.2 0.23333333 0.26666668 0.3 0.33333334 0.36666667 0.4 0.43333334 0.46666667 0.5 0.53333336</float_array>
        <technique_common>
          <accessor source="#Motion_31_Spine2_transform_frame_array_id" count="17" stride="1">
            <param name="TIME" type="float" />
          </accessor>
        </technique_common>
      </source>
      <source id="Motion_31_Spine2_transform_interp_id" name="Motion_31_Spine2_transform_interp">
        <Name_array id="Motion_31_Spine2_transform_interp_array_id" count="17">LINEAR LINEAR LINEAR LINEAR LINEAR LINEAR LINEAR LINEAR LINEAR LINEAR LINEAR LINEAR LINEAR LINEAR LINEAR LINEAR LINEAR</Name_array>
        <technique_common>
          <accessor source="#Motion_31_Spine2_transform_interp_array_id" count="17" stride="1">
            <param name="INTERPOLATION" type="Name" />
          </accessor>
        </technique_common>
      </source>
      <source id="Motion_31_Spine2_transform_pose_id" name="Motion_31_Spine2_transform_pose">
        <float_array id="Motion_31_Spine2_transform_pose_array_id" count="272">0.9844431 -0.015327021 0.17503387 12.099998 0.017146628 0.9998135 -0.008888102 0 -0.17486498 0.011751072 0.9845223 0 0 0 0 1 0.98720884 -0.011587474 0.15901083 12.099998 0.01222683 0.9999206 -0.003043066 0 -0.15896294 0.00494834 0.98727214 0 0 0 0 1 0.992652 -0.003913839 0.12094065 12.099998 0.0028858879 0.9999582 0.008673616 0 -0.12096954 -0.008260861 0.99262184 0 0 0 0 1 0.9971176 0.006778058 0.075568415 12.099998 -0.008527655 0.99970245 0.0228539 0 -0.07539103 -0.023432449 0.9968787 0 0 0 0 1 0.9991097 0.018603584 0.037865076 12.099998 -0.020094717 0.9990219 0.039388206 0 -0.037095282 -0.040114027 0.9985063 0 0 0 0 1 0.9994562 0.024145063 0.022455575 12.099998 -0.025405854 0.9980125 0.05766781 0 -0.021018552 -0.058206957 0.99808323 0 0 0 0 1 0.9992133 0.020481834 0.03396065 12.099998 -0.023054166 0.99675137 0.07716969 0 -0.03226975 -0.077891916 0.9964394 0 0 0 0 1 0.9979461 0.011015715 0.063105114 12.099998 -0.016861752 0.99553543 0.09287021 0 -0.061800342 -0.093743525 0.9936764 0 0 0 0 1 0.9948493 -0.00028532417 0.10136468 12.099998 -0.009879703 0.9949619 0.09976553 0 -0.10088246 -0.10025313 0.98983437 0 0 0 0 1 0.9898699 -0.010841953 0.14156283 12.099998 -0.0019283411 0.99596137 0.089762084 0 -0.1419643 -0.08912576 0.9858513 0 0 0 0 1 0.9842067 -0.017676419 0.17613852 12.099998 0.006589141 0.99797064 0.06333351 0 -0.1769006 -0.06117266 0.98232585 0 0 0 0 1 0.9799701 -0.020273086 0.19811025 12.099998 0.014931119 0.9994845 0.028421478 0 -0.19858432 -0.024894191 0.9797676 0 0 0 0 1 0.97939056 -0.020635344 0.20091854 12.099998 0.022503328 0.9997221 -0.007017463 0 -0.20071791 0.011394173 0.9795828 0 0 0 0 1 0.9804517 -0.02011728 0.19572888 12.099998 0.027418923 0.9990227 -0.03466688 0 -0.19484021 0.039355874 0.9800451 0 0 0 0 1 0.98218393 -0.018511651 0.18700805 12.099998 0.027617874 0.99855006 -0.046206694 0 -0.18588153 0.050548237 0.9812711 0 0 0 0 1 0.98376 -0.01634486 0.17874326 12.099998 0.02166349 0.9993775 -0.02784435 0 -0.17817686 0.03126436 0.9835017 0 0 0 0 1 0.98376 -0.01634486 0.17874326 12.099998 0.02166349 0.9993775 -0.02784435 0 -0.17817686 0.03126436 0.9835017 0 0 0 0 1</float_array>
        <technique_common>
          <accessor source="#Motion_31_Spine2_transform_pose_array_id" count="17" stride="16">
            <param name="TRANSFORM" type="float4x4" />
          </accessor>
        </technique_common>
      </source>
      <sampler id="Motion_31_Spine2_transform_samp_id">
        <input semantic="INPUT" source="#Motion_31_Spine2_transform_frame_id" />
        <input semantic="INTERPOLATION" source="#Motion_31_Spine2_transform_interp_id" />
        <input semantic="OUTPUT" source="#Motion_31_Spine2_transform_pose_id" />
      </sampler>
      <channel source="#Motion_31_Spine2_transform_samp_id" target="Spine2_bone_id/transform" />
    </animation>
    <animation id="Motion_31_Spine3_transform_id" name="Motion_31_Spine3_transform">
      <source id="Motion_31_Spine3_transform_frame_id" name="Motion_31_Spine3_transform_frame">
        <float_array id="Motion_31_Spine3_transform_frame_array_id" count="17">0 0.033333335 0.06666667 0.1 0.13333334 0.16666667 0.2 0.23333333 0.26666668 0.3 0.33333334 0.36666667 0.4 0.43333334 0.46666667 0.5 0.53333336</float_array>
        <technique_common>
          <accessor source="#Motion_31_Spine3_transform_frame_array_id" count="17" stride="1">
            <param name="TIME" type="float" />
          </accessor>
        </technique_common>
      </source>
      <source id="Motion_31_Spine3_transform_interp_id" name="Motion_31_Spine3_transform_interp">
        <Name_array id="Motion_31_Spine3_transform_interp_array_id" count="17">LINEAR LINEAR LINEAR LINEAR LINEAR LINEAR LINEAR LINEAR LINEAR LINEAR LINEAR LINEAR LINEAR LINEAR LINEAR LINEAR LINEAR</Name_array>
        <technique_common>
          <accessor source="#Motion_31_Spine3_transform_interp_array_id" count="17" stride="1">
            <param name="INTERPOLATION" type="Name" />
          </accessor>
        </technique_common>
      </source>
      <source id="Motion_31_Spine3_transform_pose_id" name="Motion_31_Spine3_transform_pose">
        <float_array id="Motion_31_Spine3_transform_pose_array_id" count="272">0.99190956 -1.5122002E-05 0.12694667 12.099991 1.4755945E-05 1 3.8239573E-06 0 -0.12694667 -1.9198014E-06 0.99190956 0 0 0 0 1 0.99236286 0.0029706985 0.1233171 12.099991 -0.003864697 0.99996793 0.007011018 0 -0.12329232 -0.0074340575 0.99234253 0 0 0 0 1 0.9933537 0.011156785 0.11455942 12.099991 -0.013496541 0.99971545 0.019668657 0 -0.11430738 -0.021084089 0.99322164 0 0 0 0 1 0.99442905 0.023882437 0.10266663 12.099991 -0.027488288 0.99904877 0.033851642 0 -0.10176051 -0.036485184 0.9941397 0 0 0 0 1 0.99514985 0.039358307 0.090153836 12.099991 -0.043346692 0.9981464 0.042717 0 -0.088305466 -0.046417687 0.9950113 0 0 0 0 1 0.995562 0.05076652 0.07924042 12.099991 -0.054200552 0.9976546 0.0418039 0 -0.07693233 -0.045913253 0.9959786 0 0 0 0 1 0.9960272 0.05171897 0.07249174 12.099991 -0.054716166 0.9977009 0.03998692 0 -0.070257 -0.04379453 0.99656713 0 0 0 0 1 0.9963592 0.044759117 0.07255934 12.099991 -0.04748407 0.9982131 0.036274545 0 -0.07080607 -0.039587893 0.9967042 0 0 0 0 1 0.99613434 0.033297513 0.081287436 12.099991 -0.035815354 0.99891657 0.02971517 0 -0.08020992 -0.03251164 0.99624765 0 0 0 0 1 0.9951494 0.020904703 0.096128836 12.099991 -0.02288316 0.9995475 0.019525044 0 -0.09567717 -0.021630067 0.9951774 0 0 0 0 1 0.99352187 0.010509018 0.113154 12.099991 -0.011207039 0.99992186 0.0055344147 0 -0.113087006 -0.006766683 0.99356204 0 0 0 0 1 0.99171895 0.0035322686 0.12837833 12.099991 -0.0022655954 0.9999473 -0.010011413 0 -0.12840694 0.009637655 0.9916747 0 0 0 0 1 0.99046475 2.741057E-05 0.13776626 12.099991 0.0033556456 0.9996985 -0.02432418 0 -0.1377254 0.024554538 0.99016607 0 0 0 0 1 0.99033254 -0.0013495751 0.13870701 12.099991 0.0061998665 0.99938405 -0.034541775 0 -0.13857496 0.035067808 0.9897309 0 0 0 0 1 0.99093175 -0.0012351549 0.13436031 12.099991 0.006489587 0.99923074 -0.0386761 0 -0.13420919 0.039197322 0.9901775 0 0 0 0 1 0.99159473 -0.00094205374 0.1293791 12.099991 0.0034868866 0.99980485 -0.019444477 0 -0.12933552 0.01973217 0.99140453 0 0 0 0 1 0.99159473 -0.00094205374 0.1293791 12.099991 0.0034868866 0.99980485 -0.019444477 0 -0.12933552 0.01973217 0.99140453 0 0 0 0 1</float_array>
        <technique_common>
          <accessor source="#Motion_31_Spine3_transform_pose_array_id" count="17" stride="16">
            <param name="TRANSFORM" type="float4x4" />
          </accessor>
        </technique_common>
      </source>
      <sampler id="Motion_31_Spine3_transform_samp_id">
        <input semantic="INPUT" source="#Motion_31_Spine3_transform_frame_id" />
        <input semantic="INTERPOLATION" source="#Motion_31_Spine3_transform_interp_id" />
        <input semantic="OUTPUT" source="#Motion_31_Spine3_transform_pose_id" />
      </sampler>
      <channel source="#Motion_31_Spine3_transform_samp_id" target="Spine3_bone_id/transform" />
    </animation>
    <animation id="Motion_31_RShoulder_transform_id" name="Motion_31_RShoulder_transform">
      <source id="Motion_31_RShoulder_transform_frame_id" name="Motion_31_RShoulder_transform_frame">
        <float_array id="Motion_31_RShoulder_transform_frame_array_id" count="17">0 0.033333335 0.06666667 0.1 0.13333334 0.16666667 0.2 0.23333333 0.26666668 0.3 0.33333334 0.36666667 0.4 0.43333334 0.46666667 0.5 0.53333336</float_array>
        <technique_common>
          <accessor source="#Motion_31_RShoulder_transform_frame_array_id" count="17" stride="1">
            <param name="TIME" type="float" />
          </accessor>
        </technique_common>
      </source>
      <source id="Motion_31_RShoulder_transform_interp_id" name="Motion_31_RShoulder_transform_interp">
        <Name_array id="Motion_31_RShoulder_transform_interp_array_id" count="17">LINEAR LINEAR LINEAR LINEAR LINEAR LINEAR LINEAR LINEAR LINEAR LINEAR LINEAR LINEAR LINEAR LINEAR LINEAR LINEAR LINEAR</Name_array>
        <technique_common>
          <accessor source="#Motion_31_RShoulder_transform_interp_array_id" count="17" stride="1">
            <param name="INTERPOLATION" type="Name" />
          </accessor>
        </technique_common>
      </source>
      <source id="Motion_31_RShoulder_transform_pose_id" name="Motion_31_RShoulder_transform_pose">
        <float_array id="Motion_31_RShoulder_transform_pose_array_id" count="272">-0.53732145 -0.83366907 -0.12759921 14.14009 0.8387027 -0.5440998 0.023089565 4.650001 -0.08867576 -0.094611295 0.991557 -0.20193532 0 0 0 1 -0.5383413 -0.83302325 -0.12751763 14.14009 0.83803755 -0.54512215 0.023127604 4.650001 -0.088778526 -0.09441401 0.9915666 -0.20193532 0 0 0 1 -0.54000974 -0.8319573 -0.1274234 14.14009 0.8369499 -0.5467912 0.023117729 4.650001 -0.088906944 -0.0941632 0.991579 -0.20193532 0 0 0 1 -0.5422056 -0.8305436 -0.12732114 14.14009 0.83551353 -0.54898584 0.023064468 4.650001 -0.08905353 -0.093872845 0.99159336 -0.20193532 0 0 0 1 -0.54480815 -0.8288551 -0.12721543 14.14009 0.83380204 -0.5515857 0.02297239 4.650001 -0.089210965 -0.09355694 0.99160904 -0.20193532 0 0 0 1 -0.5474837 -0.8271055 -0.12711419 14.14009 0.832031 -0.55425775 0.022863444 4.650001 -0.08936451 -0.093245596 0.99162453 -0.20193532 0 0 0 1 -0.5497911 -0.82558703 -0.12702723 14.14009 0.83049405 -0.55656207 0.022768527 4.650001 -0.089495935 -0.09297741 0.9916379 -0.20193532 0 0 0 1 -0.5514492 -0.8244903 -0.1269618 14.14009 0.8293834 -0.5582181 0.022705521 4.650001 -0.08959288 -0.09277907 0.9916477 -0.20193532 0 0 0 1 -0.552179 -0.82400745 -0.12692533 14.14009 0.8288923 -0.5589478 0.022692218 4.650001 -0.08964318 -0.092677265 0.99165267 -0.20193532 0 0 0 1 -0.5516989 -0.824329 -0.12692511 14.14009 0.8292129 -0.5584699 0.022746537 4.650001 -0.089634486 -0.09269871 0.9916515 -0.20193532 0 0 0 1 -0.55002725 -0.82543933 -0.12696345 14.14009 0.83033 -0.55680263 0.022861674 4.650001 -0.08956452 -0.092847034 0.9916439 -0.20193532 0 0 0 1 -0.5476159 -0.82702994 -0.12703574 14.14009 0.83193517 -0.55439603 0.02299533 4.650001 -0.08944595 -0.09309289 0.99163157 -0.20193532 0 0 0 1 -0.5448328 -0.8288503 -0.12713891 14.14009 0.83377737 -0.5516168 0.0231121 4.650001 -0.08928843 -0.09341332 0.9916156 -0.20193532 0 0 0 1 -0.5420493 -0.83065325 -0.12727009 14.14009 0.8356096 -0.54883456 0.023176417 4.650001 -0.08910179 -0.093785346 0.9915973 -0.20193532 0 0 0 1 -0.53963876 -0.83220077 -0.12740476 14.14009 0.8371879 -0.54642344 0.023193084 4.650001 -0.08891824 -0.09414584 0.9915796 -0.20193532 0 0 0 1 -0.53797615 -0.83325946 -0.127516 14.14009 0.8382727 -0.5447588 0.023170862 4.650001 -0.08877279 -0.09442781 0.9915658 -0.20193532 0 0 0 1 -0.53797615 -0.83325946 -0.127516 14.14009 0.8382727 -0.5447588 0.023170862 4.650001 -0.08877279 -0.09442781 0.9915658 -0.20193532 0 0 0 1</float_array>
        <technique_common>
          <accessor source="#Motion_31_RShoulder_transform_pose_array_id" count="17" stride="16">
            <param name="TRANSFORM" type="float4x4" />
          </accessor>
        </technique_common>
      </source>
      <sampler id="Motion_31_RShoulder_transform_samp_id">
        <input semantic="INPUT" source="#Motion_31_RShoulder_transform_frame_id" />
        <input semantic="INTERPOLATION" source="#Motion_31_RShoulder_transform_interp_id" />
        <input semantic="OUTPUT" source="#Motion_31_RShoulder_transform_pose_id" />
      </sampler>
      <channel source="#Motion_31_RShoulder_transform_samp_id" target="RShoulder_bone_id/transform" />
    </animation>
    <animation id="Motion_31_RArm_transform_id" name="Motion_31_RArm_transform">
      <source id="Motion_31_RArm_transform_frame_id" name="Motion_31_RArm_transform_frame">
        <float_array id="Motion_31_RArm_transform_frame_array_id" count="17">0 0.033333335 0.06666667 0.1 0.13333334 0.16666667 0.2 0.23333333 0.26666668 0.3 0.33333334 0.36666667 0.4 0.43333334 0.46666667 0.5 0.53333336</float_array>
        <technique_common>
          <accessor source="#Motion_31_RArm_transform_frame_array_id" count="17" stride="1">
            <param name="TIME" type="float" />
          </accessor>
        </technique_common>
      </source>
      <source id="Motion_31_RArm_transform_interp_id" name="Motion_31_RArm_transform_interp">
        <Name_array id="Motion_31_RArm_transform_interp_array_id" count="17">LINEAR LINEAR LINEAR LINEAR LINEAR LINEAR LINEAR LINEAR LINEAR LINEAR LINEAR LINEAR LINEAR LINEAR LINEAR LINEAR LINEAR</Name_array>
        <technique_common>
          <accessor source="#Motion_31_RArm_transform_interp_array_id" count="17" stride="1">
            <param name="INTERPOLATION" type="Name" />
          </accessor>
        </technique_common>
      </source>
      <source id="Motion_31_RArm_transform_pose_id" name="Motion_31_RArm_transform_pose">
        <float_array id="Motion_31_RArm_transform_pose_array_id" count="272">0.7526462 -0.59453595 0.28293222 9.635175 0.6280135 0.7773116 -0.037225313 0 -0.1977947 0.20570275 0.95841724 0 0 0 0 1 0.7595066 -0.5877676 0.2787094 9.635175 0.6231973 0.780285 -0.052729346 0 -0.1864802 0.21373925 0.95892686 0 0 0 0 1 0.7758576 -0.56934196 0.27183586 9.635175 0.60927755 0.7879964 -0.08855802 0 -0.16378587 0.2343319 0.95826024 0 0 0 0 1 0.79644877 -0.54139966 0.2693617 9.635175 0.5872939 0.79866004 -0.13125567 0 -0.14406666 0.26273292 0.9540525 0 0 0 0 1 0.81578207 -0.5069477 0.27839464 9.635175 0.56106037 0.8105146 -0.16815864 0 -0.14039527 0.29337698 0.94563156 0 0 0 0 1 0.832518 -0.46980962 0.2935859 9.635175 0.53392535 0.8217821 -0.19899231 0 -0.14777511 0.32241762 0.93499166 0 0 0 0 1 0.84513617 -0.43697163 0.3078972 9.635175 0.510453 0.83070916 -0.22217123 0 -0.15869051 0.344932 0.9251158 0 0 0 0 1 0.8516851 -0.41713175 0.31722802 9.635175 0.49686745 0.8351868 -0.23576641 0 -0.166599 0.358419 0.9185753 0 0 0 0 1 0.84955144 -0.4168328 0.3232844 9.635175 0.49764317 0.8365849 -0.22907835 0 -0.17496748 0.35549408 0.9181559 0 0 0 0 1 0.83461523 -0.44609606 0.32313427 9.635175 0.519247 0.8329541 -0.19123286 0 -0.18384781 0.32739234 0.92683023 0 0 0 0 1 0.81210715 -0.4914225 0.31462026 9.635175 0.55073345 0.82369125 -0.13500133 0 -0.19280726 0.28290746 0.9395684 0 0 0 0 1 0.7881876 -0.5383266 0.29826948 9.635175 0.5815588 0.8100616 -0.074763626 0 -0.20136937 0.232389 0.9515491 0 0 0 0 1 0.771056 -0.5721703 0.27945268 9.635175 0.6010497 0.79888934 -0.022695132 0 -0.21026629 0.18546417 0.9598912 0 0 0 0 1 0.760275 -0.5922226 0.26693508 9.635175 0.6127106 0.79026496 0.008182563 0 -0.21579535 0.15733296 0.9636798 0 0 0 0 1 0.75438666 -0.59996843 0.2663433 9.635175 0.6204808 0.78417015 0.008991629 0 -0.21425314 0.15847772 0.9638363 0 0 0 0 1 0.75258195 -0.59771717 0.2763234 9.635175 0.62604964 0.77955616 -0.018817224 0 -0.20416224 0.18715367 0.96088046 0 0 0 0 1 0.75258195 -0.59771717 0.2763234 9.635175 0.62604964 0.77955616 -0.018817224 0 -0.20416224 0.18715367 0.96088046 0 0 0 0 1</float_array>
        <technique_common>
          <accessor source="#Motion_31_RArm_transform_pose_array_id" count="17" stride="16">
            <param name="TRANSFORM" type="float4x4" />
          </accessor>
        </technique_common>
      </source>
      <sampler id="Motion_31_RArm_transform_samp_id">
        <input semantic="INPUT" source="#Motion_31_RArm_transform_frame_id" />
        <input semantic="INTERPOLATION" source="#Motion_31_RArm_transform_interp_id" />
        <input semantic="OUTPUT" source="#Motion_31_RArm_transform_pose_id" />
      </sampler>
      <channel source="#Motion_31_RArm_transform_samp_id" target="RArm_bone_id/transform" />
    </animation>
    <animation id="Motion_31_RForeArm_transform_id" name="Motion_31_RForeArm_transform">
      <source id="Motion_31_RForeArm_transform_frame_id" name="Motion_31_RForeArm_transform_frame">
        <float_array id="Motion_31_RForeArm_transform_frame_array_id" count="17">0 0.033333335 0.06666667 0.1 0.13333334 0.16666667 0.2 0.23333333 0.26666668 0.3 0.33333334 0.36666667 0.4 0.43333334 0.46666667 0.5 0.53333336</float_array>
        <technique_common>
          <accessor source="#Motion_31_RForeArm_transform_frame_array_id" count="17" stride="1">
            <param name="TIME" type="float" />
          </accessor>
        </technique_common>
      </source>
      <source id="Motion_31_RForeArm_transform_interp_id" name="Motion_31_RForeArm_transform_interp">
        <Name_array id="Motion_31_RForeArm_transform_interp_array_id" count="17">LINEAR LINEAR LINEAR LINEAR LINEAR LINEAR LINEAR LINEAR LINEAR LINEAR LINEAR LINEAR LINEAR LINEAR LINEAR LINEAR LINEAR</Name_array>
        <technique_common>
          <accessor source="#Motion_31_RForeArm_transform_interp_array_id" count="17" stride="1">
            <param name="INTERPOLATION" type="Name" />
          </accessor>
        </technique_common>
      </source>
      <source id="Motion_31_RForeArm_transform_pose_id" name="Motion_31_RForeArm_transform_pose">
        <float_array id="Motion_31_RForeArm_transform_pose_array_id" count="272">0.96616894 -1.7484554E-07 -0.25791007 22.9 1.6893038E-07 1 -4.509419E-08 0 0.25791007 -2.4513724E-13 0.96616894 0 0 0 0 1 0.95084876 -1.7455541E-07 -0.30965567 22.9 1.6743489E-07 1 -4.9571696E-08 0 0.30965567 -4.71198E-09 0.95084876 0 0 0 0 1 0.9150184 -1.7356682E-07 -0.40341213 22.9 1.6423262E-07 1 -5.773491E-08 0 0.40341213 -1.3424922E-08 0.9150184 0 0 0 0 1 0.8918695 -1.7279434E-07 -0.45229283 22.9 1.6228633E-07 1 -6.2030864E-08 0 0.45229283 -1.8077506E-08 0.8918695 0 0 0 0 1 0.90249443 -1.7315861E-07 -0.43070158 22.9 1.6317102E-07 1 -6.012907E-08 0 0.43070158 -1.6011871E-08 0.90249443 0 0 0 0 1 0.92656344 -1.7391886E-07 -0.3761385 22.9 1.6523322E-07 1 -5.535141E-08 0 0.3761385 -1.0863989E-08 0.92656344 0 0 0 0 1 0.95358944 -1.7461541E-07 -0.30110985 22.9 1.6769464E-07 1 -4.883122E-08 0 0.30110985 -3.9295642E-09 0.95358944 0 0 0 0 1 0.974097 -1.7493892E-07 -0.2261304 22.9 1.697596E-07 1 -4.2349875E-08 0 0.2261304 2.8650842E-09 0.974097 0 0 0 0 1 0.98595697 -1.7494708E-07 -0.1669995 22.9 1.7112973E-07 1 -3.7248707E-08 0 0.1669995 8.147043E-09 0.98595697 0 0 0 0 1 0.98969275 -1.7489096E-07 -0.14320722 22.9 1.7161953E-07 1 -3.5196287E-08 0 0.14320722 1.0256353E-08 0.98969275 0 0 0 0 1 0.98706734 -1.7493468E-07 -0.16030599 22.9 1.7127104E-07 1 -3.667135E-08 0 0.16030599 8.741318E-09 0.98706734 0 0 0 0 1 0.9806634 -1.7496964E-07 -0.19570185 22.9 1.7049223E-07 1 -3.9724437E-08 0 0.19570185 5.5906604E-09 0.9806634 0 0 0 0 1 0.97392935 -1.7493748E-07 -0.22685154 22.9 1.6974151E-07 1 -4.241212E-08 0 0.22685154 2.8002844E-09 0.97392935 0 0 0 0 1 0.9691391 -1.7488631E-07 -0.24651453 22.9 1.6923536E-07 1 -4.410977E-08 0 0.24651453 1.0295285E-09 0.9691391 0 0 0 0 1 0.96578985 -1.748399E-07 -0.25932604 22.9 1.6889189E-07 1 -4.5216545E-08 0 0.25932604 -1.2838974E-10 0.96578985 0 0 0 0 1 0.96535265 -1.7483329E-07 -0.26094866 22.9 1.6884762E-07 1 -4.5356764E-08 0 0.26094866 -2.7528735E-10 0.96535265 0 0 0 0 1 0.96535265 -1.7483329E-07 -0.26094866 22.9 1.6884762E-07 1 -4.5356764E-08 0 0.26094866 -2.7528735E-10 0.96535265 0 0 0 0 1</float_array>
        <technique_common>
          <accessor source="#Motion_31_RForeArm_transform_pose_array_id" count="17" stride="16">
            <param name="TRANSFORM" type="float4x4" />
          </accessor>
        </technique_common>
      </source>
      <sampler id="Motion_31_RForeArm_transform_samp_id">
        <input semantic="INPUT" source="#Motion_31_RForeArm_transform_frame_id" />
        <input semantic="INTERPOLATION" source="#Motion_31_RForeArm_transform_interp_id" />
        <input semantic="OUTPUT" source="#Motion_31_RForeArm_transform_pose_id" />
      </sampler>
      <channel source="#Motion_31_RForeArm_transform_samp_id" target="RForeArm_bone_id/transform" />
    </animation>
    <animation id="Motion_31_RHand_transform_id" name="Motion_31_RHand_transform">
      <source id="Motion_31_RHand_transform_frame_id" name="Motion_31_RHand_transform_frame">
        <float_array id="Motion_31_RHand_transform_frame_array_id" count="17">0 0.033333335 0.06666667 0.1 0.13333334 0.16666667 0.2 0.23333333 0.26666668 0.3 0.33333334 0.36666667 0.4 0.43333334 0.46666667 0.5 0.53333336</float_array>
        <technique_common>
          <accessor source="#Motion_31_RHand_transform_frame_array_id" count="17" stride="1">
            <param name="TIME" type="float" />
          </accessor>
        </technique_common>
      </source>
      <source id="Motion_31_RHand_transform_interp_id" name="Motion_31_RHand_transform_interp">
        <Name_array id="Motion_31_RHand_transform_interp_array_id" count="17">LINEAR LINEAR LINEAR LINEAR LINEAR LINEAR LINEAR LINEAR LINEAR LINEAR LINEAR LINEAR LINEAR LINEAR LINEAR LINEAR LINEAR</Name_array>
        <technique_common>
          <accessor source="#Motion_31_RHand_transform_interp_array_id" count="17" stride="1">
            <param name="INTERPOLATION" type="Name" />
          </accessor>
        </technique_common>
      </source>
      <source id="Motion_31_RHand_transform_pose_id" name="Motion_31_RHand_transform_pose">
        <float_array id="Motion_31_RHand_transform_pose_array_id" count="272">0.9814822 0.19069237 -0.018140323 22.900002 -0.16861314 0.9049969 0.39057687 0 0.09089696 -0.38028553 0.92039156 0 0 0 0 1 0.9849332 0.16966248 -0.033484668 22.900002 -0.1424875 0.9058885 0.3988275 0 0.097999424 -0.38804728 0.91641444 0 0 0 0 1 0.9900288 0.122153305 -0.07015339 22.900002 -0.0821112 0.90509695 0.41720173 0 0.114458196 -0.40728137 0.9061022 0 0 0 0 1 0.99110746 0.071072936 -0.11249267 22.900002 -0.014653888 0.89856076 0.43860435 0 0.1322544 -0.43305558 0.8916118 0 0 0 0 1 0.9889287 0.038499232 -0.14331055 22.900002 0.032088432 0.8874272 0.45982966 0 0.14488077 -0.45933732 0.8763668 0 0 0 0 1 0.9895438 0.03346202 -0.1402973 22.900002 0.039157096 0.8738566 0.48460433 0 0.13881555 -0.48503086 0.86340916 0 0 0 0 1 0.99550813 0.01242523 -0.09385725 22.900002 0.03822601 0.8542034 0.51853186 0 0.08661606 -0.5197905 0.8498915 0 0 0 0 1 0.9993152 -0.022237947 -0.029573787 22.900002 0.03484846 0.83431184 0.5501903 0 0.012438656 -0.5508442 0.83451545 0 0 0 0 1 0.9981452 -0.052859295 0.0301986 22.900002 0.02657121 0.8245911 0.56510484 0 -0.054772545 -0.56325436 0.8244662 0 0 0 0 1 0.9963932 -0.03185031 0.07865199 22.900002 -0.017034624 0.83293945 0.55310196 0 -0.0831288 -0.5524468 0.8293926 0 0 0 0 1 0.99258715 0.034942824 0.116403215 22.900002 -0.090990484 0.8486013 0.52114934 0 -0.08056948 -0.52787775 0.8454902 0 0 0 0 1 0.9862962 0.0973763 0.13318302 22.900002 -0.15049595 0.86180234 0.4844045 0 -0.067607924 -0.49780983 0.8646471 0 0 0 0 1 0.9818511 0.14488639 0.12237809 22.900002 -0.18526138 0.8707828 0.45542896 0 -0.04057928 -0.46983534 0.8818209 0 0 0 0 1 0.9883979 0.14361379 0.04944387 22.900002 -0.15067932 0.8861647 0.43818697 0 0.01911427 -0.44055328 0.897523 0 0 0 0 1 0.988991 0.14353868 -0.035964467 22.900002 -0.1152884 0.8997853 0.42082664 0 0.092765205 -0.41204748 0.90642786 0 0 0 0 1 0.9815573 0.18111047 -0.061190188 22.900002 -0.14143717 0.9033475 0.40491822 0 0.12861094 -0.38879588 0.9123031 0 0 0 0 1 0.9815573 0.18111047 -0.061190188 22.900002 -0.14143717 0.9033475 0.40491822 0 0.12861094 -0.38879588 0.9123031 0 0 0 0 1</float_array>
        <technique_common>
          <accessor source="#Motion_31_RHand_transform_pose_array_id" count="17" stride="16">
            <param name="TRANSFORM" type="float4x4" />
          </accessor>
        </technique_common>
      </source>
      <sampler id="Motion_31_RHand_transform_samp_id">
        <input semantic="INPUT" source="#Motion_31_RHand_transform_frame_id" />
        <input semantic="INTERPOLATION" source="#Motion_31_RHand_transform_interp_id" />
        <input semantic="OUTPUT" source="#Motion_31_RHand_transform_pose_id" />
      </sampler>
      <channel source="#Motion_31_RHand_transform_samp_id" target="RHand_bone_id/transform" />
    </animation>
    <animation id="Motion_31_LShoulder_transform_id" name="Motion_31_LShoulder_transform">
      <source id="Motion_31_LShoulder_transform_frame_id" name="Motion_31_LShoulder_transform_frame">
        <float_array id="Motion_31_LShoulder_transform_frame_array_id" count="17">0 0.033333335 0.06666667 0.1 0.13333334 0.16666667 0.2 0.23333333 0.26666668 0.3 0.33333334 0.36666667 0.4 0.43333334 0.46666667 0.5 0.53333336</float_array>
        <technique_common>
          <accessor source="#Motion_31_LShoulder_transform_frame_array_id" count="17" stride="1">
            <param name="TIME" type="float" />
          </accessor>
        </technique_common>
      </source>
      <source id="Motion_31_LShoulder_transform_interp_id" name="Motion_31_LShoulder_transform_interp">
        <Name_array id="Motion_31_LShoulder_transform_interp_array_id" count="17">LINEAR LINEAR LINEAR LINEAR LINEAR LINEAR LINEAR LINEAR LINEAR LINEAR LINEAR LINEAR LINEAR LINEAR LINEAR LINEAR LINEAR</Name_array>
        <technique_common>
          <accessor source="#Motion_31_LShoulder_transform_interp_array_id" count="17" stride="1">
            <param name="INTERPOLATION" type="Name" />
          </accessor>
        </technique_common>
      </source>
      <source id="Motion_31_LShoulder_transform_pose_id" name="Motion_31_LShoulder_transform_pose">
        <float_array id="Motion_31_LShoulder_transform_pose_array_id" count="272">-0.5302901 0.8380266 -0.12846597 14.14009 -0.8370287 -0.5415925 -0.077848196 -4.650002 -0.13481508 0.06624755 0.9886537 -0.20193632 0 0 0 1 -0.5311855 0.8374998 -0.12820363 14.14009 -0.83751744 -0.5419102 -0.06998645 -4.650002 -0.12808847 0.070197 0.98927534 -0.20193632 0 0 0 1 -0.532827 0.8365339 -0.12769577 14.14009 -0.83817375 -0.5424799 -0.056393355 -4.650002 -0.116447344 0.07698335 0.99020886 -0.20193632 0 0 0 1 -0.53413296 0.8357721 -0.12722683 14.14009 -0.8386609 -0.54280484 -0.044838235 -4.650002 -0.10653391 0.0827506 0.9908596 -0.20193632 0 0 0 1 -0.5344672 0.83556926 -0.12715887 14.14009 -0.8386415 -0.5429815 -0.043034732 -4.650002 -0.10500337 0.08364004 0.9909484 -0.20193632 0 0 0 1 -0.53512657 0.8351412 -0.12719542 14.14009 -0.8382225 -0.54363704 -0.042914785 -4.650002 -0.10498805 0.083653234 0.99094886 -0.20193632 0 0 0 1 -0.53611445 0.83450466 -0.12721476 14.14009 -0.8375419 -0.5446589 -0.043249983 -4.650002 -0.10538094 0.08336075 0.9909318 -0.20193632 0 0 0 1 -0.53701997 0.83392024 -0.12722741 14.14009 -0.83694565 -0.5455719 -0.043284018 -4.650002 -0.105507106 0.08323805 0.9909287 -0.20193632 0 0 0 1 -0.53751373 0.8335957 -0.1272658 14.14009 -0.8366185 -0.54607224 -0.0432914 -4.650002 -0.10558388 0.0832032 0.99092346 -0.20193632 0 0 0 1 -0.5373192 0.8337191 -0.12727965 14.14009 -0.83674437 -0.5458789 -0.043296732 -4.650002 -0.10557663 0.08323636 0.99092144 -0.20193632 0 0 0 1 -0.53653395 0.834228 -0.12725784 14.14009 -0.83725864 -0.5450891 -0.043305792 -4.650002 -0.10549381 0.0833127 0.9909238 -0.20193632 0 0 0 1 -0.53560364 0.83483076 -0.12722565 14.14009 -0.8378681 -0.54415214 -0.043306895 -4.650002 -0.10538404 0.083402984 0.99092793 -0.20193632 0 0 0 1 -0.5347636 0.835375 -0.12718645 14.14009 -0.83841854 -0.5433041 -0.043298915 -4.650002 -0.105271764 0.083480805 0.9909333 -0.20193632 0 0 0 1 -0.53425395 0.8357063 -0.12715213 14.14009 -0.8387551 -0.5427867 -0.043271184 -4.650002 -0.10517849 0.08353171 0.9909389 -0.20193632 0 0 0 1 -0.5331744 0.83634377 -0.12749179 14.14009 -0.8384818 -0.54245114 -0.05191403 -4.650002 -0.11257604 0.07922032 0.99048007 -0.20193632 0 0 0 1 -0.5311873 0.8375101 -0.12812755 14.14009 -0.8376595 -0.5418265 -0.06892376 -4.650002 -0.12714726 0.07071583 0.9893598 -0.20193632 0 0 0 1 -0.5311873 0.8375101 -0.12812755 14.14009 -0.8376595 -0.5418265 -0.06892376 -4.650002 -0.12714726 0.07071583 0.9893598 -0.20193632 0 0 0 1</float_array>
        <technique_common>
          <accessor source="#Motion_31_LShoulder_transform_pose_array_id" count="17" stride="16">
            <param name="TRANSFORM" type="float4x4" />
          </accessor>
        </technique_common>
      </source>
      <sampler id="Motion_31_LShoulder_transform_samp_id">
        <input semantic="INPUT" source="#Motion_31_LShoulder_transform_frame_id" />
        <input semantic="INTERPOLATION" source="#Motion_31_LShoulder_transform_interp_id" />
        <input semantic="OUTPUT" source="#Motion_31_LShoulder_transform_pose_id" />
      </sampler>
      <channel source="#Motion_31_LShoulder_transform_samp_id" target="LShoulder_bone_id/transform" />
    </animation>
    <animation id="Motion_31_LArm_transform_id" name="Motion_31_LArm_transform">
      <source id="Motion_31_LArm_transform_frame_id" name="Motion_31_LArm_transform_frame">
        <float_array id="Motion_31_LArm_transform_frame_array_id" count="17">0 0.033333335 0.06666667 0.1 0.13333334 0.16666667 0.2 0.23333333 0.26666668 0.3 0.33333334 0.36666667 0.4 0.43333334 0.46666667 0.5 0.53333336</float_array>
        <technique_common>
          <accessor source="#Motion_31_LArm_transform_frame_array_id" count="17" stride="1">
            <param name="TIME" type="float" />
          </accessor>
        </technique_common>
      </source>
      <source id="Motion_31_LArm_transform_interp_id" name="Motion_31_LArm_transform_interp">
        <Name_array id="Motion_31_LArm_transform_interp_array_id" count="17">LINEAR LINEAR LINEAR LINEAR LINEAR LINEAR LINEAR LINEAR LINEAR LINEAR LINEAR LINEAR LINEAR LINEAR LINEAR LINEAR LINEAR</Name_array>
        <technique_common>
          <accessor source="#Motion_31_LArm_transform_interp_array_id" count="17" stride="1">
            <param name="INTERPOLATION" type="Name" />
          </accessor>
        </technique_common>
      </source>
      <source id="Motion_31_LArm_transform_pose_id" name="Motion_31_LArm_transform_pose">
        <float_array id="Motion_31_LArm_transform_pose_array_id" count="272">0.7530841 0.62466085 0.20655051 9.635175 -0.62376 0.7777318 -0.077825174 0 -0.20925522 -0.07022905 0.9753359 0 0 0 0 1 0.7654908 0.62218153 0.16405478 9.635175 -0.6226734 0.7805574 -0.05484519 0 -0.16217783 -0.060169064 0.9849254 0 0 0 0 1 0.785534 0.6141632 0.075761825 9.635175 -0.6144969 0.7886238 -0.021588508 0 -0.07300645 -0.029596899 0.9968922 0 0 0 0 1 0.7995565 0.60046345 -0.012372824 9.635175 -0.6005557 0.79956293 -0.005651987 0 0.00649904 0.011949654 0.9999075 0 0 0 0 1 0.8099246 0.58304065 -0.06391935 9.635175 -0.5853531 0.8103918 -0.025038617 0 0.037201185 0.057694785 0.9976409 0 0 0 0 1 0.8205771 0.5647757 -0.08764471 9.635175 -0.57030284 0.8191894 -0.06069026 0 0.037521232 0.09978507 0.9943013 0 0 0 0 1 0.82980335 0.5501299 -0.09372006 9.635175 -0.557474 0.8248321 -0.09420602 0 0.025477763 0.13041897 0.99113154 0 0 0 0 1 0.8352885 0.54306436 -0.085872814 9.635175 -0.54973423 0.8275456 -0.11384465 0 0.009238701 0.14230035 0.9897804 0 0 0 0 1 0.83495086 0.5458285 -0.070202254 9.635175 -0.55029935 0.8268712 -0.11599426 0 -0.005264744 0.13548176 0.99076587 0 0 0 0 1 0.8294574 0.556625 -0.046573132 9.635175 -0.55814624 0.8226947 -0.10791785 0 -0.021754302 0.11550788 0.99306834 0 0 0 0 1 0.8197225 0.57260376 -0.013418174 9.635175 -0.57102174 0.81518483 -0.09699386 0 -0.044600755 0.087170124 0.99519455 0 0 0 0 1 0.8077568 0.588731 0.030411009 9.635175 -0.58460146 0.80660355 -0.08736016 0 -0.07596126 0.052787438 0.9957125 0 0 0 0 1 0.7951771 0.60072136 0.08262752 9.635175 -0.5951476 0.7992742 -0.08342694 0 -0.11615838 0.017163616 0.9930824 0 0 0 0 1 0.7802508 0.60927033 0.14141572 9.635175 -0.6030773 0.7927916 -0.08819988 0 -0.16585076 -0.01646658 0.98601335 0 0 0 0 1 0.7642886 0.6157558 0.19159271 9.635175 -0.6099838 0.7866944 -0.095034786 0 -0.20924313 -0.044234432 0.97686267 0 0 0 0 1 0.75517786 0.6216602 0.20795463 9.635175 -0.61872417 0.78076065 -0.08713909 0 -0.2165337 -0.06286103 0.9742493 0 0 0 0 1 0.75517786 0.6216602 0.20795463 9.635175 -0.61872417 0.78076065 -0.08713909 0 -0.2165337 -0.06286103 0.9742493 0 0 0 0 1</float_array>
        <technique_common>
          <accessor source="#Motion_31_LArm_transform_pose_array_id" count="17" stride="16">
            <param name="TRANSFORM" type="float4x4" />
          </accessor>
        </technique_common>
      </source>
      <sampler id="Motion_31_LArm_transform_samp_id">
        <input semantic="INPUT" source="#Motion_31_LArm_transform_frame_id" />
        <input semantic="INTERPOLATION" source="#Motion_31_LArm_transform_interp_id" />
        <input semantic="OUTPUT" source="#Motion_31_LArm_transform_pose_id" />
      </sampler>
      <channel source="#Motion_31_LArm_transform_samp_id" target="LArm_bone_id/transform" />
    </animation>
    <animation id="Motion_31_LForeArm_transform_id" name="Motion_31_LForeArm_transform">
      <source id="Motion_31_LForeArm_transform_frame_id" name="Motion_31_LForeArm_transform_frame">
        <float_array id="Motion_31_LForeArm_transform_frame_array_id" count="17">0 0.033333335 0.06666667 0.1 0.13333334 0.16666667 0.2 0.23333333 0.26666668 0.3 0.33333334 0.36666667 0.4 0.43333334 0.46666667 0.5 0.53333336</float_array>
        <technique_common>
          <accessor source="#Motion_31_LForeArm_transform_frame_array_id" count="17" stride="1">
            <param name="TIME" type="float" />
          </accessor>
        </technique_common>
      </source>
      <source id="Motion_31_LForeArm_transform_interp_id" name="Motion_31_LForeArm_transform_interp">
        <Name_array id="Motion_31_LForeArm_transform_interp_array_id" count="17">LINEAR LINEAR LINEAR LINEAR LINEAR LINEAR LINEAR LINEAR LINEAR LINEAR LINEAR LINEAR LINEAR LINEAR LINEAR LINEAR LINEAR</Name_array>
        <technique_common>
          <accessor source="#Motion_31_LForeArm_transform_interp_array_id" count="17" stride="1">
            <param name="INTERPOLATION" type="Name" />
          </accessor>
        </technique_common>
      </source>
      <source id="Motion_31_LForeArm_transform_pose_id" name="Motion_31_LForeArm_transform_pose">
        <float_array id="Motion_31_LForeArm_transform_pose_array_id" count="272">0.95076203 8.1448256E-05 -0.30992174 22.9 -7.914652E-05 1 2.0001002E-05 0 0.30992174 5.513035E-06 0.9507621 0 0 0 0 1 0.9582532 8.156289E-05 -0.28592095 22.9 -7.944212E-05 1 1.901651E-05 0 0.28592095 4.491534E-06 0.9582532 0 0 0 0 1 0.9693686 8.171565E-05 -0.24561049 22.9 -7.989731E-05 1 1.7367718E-05 0 0.24561049 2.7878968E-06 0.9693686 0 0 0 0 1 0.9746971 8.1778715E-05 -0.22352958 22.9 -8.0125355E-05 1 1.6466562E-05 0 0.22352958 1.8604769E-06 0.9746972 0 0 0 0 1 0.9638335 8.16426E-05 -0.26650515 22.9 -7.9667734E-05 1 1.8221699E-05 0 0.26650515 3.6691767E-06 0.9638335 0 0 0 0 1 0.93397635 8.116777E-05 -0.35733476 22.9 -7.850622E-05 1 2.1953681E-05 0 0.35733476 7.5487824E-06 0.93397635 0 0 0 0 1 0.8957817 8.045188E-05 -0.4444943 22.9 -7.711892E-05 1 2.5579993E-05 0 0.4444943 1.1364832E-05 0.8957817 0 0 0 0 1 0.87583697 8.004982E-05 -0.48260704 22.9 -7.64182E-05 1 2.7185535E-05 0 0.48260704 1.3069864E-05 0.87583697 0 0 0 0 1 0.8761892 8.0057034E-05 -0.48196742 22.9 -7.6430464E-05 1 2.7158469E-05 0 0.48196742 1.3041037E-05 0.8761892 0 0 0 0 1 0.8784147 8.010262E-05 -0.47789925 22.9 -7.650809E-05 1 2.6986429E-05 0 0.47789925 1.2857882E-05 0.8784147 0 0 0 0 1 0.884785 8.02321E-05 -0.4659995 22.9 -7.6731056E-05 1 2.6484173E-05 0 0.4659995 1.23238315E-05 0.884785 0 0 0 0 1 0.8974116 8.048402E-05 -0.4411944 22.9 -7.717676E-05 1 2.5441623E-05 0 0.4411944 1.1218344E-05 0.8974116 0 0 0 0 1 0.9186049 8.08901E-05 -0.3951772 22.9 -7.7938814E-05 1 2.3521414E-05 0 0.3951772 9.192754E-06 0.9186049 0 0 0 0 1 0.9392093 8.1258164E-05 -0.3433451 22.9 -7.8703124E-05 1 2.1376316E-05 0 0.3433451 6.9454986E-06 0.93920934 0 0 0 0 1 0.9529288 8.148221E-05 -0.30319414 22.9 -7.923128E-05 1 1.9724801E-05 0 0.30319414 5.226125E-06 0.9529288 0 0 0 0 1 0.95422256 8.150217E-05 -0.29909754 22.9 -7.9282145E-05 1 1.9556708E-05 0 0.29909754 5.051641E-06 0.95422256 0 0 0 0 1 0.95422256 8.150217E-05 -0.29909754 22.9 -7.9282145E-05 1 1.9556708E-05 0 0.29909754 5.051641E-06 0.95422256 0 0 0 0 1</float_array>
        <technique_common>
          <accessor source="#Motion_31_LForeArm_transform_pose_array_id" count="17" stride="16">
            <param name="TRANSFORM" type="float4x4" />
          </accessor>
        </technique_common>
      </source>
      <sampler id="Motion_31_LForeArm_transform_samp_id">
        <input semantic="INPUT" source="#Motion_31_LForeArm_transform_frame_id" />
        <input semantic="INTERPOLATION" source="#Motion_31_LForeArm_transform_interp_id" />
        <input semantic="OUTPUT" source="#Motion_31_LForeArm_transform_pose_id" />
      </sampler>
      <channel source="#Motion_31_LForeArm_transform_samp_id" target="LForeArm_bone_id/transform" />
    </animation>
    <animation id="Motion_31_LHand_transform_id" name="Motion_31_LHand_transform">
      <source id="Motion_31_LHand_transform_frame_id" name="Motion_31_LHand_transform_frame">
        <float_array id="Motion_31_LHand_transform_frame_array_id" count="17">0 0.033333335 0.06666667 0.1 0.13333334 0.16666667 0.2 0.23333333 0.26666668 0.3 0.33333334 0.36666667 0.4 0.43333334 0.46666667 0.5 0.53333336</float_array>
        <technique_common>
          <accessor source="#Motion_31_LHand_transform_frame_array_id" count="17" stride="1">
            <param name="TIME" type="float" />
          </accessor>
        </technique_common>
      </source>
      <source id="Motion_31_LHand_transform_interp_id" name="Motion_31_LHand_transform_interp">
        <Name_array id="Motion_31_LHand_transform_interp_array_id" count="17">LINEAR LINEAR LINEAR LINEAR LINEAR LINEAR LINEAR LINEAR LINEAR LINEAR LINEAR LINEAR LINEAR LINEAR LINEAR LINEAR LINEAR</Name_array>
        <technique_common>
          <accessor source="#Motion_31_LHand_transform_interp_array_id" count="17" stride="1">
            <param name="INTERPOLATION" type="Name" />
          </accessor>
        </technique_common>
      </source>
      <source id="Motion_31_LHand_transform_pose_id" name="Motion_31_LHand_transform_pose">
        <float_array id="Motion_31_LHand_transform_pose_array_id" count="272">0.9736321 -0.22712936 -0.021277979 22.900002 0.20036234 0.8960123 -0.3962536 0 0.10906614 0.3815419 0.91789454 0 0 0 0 1 0.97641003 -0.21586362 0.005131535 22.900002 0.19989786 0.8946969 -0.3994475 0 0.08163501 0.39105034 0.9167417 0 0 0 0 1 0.97940224 -0.1946573 0.053663246 22.900002 0.19953224 0.8922803 -0.40499726 0 0.030953012 0.4073628 0.9127417 0 0 0 0 1 0.98278505 -0.16948184 0.07354924 22.900002 0.18471447 0.8932587 -0.40984085 0 0.0037620924 0.41637108 0.90918696 0 0 0 0 1 0.9889013 -0.14572509 0.028955719 22.900002 0.1447608 0.9011743 -0.40856966 0 0.0334447 0.4082267 0.91226774 0 0 0 0 1 0.99133193 -0.122677945 -0.04702262 22.900002 0.094006695 0.9123666 -0.3984343 0 0.09178097 0.39056024 0.9159907 0 0 0 0 1 0.98515713 -0.103251316 -0.13712984 22.900002 0.04366886 0.92333674 -0.38150012 0 0.1660074 0.36984926 0.91414064 0 0 0 0 1 0.9700981 -0.101709604 -0.22037435 22.900002 0.015446484 0.9319928 -0.36214748 0 0.24222118 0.34791455 0.9056955 0 0 0 0 1 0.95340157 -0.12206678 -0.27590778 22.900002 0.015212875 0.93278456 -0.3601132 0 0.3013204 0.33913517 0.89117527 0 0 0 0 1 0.94518954 -0.15253617 -0.28870314 22.900002 0.036937658 0.9284503 -0.36961553 0 0.32442623 0.3386927 0.8831958 0 0 0 0 1 0.94638205 -0.1756955 -0.27109435 22.900002 0.062396538 0.92278486 -0.3802299 0 0.31696644 0.3429274 0.8842698 0 0 0 0 1 0.9527335 -0.19827655 -0.23018539 22.900002 0.09625042 0.91563183 -0.3903258 0 0.28815752 0.34972104 0.8914373 0 0 0 0 1 0.95936465 -0.21982224 -0.17691132 22.900002 0.13468565 0.90768015 -0.39746255 0 0.24795002 0.3574841 0.9004032 0 0 0 0 1 0.9656908 -0.2278133 -0.12466923 22.900002 0.16134807 0.90248907 -0.39934987 0 0.20348984 0.36553335 0.9082826 0 0 0 0 1 0.9716446 -0.22595662 -0.069644615 22.900002 0.18096575 0.9002368 -0.39601153 0 0.15217806 0.37217915 0.91560066 0 0 0 0 1 0.97528815 -0.2200174 -0.020132858 22.900002 0.194736 0.89909625 -0.39205083 0 0.10435939 0.37844196 0.9197232 0 0 0 0 1 0.97528815 -0.2200174 -0.020132858 22.900002 0.194736 0.89909625 -0.39205083 0 0.10435939 0.37844196 0.9197232 0 0 0 0 1</float_array>
        <technique_common>
          <accessor source="#Motion_31_LHand_transform_pose_array_id" count="17" stride="16">
            <param name="TRANSFORM" type="float4x4" />
          </accessor>
        </technique_common>
      </source>
      <sampler id="Motion_31_LHand_transform_samp_id">
        <input semantic="INPUT" source="#Motion_31_LHand_transform_frame_id" />
        <input semantic="INTERPOLATION" source="#Motion_31_LHand_transform_interp_id" />
        <input semantic="OUTPUT" source="#Motion_31_LHand_transform_pose_id" />
      </sampler>
      <channel source="#Motion_31_LHand_transform_samp_id" target="LHand_bone_id/transform" />
    </animation>
    <animation id="Motion_31_Neck_transform_id" name="Motion_31_Neck_transform">
      <source id="Motion_31_Neck_transform_frame_id" name="Motion_31_Neck_transform_frame">
        <float_array id="Motion_31_Neck_transform_frame_array_id" count="17">0 0.033333335 0.06666667 0.1 0.13333334 0.16666667 0.2 0.23333333 0.26666668 0.3 0.33333334 0.36666667 0.4 0.43333334 0.46666667 0.5 0.53333336</float_array>
        <technique_common>
          <accessor source="#Motion_31_Neck_transform_frame_array_id" count="17" stride="1">
            <param name="TIME" type="float" />
          </accessor>
        </technique_common>
      </source>
      <source id="Motion_31_Neck_transform_interp_id" name="Motion_31_Neck_transform_interp">
        <Name_array id="Motion_31_Neck_transform_interp_array_id" count="17">LINEAR LINEAR LINEAR LINEAR LINEAR LINEAR LINEAR LINEAR LINEAR LINEAR LINEAR LINEAR LINEAR LINEAR LINEAR LINEAR LINEAR</Name_array>
        <technique_common>
          <accessor source="#Motion_31_Neck_transform_interp_array_id" count="17" stride="1">
            <param name="INTERPOLATION" type="Name" />
          </accessor>
        </technique_common>
      </source>
      <source id="Motion_31_Neck_transform_pose_id" name="Motion_31_Neck_transform_pose">
        <float_array id="Motion_31_Neck_transform_pose_array_id" count="272">0.9154147 0.008447591 -0.40242338 15.720233 -0.008273233 0.9999634 0.0021714545 0 0.40242702 0.0013415609 0.9154511 0 0 0 0 1 0.92637855 0.019499566 -0.3760885 15.720233 -0.03700115 0.99853945 -0.039368358 0 0.37477154 0.05038571 0.92574704 0 0 0 0 1 0.941699 0.03048066 -0.335073 15.720233 -0.08616808 0.9845229 -0.15260999 0 0.32523537 0.17258526 0.9297507 0 0 0 0 1 0.94653463 0.012732644 -0.3223509 15.720233 -0.11695798 0.94478405 -0.30611107 0 0.30065438 0.32744625 0.89575994 0 0 0 0 1 0.9472094 -0.014361747 -0.3202937 15.720233 -0.14187098 0.8770956 -0.45888558 0 0.2875186 0.48010114 0.8287557 0 0 0 0 1 0.9488071 -0.0406521 -0.31322914 15.720233 -0.15721609 0.7993268 -0.57996535 0 0.27394927 0.59951985 0.75201577 0 0 0 0 1 0.95028937 -0.058955077 -0.30573592 15.720233 -0.16242933 0.7438563 -0.6483012 0 0.26564422 0.66573423 0.6973027 0 0 0 0 1 0.95045036 -0.064019665 -0.3042131 15.720233 -0.15523787 0.7500885 -0.6428596 0 0.26934242 0.6582315 0.7029836 0 0 0 0 1 0.948519 -0.05733931 -0.31148663 15.720233 -0.13531001 0.8158431 -0.56222 0 0.28636155 0.5754236 0.7660841 0 0 0 0 1 0.94439614 -0.04962949 -0.32504278 15.720233 -0.111734495 0.8812789 -0.45919818 0 0.30924308 0.46998346 0.8267311 0 0 0 0 1 0.9331174 -0.041270062 -0.35719562 15.720233 -0.085592866 0.93934256 -0.33212867 0 0.349236 0.34048846 0.8729844 0 0 0 0 1 0.92009854 -0.030045487 -0.39053288 15.720233 -0.05581384 0.97682184 -0.20664924 0 0.38768992 0.2119348 0.8970954 0 0 0 0 1 0.91327393 -0.01905052 -0.4069002 15.720233 -0.028902754 0.9933576 -0.111378945 0 0.40631923 0.113480024 0.90665704 0 0 0 0 1 0.9147627 -0.010127438 -0.40386462 15.720233 -0.012806371 0.9984564 -0.054044336 0 0.40378857 0.054609783 0.913221 0 0 0 0 1 0.9173911 -0.000978959 -0.3979857 15.720233 -0.0073354384 0.9997855 -0.01936807 0 0.3979193 0.020687493 0.91718715 0 0 0 0 1 0.91717166 0.0057840357 -0.39845037 15.720233 -0.00733908 0.99997026 -0.0023775417 0 0.39842474 0.005104873 0.9171868 0 0 0 0 1 0.91717166 0.0057840357 -0.39845037 15.720233 -0.00733908 0.99997026 -0.0023775417 0 0.39842474 0.005104873 0.9171868 0 0 0 0 1</float_array>
        <technique_common>
          <accessor source="#Motion_31_Neck_transform_pose_array_id" count="17" stride="16">
            <param name="TRANSFORM" type="float4x4" />
          </accessor>
        </technique_common>
      </source>
      <sampler id="Motion_31_Neck_transform_samp_id">
        <input semantic="INPUT" source="#Motion_31_Neck_transform_frame_id" />
        <input semantic="INTERPOLATION" source="#Motion_31_Neck_transform_interp_id" />
        <input semantic="OUTPUT" source="#Motion_31_Neck_transform_pose_id" />
      </sampler>
      <channel source="#Motion_31_Neck_transform_samp_id" target="Neck_bone_id/transform" />
    </animation>
    <animation id="Motion_31_Head_transform_id" name="Motion_31_Head_transform">
      <source id="Motion_31_Head_transform_frame_id" name="Motion_31_Head_transform_frame">
        <float_array id="Motion_31_Head_transform_frame_array_id" count="17">0 0.033333335 0.06666667 0.1 0.13333334 0.16666667 0.2 0.23333333 0.26666668 0.3 0.33333334 0.36666667 0.4 0.43333334 0.46666667 0.5 0.53333336</float_array>
        <technique_common>
          <accessor source="#Motion_31_Head_transform_frame_array_id" count="17" stride="1">
            <param name="TIME" type="float" />
          </accessor>
        </technique_common>
      </source>
      <source id="Motion_31_Head_transform_interp_id" name="Motion_31_Head_transform_interp">
        <Name_array id="Motion_31_Head_transform_interp_array_id" count="17">LINEAR LINEAR LINEAR LINEAR LINEAR LINEAR LINEAR LINEAR LINEAR LINEAR LINEAR LINEAR LINEAR LINEAR LINEAR LINEAR LINEAR</Name_array>
        <technique_common>
          <accessor source="#Motion_31_Head_transform_interp_array_id" count="17" stride="1">
            <param name="INTERPOLATION" type="Name" />
          </accessor>
        </technique_common>
      </source>
      <source id="Motion_31_Head_transform_pose_id" name="Motion_31_Head_transform_pose">
        <float_array id="Motion_31_Head_transform_pose_array_id" count="272">0.9783778 -8.282139E-07 0.20682555 5.129917 7.0654534E-07 1 6.6213113E-07 0 -0.20682555 -5.0168285E-07 0.9783778 0 0 0 0 1 0.9783778 -8.282139E-07 0.20682555 5.129917 7.0654534E-07 1 6.6213113E-07 0 -0.20682555 -5.0168285E-07 0.9783778 0 0 0 0 1 0.9783778 -8.282139E-07 0.20682555 5.129917 7.0654534E-07 1 6.6213113E-07 0 -0.20682555 -5.0168285E-07 0.9783778 0 0 0 0 1 0.9783778 -8.282139E-07 0.20682555 5.129917 7.0654534E-07 1 6.6213113E-07 0 -0.20682555 -5.0168285E-07 0.9783778 0 0 0 0 1 0.9783778 -8.282139E-07 0.20682555 5.129917 7.0654534E-07 1 6.6213113E-07 0 -0.20682555 -5.0168285E-07 0.9783778 0 0 0 0 1 0.9783778 -8.282139E-07 0.20682555 5.129917 7.0654534E-07 1 6.6213113E-07 0 -0.20682555 -5.0168285E-07 0.9783778 0 0 0 0 1 0.9783778 -8.282139E-07 0.20682555 5.129917 7.0654534E-07 1 6.6213113E-07 0 -0.20682555 -5.0168285E-07 0.9783778 0 0 0 0 1 0.9783778 -8.282139E-07 0.20682555 5.129917 7.0654534E-07 1 6.6213113E-07 0 -0.20682555 -5.0168285E-07 0.9783778 0 0 0 0 1 0.9783778 -8.282139E-07 0.20682555 5.129917 7.0654534E-07 1 6.6213113E-07 0 -0.20682555 -5.0168285E-07 0.9783778 0 0 0 0 1 0.9783778 -8.282139E-07 0.20682555 5.129917 7.0654534E-07 1 6.6213113E-07 0 -0.20682555 -5.0168285E-07 0.9783778 0 0 0 0 1 0.9783778 -8.282139E-07 0.20682555 5.129917 7.0654534E-07 1 6.6213113E-07 0 -0.20682555 -5.0168285E-07 0.9783778 0 0 0 0 1 0.9783778 -8.282139E-07 0.20682555 5.129917 7.0654534E-07 1 6.6213113E-07 0 -0.20682555 -5.0168285E-07 0.9783778 0 0 0 0 1 0.9783778 -8.282139E-07 0.20682555 5.129917 7.0654534E-07 1 6.6213113E-07 0 -0.20682555 -5.0168285E-07 0.9783778 0 0 0 0 1 0.9783778 -8.282139E-07 0.20682555 5.129917 7.0654534E-07 1 6.6213113E-07 0 -0.20682555 -5.0168285E-07 0.9783778 0 0 0 0 1 0.9783778 -8.282139E-07 0.20682555 5.129917 7.0654534E-07 1 6.6213113E-07 0 -0.20682555 -5.0168285E-07 0.9783778 0 0 0 0 1 0.9783778 -8.282139E-07 0.20682555 5.129917 7.0654534E-07 1 6.6213113E-07 0 -0.20682555 -5.0168285E-07 0.9783778 0 0 0 0 1 0.9783778 -8.282139E-07 0.20682555 5.129917 7.0654534E-07 1 6.6213113E-07 0 -0.20682555 -5.0168285E-07 0.9783778 0 0 0 0 1</float_array>
        <technique_common>
          <accessor source="#Motion_31_Head_transform_pose_array_id" count="17" stride="16">
            <param name="TRANSFORM" type="float4x4" />
          </accessor>
        </technique_common>
      </source>
      <sampler id="Motion_31_Head_transform_samp_id">
        <input semantic="INPUT" source="#Motion_31_Head_transform_frame_id" />
        <input semantic="INTERPOLATION" source="#Motion_31_Head_transform_interp_id" />
        <input semantic="OUTPUT" source="#Motion_31_Head_transform_pose_id" />
      </sampler>
      <channel source="#Motion_31_Head_transform_samp_id" target="Head_bone_id/transform" />
    </animation>
    <animation id="Motion_31_Loc_Eye_transform_id" name="Motion_31_Loc_Eye_transform">
      <source id="Motion_31_Loc_Eye_transform_frame_id" name="Motion_31_Loc_Eye_transform_frame">
        <float_array id="Motion_31_Loc_Eye_transform_frame_array_id" count="17">0 0.033333335 0.06666667 0.1 0.13333334 0.16666667 0.2 0.23333333 0.26666668 0.3 0.33333334 0.36666667 0.4 0.43333334 0.46666667 0.5 0.53333336</float_array>
        <technique_common>
          <accessor source="#Motion_31_Loc_Eye_transform_frame_array_id" count="17" stride="1">
            <param name="TIME" type="float" />
          </accessor>
        </technique_common>
      </source>
      <source id="Motion_31_Loc_Eye_transform_interp_id" name="Motion_31_Loc_Eye_transform_interp">
        <Name_array id="Motion_31_Loc_Eye_transform_interp_array_id" count="17">LINEAR LINEAR LINEAR LINEAR LINEAR LINEAR LINEAR LINEAR LINEAR LINEAR LINEAR LINEAR LINEAR LINEAR LINEAR LINEAR LINEAR</Name_array>
        <technique_common>
          <accessor source="#Motion_31_Loc_Eye_transform_interp_array_id" count="17" stride="1">
            <param name="INTERPOLATION" type="Name" />
          </accessor>
        </technique_common>
      </source>
      <source id="Motion_31_Loc_Eye_transform_pose_id" name="Motion_31_Loc_Eye_transform_pose">
        <float_array id="Motion_31_Loc_Eye_transform_pose_array_id" count="272">7.1525574E-06 50 0 11.019317 -20 1.7881393E-05 0 0 0 0 400 13.668848 0 0 0 1 7.1535587E-06 50.0028 0 11.019317 -20.0028 1.7882394E-05 0 0 0 0 400.0028 13.668848 0 0 0 1 7.155054E-06 50.00698 0 11.019317 -20.00698 1.7883889E-05 0 0 0 0 400.007 13.668848 0 0 0 1 7.156971E-06 50.012344 0 11.019317 -20.012342 1.7885808E-05 0 0 0 0 400.01233 13.668848 0 0 0 1 7.159242E-06 50.018692 0 11.019317 -20.018692 1.7888078E-05 0 0 0 0 400.01868 13.668848 0 0 0 1 7.1617947E-06 50.02583 0 11.019317 -20.02583 1.789063E-05 0 0 0 0 400.02582 13.668848 0 0 0 1 7.1645586E-06 50.033554 0 11.019317 -20.033558 1.7893393E-05 0 0 0 0 400.03357 13.668848 0 0 0 1 7.167464E-06 50.04168 0 11.019317 -20.041681 1.7896298E-05 0 0 0 0 400.0417 13.668848 0 0 0 1 7.1704385E-06 50.05 0 11.019317 -20.05 1.7899274E-05 0 0 0 0 400.05 13.668848 0 0 0 1 7.173414E-06 50.05832 0 11.019317 -20.05832 1.790225E-05 0 0 0 0 400.05832 13.668848 0 0 0 1 7.176319E-06 50.066444 0 11.019317 -20.066442 1.7905157E-05 0 0 0 0 400.06644 13.668848 0 0 0 1 7.179083E-06 50.07417 0 11.019317 -20.074171 1.7907918E-05 0 0 0 0 400.0742 13.668848 0 0 0 1 7.1816357E-06 50.081306 0 11.019317 -20.081308 1.7910472E-05 0 0 0 0 400.0813 13.668848 0 0 0 1 7.1839063E-06 50.087654 0 11.019317 -20.087658 1.7912742E-05 0 0 0 0 400.08768 13.668848 0 0 0 1 7.185824E-06 50.093018 0 11.019317 -20.09302 1.791466E-05 0 0 0 0 400.09302 13.668848 0 0 0 1 7.187319E-06 50.0972 0 11.019317 -20.0972 1.7916154E-05 0 0 0 0 400.0972 13.668848 0 0 0 1 7.187319E-06 50.0972 0 11.019317 -20.0972 1.7916154E-05 0 0 0 0 400.0972 13.668848 0 0 0 1</float_array>
        <technique_common>
          <accessor source="#Motion_31_Loc_Eye_transform_pose_array_id" count="17" stride="16">
            <param name="TRANSFORM" type="float4x4" />
          </accessor>
        </technique_common>
      </source>
      <sampler id="Motion_31_Loc_Eye_transform_samp_id">
        <input semantic="INPUT" source="#Motion_31_Loc_Eye_transform_frame_id" />
        <input semantic="INTERPOLATION" source="#Motion_31_Loc_Eye_transform_interp_id" />
        <input semantic="OUTPUT" source="#Motion_31_Loc_Eye_transform_pose_id" />
      </sampler>
      <channel source="#Motion_31_Loc_Eye_transform_samp_id" target="Loc_Eye_bone_id/transform" />
    </animation>
  </library_animations>
  <library_visual_scenes>
    <visual_scene id="tr0088_00_fi_00_clip_id" name="tr0088_00_fi_00_clip">
      <node id="tr0088_00_fi_bone_id" name="tr0088_00_fi" sid="tr0088_00_fi" type="JOINT">
        <matrix sid="transform">1 0 0 0 0 1 0 0 0 0 1 0 0 0 0 1</matrix>
        <node id="Origin_bone_id" name="Origin" sid="Origin" type="JOINT">
          <matrix sid="transform">1 0 0 0 0 1 0 0 0 0 1 0 0 0 0 1</matrix>
          <node id="Waist_bone_id" name="Waist" sid="Waist" type="JOINT">
            <matrix sid="transform">3.1391647E-07 -1 0 0 1 3.1391647E-07 0 88.8 0 0 1 0 0 0 0 1</matrix>
            <node id="Spine2_bone_id" name="Spine2" sid="Spine2" type="JOINT">
              <matrix sid="transform">1 0 0 12.099998 0 1 0 0 0 0 1 0 0 0 0 1</matrix>
              <node id="Spine3_bone_id" name="Spine3" sid="Spine3" type="JOINT">
                <matrix sid="transform">0.9919065 0 0.12697035 12.099991 0 1 0 0 -0.12697035 0 0.9919065 0 0 0 0 1</matrix>
                <node id="Neck_bone_id" name="Neck" sid="Neck" type="JOINT">
                  <matrix sid="transform">0.9441987 0 -0.32937634 15.720233 0 1 0 0 0.32937634 0 0.9441987 0 0 0 0 1</matrix>
                  <node id="Head_bone_id" name="Head" sid="Head" type="JOINT">
                    <matrix sid="transform">0.9783777 0 0.2068263 5.129917 0 1 0 0 -0.2068263 0 0.9783777 0 0 0 0 1</matrix>
                    <node id="Loc_Head_bone_id" name="Loc_Head" sid="Loc_Head" type="JOINT">
                      <matrix sid="transform">3.1391647E-07 1 0 32.94323 -1 3.1391647E-07 0 0 0 0 1 0 0 0 0 1</matrix>
                    </node>
                    <node id="Loc_Eye_bone_id" name="Loc_Eye" sid="Loc_Eye" type="JOINT">
                      <matrix sid="transform">3.1391647E-07 1 0 11.019317 -1 3.1391647E-07 0 0 0 0 1 13.668848 0 0 0 1</matrix>
                    </node>
                    <node id="Loc_Mouth_bone_id" name="Loc_Mouth" sid="Loc_Mouth" type="JOINT">
                      <matrix sid="transform">3.1391647E-07 1 0 1.461046 -1 3.1391647E-07 0 0 0 0 1 13.118424 0 0 0 1</matrix>
                    </node>
                  </node>
                </node>
                <node id="LShoulder_bone_id" name="LShoulder" sid="LShoulder" type="JOINT">
                  <matrix sid="transform">-0.49867246 0.85744053 -0.12697043 14.14009 -0.86443686 -0.5027414 -3.2229138E-07 -4.650002 -0.06383357 0.10975776 0.9919065 -0.201936 0 0 0 1</matrix>
                  <node id="LArm_bone_id" name="LArm" sid="LArm" type="JOINT">
                    <matrix sid="transform">0.8644369 -0.5027413 0 9.635175 0.5027413 0.8644369 0 0 0 0 1 0 0 0 0 1</matrix>
                    <node id="LForeArm_bone_id" name="LForeArm" sid="LForeArm" type="JOINT">
                      <matrix sid="transform">1 0 0 22.9 0 1 0 0 0 0 1 0 0 0 0 1</matrix>
                      <node id="LHand_bone_id" name="LHand" sid="LHand" type="JOINT">
                        <matrix sid="transform">1 0 0 22.900002 0 1 0 0 0 0 1 0 0 0 0 1</matrix>
                      </node>
                    </node>
                  </node>
                </node>
                <node id="RShoulder_bone_id" name="RShoulder" sid="RShoulder" type="JOINT">
                  <matrix sid="transform">-0.49867246 -0.85744053 -0.12697043 14.14009 0.86443686 -0.5027414 3.2229138E-07 4.650001 -0.06383357 -0.10975776 0.9919065 -0.201935 0 0 0 1</matrix>
                  <node id="RArm_bone_id" name="RArm" sid="RArm" type="JOINT">
                    <matrix sid="transform">0.8644369 0.5027413 0 9.635175 -0.5027413 0.8644369 0 0 0 0 1 0 0 0 0 1</matrix>
                    <node id="RForeArm_bone_id" name="RForeArm" sid="RForeArm" type="JOINT">
                      <matrix sid="transform">1 0 0 22.9 0 1 0 0 0 0 1 0 0 0 0 1</matrix>
                      <node id="RHand_bone_id" name="RHand" sid="RHand" type="JOINT">
                        <matrix sid="transform">1 0 0 22.900002 0 1 0 0 0 0 1 0 0 0 0 1</matrix>
                      </node>
                    </node>
                  </node>
                </node>
              </node>
            </node>
            <node id="Hips_bone_id" name="Hips" sid="Hips" type="JOINT">
              <matrix sid="transform">-1 -3.2584137E-07 0 -0.010002 3.2584137E-07 -1 0 0 0 0 1 0 0 0 0 1</matrix>
              <node id="LThigh_bone_id" name="LThigh" sid="LThigh" type="JOINT">
                <matrix sid="transform">1 0 0 10.510002 0 1 0 8.799997 0 0 1 0 0 0 0 1</matrix>
                <node id="LLeg_bone_id" name="LLeg" sid="LLeg" type="JOINT">
                  <matrix sid="transform">1 0 0 33.899998 0 1 0 0 0 0 1 0 0 0 0 1</matrix>
                  <node id="LFoot_bone_id" name="LFoot" sid="LFoot" type="JOINT">
                    <matrix sid="transform">3.1391647E-07 0 -1 33.9 0 1 0 4E-06 1 0 3.1391647E-07 0 0 0 0 1</matrix>
                  </node>
                </node>
              </node>
              <node id="RThigh_bone_id" name="RThigh" sid="RThigh" type="JOINT">
                <matrix sid="transform">1 0 0 10.510002 0 1 0 -8.8 0 0 1 0 0 0 0 1</matrix>
                <node id="RLeg_bone_id" name="RLeg" sid="RLeg" type="JOINT">
                  <matrix sid="transform">1 0 0 33.899998 0 1 0 0 0 0 1 0 0 0 0 1</matrix>
                  <node id="RFoot_bone_id" name="RFoot" sid="RFoot" type="JOINT">
                    <matrix sid="transform">3.1391647E-07 0 -1 33.9 0 1 0 0 1 0 3.1391647E-07 0 0 0 0 1</matrix>
                  </node>
                </node>
              </node>
            </node>
          </node>
          <node id="CamTgtHead_bone_id" name="CamTgtHead" sid="CamTgtHead" type="JOINT">
            <matrix sid="transform">1 0 0 0 0 1 0 144.6313 0 0 1 0 0 0 0 1</matrix>
          </node>
          <node id="CamTgtBust_bone_id" name="CamTgtBust" sid="CamTgtBust" type="JOINT">
            <matrix sid="transform">1 0 0 0 0 1 0 112.99999 0 0 1 0 0 0 0 1</matrix>
          </node>
          <node id="CamTgtBody_bone_id" name="CamTgtBody" sid="CamTgtBody" type="JOINT">
            <matrix sid="transform">1 0 0 0 0 1 0 88.8 0 0 1 0 0 0 0 1</matrix>
          </node>
          <node id="CamTgtFoot_bone_id" name="CamTgtFoot" sid="CamTgtFoot" type="JOINT">
            <matrix sid="transform">1 0 0 0 0 1 0 0 0 0 1 0 0 0 0 1</matrix>
          </node>
        </node>
        <node id="tr0088_00_fi_HeadSkin_bone_id" name="tr0088_00_fi_HeadSkin" sid="tr0088_00_fi_HeadSkin" type="JOINT">
          <matrix sid="transform">1 0 0 0 0 1 0 0 0 0 1 0 0 0 0 1</matrix>
        </node>
        <node id="tr0088_00_fi_FaceSkin_bone_id" name="tr0088_00_fi_FaceSkin" sid="tr0088_00_fi_FaceSkin" type="JOINT">
          <matrix sid="transform">1 0 0 0 0 1 0 0 0 0 1 0 0 0 0 1</matrix>
        </node>
        <node id="tr0088_00_fi_BodySkin_bone_id" name="tr0088_00_fi_BodySkin" sid="tr0088_00_fi_BodySkin" type="JOINT">
          <matrix sid="transform">1 0 0 0 0 1 0 0 0 0 1 0 0 0 0 1</matrix>
        </node>
        <node id="tr0088_00_fi_BottomSkin_bone_id" name="tr0088_00_fi_BottomSkin" sid="tr0088_00_fi_BottomSkin" type="JOINT">
          <matrix sid="transform">1 0 0 0 0 1 0 0 0 0 1 0 0 0 0 1</matrix>
        </node>
      </node>
    </visual_scene>
  </library_visual_scenes>
  <scene>
    <instance_visual_scene url="#tr0088_00_fi_00_clip_id" />
  </scene>
</COLLADA>