<?xml version="1.0" encoding="utf-8"?>
<COLLADA xmlns="http://www.collada.org/2005/11/COLLADASchema" version="1.4.1">
	<asset>
		<created>2026-02-17T06:55:57Z</created>
		<modified>2026-02-17T06:55:57Z</modified>
		<up_axis>Y_UP</up_axis>
	</asset>
	<library_animations>
		<animation id="anim_Waist_transform" name="anim_Waist_transform">
			<source id="anim_Waist_transform_input">
				<float_array id="anim_Waist_transform_input_array" count="16">0 0.03333333333333333 0.06666666666666667 0.1 0.13333333333333333 0.16666666666666666 0.2 0.23333333333333334 0.26666666666666666 0.3 0.3333333333333333 0.36666666666666664 0.4 0.43333333333333335 0.4666666666666667 0.5</float_array>
				<technique_common>
					<accessor source="#anim_Waist_transform_input_array" count="16" stride="1">
						<param name="TIME" type="float"/>
					</accessor>
				</technique_common>
			</source>
			<source id="anim_Waist_transform_output">
				<float_array id="anim_Waist_transform_output_array" count="256">0.025548529000309017 -0.9996620361659713 -0.004804801184691988 0 0.9953771699734487 0.02588356445797302 -0.09248962421049128 51.87900924682617 0.09258273144365697 -0.0024196155591343707 0.995702055485966 0.3267451822757721 0 0 0 1 0.02415383686999817 -0.99969739281099 -0.004659932549619654 0 0.9956908254816326 0.024473977766924393 -0.08944721607724532 51.87900924682617 0.08953419579223815 -0.0024793586214142405 0.9959806627463526 0.2897355006089825 0 0 0 1 0.022881763807908295 -0.9997283963642466 -0.00442248663207042 0 0.9963860322637114 0.0231667681022516 -0.0817201050260864 51.87900924682617 0.08180036427068765 -0.002536603766503588 0.9966455067106431 0.19579449489631998 0 0 0 1 0.021590837377578498 -0.9997580922357473 -0.0041943712846915365 0 0.9970197175717422 0.021842118289944867 -0.0739905713031816 51.87900924682617 0.07406428636325404 -0.0025843524811730648 0.9972501203849288 0.10185348918365744 0 0 0 1 0.020281136815869183 -0.9997864114658447 -0.003975793971620109 0 0.9975918373976443 0.020500107755176522 -0.06625912419899874 51.87900924682617 0.06632647621461725 -0.0026224092500834115 0.9977945287095319 0.00791248347099488 0 0 0 1 0.016877906499704998 -0.9998505530474604 -0.003742705288261941 0 0.9976065280707871 0.017090828447096973 -0.0670008860653486 51.87900924682617 0.0670548389211184 -0.0026029125378068327 0.9977458962198659 0.007057416731690783 0 0 0 1 0.013474515949576382 -0.9999030637800087 -0.003507201630445836 0 0.9976091160452937 0.013681208351175256 -0.06774124387239658 51.87900924682617 0.06778266004851378 -0.0025860358473389355 0.9976967592486927 0.006202349992386671 0 0 0 1 0.008143875760784125 -0.9999617102851927 -0.003202382098569191 0 0.9976185966954426 0.008344053801226381 -0.06846540946768623 51.87900924682617 0.0684895087952061 -0.0026371821466411594 0.9976483511013873 0.00534728325308256 0 0 0 1 0.0028131035872563936 -0.9999918558943893 -0.002893888923650223 0 0.9975991684178579 0.003006594167177856 -0.06918713437852933 51.87900924682617 0.06919527166075837 -0.0026923106078148643 0.99759950172571 0.004492216513778449 0 0 0 1 -0.002522366196970216 -0.9999933972376929 -0.00261594147235536 0 0.997539361546026 -0.002332876417697083 -0.07006982127825845 51.87900924682617 0.0700632559557127 -0.002786246334795149 0.9975386593993468 0.0038504712975243847 0 0 0 1 -0.0028869915196707563 -0.9999926783222601 -0.002511689040930437 0 0.9974732081556956 -0.0027014059826981907 -0.0709922630805732 51.87900924682617 0.07098495820629905 -0.0027102965870222373 0.9974737039144743 0.0032087260812703206 0 0 0 1 -0.0032517632457413903 -0.9999918159166117 -0.0024071010762788878 0 0.9974060738169903 -0.0030702480322533088 -0.07191451515512884 51.87900924682617 0.0719065362033971 -0.002634706210988734 0.9974078946822165 0.0025669808650162565 0 0 0 1 -0.003576064755750119 -0.9999906769177037 -0.0024202971998805584 0 0.9974864067165706 -0.0033958070683868247 -0.07077666924925727 51.87900924682617 0.07076779053020624 -0.0026673155095266743 0.9974892506946856 0.0019252356487621924 0 0 0 1 -0.0030861736433509535 -0.9999922057319633 -0.0024625205716945486 0 0.9975675606904985 -0.0029071856405458174 -0.06964560380713426 51.87900924682617 0.06963790196618502 -0.0026714690667003355 0.9975687574612457 0.0012834904325081282 0 0 0 1 -0.0025965959591021104 -0.9999934933644825 -0.002504180130082974 0 0.997647203272507 -0.0024189303368542525 -0.06851428010692806 51.87900924682617 0.06850777687219406 -0.002676192206134305 0.9976469929305183 0.0006417452162540641 0 0 0 1 -0.002121183173419361 -0.9999945378567616 -0.002534726530967403 0 0.9976786992065909 -0.001943732724055236 -0.06806934003310562 51.87900924682617 0.06806404139771544 -0.0026732302069639585 0.9976773727557775 0 0 0 0 1</float_array>
				<technique_common>
					<accessor source="#anim_Waist_transform_output_array" count="16" stride="16">
						<param name="TRANSFORM" type="float4x4"/>
					</accessor>
				</technique_common>
			</source>
			<source id="anim_Waist_transform_interpolation">
				<Name_array id="anim_Waist_transform_interpolation_array" count="16">LINEAR LINEAR LINEAR LINEAR LINEAR LINEAR LINEAR LINEAR LINEAR LINEAR LINEAR LINEAR LINEAR LINEAR LINEAR LINEAR</Name_array>
				<technique_common>
					<accessor source="#anim_Waist_transform_interpolation_array" count="16" stride="1">
						<param name="INTERPOLATION" type="Name"/>
					</accessor>
				</technique_common>
			</source>
			<sampler id="anim_Waist_transform_sampler">
				<input semantic="INPUT" source="#anim_Waist_transform_input"/>
				<input semantic="OUTPUT" source="#anim_Waist_transform_output"/>
				<input semantic="INTERPOLATION" source="#anim_Waist_transform_interpolation"/>
			</sampler>
			<channel source="#anim_Waist_transform_sampler" target="Waist_bone_id/transform"/>
		</animation>
		<animation id="anim_RThigh_transform" name="anim_RThigh_transform">
			<source id="anim_RThigh_transform_input">
				<float_array id="anim_RThigh_transform_input_array" count="16">0 0.03333333333333333 0.06666666666666667 0.1 0.13333333333333333 0.16666666666666666 0.2 0.23333333333333334 0.26666666666666666 0.3 0.3333333333333333 0.36666666666666664 0.4 0.43333333333333335 0.4666666666666667 0.5</float_array>
				<technique_common>
					<accessor source="#anim_RThigh_transform_input_array" count="16" stride="1">
						<param name="TIME" type="float"/>
					</accessor>
				</technique_common>
			</source>
			<source id="anim_RThigh_transform_output">
				<float_array id="anim_RThigh_transform_output_array" count="256">-0.10291539370999425 -0.06190933645239299 -0.9927616309051943 11.299995422363281 -0.21576443553512237 0.975687048142342 -0.03847716784657092 -7.800000190734863 0.9710067610968149 0.21024276003541137 -0.1137710497313158 0 0 0 0 1 -0.10079205175453398 -0.056287588743291636 -0.9933139834194308 11.299995422363281 -0.21363062049959747 0.9763348575120065 -0.03364823906190223 -7.800000190734863 0.9717010447087459 0.20881080757584372 -0.1104315459977614 0 0 0 0 1 -0.09403044235393532 -0.05020973101773191 -0.9943023980770893 11.299995422363281 -0.21158045527019786 0.9769206074865906 -0.029322987836962675 -7.800000190734863 0.9728268020867741 0.2076177005439514 -0.10248367461436514 0 0 0 0 1 -0.08744026540514427 -0.04091681005001151 -0.9953290986609451 11.299995422363281 -0.20641098627387933 0.9782162229349065 -0.022079989411449952 -7.800000190734863 0.9745505142019693 0.20351618078741704 -0.09398116527464984 0 0 0 0 1 -0.0808250534651549 -0.03163227228372352 -0.9962262343878138 11.299995422363281 -0.20127726757304876 0.9794229639272414 -0.01476886218721929 -7.800000190734863 0.976194023896214 0.1993240002662653 -0.0855287707568142 0 0 0 0 1 -0.08356805572406745 -0.02325217610563278 -0.9962307545789039 11.299995422363281 -0.19594810415455216 0.9805930526856793 -0.006450232772336639 -7.800000190734863 0.9770469387602297 0.1946704942484433 -0.08650247469483685 0 0 0 0 1 -0.08629425559549153 -0.014863923259335221 -0.9961588052296485 11.299995422363281 -0.1905958899999981 0.98166681501301 0.0018630666443717608 -7.800000190734863 0.9778683490973256 0.19002454601328045 -0.08754520972684943 0 0 0 0 1 -0.08929485941811621 -0.0045590819481018535 -0.9959948006155903 11.299995422363281 -0.18711366151668618 0.9822615219440087 0.01227925820473412 -7.800000190734863 0.978271386556572 0.18746070862991537 -0.08856397103027924 0 0 0 0 1 -0.09229386725402966 0.005745206034065878 -0.9957152377436642 11.299995422363281 -0.18360306499274626 0.9827385908530826 0.022688688224903886 -7.800000190734863 0.9786581408196455 0.18491039628891512 -0.08964590761273716 0 0 0 0 1 -0.09502234513824748 0.00901073731390123 -0.995434357724048 11.299995422363281 -0.18698596243332932 0.9819986277490103 0.026738454554110863 -7.800000190734863 0.9777561064893993 0.1886730020753382 -0.0916269311423783 0 0 0 0 1 -0.0945011085134515 0.009085534206901752 -0.9954832964735791 11.299995422363281 -0.18705641405024956 0.9819857237196798 0.026719587822385968 -7.800000190734863 0.9777931470676149 0.18873656635350716 -0.09109923198741976 0 0 0 0 1 -0.09397985365976802 0.009160368856601611 -0.9955319556641562 11.299995422363281 -0.18712687163748787 0.9819728138370554 0.02670068905670671 -7.800000190734863 0.977829903928723 0.18880010732874808 -0.0905715101750959 0 0 0 0 1 -0.09345858072888724 0.009235241255186905 -0.995580335285456 11.299995422363281 -0.18719733517978487 0.9819598981008869 0.026681758249470056 -7.800000190734863 0.9778663770626996 0.18886362498018083 -0.09004376585647833 0 0 0 0 1 -0.0929050506852036 0.008501794590478506 -0.9956386749448423 11.299995422363281 -0.18806229850278272 0.9818146931515144 0.025932223075700783 -7.800000190734863 0.9777531505646146 0.18965133218761995 -0.08961667679863528 0 0 0 0 1 -0.09230121127468216 0.007468078509527257 -0.9957031255352179 11.299995422363281 -0.18862892947203158 0.9817340007663236 0.024849118808992987 -7.800000190734863 0.9777011881773806 0.19011201840684258 -0.08920654176580611 0 0 0 0 1 -0.09175987900313087 0.006428335163505577 -0.9957604135093727 11.299995422363281 -0.18919248944749548 0.9816522398841429 0.023771450673120892 -7.800000190734863 0.9776432511616855 0.19057165696260014 -0.08886009802233485 0 0 0 0 1</float_array>
				<technique_common>
					<accessor source="#anim_RThigh_transform_output_array" count="16" stride="16">
						<param name="TRANSFORM" type="float4x4"/>
					</accessor>
				</technique_common>
			</source>
			<source id="anim_RThigh_transform_interpolation">
				<Name_array id="anim_RThigh_transform_interpolation_array" count="16">LINEAR LINEAR LINEAR LINEAR LINEAR LINEAR LINEAR LINEAR LINEAR LINEAR LINEAR LINEAR LINEAR LINEAR LINEAR LINEAR</Name_array>
				<technique_common>
					<accessor source="#anim_RThigh_transform_interpolation_array" count="16" stride="1">
						<param name="INTERPOLATION" type="Name"/>
					</accessor>
				</technique_common>
			</source>
			<sampler id="anim_RThigh_transform_sampler">
				<input semantic="INPUT" source="#anim_RThigh_transform_input"/>
				<input semantic="OUTPUT" source="#anim_RThigh_transform_output"/>
				<input semantic="INTERPOLATION" source="#anim_RThigh_transform_interpolation"/>
			</sampler>
			<channel source="#anim_RThigh_transform_sampler" target="RThigh_bone_id/transform"/>
		</animation>
		<animation id="anim_RLeg_transform" name="anim_RLeg_transform">
			<source id="anim_RLeg_transform_input">
				<float_array id="anim_RLeg_transform_input_array" count="16">0 0.03333333333333333 0.06666666666666667 0.1 0.13333333333333333 0.16666666666666666 0.2 0.23333333333333334 0.26666666666666666 0.3 0.3333333333333333 0.36666666666666664 0.4 0.43333333333333335 0.4666666666666667 0.5</float_array>
				<technique_common>
					<accessor source="#anim_RLeg_transform_input_array" count="16" stride="1">
						<param name="TIME" type="float"/>
					</accessor>
				</technique_common>
			</source>
			<source id="anim_RLeg_transform_output">
				<float_array id="anim_RLeg_transform_output_array" count="256">0.028264767163419635 0 0.9996004716571504 34.29999923706055 0 1 0 0 -0.9996004716571504 0 0.028264767163419635 0 0 0 0 1 0.030150377559193586 0 0.9995453740241301 34.29999923706055 0 1 0 0 -0.9995453740241301 0 0.030150377559193586 0 0 0 0 1 0.032035880662970695 0 0.9994867194466106 34.29999923706055 0 1 0 0 -0.9994867194466106 0 0.032035880662970695 0 0 0 0 1 0.033921269765069706 0 0.9994245081333184 34.29999923706055 0 1 0 0 -0.9994245081333184 0 0.033921269765069706 0 0 0 0 1 0.035806538156216816 0 0.9993587403056359 34.29999923706055 0 1 0 0 -0.9993587403056359 0 0.035806538156216816 0 0 0 0 1 0.037691679127566435 0 0.9992894161976021 34.29999923706055 0 1 0 0 -0.9992894161976021 0 0.037691679127566435 0 0 0 0 1 0.037146612117403444 0 0.9993098264343243 34.29999923706055 0 1 0 0 -0.9993098264343243 0 0.037146612117403444 0 0 0 0 1 0.0366015340555802 0 0.9993299393617596 34.29999923706055 0 1 0 0 -0.9993299393617596 0 0.0366015340555802 0 0 0 0 1 0.03605644510426531 0 0.9993497549739245 34.29999923706055 0 1 0 0 -0.9993497549739245 0 0.03605644510426531 0 0 0 0 1 0.035511345425630614 0 0.9993692732649236 34.29999923706055 0 1 0 0 -0.9993692732649236 0 0.035511345425630614 0 0 0 0 1 0.03496623518185149 0 0.9993884942289497 34.29999923706055 0 1 0 0 -0.9993884942289497 0 0.03496623518185149 0 0 0 0 1 0.03442111453510599 0 0.9994074178602844 34.29999923706055 0 1 0 0 -0.9994074178602844 0 0.03442111453510599 0 0 0 0 1 0.034472716726411945 0 0.9994056392684105 34.29999923706055 0 1 0 0 -0.9994056392684105 0 0.034472716726411945 0 0 0 0 1 0.0345243188258153 0 0.9994038580121718 34.29999923706055 0 1 0 0 -0.9994038580121718 0 0.0345243188258153 0 0 0 0 1 0.03457592083317862 0 0.999402074091573 34.29999923706055 0 1 0 0 -0.999402074091573 0 0.03457592083317862 0 0 0 0 1 0.034627522748364115 0 0.9994002875066185 34.29999923706055 0 1 0 0 -0.9994002875066185 0 0.034627522748364115 0 0 0 0 1</float_array>
				<technique_common>
					<accessor source="#anim_RLeg_transform_output_array" count="16" stride="16">
						<param name="TRANSFORM" type="float4x4"/>
					</accessor>
				</technique_common>
			</source>
			<source id="anim_RLeg_transform_interpolation">
				<Name_array id="anim_RLeg_transform_interpolation_array" count="16">LINEAR LINEAR LINEAR LINEAR LINEAR LINEAR LINEAR LINEAR LINEAR LINEAR LINEAR LINEAR LINEAR LINEAR LINEAR LINEAR</Name_array>
				<technique_common>
					<accessor source="#anim_RLeg_transform_interpolation_array" count="16" stride="1">
						<param name="INTERPOLATION" type="Name"/>
					</accessor>
				</technique_common>
			</source>
			<sampler id="anim_RLeg_transform_sampler">
				<input semantic="INPUT" source="#anim_RLeg_transform_input"/>
				<input semantic="OUTPUT" source="#anim_RLeg_transform_output"/>
				<input semantic="INTERPOLATION" source="#anim_RLeg_transform_interpolation"/>
			</sampler>
			<channel source="#anim_RLeg_transform_sampler" target="RLeg_bone_id/transform"/>
		</animation>
		<animation id="anim_RFoot_transform" name="anim_RFoot_transform">
			<source id="anim_RFoot_transform_input">
				<float_array id="anim_RFoot_transform_input_array" count="16">0 0.03333333333333333 0.06666666666666667 0.1 0.13333333333333333 0.16666666666666666 0.2 0.23333333333333334 0.26666666666666666 0.3 0.3333333333333333 0.36666666666666664 0.4 0.43333333333333335 0.4666666666666667 0.5</float_array>
				<technique_common>
					<accessor source="#anim_RFoot_transform_input_array" count="16" stride="1">
						<param name="TIME" type="float"/>
					</accessor>
				</technique_common>
			</source>
			<source id="anim_RFoot_transform_output">
				<float_array id="anim_RFoot_transform_output_array" count="256">0.046768635625558885 0.016065433195053623 -0.998776549873884 34.29999923706055 0.01801056007195198 0.9996945597640636 0.01692356061913929 0 0.998743367661392 -0.018780016890044115 0.04646500315281754 0 0 0 0 1 0.048721011933883895 0.01307148118238383 -0.9987268892824689 34.29999923706055 0.015611555883964772 0.999782247990285 0.013846874245621962 0 0.9986904136513076 -0.016266314370219498 0.04850633667665505 0 0 0 0 1 0.05067617702537208 0.01008080266175174 -0.9986642591480822 34.29999923706055 0.013217272916507018 0.9998547146539236 0.010763516199255486 0 0.9986276727483291 -0.013745071917450424 0.05053557379945728 0 0 0 0 1 0.052625360619264594 0.004366301499844003 -0.9986047800961624 34.29999923706055 0.008100679740399172 0.9999556728072453 0.004799104953306931 0 0.9985814690887449 -0.008341932139608228 0.052587657874660354 0 0 0 0 1 0.054586600122144335 -0.0013406897475252834 -0.9985081399959173 34.29999923706055 0.0029929423949200096 0.9999948260347183 -0.0011790672644369014 0 0.9985045545128606 -0.002924116070585577 0.054590330300154255 0 0 0 0 1 0.056559806728015194 -0.007039902093636709 -0.9983743927211886 34.29999923706055 -0.0021057252992243798 0.99997207481314 -0.007170461273039582 0 0.998396992275044 0.002507862120604621 0.05654340318490092 0 0 0 0 1 0.058544891324046056 -0.012731067256683819 -0.998203594276419 34.29999923706055 -0.007195110363892487 0.9998873246389528 -0.013174536546259991 0 0.9982588472368815 0.007953486836798458 0.058446693323316645 0 0 0 0 1 0.0586638491159408 -0.018421986264171714 -0.9981078014067343 34.29999923706055 -0.01229001924913127 0.9997406139307017 -0.01917446959682676 0 0.998202137962927 0.013391612283303295 0.058422225964914754 0 0 0 0 1 0.05875352162119396 -0.018485556673468136 -0.9981013515127508 34.29999923706055 -0.011952185369751357 0.9997438443573481 -0.019219545636609433 0 0.9982009662197262 0.013058708361189813 0.05851752877508065 0 0 0 0 1 0.05884314063858942 -0.018549159049876928 -0.9980948920309781 34.29999923706055 -0.011614338288954449 0.9997469593322952 -0.019264590624765873 0 0.9981996753885954 0.012725800736003195 0.058612814722811546 0 0 0 0 1 0.05893270615483426 -0.018612793370392268 -0.9980884229707403 34.29999923706055 -0.01127647805304269 0.9997499588467422 -0.019309604570174426 0 0.9981982654703361 0.012392889448725675 0.058708083797075594 0 0 0 0 1 0.059022218156645434 -0.01867645961200236 -0.9980819443413605 34.29999923706055 -0.010938604708320872 0.9997528428919058 -0.01935458748171899 0 0.9981967364657655 0.012059974540340357 0.05880333598684595 0 0 0 0 1 0.05910872991188998 -0.018255244061924084 -0.9980846177115661 34.29999923706055 -0.010115746025989344 0.9997704849553377 -0.018885155400644088 0 0.9982002953969413 0.011212648055137608 0.05891049815653138 0 0 0 0 1 0.05919534352765499 -0.017834090509201442 -0.9980870986644165 34.29999923706055 -0.009292901901276022 0.9997872308264047 -0.01841561974852937 0 0.998203162326636 0.010365244434106488 0.05901701812973148 0 0 0 0 1 0.05928205894475391 -0.017412999052059275 -0.9980893872551115 34.29999923706055 -0.008470072956696682 0.9998030804214064 -0.017945981276455483 0 0.9982053372685298 0.009517764647207768 0.059122895774322504 0 0 0 0 1 0.05936887610400987 -0.016991969788634268 -0.9980914835388834 34.29999923706055 -0.007647259814747777 0.999818033657663 -0.017476240735642072 0 0.998206820236905 0.008670209664507081 0.05922813095903856 0 0 0 0 1</float_array>
				<technique_common>
					<accessor source="#anim_RFoot_transform_output_array" count="16" stride="16">
						<param name="TRANSFORM" type="float4x4"/>
					</accessor>
				</technique_common>
			</source>
			<source id="anim_RFoot_transform_interpolation">
				<Name_array id="anim_RFoot_transform_interpolation_array" count="16">LINEAR LINEAR LINEAR LINEAR LINEAR LINEAR LINEAR LINEAR LINEAR LINEAR LINEAR LINEAR LINEAR LINEAR LINEAR LINEAR</Name_array>
				<technique_common>
					<accessor source="#anim_RFoot_transform_interpolation_array" count="16" stride="1">
						<param name="INTERPOLATION" type="Name"/>
					</accessor>
				</technique_common>
			</source>
			<sampler id="anim_RFoot_transform_sampler">
				<input semantic="INPUT" source="#anim_RFoot_transform_input"/>
				<input semantic="OUTPUT" source="#anim_RFoot_transform_output"/>
				<input semantic="INTERPOLATION" source="#anim_RFoot_transform_interpolation"/>
			</sampler>
			<channel source="#anim_RFoot_transform_sampler" target="RFoot_bone_id/transform"/>
		</animation>
		<animation id="anim_LThigh_transform" name="anim_LThigh_transform">
			<source id="anim_LThigh_transform_input">
				<float_array id="anim_LThigh_transform_input_array" count="16">0 0.03333333333333333 0.06666666666666667 0.1 0.13333333333333333 0.16666666666666666 0.2 0.23333333333333334 0.26666666666666666 0.3 0.3333333333333333 0.36666666666666664 0.4 0.43333333333333335 0.4666666666666667 0.5</float_array>
				<technique_common>
					<accessor source="#anim_LThigh_transform_input_array" count="16" stride="1">
						<param name="TIME" type="float"/>
					</accessor>
				</technique_common>
			</source>
			<source id="anim_LThigh_transform_output">
				<float_array id="anim_LThigh_transform_output_array" count="256">-0.1264580102751902 -0.024639344565814625 -0.9916659086288119 11.300003051757812 0.22623467734720104 0.9726290032068972 -0.05301596822057855 7.800000190734863 0.9658293029323805 -0.23105351072884525 -0.11742245431359222 0 0 0 0 1 -0.12300894172286392 -0.025826550480309268 -0.9920694479453084 11.300003051757812 0.22322421450697102 0.9733242966799259 -0.053016634656241554 7.800000190734863 0.966974534470255 -0.22797544337672782 -0.11396248024335676 0 0 0 0 1 -0.11485189840816479 -0.027562548049416227 -0.9930001749129072 11.300003051757812 0.22048828180632907 0.9739737367578679 -0.05253644156210252 7.800000190734863 0.9686041291560414 -0.22497881244894824 -0.10578551380471501 0 0 0 0 1 -0.10676372860721961 -0.03116792618242166 -0.9937957871873733 11.300003051757812 0.21589100309533266 0.974935843508051 -0.05376965525030088 7.800000190734863 0.9705630227019648 -0.2202922182482447 -0.0973589109578199 0 0 0 0 1 -0.09865936076054327 -0.03474029493347695 -0.9945146768360213 11.300003051757812 0.21128894991331854 0.9758721800429615 -0.05504968540078073 7.800000190734863 0.9724316480755077 -0.21556112851377632 -0.08893868503086311 0 0 0 0 1 -0.09774698291490114 -0.0374672434793077 -0.9945057732346737 11.300003051757812 0.20625893175218962 0.9768315194125687 -0.05707394987713767 7.800000190734863 0.9736029891097703 -0.21070450481229563 -0.08775438022301607 0 0 0 0 1 -0.09682991329436708 -0.0401897451455278 -0.9944891916338473 11.300003051757812 0.2012238583226012 0.9777604110920478 -0.059106153172706594 7.800000190734863 0.9747476220710524 -0.20583819588756422 -0.08658932024552257 0 0 0 0 1 -0.09536551353945533 -0.03560056237006699 -0.9948055180718949 11.300003051757812 0.20001146682075505 0.978294211437158 -0.05418347542156435 7.800000190734863 0.9751414420316502 -0.20413974582987074 -0.08617500916710008 0 0 0 0 1 -0.09391420539152184 -0.031005698486727573 -0.9950973664355811 11.300003051757812 0.1987914766394646 0.9788030795279116 -0.049259317110351 7.800000190734863 0.9755316862312471 -0.20244302449831916 -0.08575984486222366 0 0 0 0 1 -0.09318436104969208 -0.0263304044502094 -0.9953006503852236 11.300003051757812 0.19752772407892222 0.9792912810370319 -0.044400282713629224 7.800000190734863 0.9758583263342903 -0.2007368842199595 -0.08605364743984278 0 0 0 0 1 -0.09246822082403638 -0.021651913974460646 -0.9954801970701778 11.300003051757812 0.1962603319117219 0.9797542863399427 -0.039540112751613496 7.800000190734863 0.9761821091658759 -0.19902947776586288 -0.08634672387942621 0 0 0 0 1 -0.0923992693867488 -0.021002445948061305 -0.9955005134508943 11.300003051757812 0.19756158935270965 0.9795142899800348 -0.039002232466100906 7.800000190734863 0.9759261208868357 -0.20027644142311699 -0.08635712814624186 0 0 0 0 1 -0.09233007819044547 -0.020353019197330208 -0.9955204223273874 11.300003051757812 0.19886248356600572 0.9792722805414564 -0.0384644406315115 7.800000190734863 0.9756684217967223 -0.2015230884357623 -0.08636883428648101 0 0 0 0 1 -0.09226064730021655 -0.019703633970820755 -0.9955399237439395 11.300003051757812 0.20016301216708102 0.9790282585186417 -0.037926739672118834 7.800000190734863 0.9754090124250165 -0.20276941542130955 -0.08638184212989652 0 0 0 0 1 -0.09170255483024548 -0.01910623394478013 -0.9956031303998866 11.300003051757812 0.2014867057187798 0.97877918660409 -0.037341816897812255 7.800000190734863 0.9751890836428595 -0.20402513495911045 -0.08590689989003875 0 0 0 0 1 -0.09111656712064331 -0.01836185394776199 -0.9956709363618839 11.300003051757812 0.2026638662856887 0.9785644236567262 -0.03659270494942661 7.800000190734863 0.9750000658965547 -0.20512072316804159 -0.0854421466767652 0 0 0 0 1</float_array>
				<technique_common>
					<accessor source="#anim_LThigh_transform_output_array" count="16" stride="16">
						<param name="TRANSFORM" type="float4x4"/>
					</accessor>
				</technique_common>
			</source>
			<source id="anim_LThigh_transform_interpolation">
				<Name_array id="anim_LThigh_transform_interpolation_array" count="16">LINEAR LINEAR LINEAR LINEAR LINEAR LINEAR LINEAR LINEAR LINEAR LINEAR LINEAR LINEAR LINEAR LINEAR LINEAR LINEAR</Name_array>
				<technique_common>
					<accessor source="#anim_LThigh_transform_interpolation_array" count="16" stride="1">
						<param name="INTERPOLATION" type="Name"/>
					</accessor>
				</technique_common>
			</source>
			<sampler id="anim_LThigh_transform_sampler">
				<input semantic="INPUT" source="#anim_LThigh_transform_input"/>
				<input semantic="OUTPUT" source="#anim_LThigh_transform_output"/>
				<input semantic="INTERPOLATION" source="#anim_LThigh_transform_interpolation"/>
			</sampler>
			<channel source="#anim_LThigh_transform_sampler" target="LThigh_bone_id/transform"/>
		</animation>
		<animation id="anim_LLeg_transform" name="anim_LLeg_transform">
			<source id="anim_LLeg_transform_input">
				<float_array id="anim_LLeg_transform_input_array" count="16">0 0.03333333333333333 0.06666666666666667 0.1 0.13333333333333333 0.16666666666666666 0.2 0.23333333333333334 0.26666666666666666 0.3 0.3333333333333333 0.36666666666666664 0.4 0.43333333333333335 0.4666666666666667 0.5</float_array>
				<technique_common>
					<accessor source="#anim_LLeg_transform_input_array" count="16" stride="1">
						<param name="TIME" type="float"/>
					</accessor>
				</technique_common>
			</source>
			<source id="anim_LLeg_transform_output">
				<float_array id="anim_LLeg_transform_output_array" count="256">-0.05795655020572532 0 0.99831910644255 34.29999542236328 0 1 0 0 -0.99831910644255 0 -0.05795655020572532 0 0 0 0 1 -0.05581429449503772 0 0.9984411672852945 34.29999542236328 0 1 0 0 -0.9984411672852945 0 -0.05581429449503772 0 0 0 0 1 -0.05367178180649801 0 0.9985586311467723 34.29999542236328 0 1 0 0 -0.9985586311467723 0 -0.05367178180649801 0 0 0 0 1 -0.05152902200457499 0 0.9986714974861615 34.29999542236328 0 1 0 0 -0.9986714974861615 0 -0.05152902200457499 0 0 0 0 1 -0.04938602495487321 0 0.9987797657838071 34.29999542236328 0 1 0 0 -0.9987797657838071 0 -0.04938602495487321 0 0 0 0 1 -0.0472428005240908 0 0.9988834355412253 34.29999542236328 0 1 0 0 -0.9988834355412253 0 -0.0472428005240908 0 0 0 0 1 -0.046953913389766955 0 0.9988970567668053 34.29999542236328 0 1 0 0 -0.9988970567668053 0 -0.046953913389766955 0 0 0 0 1 -0.04666502232815617 0 0.9989105944433229 34.29999542236328 0 1 0 0 -0.9989105944433229 0 -0.04666502232815617 0 0 0 0 1 -0.04637612736342178 0 0.9989240485696456 34.29999542236328 0 1 0 0 -0.9989240485696456 0 -0.04637612736342178 0 0 0 0 1 -0.04608722851972691 0 0.9989374191446481 34.29999542236328 0 1 0 0 -0.9989374191446481 0 -0.04608722851972691 0 0 0 0 1 -0.04579832582123555 0 0.9989507061672122 34.29999542236328 0 1 0 0 -0.9989507061672122 0 -0.04579832582123555 0 0 0 0 1 -0.045509419292112385 0 0.9989639096362265 34.29999542236328 0 1 0 0 -0.9989639096362265 0 -0.045509419292112385 0 0 0 0 1 -0.04522050895652141 0 0.9989770295505864 34.29999542236328 0 1 0 0 -0.9989770295505864 0 -0.04522050895652141 0 0 0 0 1 -0.04493159483862752 0 0.9989900659091948 34.29999542236328 0 1 0 0 -0.9989900659091948 0 -0.04493159483862752 0 0 0 0 1 -0.044642676962596495 0 0.9990030187109614 34.29999542236328 0 1 0 0 -0.9990030187109614 0 -0.044642676962596495 0 0 0 0 1 -0.044353755352593005 0 0.9990158879548027 34.29999542236328 0 1 0 0 -0.9990158879548027 0 -0.044353755352593005 0 0 0 0 1</float_array>
				<technique_common>
					<accessor source="#anim_LLeg_transform_output_array" count="16" stride="16">
						<param name="TRANSFORM" type="float4x4"/>
					</accessor>
				</technique_common>
			</source>
			<source id="anim_LLeg_transform_interpolation">
				<Name_array id="anim_LLeg_transform_interpolation_array" count="16">LINEAR LINEAR LINEAR LINEAR LINEAR LINEAR LINEAR LINEAR LINEAR LINEAR LINEAR LINEAR LINEAR LINEAR LINEAR LINEAR</Name_array>
				<technique_common>
					<accessor source="#anim_LLeg_transform_interpolation_array" count="16" stride="1">
						<param name="INTERPOLATION" type="Name"/>
					</accessor>
				</technique_common>
			</source>
			<sampler id="anim_LLeg_transform_sampler">
				<input semantic="INPUT" source="#anim_LLeg_transform_input"/>
				<input semantic="OUTPUT" source="#anim_LLeg_transform_output"/>
				<input semantic="INTERPOLATION" source="#anim_LLeg_transform_interpolation"/>
			</sampler>
			<channel source="#anim_LLeg_transform_sampler" target="LLeg_bone_id/transform"/>
		</animation>
		<animation id="anim_LFoot_transform" name="anim_LFoot_transform">
			<source id="anim_LFoot_transform_input">
				<float_array id="anim_LFoot_transform_input_array" count="16">0 0.03333333333333333 0.06666666666666667 0.1 0.13333333333333333 0.16666666666666666 0.2 0.23333333333333334 0.26666666666666666 0.3 0.3333333333333333 0.36666666666666664 0.4 0.43333333333333335 0.4666666666666667 0.5</float_array>
				<technique_common>
					<accessor source="#anim_LFoot_transform_input_array" count="16" stride="1">
						<param name="TIME" type="float"/>
					</accessor>
				</technique_common>
			</source>
			<source id="anim_LFoot_transform_output">
				<float_array id="anim_LFoot_transform_output_array" count="256">-0.026652431036068958 0.021521490549777395 -0.9994130644355134 34.29999923706055 0.029978264455128946 0.9993357645021536 0.020720363103831022 0 0.9991951518998309 -0.029408421096891475 -0.027279904480440598 0 0 0 0 1 -0.02451434210960657 0.02374599494311471 -0.9994174176764656 34.29999923706055 0.03343904003928161 0.999177912113937 0.0229200904205225 0 0.9991400690754948 -0.03285768810788696 -0.025288232441598835 0 0 0 0 1 -0.0223733642302808 0.025964383903768238 -0.9994124690744645 34.29999923706055 0.03689677147263769 0.9990031151057928 0.02512775882999045 0 0.9990685966578648 -0.03631290097775106 -0.02330906250077236 0 0 0 0 1 -0.020229532536885975 0.028176627025341777 -0.9993982407943361 34.29999923706055 0.040351393391536705 0.9988113480766984 0.027343299079847692 0 0.998980746093087 -0.039773969410700404 -0.021342452825674707 0 0 0 0 1 -0.018067888035695256 0.03130657590349056 -0.9993465113398498 34.29999923706055 0.04472625964637582 0.9985344203198718 0.030472498002336843 0 0.9988358789711022 -0.044146457860811804 -0.019441634148625653 0 0 0 0 1 -0.01590088337677531 0.0344287206689375 -0.999280653821007 34.29999923706055 0.049096113122414436 0.9982283590280568 0.033611231878999774 0 0.9986674789859286 -0.048526347742778676 -0.017563029084917137 0 0 0 0 1 -0.01606587899427736 0.03759273672686695 -0.9991639873802126 34.29999923706055 0.05348653645435714 0.9978944859995141 0.03668494554830784 0 0.9984393211158392 -0.052852445138801815 -0.01804275734448546 0 0 0 0 1 -0.01622528182726546 0.04075702501219512 -0.9990373392129951 34.29999923706055 0.05787620288957904 0.9975318710879622 0.03975564491784295 0 0.9981919080861706 -0.0571754411955398 -0.018544097588863107 0 0 0 0 1 -0.01637908800094401 0.04392154131589929 -0.9989007076204787 34.29999923706055 0.06226501465244881 0.9971405333202439 0.04282318017324172 0 0.9979252444079104 -0.06149516255979278 -0.019067027958153293 0 0 0 0 1 -0.016639594270171587 0.04248272467826673 -0.9989586287762043 34.29999923706055 0.06104629577919841 0.9972762200215161 0.04139433235643809 0 0.9979962292885493 -0.060293939027958876 -0.019187684652664183 0 0 0 0 1 -0.01689936421284055 0.04104360929962725 -0.9990144311394413 34.29999923706055 0.05982720904955685 0.9974083702039935 0.03996558650081365 0 0.9980656874908298 -0.05909285221304643 -0.019311091910730216 0 0 0 0 1 -0.017158397204623865 0.0396041988880125 -0.9990681142123431 34.29999923706055 0.05860775697804723 0.9975369839303414 0.03853694997220271 0 0.998133618423591 -0.05789190894759516 -0.019437249060318296 0 0 0 0 1 -0.01741669262239487 0.03816449715280785 -0.9991196775037366 34.29999923706055 0.05738794208085319 0.997662061279569 0.03710843013556388 0 0.9982000214996102 -0.05669111606305442 -0.01956615541448148 0 0 0 0 1 -0.01745559742640168 0.03671954517966265 -0.9991731467169674 34.29999923706055 0.056165560037265166 0.9977834681679524 0.035687259861653775 0 0.9982688675823704 -0.05549617691815857 -0.019479280358388085 0 0 0 0 1 -0.017480325246948647 0.03595800490388615 -0.9992004103845199 34.29999923706055 0.05562597132372635 0.9978402842122543 0.03493592016105124 0 0.9982986474715635 -0.05497080212748831 -0.019442771662179892 0 0 0 0 1 -0.017504889742894214 0.03519643504827728 -0.9992270962073546 34.29999923706055 0.05508635425013955 0.9978962428075911 0.03418453109114078 0 0.9983281386450638 -0.05444538135035365 -0.019406906994606787 0 0 0 0 1</float_array>
				<technique_common>
					<accessor source="#anim_LFoot_transform_output_array" count="16" stride="16">
						<param name="TRANSFORM" type="float4x4"/>
					</accessor>
				</technique_common>
			</source>
			<source id="anim_LFoot_transform_interpolation">
				<Name_array id="anim_LFoot_transform_interpolation_array" count="16">LINEAR LINEAR LINEAR LINEAR LINEAR LINEAR LINEAR LINEAR LINEAR LINEAR LINEAR LINEAR LINEAR LINEAR LINEAR LINEAR</Name_array>
				<technique_common>
					<accessor source="#anim_LFoot_transform_interpolation_array" count="16" stride="1">
						<param name="INTERPOLATION" type="Name"/>
					</accessor>
				</technique_common>
			</source>
			<sampler id="anim_LFoot_transform_sampler">
				<input semantic="INPUT" source="#anim_LFoot_transform_input"/>
				<input semantic="OUTPUT" source="#anim_LFoot_transform_output"/>
				<input semantic="INTERPOLATION" source="#anim_LFoot_transform_interpolation"/>
			</sampler>
			<channel source="#anim_LFoot_transform_sampler" target="LFoot_bone_id/transform"/>
		</animation>
		<animation id="anim_Spine2_transform" name="anim_Spine2_transform">
			<source id="anim_Spine2_transform_input">
				<float_array id="anim_Spine2_transform_input_array" count="16">0 0.03333333333333333 0.06666666666666667 0.1 0.13333333333333333 0.16666666666666666 0.2 0.23333333333333334 0.26666666666666666 0.3 0.3333333333333333 0.36666666666666664 0.4 0.43333333333333335 0.4666666666666667 0.5</float_array>
				<technique_common>
					<accessor source="#anim_Spine2_transform_input_array" count="16" stride="1">
						<param name="TIME" type="float"/>
					</accessor>
				</technique_common>
			</source>
			<source id="anim_Spine2_transform_output">
				<float_array id="anim_Spine2_transform_output_array" count="256">0.9989489772322422 -0.033252060337066396 -0.03154744633084264 13.5 0.03326837904395268 0.9994464542423633 -0.000007625973922530658 0 0.03153023695510693 -0.0010419144435529154 0.9995022554110856 0 0 0 0 1 0.9987568638289087 -0.029641487695889687 -0.04007629176729162 13.5 0.02968183465803932 0.9995593123749411 0.00041199013056560617 0 0.040046418641065534 -0.0016010158366762594 0.9991965377753844 0 0 0 0 1 0.9979298101077916 -0.026014031707816014 -0.05881636041554941 13.5 0.026102052504162053 0.9996590178478955 0.0007286222965837216 0 0.058777350682869614 -0.0022623416377404856 0.998268553474974 0 0 0 0 1 0.996738495182481 -0.02237665964518016 -0.07753487811615473 13.5 0.02253069198885383 0.9997455329702674 0.0011123059379295065 0 0.07749025835462547 -0.0028555926039827992 0.9969890197243967 0 0 0 0 1 0.9961252185548138 -0.018236408002886402 -0.08603477426178692 13.5 0.018449486313045195 0.9998283787459311 0.0016821144632820375 0 0.08598933314027461 -0.0032628940275598035 0.9962907146554443 0 0 0 0 1 0.9965025179446799 -0.014116457686239968 -0.08236174689930631 13.5 0.014360765037348443 0.999894059235512 0.0023746016660857383 0 0.08231950046893424 -0.0035490742346565695 0.9965996708381064 0 0 0 0 1 0.9973738955584344 -0.010010982180083514 -0.07172930150491762 13.5 0.01025884766633539 0.9999426085402986 0.003087988047606194 0 0.071694271062284 -0.0038157386458304654 0.9974193559558759 0 0 0 0 1 0.9981150207165872 -0.005922057536647023 -0.06108465154569752 13.5 0.006135090789906724 0.9999757332481075 0.0033005417599702488 0 0.061063623221409374 -0.0036690801902313367 0.9981271320676697 0 0 0 0 1 0.998725797497804 -0.0018313662483335975 -0.050432405356476355 13.5 0.00200887010987051 0.9999919645984943 0.0034691755973715517 0 0.05042564678075185 -0.0035660673168343223 0.9987214513119435 0 0 0 0 1 0.9990933220110949 0.00226534055663229 -0.042513552486202554 13.5 -0.0021143280295407548 0.9999912965325471 0.0035967313131281264 0 0.04252133029219712 -0.0035035826403575776 0.9990894161079198 0 0 0 0 1 0.99920036917217 0.0016930687790459977 -0.039946911824428284 13.5 -0.0015498952827600583 0.9999922655246849 0.003614791200128796 0 0.03995272294614858 -0.0035499871714514907 0.9991952649608938 0 0 0 0 1 0.9992029083709637 0.0011252003483909793 -0.039903406210291564 13.5 -0.0009809047160835654 0.9999929103945986 0.0036355173604604137 0 0.03990721399628794 -0.0035934780806657013 0.9991969281309557 0 0 0 0 1 0.9992051223868689 0.0005573295121870953 -0.03985991444618563 13.5 -0.0004119146119533008 0.9999932309906159 0.003656268494138881 0 0.03986168238038696 -0.0036369433269737013 0.9991985883301885 0 0 0 0 1 0.9992070109618972 -0.0000219675464748472 -0.03981643833918334 13.5 0.0001456509504982509 0.9999951737048646 0.0031034420855400526 0 0.03981617799829242 -0.003106780392075389 0.999202191693555 0 0 0 0 1 0.9992085464418239 -0.0006427618161653349 -0.039772698863230434 13.5 0.0007447619417036875 0.9999964718851658 0.0025498131051109275 0 0.03977091961807925 -0.0025774162388883786 0.999205499823867 0 0 0 0 1 0.9991950677874514 -0.0012631557404497009 -0.040095148669205806 13.5 0.001344262467387797 0.9999971045453012 0.0019959607793564285 0 0.04009251136620303 -0.002048252569710488 0.9991938726762497 0 0 0 0 1</float_array>
				<technique_common>
					<accessor source="#anim_Spine2_transform_output_array" count="16" stride="16">
						<param name="TRANSFORM" type="float4x4"/>
					</accessor>
				</technique_common>
			</source>
			<source id="anim_Spine2_transform_interpolation">
				<Name_array id="anim_Spine2_transform_interpolation_array" count="16">LINEAR LINEAR LINEAR LINEAR LINEAR LINEAR LINEAR LINEAR LINEAR LINEAR LINEAR LINEAR LINEAR LINEAR LINEAR LINEAR</Name_array>
				<technique_common>
					<accessor source="#anim_Spine2_transform_interpolation_array" count="16" stride="1">
						<param name="INTERPOLATION" type="Name"/>
					</accessor>
				</technique_common>
			</source>
			<sampler id="anim_Spine2_transform_sampler">
				<input semantic="INPUT" source="#anim_Spine2_transform_input"/>
				<input semantic="OUTPUT" source="#anim_Spine2_transform_output"/>
				<input semantic="INTERPOLATION" source="#anim_Spine2_transform_interpolation"/>
			</sampler>
			<channel source="#anim_Spine2_transform_sampler" target="Spine2_bone_id/transform"/>
		</animation>
		<animation id="anim_Spine3_transform" name="anim_Spine3_transform">
			<source id="anim_Spine3_transform_input">
				<float_array id="anim_Spine3_transform_input_array" count="16">0 0.03333333333333333 0.06666666666666667 0.1 0.13333333333333333 0.16666666666666666 0.2 0.23333333333333334 0.26666666666666666 0.3 0.3333333333333333 0.36666666666666664 0.4 0.43333333333333335 0.4666666666666667 0.5</float_array>
				<technique_common>
					<accessor source="#anim_Spine3_transform_input_array" count="16" stride="1">
						<param name="TIME" type="float"/>
					</accessor>
				</technique_common>
			</source>
			<source id="anim_Spine3_transform_output">
				<float_array id="anim_Spine3_transform_output_array" count="256">0.9822404928704833 -0.042742153941733876 0.18269297315981042 13.5 0.028908720751803018 0.9965557044215447 0.07772395930067573 0 -0.18538581399353177 -0.0710621999469475 0.9800929872765419 0 0 0 0 1 0.9813411143392132 -0.04072025525339383 0.18791348573098668 13.5 0.02872250456569592 0.9973971900716441 0.06613518706908124 0 -0.19011742434333803 -0.0595038322235404 0.979956457661139 0 0 0 0 1 0.9804148281012968 -0.037922182950467884 0.1932580473858099 13.5 0.029316929572822698 0.9984553717928104 0.04719521351263174 0 -0.1947492810757638 -0.040605154578599825 0.9800122136698711 0 0 0 0 1 0.9796458862847524 -0.029062105123502494 0.1986185578719989 13.5 0.023677792647342603 0.9992863390219933 0.029430847411709454 0 -0.19933213393909055 -0.024128959567548007 0.9796348777424557 0 0 0 0 1 0.9781990344229583 -0.02014092997623141 0.2066905706453117 13.5 0.01808873221845895 0.9997665860008214 0.011814029075263337 0 -0.20688027170496692 -0.007817701449583835 0.9783350329633117 0 0 0 0 1 0.9766384001739321 -0.011089204985242417 0.21460304014271972 13.5 0.012638045188944371 0.9999030445963191 -0.005846470799880141 0 -0.21451740050519139 0.008422050807667085 0.9766838556773059 0 0 0 0 1 0.9749322495949762 -0.008259278792268345 0.2223485844648234 13.5 0.009948955513889494 0.9999295102291181 -0.006480189591249457 0 -0.22227938947158768 0.008529881991415612 0.974945698041358 0 0 0 0 1 0.9731569051309054 -0.00542943772029093 0.2300785935329045 13.5 0.0072658276563729515 0.9999481476917674 -0.007135101700119422 0 -0.23002792383644616 0.008615284896313247 0.9731458940578486 0 0 0 0 1 0.9715535679501777 -0.0026043424004509926 0.23680557848990966 13.5 0.0045849752093922135 0.9999589616753634 -0.007813639834185164 0 -0.23677551099218183 0.008677117366402249 0.9715256378647971 0 0 0 0 1 0.9698958060760555 -0.0003717800125399968 0.2435199932976774 13.5 0.0013175435494791428 0.9999922096241829 -0.0037208560761612204 0 -0.24351671284549195 0.0039296908996199345 0.96988874005958 0 0 0 0 1 0.9681856843485906 -0.0005123015996519315 0.25023232838608656 13.5 0.0003622909761454041 0.9999997260076543 0.0006455461756457014 0 -0.2502325905386824 -0.0005343516513320163 0.9681856046753705 0 0 0 0 1 0.9664290330134094 -0.0006836977766180133 0.2569327863588387 13.5 -0.000622899922584681 0.999987286181857 0.005003945476467329 0 -0.25693294094851454 -0.004996001600806532 0.9664163201351433 0 0 0 0 1 0.9646257792126727 -0.00036447898230214897 0.26362278587674376 13.5 -0.0011164919647739479 0.9999844274869051 0.005467927338523531 0 -0.26362067355205016 -0.005568836391764245 0.9646103506272391 0 0 0 0 1 0.9665557649979554 -0.001835926019425298 0.2564499610545272 13.5 0.00025960205173273046 0.999980867262849 0.006180430002447027 0 -0.2564564012770827 -0.005907155312974967 0.9665377487507233 0 0 0 0 1 0.9685996855832064 -0.0032415742217757676 0.24860438709861565 13.5 0.0017054066812334122 0.9999781021252643 0.006394283228496501 0 -0.24861967073456842 -0.005769529141909765 0.968584003510958 0 0 0 0 1 0.9701831492250662 -0.0036758110380853146 0.24234509562387518 13.5 0.0021703602448641286 0.9999766577957018 0.006478688150036803 0 -0.24236325318855667 -0.005759537911169969 0.970168480845935 0 0 0 0 1</float_array>
				<technique_common>
					<accessor source="#anim_Spine3_transform_output_array" count="16" stride="16">
						<param name="TRANSFORM" type="float4x4"/>
					</accessor>
				</technique_common>
			</source>
			<source id="anim_Spine3_transform_interpolation">
				<Name_array id="anim_Spine3_transform_interpolation_array" count="16">LINEAR LINEAR LINEAR LINEAR LINEAR LINEAR LINEAR LINEAR LINEAR LINEAR LINEAR LINEAR LINEAR LINEAR LINEAR LINEAR</Name_array>
				<technique_common>
					<accessor source="#anim_Spine3_transform_interpolation_array" count="16" stride="1">
						<param name="INTERPOLATION" type="Name"/>
					</accessor>
				</technique_common>
			</source>
			<sampler id="anim_Spine3_transform_sampler">
				<input semantic="INPUT" source="#anim_Spine3_transform_input"/>
				<input semantic="OUTPUT" source="#anim_Spine3_transform_output"/>
				<input semantic="INTERPOLATION" source="#anim_Spine3_transform_interpolation"/>
			</sampler>
			<channel source="#anim_Spine3_transform_sampler" target="Spine3_bone_id/transform"/>
		</animation>
		<animation id="anim_RShoulder_transform" name="anim_RShoulder_transform">
			<source id="anim_RShoulder_transform_input">
				<float_array id="anim_RShoulder_transform_input_array" count="16">0 0.03333333333333333 0.06666666666666667 0.1 0.13333333333333333 0.16666666666666666 0.2 0.23333333333333334 0.26666666666666666 0.3 0.3333333333333333 0.36666666666666664 0.4 0.43333333333333335 0.4666666666666667 0.5</float_array>
				<technique_common>
					<accessor source="#anim_RShoulder_transform_input_array" count="16" stride="1">
						<param name="TIME" type="float"/>
					</accessor>
				</technique_common>
			</source>
			<source id="anim_RShoulder_transform_output">
				<float_array id="anim_RShoulder_transform_output_array" count="256">-0.47312719870666875 -0.876357649056095 -0.09026585614092825 14.180170059204102 0.8809891569073803 -0.47029037804090756 -0.051817619916041224 4.5 0.002959603960600847 -0.10403956585364271 0.9945687555324578 -0.24023300409317017 0 0 0 1 -0.47296219416609775 -0.8764666107566703 -0.09007243262122885 14.180170059204102 0.8810827119161975 -0.4704996915319204 -0.04820057085519666 4.5 -0.00013286078982688992 -0.10215831095453357 0.9947681447708945 -0.24023300409317017 0 0 0 1 -0.47280245473702065 -0.8765727168575097 -0.08987831137539136 14.180170059204102 0.8811625454285126 -0.470706829261208 -0.04458306203935004 4.5 -0.0032260391492020674 -0.10027638280225387 0.9949543907755288 -0.24023300409317017 0 0 0 1 -0.47268654697929824 -0.8766152174253286 -0.09007324177096913 14.180170059204102 0.8812106899660352 -0.47088787714404057 -0.041621233143224946 4.5 -0.005928591263655178 -0.09904730050396457 0.9950650652437286 -0.24023300409317017 0 0 0 1 -0.47257324278881563 -0.8766562886079664 -0.09026783393972079 14.180170059204102 0.8812491294647117 -0.4710683970817011 -0.0386592432487294 4.5 -0.008631455135197759 -0.09781777402385777 0.9951669111597645 -0.24023300409317017 0 0 0 1 -0.4724556788588441 -0.8767072127872846 -0.09038857538859389 14.180170059204102 0.8812805906844916 -0.47125264480279627 -0.0355733783771369 4.5 -0.011408417805384666 -0.09646454174006247 0.9952710385568634 -0.24023300409317017 0 0 0 1 -0.4723411683088239 -0.8767564932202915 -0.09050896263195932 14.180170059204102 0.8813016439469584 -0.4714360849450232 -0.032487385060948476 4.5 -0.014185665195711794 -0.09511082697446657 0.9953656099620823 -0.24023300409317017 0 0 0 1 -0.47222971211559983 -0.8768041292934126 -0.09062901218284669 14.180170059204102 0.8813122887073661 -0.4716187161974308 -0.029401297686867223 4.5 -0.016963159157485412 -0.09375662849264672 0.995450624513888 -0.24023300409317017 0 0 0 1 -0.47212131117719625 -0.8768501203852687 -0.09074874055690738 14.180170059204102 0.8813125245439578 -0.471800537227975 -0.02631515064274116 4.5 -0.019740861538466943 -0.09240194506466907 0.9955260814935915 -0.24023300409317017 0 0 0 1 -0.47201596631280274 -0.8768944658666818 -0.09086816427208494 14.180170059204102 0.8813023511579715 -0.471981546683528 -0.02322897831711717 4.5 -0.022518734183414324 -0.09104677546521042 0.9955919803253561 -0.24023300409317017 0 0 0 1 -0.4720417616141266 -0.8769207847363719 -0.09047934896747639 14.180170059204102 0.8812838221913443 -0.4720363246335775 -0.022815191654673835 4.5 -0.022702423572119115 -0.09050770974767819 0.9956369591573939 -0.24023300409317017 0 0 0 1 -0.4720677433877247 -0.8769468297505862 -0.09009052915383947 14.180170059204102 0.8812651542269772 -0.4720909930598649 -0.022401388730480566 4.5 -0.022886100544319284 -0.08996861709589743 0.9956816129364482 -0.24023300409317017 0 0 0 1 -0.4720939116192673 -0.8769726008956773 -0.08970170505787814 14.180170059204102 0.8812463472595446 -0.47214555194748486 -0.021987569622742828 4.5 -0.02306976492575081 -0.08942949767540978 0.9957259416585441 -0.24023300409317017 0 0 0 1 -0.4722245325198038 -0.8768073694294437 -0.09062465338235326 14.180170059204102 0.8812052952541009 -0.47213530183893915 -0.023779915340194066 4.5 -0.021936693064036165 -0.09108838384598081 0.995601169056034 -0.24023300409317017 0 0 0 1 -0.4723828393748357 -0.876716157664395 -0.09068203766098215 14.180170059204102 0.8811679909599061 -0.4720828951159952 -0.026090455085782532 4.5 -0.01993551533949143 -0.09223079219588176 0.9955380737064098 -0.24023300409317017 0 0 0 1 -0.4725431457658742 -0.8766238673298392 -0.0907390247763821 14.180170059204102 0.8811250334826288 -0.4720297291106894 -0.0284008838933937 4.5 -0.01793462461075121 -0.09337306926178635 0.9954696475416541 -0.24023300409317017 0 0 0 1</float_array>
				<technique_common>
					<accessor source="#anim_RShoulder_transform_output_array" count="16" stride="16">
						<param name="TRANSFORM" type="float4x4"/>
					</accessor>
				</technique_common>
			</source>
			<source id="anim_RShoulder_transform_interpolation">
				<Name_array id="anim_RShoulder_transform_interpolation_array" count="16">LINEAR LINEAR LINEAR LINEAR LINEAR LINEAR LINEAR LINEAR LINEAR LINEAR LINEAR LINEAR LINEAR LINEAR LINEAR LINEAR</Name_array>
				<technique_common>
					<accessor source="#anim_RShoulder_transform_interpolation_array" count="16" stride="1">
						<param name="INTERPOLATION" type="Name"/>
					</accessor>
				</technique_common>
			</source>
			<sampler id="anim_RShoulder_transform_sampler">
				<input semantic="INPUT" source="#anim_RShoulder_transform_input"/>
				<input semantic="OUTPUT" source="#anim_RShoulder_transform_output"/>
				<input semantic="INTERPOLATION" source="#anim_RShoulder_transform_interpolation"/>
			</sampler>
			<channel source="#anim_RShoulder_transform_sampler" target="RShoulder_bone_id/transform"/>
		</animation>
		<animation id="anim_RArm_transform" name="anim_RArm_transform">
			<source id="anim_RArm_transform_input">
				<float_array id="anim_RArm_transform_input_array" count="16">0 0.03333333333333333 0.06666666666666667 0.1 0.13333333333333333 0.16666666666666666 0.2 0.23333333333333334 0.26666666666666666 0.3 0.3333333333333333 0.36666666666666664 0.4 0.43333333333333335 0.4666666666666667 0.5</float_array>
				<technique_common>
					<accessor source="#anim_RArm_transform_input_array" count="16" stride="1">
						<param name="TIME" type="float"/>
					</accessor>
				</technique_common>
			</source>
			<source id="anim_RArm_transform_output">
				<float_array id="anim_RArm_transform_output_array" count="256">0.7620383482329929 -0.41935048685404425 -0.49339915382741373 12.619565963745117 0.6225540180455751 0.6840598407400661 0.3801165990876815 0 0.17811246569974126 -0.5968310510202628 0.7823481616904375 0 0 0 0 1 0.7618186037908954 -0.4248103372979394 -0.48904866040395384 12.619565963745117 0.6245465520786485 0.6820807488365319 0.3804043327214714 0 0.17197098361282576 -0.5952327522838498 0.7849356351980908 0 0 0 0 1 0.7616257274276582 -0.43111289946119646 -0.4838056626771237 12.619565963745117 0.6262939838676628 0.6813978202898521 0.3787517079504861 0 0.16637937700166522 -0.5914716209780474 0.7889735258461712 0 0 0 0 1 0.7591489589532543 -0.4352155545770535 -0.48402508114185366 12.619565963745117 0.6292842838115504 0.6808250591923067 0.37480465435153815 0 0.16641558901729808 -0.5891219396949835 0.7907219434807953 0 0 0 0 1 0.7513445875196127 -0.4444176475791068 -0.4878260605228424 12.619565963745117 0.6401469117146561 0.6703987991971653 0.37520312026579306 0 0.16029111711873278 -0.5941871797297984 0.7881930938656954 0 0 0 0 1 0.7426392876389812 -0.452732572781839 -0.49347756382372987 12.619565963745117 0.6512746099718627 0.6598629174001637 0.3747296527446726 0 0.1559752251515111 -0.5996783702806712 0.7848933566774876 0 0 0 0 1 0.7337916282566873 -0.46089145932816844 -0.49912814889440077 12.619565963745117 0.6622502968117502 0.6491743005996321 0.37416209296737624 0 0.15157305391509596 -0.6051047761828773 0.7815841727974803 0 0 0 0 1 0.7288932397756971 -0.46379874417910927 -0.5035924641087963 12.619565963745117 0.6681387699520674 0.6423568157027584 0.3754574615148179 0 0.14934935251358333 -0.6101380550482766 0.7780914629307275 0 0 0 0 1 0.7239603426292915 -0.4666456779729296 -0.5080582973727165 12.619565963745117 0.6739798997015829 0.6354898761494626 0.37670109119802786 0 0.14707996837884837 -0.6151377313583727 0.7745792757109833 0 0 0 0 1 0.7189933816413727 -0.46943199832051125 -0.5125252346067605 12.619565963745117 0.679773186281257 0.6285741058626757 0.37789285340154966 0 0.14476509375167312 -0.6201033723434741 0.771047907227119 0 0 0 0 1 0.7146578558790005 -0.4728369585412954 -0.5154506374696292 12.619565963745117 0.6851536078123585 0.621561297213258 0.3797710988322846 0 0.14081435556128033 -0.6245692631277889 0.7681696120153882 0 0 0 0 1 0.7101041101256184 -0.478060345488999 -0.5169240358637259 12.619565963745117 0.6902024026288608 0.6177552674178635 0.3768276436022603 0 0.13918619251941539 -0.6243690700606678 0.7686289535032655 0 0 0 0 1 0.7055121017433897 -0.4832543925621351 -0.5183800404751584 12.619565963745117 0.6952191683406246 0.6139102787543758 0.3738776238443471 0 0.1375608311453347 -0.6241629288167686 0.7690888479398711 0 0 0 0 1 0.7095678924761252 -0.4783091977734426 -0.5174299153434365 12.619565963745117 0.6904525857868844 0.6185585459710339 0.3750473996529043 0 0.14067207522175487 -0.6233824159627268 0.7691591062460867 0 0 0 0 1 0.7117462414022172 -0.4753241229162484 -0.5171888108067652 12.619565963745117 0.6877186980152257 0.6214630591417379 0.3752687817051075 0 0.1430394359960205 -0.6227765604902707 0.7692132834616472 0 0 0 0 1 0.7138253987763705 -0.4732083876852672 -0.5162626481608615 12.619565963745117 0.6848269069359653 0.6258790924959649 0.37321236463030844 0 0.14651077638956933 -0.6199590175170754 0.7708342292613816 0 0 0 0 1</float_array>
				<technique_common>
					<accessor source="#anim_RArm_transform_output_array" count="16" stride="16">
						<param name="TRANSFORM" type="float4x4"/>
					</accessor>
				</technique_common>
			</source>
			<source id="anim_RArm_transform_interpolation">
				<Name_array id="anim_RArm_transform_interpolation_array" count="16">LINEAR LINEAR LINEAR LINEAR LINEAR LINEAR LINEAR LINEAR LINEAR LINEAR LINEAR LINEAR LINEAR LINEAR LINEAR LINEAR</Name_array>
				<technique_common>
					<accessor source="#anim_RArm_transform_interpolation_array" count="16" stride="1">
						<param name="INTERPOLATION" type="Name"/>
					</accessor>
				</technique_common>
			</source>
			<sampler id="anim_RArm_transform_sampler">
				<input semantic="INPUT" source="#anim_RArm_transform_input"/>
				<input semantic="OUTPUT" source="#anim_RArm_transform_output"/>
				<input semantic="INTERPOLATION" source="#anim_RArm_transform_interpolation"/>
			</sampler>
			<channel source="#anim_RArm_transform_sampler" target="RArm_bone_id/transform"/>
		</animation>
		<animation id="anim_RForeArm_transform" name="anim_RForeArm_transform">
			<source id="anim_RForeArm_transform_input">
				<float_array id="anim_RForeArm_transform_input_array" count="16">0 0.03333333333333333 0.06666666666666667 0.1 0.13333333333333333 0.16666666666666666 0.2 0.23333333333333334 0.26666666666666666 0.3 0.3333333333333333 0.36666666666666664 0.4 0.43333333333333335 0.4666666666666667 0.5</float_array>
				<technique_common>
					<accessor source="#anim_RForeArm_transform_input_array" count="16" stride="1">
						<param name="TIME" type="float"/>
					</accessor>
				</technique_common>
			</source>
			<source id="anim_RForeArm_transform_output">
				<float_array id="anim_RForeArm_transform_output_array" count="256">0.48401082623591885 -8.462714396288854e-8 -0.8750620092807229 22.600000381469727 1.7484556000744883e-7 0.9999999999999847 0 0 0.8750620092807094 -1.5300070705393139e-7 0.4840108262359263 0 0 0 0 1 0.485469822550027 -8.488224299047759e-8 -0.8742534251538499 22.600000381469727 1.7484556000744883e-7 0.9999999999999847 0 0 0.8742534251538364 -1.5285932970945514e-7 0.48546982255003446 0 0 0 0 1 0.4869274680547745 -8.51371058350475e-8 -0.8734424084355873 22.600000381469727 1.7484556000744883e-7 0.9999999999999847 0 0 0.8734424084355739 -1.527175270371751e-7 0.48692746805478193 0 0 0 0 1 0.488383758694294 -8.53917317874479e-8 -0.872628961382572 22.600000381469727 1.7484556000744883e-7 0.9999999999999847 0 0 0.8726289613825586 -1.5257529943165424e-7 0.4883837586943015 0 0 0 0 1 0.4898386904164885 -8.56461201391876e-8 -0.8718130862582026 22.600000381469727 1.7484556000744883e-7 0.9999999999999847 0 0 0.8718130862581893 -1.5243264728863774e-7 0.48983869041649597 0 0 0 0 1 0.4990301899340275 -8.725321301963993e-8 -0.8665846003330551 22.600000381469727 1.7484556000744883e-7 0.9999999999999847 0 0 0.8665846003330417 -1.5151846973906425e-7 0.49903018993403514 0 0 0 0 1 0.5081658875322094 -8.885054918225277e-8 -0.8612592122866345 22.600000381469727 1.7484556000744883e-7 0.9999999999999847 0 0 0.8612592122866213 -1.5058734928383086e-7 0.5081658875322171 0 0 0 0 1 0.5172447616506739 -9.043795001173285e-8 -0.8558375176077112 22.600000381469727 1.7484556000744883e-7 0.9999999999999847 0 0 0.8558375176076981 -1.496393900415051e-7 0.5172447616506818 0 0 0 0 1 0.5262657970831033 -9.201523800376305e-8 -0.850320122554134 22.600000381469727 1.7484556000744883e-7 0.9999999999999847 0 0 0.850320122554121 -1.4867469801358007e-7 0.5262657970831114 0 0 0 0 1 0.5352279850907443 -9.35822367848511e-8 -0.8447076440850367 22.600000381469727 1.7484556000744883e-7 0.9999999999999847 0 0 0.8447076440850237 -1.47693381072621e-7 0.5352279850907525 0 0 0 0 1 0.5441303235152056 -9.513877113205189e-8 -0.8390007097918503 22.600000381469727 1.7484556000744883e-7 0.9999999999999847 0 0 0.8390007097918374 -1.466955489502031e-7 0.544130323515214 0 0 0 0 1 0.5529718168905196 -9.668466699256082e-8 -0.8331999578281245 22.600000381469727 1.7484556000744883e-7 0.9999999999999847 0 0 0.8331999578281117 -1.4568131322464117e-7 0.552971816890528 0 0 0 0 1 0.561751476554456 -9.821975150317664e-8 -0.8273060368381696 22.600000381469727 1.7484556000744883e-7 0.9999999999999847 0 0 0.827306036838157 -1.4465078730851286e-7 0.5617514765544647 0 0 0 0 1 0.558876125585819 -9.771700915284731e-8 -0.8292511539034325 22.600000381469727 1.7484556000744883e-7 0.9999999999999847 0 0 0.8292511539034199 -1.4499088239106879e-7 0.5588761255858276 0 0 0 0 1 0.5559940395319207 -9.721308920276382e-8 -0.8311862775605523 22.600000381469727 1.7484556000744883e-7 0.9999999999999847 0 0 0.8311862775605395 -1.4532923017058156e-7 0.5559940395319293 0 0 0 0 1 0.5531052531251451 0 -0.8331113844891145 22.600000381469727 0 1 0 0 0.8331113844891145 0 0.5531052531251451 0 0 0 0 1</float_array>
				<technique_common>
					<accessor source="#anim_RForeArm_transform_output_array" count="16" stride="16">
						<param name="TRANSFORM" type="float4x4"/>
					</accessor>
				</technique_common>
			</source>
			<source id="anim_RForeArm_transform_interpolation">
				<Name_array id="anim_RForeArm_transform_interpolation_array" count="16">LINEAR LINEAR LINEAR LINEAR LINEAR LINEAR LINEAR LINEAR LINEAR LINEAR LINEAR LINEAR LINEAR LINEAR LINEAR LINEAR</Name_array>
				<technique_common>
					<accessor source="#anim_RForeArm_transform_interpolation_array" count="16" stride="1">
						<param name="INTERPOLATION" type="Name"/>
					</accessor>
				</technique_common>
			</source>
			<sampler id="anim_RForeArm_transform_sampler">
				<input semantic="INPUT" source="#anim_RForeArm_transform_input"/>
				<input semantic="OUTPUT" source="#anim_RForeArm_transform_output"/>
				<input semantic="INTERPOLATION" source="#anim_RForeArm_transform_interpolation"/>
			</sampler>
			<channel source="#anim_RForeArm_transform_sampler" target="RForeArm_bone_id/transform"/>
		</animation>
		<animation id="anim_RHand_transform" name="anim_RHand_transform">
			<source id="anim_RHand_transform_input">
				<float_array id="anim_RHand_transform_input_array" count="16">0 0.03333333333333333 0.06666666666666667 0.1 0.13333333333333333 0.16666666666666666 0.2 0.23333333333333334 0.26666666666666666 0.3 0.3333333333333333 0.36666666666666664 0.4 0.43333333333333335 0.4666666666666667 0.5</float_array>
				<technique_common>
					<accessor source="#anim_RHand_transform_input_array" count="16" stride="1">
						<param name="TIME" type="float"/>
					</accessor>
				</technique_common>
			</source>
			<source id="anim_RHand_transform_output">
				<float_array id="anim_RHand_transform_output_array" count="256">0.8112068807376969 0.5345003865361451 0.2371765870328004 22.60000228881836 -0.5704172002736081 0.6340206499590879 0.5221513507188068 0 0.12871524492395817 -0.5588623732352781 0.819210127809708 0 0 0 0 1 0.8069943357825948 0.5393238406808761 0.240603276968618 22.60000228881836 -0.5759936815807941 0.628877933779131 0.5222488134832798 0 0.13035114419832056 -0.5600378016517454 0.818148055016492 0 0 0 0 1 0.8027415383575223 0.5441091071691142 0.2440313547293218 22.60000228881836 -0.5815344345016611 0.6236962263532038 0.5223224279327917 0 0.13199895486037722 -0.5612025451905956 0.8170850501553467 0 0 0 0 1 0.7975371674979691 0.5500004118071788 0.24785885796406434 22.60000228881836 -0.5881771090363621 0.6175950741986048 0.5221340945880164 0 0.13409755726687958 -0.5622062533782008 0.8160526783226083 0 0 0 0 1 0.7923620962319103 0.5568432026148465 0.24917454957642415 22.60000228881836 -0.5943426420843626 0.6125379827541574 0.5211084757357597 0 0.13754683658722283 -0.561001664333635 0.8163075403055758 0 0 0 0 1 0.7871262638120088 0.5636394780692308 0.2504850965211168 22.60000228881836 -0.6004624726442122 0.6074236384083486 0.5200782080117976 0 0.14098604102302723 -0.5597741171799648 0.8165634537328035 0 0 0 0 1 0.7889679123010125 0.560912197011841 0.2508129593994926 22.60000228881836 -0.5974882189943004 0.6051702952956001 0.5260957535039179 0 0.14330897223272823 -0.5649304567247069 0.8125983740707419 0 0 0 0 1 0.790790565040544 0.5581191931190056 0.25130310088625485 22.60000228881836 -0.5945596657252709 0.6028710113607437 0.5320200631118417 0 0.1454272537577161 -0.570131133979775 0.8085798686162207 0 0 0 0 1 0.7926061843322562 0.5553250067357683 0.25177286083329237 22.60000228881836 -0.5916181089311291 0.6005250332746472 0.5379197873245031 0 0.14752440388971672 -0.5753119339144658 0.8045201855470011 0 0 0 0 1 0.794319317534816 0.5531931494749457 0.2510660494073513 22.60000228881836 -0.5891101585356803 0.6004979062363015 0.5406953723825307 0 0.1483443389586865 -0.5773903393544166 0.8028787910507426 0 0 0 0 1 0.7956288900379497 0.5515510533729527 0.2505316444287354 22.60000228881836 -0.5870845805131587 0.6000757698098946 0.5433606222489359 0 0.14935315417047146 -0.5793966741449664 0.8012447374735655 0 0 0 0 1 0.7969505725302723 0.5500095332180477 0.24971843807163377 22.60000228881836 -0.584961741877817 0.5996421712408997 0.5461218060183732 0 0.150630493204202 -0.5813078184909997 0.7996197062843649 0 0 0 0 1 0.79813419399188 0.5493962715149036 0.2472762528558991 22.60000228881836 -0.5834710177909858 0.6025650951035735 0.5444969031691298 0 0.15014452963356117 -0.5788601238713407 0.8014846082195046 0 0 0 0 1 0.79706667859083 0.5502820490660938 0.24874560570149473 22.60000228881836 -0.5855478805006442 0.603495796941797 0.5412268495878494 0 0.14771049225219485 -0.5770463495675251 0.8032428779201269 0 0 0 0 1 0.7959926599465907 0.5511717042457905 0.25021078663787066 22.60000228881836 -0.5876157015184867 0.604416575467142 0.5379483159463458 0 0.14527034329169886 -0.5752306978416255 0.8049883052694298 0 0 0 0 1 0.7950582103431795 0.5521491385022688 0.2510254389839865 22.60000228881836 -0.5889542489928832 0.6038752999187429 0.5370917191144147 0 0.1449666677520376 -0.5748616798841708 0.8053065964225176 0 0 0 0 1</float_array>
				<technique_common>
					<accessor source="#anim_RHand_transform_output_array" count="16" stride="16">
						<param name="TRANSFORM" type="float4x4"/>
					</accessor>
				</technique_common>
			</source>
			<source id="anim_RHand_transform_interpolation">
				<Name_array id="anim_RHand_transform_interpolation_array" count="16">LINEAR LINEAR LINEAR LINEAR LINEAR LINEAR LINEAR LINEAR LINEAR LINEAR LINEAR LINEAR LINEAR LINEAR LINEAR LINEAR</Name_array>
				<technique_common>
					<accessor source="#anim_RHand_transform_interpolation_array" count="16" stride="1">
						<param name="INTERPOLATION" type="Name"/>
					</accessor>
				</technique_common>
			</source>
			<sampler id="anim_RHand_transform_sampler">
				<input semantic="INPUT" source="#anim_RHand_transform_input"/>
				<input semantic="OUTPUT" source="#anim_RHand_transform_output"/>
				<input semantic="INTERPOLATION" source="#anim_RHand_transform_interpolation"/>
			</sampler>
			<channel source="#anim_RHand_transform_sampler" target="RHand_bone_id/transform"/>
		</animation>
		<animation id="anim_LShoulder_transform" name="anim_LShoulder_transform">
			<source id="anim_LShoulder_transform_input">
				<float_array id="anim_LShoulder_transform_input_array" count="16">0 0.03333333333333333 0.06666666666666667 0.1 0.13333333333333333 0.16666666666666666 0.2 0.23333333333333334 0.26666666666666666 0.3 0.3333333333333333 0.36666666666666664 0.4 0.43333333333333335 0.4666666666666667 0.5</float_array>
				<technique_common>
					<accessor source="#anim_LShoulder_transform_input_array" count="16" stride="1">
						<param name="TIME" type="float"/>
					</accessor>
				</technique_common>
			</source>
			<source id="anim_LShoulder_transform_output">
				<float_array id="anim_LShoulder_transform_output_array" count="256">-0.4771070098603718 0.8747437455834964 -0.08480731516001813 14.180170059204102 -0.8639236723543223 -0.44911101731795444 0.22789291886641427 -4.5 0.16126000585364295 0.18199635624426047 0.9699858436213877 -0.24023300409317017 0 0 0 1 -0.4612542122362704 0.8830764726725542 -0.08614229568857382 14.180170059204102 -0.8722299631688035 -0.4334953925379328 0.22648760672260063 -4.5 0.16266358856500582 0.17960425401583227 0.9701973350275556 -0.24023300409317017 0 0 0 1 -0.43631854890948696 0.894980804679561 -0.09292730025479469 14.180170059204102 -0.8882843805055268 -0.41197042566018727 0.20305474072593405 -4.5 0.1434467958074763 0.17114241916161305 0.9747478079667986 -0.24023300409317017 0 0 0 1 -0.4091808623095925 0.9078923770307541 -0.09111780094485188 14.180170059204102 -0.9050811991510985 -0.3911778241645454 0.16675710727013088 -4.5 0.11575424338998626 0.15070282549222297 0.9817788007111746 -0.24023300409317017 0 0 0 1 -0.39179029078787075 0.9162232810007199 -0.08387650086068581 14.180170059204102 -0.916328095689059 -0.38038180428204194 0.12510996771641367 -4.5 0.08272357037277477 0.12587526493880866 0.9885910320154464 -0.24023300409317017 0 0 0 1 -0.3749565815074192 0.9234341576371129 -0.08171241333668998 14.180170059204102 -0.9261464046995685 -0.3692618886031136 0.07680165810270428 -4.5 0.04074799438417988 0.10447494500739207 0.9936924005039836 -0.24023300409317017 0 0 0 1 -0.38080146827271855 0.9209586487821296 -0.08261603352095731 14.180170059204102 -0.9246553020182616 -0.3791157250348496 0.0358307058375604 -4.5 0.001677560985268424 0.09003573881906246 0.995937122274517 -0.24023300409317017 0 0 0 1 -0.403080135273554 0.9111710830771571 -0.08540293854343528 14.180170059204102 -0.9149485040233549 -0.40325463156595664 0.01596675001462247 -4.5 -0.019890689612937267 0.08457517061528769 0.996218550812078 -0.24023300409317017 0 0 0 1 -0.42519931546595613 0.9007477597536595 -0.08865108812669152 14.180170059204102 -0.9041643811159006 -0.4271692908151876 -0.003628898696641396 -4.5 -0.041137744816446206 0.07861215098961397 0.9960561307818968 -0.24023300409317017 0 0 0 1 -0.4474990622912809 0.8899812336177654 -0.0876241579510211 14.180170059204102 -0.8927559265184811 -0.45031082470598904 -0.014388079049730041 -4.5 -0.05226322717316079 0.07178833443403855 0.9960496925980316 -0.24023300409317017 0 0 0 1 -0.45647988617042 0.8852014561097018 -0.08969111228602109 14.180170059204102 -0.8877054161285612 -0.4599221665690665 -0.02122957546521821 -4.5 -0.06004338179897822 0.06992841196308672 0.995743345196172 -0.24023300409317017 0 0 0 1 -0.4567637351398246 0.8848337745471011 -0.09184814468375205 14.180170059204102 -0.8870187686462836 -0.4608518708979088 -0.02851766398444126 -4.5 -0.06756178158062795 0.06844519348083158 0.9953645870529165 -0.24023300409317017 0 0 0 1 -0.4578108127562286 0.8843119791748612 -0.0916601506180428 14.180170059204102 -0.8873185294556966 -0.46091519456450114 -0.01493354292019412 -4.5 -0.055453467051776215 0.07449501263446526 0.9956783647767629 -0.24023300409317017 0 0 0 1 -0.4589203716409076 0.8837575756751996 -0.09145840546207198 14.180170059204102 -0.8874192933032257 -0.4609611541672567 -0.0013461879490105702 -4.5 -0.04334847593831439 0.08054416046793336 0.9958079874395169 -0.24023300409317017 0 0 0 1 -0.4600825242634705 0.8831898439887623 -0.09110307537322004 14.180170059204102 -0.8873211414418553 -0.46099554724254665 0.012012384145875764 -4.5 -0.03138889640742745 0.086364372849286 0.9957690155275335 -0.24023300409317017 0 0 0 1 -0.46098197808613683 0.8827358094943214 -0.0909566188696449 14.180170059204102 -0.8870445974696506 -0.46130462404910877 0.018706307246922807 -4.5 -0.02544598160217771 0.08930584788979809 0.995679148899376 -0.24023300409317017 0 0 0 1</float_array>
				<technique_common>
					<accessor source="#anim_LShoulder_transform_output_array" count="16" stride="16">
						<param name="TRANSFORM" type="float4x4"/>
					</accessor>
				</technique_common>
			</source>
			<source id="anim_LShoulder_transform_interpolation">
				<Name_array id="anim_LShoulder_transform_interpolation_array" count="16">LINEAR LINEAR LINEAR LINEAR LINEAR LINEAR LINEAR LINEAR LINEAR LINEAR LINEAR LINEAR LINEAR LINEAR LINEAR LINEAR</Name_array>
				<technique_common>
					<accessor source="#anim_LShoulder_transform_interpolation_array" count="16" stride="1">
						<param name="INTERPOLATION" type="Name"/>
					</accessor>
				</technique_common>
			</source>
			<sampler id="anim_LShoulder_transform_sampler">
				<input semantic="INPUT" source="#anim_LShoulder_transform_input"/>
				<input semantic="OUTPUT" source="#anim_LShoulder_transform_output"/>
				<input semantic="INTERPOLATION" source="#anim_LShoulder_transform_interpolation"/>
			</sampler>
			<channel source="#anim_LShoulder_transform_sampler" target="LShoulder_bone_id/transform"/>
		</animation>
		<animation id="anim_LArm_transform" name="anim_LArm_transform">
			<source id="anim_LArm_transform_input">
				<float_array id="anim_LArm_transform_input_array" count="16">0 0.03333333333333333 0.06666666666666667 0.1 0.13333333333333333 0.16666666666666666 0.2 0.23333333333333334 0.26666666666666666 0.3 0.3333333333333333 0.36666666666666664 0.4 0.43333333333333335 0.4666666666666667 0.5</float_array>
				<technique_common>
					<accessor source="#anim_LArm_transform_input_array" count="16" stride="1">
						<param name="TIME" type="float"/>
					</accessor>
				</technique_common>
			</source>
			<source id="anim_LArm_transform_output">
				<float_array id="anim_LArm_transform_output_array" count="256">0.7952438626002687 0.5962188550477959 0.11004669864244127 12.619565963745117 -0.5561453859709887 0.6450758219221622 0.5240033336102232 0 0.2414322030297223 -0.4779123987269447 0.8445769535591607 0 0 0 0 1 0.7940104699133049 0.6027504533844756 0.07898901577347142 12.619565963745117 -0.5465717670981052 0.6509727610474698 0.5267767722531894 0 0.26609524061754164 -0.4614394384088153 0.8463255683255999 0 0 0 0 1 0.7838303481306323 0.6209610174039027 0.0041713563887156024 12.619565963745117 -0.5404589537070285 0.6788749267283116 0.49702409722017865 0 0.30580075982135146 -0.3918370180627902 0.8677267119135752 0 0 0 0 1 0.7491260156192765 0.657921404023078 -0.07713390208390541 12.619565963745117 -0.5546234854885134 0.6866168550951665 0.47005327745245645 0 0.36221954953723917 -0.30934886524363564 0.879261211191256 0 0 0 0 1 0.7002275760625167 0.6920264976810167 -0.17544420260857385 12.619565963745117 -0.5909689942135119 0.6997369412002891 0.4014023679525738 0 0.4005458645397336 -0.1773909231810047 0.8989413055217278 0 0 0 0 1 0.681541025789928 0.6654551409393086 -0.30441958800750246 12.619565963745117 -0.6026401804806272 0.7463836396236373 0.2823761239418968 0 0.4151224434254185 -0.00899543771126482 0.9097210776193398 0 0 0 0 1 0.6972083290034033 0.589098239785728 -0.40848966920797275 12.619565963745117 -0.6018690346614374 0.7905800421987521 0.11285770683798596 0 0.3894280563647046 0.16717194967570426 0.9057589790654201 0 0 0 0 1 0.7279443065195744 0.5071240388138795 -0.4614350396998853 12.619565963745117 -0.5968717269369316 0.7998983353003051 -0.06250435798506856 0 0.3374036576403119 0.32091722054277405 0.8849694397944144 0 0 0 0 1 0.7385149464757915 0.4596133985295812 -0.49330639335401605 12.619565963745117 -0.606028695677598 0.7731729153494087 -0.186903351990823 0 0.295507857504954 0.4369887491254031 0.8495386626226303 0 0 0 0 1 0.7567174120383064 0.42329803889949025 -0.4981942679135256 12.619565963745117 -0.6055530486799199 0.7410171451964863 -0.290170804457141 0 0.24634176168993904 0.5212603579677774 0.8170699943449166 0 0 0 0 1 0.7452499062011719 0.4273910604740482 -0.5118002136908631 12.619565963745117 -0.6378143394280439 0.6807238825051237 -0.36028858461949465 0 0.1944105082733768 0.5949385491074008 0.7799055564995471 0 0 0 0 1 0.7203528192277269 0.4528366841630431 -0.5253862896068818 12.619565963745117 -0.6765957527100108 0.6254959051535738 -0.3885525190381415 0 0.15267613842850458 0.6353690345872481 0.7569651158687754 0 0 0 0 1 0.7094254988509052 0.4776869499298032 -0.5181994205389525 12.619565963745117 -0.6920169823625112 0.6114238903750356 -0.3837620648273362 0 0.133521375449882 0.6308533935435542 0.7643271800430451 0 0 0 0 1 0.7113256744847962 0.48670319051702804 -0.5070855836634438 12.619565963745117 -0.6922327712784622 0.6101127201067974 -0.3854559107498876 0 0.12177674321022972 0.6252059445530174 0.7709007405033929 0 0 0 0 1 0.7138124327469605 0.49728298182540415 -0.4931343091316004 12.619565963745117 -0.6909435719794732 0.6149926133786195 -0.3799750858016646 0 0.11431881383268738 0.611958921396339 0.7825838532242515 0 0 0 0 1 0.7127781957530565 0.5026046633736518 -0.48921957852693876 12.619565963745117 -0.6919839398728362 0.6177606793257027 -0.37353710664017487 0 0.1144791274297827 0.6047811963298004 0.788120697576717 0 0 0 0 1</float_array>
				<technique_common>
					<accessor source="#anim_LArm_transform_output_array" count="16" stride="16">
						<param name="TRANSFORM" type="float4x4"/>
					</accessor>
				</technique_common>
			</source>
			<source id="anim_LArm_transform_interpolation">
				<Name_array id="anim_LArm_transform_interpolation_array" count="16">LINEAR LINEAR LINEAR LINEAR LINEAR LINEAR LINEAR LINEAR LINEAR LINEAR LINEAR LINEAR LINEAR LINEAR LINEAR LINEAR</Name_array>
				<technique_common>
					<accessor source="#anim_LArm_transform_interpolation_array" count="16" stride="1">
						<param name="INTERPOLATION" type="Name"/>
					</accessor>
				</technique_common>
			</source>
			<sampler id="anim_LArm_transform_sampler">
				<input semantic="INPUT" source="#anim_LArm_transform_input"/>
				<input semantic="OUTPUT" source="#anim_LArm_transform_output"/>
				<input semantic="INTERPOLATION" source="#anim_LArm_transform_interpolation"/>
			</sampler>
			<channel source="#anim_LArm_transform_sampler" target="LArm_bone_id/transform"/>
		</animation>
		<animation id="anim_LForeArm_transform" name="anim_LForeArm_transform">
			<source id="anim_LForeArm_transform_input">
				<float_array id="anim_LForeArm_transform_input_array" count="16">0 0.03333333333333333 0.06666666666666667 0.1 0.13333333333333333 0.16666666666666666 0.2 0.23333333333333334 0.26666666666666666 0.3 0.3333333333333333 0.36666666666666664 0.4 0.43333333333333335 0.4666666666666667 0.5</float_array>
				<technique_common>
					<accessor source="#anim_LForeArm_transform_input_array" count="16" stride="1">
						<param name="TIME" type="float"/>
					</accessor>
				</technique_common>
			</source>
			<source id="anim_LForeArm_transform_output">
				<float_array id="anim_LForeArm_transform_output_array" count="256">0.4372076370953999 -0.0016652120218657216 -0.8993590546241136 22.600000381469727 0.0013233412968886695 0.9999983944702837 -0.0012082320417500408 0 0.899359622638947 -0.0006619107016783566 0.43720913878938295 0 0 0 0 1 0.48318608704969057 -0.001658553071727284 -0.8755161074950693 22.600000381469727 0.001336741024581244 0.999998437653951 -0.0011566387034551992 0 0.8755166579826124 -0.0006114665693175956 0.4831875492017489 0 0 0 0 1 0.5333552694503423 -0.0016524839333085608 -0.8458897244005291 22.600000381469727 0.001352162913632398 0.9999984797604081 -0.001100968813229043 0 0.8458902577787547 -0.0005565731963209253 0.5333566930500351 0 0 0 0 1 0.5385772179472677 -0.0016232271801589627 -0.8425745933991265 22.600000381469727 0.0013314433382391104 0.9999985353409477 -0.0010754415820512398 0 0.8425751050006277 -0.0005426319940248284 0.5385785903502855 0 0 0 0 1 0.543778560494311 -0.0015938618060910015 -0.8392272259354304 22.600000381469727 0.0013105487570975404 0.9999985899516385 -0.0010500269948873944 0 0.8392277161823781 -0.0005288660301120606 0.5437798825738517 0 0 0 0 1 0.5268273257137681 -0.0015540180001448565 -0.8499709135666552 22.600000381469727 0.0012730727347641418 0.9999986496288957 -0.0010392430884985531 0 0.8499713807929602 -0.0005345731383240681 0.5268285926793159 0 0 0 0 1 0.5158583933929519 -0.0015171781993320275 -0.8566725256107808 22.600000381469727 0.0012404752948229846 0.9999987062810696 -0.0010240396623825108 0 0.8566729709679681 -0.0005344216487664814 0.515859608039257 0 0 0 0 1 0.5161457389545152 -0.001485665175206977 -0.8564994856729832 22.600000381469727 0.0012161978850771316 0.9999987587613682 -0.0010016678227889506 0 0.8564999106957348 -0.0005246662844647699 0.5161469051573284 0 0 0 0 1 0.5164330255232426 -0.0014541470550342868 -0.8563263487743749 22.600000381469727 0.0011919115613934729 0.9999988101556743 -0.0009793028466534514 0 0.8563267539296784 -0.0005149209434292706 0.5164341442630245 0 0 0 0 1 0.5113414553514047 -0.0014202536937186268 -0.8593764593695554 22.600000381469727 0.0011639716217785136 0.9999988617131859 -0.0009600741619102392 0 0.859376844701538 -0.000509364091934196 0.5113425264331637 0 0 0 0 1 0.5267268121016739 -0.0013952727371768041 -0.8500334808860159 22.600000381469727 0.0011497528355881041 0.9999989075300916 -0.0009289817223035143 0 0.8500338484328873 -0.0004880088239038707 0.5267278408872678 0 0 0 0 1 0.5576969415486883 -0.0013764070993900232 -0.8300435090347588 22.600000381469727 0.0011451913467258037 0.9999989492923232 -0.0008887918929568065 0 0.8300438602411432 -0.000454882123577247 0.5576979318217302 0 0 0 0 1 0.5710883916594828 -0.0013497748740862708 -0.8208874630663907 22.600000381469727 0.0011285624336350713 0.9999989941044419 -0.0008591489613049634 0 0.820887796997019 -0.0004357727545511583 0.5710893405094231 0 0 0 0 1 0.565791924448432 -0.0013155811988916865 -0.8245470074380532 22.600000381469727 0.001099942524484823 0.9999990416289694 -0.0008407541766718796 0 0.8245473232964755 -0.0004312623933105787 0.5657928292735473 0 0 0 0 1 0.5610313444216957 -0.0012816758829589658 -0.8277935659832805 22.600000381469727 0.0010718134146867606 0.9999990878574506 -0.0008218882349837912 0 0.8277938643118761 -0.0004261351871749391 0.5610322063985396 0 0 0 0 1 0.5609901778462444 -0.0012496263975770145 -0.8278215138506041 22.600000381469727 0.0010466075095068644 0.9999991320821583 -0.0008002797330416524 0 0.8278217954202224 -0.0004174551431616008 0.5609909988212318 0 0 0 0 1</float_array>
				<technique_common>
					<accessor source="#anim_LForeArm_transform_output_array" count="16" stride="16">
						<param name="TRANSFORM" type="float4x4"/>
					</accessor>
				</technique_common>
			</source>
			<source id="anim_LForeArm_transform_interpolation">
				<Name_array id="anim_LForeArm_transform_interpolation_array" count="16">LINEAR LINEAR LINEAR LINEAR LINEAR LINEAR LINEAR LINEAR LINEAR LINEAR LINEAR LINEAR LINEAR LINEAR LINEAR LINEAR</Name_array>
				<technique_common>
					<accessor source="#anim_LForeArm_transform_interpolation_array" count="16" stride="1">
						<param name="INTERPOLATION" type="Name"/>
					</accessor>
				</technique_common>
			</source>
			<sampler id="anim_LForeArm_transform_sampler">
				<input semantic="INPUT" source="#anim_LForeArm_transform_input"/>
				<input semantic="OUTPUT" source="#anim_LForeArm_transform_output"/>
				<input semantic="INTERPOLATION" source="#anim_LForeArm_transform_interpolation"/>
			</sampler>
			<channel source="#anim_LForeArm_transform_sampler" target="LForeArm_bone_id/transform"/>
		</animation>
		<animation id="anim_LHand_transform" name="anim_LHand_transform">
			<source id="anim_LHand_transform_input">
				<float_array id="anim_LHand_transform_input_array" count="16">0 0.03333333333333333 0.06666666666666667 0.1 0.13333333333333333 0.16666666666666666 0.2 0.23333333333333334 0.26666666666666666 0.3 0.3333333333333333 0.36666666666666664 0.4 0.43333333333333335 0.4666666666666667 0.5</float_array>
				<technique_common>
					<accessor source="#anim_LHand_transform_input_array" count="16" stride="1">
						<param name="TIME" type="float"/>
					</accessor>
				</technique_common>
			</source>
			<source id="anim_LHand_transform_output">
				<float_array id="anim_LHand_transform_output_array" count="256">0.8837853606814441 -0.4117508673713961 -0.22222659486225502 22.60000228881836 0.3810427507186731 0.35774834811351497 0.8525388797860181 0 -0.27153242600086824 -0.838139214355798 0.4730674359846899 0 0 0 0 1 0.8868508171055347 -0.4085299456562407 -0.21586781071145028 22.60000228881836 0.38256303097801425 0.38721971917686615 0.8388721096862762 0 -0.2591161043396577 -0.8265374598786784 0.49969457860691424 0 0 0 0 1 0.8984886863955782 -0.3904413352417956 -0.2006829443519108 22.60000228881836 0.36900609898341585 0.42407015252967184 0.8270423233707588 0 -0.23780786221693728 -0.8171414011467447 0.5250974682854084 0 0 0 0 1 0.9188175877439333 -0.35864200682581404 -0.16477302993018084 22.60000228881836 0.3509330521758731 0.5513234626887169 0.7568939373382834 0 -0.1806107232224748 -0.7532717639928342 0.6324250281481425 0 0 0 0 1 0.936388027327827 -0.3193218891375983 -0.1456399443651917 22.60000228881836 0.33950394451441734 0.7189475712461146 0.6065075939000799 0 -0.08896366638269895 -0.6173717850022855 0.7816249389232918 0 0 0 0 1 0.9498096558877858 -0.2800522309703049 -0.1394000197664295 22.60000228881836 0.31282753736194197 0.8492363347575859 0.4253664062847047 0 -0.0007412492082750632 -0.44762528487123765 0.8942209206306653 0 0 0 0 1 0.9615452599544739 -0.2511905822470449 -0.1110585631523912 22.60000228881836 0.2705284127176664 0.9360013475430807 0.22520181018365915 0 0.04738239094371467 -0.24658622992358575 0.967961848545969 0 0 0 0 1 0.9871032215902127 -0.1492414744425465 -0.05791556122872531 22.60000228881836 0.1505027930501008 0.9884449713116383 0.018040176630316197 0 0.05455400269771246 -0.02652397019582887 0.998158474288882 0 0 0 0 1 0.9958512149560378 -0.07831712253196518 -0.046333421942445364 22.60000228881836 0.06788442943508455 0.9784779645105408 -0.19486553622326827 0 0.060597540468706766 0.19091176308866356 0.9797349829436129 0 0 0 0 1 0.9788095162192081 -0.2015463308860343 -0.03620783706736621 22.60000228881836 0.16750699065820834 0.8897697774832203 -0.42455995001659247 0 0.11778513929758144 0.40949825345639485 0.9046755448097464 0 0 0 0 1 0.9309270700751479 -0.3647935246644664 0.017334202149969183 22.60000228881836 0.3091438409253368 0.761865805940784 -0.5692017035780284 0 0.19443475980192104 0.5352440360256945 0.82201517387436 0 0 0 0 1 0.8653328527572616 -0.49489160082686073 0.07925501479406043 22.60000228881836 0.4390661961145182 0.6722645442195913 -0.5960547441424764 0 0.2417021501114689 0.5505839500169367 0.7990227685211733 0 0 0 0 1 0.8152056132392068 -0.5664772443074506 0.1205957703450896 22.60000228881836 0.5147875075443382 0.6132879806755182 -0.5990589911145923 0 0.2653933499912473 0.5504374482543699 0.7915712130564383 0 0 0 0 1 0.8096223667257408 -0.5725552771662036 0.12919782462000573 22.60000228881836 0.5200502240660986 0.597690789092774 -0.6101749626807527 0 0.2721385451313552 0.561200655044868 0.7816613314159786 0 0 0 0 1 0.8084205896854018 -0.5735455145486508 0.13229396401132898 22.60000228881836 0.5213219456083467 0.5933407276454425 -0.6133271638728426 0 0.27327564692053224 0.564794054198785 0.778670724466937 0 0 0 0 1 0.8072156580151574 -0.5745182450050955 0.13539448885173122 22.60000228881836 0.5225854719453563 0.5889707546959841 -0.6164558983613443 0 0.27442176656891787 0.5683680464884598 0.7756613035108083 0 0 0 0 1</float_array>
				<technique_common>
					<accessor source="#anim_LHand_transform_output_array" count="16" stride="16">
						<param name="TRANSFORM" type="float4x4"/>
					</accessor>
				</technique_common>
			</source>
			<source id="anim_LHand_transform_interpolation">
				<Name_array id="anim_LHand_transform_interpolation_array" count="16">LINEAR LINEAR LINEAR LINEAR LINEAR LINEAR LINEAR LINEAR LINEAR LINEAR LINEAR LINEAR LINEAR LINEAR LINEAR LINEAR</Name_array>
				<technique_common>
					<accessor source="#anim_LHand_transform_interpolation_array" count="16" stride="1">
						<param name="INTERPOLATION" type="Name"/>
					</accessor>
				</technique_common>
			</source>
			<sampler id="anim_LHand_transform_sampler">
				<input semantic="INPUT" source="#anim_LHand_transform_input"/>
				<input semantic="OUTPUT" source="#anim_LHand_transform_output"/>
				<input semantic="INTERPOLATION" source="#anim_LHand_transform_interpolation"/>
			</sampler>
			<channel source="#anim_LHand_transform_sampler" target="LHand_bone_id/transform"/>
		</animation>
		<animation id="anim_Neck_transform" name="anim_Neck_transform">
			<source id="anim_Neck_transform_input">
				<float_array id="anim_Neck_transform_input_array" count="16">0 0.03333333333333333 0.06666666666666667 0.1 0.13333333333333333 0.16666666666666666 0.2 0.23333333333333334 0.26666666666666666 0.3 0.3333333333333333 0.36666666666666664 0.4 0.43333333333333335 0.4666666666666667 0.5</float_array>
				<technique_common>
					<accessor source="#anim_Neck_transform_input_array" count="16" stride="1">
						<param name="TIME" type="float"/>
					</accessor>
				</technique_common>
			</source>
			<source id="anim_Neck_transform_output">
				<float_array id="anim_Neck_transform_output_array" count="256">0.9073556657023201 0.04890399888098088 -0.41750939487794597 16.8001766204834 -0.07399528506109547 0.9962824335026855 -0.044113608815129116 0 0.41379994406310255 0.0709204595826623 0.9076011760161823 0 0 0 0 1 0.914993765874579 0.046440836159367935 -0.40078629860247816 16.8001766204834 -0.06899930252153351 0.9967309585816928 -0.04202966162559079 0 0.3975242189630689 0.06611085343299164 0.9152069986599554 0 0 0 0 1 0.9196128639332314 0.038218620530501506 -0.39096229681807626 16.8001766204834 -0.058756572200920294 0.997442288997007 -0.040700679891240245 0 0.3884068044096526 0.060400473219642044 0.9195063551292755 0 0 0 0 1 0.9240353315352847 0.03342317612163814 -0.3808432714023164 16.8001766204834 -0.04503801008077528 0.9987512149509716 -0.02162378972155368 0 0.3796449442866853 0.0371335688010181 0.9243867233715874 0 0 0 0 1 0.9280545724338047 0.034873607567887106 -0.37080795849052234 16.8001766204834 -0.03799810392526239 0.999277181775493 -0.0011216420612034095 0 0.37050081603525903 0.01513094438657115 0.9287088886401258 0 0 0 0 1 0.917013253004491 0.036172722241224385 -0.39721307629505437 16.8001766204834 -0.0307320266277373 0.9993264139744602 0.02005644216450015 0 0.397671015229264 -0.00618486043537966 0.9175072267551474 0 0 0 0 1 0.9051902814586871 0.03378483971477208 -0.42366158541717 16.8001766204834 -0.027180335401175225 0.9993966430701643 0.021623579434644172 0 0.4241365154289624 -0.008058189966357508 0.9055624119044714 0 0 0 0 1 0.8925961476110277 0.03146194258216866 -0.4497580054194798 16.8001766204834 -0.023595097092950733 0.9994549649846597 0.02308775347856216 0 0.4502392571323904 -0.0099959560057532 0.8928519990459809 0 0 0 0 1 0.8792415990472348 0.029205837877709744 -0.47547999909430744 16.8001766204834 -0.019979331476282843 0.9995014322823129 0.02444817333392943 0 0.47595696950315 -0.011996078503660246 0.8793867506859037 0 0 0 0 1 0.8776402138365722 0.025792292029691615 -0.4786255454201656 16.8001766204834 -0.01775596649502983 0.9996152526706253 0.021308971867952546 0 0.4789910027450654 -0.010203151478681534 0.877760511181256 0 0 0 0 1 0.8778247770570219 0.022360858732251097 -0.47845966682840274 16.8001766204834 -0.015580533095371801 0.9997141199355354 0.018136300338881174 0 0.4787284279978095 -0.008465837127797065 0.8779222185526869 0 0 0 0 1 0.8780012158022177 0.018929504012900288 -0.47828395219540165 16.8001766204834 -0.013403971806633466 0.999798187659965 0.014963872882929063 0 0.4784706872835939 -0.006727393973529159 0.8780777548604054 0 0 0 0 1 0.8789534361499217 0.01549523553236479 -0.47665580323336254 16.8001766204834 -0.011236766308506924 0.9998674354595458 0.01178331831357479 0 0.4767752008684738 -0.005000918250437908 0.8790110344321503 0 0 0 0 1 0.8824961970451509 0.012057215202130447 -0.4701649559063455 16.8001766204834 -0.009088711934900223 0.9999218589532154 0.008583198873990047 0 0.4702317062004759 -0.0033014465186605993 0.8825368224242396 0 0 0 0 1 0.8859827168435677 0.009166894082056105 -0.46362764532260037 16.8001766204834 -0.006378424948373352 0.9999509125443781 0.0075820971270189426 0 0.4636743913024187 -0.0037603928722867866 0.885997696552185 0 0 0 0 1 0.8877450805921135 0.006278249224477669 -0.4602925759461879 16.8001766204834 -0.0036466111349545602 0.9999715294165031 0.006606253374649412 0 0.46032094685309755 -0.004186160901707777 0.8877427003052026 0 0 0 0 1</float_array>
				<technique_common>
					<accessor source="#anim_Neck_transform_output_array" count="16" stride="16">
						<param name="TRANSFORM" type="float4x4"/>
					</accessor>
				</technique_common>
			</source>
			<source id="anim_Neck_transform_interpolation">
				<Name_array id="anim_Neck_transform_interpolation_array" count="16">LINEAR LINEAR LINEAR LINEAR LINEAR LINEAR LINEAR LINEAR LINEAR LINEAR LINEAR LINEAR LINEAR LINEAR LINEAR LINEAR</Name_array>
				<technique_common>
					<accessor source="#anim_Neck_transform_interpolation_array" count="16" stride="1">
						<param name="INTERPOLATION" type="Name"/>
					</accessor>
				</technique_common>
			</source>
			<sampler id="anim_Neck_transform_sampler">
				<input semantic="INPUT" source="#anim_Neck_transform_input"/>
				<input semantic="OUTPUT" source="#anim_Neck_transform_output"/>
				<input semantic="INTERPOLATION" source="#anim_Neck_transform_interpolation"/>
			</sampler>
			<channel source="#anim_Neck_transform_sampler" target="Neck_bone_id/transform"/>
		</animation>
		<animation id="anim_Head_transform" name="anim_Head_transform">
			<source id="anim_Head_transform_input">
				<float_array id="anim_Head_transform_input_array" count="16">0 0.03333333333333333 0.06666666666666667 0.1 0.13333333333333333 0.16666666666666666 0.2 0.23333333333333334 0.26666666666666666 0.3 0.3333333333333333 0.36666666666666664 0.4 0.43333333333333335 0.4666666666666667 0.5</float_array>
				<technique_common>
					<accessor source="#anim_Head_transform_input_array" count="16" stride="1">
						<param name="TIME" type="float"/>
					</accessor>
				</technique_common>
			</source>
			<source id="anim_Head_transform_output">
				<float_array id="anim_Head_transform_output_array" count="256">0.8914661717481546 0.0008636816808963326 0.45308643621570044 5.120194911956787 -0.0008793803116566308 0.9999995978569283 -0.00017600070815522995 0 -0.45308640601871664 -0.00024153661396264772 0.8914665727558756 0 0 0 0 1 0.8914661717481546 0.0008636816808963326 0.45308643621570044 5.120194911956787 -0.0008793803116566308 0.9999995978569283 -0.00017600070815522995 0 -0.45308640601871664 -0.00024153661396264772 0.8914665727558756 0 0 0 0 1 0.8914661717481546 0.0008636816808963326 0.45308643621570044 5.120194911956787 -0.0008793803116566308 0.9999995978569283 -0.00017600070815522995 0 -0.45308640601871664 -0.00024153661396264772 0.8914665727558756 0 0 0 0 1 0.8914661717481546 0.0008636816808963326 0.45308643621570044 5.120194911956787 -0.0008793803116566308 0.9999995978569283 -0.00017600070815522995 0 -0.45308640601871664 -0.00024153661396264772 0.8914665727558756 0 0 0 0 1 0.8914661717481546 0.0008636816808963326 0.45308643621570044 5.120194911956787 -0.0008793803116566308 0.9999995978569283 -0.00017600070815522995 0 -0.45308640601871664 -0.00024153661396264772 0.8914665727558756 0 0 0 0 1 0.8914661717481546 0.0008636816808963326 0.45308643621570044 5.120194911956787 -0.0008793803116566308 0.9999995978569283 -0.00017600070815522995 0 -0.45308640601871664 -0.00024153661396264772 0.8914665727558756 0 0 0 0 1 0.8914661717481546 0.0008636816808963326 0.45308643621570044 5.120194911956787 -0.0008793803116566308 0.9999995978569283 -0.00017600070815522995 0 -0.45308640601871664 -0.00024153661396264772 0.8914665727558756 0 0 0 0 1 0.8914661717481546 0.0008636816808963326 0.45308643621570044 5.120194911956787 -0.0008793803116566308 0.9999995978569283 -0.00017600070815522995 0 -0.45308640601871664 -0.00024153661396264772 0.8914665727558756 0 0 0 0 1 0.8914661717481546 0.0008636816808963326 0.45308643621570044 5.120194911956787 -0.0008793803116566308 0.9999995978569283 -0.00017600070815522995 0 -0.45308640601871664 -0.00024153661396264772 0.8914665727558756 0 0 0 0 1 0.8914661717481546 0.0008636816808963326 0.45308643621570044 5.120194911956787 -0.0008793803116566308 0.9999995978569283 -0.00017600070815522995 0 -0.45308640601871664 -0.00024153661396264772 0.8914665727558756 0 0 0 0 1 0.8914661717481546 0.0008636816808963326 0.45308643621570044 5.120194911956787 -0.0008793803116566308 0.9999995978569283 -0.00017600070815522995 0 -0.45308640601871664 -0.00024153661396264772 0.8914665727558756 0 0 0 0 1 0.8914661717481546 0.0008636816808963326 0.45308643621570044 5.120194911956787 -0.0008793803116566308 0.9999995978569283 -0.00017600070815522995 0 -0.45308640601871664 -0.00024153661396264772 0.8914665727558756 0 0 0 0 1 0.8914661717481546 0.0008636816808963326 0.45308643621570044 5.120194911956787 -0.0008793803116566308 0.9999995978569283 -0.00017600070815522995 0 -0.45308640601871664 -0.00024153661396264772 0.8914665727558756 0 0 0 0 1 0.8914661717481546 0.0008636816808963326 0.45308643621570044 5.120194911956787 -0.0008793803116566308 0.9999995978569283 -0.00017600070815522995 0 -0.45308640601871664 -0.00024153661396264772 0.8914665727558756 0 0 0 0 1 0.8914661717481546 0.0008636816808963326 0.45308643621570044 5.120194911956787 -0.0008793803116566308 0.9999995978569283 -0.00017600070815522995 0 -0.45308640601871664 -0.00024153661396264772 0.8914665727558756 0 0 0 0 1 0.8914661717481546 0.0008636816808963326 0.45308643621570044 5.120194911956787 -0.0008793803116566308 0.9999995978569283 -0.00017600070815522995 0 -0.45308640601871664 -0.00024153661396264772 0.8914665727558756 0 0 0 0 1</float_array>
				<technique_common>
					<accessor source="#anim_Head_transform_output_array" count="16" stride="16">
						<param name="TRANSFORM" type="float4x4"/>
					</accessor>
				</technique_common>
			</source>
			<source id="anim_Head_transform_interpolation">
				<Name_array id="anim_Head_transform_interpolation_array" count="16">LINEAR LINEAR LINEAR LINEAR LINEAR LINEAR LINEAR LINEAR LINEAR LINEAR LINEAR LINEAR LINEAR LINEAR LINEAR LINEAR</Name_array>
				<technique_common>
					<accessor source="#anim_Head_transform_interpolation_array" count="16" stride="1">
						<param name="INTERPOLATION" type="Name"/>
					</accessor>
				</technique_common>
			</source>
			<sampler id="anim_Head_transform_sampler">
				<input semantic="INPUT" source="#anim_Head_transform_input"/>
				<input semantic="OUTPUT" source="#anim_Head_transform_output"/>
				<input semantic="INTERPOLATION" source="#anim_Head_transform_interpolation"/>
			</sampler>
			<channel source="#anim_Head_transform_sampler" target="Head_bone_id/transform"/>
		</animation>
	</library_animations>
</COLLADA>