<?xml version="1.0" encoding="utf-8"?>
<COLLADA xmlns="http://www.collada.org/2005/11/COLLADASchema" version="1.4.1">
	<asset>
		<created>2026-02-17T06:55:53Z</created>
		<modified>2026-02-17T06:55:53Z</modified>
		<up_axis>Y_UP</up_axis>
	</asset>
	<library_animations>
		<animation id="anim_Jaw_transform" name="anim_Jaw_transform">
			<source id="anim_Jaw_transform_input">
				<float_array id="anim_Jaw_transform_input_array" count="71">0 0.03333333333333333 0.06666666666666667 0.1 0.13333333333333333 0.16666666666666666 0.2 0.23333333333333334 0.26666666666666666 0.3 0.3333333333333333 0.36666666666666664 0.4 0.43333333333333335 0.4666666666666667 0.5 0.5333333333333333 0.5666666666666667 0.6 0.6333333333333333 0.6666666666666666 0.7 0.7333333333333333 0.7666666666666667 0.8 0.8333333333333334 0.8666666666666667 0.9 0.9333333333333333 0.9666666666666667 1 1.0333333333333334 1.0666666666666667 1.1 1.1333333333333333 1.1666666666666667 1.2 1.2333333333333334 1.2666666666666666 1.3 1.3333333333333333 1.3666666666666667 1.4 1.4333333333333333 1.4666666666666666 1.5 1.5333333333333334 1.5666666666666667 1.6 1.6333333333333333 1.6666666666666667 1.7 1.7333333333333334 1.7666666666666666 1.8 1.8333333333333333 1.8666666666666667 1.9 1.9333333333333333 1.9666666666666666 2 2.033333333333333 2.066666666666667 2.1 2.1333333333333333 2.1666666666666665 2.2 2.2333333333333334 2.2666666666666666 2.3 2.3333333333333335</float_array>
				<technique_common>
					<accessor source="#anim_Jaw_transform_input_array" count="71" stride="1">
						<param name="TIME" type="float"/>
					</accessor>
				</technique_common>
			</source>
			<source id="anim_Jaw_transform_output">
				<float_array id="anim_Jaw_transform_output_array" count="1136">0.9750988579812069 -1.337270921215856e-7 0.22177064089668935 3.6777288913726807 -5.507815446011395e-9 -0.999999999999833 -5.787800722909052e-7 0.000004999999873689376 0.2217706408967296 5.631463157517393e-7 -0.9750988579810447 5.891358852386475 0 0 0 1 0.9750988579812069 -1.337270921215856e-7 0.22177064089668935 3.6777288913726807 -5.507815446011395e-9 -0.999999999999833 -5.787800722909052e-7 0.000004999999873689376 0.2217706408967296 5.631463157517393e-7 -0.9750988579810447 5.891358852386475 0 0 0 1 0.9750988579812069 -1.337270921215856e-7 0.22177064089668935 3.6777288913726807 -5.507815446011395e-9 -0.999999999999833 -5.787800722909052e-7 0.000004999999873689376 0.2217706408967296 5.631463157517393e-7 -0.9750988579810447 5.891358852386475 0 0 0 1 0.9750988579812069 -1.337270921215856e-7 0.22177064089668935 3.6777288913726807 -5.507815446011395e-9 -0.999999999999833 -5.787800722909052e-7 0.000004999999873689376 0.2217706408967296 5.631463157517393e-7 -0.9750988579810447 5.891358852386475 0 0 0 1 0.9750988579812069 -1.337270921215856e-7 0.22177064089668935 3.6777288913726807 -5.507815446011395e-9 -0.999999999999833 -5.787800722909052e-7 0.000004999999873689376 0.2217706408967296 5.631463157517393e-7 -0.9750988579810447 5.891358852386475 0 0 0 1 0.9750988579812069 -1.337270921215856e-7 0.22177064089668935 3.6777288913726807 -5.507815446011395e-9 -0.999999999999833 -5.787800722909052e-7 0.000004999999873689376 0.2217706408967296 5.631463157517393e-7 -0.9750988579810447 5.891358852386475 0 0 0 1 0.9750988579812069 -1.337270921215856e-7 0.22177064089668935 3.6777288913726807 -5.507815446011395e-9 -0.999999999999833 -5.787800722909052e-7 0.000004999999873689376 0.2217706408967296 5.631463157517393e-7 -0.9750988579810447 5.891358852386475 0 0 0 1 0.9750988579812069 -1.337270921215856e-7 0.22177064089668935 3.6777288913726807 -5.507815446011395e-9 -0.999999999999833 -5.787800722909052e-7 0.000004999999873689376 0.2217706408967296 5.631463157517393e-7 -0.9750988579810447 5.891358852386475 0 0 0 1 0.9750988579812069 -1.337270921215856e-7 0.22177064089668935 3.6777288913726807 -5.507815446011395e-9 -0.999999999999833 -5.787800722909052e-7 0.000004999999873689376 0.2217706408967296 5.631463157517393e-7 -0.9750988579810447 5.891358852386475 0 0 0 1 0.9750988579812069 -1.337270921215856e-7 0.22177064089668935 3.6777288913726807 -5.507815446011395e-9 -0.999999999999833 -5.787800722909052e-7 0.000004999999873689376 0.2217706408967296 5.631463157517393e-7 -0.9750988579810447 5.891358852386475 0 0 0 1 0.8924841921072877 -5.359480810957736e-7 0.4510786703428956 3.6777288913726807 3.99656182436719e-7 -0.9999999999979623 -0.0000019788896369647603 0.000004999999873689376 0.45107867034303695 0.000001946404098283851 -0.8924841921052549 5.891358852386475 0 0 0 1 0.8924841921072877 -5.359480810957736e-7 0.4510786703428956 3.6777288913726807 3.99656182436719e-7 -0.9999999999979623 -0.0000019788896369647603 0.000004999999873689376 0.45107867034303695 0.000001946404098283851 -0.8924841921052549 5.891358852386475 0 0 0 1 0.8924841921072877 -5.359480810957736e-7 0.4510786703428956 3.6777288913726807 3.99656182436719e-7 -0.9999999999979623 -0.0000019788896369647603 0.000004999999873689376 0.45107867034303695 0.000001946404098283851 -0.8924841921052549 5.891358852386475 0 0 0 1 0.8924841921072877 -5.359480810957736e-7 0.4510786703428956 3.6777288913726807 3.99656182436719e-7 -0.9999999999979623 -0.0000019788896369647603 0.000004999999873689376 0.45107867034303695 0.000001946404098283851 -0.8924841921052549 5.891358852386475 0 0 0 1 0.8924841921072877 -5.359480810957736e-7 0.4510786703428956 3.6777288913726807 3.99656182436719e-7 -0.9999999999979623 -0.0000019788896369647603 0.000004999999873689376 0.45107867034303695 0.000001946404098283851 -0.8924841921052549 5.891358852386475 0 0 0 1 0.8924841921072877 -5.359480810957736e-7 0.4510786703428956 3.6777288913726807 3.99656182436719e-7 -0.9999999999979623 -0.0000019788896369647603 0.000004999999873689376 0.45107867034303695 0.000001946404098283851 -0.8924841921052549 5.891358852386475 0 0 0 1 0.8924841921072877 -5.359480810957736e-7 0.4510786703428956 3.6777288913726807 3.99656182436719e-7 -0.9999999999979623 -0.0000019788896369647603 0.000004999999873689376 0.45107867034303695 0.000001946404098283851 -0.8924841921052549 5.891358852386475 0 0 0 1 0.8924841921072877 -5.359480810957736e-7 0.4510786703428956 3.6777288913726807 3.99656182436719e-7 -0.9999999999979623 -0.0000019788896369647603 0.000004999999873689376 0.45107867034303695 0.000001946404098283851 -0.8924841921052549 5.891358852386475 0 0 0 1 0.8924841921072877 -5.359480810957736e-7 0.4510786703428956 3.6777288913726807 3.99656182436719e-7 -0.9999999999979623 -0.0000019788896369647603 0.000004999999873689376 0.45107867034303695 0.000001946404098283851 -0.8924841921052549 5.891358852386475 0 0 0 1 0.8924841921072877 -5.359480810957736e-7 0.4510786703428956 3.6777288913726807 3.99656182436719e-7 -0.9999999999979623 -0.0000019788896369647603 0.000004999999873689376 0.45107867034303695 0.000001946404098283851 -0.8924841921052549 5.891358852386475 0 0 0 1 0.7453240742961409 -3.1786349792279093e-7 0.6667023505842017 3.6777288913726807 1.8697792756146174e-7 -0.9999999999997475 -6.857972651448193e-7 0.000004999999873689376 0.6667023505842512 6.357998356114767e-7 -0.7453240742958933 5.891358852386475 0 0 0 1 0.7453240742961409 -3.1786349792279093e-7 0.6667023505842017 3.6777288913726807 1.8697792756146174e-7 -0.9999999999997475 -6.857972651448193e-7 0.000004999999873689376 0.6667023505842512 6.357998356114767e-7 -0.7453240742958933 5.891358852386475 0 0 0 1 0.7453240742961409 -3.1786349792279093e-7 0.6667023505842017 3.6777288913726807 1.8697792756146174e-7 -0.9999999999997475 -6.857972651448193e-7 0.000004999999873689376 0.6667023505842512 6.357998356114767e-7 -0.7453240742958933 5.891358852386475 0 0 0 1 0.7453240742961409 -3.1786349792279093e-7 0.6667023505842017 3.6777288913726807 1.8697792756146174e-7 -0.9999999999997475 -6.857972651448193e-7 0.000004999999873689376 0.6667023505842512 6.357998356114767e-7 -0.7453240742958933 5.891358852386475 0 0 0 1 0.7453240742961409 -3.1786349792279093e-7 0.6667023505842017 3.6777288913726807 1.8697792756146174e-7 -0.9999999999997475 -6.857972651448193e-7 0.000004999999873689376 0.6667023505842512 6.357998356114767e-7 -0.7453240742958933 5.891358852386475 0 0 0 1 0.7453240742961409 -3.1786349792279093e-7 0.6667023505842017 3.6777288913726807 1.8697792756146174e-7 -0.9999999999997475 -6.857972651448193e-7 0.000004999999873689376 0.6667023505842512 6.357998356114767e-7 -0.7453240742958933 5.891358852386475 0 0 0 1 0.7453240742961409 -3.1786349792279093e-7 0.6667023505842017 3.6777288913726807 1.8697792756146174e-7 -0.9999999999997475 -6.857972651448193e-7 0.000004999999873689376 0.6667023505842512 6.357998356114767e-7 -0.7453240742958933 5.891358852386475 0 0 0 1 0.7453240742961409 -3.1786349792279093e-7 0.6667023505842017 3.6777288913726807 1.8697792756146174e-7 -0.9999999999997475 -6.857972651448193e-7 0.000004999999873689376 0.6667023505842512 6.357998356114767e-7 -0.7453240742958933 5.891358852386475 0 0 0 1 0.7453240742961409 -3.1786349792279093e-7 0.6667023505842017 3.6777288913726807 1.8697792756146174e-7 -0.9999999999997475 -6.857972651448193e-7 0.000004999999873689376 0.6667023505842512 6.357998356114767e-7 -0.7453240742958933 5.891358852386475 0 0 0 1 0.7453240742961409 -3.1786349792279093e-7 0.6667023505842017 3.6777288913726807 1.8697792756146174e-7 -0.9999999999997475 -6.857972651448193e-7 0.000004999999873689376 0.6667023505842512 6.357998356114767e-7 -0.7453240742958933 5.891358852386475 0 0 0 1 0.9750988579812069 -1.337270921215856e-7 0.22177064089668935 3.6777288913726807 -5.507815446011395e-9 -0.999999999999833 -5.787800722909052e-7 0.000004999999873689376 0.2217706408967296 5.631463157517393e-7 -0.9750988579810447 5.891358852386475 0 0 0 1 0.9750988579812069 -1.337270921215856e-7 0.22177064089668935 3.6777288913726807 -5.507815446011395e-9 -0.999999999999833 -5.787800722909052e-7 0.000004999999873689376 0.2217706408967296 5.631463157517393e-7 -0.9750988579810447 5.891358852386475 0 0 0 1 0.9750988579812069 -1.337270921215856e-7 0.22177064089668935 3.6777288913726807 -5.507815446011395e-9 -0.999999999999833 -5.787800722909052e-7 0.000004999999873689376 0.2217706408967296 5.631463157517393e-7 -0.9750988579810447 5.891358852386475 0 0 0 1 0.9750988579812069 -1.337270921215856e-7 0.22177064089668935 3.6777288913726807 -5.507815446011395e-9 -0.999999999999833 -5.787800722909052e-7 0.000004999999873689376 0.2217706408967296 5.631463157517393e-7 -0.9750988579810447 5.891358852386475 0 0 0 1 0.9750988579812069 -1.337270921215856e-7 0.22177064089668935 3.6777288913726807 -5.507815446011395e-9 -0.999999999999833 -5.787800722909052e-7 0.000004999999873689376 0.2217706408967296 5.631463157517393e-7 -0.9750988579810447 5.891358852386475 0 0 0 1 0.9750988579812069 -1.337270921215856e-7 0.22177064089668935 3.6777288913726807 -5.507815446011395e-9 -0.999999999999833 -5.787800722909052e-7 0.000004999999873689376 0.2217706408967296 5.631463157517393e-7 -0.9750988579810447 5.891358852386475 0 0 0 1 0.9750988579812069 -1.337270921215856e-7 0.22177064089668935 3.6777288913726807 -5.507815446011395e-9 -0.999999999999833 -5.787800722909052e-7 0.000004999999873689376 0.2217706408967296 5.631463157517393e-7 -0.9750988579810447 5.891358852386475 0 0 0 1 0.9750988579812069 -1.337270921215856e-7 0.22177064089668935 3.6777288913726807 -5.507815446011395e-9 -0.999999999999833 -5.787800722909052e-7 0.000004999999873689376 0.2217706408967296 5.631463157517393e-7 -0.9750988579810447 5.891358852386475 0 0 0 1 0.9750988579812069 -1.337270921215856e-7 0.22177064089668935 3.6777288913726807 -5.507815446011395e-9 -0.999999999999833 -5.787800722909052e-7 0.000004999999873689376 0.2217706408967296 5.631463157517393e-7 -0.9750988579810447 5.891358852386475 0 0 0 1 0.9750988579812069 -1.337270921215856e-7 0.22177064089668935 3.6777288913726807 -5.507815446011395e-9 -0.999999999999833 -5.787800722909052e-7 0.000004999999873689376 0.2217706408967296 5.631463157517393e-7 -0.9750988579810447 5.891358852386475 0 0 0 1 0.8924841921072877 -5.359480810957736e-7 0.4510786703428956 3.6777288913726807 3.99656182436719e-7 -0.9999999999979623 -0.0000019788896369647603 0.000004999999873689376 0.45107867034303695 0.000001946404098283851 -0.8924841921052549 5.891358852386475 0 0 0 1 0.8924841921072877 -5.359480810957736e-7 0.4510786703428956 3.6777288913726807 3.99656182436719e-7 -0.9999999999979623 -0.0000019788896369647603 0.000004999999873689376 0.45107867034303695 0.000001946404098283851 -0.8924841921052549 5.891358852386475 0 0 0 1 0.8924841921072877 -5.359480810957736e-7 0.4510786703428956 3.6777288913726807 3.99656182436719e-7 -0.9999999999979623 -0.0000019788896369647603 0.000004999999873689376 0.45107867034303695 0.000001946404098283851 -0.8924841921052549 5.891358852386475 0 0 0 1 0.8924841921072877 -5.359480810957736e-7 0.4510786703428956 3.6777288913726807 3.99656182436719e-7 -0.9999999999979623 -0.0000019788896369647603 0.000004999999873689376 0.45107867034303695 0.000001946404098283851 -0.8924841921052549 5.891358852386475 0 0 0 1 0.8924841921072877 -5.359480810957736e-7 0.4510786703428956 3.6777288913726807 3.99656182436719e-7 -0.9999999999979623 -0.0000019788896369647603 0.000004999999873689376 0.45107867034303695 0.000001946404098283851 -0.8924841921052549 5.891358852386475 0 0 0 1 0.8924841921072877 -5.359480810957736e-7 0.4510786703428956 3.6777288913726807 3.99656182436719e-7 -0.9999999999979623 -0.0000019788896369647603 0.000004999999873689376 0.45107867034303695 0.000001946404098283851 -0.8924841921052549 5.891358852386475 0 0 0 1 0.8924841921072877 -5.359480810957736e-7 0.4510786703428956 3.6777288913726807 3.99656182436719e-7 -0.9999999999979623 -0.0000019788896369647603 0.000004999999873689376 0.45107867034303695 0.000001946404098283851 -0.8924841921052549 5.891358852386475 0 0 0 1 0.8924841921072877 -5.359480810957736e-7 0.4510786703428956 3.6777288913726807 3.99656182436719e-7 -0.9999999999979623 -0.0000019788896369647603 0.000004999999873689376 0.45107867034303695 0.000001946404098283851 -0.8924841921052549 5.891358852386475 0 0 0 1 0.8924841921072877 -5.359480810957736e-7 0.4510786703428956 3.6777288913726807 3.99656182436719e-7 -0.9999999999979623 -0.0000019788896369647603 0.000004999999873689376 0.45107867034303695 0.000001946404098283851 -0.8924841921052549 5.891358852386475 0 0 0 1 0.8924841921072877 -5.359480810957736e-7 0.4510786703428956 3.6777288913726807 3.99656182436719e-7 -0.9999999999979623 -0.0000019788896369647603 0.000004999999873689376 0.45107867034303695 0.000001946404098283851 -0.8924841921052549 5.891358852386475 0 0 0 1 0.9750988579812069 -1.337270921215856e-7 0.22177064089668935 3.6777288913726807 -5.507815446011395e-9 -0.999999999999833 -5.787800722909052e-7 0.000004999999873689376 0.2217706408967296 5.631463157517393e-7 -0.9750988579810447 5.891358852386475 0 0 0 1 0.9750988579812069 -1.337270921215856e-7 0.22177064089668935 3.6777288913726807 -5.507815446011395e-9 -0.999999999999833 -5.787800722909052e-7 0.000004999999873689376 0.2217706408967296 5.631463157517393e-7 -0.9750988579810447 5.891358852386475 0 0 0 1 0.9750988579812069 -1.337270921215856e-7 0.22177064089668935 3.6777288913726807 -5.507815446011395e-9 -0.999999999999833 -5.787800722909052e-7 0.000004999999873689376 0.2217706408967296 5.631463157517393e-7 -0.9750988579810447 5.891358852386475 0 0 0 1 0.9750988579812069 -1.337270921215856e-7 0.22177064089668935 3.6777288913726807 -5.507815446011395e-9 -0.999999999999833 -5.787800722909052e-7 0.000004999999873689376 0.2217706408967296 5.631463157517393e-7 -0.9750988579810447 5.891358852386475 0 0 0 1 0.9750988579812069 -1.337270921215856e-7 0.22177064089668935 3.6777288913726807 -5.507815446011395e-9 -0.999999999999833 -5.787800722909052e-7 0.000004999999873689376 0.2217706408967296 5.631463157517393e-7 -0.9750988579810447 5.891358852386475 0 0 0 1 0.9750988579812069 -1.337270921215856e-7 0.22177064089668935 3.6777288913726807 -5.507815446011395e-9 -0.999999999999833 -5.787800722909052e-7 0.000004999999873689376 0.2217706408967296 5.631463157517393e-7 -0.9750988579810447 5.891358852386475 0 0 0 1 0.9750988579812069 -1.337270921215856e-7 0.22177064089668935 3.6777288913726807 -5.507815446011395e-9 -0.999999999999833 -5.787800722909052e-7 0.000004999999873689376 0.2217706408967296 5.631463157517393e-7 -0.9750988579810447 5.891358852386475 0 0 0 1 0.9750988579812069 -1.337270921215856e-7 0.22177064089668935 3.6777288913726807 -5.507815446011395e-9 -0.999999999999833 -5.787800722909052e-7 0.000004999999873689376 0.2217706408967296 5.631463157517393e-7 -0.9750988579810447 5.891358852386475 0 0 0 1 0.9750988579812069 -1.337270921215856e-7 0.22177064089668935 3.6777288913726807 -5.507815446011395e-9 -0.999999999999833 -5.787800722909052e-7 0.000004999999873689376 0.2217706408967296 5.631463157517393e-7 -0.9750988579810447 5.891358852386475 0 0 0 1 0.9750988579812069 -1.337270921215856e-7 0.22177064089668935 3.6777288913726807 -5.507815446011395e-9 -0.999999999999833 -5.787800722909052e-7 0.000004999999873689376 0.2217706408967296 5.631463157517393e-7 -0.9750988579810447 5.891358852386475 0 0 0 1 0.9750988579812069 -1.337270921215856e-7 0.22177064089668935 3.6777288913726807 -5.507815446011395e-9 -0.999999999999833 -5.787800722909052e-7 0.000004999999873689376 0.2217706408967296 5.631463157517393e-7 -0.9750988579810447 5.891358852386475 0 0 0 1 0.9750988579812069 -1.337270921215856e-7 0.22177064089668935 3.6777288913726807 -5.507815446011395e-9 -0.999999999999833 -5.787800722909052e-7 0.000004999999873689376 0.2217706408967296 5.631463157517393e-7 -0.9750988579810447 5.891358852386475 0 0 0 1 0.9750988579812069 -1.337270921215856e-7 0.22177064089668935 3.6777288913726807 -5.507815446011395e-9 -0.999999999999833 -5.787800722909052e-7 0.000004999999873689376 0.2217706408967296 5.631463157517393e-7 -0.9750988579810447 5.891358852386475 0 0 0 1 0.9750988579812069 -1.337270921215856e-7 0.22177064089668935 3.6777288913726807 -5.507815446011395e-9 -0.999999999999833 -5.787800722909052e-7 0.000004999999873689376 0.2217706408967296 5.631463157517393e-7 -0.9750988579810447 5.891358852386475 0 0 0 1 0.9750988579812069 -1.337270921215856e-7 0.22177064089668935 3.6777288913726807 -5.507815446011395e-9 -0.999999999999833 -5.787800722909052e-7 0.000004999999873689376 0.2217706408967296 5.631463157517393e-7 -0.9750988579810447 5.891358852386475 0 0 0 1 0.9750988579812069 -1.337270921215856e-7 0.22177064089668935 3.6777288913726807 -5.507815446011395e-9 -0.999999999999833 -5.787800722909052e-7 0.000004999999873689376 0.2217706408967296 5.631463157517393e-7 -0.9750988579810447 5.891358852386475 0 0 0 1 0.9750988579812069 -1.337270921215856e-7 0.22177064089668935 3.6777288913726807 -5.507815446011395e-9 -0.999999999999833 -5.787800722909052e-7 0.000004999999873689376 0.2217706408967296 5.631463157517393e-7 -0.9750988579810447 5.891358852386475 0 0 0 1 0.9750988579812069 -1.337270921215856e-7 0.22177064089668935 3.6777288913726807 -5.507815446011395e-9 -0.999999999999833 -5.787800722909052e-7 0.000004999999873689376 0.2217706408967296 5.631463157517393e-7 -0.9750988579810447 5.891358852386475 0 0 0 1 0.9750988579812069 -1.337270921215856e-7 0.22177064089668935 3.6777288913726807 -5.507815446011395e-9 -0.999999999999833 -5.787800722909052e-7 0.000004999999873689376 0.2217706408967296 5.631463157517393e-7 -0.9750988579810447 5.891358852386475 0 0 0 1 0.9750988579812069 -1.337270921215856e-7 0.22177064089668935 3.6777288913726807 -5.507815446011395e-9 -0.999999999999833 -5.787800722909052e-7 0.000004999999873689376 0.2217706408967296 5.631463157517393e-7 -0.9750988579810447 5.891358852386475 0 0 0 1 0.9750988579812069 -1.337270921215856e-7 0.22177064089668935 3.6777288913726807 -5.507815446011395e-9 -0.999999999999833 -5.787800722909052e-7 0.000004999999873689376 0.2217706408967296 5.631463157517393e-7 -0.9750988579810447 5.891358852386475 0 0 0 1</float_array>
				<technique_common>
					<accessor source="#anim_Jaw_transform_output_array" count="71" stride="16">
						<param name="TRANSFORM" type="float4x4"/>
					</accessor>
				</technique_common>
			</source>
			<source id="anim_Jaw_transform_interpolation">
				<Name_array id="anim_Jaw_transform_interpolation_array" count="71">LINEAR LINEAR LINEAR LINEAR LINEAR LINEAR LINEAR LINEAR LINEAR LINEAR LINEAR LINEAR LINEAR LINEAR LINEAR LINEAR LINEAR LINEAR LINEAR LINEAR LINEAR LINEAR LINEAR LINEAR LINEAR LINEAR LINEAR LINEAR LINEAR LINEAR LINEAR LINEAR LINEAR LINEAR LINEAR LINEAR LINEAR LINEAR LINEAR LINEAR LINEAR LINEAR LINEAR LINEAR LINEAR LINEAR LINEAR LINEAR LINEAR LINEAR LINEAR LINEAR LINEAR LINEAR LINEAR LINEAR LINEAR LINEAR LINEAR LINEAR LINEAR LINEAR LINEAR LINEAR LINEAR LINEAR LINEAR LINEAR LINEAR LINEAR LINEAR</Name_array>
				<technique_common>
					<accessor source="#anim_Jaw_transform_interpolation_array" count="71" stride="1">
						<param name="INTERPOLATION" type="Name"/>
					</accessor>
				</technique_common>
			</source>
			<sampler id="anim_Jaw_transform_sampler">
				<input semantic="INPUT" source="#anim_Jaw_transform_input"/>
				<input semantic="OUTPUT" source="#anim_Jaw_transform_output"/>
				<input semantic="INTERPOLATION" source="#anim_Jaw_transform_interpolation"/>
			</sampler>
			<channel source="#anim_Jaw_transform_sampler" target="Jaw_bone_id/transform"/>
		</animation>
	</library_animations>
</COLLADA>