<?xml version="1.0" encoding="utf-8"?>
<COLLADA xmlns:xsi="http://www.w3.org/2001/XMLSchema-instance" xmlns:xsd="http://www.w3.org/2001/XMLSchema" version="1.4.1" xmlns="http://www.collada.org/2005/11/COLLADASchema">
  <asset>
    <created>2026-02-17T05:46:53.1428817-05:00</created>
    <modified>2026-02-17T05:46:53.1428825-05:00</modified>
    <up_axis>Y_UP</up_axis>
  </asset>
  <library_animations>
    <animation id="Motion_1_Waist_transform_id" name="Motion_1_Waist_transform">
      <source id="Motion_1_Waist_transform_frame_id" name="Motion_1_Waist_transform_frame">
        <float_array id="Motion_1_Waist_transform_frame_array_id" count="61">0 0.033333335 0.06666667 0.1 0.13333334 0.16666667 0.2 0.23333333 0.26666668 0.3 0.33333334 0.36666667 0.4 0.43333334 0.46666667 0.5 0.53333336 0.56666666 0.6 0.6333333 0.6666667 0.7 0.73333335 0.76666665 0.8 0.8333333 0.8666667 0.9 0.93333334 0.96666664 1 1.0333333 1.0666667 1.1 1.1333333 1.1666666 1.2 1.2333333 1.2666667 1.3 1.3333334 1.3666667 1.4 1.4333333 1.4666667 1.5 1.5333333 1.5666667 1.6 1.6333333 1.6666666 1.7 1.7333333 1.7666667 1.8 1.8333334 1.8666667 1.9 1.9333333 1.9666667 2</float_array>
        <technique_common>
          <accessor source="#Motion_1_Waist_transform_frame_array_id" count="61" stride="1">
            <param name="TIME" type="float" />
          </accessor>
        </technique_common>
      </source>
      <source id="Motion_1_Waist_transform_interp_id" name="Motion_1_Waist_transform_interp">
        <Name_array id="Motion_1_Waist_transform_interp_array_id" count="61">LINEAR LINEAR LINEAR LINEAR LINEAR LINEAR LINEAR LINEAR LINEAR LINEAR LINEAR LINEAR LINEAR LINEAR LINEAR LINEAR LINEAR LINEAR LINEAR LINEAR LINEAR LINEAR LINEAR LINEAR LINEAR LINEAR LINEAR LINEAR LINEAR LINEAR LINEAR LINEAR LINEAR LINEAR LINEAR LINEAR LINEAR LINEAR LINEAR LINEAR LINEAR LINEAR LINEAR LINEAR LINEAR LINEAR LINEAR LINEAR LINEAR LINEAR LINEAR LINEAR LINEAR LINEAR LINEAR LINEAR LINEAR LINEAR LINEAR LINEAR LINEAR</Name_array>
        <technique_common>
          <accessor source="#Motion_1_Waist_transform_interp_array_id" count="61" stride="1">
            <param name="INTERPOLATION" type="Name" />
          </accessor>
        </technique_common>
      </source>
      <source id="Motion_1_Waist_transform_pose_id" name="Motion_1_Waist_transform_pose">
        <float_array id="Motion_1_Waist_transform_pose_array_id" count="976">-0.0067156553 -0.99997604 0.0016573891 0 0.98402655 -0.0069032907 -0.17788747 70 0.17789465 0.0004362762 0.98404944 0.26602483 0 0 0 1 -0.0046379566 -0.99998593 0.0026073381 -0.037691306 0.9841473 -0.005026698 -0.17728192 70.0201 0.17729253 0.0017437935 0.98415667 0.3292921 0 0 0 1 -0.0025527477 -0.99999046 0.0035399422 -0.07271145 0.98432827 -0.0031369925 -0.17631817 70.05072 0.17632759 0.0030343756 0.98432684 0.39103517 0 0 0 1 -0.0004813671 -0.99999 0.004449159 -0.10506811 0.98456705 -0.0012526512 -0.17500341 70.091675 0.17500724 0.0042962506 0.98455775 0.45063338 0 0 0 1 0.0015544295 -0.99998456 0.005328849 -0.13476901 0.98486096 0.0006071329 -0.17334484 70.142845 0.17333893 0.005517617 0.9848468 0.50746596 0 0 0 1 0.0035333037 -0.99997467 0.0061726943 -0.16182178 0.98520726 0.0024234653 -0.1713494 70.20406 0.17133012 0.006686799 0.985191 0.56091213 0 0 0 1 0.0054336786 -0.99996096 0.0069742203 -0.18623416 0.98560315 0.004176855 -0.16902414 70.275185 0.1689884 0.007792257 0.98558724 0.6103514 0 0 0 1 0.0072345734 -0.99994403 0.007726699 -0.2080138 0.98604506 0.0058484077 -0.16637594 70.356064 0.16632143 0.008822538 0.9860321 0.6551628 0 0 0 1 0.008913994 -0.9999248 0.008423239 -0.22716843 0.98653007 0.0074180365 -0.16341172 70.446556 0.16333695 0.009766445 0.986522 0.6947258 0 0 0 1 0.010451078 -0.9999044 0.0090565905 -0.24370569 0.9870547 0.00886631 -0.16013846 70.5465 0.16004285 0.010612965 0.98705304 0.72841954 0 0 0 1 0.011820257 -0.999884 0.009597264 -0.2576333 0.9876071 0.01017189 -0.15661561 70.65407 0.15649983 0.011329547 0.987613 0.75562346 0 0 0 1 0.012997031 -0.9998653 0.010023564 -0.268959 0.9881736 0.0113120675 -0.15292156 70.766815 0.15278758 0.01189255 0.9881875 0.7757167 0 0 0 1 0.0139609575 -0.99984914 0.010339722 -0.2776904 0.9887474 0.0122641325 -0.14909163 70.883675 0.1489423 0.01230485 0.98876935 0.7880786 0 0 0 1 0.014691651 -0.9998364 0.010549612 -0.2838352 0.9893225 0.013005555 -0.14516135 71.0036 0.1450004 0.012569636 0.98935175 0.7920884 0 0 0 1 0.0151690245 -0.9998281 0.010656789 -0.28740108 0.98989356 0.013513684 -0.1411666 71.125534 0.14099833 0.012690447 0.9899285 0.78712547 0 0 0 1 0.015372336 -0.99982506 0.0106646195 -0.28839582 0.9904557 0.013765395 -0.13714345 71.248405 0.13697264 0.012671065 0.9904938 0.77256906 0 0 0 1 0.015282333 -0.9998272 0.010576259 -0.28682697 0.9910036 0.013739228 -0.1331281 71.37116 0.1329598 0.012515608 0.9910424 0.74917537 0 0 0 1 0.014878631 -0.9998353 0.010394722 -0.28270236 0.99153346 0.013412297 -0.12915713 71.49274 0.12899643 0.012228392 0.99156964 0.71853644 0 0 0 1 0.014141679 -0.99984884 0.010122899 -0.27602953 0.992041 0.012763023 -0.12526713 71.61208 0.125119 0.011813831 0.9920714 0.68128544 0 0 0 1 0.013129532 -0.9998662 0.009759132 -0.2668163 0.9925211 0.011847258 -0.12149669 71.72813 0.12136482 0.011281341 0.9925439 0.63805544 0 0 0 1 0.011924326 -0.9998857 0.00930088 -0.25507027 0.99296916 0.010745287 -0.11788474 71.83982 0.11777132 0.010641187 0.9929837 0.5894794 0 0 0 1 0.010543823 -0.9999061 0.008750074 -0.24079925 0.9933817 0.009473324 -0.11446875 71.94612 0.11437512 0.009899106 0.9933883 0.53619045 0 0 0 1 0.009006083 -0.9999265 0.0081089325 -0.22401077 0.99375576 0.008047998 -0.11128621 72.04593 0.111212775 0.009060543 0.99375534 0.47882172 0 0 0 1 0.007327497 -0.999946 0.0073800646 -0.20471261 0.994089 0.006484747 -0.10837453 72.138214 0.1083208 0.008130565 0.99408275 0.41800624 0 0 0 1 0.005526483 -0.99996316 0.0065664053 -0.18291247 0.9943789 0.004801035 -0.105771005 72.22192 0.105735585 0.0071140304 0.99436885 0.3543771 0 0 0 1 0.0036199093 -0.99997735 0.005671166 -0.158618 0.99462354 0.0030134916 -0.103512906 72.29597 0.103493474 0.0060153827 0.9946119 0.28856725 0 0 0 1 0.0016254187 -0.99998754 0.0046979524 -0.13183688 0.9948208 0.0011395216 -0.101637326 72.35931 0.10163072 0.004838817 0.9948104 0.22121003 0 0 0 1 -0.00044178963 -0.9999933 0.0036381744 -0.10257688 0.9949677 -0.00080406666 -0.1001938 72.4109 0.10019605 0.0035756081 0.99496126 0.1529382 0 0 0 1 -0.0025638342 -0.99999356 0.00250474 -0.07084556 0.9950625 -0.0027996302 -0.099210486 72.44965 0.09921686 0.0022380166 0.9950633 0.084385075 0 0 0 1 -0.0047215223 -0.99998796 0.0013338402 -0.03665075 0.9951062 -0.004830122 -0.09869222 72.47452 0.098697476 0.0008613281 0.9951171 0.016183741 0 0 0 1 -0.006897211 -0.99997634 0.0001617819 0 0.9950991 -0.006879449 -0.098643646 72.48445 0.09864242 -0.00051936135 0.9951228 -0.051032968 0 0 0 1 -0.009071469 -0.99995846 -0.0009751804 0.03665291 0.9950406 -0.008930206 -0.099069044 72.47838 0.099056214 -0.001869034 0.9950801 -0.116631776 0 0 0 1 -0.011226416 -0.99993485 -0.0020407885 0.070854045 0.99492973 -0.010966182 -0.09997249 72.456276 0.0999436 -0.0031527765 0.9949881 -0.17997973 0 0 0 1 -0.013344526 -0.9999065 -0.0030241758 0.10259524 0.9947681 -0.012969494 -0.10133298 72.41957 0.10128427 -0.0043605976 0.99484795 -0.24044362 0 0 0 1 -0.015408158 -0.9998736 -0.0039388128 0.13186839 0.9945585 -0.0149201155 -0.10310574 72.36938 0.10303393 -0.0055060387 0.9946626 -0.2973904 0 0 0 1 -0.01739955 -0.9998371 -0.0047851577 0.1586653 0.9943028 -0.01679945 -0.10525913 72.30682 0.1051616 -0.006589368 0.99443334 -0.35018706 0 0 0 1 -0.019301891 -0.9997982 -0.0055639707 0.18297787 0.99400294 -0.018590331 -0.10776149 72.233025 0.10763632 -0.0076106004 0.9941612 -0.3982006 0 0 0 1 -0.021096706 -0.99975777 -0.0062763095 0.20479794 0.99366033 -0.020273805 -0.11058125 72.1491 0.110427216 -0.008569412 0.99384725 -0.4408034 0 0 0 1 -0.022766232 -0.9997168 -0.0069235787 0.22411737 0.99327666 -0.021832228 -0.11368686 72.05617 0.113503516 -0.009465251 0.9934925 -0.4775986 0 0 0 1 -0.024290562 -0.999677 -0.007483177 0.24092798 0.99285716 -0.02324891 -0.11702216 71.955345 0.116810374 -0.0102722645 0.9931011 -0.5082988 0 0 0 1 -0.025648475 -0.99963963 -0.007932588 0.25522166 0.9924072 -0.02450645 -0.12053054 71.84777 0.12029269 -0.010963775 0.9926779 -0.53261673 0 0 0 1 -0.026821256 -0.99960595 -0.008273613 0.2669903 0.9919297 -0.02558744 -0.12418013 71.73454 0.1239195 -0.011537515 0.99222517 -0.55026513 0 0 0 1 -0.027790308 -0.99957764 -0.008508429 0.27622575 0.9914286 -0.026474714 -0.12793925 71.61678 0.12765996 -0.011990957 0.99174553 -0.56095654 0 0 0 1 -0.02853632 -0.99955547 -0.00863941 0.28291982 0.99090767 -0.027150512 -0.1317764 71.495636 0.13148326 -0.012321252 0.9912418 -0.5644038 0 0 0 1 -0.029040098 -0.9995407 -0.008669205 0.2870643 0.990371 -0.02759707 -0.13566017 71.37219 0.1353586 -0.012525316 0.9907175 -0.5603195 0 0 0 1 -0.029243708 -0.99953526 -0.008603446 0.28865126 0.9898245 -0.02775836 -0.13956007 71.24758 0.13925639 -0.012597159 0.9901762 -0.5484164 0 0 0 1 -0.029118896 -0.9995404 -0.008446045 0.28767234 0.98927325 -0.02760768 -0.1434453 71.12294 0.14314619 -0.012532398 0.98962224 -0.5284071 0 0 0 1 -0.028689265 -0.9995548 -0.008197114 0.28411958 0.98872095 -0.02717042 -0.14728445 70.99936 0.14699616 -0.012330137 0.9890602 -0.5000043 0 0 0 1 -0.027980566 -0.9995777 -0.007856466 0.27798468 0.98817223 -0.026474118 -0.15104625 70.877975 0.15077445 -0.011989884 0.98849547 -0.46292078 0 0 0 1 -0.02701652 -0.9996074 -0.007423602 0.26925957 0.98763126 -0.025543928 -0.15469941 70.75992 0.15444905 -0.011511236 0.9879337 -0.41867122 0 0 0 1 -0.025822043 -0.9996427 -0.0068977773 0.25793606 0.98710334 -0.024406433 -0.15821274 70.646286 0.15798786 -0.010894179 0.987381 -0.36937198 0 0 0 1 -0.024420857 -0.99968207 -0.006277822 0.24400614 0.9865936 -0.023086548 -0.161555 70.538216 0.16135871 -0.010138974 0.98684376 -0.31563818 0 0 0 1 -0.022838831 -0.99972355 -0.0055879056 0.22746147 0.986112 -0.021607399 -0.16467017 70.43681 0.16450392 -0.009271167 0.98633283 -0.25808498 0 0 0 1 -0.02110076 -0.9997656 -0.004848823 0.2082941 0.9856685 -0.019990802 -0.16750506 70.34321 0.16736886 -0.00831382 0.9858593 -0.1973275 0 0 0 1 -0.019230843 -0.99980676 -0.0040537044 0.18649574 0.98526907 -0.01826179 -0.17003268 70.25852 0.16992581 -0.0072638616 0.98543006 -0.1339808 0 0 0 1 -0.017253518 -0.9998461 -0.0031921715 0.16205834 0.98492074 -0.016446114 -0.17222287 70.18387 0.17214386 -0.0061154813 0.9850528 -0.0686601 0 0 0 1 -0.015194654 -0.999882 -0.002270721 0.13497366 0.98462677 -0.014567494 -0.17406264 70.12038 0.17400903 -0.0048806444 0.984732 -0.0019804314 0 0 0 1 -0.0130831 -0.9999136 -0.001307264 0.105233684 0.98438907 -0.01265049 -0.17555068 70.06915 0.17551897 -0.0035835952 0.98446953 0.06544294 0 0 0 1 -0.010946989 -0.99994016 -0.0003196299 0.07283013 0.9842092 -0.010718226 -0.17668542 70.03133 0.17667139 -0.0022487268 0.98426735 0.1329951 0 0 0 1 -0.0088146925 -0.99996084 0.0006744787 0.037755 0.98408777 -0.008794546 -0.17746499 70.00802 0.17746398 -0.0009005591 0.98412687 0.20006078 0 0 0 1 -0.0088146925 -0.99996084 0.0006744787 0.037755 0.98408777 -0.008794546 -0.17746499 70.00802 0.17746398 -0.0009005591 0.98412687 0.20006078 0 0 0 1</float_array>
        <technique_common>
          <accessor source="#Motion_1_Waist_transform_pose_array_id" count="61" stride="16">
            <param name="TRANSFORM" type="float4x4" />
          </accessor>
        </technique_common>
      </source>
      <sampler id="Motion_1_Waist_transform_samp_id">
        <input semantic="INPUT" source="#Motion_1_Waist_transform_frame_id" />
        <input semantic="INTERPOLATION" source="#Motion_1_Waist_transform_interp_id" />
        <input semantic="OUTPUT" source="#Motion_1_Waist_transform_pose_id" />
      </sampler>
      <channel source="#Motion_1_Waist_transform_samp_id" target="Waist_bone_id/transform" />
    </animation>
    <animation id="Motion_1_Head_transform_id" name="Motion_1_Head_transform">
      <source id="Motion_1_Head_transform_frame_id" name="Motion_1_Head_transform_frame">
        <float_array id="Motion_1_Head_transform_frame_array_id" count="61">0 0.033333335 0.06666667 0.1 0.13333334 0.16666667 0.2 0.23333333 0.26666668 0.3 0.33333334 0.36666667 0.4 0.43333334 0.46666667 0.5 0.53333336 0.56666666 0.6 0.6333333 0.6666667 0.7 0.73333335 0.76666665 0.8 0.8333333 0.8666667 0.9 0.93333334 0.96666664 1 1.0333333 1.0666667 1.1 1.1333333 1.1666666 1.2 1.2333333 1.2666667 1.3 1.3333334 1.3666667 1.4 1.4333333 1.4666667 1.5 1.5333333 1.5666667 1.6 1.6333333 1.6666666 1.7 1.7333333 1.7666667 1.8 1.8333334 1.8666667 1.9 1.9333333 1.9666667 2</float_array>
        <technique_common>
          <accessor source="#Motion_1_Head_transform_frame_array_id" count="61" stride="1">
            <param name="TIME" type="float" />
          </accessor>
        </technique_common>
      </source>
      <source id="Motion_1_Head_transform_interp_id" name="Motion_1_Head_transform_interp">
        <Name_array id="Motion_1_Head_transform_interp_array_id" count="61">LINEAR LINEAR LINEAR LINEAR LINEAR LINEAR LINEAR LINEAR LINEAR LINEAR LINEAR LINEAR LINEAR LINEAR LINEAR LINEAR LINEAR LINEAR LINEAR LINEAR LINEAR LINEAR LINEAR LINEAR LINEAR LINEAR LINEAR LINEAR LINEAR LINEAR LINEAR LINEAR LINEAR LINEAR LINEAR LINEAR LINEAR LINEAR LINEAR LINEAR LINEAR LINEAR LINEAR LINEAR LINEAR LINEAR LINEAR LINEAR LINEAR LINEAR LINEAR LINEAR LINEAR LINEAR LINEAR LINEAR LINEAR LINEAR LINEAR LINEAR LINEAR</Name_array>
        <technique_common>
          <accessor source="#Motion_1_Head_transform_interp_array_id" count="61" stride="1">
            <param name="INTERPOLATION" type="Name" />
          </accessor>
        </technique_common>
      </source>
      <source id="Motion_1_Head_transform_pose_id" name="Motion_1_Head_transform_pose">
        <float_array id="Motion_1_Head_transform_pose_array_id" count="976">0.9998591 -0.015536872 0.0063556423 -0.11551233 0.015513931 0.99987304 0.0036429567 -0.021809617 -0.006411435 -0.0035438426 0.9999732 -0.022631168 0 0 0 1 0.9998894 -0.013888831 0.0053253667 -0.12317665 0.013872593 0.999899 0.0030743312 -0.019423265 -0.0053675277 -0.0030001146 0.9999811 -0.014157774 0 0 0 1 0.9999151 -0.012201983 0.004567288 -0.12887335 0.012190669 0.9999226 0.0024966728 -0.017119834 -0.0045973985 -0.0024407827 0.99998647 -0.0061565004 0 0 0 1 0.99993676 -0.010485432 0.0040675635 -0.13270228 0.010477717 0.99994326 0.0019132264 -0.014901086 -0.004087394 -0.0018704867 0.9999899 0.0013739988 0 0 0 1 0.99995446 -0.008748294 0.0038123725 -0.13476326 0.008743291 0.9999609 0.0013272503 -0.012768781 -0.0038238347 -0.0012938572 0.99999183 0.008435059 0 0 0 1 0.99996835 -0.006999691 0.0037879176 -0.13515611 0.0069969287 0.99997526 0.0007420267 -0.010724683 -0.003793018 -0.0007154994 0.99999255 0.01502802 0 0 0 1 0.9999783 -0.0052487603 0.003980422 -0.13398069 0.0052481615 0.99998623 0.00016087422 -0.008770555 -0.0039812117 -0.00013998084 0.9999921 0.02115424 0 0 0 1 0.99998426 -0.0035046558 0.00437613 -0.13133681 0.0035064956 0.99999374 -0.00041283912 -0.006908159 -0.004374656 0.00042817753 0.99999034 0.026815027 0 0 0 1 0.9999861 -0.0017765568 0.004961308 -0.12732431 0.0017814186 0.9999979 -0.00097568793 -0.005139254 -0.0049595647 0.0009845125 0.99998724 0.032011755 0 0 0 1 0.9999836 -7.366785E-05 0.005722249 -0.12204301 8.239086E-05 0.9999988 -0.0015241822 -0.0034656078 -0.0057221297 0.0015246287 0.9999825 0.036745742 0 0 0 1 0.99997663 0.0015947777 0.0066452604 -0.11559276 -0.0015811548 0.99999666 -0.0020547574 -0.0018889774 -0.0066485154 0.0020442023 0.9999758 0.041018356 0 0 0 1 0.9999651 0.0032195193 0.0077166725 -0.10807338 -0.0031998204 0.9999916 -0.00256377 -0.0004111305 -0.0077248616 0.0025389884 0.9999669 0.044830903 0 0 0 1 0.99994874 0.004791257 0.008922832 -0.09958471 -0.004764233 0.999984 -0.0030474951 0.0009661745 -0.00893729 0.0030048285 0.99995553 0.04818476 0 0 0 1 0.99992764 0.0063006636 0.0102501055 -0.09022656 -0.0062650573 0.99997425 -0.0035021172 0.0022411756 -0.010271908 0.0034376464 0.99994135 0.051081233 0 0 0 1 0.9999018 0.0077383816 0.011684877 -0.08009878 -0.007693 0.9999627 -0.0039237374 0.003412107 -0.011714804 0.0038334602 0.999924 0.053521704 0 0 0 1 0.9998713 0.0090950085 0.013213532 -0.06930119 -0.009038786 0.9999499 -0.004308365 0.004477212 -0.013252053 0.004188376 0.99990344 0.055507466 0 0 0 1 0.99983644 0.010361127 0.014822463 -0.057933636 -0.010293196 0.9999362 -0.00465192 0.0054347273 -0.014869716 0.004498589 0.9998793 0.057039905 0 0 0 1 0.9997987 0.0114169195 0.016498366 -0.046095937 -0.011336671 0.99992347 -0.0049493313 0.006282881 -0.016553609 0.004761298 0.99985164 0.05812033 0 0 0 1 0.9997599 0.012160363 0.018227922 -0.033887923 -0.012067512 0.9999137 -0.0051952195 0.007019922 -0.018289523 0.004974006 0.99982035 0.0587501 0 0 0 1 0.9997205 0.012608687 0.019997519 -0.021409433 -0.012503327 0.9999073 -0.0053849816 0.007644091 -0.020063564 0.0051334407 0.99978554 0.05893055 0 0 0 1 0.9996808 0.01277909 0.021793496 -0.00876029 -0.012661743 0.99990463 -0.005514024 0.008153612 -0.021861881 0.00523632 0.9997473 0.058663025 0 0 0 1 0.9996409 0.012688749 0.023602134 0.0039596483 -0.012560412 0.9999056 -0.0055777836 0.008546729 -0.023670679 0.005279328 0.99970585 0.057948865 0 0 0 1 0.99960077 0.012354819 0.025409665 0.016650617 -0.012217006 0.9999098 -0.005571754 0.008821683 -0.025476214 0.0052591 0.9996616 0.0567894 0 0 0 1 0.99956036 0.0117944395 0.027202277 0.029212687 -0.011649202 0.9999171 -0.0054914933 0.008976707 -0.02726479 0.005172194 0.9996149 0.05518599 0 0 0 1 0.9995196 0.011024745 0.028966097 0.041546106 -0.010874694 0.9999266 -0.0053326515 0.009010041 -0.029022763 0.005015092 0.9995662 0.05313997 0 0 0 1 0.9994784 0.010062853 0.030687213 0.05355102 -0.00991117 0.99993795 -0.0050909705 0.00891993 -0.03073654 0.0047841687 0.99951607 0.050652668 0 0 0 1 0.9994381 0.008925797 0.032308377 0.065127596 -0.008776428 0.9999502 -0.004762119 0.008704593 -0.032349274 0.004475891 0.9994666 0.047725443 0 0 0 1 0.9994002 0.007630665 0.033779256 0.076176 -0.0074882004 0.9999625 -0.0043420163 0.0083622895 -0.033811122 0.004086466 0.99941987 0.044359628 0 0 0 1 0.99936473 0.006195253 0.035096105 0.086596385 -0.006063497 0.9999742 -0.0038593537 0.00789124 -0.035119105 0.0036440967 0.9993765 0.040556565 0 0 0 1 0.9993318 0.004637555 0.036255244 0.096288934 -0.004519116 0.9999842 -0.003348073 0.0072896946 -0.036270197 0.003181994 0.99933696 0.036317594 0 0 0 1 0.99930143 0.0029751142 0.037253156 0.10515384 -0.002872326 0.9999919 -0.0028124016 0.0065558814 -0.037261225 0.0027034336 0.9993019 0.03164406 0 0 0 1 0.9992737 0.0012254848 0.03808633 0.11309124 -0.001140361 0.9999968 -0.0022566642 0.005688048 -0.038088974 0.0022115929 0.9992719 0.026537301 0 0 0 1 0.9992487 -0.0005937549 0.038751297 0.120001286 0.000659556 0.9999984 -0.0016852726 0.0046844175 -0.03875023 0.0017095652 0.9992475 0.020998657 0 0 0 1 0.99922657 -0.0024650174 0.0392446 0.12578422 0.0025102247 0.99999624 -0.0011027093 0.0035432447 -0.03924173 0.0012003692 0.999229 0.01502947 0 0 0 1 0.9992075 -0.004370699 0.039562814 0.13034013 0.0043944553 0.9999902 -0.00051351625 0.0022627544 -0.039560184 0.00068696635 0.999217 0.008631086 0 0 0 1 0.9991917 -0.0062931916 0.039702576 0.13356924 0.006295069 0.9999802 7.7722194E-05 0.0008411929 -0.039702278 0.00017227113 0.99921155 0.0018048398 0 0 0 1 0.9991794 -0.008214873 0.039660517 0.1353717 0.008194891 0.9999662 0.00066638825 -0.00072321016 -0.039664652 -0.0003408278 0.999213 -0.0051248996 0 0 0 1 0.99917096 -0.010118136 0.03943333 0.13564767 0.010076761 0.99994844 0.0012478549 -0.0024322066 -0.039443925 -0.0008494602 0.99922144 -0.011812576 0 0 0 1 0.9991666 -0.011985356 0.039017715 0.13429734 0.011923507 0.9999273 0.0018174961 -0.0042875716 -0.03903666 -0.0013507536 0.9992369 -0.018225065 0 0 0 1 0.9991668 -0.013798929 0.038410433 0.13122083 0.0137179615 0.9999031 0.002370703 -0.006291055 -0.038439423 -0.0018418147 0.99925923 -0.024329241 0 0 0 1 0.9991717 -0.015541251 0.03760824 0.12631835 0.01544295 0.99987656 0.0029029024 -0.008444428 -0.03764871 -0.0023197157 0.9992883 -0.030091979 0 0 0 1 0.99918175 -0.017194731 0.036607943 0.11949007 0.017081281 0.9998483 0.0034095775 -0.010749447 -0.036661014 -0.0027814773 0.9993239 -0.035480145 0 0 0 1 0.99919724 -0.018741796 0.03540635 0.111173615 0.01861575 0.99981916 0.0038862813 -0.013207881 -0.03547278 -0.0032240457 0.99936545 -0.04046063 0 0 0 1 0.99921626 -0.020164996 0.034062743 0.10192934 0.020028993 0.99979 0.004329283 -0.015648752 -0.03414289 -0.0036436475 0.99941033 -0.045000296 0 0 0 1 0.9992369 -0.021446977 0.03264396 0.09184154 0.02130355 0.9997618 0.0047352007 -0.017895339 -0.03273774 -0.0040361555 0.9994558 -0.049066022 0 0 0 1 0.9992596 -0.02257032 0.03115822 0.08099449 0.022422038 0.9997356 0.0051002535 -0.019940767 -0.031265095 -0.0043978463 0.99950147 -0.052624688 0 0 0 1 0.99928474 -0.023517638 0.029613746 0.06947245 0.023367055 0.9997122 0.005420762 -0.021778164 -0.02973271 -0.0047248984 0.9995467 -0.055643145 0 0 0 1 0.9993127 -0.02427156 0.028018754 0.05735973 0.02412117 0.99969286 0.005693147 -0.023400657 -0.02814833 -0.0050133886 0.9995912 -0.058088288 0 0 0 1 0.99934393 -0.02481475 0.026381444 0.044740584 0.02466693 0.99967825 0.005913923 -0.024801372 -0.026519708 -0.0052592936 0.99963444 -0.059926998 0 0 0 1 0.99937874 -0.025129879 0.024710014 0.031699296 0.024986861 0.9996693 0.0060797036 -0.025973437 -0.024854627 -0.005458501 0.99967617 -0.06112613 0 0 0 1 0.99941754 -0.02519964 0.02301263 0.018320143 0.025063459 0.9996667 0.0061871842 -0.02690998 -0.023160875 -0.0056068045 0.99971604 -0.06165257 0 0 0 1 0.9994604 -0.025006747 0.021297414 0.004687421 0.024879197 0.99967104 0.006233147 -0.02760413 -0.02144628 -0.005699921 0.9997538 -0.061473195 0 0 0 1 0.9995064 -0.024572426 0.019572334 -0.009114604 0.024455035 0.9996816 0.0062148147 -0.028049007 -0.019718817 -0.005733105 0.9997891 -0.06055487 0 0 0 1 0.9995541 -0.023941461 0.01784524 -0.023001654 0.023835454 0.9996971 0.0061295596 -0.028237743 -0.017986584 -0.005701477 0.99982196 -0.058864474 0 0 0 1 0.9996024 -0.0231319 0.01612401 -0.036889464 0.023038175 0.99971676 0.0059743715 -0.028163465 -0.01625764 -0.0056005283 0.9998521 -0.056368887 0 0 0 1 0.9996504 -0.022161802 0.014416506 -0.050693724 0.022080911 0.99973965 0.0057461634 -0.027819302 -0.014540098 -0.005425825 0.99987954 -0.05303497 0 0 0 1 0.9996974 -0.021049252 0.012730542 -0.06433019 0.02098138 0.99976504 0.0054417723 -0.027198374 -0.012842095 -0.0051730215 0.99990416 -0.04882961 0 0 0 1 0.9997424 -0.01981232 0.0110739125 -0.07771454 0.019757278 0.99979204 0.0050579426 -0.026293818 -0.011171819 -0.0048378496 0.9999259 -0.04371967 0 0 0 1 0.9997847 -0.018469198 0.009454179 -0.09076257 0.018426223 0.9998196 0.0046128347 -0.025098754 -0.009537668 -0.004437637 0.9999447 -0.037672035 0 0 0 1 0.9998238 -0.017038042 0.007878851 -0.103389904 0.017005837 0.9998468 0.004136402 -0.023606313 -0.007948121 -0.0040016873 0.9999604 -0.030653581 0 0 0 1 0.9998238 -0.017038042 0.007878851 -0.103389904 0.017005837 0.9998468 0.004136402 -0.023606313 -0.007948121 -0.0040016873 0.9999604 -0.030653581 0 0 0 1</float_array>
        <technique_common>
          <accessor source="#Motion_1_Head_transform_pose_array_id" count="61" stride="16">
            <param name="TRANSFORM" type="float4x4" />
          </accessor>
        </technique_common>
      </source>
      <sampler id="Motion_1_Head_transform_samp_id">
        <input semantic="INPUT" source="#Motion_1_Head_transform_frame_id" />
        <input semantic="INTERPOLATION" source="#Motion_1_Head_transform_interp_id" />
        <input semantic="OUTPUT" source="#Motion_1_Head_transform_pose_id" />
      </sampler>
      <channel source="#Motion_1_Head_transform_samp_id" target="Head_bone_id/transform" />
    </animation>
  </library_animations>
  <library_visual_scenes>
    <visual_scene id="pm0872_00_fi_00_clip_id" name="pm0872_00_fi_00_clip">
      <node id="pm0872_00_fi_bone_id" name="pm0872_00_fi" sid="pm0872_00_fi" type="JOINT">
        <matrix sid="transform">1 0 0 0 0 1 0 0 0 0 1 0 0 0 0 1</matrix>
        <node id="Origin_bone_id" name="Origin" sid="Origin" type="JOINT">
          <matrix sid="transform">1 0 0 0 0 1 0 0 0 0 1 0 0 0 0 1</matrix>
          <node id="Waist_bone_id" name="Waist" sid="Waist" type="JOINT">
            <matrix sid="transform">3.1391647E-07 -1 0 0 1 3.1391647E-07 0 5 0 0 1 0 0 0 0 1</matrix>
            <node id="Head_bone_id" name="Head" sid="Head" type="JOINT">
              <matrix sid="transform">1 0 0 0.001 0 1 0 0 0 0 1 0 0 0 0 1</matrix>
              <node id="Loc_Head_bone_id" name="Loc_Head" sid="Loc_Head" type="JOINT">
                <matrix sid="transform">3.1391647E-07 1 0 4.55285 -1 3.1391647E-07 0 0 0 0 1 0 0 0 0 1</matrix>
              </node>
              <node id="Loc_Eye_bone_id" name="Loc_Eye" sid="Loc_Eye" type="JOINT">
                <matrix sid="transform">3.1391647E-07 1 0 -0.01 -1 3.1391647E-07 0 0 0 0 1 1.25 0 0 0 1</matrix>
              </node>
              <node id="Loc_Mouth_bone_id" name="Loc_Mouth" sid="Loc_Mouth" type="JOINT">
                <matrix sid="transform">3.1391647E-07 1 0 -0.475084 -1 3.1391647E-07 0 0 0 0 1 1.146523 0 0 0 1</matrix>
              </node>
            </node>
            <node id="RootFeeler_bone_id" name="RootFeeler" sid="RootFeeler" type="JOINT">
              <matrix sid="transform">3.1391647E-07 0 -1 0 0 1 0 0 1 0 3.1391647E-07 0.001 0 0 0 1</matrix>
              <node id="FeelerA_bone_id" name="FeelerA" sid="FeelerA" type="JOINT">
                <matrix sid="transform">1 0 0 -1.807669 0 3.1391647E-07 1 -0.456785 0 -1 3.1391647E-07 -0.463273 0 0 0 1</matrix>
              </node>
              <node id="FeelerB_bone_id" name="FeelerB" sid="FeelerB" type="JOINT">
                <matrix sid="transform">1 0 0 0.958367 0 1 0 -0.765426 0 0 1 -1.613043 0 0 0 1</matrix>
              </node>
              <node id="FeelerC_bone_id" name="FeelerC" sid="FeelerC" type="JOINT">
                <matrix sid="transform">1 0 0 0.77406 0 3.1391647E-07 1 -1.744272 0 -1 3.1391647E-07 -0.825126 0 0 0 1</matrix>
              </node>
              <node id="FeelerD_bone_id" name="FeelerD" sid="FeelerD" type="JOINT">
                <matrix sid="transform">1 0 0 -1.211069 0 3.1391647E-07 1 -1.287623 0 -1 3.1391647E-07 0.527919 0 0 0 1</matrix>
              </node>
              <node id="FeelerE_bone_id" name="FeelerE" sid="FeelerE" type="JOINT">
                <matrix sid="transform">1 0 0 -0.955155 0 1 0 -1.552555 0 0 1 0.811774 0 0 0 1</matrix>
              </node>
              <node id="FeelerF_bone_id" name="FeelerF" sid="FeelerF" type="JOINT">
                <matrix sid="transform">1 0 0 1.788189 0 3.1391647E-07 1 -1.511201 0 -1 3.1391647E-07 0.800466 0 0 0 1</matrix>
              </node>
              <node id="FeelerG_bone_id" name="FeelerG" sid="FeelerG" type="JOINT">
                <matrix sid="transform">1 0 0 0.532616 0 3.1391647E-07 1 -0.698825 0 -1 3.1391647E-07 1.964569 0 0 0 1</matrix>
              </node>
              <node id="FeelerH_bone_id" name="FeelerH" sid="FeelerH" type="JOINT">
                <matrix sid="transform">1 0 0 0.963708 0 3.1391647E-07 1 0.69681 0 -1 3.1391647E-07 1.820478 0 0 0 1</matrix>
              </node>
              <node id="FeelerI_bone_id" name="FeelerI" sid="FeelerI" type="JOINT">
                <matrix sid="transform">1 0 0 -1.211069 0 3.1391647E-07 1 0.727752 0 -1 3.1391647E-07 1.530875 0 0 0 1</matrix>
              </node>
              <node id="FeelerJ_bone_id" name="FeelerJ" sid="FeelerJ" type="JOINT">
                <matrix sid="transform">1 0 0 0.927151 0 1 0 1.686027 0 0 1 0.848551 0 0 0 1</matrix>
              </node>
              <node id="FeelerK_bone_id" name="FeelerK" sid="FeelerK" type="JOINT">
                <matrix sid="transform">1 0 0 -1.211069 0 1 0 1.541471 0 0 1 -0.616966 0 0 0 1</matrix>
              </node>
              <node id="FeelerL_bone_id" name="FeelerL" sid="FeelerL" type="JOINT">
                <matrix sid="transform">1 0 0 1.301523 0 3.1391647E-07 1 1.914901 0 -1 3.1391647E-07 -0.862715 0 0 0 1</matrix>
              </node>
              <node id="FeelerM_bone_id" name="FeelerM" sid="FeelerM" type="JOINT">
                <matrix sid="transform">1 0 0 -0.396648 0 3.1391647E-07 1 0.7365 0 -1 3.1391647E-07 -1.742575 0 0 0 1</matrix>
              </node>
              <node id="FeelerN_bone_id" name="FeelerN" sid="FeelerN" type="JOINT">
                <matrix sid="transform">1 0 0 0.749507 0 3.1391647E-07 1 0.524137 0 -1 3.1391647E-07 -1.425648 0 0 0 1</matrix>
              </node>
            </node>
          </node>
          <node id="CamTgtHead_bone_id" name="CamTgtHead" sid="CamTgtHead" type="JOINT">
            <matrix sid="transform">1 0 0 0 0 1 0 4.991 0 0 1 1.25 0 0 0 1</matrix>
          </node>
        </node>
        <node id="pm0872_00_fi_HeadSkin_bone_id" name="pm0872_00_fi_HeadSkin" sid="pm0872_00_fi_HeadSkin" type="JOINT">
          <matrix sid="transform">1 0 0 0 0 1 0 0 0 0 1 0 0 0 0 1</matrix>
        </node>
        <node id="pm0872_00_fi_BodySkin_bone_id" name="pm0872_00_fi_BodySkin" sid="pm0872_00_fi_BodySkin" type="JOINT">
          <matrix sid="transform">1 0 0 0 0 1 0 0 0 0 1 0 0 0 0 1</matrix>
        </node>
        <node id="pm0872_00_fi_GlassSkin_bone_id" name="pm0872_00_fi_GlassSkin" sid="pm0872_00_fi_GlassSkin" type="JOINT">
          <matrix sid="transform">1 0 0 0 0 1 0 0 0 0 1 0 0 0 0 1</matrix>
        </node>
        <node id="pm0872_00_fi_StarSkin_bone_id" name="pm0872_00_fi_StarSkin" sid="pm0872_00_fi_StarSkin" type="JOINT">
          <matrix sid="transform">1 0 0 0 0 1 0 0 0 0 1 0 0 0 0 1</matrix>
        </node>
        <node id="pm0872_00_fi_TuyaSkin_bone_id" name="pm0872_00_fi_TuyaSkin" sid="pm0872_00_fi_TuyaSkin" type="JOINT">
          <matrix sid="transform">1 0 0 0 0 1 0 0 0 0 1 0 0 0 0 1</matrix>
        </node>
      </node>
    </visual_scene>
  </library_visual_scenes>
  <scene>
    <instance_visual_scene url="#pm0872_00_fi_00_clip_id" />
  </scene>
</COLLADA>