<?xml version="1.0" encoding="utf-8"?>
<COLLADA xmlns:xsi="http://www.w3.org/2001/XMLSchema-instance" xmlns:xsd="http://www.w3.org/2001/XMLSchema" version="1.4.1" xmlns="http://www.collada.org/2005/11/COLLADASchema">
  <asset>
    <created>2026-02-17T05:46:57.0224957-05:00</created>
    <modified>2026-02-17T05:46:57.022496-05:00</modified>
    <up_axis>Y_UP</up_axis>
  </asset>
  <library_animations>
    <animation id="Motion_54_Waist_transform_id" name="Motion_54_Waist_transform">
      <source id="Motion_54_Waist_transform_frame_id" name="Motion_54_Waist_transform_frame">
        <float_array id="Motion_54_Waist_transform_frame_array_id" count="16">0 0.033333335 0.06666667 0.1 0.13333334 0.16666667 0.2 0.23333333 0.26666668 0.3 0.33333334 0.36666667 0.4 0.43333334 0.46666667 0.5</float_array>
        <technique_common>
          <accessor source="#Motion_54_Waist_transform_frame_array_id" count="16" stride="1">
            <param name="TIME" type="float" />
          </accessor>
        </technique_common>
      </source>
      <source id="Motion_54_Waist_transform_interp_id" name="Motion_54_Waist_transform_interp">
        <Name_array id="Motion_54_Waist_transform_interp_array_id" count="16">LINEAR LINEAR LINEAR LINEAR LINEAR LINEAR LINEAR LINEAR LINEAR LINEAR LINEAR LINEAR LINEAR LINEAR LINEAR LINEAR</Name_array>
        <technique_common>
          <accessor source="#Motion_54_Waist_transform_interp_array_id" count="16" stride="1">
            <param name="INTERPOLATION" type="Name" />
          </accessor>
        </technique_common>
      </source>
      <source id="Motion_54_Waist_transform_pose_id" name="Motion_54_Waist_transform_pose">
        <float_array id="Motion_54_Waist_transform_pose_array_id" count="256">-0.06946683 -0.99758416 -6.977655E-05 0 0.9971276 -0.069432855 -0.030257698 53.753876 0.030179758 -0.0021714838 0.9995421 0 0 0 0 1 -0.06886637 -0.99762577 0.00045265257 0.016671563 0.99721366 -0.068850994 -0.028713439 53.751175 0.028676432 -0.0015260009 0.9995876 0.0013807571 0 0 0 1 -0.06790209 -0.9976908 0.0015798211 0.036382474 0.9973812 -0.06792033 -0.024851799 53.74795 0.024901712 -0.000111805275 0.9996899 0.0025704082 0 0 0 1 -0.066422224 -0.9977859 0.0033764206 0.058159675 0.99760115 -0.06647527 -0.01931404 53.74431 0.019495724 0.0020854408 0.9998078 0.0035563575 0 0 0 1 -0.06427741 -0.99791545 0.0057688747 0.08103007 0.99784285 -0.06434786 -0.012999481 53.740345 0.013343597 0.0049208584 0.99989885 0.004326008 0 0 0 1 -0.061491847 -0.9980697 0.008684379 0.10402062 0.99808055 -0.06155181 -0.0068085645 53.736168 0.0073299627 0.008249039 0.9999391 0.004866763 0 0 0 1 -0.0582906 -0.998227 0.0120451115 0.12615824 0.998297 -0.058314443 -0.0016426174 53.731884 0.002342109 0.011928849 0.9999261 0.0051660286 0 0 0 1 -0.054808497 -0.9983724 0.015764039 0.14646985 0.9984966 -0.05479002 0.0015952345 53.72759 -0.0007289257 0.015827771 0.9998745 0.0052112048 0 0 0 1 -0.051177144 -0.998495 0.019719444 0.16398239 0.99868846 -0.051136255 0.002572312 53.723392 -0.0015600622 0.019825224 0.99980223 0.004989698 0 0 0 1 -0.04753959 -0.99858826 0.023696698 0.1777228 0.9988689 -0.047503114 0.0021016896 53.719395 -0.00097305607 0.023769807 0.999717 0.004488912 0 0 0 1 -0.044047236 -0.99865174 0.027466513 0.186718 0.9990294 -0.04403639 0.0010014614 53.7157 0.0002094144 0.027483966 0.9996222 0.003696248 0 0 0 1 -0.04085052 -0.99868834 0.030871062 0.18999493 0.999164 -0.040881634 -0.00037705246 53.71241 0.0016386155 0.030829847 0.9995233 0.0025991122 0 0 0 1 -0.038093805 -0.9987024 0.033795424 0.18908836 0.9992682 -0.03818834 -0.0021533966 53.70963 0.0034411978 0.033688664 0.9994264 0.0011849073 0 0 0 1 -0.035927176 -0.99870294 0.036079995 0.18682684 0.9993393 -0.036102176 -0.004211368 53.707462 0.0055084713 0.035904855 0.99934006 -0.0005589621 0 0 0 1 -0.034499884 -0.99869823 0.037566677 0.18417795 0.9993746 -0.034765363 -0.006433985 53.70601 0.0077316323 0.037321214 0.9992734 -0.0026450946 0 0 0 1 -0.034499884 -0.99869823 0.037566677 0.18417795 0.9993746 -0.034765363 -0.006433985 53.70601 0.0077316323 0.037321214 0.9992734 -0.0026450946 0 0 0 1</float_array>
        <technique_common>
          <accessor source="#Motion_54_Waist_transform_pose_array_id" count="16" stride="16">
            <param name="TRANSFORM" type="float4x4" />
          </accessor>
        </technique_common>
      </source>
      <sampler id="Motion_54_Waist_transform_samp_id">
        <input semantic="INPUT" source="#Motion_54_Waist_transform_frame_id" />
        <input semantic="INTERPOLATION" source="#Motion_54_Waist_transform_interp_id" />
        <input semantic="OUTPUT" source="#Motion_54_Waist_transform_pose_id" />
      </sampler>
      <channel source="#Motion_54_Waist_transform_samp_id" target="Waist_bone_id/transform" />
    </animation>
    <animation id="Motion_54_Hips_transform_id" name="Motion_54_Hips_transform">
      <source id="Motion_54_Hips_transform_frame_id" name="Motion_54_Hips_transform_frame">
        <float_array id="Motion_54_Hips_transform_frame_array_id" count="16">0 0.033333335 0.06666667 0.1 0.13333334 0.16666667 0.2 0.23333333 0.26666668 0.3 0.33333334 0.36666667 0.4 0.43333334 0.46666667 0.5</float_array>
        <technique_common>
          <accessor source="#Motion_54_Hips_transform_frame_array_id" count="16" stride="1">
            <param name="TIME" type="float" />
          </accessor>
        </technique_common>
      </source>
      <source id="Motion_54_Hips_transform_interp_id" name="Motion_54_Hips_transform_interp">
        <Name_array id="Motion_54_Hips_transform_interp_array_id" count="16">LINEAR LINEAR LINEAR LINEAR LINEAR LINEAR LINEAR LINEAR LINEAR LINEAR LINEAR LINEAR LINEAR LINEAR LINEAR LINEAR</Name_array>
        <technique_common>
          <accessor source="#Motion_54_Hips_transform_interp_array_id" count="16" stride="1">
            <param name="INTERPOLATION" type="Name" />
          </accessor>
        </technique_common>
      </source>
      <source id="Motion_54_Hips_transform_pose_id" name="Motion_54_Hips_transform_pose">
        <float_array id="Motion_54_Hips_transform_pose_array_id" count="256">-0.8890077 -1.5159779E-07 0.45789227 -0.010002 1.4189453E-07 -1 -5.5586128E-08 0 0.45789227 1.5555914E-08 0.8890077 0 0 0 0 1 -0.8894969 -0.00017919615 0.4569414 -0.010002 0.0006192046 -0.9999995 0.0008131994 0 0.45694104 0.0010062784 0.88949645 0 0 0 0 1 -0.89039564 -0.0004801394 0.4551867 -0.010002 0.0017194098 -0.9999957 0.0023085426 0 0.4551837 0.0028381695 0.890393 0 0 0 0 1 -0.8917928 -0.0009876643 0.45244277 -0.010002 0.003491127 -0.99998283 0.0046983063 0 0.45243037 0.005769451 0.8917811 0 0 0 0 1 -0.893414 -0.0015502635 0.44923168 -0.010002 0.005771189 -0.9999511 0.008026757 0 0.4491973 0.009763817 0.8933792 0 0 0 0 1 -0.89504445 -0.0021347168 0.4459714 -0.010002 0.008375675 -0.9998925 0.012023452 0 0.44589785 0.014496838 0.8949664 0 0 0 0 1 -0.89647627 -0.0026880177 0.44308373 -0.010002 0.011153823 -0.99980175 0.016501741 0 0.44295147 0.019735495 0.89632833 0 0 0 0 1 -0.8975047 -0.0031565703 0.44099337 -0.010002 0.013966488 -0.9996761 0.021268895 0 0.44078344 0.025248064 0.8972583 0 0 0 0 1 -0.89792895 -0.0034853602 0.44012675 -0.010002 0.01668578 -0.99951947 0.02612647 0 0.43982413 0.030803569 0.8975555 0 0 0 0 1 -0.8976536 -0.0037079128 0.44068688 -0.010002 0.01927559 -0.9993384 0.030854883 0 0.44028074 0.036191486 0.8971305 0 0 0 0 1 -0.8968563 -0.0038689887 0.44230494 -0.010002 0.021689977 -0.99914336 0.035240665 0 0.44178972 0.0411994 0.8961721 0 0 0 0 1 -0.8957498 -0.0038914178 0.44454113 -0.010002 0.023745574 -0.99895287 0.03910269 0 0.44392356 0.045582116 0.89490455 0 0 0 0 1 -0.8945373 -0.0038432283 0.44697705 -0.010002 0.025393214 -0.99878526 0.04223174 0 0.4462717 0.04912804 0.893548 0 0 0 0 1 -0.8934252 -0.0038030092 0.4491959 -0.010002 0.026584363 -0.99865925 0.044419885 0 0.44842467 0.051627435 0.8923284 0 0 0 0 1 -0.8926251 -0.003855099 0.45078385 -0.010002 0.027270518 -0.99859416 0.04546008 0 0.44997472 0.0528719 0.89147484 0 0 0 0 1 -0.8926251 -0.003855099 0.45078385 -0.010002 0.027270518 -0.99859416 0.04546008 0 0.44997472 0.0528719 0.89147484 0 0 0 0 1</float_array>
        <technique_common>
          <accessor source="#Motion_54_Hips_transform_pose_array_id" count="16" stride="16">
            <param name="TRANSFORM" type="float4x4" />
          </accessor>
        </technique_common>
      </source>
      <sampler id="Motion_54_Hips_transform_samp_id">
        <input semantic="INPUT" source="#Motion_54_Hips_transform_frame_id" />
        <input semantic="INTERPOLATION" source="#Motion_54_Hips_transform_interp_id" />
        <input semantic="OUTPUT" source="#Motion_54_Hips_transform_pose_id" />
      </sampler>
      <channel source="#Motion_54_Hips_transform_samp_id" target="Hips_bone_id/transform" />
    </animation>
    <animation id="Motion_54_RThigh_transform_id" name="Motion_54_RThigh_transform">
      <source id="Motion_54_RThigh_transform_frame_id" name="Motion_54_RThigh_transform_frame">
        <float_array id="Motion_54_RThigh_transform_frame_array_id" count="16">0 0.033333335 0.06666667 0.1 0.13333334 0.16666667 0.2 0.23333333 0.26666668 0.3 0.33333334 0.36666667 0.4 0.43333334 0.46666667 0.5</float_array>
        <technique_common>
          <accessor source="#Motion_54_RThigh_transform_frame_array_id" count="16" stride="1">
            <param name="TIME" type="float" />
          </accessor>
        </technique_common>
      </source>
      <source id="Motion_54_RThigh_transform_interp_id" name="Motion_54_RThigh_transform_interp">
        <Name_array id="Motion_54_RThigh_transform_interp_array_id" count="16">LINEAR LINEAR LINEAR LINEAR LINEAR LINEAR LINEAR LINEAR LINEAR LINEAR LINEAR LINEAR LINEAR LINEAR LINEAR LINEAR</Name_array>
        <technique_common>
          <accessor source="#Motion_54_RThigh_transform_interp_array_id" count="16" stride="1">
            <param name="INTERPOLATION" type="Name" />
          </accessor>
        </technique_common>
      </source>
      <source id="Motion_54_RThigh_transform_pose_id" name="Motion_54_RThigh_transform_pose">
        <float_array id="Motion_54_RThigh_transform_pose_array_id" count="256">0.51496375 0.11692676 -0.8491999 10.510002 0.01461361 0.9893119 0.1450807 -7.2 0.8570874 -0.08712118 0.50775105 0 0 0 0 1 0.5160155 0.116306156 -0.84864646 10.510002 0.01474667 0.989386 0.144561 -7.2 0.8564523 -0.08711042 0.5088234 0 0 0 0 1 0.5178032 0.1152014 -0.8477078 10.510002 0.015565846 0.98945916 0.1439731 -7.2 0.8553582 -0.08774502 0.51055187 0 0 0 0 1 0.52009225 0.11360994 -0.8465205 10.510002 0.0172862 0.98951083 0.14342085 -7.2 0.8539352 -0.089225195 0.512673 0 0 0 0 1 0.52264667 0.111527465 -0.84522307 10.510002 0.020122193 0.98951674 0.14300969 -7.2 0.85231185 -0.09175128 0.51492345 0 0 0 0 1 0.5252286 0.108949006 -0.84395796 10.510002 0.024287287 0.98944694 0.14284554 -7.2 0.8506145 -0.09552402 0.5170398 0 0 0 0 1 0.52724934 0.106058 -0.8430658 10.510002 0.029383983 0.9893106 0.14283228 -7.2 0.84920245 -0.10008085 0.51849693 0 0 0 0 1 0.5285011 0.102816746 -0.84268343 10.510002 0.03443558 0.9892254 0.14229326 -7.2 0.84823394 -0.104220435 0.5192661 0 0 0 0 1 0.5293163 0.098886535 -0.84264207 10.510002 0.038787663 0.9893255 0.14046523 -7.2 0.8475374 -0.107034646 0.5198306 0 0 0 0 1 0.5300394 0.094325334 -0.8427105 10.510002 0.042191178 0.98962957 0.13730709 -7.2 0.84692276 -0.10833312 0.520563 0 0 0 0 1 0.53103 0.08967601 -0.8425944 10.510002 0.044889078 0.9900107 0.13365582 -7.2 0.84616315 -0.10879853 0.5216999 0 0 0 0 1 0.5321982 0.08534911 -0.84230673 10.510002 0.047000516 0.9903927 0.13005087 -7.2 0.84531415 -0.108801685 0.52307373 0 0 0 0 1 0.53309435 0.08177611 -0.8420945 10.510002 0.0486675 0.99070585 0.12701717 -7.2 0.84465486 -0.10869477 0.52415985 0 0 0 0 1 0.5335331 0.079217955 -0.8420611 10.510002 0.049852755 0.99092746 0.12480963 -7.2 0.8443087 -0.10856914 0.5247433 0 0 0 0 1 0.53331846 0.07801375 -0.84230953 10.510002 0.050051842 0.9910835 0.123483956 -7.2 0.84443253 -0.10801542 0.5246584 0 0 0 0 1 0.53331846 0.07801375 -0.84230953 10.510002 0.050051842 0.9910835 0.123483956 -7.2 0.84443253 -0.10801542 0.5246584 0 0 0 0 1</float_array>
        <technique_common>
          <accessor source="#Motion_54_RThigh_transform_pose_array_id" count="16" stride="16">
            <param name="TRANSFORM" type="float4x4" />
          </accessor>
        </technique_common>
      </source>
      <sampler id="Motion_54_RThigh_transform_samp_id">
        <input semantic="INPUT" source="#Motion_54_RThigh_transform_frame_id" />
        <input semantic="INTERPOLATION" source="#Motion_54_RThigh_transform_interp_id" />
        <input semantic="OUTPUT" source="#Motion_54_RThigh_transform_pose_id" />
      </sampler>
      <channel source="#Motion_54_RThigh_transform_samp_id" target="RThigh_bone_id/transform" />
    </animation>
    <animation id="Motion_54_RLeg_transform_id" name="Motion_54_RLeg_transform">
      <source id="Motion_54_RLeg_transform_frame_id" name="Motion_54_RLeg_transform_frame">
        <float_array id="Motion_54_RLeg_transform_frame_array_id" count="16">0 0.033333335 0.06666667 0.1 0.13333334 0.16666667 0.2 0.23333333 0.26666668 0.3 0.33333334 0.36666667 0.4 0.43333334 0.46666667 0.5</float_array>
        <technique_common>
          <accessor source="#Motion_54_RLeg_transform_frame_array_id" count="16" stride="1">
            <param name="TIME" type="float" />
          </accessor>
        </technique_common>
      </source>
      <source id="Motion_54_RLeg_transform_interp_id" name="Motion_54_RLeg_transform_interp">
        <Name_array id="Motion_54_RLeg_transform_interp_array_id" count="16">LINEAR LINEAR LINEAR LINEAR LINEAR LINEAR LINEAR LINEAR LINEAR LINEAR LINEAR LINEAR LINEAR LINEAR LINEAR LINEAR</Name_array>
        <technique_common>
          <accessor source="#Motion_54_RLeg_transform_interp_array_id" count="16" stride="1">
            <param name="INTERPOLATION" type="Name" />
          </accessor>
        </technique_common>
      </source>
      <source id="Motion_54_RLeg_transform_pose_id" name="Motion_54_RLeg_transform_pose">
        <float_array id="Motion_54_RLeg_transform_pose_array_id" count="256">-0.032367706 0 0.999476 33.899998 0 1 0 0 -0.999476 0 -0.032367706 0 0 0 0 1 -0.03247559 0 0.9994725 33.899998 0 1 0 0 -0.9994725 0 -0.03247559 0 0 0 0 1 -0.032512665 0 0.9994713 33.899998 0 1 0 0 -0.9994713 0 -0.032512665 0 0 0 0 1 -0.032464147 0 0.9994729 33.899998 0 1 0 0 -0.9994729 0 -0.032464147 0 0 0 0 1 -0.032315016 0 0.9994777 33.899998 0 1 0 0 -0.9994777 0 -0.032315016 0 0 0 0 1 -0.03205049 0 0.99948627 33.899998 0 1 0 0 -0.99948627 0 -0.03205049 0 0 0 0 1 -0.031655908 0 0.9994988 33.899998 0 1 0 0 -0.9994988 0 -0.031655908 0 0 0 0 1 -0.031116843 0 0.9995158 33.899998 0 1 0 0 -0.9995158 0 -0.031116843 0 0 0 0 1 -0.0304178 0 0.9995372 33.899998 0 1 0 0 -0.9995372 0 -0.0304178 0 0 0 0 1 -0.029544353 0 0.99956346 33.899998 0 1 0 0 -0.99956346 0 -0.029544353 0 0 0 0 1 -0.02861929 0 0.99959034 33.899998 0 1 0 0 -0.99959034 0 -0.02861929 0 0 0 0 1 -0.02778697 0 0.99961376 33.899998 0 1 0 0 -0.99961376 0 -0.02778697 0 0 0 0 1 -0.027064323 0 0.99963367 33.899998 0 1 0 0 -0.99963367 0 -0.027064323 0 0 0 0 1 -0.02646768 0 0.99964964 33.899998 0 1 0 0 -0.99964964 0 -0.02646768 0 0 0 0 1 -0.026014447 0 0.99966156 33.899998 0 1 0 0 -0.99966156 0 -0.026014447 0 0 0 0 1 -0.026014447 0 0.99966156 33.899998 0 1 0 0 -0.99966156 0 -0.026014447 0 0 0 0 1</float_array>
        <technique_common>
          <accessor source="#Motion_54_RLeg_transform_pose_array_id" count="16" stride="16">
            <param name="TRANSFORM" type="float4x4" />
          </accessor>
        </technique_common>
      </source>
      <sampler id="Motion_54_RLeg_transform_samp_id">
        <input semantic="INPUT" source="#Motion_54_RLeg_transform_frame_id" />
        <input semantic="INTERPOLATION" source="#Motion_54_RLeg_transform_interp_id" />
        <input semantic="OUTPUT" source="#Motion_54_RLeg_transform_pose_id" />
      </sampler>
      <channel source="#Motion_54_RLeg_transform_samp_id" target="RLeg_bone_id/transform" />
    </animation>
    <animation id="Motion_54_RFoot_transform_id" name="Motion_54_RFoot_transform">
      <source id="Motion_54_RFoot_transform_frame_id" name="Motion_54_RFoot_transform_frame">
        <float_array id="Motion_54_RFoot_transform_frame_array_id" count="16">0 0.033333335 0.06666667 0.1 0.13333334 0.16666667 0.2 0.23333333 0.26666668 0.3 0.33333334 0.36666667 0.4 0.43333334 0.46666667 0.5</float_array>
        <technique_common>
          <accessor source="#Motion_54_RFoot_transform_frame_array_id" count="16" stride="1">
            <param name="TIME" type="float" />
          </accessor>
        </technique_common>
      </source>
      <source id="Motion_54_RFoot_transform_interp_id" name="Motion_54_RFoot_transform_interp">
        <Name_array id="Motion_54_RFoot_transform_interp_array_id" count="16">LINEAR LINEAR LINEAR LINEAR LINEAR LINEAR LINEAR LINEAR LINEAR LINEAR LINEAR LINEAR LINEAR LINEAR LINEAR LINEAR</Name_array>
        <technique_common>
          <accessor source="#Motion_54_RFoot_transform_interp_array_id" count="16" stride="1">
            <param name="INTERPOLATION" type="Name" />
          </accessor>
        </technique_common>
      </source>
      <source id="Motion_54_RFoot_transform_pose_id" name="Motion_54_RFoot_transform_pose">
        <float_array id="Motion_54_RFoot_transform_pose_array_id" count="256">-0.13390279 -0.059424847 -0.98921114 33.9 0.10674474 0.9915279 -0.07401333 0 0.9852287 -0.115503676 -0.12642515 0 0 0 0 1 -0.1342653 -0.059629068 -0.98914963 33.9 0.1069715 0.9914828 -0.07428982 0 0.9851547 -0.11578538 -0.12674308 0 0 0 0 1 -0.1347593 -0.060235776 -0.9890458 33.9 0.10663035 0.9914727 -0.07491216 0 0.9851243 -0.1155574 -0.12718713 0 0 0 0 1 -0.13532758 -0.06142543 -0.9888951 33.9 0.10555366 0.99150264 -0.07603212 0 0.98516244 -0.11467072 -0.12769401 0 0 0 0 1 -0.13591099 -0.06337856 -0.9886917 33.9 0.10357353 0.9915742 -0.07780112 0 0.9852922 -0.11297633 -0.12820148 0 0 0 0 1 -0.13645089 -0.066275455 -0.98842734 33.9 0.10052166 0.99168336 -0.08037065 0 0.98553354 -0.11032502 -0.128654 0 0 0 0 1 -0.13688207 -0.06976965 -0.9881272 33.9 0.096754804 0.9918052 -0.08343247 0 0.98585075 -0.10702648 -0.12900984 0 0 0 0 1 -0.13713837 -0.07288802 -0.9878666 33.9 0.09325561 0.99190956 -0.08613232 0 0.98615235 -0.10393615 -0.12923157 0 0 0 0 1 -0.13715982 -0.07487094 -0.98771536 33.9 0.090795435 0.9919913 -0.08780344 0 0.986379 -0.101723135 -0.1292634 0 0 0 0 1 -0.136891 -0.07571757 -0.98768795 33.9 0.08938813 0.9920624 -0.08844189 0 0.9865447 -0.1003945 -0.12903619 0 0 0 0 1 -0.13653684 -0.07603507 -0.98771274 33.9 0.088408425 0.99213636 -0.08859676 0 0.9866822 -0.099418834 -0.1287409 0 0 0 0 1 -0.1362946 -0.07598443 -0.98775 33.9 0.08767682 0.9922165 -0.088426106 0 0.9867808 -0.098654784 -0.12857163 0 0 0 0 1 -0.13610196 -0.075742915 -0.9877952 33.9 0.08702916 0.9923043 -0.08807987 0 0.98686486 -0.097954825 -0.12846279 0 0 0 0 1 -0.13591158 -0.07560216 -0.9878322 33.9 0.08641574 0.9923792 -0.08783972 0 0.98694503 -0.097302675 -0.12834263 0 0 0 0 1 -0.13567233 -0.07557102 -0.9878675 33.9 0.086031266 0.99242187 -0.08773485 0 0.98701155 -0.09689067 -0.12814271 0 0 0 0 1 -0.13567233 -0.07557102 -0.9878675 33.9 0.086031266 0.99242187 -0.08773485 0 0.98701155 -0.09689067 -0.12814271 0 0 0 0 1</float_array>
        <technique_common>
          <accessor source="#Motion_54_RFoot_transform_pose_array_id" count="16" stride="16">
            <param name="TRANSFORM" type="float4x4" />
          </accessor>
        </technique_common>
      </source>
      <sampler id="Motion_54_RFoot_transform_samp_id">
        <input semantic="INPUT" source="#Motion_54_RFoot_transform_frame_id" />
        <input semantic="INTERPOLATION" source="#Motion_54_RFoot_transform_interp_id" />
        <input semantic="OUTPUT" source="#Motion_54_RFoot_transform_pose_id" />
      </sampler>
      <channel source="#Motion_54_RFoot_transform_samp_id" target="RFoot_bone_id/transform" />
    </animation>
    <animation id="Motion_54_LThigh_transform_id" name="Motion_54_LThigh_transform">
      <source id="Motion_54_LThigh_transform_frame_id" name="Motion_54_LThigh_transform_frame">
        <float_array id="Motion_54_LThigh_transform_frame_array_id" count="16">0 0.033333335 0.06666667 0.1 0.13333334 0.16666667 0.2 0.23333333 0.26666668 0.3 0.33333334 0.36666667 0.4 0.43333334 0.46666667 0.5</float_array>
        <technique_common>
          <accessor source="#Motion_54_LThigh_transform_frame_array_id" count="16" stride="1">
            <param name="TIME" type="float" />
          </accessor>
        </technique_common>
      </source>
      <source id="Motion_54_LThigh_transform_interp_id" name="Motion_54_LThigh_transform_interp">
        <Name_array id="Motion_54_LThigh_transform_interp_array_id" count="16">LINEAR LINEAR LINEAR LINEAR LINEAR LINEAR LINEAR LINEAR LINEAR LINEAR LINEAR LINEAR LINEAR LINEAR LINEAR LINEAR</Name_array>
        <technique_common>
          <accessor source="#Motion_54_LThigh_transform_interp_array_id" count="16" stride="1">
            <param name="INTERPOLATION" type="Name" />
          </accessor>
        </technique_common>
      </source>
      <source id="Motion_54_LThigh_transform_pose_id" name="Motion_54_LThigh_transform_pose">
        <float_array id="Motion_54_LThigh_transform_pose_array_id" count="256">0.54037476 0.045846667 -0.8401745 10.510002 -0.050849635 0.9984688 0.021779532 7.199996 0.8398866 0.030953461 0.5418786 0 0 0 0 1 0.5413327 0.045697972 -0.8395657 10.510002 -0.049818084 0.99851096 0.02222788 7.199996 0.8393313 0.029792875 0.5428032 0 0 0 0 1 0.54278165 0.04492319 -0.8386716 10.510002 -0.048000026 0.9985956 0.022424227 7.199996 0.83850116 0.028084798 0.5441757 0 0 0 0 1 0.5444659 0.043557603 -0.83765125 10.510002 -0.04546847 0.9987151 0.02237877 7.199996 0.8375497 0.025902247 0.5457468 0 0 0 0 1 0.5461297 0.04163756 -0.8366652 10.510002 -0.042296346 0.99886066 0.022100627 7.199996 0.8366322 0.02331807 0.54726857 0 0 0 0 1 0.54751825 0.039201275 -0.83587503 10.510002 -0.038557068 0.99902296 0.021596864 7.199996 0.83590496 0.020404212 0.54849476 0 0 0 0 1 0.54837674 0.036289554 -0.8354436 10.510002 -0.03432508 0.9991928 0.020871764 7.199996 0.8355266 0.017231083 0.5491797 0 0 0 0 1 0.54845065 0.032946076 -0.8355336 10.510002 -0.029676255 0.9993609 0.01992626 7.199996 0.83565617 0.013866938 0.54907787 0 0 0 0 1 0.54808056 0.029223096 -0.83591485 10.510002 -0.024696473 0.99951917 0.01874998 7.199996 0.8360609 0.010367647 0.54853874 0 0 0 0 1 0.5478345 0.025235567 -0.83620596 10.510002 -0.019537605 0.9996582 0.01736841 7.199996 0.83635855 0.0068224487 0.54814035 0 0 0 0 1 0.54779875 0.021248788 -0.83634025 10.510002 -0.014501378 0.9997684 0.015902653 7.199996 0.8364845 0.0034166323 0.54797995 0 0 0 0 1 0.54806507 0.017542072 -0.83625174 10.510002 -0.009903808 0.99984604 0.014483006 7.199996 0.836377 0.00034444593 0.5481545 0 0 0 0 1 0.5483167 0.014394368 -0.8361469 10.510002 -0.00605712 0.99989396 0.013241241 7.199996 0.8362488 -0.0021957513 0.5483458 0 0 0 0 1 0.5481142 0.012087388 -0.83631617 10.510002 -0.0032741176 0.99991894 0.012306133 7.199996 0.8363971 -0.004006969 0.54810935 0 0 0 0 1 0.54737103 0.010903454 -0.83681905 10.510002 -0.0018709851 0.9999286 0.011804885 7.199996 0.83688796 -0.0048959767 0.5473523 0 0 0 0 1 0.54737103 0.010903454 -0.83681905 10.510002 -0.0018709851 0.9999286 0.011804885 7.199996 0.83688796 -0.0048959767 0.5473523 0 0 0 0 1</float_array>
        <technique_common>
          <accessor source="#Motion_54_LThigh_transform_pose_array_id" count="16" stride="16">
            <param name="TRANSFORM" type="float4x4" />
          </accessor>
        </technique_common>
      </source>
      <sampler id="Motion_54_LThigh_transform_samp_id">
        <input semantic="INPUT" source="#Motion_54_LThigh_transform_frame_id" />
        <input semantic="INTERPOLATION" source="#Motion_54_LThigh_transform_interp_id" />
        <input semantic="OUTPUT" source="#Motion_54_LThigh_transform_pose_id" />
      </sampler>
      <channel source="#Motion_54_LThigh_transform_samp_id" target="LThigh_bone_id/transform" />
    </animation>
    <animation id="Motion_54_LLeg_transform_id" name="Motion_54_LLeg_transform">
      <source id="Motion_54_LLeg_transform_frame_id" name="Motion_54_LLeg_transform_frame">
        <float_array id="Motion_54_LLeg_transform_frame_array_id" count="16">0 0.033333335 0.06666667 0.1 0.13333334 0.16666667 0.2 0.23333333 0.26666668 0.3 0.33333334 0.36666667 0.4 0.43333334 0.46666667 0.5</float_array>
        <technique_common>
          <accessor source="#Motion_54_LLeg_transform_frame_array_id" count="16" stride="1">
            <param name="TIME" type="float" />
          </accessor>
        </technique_common>
      </source>
      <source id="Motion_54_LLeg_transform_interp_id" name="Motion_54_LLeg_transform_interp">
        <Name_array id="Motion_54_LLeg_transform_interp_array_id" count="16">LINEAR LINEAR LINEAR LINEAR LINEAR LINEAR LINEAR LINEAR LINEAR LINEAR LINEAR LINEAR LINEAR LINEAR LINEAR LINEAR</Name_array>
        <technique_common>
          <accessor source="#Motion_54_LLeg_transform_interp_array_id" count="16" stride="1">
            <param name="INTERPOLATION" type="Name" />
          </accessor>
        </technique_common>
      </source>
      <source id="Motion_54_LLeg_transform_pose_id" name="Motion_54_LLeg_transform_pose">
        <float_array id="Motion_54_LLeg_transform_pose_array_id" count="256">-0.04621315 -3.687424E-07 0.9989316 33.899998 -6.570679E-07 1 3.3873914E-07 0 -0.9989316 -6.4071173E-07 -0.04621315 0 0 0 0 1 -0.0469054 -3.689283E-07 0.99889934 33.899998 -6.5712095E-07 1 3.3847837E-07 0 -0.99889934 -6.405213E-07 -0.0469054 0 0 0 0 1 -0.047919273 -3.692004E-07 0.9988512 33.899998 -6.571985E-07 1 3.380963E-07 0 -0.9988512 -6.4024215E-07 -0.047919273 0 0 0 0 1 -0.04919219 -3.6954182E-07 0.9987893 33.899998 -6.572956E-07 1 3.3761677E-07 0 -0.9987893 -6.3989165E-07 -0.04919219 0 0 0 0 1 -0.050661445 -3.699354E-07 0.99871594 33.899998 -6.57407E-07 1 3.370631E-07 0 -0.99871594 -6.394867E-07 -0.050661445 0 0 0 0 1 -0.052264452 -3.703644E-07 0.99863327 33.899998 -6.5752783E-07 1 3.3645887E-07 0 -0.99863327 -6.3904434E-07 -0.052264452 0 0 0 0 1 -0.053938627 -3.708119E-07 0.9985443 33.899998 -6.5765346E-07 1 3.3582785E-07 0 -0.9985443 -6.3858204E-07 -0.053938627 0 0 0 0 1 -0.055621266 -3.7126108E-07 0.99845195 33.899998 -6.5777897E-07 1 3.351935E-07 0 -0.99845195 -6.3811683E-07 -0.055621266 0 0 0 0 1 -0.057249665 -3.716952E-07 0.9983599 33.899998 -6.5789965E-07 1 3.3457945E-07 0 -0.9983599 -6.3766606E-07 -0.057249665 0 0 0 0 1 -0.058761597 -3.7209787E-07 0.99827206 33.899998 -6.580112E-07 1 3.340092E-07 0 -0.99827206 -6.3724724E-07 -0.058761597 0 0 0 0 1 -0.060094357 -3.724524E-07 0.9981927 33.899998 -6.58109E-07 1 3.335066E-07 0 -0.9981927 -6.3687776E-07 -0.060094357 0 0 0 0 1 -0.06118524 -3.7274242E-07 0.9981265 33.899998 -6.581887E-07 1 3.330951E-07 0 -0.9981265 -6.3657507E-07 -0.06118524 0 0 0 0 1 -0.061972022 -3.7295143E-07 0.9980779 33.899998 -6.5824605E-07 1 3.3279827E-07 0 -0.9980779 -6.363567E-07 -0.061972022 0 0 0 0 1 -0.062389374 -3.7306216E-07 0.9980519 33.899998 -6.582763E-07 1 3.3264075E-07 0 -0.9980519 -6.3624066E-07 -0.062389374 0 0 0 0 1 -0.06247008 -3.7308362E-07 0.99804693 33.899998 -6.5828226E-07 1 3.326104E-07 0 -0.99804693 -6.362184E-07 -0.06247008 0 0 0 0 1 -0.06247008 -3.7308362E-07 0.99804693 33.899998 -6.5828226E-07 1 3.326104E-07 0 -0.99804693 -6.362184E-07 -0.06247008 0 0 0 0 1</float_array>
        <technique_common>
          <accessor source="#Motion_54_LLeg_transform_pose_array_id" count="16" stride="16">
            <param name="TRANSFORM" type="float4x4" />
          </accessor>
        </technique_common>
      </source>
      <sampler id="Motion_54_LLeg_transform_samp_id">
        <input semantic="INPUT" source="#Motion_54_LLeg_transform_frame_id" />
        <input semantic="INTERPOLATION" source="#Motion_54_LLeg_transform_interp_id" />
        <input semantic="OUTPUT" source="#Motion_54_LLeg_transform_pose_id" />
      </sampler>
      <channel source="#Motion_54_LLeg_transform_samp_id" target="LLeg_bone_id/transform" />
    </animation>
    <animation id="Motion_54_LFoot_transform_id" name="Motion_54_LFoot_transform">
      <source id="Motion_54_LFoot_transform_frame_id" name="Motion_54_LFoot_transform_frame">
        <float_array id="Motion_54_LFoot_transform_frame_array_id" count="16">0 0.033333335 0.06666667 0.1 0.13333334 0.16666667 0.2 0.23333333 0.26666668 0.3 0.33333334 0.36666667 0.4 0.43333334 0.46666667 0.5</float_array>
        <technique_common>
          <accessor source="#Motion_54_LFoot_transform_frame_array_id" count="16" stride="1">
            <param name="TIME" type="float" />
          </accessor>
        </technique_common>
      </source>
      <source id="Motion_54_LFoot_transform_interp_id" name="Motion_54_LFoot_transform_interp">
        <Name_array id="Motion_54_LFoot_transform_interp_array_id" count="16">LINEAR LINEAR LINEAR LINEAR LINEAR LINEAR LINEAR LINEAR LINEAR LINEAR LINEAR LINEAR LINEAR LINEAR LINEAR LINEAR</Name_array>
        <technique_common>
          <accessor source="#Motion_54_LFoot_transform_interp_array_id" count="16" stride="1">
            <param name="INTERPOLATION" type="Name" />
          </accessor>
        </technique_common>
      </source>
      <source id="Motion_54_LFoot_transform_pose_id" name="Motion_54_LFoot_transform_pose">
        <float_array id="Motion_54_LFoot_transform_pose_array_id" count="256">-0.17502785 0.04038596 -0.9837348 33.9 -0.0018633176 0.999143 0.04135005 4E-06 0.9845616 0.009070426 -0.17480266 0 0 0 0 1 -0.1757828 0.039029926 -0.9836551 33.9 -0.0026336182 0.9991915 0.04011703 4E-06 0.98442554 0.009642449 -0.17553794 0 0 0 0 1 -0.17663133 0.037269287 -0.98357105 33.9 -0.003908051 0.99924845 0.038565136 4E-06 0.98426914 0.010655666 -0.17635298 0 0 0 0 1 -0.17753768 0.035174977 -0.98348516 33.9 -0.0056333803 0.99930835 0.036757834 4E-06 0.9840979 0.012066249 -0.17721677 0 0 0 0 1 -0.17846477 0.032817967 -0.9833988 33.9 -0.0077562192 0.9993656 0.03475839 4E-06 0.9839157 0.013830605 -0.17809701 0 0 0 0 1 -0.17937672 0.030269323 -0.98331475 33.9 -0.010222966 0.9994152 0.03262982 4E-06 0.98372746 0.015905418 -0.17896235 0 0 0 0 1 -0.1802367 0.027600281 -0.98323596 33.9 -0.012979854 0.9994525 0.030434825 4E-06 0.9835377 0.018247727 -0.17977977 0 0 0 0 1 -0.18100917 0.024882272 -0.9831666 33.9 -0.01597292 0.9994737 0.028235726 4E-06 0.9833517 0.020814966 -0.18051648 0 0 0 0 1 -0.18165863 0.022186961 -0.9831113 33.9 -0.019148052 0.9994761 0.026094444 4E-06 0.9831752 0.023564946 -0.18113852 0 0 0 0 1 -0.18214989 0.019586256 -0.9830756 33.9 -0.022451011 0.9994581 0.024072502 4E-06 0.98301435 0.02645585 -0.18161154 0 0 0 0 1 -0.18244827 0.017152311 -0.9830658 33.9 -0.025827533 0.9994192 0.022231001 4E-06 0.9828761 0.029446173 -0.18189931 0 0 0 0 1 -0.18260014 0.015118124 -0.983071 33.9 -0.029060105 0.99936193 0.020766407 4E-06 0.98275775 0.032360096 -0.18204427 0 0 0 0 1 -0.18263996 0.013546555 -0.9830866 33.9 -0.031822715 0.9992997 0.019682059 4E-06 0.9826648 0.034879215 -0.18208098 0 0 0 0 1 -0.18251622 0.012314482 -0.98312575 33.9 -0.033958055 0.99924606 0.018820677 4E-06 0.98261625 0.036820117 -0.18196034 0 0 0 0 1 -0.18218338 0.011433191 -0.9831982 33.9 -0.035443272 0.9992062 0.018186856 4E-06 0.98262566 0.0381611 -0.18163347 0 0 0 0 1 -0.18218338 0.011433191 -0.9831982 33.9 -0.035443272 0.9992062 0.018186856 4E-06 0.98262566 0.0381611 -0.18163347 0 0 0 0 1</float_array>
        <technique_common>
          <accessor source="#Motion_54_LFoot_transform_pose_array_id" count="16" stride="16">
            <param name="TRANSFORM" type="float4x4" />
          </accessor>
        </technique_common>
      </source>
      <sampler id="Motion_54_LFoot_transform_samp_id">
        <input semantic="INPUT" source="#Motion_54_LFoot_transform_frame_id" />
        <input semantic="INTERPOLATION" source="#Motion_54_LFoot_transform_interp_id" />
        <input semantic="OUTPUT" source="#Motion_54_LFoot_transform_pose_id" />
      </sampler>
      <channel source="#Motion_54_LFoot_transform_samp_id" target="LFoot_bone_id/transform" />
    </animation>
    <animation id="Motion_54_Spine2_transform_id" name="Motion_54_Spine2_transform">
      <source id="Motion_54_Spine2_transform_frame_id" name="Motion_54_Spine2_transform_frame">
        <float_array id="Motion_54_Spine2_transform_frame_array_id" count="16">0 0.033333335 0.06666667 0.1 0.13333334 0.16666667 0.2 0.23333333 0.26666668 0.3 0.33333334 0.36666667 0.4 0.43333334 0.46666667 0.5</float_array>
        <technique_common>
          <accessor source="#Motion_54_Spine2_transform_frame_array_id" count="16" stride="1">
            <param name="TIME" type="float" />
          </accessor>
        </technique_common>
      </source>
      <source id="Motion_54_Spine2_transform_interp_id" name="Motion_54_Spine2_transform_interp">
        <Name_array id="Motion_54_Spine2_transform_interp_array_id" count="16">LINEAR LINEAR LINEAR LINEAR LINEAR LINEAR LINEAR LINEAR LINEAR LINEAR LINEAR LINEAR LINEAR LINEAR LINEAR LINEAR</Name_array>
        <technique_common>
          <accessor source="#Motion_54_Spine2_transform_interp_array_id" count="16" stride="1">
            <param name="INTERPOLATION" type="Name" />
          </accessor>
        </technique_common>
      </source>
      <source id="Motion_54_Spine2_transform_pose_id" name="Motion_54_Spine2_transform_pose">
        <float_array id="Motion_54_Spine2_transform_pose_array_id" count="256">0.9985635 0.052658226 -0.009901553 12.099998 -0.0525929 0.9985933 0.0067466553 0 0.010242891 -0.006216212 0.99992824 0 0 0 0 1 0.9986281 0.05169345 -0.0083541805 12.099998 -0.051645797 0.99864846 0.0058230455 0 0.008643904 -0.005383598 0.99994814 0 0 0 0 1 0.9987308 0.0501647 -0.004512058 12.099998 -0.05014526 0.99873257 0.004322523 0 0.0047231778 -0.004090778 0.99998045 0 0 0 0 1 0.9988566 0.04779994 0.00079764717 12.099998 -0.047801595 0.9988544 0.0022074727 0 -0.0006912163 -0.0022430776 0.99999726 0 0 0 0 1 0.99898136 0.04467068 0.006383353 12.099998 -0.04466808 0.99900174 -0.00054979406 0 -0.0064015407 0.0002641019 0.9999795 0 0 0 0 1 0.9990902 0.041188225 0.011057948 12.099998 -0.0411485 0.9991458 -0.003796197 0 -0.01120486 0.0033377255 0.99993163 0 0 0 0 1 0.99920046 0.03758305 0.013634712 12.099998 -0.037486617 0.99927074 -0.007260647 0 -0.013897647 0.006743723 0.9998807 0 0 0 0 1 0.9993299 0.034077577 0.013357071 12.099998 -0.033934243 0.99936557 -0.010814715 0 -0.013717135 0.010354206 0.9998523 0 0 0 0 1 0.9994894 0.030878445 0.008213398 12.099998 -0.030758793 0.99942434 -0.014315637 0 -0.008650714 0.0140556935 0.9998638 0 0 0 0 1 0.99959546 0.028177088 -0.0038704444 12.099998 -0.028241115 0.99944574 -0.017626077 0 0.0033716476 0.01772825 0.99983716 0 0 0 0 1 0.9994288 0.0261919 -0.021356095 12.099998 -0.02663325 0.99943197 -0.020650519 0 0.020803086 0.021207506 0.9995586 0 0 0 0 1 0.99880487 0.025169166 -0.04189669 12.099998 -0.026160209 0.9993867 -0.023276644 0 0.04128514 0.024344852 0.99885076 0 0 0 0 1 0.9976864 0.025200484 -0.06314111 12.099998 -0.026847584 0.9993174 -0.025374668 0 0.062458556 0.027011147 0.997682 0 0 0 0 1 0.99618334 0.026073456 -0.08329999 12.099998 -0.028395746 0.999237 -0.02681642 0 0.08253723 0.029079437 0.99616367 0 0 0 0 1 0.99461997 0.027619034 -0.09984135 12.099998 -0.030505732 0.9991562 -0.027502472 0 0.09899751 0.03040024 0.9946232 0 0 0 0 1 0.99461997 0.027619034 -0.09984135 12.099998 -0.030505732 0.9991562 -0.027502472 0 0.09899751 0.03040024 0.9946232 0 0 0 0 1</float_array>
        <technique_common>
          <accessor source="#Motion_54_Spine2_transform_pose_array_id" count="16" stride="16">
            <param name="TRANSFORM" type="float4x4" />
          </accessor>
        </technique_common>
      </source>
      <sampler id="Motion_54_Spine2_transform_samp_id">
        <input semantic="INPUT" source="#Motion_54_Spine2_transform_frame_id" />
        <input semantic="INTERPOLATION" source="#Motion_54_Spine2_transform_interp_id" />
        <input semantic="OUTPUT" source="#Motion_54_Spine2_transform_pose_id" />
      </sampler>
      <channel source="#Motion_54_Spine2_transform_samp_id" target="Spine2_bone_id/transform" />
    </animation>
    <animation id="Motion_54_Spine3_transform_id" name="Motion_54_Spine3_transform">
      <source id="Motion_54_Spine3_transform_frame_id" name="Motion_54_Spine3_transform_frame">
        <float_array id="Motion_54_Spine3_transform_frame_array_id" count="16">0 0.033333335 0.06666667 0.1 0.13333334 0.16666667 0.2 0.23333333 0.26666668 0.3 0.33333334 0.36666667 0.4 0.43333334 0.46666667 0.5</float_array>
        <technique_common>
          <accessor source="#Motion_54_Spine3_transform_frame_array_id" count="16" stride="1">
            <param name="TIME" type="float" />
          </accessor>
        </technique_common>
      </source>
      <source id="Motion_54_Spine3_transform_interp_id" name="Motion_54_Spine3_transform_interp">
        <Name_array id="Motion_54_Spine3_transform_interp_array_id" count="16">LINEAR LINEAR LINEAR LINEAR LINEAR LINEAR LINEAR LINEAR LINEAR LINEAR LINEAR LINEAR LINEAR LINEAR LINEAR LINEAR</Name_array>
        <technique_common>
          <accessor source="#Motion_54_Spine3_transform_interp_array_id" count="16" stride="1">
            <param name="INTERPOLATION" type="Name" />
          </accessor>
        </technique_common>
      </source>
      <source id="Motion_54_Spine3_transform_pose_id" name="Motion_54_Spine3_transform_pose">
        <float_array id="Motion_54_Spine3_transform_pose_array_id" count="256">0.99101657 0.04700717 0.12520567 12.099991 -0.046977494 0.9988909 -0.0031912117 0 -0.12521681 -0.0027193045 0.9921257 0 0 0 0 1 0.99158686 0.04629109 0.120882526 12.099991 -0.046211846 0.9989257 -0.0034603905 0 -0.12091285 -0.0021549268 0.99266076 0 0 0 0 1 0.99294657 0.04513278 0.10963672 12.099991 -0.044992 0.9989803 -0.0037587928 0 -0.10969456 -0.0012004948 0.9939646 0 0 0 0 1 0.9947023 0.043564375 0.09311017 12.099991 -0.043366242 0.9990506 -0.004151189 0 -0.09320261 9.135972E-05 0.99564713 0 0 0 0 1 0.9964178 0.041617867 0.07361681 12.099991 -0.04138277 0.9991322 -0.004716609 0 -0.07374922 0.0016532458 0.9972755 0 0 0 0 1 0.9977936 0.039330564 0.05348876 12.099991 -0.039090514 0.9992204 -0.0055271145 0 -0.053664446 0.0034240165 0.99855316 0 0 0 0 1 0.9987089 0.036747966 0.035073083 12.099991 -0.036536787 0.99931026 -0.0066434075 0 -0.035293024 0.005353372 0.99936265 0 0 0 0 1 0.99920946 0.03392583 0.020722922 12.099991 -0.033763967 0.9993969 -0.008111648 0 -0.020985618 0.0074055484 0.99975234 0 0 0 0 1 0.9994436 0.030929929 0.01248421 12.099991 -0.030806554 0.9994758 -0.00995669 0 -0.012785625 0.009566555 0.9998725 0 0 0 0 1 0.9995544 0.027827155 0.01080305 12.099991 -0.027697034 0.99954414 -0.012013311 0 -0.011132422 0.011708744 0.99986947 0 0 0 0 1 0.99957967 0.024681395 0.015210346 12.099991 -0.02446811 0.99960184 -0.014052445 0 -0.015551125 0.013674369 0.99978554 0 0 0 0 1 0.9994782 0.021469353 0.024131166 12.099991 -0.021087656 0.9996502 -0.015962327 0 -0.024465425 0.015445129 0.99958134 0 0 0 0 1 0.9991905 0.018241782 0.035855453 12.099991 -0.017617892 0.99968916 -0.017639795 0 -0.03616609 0.016993819 0.9992013 0 0 0 0 1 0.99869984 0.015158209 0.04867085 12.099991 -0.014247869 0.999718 -0.018996777 0 -0.048945084 0.018278623 0.9986342 0 0 0 0 1 0.9980693 0.012370934 0.060866088 12.099991 -0.011174296 0.9997383 -0.01996145 0 -0.0610971 0.019242775 0.9979463 0 0 0 0 1 0.9980693 0.012370934 0.060866088 12.099991 -0.011174296 0.9997383 -0.01996145 0 -0.0610971 0.019242775 0.9979463 0 0 0 0 1</float_array>
        <technique_common>
          <accessor source="#Motion_54_Spine3_transform_pose_array_id" count="16" stride="16">
            <param name="TRANSFORM" type="float4x4" />
          </accessor>
        </technique_common>
      </source>
      <sampler id="Motion_54_Spine3_transform_samp_id">
        <input semantic="INPUT" source="#Motion_54_Spine3_transform_frame_id" />
        <input semantic="INTERPOLATION" source="#Motion_54_Spine3_transform_interp_id" />
        <input semantic="OUTPUT" source="#Motion_54_Spine3_transform_pose_id" />
      </sampler>
      <channel source="#Motion_54_Spine3_transform_samp_id" target="Spine3_bone_id/transform" />
    </animation>
    <animation id="Motion_54_RShoulder_transform_id" name="Motion_54_RShoulder_transform">
      <source id="Motion_54_RShoulder_transform_frame_id" name="Motion_54_RShoulder_transform_frame">
        <float_array id="Motion_54_RShoulder_transform_frame_array_id" count="16">0 0.033333335 0.06666667 0.1 0.13333334 0.16666667 0.2 0.23333333 0.26666668 0.3 0.33333334 0.36666667 0.4 0.43333334 0.46666667 0.5</float_array>
        <technique_common>
          <accessor source="#Motion_54_RShoulder_transform_frame_array_id" count="16" stride="1">
            <param name="TIME" type="float" />
          </accessor>
        </technique_common>
      </source>
      <source id="Motion_54_RShoulder_transform_interp_id" name="Motion_54_RShoulder_transform_interp">
        <Name_array id="Motion_54_RShoulder_transform_interp_array_id" count="16">LINEAR LINEAR LINEAR LINEAR LINEAR LINEAR LINEAR LINEAR LINEAR LINEAR LINEAR LINEAR LINEAR LINEAR LINEAR LINEAR</Name_array>
        <technique_common>
          <accessor source="#Motion_54_RShoulder_transform_interp_array_id" count="16" stride="1">
            <param name="INTERPOLATION" type="Name" />
          </accessor>
        </technique_common>
      </source>
      <source id="Motion_54_RShoulder_transform_pose_id" name="Motion_54_RShoulder_transform_pose">
        <float_array id="Motion_54_RShoulder_transform_pose_array_id" count="256">-0.62482774 -0.7706239 -0.12541568 14.14009 0.78057873 -0.6200546 -0.07892479 3.93 -0.016943239 -0.14721121 0.98895997 -0.20193532 0 0 0 1 -0.62562776 -0.77088904 -0.11966613 14.14009 0.7799672 -0.62115455 -0.07627769 3.93 -0.015529525 -0.14105709 0.98987967 -0.20193532 0 0 0 1 -0.62629926 -0.77252 -0.10469993 14.14009 0.7794867 -0.62265706 -0.06854673 3.93 -0.012238443 -0.12454297 0.99213874 -0.20193532 0 0 0 1 -0.6263946 -0.7750989 -0.082774304 14.14009 0.77946436 -0.6239202 -0.056205705 3.93 -0.0080795735 -0.09972656 0.99498206 -0.20193532 0 0 0 1 -0.62551284 -0.77812 -0.057123415 14.14009 0.7802004 -0.62425435 -0.039924815 3.93 -0.00459324 -0.06954119 0.9975685 -0.20193532 0 0 0 1 -0.62326074 -0.7813999 -0.030989096 14.14009 0.7820069 -0.62293565 -0.020406548 3.93 -0.0033585364 -0.036952287 0.9993114 -0.20193532 0 0 0 1 -0.6192093 -0.7851932 -0.007186734 14.14009 0.7852063 -0.6192328 0.0014255868 3.93 -0.005569621 -0.0047603324 0.9999732 -0.20193532 0 0 0 1 -0.6130258 -0.7899572 0.01291328 14.14009 0.78998595 -0.61265635 0.023965424 3.93 -0.011020257 0.024892734 0.9996294 -0.20193532 0 0 0 1 -0.60532904 -0.7954757 0.02820096 14.14009 0.79574466 -0.6039206 0.045502197 3.93 -0.019164754 0.049984563 0.9985661 -0.20193532 0 0 0 1 -0.5970104 -0.8013035 0.038617313 14.14009 0.8017107 -0.59419227 0.06477195 3.93 -0.028955884 0.069629446 0.99715257 -0.20193532 0 0 0 1 -0.58900666 -0.8068527 0.045393653 14.14009 0.8071767 -0.5846585 0.08149169 3.93 -0.039212003 0.08463981 0.99563974 -0.20193532 0 0 0 1 -0.5818831 -0.81177825 0.049279775 14.14009 0.8117892 -0.5760963 0.09545507 3.93 -0.04909845 0.09554846 0.99421316 -0.20193532 0 0 0 1 -0.57568574 -0.8160754 0.051055957 14.14009 0.81562406 -0.5687088 0.10643049 3.93 -0.057819333 0.102913 0.9930085 -0.20193532 0 0 0 1 -0.5706247 -0.81959575 0.05147987 14.14009 0.818669 -0.56281114 0.11412602 3.93 -0.064563766 0.1072681 0.9921316 -0.20193532 0 0 0 1 -0.5669873 -0.8221074 0.051620863 14.14009 0.82084507 -0.55865645 0.11881165 3.93 -0.06883761 0.10973744 0.99157405 -0.20193532 0 0 0 1 -0.5669873 -0.8221074 0.051620863 14.14009 0.82084507 -0.55865645 0.11881165 3.93 -0.06883761 0.10973744 0.99157405 -0.20193532 0 0 0 1</float_array>
        <technique_common>
          <accessor source="#Motion_54_RShoulder_transform_pose_array_id" count="16" stride="16">
            <param name="TRANSFORM" type="float4x4" />
          </accessor>
        </technique_common>
      </source>
      <sampler id="Motion_54_RShoulder_transform_samp_id">
        <input semantic="INPUT" source="#Motion_54_RShoulder_transform_frame_id" />
        <input semantic="INTERPOLATION" source="#Motion_54_RShoulder_transform_interp_id" />
        <input semantic="OUTPUT" source="#Motion_54_RShoulder_transform_pose_id" />
      </sampler>
      <channel source="#Motion_54_RShoulder_transform_samp_id" target="RShoulder_bone_id/transform" />
    </animation>
    <animation id="Motion_54_RArm_transform_id" name="Motion_54_RArm_transform">
      <source id="Motion_54_RArm_transform_frame_id" name="Motion_54_RArm_transform_frame">
        <float_array id="Motion_54_RArm_transform_frame_array_id" count="16">0 0.033333335 0.06666667 0.1 0.13333334 0.16666667 0.2 0.23333333 0.26666668 0.3 0.33333334 0.36666667 0.4 0.43333334 0.46666667 0.5</float_array>
        <technique_common>
          <accessor source="#Motion_54_RArm_transform_frame_array_id" count="16" stride="1">
            <param name="TIME" type="float" />
          </accessor>
        </technique_common>
      </source>
      <source id="Motion_54_RArm_transform_interp_id" name="Motion_54_RArm_transform_interp">
        <Name_array id="Motion_54_RArm_transform_interp_array_id" count="16">LINEAR LINEAR LINEAR LINEAR LINEAR LINEAR LINEAR LINEAR LINEAR LINEAR LINEAR LINEAR LINEAR LINEAR LINEAR LINEAR</Name_array>
        <technique_common>
          <accessor source="#Motion_54_RArm_transform_interp_array_id" count="16" stride="1">
            <param name="INTERPOLATION" type="Name" />
          </accessor>
        </technique_common>
      </source>
      <source id="Motion_54_RArm_transform_pose_id" name="Motion_54_RArm_transform_pose">
        <float_array id="Motion_54_RArm_transform_pose_array_id" count="256">0.7705058 -0.50266844 -0.39197618 8.161548 0.60284287 0.7744496 0.19185501 0 0.20712633 -0.3841254 0.89974797 0 0 0 0 1 0.77276593 -0.49978474 -0.39121354 8.161548 0.6001693 0.77592736 0.19425127 0 0.20646948 -0.38490513 0.8995657 0 0 0 0 1 0.77664864 -0.49621597 -0.38805482 8.161548 0.5952158 0.77975523 0.19416463 0 0.2062402 -0.38177407 0.90095145 0 0 0 0 1 0.7820848 -0.49238294 -0.38197175 8.161548 0.58777004 0.7864917 0.1896238 0 0.20705006 -0.37281343 0.90451115 0 0 0 0 1 0.7874682 -0.48926833 -0.37484723 8.161548 0.5794616 0.7949351 0.1797291 0 0.21004349 -0.3587405 0.9094982 0 0 0 0 1 0.7915671 -0.48749876 -0.36846498 8.161548 0.57130384 0.8043698 0.16309842 0 0.21687183 -0.33960882 0.91522264 0 0 0 0 1 0.7932497 -0.48786193 -0.36434275 8.161548 0.5641908 0.8139511 0.13846421 0 0.22900575 -0.31539553 0.9209137 0 0 0 0 1 0.7910012 -0.49111053 -0.36486655 8.161548 0.55887216 0.82267195 0.104272865 0 0.24895597 -0.2863937 0.9252024 0 0 0 0 1 0.78386736 -0.49773875 -0.37122503 8.161548 0.5551716 0.8295691 0.05999653 0 0.2780942 -0.25312293 0.9266026 0 0 0 0 1 0.77313197 -0.5073188 -0.38065022 8.161548 0.5518531 0.8338874 0.009479895 0 0.3126101 -0.21739225 0.9246705 0 0 0 0 1 0.7604392 -0.5190292 -0.3903087 8.161548 0.54828733 0.835213 -0.042429812 0 0.3480132 -0.18173602 0.91970587 0 0 0 0 1 0.74775064 -0.5317261 -0.3976636 8.161548 0.5445602 0.83378124 -0.09090114 0 0.37989897 -0.14858037 0.91301733 0 0 0 0 1 0.73730665 -0.5440062 -0.4005448 8.161548 0.54143834 0.83043796 -0.13121456 0 0.40400913 -0.12012493 0.9068333 0 0 0 0 1 0.73107326 -0.5542713 -0.3978884 8.161548 0.54003483 0.82647634 -0.15905736 0 0.41700628 -0.098590985 0.90354055 0 0 0 0 1 0.73103994 -0.56144017 -0.38776997 8.161548 0.5414737 0.8231442 -0.17099664 0 0.41519502 -0.08496186 0.90575635 0 0 0 0 1 0.73103994 -0.56144017 -0.38776997 8.161548 0.5414737 0.8231442 -0.17099664 0 0.41519502 -0.08496186 0.90575635 0 0 0 0 1</float_array>
        <technique_common>
          <accessor source="#Motion_54_RArm_transform_pose_array_id" count="16" stride="16">
            <param name="TRANSFORM" type="float4x4" />
          </accessor>
        </technique_common>
      </source>
      <sampler id="Motion_54_RArm_transform_samp_id">
        <input semantic="INPUT" source="#Motion_54_RArm_transform_frame_id" />
        <input semantic="INTERPOLATION" source="#Motion_54_RArm_transform_interp_id" />
        <input semantic="OUTPUT" source="#Motion_54_RArm_transform_pose_id" />
      </sampler>
      <channel source="#Motion_54_RArm_transform_samp_id" target="RArm_bone_id/transform" />
    </animation>
    <animation id="Motion_54_RForeArm_transform_id" name="Motion_54_RForeArm_transform">
      <source id="Motion_54_RForeArm_transform_frame_id" name="Motion_54_RForeArm_transform_frame">
        <float_array id="Motion_54_RForeArm_transform_frame_array_id" count="16">0 0.033333335 0.06666667 0.1 0.13333334 0.16666667 0.2 0.23333333 0.26666668 0.3 0.33333334 0.36666667 0.4 0.43333334 0.46666667 0.5</float_array>
        <technique_common>
          <accessor source="#Motion_54_RForeArm_transform_frame_array_id" count="16" stride="1">
            <param name="TIME" type="float" />
          </accessor>
        </technique_common>
      </source>
      <source id="Motion_54_RForeArm_transform_interp_id" name="Motion_54_RForeArm_transform_interp">
        <Name_array id="Motion_54_RForeArm_transform_interp_array_id" count="16">LINEAR LINEAR LINEAR LINEAR LINEAR LINEAR LINEAR LINEAR LINEAR LINEAR LINEAR LINEAR LINEAR LINEAR LINEAR LINEAR</Name_array>
        <technique_common>
          <accessor source="#Motion_54_RForeArm_transform_interp_array_id" count="16" stride="1">
            <param name="INTERPOLATION" type="Name" />
          </accessor>
        </technique_common>
      </source>
      <source id="Motion_54_RForeArm_transform_pose_id" name="Motion_54_RForeArm_transform_pose">
        <float_array id="Motion_54_RForeArm_transform_pose_array_id" count="256">0.5560932 -1.7484555E-07 -0.83111995 22.9 9.723043E-08 1 -1.4531761E-07 0 0.83111995 7.1054274E-15 0.5560932 0 0 0 0 1 0.5540918 -1.7481042E-07 -0.8324556 22.9 9.703609E-08 1 -1.4540538E-07 0 0.8324556 -2.1030644E-10 0.5540918 0 0 0 0 1 0.5494579 -1.7472803E-07 -0.8355214 22.9 9.6586916E-08 1 -1.4560678E-07 0 0.8355214 -6.9563555E-10 0.5494579 0 0 0 0 1 0.54061353 -1.745667E-07 -0.8412711 22.9 9.573243E-08 1 -1.4598439E-07 0 0.8412711 -1.6157884E-09 0.54061353 0 0 0 0 1 0.5276122 -1.7432001E-07 -0.8494854 22.9 9.448289E-08 1 -1.4652363E-07 0 0.8494854 -2.954188E-09 0.5276122 0 0 0 0 1 0.51010305 -1.7397043E-07 -0.8601133 22.9 9.28119E-08 1 -1.4722107E-07 0 0.8601133 -4.730822E-09 0.51010305 0 0 0 0 1 0.48769265 -1.734949E-07 -0.8730154 22.9 9.069163E-08 1 -1.4806754E-07 0 0.8730154 -6.963731E-09 0.48769265 0 0 0 0 1 0.4599455 -1.7286428E-07 -0.88794714 22.9 8.809312E-08 1 -1.4904742E-07 0 0.88794714 -9.668334E-09 0.4599455 0 0 0 0 1 0.42692232 -1.720562E-07 -0.9042883 22.9 8.5035495E-08 1 -1.50121E-07 0 0.9042883 -1.2806595E-08 0.42692232 0 0 0 0 1 0.38978302 -1.7107637E-07 -0.9209067 22.9 8.1637566E-08 1 -1.5121556E-07 0 0.9209067 -1.6239326E-08 0.38978302 0 0 0 0 1 0.34979826 -1.6994133E-07 -0.93682504 22.9 7.802225E-08 1 -1.5226887E-07 0 0.93682504 -1.9829827E-08 0.34979826 0 0 0 0 1 0.3083508 -1.68681E-07 -0.9512728 22.9 7.4316176E-08 1 -1.5323212E-07 0 0.9512728 -2.34457E-08 0.3083508 0 0 0 0 1 0.2669239 -1.6733915E-07 -0.96371764 22.9 7.064893E-08 1 -1.5407133E-07 0 0.96371764 -2.6960294E-08 0.2669239 0 0 0 0 1 0.22707355 -1.6597323E-07 -0.97387767 22.9 6.715186E-08 1 -1.5476772E-07 0 0.97387767 -3.0254036E-08 0.22707355 0 0 0 0 1 0.19039881 -1.6465248E-07 -0.9817068 22.9 6.395673E-08 1 -1.5531643E-07 0 0.9817068 -3.3214704E-08 0.19039881 0 0 0 0 1 0.19039881 -1.6465248E-07 -0.9817068 22.9 6.395673E-08 1 -1.5531643E-07 0 0.9817068 -3.3214704E-08 0.19039881 0 0 0 0 1</float_array>
        <technique_common>
          <accessor source="#Motion_54_RForeArm_transform_pose_array_id" count="16" stride="16">
            <param name="TRANSFORM" type="float4x4" />
          </accessor>
        </technique_common>
      </source>
      <sampler id="Motion_54_RForeArm_transform_samp_id">
        <input semantic="INPUT" source="#Motion_54_RForeArm_transform_frame_id" />
        <input semantic="INTERPOLATION" source="#Motion_54_RForeArm_transform_interp_id" />
        <input semantic="OUTPUT" source="#Motion_54_RForeArm_transform_pose_id" />
      </sampler>
      <channel source="#Motion_54_RForeArm_transform_samp_id" target="RForeArm_bone_id/transform" />
    </animation>
    <animation id="Motion_54_RHand_transform_id" name="Motion_54_RHand_transform">
      <source id="Motion_54_RHand_transform_frame_id" name="Motion_54_RHand_transform_frame">
        <float_array id="Motion_54_RHand_transform_frame_array_id" count="16">0 0.033333335 0.06666667 0.1 0.13333334 0.16666667 0.2 0.23333333 0.26666668 0.3 0.33333334 0.36666667 0.4 0.43333334 0.46666667 0.5</float_array>
        <technique_common>
          <accessor source="#Motion_54_RHand_transform_frame_array_id" count="16" stride="1">
            <param name="TIME" type="float" />
          </accessor>
        </technique_common>
      </source>
      <source id="Motion_54_RHand_transform_interp_id" name="Motion_54_RHand_transform_interp">
        <Name_array id="Motion_54_RHand_transform_interp_array_id" count="16">LINEAR LINEAR LINEAR LINEAR LINEAR LINEAR LINEAR LINEAR LINEAR LINEAR LINEAR LINEAR LINEAR LINEAR LINEAR LINEAR</Name_array>
        <technique_common>
          <accessor source="#Motion_54_RHand_transform_interp_array_id" count="16" stride="1">
            <param name="INTERPOLATION" type="Name" />
          </accessor>
        </technique_common>
      </source>
      <source id="Motion_54_RHand_transform_pose_id" name="Motion_54_RHand_transform_pose">
        <float_array id="Motion_54_RHand_transform_pose_array_id" count="256">0.8857621 0.46139562 -0.050394297 22.900002 -0.17870273 0.43922496 0.88042414 0 0.4283583 -0.77084076 0.47150153 0 0 0 0 1 0.89313185 0.4465258 -0.05413091 22.900002 -0.17372906 0.45346332 0.8741792 0 0.41488996 -0.7713532 0.48257703 0 0 0 0 1 0.9099384 0.41126722 -0.05358517 22.900002 -0.17399381 0.49582064 0.85081613 0 0.3764814 -0.7648668 0.52272415 0 0 0 0 1 0.9310748 0.36164373 -0.048099324 22.900002 -0.17668402 0.56232584 0.80781955 0 0.31919032 -0.74364203 0.5874641 0 0 0 0 1 0.9509727 0.30697468 -0.037649766 22.900002 -0.1792149 0.6461736 0.7418502 0 0.2520575 -0.69873184 0.66950786 0 0 0 0 1 0.9664244 0.25573614 -0.024957456 22.900002 -0.17887223 0.73930967 0.6491733 0 0.18446836 -0.6229127 0.760231 0 0 0 0 1 0.9769686 0.21273912 -0.016566355 22.900002 -0.17232572 0.8323928 0.5267125 0 0.12584206 -0.5117267 0.8498821 0 0 0 0 1 0.9835931 0.17912059 -0.021456867 22.900002 -0.158343 0.9141893 0.37307566 0 0.086441174 -0.3635571 0.92755276 0 0 0 0 1 0.98776114 0.1487429 -0.046941444 22.900002 -0.13751225 0.9725014 0.18796653 0 0.07360931 -0.17921099 0.98105305 0 0 0 0 1 0.9901378 0.11099293 -0.08548482 22.900002 -0.11518838 0.9922871 -0.045803662 0 0.0797416 0.0551988 0.99528605 0 0 0 0 1 0.99063975 0.05873841 -0.123218104 22.900002 -0.09385684 0.9485462 -0.30240873 0 0.09911506 0.31114295 0.94518054 0 0 0 0 1 0.9886404 -0.009719636 -0.14998561 22.900002 -0.07459894 0.83458287 -0.5458081 0 0.13048047 0.5507966 0.82437724 0 0 0 0 1 0.98366123 -0.08959381 -0.15615232 22.900002 -0.05748661 0.6656462 -0.7440499 0 0.17060448 0.74086976 0.64961994 0 0 0 0 1 0.97540545 -0.16865231 -0.14191747 22.900002 -0.04456888 0.47964728 -0.87632877 0 0.2158652 0.861101 0.46033394 0 0 0 0 1 0.96371114 -0.23998709 -0.11690586 22.900002 -0.036385402 0.31575966 -0.94814134 0 0.26445583 0.91798806 0.29556906 0 0 0 0 1 0.96371114 -0.23998709 -0.11690586 22.900002 -0.036385402 0.31575966 -0.94814134 0 0.26445583 0.91798806 0.29556906 0 0 0 0 1</float_array>
        <technique_common>
          <accessor source="#Motion_54_RHand_transform_pose_array_id" count="16" stride="16">
            <param name="TRANSFORM" type="float4x4" />
          </accessor>
        </technique_common>
      </source>
      <sampler id="Motion_54_RHand_transform_samp_id">
        <input semantic="INPUT" source="#Motion_54_RHand_transform_frame_id" />
        <input semantic="INTERPOLATION" source="#Motion_54_RHand_transform_interp_id" />
        <input semantic="OUTPUT" source="#Motion_54_RHand_transform_pose_id" />
      </sampler>
      <channel source="#Motion_54_RHand_transform_samp_id" target="RHand_bone_id/transform" />
    </animation>
    <animation id="Motion_54_LShoulder_transform_id" name="Motion_54_LShoulder_transform">
      <source id="Motion_54_LShoulder_transform_frame_id" name="Motion_54_LShoulder_transform_frame">
        <float_array id="Motion_54_LShoulder_transform_frame_array_id" count="16">0 0.033333335 0.06666667 0.1 0.13333334 0.16666667 0.2 0.23333333 0.26666668 0.3 0.33333334 0.36666667 0.4 0.43333334 0.46666667 0.5</float_array>
        <technique_common>
          <accessor source="#Motion_54_LShoulder_transform_frame_array_id" count="16" stride="1">
            <param name="TIME" type="float" />
          </accessor>
        </technique_common>
      </source>
      <source id="Motion_54_LShoulder_transform_interp_id" name="Motion_54_LShoulder_transform_interp">
        <Name_array id="Motion_54_LShoulder_transform_interp_array_id" count="16">LINEAR LINEAR LINEAR LINEAR LINEAR LINEAR LINEAR LINEAR LINEAR LINEAR LINEAR LINEAR LINEAR LINEAR LINEAR LINEAR</Name_array>
        <technique_common>
          <accessor source="#Motion_54_LShoulder_transform_interp_array_id" count="16" stride="1">
            <param name="INTERPOLATION" type="Name" />
          </accessor>
        </technique_common>
      </source>
      <source id="Motion_54_LShoulder_transform_pose_id" name="Motion_54_LShoulder_transform_pose">
        <float_array id="Motion_54_LShoulder_transform_pose_array_id" count="256">-0.60651183 0.78506863 -0.12574038 14.14009 -0.7942091 -0.6056038 0.049757883 -3.930001 -0.037085503 0.1300429 0.99081457 -0.20193632 0 0 0 1 -0.6059269 0.7861657 -0.121638566 14.14009 -0.7948773 -0.6044642 0.05284888 -3.930001 -0.03197819 0.1287103 0.99116653 -0.20193632 0 0 0 1 -0.60540223 0.78817165 -0.1107872 14.14009 -0.7957001 -0.6026138 0.060977202 -3.930001 -0.01870139 0.1250691 0.9919718 -0.20193632 0 0 0 1 -0.60389173 0.791338 -0.09538616 14.14009 -0.79706484 -0.5993339 0.07406977 -3.930001 0.0014460571 0.1207591 0.9926808 -0.20193632 0 0 0 1 -0.6011965 0.79526764 -0.07817727 14.14009 -0.79868203 -0.5948318 0.09100336 -3.930001 0.025869679 0.117149726 0.9927773 -0.20193632 0 0 0 1 -0.5971414 0.7997319 -0.062053215 14.14009 -0.800438 -0.58906126 0.110929914 -3.930001 0.05216104 0.11591063 0.99188906 -0.20193632 0 0 0 1 -0.5920347 0.8044252 -0.04893125 14.14009 -0.8020633 -0.5821936 0.13320793 -3.930001 0.07866836 0.118109725 0.9898795 -0.20193632 0 0 0 1 -0.5860326 0.80933034 -0.03937234 14.14009 -0.8035271 -0.57419324 0.15699197 -3.930001 0.10445103 0.12363916 0.98681474 -0.20193632 0 0 0 1 -0.57914174 0.81450963 -0.034193695 14.14009 -0.8050828 -0.56483567 0.18111503 -3.930001 0.1282061 0.13242 0.9828673 -0.20193632 0 0 0 1 -0.571771 0.81972533 -0.033592578 14.14009 -0.8067463 -0.5543319 0.20463791 -3.930001 0.14912543 0.14410672 0.9782611 -0.20193632 0 0 0 1 -0.5643079 0.82476 -0.03643612 14.14009 -0.80845755 -0.543138 0.22671048 -3.930001 0.1671919 0.15739156 0.97328043 -0.20193632 0 0 0 1 -0.5571729 0.82936054 -0.04146439 14.14009 -0.81013757 -0.5319394 0.24640948 -3.930001 0.18230577 0.17088455 0.9682784 -0.20193632 0 0 0 1 -0.5508331 0.8332685 -0.04739598 14.14009 -0.81167185 -0.52160263 0.26290572 -3.930001 0.1943492 0.18328717 0.96365666 -0.20193632 0 0 0 1 -0.5458001 0.83624136 -0.052940913 14.14009 -0.8129083 -0.51313245 0.27545494 -3.930001 0.20318112 0.19337943 0.9598551 -0.20193632 0 0 0 1 -0.5426121 0.83806 -0.056815147 14.14009 -0.81366014 -0.50760365 0.28336582 -3.930001 0.20863798 0.19998586 0.9573275 -0.20193632 0 0 0 1 -0.5426121 0.83806 -0.056815147 14.14009 -0.81366014 -0.50760365 0.28336582 -3.930001 0.20863798 0.19998586 0.9573275 -0.20193632 0 0 0 1</float_array>
        <technique_common>
          <accessor source="#Motion_54_LShoulder_transform_pose_array_id" count="16" stride="16">
            <param name="TRANSFORM" type="float4x4" />
          </accessor>
        </technique_common>
      </source>
      <sampler id="Motion_54_LShoulder_transform_samp_id">
        <input semantic="INPUT" source="#Motion_54_LShoulder_transform_frame_id" />
        <input semantic="INTERPOLATION" source="#Motion_54_LShoulder_transform_interp_id" />
        <input semantic="OUTPUT" source="#Motion_54_LShoulder_transform_pose_id" />
      </sampler>
      <channel source="#Motion_54_LShoulder_transform_samp_id" target="LShoulder_bone_id/transform" />
    </animation>
    <animation id="Motion_54_LArm_transform_id" name="Motion_54_LArm_transform">
      <source id="Motion_54_LArm_transform_frame_id" name="Motion_54_LArm_transform_frame">
        <float_array id="Motion_54_LArm_transform_frame_array_id" count="16">0 0.033333335 0.06666667 0.1 0.13333334 0.16666667 0.2 0.23333333 0.26666668 0.3 0.33333334 0.36666667 0.4 0.43333334 0.46666667 0.5</float_array>
        <technique_common>
          <accessor source="#Motion_54_LArm_transform_frame_array_id" count="16" stride="1">
            <param name="TIME" type="float" />
          </accessor>
        </technique_common>
      </source>
      <source id="Motion_54_LArm_transform_interp_id" name="Motion_54_LArm_transform_interp">
        <Name_array id="Motion_54_LArm_transform_interp_array_id" count="16">LINEAR LINEAR LINEAR LINEAR LINEAR LINEAR LINEAR LINEAR LINEAR LINEAR LINEAR LINEAR LINEAR LINEAR LINEAR LINEAR</Name_array>
        <technique_common>
          <accessor source="#Motion_54_LArm_transform_interp_array_id" count="16" stride="1">
            <param name="INTERPOLATION" type="Name" />
          </accessor>
        </technique_common>
      </source>
      <source id="Motion_54_LArm_transform_pose_id" name="Motion_54_LArm_transform_pose">
        <float_array id="Motion_54_LArm_transform_pose_array_id" count="256">0.8407101 0.46823734 -0.27195638 8.161509 -0.52754617 0.82149523 -0.21642688 0 0.12207173 0.32542184 0.93765616 0 0 0 0 1 0.8405411 0.4705114 -0.2685325 8.161509 -0.5279594 0.82255507 -0.21133387 0 0.1214478 0.31940907 0.9398022 0 0 0 0 1 0.8397124 0.47577804 -0.2617601 8.161509 -0.52899283 0.8255931 -0.19637352 0 0.12267714 0.30336648 0.94494396 0 0 0 0 1 0.8379092 0.48417857 -0.2519509 8.161509 -0.5310509 0.8298162 -0.17143503 0 0.12606779 0.27744573 0.9524341 0 0 0 0 1 0.8347049 0.49537212 -0.24057071 8.161509 -0.53435856 0.8341917 -0.13632731 0 0.13314934 0.2423441 0.9610102 0 0 0 0 1 0.8301651 0.5082902 -0.22905672 8.161509 -0.53814566 0.8379271 -0.09098006 0 0.14568856 0.19879436 0.96915203 0 0 0 0 1 0.82446754 0.5218466 -0.21892771 8.161509 -0.54117686 0.8401642 -0.035381302 0 0.16547161 0.14764935 0.9750994 0 0 0 0 1 0.8171809 0.53504884 -0.21433184 8.161509 -0.54178333 0.8399411 0.031140849 0 0.196688 0.090673715 0.97626436 0 0 0 0 1 0.80749774 0.54808307 -0.21806507 8.161509 -0.53817225 0.8358816 0.10803984 0 0.24149139 0.03011464 0.9699356 0 0 0 0 1 0.79543304 0.56195027 -0.2269322 8.161509 -0.52977985 0.8265955 0.18992946 0 0.29431203 -0.03085205 0.9552113 0 0 0 0 1 0.78159434 0.5768171 -0.23747087 8.161509 -0.51711243 0.8120526 0.27049085 0 0.3488626 -0.08861499 0.93297493 0 0 0 0 1 0.76713324 0.5922165 -0.24654841 8.161509 -0.5020999 0.79353166 0.34380692 0 0.39925212 -0.1399538 0.9060964 0 0 0 0 1 0.75406885 0.6066739 -0.25164855 8.161509 -0.48746806 0.77373415 0.4046114 0 0.44017625 -0.18243426 0.87918293 0 0 0 0 1 0.7449355 0.61834544 -0.2504396 8.161509 -0.47624025 0.7557719 0.44944873 0 0.46718976 -0.21554092 0.85748225 0 0 0 0 1 0.74158096 0.6257836 -0.24176945 8.161509 -0.4718048 0.7426962 0.47518682 0 0.47692543 -0.23832153 0.8460171 0 0 0 0 1 0.74158096 0.6257836 -0.24176945 8.161509 -0.4718048 0.7426962 0.47518682 0 0.47692543 -0.23832153 0.8460171 0 0 0 0 1</float_array>
        <technique_common>
          <accessor source="#Motion_54_LArm_transform_pose_array_id" count="16" stride="16">
            <param name="TRANSFORM" type="float4x4" />
          </accessor>
        </technique_common>
      </source>
      <sampler id="Motion_54_LArm_transform_samp_id">
        <input semantic="INPUT" source="#Motion_54_LArm_transform_frame_id" />
        <input semantic="INTERPOLATION" source="#Motion_54_LArm_transform_interp_id" />
        <input semantic="OUTPUT" source="#Motion_54_LArm_transform_pose_id" />
      </sampler>
      <channel source="#Motion_54_LArm_transform_samp_id" target="LArm_bone_id/transform" />
    </animation>
    <animation id="Motion_54_LForeArm_transform_id" name="Motion_54_LForeArm_transform">
      <source id="Motion_54_LForeArm_transform_frame_id" name="Motion_54_LForeArm_transform_frame">
        <float_array id="Motion_54_LForeArm_transform_frame_array_id" count="16">0 0.033333335 0.06666667 0.1 0.13333334 0.16666667 0.2 0.23333333 0.26666668 0.3 0.33333334 0.36666667 0.4 0.43333334 0.46666667 0.5</float_array>
        <technique_common>
          <accessor source="#Motion_54_LForeArm_transform_frame_array_id" count="16" stride="1">
            <param name="TIME" type="float" />
          </accessor>
        </technique_common>
      </source>
      <source id="Motion_54_LForeArm_transform_interp_id" name="Motion_54_LForeArm_transform_interp">
        <Name_array id="Motion_54_LForeArm_transform_interp_array_id" count="16">LINEAR LINEAR LINEAR LINEAR LINEAR LINEAR LINEAR LINEAR LINEAR LINEAR LINEAR LINEAR LINEAR LINEAR LINEAR LINEAR</Name_array>
        <technique_common>
          <accessor source="#Motion_54_LForeArm_transform_interp_array_id" count="16" stride="1">
            <param name="INTERPOLATION" type="Name" />
          </accessor>
        </technique_common>
      </source>
      <source id="Motion_54_LForeArm_transform_pose_id" name="Motion_54_LForeArm_transform_pose">
        <float_array id="Motion_54_LForeArm_transform_pose_array_id" count="256">0.40401405 -0.0017693768 -0.914751 22.9 0.0013870975 0.99999815 -0.0013216346 0 0.9147517 -0.00073489 0.40401578 0 0 0 0 1 0.40730256 -0.0017420833 -0.91329163 22.9 0.0013640192 0.9999982 -0.0012991597 0 0.9132922 -0.00071659626 0.40730423 0 0 0 0 1 0.41470093 -0.0017161024 -0.90995616 22.9 0.0013438297 0.9999983 -0.0012734813 0 0.90995675 -0.0006947123 0.41470253 0 0 0 0 1 0.42845106 -0.0016941443 -0.90356344 22.9 0.0013295297 0.99999833 -0.0012445204 0 0.90356404 -0.0006680982 0.4284526 0 0 0 0 1 0.44787335 -0.0016772316 -0.8940954 22.9 0.0013216627 0.9999984 -0.0012138431 0 0.894096 -0.0006380447 0.44787484 0 0 0 0 1 0.4727081 -0.001666688 -0.8812175 22.9 0.0013212474 0.99999845 -0.0011825922 0 0.8812181 -0.0006052855 0.47270954 0 0 0 0 1 0.5021924 -0.0016636674 -0.86475426 22.9 0.0013290569 0.99999845 -0.0011520296 0 0.86475486 -0.0005707672 0.5021938 0 0 0 0 1 0.530746 -0.0016671183 -0.8475293 22.9 0.0013422122 0.99999845 -0.0011265002 0 0.8475299 -0.0005396786 0.5307474 0 0 0 0 1 0.5512539 -0.0016756103 -0.8343358 22.9 0.0013567597 0.99999845 -0.0011118886 0 0.8343364 -0.00051906024 0.55125535 0 0 0 0 1 0.55698454 -0.001688024 -0.83052117 22.9 0.0013689257 0.99999845 -0.001114422 0 0.83052176 -0.00051620597 0.556986 0 0 0 0 1 0.5430381 -0.001703712 -0.8397063 22.9 0.0013759813 0.9999984 -0.0011390876 0 0.8397069 -0.0005368522 0.54303956 0 0 0 0 1 0.5128093 -0.0017252633 -0.85850084 22.9 0.0013813538 0.99999833 -0.0011844944 0 0.85850143 -0.0005784738 0.5128108 0 0 0 0 1 0.47201174 -0.0017559724 -0.88159055 22.9 0.0013899424 0.9999983 -0.0012476316 0 0.88159114 -0.0006364632 0.47201335 0 0 0 0 1 0.42685825 -0.0017994745 -0.9043168 22.9 0.001406905 0.99999815 -0.0013257766 0 0.9043175 -0.00070636906 0.42685997 0 0 0 0 1 0.38258237 -0.0018593358 -0.92391956 22.9 0.0014367815 0.999998 -0.0014174879 0 0.9239203 -0.0007851646 0.38258427 0 0 0 0 1 0.38258237 -0.0018593358 -0.92391956 22.9 0.0014367815 0.999998 -0.0014174879 0 0.9239203 -0.0007851646 0.38258427 0 0 0 0 1</float_array>
        <technique_common>
          <accessor source="#Motion_54_LForeArm_transform_pose_array_id" count="16" stride="16">
            <param name="TRANSFORM" type="float4x4" />
          </accessor>
        </technique_common>
      </source>
      <sampler id="Motion_54_LForeArm_transform_samp_id">
        <input semantic="INPUT" source="#Motion_54_LForeArm_transform_frame_id" />
        <input semantic="INTERPOLATION" source="#Motion_54_LForeArm_transform_interp_id" />
        <input semantic="OUTPUT" source="#Motion_54_LForeArm_transform_pose_id" />
      </sampler>
      <channel source="#Motion_54_LForeArm_transform_samp_id" target="LForeArm_bone_id/transform" />
    </animation>
    <animation id="Motion_54_LHand_transform_id" name="Motion_54_LHand_transform">
      <source id="Motion_54_LHand_transform_frame_id" name="Motion_54_LHand_transform_frame">
        <float_array id="Motion_54_LHand_transform_frame_array_id" count="16">0 0.033333335 0.06666667 0.1 0.13333334 0.16666667 0.2 0.23333333 0.26666668 0.3 0.33333334 0.36666667 0.4 0.43333334 0.46666667 0.5</float_array>
        <technique_common>
          <accessor source="#Motion_54_LHand_transform_frame_array_id" count="16" stride="1">
            <param name="TIME" type="float" />
          </accessor>
        </technique_common>
      </source>
      <source id="Motion_54_LHand_transform_interp_id" name="Motion_54_LHand_transform_interp">
        <Name_array id="Motion_54_LHand_transform_interp_array_id" count="16">LINEAR LINEAR LINEAR LINEAR LINEAR LINEAR LINEAR LINEAR LINEAR LINEAR LINEAR LINEAR LINEAR LINEAR LINEAR LINEAR</Name_array>
        <technique_common>
          <accessor source="#Motion_54_LHand_transform_interp_array_id" count="16" stride="1">
            <param name="INTERPOLATION" type="Name" />
          </accessor>
        </technique_common>
      </source>
      <source id="Motion_54_LHand_transform_pose_id" name="Motion_54_LHand_transform_pose">
        <float_array id="Motion_54_LHand_transform_pose_array_id" count="256">0.94502133 -0.31419507 -0.090643175 22.900002 0.116977714 0.5836538 -0.8035325 0 0.30537018 0.7487521 0.5883191 0 0 0 0 1 0.9470432 -0.3055169 -0.09883621 22.900002 0.109578975 0.5968151 -0.79486114 0 0.30183044 0.74193746 0.5986879 0 0 0 0 1 0.95046073 -0.2894531 -0.113319255 22.900002 0.10258896 0.6362233 -0.7646538 0 0.29342777 0.7151481 0.63439995 0 0 0 0 1 0.95500934 -0.26590306 -0.13134968 22.900002 0.09615882 0.69658065 -0.71100557 0 0.2805542 0.6663865 0.6908099 0 0 0 0 1 0.96036774 -0.23530729 -0.14941326 22.900002 0.090391055 0.7699826 -0.6316298 0 0.2636727 0.59309125 0.7607361 0 0 0 0 1 0.96629524 -0.1987229 -0.16365413 22.900002 0.085326314 0.8470032 -0.52469516 0 0.2428845 0.49304643 0.8354115 0 0 0 0 1 0.9731449 -0.15774003 -0.16765189 22.900002 0.08148813 0.9172103 -0.38998082 0 0.21528763 0.3658462 0.9054324 0 0 0 0 1 0.9808196 -0.115898594 -0.15671784 22.900002 0.07806404 0.97029084 -0.22900143 0 0.17860284 0.21237507 0.96072775 0 0 0 0 1 0.9870317 -0.08199606 -0.13800372 22.900002 0.07653452 0.9960763 -0.044435997 0 0.14110582 0.03329769 0.98943436 0 0 0 0 1 0.9902736 -0.061023496 -0.12503737 22.900002 0.08221773 0.98164874 0.17206383 0 0.11224284 -0.18067056 0.9771181 0 0 0 0 1 0.99072987 -0.045985505 -0.12782648 22.900002 0.0935033 0.9134353 0.3960974 0 0.098546475 -0.40437773 0.9092674 0 0 0 0 1 0.989238 -0.025912765 -0.14400223 22.900002 0.10804194 0.7930504 0.5994981 0 0.09866637 -0.6086046 0.7873153 0 0 0 0 1 0.98608905 0.0076224804 -0.1660429 22.900002 0.12317005 0.6372717 0.7607325 0 0.111613095 -0.77060145 0.62746775 0 0 0 0 1 0.98103005 0.05691708 -0.18531193 22.900002 0.13624328 0.47759378 0.8679527 0 0.13790517 -0.8767352 0.46077925 0 0 0 0 1 0.97346795 0.11719585 -0.19653332 22.900002 0.14599495 0.3432513 0.9278276 0 0.17619786 -0.93190324 0.31703413 0 0 0 0 1 0.97346795 0.11719585 -0.19653332 22.900002 0.14599495 0.3432513 0.9278276 0 0.17619786 -0.93190324 0.31703413 0 0 0 0 1</float_array>
        <technique_common>
          <accessor source="#Motion_54_LHand_transform_pose_array_id" count="16" stride="16">
            <param name="TRANSFORM" type="float4x4" />
          </accessor>
        </technique_common>
      </source>
      <sampler id="Motion_54_LHand_transform_samp_id">
        <input semantic="INPUT" source="#Motion_54_LHand_transform_frame_id" />
        <input semantic="INTERPOLATION" source="#Motion_54_LHand_transform_interp_id" />
        <input semantic="OUTPUT" source="#Motion_54_LHand_transform_pose_id" />
      </sampler>
      <channel source="#Motion_54_LHand_transform_samp_id" target="LHand_bone_id/transform" />
    </animation>
    <animation id="Motion_54_Neck_transform_id" name="Motion_54_Neck_transform">
      <source id="Motion_54_Neck_transform_frame_id" name="Motion_54_Neck_transform_frame">
        <float_array id="Motion_54_Neck_transform_frame_array_id" count="16">0 0.033333335 0.06666667 0.1 0.13333334 0.16666667 0.2 0.23333333 0.26666668 0.3 0.33333334 0.36666667 0.4 0.43333334 0.46666667 0.5</float_array>
        <technique_common>
          <accessor source="#Motion_54_Neck_transform_frame_array_id" count="16" stride="1">
            <param name="TIME" type="float" />
          </accessor>
        </technique_common>
      </source>
      <source id="Motion_54_Neck_transform_interp_id" name="Motion_54_Neck_transform_interp">
        <Name_array id="Motion_54_Neck_transform_interp_array_id" count="16">LINEAR LINEAR LINEAR LINEAR LINEAR LINEAR LINEAR LINEAR LINEAR LINEAR LINEAR LINEAR LINEAR LINEAR LINEAR LINEAR</Name_array>
        <technique_common>
          <accessor source="#Motion_54_Neck_transform_interp_array_id" count="16" stride="1">
            <param name="INTERPOLATION" type="Name" />
          </accessor>
        </technique_common>
      </source>
      <source id="Motion_54_Neck_transform_pose_id" name="Motion_54_Neck_transform_pose">
        <float_array id="Motion_54_Neck_transform_pose_array_id" count="256">0.9985704 -0.05327503 -0.0043490054 15.720233 0.053144168 0.9982463 -0.026076568 0 0.0057306085 0.025808165 0.9996505 0 0 0 0 1 0.99865377 -0.051552072 -0.00575193 15.720233 0.05139184 0.99836075 -0.02519304 0 0.007041255 0.024863522 0.99966604 0 0 0 0 1 0.9987687 -0.04892775 -0.008197962 15.720233 0.048717838 0.9985218 -0.024100343 0 0.009365019 0.023671279 0.9996759 0 0 0 0 1 0.9988956 -0.045532998 -0.0115902675 15.720233 0.045260023 0.9987147 -0.022815509 0 0.012614229 0.022265734 0.99967253 0 0 0 0 1 0.9990131 -0.041498676 -0.015831957 15.720233 0.041156575 0.9989245 -0.021354742 0 0.016701123 0.020682078 0.9996466 0 0 0 0 1 0.99909985 -0.036955755 -0.020826228 15.720233 0.036545772 0.9991371 -0.019734355 0 0.021537554 0.018955482 0.9995883 0 0 0 0 1 0.999136 -0.032035638 -0.026476514 15.720233 0.031565946 0.9993401 -0.01797161 0 0.027034774 0.017120326 0.9994879 0 0 0 0 1 0.99910885 -0.026869202 -0.032549948 15.720233 0.026356356 0.9995232 -0.016083593 0 0.032966584 0.015211361 0.9993407 0 0 0 0 1 0.9990166 -0.021587985 -0.038727984 15.720233 0.02105608 0.999679 -0.014090121 0 0.039019726 0.013260804 0.99915045 0 0 0 0 1 0.9988603 -0.0165036 -0.044785395 15.720233 0.015980164 0.9998 -0.012020655 0 0.044974826 0.011291277 0.9989243 0 0 0 0 1 0.9986531 -0.011908589 -0.050498847 15.720233 0.011422161 0.9998857 -0.009910155 0 0.05061109 0.009320002 0.9986749 0 0 0 0 1 0.99841917 -0.007908484 -0.055647574 15.720233 0.0074861767 0.9999416 -0.0077933297 0 0.055705957 0.007364422 0.99842006 0 0 0 0 1 0.998187 -0.0046097776 -0.060011804 15.720233 0.0042749345 0.99997455 -0.005706822 0 0.060036585 0.005439929 0.99818134 0 0 0 0 1 0.9979877 -0.002119876 -0.06337259 15.720233 0.0018899362 0.9999914 -0.0036881038 0 0.06337986 0.003560912 0.9979831 0 0 0 0 1 0.99785167 -0.00054698583 -0.065511584 15.720233 0.00043168355 0.99999833 -0.0017741706 0 0.06551245 0.0017420788 0.99785024 0 0 0 0 1 0.99785167 -0.00054698583 -0.065511584 15.720233 0.00043168355 0.99999833 -0.0017741706 0 0.06551245 0.0017420788 0.99785024 0 0 0 0 1</float_array>
        <technique_common>
          <accessor source="#Motion_54_Neck_transform_pose_array_id" count="16" stride="16">
            <param name="TRANSFORM" type="float4x4" />
          </accessor>
        </technique_common>
      </source>
      <sampler id="Motion_54_Neck_transform_samp_id">
        <input semantic="INPUT" source="#Motion_54_Neck_transform_frame_id" />
        <input semantic="INTERPOLATION" source="#Motion_54_Neck_transform_interp_id" />
        <input semantic="OUTPUT" source="#Motion_54_Neck_transform_pose_id" />
      </sampler>
      <channel source="#Motion_54_Neck_transform_samp_id" target="Neck_bone_id/transform" />
    </animation>
    <animation id="Motion_54_Head_transform_id" name="Motion_54_Head_transform">
      <source id="Motion_54_Head_transform_frame_id" name="Motion_54_Head_transform_frame">
        <float_array id="Motion_54_Head_transform_frame_array_id" count="16">0 0.033333335 0.06666667 0.1 0.13333334 0.16666667 0.2 0.23333333 0.26666668 0.3 0.33333334 0.36666667 0.4 0.43333334 0.46666667 0.5</float_array>
        <technique_common>
          <accessor source="#Motion_54_Head_transform_frame_array_id" count="16" stride="1">
            <param name="TIME" type="float" />
          </accessor>
        </technique_common>
      </source>
      <source id="Motion_54_Head_transform_interp_id" name="Motion_54_Head_transform_interp">
        <Name_array id="Motion_54_Head_transform_interp_array_id" count="16">LINEAR LINEAR LINEAR LINEAR LINEAR LINEAR LINEAR LINEAR LINEAR LINEAR LINEAR LINEAR LINEAR LINEAR LINEAR LINEAR</Name_array>
        <technique_common>
          <accessor source="#Motion_54_Head_transform_interp_array_id" count="16" stride="1">
            <param name="INTERPOLATION" type="Name" />
          </accessor>
        </technique_common>
      </source>
      <source id="Motion_54_Head_transform_pose_id" name="Motion_54_Head_transform_pose">
        <float_array id="Motion_54_Head_transform_pose_array_id" count="256">0.99644524 0.022205682 -0.08126408 5.129917 -0.020424759 0.9995341 0.022681398 0 0.081729874 -0.020940972 0.9964345 0 0 0 0 1 0.9964644 0.021596711 -0.0811935 5.129917 -0.019839555 0.9995525 0.022386504 0 0.08164064 -0.020696511 0.9964469 0 0 0 0 1 0.9965192 0.021144947 -0.080637075 5.129917 -0.019324588 0.999542 0.023288779 0 0.08109259 -0.021649439 0.9964714 0 0 0 0 1 0.9966738 0.020775737 -0.07880143 5.129917 -0.018828107 0.9995006 0.025378725 0 0.07928934 -0.023810627 0.99656725 0 0 0 0 1 0.99698275 0.020407308 -0.07489248 5.129917 -0.018305242 0.99942195 0.028647738 0 0.07543381 -0.027190374 0.99678004 0 0 0 0 1 0.99747807 0.019945879 -0.06811501 5.129917 -0.017722689 0.9992953 0.03308858 0 0.06872699 -0.031797953 0.9971286 0 0 0 0 1 0.99814934 0.019280743 -0.057672516 5.129917 -0.017063376 0.99910533 0.038696006 0 0.058367006 -0.037640303 0.99758536 0 0 0 0 1 0.9989178 0.018274708 -0.04276966 5.129917 -0.016335933 0.9988422 0.04524922 0 0.043547053 -0.04450157 0.99805975 0 0 0 0 1 0.9996036 0.01676953 -0.022614663 5.129917 -0.0155692 0.9985128 0.052247636 0 0.023457197 -0.05187483 0.99837804 0 0 0 0 1 0.99988693 0.014605875 0.0035791066 5.129917 -0.014792406 0.99813235 0.059270993 0 -0.0027067172 -0.05931723 0.9982355 0 0 0 0 1 0.9992946 0.011661694 0.03569859 5.129917 -0.013997952 0.9977274 0.06590978 0 -0.034848843 -0.066363 0.9971868 0 0 0 0 1 0.9975007 0.008217235 0.07017711 5.129917 -0.013265462 0.9973326 0.071775414 0 -0.06940012 -0.072526954 0.994949 0 0 0 0 1 0.9947089 0.004706038 0.102625966 5.129917 -0.01260652 0.9969921 0.07647124 0 -0.101957396 -0.07736038 0.9917762 0 0 0 0 1 0.9916818 0.0014059213 0.12870571 5.129917 -0.01174449 0.9967574 0.07960359 0 -0.12817645 -0.080453016 0.9884827 0 0 0 0 1 0.98955536 -0.001381326 0.14414655 5.129917 -0.01037539 0.9966782 0.08077724 0 -0.1437793 -0.08142914 0.9862539 0 0 0 0 1 0.98955536 -0.001381326 0.14414655 5.129917 -0.01037539 0.9966782 0.08077724 0 -0.1437793 -0.08142914 0.9862539 0 0 0 0 1</float_array>
        <technique_common>
          <accessor source="#Motion_54_Head_transform_pose_array_id" count="16" stride="16">
            <param name="TRANSFORM" type="float4x4" />
          </accessor>
        </technique_common>
      </source>
      <sampler id="Motion_54_Head_transform_samp_id">
        <input semantic="INPUT" source="#Motion_54_Head_transform_frame_id" />
        <input semantic="INTERPOLATION" source="#Motion_54_Head_transform_interp_id" />
        <input semantic="OUTPUT" source="#Motion_54_Head_transform_pose_id" />
      </sampler>
      <channel source="#Motion_54_Head_transform_samp_id" target="Head_bone_id/transform" />
    </animation>
  </library_animations>
  <library_visual_scenes>
    <visual_scene id="tr1009_00_fi_00_clip_id" name="tr1009_00_fi_00_clip">
      <node id="tr1009_00_fi_bone_id" name="tr1009_00_fi" sid="tr1009_00_fi" type="JOINT">
        <matrix sid="transform">1 0 0 0 0 1 0 0 0 0 1 0 0 0 0 1</matrix>
        <node id="Origin_bone_id" name="Origin" sid="Origin" type="JOINT">
          <matrix sid="transform">1 0 0 0 0 1 0 0 0 0 1 0 0 0 0 1</matrix>
          <node id="Waist_bone_id" name="Waist" sid="Waist" type="JOINT">
            <matrix sid="transform">3.1391647E-07 -1 0 0 1 3.1391647E-07 0 88.8 0 0 1 0 0 0 0 1</matrix>
            <node id="Spine2_bone_id" name="Spine2" sid="Spine2" type="JOINT">
              <matrix sid="transform">1 0 0 12.099998 0 1 0 0 0 0 1 0 0 0 0 1</matrix>
              <node id="Spine3_bone_id" name="Spine3" sid="Spine3" type="JOINT">
                <matrix sid="transform">0.9919065 0 0.12697035 12.099991 0 1 0 0 -0.12697035 0 0.9919065 0 0 0 0 1</matrix>
                <node id="Neck_bone_id" name="Neck" sid="Neck" type="JOINT">
                  <matrix sid="transform">0.9441987 0 -0.32937634 15.720233 0 1 0 0 0.32937634 0 0.9441987 0 0 0 0 1</matrix>
                  <node id="Head_bone_id" name="Head" sid="Head" type="JOINT">
                    <matrix sid="transform">0.9783777 0 0.2068263 5.129917 0 1 0 0 -0.2068263 0 0.9783777 0 0 0 0 1</matrix>
                    <node id="Loc_Head_bone_id" name="Loc_Head" sid="Loc_Head" type="JOINT">
                      <matrix sid="transform">3.1391647E-07 1 0 30.637419 -1 3.1391647E-07 0 0 0 0 1 0.935 0 0 0 1</matrix>
                    </node>
                    <node id="Loc_Eye_bone_id" name="Loc_Eye" sid="Loc_Eye" type="JOINT">
                      <matrix sid="transform">3.1391647E-07 1 0 9.288564 -1 3.1391647E-07 0 0 0 0 1 12.909398 0 0 0 1</matrix>
                    </node>
                    <node id="Loc_Mouth_bone_id" name="Loc_Mouth" sid="Loc_Mouth" type="JOINT">
                      <matrix sid="transform">3.1391647E-07 1 0 1.209505 -1 3.1391647E-07 0 0 0 0 1 12.696363 0 0 0 1</matrix>
                    </node>
                  </node>
                </node>
                <node id="LShoulder_bone_id" name="LShoulder" sid="LShoulder" type="JOINT">
                  <matrix sid="transform">-0.5887142 0.798307 -0.12697051 14.14009 -0.80482084 -0.59351784 -2.6574628E-07 -3.930001 -0.075359486 0.10218836 0.99190646 -0.201936 0 0 0 1</matrix>
                  <node id="LArm_bone_id" name="LArm" sid="LArm" type="JOINT">
                    <matrix sid="transform">0.8048207 -0.593518 0 8.161509 0.593518 0.8048207 0 0 0 0 1 0 0 0 0 1</matrix>
                    <node id="LForeArm_bone_id" name="LForeArm" sid="LForeArm" type="JOINT">
                      <matrix sid="transform">1 0 0 22.9 0 1 0 0 0 0 1 0 0 0 0 1</matrix>
                      <node id="LHand_bone_id" name="LHand" sid="LHand" type="JOINT">
                        <matrix sid="transform">1 0 0 22.900002 0 1 0 0 0 0 1 0 0 0 0 1</matrix>
                      </node>
                    </node>
                  </node>
                </node>
                <node id="RShoulder_bone_id" name="RShoulder" sid="RShoulder" type="JOINT">
                  <matrix sid="transform">-0.58871174 -0.79830885 -0.12696993 14.14009 0.8048227 -0.5935153 -1.4453335E-07 3.93 -0.07535849 -0.10218837 0.9919065 -0.201935 0 0 0 1</matrix>
                  <node id="RArm_bone_id" name="RArm" sid="RArm" type="JOINT">
                    <matrix sid="transform">0.8048231 0.5935148 0 8.161548 -0.5935148 0.8048231 0 0 0 0 1 0 0 0 0 1</matrix>
                    <node id="RForeArm_bone_id" name="RForeArm" sid="RForeArm" type="JOINT">
                      <matrix sid="transform">1 0 0 22.9 0 1 0 0 0 0 1 0 0 0 0 1</matrix>
                      <node id="RHand_bone_id" name="RHand" sid="RHand" type="JOINT">
                        <matrix sid="transform">1 0 0 22.900002 0 1 0 0 0 0 1 0 0 0 0 1</matrix>
                      </node>
                    </node>
                  </node>
                </node>
              </node>
            </node>
            <node id="Hips_bone_id" name="Hips" sid="Hips" type="JOINT">
              <matrix sid="transform">-1 -3.2584137E-07 0 -0.010002 3.2584137E-07 -1 0 0 0 0 1 0 0 0 0 1</matrix>
              <node id="LThigh_bone_id" name="LThigh" sid="LThigh" type="JOINT">
                <matrix sid="transform">1 0 0 10.510002 0 1 0 7.199996 0 0 1 0 0 0 0 1</matrix>
                <node id="LLeg_bone_id" name="LLeg" sid="LLeg" type="JOINT">
                  <matrix sid="transform">1 0 0 33.899998 0 1 0 0 0 0 1 0 0 0 0 1</matrix>
                  <node id="LFoot_bone_id" name="LFoot" sid="LFoot" type="JOINT">
                    <matrix sid="transform">3.1391647E-07 0 -1 33.9 0 1 0 4E-06 1 0 3.1391647E-07 0 0 0 0 1</matrix>
                  </node>
                </node>
              </node>
              <node id="RThigh_bone_id" name="RThigh" sid="RThigh" type="JOINT">
                <matrix sid="transform">1 0 0 10.510002 0 1 0 -7.2 0 0 1 0 0 0 0 1</matrix>
                <node id="RLeg_bone_id" name="RLeg" sid="RLeg" type="JOINT">
                  <matrix sid="transform">1 0 0 33.899998 0 1 0 0 0 0 1 0 0 0 0 1</matrix>
                  <node id="RFoot_bone_id" name="RFoot" sid="RFoot" type="JOINT">
                    <matrix sid="transform">3.1391647E-07 0 -1 33.9 0 1 0 0 1 0 3.1391647E-07 0 0 0 0 1</matrix>
                  </node>
                </node>
              </node>
            </node>
          </node>
          <node id="CamTgtHead_bone_id" name="CamTgtHead" sid="CamTgtHead" type="JOINT">
            <matrix sid="transform">1 0 0 0 0 1 0 142.901 0 0 1 0 0 0 0 1</matrix>
          </node>
          <node id="CamTgtBust_bone_id" name="CamTgtBust" sid="CamTgtBust" type="JOINT">
            <matrix sid="transform">1 0 0 0 0 1 0 112.99999 0 0 1 0 0 0 0 1</matrix>
          </node>
          <node id="CamTgtBody_bone_id" name="CamTgtBody" sid="CamTgtBody" type="JOINT">
            <matrix sid="transform">1 0 0 0 0 1 0 88.8 0 0 1 0 0 0 0 1</matrix>
          </node>
          <node id="CamTgtFoot_bone_id" name="CamTgtFoot" sid="CamTgtFoot" type="JOINT">
            <matrix sid="transform">1 0 0 0 0 1 0 0 0 0 1 0 0 0 0 1</matrix>
          </node>
        </node>
        <node id="tr1009_00_fi_HeadSkin_bone_id" name="tr1009_00_fi_HeadSkin" sid="tr1009_00_fi_HeadSkin" type="JOINT">
          <matrix sid="transform">1 0 0 0 0 1 0 0 0 0 1 0 0 0 0 1</matrix>
        </node>
        <node id="tr1009_00_fi_HairSkin_bone_id" name="tr1009_00_fi_HairSkin" sid="tr1009_00_fi_HairSkin" type="JOINT">
          <matrix sid="transform">1 0 0 0 0 1 0 0 0 0 1 0 0 0 0 1</matrix>
        </node>
        <node id="tr1009_00_fi_FaceSkin_bone_id" name="tr1009_00_fi_FaceSkin" sid="tr1009_00_fi_FaceSkin" type="JOINT">
          <matrix sid="transform">1 0 0 0 0 1 0 0 0 0 1 0 0 0 0 1</matrix>
        </node>
        <node id="tr1009_00_fi_BodySkin_bone_id" name="tr1009_00_fi_BodySkin" sid="tr1009_00_fi_BodySkin" type="JOINT">
          <matrix sid="transform">1 0 0 0 0 1 0 0 0 0 1 0 0 0 0 1</matrix>
        </node>
        <node id="tr1009_00_fi_BeltSkin_bone_id" name="tr1009_00_fi_BeltSkin" sid="tr1009_00_fi_BeltSkin" type="JOINT">
          <matrix sid="transform">1 0 0 0 0 1 0 0 0 0 1 0 0 0 0 1</matrix>
        </node>
        <node id="tr1009_00_fi_BallSkin_bone_id" name="tr1009_00_fi_BallSkin" sid="tr1009_00_fi_BallSkin" type="JOINT">
          <matrix sid="transform">1 0 0 0 0 1 0 0 0 0 1 0 0 0 0 1</matrix>
        </node>
      </node>
    </visual_scene>
  </library_visual_scenes>
  <scene>
    <instance_visual_scene url="#tr1009_00_fi_00_clip_id" />
  </scene>
</COLLADA>