<?xml version="1.0" encoding="utf-8"?>
<COLLADA xmlns:xsi="http://www.w3.org/2001/XMLSchema-instance" xmlns:xsd="http://www.w3.org/2001/XMLSchema" version="1.4.1" xmlns="http://www.collada.org/2005/11/COLLADASchema">
  <asset>
    <created>2026-02-17T05:46:47.7685171-05:00</created>
    <modified>2026-02-17T05:46:47.7685173-05:00</modified>
    <up_axis>Y_UP</up_axis>
  </asset>
  <library_animations>
    <animation id="Motion_31_Waist_transform_id" name="Motion_31_Waist_transform">
      <source id="Motion_31_Waist_transform_frame_id" name="Motion_31_Waist_transform_frame">
        <float_array id="Motion_31_Waist_transform_frame_array_id" count="17">0 0.033333335 0.06666667 0.1 0.13333334 0.16666667 0.2 0.23333333 0.26666668 0.3 0.33333334 0.36666667 0.4 0.43333334 0.46666667 0.5 0.53333336</float_array>
        <technique_common>
          <accessor source="#Motion_31_Waist_transform_frame_array_id" count="17" stride="1">
            <param name="TIME" type="float" />
          </accessor>
        </technique_common>
      </source>
      <source id="Motion_31_Waist_transform_interp_id" name="Motion_31_Waist_transform_interp">
        <Name_array id="Motion_31_Waist_transform_interp_array_id" count="17">LINEAR LINEAR LINEAR LINEAR LINEAR LINEAR LINEAR LINEAR LINEAR LINEAR LINEAR LINEAR LINEAR LINEAR LINEAR LINEAR LINEAR</Name_array>
        <technique_common>
          <accessor source="#Motion_31_Waist_transform_interp_array_id" count="17" stride="1">
            <param name="INTERPOLATION" type="Name" />
          </accessor>
        </technique_common>
      </source>
      <source id="Motion_31_Waist_transform_pose_id" name="Motion_31_Waist_transform_pose">
        <float_array id="Motion_31_Waist_transform_pose_array_id" count="272">-0.0051333904 -0.9999739 -0.0050837845 -1.9907951E-05 0.99887145 -0.0048874617 -0.047243 88.60387 0.047216922 -0.005320562 0.9988705 -3.0517578E-05 0 0 0 1 -0.0063501596 -0.9990775 -0.04247064 -0.90473163 0.9980777 -0.0037139654 -0.06186413 88.43211 0.06164933 -0.042781845 0.9971806 -1.6929898 0 0 0 1 -0.0058658123 -0.99940836 -0.03389044 -1.7610229 0.996724 -0.0031095743 -0.080818154 88.13481 0.080664955 -0.034253486 0.9961525 -3.4816267 0 0 0 1 -0.0041058064 -0.99989945 -0.013569996 -1.9941301 0.99591845 -0.0028651953 -0.0902118 88.03131 0.09016386 -0.013885006 0.9958302 -4.1302733 0 0 0 1 -0.0045502186 -0.9998959 0.013689738 -1.7573462 0.9961669 -0.005728364 -0.08728482 88.311134 0.08735415 0.013240095 0.99608934 -4.599619 0 0 0 1 -0.008284569 -0.999036 0.043111153 -1.1205863 0.99676615 -0.011696458 -0.079501495 88.69347 0.0799291 0.0423131 0.99590206 -4.7864046 0 0 0 1 -0.011689901 -0.99704486 0.07592745 -0.34795216 0.99752945 -0.01688838 -0.06818986 88.8937 0.069270626 0.07494274 0.99477893 -4.7104053 0 0 0 1 -0.011328578 -0.99201494 0.12561032 0.4261458 0.9982956 -0.018412352 -0.055378016 88.743515 0.057248615 0.12476888 0.9905329 -4.4007297 0 0 0 1 -0.010381341 -0.98596334 0.16663873 1.0664265 0.9989002 -0.017845511 -0.043357775 88.509605 0.04572294 0.16600534 0.98506427 -3.8864846 0 0 0 1 -0.010090113 -0.9827781 0.18451416 1.5213141 0.9992956 -0.016580582 -0.033666655 88.349464 0.0361462 0.18404448 0.9822531 -3.189128 0 0 0 1 -0.009916425 -0.9801767 0.19787753 1.7404865 0.99953115 -0.0154492855 -0.026436612 88.255135 0.0289696 0.1975226 0.9798702 -2.363258 0 0 0 1 -0.009172082 -0.9796877 0.20031989 1.7128456 0.9996568 -0.013900161 -0.022208698 88.21766 0.024542056 0.20004743 0.9794788 -1.4600073 0 0 0 1 -0.007783413 -0.98142016 0.19171306 1.4295912 0.99970007 -0.012088656 -0.0212975 88.22808 0.02321934 0.1914898 0.9812199 -0.62148046 0 0 0 1 -0.0060446262 -0.9851886 0.1713673 0.98883843 0.9996586 -0.010308862 -0.024004623 88.28711 0.025415704 0.17116372 0.9849147 0.008964986 0 0 0 1 -0.004265666 -0.99094397 0.13420808 0.53367734 0.9994994 -0.00843215 -0.030492421 88.39231 0.031347957 0.13401084 0.99048394 0.33755207 0 0 0 1 -0.0034899712 -0.9969952 0.07738355 0.15740228 0.99922633 -0.006508112 -0.038783725 88.53199 0.039170817 0.07718833 0.99624676 0.26891652 0 0 0 1 -0.0034899712 -0.9969952 0.07738355 0.15740228 0.99922633 -0.006508112 -0.038783725 88.53199 0.039170817 0.07718833 0.99624676 0.26891652 0 0 0 1</float_array>
        <technique_common>
          <accessor source="#Motion_31_Waist_transform_pose_array_id" count="17" stride="16">
            <param name="TRANSFORM" type="float4x4" />
          </accessor>
        </technique_common>
      </source>
      <sampler id="Motion_31_Waist_transform_samp_id">
        <input semantic="INPUT" source="#Motion_31_Waist_transform_frame_id" />
        <input semantic="INTERPOLATION" source="#Motion_31_Waist_transform_interp_id" />
        <input semantic="OUTPUT" source="#Motion_31_Waist_transform_pose_id" />
      </sampler>
      <channel source="#Motion_31_Waist_transform_samp_id" target="Waist_bone_id/transform" />
    </animation>
    <animation id="Motion_31_Spine2_transform_id" name="Motion_31_Spine2_transform">
      <source id="Motion_31_Spine2_transform_frame_id" name="Motion_31_Spine2_transform_frame">
        <float_array id="Motion_31_Spine2_transform_frame_array_id" count="17">0 0.033333335 0.06666667 0.1 0.13333334 0.16666667 0.2 0.23333333 0.26666668 0.3 0.33333334 0.36666667 0.4 0.43333334 0.46666667 0.5 0.53333336</float_array>
        <technique_common>
          <accessor source="#Motion_31_Spine2_transform_frame_array_id" count="17" stride="1">
            <param name="TIME" type="float" />
          </accessor>
        </technique_common>
      </source>
      <source id="Motion_31_Spine2_transform_interp_id" name="Motion_31_Spine2_transform_interp">
        <Name_array id="Motion_31_Spine2_transform_interp_array_id" count="17">LINEAR LINEAR LINEAR LINEAR LINEAR LINEAR LINEAR LINEAR LINEAR LINEAR LINEAR LINEAR LINEAR LINEAR LINEAR LINEAR LINEAR</Name_array>
        <technique_common>
          <accessor source="#Motion_31_Spine2_transform_interp_array_id" count="17" stride="1">
            <param name="INTERPOLATION" type="Name" />
          </accessor>
        </technique_common>
      </source>
      <source id="Motion_31_Spine2_transform_pose_id" name="Motion_31_Spine2_transform_pose">
        <float_array id="Motion_31_Spine2_transform_pose_array_id" count="272">0.9955694 0.0037796798 0.093953505 12.099998 -0.0027767632 0.9999378 -0.010803048 0 -0.09398849 0.010494297 0.99551797 0 0 0 0 1 0.99589604 0.0053302348 0.09034748 12.099998 -0.0035597626 0.9997987 -0.019746074 0 -0.090434544 0.019343423 0.99571455 0 0 0 0 1 0.99682456 0.0088254195 0.07913864 12.099998 -0.005387636 0.9990368 -0.04354877 0 -0.07944675 0.042984113 0.99591196 0 0 0 0 1 0.9979255 0.012713305 0.06311088 12.099998 -0.008423955 0.9976653 -0.06777187 0 -0.06382514 0.06709963 0.99570274 0 0 0 0 1 0.9988879 0.016094238 0.044316422 12.099998 -0.012267788 0.9962797 -0.085300624 0 -0.0455244 0.084662095 0.9953692 0 0 0 0 1 0.9995304 0.01851954 0.024413876 12.099998 -0.016067743 0.99514925 -0.09705585 0 -0.02609288 0.096618 0.99497944 0 0 0 0 1 0.999783 0.019932816 0.006059843 12.099998 -0.019193625 0.9943747 -0.104166016 0 -0.008102076 0.10402709 0.99454147 0 0 0 0 1 0.99975795 0.020632716 -0.00763736 12.099998 -0.021336166 0.9939449 -0.10778862 0 0.005367143 0.10792549 0.9941445 0 0 0 0 1 0.99970204 0.020778216 -0.0128095085 12.099998 -0.022051737 0.9938013 -0.10896169 0 0.010466077 0.1092117 0.9939634 0 0 0 0 1 0.9997699 0.020417465 -0.0065777064 12.099998 -0.021007096 0.9939696 -0.10762477 0 0.0043406156 0.10773818 0.99416983 0 0 0 0 1 0.999778 0.01922659 0.008620522 12.099998 -0.018235022 0.9944924 -0.10320999 0 -0.01055742 0.10302988 0.99462223 0 0 0 0 1 0.9994448 0.017005784 0.028652836 12.099998 -0.014209837 0.9953658 -0.09510504 0 -0.03013739 0.09464508 0.9950548 0 0 0 0 1 0.998683 0.014047146 0.049345993 12.099998 -0.009925561 0.99651694 -0.08279759 0 -0.050337188 0.082198754 0.9953439 0 0 0 0 1 0.99764955 0.010616304 0.067695305 12.099998 -0.0063431263 0.99799156 -0.063028954 0 -0.06822848 0.06245141 0.9957132 0 0 0 0 1 0.9965809 0.0072734402 0.082302004 12.099998 -0.0041257693 0.99925584 -0.038351003 0 -0.082519695 0.03788032 0.9958693 0 0 0 0 1 0.9957954 0.0049147923 0.091472924 12.099998 -0.0033001734 0.9998362 -0.017794222 0 -0.0915454 0.017417528 0.99564856 0 0 0 0 1 0.9957954 0.0049147923 0.091472924 12.099998 -0.0033001734 0.9998362 -0.017794222 0 -0.0915454 0.017417528 0.99564856 0 0 0 0 1</float_array>
        <technique_common>
          <accessor source="#Motion_31_Spine2_transform_pose_array_id" count="17" stride="16">
            <param name="TRANSFORM" type="float4x4" />
          </accessor>
        </technique_common>
      </source>
      <sampler id="Motion_31_Spine2_transform_samp_id">
        <input semantic="INPUT" source="#Motion_31_Spine2_transform_frame_id" />
        <input semantic="INTERPOLATION" source="#Motion_31_Spine2_transform_interp_id" />
        <input semantic="OUTPUT" source="#Motion_31_Spine2_transform_pose_id" />
      </sampler>
      <channel source="#Motion_31_Spine2_transform_samp_id" target="Spine2_bone_id/transform" />
    </animation>
    <animation id="Motion_31_Spine3_transform_id" name="Motion_31_Spine3_transform">
      <source id="Motion_31_Spine3_transform_frame_id" name="Motion_31_Spine3_transform_frame">
        <float_array id="Motion_31_Spine3_transform_frame_array_id" count="17">0 0.033333335 0.06666667 0.1 0.13333334 0.16666667 0.2 0.23333333 0.26666668 0.3 0.33333334 0.36666667 0.4 0.43333334 0.46666667 0.5 0.53333336</float_array>
        <technique_common>
          <accessor source="#Motion_31_Spine3_transform_frame_array_id" count="17" stride="1">
            <param name="TIME" type="float" />
          </accessor>
        </technique_common>
      </source>
      <source id="Motion_31_Spine3_transform_interp_id" name="Motion_31_Spine3_transform_interp">
        <Name_array id="Motion_31_Spine3_transform_interp_array_id" count="17">LINEAR LINEAR LINEAR LINEAR LINEAR LINEAR LINEAR LINEAR LINEAR LINEAR LINEAR LINEAR LINEAR LINEAR LINEAR LINEAR LINEAR</Name_array>
        <technique_common>
          <accessor source="#Motion_31_Spine3_transform_interp_array_id" count="17" stride="1">
            <param name="INTERPOLATION" type="Name" />
          </accessor>
        </technique_common>
      </source>
      <source id="Motion_31_Spine3_transform_pose_id" name="Motion_31_Spine3_transform_pose">
        <float_array id="Motion_31_Spine3_transform_pose_array_id" count="272">0.97747844 0.003308358 0.21100923 12.099991 -0.0026111414 0.99999017 -0.0035827388 0 -0.21101901 0.0029510753 0.9774775 0 0 0 0 1 0.9785874 0.0027780214 0.20581304 12.099991 0.0019590885 0.9997379 -0.022809207 0 -0.20582245 0.02272401 0.9783255 0 0 0 0 1 0.98132575 0.0031952101 0.19232684 12.099991 0.009166765 0.9979492 -0.063351735 0 -0.19213483 0.0639317 0.97928387 0 0 0 0 1 0.9832564 0.0022095577 0.18221413 12.099991 0.016821519 0.99455655 -0.10283175 0 -0.18144946 0.10417509 0.9778669 0 0 0 0 1 0.9839939 -0.00088720396 0.17819995 12.099991 0.024372377 0.9912608 -0.1296455 0 -0.17652762 0.13191354 0.97541624 0 0 0 0 1 0.9844071 -0.0057752198 0.1758104 12.099991 0.032326594 0.9883783 -0.14853744 0 -0.17290935 0.15190466 0.9731533 0 0 0 0 1 0.9845527 -0.011362965 0.17471954 12.099991 0.03985913 0.986236 -0.16046774 0 -0.17049131 0.16495311 0.97145414 0 0 0 0 1 0.98451966 -0.016026158 0.17453983 12.099991 0.045611683 0.98492765 -0.16684441 0 -0.16923523 0.17222266 0.97041166 0 0 0 0 1 0.9844211 -0.018202795 0.17488234 12.099991 0.048166893 0.9844964 -0.16866152 0 -0.16910093 0.1744575 0.9700358 0 0 0 0 1 0.98432344 -0.018407077 0.17540973 12.099991 0.046281822 0.9866441 -0.15617748 0 -0.17019221 0.16184743 0.9720288 0 0 0 0 1 0.9841927 -0.018004715 0.1761833 12.099991 0.040603504 0.99126 -0.1255188 0 -0.17238353 0.13068834 0.97632194 0 0 0 0 1 0.98387754 -0.016680202 0.17806382 12.099991 0.0325822 0.9956965 -0.086758085 0 -0.17585038 0.09116105 0.9801869 0 0 0 0 1 0.9831851 -0.0141629325 0.18206151 12.099991 0.023673698 0.99845994 -0.050172642 0 -0.18107052 0.05363906 0.98200625 0 0 0 0 1 0.98191047 -0.009676641 0.1890985 12.099991 0.014738124 0.99956924 -0.02537854 0 -0.18877149 0.02770641 0.9816301 0 0 0 0 1 0.9798693 -0.0040892707 0.1995982 12.099991 0.0064525176 0.99991655 -0.011190955 0 -0.19953579 0.012253584 0.97981393 0 0 0 0 1 0.97800475 0.00076204544 0.20858108 12.099991 0.00038151344 0.9999851 -0.005442278 0 -0.20858212 0.00540215 0.9779899 0 0 0 0 1 0.97800475 0.00076204544 0.20858108 12.099991 0.00038151344 0.9999851 -0.005442278 0 -0.20858212 0.00540215 0.9779899 0 0 0 0 1</float_array>
        <technique_common>
          <accessor source="#Motion_31_Spine3_transform_pose_array_id" count="17" stride="16">
            <param name="TRANSFORM" type="float4x4" />
          </accessor>
        </technique_common>
      </source>
      <sampler id="Motion_31_Spine3_transform_samp_id">
        <input semantic="INPUT" source="#Motion_31_Spine3_transform_frame_id" />
        <input semantic="INTERPOLATION" source="#Motion_31_Spine3_transform_interp_id" />
        <input semantic="OUTPUT" source="#Motion_31_Spine3_transform_pose_id" />
      </sampler>
      <channel source="#Motion_31_Spine3_transform_samp_id" target="Spine3_bone_id/transform" />
    </animation>
    <animation id="Motion_31_Neck_transform_id" name="Motion_31_Neck_transform">
      <source id="Motion_31_Neck_transform_frame_id" name="Motion_31_Neck_transform_frame">
        <float_array id="Motion_31_Neck_transform_frame_array_id" count="17">0 0.033333335 0.06666667 0.1 0.13333334 0.16666667 0.2 0.23333333 0.26666668 0.3 0.33333334 0.36666667 0.4 0.43333334 0.46666667 0.5 0.53333336</float_array>
        <technique_common>
          <accessor source="#Motion_31_Neck_transform_frame_array_id" count="17" stride="1">
            <param name="TIME" type="float" />
          </accessor>
        </technique_common>
      </source>
      <source id="Motion_31_Neck_transform_interp_id" name="Motion_31_Neck_transform_interp">
        <Name_array id="Motion_31_Neck_transform_interp_array_id" count="17">LINEAR LINEAR LINEAR LINEAR LINEAR LINEAR LINEAR LINEAR LINEAR LINEAR LINEAR LINEAR LINEAR LINEAR LINEAR LINEAR LINEAR</Name_array>
        <technique_common>
          <accessor source="#Motion_31_Neck_transform_interp_array_id" count="17" stride="1">
            <param name="INTERPOLATION" type="Name" />
          </accessor>
        </technique_common>
      </source>
      <source id="Motion_31_Neck_transform_pose_id" name="Motion_31_Neck_transform_pose">
        <float_array id="Motion_31_Neck_transform_pose_array_id" count="272">0.8984359 -0.00029823743 -0.4391046 15.720233 -0.00075712055 0.99999726 -0.0022283092 0 0.43910405 0.0023344483 0.8984332 0 0 0 0 1 0.90291804 0.0031960919 -0.4298009 15.720233 -0.013389349 0.9996962 -0.020694148 0 0.4296042 0.024439875 0.90268654 0 0 0 0 1 0.9103263 0.00501973 -0.4138609 15.720233 -0.031960532 0.9977933 -0.05819796 0 0.4126555 0.06620635 0.9084779 0 0 0 0 1 0.91775006 0.008415127 -0.39706922 15.720233 -0.05355943 0.99326503 -0.102742076 0 0.39353037 0.115558356 0.9120198 0 0 0 0 1 0.9230343 0.0134872645 -0.38448104 15.720233 -0.07337218 0.98721313 -0.14151603 0 0.37765607 0.15883437 0.9122212 0 0 0 0 1 0.9249491 0.020064518 -0.379561 15.720233 -0.08673923 0.98339784 -0.15938933 0 0.3700614 0.18034984 0.9113334 0 0 0 0 1 0.92242706 0.025764734 -0.3853109 15.720233 -0.09446796 0.9825118 -0.16045652 0 0.3744384 0.18440898 0.90872943 0 0 0 0 1 0.91707283 0.029133886 -0.39765397 15.720233 -0.10030401 0.98211044 -0.15936817 0 0.38589707 0.18603851 0.903589 0 0 0 0 1 0.9110087 0.03052906 -0.41125554 15.720233 -0.10406662 0.9819995 -0.15762965 0 0.39904046 0.18639995 0.89778715 0 0 0 0 1 0.90659916 0.023430627 -0.4213419 15.720233 -0.08920936 0.9865332 -0.13709067 0 0.41245568 0.16187392 0.89648044 0 0 0 0 1 0.9034706 0.0074230656 -0.4285858 15.720233 -0.052415017 0.9942601 -0.0932718 0 0.42543337 0.10673266 0.8986738 0 0 0 0 1 0.9003248 -0.008886246 -0.43512788 15.720233 -0.015161242 0.99854434 -0.051762607 0 0.43495443 0.05320024 0.8988795 0 0 0 0 1 0.8973932 -0.014825033 -0.44098252 15.720233 0.0018441118 0.99955267 -0.029850407 0 0.4412278 0.025974331 0.89701915 0 0 0 0 1 0.8958077 -0.013943702 -0.44422314 15.720233 0.0062121283 0.99980295 -0.018855575 0 0.4443985 0.014131398 0.89571774 0 0 0 0 1 0.8959022 -0.010409275 -0.44412938 15.720233 0.0062519982 0.99992186 -0.01082406 0 0.44420734 0.0069206036 0.89589727 0 0 0 0 1 0.8970053 -0.005463384 -0.44198596 15.720233 0.003333361 0.9999788 -0.005595711 0 0.44200718 0.0035460836 0.8970045 0 0 0 0 1 0.8970053 -0.005463384 -0.44198596 15.720233 0.003333361 0.9999788 -0.005595711 0 0.44200718 0.0035460836 0.8970045 0 0 0 0 1</float_array>
        <technique_common>
          <accessor source="#Motion_31_Neck_transform_pose_array_id" count="17" stride="16">
            <param name="TRANSFORM" type="float4x4" />
          </accessor>
        </technique_common>
      </source>
      <sampler id="Motion_31_Neck_transform_samp_id">
        <input semantic="INPUT" source="#Motion_31_Neck_transform_frame_id" />
        <input semantic="INTERPOLATION" source="#Motion_31_Neck_transform_interp_id" />
        <input semantic="OUTPUT" source="#Motion_31_Neck_transform_pose_id" />
      </sampler>
      <channel source="#Motion_31_Neck_transform_samp_id" target="Neck_bone_id/transform" />
    </animation>
    <animation id="Motion_31_Head_transform_id" name="Motion_31_Head_transform">
      <source id="Motion_31_Head_transform_frame_id" name="Motion_31_Head_transform_frame">
        <float_array id="Motion_31_Head_transform_frame_array_id" count="17">0 0.033333335 0.06666667 0.1 0.13333334 0.16666667 0.2 0.23333333 0.26666668 0.3 0.33333334 0.36666667 0.4 0.43333334 0.46666667 0.5 0.53333336</float_array>
        <technique_common>
          <accessor source="#Motion_31_Head_transform_frame_array_id" count="17" stride="1">
            <param name="TIME" type="float" />
          </accessor>
        </technique_common>
      </source>
      <source id="Motion_31_Head_transform_interp_id" name="Motion_31_Head_transform_interp">
        <Name_array id="Motion_31_Head_transform_interp_array_id" count="17">LINEAR LINEAR LINEAR LINEAR LINEAR LINEAR LINEAR LINEAR LINEAR LINEAR LINEAR LINEAR LINEAR LINEAR LINEAR LINEAR LINEAR</Name_array>
        <technique_common>
          <accessor source="#Motion_31_Head_transform_interp_array_id" count="17" stride="1">
            <param name="INTERPOLATION" type="Name" />
          </accessor>
        </technique_common>
      </source>
      <source id="Motion_31_Head_transform_pose_id" name="Motion_31_Head_transform_pose">
        <float_array id="Motion_31_Head_transform_pose_array_id" count="272">0.98110604 0.0031480927 0.193445 5.129917 -0.003217811 0.9999948 4.6203233E-05 0 -0.19344386 -0.00066779973 0.9811111 0 0 0 0 1 0.9788625 -0.020502869 0.20348918 5.129917 0.010658668 0.9987244 0.049355663 0 -0.20424154 -0.046143487 0.9778324 0 0 0 0 1 0.97339106 -0.049844522 0.22366364 5.129917 0.021063682 0.9913863 0.12926541 0 -0.22818024 -0.12111462 0.9660564 0 0 0 0 1 0.9701445 -0.068242386 0.23272857 5.129917 0.027761122 0.984536 0.17296883 0 -0.24093345 -0.16134396 0.9570367 0 0 0 0 1 0.97069377 -0.059458673 0.23284817 5.129917 0.033045165 0.9927298 0.115739204 0 -0.23803702 -0.104652815 0.96560144 0 0 0 0 1 0.97133255 -0.035685536 0.235031 5.129917 0.036761183 0.9993241 -0.00019537797 0 -0.23486514 0.008829793 0.97198784 0 0 0 0 1 0.97049963 -0.018687284 0.24037717 5.129917 0.0347412 0.99742615 -0.06272284 0 -0.23858635 0.069223486 0.96865094 0 0 0 0 1 0.9667019 -0.017735468 0.25528982 5.129917 0.027917108 0.9989504 -0.036314283 0 -0.2543778 0.04223204 0.96618235 0 0 0 0 1 0.9627828 -0.020740213 0.26947942 5.129917 0.01774977 0.9997509 0.013529326 0 -0.26969293 -0.008242604 0.9629111 0 0 0 0 1 0.9620739 -0.017970126 0.27219635 5.129917 0.0064266766 0.999044 0.04324088 0 -0.27271318 -0.039851602 0.9612697 0 0 0 0 1 0.964612 -0.002604182 0.2636606 5.129917 -0.0057138996 0.99950993 0.030776694 0 -0.26361156 -0.031194098 0.9641244 0 0 0 0 1 0.9682546 0.014748681 0.24953058 5.129917 -0.016340325 0.9998572 0.004308164 0 -0.2494314 -0.008248811 0.9683573 0 0 0 0 1 0.97148407 0.02254243 0.23603077 5.129917 -0.021171538 0.9997411 -0.008341204 0 -0.2361577 0.0031062125 0.9717098 0 0 0 0 1 0.97448546 0.021786343 0.22339073 5.129917 -0.020942003 0.99976176 -0.0061483206 0 -0.22347146 0.0013132 0.9747096 0 0 0 0 1 0.97723866 0.016789813 0.21147738 5.129917 -0.016304474 0.9998589 -0.0040386473 0 -0.21151535 0.00049869483 0.97737455 0 0 0 0 1 0.97945875 0.009986145 0.20139734 5.129917 -0.009810127 0.9999501 -0.001872088 0 -0.20140599 -0.00014210038 0.97950786 0 0 0 0 1 0.97945875 0.009986145 0.20139734 5.129917 -0.009810127 0.9999501 -0.001872088 0 -0.20140599 -0.00014210038 0.97950786 0 0 0 0 1</float_array>
        <technique_common>
          <accessor source="#Motion_31_Head_transform_pose_array_id" count="17" stride="16">
            <param name="TRANSFORM" type="float4x4" />
          </accessor>
        </technique_common>
      </source>
      <sampler id="Motion_31_Head_transform_samp_id">
        <input semantic="INPUT" source="#Motion_31_Head_transform_frame_id" />
        <input semantic="INTERPOLATION" source="#Motion_31_Head_transform_interp_id" />
        <input semantic="OUTPUT" source="#Motion_31_Head_transform_pose_id" />
      </sampler>
      <channel source="#Motion_31_Head_transform_samp_id" target="Head_bone_id/transform" />
    </animation>
    <animation id="Motion_31_Hair_transform_id" name="Motion_31_Hair_transform">
      <source id="Motion_31_Hair_transform_frame_id" name="Motion_31_Hair_transform_frame">
        <float_array id="Motion_31_Hair_transform_frame_array_id" count="17">0 0.033333335 0.06666667 0.1 0.13333334 0.16666667 0.2 0.23333333 0.26666668 0.3 0.33333334 0.36666667 0.4 0.43333334 0.46666667 0.5 0.53333336</float_array>
        <technique_common>
          <accessor source="#Motion_31_Hair_transform_frame_array_id" count="17" stride="1">
            <param name="TIME" type="float" />
          </accessor>
        </technique_common>
      </source>
      <source id="Motion_31_Hair_transform_interp_id" name="Motion_31_Hair_transform_interp">
        <Name_array id="Motion_31_Hair_transform_interp_array_id" count="17">LINEAR LINEAR LINEAR LINEAR LINEAR LINEAR LINEAR LINEAR LINEAR LINEAR LINEAR LINEAR LINEAR LINEAR LINEAR LINEAR LINEAR</Name_array>
        <technique_common>
          <accessor source="#Motion_31_Hair_transform_interp_array_id" count="17" stride="1">
            <param name="INTERPOLATION" type="Name" />
          </accessor>
        </technique_common>
      </source>
      <source id="Motion_31_Hair_transform_pose_id" name="Motion_31_Hair_transform_pose">
        <float_array id="Motion_31_Hair_transform_pose_array_id" count="272">-0.9888309 -1.9730912E-06 0.14904137 16.11567 -1.9790293E-06 1 1.084641E-07 0 -0.14904137 -1.8770461E-07 -0.9888309 -19.957026 0 0 0 1 -0.9897945 -0.012844019 0.14191912 16.11567 -0.013701636 0.9998933 -0.0050674053 0 -0.1418389 -0.006960217 -0.98986495 -19.957026 0 0 0 1 -0.9909742 -0.039494634 0.12810104 16.11567 -0.041716494 0.99902123 -0.014707137 0 -0.12739481 -0.019918323 -0.9916518 -19.957026 0 0 0 1 -0.99124575 -0.06277159 0.11615597 16.11567 -0.06546365 0.99766433 -0.01950457 0 -0.11466034 -0.026937809 -0.9930397 -19.957026 0 0 0 1 -0.9912814 -0.06568584 0.11422232 16.11567 -0.06816062 0.9975139 -0.017893279 0 -0.11276302 -0.025522737 -0.99329424 -19.957026 0 0 0 1 -0.99122703 -0.056468382 0.11949946 16.11567 -0.05855783 0.9981852 -0.014043586 0 -0.11848958 -0.020918014 -0.9927349 -19.957026 0 0 0 1 -0.99074495 -0.034882665 0.13117483 16.11567 -0.036236614 0.9993116 -0.007948199 0 -0.13080728 -0.012627974 -0.9913269 -19.957026 0 0 0 1 -0.9888309 -4.6585967E-05 0.14904137 16.11567 -5.8836096E-05 1 -7.7783676E-05 0 -0.14904137 -8.5683925E-05 -0.9888309 -19.957026 0 0 0 1 -0.984761 0.03562819 0.17022374 16.11567 0.03735557 0.99927783 0.00695468 0 -0.16985303 0.013207504 -0.98538065 -19.957026 0 0 0 1 -0.98011744 0.059698947 0.18922588 16.11567 0.06304496 0.99794203 0.01170747 0 -0.18813753 0.023404427 -0.9818641 -19.957026 0 0 0 1 -0.97639656 0.073677525 0.2030308 16.11567 0.07826939 0.9968243 0.014669782 0 -0.20130521 0.03021462 -0.97906256 -19.957026 0 0 0 1 -0.97434473 0.079334185 0.21061534 16.11567 0.08452329 0.99629724 0.015736649 0 -0.20858702 0.033134818 -0.9774426 -19.957026 0 0 0 1 -0.9749172 0.077410296 0.20867303 16.11567 0.08229953 0.9964972 0.014836991 0 -0.20679355 0.031638525 -0.9778731 -19.957026 0 0 0 1 -0.9790515 0.05934542 0.19477373 16.11567 0.062994435 0.99793446 0.01258865 0 -0.19362435 0.024594594 -0.9807677 -19.957026 0 0 0 1 -0.9841188 0.033923846 0.17423782 16.11567 0.035808984 0.9993291 0.007686151 0 -0.17386016 0.013803368 -0.9846734 -19.957026 0 0 0 1 -0.9875995 0.010338975 0.1566548 16.11567 0.010875881 0.99993753 0.0025705071 0 -0.15661845 0.0042423895 -0.9876503 -19.957026 0 0 0 1 -0.9875995 0.010338975 0.1566548 16.11567 0.010875881 0.99993753 0.0025705071 0 -0.15661845 0.0042423895 -0.9876503 -19.957026 0 0 0 1</float_array>
        <technique_common>
          <accessor source="#Motion_31_Hair_transform_pose_array_id" count="17" stride="16">
            <param name="TRANSFORM" type="float4x4" />
          </accessor>
        </technique_common>
      </source>
      <sampler id="Motion_31_Hair_transform_samp_id">
        <input semantic="INPUT" source="#Motion_31_Hair_transform_frame_id" />
        <input semantic="INTERPOLATION" source="#Motion_31_Hair_transform_interp_id" />
        <input semantic="OUTPUT" source="#Motion_31_Hair_transform_pose_id" />
      </sampler>
      <channel source="#Motion_31_Hair_transform_samp_id" target="Hair_bone_id/transform" />
    </animation>
    <animation id="Motion_31_LShoulder_transform_id" name="Motion_31_LShoulder_transform">
      <source id="Motion_31_LShoulder_transform_frame_id" name="Motion_31_LShoulder_transform_frame">
        <float_array id="Motion_31_LShoulder_transform_frame_array_id" count="17">0 0.033333335 0.06666667 0.1 0.13333334 0.16666667 0.2 0.23333333 0.26666668 0.3 0.33333334 0.36666667 0.4 0.43333334 0.46666667 0.5 0.53333336</float_array>
        <technique_common>
          <accessor source="#Motion_31_LShoulder_transform_frame_array_id" count="17" stride="1">
            <param name="TIME" type="float" />
          </accessor>
        </technique_common>
      </source>
      <source id="Motion_31_LShoulder_transform_interp_id" name="Motion_31_LShoulder_transform_interp">
        <Name_array id="Motion_31_LShoulder_transform_interp_array_id" count="17">LINEAR LINEAR LINEAR LINEAR LINEAR LINEAR LINEAR LINEAR LINEAR LINEAR LINEAR LINEAR LINEAR LINEAR LINEAR LINEAR LINEAR</Name_array>
        <technique_common>
          <accessor source="#Motion_31_LShoulder_transform_interp_array_id" count="17" stride="1">
            <param name="INTERPOLATION" type="Name" />
          </accessor>
        </technique_common>
      </source>
      <source id="Motion_31_LShoulder_transform_pose_id" name="Motion_31_LShoulder_transform_pose">
        <float_array id="Motion_31_LShoulder_transform_pose_array_id" count="272">-0.59378314 0.79429376 -0.1285259 14.14009 -0.7770734 -0.6075299 -0.16451225 -3.930001 -0.20875438 0.0021894649 0.97796565 -0.201936 0 0 0 1 -0.5959996 0.7926913 -0.12816116 14.14009 -0.7759331 -0.6096171 -0.1621579 -3.930001 -0.20667034 0.0027984604 0.9784066 -0.201936 0 0 0 1 -0.60025525 0.7895099 -0.12793413 14.14009 -0.773101 -0.613731 -0.16015123 -3.930001 -0.2049582 0.0027743578 0.9787668 -0.201936 0 0 0 1 -0.6046456 0.7861936 -0.12768584 14.14009 -0.7699748 -0.6179764 -0.15888397 -3.930001 -0.20382038 0.0022464246 0.9790057 -0.201936 0 0 0 1 -0.607404 0.7841217 -0.12733221 14.14009 -0.76790935 -0.62060547 -0.15863192 -3.930001 -0.20340979 0.0014259294 0.97909266 -0.201936 0 0 0 1 -0.60768175 0.78392833 -0.12719998 14.14009 -0.76630205 -0.6208445 -0.1653291 -3.930001 -0.20857751 -0.002993837 0.97800124 -0.201936 0 0 0 1 -0.6059457 0.78527373 -0.12718186 14.14009 -0.76444787 -0.6190351 -0.1800425 -3.930001 -0.22011265 -0.011872068 0.97540224 -0.201936 0 0 0 1 -0.6040218 0.786744 -0.12724689 14.14009 -0.76254916 -0.6169367 -0.19469967 -3.930001 -0.23168206 -0.020570815 0.97257406 -0.201936 0 0 0 1 -0.6036457 0.7870295 -0.1272662 14.14009 -0.7612529 -0.61642396 -0.20128539 -3.930001 -0.23686746 -0.02462326 0.9712299 -0.201936 0 0 0 1 -0.60447216 0.7863065 -0.1278116 14.14009 -0.76062787 -0.61736524 -0.20076296 -3.930001 -0.2367676 -0.024138547 0.9712664 -0.201936 0 0 0 1 -0.60573876 0.785319 -0.12788339 14.14009 -0.76013994 -0.61866 -0.19861189 -3.930001 -0.23509006 -0.023097672 0.9716991 -0.201936 0 0 0 1 -0.60703814 0.78427047 -0.12815726 14.14009 -0.75992364 -0.6200633 -0.19503146 -3.930001 -0.23242307 -0.021001838 0.972388 -0.201936 0 0 0 1 -0.6074027 0.7839503 -0.12838805 14.14009 -0.7608439 -0.6205747 -0.18974552 -3.930001 -0.22842547 -0.0175687 0.97340286 -0.201936 0 0 0 1 -0.6056622 0.78525084 -0.12866351 14.14009 -0.76378125 -0.61905277 -0.18278915 -3.930001 -0.22318485 -0.012437716 0.9746968 -0.201936 0 0 0 1 -0.6009226 0.7888878 -0.12863986 14.14009 -0.769196 -0.6145042 -0.17527758 -3.930001 -0.21732406 -0.0063789934 0.9760787 -0.201936 0 0 0 1 -0.595997 0.7926395 -0.12849179 14.14009 -0.7744516 -0.6096896 -0.16882947 -3.930001 -0.212161 -0.0011111945 0.97723407 -0.201936 0 0 0 1 -0.595997 0.7926395 -0.12849179 14.14009 -0.7744516 -0.6096896 -0.16882947 -3.930001 -0.212161 -0.0011111945 0.97723407 -0.201936 0 0 0 1</float_array>
        <technique_common>
          <accessor source="#Motion_31_LShoulder_transform_pose_array_id" count="17" stride="16">
            <param name="TRANSFORM" type="float4x4" />
          </accessor>
        </technique_common>
      </source>
      <sampler id="Motion_31_LShoulder_transform_samp_id">
        <input semantic="INPUT" source="#Motion_31_LShoulder_transform_frame_id" />
        <input semantic="INTERPOLATION" source="#Motion_31_LShoulder_transform_interp_id" />
        <input semantic="OUTPUT" source="#Motion_31_LShoulder_transform_pose_id" />
      </sampler>
      <channel source="#Motion_31_LShoulder_transform_samp_id" target="LShoulder_bone_id/transform" />
    </animation>
    <animation id="Motion_31_LArm_transform_id" name="Motion_31_LArm_transform">
      <source id="Motion_31_LArm_transform_frame_id" name="Motion_31_LArm_transform_frame">
        <float_array id="Motion_31_LArm_transform_frame_array_id" count="17">0 0.033333335 0.06666667 0.1 0.13333334 0.16666667 0.2 0.23333333 0.26666668 0.3 0.33333334 0.36666667 0.4 0.43333334 0.46666667 0.5 0.53333336</float_array>
        <technique_common>
          <accessor source="#Motion_31_LArm_transform_frame_array_id" count="17" stride="1">
            <param name="TIME" type="float" />
          </accessor>
        </technique_common>
      </source>
      <source id="Motion_31_LArm_transform_interp_id" name="Motion_31_LArm_transform_interp">
        <Name_array id="Motion_31_LArm_transform_interp_array_id" count="17">LINEAR LINEAR LINEAR LINEAR LINEAR LINEAR LINEAR LINEAR LINEAR LINEAR LINEAR LINEAR LINEAR LINEAR LINEAR LINEAR LINEAR</Name_array>
        <technique_common>
          <accessor source="#Motion_31_LArm_transform_interp_array_id" count="17" stride="1">
            <param name="INTERPOLATION" type="Name" />
          </accessor>
        </technique_common>
      </source>
      <source id="Motion_31_LArm_transform_pose_id" name="Motion_31_LArm_transform_pose">
        <float_array id="Motion_31_LArm_transform_pose_array_id" count="272">0.7974249 0.5503805 0.24737585 8.161509 -0.56922203 0.8221641 0.0056945756 0 -0.20024934 -0.14535278 0.9689029 0 0 0 0 1 0.81765485 0.53672904 0.2082368 8.161509 -0.552098 0.83355427 0.019366547 0 -0.1631821 -0.13080227 0.9778867 0 0 0 0 1 0.85461116 0.49919027 0.14299959 8.161509 -0.51010185 0.8585793 0.051358752 0 -0.09713869 -0.11683611 0.9883893 0 0 0 0 1 0.88373923 0.4614909 0.07766053 8.161509 -0.46677038 0.88115615 0.0754272 0 -0.033622093 -0.102907605 0.9941225 0 0 0 0 1 0.8987271 0.4363757 0.043194868 8.161509 -0.43849722 0.89503485 0.08144213 0 -0.0031215455 -0.09213509 0.9957416 0 0 0 0 1 0.9064205 0.41958627 0.048468493 8.161509 -0.42219707 0.90339416 0.07502421 0 -0.012307024 -0.08846674 0.9960031 0 0 0 0 1 0.90827334 0.41234878 0.07076733 8.161509 -0.4167879 0.9065149 0.06722058 0 -0.036433306 -0.09054963 0.9952253 0 0 0 0 1 0.9042152 0.4137449 0.10587743 8.161509 -0.4210023 0.9051932 0.05815767 0 -0.07177709 -0.097161695 0.99267703 0 0 0 0 1 0.8940595 0.422714 0.14822462 8.161509 -0.4334213 0.8999189 0.04787419 0 -0.11315304 -0.10704609 0.9877943 0 0 0 0 1 0.87824315 0.43711087 0.19396676 8.161509 -0.45289508 0.89048314 0.04388453 0 -0.15354173 -0.12638788 0.98002607 0 0 0 0 1 0.85947835 0.45235255 0.23806337 8.161509 -0.47548667 0.87844014 0.04749095 0 -0.18764177 -0.1540134 0.9700878 0 0 0 0 1 0.8405204 0.46707413 0.274531 8.161509 -0.49750838 0.86602974 0.049778916 0 -0.21450156 -0.17842168 0.9602889 0 0 0 0 1 0.8230082 0.48399335 0.29733473 8.161509 -0.5177298 0.8545073 0.042107455 0 -0.23369497 -0.18859383 0.95384437 0 0 0 0 1 0.80896014 0.50328565 0.30378786 8.161509 -0.5353484 0.8441997 0.026998848 0 -0.24286948 -0.18447334 0.95235705 0 0 0 0 1 0.7989017 0.52287805 0.2972451 8.161509 -0.5508075 0.8345406 0.012373649 0 -0.24159318 -0.17361012 0.95472103 0 0 0 0 1 0.7960986 0.5398071 0.2735605 8.161509 -0.56294584 0.8264605 0.007424794 0 -0.22207898 -0.15991062 0.96182615 0 0 0 0 1 0.7960986 0.5398071 0.2735605 8.161509 -0.56294584 0.8264605 0.007424794 0 -0.22207898 -0.15991062 0.96182615 0 0 0 0 1</float_array>
        <technique_common>
          <accessor source="#Motion_31_LArm_transform_pose_array_id" count="17" stride="16">
            <param name="TRANSFORM" type="float4x4" />
          </accessor>
        </technique_common>
      </source>
      <sampler id="Motion_31_LArm_transform_samp_id">
        <input semantic="INPUT" source="#Motion_31_LArm_transform_frame_id" />
        <input semantic="INTERPOLATION" source="#Motion_31_LArm_transform_interp_id" />
        <input semantic="OUTPUT" source="#Motion_31_LArm_transform_pose_id" />
      </sampler>
      <channel source="#Motion_31_LArm_transform_samp_id" target="LArm_bone_id/transform" />
    </animation>
    <animation id="Motion_31_LForeArm_transform_id" name="Motion_31_LForeArm_transform">
      <source id="Motion_31_LForeArm_transform_frame_id" name="Motion_31_LForeArm_transform_frame">
        <float_array id="Motion_31_LForeArm_transform_frame_array_id" count="17">0 0.033333335 0.06666667 0.1 0.13333334 0.16666667 0.2 0.23333333 0.26666668 0.3 0.33333334 0.36666667 0.4 0.43333334 0.46666667 0.5 0.53333336</float_array>
        <technique_common>
          <accessor source="#Motion_31_LForeArm_transform_frame_array_id" count="17" stride="1">
            <param name="TIME" type="float" />
          </accessor>
        </technique_common>
      </source>
      <source id="Motion_31_LForeArm_transform_interp_id" name="Motion_31_LForeArm_transform_interp">
        <Name_array id="Motion_31_LForeArm_transform_interp_array_id" count="17">LINEAR LINEAR LINEAR LINEAR LINEAR LINEAR LINEAR LINEAR LINEAR LINEAR LINEAR LINEAR LINEAR LINEAR LINEAR LINEAR LINEAR</Name_array>
        <technique_common>
          <accessor source="#Motion_31_LForeArm_transform_interp_array_id" count="17" stride="1">
            <param name="INTERPOLATION" type="Name" />
          </accessor>
        </technique_common>
      </source>
      <source id="Motion_31_LForeArm_transform_pose_id" name="Motion_31_LForeArm_transform_pose">
        <float_array id="Motion_31_LForeArm_transform_pose_array_id" count="272">0.9425561 7.7297016E-05 -0.33404788 22.9 -7.423288E-05 1 2.1938062E-05 0 0.33404788 4.1194817E-06 0.9425561 0 0 0 0 1 0.93201315 7.7156394E-05 -0.3624244 22.9 -7.38259E-05 1 2.3038403E-05 0 0.3624244 5.2842142E-06 0.93201315 0 0 0 0 1 0.90805537 7.680003E-05 -0.41885012 22.9 -7.293488E-05 1 2.5238412E-05 0 0.41885012 7.630907E-06 0.90805537 0 0 0 0 1 0.8775368 7.629439E-05 -0.47950938 22.9 -7.184546E-05 1 2.7626897E-05 0 0.47950938 1.0206955E-05 0.8775368 0 0 0 0 1 0.8524215 7.5847514E-05 -0.5228552 22.9 -7.09744E-05 1 2.9353094E-05 0 0.5228552 1.2088128E-05 0.8524215 0 0 0 0 1 0.83793974 7.5579956E-05 -0.5457627 22.9 -7.047986E-05 1 3.0273368E-05 0 0.5457627 1.3098022E-05 0.83793974 0 0 0 0 1 0.82841265 7.540048E-05 -0.5601183 22.9 -7.015706E-05 1 3.085329E-05 0 0.5601183 1.37370025E-05 0.82841265 0 0 0 0 1 0.8226418 7.529055E-05 -0.56856 22.9 -6.996242E-05 1 3.1195545E-05 0 0.56856 1.4115075E-05 0.8226418 0 0 0 0 1 0.8191722 7.522403E-05 -0.57354766 22.9 -6.98457E-05 1 3.1398216E-05 0 0.57354766 1.4339293E-05 0.8191722 0 0 0 0 1 0.83034474 7.54371E-05 -0.5572501 22.9 -7.022238E-05 1 3.0737214E-05 0 0.5572501 1.360894E-05 0.83034474 0 0 0 0 1 0.8602345 7.598904E-05 -0.50989854 22.9 -7.12434E-05 1 2.8835151E-05 0 0.50989854 1.15219145E-05 0.8602345 0 0 0 0 1 0.8966555 7.661681E-05 -0.4427289 22.9 -7.252309E-05 1 2.6175343E-05 0 0.4427289 8.637804E-06 0.8966555 0 0 0 0 1 0.9269804 7.708534E-05 -0.37510976 22.9 -7.363527E-05 1 2.3531491E-05 0 0.37510976 5.808075E-06 0.9269804 0 0 0 0 1 0.94651 7.734642E-05 -0.3226744 22.9 -7.438863E-05 1 2.1497968E-05 0 0.3226744 3.6552628E-06 0.94651 0 0 0 0 1 0.95230395 7.7414945E-05 -0.30515116 22.9 -7.4620555E-05 1 2.0820826E-05 0 0.30515116 2.942793E-06 0.95230395 0 0 0 0 1 0.94754606 7.735903E-05 -0.3196193 22.9 -7.442976E-05 1 2.1379836E-05 0 0.3196193 3.5308094E-06 0.94754606 0 0 0 0 1 0.94754606 7.735903E-05 -0.3196193 22.9 -7.442976E-05 1 2.1379836E-05 0 0.3196193 3.5308094E-06 0.94754606 0 0 0 0 1</float_array>
        <technique_common>
          <accessor source="#Motion_31_LForeArm_transform_pose_array_id" count="17" stride="16">
            <param name="TRANSFORM" type="float4x4" />
          </accessor>
        </technique_common>
      </source>
      <sampler id="Motion_31_LForeArm_transform_samp_id">
        <input semantic="INPUT" source="#Motion_31_LForeArm_transform_frame_id" />
        <input semantic="INTERPOLATION" source="#Motion_31_LForeArm_transform_interp_id" />
        <input semantic="OUTPUT" source="#Motion_31_LForeArm_transform_pose_id" />
      </sampler>
      <channel source="#Motion_31_LForeArm_transform_samp_id" target="LForeArm_bone_id/transform" />
    </animation>
    <animation id="Motion_31_LHand_transform_id" name="Motion_31_LHand_transform">
      <source id="Motion_31_LHand_transform_frame_id" name="Motion_31_LHand_transform_frame">
        <float_array id="Motion_31_LHand_transform_frame_array_id" count="17">0 0.033333335 0.06666667 0.1 0.13333334 0.16666667 0.2 0.23333333 0.26666668 0.3 0.33333334 0.36666667 0.4 0.43333334 0.46666667 0.5 0.53333336</float_array>
        <technique_common>
          <accessor source="#Motion_31_LHand_transform_frame_array_id" count="17" stride="1">
            <param name="TIME" type="float" />
          </accessor>
        </technique_common>
      </source>
      <source id="Motion_31_LHand_transform_interp_id" name="Motion_31_LHand_transform_interp">
        <Name_array id="Motion_31_LHand_transform_interp_array_id" count="17">LINEAR LINEAR LINEAR LINEAR LINEAR LINEAR LINEAR LINEAR LINEAR LINEAR LINEAR LINEAR LINEAR LINEAR LINEAR LINEAR LINEAR</Name_array>
        <technique_common>
          <accessor source="#Motion_31_LHand_transform_interp_array_id" count="17" stride="1">
            <param name="INTERPOLATION" type="Name" />
          </accessor>
        </technique_common>
      </source>
      <source id="Motion_31_LHand_transform_pose_id" name="Motion_31_LHand_transform_pose">
        <float_array id="Motion_31_LHand_transform_pose_array_id" count="272">0.98859125 -0.14587729 -0.03751172 22.900002 0.14589347 0.98929757 -0.002320307 0 0.037448734 -0.0031788803 0.9992935 0 0 0 0 1 0.99242085 -0.116201036 -0.03997707 22.900002 0.11619537 0.9932233 -0.002472874 0 0.039993506 -0.0021910185 0.99919754 0 0 0 0 1 0.99523395 -0.08424624 -0.04911142 22.900002 0.084027596 0.9964422 -0.006503527 0 0.04948459 0.002345817 0.99877214 0 0 0 0 1 0.99662983 -0.050866902 -0.06435441 22.900002 0.049748927 0.99858373 -0.018857969 0 0.06522251 0.015592853 0.9977489 0 0 0 0 1 0.9961051 -0.021651663 -0.08547457 22.900002 0.018050678 0.99892575 -0.04267975 0 0.08630683 0.04097064 0.9954258 0 0 0 0 1 0.9918265 -0.005041548 -0.1274946 22.900002 -0.007990041 0.99480397 -0.101495154 0 0.12734383 0.101684265 0.9866326 0 0 0 0 1 0.9821946 -0.0079686595 -0.18769734 22.900002 -0.028059565 0.9816706 -0.18850854 0 0.18575911 0.19041878 0.963968 0 0 0 0 1 0.97097796 -0.02451985 -0.23790875 22.900002 -0.04087979 0.9630778 -0.2661016 0 0.2356494 0.26810443 0.93412495 0 0 0 0 1 0.966572 -0.03459741 -0.25405043 22.900002 -0.044625215 0.95303017 -0.29956988 0 0.25248206 0.30089292 0.9196283 0 0 0 0 1 0.9745084 -0.046118684 -0.2195596 22.900002 -0.01103661 0.9676039 -0.25223166 0 0.22407933 0.24822508 0.9424292 0 0 0 0 1 0.9829621 -0.0880896 -0.16132514 22.900002 0.065714106 0.9880906 -0.13913532 0 0.17166023 0.12616341 0.9770443 0 0 0 0 1 0.9829761 -0.14436238 -0.11365544 22.900002 0.14345239 0.9895248 -0.016188283 0 0.11480186 -0.00039145257 0.99338835 0 0 0 0 1 0.9808622 -0.17473495 -0.08588994 22.900002 0.17890662 0.9829046 0.04348515 0 0.07682324 -0.05801922 0.9953552 0 0 0 0 1 0.9824479 -0.17459975 -0.06565815 22.900002 0.1773033 0.9834283 0.037846543 0 0.057962086 -0.048823662 0.9971242 0 0 0 0 1 0.9842809 -0.16939369 -0.049968813 22.900002 0.17064491 0.98508906 0.021906845 0 0.04551285 -0.030089412 0.9985105 0 0 0 0 1 0.9864288 -0.15922372 -0.040075235 22.900002 0.15955885 0.9871743 0.0052873483 0 0.03871937 -0.011609952 0.9991827 0 0 0 0 1 0.9864288 -0.15922372 -0.040075235 22.900002 0.15955885 0.9871743 0.0052873483 0 0.03871937 -0.011609952 0.9991827 0 0 0 0 1</float_array>
        <technique_common>
          <accessor source="#Motion_31_LHand_transform_pose_array_id" count="17" stride="16">
            <param name="TRANSFORM" type="float4x4" />
          </accessor>
        </technique_common>
      </source>
      <sampler id="Motion_31_LHand_transform_samp_id">
        <input semantic="INPUT" source="#Motion_31_LHand_transform_frame_id" />
        <input semantic="INTERPOLATION" source="#Motion_31_LHand_transform_interp_id" />
        <input semantic="OUTPUT" source="#Motion_31_LHand_transform_pose_id" />
      </sampler>
      <channel source="#Motion_31_LHand_transform_samp_id" target="LHand_bone_id/transform" />
    </animation>
    <animation id="Motion_31_RShoulder_transform_id" name="Motion_31_RShoulder_transform">
      <source id="Motion_31_RShoulder_transform_frame_id" name="Motion_31_RShoulder_transform_frame">
        <float_array id="Motion_31_RShoulder_transform_frame_array_id" count="17">0 0.033333335 0.06666667 0.1 0.13333334 0.16666667 0.2 0.23333333 0.26666668 0.3 0.33333334 0.36666667 0.4 0.43333334 0.46666667 0.5 0.53333336</float_array>
        <technique_common>
          <accessor source="#Motion_31_RShoulder_transform_frame_array_id" count="17" stride="1">
            <param name="TIME" type="float" />
          </accessor>
        </technique_common>
      </source>
      <source id="Motion_31_RShoulder_transform_interp_id" name="Motion_31_RShoulder_transform_interp">
        <Name_array id="Motion_31_RShoulder_transform_interp_array_id" count="17">LINEAR LINEAR LINEAR LINEAR LINEAR LINEAR LINEAR LINEAR LINEAR LINEAR LINEAR LINEAR LINEAR LINEAR LINEAR LINEAR LINEAR</Name_array>
        <technique_common>
          <accessor source="#Motion_31_RShoulder_transform_interp_array_id" count="17" stride="1">
            <param name="INTERPOLATION" type="Name" />
          </accessor>
        </technique_common>
      </source>
      <source id="Motion_31_RShoulder_transform_pose_id" name="Motion_31_RShoulder_transform_pose">
        <float_array id="Motion_31_RShoulder_transform_pose_array_id" count="272">-0.5894904 -0.7974857 -0.12852131 14.14009 0.77746 -0.6033188 0.17765859 3.93 -0.21921949 0.0048078373 0.9756637 -0.201935 0 0 0 1 -0.5930096 -0.79502404 -0.12757944 14.14009 0.77464736 -0.6065339 0.17899242 3.93 -0.21968453 0.007315144 0.97554356 -0.201935 0 0 0 1 -0.59626544 -0.7928658 -0.12582296 14.14009 0.7709436 -0.6092423 0.18566057 3.93 -0.22386059 0.013700575 0.97452486 -0.201935 0 0 0 1 -0.5983039 -0.7915754 -0.124262676 14.14009 0.76564425 -0.6105143 0.20263642 3.93 -0.23626609 0.026097126 0.97133785 -0.201935 0 0 0 1 -0.59833145 -0.7916064 -0.1239319 14.14009 0.757735 -0.6093066 0.23363116 3.93 -0.26045644 0.045881294 0.9643948 -0.201935 0 0 0 1 -0.59645605 -0.7929618 -0.12430519 14.14009 0.74938136 -0.60563254 0.26765072 3.93 -0.28752005 0.06648989 0.95546395 -0.201935 0 0 0 1 -0.5940515 -0.79477423 -0.12424435 14.14009 0.7432727 -0.6013731 0.29308036 3.93 -0.3076499 0.081757404 0.94798064 -0.201935 0 0 0 1 -0.59228146 -0.7961293 -0.12401941 14.14009 0.73942906 -0.59821117 0.30884963 3.93 -0.32007402 0.09122235 0.9429905 -0.201935 0 0 0 1 -0.59163034 -0.79660654 -0.12406108 14.14009 0.73795307 -0.5970576 0.3145588 3.93 -0.32465127 0.09455134 0.94109595 -0.201935 0 0 0 1 -0.5916542 -0.7965782 -0.124129795 14.14009 0.73885757 -0.5973736 0.31182382 3.93 -0.32254395 0.09277766 0.94199663 -0.201935 0 0 0 1 -0.59213567 -0.7962327 -0.124051325 14.14009 0.74166834 -0.59868574 0.3024952 3.93 -0.31512436 0.08711326 0.94504386 -0.201935 0 0 0 1 -0.59281754 -0.79577345 -0.1237424 14.14009 0.74614793 -0.6005428 0.2874227 3.93 -0.3030359 0.078059055 0.9497768 -0.201935 0 0 0 1 -0.59330964 -0.79540384 -0.12376122 14.14009 0.75234103 -0.6026044 0.266179 3.93 -0.2862988 0.06481586 0.95594555 -0.201935 0 0 0 1 -0.593295 -0.79526484 -0.12471913 14.14009 0.76013374 -0.6044674 0.23836078 3.93 -0.2649486 0.04661502 0.9631351 -0.201935 0 0 0 1 -0.59282887 -0.7953881 -0.12614074 14.14009 0.7677562 -0.60547936 0.20963049 3.93 -0.24311322 0.0274297 0.96961004 -0.201935 0 0 0 1 -0.5916685 -0.79595864 -0.12797847 14.14009 0.7738309 -0.60524297 0.18672669 3.93 -0.22608477 0.011446573 0.9740404 -0.201935 0 0 0 1 -0.5916685 -0.79595864 -0.12797847 14.14009 0.7738309 -0.60524297 0.18672669 3.93 -0.22608477 0.011446573 0.9740404 -0.201935 0 0 0 1</float_array>
        <technique_common>
          <accessor source="#Motion_31_RShoulder_transform_pose_array_id" count="17" stride="16">
            <param name="TRANSFORM" type="float4x4" />
          </accessor>
        </technique_common>
      </source>
      <sampler id="Motion_31_RShoulder_transform_samp_id">
        <input semantic="INPUT" source="#Motion_31_RShoulder_transform_frame_id" />
        <input semantic="INTERPOLATION" source="#Motion_31_RShoulder_transform_interp_id" />
        <input semantic="OUTPUT" source="#Motion_31_RShoulder_transform_pose_id" />
      </sampler>
      <channel source="#Motion_31_RShoulder_transform_samp_id" target="RShoulder_bone_id/transform" />
    </animation>
    <animation id="Motion_31_RArm_transform_id" name="Motion_31_RArm_transform">
      <source id="Motion_31_RArm_transform_frame_id" name="Motion_31_RArm_transform_frame">
        <float_array id="Motion_31_RArm_transform_frame_array_id" count="17">0 0.033333335 0.06666667 0.1 0.13333334 0.16666667 0.2 0.23333333 0.26666668 0.3 0.33333334 0.36666667 0.4 0.43333334 0.46666667 0.5 0.53333336</float_array>
        <technique_common>
          <accessor source="#Motion_31_RArm_transform_frame_array_id" count="17" stride="1">
            <param name="TIME" type="float" />
          </accessor>
        </technique_common>
      </source>
      <source id="Motion_31_RArm_transform_interp_id" name="Motion_31_RArm_transform_interp">
        <Name_array id="Motion_31_RArm_transform_interp_array_id" count="17">LINEAR LINEAR LINEAR LINEAR LINEAR LINEAR LINEAR LINEAR LINEAR LINEAR LINEAR LINEAR LINEAR LINEAR LINEAR LINEAR LINEAR</Name_array>
        <technique_common>
          <accessor source="#Motion_31_RArm_transform_interp_array_id" count="17" stride="1">
            <param name="INTERPOLATION" type="Name" />
          </accessor>
        </technique_common>
      </source>
      <source id="Motion_31_RArm_transform_pose_id" name="Motion_31_RArm_transform_pose">
        <float_array id="Motion_31_RArm_transform_pose_array_id" count="272">0.7998369 -0.5535917 0.23194215 8.161548 0.5682194 0.82286465 0.0045191795 0 -0.19335878 0.12817945 0.9727191 0 0 0 0 1 0.79962605 -0.5328843 0.27682588 8.161548 0.5610189 0.8273315 -0.027935915 0 -0.21414016 0.17764282 0.96051395 0 0 0 0 1 0.8086387 -0.4943946 0.31886896 8.161548 0.5413329 0.8375236 -0.07424865 0 -0.23035215 0.2326546 0.9448861 0 0 0 0 1 0.82430005 -0.44535616 0.34955296 8.161548 0.5128891 0.8488653 -0.1279552 0 -0.23973772 0.28475538 0.928138 0 0 0 0 1 0.84378123 -0.39882857 0.3591226 8.161548 0.47712988 0.8638265 -0.16171229 0 -0.24572411 0.30779794 0.9191736 0 0 0 0 1 0.862816 -0.36452708 0.3502408 8.161548 0.44108614 0.88134885 -0.169314 0 -0.24696478 0.30057317 0.9212297 0 0 0 0 1 0.87843186 -0.34711173 0.32843706 8.161548 0.41497293 0.89491665 -0.16407822 0 -0.23697034 0.28042403 0.9301653 0 0 0 0 1 0.89195293 -0.346292 0.2906919 8.161548 0.39892992 0.9053571 -0.14554508 0 -0.21277891 0.24578507 0.94568217 0 0 0 0 1 0.90138847 -0.3594465 0.24144778 8.161548 0.39369705 0.9124687 -0.11137128 0 -0.18028152 0.19544607 0.9640018 0 0 0 0 1 0.9058186 -0.37967023 0.18799794 8.161548 0.39723465 0.91539115 -0.06529725 0 -0.14730021 0.13382676 0.97999644 0 0 0 0 1 0.9054085 -0.40096265 0.13951471 8.161548 0.40704226 0.9132528 -0.016910609 0 -0.12063167 0.07209939 0.9900756 0 0 0 0 1 0.89945024 -0.42439002 0.104318425 8.161548 0.42473108 0.90509784 0.020035109 0 -0.10292108 0.026286697 0.99434215 0 0 0 0 1 0.8867732 -0.45324358 0.09057315 8.161548 0.45180193 0.8913499 0.03701757 0 -0.09751035 0.008094933 0.9952016 0 0 0 0 1 0.8653928 -0.49004164 0.104663536 8.161548 0.48895916 0.8714986 0.0375382 0 -0.10960941 0.018690908 0.993799 0 0 0 0 1 0.8378458 -0.52811027 0.13825323 8.161548 0.5290884 0.8479392 0.032627694 0 -0.13446136 0.045811206 0.98985934 0 0 0 0 1 0.8122616 -0.5534614 0.18415101 8.161548 0.55942446 0.82857007 0.02271234 0 -0.16515242 0.084570214 0.9826355 0 0 0 0 1 0.8122616 -0.5534614 0.18415101 8.161548 0.55942446 0.82857007 0.02271234 0 -0.16515242 0.084570214 0.9826355 0 0 0 0 1</float_array>
        <technique_common>
          <accessor source="#Motion_31_RArm_transform_pose_array_id" count="17" stride="16">
            <param name="TRANSFORM" type="float4x4" />
          </accessor>
        </technique_common>
      </source>
      <sampler id="Motion_31_RArm_transform_samp_id">
        <input semantic="INPUT" source="#Motion_31_RArm_transform_frame_id" />
        <input semantic="INTERPOLATION" source="#Motion_31_RArm_transform_interp_id" />
        <input semantic="OUTPUT" source="#Motion_31_RArm_transform_pose_id" />
      </sampler>
      <channel source="#Motion_31_RArm_transform_samp_id" target="RArm_bone_id/transform" />
    </animation>
    <animation id="Motion_31_RForeArm_transform_id" name="Motion_31_RForeArm_transform">
      <source id="Motion_31_RForeArm_transform_frame_id" name="Motion_31_RForeArm_transform_frame">
        <float_array id="Motion_31_RForeArm_transform_frame_array_id" count="17">0 0.033333335 0.06666667 0.1 0.13333334 0.16666667 0.2 0.23333333 0.26666668 0.3 0.33333334 0.36666667 0.4 0.43333334 0.46666667 0.5 0.53333336</float_array>
        <technique_common>
          <accessor source="#Motion_31_RForeArm_transform_frame_array_id" count="17" stride="1">
            <param name="TIME" type="float" />
          </accessor>
        </technique_common>
      </source>
      <source id="Motion_31_RForeArm_transform_interp_id" name="Motion_31_RForeArm_transform_interp">
        <Name_array id="Motion_31_RForeArm_transform_interp_array_id" count="17">LINEAR LINEAR LINEAR LINEAR LINEAR LINEAR LINEAR LINEAR LINEAR LINEAR LINEAR LINEAR LINEAR LINEAR LINEAR LINEAR LINEAR</Name_array>
        <technique_common>
          <accessor source="#Motion_31_RForeArm_transform_interp_array_id" count="17" stride="1">
            <param name="INTERPOLATION" type="Name" />
          </accessor>
        </technique_common>
      </source>
      <source id="Motion_31_RForeArm_transform_pose_id" name="Motion_31_RForeArm_transform_pose">
        <float_array id="Motion_31_RForeArm_transform_pose_array_id" count="272">0.9373401 -1.7484554E-07 -0.34841588 22.9 1.6388977E-07 1 -6.091882E-08 0 0.34841588 -1.4210855E-13 0.9373401 0 0 0 0 1 0.9468211 -1.7496923E-07 -0.32176054 22.9 1.6486815E-07 1 -5.8641724E-08 0 0.32176054 2.4751596E-09 0.9468211 0 0 0 0 1 0.9552364 -1.750442E-07 -0.29584363 22.9 1.6577012E-07 1 -5.6430324E-08 0 0.29584363 4.86226E-09 0.9552364 0 0 0 0 1 0.9624356 -1.7507504E-07 -0.27151012 22.9 1.6657422E-07 1 -5.4355578E-08 0 0.27151012 7.0871558E-09 0.9624356 0 0 0 0 1 0.96834373 -1.7507075E-07 -0.2496205 22.9 1.6726311E-07 1 -5.2489895E-08 0 0.2496205 9.075956E-09 0.96834373 0 0 0 0 1 0.9729437 -1.7504368E-07 -0.23104213 22.9 1.6782278E-07 1 -5.0906557E-08 0 0.23104213 1.0755082E-08 0.9729437 0 0 0 0 1 0.9762512 -1.7500815E-07 -0.2166418 22.9 1.6824109E-07 1 -4.9679173E-08 0 0.2166418 1.20513E-08 0.9762512 0 0 0 0 1 0.9783805 -1.7497663E-07 -0.20681283 22.9 1.6851891E-07 1 -4.8841287E-08 0 0.20681283 1.2933491E-08 0.9783805 0 0 0 0 1 0.97948575 -1.7495722E-07 -0.20151347 22.9 1.6866616E-07 1 -4.838947E-08 0 0.20151347 1.3408293E-08 0.97948575 0 0 0 0 1 0.9795839 -1.749554E-07 -0.20103559 22.9 1.6867935E-07 1 -4.8348728E-08 0 0.20103559 1.3451082E-08 0.9795839 0 0 0 0 1 0.9753486 -1.7501935E-07 -0.22066972 22.9 1.6812544E-07 1 -5.0022507E-08 0 0.22066972 1.168919E-08 0.9753486 0 0 0 0 1 0.9638643 -1.7507674E-07 -0.26639363 22.9 1.6673812E-07 1 -5.3919457E-08 0 0.26639363 7.553064E-09 0.9638643 0 0 0 0 1 0.94581383 -1.7495789E-07 -0.32470945 22.9 1.6476245E-07 1 -5.8893484E-08 0 0.32470945 2.2023467E-09 0.94581383 0 0 0 0 1 0.93002474 -1.7472718E-07 -0.36749697 22.9 1.6315678E-07 1 -6.2551116E-08 0 0.36749697 -1.785537E-09 0.93002474 0 0 0 0 1 0.92498076 -1.7463573E-07 -0.38001388 22.9 1.6266075E-07 1 -6.362311E-08 0 0.38001388 -2.9631906E-09 0.92498076 0 0 0 0 1 0.92865175 -1.7470305E-07 -0.37095273 22.9 1.6302104E-07 1 -6.284698E-08 0 0.37095273 -2.1101485E-09 0.92865175 0 0 0 0 1 0.92865175 -1.7470305E-07 -0.37095273 22.9 1.6302104E-07 1 -6.284698E-08 0 0.37095273 -2.1101485E-09 0.92865175 0 0 0 0 1</float_array>
        <technique_common>
          <accessor source="#Motion_31_RForeArm_transform_pose_array_id" count="17" stride="16">
            <param name="TRANSFORM" type="float4x4" />
          </accessor>
        </technique_common>
      </source>
      <sampler id="Motion_31_RForeArm_transform_samp_id">
        <input semantic="INPUT" source="#Motion_31_RForeArm_transform_frame_id" />
        <input semantic="INTERPOLATION" source="#Motion_31_RForeArm_transform_interp_id" />
        <input semantic="OUTPUT" source="#Motion_31_RForeArm_transform_pose_id" />
      </sampler>
      <channel source="#Motion_31_RForeArm_transform_samp_id" target="RForeArm_bone_id/transform" />
    </animation>
    <animation id="Motion_31_RHand_transform_id" name="Motion_31_RHand_transform">
      <source id="Motion_31_RHand_transform_frame_id" name="Motion_31_RHand_transform_frame">
        <float_array id="Motion_31_RHand_transform_frame_array_id" count="17">0 0.033333335 0.06666667 0.1 0.13333334 0.16666667 0.2 0.23333333 0.26666668 0.3 0.33333334 0.36666667 0.4 0.43333334 0.46666667 0.5 0.53333336</float_array>
        <technique_common>
          <accessor source="#Motion_31_RHand_transform_frame_array_id" count="17" stride="1">
            <param name="TIME" type="float" />
          </accessor>
        </technique_common>
      </source>
      <source id="Motion_31_RHand_transform_interp_id" name="Motion_31_RHand_transform_interp">
        <Name_array id="Motion_31_RHand_transform_interp_array_id" count="17">LINEAR LINEAR LINEAR LINEAR LINEAR LINEAR LINEAR LINEAR LINEAR LINEAR LINEAR LINEAR LINEAR LINEAR LINEAR LINEAR LINEAR</Name_array>
        <technique_common>
          <accessor source="#Motion_31_RHand_transform_interp_array_id" count="17" stride="1">
            <param name="INTERPOLATION" type="Name" />
          </accessor>
        </technique_common>
      </source>
      <source id="Motion_31_RHand_transform_pose_id" name="Motion_31_RHand_transform_pose">
        <float_array id="Motion_31_RHand_transform_pose_array_id" count="272">0.9902314 0.134997 -0.034894563 22.900002 -0.13478176 0.9908392 0.00845928 0 0.035716876 -0.0036734946 0.9993552 0 0 0 0 1 0.99382174 0.10842229 -0.02372693 22.900002 -0.108884744 0.9938699 -0.019150151 0 0.021505179 0.021615336 0.999535 0 0 0 0 1 0.9952696 0.096986584 0.005663792 22.900002 -0.096169166 0.9917979 -0.0841925 0 -0.013782881 0.083249554 0.99643344 0 0 0 0 1 0.9940121 0.101315 0.04092884 22.900002 -0.093239136 0.9817466 -0.16577114 0 -0.056976855 0.16096236 0.98531455 0 0 0 0 1 0.9906199 0.11793339 0.06902166 22.900002 -0.09793183 0.96499735 -0.24328882 0 -0.09529759 0.23424733 0.96749496 0 0 0 0 1 0.98623157 0.14189082 0.0849368 22.900002 -0.10968053 0.94563305 -0.30618346 0 -0.123763666 0.2926519 0.94817585 0 0 0 0 1 0.981335 0.16964675 0.090562955 22.900002 -0.12751223 0.9265409 -0.3539245 0 -0.14395243 0.3357706 0.93087906 0 0 0 0 1 0.9765681 0.19590648 0.08908112 22.900002 -0.14771707 0.91120917 -0.38454846 0 -0.15650706 0.36237893 0.91879654 0 0 0 0 1 0.9731628 0.21431202 0.08381287 22.900002 -0.16477567 0.9032115 -0.3963055 0 -0.16063377 0.37185943 0.9142852 0 0 0 0 1 0.9738732 0.21722382 0.06621792 22.900002 -0.17826372 0.9118974 -0.3696824 0 -0.1406878 0.34821954 0.9267956 0 0 0 0 1 0.9773482 0.20886642 0.03413558 22.900002 -0.18922013 0.9346282 -0.30110773 0 -0.094795376 0.287828 0.95297897 0 0 0 0 1 0.9798189 0.19988683 -0.00042230822 22.900002 -0.19541007 0.95742553 -0.21248832 0 -0.042069286 0.20828259 0.9771635 0 0 0 0 1 0.9802859 0.19630629 -0.022437278 22.900002 -0.19755211 0.97173357 -0.12925582 0 -0.003570674 0.13114019 0.9913574 0 0 0 0 1 0.98070014 0.19318852 -0.030089948 22.900002 -0.19481751 0.9785598 -0.06683452 0 0.016533151 0.07140667 0.9973103 0 0 0 0 1 0.9824048 0.18371877 -0.033588067 22.900002 -0.18455836 0.98253185 -0.023862537 0 0.028617349 0.029641632 0.9991509 0 0 0 0 1 0.9860182 0.16303058 -0.03448424 22.900002 -0.16309787 0.9866095 0.0008716857 0 0.03416459 0.004764808 0.99940485 0 0 0 0 1 0.9860182 0.16303058 -0.03448424 22.900002 -0.16309787 0.9866095 0.0008716857 0 0.03416459 0.004764808 0.99940485 0 0 0 0 1</float_array>
        <technique_common>
          <accessor source="#Motion_31_RHand_transform_pose_array_id" count="17" stride="16">
            <param name="TRANSFORM" type="float4x4" />
          </accessor>
        </technique_common>
      </source>
      <sampler id="Motion_31_RHand_transform_samp_id">
        <input semantic="INPUT" source="#Motion_31_RHand_transform_frame_id" />
        <input semantic="INTERPOLATION" source="#Motion_31_RHand_transform_interp_id" />
        <input semantic="OUTPUT" source="#Motion_31_RHand_transform_pose_id" />
      </sampler>
      <channel source="#Motion_31_RHand_transform_samp_id" target="RHand_bone_id/transform" />
    </animation>
    <animation id="Motion_31_Hips_transform_id" name="Motion_31_Hips_transform">
      <source id="Motion_31_Hips_transform_frame_id" name="Motion_31_Hips_transform_frame">
        <float_array id="Motion_31_Hips_transform_frame_array_id" count="17">0 0.033333335 0.06666667 0.1 0.13333334 0.16666667 0.2 0.23333333 0.26666668 0.3 0.33333334 0.36666667 0.4 0.43333334 0.46666667 0.5 0.53333336</float_array>
        <technique_common>
          <accessor source="#Motion_31_Hips_transform_frame_array_id" count="17" stride="1">
            <param name="TIME" type="float" />
          </accessor>
        </technique_common>
      </source>
      <source id="Motion_31_Hips_transform_interp_id" name="Motion_31_Hips_transform_interp">
        <Name_array id="Motion_31_Hips_transform_interp_array_id" count="17">LINEAR LINEAR LINEAR LINEAR LINEAR LINEAR LINEAR LINEAR LINEAR LINEAR LINEAR LINEAR LINEAR LINEAR LINEAR LINEAR LINEAR</Name_array>
        <technique_common>
          <accessor source="#Motion_31_Hips_transform_interp_array_id" count="17" stride="1">
            <param name="INTERPOLATION" type="Name" />
          </accessor>
        </technique_common>
      </source>
      <source id="Motion_31_Hips_transform_pose_id" name="Motion_31_Hips_transform_pose">
        <float_array id="Motion_31_Hips_transform_pose_array_id" count="272">-0.9994297 -0.00017993242 -0.033760253 -0.010002 0.00088684366 -0.9997804 -0.020925349 0 -0.033749085 -0.02094336 0.9992109 0 0 0 0 1 -0.99963486 -0.018322755 -0.019852377 -0.010002 0.018618431 -0.99971676 -0.014812661 0 -0.01957535 -0.0151768755 0.9996932 0 0 0 0 1 -0.99898684 -0.044998854 0.00022101913 -0.010002 0.044995792 -0.9989569 -0.0077526895 0 0.0005696508 -0.007734891 0.9999699 0 0 0 0 1 -0.9969673 -0.072932355 0.027147265 -0.010002 0.072872736 -0.99733615 -0.0031803933 0 0.027306905 -0.0011924526 0.9996264 0 0 0 0 1 -0.9939381 -0.095257364 0.054890055 -0.010002 0.095104285 -0.99545264 -0.005400276 0 0.05515487 -0.00014726049 0.9984778 0 0 0 0 1 -0.9923048 -0.10433604 0.06667128 -0.010002 0.10348897 -0.99450123 -0.01604447 0 0.06797868 -0.009021264 0.997646 0 0 0 0 1 -0.9950478 -0.092559725 0.03622837 -0.010002 0.091458246 -0.99532723 -0.030967012 0 0.038925383 -0.027500276 0.99886364 0 0 0 0 1 -0.9978374 -0.063125595 -0.01832079 -0.010002 0.06397414 -0.9966897 -0.050171085 0 -0.015093061 -0.05123464 0.9985726 0 0 0 0 1 -0.99858 -0.026894227 -0.04597958 -0.010002 0.029830895 -0.99747634 -0.06442381 0 -0.04413093 -0.06570395 0.9968628 0 0 0 0 1 -0.9985714 0.003262743 -0.053335875 -0.010002 0.00018442795 -0.9979179 -0.06449906 0 -0.05343526 -0.064416744 0.99649143 0 0 0 0 1 -0.99806154 0.021853229 -0.05827174 -0.010002 -0.018368976 -0.9980489 -0.05967259 0 -0.05946209 -0.058486525 0.99651575 0 0 0 0 1 -0.99765766 0.030761873 -0.061094623 -0.010002 -0.027604116 -0.9982718 -0.05187451 0 -0.06258481 -0.050066546 0.9967831 0 0 0 0 1 -0.99754786 0.033087593 -0.061671797 -0.010002 -0.030415889 -0.99857855 -0.04376809 0 -0.063032314 -0.04178496 0.99713635 0 0 0 0 1 -0.99776626 0.030857364 -0.059251938 -0.010002 -0.028697958 -0.99890494 -0.036956057 0 -0.060327407 -0.03517309 0.9975588 0 0 0 0 1 -0.9982823 0.024307428 -0.053306814 -0.010002 -0.02267359 -0.9992608 -0.031043287 0 -0.054021996 -0.029781308 0.9980955 0 0 0 0 1 -0.99892485 0.013847344 -0.044236317 -0.010002 -0.0127150845 -0.9995866 -0.02577532 0 -0.04457496 -0.025185145 0.9986885 0 0 0 0 1 -0.99892485 0.013847344 -0.044236317 -0.010002 -0.0127150845 -0.9995866 -0.02577532 0 -0.04457496 -0.025185145 0.9986885 0 0 0 0 1</float_array>
        <technique_common>
          <accessor source="#Motion_31_Hips_transform_pose_array_id" count="17" stride="16">
            <param name="TRANSFORM" type="float4x4" />
          </accessor>
        </technique_common>
      </source>
      <sampler id="Motion_31_Hips_transform_samp_id">
        <input semantic="INPUT" source="#Motion_31_Hips_transform_frame_id" />
        <input semantic="INTERPOLATION" source="#Motion_31_Hips_transform_interp_id" />
        <input semantic="OUTPUT" source="#Motion_31_Hips_transform_pose_id" />
      </sampler>
      <channel source="#Motion_31_Hips_transform_samp_id" target="Hips_bone_id/transform" />
    </animation>
    <animation id="Motion_31_LThigh_transform_id" name="Motion_31_LThigh_transform">
      <source id="Motion_31_LThigh_transform_frame_id" name="Motion_31_LThigh_transform_frame">
        <float_array id="Motion_31_LThigh_transform_frame_array_id" count="17">0 0.033333335 0.06666667 0.1 0.13333334 0.16666667 0.2 0.23333333 0.26666668 0.3 0.33333334 0.36666667 0.4 0.43333334 0.46666667 0.5 0.53333336</float_array>
        <technique_common>
          <accessor source="#Motion_31_LThigh_transform_frame_array_id" count="17" stride="1">
            <param name="TIME" type="float" />
          </accessor>
        </technique_common>
      </source>
      <source id="Motion_31_LThigh_transform_interp_id" name="Motion_31_LThigh_transform_interp">
        <Name_array id="Motion_31_LThigh_transform_interp_array_id" count="17">LINEAR LINEAR LINEAR LINEAR LINEAR LINEAR LINEAR LINEAR LINEAR LINEAR LINEAR LINEAR LINEAR LINEAR LINEAR LINEAR LINEAR</Name_array>
        <technique_common>
          <accessor source="#Motion_31_LThigh_transform_interp_array_id" count="17" stride="1">
            <param name="INTERPOLATION" type="Name" />
          </accessor>
        </technique_common>
      </source>
      <source id="Motion_31_LThigh_transform_pose_id" name="Motion_31_LThigh_transform_pose">
        <float_array id="Motion_31_LThigh_transform_pose_array_id" count="272">0.9897579 -0.008325585 -0.14251302 10.510002 -0.0070105013 0.99425876 -0.10677258 7.199996 0.14258377 0.10667809 0.9840171 0 0 0 0 1 0.95970315 -0.0067485217 -0.28093478 10.510002 0.032794103 0.99557054 0.08811287 7.199996 0.27909574 -0.093775205 0.95567346 0 0 0 0 1 0.91214323 0.021946825 -0.40928355 10.510002 0.13852805 0.9232961 0.35823783 7.199996 0.38575205 -0.38346145 0.83913803 0 0 0 0 1 0.89868826 0.009685136 -0.43848106 10.510002 0.21896473 0.8563394 0.46769357 7.199996 0.38001826 -0.5163226 0.7674614 0 0 0 0 1 0.9420811 -0.026070453 -0.3343704 10.510002 0.23253897 0.7691961 0.5951999 7.199996 0.24167928 -0.6384807 0.7307075 0 0 0 0 1 0.9757479 -0.048097536 -0.21354797 10.510002 0.18461907 0.704973 0.68478376 7.199996 0.11760914 -0.70760137 0.69675565 0 0 0 0 1 0.9909719 -0.0197322 -0.13260947 10.510002 0.10649911 0.7166925 0.6892095 7.199996 0.08144059 -0.6971101 0.7123236 0 0 0 0 1 0.98921984 0.037801653 -0.14147466 10.510002 0.055955105 0.7952221 0.60373074 7.199996 0.13532579 -0.6051387 0.7845343 0 0 0 0 1 0.98773444 0.075051695 -0.13692291 10.510002 0.0035829507 0.8657819 0.5004087 7.199996 0.1561019 -0.4947615 0.85489374 0 0 0 0 1 0.988534 0.095024645 -0.11734959 10.510002 -0.03923261 0.9120987 0.40808916 7.199996 0.14581293 -0.39880604 0.9053686 0 0 0 0 1 0.9881592 0.101962045 -0.11465252 10.510002 -0.06161936 0.9480662 0.31204745 7.199996 0.14051518 -0.30128774 0.9431231 0 0 0 0 1 0.98834026 0.09617625 -0.11804113 10.510002 -0.068609074 0.97339153 0.21863604 7.199996 0.13592783 -0.20798808 0.96864057 0 0 0 0 1 0.9882237 0.081069514 -0.12977551 10.510002 -0.064918324 0.9901335 0.12418225 7.199996 0.13856249 -0.11429503 0.9837363 0 0 0 0 1 0.98848057 0.060126513 -0.13889173 10.510002 -0.05576381 0.997827 0.035095066 7.199996 0.14070007 -0.026945662 0.98968554 0 0 0 0 1 0.9900045 0.037044007 -0.13608427 10.510002 -0.042656753 0.9983453 -0.03856186 7.199996 0.1344306 0.04398132 0.9899465 0 0 0 0 1 0.9915044 0.0137936445 -0.12934001 10.510002 -0.025510773 0.99567103 -0.08937767 7.199996 0.12754725 0.09191792 0.9875641 0 0 0 0 1 0.9915044 0.0137936445 -0.12934001 10.510002 -0.025510773 0.99567103 -0.08937767 7.199996 0.12754725 0.09191792 0.9875641 0 0 0 0 1</float_array>
        <technique_common>
          <accessor source="#Motion_31_LThigh_transform_pose_array_id" count="17" stride="16">
            <param name="TRANSFORM" type="float4x4" />
          </accessor>
        </technique_common>
      </source>
      <sampler id="Motion_31_LThigh_transform_samp_id">
        <input semantic="INPUT" source="#Motion_31_LThigh_transform_frame_id" />
        <input semantic="INTERPOLATION" source="#Motion_31_LThigh_transform_interp_id" />
        <input semantic="OUTPUT" source="#Motion_31_LThigh_transform_pose_id" />
      </sampler>
      <channel source="#Motion_31_LThigh_transform_samp_id" target="LThigh_bone_id/transform" />
    </animation>
    <animation id="Motion_31_LLeg_transform_id" name="Motion_31_LLeg_transform">
      <source id="Motion_31_LLeg_transform_frame_id" name="Motion_31_LLeg_transform_frame">
        <float_array id="Motion_31_LLeg_transform_frame_array_id" count="17">0 0.033333335 0.06666667 0.1 0.13333334 0.16666667 0.2 0.23333333 0.26666668 0.3 0.33333334 0.36666667 0.4 0.43333334 0.46666667 0.5 0.53333336</float_array>
        <technique_common>
          <accessor source="#Motion_31_LLeg_transform_frame_array_id" count="17" stride="1">
            <param name="TIME" type="float" />
          </accessor>
        </technique_common>
      </source>
      <source id="Motion_31_LLeg_transform_interp_id" name="Motion_31_LLeg_transform_interp">
        <Name_array id="Motion_31_LLeg_transform_interp_array_id" count="17">LINEAR LINEAR LINEAR LINEAR LINEAR LINEAR LINEAR LINEAR LINEAR LINEAR LINEAR LINEAR LINEAR LINEAR LINEAR LINEAR LINEAR</Name_array>
        <technique_common>
          <accessor source="#Motion_31_LLeg_transform_interp_array_id" count="17" stride="1">
            <param name="INTERPOLATION" type="Name" />
          </accessor>
        </technique_common>
      </source>
      <source id="Motion_31_LLeg_transform_pose_id" name="Motion_31_LLeg_transform_pose">
        <float_array id="Motion_31_LLeg_transform_pose_array_id" count="272">0.99293476 0 0.11866176 33.899998 0 1 0 0 -0.11866176 0 0.99293476 0 0 0 0 1 0.93839645 0 0.3455606 33.899998 0 1 0 0 -0.3455606 0 0.93839645 0 0 0 0 1 0.8210453 0 0.570863 33.899998 0 1 0 0 -0.570863 0 0.8210453 0 0 0 0 1 0.74482834 0 0.6672561 33.899998 0 1 0 0 -0.6672561 0 0.74482834 0 0 0 0 1 0.8429602 0 0.53797597 33.899998 0 1 0 0 -0.53797597 0 0.8429602 0 0 0 0 1 0.9364449 0 0.35081473 33.899998 0 1 0 0 -0.35081473 0 0.9364449 0 0 0 0 1 0.981146 0 0.19326827 33.899998 0 1 0 0 -0.19326827 0 0.981146 0 0 0 0 1 0.9843732 0 0.17609492 33.899998 0 1 0 0 -0.17609492 0 0.9843732 0 0 0 0 1 0.9864146 0 0.16427466 33.899998 0 1 0 0 -0.16427466 0 0.9864146 0 0 0 0 1 0.9898205 0 0.14232169 33.899998 0 1 0 0 -0.14232169 0 0.9898205 0 0 0 0 1 0.99076766 0 0.13557076 33.899998 0 1 0 0 -0.13557076 0 0.99076766 0 0 0 0 1 0.99128604 0 0.13172673 33.899998 0 1 0 0 -0.13172673 0 0.99128604 0 0 0 0 1 0.99029917 0 0.13895182 33.899998 0 1 0 0 -0.13895182 0 0.99029917 0 0 0 0 1 0.99039054 0 0.1382988 33.899998 0 1 0 0 -0.1382988 0 0.99039054 0 0 0 0 1 0.99289674 0 0.1189795 33.899998 0 1 0 0 -0.1189795 0 0.99289674 0 0 0 0 1 0.99548906 0 0.09487635 33.899998 0 1 0 0 -0.09487635 0 0.99548906 0 0 0 0 1 0.99548906 0 0.09487635 33.899998 0 1 0 0 -0.09487635 0 0.99548906 0 0 0 0 1</float_array>
        <technique_common>
          <accessor source="#Motion_31_LLeg_transform_pose_array_id" count="17" stride="16">
            <param name="TRANSFORM" type="float4x4" />
          </accessor>
        </technique_common>
      </source>
      <sampler id="Motion_31_LLeg_transform_samp_id">
        <input semantic="INPUT" source="#Motion_31_LLeg_transform_frame_id" />
        <input semantic="INTERPOLATION" source="#Motion_31_LLeg_transform_interp_id" />
        <input semantic="OUTPUT" source="#Motion_31_LLeg_transform_pose_id" />
      </sampler>
      <channel source="#Motion_31_LLeg_transform_samp_id" target="LLeg_bone_id/transform" />
    </animation>
    <animation id="Motion_31_LFoot_transform_id" name="Motion_31_LFoot_transform">
      <source id="Motion_31_LFoot_transform_frame_id" name="Motion_31_LFoot_transform_frame">
        <float_array id="Motion_31_LFoot_transform_frame_array_id" count="17">0 0.033333335 0.06666667 0.1 0.13333334 0.16666667 0.2 0.23333333 0.26666668 0.3 0.33333334 0.36666667 0.4 0.43333334 0.46666667 0.5 0.53333336</float_array>
        <technique_common>
          <accessor source="#Motion_31_LFoot_transform_frame_array_id" count="17" stride="1">
            <param name="TIME" type="float" />
          </accessor>
        </technique_common>
      </source>
      <source id="Motion_31_LFoot_transform_interp_id" name="Motion_31_LFoot_transform_interp">
        <Name_array id="Motion_31_LFoot_transform_interp_array_id" count="17">LINEAR LINEAR LINEAR LINEAR LINEAR LINEAR LINEAR LINEAR LINEAR LINEAR LINEAR LINEAR LINEAR LINEAR LINEAR LINEAR LINEAR</Name_array>
        <technique_common>
          <accessor source="#Motion_31_LFoot_transform_interp_array_id" count="17" stride="1">
            <param name="INTERPOLATION" type="Name" />
          </accessor>
        </technique_common>
      </source>
      <source id="Motion_31_LFoot_transform_pose_id" name="Motion_31_LFoot_transform_pose">
        <float_array id="Motion_31_LFoot_transform_pose_array_id" count="272">-0.053268433 0.020905152 -0.9983614 33.9 0.2770003 0.960855 0.0053402036 4E-06 0.95939213 -0.27626193 -0.056973934 0 0 0 0 1 -0.11139727 0.0012008697 -0.99377537 33.9 0.23534699 0.9715845 -0.02520714 4E-06 0.96550643 -0.23669001 -0.10851443 0 0 0 0 1 -0.15449488 -0.05995498 -0.98617274 33.9 0.17260405 0.9811689 -0.086691104 4E-06 0.9727996 -0.18361074 -0.14123714 0 0 0 0 1 -0.2098651 -0.00789319 -0.97769856 33.9 0.24898131 0.9665697 -0.061247736 4E-06 0.9454973 -0.25628242 -0.20088398 0 0 0 0 1 -0.20740187 0.05546385 -0.9766822 33.9 0.25051048 0.96811223 0.0017803684 4E-06 0.94563675 -0.24429989 -0.21468258 0 0 0 0 1 -0.20777512 0.016053237 -0.978045 33.9 0.23652866 0.97101855 -0.034310013 4E-06 0.949149 -0.23846442 -0.20555055 0 0 0 0 1 -0.13499105 0.039567143 -0.9900565 33.9 0.25421587 0.96713924 0.003989771 4E-06 0.95768046 -0.25114948 -0.14061368 0 0 0 0 1 -0.12073076 0.0025340468 -0.99268204 33.9 0.23877074 0.97071266 -0.026561514 4E-06 0.9635417 -0.24023022 -0.11779988 0 0 0 0 1 -0.11216688 -0.012619272 -0.9936092 33.9 0.21559153 0.9757926 -0.036730766 4E-06 0.97001994 -0.21833372 -0.10673106 0 0 0 0 1 -0.100296855 -0.019761503 -0.9947612 33.9 0.2063517 0.97765064 -0.04022702 4E-06 0.97332394 -0.20930532 -0.09397757 0 0 0 0 1 -0.094245434 -0.019874655 -0.99535054 33.9 0.20575333 0.9778262 -0.039006613 4E-06 0.9740551 -0.20847291 -0.08806634 0 0 0 0 1 -0.089221716 -0.015511088 -0.9958911 33.9 0.2112661 0.9768321 -0.034141533 4E-06 0.973348 -0.21344417 -0.08387768 0 0 0 0 1 -0.08779085 -0.006155066 -0.99612 33.9 0.22437972 0.9741604 -0.025794573 4E-06 0.97053933 -0.22577363 -0.084141254 0 0 0 0 1 -0.082466245 0.004199259 -0.996585 33.9 0.24200422 0.9701443 -0.015937723 4E-06 0.96676433 -0.24249211 -0.081020474 0 0 0 0 1 -0.06704104 0.010675475 -0.9976931 33.9 0.2598709 0.96561706 -0.007130027 4E-06 0.9633134 -0.25974938 -0.06751013 0 0 0 0 1 -0.047823668 0.013514712 -0.99876434 33.9 0.2721933 0.9622426 -1.2889504E-05 4E-06 0.96105343 -0.27185756 -0.049696684 0 0 0 0 1 -0.047823668 0.013514712 -0.99876434 33.9 0.2721933 0.9622426 -1.2889504E-05 4E-06 0.96105343 -0.27185756 -0.049696684 0 0 0 0 1</float_array>
        <technique_common>
          <accessor source="#Motion_31_LFoot_transform_pose_array_id" count="17" stride="16">
            <param name="TRANSFORM" type="float4x4" />
          </accessor>
        </technique_common>
      </source>
      <sampler id="Motion_31_LFoot_transform_samp_id">
        <input semantic="INPUT" source="#Motion_31_LFoot_transform_frame_id" />
        <input semantic="INTERPOLATION" source="#Motion_31_LFoot_transform_interp_id" />
        <input semantic="OUTPUT" source="#Motion_31_LFoot_transform_pose_id" />
      </sampler>
      <channel source="#Motion_31_LFoot_transform_samp_id" target="LFoot_bone_id/transform" />
    </animation>
    <animation id="Motion_31_RThigh_transform_id" name="Motion_31_RThigh_transform">
      <source id="Motion_31_RThigh_transform_frame_id" name="Motion_31_RThigh_transform_frame">
        <float_array id="Motion_31_RThigh_transform_frame_array_id" count="17">0 0.033333335 0.06666667 0.1 0.13333334 0.16666667 0.2 0.23333333 0.26666668 0.3 0.33333334 0.36666667 0.4 0.43333334 0.46666667 0.5 0.53333336</float_array>
        <technique_common>
          <accessor source="#Motion_31_RThigh_transform_frame_array_id" count="17" stride="1">
            <param name="TIME" type="float" />
          </accessor>
        </technique_common>
      </source>
      <source id="Motion_31_RThigh_transform_interp_id" name="Motion_31_RThigh_transform_interp">
        <Name_array id="Motion_31_RThigh_transform_interp_array_id" count="17">LINEAR LINEAR LINEAR LINEAR LINEAR LINEAR LINEAR LINEAR LINEAR LINEAR LINEAR LINEAR LINEAR LINEAR LINEAR LINEAR LINEAR</Name_array>
        <technique_common>
          <accessor source="#Motion_31_RThigh_transform_interp_array_id" count="17" stride="1">
            <param name="INTERPOLATION" type="Name" />
          </accessor>
        </technique_common>
      </source>
      <source id="Motion_31_RThigh_transform_pose_id" name="Motion_31_RThigh_transform_pose">
        <float_array id="Motion_31_RThigh_transform_pose_array_id" count="272">0.9975386 0.016267013 -0.06820647 10.510002 -0.009711979 0.99539566 0.09535813 -7.2 0.069443606 -0.094460994 0.99310356 0 0 0 0 1 0.9938405 -0.01596193 -0.1096643 10.510002 0.024688132 0.9965941 0.07868102 -7.2 0.10803489 -0.0809038 0.9908497 0 0 0 0 1 0.9807488 -0.043023292 -0.19047546 10.510002 0.059180338 0.9950394 0.07996397 -7.2 0.18609029 -0.08969696 0.9784298 0 0 0 0 1 0.9803833 -0.04536391 -0.19180907 10.510002 0.07223015 0.988143 0.13548471 -7.2 0.1833887 -0.14668135 0.9720356 0 0 0 0 1 0.98477864 -0.028473603 -0.17146523 10.510002 0.06659077 0.9730272 0.22087029 -7.2 0.16055135 -0.22892633 0.9601125 0 0 0 0 1 0.97566766 -0.01113208 -0.2189719 10.510002 0.0816586 0.9453099 0.31578657 -7.2 0.20348091 -0.32598367 0.9232173 0 0 0 0 1 0.95861185 0.03531263 -0.28251794 10.510002 0.08548136 0.91080475 0.40389064 -7.2 0.27158114 -0.41132435 0.87008965 0 0 0 0 1 0.91484165 0.09563409 -0.39232492 10.510002 0.08442578 0.90478325 0.41742015 -7.2 0.39488858 -0.41499567 0.8196594 0 0 0 0 1 0.88589907 0.13823378 -0.44280273 10.510002 0.05341676 0.91781753 0.39339247 -7.2 0.46079224 -0.3721591 0.8057097 0 0 0 0 1 0.8920873 0.15698412 -0.42371726 10.510002 0.00613229 0.93341905 0.3587357 -7.2 0.45182157 -0.3226219 0.8317286 0 0 0 0 1 0.91422004 0.15226102 -0.37552407 10.510002 -0.03644326 0.9538597 0.2980328 -7.2 0.40357605 -0.25878224 0.87758654 0 0 0 0 1 0.94688314 0.12604415 -0.29584655 10.510002 -0.0590053 0.9724634 0.2254622 -7.2 0.31611815 -0.19602984 0.92824656 0 0 0 0 1 0.9719138 0.09953305 -0.21325271 10.510002 -0.06508988 0.9845011 0.16285211 -7.2 0.2261567 -0.14439762 0.96332884 0 0 0 0 1 0.98300886 0.08008209 -0.16516802 10.510002 -0.06000023 0.9905684 0.12318381 -7.2 0.17347503 -0.111180656 0.97854245 0 0 0 0 1 0.9891718 0.05894906 -0.1344031 10.510002 -0.045290157 0.9937002 0.10251212 -7.2 0.13959937 -0.095314965 0.98561 0 0 0 0 1 0.99412024 0.036851488 -0.10181792 10.510002 -0.027195513 0.99513936 0.09464693 -7.2 0.10481091 -0.09132144 0.9902904 0 0 0 0 1 0.99412024 0.036851488 -0.10181792 10.510002 -0.027195513 0.99513936 0.09464693 -7.2 0.10481091 -0.09132144 0.9902904 0 0 0 0 1</float_array>
        <technique_common>
          <accessor source="#Motion_31_RThigh_transform_pose_array_id" count="17" stride="16">
            <param name="TRANSFORM" type="float4x4" />
          </accessor>
        </technique_common>
      </source>
      <sampler id="Motion_31_RThigh_transform_samp_id">
        <input semantic="INPUT" source="#Motion_31_RThigh_transform_frame_id" />
        <input semantic="INTERPOLATION" source="#Motion_31_RThigh_transform_interp_id" />
        <input semantic="OUTPUT" source="#Motion_31_RThigh_transform_pose_id" />
      </sampler>
      <channel source="#Motion_31_RThigh_transform_samp_id" target="RThigh_bone_id/transform" />
    </animation>
    <animation id="Motion_31_RLeg_transform_id" name="Motion_31_RLeg_transform">
      <source id="Motion_31_RLeg_transform_frame_id" name="Motion_31_RLeg_transform_frame">
        <float_array id="Motion_31_RLeg_transform_frame_array_id" count="17">0 0.033333335 0.06666667 0.1 0.13333334 0.16666667 0.2 0.23333333 0.26666668 0.3 0.33333334 0.36666667 0.4 0.43333334 0.46666667 0.5 0.53333336</float_array>
        <technique_common>
          <accessor source="#Motion_31_RLeg_transform_frame_array_id" count="17" stride="1">
            <param name="TIME" type="float" />
          </accessor>
        </technique_common>
      </source>
      <source id="Motion_31_RLeg_transform_interp_id" name="Motion_31_RLeg_transform_interp">
        <Name_array id="Motion_31_RLeg_transform_interp_array_id" count="17">LINEAR LINEAR LINEAR LINEAR LINEAR LINEAR LINEAR LINEAR LINEAR LINEAR LINEAR LINEAR LINEAR LINEAR LINEAR LINEAR LINEAR</Name_array>
        <technique_common>
          <accessor source="#Motion_31_RLeg_transform_interp_array_id" count="17" stride="1">
            <param name="INTERPOLATION" type="Name" />
          </accessor>
        </technique_common>
      </source>
      <source id="Motion_31_RLeg_transform_pose_id" name="Motion_31_RLeg_transform_pose">
        <float_array id="Motion_31_RLeg_transform_pose_array_id" count="272">0.9953048 0 0.09678978 33.899998 0 1 0 0 -0.09678978 0 0.9953048 0 0 0 0 1 0.9905801 0 0.13693477 33.899998 0 1 0 0 -0.13693477 0 0.9905801 0 0 0 0 1 0.9637163 0 0.26692843 33.899998 0 1 0 0 -0.26692843 0 0.9637163 0 0 0 0 1 0.95177346 0 0.30680165 33.899998 0 1 0 0 -0.30680165 0 0.95177346 0 0 0 0 1 0.93971246 0 0.34196565 33.899998 0 1 0 0 -0.34196565 0 0.93971246 0 0 0 0 1 0.8772286 0 0.4800729 33.899998 0 1 0 0 -0.4800729 0 0.8772286 0 0 0 0 1 0.81403637 0 0.5808139 33.899998 0 1 0 0 -0.5808139 0 0.81403637 0 0 0 0 1 0.7082732 0 0.70593846 33.899998 0 1 0 0 -0.70593846 0 0.7082732 0 0 0 0 1 0.6397858 0 0.76855326 33.899998 0 1 0 0 -0.76855326 0 0.6397858 0 0 0 0 1 0.6600676 0 0.7512062 33.899998 0 1 0 0 -0.7512062 0 0.6600676 0 0 0 0 1 0.7422968 0 0.67007124 33.899998 0 1 0 0 -0.67007124 0 0.7422968 0 0 0 0 1 0.847662 0 0.5305367 33.899998 0 1 0 0 -0.5305367 0 0.847662 0 0 0 0 1 0.9268628 0 0.3754003 33.899998 0 1 0 0 -0.3754003 0 0.9268628 0 0 0 0 1 0.9577858 0 0.2874828 33.899998 0 1 0 0 -0.2874828 0 0.9577858 0 0 0 0 1 0.97259134 0 0.23252115 33.899998 0 1 0 0 -0.23252115 0 0.97259134 0 0 0 0 1 0.98555875 0 0.16933367 33.899998 0 1 0 0 -0.16933367 0 0.98555875 0 0 0 0 1 0.98555875 0 0.16933367 33.899998 0 1 0 0 -0.16933367 0 0.98555875 0 0 0 0 1</float_array>
        <technique_common>
          <accessor source="#Motion_31_RLeg_transform_pose_array_id" count="17" stride="16">
            <param name="TRANSFORM" type="float4x4" />
          </accessor>
        </technique_common>
      </source>
      <sampler id="Motion_31_RLeg_transform_samp_id">
        <input semantic="INPUT" source="#Motion_31_RLeg_transform_frame_id" />
        <input semantic="INTERPOLATION" source="#Motion_31_RLeg_transform_interp_id" />
        <input semantic="OUTPUT" source="#Motion_31_RLeg_transform_pose_id" />
      </sampler>
      <channel source="#Motion_31_RLeg_transform_samp_id" target="RLeg_bone_id/transform" />
    </animation>
    <animation id="Motion_31_RFoot_transform_id" name="Motion_31_RFoot_transform">
      <source id="Motion_31_RFoot_transform_frame_id" name="Motion_31_RFoot_transform_frame">
        <float_array id="Motion_31_RFoot_transform_frame_array_id" count="17">0 0.033333335 0.06666667 0.1 0.13333334 0.16666667 0.2 0.23333333 0.26666668 0.3 0.33333334 0.36666667 0.4 0.43333334 0.46666667 0.5 0.53333336</float_array>
        <technique_common>
          <accessor source="#Motion_31_RFoot_transform_frame_array_id" count="17" stride="1">
            <param name="TIME" type="float" />
          </accessor>
        </technique_common>
      </source>
      <source id="Motion_31_RFoot_transform_interp_id" name="Motion_31_RFoot_transform_interp">
        <Name_array id="Motion_31_RFoot_transform_interp_array_id" count="17">LINEAR LINEAR LINEAR LINEAR LINEAR LINEAR LINEAR LINEAR LINEAR LINEAR LINEAR LINEAR LINEAR LINEAR LINEAR LINEAR LINEAR</Name_array>
        <technique_common>
          <accessor source="#Motion_31_RFoot_transform_interp_array_id" count="17" stride="1">
            <param name="INTERPOLATION" type="Name" />
          </accessor>
        </technique_common>
      </source>
      <source id="Motion_31_RFoot_transform_pose_id" name="Motion_31_RFoot_transform_pose">
        <float_array id="Motion_31_RFoot_transform_pose_array_id" count="272">-0.10346758 -0.032706574 -0.99409485 33.9 -0.27591926 0.96117646 -0.0029052198 0 0.9555956 0.27398932 -0.10847497 0 0 0 0 1 -0.107648134 -0.023211092 -0.9939181 33.9 -0.29018033 0.9569289 0.009081215 0 0.95089823 0.28939304 -0.10974705 0 0 0 0 1 -0.124381304 -0.066475734 -0.9900053 33.9 -0.32201302 0.9464535 -0.023094669 0 0.9385292 0.31592202 -0.13912714 0 0 0 0 1 -0.12591016 -0.06270784 -0.99005777 33.9 -0.21118698 0.97681844 -0.03501167 0 0.96930224 0.20467898 -0.13623452 0 0 0 0 1 -0.14183486 -0.038856283 -0.98912746 33.9 -0.054860786 0.9980021 -0.031338204 0 0.9883689 0.04981946 -0.1436832 0 0 0 0 1 -0.14565563 0.052955523 -0.9879171 33.9 -0.029980712 0.9978716 0.057909377 0 0.98888105 0.03805328 -0.14375794 0 0 0 0 1 -0.14009619 0.06913294 -0.9877214 33.9 -0.06812838 0.9945222 0.07927213 0 0.98779124 0.078397594 -0.13461888 0 0 0 0 1 -0.11360252 -0.009753503 -0.99347836 33.9 -0.14308465 0.98968816 0.0066452026 0 0.9831689 0.14290641 -0.11382663 0 0 0 0 1 -0.09359646 -0.089748636 -0.9915567 33.9 -0.1701097 0.9827255 -0.07289204 0 0.9809701 0.16185097 -0.10724676 0 0 0 0 1 -0.11359072 -0.13536717 -0.98426247 33.9 -0.17777134 0.9774563 -0.11391502 0 0.9774939 0.16203398 -0.13509429 0 0 0 0 1 -0.15532196 -0.14675966 -0.9769015 33.9 -0.18656352 0.9754654 -0.116881326 0 0.9700871 0.16409995 -0.17889118 0 0 0 0 1 -0.24575341 -0.11961078 -0.96192443 33.9 -0.19279107 0.9785633 -0.07242529 0 0.9499668 0.16765168 -0.26354516 0 0 0 0 1 -0.27438223 -0.08613649 -0.95775515 33.9 -0.1935511 0.98054385 -0.032736577 0 0.9419407 0.17639223 -0.2857157 0 0 0 0 1 -0.21467566 -0.06911217 -0.974237 33.9 -0.20526992 0.9784067 -0.024176195 0 0.954871 0.19479153 -0.22422683 0 0 0 0 1 -0.16969442 -0.05815211 -0.9837796 33.9 -0.23287255 0.9723532 -0.017307982 0 0.9575878 0.22615817 -0.178545 0 0 0 0 1 -0.14065623 -0.04649035 -0.98896646 33.9 -0.26289693 0.96479106 -0.00796327 0 0.9545162 0.25887614 -0.14792609 0 0 0 0 1 -0.14065623 -0.04649035 -0.98896646 33.9 -0.26289693 0.96479106 -0.00796327 0 0.9545162 0.25887614 -0.14792609 0 0 0 0 1</float_array>
        <technique_common>
          <accessor source="#Motion_31_RFoot_transform_pose_array_id" count="17" stride="16">
            <param name="TRANSFORM" type="float4x4" />
          </accessor>
        </technique_common>
      </source>
      <sampler id="Motion_31_RFoot_transform_samp_id">
        <input semantic="INPUT" source="#Motion_31_RFoot_transform_frame_id" />
        <input semantic="INTERPOLATION" source="#Motion_31_RFoot_transform_interp_id" />
        <input semantic="OUTPUT" source="#Motion_31_RFoot_transform_pose_id" />
      </sampler>
      <channel source="#Motion_31_RFoot_transform_samp_id" target="RFoot_bone_id/transform" />
    </animation>
  </library_animations>
  <library_visual_scenes>
    <visual_scene id="tr0076_00_fi_00_clip_id" name="tr0076_00_fi_00_clip">
      <node id="tr0076_00_fi_bone_id" name="tr0076_00_fi" sid="tr0076_00_fi" type="JOINT">
        <matrix sid="transform">1 0 0 0 0 1 0 0 0 0 1 0 0 0 0 1</matrix>
        <node id="Origin_bone_id" name="Origin" sid="Origin" type="JOINT">
          <matrix sid="transform">1 0 0 0 0 1 0 0 0 0 1 0 0 0 0 1</matrix>
          <node id="Waist_bone_id" name="Waist" sid="Waist" type="JOINT">
            <matrix sid="transform">3.1391647E-07 -1 0 0 1 3.1391647E-07 0 88.8 0 0 1 0 0 0 0 1</matrix>
            <node id="Spine2_bone_id" name="Spine2" sid="Spine2" type="JOINT">
              <matrix sid="transform">1 0 0 12.099998 0 1 0 0 0 0 1 0 0 0 0 1</matrix>
              <node id="Spine3_bone_id" name="Spine3" sid="Spine3" type="JOINT">
                <matrix sid="transform">0.9919065 0 0.12697035 12.099991 0 1 0 0 -0.12697035 0 0.9919065 0 0 0 0 1</matrix>
                <node id="Neck_bone_id" name="Neck" sid="Neck" type="JOINT">
                  <matrix sid="transform">0.9441987 0 -0.32937634 15.720233 0 1 0 0 0.32937634 0 0.9441987 0 0 0 0 1</matrix>
                  <node id="Head_bone_id" name="Head" sid="Head" type="JOINT">
                    <matrix sid="transform">0.9783777 0 0.2068263 5.129917 0 1 0 0 -0.2068263 0 0.9783777 0 0 0 0 1</matrix>
                    <node id="Hair_bone_id" name="Hair" sid="Hair" type="JOINT">
                      <matrix sid="transform">-0.988831 0 0.14904137 16.11567 0 1 0 0 -0.14904137 0 -0.988831 -19.957026 0 0 0 1</matrix>
                    </node>
                    <node id="Loc_Head_bone_id" name="Loc_Head" sid="Loc_Head" type="JOINT">
                      <matrix sid="transform">3.1391647E-07 1 0 32.585342 -1 3.1391647E-07 0 0 0 0 1 0.935 0 0 0 1</matrix>
                    </node>
                    <node id="Loc_Eye_bone_id" name="Loc_Eye" sid="Loc_Eye" type="JOINT">
                      <matrix sid="transform">3.1391647E-07 1 0 10.358527 -1 3.1391647E-07 0 0 0 0 1 12.874489 0 0 0 1</matrix>
                    </node>
                    <node id="Loc_Mouth_bone_id" name="Loc_Mouth" sid="Loc_Mouth" type="JOINT">
                      <matrix sid="transform">3.1391647E-07 1 0 1.209505 -1 3.1391647E-07 0 0 0 0 1 13.033401 0 0 0 1</matrix>
                    </node>
                  </node>
                </node>
                <node id="LShoulder_bone_id" name="LShoulder" sid="LShoulder" type="JOINT">
                  <matrix sid="transform">-0.5887142 0.798307 -0.12697051 14.14009 -0.80482084 -0.59351784 -2.6574628E-07 -3.930001 -0.075359486 0.10218836 0.99190646 -0.201936 0 0 0 1</matrix>
                  <node id="LArm_bone_id" name="LArm" sid="LArm" type="JOINT">
                    <matrix sid="transform">0.8048207 -0.593518 0 8.161509 0.593518 0.8048207 0 0 0 0 1 0 0 0 0 1</matrix>
                    <node id="LForeArm_bone_id" name="LForeArm" sid="LForeArm" type="JOINT">
                      <matrix sid="transform">1 0 0 22.9 0 1 0 0 0 0 1 0 0 0 0 1</matrix>
                      <node id="LHand_bone_id" name="LHand" sid="LHand" type="JOINT">
                        <matrix sid="transform">1 0 0 22.900002 0 1 0 0 0 0 1 0 0 0 0 1</matrix>
                      </node>
                    </node>
                  </node>
                </node>
                <node id="RShoulder_bone_id" name="RShoulder" sid="RShoulder" type="JOINT">
                  <matrix sid="transform">-0.58871174 -0.79830885 -0.12696993 14.14009 0.8048227 -0.5935153 -1.4453335E-07 3.93 -0.07535849 -0.10218837 0.9919065 -0.201935 0 0 0 1</matrix>
                  <node id="RArm_bone_id" name="RArm" sid="RArm" type="JOINT">
                    <matrix sid="transform">0.8048231 0.5935148 0 8.161548 -0.5935148 0.8048231 0 0 0 0 1 0 0 0 0 1</matrix>
                    <node id="RForeArm_bone_id" name="RForeArm" sid="RForeArm" type="JOINT">
                      <matrix sid="transform">1 0 0 22.9 0 1 0 0 0 0 1 0 0 0 0 1</matrix>
                      <node id="RHand_bone_id" name="RHand" sid="RHand" type="JOINT">
                        <matrix sid="transform">1 0 0 22.900002 0 1 0 0 0 0 1 0 0 0 0 1</matrix>
                      </node>
                    </node>
                  </node>
                </node>
              </node>
            </node>
            <node id="Hips_bone_id" name="Hips" sid="Hips" type="JOINT">
              <matrix sid="transform">-1 -3.2584137E-07 0 -0.010002 3.2584137E-07 -1 0 0 0 0 1 0 0 0 0 1</matrix>
              <node id="LThigh_bone_id" name="LThigh" sid="LThigh" type="JOINT">
                <matrix sid="transform">1 0 0 10.510002 0 1 0 7.199996 0 0 1 0 0 0 0 1</matrix>
                <node id="LLeg_bone_id" name="LLeg" sid="LLeg" type="JOINT">
                  <matrix sid="transform">1 0 0 33.899998 0 1 0 0 0 0 1 0 0 0 0 1</matrix>
                  <node id="LFoot_bone_id" name="LFoot" sid="LFoot" type="JOINT">
                    <matrix sid="transform">3.1391647E-07 0 -1 33.9 0 1 0 4E-06 1 0 3.1391647E-07 0 0 0 0 1</matrix>
                  </node>
                </node>
              </node>
              <node id="RThigh_bone_id" name="RThigh" sid="RThigh" type="JOINT">
                <matrix sid="transform">1 0 0 10.510002 0 1 0 -7.2 0 0 1 0 0 0 0 1</matrix>
                <node id="RLeg_bone_id" name="RLeg" sid="RLeg" type="JOINT">
                  <matrix sid="transform">1 0 0 33.899998 0 1 0 0 0 0 1 0 0 0 0 1</matrix>
                  <node id="RFoot_bone_id" name="RFoot" sid="RFoot" type="JOINT">
                    <matrix sid="transform">3.1391647E-07 0 -1 33.9 0 1 0 0 1 0 3.1391647E-07 0 0 0 0 1</matrix>
                  </node>
                </node>
              </node>
            </node>
          </node>
          <node id="CamTgtHead_bone_id" name="CamTgtHead" sid="CamTgtHead" type="JOINT">
            <matrix sid="transform">1 0 0 0 0 1 0 143.97052 0 0 1 0 0 0 0 1</matrix>
          </node>
          <node id="CamTgtBust_bone_id" name="CamTgtBust" sid="CamTgtBust" type="JOINT">
            <matrix sid="transform">1 0 0 0 0 1 0 112.99999 0 0 1 0 0 0 0 1</matrix>
          </node>
          <node id="CamTgtBody_bone_id" name="CamTgtBody" sid="CamTgtBody" type="JOINT">
            <matrix sid="transform">1 0 0 0 0 1 0 88.8 0 0 1 0 0 0 0 1</matrix>
          </node>
          <node id="CamTgtFoot_bone_id" name="CamTgtFoot" sid="CamTgtFoot" type="JOINT">
            <matrix sid="transform">1 0 0 0 0 1 0 0 0 0 1 0 0 0 0 1</matrix>
          </node>
        </node>
        <node id="tr0076_00_fi_FaceSkin_bone_id" name="tr0076_00_fi_FaceSkin" sid="tr0076_00_fi_FaceSkin" type="JOINT">
          <matrix sid="transform">1 0 0 0 0 1 0 0 0 0 1 0 0 0 0 1</matrix>
        </node>
        <node id="tr0076_00_fi_HeadSkin_bone_id" name="tr0076_00_fi_HeadSkin" sid="tr0076_00_fi_HeadSkin" type="JOINT">
          <matrix sid="transform">1 0 0 0 0 1 0 0 0 0 1 0 0 0 0 1</matrix>
        </node>
        <node id="tr0076_00_fi_BodySkin_bone_id" name="tr0076_00_fi_BodySkin" sid="tr0076_00_fi_BodySkin" type="JOINT">
          <matrix sid="transform">1 0 0 0 0 1 0 0 0 0 1 0 0 0 0 1</matrix>
        </node>
        <node id="tr0076_00_fi_BottomSkin_bone_id" name="tr0076_00_fi_BottomSkin" sid="tr0076_00_fi_BottomSkin" type="JOINT">
          <matrix sid="transform">1 0 0 0 0 1 0 0 0 0 1 0 0 0 0 1</matrix>
        </node>
      </node>
    </visual_scene>
  </library_visual_scenes>
  <scene>
    <instance_visual_scene url="#tr0076_00_fi_00_clip_id" />
  </scene>
</COLLADA>