<?xml version="1.0" encoding="utf-8"?>
<COLLADA xmlns:xsi="http://www.w3.org/2001/XMLSchema-instance" xmlns:xsd="http://www.w3.org/2001/XMLSchema" version="1.4.1" xmlns="http://www.collada.org/2005/11/COLLADASchema">
  <asset>
    <created>2026-02-17T05:46:47.7708164-05:00</created>
    <modified>2026-02-17T05:46:47.7708166-05:00</modified>
    <up_axis>Y_UP</up_axis>
  </asset>
  <library_animations>
    <animation id="Motion_54_Waist_transform_id" name="Motion_54_Waist_transform">
      <source id="Motion_54_Waist_transform_frame_id" name="Motion_54_Waist_transform_frame">
        <float_array id="Motion_54_Waist_transform_frame_array_id" count="16">0 0.033333335 0.06666667 0.1 0.13333334 0.16666667 0.2 0.23333333 0.26666668 0.3 0.33333334 0.36666667 0.4 0.43333334 0.46666667 0.5</float_array>
        <technique_common>
          <accessor source="#Motion_54_Waist_transform_frame_array_id" count="16" stride="1">
            <param name="TIME" type="float" />
          </accessor>
        </technique_common>
      </source>
      <source id="Motion_54_Waist_transform_interp_id" name="Motion_54_Waist_transform_interp">
        <Name_array id="Motion_54_Waist_transform_interp_array_id" count="16">LINEAR LINEAR LINEAR LINEAR LINEAR LINEAR LINEAR LINEAR LINEAR LINEAR LINEAR LINEAR LINEAR LINEAR LINEAR LINEAR</Name_array>
        <technique_common>
          <accessor source="#Motion_54_Waist_transform_interp_array_id" count="16" stride="1">
            <param name="INTERPOLATION" type="Name" />
          </accessor>
        </technique_common>
      </source>
      <source id="Motion_54_Waist_transform_pose_id" name="Motion_54_Waist_transform_pose">
        <float_array id="Motion_54_Waist_transform_pose_array_id" count="256">-0.06946683 -0.99758416 -6.984081E-05 0 0.9971276 -0.069432855 -0.030257639 53.753876 0.030179694 -0.0021715434 0.9995421 0 0 0 0 1 -0.07034385 -0.9975227 0.0003436152 0 0.99706936 -0.070322275 -0.030124571 53.753876 0.030074108 -0.0017764708 0.9995461 0.008748874 0 0 0 1 -0.07161176 -0.99743205 0.0009514643 0 0.99698395 -0.07160807 -0.029919159 53.753876 0.029910464 -0.0011939704 0.9995519 0.014347733 0 0 0 1 -0.073450804 -0.9972973 0.0017025443 0 0.99685717 -0.07346892 -0.029631222 53.753876 0.029676225 -0.0004792437 0.99955946 0.017246684 0 0 0 1 -0.07580066 -0.99711984 0.002541909 0 0.9966907 -0.07584262 -0.029251656 53.753876 0.029360188 0.00031620264 0.9995688 0.017895821 0 0 0 1 -0.07837236 -0.9969183 0.003411348 0 0.9965037 -0.07843816 -0.028772933 53.753876 0.028951842 0.0011444185 0.99958014 0.016745245 0 0 0 1 -0.08100438 -0.9967047 0.0042547146 0 0.99630797 -0.08109248 -0.02818743 53.753876 0.02843957 0.001955701 0.9995936 0.014245067 0 0 0 1 -0.08353412 -0.99649227 0.0050161276 0 0.99611676 -0.08364105 -0.027488045 53.753876 0.027811179 0.0027004592 0.99960953 0.010845372 0 0 0 1 -0.08580029 -0.99629635 0.0056400644 0 0.9959449 -0.08592105 -0.026668144 53.753876 0.027053978 0.0033290554 0.9996284 0.0069962726 0 0 0 1 -0.08764088 -0.9961337 0.0060714167 0 0.9958087 -0.08776915 -0.025721364 53.753876 0.0261548 0.0037917262 0.9996507 0.003147868 0 0 0 1 -0.08889341 -0.9960215 0.0062486166 0 0.9957297 -0.08902073 -0.024448704 53.753876 0.02490769 0.0040486054 0.99968153 -0.0002497437 0 0 0 1 -0.08959162 -0.99595976 0.0061112735 0 0.9957118 -0.08970797 -0.022593006 53.753876 0.023049958 0.004060923 0.99972606 -0.0027464607 0 0 0 1 -0.08995247 -0.99593025 0.005607325 0 0.99573535 -0.09004784 -0.020059865 53.753876 0.020483155 0.0037789764 0.99978304 -0.0038921824 0 0 0 1 -0.09008467 -0.99592286 0.0047142394 0 0.99578136 -0.09015274 -0.017081926 53.753876 0.017437285 0.003155529 0.999843 -0.003236808 0 0 0 1 -0.090100646 -0.9959272 0.0033089523 0 0.9958185 -0.09014022 -0.014841549 53.753876 0.015079372 0.0019578836 0.99988437 -0.0015711131 0 0 0 1 -0.090100646 -0.9959272 0.0033089523 0 0.9958185 -0.09014022 -0.014841549 53.753876 0.015079372 0.0019578836 0.99988437 -0.0015711131 0 0 0 1</float_array>
        <technique_common>
          <accessor source="#Motion_54_Waist_transform_pose_array_id" count="16" stride="16">
            <param name="TRANSFORM" type="float4x4" />
          </accessor>
        </technique_common>
      </source>
      <sampler id="Motion_54_Waist_transform_samp_id">
        <input semantic="INPUT" source="#Motion_54_Waist_transform_frame_id" />
        <input semantic="INTERPOLATION" source="#Motion_54_Waist_transform_interp_id" />
        <input semantic="OUTPUT" source="#Motion_54_Waist_transform_pose_id" />
      </sampler>
      <channel source="#Motion_54_Waist_transform_samp_id" target="Waist_bone_id/transform" />
    </animation>
    <animation id="Motion_54_RThigh_transform_id" name="Motion_54_RThigh_transform">
      <source id="Motion_54_RThigh_transform_frame_id" name="Motion_54_RThigh_transform_frame">
        <float_array id="Motion_54_RThigh_transform_frame_array_id" count="16">0 0.033333335 0.06666667 0.1 0.13333334 0.16666667 0.2 0.23333333 0.26666668 0.3 0.33333334 0.36666667 0.4 0.43333334 0.46666667 0.5</float_array>
        <technique_common>
          <accessor source="#Motion_54_RThigh_transform_frame_array_id" count="16" stride="1">
            <param name="TIME" type="float" />
          </accessor>
        </technique_common>
      </source>
      <source id="Motion_54_RThigh_transform_interp_id" name="Motion_54_RThigh_transform_interp">
        <Name_array id="Motion_54_RThigh_transform_interp_array_id" count="16">LINEAR LINEAR LINEAR LINEAR LINEAR LINEAR LINEAR LINEAR LINEAR LINEAR LINEAR LINEAR LINEAR LINEAR LINEAR LINEAR</Name_array>
        <technique_common>
          <accessor source="#Motion_54_RThigh_transform_interp_array_id" count="16" stride="1">
            <param name="INTERPOLATION" type="Name" />
          </accessor>
        </technique_common>
      </source>
      <source id="Motion_54_RThigh_transform_pose_id" name="Motion_54_RThigh_transform_pose">
        <float_array id="Motion_54_RThigh_transform_pose_array_id" count="256">0.046607316 -0.24143416 -0.9692974 10.510002 0.056408904 0.9694395 -0.23875724 -7.2 0.99731934 -0.043549165 0.05880201 0 0 0 0 1 0.046531796 -0.24037807 -0.9695634 10.510002 0.055913165 0.9697198 -0.23773345 -7.2 0.99735075 -0.04314921 0.058563054 0 0 0 0 1 0.046367884 -0.23853078 -0.9700274 10.510002 0.055131145 0.9702028 -0.23593864 -7.2 0.9974019 -0.04253874 0.0581367 0 0 0 0 1 0.046157658 -0.23606703 -0.97063994 10.510002 0.054154776 0.97083795 -0.23353994 -7.2 0.99746513 -0.04178513 0.05759579 0 0 0 0 1 0.04594332 -0.23316148 -0.9713522 10.510002 0.053075813 0.9715752 -0.23070462 -7.2 0.9975331 -0.040955946 0.057012618 0 0 0 0 1 0.04576832 -0.22998892 -0.9721164 10.510002 0.051985636 0.972366 -0.2276004 -7.2 0.99759847 -0.0401192 0.056459665 0 0 0 0 1 0.04567778 -0.22672436 -0.97288716 10.510002 0.05097545 0.97316396 -0.2243955 -7.2 0.9976547 -0.03934349 0.056009352 0 0 0 0 1 0.045717776 -0.22354317 -0.97362137 10.510002 0.05013611 0.97392553 -0.22125882 -7.2 0.99769557 -0.038698107 0.055733323 0 0 0 0 1 0.04593742 -0.22062105 -0.97427726 10.510002 0.049558252 0.9746092 -0.21835953 -7.2 0.9977143 -0.038252585 0.055704653 0 0 0 0 1 0.046385765 -0.21813425 -0.9748158 10.510002 0.049332507 0.9751757 -0.21586734 -7.2 0.9977047 -0.038076945 0.055995405 0 0 0 0 1 0.04749173 -0.21627757 -0.9751761 10.510002 0.049593396 0.97558427 -0.21395284 -7.2 0.99763966 -0.03820131 0.057058156 0 0 0 0 1 0.049407244 -0.21504056 -0.97535455 10.510002 0.050246276 0.9758458 -0.2126036 -7.2 0.997514 -0.038503766 0.05901885 0 0 0 0 1 0.051757574 -0.21417718 -0.9754227 10.510002 0.0511858 0.9760169 -0.21159165 -7.2 0.9973472 -0.038976297 0.06147909 0 0 0 0 1 0.05413395 -0.21350712 -0.97544056 10.510002 0.05254618 0.9761285 -0.21074155 -7.2 0.9971501 -0.039847404 0.06406069 0 0 0 0 1 0.056129754 -0.21293636 -0.9754524 10.510002 0.0543734 0.9761948 -0.20996964 -7.2 0.9969418 -0.041253127 0.06637168 0 0 0 0 1 0.056129754 -0.21293636 -0.9754524 10.510002 0.0543734 0.9761948 -0.20996964 -7.2 0.9969418 -0.041253127 0.06637168 0 0 0 0 1</float_array>
        <technique_common>
          <accessor source="#Motion_54_RThigh_transform_pose_array_id" count="16" stride="16">
            <param name="TRANSFORM" type="float4x4" />
          </accessor>
        </technique_common>
      </source>
      <sampler id="Motion_54_RThigh_transform_samp_id">
        <input semantic="INPUT" source="#Motion_54_RThigh_transform_frame_id" />
        <input semantic="INTERPOLATION" source="#Motion_54_RThigh_transform_interp_id" />
        <input semantic="OUTPUT" source="#Motion_54_RThigh_transform_pose_id" />
      </sampler>
      <channel source="#Motion_54_RThigh_transform_samp_id" target="RThigh_bone_id/transform" />
    </animation>
    <animation id="Motion_54_RLeg_transform_id" name="Motion_54_RLeg_transform">
      <source id="Motion_54_RLeg_transform_frame_id" name="Motion_54_RLeg_transform_frame">
        <float_array id="Motion_54_RLeg_transform_frame_array_id" count="16">0 0.033333335 0.06666667 0.1 0.13333334 0.16666667 0.2 0.23333333 0.26666668 0.3 0.33333334 0.36666667 0.4 0.43333334 0.46666667 0.5</float_array>
        <technique_common>
          <accessor source="#Motion_54_RLeg_transform_frame_array_id" count="16" stride="1">
            <param name="TIME" type="float" />
          </accessor>
        </technique_common>
      </source>
      <source id="Motion_54_RLeg_transform_interp_id" name="Motion_54_RLeg_transform_interp">
        <Name_array id="Motion_54_RLeg_transform_interp_array_id" count="16">LINEAR LINEAR LINEAR LINEAR LINEAR LINEAR LINEAR LINEAR LINEAR LINEAR LINEAR LINEAR LINEAR LINEAR LINEAR LINEAR</Name_array>
        <technique_common>
          <accessor source="#Motion_54_RLeg_transform_interp_array_id" count="16" stride="1">
            <param name="INTERPOLATION" type="Name" />
          </accessor>
        </technique_common>
      </source>
      <source id="Motion_54_RLeg_transform_pose_id" name="Motion_54_RLeg_transform_pose">
        <float_array id="Motion_54_RLeg_transform_pose_array_id" count="256">-0.019434214 0 0.9998111 33.899998 0 1 0 0 -0.9998111 0 -0.019434214 0 0 0 0 1 -0.02028966 0 0.9997942 33.899998 0 1 0 0 -0.9997942 0 -0.02028966 0 0 0 0 1 -0.021155477 0 0.9997762 33.899998 0 1 0 0 -0.9997762 0 -0.021155477 0 0 0 0 1 -0.022027493 0 0.99975735 33.899998 0 1 0 0 -0.99975735 0 -0.022027493 0 0 0 0 1 -0.022902608 0 0.99973774 33.899998 0 1 0 0 -0.99973774 0 -0.022902608 0 0 0 0 1 -0.023776293 0 0.99971735 33.899998 0 1 0 0 -0.99971735 0 -0.023776293 0 0 0 0 1 -0.02464521 0 0.9996963 33.899998 0 1 0 0 -0.9996963 0 -0.02464521 0 0 0 0 1 -0.025505424 0 0.99967474 33.899998 0 1 0 0 -0.99967474 0 -0.025505424 0 0 0 0 1 -0.02635324 0 0.9996527 33.899998 0 1 0 0 -0.9996527 0 -0.02635324 0 0 0 0 1 -0.027185082 0 0.9996304 33.899998 0 1 0 0 -0.9996304 0 -0.027185082 0 0 0 0 1 -0.027997136 0 0.9996081 33.899998 0 1 0 0 -0.9996081 0 -0.027997136 0 0 0 0 1 -0.028785348 0 0.9995857 33.899998 0 1 0 0 -0.9995857 0 -0.028785348 0 0 0 0 1 -0.029546022 0 0.99956346 33.899998 0 1 0 0 -0.99956346 0 -0.029546022 0 0 0 0 1 -0.030275583 0 0.9995416 33.899998 0 1 0 0 -0.9995416 0 -0.030275583 0 0 0 0 1 -0.030710578 0 0.99952835 33.899998 0 1 0 0 -0.99952835 0 -0.030710578 0 0 0 0 1 -0.030710578 0 0.99952835 33.899998 0 1 0 0 -0.99952835 0 -0.030710578 0 0 0 0 1</float_array>
        <technique_common>
          <accessor source="#Motion_54_RLeg_transform_pose_array_id" count="16" stride="16">
            <param name="TRANSFORM" type="float4x4" />
          </accessor>
        </technique_common>
      </source>
      <sampler id="Motion_54_RLeg_transform_samp_id">
        <input semantic="INPUT" source="#Motion_54_RLeg_transform_frame_id" />
        <input semantic="INTERPOLATION" source="#Motion_54_RLeg_transform_interp_id" />
        <input semantic="OUTPUT" source="#Motion_54_RLeg_transform_pose_id" />
      </sampler>
      <channel source="#Motion_54_RLeg_transform_samp_id" target="RLeg_bone_id/transform" />
    </animation>
    <animation id="Motion_54_RFoot_transform_id" name="Motion_54_RFoot_transform">
      <source id="Motion_54_RFoot_transform_frame_id" name="Motion_54_RFoot_transform_frame">
        <float_array id="Motion_54_RFoot_transform_frame_array_id" count="16">0 0.033333335 0.06666667 0.1 0.13333334 0.16666667 0.2 0.23333333 0.26666668 0.3 0.33333334 0.36666667 0.4 0.43333334 0.46666667 0.5</float_array>
        <technique_common>
          <accessor source="#Motion_54_RFoot_transform_frame_array_id" count="16" stride="1">
            <param name="TIME" type="float" />
          </accessor>
        </technique_common>
      </source>
      <source id="Motion_54_RFoot_transform_interp_id" name="Motion_54_RFoot_transform_interp">
        <Name_array id="Motion_54_RFoot_transform_interp_array_id" count="16">LINEAR LINEAR LINEAR LINEAR LINEAR LINEAR LINEAR LINEAR LINEAR LINEAR LINEAR LINEAR LINEAR LINEAR LINEAR LINEAR</Name_array>
        <technique_common>
          <accessor source="#Motion_54_RFoot_transform_interp_array_id" count="16" stride="1">
            <param name="INTERPOLATION" type="Name" />
          </accessor>
        </technique_common>
      </source>
      <source id="Motion_54_RFoot_transform_pose_id" name="Motion_54_RFoot_transform_pose">
        <float_array id="Motion_54_RFoot_transform_pose_array_id" count="256">-0.036364794 0.26494148 -0.9635786 33.9 -0.06895506 0.961253 0.26690435 0 0.9969568 0.076149516 -0.016686678 0 0 0 0 1 -0.03706479 0.26467603 -0.9636248 33.9 -0.068951115 0.96131194 0.26669288 0 0.99693125 0.07632792 -0.017381072 0 0 0 0 1 -0.037623525 0.26429412 -0.963708 33.9 -0.06901366 0.9614009 0.26635572 0 0.996906 0.076530255 -0.017931342 0 0 0 0 1 -0.038065076 0.2638083 -0.96382385 33.9 -0.06913895 0.9615161 0.26590723 0 0.9968807 0.07675952 -0.018360734 0 0 0 0 1 -0.03841293 0.26323116 -0.96396774 33.9 -0.06932334 0.96165353 0.26536167 0 0.99685436 0.07701878 -0.018691897 0 0 0 0 1 -0.038691044 0.2625753 -0.96413547 33.9 -0.0695632 0.96180934 0.2647334 0 0.99682695 0.07731119 -0.01894784 0 0 0 0 1 -0.03892362 0.26185328 -0.9643224 33.9 -0.06985475 0.9619797 0.26403672 0 0.9967974 0.07763977 -0.019152045 0 0 0 0 1 -0.039134026 0.26107773 -0.9645242 33.9 -0.070194446 0.9621607 0.26328602 0 0.99676543 0.078007706 -0.019327044 0 0 0 0 1 -0.039346457 0.26026118 -0.9647363 33.9 -0.07057857 0.9623486 0.26249558 0 0.99673 0.078417964 -0.019496083 0 0 0 0 1 -0.039584637 0.25941616 -0.964954 33.9 -0.071003444 0.96253943 0.26167977 0 0.9966903 0.07887358 -0.019682407 0 0 0 0 1 -0.039872646 0.25855535 -0.96517324 33.9 -0.07146552 0.96272963 0.2608531 0 0.9966458 0.07937751 -0.019908786 0 0 0 0 1 -0.04023409 0.25769126 -0.9653893 33.9 -0.07196126 0.96291536 0.26002997 0 0.9965957 0.079932675 -0.020198226 0 0 0 0 1 -0.040692687 0.2568364 -0.96559787 33.9 -0.072487086 0.963093 0.25922495 0 0.9965389 0.08054195 -0.020573497 0 0 0 0 1 -0.04127264 0.25600344 -0.9657945 33.9 -0.0730395 0.9632588 0.25845262 0 0.9964748 0.08120812 -0.021057844 0 0 0 0 1 -0.041657448 0.25523096 -0.9659823 33.9 -0.07366317 0.9634057 0.25772688 0 0.99641275 0.08189356 -0.021331906 0 0 0 0 1 -0.041657448 0.25523096 -0.9659823 33.9 -0.07366317 0.9634057 0.25772688 0 0.99641275 0.08189356 -0.021331906 0 0 0 0 1</float_array>
        <technique_common>
          <accessor source="#Motion_54_RFoot_transform_pose_array_id" count="16" stride="16">
            <param name="TRANSFORM" type="float4x4" />
          </accessor>
        </technique_common>
      </source>
      <sampler id="Motion_54_RFoot_transform_samp_id">
        <input semantic="INPUT" source="#Motion_54_RFoot_transform_frame_id" />
        <input semantic="INTERPOLATION" source="#Motion_54_RFoot_transform_interp_id" />
        <input semantic="OUTPUT" source="#Motion_54_RFoot_transform_pose_id" />
      </sampler>
      <channel source="#Motion_54_RFoot_transform_samp_id" target="RFoot_bone_id/transform" />
    </animation>
    <animation id="Motion_54_LThigh_transform_id" name="Motion_54_LThigh_transform">
      <source id="Motion_54_LThigh_transform_frame_id" name="Motion_54_LThigh_transform_frame">
        <float_array id="Motion_54_LThigh_transform_frame_array_id" count="16">0 0.033333335 0.06666667 0.1 0.13333334 0.16666667 0.2 0.23333333 0.26666668 0.3 0.33333334 0.36666667 0.4 0.43333334 0.46666667 0.5</float_array>
        <technique_common>
          <accessor source="#Motion_54_LThigh_transform_frame_array_id" count="16" stride="1">
            <param name="TIME" type="float" />
          </accessor>
        </technique_common>
      </source>
      <source id="Motion_54_LThigh_transform_interp_id" name="Motion_54_LThigh_transform_interp">
        <Name_array id="Motion_54_LThigh_transform_interp_array_id" count="16">LINEAR LINEAR LINEAR LINEAR LINEAR LINEAR LINEAR LINEAR LINEAR LINEAR LINEAR LINEAR LINEAR LINEAR LINEAR LINEAR</Name_array>
        <technique_common>
          <accessor source="#Motion_54_LThigh_transform_interp_array_id" count="16" stride="1">
            <param name="INTERPOLATION" type="Name" />
          </accessor>
        </technique_common>
      </source>
      <source id="Motion_54_LThigh_transform_pose_id" name="Motion_54_LThigh_transform_pose">
        <float_array id="Motion_54_LThigh_transform_pose_array_id" count="256">0.0641948 -0.188453 -0.9799819 10.510002 -0.02535215 0.9813825 -0.19038305 7.199996 0.99761534 0.037066244 0.058221936 0 0 0 0 1 0.06462097 -0.18726817 -0.980181 10.510002 -0.025849245 0.9815903 -0.1892416 7.199996 0.99757504 0.037565902 0.05859053 0 0 0 0 1 0.065053225 -0.18540779 -0.98050594 10.510002 -0.026686393 0.9819127 -0.18744433 7.199996 0.99752486 0.03836003 0.058928728 0 0 0 0 1 0.06551796 -0.1830211 -0.9809233 10.510002 -0.027784385 0.9823198 -0.18513742 7.199996 0.9974644 0.039384164 0.059274435 0 0 0 0 1 0.066040695 -0.18025748 -0.98139995 10.510002 -0.029064104 0.9827823 -0.18246716 7.199996 0.99739355 0.04057377 0.059664607 0 0 0 0 1 0.06664854 -0.17726648 -0.9819035 10.510002 -0.030446462 0.9832721 -0.17958017 7.199996 0.9973119 0.041864246 0.060136497 0 0 0 0 1 0.06737012 -0.1741978 -0.98240334 10.510002 -0.03185226 0.98376304 -0.17662321 7.199996 0.9972195 0.043190897 0.060727656 0 0 0 0 1 0.06823474 -0.17120147 -0.9828703 10.510002 -0.03320235 0.98423105 -0.17374353 7.199996 0.9971166 0.04448895 0.061474442 0 0 0 0 1 0.06926125 -0.16855195 -0.98325646 10.510002 -0.034292497 0.9846385 -0.17120448 7.199996 0.99700904 0.045576155 0.06241721 0 0 0 0 1 0.070479274 -0.16643368 -0.9835307 10.510002 -0.03500934 0.9849624 -0.1691847 7.199996 0.9968987 0.04635678 0.06359267 0 0 0 0 1 0.07193655 -0.16486153 -0.98368984 10.510002 -0.035409547 0.98520124 -0.1677043 7.199996 0.99678046 0.046896085 0.06503433 0 0 0 0 1 0.074017346 -0.16384956 -0.9837046 10.510002 -0.035522692 0.9853512 -0.16679668 7.199996 0.99662405 0.047289692 0.067112744 0 0 0 0 1 0.07673401 -0.16326487 -0.98359364 10.510002 -0.03525766 0.98544097 -0.16632208 7.199996 0.99642795 0.047441766 0.06986052 0 0 0 0 1 0.07957435 -0.16291347 -0.9834262 10.510002 -0.034500025 0.9855135 -0.16605084 7.199996 0.9962317 0.047141608 0.07280105 0 0 0 0 1 0.08203149 -0.16271773 -0.98325676 10.510002 -0.033252813 0.9855856 -0.16587736 7.199996 0.99607486 0.046303228 0.07543826 0 0 0 0 1 0.08203149 -0.16271773 -0.98325676 10.510002 -0.033252813 0.9855856 -0.16587736 7.199996 0.99607486 0.046303228 0.07543826 0 0 0 0 1</float_array>
        <technique_common>
          <accessor source="#Motion_54_LThigh_transform_pose_array_id" count="16" stride="16">
            <param name="TRANSFORM" type="float4x4" />
          </accessor>
        </technique_common>
      </source>
      <sampler id="Motion_54_LThigh_transform_samp_id">
        <input semantic="INPUT" source="#Motion_54_LThigh_transform_frame_id" />
        <input semantic="INTERPOLATION" source="#Motion_54_LThigh_transform_interp_id" />
        <input semantic="OUTPUT" source="#Motion_54_LThigh_transform_pose_id" />
      </sampler>
      <channel source="#Motion_54_LThigh_transform_samp_id" target="LThigh_bone_id/transform" />
    </animation>
    <animation id="Motion_54_LLeg_transform_id" name="Motion_54_LLeg_transform">
      <source id="Motion_54_LLeg_transform_frame_id" name="Motion_54_LLeg_transform_frame">
        <float_array id="Motion_54_LLeg_transform_frame_array_id" count="16">0 0.033333335 0.06666667 0.1 0.13333334 0.16666667 0.2 0.23333333 0.26666668 0.3 0.33333334 0.36666667 0.4 0.43333334 0.46666667 0.5</float_array>
        <technique_common>
          <accessor source="#Motion_54_LLeg_transform_frame_array_id" count="16" stride="1">
            <param name="TIME" type="float" />
          </accessor>
        </technique_common>
      </source>
      <source id="Motion_54_LLeg_transform_interp_id" name="Motion_54_LLeg_transform_interp">
        <Name_array id="Motion_54_LLeg_transform_interp_array_id" count="16">LINEAR LINEAR LINEAR LINEAR LINEAR LINEAR LINEAR LINEAR LINEAR LINEAR LINEAR LINEAR LINEAR LINEAR LINEAR LINEAR</Name_array>
        <technique_common>
          <accessor source="#Motion_54_LLeg_transform_interp_array_id" count="16" stride="1">
            <param name="INTERPOLATION" type="Name" />
          </accessor>
        </technique_common>
      </source>
      <source id="Motion_54_LLeg_transform_pose_id" name="Motion_54_LLeg_transform_pose">
        <float_array id="Motion_54_LLeg_transform_pose_array_id" count="256">-0.07214475 -3.8593015E-07 0.99739414 33.899998 -6.842301E-07 1 3.3744584E-07 0 -0.99739414 -6.581022E-07 -0.07214475 0 0 0 0 1 -0.07226658 -3.8596357E-07 0.9973853 33.899998 -6.842387E-07 1 3.3739818E-07 0 -0.9973853 -6.5806705E-07 -0.07226658 0 0 0 0 1 -0.07212114 -3.8592367E-07 0.99739593 33.899998 -6.842285E-07 1 3.3745513E-07 0 -0.99739593 -6.58109E-07 -0.07212114 0 0 0 0 1 -0.07177091 -3.858275E-07 0.9974212 33.899998 -6.842036E-07 1 3.3759224E-07 0 -0.9974212 -6.5820984E-07 -0.07177091 0 0 0 0 1 -0.07127833 -3.8569232E-07 0.99745643 33.899998 -6.841687E-07 1 3.3778502E-07 0 -0.99745643 -6.5835167E-07 -0.07127833 0 0 0 0 1 -0.07070649 -3.8553526E-07 0.9974972 33.899998 -6.8412805E-07 1 3.38009E-07 0 -0.9974972 -6.585164E-07 -0.07070649 0 0 0 0 1 -0.07011783 -3.8537354E-07 0.9975387 33.899998 -6.8408616E-07 1 3.382394E-07 0 -0.9975387 -6.5868585E-07 -0.07011783 0 0 0 0 1 -0.06957495 -3.8522438E-07 0.99757683 33.899998 -6.840475E-07 1 3.38452E-07 0 -0.99757683 -6.5884217E-07 -0.06957495 0 0 0 0 1 -0.069140196 -3.851049E-07 0.997607 33.899998 -6.8401647E-07 1 3.3862221E-07 0 -0.997607 -6.5896717E-07 -0.069140196 0 0 0 0 1 -0.068876386 -3.8503225E-07 0.99762523 33.899998 -6.839975E-07 1 3.3872539E-07 0 -0.99762523 -6.5904294E-07 -0.068876386 0 0 0 0 1 -0.068846345 -3.85024E-07 0.99762726 33.899998 -6.839954E-07 1 3.3873715E-07 0 -0.99762726 -6.5905164E-07 -0.068846345 0 0 0 0 1 -0.06911266 -3.8509722E-07 0.9976089 33.899998 -6.8401437E-07 1 3.386329E-07 0 -0.9976089 -6.58975E-07 -0.06911266 0 0 0 0 1 -0.06973767 -3.852691E-07 0.9975653 33.899998 -6.8405905E-07 1 3.383882E-07 0 -0.9975653 -6.587952E-07 -0.06973767 0 0 0 0 1 -0.07060325 -3.855069E-07 0.9975045 33.899998 -6.841207E-07 1 3.380494E-07 0 -0.9975045 -6.585461E-07 -0.07060325 0 0 0 0 1 -0.071490765 -3.8575064E-07 0.99744123 33.899998 -6.841838E-07 1 3.3770195E-07 0 -0.99744123 -6.5829056E-07 -0.071490765 0 0 0 0 1 -0.071490765 -3.8575064E-07 0.99744123 33.899998 -6.841838E-07 1 3.3770195E-07 0 -0.99744123 -6.5829056E-07 -0.071490765 0 0 0 0 1</float_array>
        <technique_common>
          <accessor source="#Motion_54_LLeg_transform_pose_array_id" count="16" stride="16">
            <param name="TRANSFORM" type="float4x4" />
          </accessor>
        </technique_common>
      </source>
      <sampler id="Motion_54_LLeg_transform_samp_id">
        <input semantic="INPUT" source="#Motion_54_LLeg_transform_frame_id" />
        <input semantic="INTERPOLATION" source="#Motion_54_LLeg_transform_interp_id" />
        <input semantic="OUTPUT" source="#Motion_54_LLeg_transform_pose_id" />
      </sampler>
      <channel source="#Motion_54_LLeg_transform_samp_id" target="LLeg_bone_id/transform" />
    </animation>
    <animation id="Motion_54_LFoot_transform_id" name="Motion_54_LFoot_transform">
      <source id="Motion_54_LFoot_transform_frame_id" name="Motion_54_LFoot_transform_frame">
        <float_array id="Motion_54_LFoot_transform_frame_array_id" count="16">0 0.033333335 0.06666667 0.1 0.13333334 0.16666667 0.2 0.23333333 0.26666668 0.3 0.33333334 0.36666667 0.4 0.43333334 0.46666667 0.5</float_array>
        <technique_common>
          <accessor source="#Motion_54_LFoot_transform_frame_array_id" count="16" stride="1">
            <param name="TIME" type="float" />
          </accessor>
        </technique_common>
      </source>
      <source id="Motion_54_LFoot_transform_interp_id" name="Motion_54_LFoot_transform_interp">
        <Name_array id="Motion_54_LFoot_transform_interp_array_id" count="16">LINEAR LINEAR LINEAR LINEAR LINEAR LINEAR LINEAR LINEAR LINEAR LINEAR LINEAR LINEAR LINEAR LINEAR LINEAR LINEAR</Name_array>
        <technique_common>
          <accessor source="#Motion_54_LFoot_transform_interp_array_id" count="16" stride="1">
            <param name="INTERPOLATION" type="Name" />
          </accessor>
        </technique_common>
      </source>
      <source id="Motion_54_LFoot_transform_pose_id" name="Motion_54_LFoot_transform_pose">
        <float_array id="Motion_54_LFoot_transform_pose_array_id" count="256">-0.06872344 0.15860619 -0.98494726 33.9 0.09255339 0.9840372 0.15200184 4E-06 0.9933333 -0.08071412 -0.08230603 0 0 0 0 1 -0.06925559 0.15843657 -0.98493725 33.9 0.0926323 0.9840637 0.15178259 4E-06 0.9932888 -0.08072519 -0.08282828 0 0 0 0 1 -0.0695461 0.15816665 -0.9849602 33.9 0.092775546 0.9840972 0.15147737 4E-06 0.99325526 -0.08084556 -0.08311415 0 0 0 0 1 -0.06964457 0.15781683 -0.9850093 33.9 0.09297124 0.9841362 0.15110344 4E-06 0.99323 -0.081053995 -0.08321214 0 0 0 0 1 -0.06960237 0.15740739 -0.9850779 33.9 0.09320758 0.9841791 0.15067802 4E-06 0.993211 -0.08132918 -0.0831728 0 0 0 0 1 -0.06946826 0.15695858 -0.985159 33.9 0.0934726 0.9842242 0.15021846 4E-06 0.99319535 -0.081649944 -0.083043694 0 0 0 0 1 -0.06929326 0.15649082 -0.98524576 33.9 0.093754426 0.98427 0.149742 4E-06 0.99318105 -0.08199505 -0.082874894 0 0 0 0 1 -0.06912696 0.15602446 -0.9853313 33.9 0.09404109 0.984315 0.14926594 4E-06 0.9931655 -0.08234332 -0.08271539 0 0 0 0 1 -0.069019675 0.15557997 -0.98540914 33.9 0.09432055 0.98435766 0.14880759 4E-06 0.99314654 -0.08267368 -0.08261442 0 0 0 0 1 -0.069021106 0.15517785 -0.9854725 33.9 0.094580665 0.9843966 0.14838415 4E-06 0.9931217 -0.08296502 -0.08262086 0 0 0 0 1 -0.06918156 0.15483865 -0.9855147 33.9 0.09480935 0.9844305 0.14801286 4E-06 0.9930888 -0.08319625 -0.08278465 0 0 0 0 1 -0.069550395 0.15458287 -0.98552877 33.9 0.094994426 0.98445797 0.14771101 4E-06 0.9930453 -0.08334638 -0.08315396 0 0 0 0 1 -0.07017815 0.15443106 -0.98550814 33.9 0.09512378 0.98447776 0.14749584 4E-06 0.99298877 -0.08339429 -0.08377898 0 0 0 0 1 -0.0711143 0.15440354 -0.98544514 33.9 0.09518539 0.9844884 0.14738461 4E-06 0.9929161 -0.08331883 -0.084708214 0 0 0 0 1 -0.07213223 0.15444322 -0.9853651 33.9 0.09522301 0.9844921 0.14733575 4E-06 0.99283916 -0.083201766 -0.08572018 0 0 0 0 1 -0.07213223 0.15444322 -0.9853651 33.9 0.09522301 0.9844921 0.14733575 4E-06 0.99283916 -0.083201766 -0.08572018 0 0 0 0 1</float_array>
        <technique_common>
          <accessor source="#Motion_54_LFoot_transform_pose_array_id" count="16" stride="16">
            <param name="TRANSFORM" type="float4x4" />
          </accessor>
        </technique_common>
      </source>
      <sampler id="Motion_54_LFoot_transform_samp_id">
        <input semantic="INPUT" source="#Motion_54_LFoot_transform_frame_id" />
        <input semantic="INTERPOLATION" source="#Motion_54_LFoot_transform_interp_id" />
        <input semantic="OUTPUT" source="#Motion_54_LFoot_transform_pose_id" />
      </sampler>
      <channel source="#Motion_54_LFoot_transform_samp_id" target="LFoot_bone_id/transform" />
    </animation>
    <animation id="Motion_54_Spine2_transform_id" name="Motion_54_Spine2_transform">
      <source id="Motion_54_Spine2_transform_frame_id" name="Motion_54_Spine2_transform_frame">
        <float_array id="Motion_54_Spine2_transform_frame_array_id" count="16">0 0.033333335 0.06666667 0.1 0.13333334 0.16666667 0.2 0.23333333 0.26666668 0.3 0.33333334 0.36666667 0.4 0.43333334 0.46666667 0.5</float_array>
        <technique_common>
          <accessor source="#Motion_54_Spine2_transform_frame_array_id" count="16" stride="1">
            <param name="TIME" type="float" />
          </accessor>
        </technique_common>
      </source>
      <source id="Motion_54_Spine2_transform_interp_id" name="Motion_54_Spine2_transform_interp">
        <Name_array id="Motion_54_Spine2_transform_interp_array_id" count="16">LINEAR LINEAR LINEAR LINEAR LINEAR LINEAR LINEAR LINEAR LINEAR LINEAR LINEAR LINEAR LINEAR LINEAR LINEAR LINEAR</Name_array>
        <technique_common>
          <accessor source="#Motion_54_Spine2_transform_interp_array_id" count="16" stride="1">
            <param name="INTERPOLATION" type="Name" />
          </accessor>
        </technique_common>
      </source>
      <source id="Motion_54_Spine2_transform_pose_id" name="Motion_54_Spine2_transform_pose">
        <float_array id="Motion_54_Spine2_transform_pose_array_id" count="256">0.99831605 0.052653976 -0.024343956 12.099998 -0.052287914 0.99851274 0.015437307 0 0.025120586 -0.014138417 0.99958444 0 0 0 0 1 0.99827695 0.05341221 -0.024296232 12.099998 -0.05303361 0.998465 0.015969435 0 0.025111899 -0.014653402 0.9995772 0 0 0 0 1 0.99821436 0.054616366 -0.024189692 12.099998 -0.05422617 0.9983923 0.016503464 0 0.02505216 -0.015162282 0.99957114 0 0 0 0 1 0.9981283 0.05626766 -0.023956098 12.099998 -0.055868495 0.9982931 0.017018186 0 0.02487278 -0.015647942 0.99956816 0 0 0 0 1 0.9980179 0.058367245 -0.023527298 12.099998 -0.057963513 0.9981654 0.017492024 0 0.024505097 -0.016093628 0.99957013 0 0 0 0 1 0.99789745 0.060655653 -0.022837639 12.099998 -0.060253605 0.9980226 0.017899929 0 0.023878213 -0.016486244 0.99957895 0 0 0 0 1 0.9977857 0.06282931 -0.02182223 12.099998 -0.062437017 0.99788266 0.018216236 0 0.02292054 -0.016813384 0.9995959 0 0 0 0 1 0.99768794 0.06482317 -0.020414243 12.099998 -0.064450406 0.99775094 0.018418044 0 0.021562247 -0.017059755 0.9996219 0 0 0 0 1 0.9976092 0.066572286 -0.018546859 12.099998 -0.066230275 0.99763316 0.01848252 0 0.019733386 -0.017209968 0.99965715 0 0 0 0 1 0.9975537 0.06801195 -0.01615328 12.099998 -0.067712955 0.9975354 0.018387118 0 0.017364014 -0.017248353 0.9997004 0 0 0 0 1 0.9975103 0.069281206 -0.01316473 12.099998 -0.069037974 0.99744964 0.018111156 0 0.014385917 -0.017157199 0.9997493 0 0 0 0 1 0.9974626 0.07055411 -0.009512144 12.099998 -0.070379004 0.99736446 0.01763342 0 0.010731184 -0.016919222 0.99979925 0 0 0 0 1 0.9974036 0.07182037 -0.005272231 12.099998 -0.07172156 0.9972797 0.017005768 0 0.0064792493 -0.016583484 0.9998415 0 0 0 0 1 0.99732655 0.0730706 -0.0006582819 12.099998 -0.07305017 0.9971948 0.016315885 0 0.0018486469 -0.01622418 0.99986666 0 0 0 0 1 0.99722755 0.074294105 0.004192133 12.099998 -0.07435092 0.9971102 0.015594901 0 -0.0030214093 -0.015863353 0.9998696 0 0 0 0 1 0.99722755 0.074294105 0.004192133 12.099998 -0.07435092 0.9971102 0.015594901 0 -0.0030214093 -0.015863353 0.9998696 0 0 0 0 1</float_array>
        <technique_common>
          <accessor source="#Motion_54_Spine2_transform_pose_array_id" count="16" stride="16">
            <param name="TRANSFORM" type="float4x4" />
          </accessor>
        </technique_common>
      </source>
      <sampler id="Motion_54_Spine2_transform_samp_id">
        <input semantic="INPUT" source="#Motion_54_Spine2_transform_frame_id" />
        <input semantic="INTERPOLATION" source="#Motion_54_Spine2_transform_interp_id" />
        <input semantic="OUTPUT" source="#Motion_54_Spine2_transform_pose_id" />
      </sampler>
      <channel source="#Motion_54_Spine2_transform_samp_id" target="Spine2_bone_id/transform" />
    </animation>
    <animation id="Motion_54_Spine3_transform_id" name="Motion_54_Spine3_transform">
      <source id="Motion_54_Spine3_transform_frame_id" name="Motion_54_Spine3_transform_frame">
        <float_array id="Motion_54_Spine3_transform_frame_array_id" count="16">0 0.033333335 0.06666667 0.1 0.13333334 0.16666667 0.2 0.23333333 0.26666668 0.3 0.33333334 0.36666667 0.4 0.43333334 0.46666667 0.5</float_array>
        <technique_common>
          <accessor source="#Motion_54_Spine3_transform_frame_array_id" count="16" stride="1">
            <param name="TIME" type="float" />
          </accessor>
        </technique_common>
      </source>
      <source id="Motion_54_Spine3_transform_interp_id" name="Motion_54_Spine3_transform_interp">
        <Name_array id="Motion_54_Spine3_transform_interp_array_id" count="16">LINEAR LINEAR LINEAR LINEAR LINEAR LINEAR LINEAR LINEAR LINEAR LINEAR LINEAR LINEAR LINEAR LINEAR LINEAR LINEAR</Name_array>
        <technique_common>
          <accessor source="#Motion_54_Spine3_transform_interp_array_id" count="16" stride="1">
            <param name="INTERPOLATION" type="Name" />
          </accessor>
        </technique_common>
      </source>
      <source id="Motion_54_Spine3_transform_pose_id" name="Motion_54_Spine3_transform_pose">
        <float_array id="Motion_54_Spine3_transform_pose_array_id" count="256">0.9915754 0.04700638 0.120700516 12.099991 -0.047435697 0.99887407 0.00068449765 0 -0.120532446 -0.0064042443 0.9926887 0 0 0 0 1 0.99141234 0.049134396 0.12119153 12.099991 -0.04960911 0.9987683 0.00090112747 0 -0.12099798 -0.006905593 0.99262875 0 0 0 0 1 0.9909947 0.055343803 0.1219288 12.099991 -0.05587888 0.9984371 0.0009708232 0 -0.121684514 -0.007775326 0.9925384 0 0 0 0 1 0.9903194 0.06447919 0.12292254 12.099991 -0.06508808 0.9978791 0.00094004953 0 -0.12260121 -0.008931741 0.99241585 0 0 0 0 1 0.98942244 0.07497912 0.12418264 12.099991 -0.07567384 0.99713224 0.00088020787 0 -0.12376052 -0.010268275 0.99225897 0 0 0 0 1 0.9883932 0.08528507 0.12571934 12.099991 -0.08607632 0.9962882 0.0008649435 0 -0.12517893 -0.011676361 0.9920655 0 0 0 0 1 0.9873835 0.09384373 0.12754312 12.099991 -0.09474088 0.9955015 0.0009722612 0 -0.12687811 -0.013043541 0.99183255 0 0 0 0 1 0.9865926 0.09910725 0.12966415 12.099991 -0.100118384 0.9949747 0.0012868047 0 -0.12888503 -0.014251318 0.9915571 0 0 0 0 1 0.9861238 0.10055813 0.13209055 12.099991 -0.101689965 0.99481446 0.0018337322 0 -0.13122119 -0.015240571 0.991236 0 0 0 0 1 0.98575 0.100597635 0.13482212 12.099991 -0.101837605 0.99479836 0.0023146132 0 -0.13388796 -0.016011592 0.99086714 0 0 0 0 1 0.9853096 0.10080187 0.13785505 12.099991 -0.10210174 0.9947711 0.0023722989 0 -0.13689509 -0.01641269 0.99044955 0 0 0 0 1 0.98482865 0.10088584 0.14118993 12.099991 -0.102169186 0.99476534 0.0018514674 0 -0.14026406 -0.016248638 0.9899808 0 0 0 0 1 0.9842518 0.10089359 0.14515115 12.099991 -0.10205497 0.99477863 0.00055811973 0 -0.14433695 -0.015362728 0.9894093 0 0 0 0 1 0.98352456 0.10087267 0.15001373 12.099991 -0.10177063 0.99480647 -0.0016989196 0 -0.149406 -0.0135960635 0.98868245 0 0 0 0 1 0.98263925 0.10087776 0.155704 12.099991 -0.101323426 0.9948405 -0.0050923964 0 -0.15541436 -0.010772475 0.98779064 0 0 0 0 1 0.98263925 0.10087776 0.155704 12.099991 -0.101323426 0.9948405 -0.0050923964 0 -0.15541436 -0.010772475 0.98779064 0 0 0 0 1</float_array>
        <technique_common>
          <accessor source="#Motion_54_Spine3_transform_pose_array_id" count="16" stride="16">
            <param name="TRANSFORM" type="float4x4" />
          </accessor>
        </technique_common>
      </source>
      <sampler id="Motion_54_Spine3_transform_samp_id">
        <input semantic="INPUT" source="#Motion_54_Spine3_transform_frame_id" />
        <input semantic="INTERPOLATION" source="#Motion_54_Spine3_transform_interp_id" />
        <input semantic="OUTPUT" source="#Motion_54_Spine3_transform_pose_id" />
      </sampler>
      <channel source="#Motion_54_Spine3_transform_samp_id" target="Spine3_bone_id/transform" />
    </animation>
    <animation id="Motion_54_RShoulder_transform_id" name="Motion_54_RShoulder_transform">
      <source id="Motion_54_RShoulder_transform_frame_id" name="Motion_54_RShoulder_transform_frame">
        <float_array id="Motion_54_RShoulder_transform_frame_array_id" count="16">0 0.033333335 0.06666667 0.1 0.13333334 0.16666667 0.2 0.23333333 0.26666668 0.3 0.33333334 0.36666667 0.4 0.43333334 0.46666667 0.5</float_array>
        <technique_common>
          <accessor source="#Motion_54_RShoulder_transform_frame_array_id" count="16" stride="1">
            <param name="TIME" type="float" />
          </accessor>
        </technique_common>
      </source>
      <source id="Motion_54_RShoulder_transform_interp_id" name="Motion_54_RShoulder_transform_interp">
        <Name_array id="Motion_54_RShoulder_transform_interp_array_id" count="16">LINEAR LINEAR LINEAR LINEAR LINEAR LINEAR LINEAR LINEAR LINEAR LINEAR LINEAR LINEAR LINEAR LINEAR LINEAR LINEAR</Name_array>
        <technique_common>
          <accessor source="#Motion_54_RShoulder_transform_interp_array_id" count="16" stride="1">
            <param name="INTERPOLATION" type="Name" />
          </accessor>
        </technique_common>
      </source>
      <source id="Motion_54_RShoulder_transform_pose_id" name="Motion_54_RShoulder_transform_pose">
        <float_array id="Motion_54_RShoulder_transform_pose_array_id" count="256">-0.63265276 -0.76472694 -0.122243956 14.14009 0.773148 -0.61458313 -0.15662098 3.93 0.044643212 -0.19359931 0.98006445 -0.201935 0 0 0 1 -0.61795783 -0.7765652 -0.12277892 14.14009 0.78504944 -0.6009872 -0.15003988 3.93 0.0427272 -0.18910584 0.9810267 -0.201935 0 0 0 1 -0.5897896 -0.79813737 -0.12298231 14.14009 0.8065967 -0.57479393 -0.13788931 3.93 0.03936513 -0.18052284 0.9827827 -0.201935 0 0 0 1 -0.5732951 -0.8100045 -0.12339191 14.14009 0.81857526 -0.55967844 -0.12920773 3.93 0.035599053 -0.17507973 0.98391044 -0.201935 0 0 0 1 -0.5719017 -0.8109255 -0.12380704 14.14009 0.81955504 -0.55829656 -0.12897433 3.93 0.035467524 -0.17522733 0.9838889 -0.201935 0 0 0 1 -0.5713762 -0.81133175 -0.12357332 14.14009 0.81961334 -0.5564171 -0.13650742 3.93 0.0419945 -0.17927939 0.9829015 -0.201935 0 0 0 1 -0.57154727 -0.81126404 -0.12322268 14.14009 0.8188449 -0.55415034 -0.14969939 3.93 0.05316184 -0.18646061 0.9810231 -0.201935 0 0 0 1 -0.5720147 -0.8109674 -0.123008184 14.14009 0.81761855 -0.55174863 -0.16453968 3.93 0.065566696 -0.1946929 0.97867036 -0.201935 0 0 0 1 -0.5723469 -0.8108165 -0.12245602 14.14009 0.816411 -0.5494653 -0.17765416 3.93 0.076759584 -0.20165427 0.9764443 -0.201935 0 0 0 1 -0.5727402 -0.81051636 -0.12260429 14.14009 0.8150426 -0.54707146 -0.19083588 3.93 0.087602295 -0.2092271 0.97393525 -0.201935 0 0 0 1 -0.5728308 -0.81041163 -0.122872055 14.14009 0.8139675 -0.5447588 -0.20172876 3.93 0.09654771 -0.21557036 0.97170365 -0.201935 0 0 0 1 -0.572458 -0.81070995 -0.122641794 14.14009 0.8135624 -0.54300904 -0.20798355 3.93 0.10201874 -0.21883863 0.9704132 -0.201935 0 0 0 1 -0.5721382 -0.8109408 -0.122609414 14.14009 0.81336564 -0.54182506 -0.21180657 3.93 0.10532973 -0.22090888 0.96959007 -0.201935 0 0 0 1 -0.5721792 -0.81084806 -0.12303051 14.14009 0.81294376 -0.5409347 -0.21566695 3.93 0.10832165 -0.22341701 0.9686853 -0.201935 0 0 0 1 -0.5723045 -0.81068414 -0.12352491 14.14009 0.8126547 -0.54050624 -0.21781904 3.93 0.10981644 -0.22504196 0.9681407 -0.201935 0 0 0 1 -0.5723045 -0.81068414 -0.12352491 14.14009 0.8126547 -0.54050624 -0.21781904 3.93 0.10981644 -0.22504196 0.9681407 -0.201935 0 0 0 1</float_array>
        <technique_common>
          <accessor source="#Motion_54_RShoulder_transform_pose_array_id" count="16" stride="16">
            <param name="TRANSFORM" type="float4x4" />
          </accessor>
        </technique_common>
      </source>
      <sampler id="Motion_54_RShoulder_transform_samp_id">
        <input semantic="INPUT" source="#Motion_54_RShoulder_transform_frame_id" />
        <input semantic="INTERPOLATION" source="#Motion_54_RShoulder_transform_interp_id" />
        <input semantic="OUTPUT" source="#Motion_54_RShoulder_transform_pose_id" />
      </sampler>
      <channel source="#Motion_54_RShoulder_transform_samp_id" target="RShoulder_bone_id/transform" />
    </animation>
    <animation id="Motion_54_RArm_transform_id" name="Motion_54_RArm_transform">
      <source id="Motion_54_RArm_transform_frame_id" name="Motion_54_RArm_transform_frame">
        <float_array id="Motion_54_RArm_transform_frame_array_id" count="16">0 0.033333335 0.06666667 0.1 0.13333334 0.16666667 0.2 0.23333333 0.26666668 0.3 0.33333334 0.36666667 0.4 0.43333334 0.46666667 0.5</float_array>
        <technique_common>
          <accessor source="#Motion_54_RArm_transform_frame_array_id" count="16" stride="1">
            <param name="TIME" type="float" />
          </accessor>
        </technique_common>
      </source>
      <source id="Motion_54_RArm_transform_interp_id" name="Motion_54_RArm_transform_interp">
        <Name_array id="Motion_54_RArm_transform_interp_array_id" count="16">LINEAR LINEAR LINEAR LINEAR LINEAR LINEAR LINEAR LINEAR LINEAR LINEAR LINEAR LINEAR LINEAR LINEAR LINEAR LINEAR</Name_array>
        <technique_common>
          <accessor source="#Motion_54_RArm_transform_interp_array_id" count="16" stride="1">
            <param name="INTERPOLATION" type="Name" />
          </accessor>
        </technique_common>
      </source>
      <source id="Motion_54_RArm_transform_pose_id" name="Motion_54_RArm_transform_pose">
        <float_array id="Motion_54_RArm_transform_pose_array_id" count="256">0.90265024 -0.41050917 -0.12924677 8.161548 0.40880656 0.723959 0.5556622 0 -0.13453507 -0.5544056 0.8213006 0 0 0 0 1 0.89858484 -0.4148281 -0.14304863 8.161548 0.4221572 0.72834504 0.5397192 0 -0.11970194 -0.5453725 0.8296025 0 0 0 0 1 0.8916184 -0.42037848 -0.16822183 8.161548 0.44534215 0.7470891 0.49348578 0 -0.08177414 -0.51491725 0.8533306 0 0 0 0 1 0.891211 -0.41486317 -0.1833891 8.161548 0.4525748 0.7862771 0.42064753 0 -0.030316547 -0.45788297 0.8884954 0 0 0 0 1 0.89667594 -0.4007922 -0.18798359 8.161548 0.44187626 0.83602387 0.32528365 0 0.026787624 -0.37473953 0.9267431 0 0 0 0 1 0.89934355 -0.39452612 -0.18849477 8.161548 0.4293661 0.8783219 0.2102271 0 0.082619004 -0.26999965 0.9593093 0 0 0 0 1 0.8994885 -0.39571947 -0.18527418 8.161548 0.41576713 0.9055475 0.0843883 0 0.13438049 -0.15293722 0.9790567 0 0 0 0 1 0.8975736 -0.40338978 -0.1778718 8.161548 0.40339378 0.9142458 -0.037790373 0 0.1778628 -0.037832737 0.98332775 0 0 0 0 1 0.8940859 -0.41578537 -0.16653225 8.161548 0.39487398 0.90721345 -0.14504588 0 0.21138823 0.06392423 0.97530955 0 0 0 0 1 0.88994616 -0.42945287 -0.15351237 8.161548 0.38969722 0.89092547 -0.23321216 0 0.23692171 0.14772291 0.96023226 0 0 0 0 1 0.8855323 -0.4424337 -0.14172137 8.161548 0.38752085 0.8717015 -0.2999401 0 0.25624236 0.21068668 0.94337213 0 0 0 0 1 0.8806094 -0.4551509 -0.13177559 8.161548 0.3891008 0.85330653 -0.34708568 0 0.27042133 0.25437292 0.9285293 0 0 0 0 1 0.875724 -0.4673592 -0.12117283 8.161548 0.39502507 0.83786553 -0.3767447 0 0.2776016 0.28205806 0.91835755 0 0 0 0 1 0.87142015 -0.47866037 -0.10729027 8.161548 0.40575042 0.82626206 -0.39071426 0 0.2756693 0.29694322 0.91423804 0 0 0 0 1 0.8673948 -0.4895996 -0.08898579 8.161548 0.4220209 0.8185141 -0.38978583 0 0.2636751 0.30054432 0.9165962 0 0 0 0 1 0.8673948 -0.4895996 -0.08898579 8.161548 0.4220209 0.8185141 -0.38978583 0 0.2636751 0.30054432 0.9165962 0 0 0 0 1</float_array>
        <technique_common>
          <accessor source="#Motion_54_RArm_transform_pose_array_id" count="16" stride="16">
            <param name="TRANSFORM" type="float4x4" />
          </accessor>
        </technique_common>
      </source>
      <sampler id="Motion_54_RArm_transform_samp_id">
        <input semantic="INPUT" source="#Motion_54_RArm_transform_frame_id" />
        <input semantic="INTERPOLATION" source="#Motion_54_RArm_transform_interp_id" />
        <input semantic="OUTPUT" source="#Motion_54_RArm_transform_pose_id" />
      </sampler>
      <channel source="#Motion_54_RArm_transform_samp_id" target="RArm_bone_id/transform" />
    </animation>
    <animation id="Motion_54_RForeArm_transform_id" name="Motion_54_RForeArm_transform">
      <source id="Motion_54_RForeArm_transform_frame_id" name="Motion_54_RForeArm_transform_frame">
        <float_array id="Motion_54_RForeArm_transform_frame_array_id" count="16">0 0.033333335 0.06666667 0.1 0.13333334 0.16666667 0.2 0.23333333 0.26666668 0.3 0.33333334 0.36666667 0.4 0.43333334 0.46666667 0.5</float_array>
        <technique_common>
          <accessor source="#Motion_54_RForeArm_transform_frame_array_id" count="16" stride="1">
            <param name="TIME" type="float" />
          </accessor>
        </technique_common>
      </source>
      <source id="Motion_54_RForeArm_transform_interp_id" name="Motion_54_RForeArm_transform_interp">
        <Name_array id="Motion_54_RForeArm_transform_interp_array_id" count="16">LINEAR LINEAR LINEAR LINEAR LINEAR LINEAR LINEAR LINEAR LINEAR LINEAR LINEAR LINEAR LINEAR LINEAR LINEAR LINEAR</Name_array>
        <technique_common>
          <accessor source="#Motion_54_RForeArm_transform_interp_array_id" count="16" stride="1">
            <param name="INTERPOLATION" type="Name" />
          </accessor>
        </technique_common>
      </source>
      <source id="Motion_54_RForeArm_transform_pose_id" name="Motion_54_RForeArm_transform_pose">
        <float_array id="Motion_54_RForeArm_transform_pose_array_id" count="256">-0.23065126 4.7749643E-05 -0.9730365 22.9 1.1033133E-05 1 4.64575E-05 0 0.9730365 -2.0163498E-08 -0.23065126 0 0 0 0 1 -0.22334278 7.707499E-05 -0.97473997 22.9 1.7233175E-05 1 7.512371E-05 0 0.97473997 -1.952867E-08 -0.22334278 0 0 0 0 1 -0.21024227 7.707473E-05 -0.97764933 22.9 1.6222335E-05 1 7.5348195E-05 0 0.97764933 -1.8379069E-08 -0.21024227 0 0 0 0 1 -0.19128442 5.943141E-05 -0.9815347 22.9 1.1384711E-05 1 5.8330792E-05 0 0.9815347 -1.672197E-08 -0.19128442 0 0 0 0 1 -0.16639197 3.6065998E-05 -0.9860597 22.9 6.015439E-06 1 3.5560806E-05 0 0.9860597 -1.4546458E-08 -0.16639197 0 0 0 0 1 -0.13548529 1.842261E-05 -0.9907794 22.9 2.507728E-06 1 1.8251138E-05 0 0.9907794 -1.1845259E-08 -0.13548529 0 0 0 0 1 -0.09941685 1.8422237E-05 -0.99504584 22.9 1.8401279E-06 1 1.8330107E-05 0 0.99504584 -8.691131E-09 -0.09941685 0 0 0 0 1 -0.059748173 4.7747446E-05 -0.99821347 22.9 2.858038E-06 1 4.766183E-05 0 0.99821347 -5.2223186E-09 -0.059748173 0 0 0 0 1 -0.017130375 4.792212E-05 -0.99985325 22.9 8.1942744E-07 1 4.7915113E-05 0 0.99985325 1.4970283E-09 -0.017130375 0 0 0 0 1 0.029264152 4.7726768E-05 -0.99957174 22.9 5.116817E-09 1 4.7747366E-05 0 0.99957174 -1.4024008E-06 0.029264152 0 0 0 0 1 0.07452655 4.761402E-05 -0.997219 22.9 1.3029421E-08 1 4.7747773E-05 0 0.997219 -3.571471E-06 0.07452655 0 0 0 0 1 0.11263615 4.744233E-05 -0.9936363 22.9 1.969238E-08 1 4.7748403E-05 0 0.9936363 -5.39776E-06 0.11263615 0 0 0 0 1 0.13909304 4.728145E-05 -0.99027926 22.9 2.4321707E-08 1 4.774899E-05 0 0.99027926 -6.665634E-06 0.13909304 0 0 0 0 1 0.14774221 4.7396235E-05 -0.98902595 22.9 0 1 4.7922138E-05 0 0.98902595 -7.080125E-06 0.14774221 0 0 0 0 1 0.1323846 4.73255E-05 -0.9911984 22.9 2.314846E-08 1 4.774883E-05 0 0.9911984 -6.344153E-06 0.1323846 0 0 0 0 1 0.1323846 4.73255E-05 -0.9911984 22.9 2.314846E-08 1 4.774883E-05 0 0.9911984 -6.344153E-06 0.1323846 0 0 0 0 1</float_array>
        <technique_common>
          <accessor source="#Motion_54_RForeArm_transform_pose_array_id" count="16" stride="16">
            <param name="TRANSFORM" type="float4x4" />
          </accessor>
        </technique_common>
      </source>
      <sampler id="Motion_54_RForeArm_transform_samp_id">
        <input semantic="INPUT" source="#Motion_54_RForeArm_transform_frame_id" />
        <input semantic="INTERPOLATION" source="#Motion_54_RForeArm_transform_interp_id" />
        <input semantic="OUTPUT" source="#Motion_54_RForeArm_transform_pose_id" />
      </sampler>
      <channel source="#Motion_54_RForeArm_transform_samp_id" target="RForeArm_bone_id/transform" />
    </animation>
    <animation id="Motion_54_RHand_transform_id" name="Motion_54_RHand_transform">
      <source id="Motion_54_RHand_transform_frame_id" name="Motion_54_RHand_transform_frame">
        <float_array id="Motion_54_RHand_transform_frame_array_id" count="16">0 0.033333335 0.06666667 0.1 0.13333334 0.16666667 0.2 0.23333333 0.26666668 0.3 0.33333334 0.36666667 0.4 0.43333334 0.46666667 0.5</float_array>
        <technique_common>
          <accessor source="#Motion_54_RHand_transform_frame_array_id" count="16" stride="1">
            <param name="TIME" type="float" />
          </accessor>
        </technique_common>
      </source>
      <source id="Motion_54_RHand_transform_interp_id" name="Motion_54_RHand_transform_interp">
        <Name_array id="Motion_54_RHand_transform_interp_array_id" count="16">LINEAR LINEAR LINEAR LINEAR LINEAR LINEAR LINEAR LINEAR LINEAR LINEAR LINEAR LINEAR LINEAR LINEAR LINEAR LINEAR</Name_array>
        <technique_common>
          <accessor source="#Motion_54_RHand_transform_interp_array_id" count="16" stride="1">
            <param name="INTERPOLATION" type="Name" />
          </accessor>
        </technique_common>
      </source>
      <source id="Motion_54_RHand_transform_pose_id" name="Motion_54_RHand_transform_pose">
        <float_array id="Motion_54_RHand_transform_pose_array_id" count="256">0.8814243 -0.37114105 -0.29213953 22.900002 0.39154908 0.9200727 0.012473892 0 0.26416004 -0.12538175 0.95629436 0 0 0 0 1 0.84995174 -0.44248837 -0.28598264 22.900002 0.45734072 0.88913864 -0.016490486 0 0.26157507 -0.11677539 0.95809287 0 0 0 0 1 0.8550493 -0.43938744 -0.27537128 22.900002 0.44999737 0.89262146 -0.027006187 0 0.25766847 -0.10082472 0.96095854 0 0 0 0 1 0.8633212 -0.43303353 -0.25914946 22.900002 0.43729514 0.89823407 -0.044141755 0 0.25189176 -0.075216286 0.964828 0 0 0 0 1 0.8747773 -0.4229628 -0.23636225 22.900002 0.41878316 0.90536803 -0.07021003 0 0.24369106 -0.03756637 0.9691251 0 0 0 0 1 0.8895637 -0.40743083 -0.20658304 22.900002 0.39321512 0.91312015 -0.10767302 0 0.23250444 0.01455044 0.9724865 0 0 0 0 1 0.90750766 -0.38398245 -0.17025675 22.900002 0.35918048 0.9195585 -0.15937857 0 0.21775962 0.08348437 0.97242534 0 0 0 0 1 0.92798936 -0.34947544 -0.1292387 22.900002 0.31509614 0.9211653 -0.22840522 0 0.19887224 0.17123501 0.96494997 0 0 0 0 1 0.951141 -0.29558635 -0.0892162 22.900002 0.2542041 0.91368985 -0.31709808 0 0.17524579 0.27892584 0.9441871 0 0 0 0 1 0.97557 -0.21035819 -0.063345104 22.900002 0.16391136 0.8889496 -0.4276701 0 0.1462745 0.4068391 0.90171266 0 0 0 0 1 0.9927133 -0.09646346 -0.07221604 22.900002 0.040957674 0.8337329 -0.55064684 0 0.113326184 0.5436767 0.83160865 0 0 0 0 1 0.9922157 0.014980666 -0.12362678 22.900002 -0.09414895 0.7400261 -0.665956 0 0.08151059 0.6724113 0.73567593 0 0 0 0 1 0.973211 0.09702296 -0.20843923 22.900002 -0.22302166 0.6186965 -0.75331 0 0.05587226 0.77961606 0.62376046 0 0 0 0 1 0.94367665 0.13458359 -0.3022608 22.900002 -0.32826036 0.49531078 -0.80430853 0 0.041466266 0.8582275 0.5115917 0 0 0 0 1 0.917315 0.12931028 -0.37657928 22.900002 -0.39579794 0.3990605 -0.8271001 0 0.04332529 0.9077607 0.41724497 0 0 0 0 1 0.917315 0.12931028 -0.37657928 22.900002 -0.39579794 0.3990605 -0.8271001 0 0.04332529 0.9077607 0.41724497 0 0 0 0 1</float_array>
        <technique_common>
          <accessor source="#Motion_54_RHand_transform_pose_array_id" count="16" stride="16">
            <param name="TRANSFORM" type="float4x4" />
          </accessor>
        </technique_common>
      </source>
      <sampler id="Motion_54_RHand_transform_samp_id">
        <input semantic="INPUT" source="#Motion_54_RHand_transform_frame_id" />
        <input semantic="INTERPOLATION" source="#Motion_54_RHand_transform_interp_id" />
        <input semantic="OUTPUT" source="#Motion_54_RHand_transform_pose_id" />
      </sampler>
      <channel source="#Motion_54_RHand_transform_samp_id" target="RHand_bone_id/transform" />
    </animation>
    <animation id="Motion_54_LShoulder_transform_id" name="Motion_54_LShoulder_transform">
      <source id="Motion_54_LShoulder_transform_frame_id" name="Motion_54_LShoulder_transform_frame">
        <float_array id="Motion_54_LShoulder_transform_frame_array_id" count="16">0 0.033333335 0.06666667 0.1 0.13333334 0.16666667 0.2 0.23333333 0.26666668 0.3 0.33333334 0.36666667 0.4 0.43333334 0.46666667 0.5</float_array>
        <technique_common>
          <accessor source="#Motion_54_LShoulder_transform_frame_array_id" count="16" stride="1">
            <param name="TIME" type="float" />
          </accessor>
        </technique_common>
      </source>
      <source id="Motion_54_LShoulder_transform_interp_id" name="Motion_54_LShoulder_transform_interp">
        <Name_array id="Motion_54_LShoulder_transform_interp_array_id" count="16">LINEAR LINEAR LINEAR LINEAR LINEAR LINEAR LINEAR LINEAR LINEAR LINEAR LINEAR LINEAR LINEAR LINEAR LINEAR LINEAR</Name_array>
        <technique_common>
          <accessor source="#Motion_54_LShoulder_transform_interp_array_id" count="16" stride="1">
            <param name="INTERPOLATION" type="Name" />
          </accessor>
        </technique_common>
      </source>
      <source id="Motion_54_LShoulder_transform_pose_id" name="Motion_54_LShoulder_transform_pose">
        <float_array id="Motion_54_LShoulder_transform_pose_array_id" count="256">-0.60703135 0.7845647 -0.12637632 14.14009 -0.7926976 -0.6090324 0.026641991 -3.930001 -0.056064922 0.116350725 0.99162453 -0.201936 0 0 0 1 -0.60696816 0.7846102 -0.12639648 14.14009 -0.7927304 -0.6090013 0.026373222 -3.930001 -0.056282938 0.11620605 0.9916292 -0.201936 0 0 0 1 -0.6069201 0.7846444 -0.12641665 14.14009 -0.7927572 -0.6089742 0.026200097 -3.930001 -0.056426723 0.11611907 0.99163115 -0.201936 0 0 0 1 -0.6068853 0.78466845 -0.12643415 14.14009 -0.79278135 -0.6089442 0.026164614 -3.930001 -0.056460805 0.116113566 0.9916299 -0.201936 0 0 0 1 -0.60686505 0.7846819 -0.12644649 14.14009 -0.7928046 -0.60890746 0.026309002 -3.930001 -0.05635003 0.11621338 0.9916245 -0.201936 0 0 0 1 -0.60685885 0.7846862 -0.12645096 14.14009 -0.7928302 -0.60885847 0.026675306 -3.930001 -0.056059 0.116442285 0.9916141 -0.201936 0 0 0 1 -0.606864 0.7846827 -0.12644485 14.14009 -0.7928614 -0.6087893 0.027305469 -3.930001 -0.055552185 0.116823986 0.9915978 -0.201936 0 0 0 1 -0.60688305 0.78467155 -0.1264257 14.14009 -0.7929001 -0.6086968 0.028241713 -3.930001 -0.05479445 0.11738236 0.991574 -0.201936 0 0 0 1 -0.6069113 0.7846551 -0.12639067 14.14009 -0.7929497 -0.60857105 0.029525813 -3.930001 -0.053750135 0.118140996 0.991541 -0.201936 0 0 0 1 -0.60694146 0.7846364 -0.1263651 14.14009 -0.79301214 -0.60841167 0.03110082 -3.930001 -0.05247914 0.119085416 0.99149615 -0.201936 0 0 0 1 -0.6069616 0.7846206 -0.12636533 14.14009 -0.7930817 -0.60823524 0.032732435 -3.930001 -0.0511773 0.12008535 0.9914436 -0.201936 0 0 0 1 -0.6069734 0.78461 -0.12637565 14.14009 -0.793147 -0.60806966 0.034197126 -3.930001 -0.050013777 0.1209912 0.99139285 -0.201936 0 0 0 1 -0.60697687 0.7846064 -0.12638018 14.14009 -0.7931978 -0.60794187 0.035271462 -3.930001 -0.049157567 0.12165342 0.99135464 -0.201936 0 0 0 1 -0.6069733 0.78461206 -0.12636304 14.14009 -0.7932241 -0.60788083 0.035732105 -3.930001 -0.048777804 0.12192263 0.9913403 -0.201936 0 0 0 1 -0.6069641 0.7846276 -0.12630846 14.14009 -0.7932144 -0.60791504 0.0353558 -3.930001 -0.04904369 0.12164939 0.9913607 -0.201936 0 0 0 1 -0.6069641 0.7846276 -0.12630846 14.14009 -0.7932144 -0.60791504 0.0353558 -3.930001 -0.04904369 0.12164939 0.9913607 -0.201936 0 0 0 1</float_array>
        <technique_common>
          <accessor source="#Motion_54_LShoulder_transform_pose_array_id" count="16" stride="16">
            <param name="TRANSFORM" type="float4x4" />
          </accessor>
        </technique_common>
      </source>
      <sampler id="Motion_54_LShoulder_transform_samp_id">
        <input semantic="INPUT" source="#Motion_54_LShoulder_transform_frame_id" />
        <input semantic="INTERPOLATION" source="#Motion_54_LShoulder_transform_interp_id" />
        <input semantic="OUTPUT" source="#Motion_54_LShoulder_transform_pose_id" />
      </sampler>
      <channel source="#Motion_54_LShoulder_transform_samp_id" target="LShoulder_bone_id/transform" />
    </animation>
    <animation id="Motion_54_LArm_transform_id" name="Motion_54_LArm_transform">
      <source id="Motion_54_LArm_transform_frame_id" name="Motion_54_LArm_transform_frame">
        <float_array id="Motion_54_LArm_transform_frame_array_id" count="16">0 0.033333335 0.06666667 0.1 0.13333334 0.16666667 0.2 0.23333333 0.26666668 0.3 0.33333334 0.36666667 0.4 0.43333334 0.46666667 0.5</float_array>
        <technique_common>
          <accessor source="#Motion_54_LArm_transform_frame_array_id" count="16" stride="1">
            <param name="TIME" type="float" />
          </accessor>
        </technique_common>
      </source>
      <source id="Motion_54_LArm_transform_interp_id" name="Motion_54_LArm_transform_interp">
        <Name_array id="Motion_54_LArm_transform_interp_array_id" count="16">LINEAR LINEAR LINEAR LINEAR LINEAR LINEAR LINEAR LINEAR LINEAR LINEAR LINEAR LINEAR LINEAR LINEAR LINEAR LINEAR</Name_array>
        <technique_common>
          <accessor source="#Motion_54_LArm_transform_interp_array_id" count="16" stride="1">
            <param name="INTERPOLATION" type="Name" />
          </accessor>
        </technique_common>
      </source>
      <source id="Motion_54_LArm_transform_pose_id" name="Motion_54_LArm_transform_pose">
        <float_array id="Motion_54_LArm_transform_pose_array_id" count="256">0.945259 0.3012907 -0.12533721 8.161509 -0.2987296 0.6443851 -0.7039378 0 -0.13132447 0.7028455 0.6991153 0 0 0 0 1 0.946577 0.2993813 -0.11984479 8.161509 -0.29369155 0.6468524 -0.70379496 0 -0.13318114 0.7013935 0.70022136 0 0 0 0 1 0.95056826 0.29205665 -0.105465345 8.161509 -0.27864537 0.65241337 -0.7047791 0 -0.13702843 0.699328 0.7015437 0 0 0 0 1 0.95623225 0.28025192 -0.084135294 8.161509 -0.2556126 0.6601088 -0.7063417 0 -0.14241518 0.69693273 0.7028532 0 0 0 0 1 0.9623588 0.26541603 -0.05848045 8.161509 -0.22745502 0.6687573 -0.7078332 0 -0.14876103 0.69449115 0.7039547 0 0 0 0 1 0.9679796 0.24908704 -0.031162951 8.161509 -0.19711065 0.6773175 -0.70879364 0 -0.15544412 0.69224036 0.7047272 0 0 0 0 1 0.97248805 0.23290057 -0.0049270615 8.161509 -0.16756238 0.6846589 -0.7093412 0 -0.16183263 0.6906515 0.704848 0 0 0 0 1 0.975657 0.2186026 0.017502435 8.161509 -0.14187062 0.69001687 -0.7097531 0 -0.16723084 0.6899925 0.70423305 0 0 0 0 1 0.9776881 0.20712216 0.035021327 8.161509 -0.121463016 0.6934333 -0.7102092 0 -0.17138502 0.6901092 0.7031191 0 0 0 0 1 0.9790317 0.19779058 0.048742436 8.161509 -0.10508497 0.6953546 -0.7109424 0 -0.17451099 0.6909131 0.701559 0 0 0 0 1 0.9799928 0.18998307 0.05933368 8.161509 -0.09183359 0.6960896 -0.7120574 0 -0.17658041 0.69236237 0.69960964 0 0 0 0 1 0.9806931 0.18363895 0.06721437 8.161509 -0.08138217 0.69579923 -0.71361077 0 -0.17781444 0.6943631 0.69731045 0 0 0 0 1 0.9811146 0.17931265 0.072533116 8.161509 -0.0740281 0.69453 -0.71564513 0 -0.17870064 0.6967605 0.6946877 0 0 0 0 1 0.98135436 0.17701046 0.07490587 8.161509 -0.0700665 0.69235265 -0.7181493 0 -0.17898121 0.6995106 0.69184583 0 0 0 0 1 0.98145837 0.17678176 0.074079275 8.161509 -0.06973338 0.68931705 -0.72109586 0 -0.1785407 0.70255977 0.6888635 0 0 0 0 1 0.98145837 0.17678176 0.074079275 8.161509 -0.06973338 0.68931705 -0.72109586 0 -0.1785407 0.70255977 0.6888635 0 0 0 0 1</float_array>
        <technique_common>
          <accessor source="#Motion_54_LArm_transform_pose_array_id" count="16" stride="16">
            <param name="TRANSFORM" type="float4x4" />
          </accessor>
        </technique_common>
      </source>
      <sampler id="Motion_54_LArm_transform_samp_id">
        <input semantic="INPUT" source="#Motion_54_LArm_transform_frame_id" />
        <input semantic="INTERPOLATION" source="#Motion_54_LArm_transform_interp_id" />
        <input semantic="OUTPUT" source="#Motion_54_LArm_transform_pose_id" />
      </sampler>
      <channel source="#Motion_54_LArm_transform_samp_id" target="LArm_bone_id/transform" />
    </animation>
    <animation id="Motion_54_LForeArm_transform_id" name="Motion_54_LForeArm_transform">
      <source id="Motion_54_LForeArm_transform_frame_id" name="Motion_54_LForeArm_transform_frame">
        <float_array id="Motion_54_LForeArm_transform_frame_array_id" count="16">0 0.033333335 0.06666667 0.1 0.13333334 0.16666667 0.2 0.23333333 0.26666668 0.3 0.33333334 0.36666667 0.4 0.43333334 0.46666667 0.5</float_array>
        <technique_common>
          <accessor source="#Motion_54_LForeArm_transform_frame_array_id" count="16" stride="1">
            <param name="TIME" type="float" />
          </accessor>
        </technique_common>
      </source>
      <source id="Motion_54_LForeArm_transform_interp_id" name="Motion_54_LForeArm_transform_interp">
        <Name_array id="Motion_54_LForeArm_transform_interp_array_id" count="16">LINEAR LINEAR LINEAR LINEAR LINEAR LINEAR LINEAR LINEAR LINEAR LINEAR LINEAR LINEAR LINEAR LINEAR LINEAR LINEAR</Name_array>
        <technique_common>
          <accessor source="#Motion_54_LForeArm_transform_interp_array_id" count="16" stride="1">
            <param name="INTERPOLATION" type="Name" />
          </accessor>
        </technique_common>
      </source>
      <source id="Motion_54_LForeArm_transform_pose_id" name="Motion_54_LForeArm_transform_pose">
        <float_array id="Motion_54_LForeArm_transform_pose_array_id" count="256">-0.13168871 -0.0030136919 -0.9912864 22.9 0.0018947864 0.9999928 -0.003291876 0 0.99128914 -0.0023117797 -0.13168204 0 0 0 0 1 -0.13545191 -0.003027901 -0.99077916 22.9 0.0018846374 0.9999927 -0.0033137114 0 0.990782 -0.0023161084 -0.13544512 0 0 0 0 1 -0.14569402 -0.0030395316 -0.989325 22.9 0.0018728666 0.99999267 -0.0033481158 0 0.98932785 -0.0023406744 -0.14568722 0 0 0 0 1 -0.16100109 -0.0030489196 -0.98694956 22.9 0.0018599755 0.9999925 -0.0033926303 0 0.98695254 -0.002381919 -0.16099429 0 0 0 0 1 -0.17954028 -0.0030570398 -0.9837459 22.9 0.0018472988 0.9999924 -0.0034446712 0 0.98374885 -0.0024357303 -0.17953336 0 0 0 0 1 -0.19948888 -0.0030650436 -0.9798953 22.9 0.0018363431 0.9999922 -0.0035017515 0 0.9798984 -0.0024979846 -0.19948173 0 0 0 0 1 -0.21904433 -0.0030743966 -0.97571003 22.9 0.0018288807 0.999992 -0.0035614865 0 0.97571313 -0.002564581 -0.21903694 0 0 0 0 1 -0.23643398 -0.0030869485 -0.9716426 22.9 0.0018270032 0.9999918 -0.0036215875 0 0.97164583 -0.0026314608 -0.23642647 0 0 0 0 1 -0.2510003 -0.0031028711 -0.967982 22.9 0.0018307344 0.99999154 -0.0036801922 0 0.9679852 -0.0026958475 -0.25099254 0 0 0 0 1 -0.26339078 -0.003119986 -0.9646841 22.9 0.0018373523 0.99999136 -0.0037358347 0 0.96468747 -0.002756449 -0.2633828 0 0 0 0 1 -0.27380872 -0.0031369298 -0.96177924 22.9 0.001845089 0.9999911 -0.0037868395 0 0.9617826 -0.002811437 -0.2738005 0 0 0 0 1 -0.28245306 -0.0031523383 -0.9592761 22.9 0.0018521805 0.99999094 -0.0038314972 0 0.9592794 -0.0028589696 -0.28244472 0 0 0 0 1 -0.2891296 -0.0031656292 -0.95728475 22.9 0.0018577599 0.9999908 -0.0038679542 0 0.9572882 -0.0028967455 -0.28912115 0 0 0 0 1 -0.29318166 -0.0031771804 -0.9560514 22.9 0.001862051 0.9999907 -0.0038942154 0 0.95605487 -0.0029219296 -0.29317307 0 0 0 0 1 -0.29410982 -0.0031870077 -0.9557664 22.9 0.0018648766 0.99999064 -0.0039083366 0 0.95576984 -0.0029318663 -0.29410112 0 0 0 0 1 -0.29410982 -0.0031870077 -0.9557664 22.9 0.0018648766 0.99999064 -0.0039083366 0 0.95576984 -0.0029318663 -0.29410112 0 0 0 0 1</float_array>
        <technique_common>
          <accessor source="#Motion_54_LForeArm_transform_pose_array_id" count="16" stride="16">
            <param name="TRANSFORM" type="float4x4" />
          </accessor>
        </technique_common>
      </source>
      <sampler id="Motion_54_LForeArm_transform_samp_id">
        <input semantic="INPUT" source="#Motion_54_LForeArm_transform_frame_id" />
        <input semantic="INTERPOLATION" source="#Motion_54_LForeArm_transform_interp_id" />
        <input semantic="OUTPUT" source="#Motion_54_LForeArm_transform_pose_id" />
      </sampler>
      <channel source="#Motion_54_LForeArm_transform_samp_id" target="LForeArm_bone_id/transform" />
    </animation>
    <animation id="Motion_54_LHand_transform_id" name="Motion_54_LHand_transform">
      <source id="Motion_54_LHand_transform_frame_id" name="Motion_54_LHand_transform_frame">
        <float_array id="Motion_54_LHand_transform_frame_array_id" count="16">0 0.033333335 0.06666667 0.1 0.13333334 0.16666667 0.2 0.23333333 0.26666668 0.3 0.33333334 0.36666667 0.4 0.43333334 0.46666667 0.5</float_array>
        <technique_common>
          <accessor source="#Motion_54_LHand_transform_frame_array_id" count="16" stride="1">
            <param name="TIME" type="float" />
          </accessor>
        </technique_common>
      </source>
      <source id="Motion_54_LHand_transform_interp_id" name="Motion_54_LHand_transform_interp">
        <Name_array id="Motion_54_LHand_transform_interp_array_id" count="16">LINEAR LINEAR LINEAR LINEAR LINEAR LINEAR LINEAR LINEAR LINEAR LINEAR LINEAR LINEAR LINEAR LINEAR LINEAR LINEAR</Name_array>
        <technique_common>
          <accessor source="#Motion_54_LHand_transform_interp_array_id" count="16" stride="1">
            <param name="INTERPOLATION" type="Name" />
          </accessor>
        </technique_common>
      </source>
      <source id="Motion_54_LHand_transform_pose_id" name="Motion_54_LHand_transform_pose">
        <float_array id="Motion_54_LHand_transform_pose_array_id" count="256">0.7680736 0.42539632 -0.47864482 22.900002 -0.2648797 0.8915724 0.3673382 0 0.58301085 -0.15535948 0.7974721 0 0 0 0 1 0.77057695 0.4241897 -0.47568297 22.900002 -0.26373583 0.8916743 0.3679136 0 0.5802194 -0.15805112 0.7989777 0 0 0 0 1 0.77571326 0.42134652 -0.46982557 22.900002 -0.26104125 0.89202464 0.36898443 0 0.5745663 -0.16358224 0.80194414 0 0 0 0 1 0.7840835 0.41644466 -0.4602031 22.900002 -0.25669962 0.89268064 0.37044108 0 0.5650826 -0.17232275 0.8068373 0 0 0 0 1 0.79475874 0.40920582 -0.4482289 22.900002 -0.2500489 0.89369893 0.37252897 0 0.5530227 -0.1839915 0.8125965 0 0 0 0 1 0.8070376 0.39946708 -0.43487507 22.900002 -0.24098572 0.89513886 0.37503642 0 0.5390883 -0.1978698 0.8186766 0 0 0 0 1 0.82003003 0.38761857 -0.42107317 22.900002 -0.23007348 0.8969287 0.37760437 0 0.5240391 -0.21276915 0.82468927 0 0 0 0 1 0.8329174 0.37420788 -0.40769732 22.900002 -0.2177752 0.8989151 0.38016525 0 0.5087461 -0.22785988 0.8302152 0 0 0 0 1 0.8454285 0.35973778 -0.3947649 22.900002 -0.20476297 0.9009753 0.38251227 0 0.49327755 -0.24255358 0.8353712 0 0 0 0 1 0.8575463 0.34468448 -0.38184676 22.900002 -0.19181311 0.90303063 0.38437408 0 0.4773071 -0.25637537 0.8405056 0 0 0 0 1 0.8688852 0.32991117 -0.36904886 22.900002 -0.17965655 0.90486777 0.38592473 0 0.4612613 -0.26902226 0.8454969 0 0 0 0 1 0.8790993 0.31648433 -0.3564016 22.900002 -0.1690743 0.90617204 0.38764176 0 0.4456437 -0.28051725 0.85012454 0 0 0 0 1 0.88786095 0.3053282 -0.34420583 22.900002 -0.16073133 0.90678036 0.38976258 0 0.4311246 -0.2907303 0.8541707 0 0 0 0 1 0.89465654 0.29746822 -0.33332008 22.900002 -0.15517452 0.9065497 0.39254105 0 0.4189397 -0.29946667 0.85721016 0 0 0 0 1 0.8989755 0.29395694 -0.3247035 22.900002 -0.15292326 0.90533096 0.3962201 0 0.4104358 -0.30653745 0.8588232 0 0 0 0 1 0.8989755 0.29395694 -0.3247035 22.900002 -0.15292326 0.90533096 0.3962201 0 0.4104358 -0.30653745 0.8588232 0 0 0 0 1</float_array>
        <technique_common>
          <accessor source="#Motion_54_LHand_transform_pose_array_id" count="16" stride="16">
            <param name="TRANSFORM" type="float4x4" />
          </accessor>
        </technique_common>
      </source>
      <sampler id="Motion_54_LHand_transform_samp_id">
        <input semantic="INPUT" source="#Motion_54_LHand_transform_frame_id" />
        <input semantic="INTERPOLATION" source="#Motion_54_LHand_transform_interp_id" />
        <input semantic="OUTPUT" source="#Motion_54_LHand_transform_pose_id" />
      </sampler>
      <channel source="#Motion_54_LHand_transform_samp_id" target="LHand_bone_id/transform" />
    </animation>
    <animation id="Motion_54_Neck_transform_id" name="Motion_54_Neck_transform">
      <source id="Motion_54_Neck_transform_frame_id" name="Motion_54_Neck_transform_frame">
        <float_array id="Motion_54_Neck_transform_frame_array_id" count="16">0 0.033333335 0.06666667 0.1 0.13333334 0.16666667 0.2 0.23333333 0.26666668 0.3 0.33333334 0.36666667 0.4 0.43333334 0.46666667 0.5</float_array>
        <technique_common>
          <accessor source="#Motion_54_Neck_transform_frame_array_id" count="16" stride="1">
            <param name="TIME" type="float" />
          </accessor>
        </technique_common>
      </source>
      <source id="Motion_54_Neck_transform_interp_id" name="Motion_54_Neck_transform_interp">
        <Name_array id="Motion_54_Neck_transform_interp_array_id" count="16">LINEAR LINEAR LINEAR LINEAR LINEAR LINEAR LINEAR LINEAR LINEAR LINEAR LINEAR LINEAR LINEAR LINEAR LINEAR LINEAR</Name_array>
        <technique_common>
          <accessor source="#Motion_54_Neck_transform_interp_array_id" count="16" stride="1">
            <param name="INTERPOLATION" type="Name" />
          </accessor>
        </technique_common>
      </source>
      <source id="Motion_54_Neck_transform_pose_id" name="Motion_54_Neck_transform_pose">
        <float_array id="Motion_54_Neck_transform_pose_array_id" count="256">0.94845134 -0.053274956 -0.31241292 15.720233 0.04249804 0.9982463 -0.041208938 0 0.31406045 0.025807733 0.94905216 0 0 0 0 1 0.94833183 -0.055471983 -0.3123934 15.720233 0.044660944 0.99813306 -0.041662306 0 0.31412128 0.025557905 0.9490388 0 0 0 0 1 0.94804895 -0.059384316 -0.31253278 15.720233 0.04891672 0.9979513 -0.04123477 0 0.3143412 0.0238045 0.94901156 0 0 0 0 1 0.94749314 -0.06532871 -0.31303185 15.720233 0.055520013 0.9976497 -0.04015673 0 0.31491953 0.020668695 0.9488933 0 0 0 0 1 0.9466651 -0.07172284 -0.3141354 15.720233 0.06282958 0.99728686 -0.03835823 0 0.3160343 0.016575404 0.948603 0 0 0 0 1 0.94559276 -0.07719998 -0.31606084 15.720233 0.06926966 0.9969385 -0.036267523 0 0.3178931 0.012400881 0.9480455 0 0 0 0 1 0.94433457 -0.080371305 -0.3190183 15.720233 0.07329327 0.99672556 -0.034150917 0 0.32071847 0.008867997 0.94713306 0 0 0 0 1 0.9428855 -0.08061664 -0.32321486 15.720233 0.0743019 0.99672705 -0.031850636 0 0.3247247 0.0060160244 0.94578946 0 0 0 0 1 0.9411057 -0.07868734 -0.3288286 15.720233 0.07307011 0.99689263 -0.029426068 0 0.33012226 0.0036654994 0.94393104 0 0 0 0 1 0.93892246 -0.07516488 -0.3358197 15.720233 0.070207514 0.99716973 -0.026897538 0 0.33689097 0.001677636 0.94154215 0 0 0 0 1 0.9364707 -0.07063166 -0.34356046 15.720233 0.06633245 0.99750245 -0.024266044 0 0.34441638 -6.476976E-05 0.938817 0 0 0 0 1 0.9339353 -0.0656711 -0.35135767 15.720233 0.062060658 0.99783987 -0.021541024 0 0.35201332 -0.0016875658 0.93599343 0 0 0 0 1 0.9315325 -0.06091148 -0.3585206 15.720233 0.057958197 0.99813837 -0.018989544 0 0.35900983 -0.0030898312 0.9333286 0 0 0 0 1 0.92950886 -0.05699327 -0.36436936 15.720233 0.05457387 0.998366 -0.01694227 0 0.36473957 -0.0041370564 0.93110037 0 0 0 0 1 0.92812955 -0.054548226 -0.3682391 15.720233 0.052523248 0.998499 -0.015527867 0 0.36853337 -0.0049292413 0.92960143 0 0 0 0 1 0.92812955 -0.054548226 -0.3682391 15.720233 0.052523248 0.998499 -0.015527867 0 0.36853337 -0.0049292413 0.92960143 0 0 0 0 1</float_array>
        <technique_common>
          <accessor source="#Motion_54_Neck_transform_pose_array_id" count="16" stride="16">
            <param name="TRANSFORM" type="float4x4" />
          </accessor>
        </technique_common>
      </source>
      <sampler id="Motion_54_Neck_transform_samp_id">
        <input semantic="INPUT" source="#Motion_54_Neck_transform_frame_id" />
        <input semantic="INTERPOLATION" source="#Motion_54_Neck_transform_interp_id" />
        <input semantic="OUTPUT" source="#Motion_54_Neck_transform_pose_id" />
      </sampler>
      <channel source="#Motion_54_Neck_transform_samp_id" target="Neck_bone_id/transform" />
    </animation>
    <animation id="Motion_54_Hair_transform_id" name="Motion_54_Hair_transform">
      <source id="Motion_54_Hair_transform_frame_id" name="Motion_54_Hair_transform_frame">
        <float_array id="Motion_54_Hair_transform_frame_array_id" count="16">0 0.033333335 0.06666667 0.1 0.13333334 0.16666667 0.2 0.23333333 0.26666668 0.3 0.33333334 0.36666667 0.4 0.43333334 0.46666667 0.5</float_array>
        <technique_common>
          <accessor source="#Motion_54_Hair_transform_frame_array_id" count="16" stride="1">
            <param name="TIME" type="float" />
          </accessor>
        </technique_common>
      </source>
      <source id="Motion_54_Hair_transform_interp_id" name="Motion_54_Hair_transform_interp">
        <Name_array id="Motion_54_Hair_transform_interp_array_id" count="16">LINEAR LINEAR LINEAR LINEAR LINEAR LINEAR LINEAR LINEAR LINEAR LINEAR LINEAR LINEAR LINEAR LINEAR LINEAR LINEAR</Name_array>
        <technique_common>
          <accessor source="#Motion_54_Hair_transform_interp_array_id" count="16" stride="1">
            <param name="INTERPOLATION" type="Name" />
          </accessor>
        </technique_common>
      </source>
      <source id="Motion_54_Hair_transform_pose_id" name="Motion_54_Hair_transform_pose">
        <float_array id="Motion_54_Hair_transform_pose_array_id" count="256">-0.99337614 0.020614956 0.11304488 16.11567 0.023774471 0.99936146 0.026672572 0 -0.112422846 0.029183473 -0.9932319 -19.957026 0 0 0 1 -0.9932637 0.024884613 0.113172024 16.11567 0.02802298 0.9992632 0.02622497 0 -0.11243604 0.029219732 -0.99322927 -19.957026 0 0 0 1 -0.9931208 0.029677326 0.113271885 16.11567 0.03279385 0.99913037 0.025749838 0 -0.1124092 0.029287318 -0.99323034 -19.957026 0 0 0 1 -0.99297845 0.034405794 0.11318205 16.11567 0.037490126 0.9989783 0.025235806 0 -0.11219816 0.029301818 -0.9932538 -19.957026 0 0 0 1 -0.9928781 0.03848214 0.11274976 16.11567 0.041514765 0.9988332 0.024672836 0 -0.11166874 0.029177893 -0.99331725 -19.957026 0 0 0 1 -0.9928782 0.04106091 0.11183296 16.11567 0.044013985 0.99874103 0.024065476 0 -0.11070402 0.028816305 -0.9934355 -19.957026 0 0 0 1 -0.9930402 0.041307442 0.11029409 16.11567 0.044145644 0.9987507 0.023415241 0 -0.10918906 0.028121281 -0.99362314 -19.957026 0 0 0 1 -0.99347436 0.038697734 0.10729264 16.11567 0.041271858 0.99890846 0.021875035 0 -0.10632901 0.026160445 -0.9939871 -19.957026 0 0 0 1 -0.99427116 0.033072177 0.1016453 16.11567 0.034990933 0.99924046 0.017151846 0 -0.10100084 0.020610241 -0.99467313 -19.957026 0 0 0 1 -0.995379 0.025208592 0.09265657 16.11567 0.026096001 0.9996243 0.00837814 0 -0.092410564 0.0107573895 -0.9956628 -19.957026 0 0 0 1 -0.99664724 0.015957488 0.08024953 16.11567 0.0157952 0.99987173 -0.0026567264 0 -0.08028163 -0.0013802613 -0.99677145 -19.957026 0 0 0 1 -0.99759185 0.00622793 0.06907673 16.11567 0.0052573644 0.999885 -0.014223456 0 -0.06915738 -0.013826044 -0.99750984 -19.957026 0 0 0 1 -0.9979862 -0.0029894598 0.06336345 16.11567 -0.004553811 0.999688 -0.024558527 0 -0.063270256 -0.024797613 -0.99768853 -19.957026 0 0 0 1 -0.99808264 -0.010739986 0.06095706 16.11567 -0.012699461 0.999412 -0.031849287 0 -0.06057916 -0.032562345 -0.99763215 -19.957026 0 0 0 1 -0.9980886 -0.015628442 0.059792187 16.11567 -0.017702315 0.99925435 -0.03431363 0 -0.059211332 -0.035306502 -0.99762094 -19.957026 0 0 0 1 -0.9980886 -0.015628442 0.059792187 16.11567 -0.017702315 0.99925435 -0.03431363 0 -0.059211332 -0.035306502 -0.99762094 -19.957026 0 0 0 1</float_array>
        <technique_common>
          <accessor source="#Motion_54_Hair_transform_pose_array_id" count="16" stride="16">
            <param name="TRANSFORM" type="float4x4" />
          </accessor>
        </technique_common>
      </source>
      <sampler id="Motion_54_Hair_transform_samp_id">
        <input semantic="INPUT" source="#Motion_54_Hair_transform_frame_id" />
        <input semantic="INTERPOLATION" source="#Motion_54_Hair_transform_interp_id" />
        <input semantic="OUTPUT" source="#Motion_54_Hair_transform_pose_id" />
      </sampler>
      <channel source="#Motion_54_Hair_transform_samp_id" target="Hair_bone_id/transform" />
    </animation>
  </library_animations>
  <library_visual_scenes>
    <visual_scene id="tr0076_00_fi_00_clip_id" name="tr0076_00_fi_00_clip">
      <node id="tr0076_00_fi_bone_id" name="tr0076_00_fi" sid="tr0076_00_fi" type="JOINT">
        <matrix sid="transform">1 0 0 0 0 1 0 0 0 0 1 0 0 0 0 1</matrix>
        <node id="Origin_bone_id" name="Origin" sid="Origin" type="JOINT">
          <matrix sid="transform">1 0 0 0 0 1 0 0 0 0 1 0 0 0 0 1</matrix>
          <node id="Waist_bone_id" name="Waist" sid="Waist" type="JOINT">
            <matrix sid="transform">3.1391647E-07 -1 0 0 1 3.1391647E-07 0 88.8 0 0 1 0 0 0 0 1</matrix>
            <node id="Spine2_bone_id" name="Spine2" sid="Spine2" type="JOINT">
              <matrix sid="transform">1 0 0 12.099998 0 1 0 0 0 0 1 0 0 0 0 1</matrix>
              <node id="Spine3_bone_id" name="Spine3" sid="Spine3" type="JOINT">
                <matrix sid="transform">0.9919065 0 0.12697035 12.099991 0 1 0 0 -0.12697035 0 0.9919065 0 0 0 0 1</matrix>
                <node id="Neck_bone_id" name="Neck" sid="Neck" type="JOINT">
                  <matrix sid="transform">0.9441987 0 -0.32937634 15.720233 0 1 0 0 0.32937634 0 0.9441987 0 0 0 0 1</matrix>
                  <node id="Head_bone_id" name="Head" sid="Head" type="JOINT">
                    <matrix sid="transform">0.9783777 0 0.2068263 5.129917 0 1 0 0 -0.2068263 0 0.9783777 0 0 0 0 1</matrix>
                    <node id="Hair_bone_id" name="Hair" sid="Hair" type="JOINT">
                      <matrix sid="transform">-0.988831 0 0.14904137 16.11567 0 1 0 0 -0.14904137 0 -0.988831 -19.957026 0 0 0 1</matrix>
                    </node>
                    <node id="Loc_Head_bone_id" name="Loc_Head" sid="Loc_Head" type="JOINT">
                      <matrix sid="transform">3.1391647E-07 1 0 32.585342 -1 3.1391647E-07 0 0 0 0 1 0.935 0 0 0 1</matrix>
                    </node>
                    <node id="Loc_Eye_bone_id" name="Loc_Eye" sid="Loc_Eye" type="JOINT">
                      <matrix sid="transform">3.1391647E-07 1 0 10.358527 -1 3.1391647E-07 0 0 0 0 1 12.874489 0 0 0 1</matrix>
                    </node>
                    <node id="Loc_Mouth_bone_id" name="Loc_Mouth" sid="Loc_Mouth" type="JOINT">
                      <matrix sid="transform">3.1391647E-07 1 0 1.209505 -1 3.1391647E-07 0 0 0 0 1 13.033401 0 0 0 1</matrix>
                    </node>
                  </node>
                </node>
                <node id="LShoulder_bone_id" name="LShoulder" sid="LShoulder" type="JOINT">
                  <matrix sid="transform">-0.5887142 0.798307 -0.12697051 14.14009 -0.80482084 -0.59351784 -2.6574628E-07 -3.930001 -0.075359486 0.10218836 0.99190646 -0.201936 0 0 0 1</matrix>
                  <node id="LArm_bone_id" name="LArm" sid="LArm" type="JOINT">
                    <matrix sid="transform">0.8048207 -0.593518 0 8.161509 0.593518 0.8048207 0 0 0 0 1 0 0 0 0 1</matrix>
                    <node id="LForeArm_bone_id" name="LForeArm" sid="LForeArm" type="JOINT">
                      <matrix sid="transform">1 0 0 22.9 0 1 0 0 0 0 1 0 0 0 0 1</matrix>
                      <node id="LHand_bone_id" name="LHand" sid="LHand" type="JOINT">
                        <matrix sid="transform">1 0 0 22.900002 0 1 0 0 0 0 1 0 0 0 0 1</matrix>
                      </node>
                    </node>
                  </node>
                </node>
                <node id="RShoulder_bone_id" name="RShoulder" sid="RShoulder" type="JOINT">
                  <matrix sid="transform">-0.58871174 -0.79830885 -0.12696993 14.14009 0.8048227 -0.5935153 -1.4453335E-07 3.93 -0.07535849 -0.10218837 0.9919065 -0.201935 0 0 0 1</matrix>
                  <node id="RArm_bone_id" name="RArm" sid="RArm" type="JOINT">
                    <matrix sid="transform">0.8048231 0.5935148 0 8.161548 -0.5935148 0.8048231 0 0 0 0 1 0 0 0 0 1</matrix>
                    <node id="RForeArm_bone_id" name="RForeArm" sid="RForeArm" type="JOINT">
                      <matrix sid="transform">1 0 0 22.9 0 1 0 0 0 0 1 0 0 0 0 1</matrix>
                      <node id="RHand_bone_id" name="RHand" sid="RHand" type="JOINT">
                        <matrix sid="transform">1 0 0 22.900002 0 1 0 0 0 0 1 0 0 0 0 1</matrix>
                      </node>
                    </node>
                  </node>
                </node>
              </node>
            </node>
            <node id="Hips_bone_id" name="Hips" sid="Hips" type="JOINT">
              <matrix sid="transform">-1 -3.2584137E-07 0 -0.010002 3.2584137E-07 -1 0 0 0 0 1 0 0 0 0 1</matrix>
              <node id="LThigh_bone_id" name="LThigh" sid="LThigh" type="JOINT">
                <matrix sid="transform">1 0 0 10.510002 0 1 0 7.199996 0 0 1 0 0 0 0 1</matrix>
                <node id="LLeg_bone_id" name="LLeg" sid="LLeg" type="JOINT">
                  <matrix sid="transform">1 0 0 33.899998 0 1 0 0 0 0 1 0 0 0 0 1</matrix>
                  <node id="LFoot_bone_id" name="LFoot" sid="LFoot" type="JOINT">
                    <matrix sid="transform">3.1391647E-07 0 -1 33.9 0 1 0 4E-06 1 0 3.1391647E-07 0 0 0 0 1</matrix>
                  </node>
                </node>
              </node>
              <node id="RThigh_bone_id" name="RThigh" sid="RThigh" type="JOINT">
                <matrix sid="transform">1 0 0 10.510002 0 1 0 -7.2 0 0 1 0 0 0 0 1</matrix>
                <node id="RLeg_bone_id" name="RLeg" sid="RLeg" type="JOINT">
                  <matrix sid="transform">1 0 0 33.899998 0 1 0 0 0 0 1 0 0 0 0 1</matrix>
                  <node id="RFoot_bone_id" name="RFoot" sid="RFoot" type="JOINT">
                    <matrix sid="transform">3.1391647E-07 0 -1 33.9 0 1 0 0 1 0 3.1391647E-07 0 0 0 0 1</matrix>
                  </node>
                </node>
              </node>
            </node>
          </node>
          <node id="CamTgtHead_bone_id" name="CamTgtHead" sid="CamTgtHead" type="JOINT">
            <matrix sid="transform">1 0 0 0 0 1 0 143.97052 0 0 1 0 0 0 0 1</matrix>
          </node>
          <node id="CamTgtBust_bone_id" name="CamTgtBust" sid="CamTgtBust" type="JOINT">
            <matrix sid="transform">1 0 0 0 0 1 0 112.99999 0 0 1 0 0 0 0 1</matrix>
          </node>
          <node id="CamTgtBody_bone_id" name="CamTgtBody" sid="CamTgtBody" type="JOINT">
            <matrix sid="transform">1 0 0 0 0 1 0 88.8 0 0 1 0 0 0 0 1</matrix>
          </node>
          <node id="CamTgtFoot_bone_id" name="CamTgtFoot" sid="CamTgtFoot" type="JOINT">
            <matrix sid="transform">1 0 0 0 0 1 0 0 0 0 1 0 0 0 0 1</matrix>
          </node>
        </node>
        <node id="tr0076_00_fi_FaceSkin_bone_id" name="tr0076_00_fi_FaceSkin" sid="tr0076_00_fi_FaceSkin" type="JOINT">
          <matrix sid="transform">1 0 0 0 0 1 0 0 0 0 1 0 0 0 0 1</matrix>
        </node>
        <node id="tr0076_00_fi_HeadSkin_bone_id" name="tr0076_00_fi_HeadSkin" sid="tr0076_00_fi_HeadSkin" type="JOINT">
          <matrix sid="transform">1 0 0 0 0 1 0 0 0 0 1 0 0 0 0 1</matrix>
        </node>
        <node id="tr0076_00_fi_BodySkin_bone_id" name="tr0076_00_fi_BodySkin" sid="tr0076_00_fi_BodySkin" type="JOINT">
          <matrix sid="transform">1 0 0 0 0 1 0 0 0 0 1 0 0 0 0 1</matrix>
        </node>
        <node id="tr0076_00_fi_BottomSkin_bone_id" name="tr0076_00_fi_BottomSkin" sid="tr0076_00_fi_BottomSkin" type="JOINT">
          <matrix sid="transform">1 0 0 0 0 1 0 0 0 0 1 0 0 0 0 1</matrix>
        </node>
      </node>
    </visual_scene>
  </library_visual_scenes>
  <scene>
    <instance_visual_scene url="#tr0076_00_fi_00_clip_id" />
  </scene>
</COLLADA>