<?xml version="1.0" encoding="utf-8"?>
<COLLADA xmlns:xsi="http://www.w3.org/2001/XMLSchema-instance" xmlns:xsd="http://www.w3.org/2001/XMLSchema" version="1.4.1" xmlns="http://www.collada.org/2005/11/COLLADASchema">
  <asset>
    <created>2026-02-17T05:46:52.7807692-05:00</created>
    <modified>2026-02-17T05:46:52.7807693-05:00</modified>
    <up_axis>Y_UP</up_axis>
  </asset>
  <library_animations>
    <animation id="Motion_30_Waist_transform_id" name="Motion_30_Waist_transform">
      <source id="Motion_30_Waist_transform_frame_id" name="Motion_30_Waist_transform_frame">
        <float_array id="Motion_30_Waist_transform_frame_array_id" count="17">0 0.033333335 0.06666667 0.1 0.13333334 0.16666667 0.2 0.23333333 0.26666668 0.3 0.33333334 0.36666667 0.4 0.43333334 0.46666667 0.5 0.53333336</float_array>
        <technique_common>
          <accessor source="#Motion_30_Waist_transform_frame_array_id" count="17" stride="1">
            <param name="TIME" type="float" />
          </accessor>
        </technique_common>
      </source>
      <source id="Motion_30_Waist_transform_interp_id" name="Motion_30_Waist_transform_interp">
        <Name_array id="Motion_30_Waist_transform_interp_array_id" count="17">LINEAR LINEAR LINEAR LINEAR LINEAR LINEAR LINEAR LINEAR LINEAR LINEAR LINEAR LINEAR LINEAR LINEAR LINEAR LINEAR LINEAR</Name_array>
        <technique_common>
          <accessor source="#Motion_30_Waist_transform_interp_array_id" count="17" stride="1">
            <param name="INTERPOLATION" type="Name" />
          </accessor>
        </technique_common>
      </source>
      <source id="Motion_30_Waist_transform_pose_id" name="Motion_30_Waist_transform_pose">
        <float_array id="Motion_30_Waist_transform_pose_array_id" count="272">0.0021596716 -0.9599483 0.009725572 -4.041195E-05 0.9599891 0.0022004128 0.0040113134 84.45958 -0.0040333895 0.009716437 0.95994234 -5.722046E-06 0 0 0 1 0.0016888046 -0.9596209 0.026923396 0.44600755 0.9598734 0.0021226502 0.015446609 84.28232 -0.015500039 0.026892671 0.95949805 0.4041462 0 0 0 1 0.0010263062 -0.95927346 0.03732753 0.8747878 0.9594563 0.0022803496 0.032222632 83.892296 -0.032286912 0.037271943 0.95873266 0.8495614 0 0 0 1 0.00070261 -0.9590889 0.041808512 1.2422311 0.9591524 0.002457447 0.04025516 83.50225 -0.04032398 0.041742142 0.958244 1.2771477 0 0 0 1 0.0013458824 -0.9591102 0.041302446 1.5079598 0.959669 0.0024271202 0.025089502 83.32499 -0.025170667 0.04125303 0.95878285 1.5999811 0 0 0 1 0.0022571755 -0.95929176 0.03679982 1.5926747 0.9599973 0.0022580337 -2.1041034E-05 83.53211 -6.553173E-05 0.036799762 0.9592944 1.7311375 0 0 0 1 0.0028785323 -0.95954865 0.029292122 1.4226497 0.9597439 0.002205677 -0.022061456 84.02883 0.021983786 0.02935046 0.9592993 1.6105675 0 0 0 1 0.0030096243 -0.9597907 0.01981508 1.0419314 0.95901495 0.0021106338 -0.043427356 84.71098 0.043374322 0.019930897 0.9588125 1.2806472 0 0 0 1 0.0026532554 -0.95995 0.009435106 0.51426834 0.95853275 0.0021282576 -0.05301489 85.47605 0.05299121 0.009567209 0.9584886 0.80809134 0 0 0 1 0.0022636412 -0.95999694 -0.00089962716 -0.06396483 0.9588515 0.0023048972 -0.04688932 86.17996 0.046891324 -0.0007879847 0.9588537 0.25961494 0 0 0 1 0.002050495 -0.9599431 -0.010260164 -0.56962264 0.9595128 0.00237545 -0.0304907 86.67864 0.030514276 -0.010189828 0.9594608 -0.30787355 0 0 0 1 0.002023201 -0.9598441 -0.017179169 -0.9186925 0.9599303 0.0022265052 -0.011349599 86.87535 0.0113876 -0.017154003 0.95977914 -0.8159595 0 0 0 1 0.0021513747 -0.959754 -0.021626031 -1.0623503 0.9599876 0.00205204 0.004429745 86.624084 -0.0043823826 -0.021635678 0.9597461 -1.1656686 0 0 0 1 0.0022849273 -0.9597414 -0.022160904 -0.95870495 0.95993364 0.0020290946 0.011100343 86.034515 -0.011050511 -0.022185795 0.95967996 -1.2930794 0 0 0 1 0.0023017502 -0.95983285 -0.017770367 -0.69873977 0.9599483 0.0021217347 0.0097368425 85.300354 -0.009695869 -0.017792756 0.9597861 -1.0477179 0 0 0 1 0.0022672461 -0.9599683 -0.007449937 -0.36724186 0.95997953 0.0022218705 0.0058506243 84.710785 -0.00583319 -0.0074635954 0.95995325 -0.5202162 0 0 0 1 0.0022672461 -0.9599683 -0.007449937 -0.36724186 0.95997953 0.0022218705 0.0058506243 84.710785 -0.00583319 -0.0074635954 0.95995325 -0.5202162 0 0 0 1</float_array>
        <technique_common>
          <accessor source="#Motion_30_Waist_transform_pose_array_id" count="17" stride="16">
            <param name="TRANSFORM" type="float4x4" />
          </accessor>
        </technique_common>
      </source>
      <sampler id="Motion_30_Waist_transform_samp_id">
        <input semantic="INPUT" source="#Motion_30_Waist_transform_frame_id" />
        <input semantic="INTERPOLATION" source="#Motion_30_Waist_transform_interp_id" />
        <input semantic="OUTPUT" source="#Motion_30_Waist_transform_pose_id" />
      </sampler>
      <channel source="#Motion_30_Waist_transform_samp_id" target="Waist_bone_id/transform" />
    </animation>
    <animation id="Motion_30_Foot_transform_id" name="Motion_30_Foot_transform">
      <source id="Motion_30_Foot_transform_frame_id" name="Motion_30_Foot_transform_frame">
        <float_array id="Motion_30_Foot_transform_frame_array_id" count="17">0 0.033333335 0.06666667 0.1 0.13333334 0.16666667 0.2 0.23333333 0.26666668 0.3 0.33333334 0.36666667 0.4 0.43333334 0.46666667 0.5 0.53333336</float_array>
        <technique_common>
          <accessor source="#Motion_30_Foot_transform_frame_array_id" count="17" stride="1">
            <param name="TIME" type="float" />
          </accessor>
        </technique_common>
      </source>
      <source id="Motion_30_Foot_transform_interp_id" name="Motion_30_Foot_transform_interp">
        <Name_array id="Motion_30_Foot_transform_interp_array_id" count="17">LINEAR LINEAR LINEAR LINEAR LINEAR LINEAR LINEAR LINEAR LINEAR LINEAR LINEAR LINEAR LINEAR LINEAR LINEAR LINEAR LINEAR</Name_array>
        <technique_common>
          <accessor source="#Motion_30_Foot_transform_interp_array_id" count="17" stride="1">
            <param name="INTERPOLATION" type="Name" />
          </accessor>
        </technique_common>
      </source>
      <source id="Motion_30_Foot_transform_pose_id" name="Motion_30_Foot_transform_pose">
        <float_array id="Motion_30_Foot_transform_pose_array_id" count="272">1 0 0 10.979129 0 -1 -6.2783295E-07 0 0 6.2783295E-07 -1 -65.7 0 0 0 1 1 0 0 10.979129 0 -1 1.725356E-05 0 0 -1.725356E-05 -1 -65.7 0 0 0 1 1 0 0 10.979129 0 -1 9.3547504E-05 0 0 -9.3547504E-05 -1 -65.7 0 0 0 1 1 0 0 10.979129 0 -1 0.0003088395 0 0 -0.0003088395 -1 -65.7 0 0 0 1 1 0 0 10.979129 0 -0.99999976 0.0007434765 0 0 -0.0007434765 -0.99999976 -65.7 0 0 0 1 1 0 0 10.979129 0 -0.99999905 0.0014513409 0 0 -0.0014513409 -0.99999905 -65.7 0 0 0 1 1 0 0 10.979129 0 -0.99995875 0.009075604 0 0 -0.009075604 -0.99995875 -65.7 0 0 0 1 1 0 0 10.979129 0 -0.99916446 0.040871285 0 0 -0.040871285 -0.99916446 -65.7 0 0 0 1 1 0 0 10.979129 0 -0.998585 0.05317762 0 0 -0.05317762 -0.998585 -65.7 0 0 0 1 1 0 0 10.979129 0 -0.99896204 0.045548733 0 0 -0.045548733 -0.99896204 -65.7 0 0 0 1 1 0 0 10.979129 0 -0.99999285 0.0037945102 0 0 -0.0037945102 -0.99999285 -65.7 0 0 0 1 1 0 0 10.979129 0 -0.9997301 -0.02323076 0 0 0.02323076 -0.9997301 -65.7 0 0 0 1 1 0 0 10.979129 0 -0.99982643 -0.018631723 0 0 0.018631723 -0.99982643 -65.7 0 0 0 1 1 0 0 10.979129 0 -0.9999504 -0.0099470485 0 0 0.0099470485 -0.9999504 -65.7 0 0 0 1 1 0 0 10.979129 0 -0.99999714 -0.002402216 0 0 0.002402216 -0.99999714 -65.7 0 0 0 1 1 0 0 10.979129 0 -1 -7.7637036E-05 0 0 7.7637036E-05 -1 -65.7 0 0 0 1 1 0 0 10.979129 0 -1 -7.7637036E-05 0 0 7.7637036E-05 -1 -65.7 0 0 0 1</float_array>
        <technique_common>
          <accessor source="#Motion_30_Foot_transform_pose_array_id" count="17" stride="16">
            <param name="TRANSFORM" type="float4x4" />
          </accessor>
        </technique_common>
      </source>
      <sampler id="Motion_30_Foot_transform_samp_id">
        <input semantic="INPUT" source="#Motion_30_Foot_transform_frame_id" />
        <input semantic="INTERPOLATION" source="#Motion_30_Foot_transform_interp_id" />
        <input semantic="OUTPUT" source="#Motion_30_Foot_transform_pose_id" />
      </sampler>
      <channel source="#Motion_30_Foot_transform_samp_id" target="Foot_bone_id/transform" />
    </animation>
    <animation id="Motion_30_RHand_transform_id" name="Motion_30_RHand_transform">
      <source id="Motion_30_RHand_transform_frame_id" name="Motion_30_RHand_transform_frame">
        <float_array id="Motion_30_RHand_transform_frame_array_id" count="17">0 0.033333335 0.06666667 0.1 0.13333334 0.16666667 0.2 0.23333333 0.26666668 0.3 0.33333334 0.36666667 0.4 0.43333334 0.46666667 0.5 0.53333336</float_array>
        <technique_common>
          <accessor source="#Motion_30_RHand_transform_frame_array_id" count="17" stride="1">
            <param name="TIME" type="float" />
          </accessor>
        </technique_common>
      </source>
      <source id="Motion_30_RHand_transform_interp_id" name="Motion_30_RHand_transform_interp">
        <Name_array id="Motion_30_RHand_transform_interp_array_id" count="17">LINEAR LINEAR LINEAR LINEAR LINEAR LINEAR LINEAR LINEAR LINEAR LINEAR LINEAR LINEAR LINEAR LINEAR LINEAR LINEAR LINEAR</Name_array>
        <technique_common>
          <accessor source="#Motion_30_RHand_transform_interp_array_id" count="17" stride="1">
            <param name="INTERPOLATION" type="Name" />
          </accessor>
        </technique_common>
      </source>
      <source id="Motion_30_RHand_transform_pose_id" name="Motion_30_RHand_transform_pose">
        <float_array id="Motion_30_RHand_transform_pose_array_id" count="272">1 0 0 10.979113 0 -4.7683716E-07 1 62.6 0 -1 -4.7683716E-07 -6.4466E-07 0 0 0 1 1 0 0 10.979113 0 1.5377998E-05 0.99999994 62.6 0 -0.99999994 1.5377998E-05 -6.4466E-07 0 0 0 1 1 0 0 10.979113 0 7.57575E-05 0.99999994 62.6 0 -0.99999994 7.57575E-05 -6.4466E-07 0 0 0 1 1 0 0 10.979113 0 0.00023972988 1 62.6 0 -1 0.00023972988 -6.4466E-07 0 0 0 1 1 0 0 10.979113 0 0.00056761503 0.9999999 62.6 0 -0.9999999 0.00056761503 -6.4466E-07 0 0 0 1 1 0 0 10.979113 0 0.0011183023 0.9999994 62.6 0 -0.9999994 0.0011183023 -6.4466E-07 0 0 0 1 1 0 0 10.979113 0 0.0019324422 0.9999981 62.6 0 -0.9999981 0.0019324422 -6.4466E-07 0 0 0 1 1 0 0 10.979113 0 0.015532374 0.99987936 62.6 0 -0.99987936 0.015532374 -6.4466E-07 0 0 0 1 1 0 0 10.979113 0 0.03197819 0.99948853 62.6 0 -0.99948853 0.03197819 -6.4466E-07 0 0 0 1 1 0 0 10.979113 0 0.034199715 0.999415 62.6 0 -0.999415 0.034199715 -6.4466E-07 0 0 0 1 1 0 0 10.979113 0 0.017622888 0.9998447 62.6 0 -0.9998447 0.017622888 -6.4466E-07 0 0 0 1 1 0 0 10.979113 0 -0.008003712 0.99996793 62.6 0 -0.99996793 -0.008003712 -6.4466E-07 0 0 0 1 1 0 0 10.979113 0 -0.01183188 0.99992996 62.6 0 -0.99992996 -0.01183188 -6.4466E-07 0 0 0 1 1 0 0 10.979113 0 -0.0055607557 0.99998456 62.6 0 -0.99998456 -0.0055607557 -6.4466E-07 0 0 0 1 1 0 0 10.979113 0 -0.0015712976 0.99999875 62.6 0 -0.99999875 -0.0015712976 -6.4466E-07 0 0 0 1 1 0 0 10.979113 0 -0.00010740757 1 62.6 0 -1 -0.00010740757 -6.4466E-07 0 0 0 1 1 0 0 10.979113 0 -0.00010740757 1 62.6 0 -1 -0.00010740757 -6.4466E-07 0 0 0 1</float_array>
        <technique_common>
          <accessor source="#Motion_30_RHand_transform_pose_array_id" count="17" stride="16">
            <param name="TRANSFORM" type="float4x4" />
          </accessor>
        </technique_common>
      </source>
      <sampler id="Motion_30_RHand_transform_samp_id">
        <input semantic="INPUT" source="#Motion_30_RHand_transform_frame_id" />
        <input semantic="INTERPOLATION" source="#Motion_30_RHand_transform_interp_id" />
        <input semantic="OUTPUT" source="#Motion_30_RHand_transform_pose_id" />
      </sampler>
      <channel source="#Motion_30_RHand_transform_samp_id" target="RHand_bone_id/transform" />
    </animation>
    <animation id="Motion_30_LHand_transform_id" name="Motion_30_LHand_transform">
      <source id="Motion_30_LHand_transform_frame_id" name="Motion_30_LHand_transform_frame">
        <float_array id="Motion_30_LHand_transform_frame_array_id" count="17">0 0.033333335 0.06666667 0.1 0.13333334 0.16666667 0.2 0.23333333 0.26666668 0.3 0.33333334 0.36666667 0.4 0.43333334 0.46666667 0.5 0.53333336</float_array>
        <technique_common>
          <accessor source="#Motion_30_LHand_transform_frame_array_id" count="17" stride="1">
            <param name="TIME" type="float" />
          </accessor>
        </technique_common>
      </source>
      <source id="Motion_30_LHand_transform_interp_id" name="Motion_30_LHand_transform_interp">
        <Name_array id="Motion_30_LHand_transform_interp_array_id" count="17">LINEAR LINEAR LINEAR LINEAR LINEAR LINEAR LINEAR LINEAR LINEAR LINEAR LINEAR LINEAR LINEAR LINEAR LINEAR LINEAR LINEAR</Name_array>
        <technique_common>
          <accessor source="#Motion_30_LHand_transform_interp_array_id" count="17" stride="1">
            <param name="INTERPOLATION" type="Name" />
          </accessor>
        </technique_common>
      </source>
      <source id="Motion_30_LHand_transform_pose_id" name="Motion_30_LHand_transform_pose">
        <float_array id="Motion_30_LHand_transform_pose_array_id" count="272">1 0 0 10.979129 0 3.5762787E-07 -0.99999994 -62.6 0 0.99999994 3.5762787E-07 -6.4466E-07 0 0 0 1 1 0 0 10.979129 0 -0.0016276836 -0.9999986 -62.6 0 0.9999986 -0.0016276836 -6.4466E-07 0 0 0 1 1 0 0 10.979129 0 -0.004371643 -0.99999046 -62.6 0 0.99999046 -0.004371643 -6.4466E-07 0 0 0 1 1 0 0 10.979129 0 -0.007981896 -0.9999682 -62.6 0 0.9999682 -0.007981896 -6.4466E-07 0 0 0 1 1 0 0 10.979129 0 -0.012208223 -0.99992543 -62.6 0 0.99992543 -0.012208223 -6.4466E-07 0 0 0 1 1 0 0 10.979129 0 -0.016801119 -0.99985886 -62.6 0 0.99985886 -0.016801119 -6.4466E-07 0 0 0 1 1 0 0 10.979129 0 -0.021339417 -0.9997723 -62.6 0 0.9997723 -0.021339417 -6.4466E-07 0 0 0 1 1 0 0 10.979129 0 -0.025192618 -0.99968255 -62.6 0 0.99968255 -0.025192618 -6.4466E-07 0 0 0 1 1 0 0 10.979129 0 -0.027796507 -0.9996136 -62.6 0 0.9996136 -0.027796507 -6.4466E-07 0 0 0 1 1 0 0 10.979129 0 -0.028783798 -0.9995856 -62.6 0 0.9995856 -0.028783798 -6.4466E-07 0 0 0 1 1 0 0 10.979129 0 -0.0179739 -0.99983853 -62.6 0 0.99983853 -0.0179739 -6.4466E-07 0 0 0 1 1 0 0 10.979129 0 0.0021060705 -0.99999785 -62.6 0 0.99999785 0.0021060705 -6.4466E-07 0 0 0 1 1 0 0 10.979129 0 0.012918174 -0.9999165 -62.6 0 0.9999165 0.012918174 -6.4466E-07 0 0 0 1 1 0 0 10.979129 0 0.010899663 -0.9999406 -62.6 0 0.9999406 0.010899663 -6.4466E-07 0 0 0 1 1 0 0 10.979129 0 0.0064594746 -0.9999791 -62.6 0 0.9999791 0.0064594746 -6.4466E-07 0 0 0 1 1 0 0 10.979129 0 0.0020190477 -0.9999979 -62.6 0 0.9999979 0.0020190477 -6.4466E-07 0 0 0 1 1 0 0 10.979129 0 0.0020190477 -0.9999979 -62.6 0 0.9999979 0.0020190477 -6.4466E-07 0 0 0 1</float_array>
        <technique_common>
          <accessor source="#Motion_30_LHand_transform_pose_array_id" count="17" stride="16">
            <param name="TRANSFORM" type="float4x4" />
          </accessor>
        </technique_common>
      </source>
      <sampler id="Motion_30_LHand_transform_samp_id">
        <input semantic="INPUT" source="#Motion_30_LHand_transform_frame_id" />
        <input semantic="INTERPOLATION" source="#Motion_30_LHand_transform_interp_id" />
        <input semantic="OUTPUT" source="#Motion_30_LHand_transform_pose_id" />
      </sampler>
      <channel source="#Motion_30_LHand_transform_samp_id" target="LHand_bone_id/transform" />
    </animation>
    <animation id="Motion_30_Feeler1_transform_id" name="Motion_30_Feeler1_transform">
      <source id="Motion_30_Feeler1_transform_frame_id" name="Motion_30_Feeler1_transform_frame">
        <float_array id="Motion_30_Feeler1_transform_frame_array_id" count="17">0 0.033333335 0.06666667 0.1 0.13333334 0.16666667 0.2 0.23333333 0.26666668 0.3 0.33333334 0.36666667 0.4 0.43333334 0.46666667 0.5 0.53333336</float_array>
        <technique_common>
          <accessor source="#Motion_30_Feeler1_transform_frame_array_id" count="17" stride="1">
            <param name="TIME" type="float" />
          </accessor>
        </technique_common>
      </source>
      <source id="Motion_30_Feeler1_transform_interp_id" name="Motion_30_Feeler1_transform_interp">
        <Name_array id="Motion_30_Feeler1_transform_interp_array_id" count="17">LINEAR LINEAR LINEAR LINEAR LINEAR LINEAR LINEAR LINEAR LINEAR LINEAR LINEAR LINEAR LINEAR LINEAR LINEAR LINEAR LINEAR</Name_array>
        <technique_common>
          <accessor source="#Motion_30_Feeler1_transform_interp_array_id" count="17" stride="1">
            <param name="INTERPOLATION" type="Name" />
          </accessor>
        </technique_common>
      </source>
      <source id="Motion_30_Feeler1_transform_pose_id" name="Motion_30_Feeler1_transform_pose">
        <float_array id="Motion_30_Feeler1_transform_pose_array_id" count="272">-0.41898334 0.017207013 0.90783083 -19.36829 -0.015016698 -0.999815 0.012019952 0 0.9078697 -0.008596462 0.41916424 41.212147 0 0 0 1 -0.41724658 0.023301512 0.9084946 -19.36829 -0.016426437 -0.9997014 0.018096615 0 0.9086449 -0.0073725777 0.41750467 41.212147 0 0 0 1 -0.4159608 0.030577619 0.9088683 -19.36829 -0.01769545 -0.99951744 0.025528725 0 0.9092103 -0.0054638833 0.4163012 41.212147 0 0 0 1 -0.4152671 0.039186146 0.90885526 -19.36829 -0.018744048 -0.9992285 0.034518283 0 0.9095065 -0.0027013198 0.415681 41.212147 0 0 0 1 -0.41520202 0.04833932 0.90844405 -19.36829 -0.01993731 -0.99883103 0.044036612 0 0.90951073 0.00017215498 0.41568035 41.212147 0 0 0 1 -0.4156232 0.05681162 0.90776074 -19.36829 -0.02115969 -0.9983809 0.052794956 0 0.90929055 0.0027348753 0.41615266 41.212147 0 0 0 1 -0.41640234 0.06338638 0.90696824 -19.36829 -0.0222813 -0.9979787 0.059517264 0 0.9089074 0.0045746937 0.41697288 41.212147 0 0 0 1 -0.4174168 0.06684591 0.9062534 -19.36829 -0.02315173 -0.99774957 0.06293113 0 0.9084204 0.0052871723 0.41802472 41.212147 0 0 0 1 -0.41854894 0.06601216 0.90579194 -19.36829 -0.02358744 -0.99780846 0.061818827 0 0.90788776 0.0045089014 0.41918898 41.212147 0 0 0 1 -0.41965544 0.05816611 0.9058178 -19.36829 -0.024870457 -0.99830675 0.05258298 0 0.9073426 -0.00046136416 0.42039162 41.212147 0 0 0 1 -0.42069268 0.04485205 0.9060938 -19.36829 -0.02551803 -0.99896693 0.03760148 0 0.9068442 -0.0073030647 0.4214027 41.212147 0 0 0 1 -0.42157412 0.02997124 0.9062987 -19.36829 -0.0250196 -0.99945784 0.021413883 0 0.9064489 -0.013647692 0.42209506 41.212147 0 0 0 1 -0.42214692 0.017652838 0.90635556 -19.36829 -0.023021145 -0.99969673 0.008748421 0 0.90623504 -0.017172223 0.42242527 41.212147 0 0 0 1 -0.42227423 0.011451924 0.90639585 -19.36829 -0.019585676 -0.9998021 0.0035074432 0 0.9062566 -0.016271273 0.42241484 41.212147 0 0 0 1 -0.4217682 0.011205373 0.90663457 -19.36829 -0.01664607 -0.999851 0.0046136784 0 0.906551 -0.013145998 0.42189163 41.212147 0 0 0 1 -0.42061937 0.013910284 0.90713054 -19.36829 -0.015070913 -0.9998516 0.008344005 0 0.90711194 -0.0101616355 0.4207666 41.212147 0 0 0 1 -0.42061937 0.013910284 0.90713054 -19.36829 -0.015070913 -0.9998516 0.008344005 0 0.90711194 -0.0101616355 0.4207666 41.212147 0 0 0 1</float_array>
        <technique_common>
          <accessor source="#Motion_30_Feeler1_transform_pose_array_id" count="17" stride="16">
            <param name="TRANSFORM" type="float4x4" />
          </accessor>
        </technique_common>
      </source>
      <sampler id="Motion_30_Feeler1_transform_samp_id">
        <input semantic="INPUT" source="#Motion_30_Feeler1_transform_frame_id" />
        <input semantic="INTERPOLATION" source="#Motion_30_Feeler1_transform_interp_id" />
        <input semantic="OUTPUT" source="#Motion_30_Feeler1_transform_pose_id" />
      </sampler>
      <channel source="#Motion_30_Feeler1_transform_samp_id" target="Feeler1_bone_id/transform" />
    </animation>
    <animation id="Motion_30_RFeeler_transform_id" name="Motion_30_RFeeler_transform">
      <source id="Motion_30_RFeeler_transform_frame_id" name="Motion_30_RFeeler_transform_frame">
        <float_array id="Motion_30_RFeeler_transform_frame_array_id" count="17">0 0.033333335 0.06666667 0.1 0.13333334 0.16666667 0.2 0.23333333 0.26666668 0.3 0.33333334 0.36666667 0.4 0.43333334 0.46666667 0.5 0.53333336</float_array>
        <technique_common>
          <accessor source="#Motion_30_RFeeler_transform_frame_array_id" count="17" stride="1">
            <param name="TIME" type="float" />
          </accessor>
        </technique_common>
      </source>
      <source id="Motion_30_RFeeler_transform_interp_id" name="Motion_30_RFeeler_transform_interp">
        <Name_array id="Motion_30_RFeeler_transform_interp_array_id" count="17">LINEAR LINEAR LINEAR LINEAR LINEAR LINEAR LINEAR LINEAR LINEAR LINEAR LINEAR LINEAR LINEAR LINEAR LINEAR LINEAR LINEAR</Name_array>
        <technique_common>
          <accessor source="#Motion_30_RFeeler_transform_interp_array_id" count="17" stride="1">
            <param name="INTERPOLATION" type="Name" />
          </accessor>
        </technique_common>
      </source>
      <source id="Motion_30_RFeeler_transform_pose_id" name="Motion_30_RFeeler_transform_pose">
        <float_array id="Motion_30_RFeeler_transform_pose_array_id" count="272">0.72330487 0.6895626 -0.036516923 13.933522 -0.6890487 0.7242052 0.027179934 -11.6087 0.045188013 0.00550256 0.99896336 5.021719E-05 0 0 0 1 0.72313213 0.68954015 -0.040179282 13.933522 -0.6889801 0.724214 0.028644737 -11.6087 0.048850097 0.0069687963 0.9987818 5.021719E-05 0 0 0 1 0.7230053 0.6895224 -0.042687465 13.933522 -0.68893087 0.7242205 0.029647961 -11.6087 0.05135807 0.007973074 0.99864846 5.021719E-05 0 0 0 1 0.72293353 0.6895119 -0.04405051 13.933522 -0.6889032 0.7242242 0.030193172 -11.6087 0.052720997 0.008518882 0.99857295 5.021719E-05 0 0 0 1 0.7229214 0.68951017 -0.044277232 13.933522 -0.6888986 0.7242248 0.030283863 -11.6087 0.052947704 0.008609673 0.9985602 5.021719E-05 0 0 0 1 0.7229693 0.6895172 -0.043376245 13.933522 -0.688917 0.72422236 0.029923469 -11.6087 0.05204679 0.00824888 0.99861056 5.021719E-05 0 0 0 1 0.7230625 0.68953043 -0.041573744 13.933522 -0.68895286 0.72421765 0.02920249 -11.6087 0.05024444 0.007527126 0.9987086 5.021719E-05 0 0 0 1 0.7231771 0.6895461 -0.039257105 13.933522 -0.68899775 0.72421175 0.028275892 -11.6087 0.047927987 0.00659958 0.998829 5.021719E-05 0 0 0 1 0.7232976 0.6895618 -0.036676582 13.933522 -0.68904585 0.7242055 0.027243791 -11.6087 0.045347657 0.005566476 0.9989558 5.021719E-05 0 0 0 1 0.72341144 0.6895755 -0.034082517 13.933522 -0.6890922 0.72419965 0.02620631 -11.6087 0.04275378 0.0045280512 0.99907535 5.021719E-05 0 0 0 1 0.72350836 0.6895862 -0.031725425 13.933522 -0.68913263 0.72419477 0.025263637 -11.6087 0.040396843 0.003584574 0.9991773 5.021719E-05 0 0 0 1 0.7235809 0.6895936 -0.029855894 13.933522 -0.6891635 0.724191 0.024515972 -11.6087 0.038527425 0.0028363047 0.9992535 5.021719E-05 0 0 0 1 0.7236229 0.6895975 -0.028724575 13.933522 -0.6891817 0.72418886 0.024063539 -11.6087 0.037396174 0.0023835236 0.9992977 5.021719E-05 0 0 0 1 0.72362816 0.689598 -0.02858209 13.933522 -0.689184 0.7241886 0.024006557 -11.6087 0.0372537 0.0023264978 0.9993031 5.021719E-05 0 0 0 1 0.7235875 0.6895942 -0.029678952 13.933522 -0.68916637 0.72419065 0.02444521 -11.6087 0.038350496 0.0027654888 0.99926054 5.021719E-05 0 0 0 1 0.7234867 0.6895839 -0.032265473 13.933522 -0.6891235 0.72419584 0.025479617 -11.6087 0.040936854 0.0038007312 0.9991545 5.021719E-05 0 0 0 1 0.7234867 0.6895839 -0.032265473 13.933522 -0.6891235 0.72419584 0.025479617 -11.6087 0.040936854 0.0038007312 0.9991545 5.021719E-05 0 0 0 1</float_array>
        <technique_common>
          <accessor source="#Motion_30_RFeeler_transform_pose_array_id" count="17" stride="16">
            <param name="TRANSFORM" type="float4x4" />
          </accessor>
        </technique_common>
      </source>
      <sampler id="Motion_30_RFeeler_transform_samp_id">
        <input semantic="INPUT" source="#Motion_30_RFeeler_transform_frame_id" />
        <input semantic="INTERPOLATION" source="#Motion_30_RFeeler_transform_interp_id" />
        <input semantic="OUTPUT" source="#Motion_30_RFeeler_transform_pose_id" />
      </sampler>
      <channel source="#Motion_30_RFeeler_transform_samp_id" target="RFeeler_bone_id/transform" />
    </animation>
    <animation id="Motion_30_LFeeler_transform_id" name="Motion_30_LFeeler_transform">
      <source id="Motion_30_LFeeler_transform_frame_id" name="Motion_30_LFeeler_transform_frame">
        <float_array id="Motion_30_LFeeler_transform_frame_array_id" count="17">0 0.033333335 0.06666667 0.1 0.13333334 0.16666667 0.2 0.23333333 0.26666668 0.3 0.33333334 0.36666667 0.4 0.43333334 0.46666667 0.5 0.53333336</float_array>
        <technique_common>
          <accessor source="#Motion_30_LFeeler_transform_frame_array_id" count="17" stride="1">
            <param name="TIME" type="float" />
          </accessor>
        </technique_common>
      </source>
      <source id="Motion_30_LFeeler_transform_interp_id" name="Motion_30_LFeeler_transform_interp">
        <Name_array id="Motion_30_LFeeler_transform_interp_array_id" count="17">LINEAR LINEAR LINEAR LINEAR LINEAR LINEAR LINEAR LINEAR LINEAR LINEAR LINEAR LINEAR LINEAR LINEAR LINEAR LINEAR LINEAR</Name_array>
        <technique_common>
          <accessor source="#Motion_30_LFeeler_transform_interp_array_id" count="17" stride="1">
            <param name="INTERPOLATION" type="Name" />
          </accessor>
        </technique_common>
      </source>
      <source id="Motion_30_LFeeler_transform_pose_id" name="Motion_30_LFeeler_transform_pose">
        <float_array id="Motion_30_LFeeler_transform_pose_array_id" count="272">0.7826406 -0.62118053 -0.04010591 13.933493 0.62060094 0.7836588 -0.027080163 11.608697 0.048251018 -0.0036957273 0.9988284 0 0 0 0 1 0.7819216 -0.62198514 -0.041629806 13.933493 0.62118787 0.7830281 -0.031506285 11.608697 0.052193746 -0.0012244862 0.99863625 0 0 0 0 1 0.7815585 -0.6223843 -0.04247424 13.933493 0.6214242 0.78271157 -0.034563206 11.608697 0.05475668 0.0006186478 0.9984995 0 0 0 0 1 0.78150463 -0.62242925 -0.042806935 13.933493 0.6213814 0.7826744 -0.03613855 11.608697 0.055997577 0.0016430132 0.99842954 0 0 0 0 1 0.78170955 -0.6221728 -0.04279311 13.933493 0.62112564 0.7828782 -0.036120333 11.608697 0.055974886 0.0016557146 0.9984308 0 0 0 0 1 0.78212094 -0.6216764 -0.042488158 13.933493 0.62070733 0.7832738 -0.03470528 11.608697 0.054855317 0.000771014 0.998494 0 0 0 0 1 0.7826853 -0.62100893 -0.041853294 13.933493 0.62016565 0.7838032 -0.032357223 11.608697 0.052898876 -0.0006304551 0.99859965 0 0 0 0 1 0.7833482 -0.6202353 -0.040911034 13.933493 0.61954427 0.78441226 -0.029364876 11.608697 0.05030425 -0.00234327 0.9987312 0 0 0 0 1 0.784051 -0.6194203 -0.039781533 13.933493 0.6188865 0.78504837 -0.026050704 11.608697 0.04736676 -0.0041951723 0.99886876 0 0 0 0 1 0.7847339 -0.61862695 -0.038645487 13.933493 0.6182376 0.7856617 -0.022757646 11.608697 0.044440772 -0.0060333954 0.9989938 0 0 0 0 1 0.7853422 -0.6179179 -0.037617538 13.933493 0.6176481 0.7862052 -0.019805104 11.608697 0.041813027 -0.0076806177 0.9990959 0 0 0 0 1 0.78575236 -0.6174449 -0.03681218 13.933493 0.6172614 0.78656316 -0.017514337 11.608697 0.03976924 -0.008960805 0.9991687 0 0 0 0 1 0.78585804 -0.617338 -0.036345027 13.933493 0.6172014 0.78663826 -0.01620596 11.608697 0.038594946 -0.009696618 0.9992079 0 0 0 0 1 0.78563154 -0.6176269 -0.036332406 13.933493 0.61749077 0.7864113 -0.01619848 11.608697 0.038576834 -0.009708889 0.99920845 0 0 0 0 1 0.7850432 -0.6183417 -0.036888503 13.933493 0.6181481 0.7858599 -0.017810754 11.608697 0.040002324 -0.008820344 0.99916065 0 0 0 0 1 0.7840588 -0.61951464 -0.03812416 13.933493 0.6191842 0.78495514 -0.021362137 11.608697 0.04315991 -0.0068567037 0.99904466 0 0 0 0 1 0.7840588 -0.61951464 -0.03812416 13.933493 0.6191842 0.78495514 -0.021362137 11.608697 0.04315991 -0.0068567037 0.99904466 0 0 0 0 1</float_array>
        <technique_common>
          <accessor source="#Motion_30_LFeeler_transform_pose_array_id" count="17" stride="16">
            <param name="TRANSFORM" type="float4x4" />
          </accessor>
        </technique_common>
      </source>
      <sampler id="Motion_30_LFeeler_transform_samp_id">
        <input semantic="INPUT" source="#Motion_30_LFeeler_transform_frame_id" />
        <input semantic="INTERPOLATION" source="#Motion_30_LFeeler_transform_interp_id" />
        <input semantic="OUTPUT" source="#Motion_30_LFeeler_transform_pose_id" />
      </sampler>
      <channel source="#Motion_30_LFeeler_transform_samp_id" target="LFeeler_bone_id/transform" />
    </animation>
    <animation id="Motion_30_Feeler2_transform_id" name="Motion_30_Feeler2_transform">
      <source id="Motion_30_Feeler2_transform_frame_id" name="Motion_30_Feeler2_transform_frame">
        <float_array id="Motion_30_Feeler2_transform_frame_array_id" count="17">0 0.033333335 0.06666667 0.1 0.13333334 0.16666667 0.2 0.23333333 0.26666668 0.3 0.33333334 0.36666667 0.4 0.43333334 0.46666667 0.5 0.53333336</float_array>
        <technique_common>
          <accessor source="#Motion_30_Feeler2_transform_frame_array_id" count="17" stride="1">
            <param name="TIME" type="float" />
          </accessor>
        </technique_common>
      </source>
      <source id="Motion_30_Feeler2_transform_interp_id" name="Motion_30_Feeler2_transform_interp">
        <Name_array id="Motion_30_Feeler2_transform_interp_array_id" count="17">LINEAR LINEAR LINEAR LINEAR LINEAR LINEAR LINEAR LINEAR LINEAR LINEAR LINEAR LINEAR LINEAR LINEAR LINEAR LINEAR LINEAR</Name_array>
        <technique_common>
          <accessor source="#Motion_30_Feeler2_transform_interp_array_id" count="17" stride="1">
            <param name="INTERPOLATION" type="Name" />
          </accessor>
        </technique_common>
      </source>
      <source id="Motion_30_Feeler2_transform_pose_id" name="Motion_30_Feeler2_transform_pose">
        <float_array id="Motion_30_Feeler2_transform_pose_array_id" count="272">0.997015 0.04269104 -0.06433133 15.699711 -0.042955603 0.99907327 -0.002734387 0 0.064154975 0.0054896157 0.99792486 0 0 0 0 1 0.997015 0.04269104 -0.06433133 15.699711 -0.042955603 0.99907327 -0.002734387 0 0.064154975 0.0054896157 0.99792486 0 0 0 0 1 0.997015 0.04269104 -0.06433133 15.699711 -0.042955603 0.99907327 -0.002734387 0 0.064154975 0.0054896157 0.99792486 0 0 0 0 1 0.997015 0.04269104 -0.06433133 15.699711 -0.042955603 0.99907327 -0.002734387 0 0.064154975 0.0054896157 0.99792486 0 0 0 0 1 0.997015 0.04269104 -0.06433133 15.699711 -0.042955603 0.99907327 -0.002734387 0 0.064154975 0.0054896157 0.99792486 0 0 0 0 1 0.997015 0.04269104 -0.06433133 15.699711 -0.042955603 0.99907327 -0.002734387 0 0.064154975 0.0054896157 0.99792486 0 0 0 0 1 0.997015 0.04269104 -0.06433133 15.699711 -0.042955603 0.99907327 -0.002734387 0 0.064154975 0.0054896157 0.99792486 0 0 0 0 1 0.997015 0.04269104 -0.06433133 15.699711 -0.042955603 0.99907327 -0.002734387 0 0.064154975 0.0054896157 0.99792486 0 0 0 0 1 0.997015 0.04269104 -0.06433133 15.699711 -0.042955603 0.99907327 -0.002734387 0 0.064154975 0.0054896157 0.99792486 0 0 0 0 1 0.997015 0.04269104 -0.06433133 15.699711 -0.042955603 0.99907327 -0.002734387 0 0.064154975 0.0054896157 0.99792486 0 0 0 0 1 0.997015 0.04269104 -0.06433133 15.699711 -0.042955603 0.99907327 -0.002734387 0 0.064154975 0.0054896157 0.99792486 0 0 0 0 1 0.997015 0.04269104 -0.06433133 15.699711 -0.042955603 0.99907327 -0.002734387 0 0.064154975 0.0054896157 0.99792486 0 0 0 0 1 0.997015 0.04269104 -0.06433133 15.699711 -0.042955603 0.99907327 -0.002734387 0 0.064154975 0.0054896157 0.99792486 0 0 0 0 1 0.997015 0.04269104 -0.06433133 15.699711 -0.042955603 0.99907327 -0.002734387 0 0.064154975 0.0054896157 0.99792486 0 0 0 0 1 0.997015 0.04269104 -0.06433133 15.699711 -0.042955603 0.99907327 -0.002734387 0 0.064154975 0.0054896157 0.99792486 0 0 0 0 1 0.997015 0.04269104 -0.06433133 15.699711 -0.042955603 0.99907327 -0.002734387 0 0.064154975 0.0054896157 0.99792486 0 0 0 0 1 0.997015 0.04269104 -0.06433133 15.699711 -0.042955603 0.99907327 -0.002734387 0 0.064154975 0.0054896157 0.99792486 0 0 0 0 1</float_array>
        <technique_common>
          <accessor source="#Motion_30_Feeler2_transform_pose_array_id" count="17" stride="16">
            <param name="TRANSFORM" type="float4x4" />
          </accessor>
        </technique_common>
      </source>
      <sampler id="Motion_30_Feeler2_transform_samp_id">
        <input semantic="INPUT" source="#Motion_30_Feeler2_transform_frame_id" />
        <input semantic="INTERPOLATION" source="#Motion_30_Feeler2_transform_interp_id" />
        <input semantic="OUTPUT" source="#Motion_30_Feeler2_transform_pose_id" />
      </sampler>
      <channel source="#Motion_30_Feeler2_transform_samp_id" target="Feeler2_bone_id/transform" />
    </animation>
    <animation id="Motion_30_Head_transform_id" name="Motion_30_Head_transform">
      <source id="Motion_30_Head_transform_frame_id" name="Motion_30_Head_transform_frame">
        <float_array id="Motion_30_Head_transform_frame_array_id" count="17">0 0.033333335 0.06666667 0.1 0.13333334 0.16666667 0.2 0.23333333 0.26666668 0.3 0.33333334 0.36666667 0.4 0.43333334 0.46666667 0.5 0.53333336</float_array>
        <technique_common>
          <accessor source="#Motion_30_Head_transform_frame_array_id" count="17" stride="1">
            <param name="TIME" type="float" />
          </accessor>
        </technique_common>
      </source>
      <source id="Motion_30_Head_transform_interp_id" name="Motion_30_Head_transform_interp">
        <Name_array id="Motion_30_Head_transform_interp_array_id" count="17">LINEAR LINEAR LINEAR LINEAR LINEAR LINEAR LINEAR LINEAR LINEAR LINEAR LINEAR LINEAR LINEAR LINEAR LINEAR LINEAR LINEAR</Name_array>
        <technique_common>
          <accessor source="#Motion_30_Head_transform_interp_array_id" count="17" stride="1">
            <param name="INTERPOLATION" type="Name" />
          </accessor>
        </technique_common>
      </source>
      <source id="Motion_30_Head_transform_pose_id" name="Motion_30_Head_transform_pose">
        <float_array id="Motion_30_Head_transform_pose_array_id" count="272">0.99998045 0.0028853132 0.0055493894 56.66371 -0.002870474 0.9999923 -0.0026801347 0 -0.0055570793 0.0026641528 0.999981 0 0 0 0 1 0.9999908 0.002883741 0.0031650472 56.66371 -0.0028720603 0.9999891 -0.0036888844 0 -0.0031756503 0.0036797603 0.9999882 0 0 0 0 1 0.9999953 0.0028752254 -0.0010604593 56.66371 -0.002880572 0.99998295 -0.0050754547 0 0.0010458482 0.0050784852 0.9999865 0 0 0 0 1 0.99996865 0.002853646 -0.0073876316 56.66371 -0.0029020836 0.9999743 -0.0065542003 0 0.0073687388 0.0065754345 0.99995124 0 0 0 0 1 0.9998946 0.0028218366 -0.014241856 56.66371 -0.0029337332 0.99996495 -0.007842106 0 0.014219226 0.007883062 0.99986786 0 0 0 0 1 0.9997923 0.002790052 -0.02018899 56.66371 -0.0029653087 0.99995816 -0.008656075 0 0.020163992 0.008714143 0.9997587 0 0 0 0 1 0.999713 0.002773567 -0.02379554 56.66371 -0.0029816404 0.9999576 -0.008713192 0 0.023770364 0.008781641 0.99967885 0 0 0 0 1 0.99969405 0.002782207 -0.02457679 56.66371 -0.002972979 0.9999657 -0.0077291564 0 0.024554443 0.0077998578 0.99966806 0 0 0 0 1 0.99972415 0.0028087518 -0.023318104 56.66371 -0.0029465172 0.9999784 -0.0058758412 0 0.023301098 0.005942927 0.99971086 0 0 0 0 1 0.999786 0.0028386214 -0.020491736 56.66371 -0.0029167854 0.99998856 -0.0037855275 0 0.020480758 0.0038444872 0.99978286 0 0 0 0 1 0.9998586 0.0028621536 -0.016569605 56.66371 -0.0028934036 0.9999941 -0.0018623123 0 0.016564177 0.0019099916 0.999861 0 0 0 0 1 0.9999236 0.00287467 -0.012023796 56.66371 -0.0028810147 0.9999957 -0.00051039364 0 0.012022278 0.0005449954 0.9999276 0 0 0 0 1 0.999969 0.0028773563 -0.0073265666 56.66371 -0.0028784156 0.9999958 -0.00013402662 0 0.0073261503 0.00015511138 0.9999732 0 0 0 0 1 0.99999154 0.0028769886 -0.0029495303 56.66371 -0.0028788266 0.99999565 -0.00061905524 0 0.0029477365 0.0006275412 0.99999547 0 0 0 0 1 0.99999565 0.0028783747 0.0006642962 56.66371 -0.002877447 0.9999949 -0.0013934328 0 -0.0006683037 0.0013915153 0.9999988 0 0 0 0 1 0.99998987 0.0028816615 0.003459986 56.66371 -0.0028741462 0.9999935 -0.002175125 0 -0.0034662315 0.0021651585 0.99999166 0 0 0 0 1 0.99998987 0.0028816615 0.003459986 56.66371 -0.0028741462 0.9999935 -0.002175125 0 -0.0034662315 0.0021651585 0.99999166 0 0 0 0 1</float_array>
        <technique_common>
          <accessor source="#Motion_30_Head_transform_pose_array_id" count="17" stride="16">
            <param name="TRANSFORM" type="float4x4" />
          </accessor>
        </technique_common>
      </source>
      <sampler id="Motion_30_Head_transform_samp_id">
        <input semantic="INPUT" source="#Motion_30_Head_transform_frame_id" />
        <input semantic="INTERPOLATION" source="#Motion_30_Head_transform_interp_id" />
        <input semantic="OUTPUT" source="#Motion_30_Head_transform_pose_id" />
      </sampler>
      <channel source="#Motion_30_Head_transform_samp_id" target="Head_bone_id/transform" />
    </animation>
    <animation id="Motion_30_Loc_Head_transform_id" name="Motion_30_Loc_Head_transform">
      <source id="Motion_30_Loc_Head_transform_frame_id" name="Motion_30_Loc_Head_transform_frame">
        <float_array id="Motion_30_Loc_Head_transform_frame_array_id" count="17">0 0.033333335 0.06666667 0.1 0.13333334 0.16666667 0.2 0.23333333 0.26666668 0.3 0.33333334 0.36666667 0.4 0.43333334 0.46666667 0.5 0.53333336</float_array>
        <technique_common>
          <accessor source="#Motion_30_Loc_Head_transform_frame_array_id" count="17" stride="1">
            <param name="TIME" type="float" />
          </accessor>
        </technique_common>
      </source>
      <source id="Motion_30_Loc_Head_transform_interp_id" name="Motion_30_Loc_Head_transform_interp">
        <Name_array id="Motion_30_Loc_Head_transform_interp_array_id" count="17">LINEAR LINEAR LINEAR LINEAR LINEAR LINEAR LINEAR LINEAR LINEAR LINEAR LINEAR LINEAR LINEAR LINEAR LINEAR LINEAR LINEAR</Name_array>
        <technique_common>
          <accessor source="#Motion_30_Loc_Head_transform_interp_array_id" count="17" stride="1">
            <param name="INTERPOLATION" type="Name" />
          </accessor>
        </technique_common>
      </source>
      <source id="Motion_30_Loc_Head_transform_pose_id" name="Motion_30_Loc_Head_transform_pose">
        <float_array id="Motion_30_Loc_Head_transform_pose_array_id" count="272">6.2088176E-08 1.0416666 0 39.541676 -1.0416666 6.2088176E-08 0 -1E-06 0 0 1.0416667 0 0 0 0 1 6.2088176E-08 1.0416666 0 39.541676 -1.0416666 6.2088176E-08 0 -1E-06 0 0 1.0416667 0 0 0 0 1 6.2088176E-08 1.0416666 0 39.541676 -1.0416666 6.2088176E-08 0 -1E-06 0 0 1.0416667 0 0 0 0 1 6.2088176E-08 1.0416666 0 39.541676 -1.0416666 6.2088176E-08 0 -1E-06 0 0 1.0416667 0 0 0 0 1 6.2088176E-08 1.0416666 0 39.541676 -1.0416666 6.2088176E-08 0 -1E-06 0 0 1.0416667 0 0 0 0 1 6.2088176E-08 1.0416666 0 39.541676 -1.0416666 6.2088176E-08 0 -1E-06 0 0 1.0416667 0 0 0 0 1 6.2088176E-08 1.0416666 0 39.541676 -1.0416666 6.2088176E-08 0 -1E-06 0 0 1.0416667 0 0 0 0 1 6.2088176E-08 1.0416666 0 39.541676 -1.0416666 6.2088176E-08 0 -1E-06 0 0 1.0416667 0 0 0 0 1 6.2088176E-08 1.0416666 0 39.541676 -1.0416666 6.2088176E-08 0 -1E-06 0 0 1.0416667 0 0 0 0 1 6.2088176E-08 1.0416666 0 39.541676 -1.0416666 6.2088176E-08 0 -1E-06 0 0 1.0416667 0 0 0 0 1 6.2088176E-08 1.0416666 0 39.541676 -1.0416666 6.2088176E-08 0 -1E-06 0 0 1.0416667 0 0 0 0 1 6.2088176E-08 1.0416666 0 39.541676 -1.0416666 6.2088176E-08 0 -1E-06 0 0 1.0416667 0 0 0 0 1 6.2088176E-08 1.0416666 0 39.541676 -1.0416666 6.2088176E-08 0 -1E-06 0 0 1.0416667 0 0 0 0 1 6.2088176E-08 1.0416666 0 39.541676 -1.0416666 6.2088176E-08 0 -1E-06 0 0 1.0416667 0 0 0 0 1 6.2088176E-08 1.0416666 0 39.541676 -1.0416666 6.2088176E-08 0 -1E-06 0 0 1.0416667 0 0 0 0 1 6.2088176E-08 1.0416666 0 39.541676 -1.0416666 6.2088176E-08 0 -1E-06 0 0 1.0416667 0 0 0 0 1 6.2088176E-08 1.0416666 0 39.541676 -1.0416666 6.2088176E-08 0 -1E-06 0 0 1.0416667 0 0 0 0 1</float_array>
        <technique_common>
          <accessor source="#Motion_30_Loc_Head_transform_pose_array_id" count="17" stride="16">
            <param name="TRANSFORM" type="float4x4" />
          </accessor>
        </technique_common>
      </source>
      <sampler id="Motion_30_Loc_Head_transform_samp_id">
        <input semantic="INPUT" source="#Motion_30_Loc_Head_transform_frame_id" />
        <input semantic="INTERPOLATION" source="#Motion_30_Loc_Head_transform_interp_id" />
        <input semantic="OUTPUT" source="#Motion_30_Loc_Head_transform_pose_id" />
      </sampler>
      <channel source="#Motion_30_Loc_Head_transform_samp_id" target="Loc_Head_bone_id/transform" />
    </animation>
    <animation id="Motion_30_Loc_Eye_transform_id" name="Motion_30_Loc_Eye_transform">
      <source id="Motion_30_Loc_Eye_transform_frame_id" name="Motion_30_Loc_Eye_transform_frame">
        <float_array id="Motion_30_Loc_Eye_transform_frame_array_id" count="17">0 0.033333335 0.06666667 0.1 0.13333334 0.16666667 0.2 0.23333333 0.26666668 0.3 0.33333334 0.36666667 0.4 0.43333334 0.46666667 0.5 0.53333336</float_array>
        <technique_common>
          <accessor source="#Motion_30_Loc_Eye_transform_frame_array_id" count="17" stride="1">
            <param name="TIME" type="float" />
          </accessor>
        </technique_common>
      </source>
      <source id="Motion_30_Loc_Eye_transform_interp_id" name="Motion_30_Loc_Eye_transform_interp">
        <Name_array id="Motion_30_Loc_Eye_transform_interp_array_id" count="17">LINEAR LINEAR LINEAR LINEAR LINEAR LINEAR LINEAR LINEAR LINEAR LINEAR LINEAR LINEAR LINEAR LINEAR LINEAR LINEAR LINEAR</Name_array>
        <technique_common>
          <accessor source="#Motion_30_Loc_Eye_transform_interp_array_id" count="17" stride="1">
            <param name="INTERPOLATION" type="Name" />
          </accessor>
        </technique_common>
      </source>
      <source id="Motion_30_Loc_Eye_transform_pose_id" name="Motion_30_Loc_Eye_transform_pose">
        <float_array id="Motion_30_Loc_Eye_transform_pose_array_id" count="272">6.2088176E-08 1.0416666 0 48.997192 -1.0416666 6.2088176E-08 0 -1E-06 0 0 1.0416667 25.357393 0 0 0 1 6.2088176E-08 1.0416666 0 48.997192 -1.0416666 6.2088176E-08 0 -1E-06 0 0 1.0416667 25.357393 0 0 0 1 6.2088176E-08 1.0416666 0 48.997192 -1.0416666 6.2088176E-08 0 -1E-06 0 0 1.0416667 25.357393 0 0 0 1 6.2088176E-08 1.0416666 0 48.997192 -1.0416666 6.2088176E-08 0 -1E-06 0 0 1.0416667 25.357393 0 0 0 1 6.2088176E-08 1.0416666 0 48.997192 -1.0416666 6.2088176E-08 0 -1E-06 0 0 1.0416667 25.357393 0 0 0 1 6.2088176E-08 1.0416666 0 48.997192 -1.0416666 6.2088176E-08 0 -1E-06 0 0 1.0416667 25.357393 0 0 0 1 6.2088176E-08 1.0416666 0 48.997192 -1.0416666 6.2088176E-08 0 -1E-06 0 0 1.0416667 25.357393 0 0 0 1 6.2088176E-08 1.0416666 0 48.997192 -1.0416666 6.2088176E-08 0 -1E-06 0 0 1.0416667 25.357393 0 0 0 1 6.2088176E-08 1.0416666 0 48.997192 -1.0416666 6.2088176E-08 0 -1E-06 0 0 1.0416667 25.357393 0 0 0 1 6.2088176E-08 1.0416666 0 48.997192 -1.0416666 6.2088176E-08 0 -1E-06 0 0 1.0416667 25.357393 0 0 0 1 6.2088176E-08 1.0416666 0 48.997192 -1.0416666 6.2088176E-08 0 -1E-06 0 0 1.0416667 25.357393 0 0 0 1 6.2088176E-08 1.0416666 0 48.997192 -1.0416666 6.2088176E-08 0 -1E-06 0 0 1.0416667 25.357393 0 0 0 1 6.2088176E-08 1.0416666 0 48.997192 -1.0416666 6.2088176E-08 0 -1E-06 0 0 1.0416667 25.357393 0 0 0 1 6.2088176E-08 1.0416666 0 48.997192 -1.0416666 6.2088176E-08 0 -1E-06 0 0 1.0416667 25.357393 0 0 0 1 6.2088176E-08 1.0416666 0 48.997192 -1.0416666 6.2088176E-08 0 -1E-06 0 0 1.0416667 25.357393 0 0 0 1 6.2088176E-08 1.0416666 0 48.997192 -1.0416666 6.2088176E-08 0 -1E-06 0 0 1.0416667 25.357393 0 0 0 1 6.2088176E-08 1.0416666 0 48.997192 -1.0416666 6.2088176E-08 0 -1E-06 0 0 1.0416667 25.357393 0 0 0 1</float_array>
        <technique_common>
          <accessor source="#Motion_30_Loc_Eye_transform_pose_array_id" count="17" stride="16">
            <param name="TRANSFORM" type="float4x4" />
          </accessor>
        </technique_common>
      </source>
      <sampler id="Motion_30_Loc_Eye_transform_samp_id">
        <input semantic="INPUT" source="#Motion_30_Loc_Eye_transform_frame_id" />
        <input semantic="INTERPOLATION" source="#Motion_30_Loc_Eye_transform_interp_id" />
        <input semantic="OUTPUT" source="#Motion_30_Loc_Eye_transform_pose_id" />
      </sampler>
      <channel source="#Motion_30_Loc_Eye_transform_samp_id" target="Loc_Eye_bone_id/transform" />
    </animation>
    <animation id="Motion_30_Loc_Mouth_transform_id" name="Motion_30_Loc_Mouth_transform">
      <source id="Motion_30_Loc_Mouth_transform_frame_id" name="Motion_30_Loc_Mouth_transform_frame">
        <float_array id="Motion_30_Loc_Mouth_transform_frame_array_id" count="17">0 0.033333335 0.06666667 0.1 0.13333334 0.16666667 0.2 0.23333333 0.26666668 0.3 0.33333334 0.36666667 0.4 0.43333334 0.46666667 0.5 0.53333336</float_array>
        <technique_common>
          <accessor source="#Motion_30_Loc_Mouth_transform_frame_array_id" count="17" stride="1">
            <param name="TIME" type="float" />
          </accessor>
        </technique_common>
      </source>
      <source id="Motion_30_Loc_Mouth_transform_interp_id" name="Motion_30_Loc_Mouth_transform_interp">
        <Name_array id="Motion_30_Loc_Mouth_transform_interp_array_id" count="17">LINEAR LINEAR LINEAR LINEAR LINEAR LINEAR LINEAR LINEAR LINEAR LINEAR LINEAR LINEAR LINEAR LINEAR LINEAR LINEAR LINEAR</Name_array>
        <technique_common>
          <accessor source="#Motion_30_Loc_Mouth_transform_interp_array_id" count="17" stride="1">
            <param name="INTERPOLATION" type="Name" />
          </accessor>
        </technique_common>
      </source>
      <source id="Motion_30_Loc_Mouth_transform_pose_id" name="Motion_30_Loc_Mouth_transform_pose">
        <float_array id="Motion_30_Loc_Mouth_transform_pose_array_id" count="272">6.2088176E-08 1.0416666 0 -38.3408 -1.0416666 6.2088176E-08 0 -1E-06 0 0 1.0416667 80.17007 0 0 0 1 6.2088176E-08 1.0416666 0 -38.3408 -1.0416666 6.2088176E-08 0 -1E-06 0 0 1.0416667 80.17007 0 0 0 1 6.2088176E-08 1.0416666 0 -38.3408 -1.0416666 6.2088176E-08 0 -1E-06 0 0 1.0416667 80.17007 0 0 0 1 6.2088176E-08 1.0416666 0 -38.3408 -1.0416666 6.2088176E-08 0 -1E-06 0 0 1.0416667 80.17007 0 0 0 1 6.2088176E-08 1.0416666 0 -38.3408 -1.0416666 6.2088176E-08 0 -1E-06 0 0 1.0416667 80.17007 0 0 0 1 6.2088176E-08 1.0416666 0 -38.3408 -1.0416666 6.2088176E-08 0 -1E-06 0 0 1.0416667 80.17007 0 0 0 1 6.2088176E-08 1.0416666 0 -38.3408 -1.0416666 6.2088176E-08 0 -1E-06 0 0 1.0416667 80.17007 0 0 0 1 6.2088176E-08 1.0416666 0 -38.3408 -1.0416666 6.2088176E-08 0 -1E-06 0 0 1.0416667 80.17007 0 0 0 1 6.2088176E-08 1.0416666 0 -38.3408 -1.0416666 6.2088176E-08 0 -1E-06 0 0 1.0416667 80.17007 0 0 0 1 6.2088176E-08 1.0416666 0 -38.3408 -1.0416666 6.2088176E-08 0 -1E-06 0 0 1.0416667 80.17007 0 0 0 1 6.2088176E-08 1.0416666 0 -38.3408 -1.0416666 6.2088176E-08 0 -1E-06 0 0 1.0416667 80.17007 0 0 0 1 6.2088176E-08 1.0416666 0 -38.3408 -1.0416666 6.2088176E-08 0 -1E-06 0 0 1.0416667 80.17007 0 0 0 1 6.2088176E-08 1.0416666 0 -38.3408 -1.0416666 6.2088176E-08 0 -1E-06 0 0 1.0416667 80.17007 0 0 0 1 6.2088176E-08 1.0416666 0 -38.3408 -1.0416666 6.2088176E-08 0 -1E-06 0 0 1.0416667 80.17007 0 0 0 1 6.2088176E-08 1.0416666 0 -38.3408 -1.0416666 6.2088176E-08 0 -1E-06 0 0 1.0416667 80.17007 0 0 0 1 6.2088176E-08 1.0416666 0 -38.3408 -1.0416666 6.2088176E-08 0 -1E-06 0 0 1.0416667 80.17007 0 0 0 1 6.2088176E-08 1.0416666 0 -38.3408 -1.0416666 6.2088176E-08 0 -1E-06 0 0 1.0416667 80.17007 0 0 0 1</float_array>
        <technique_common>
          <accessor source="#Motion_30_Loc_Mouth_transform_pose_array_id" count="17" stride="16">
            <param name="TRANSFORM" type="float4x4" />
          </accessor>
        </technique_common>
      </source>
      <sampler id="Motion_30_Loc_Mouth_transform_samp_id">
        <input semantic="INPUT" source="#Motion_30_Loc_Mouth_transform_frame_id" />
        <input semantic="INTERPOLATION" source="#Motion_30_Loc_Mouth_transform_interp_id" />
        <input semantic="OUTPUT" source="#Motion_30_Loc_Mouth_transform_pose_id" />
      </sampler>
      <channel source="#Motion_30_Loc_Mouth_transform_samp_id" target="Loc_Mouth_bone_id/transform" />
    </animation>
  </library_animations>
  <library_visual_scenes>
    <visual_scene id="pm0476_00_fi_00_clip_id" name="pm0476_00_fi_00_clip">
      <node id="pm0476_00_fi_bone_id" name="pm0476_00_fi" sid="pm0476_00_fi" type="JOINT">
        <matrix sid="transform">1 0 0 0 0 1 0 0 0 0 1 0 0 0 0 1</matrix>
        <node id="Origin_bone_id" name="Origin" sid="Origin" type="JOINT">
          <matrix sid="transform">1 0 0 0 0 1 0 0 0 0 1 0 0 0 0 1</matrix>
          <node id="Waist_bone_id" name="Waist" sid="Waist" type="JOINT">
            <matrix sid="transform">3.1391647E-07 -1 0 0 1 3.1391647E-07 0 43.983086 0 0 1 0 0 0 0 1</matrix>
            <node id="Head_bone_id" name="Head" sid="Head" type="JOINT">
              <matrix sid="transform">1 0 0 56.66371 0 1 0 0 0 0 1 0 0 0 0 1</matrix>
              <node id="Loc_Head_bone_id" name="Loc_Head" sid="Loc_Head" type="JOINT">
                <matrix sid="transform">3.1391647E-07 1 0 39.541676 -1 3.1391647E-07 0 -1E-06 0 0 1 0 0 0 0 1</matrix>
              </node>
            </node>
            <node id="Feeler1_bone_id" name="Feeler1" sid="Feeler1" type="JOINT">
              <matrix sid="transform">-0.44950163 -3.2584137E-07 0.8932795 -19.36829 1.4646623E-07 -1 -2.910674E-07 0 0.8932795 0 0.44950163 41.212147 0 0 0 1</matrix>
              <node id="Feeler2_bone_id" name="Feeler2" sid="Feeler2" type="JOINT">
                <matrix sid="transform">1 0 0 15.699711 0 1 0 0 0 0 1 0 0 0 0 1</matrix>
              </node>
              <node id="LFeeler_bone_id" name="LFeeler" sid="LFeeler" type="JOINT">
                <matrix sid="transform">0.7526491 -0.6584218 0 13.933493 0.6584218 0.7526491 0 11.608697 0 0 1 0 0 0 0 1</matrix>
              </node>
              <node id="RFeeler_bone_id" name="RFeeler" sid="RFeeler" type="JOINT">
                <matrix sid="transform">0.7526491 0.6584218 0 13.933522 -0.6584218 0.7526491 0 -11.6087 0 0 1 5E-05 0 0 0 1</matrix>
              </node>
            </node>
            <node id="LHand_bone_id" name="LHand" sid="LHand" type="JOINT">
              <matrix sid="transform">1 0 0 10.979129 0 3.1391647E-07 -1 -62.6032 0 1 3.1391647E-07 -1E-06 0 0 0 1</matrix>
            </node>
            <node id="RHand_bone_id" name="RHand" sid="RHand" type="JOINT">
              <matrix sid="transform">1 0 0 10.979113 0 3.1391647E-07 1 62.6032 0 -1 3.1391647E-07 -1E-06 0 0 0 1</matrix>
            </node>
            <node id="Foot_bone_id" name="Foot" sid="Foot" type="JOINT">
              <matrix sid="transform">1 0 0 10.979129 0 -1 -3.2584137E-07 0 0 3.2584137E-07 -1 -67.987564 0 0 0 1</matrix>
            </node>
            <node id="Loc_Eye_bone_id" name="Loc_Eye" sid="Loc_Eye" type="JOINT">
              <matrix sid="transform">3.1391647E-07 1 0 48.997192 -1 3.1391647E-07 0 -1E-06 0 0 1 25.357393 0 0 0 1</matrix>
            </node>
            <node id="Loc_Mouth_bone_id" name="Loc_Mouth" sid="Loc_Mouth" type="JOINT">
              <matrix sid="transform">3.1391647E-07 1 0 -38.3408 -1 3.1391647E-07 0 -1E-06 0 0 1 80.17007 0 0 0 1</matrix>
            </node>
          </node>
          <node id="CamTgtHead_bone_id" name="CamTgtHead" sid="CamTgtHead" type="JOINT">
            <matrix sid="transform">1 0 0 1E-06 0 1 0 92.98028 0 0 1 25.357393 0 0 0 1</matrix>
          </node>
        </node>
        <node id="pm0476_00_fi_BodySkin_bone_id" name="pm0476_00_fi_BodySkin" sid="pm0476_00_fi_BodySkin" type="JOINT">
          <matrix sid="transform">1 0 0 0 0 1 0 0 0 0 1 0 0 0 0 1</matrix>
        </node>
      </node>
    </visual_scene>
  </library_visual_scenes>
  <scene>
    <instance_visual_scene url="#pm0476_00_fi_00_clip_id" />
  </scene>
</COLLADA>