<?xml version="1.0" encoding="utf-8"?>
<COLLADA xmlns:xsi="http://www.w3.org/2001/XMLSchema-instance" xmlns:xsd="http://www.w3.org/2001/XMLSchema" version="1.4.1" xmlns="http://www.collada.org/2005/11/COLLADASchema">
  <asset>
    <created>2026-02-17T05:46:53.8667538-05:00</created>
    <modified>2026-02-17T05:46:53.866754-05:00</modified>
    <up_axis>Y_UP</up_axis>
  </asset>
  <library_animations>
    <animation id="Motion_118_Offset_Node_transform_id" name="Motion_118_Offset_Node_transform">
      <source id="Motion_118_Offset_Node_transform_frame_id" name="Motion_118_Offset_Node_transform_frame">
        <float_array id="Motion_118_Offset_Node_transform_frame_array_id" count="109">0 0.033333335 0.06666667 0.1 0.13333334 0.16666667 0.2 0.23333333 0.26666668 0.3 0.33333334 0.36666667 0.4 0.43333334 0.46666667 0.5 0.53333336 0.56666666 0.6 0.6333333 0.6666667 0.7 0.73333335 0.76666665 0.8 0.8333333 0.8666667 0.9 0.93333334 0.96666664 1 1.0333333 1.0666667 1.1 1.1333333 1.1666666 1.2 1.2333333 1.2666667 1.3 1.3333334 1.3666667 1.4 1.4333333 1.4666667 1.5 1.5333333 1.5666667 1.6 1.6333333 1.6666666 1.7 1.7333333 1.7666667 1.8 1.8333334 1.8666667 1.9 1.9333333 1.9666667 2 2.0333333 2.0666666 2.1 2.1333334 2.1666667 2.2 2.2333333 2.2666667 2.3 2.3333333 2.3666666 2.4 2.4333334 2.4666667 2.5 2.5333333 2.5666666 2.6 2.6333334 2.6666667 2.7 2.7333333 2.7666667 2.8 2.8333333 2.8666666 2.9 2.9333334 2.9666667 3 3.0333333 3.0666666 3.1 3.1333334 3.1666667 3.2 3.2333333 3.2666667 3.3 3.3333333 3.3666666 3.4 3.4333334 3.4666667 3.5 3.5333333 3.5666666 3.6</float_array>
        <technique_common>
          <accessor source="#Motion_118_Offset_Node_transform_frame_array_id" count="109" stride="1">
            <param name="TIME" type="float" />
          </accessor>
        </technique_common>
      </source>
      <source id="Motion_118_Offset_Node_transform_interp_id" name="Motion_118_Offset_Node_transform_interp">
        <Name_array id="Motion_118_Offset_Node_transform_interp_array_id" count="109">LINEAR LINEAR LINEAR LINEAR LINEAR LINEAR LINEAR LINEAR LINEAR LINEAR LINEAR LINEAR LINEAR LINEAR LINEAR LINEAR LINEAR LINEAR LINEAR LINEAR LINEAR LINEAR LINEAR LINEAR LINEAR LINEAR LINEAR LINEAR LINEAR LINEAR LINEAR LINEAR LINEAR LINEAR LINEAR LINEAR LINEAR LINEAR LINEAR LINEAR LINEAR LINEAR LINEAR LINEAR LINEAR LINEAR LINEAR LINEAR LINEAR LINEAR LINEAR LINEAR LINEAR LINEAR LINEAR LINEAR LINEAR LINEAR LINEAR LINEAR LINEAR LINEAR LINEAR LINEAR LINEAR LINEAR LINEAR LINEAR LINEAR LINEAR LINEAR LINEAR LINEAR LINEAR LINEAR LINEAR LINEAR LINEAR LINEAR LINEAR LINEAR LINEAR LINEAR LINEAR LINEAR LINEAR LINEAR LINEAR LINEAR LINEAR LINEAR LINEAR LINEAR LINEAR LINEAR LINEAR LINEAR LINEAR LINEAR LINEAR LINEAR LINEAR LINEAR LINEAR LINEAR LINEAR LINEAR LINEAR LINEAR</Name_array>
        <technique_common>
          <accessor source="#Motion_118_Offset_Node_transform_interp_array_id" count="109" stride="1">
            <param name="INTERPOLATION" type="Name" />
          </accessor>
        </technique_common>
      </source>
      <source id="Motion_118_Offset_Node_transform_pose_id" name="Motion_118_Offset_Node_transform_pose">
        <float_array id="Motion_118_Offset_Node_transform_pose_array_id" count="1744">-0.08380866 0.8034718 0.58941436 6.8613358 0.0698826 -0.58529997 0.8077998 4.69483 0.99402845 0.108890444 -0.0070955753 10.273103 0 0 0 1 -0.0063990355 0.28795916 0.9576212 7.396805 0.027632117 -0.95722413 0.28802443 3.8881493 0.99959755 0.02830419 -0.0018314123 10.264438 0 0 0 1 -0.00010442734 0.065032244 0.9978832 8.110771 1.4901161E-08 -0.9978833 0.065032244 3.6526642 1 6.7949295E-06 0.00010406971 10.444963 0 0 0 1 -0.00010442734 0.065032244 0.9978832 8.110771 1.4901161E-08 -0.9978833 0.065032244 3.6526642 1 6.7949295E-06 0.00010406971 10.444963 0 0 0 1 -0.00010442734 0.065032244 0.9978832 8.110771 1.4901161E-08 -0.9978833 0.065032244 3.6526642 1 6.7949295E-06 0.00010406971 10.444963 0 0 0 1 -0.00010442734 0.065032244 0.9978832 8.110771 1.4901161E-08 -0.9978833 0.065032244 3.6526642 1 6.7949295E-06 0.00010406971 10.444963 0 0 0 1 -0.00010442734 0.065032244 0.9978832 8.110771 1.4901161E-08 -0.9978833 0.065032244 3.6526642 1 6.7949295E-06 0.00010406971 10.444963 0 0 0 1 -0.10323 0.24020654 0.96521723 8.836288 -0.4482153 -0.87752545 0.1704467 1.6802349 0.8879452 -0.41502994 0.19825119 8.846215 0 0 0 1 -0.43560076 0.04021342 0.8992411 21.27285 -0.46496284 -0.86545706 -0.18652977 12.676987 0.77075374 -0.49936628 0.39569175 12.017718 0 0 0 1 -0.24997866 0.5267422 0.81243664 24.087608 -0.4915404 0.65387607 -0.57518184 -1.2876492 -0.83420545 -0.5431286 0.09546006 25.177433 0 0 0 1 -0.19953454 0.5867764 0.7847798 38.81887 0.9632577 0.26439393 0.047227442 -4.8121376 -0.17977908 0.7653687 -0.6179726 8.610808 0 0 0 1 -0.84283066 0.5001569 0.19869477 11.249123 0.43452212 0.41458732 0.79956734 31.606262 0.31753278 0.7602371 -0.5667561 11.593118 0 0 0 1 -0.67847884 0.7345922 -0.0064111054 -3.1521225 0.34039065 0.3220988 0.88339496 20.253365 0.651 0.5971824 -0.4685856 11.727429 0 0 0 1 -0.08380866 0.8034718 0.58941436 6.8613358 0.0698826 -0.58529997 0.8077998 4.69483 0.99402845 0.108890444 -0.0070955753 10.273103 0 0 0 1 -0.027250528 0.31067157 0.9501267 6.2963295 0.10566409 -0.94425964 0.31178367 5.3925285 0.9940285 0.10889051 -0.007095456 10.449298 0 0 0 1 0.005060315 0.017508995 0.99983376 7.5277863 0.105811045 -0.9942428 0.016875565 5.6601257 0.99437326 0.10570808 -0.006883621 10.686301 0 0 0 1 0.008585691 -0.035227336 0.99934244 7.828266 0.08505614 -0.9957316 -0.035830796 5.3098145 0.9963392 0.085307844 -0.0055526495 10.958588 0 0 0 1 0.0064479113 -0.05342974 0.9985508 7.913257 0.054148603 -0.99708784 -0.053701114 4.9807014 0.998512 0.054416392 -0.003535986 11.22319 0 0 0 1 0.0030121803 -0.06378519 0.9979591 7.933563 0.023327773 -0.99768746 -0.06383824 4.6169834 0.99972326 0.023472456 -0.0015171766 11.437142 0 0 0 1 0.00045704842 -0.09334208 0.99563396 8.037575 0.0029503517 -0.99562955 -0.09334302 4.1635284 0.99999547 0.002980128 -0.00017952919 11.564235 0 0 0 1 -0.2569375 -0.35065815 0.90056777 7.638218 -0.023081332 -0.9293597 -0.36845416 4.466158 0.96615255 -0.11545594 0.2306934 10.494068 0 0 0 1 -0.57558227 -0.02358678 0.8174036 21.488579 -0.45516738 -0.8211849 -0.34420615 10.717205 0.6793583 -0.57017446 0.4619236 16.266605 0 0 0 1 -0.26685822 0.4123944 0.87104386 26.097237 -0.4317001 0.7569191 -0.4906205 -1.1504459 -0.86163884 -0.5069559 -0.023959279 23.126644 0 0 0 1 -0.19953454 0.5867764 0.7847798 38.820152 0.9632577 0.26439393 0.047227442 -4.8121376 -0.17977908 0.7653687 -0.6179726 8.610808 0 0 0 1 -0.841725 0.50002354 0.20365533 11.177212 0.43640932 0.4080273 0.8019106 31.39024 0.31787726 0.7638653 -0.5616617 11.551234 0 0 0 1 -0.674497 0.73825026 0.006308049 -3.7556496 0.34432086 0.30700535 0.88723767 20.281586 0.653067 0.6006113 -0.46126902 11.796752 0 0 0 1 0.087574124 0.891246 0.44498447 4.614151 0.09080082 -0.45198274 0.8873931 8.807053 0.9920111 -0.03730768 -0.12050772 12.900134 0 0 0 1 -0.015650988 0.27860016 0.9602795 7.317192 0.03058692 -0.9598143 0.2789637 3.700346 0.9994095 0.033738077 0.0065006614 11.734651 0 0 0 1 0.004771352 0.020223431 0.99978405 7.539345 0.10582454 -0.9941914 0.019605283 5.6941795 0.9943734 0.10570815 -0.0068837404 10.579277 0 0 0 1 0.0080266595 -0.028684888 0.9995563 8.000336 0.085110724 -0.99594176 -0.029264623 5.387665 0.9963392 0.08530787 -0.0055527687 10.756916 0 0 0 1 0.0059807897 -0.044835605 0.9989766 8.346792 0.054202132 -0.9975114 -0.045094356 5.0711336 0.99851215 0.05441636 -0.0035358667 11.052841 0 0 0 1 0.0027891397 -0.05424828 0.9985236 8.634682 0.023355471 -0.99825156 -0.054298736 4.6928844 0.9997233 0.023472434 -0.0015172958 11.354821 0 0 0 1 0.00042754412 -0.08339855 0.99651617 8.918472 0.0029547326 -0.9965117 -0.08339946 4.1995335 0.9999955 0.0029800907 -0.00017952919 11.54979 0 0 0 1 -0.23696399 -0.32892308 0.914143 11.2324295 -0.2575226 -0.8860173 -0.38555804 2.4304771 0.93676573 -0.32677594 0.12524927 12.693612 0 0 0 1 -0.477355 0.13472782 0.8683205 18.983292 -0.55731887 -0.81041 -0.18064092 14.963718 0.6793583 -0.5701613 0.46193975 16.429802 0 0 0 1 -0.2609216 -0.042839706 0.9644089 28.539604 -0.6372071 0.7581052 -0.13872135 13.781425 -0.7251806 -0.65072364 -0.22510386 9.990036 0 0 0 1 -0.19953454 0.5867764 0.7847798 38.81887 0.9632577 0.26439393 0.047227442 -4.8121376 -0.17977908 0.7653687 -0.6179726 8.610808 0 0 0 1 -0.8092222 0.5223224 0.26895937 13.592613 0.50672877 0.3888647 0.76942205 30.64486 0.29729757 0.7589227 -0.5793538 10.87823 0 0 0 1 -0.5646746 0.81319475 0.1409137 1.6440125 0.45984265 0.16822028 0.8719212 20.569618 0.6853373 0.55715 -0.46893144 12.380216 0 0 0 1 -0.08858967 0.80398816 0.58800924 8.399689 -0.12911463 -0.5946188 0.7935729 1.7104015 0.9876646 -0.005618185 0.15648377 11.239284 0 0 0 1 -0.05656123 0.28217024 0.9576956 6.278351 0.065818764 -0.9560907 0.2855846 4.462265 0.99622726 0.07918734 0.035505474 10.98799 0 0 0 1 -8.46386E-06 0.0650611 0.9978813 7.2337265 0.10557068 -0.9923049 0.064698406 5.793434 0.9944118 0.10534755 -0.006860256 10.58361 0 0 0 1 -1.3709068E-05 0.06514599 0.99787575 7.218315 0.083405815 -0.99439883 0.06492014 5.4226913 0.9965157 0.08322953 -0.0054199696 10.647156 0 0 0 1 -1.3232231E-05 0.06511964 0.99787736 7.211895 0.053645395 -0.9964403 0.06502659 4.8923683 0.99855995 0.0535324 -0.0034798384 10.7000065 0 0 0 1 -1.3947487E-05 0.06512591 0.9978771 7.211895 0.023521436 -0.99760103 0.065108225 4.4252872 0.99972343 0.023472408 -0.0015181303 10.732365 0 0 0 1 -1.5616417E-05 0.06508021 0.99788 8.773369 0.0037395116 -0.99787295 0.065079816 4.1586647 0.99999297 0.0037326068 -0.00022757053 10.742474 0 0 0 1 -0.12683511 -0.410254 0.9031082 10.018948 -0.13998125 -0.89394665 -0.42575163 4.5449753 0.98199695 -0.1804185 0.055956066 10.908559 0 0 0 1 -0.2854309 0.38007665 0.8798132 13.311394 -0.6799598 -0.7272539 0.09357752 19.964363 0.6754141 -0.5715276 0.46601725 16.451466 0 0 0 1 -0.13596988 -0.1215789 0.98322487 25.957268 -0.6358501 0.7717762 0.007501185 15.589409 -0.75974154 -0.62416357 -0.1822443 17.183685 0 0 0 1 -0.1162734 0.60598516 0.78693235 36.79512 0.97301185 0.22849894 -0.032190382 -8.05735 -0.19932011 0.7619516 -0.616199 9.497558 0 0 0 1 -0.7716644 0.48617154 0.41008663 15.562431 0.56953984 0.2411781 0.7857846 22.568317 0.28312224 0.8399228 -0.46300244 11.389483 0 0 0 1 -0.58403766 0.77861387 0.22947985 1.9175301 0.26780707 -0.08204985 0.9599727 14.725311 0.76627666 0.62211627 -0.16059828 10.384308 0 0 0 1 -0.08380866 0.8034718 0.58941436 7.2722473 0.0698826 -0.58529997 0.8077998 4.3523064 0.99402845 0.108890444 -0.0070955753 5.3930902 0 0 0 1 -0.08380866 0.8034718 0.58941436 7.2722473 0.0698826 -0.58529997 0.8077998 4.3523064 0.99402845 0.108890444 -0.0070955753 5.3930902 0 0 0 1 -0.08381772 0.8034651 0.5894221 7.2722473 0.06989035 -0.5853069 0.80779403 4.3523064 0.99402714 0.108902335 -0.007095456 5.3930902 0 0 0 1 -0.08379972 0.80347824 0.58940667 7.2722473 0.06987479 -0.58529305 0.8078053 4.3523064 0.9940297 0.10887861 -0.007095456 5.3930902 0 0 0 1 -0.08380866 0.8034718 0.58941436 7.2722473 0.0698826 -0.58529997 0.8077998 4.3523064 0.99402845 0.108890444 -0.0070955753 5.3930902 0 0 0 1 -0.08380866 0.8034718 0.58941436 6.6417503 0.0698826 -0.58529997 0.8077998 5.554058 0.99402845 0.108890444 -0.0070955753 5.003151 0 0 0 1 0.023088276 0.8645532 0.5020105 8.051697 0.08962265 -0.50191236 0.86026245 4.494377 0.99570805 0.025129616 -0.08907175 4.356142 0 0 0 1 -0.08380866 0.8034718 0.58941436 7.477707 0.0698826 -0.58529997 0.8077998 4.3075447 0.99402845 0.108890444 -0.0070955753 5.629942 0 0 0 1 0.06489682 0.66351485 0.7453431 3.4160767 -0.9978874 0.04540044 0.04646972 9.311108 -0.0030055344 -0.7467843 0.6650595 7.6258516 0 0 0 1 -0.36604285 0.86441064 0.34468362 7.7152634 0.017032295 0.37655032 -0.9262396 3.8326836 -0.9304421 -0.3331727 -0.15255642 2.6591864 0 0 0 1 -0.07940233 0.8848851 -0.4589923 7.7460823 0.96224785 -0.05221188 -0.26712015 -1.0122681 -0.2603354 -0.46287426 -0.84733295 10.271659 0 0 0 1 -0.33134735 0.46890175 -0.8187431 3.0064507 -0.33004868 0.75533545 0.5661592 -4.151417 0.88389874 0.45782036 -0.09551811 -3.3790894 0 0 0 1 0.29797572 -0.3847074 -0.8736193 7.0539474 -0.81113416 -0.5845432 -0.019253522 5.696129 -0.5032612 0.7143595 -0.48622906 -4.943177 0 0 0 1 -0.03468108 -0.9495828 -0.31159234 8.942867 -0.13406494 -0.30454147 0.943017 3.3344688 -0.9903655 0.07447851 -0.11674392 -3.5134015 0 0 0 1 -0.13997102 -0.14100802 0.9800635 8.183964 -0.29730666 0.95011985 0.09423895 2.8557148 -0.9444663 -0.2781887 -0.17491186 -1.8482182 0 0 0 1 -0.11758232 0.13605888 0.9836984 8.832436 -0.15464686 0.97597617 -0.15347584 4.1372566 -0.98094803 -0.17017187 -0.0937165 2.8426013 0 0 0 1 0.07147449 0.090934314 0.99328864 7.3749733 -0.110540055 0.9904235 -0.082717836 4.484646 -0.9912983 -0.10388596 0.0808419 4.842843 0 0 0 1 0.20170993 -0.19062077 0.96071684 7.1451225 -0.07897864 0.97451884 0.20994148 6.8414383 -0.9762559 -0.1182234 0.1815151 16.470242 0 0 0 1 0.6574142 -0.6919486 0.2983516 7.7075577 0.20078175 0.54248047 0.8157215 9.9134445 -0.7262873 -0.4763634 0.49556506 50.56967 0 0 0 1 0.97519785 0.21695954 -0.04379215 -18.688513 0.16590935 -0.58558095 0.7934538 3.5436783 0.14650354 -0.78103995 -0.6070529 73.080696 0 0 0 1 0.14719719 0.38934708 -0.9092535 -31.925072 -0.30129856 0.8932288 0.33370864 17.955929 0.9420999 0.22483575 0.2487905 77.81196 0 0 0 1 -0.74981916 0.5198897 -0.4092502 -38.37 -0.019520074 0.6008852 0.79909694 28.833965 0.6613547 0.6071669 -0.44040692 77.079735 0 0 0 1 -0.87196314 -0.11488667 0.47590053 -42.542057 0.009520169 0.96791273 0.25110608 28.410675 -0.48947895 0.2234859 -0.8428905 81.955414 0 0 0 1 -0.19221973 -0.7067549 0.68084437 -30.566488 -0.4112867 0.68792975 0.5979932 25.254982 -0.8910077 -0.16507615 -0.4229126 86.86431 0 0 0 1 0.49954814 -0.8629708 -0.075716674 -7.9546776 -0.13132617 -0.16183364 0.97804046 20.126865 -0.85627395 -0.4786347 -0.19417429 76.22332 0 0 0 1 0.421296 -0.38525647 -0.8210281 10.445274 0.87348956 -0.071172476 0.48161244 -2.4154453 -0.24397895 -0.9200609 0.3065328 56.20645 0 0 0 1 -0.63518727 -0.6962453 -0.3343348 15.936108 0.53056 -0.07875502 -0.8439809 6.555355 0.56128716 -0.7134706 0.41942406 33.760418 0 0 0 1 -0.37781644 0.3613256 0.85246605 4.5615044 0.14559504 -0.8860682 0.44009653 14.511234 0.9143613 0.29039058 0.28216404 15.462178 0 0 0 1 -0.15747821 0.4893211 0.85776764 7.9669495 -0.10608584 -0.8719617 0.47794187 4.8154907 0.98180765 -0.015731543 0.18922514 9.815286 0 0 0 1 0.10046917 0.9887315 0.11097717 7.8192787 0.021618575 -0.113684654 0.99328166 4.3844185 0.9947053 -0.097395 -0.03279686 7.088602 0 0 0 1 0.1831665 0.97332764 0.13814235 7.9232903 0.062413782 -0.15174973 0.9864465 4.600441 0.98109865 -0.17206204 -0.08854461 3.8939924 0 0 0 1 -0.07983744 0.967455 0.24011794 6.336136 -0.15818739 -0.2501309 0.9552021 3.0600586 0.98417616 0.0382773 0.1730091 3.8766613 0 0 0 1 0.30667335 0.83008844 0.46573043 9.271599 0.21169037 -0.5365362 0.8168944 6.870632 0.92797565 -0.15192917 -0.34026313 3.013019 0 0 0 1 -0.15962219 0.75550747 0.63539684 10.000969 -0.16567314 0.6140188 -0.771708 4.454481 -0.97317684 -0.22844991 0.027156293 8.804334 0 0 0 1 -0.0772804 0.96071357 -0.26656577 5.0186424 0.9564467 0.14692414 0.25223628 -3.548111 0.2814918 -0.23546302 -0.9302256 6.2061844 0 0 0 1 -0.75667965 -0.028097272 -0.6531819 4.630844 -0.6101142 0.38936758 0.6900388 -4.3051643 0.23493966 0.9206538 -0.31176913 -3.542286 0 0 0 1 -0.34400618 -0.82732296 -0.44406778 6.3065987 -0.36815023 -0.31622398 0.8743383 4.2764072 -0.8637852 0.4642616 -0.19579601 -1.1925435 0 0 0 1 -0.55616665 -0.8217174 0.1243321 6.0690384 -0.06468582 0.19195282 0.97926986 3.309166 -0.82854915 0.5365951 -0.15991104 -0.5123167 0 0 0 1 -0.21000564 -0.3528661 0.9118021 6.4568443 -0.13611627 0.9340688 0.33013308 4.205372 -0.9681787 -0.054781303 -0.24419045 -0.916698 0 0 0 1 -0.4846592 -0.14549115 0.86251813 7.9220047 0.051801935 0.9795649 0.19434293 5.934532 -0.8731677 0.13887022 -0.4672184 -0.07038593 0 0 0 1 -0.47045624 0.18280074 0.8632813 8.9865265 -0.054757856 0.97037446 -0.23531881 2.644556 -0.8807226 -0.15797865 -0.44650888 1.5875759 0 0 0 1 -0.029145837 -0.45167726 0.8917052 7.8577995 -0.20035689 0.8766197 0.43748724 11.220287 -0.97928935 -0.16590835 -0.11604643 10.806019 0 0 0 1 0.58892655 -0.6530223 0.47615892 11.38139 0.038648456 0.6112516 0.79049206 22.064266 -0.8072619 -0.447139 0.38522065 39.52285 0 0 0 1 0.8998724 -0.24120264 -0.36338806 17.037872 -0.01243566 -0.84701645 0.5314212 26.622158 -0.43597585 -0.4736923 -0.76520634 70.287575 0 0 0 1 0.72055316 0.4669702 -0.5125836 19.798698 -0.13101171 0.8176027 0.5606797 36.34515 0.68091047 -0.33684507 0.6503048 81.55826 0 0 0 1 -0.028028727 0.91234684 -0.40845743 3.7473755 -0.048125416 0.40691257 0.9121984 36.63026 0.9984479 0.045224935 0.032501876 88.63781 0 0 0 1 -0.761261 0.021201923 -0.6480986 -41.171917 -0.32807183 0.84951675 0.41314662 1.9098816 0.5593301 0.52713543 -0.6397482 89.70364 0 0 0 1 -0.8410597 -0.50458664 -0.19496404 -45.333702 -0.53047734 0.6988051 0.47985965 -22.607779 -0.10588889 0.5070146 -0.85540867 87.20659 0 0 0 1 -0.6148155 -0.7885205 0.015408695 -28.044506 -0.50332326 0.4073366 0.7620647 -27.140373 -0.6071802 0.4607736 -0.6473175 87.79872 0 0 0 1 -0.32668674 0.807608 -0.49096313 1.004528 -0.4522524 -0.5897093 -0.6691116 -25.810177 -0.8299056 0.003449291 0.5578931 78.03147 0 0 0 1 -0.22993612 0.8904655 -0.39268383 25.559196 -0.07547563 -0.41859627 -0.9050307 -17.798828 -0.97027457 -0.1784612 0.16345882 54.203323 0 0 0 1 -0.66638875 0.7082872 -0.23292664 37.11743 0.31917602 -0.01134038 -0.9476274 3.9426422 -0.67383397 -0.7058331 -0.21851099 15.439071 0 0 0 1 -0.8979223 0.3245859 -0.29728678 17.66323 0.3528337 0.12700683 -0.92702615 16.484638 -0.26314226 -0.9372903 -0.22856712 -3.078692 0 0 0 1 -0.79312885 0.49606597 -0.35336247 10.669991 0.58917534 0.4778909 -0.651531 18.142761 -0.15433368 -0.72494054 -0.671299 -1.1116672 0 0 0 1 -0.61568666 0.74933165 -0.24378712 9.261326 0.71472937 0.66131717 0.22764352 22.443764 0.3318011 -0.034084737 -0.9427335 8.197762 0 0 0 1 -0.19170678 0.97899926 0.06934625 8.565342 0.44681895 0.024149239 0.8942983 16.9595 0.8738428 0.20242831 -0.442065 16.113522 0 0 0 1 -0.19170678 0.97899926 0.06934625 8.565342 0.44681895 0.024149239 0.8942983 16.9595 0.8738428 0.20242831 -0.442065 16.113522 0 0 0 1</float_array>
        <technique_common>
          <accessor source="#Motion_118_Offset_Node_transform_pose_array_id" count="109" stride="16">
            <param name="TRANSFORM" type="float4x4" />
          </accessor>
        </technique_common>
      </source>
      <sampler id="Motion_118_Offset_Node_transform_samp_id">
        <input semantic="INPUT" source="#Motion_118_Offset_Node_transform_frame_id" />
        <input semantic="INTERPOLATION" source="#Motion_118_Offset_Node_transform_interp_id" />
        <input semantic="OUTPUT" source="#Motion_118_Offset_Node_transform_pose_id" />
      </sampler>
      <channel source="#Motion_118_Offset_Node_transform_samp_id" target="Offset_Node_bone_id/transform" />
    </animation>
  </library_animations>
  <library_visual_scenes>
    <visual_scene id="ob0008_00_fi_00_clip_id" name="ob0008_00_fi_00_clip">
      <node id="ob0008_00_fi_bone_id" name="ob0008_00_fi" sid="ob0008_00_fi" type="JOINT">
        <matrix sid="transform">1 0 0 0 0 1 0 0 0 0 1 0 0 0 0 1</matrix>
        <node id="Origin_bone_id" name="Origin" sid="Origin" type="JOINT">
          <matrix sid="transform">1 0 0 0 0 1 0 0 0 0 1 0 0 0 0 1</matrix>
          <node id="Loc_Attach_bone_id" name="Loc_Attach" sid="Loc_Attach" type="JOINT">
            <matrix sid="transform">1 0 0 0 0 1 0 0 0 0 1 0 0 0 0 1</matrix>
            <node id="Offset_Node_bone_id" name="Offset_Node" sid="Offset_Node" type="JOINT">
              <matrix sid="transform">3.1391647E-07 0 -1 0 0 1 0 0 1 0 3.1391647E-07 0 0 0 0 1</matrix>
            </node>
          </node>
        </node>
        <node id="ob0008_00_fi_StickSkin_bone_id" name="ob0008_00_fi_StickSkin" sid="ob0008_00_fi_StickSkin" type="JOINT">
          <matrix sid="transform">1 0 0 0 0 1 0 0 0 0 1 0 0 0 0 1</matrix>
        </node>
      </node>
    </visual_scene>
  </library_visual_scenes>
  <scene>
    <instance_visual_scene url="#ob0008_00_fi_00_clip_id" />
  </scene>
</COLLADA>