<?xml version="1.0" encoding="utf-8"?>
<COLLADA xmlns:xsi="http://www.w3.org/2001/XMLSchema-instance" xmlns:xsd="http://www.w3.org/2001/XMLSchema" version="1.4.1" xmlns="http://www.collada.org/2005/11/COLLADASchema">
  <asset>
    <created>2026-02-17T05:46:53.7398453-05:00</created>
    <modified>2026-02-17T05:46:53.7398455-05:00</modified>
    <up_axis>Y_UP</up_axis>
  </asset>
  <library_animations>
    <animation id="Motion_7_Waist_transform_id" name="Motion_7_Waist_transform">
      <source id="Motion_7_Waist_transform_frame_id" name="Motion_7_Waist_transform_frame">
        <float_array id="Motion_7_Waist_transform_frame_array_id" count="16">0 0.033333335 0.06666667 0.1 0.13333334 0.16666667 0.2 0.23333333 0.26666668 0.3 0.33333334 0.36666667 0.4 0.43333334 0.46666667 0.5</float_array>
        <technique_common>
          <accessor source="#Motion_7_Waist_transform_frame_array_id" count="16" stride="1">
            <param name="TIME" type="float" />
          </accessor>
        </technique_common>
      </source>
      <source id="Motion_7_Waist_transform_interp_id" name="Motion_7_Waist_transform_interp">
        <Name_array id="Motion_7_Waist_transform_interp_array_id" count="16">LINEAR LINEAR LINEAR LINEAR LINEAR LINEAR LINEAR LINEAR LINEAR LINEAR LINEAR LINEAR LINEAR LINEAR LINEAR LINEAR</Name_array>
        <technique_common>
          <accessor source="#Motion_7_Waist_transform_interp_array_id" count="16" stride="1">
            <param name="INTERPOLATION" type="Name" />
          </accessor>
        </technique_common>
      </source>
      <source id="Motion_7_Waist_transform_pose_id" name="Motion_7_Waist_transform_pose">
        <float_array id="Motion_7_Waist_transform_pose_array_id" count="256">0.7886661 0.05210057 -0.6126102 2.5360098 0.57630086 0.28450114 0.7661178 102.093704 0.21420346 -0.95725894 0.19435078 37.376083 0 0 0 1 0.7865848 0.053447038 -0.6151649 2.380557 0.57949865 0.2801246 0.76531804 102.3362 0.21322685 -0.95847476 0.1893692 37.106346 0 0 0 1 0.78430766 0.05497977 -0.617931 2.2328472 0.5828935 0.27565438 0.7643624 102.56228 0.21235989 -0.95968324 0.18415046 36.853817 0 0 0 1 0.7818474 0.05673787 -0.62088287 2.0959678 0.5864322 0.27119935 0.7632485 102.75995 0.21168819 -0.9608496 0.17876357 36.637196 0 0 0 1 0.7792169 0.058758765 -0.6239939 1.9730064 0.59006286 0.26687008 0.7619751 102.91723 0.21129802 -0.9619395 0.17327833 36.466274 0 0 0 1 0.77650267 0.060994208 -0.62715495 1.8670505 0.5936699 0.26276475 0.7605989 103.022095 0.21118632 -0.9629301 0.16782713 36.333076 0 0 0 1 0.77386624 0.063310206 -0.63017684 1.7811879 0.597075 0.2589699 0.75923395 103.06255 0.21126412 -0.9638083 0.16260713 36.229652 0 0 0 1 0.77144825 0.06564292 -0.63289696 1.7185055 0.6001066 0.25558776 0.7579887 103.03653 0.21151729 -0.9645548 0.15777999 36.148037 0 0 0 1 0.7693994 0.0679338 -0.6351453 1.6795188 0.60257107 0.2527753 0.7569761 102.95318 0.21197335 -0.9651371 0.15355027 36.08028 0 0 0 1 0.76786184 0.07009584 -0.63676906 1.6628555 0.6042894 0.2507077 0.7562936 102.81734 0.21265596 -0.96552175 0.15015066 36.025013 0 0 0 1 0.7669773 0.072042614 -0.63761723 1.6687713 0.60508287 0.24955863 0.75603926 102.63383 0.21358995 -0.9656762 0.14781404 35.988846 0 0 0 1 0.76688665 0.07368985 -0.63753796 1.6975223 0.6047697 0.24950081 0.7563088 102.40749 0.2147986 -0.96556675 0.14677346 35.97578 0 0 0 1 0.7677114 0.07485166 -0.63640904 1.7493644 0.6031467 0.25100088 0.7571081 102.143166 0.21641004 -0.9650885 0.14754975 35.989815 0 0 0 1 0.76955473 0.07538706 -0.63411534 1.8245538 0.6000605 0.25429875 0.75845873 101.84567 0.21843275 -0.9641831 0.15046 36.03495 0 0 0 1 0.7721579 0.07532343 -0.63095045 1.9233463 0.5958438 0.2591654 0.76013374 101.519844 0.22077641 -0.9628912 0.15523565 36.109665 0 0 0 1 0.7721579 0.07532343 -0.63095045 1.9233463 0.5958438 0.2591654 0.76013374 101.519844 0.22077641 -0.9628912 0.15523565 36.109665 0 0 0 1</float_array>
        <technique_common>
          <accessor source="#Motion_7_Waist_transform_pose_array_id" count="16" stride="16">
            <param name="TRANSFORM" type="float4x4" />
          </accessor>
        </technique_common>
      </source>
      <sampler id="Motion_7_Waist_transform_samp_id">
        <input semantic="INPUT" source="#Motion_7_Waist_transform_frame_id" />
        <input semantic="INTERPOLATION" source="#Motion_7_Waist_transform_interp_id" />
        <input semantic="OUTPUT" source="#Motion_7_Waist_transform_pose_id" />
      </sampler>
      <channel source="#Motion_7_Waist_transform_samp_id" target="Waist_bone_id/transform" />
    </animation>
    <animation id="Motion_7_Spine2_transform_id" name="Motion_7_Spine2_transform">
      <source id="Motion_7_Spine2_transform_frame_id" name="Motion_7_Spine2_transform_frame">
        <float_array id="Motion_7_Spine2_transform_frame_array_id" count="16">0 0.033333335 0.06666667 0.1 0.13333334 0.16666667 0.2 0.23333333 0.26666668 0.3 0.33333334 0.36666667 0.4 0.43333334 0.46666667 0.5</float_array>
        <technique_common>
          <accessor source="#Motion_7_Spine2_transform_frame_array_id" count="16" stride="1">
            <param name="TIME" type="float" />
          </accessor>
        </technique_common>
      </source>
      <source id="Motion_7_Spine2_transform_interp_id" name="Motion_7_Spine2_transform_interp">
        <Name_array id="Motion_7_Spine2_transform_interp_array_id" count="16">LINEAR LINEAR LINEAR LINEAR LINEAR LINEAR LINEAR LINEAR LINEAR LINEAR LINEAR LINEAR LINEAR LINEAR LINEAR LINEAR</Name_array>
        <technique_common>
          <accessor source="#Motion_7_Spine2_transform_interp_array_id" count="16" stride="1">
            <param name="INTERPOLATION" type="Name" />
          </accessor>
        </technique_common>
      </source>
      <source id="Motion_7_Spine2_transform_pose_id" name="Motion_7_Spine2_transform_pose">
        <float_array id="Motion_7_Spine2_transform_pose_array_id" count="256">0.955981 0.107035175 -0.27321002 12.099998 -0.15027641 0.9783123 -0.14255539 0 0.2520263 0.17733726 0.95133287 0 0 0 0 1 0.95465815 0.10805433 -0.27740243 12.099998 -0.1543792 0.9764125 -0.15094952 0 0.25454846 0.18693034 0.9488214 0 0 0 0 1 0.95306903 0.10848657 -0.28264824 12.099998 -0.15822092 0.9744363 -0.1594993 0 0.2581192 0.19673471 0.9458699 0 0 0 0 1 0.951117 0.10805427 -0.28931084 12.099998 -0.16161866 0.9724246 -0.16813618 0 0.26316515 0.2066752 0.9423531 0 0 0 0 1 0.94893557 0.106569335 -0.29692468 12.099998 -0.16432478 0.97041994 -0.17686848 0 0.26929286 0.21662886 0.93837804 0 0 0 0 1 0.9466121 0.103833646 -0.30519518 12.099998 -0.1661013 0.9684661 -0.18569799 0 0.2762895 0.22647728 0.93400866 0 0 0 0 1 0.94423604 0.09965709 -0.31382594 12.099998 -0.16670674 0.9666055 -0.19463472 0 0.28394917 0.23609804 0.9293173 0 0 0 0 1 0.9418981 0.09385727 -0.3225194 12.099998 -0.16589539 0.96487653 -0.20369586 0 0.29207304 0.24536523 0.9243859 0 0 0 0 1 0.9396455 0.08658499 -0.33101258 12.099998 -0.16374218 0.9632677 -0.21284713 0 0.30042437 0.25420156 0.91930777 0 0 0 0 1 0.9374861 0.07834871 -0.33908886 12.099998 -0.16066736 0.9617209 -0.2219885 0 0.30871636 0.26259166 0.9141881 0 0 0 0 1 0.9354601 0.069546975 -0.34652227 12.099998 -0.15690205 0.9602566 -0.23084414 0 0.3166958 0.27031553 0.90919375 0 0 0 0 1 0.93358654 0.06079336 -0.35315773 12.099998 -0.15247937 0.95923126 -0.23796107 0 0.32429346 0.27600652 0.9047951 0 0 0 0 1 0.9318698 0.05278366 -0.35893244 12.099998 -0.14734778 0.95914924 -0.24149817 0 0.33152264 0.27793276 0.9015798 0 0 0 0 1 0.93034494 0.04614517 -0.36377048 12.099998 -0.14150457 0.9603865 -0.24007131 0 0.3382821 0.27482432 0.9000204 0 0 0 0 1 0.9290615 0.041220684 -0.3676215 12.099998 -0.13519636 0.9628618 -0.23370749 0 0.3443351 0.26682973 0.9001307 0 0 0 0 1 0.9290615 0.041220684 -0.3676215 12.099998 -0.13519636 0.9628618 -0.23370749 0 0.3443351 0.26682973 0.9001307 0 0 0 0 1</float_array>
        <technique_common>
          <accessor source="#Motion_7_Spine2_transform_pose_array_id" count="16" stride="16">
            <param name="TRANSFORM" type="float4x4" />
          </accessor>
        </technique_common>
      </source>
      <sampler id="Motion_7_Spine2_transform_samp_id">
        <input semantic="INPUT" source="#Motion_7_Spine2_transform_frame_id" />
        <input semantic="INTERPOLATION" source="#Motion_7_Spine2_transform_interp_id" />
        <input semantic="OUTPUT" source="#Motion_7_Spine2_transform_pose_id" />
      </sampler>
      <channel source="#Motion_7_Spine2_transform_samp_id" target="Spine2_bone_id/transform" />
    </animation>
    <animation id="Motion_7_Spine3_transform_id" name="Motion_7_Spine3_transform">
      <source id="Motion_7_Spine3_transform_frame_id" name="Motion_7_Spine3_transform_frame">
        <float_array id="Motion_7_Spine3_transform_frame_array_id" count="16">0 0.033333335 0.06666667 0.1 0.13333334 0.16666667 0.2 0.23333333 0.26666668 0.3 0.33333334 0.36666667 0.4 0.43333334 0.46666667 0.5</float_array>
        <technique_common>
          <accessor source="#Motion_7_Spine3_transform_frame_array_id" count="16" stride="1">
            <param name="TIME" type="float" />
          </accessor>
        </technique_common>
      </source>
      <source id="Motion_7_Spine3_transform_interp_id" name="Motion_7_Spine3_transform_interp">
        <Name_array id="Motion_7_Spine3_transform_interp_array_id" count="16">LINEAR LINEAR LINEAR LINEAR LINEAR LINEAR LINEAR LINEAR LINEAR LINEAR LINEAR LINEAR LINEAR LINEAR LINEAR LINEAR</Name_array>
        <technique_common>
          <accessor source="#Motion_7_Spine3_transform_interp_array_id" count="16" stride="1">
            <param name="INTERPOLATION" type="Name" />
          </accessor>
        </technique_common>
      </source>
      <source id="Motion_7_Spine3_transform_pose_id" name="Motion_7_Spine3_transform_pose">
        <float_array id="Motion_7_Spine3_transform_pose_array_id" count="256">0.9628438 0.08594961 -0.25601673 12.099991 -0.11515259 0.98816633 -0.10132714 0 0.24427807 0.12704319 0.9613471 0 0 0 0 1 0.96413857 0.08394194 -0.25177476 12.099991 -0.11434607 0.9874822 -0.10864588 0 0.23950315 0.13353914 0.96166813 0 0 0 0 1 0.9654101 0.07981378 -0.2482198 12.099991 -0.11222671 0.98649704 -0.1192844 0 0.23534755 0.14301525 0.9613314 0 0 0 0 1 0.96664435 0.07302937 -0.24549012 12.099991 -0.108152896 0.9852278 -0.13277446 0 0.23216726 0.15489615 0.96026325 0 0 0 0 1 0.9676909 0.064375035 -0.24378307 12.099991 -0.102775805 0.98359793 -0.14823039 0 0.23024218 0.1684962 0.95843494 0 0 0 0 1 0.9684299 0.054329336 -0.24329364 12.099991 -0.09647326 0.9815953 -0.1648139 0 0.22986165 0.18308204 0.95584756 0 0 0 0 1 0.9687452 0.04335944 -0.24423909 12.099991 -0.08963959 0.9792602 -0.181698 0 0.23129532 0.19791254 0.95254034 0 0 0 0 1 0.96852416 0.03192465 -0.24686378 12.099991 -0.08267886 0.97669506 -0.19806807 0 0.23478737 0.21224414 0.9485923 0 0 0 0 1 0.96765596 0.020481648 -0.25144076 12.099991 -0.07599609 0.9740655 -0.21312217 0 0.24055466 0.22533746 0.9441168 0 0 0 0 1 0.9660584 0.009506606 -0.25814894 12.099991 -0.06997211 0.9715939 -0.22607332 0 0.24866675 0.23646325 0.93928164 0 0 0 0 1 0.9637982 -0.00047904626 -0.26663232 12.099991 -0.06493516 0.9694681 -0.23646349 0 0.25860482 0.2452169 0.93434054 0 0 0 0 1 0.961004 -0.008980257 -0.2763885 12.099991 -0.061227232 0.9677569 -0.24433114 0 0.26967105 0.2517257 0.9294685 0 0 0 0 1 0.9578332 -0.015636045 -0.28689924 12.099991 -0.059004497 0.96653247 -0.2496668 0 0.2812012 0.25606748 0.9248542 0 0 0 0 1 0.95446515 -0.020057796 -0.2976473 12.099991 -0.05842688 0.965846 -0.25244367 0 0.2925449 0.2583393 0.9206945 0 0 0 0 1 0.9510961 -0.021689104 -0.30813268 12.099991 -0.059813015 0.9657209 -0.2525975 0 0.30304876 0.25867486 0.91719615 0 0 0 0 1 0.9510961 -0.021689104 -0.30813268 12.099991 -0.059813015 0.9657209 -0.2525975 0 0.30304876 0.25867486 0.91719615 0 0 0 0 1</float_array>
        <technique_common>
          <accessor source="#Motion_7_Spine3_transform_pose_array_id" count="16" stride="16">
            <param name="TRANSFORM" type="float4x4" />
          </accessor>
        </technique_common>
      </source>
      <sampler id="Motion_7_Spine3_transform_samp_id">
        <input semantic="INPUT" source="#Motion_7_Spine3_transform_frame_id" />
        <input semantic="INTERPOLATION" source="#Motion_7_Spine3_transform_interp_id" />
        <input semantic="OUTPUT" source="#Motion_7_Spine3_transform_pose_id" />
      </sampler>
      <channel source="#Motion_7_Spine3_transform_samp_id" target="Spine3_bone_id/transform" />
    </animation>
    <animation id="Motion_7_Neck_transform_id" name="Motion_7_Neck_transform">
      <source id="Motion_7_Neck_transform_frame_id" name="Motion_7_Neck_transform_frame">
        <float_array id="Motion_7_Neck_transform_frame_array_id" count="16">0 0.033333335 0.06666667 0.1 0.13333334 0.16666667 0.2 0.23333333 0.26666668 0.3 0.33333334 0.36666667 0.4 0.43333334 0.46666667 0.5</float_array>
        <technique_common>
          <accessor source="#Motion_7_Neck_transform_frame_array_id" count="16" stride="1">
            <param name="TIME" type="float" />
          </accessor>
        </technique_common>
      </source>
      <source id="Motion_7_Neck_transform_interp_id" name="Motion_7_Neck_transform_interp">
        <Name_array id="Motion_7_Neck_transform_interp_array_id" count="16">LINEAR LINEAR LINEAR LINEAR LINEAR LINEAR LINEAR LINEAR LINEAR LINEAR LINEAR LINEAR LINEAR LINEAR LINEAR LINEAR</Name_array>
        <technique_common>
          <accessor source="#Motion_7_Neck_transform_interp_array_id" count="16" stride="1">
            <param name="INTERPOLATION" type="Name" />
          </accessor>
        </technique_common>
      </source>
      <source id="Motion_7_Neck_transform_pose_id" name="Motion_7_Neck_transform_pose">
        <float_array id="Motion_7_Neck_transform_pose_array_id" count="256">0.7368327 -0.47302675 -0.48303553 15.720233 -0.07399845 0.65375054 -0.7530833 0 0.6720133 0.59064025 0.44670153 0 0 0 0 1 0.73746586 -0.47302008 -0.4820748 15.720233 -0.07185529 0.65477586 -0.7523997 0 0.67155117 0.58950865 0.44888586 0 0 0 0 1 0.73777866 -0.4732017 -0.48141745 15.720233 -0.069171384 0.6564168 -0.7512205 0 0.6714893 0.5875347 0.4515583 0 0 0 0 1 0.7377944 -0.4735394 -0.48106122 15.720233 -0.066071525 0.65857434 -0.74960953 0 0.67178416 0.58484215 0.45460498 0 0 0 0 1 0.7375361 -0.4739998 -0.4810039 15.720233 -0.062680066 0.6611495 -0.7476313 0 0.6723926 0.5815544 0.45791125 0 0 0 0 1 0.7370269 -0.47454858 -0.48124322 15.720233 -0.05912137 0.66404474 -0.7453518 0 0.67327267 0.5777961 0.46136284 0 0 0 0 1 0.73629045 -0.4751507 -0.4817761 15.720233 -0.05551976 0.66716397 -0.7428391 0 0.6743841 0.5736934 0.46484613 0 0 0 0 1 0.735352 -0.47578043 -0.48258725 15.720233 -0.052015305 0.67038465 -0.74018836 0 0.67568624 0.5694009 0.46822083 0 0 0 0 1 0.7342392 -0.47642207 -0.4836474 15.720233 -0.048764765 0.6735565 -0.73752534 0 0.6771372 0.56510496 0.47131896 0 0 0 0 1 0.73297906 -0.47705618 -0.48493207 15.720233 -0.04591927 0.676547 -0.7349664 0 0.6786996 0.5609827 0.4739887 0 0 0 0 1 0.73159885 -0.47766417 -0.48641554 15.720233 -0.043631196 0.6792267 -0.7326305 0 0.6803378 0.5572146 0.47608042 0 0 0 0 1 0.73012614 -0.4782285 -0.48807105 15.720233 -0.042053804 0.6814697 -0.7306371 0 0.6820171 0.5539825 0.4774475 0 0 0 0 1 0.72858804 -0.47873348 -0.48987108 15.720233 -0.041341662 0.68315065 -0.7291063 0 0.68370336 0.5514703 0.47794378 0 0 0 0 1 0.72701156 -0.4791649 -0.49178773 15.720233 -0.041649982 0.6841448 -0.7281561 0 0.68536085 0.54986084 0.47742397 0 0 0 0 1 0.7254231 -0.47951055 -0.4937924 15.720233 -0.043134496 0.68432474 -0.72790045 0 0.6869503 0.5493353 0.4757415 0 0 0 0 1 0.7254231 -0.47951055 -0.4937924 15.720233 -0.043134496 0.68432474 -0.72790045 0 0.6869503 0.5493353 0.4757415 0 0 0 0 1</float_array>
        <technique_common>
          <accessor source="#Motion_7_Neck_transform_pose_array_id" count="16" stride="16">
            <param name="TRANSFORM" type="float4x4" />
          </accessor>
        </technique_common>
      </source>
      <sampler id="Motion_7_Neck_transform_samp_id">
        <input semantic="INPUT" source="#Motion_7_Neck_transform_frame_id" />
        <input semantic="INTERPOLATION" source="#Motion_7_Neck_transform_interp_id" />
        <input semantic="OUTPUT" source="#Motion_7_Neck_transform_pose_id" />
      </sampler>
      <channel source="#Motion_7_Neck_transform_samp_id" target="Neck_bone_id/transform" />
    </animation>
    <animation id="Motion_7_Head_transform_id" name="Motion_7_Head_transform">
      <source id="Motion_7_Head_transform_frame_id" name="Motion_7_Head_transform_frame">
        <float_array id="Motion_7_Head_transform_frame_array_id" count="16">0 0.033333335 0.06666667 0.1 0.13333334 0.16666667 0.2 0.23333333 0.26666668 0.3 0.33333334 0.36666667 0.4 0.43333334 0.46666667 0.5</float_array>
        <technique_common>
          <accessor source="#Motion_7_Head_transform_frame_array_id" count="16" stride="1">
            <param name="TIME" type="float" />
          </accessor>
        </technique_common>
      </source>
      <source id="Motion_7_Head_transform_interp_id" name="Motion_7_Head_transform_interp">
        <Name_array id="Motion_7_Head_transform_interp_array_id" count="16">LINEAR LINEAR LINEAR LINEAR LINEAR LINEAR LINEAR LINEAR LINEAR LINEAR LINEAR LINEAR LINEAR LINEAR LINEAR LINEAR</Name_array>
        <technique_common>
          <accessor source="#Motion_7_Head_transform_interp_array_id" count="16" stride="1">
            <param name="INTERPOLATION" type="Name" />
          </accessor>
        </technique_common>
      </source>
      <source id="Motion_7_Head_transform_pose_id" name="Motion_7_Head_transform_pose">
        <float_array id="Motion_7_Head_transform_pose_array_id" count="256">0.70650303 0.32685518 0.6277095 5.129917 0.0706989 0.84992516 -0.5221388 0 -0.70416987 0.413271 0.57736635 0 0 0 0 1 0.69606096 0.3294583 0.6379313 5.129917 0.074026 0.85083914 -0.5201855 0 -0.7141563 0.40930432 0.56784743 0 0 0 0 1 0.68487084 0.33280897 0.6482208 5.129917 0.07285838 0.85386574 -0.5153688 0 -0.7250129 0.4001894 0.5605398 0 0 0 0 1 0.6728347 0.33848983 0.65781313 5.129917 0.066525936 0.8578993 -0.509493 0 -0.7367956 0.3865662 0.5547061 0 0 0 0 1 0.6601893 0.34579635 0.6667646 5.129917 0.0566009 0.86228985 -0.503242 0 -0.7489636 0.36997446 0.54970205 0 0 0 0 1 0.6477096 0.35443258 0.67442554 5.129917 0.043985173 0.8663318 -0.49752834 0 -0.7606166 0.3519186 0.54554164 0 0 0 0 1 0.6364845 0.36387706 0.6800595 5.129917 0.029239193 0.8697004 -0.4927132 0 -0.7707351 0.3334887 0.5429113 0 0 0 0 1 0.62714756 0.37340838 0.6835584 5.129917 0.012669131 0.8725877 -0.48829323 0 -0.77879745 0.314892 0.54251045 0 0 0 0 1 0.62018883 0.3831321 0.68452585 5.129917 -0.0060910583 0.87494165 -0.48419008 0 -0.78442895 0.29611978 0.5449627 0 0 0 0 1 0.61616373 0.39280346 0.68267685 5.129917 -0.027021766 0.87679374 -0.4801068 0 -0.7871544 0.27737728 0.5508628 0 0 0 0 1 0.6153292 0.4016251 0.67828256 5.129917 -0.04870002 0.87819487 -0.47581726 0 -0.78676444 0.25975186 0.5599381 0 0 0 0 1 0.6169922 0.40923792 0.6721941 5.129917 -0.06898962 0.87899405 -0.4718156 0 -0.7839395 0.2447321 0.5705656 0 0 0 0 1 0.62056285 0.41511166 0.66527 5.129917 -0.085886404 0.8792656 -0.46852487 0 -0.7794391 0.23361146 0.58129203 0 0 0 0 1 0.6254215 0.4189356 0.65828633 5.129917 -0.09770399 0.87905234 -0.4666057 0 -0.77414584 0.22750804 0.59071 0 0 0 0 1 0.630507 0.42176074 0.65159714 5.129917 -0.10421856 0.87788814 -0.46738726 0 -0.769155 0.2267824 0.5974699 0 0 0 0 1 0.630507 0.42176074 0.65159714 5.129917 -0.10421856 0.87788814 -0.46738726 0 -0.769155 0.2267824 0.5974699 0 0 0 0 1</float_array>
        <technique_common>
          <accessor source="#Motion_7_Head_transform_pose_array_id" count="16" stride="16">
            <param name="TRANSFORM" type="float4x4" />
          </accessor>
        </technique_common>
      </source>
      <sampler id="Motion_7_Head_transform_samp_id">
        <input semantic="INPUT" source="#Motion_7_Head_transform_frame_id" />
        <input semantic="INTERPOLATION" source="#Motion_7_Head_transform_interp_id" />
        <input semantic="OUTPUT" source="#Motion_7_Head_transform_pose_id" />
      </sampler>
      <channel source="#Motion_7_Head_transform_samp_id" target="Head_bone_id/transform" />
    </animation>
    <animation id="Motion_7_Hair_transform_id" name="Motion_7_Hair_transform">
      <source id="Motion_7_Hair_transform_frame_id" name="Motion_7_Hair_transform_frame">
        <float_array id="Motion_7_Hair_transform_frame_array_id" count="16">0 0.033333335 0.06666667 0.1 0.13333334 0.16666667 0.2 0.23333333 0.26666668 0.3 0.33333334 0.36666667 0.4 0.43333334 0.46666667 0.5</float_array>
        <technique_common>
          <accessor source="#Motion_7_Hair_transform_frame_array_id" count="16" stride="1">
            <param name="TIME" type="float" />
          </accessor>
        </technique_common>
      </source>
      <source id="Motion_7_Hair_transform_interp_id" name="Motion_7_Hair_transform_interp">
        <Name_array id="Motion_7_Hair_transform_interp_array_id" count="16">LINEAR LINEAR LINEAR LINEAR LINEAR LINEAR LINEAR LINEAR LINEAR LINEAR LINEAR LINEAR LINEAR LINEAR LINEAR LINEAR</Name_array>
        <technique_common>
          <accessor source="#Motion_7_Hair_transform_interp_array_id" count="16" stride="1">
            <param name="INTERPOLATION" type="Name" />
          </accessor>
        </technique_common>
      </source>
      <source id="Motion_7_Hair_transform_pose_id" name="Motion_7_Hair_transform_pose">
        <float_array id="Motion_7_Hair_transform_pose_array_id" count="256">-0.1898793 0.3033652 0.93376404 2.803734 -0.6523303 0.6718088 -0.35091037 0 -0.7337648 -0.6757533 0.07033175 -10.410409 0 0 0 1 -0.19766939 0.30269027 0.9323654 2.803734 -0.66447574 0.6578984 -0.35445964 0 -0.72069323 -0.6896001 0.07108396 -10.410409 0 0 0 1 -0.2065047 0.3039475 0.9300385 2.803734 -0.67445755 0.6444007 -0.3603535 0 -0.70884603 -0.70168626 0.071927905 -10.410409 0 0 0 1 -0.21604145 0.30785036 0.92658204 2.803734 -0.68149114 0.6320517 -0.36889088 0 -0.69921094 -0.71115315 0.07324791 -10.410409 0 0 0 1 -0.22572017 0.31330413 0.92243737 2.803734 -0.6862461 0.620934 -0.3788234 0 -0.6914597 -0.7185272 0.07484645 -10.410409 0 0 0 1 -0.23499131 0.31950998 0.9179829 2.803734 -0.6891844 0.6112125 -0.38915837 0 -0.6854226 -0.7241082 0.07657164 -10.410409 0 0 0 1 -0.24329388 0.32569462 0.91363615 2.803734 -0.69077724 0.6030611 -0.39892864 0 -0.6809073 -0.728176 0.078261435 -10.410409 0 0 0 1 -0.25006676 0.3311052 0.909855 2.803734 -0.69150615 0.59667075 -0.40718955 0 -0.6777065 -0.7309949 0.0797537 -10.410409 0 0 0 1 -0.25480068 0.3354687 0.9069386 2.803734 -0.6914945 0.5924009 -0.41339642 0 -0.67595285 -0.73247665 0.08103055 -10.410409 0 0 0 1 -0.25712037 0.3396895 0.90471 2.803734 -0.6899413 0.59099287 -0.41798145 0 -0.6766611 -0.7316683 0.0824095 -10.410409 0 0 0 1 -0.25689673 0.34490663 0.90279746 2.803734 -0.68602544 0.59289074 -0.42172217 0 -0.6807151 -0.72768116 0.08430308 -10.410409 0 0 0 1 -0.2547561 0.35144672 0.9008799 2.803734 -0.67952883 0.5977571 -0.42535514 0 -0.68799704 -0.7205357 0.08653587 -10.410409 0 0 0 1 -0.2513801 0.35842583 0.8990768 2.803734 -0.6709597 0.60495406 -0.4287699 0 -0.69758236 -0.7110285 0.08841592 -10.410409 0 0 0 1 -0.24715853 0.36539397 0.89744073 2.803734 -0.6607512 0.6138853 -0.43191743 0 -0.70874566 -0.6997372 0.08970755 -10.410409 0 0 0 1 -0.2424972 0.3719129 0.89603335 2.803734 -0.64935845 0.62397444 -0.43472916 0 -0.7207833 -0.6872675 0.090192735 -10.410409 0 0 0 1 -0.2424972 0.3719129 0.89603335 2.803734 -0.64935845 0.62397444 -0.43472916 0 -0.7207833 -0.6872675 0.090192735 -10.410409 0 0 0 1</float_array>
        <technique_common>
          <accessor source="#Motion_7_Hair_transform_pose_array_id" count="16" stride="16">
            <param name="TRANSFORM" type="float4x4" />
          </accessor>
        </technique_common>
      </source>
      <sampler id="Motion_7_Hair_transform_samp_id">
        <input semantic="INPUT" source="#Motion_7_Hair_transform_frame_id" />
        <input semantic="INTERPOLATION" source="#Motion_7_Hair_transform_interp_id" />
        <input semantic="OUTPUT" source="#Motion_7_Hair_transform_pose_id" />
      </sampler>
      <channel source="#Motion_7_Hair_transform_samp_id" target="Hair_bone_id/transform" />
    </animation>
    <animation id="Motion_7_LShoulder_transform_id" name="Motion_7_LShoulder_transform">
      <source id="Motion_7_LShoulder_transform_frame_id" name="Motion_7_LShoulder_transform_frame">
        <float_array id="Motion_7_LShoulder_transform_frame_array_id" count="16">0 0.033333335 0.06666667 0.1 0.13333334 0.16666667 0.2 0.23333333 0.26666668 0.3 0.33333334 0.36666667 0.4 0.43333334 0.46666667 0.5</float_array>
        <technique_common>
          <accessor source="#Motion_7_LShoulder_transform_frame_array_id" count="16" stride="1">
            <param name="TIME" type="float" />
          </accessor>
        </technique_common>
      </source>
      <source id="Motion_7_LShoulder_transform_interp_id" name="Motion_7_LShoulder_transform_interp">
        <Name_array id="Motion_7_LShoulder_transform_interp_array_id" count="16">LINEAR LINEAR LINEAR LINEAR LINEAR LINEAR LINEAR LINEAR LINEAR LINEAR LINEAR LINEAR LINEAR LINEAR LINEAR LINEAR</Name_array>
        <technique_common>
          <accessor source="#Motion_7_LShoulder_transform_interp_array_id" count="16" stride="1">
            <param name="INTERPOLATION" type="Name" />
          </accessor>
        </technique_common>
      </source>
      <source id="Motion_7_LShoulder_transform_pose_id" name="Motion_7_LShoulder_transform_pose">
        <float_array id="Motion_7_LShoulder_transform_pose_array_id" count="256">-0.11895442 0.93814987 -0.3251528 14.14009 -0.96016437 -0.19208491 -0.20294666 -4.650002 -0.25285143 0.28805876 0.9236278 -0.201936 0 0 0 1 -0.1179117 0.93862444 -0.32416165 14.14009 -0.960493 -0.19067156 -0.20272487 -4.650002 -0.25209093 0.2874514 0.9240248 -0.201936 0 0 0 1 -0.11556709 0.93963 -0.32208654 14.14009 -0.9632079 -0.18522024 -0.1947408 -4.650002 -0.24264126 0.28773066 0.9264644 -0.201936 0 0 0 1 -0.11038637 0.941309 -0.3189866 14.14009 -0.9676794 -0.17500925 -0.1815723 -4.650002 -0.22674118 0.28863367 0.9302038 -0.201936 0 0 0 1 -0.10234606 0.9435809 -0.31492928 14.14009 -0.9727692 -0.16112101 -0.16661383 -4.650002 -0.20795533 0.28930125 0.9343765 -0.201936 0 0 0 1 -0.091202855 0.9463756 -0.30992755 14.14009 -0.9775578 -0.1444323 -0.1533624 -4.650002 -0.18990201 0.288985 0.9383096 -0.201936 0 0 0 1 -0.07675588 0.9497165 -0.30355775 14.14009 -0.98146766 -0.12558532 -0.14474046 -4.650002 -0.17558476 0.28682244 0.94175524 -0.201936 0 0 0 1 -0.059901 0.9529476 -0.29715806 14.14009 -0.9848007 -0.105038285 -0.13832855 -4.650002 -0.1630328 0.2843554 0.94475514 -0.201936 0 0 0 1 -0.0435493 0.9552436 -0.29259712 14.14009 -0.98781025 -0.08498192 -0.13041829 -4.650002 -0.14944673 0.28335083 0.9473004 -0.201936 0 0 0 1 -0.029484391 0.95665175 -0.2897379 14.14009 -0.99035865 -0.06720948 -0.12113018 -4.650002 -0.13535255 0.283373 0.94941 -0.201936 0 0 0 1 -0.017392635 0.95735735 -0.28838238 14.14009 -0.9923658 -0.051750183 -0.11194708 -4.650002 -0.1220972 0.28423372 0.9509487 -0.201936 0 0 0 1 -0.007163763 0.9576413 -0.28787428 14.14009 -0.9938343 -0.038671255 -0.10391224 -4.650002 -0.110643156 0.28535494 0.95201397 -0.201936 0 0 0 1 0.001265645 0.95761824 -0.28803772 14.14009 -0.9948385 -0.028019667 -0.097526275 -4.650002 -0.10146364 0.28667444 0.95263994 -0.201936 0 0 0 1 0.00797379 0.95739454 -0.28867337 14.14009 -0.99544007 -0.019842148 -0.09330349 -4.650002 -0.095056124 0.28810102 0.9528705 -0.201936 0 0 0 1 0.0131290555 0.95721835 -0.28906852 14.14009 -0.9956314 -0.01421237 -0.09228274 -4.650002 -0.09244308 0.2890173 0.9528501 -0.201936 0 0 0 1 0.0131290555 0.95721835 -0.28906852 14.14009 -0.9956314 -0.01421237 -0.09228274 -4.650002 -0.09244308 0.2890173 0.9528501 -0.201936 0 0 0 1</float_array>
        <technique_common>
          <accessor source="#Motion_7_LShoulder_transform_pose_array_id" count="16" stride="16">
            <param name="TRANSFORM" type="float4x4" />
          </accessor>
        </technique_common>
      </source>
      <sampler id="Motion_7_LShoulder_transform_samp_id">
        <input semantic="INPUT" source="#Motion_7_LShoulder_transform_frame_id" />
        <input semantic="INTERPOLATION" source="#Motion_7_LShoulder_transform_interp_id" />
        <input semantic="OUTPUT" source="#Motion_7_LShoulder_transform_pose_id" />
      </sampler>
      <channel source="#Motion_7_LShoulder_transform_samp_id" target="LShoulder_bone_id/transform" />
    </animation>
    <animation id="Motion_7_LArm_transform_id" name="Motion_7_LArm_transform">
      <source id="Motion_7_LArm_transform_frame_id" name="Motion_7_LArm_transform_frame">
        <float_array id="Motion_7_LArm_transform_frame_array_id" count="16">0 0.033333335 0.06666667 0.1 0.13333334 0.16666667 0.2 0.23333333 0.26666668 0.3 0.33333334 0.36666667 0.4 0.43333334 0.46666667 0.5</float_array>
        <technique_common>
          <accessor source="#Motion_7_LArm_transform_frame_array_id" count="16" stride="1">
            <param name="TIME" type="float" />
          </accessor>
        </technique_common>
      </source>
      <source id="Motion_7_LArm_transform_interp_id" name="Motion_7_LArm_transform_interp">
        <Name_array id="Motion_7_LArm_transform_interp_array_id" count="16">LINEAR LINEAR LINEAR LINEAR LINEAR LINEAR LINEAR LINEAR LINEAR LINEAR LINEAR LINEAR LINEAR LINEAR LINEAR LINEAR</Name_array>
        <technique_common>
          <accessor source="#Motion_7_LArm_transform_interp_array_id" count="16" stride="1">
            <param name="INTERPOLATION" type="Name" />
          </accessor>
        </technique_common>
      </source>
      <source id="Motion_7_LArm_transform_pose_id" name="Motion_7_LArm_transform_pose">
        <float_array id="Motion_7_LArm_transform_pose_array_id" count="256">0.49044538 0.3940107 -0.7773152 9.635175 -0.41346648 0.8903796 0.19044572 0 0.7671433 0.22799054 0.5995928 0 0 0 0 1 0.48442072 0.39861614 -0.7787437 9.635175 -0.40630984 0.8908433 0.20324993 0 0.7747573 0.21795276 0.59350455 0 0 0 0 1 0.47324258 0.42502412 -0.77161914 9.635175 -0.3932074 0.8857297 0.24672018 0 0.78830796 0.18664782 0.5862876 0 0 0 0 1 0.45746332 0.46726644 -0.7565642 9.635175 -0.37655443 0.87255424 0.31121677 0 0.80556446 0.14251736 0.5751128 0 0 0 0 1 0.4383099 0.5190276 -0.7338221 9.635175 -0.35851344 0.8496228 0.38679355 0 0.8242285 0.09354964 0.55847645 0 0 0 0 1 0.4188938 0.57601887 -0.7019475 9.635175 -0.342086 0.8161925 0.4656254 0 0.8411333 0.045078754 0.5389459 0 0 0 0 1 0.40171826 0.6349126 -0.6599306 9.635175 -0.3328888 0.77257997 0.54065263 0 0.8531163 0.0024935305 0.5217148 0 0 0 0 1 0.3873762 0.6957325 -0.6048933 9.635175 -0.3301667 0.7172967 0.6135758 0 0.8607727 -0.037968963 0.5075714 0 0 0 0 1 0.37797672 0.7519338 -0.5401196 9.635175 -0.32417428 0.6539577 0.6835571 0 0.8672051 -0.083275795 0.49093843 0 0 0 0 1 0.36932296 0.80363095 -0.4666667 9.635175 -0.3158009 0.58081794 0.75028014 0 0.87399673 -0.12972188 0.46829677 0 0 0 0 1 0.3576206 0.8508271 -0.38496858 9.635175 -0.30625698 0.49628425 0.8123476 0 0.88222116 -0.1726129 0.43805313 0 0 0 0 1 0.3484704 0.8865541 -0.3042863 9.635175 -0.29231855 0.4112339 0.8633867 0 0.8905719 -0.21191615 0.40245903 0 0 0 0 1 0.34783208 0.9070436 -0.23724407 9.635175 -0.27342895 0.340185 0.8997282 0 0.8967995 -0.24808493 0.3663392 0 0 0 0 1 0.35766733 0.9140713 -0.19117445 9.635175 -0.25199792 0.29159415 0.92275125 0 0.89920586 -0.28186244 0.33463776 0 0 0 0 1 0.37541306 0.9117634 -0.1665904 9.635175 -0.23292968 0.2667774 0.9351863 0 0.89711136 -0.31227726 0.3125285 0 0 0 0 1 0.37541306 0.9117634 -0.1665904 9.635175 -0.23292968 0.2667774 0.9351863 0 0.89711136 -0.31227726 0.3125285 0 0 0 0 1</float_array>
        <technique_common>
          <accessor source="#Motion_7_LArm_transform_pose_array_id" count="16" stride="16">
            <param name="TRANSFORM" type="float4x4" />
          </accessor>
        </technique_common>
      </source>
      <sampler id="Motion_7_LArm_transform_samp_id">
        <input semantic="INPUT" source="#Motion_7_LArm_transform_frame_id" />
        <input semantic="INTERPOLATION" source="#Motion_7_LArm_transform_interp_id" />
        <input semantic="OUTPUT" source="#Motion_7_LArm_transform_pose_id" />
      </sampler>
      <channel source="#Motion_7_LArm_transform_samp_id" target="LArm_bone_id/transform" />
    </animation>
    <animation id="Motion_7_LForeArm_transform_id" name="Motion_7_LForeArm_transform">
      <source id="Motion_7_LForeArm_transform_frame_id" name="Motion_7_LForeArm_transform_frame">
        <float_array id="Motion_7_LForeArm_transform_frame_array_id" count="16">0 0.033333335 0.06666667 0.1 0.13333334 0.16666667 0.2 0.23333333 0.26666668 0.3 0.33333334 0.36666667 0.4 0.43333334 0.46666667 0.5</float_array>
        <technique_common>
          <accessor source="#Motion_7_LForeArm_transform_frame_array_id" count="16" stride="1">
            <param name="TIME" type="float" />
          </accessor>
        </technique_common>
      </source>
      <source id="Motion_7_LForeArm_transform_interp_id" name="Motion_7_LForeArm_transform_interp">
        <Name_array id="Motion_7_LForeArm_transform_interp_array_id" count="16">LINEAR LINEAR LINEAR LINEAR LINEAR LINEAR LINEAR LINEAR LINEAR LINEAR LINEAR LINEAR LINEAR LINEAR LINEAR LINEAR</Name_array>
        <technique_common>
          <accessor source="#Motion_7_LForeArm_transform_interp_array_id" count="16" stride="1">
            <param name="INTERPOLATION" type="Name" />
          </accessor>
        </technique_common>
      </source>
      <source id="Motion_7_LForeArm_transform_pose_id" name="Motion_7_LForeArm_transform_pose">
        <float_array id="Motion_7_LForeArm_transform_pose_array_id" count="256">-0.2319839 -0.0031399773 -0.9727144 22.9 0.0018864013 0.9999915 -0.0036779193 0 0.97271764 -0.0026881483 -0.23197603 0 0 0 0 1 -0.20878875 -0.003105506 -0.9779559 22.9 0.0018868127 0.99999183 -0.0035783069 0 0.977959 -0.0025923296 -0.20878124 0 0 0 0 1 -0.153458 -0.0031076148 -0.98815024 22.9 0.0019419831 0.9999922 -0.0034464425 0 0.9881532 -0.0024478552 -0.15345073 0 0 0 0 1 -0.07703912 -0.003120468 -0.9970232 22.9 0.0020220997 0.99999255 -0.0032860073 0 0.9970261 -0.0022692312 -0.07703221 0 0 0 0 1 0.009056985 -0.0031220063 -0.9999541 22.9 0.002100351 0.99999297 -0.003103104 0 0.9999567 -0.00207215 0.009063482 0 0 0 0 1 0.08670604 -0.0030872477 -0.9962291 22.9 0.0021432736 0.99999344 -0.002912375 0 0.9962316 -0.0018826711 0.08671212 0 0 0 0 1 0.13718593 -0.0029990876 -0.9905407 22.9 0.0021239806 0.999994 -0.0027335465 0 0.99054295 -0.0017288851 0.13719147 0 0 0 0 1 0.16515875 -0.0028739786 -0.98626274 22.9 0.0020590252 0.9999946 -0.0025691905 0 0.98626477 -0.0016064157 0.16516382 0 0 0 0 1 0.19044614 -0.002742287 -0.9816938 22.9 0.0019855185 0.9999951 -0.0024082246 0 0.9816956 -0.001490534 0.19045067 0 0 0 0 1 0.21358407 -0.0026085123 -0.9769212 22.9 0.0019070588 0.99999565 -0.0022531843 0 0.97692287 -0.0013818019 0.21358806 0 0 0 0 1 0.23506439 -0.002477016 -0.9719767 22.9 0.001827134 0.9999961 -0.0021065448 0 0.9719781 -0.001280758 0.23506802 0 0 0 0 1 0.25537264 -0.00235207 -0.96683985 22.9 0.001749171 0.99999654 -0.001970721 0 0.96684116 -0.0011879001 0.25537586 0 0 0 0 1 0.27498722 -0.0022378678 -0.9614453 22.9 0.0016765401 0.9999969 -0.0018480861 0 0.96144646 -0.0011037017 0.27499008 0 0 0 0 1 0.29437655 -0.0021385385 -0.9556871 22.9 0.0016125707 0.9999972 -0.001740977 0 0.9556882 -0.00102861 0.29437917 0 0 0 0 1 0.3123405 -0.0020569456 -0.949968 22.9 0.0015588498 0.99999744 -0.0016527382 0 0.94996893 -0.0009646403 0.31234288 0 0 0 0 1 0.3123405 -0.0020569456 -0.949968 22.9 0.0015588498 0.99999744 -0.0016527382 0 0.94996893 -0.0009646403 0.31234288 0 0 0 0 1</float_array>
        <technique_common>
          <accessor source="#Motion_7_LForeArm_transform_pose_array_id" count="16" stride="16">
            <param name="TRANSFORM" type="float4x4" />
          </accessor>
        </technique_common>
      </source>
      <sampler id="Motion_7_LForeArm_transform_samp_id">
        <input semantic="INPUT" source="#Motion_7_LForeArm_transform_frame_id" />
        <input semantic="INTERPOLATION" source="#Motion_7_LForeArm_transform_interp_id" />
        <input semantic="OUTPUT" source="#Motion_7_LForeArm_transform_pose_id" />
      </sampler>
      <channel source="#Motion_7_LForeArm_transform_samp_id" target="LForeArm_bone_id/transform" />
    </animation>
    <animation id="Motion_7_LHand_transform_id" name="Motion_7_LHand_transform">
      <source id="Motion_7_LHand_transform_frame_id" name="Motion_7_LHand_transform_frame">
        <float_array id="Motion_7_LHand_transform_frame_array_id" count="16">0 0.033333335 0.06666667 0.1 0.13333334 0.16666667 0.2 0.23333333 0.26666668 0.3 0.33333334 0.36666667 0.4 0.43333334 0.46666667 0.5</float_array>
        <technique_common>
          <accessor source="#Motion_7_LHand_transform_frame_array_id" count="16" stride="1">
            <param name="TIME" type="float" />
          </accessor>
        </technique_common>
      </source>
      <source id="Motion_7_LHand_transform_interp_id" name="Motion_7_LHand_transform_interp">
        <Name_array id="Motion_7_LHand_transform_interp_array_id" count="16">LINEAR LINEAR LINEAR LINEAR LINEAR LINEAR LINEAR LINEAR LINEAR LINEAR LINEAR LINEAR LINEAR LINEAR LINEAR LINEAR</Name_array>
        <technique_common>
          <accessor source="#Motion_7_LHand_transform_interp_array_id" count="16" stride="1">
            <param name="INTERPOLATION" type="Name" />
          </accessor>
        </technique_common>
      </source>
      <source id="Motion_7_LHand_transform_pose_id" name="Motion_7_LHand_transform_pose">
        <float_array id="Motion_7_LHand_transform_pose_array_id" count="256">0.8228313 0.49893343 -0.2720554 22.900002 -0.54221785 0.8326067 -0.11298608 0 0.17014259 0.24048176 0.9556255 0 0 0 0 1 0.8152984 0.5201253 -0.25447625 22.900002 -0.5578905 0.8232886 -0.10466161 0 0.15507023 0.22730032 0.96139884 0 0 0 0 1 0.8212706 0.5288556 -0.21407098 22.900002 -0.5559103 0.82616985 -0.091690145 0 0.12836814 0.19430667 0.9725053 0 0 0 0 1 0.8382558 0.5231057 -0.1539079 22.900002 -0.5375138 0.84018177 -0.071927525 0 0.09168491 0.14302129 0.98546374 0 0 0 0 1 0.86239064 0.49999663 -0.07928245 22.900002 -0.5040253 0.8626616 -0.042112447 0 0.047337845 0.07627773 0.99596226 0 0 0 0 1 0.88965946 0.45661178 0.0034303996 22.900002 -0.45661768 0.8896623 0.0011414668 0 -0.0025306898 -0.0025818977 0.99999344 0 0 0 0 1 0.9164748 0.39061517 0.08656644 22.900002 -0.39620596 0.91615856 0.06061666 0 -0.055630796 -0.08985178 0.99440026 0 0 0 0 1 0.939142 0.30324724 0.1614108 22.900002 -0.3256947 0.9354043 0.13762887 0 -0.10924877 -0.18182369 0.9772435 0 0 0 0 1 0.9549771 0.19940862 0.21967 22.900002 -0.24917543 0.94098026 0.22905843 0 -0.16102889 -0.27348194 0.9483023 0 0 0 0 1 0.9628246 0.086190484 0.25600782 22.900002 -0.17052537 0.9289545 0.32857978 0 -0.20949915 -0.36002052 0.9091179 0 0 0 0 1 0.96319145 -0.028099384 0.26734367 22.900002 -0.092833176 0.8985665 0.42890596 0 -0.25227806 -0.4379369 0.862883 0 0 0 0 1 0.9578396 -0.13423327 0.2540173 22.900002 -0.019292109 0.85209644 0.52302915 0 -0.28665513 -0.5058785 0.81358206 0 0 0 0 1 0.9491284 -0.22396097 0.2213522 22.900002 0.04673218 0.7953517 0.60434407 0 -0.31140235 -0.56325585 0.765357 0 0 0 0 1 0.9401636 -0.29116654 0.1769589 22.900002 0.10258412 0.7371557 0.6678908 0 -0.32491368 -0.6097734 0.722916 0 0 0 0 1 0.93442845 -0.33196017 0.12901929 22.900002 0.14608595 0.6876328 0.7112103 0 -0.32481137 -0.6457272 0.6910383 0 0 0 0 1 0.93442845 -0.33196017 0.12901929 22.900002 0.14608595 0.6876328 0.7112103 0 -0.32481137 -0.6457272 0.6910383 0 0 0 0 1</float_array>
        <technique_common>
          <accessor source="#Motion_7_LHand_transform_pose_array_id" count="16" stride="16">
            <param name="TRANSFORM" type="float4x4" />
          </accessor>
        </technique_common>
      </source>
      <sampler id="Motion_7_LHand_transform_samp_id">
        <input semantic="INPUT" source="#Motion_7_LHand_transform_frame_id" />
        <input semantic="INTERPOLATION" source="#Motion_7_LHand_transform_interp_id" />
        <input semantic="OUTPUT" source="#Motion_7_LHand_transform_pose_id" />
      </sampler>
      <channel source="#Motion_7_LHand_transform_samp_id" target="LHand_bone_id/transform" />
    </animation>
    <animation id="Motion_7_RShoulder_transform_id" name="Motion_7_RShoulder_transform">
      <source id="Motion_7_RShoulder_transform_frame_id" name="Motion_7_RShoulder_transform_frame">
        <float_array id="Motion_7_RShoulder_transform_frame_array_id" count="16">0 0.033333335 0.06666667 0.1 0.13333334 0.16666667 0.2 0.23333333 0.26666668 0.3 0.33333334 0.36666667 0.4 0.43333334 0.46666667 0.5</float_array>
        <technique_common>
          <accessor source="#Motion_7_RShoulder_transform_frame_array_id" count="16" stride="1">
            <param name="TIME" type="float" />
          </accessor>
        </technique_common>
      </source>
      <source id="Motion_7_RShoulder_transform_interp_id" name="Motion_7_RShoulder_transform_interp">
        <Name_array id="Motion_7_RShoulder_transform_interp_array_id" count="16">LINEAR LINEAR LINEAR LINEAR LINEAR LINEAR LINEAR LINEAR LINEAR LINEAR LINEAR LINEAR LINEAR LINEAR LINEAR LINEAR</Name_array>
        <technique_common>
          <accessor source="#Motion_7_RShoulder_transform_interp_array_id" count="16" stride="1">
            <param name="INTERPOLATION" type="Name" />
          </accessor>
        </technique_common>
      </source>
      <source id="Motion_7_RShoulder_transform_pose_id" name="Motion_7_RShoulder_transform_pose">
        <float_array id="Motion_7_RShoulder_transform_pose_array_id" count="256">-0.48419702 -0.839423 0.24682453 14.14009 0.8265372 -0.5313678 -0.18570065 4.650001 0.28703597 0.11409397 0.9511009 -0.201935 0 0 0 1 -0.48397362 -0.83955926 0.24679928 14.14009 0.8268109 -0.5310894 -0.18527764 4.650001 0.286624 0.11438686 0.95118994 -0.201935 0 0 0 1 -0.48360765 -0.83979356 0.24671888 14.14009 0.8275982 -0.53048766 -0.18347731 4.650001 0.28496444 0.11545306 0.9515597 -0.201935 0 0 0 1 -0.48310673 -0.8400667 0.24677174 14.14009 0.828979 -0.52956724 -0.1798684 4.650001 0.2817836 0.11767299 0.9522348 -0.201935 0 0 0 1 -0.48248994 -0.8403524 0.24700414 14.14009 0.83096576 -0.52832353 -0.17426956 4.650001 0.27694598 0.12116867 0.9532151 -0.201935 0 0 0 1 -0.48179376 -0.8407001 0.24717955 14.14009 0.8334586 -0.5267434 -0.16699643 4.650001 0.27059418 0.12555607 0.95447075 -0.201935 0 0 0 1 -0.48103678 -0.84113944 0.24716021 14.14009 0.83633316 -0.5248358 -0.15841177 4.650001 0.26296487 0.13050643 0.95593804 -0.201935 0 0 0 1 -0.4802047 -0.84165937 0.24700856 14.14009 0.83942515 -0.5226549 -0.14898838 4.650001 0.25449765 0.13580029 0.9574911 -0.201935 0 0 0 1 -0.47927868 -0.84225124 0.24678868 14.14009 0.8425868 -0.52025855 -0.13920599 4.650001 0.24564037 0.14122242 0.95901877 -0.201935 0 0 0 1 -0.4783398 -0.84285015 0.24656568 14.14009 0.84563154 -0.5178113 -0.1295322 4.650001 0.23685075 0.14654331 0.9604305 -0.201935 0 0 0 1 -0.47750378 -0.84338635 0.24635234 14.14009 0.8483582 -0.51552236 -0.12051965 4.650001 0.22864479 0.15144645 0.9616577 -0.201935 0 0 0 1 -0.4767939 -0.84385115 0.24613631 14.14009 0.8506339 -0.51352096 -0.11277581 4.650001 0.22156212 0.15560108 0.96265185 -0.201935 0 0 0 1 -0.47622752 -0.8442273 0.24594258 14.14009 0.85235286 -0.5119369 -0.10684296 4.650001 0.21610679 0.15874831 0.96337783 -0.201935 0 0 0 1 -0.4758234 -0.844498 0.24579585 14.14009 0.853414 -0.51090264 -0.1032639 4.650001 0.21278384 0.16063024 0.96380544 -0.201935 0 0 0 1 -0.4756 -0.844645 0.24572156 14.14009 0.85370934 -0.5105462 -0.10257975 4.650001 0.21209572 0.16098788 0.96389747 -0.201935 0 0 0 1 -0.4756 -0.844645 0.24572156 14.14009 0.85370934 -0.5105462 -0.10257975 4.650001 0.21209572 0.16098788 0.96389747 -0.201935 0 0 0 1</float_array>
        <technique_common>
          <accessor source="#Motion_7_RShoulder_transform_pose_array_id" count="16" stride="16">
            <param name="TRANSFORM" type="float4x4" />
          </accessor>
        </technique_common>
      </source>
      <sampler id="Motion_7_RShoulder_transform_samp_id">
        <input semantic="INPUT" source="#Motion_7_RShoulder_transform_frame_id" />
        <input semantic="INTERPOLATION" source="#Motion_7_RShoulder_transform_interp_id" />
        <input semantic="OUTPUT" source="#Motion_7_RShoulder_transform_pose_id" />
      </sampler>
      <channel source="#Motion_7_RShoulder_transform_samp_id" target="RShoulder_bone_id/transform" />
    </animation>
    <animation id="Motion_7_RArm_transform_id" name="Motion_7_RArm_transform">
      <source id="Motion_7_RArm_transform_frame_id" name="Motion_7_RArm_transform_frame">
        <float_array id="Motion_7_RArm_transform_frame_array_id" count="16">0 0.033333335 0.06666667 0.1 0.13333334 0.16666667 0.2 0.23333333 0.26666668 0.3 0.33333334 0.36666667 0.4 0.43333334 0.46666667 0.5</float_array>
        <technique_common>
          <accessor source="#Motion_7_RArm_transform_frame_array_id" count="16" stride="1">
            <param name="TIME" type="float" />
          </accessor>
        </technique_common>
      </source>
      <source id="Motion_7_RArm_transform_interp_id" name="Motion_7_RArm_transform_interp">
        <Name_array id="Motion_7_RArm_transform_interp_array_id" count="16">LINEAR LINEAR LINEAR LINEAR LINEAR LINEAR LINEAR LINEAR LINEAR LINEAR LINEAR LINEAR LINEAR LINEAR LINEAR LINEAR</Name_array>
        <technique_common>
          <accessor source="#Motion_7_RArm_transform_interp_array_id" count="16" stride="1">
            <param name="INTERPOLATION" type="Name" />
          </accessor>
        </technique_common>
      </source>
      <source id="Motion_7_RArm_transform_pose_id" name="Motion_7_RArm_transform_pose">
        <float_array id="Motion_7_RArm_transform_pose_array_id" count="256">0.8630104 -0.2756525 -0.4233542 9.635175 0.49414828 0.6348294 0.59397733 0 0.10502638 -0.7218083 0.6840776 0 0 0 0 1 0.865203 -0.27453288 -0.4195896 9.635175 0.49058482 0.6365013 0.5951408 0 0.10368362 -0.7207619 0.6853845 0 0 0 0 1 0.868947 -0.276415 -0.4105189 9.635175 0.485218 0.639141 0.5967095 0 0.097440034 -0.7177001 0.6895012 0 0 0 0 1 0.8738034 -0.28093323 -0.39691833 9.635175 0.478417 0.6428361 0.59822977 0 0.08709079 -0.71262765 0.6961156 0 0 0 0 1 0.87927616 -0.28743535 -0.37980825 9.635175 0.47063243 0.64705586 0.5998531 0 0.073338166 -0.7061866 0.7042172 0 0 0 0 1 0.88488 -0.295439 -0.36014327 9.635175 0.46230787 0.6517405 0.6012535 0 0.0570862 -0.69853425 0.71329594 0 0 0 0 1 0.8901886 -0.3044755 -0.3389084 9.635175 0.4538967 0.6568229 0.6021308 0 0.039268702 -0.68983936 0.7228967 0 0 0 0 1 0.8948598 -0.314098 -0.31712526 9.635175 0.44585997 0.6622274 0.6022157 0 0.02085428 -0.68029207 0.73264444 0 0 0 0 1 0.8988235 -0.32363737 -0.2955929 9.635175 0.43829918 0.66855127 0.600777 0 0.0031851083 -0.6695506 0.7427596 0 0 0 0 1 0.9020869 -0.33241466 -0.27520844 9.635175 0.43137315 0.67608106 0.5973539 0 -0.012505978 -0.6575827 0.7532786 0 0 0 0 1 0.90459967 -0.34017187 -0.25687057 9.635175 0.42548728 0.6842714 0.59222734 0 -0.02568993 -0.6450238 0.7637305 0 0 0 0 1 0.906387 -0.3468329 -0.24118373 9.635175 0.42090037 0.69259155 0.58579844 0 -0.036132358 -0.63247436 0.7737381 0 0 0 0 1 0.90745443 -0.3522989 -0.22893652 9.635175 0.41790196 0.7005365 0.5784519 0 -0.043409556 -0.62059176 0.7829313 0 0 0 0 1 0.90779835 -0.3564964 -0.22093554 9.635175 0.4167539 0.7075902 0.570642 0 -0.047099993 -0.6101036 0.7909205 0 0 0 0 1 0.90738547 -0.35928646 -0.21809375 9.635175 0.41767302 0.7128979 0.5633168 0 -0.04691354 -0.60223734 0.79693747 0 0 0 0 1 0.90738547 -0.35928646 -0.21809375 9.635175 0.41767302 0.7128979 0.5633168 0 -0.04691354 -0.60223734 0.79693747 0 0 0 0 1</float_array>
        <technique_common>
          <accessor source="#Motion_7_RArm_transform_pose_array_id" count="16" stride="16">
            <param name="TRANSFORM" type="float4x4" />
          </accessor>
        </technique_common>
      </source>
      <sampler id="Motion_7_RArm_transform_samp_id">
        <input semantic="INPUT" source="#Motion_7_RArm_transform_frame_id" />
        <input semantic="INTERPOLATION" source="#Motion_7_RArm_transform_interp_id" />
        <input semantic="OUTPUT" source="#Motion_7_RArm_transform_pose_id" />
      </sampler>
      <channel source="#Motion_7_RArm_transform_samp_id" target="RArm_bone_id/transform" />
    </animation>
    <animation id="Motion_7_RForeArm_transform_id" name="Motion_7_RForeArm_transform">
      <source id="Motion_7_RForeArm_transform_frame_id" name="Motion_7_RForeArm_transform_frame">
        <float_array id="Motion_7_RForeArm_transform_frame_array_id" count="16">0 0.033333335 0.06666667 0.1 0.13333334 0.16666667 0.2 0.23333333 0.26666668 0.3 0.33333334 0.36666667 0.4 0.43333334 0.46666667 0.5</float_array>
        <technique_common>
          <accessor source="#Motion_7_RForeArm_transform_frame_array_id" count="16" stride="1">
            <param name="TIME" type="float" />
          </accessor>
        </technique_common>
      </source>
      <source id="Motion_7_RForeArm_transform_interp_id" name="Motion_7_RForeArm_transform_interp">
        <Name_array id="Motion_7_RForeArm_transform_interp_array_id" count="16">LINEAR LINEAR LINEAR LINEAR LINEAR LINEAR LINEAR LINEAR LINEAR LINEAR LINEAR LINEAR LINEAR LINEAR LINEAR LINEAR</Name_array>
        <technique_common>
          <accessor source="#Motion_7_RForeArm_transform_interp_array_id" count="16" stride="1">
            <param name="INTERPOLATION" type="Name" />
          </accessor>
        </technique_common>
      </source>
      <source id="Motion_7_RForeArm_transform_pose_id" name="Motion_7_RForeArm_transform_pose">
        <float_array id="Motion_7_RForeArm_transform_pose_array_id" count="256">-0.25158405 -1.7203362E-07 -0.9678354 22.9 -2.1994175E-08 1 -1.7203362E-07 0 0.9678354 -2.1994175E-08 -0.25158405 0 0 0 0 1 -0.25557077 -1.7187354E-07 -0.96679044 22.9 -2.2333765E-08 1 -1.7187354E-07 0 0.96679044 -2.2333765E-08 -0.25557077 0 0 0 0 1 -0.2649523 -1.7149259E-07 -0.96426153 22.9 -2.3132031E-08 1 -1.7149259E-07 0 0.96426153 -2.3132031E-08 -0.2649523 0 0 0 0 1 -0.27855206 -1.7092981E-07 -0.9604211 22.9 -2.4287054E-08 1 -1.7092981E-07 0 0.9604211 -2.4287054E-08 -0.27855206 0 0 0 0 1 -0.29488504 -1.7023729E-07 -0.9555327 22.9 -2.5670978E-08 1 -1.7023729E-07 0 0.9555327 -2.5670978E-08 -0.29488504 0 0 0 0 1 -0.31248176 -1.6947044E-07 -0.94992375 22.9 -2.7158208E-08 1 -1.6947044E-07 0 0.94992375 -2.7158208E-08 -0.31248176 0 0 0 0 1 -0.3298986 -1.6868984E-07 -0.9440164 22.9 -2.8626573E-08 1 -1.6868984E-07 0 0.9440164 -2.8626573E-08 -0.3298986 0 0 0 0 1 -0.34692323 -1.6790558E-07 -0.93789357 22.9 -3.0058587E-08 1 -1.6790558E-07 0 0.93789357 -3.0058587E-08 -0.34692323 0 0 0 0 1 -0.36404324 -1.670953E-07 -0.93138194 22.9 -3.1495546E-08 1 -1.670953E-07 0 0.93138194 -3.1495546E-08 -0.36404324 0 0 0 0 1 -0.38089848 -1.6627585E-07 -0.9246169 22.9 -3.2907437E-08 1 -1.6627585E-07 0 0.9246169 -3.2907437E-08 -0.38089848 0 0 0 0 1 -0.39713776 -1.6546544E-07 -0.91775906 22.9 -3.4265298E-08 1 -1.6546544E-07 0 0.91775906 -3.4265298E-08 -0.39713776 0 0 0 0 1 -0.41242206 -1.646835E-07 -0.9109929 22.9 -3.5541262E-08 1 -1.646835E-07 0 0.9109929 -3.5541262E-08 -0.41242206 0 0 0 0 1 -0.42626345 -1.6395889E-07 -0.9045991 22.9 -3.6695226E-08 1 -1.6395889E-07 0 0.9045991 -3.6695226E-08 -0.42626345 0 0 0 0 1 -0.43789053 -1.6333777E-07 -0.8990282 22.9 -3.766352E-08 1 -1.6333777E-07 0 0.8990282 -3.766352E-08 -0.43789053 0 0 0 0 1 -0.44655585 -1.628674E-07 -0.8947557 22.9 -3.8384577E-08 1 -1.628674E-07 0 0.8947557 -3.8384577E-08 -0.44655585 0 0 0 0 1 -0.44655585 -1.628674E-07 -0.8947557 22.9 -3.8384577E-08 1 -1.628674E-07 0 0.8947557 -3.8384577E-08 -0.44655585 0 0 0 0 1</float_array>
        <technique_common>
          <accessor source="#Motion_7_RForeArm_transform_pose_array_id" count="16" stride="16">
            <param name="TRANSFORM" type="float4x4" />
          </accessor>
        </technique_common>
      </source>
      <sampler id="Motion_7_RForeArm_transform_samp_id">
        <input semantic="INPUT" source="#Motion_7_RForeArm_transform_frame_id" />
        <input semantic="INTERPOLATION" source="#Motion_7_RForeArm_transform_interp_id" />
        <input semantic="OUTPUT" source="#Motion_7_RForeArm_transform_pose_id" />
      </sampler>
      <channel source="#Motion_7_RForeArm_transform_samp_id" target="RForeArm_bone_id/transform" />
    </animation>
    <animation id="Motion_7_RHand_transform_id" name="Motion_7_RHand_transform">
      <source id="Motion_7_RHand_transform_frame_id" name="Motion_7_RHand_transform_frame">
        <float_array id="Motion_7_RHand_transform_frame_array_id" count="16">0 0.033333335 0.06666667 0.1 0.13333334 0.16666667 0.2 0.23333333 0.26666668 0.3 0.33333334 0.36666667 0.4 0.43333334 0.46666667 0.5</float_array>
        <technique_common>
          <accessor source="#Motion_7_RHand_transform_frame_array_id" count="16" stride="1">
            <param name="TIME" type="float" />
          </accessor>
        </technique_common>
      </source>
      <source id="Motion_7_RHand_transform_interp_id" name="Motion_7_RHand_transform_interp">
        <Name_array id="Motion_7_RHand_transform_interp_array_id" count="16">LINEAR LINEAR LINEAR LINEAR LINEAR LINEAR LINEAR LINEAR LINEAR LINEAR LINEAR LINEAR LINEAR LINEAR LINEAR LINEAR</Name_array>
        <technique_common>
          <accessor source="#Motion_7_RHand_transform_interp_array_id" count="16" stride="1">
            <param name="INTERPOLATION" type="Name" />
          </accessor>
        </technique_common>
      </source>
      <source id="Motion_7_RHand_transform_pose_id" name="Motion_7_RHand_transform_pose">
        <float_array id="Motion_7_RHand_transform_pose_array_id" count="256">0.9066646 -0.13371646 -0.40009904 22.900002 0.16811219 0.98439723 0.051965266 0 0.38690776 -0.11437659 0.91499746 0 0 0 0 1 0.90988755 -0.13199045 -0.3932979 22.900002 0.16226931 0.98573834 0.044594146 0 0.3818028 -0.10439583 0.918329 0 0 0 0 1 0.9156585 -0.13094491 -0.3800303 22.900002 0.1572209 0.9868011 0.038797073 0 0.36993405 -0.09527358 0.92416 0 0 0 0 1 0.922951 -0.13027032 -0.3622032 22.900002 0.15314423 0.9875824 0.035040908 0 0.35314074 -0.08781037 0.93144023 0 0 0 0 1 0.930459 -0.12969701 -0.34267282 22.900002 0.15016292 0.9880847 0.033760525 0 0.3342111 -0.08286954 0.938848 0 0 0 0 1 0.93708324 -0.12903436 -0.3243842 22.900002 0.14834963 0.98830026 0.03542485 0 0.316018 -0.08131832 0.94526184 0 0 0 0 1 0.94215953 -0.1282883 -0.30964106 22.900002 0.14762726 0.98824394 0.039750196 0 0.3009014 -0.08316249 0.9500223 0 0 0 0 1 0.94585574 -0.12765709 -0.2984302 22.900002 0.1478051 0.9879531 0.045850184 0 0.28898197 -0.08747716 0.9533295 0 0 0 0 1 0.9484469 -0.127247 -0.29026982 22.900002 0.14878714 0.98743224 0.05329147 0 0.27984062 -0.09373255 0.95545983 0 0 0 0 1 0.9501592 -0.12714101 -0.28466243 22.900002 0.15049313 0.98668814 0.061630502 0 0.27303725 -0.10139853 0.95664465 0 0 0 0 1 0.95116097 -0.12756418 -0.28110537 22.900002 0.15300308 0.9857152 0.07039571 0 0.2681099 -0.109967634 0.95709157 0 0 0 0 1 0.95159626 -0.12873238 -0.27909237 22.900002 0.15639013 0.9845217 0.07911513 0 0.26458782 -0.118932955 0.9569996 0 0 0 0 1 0.95161504 -0.13068467 -0.27811933 22.900002 0.16058785 0.98313487 0.0875061 0 0.2619931 -0.12793471 0.9565523 0 0 0 0 1 0.95135766 -0.13343973 -0.27769136 22.900002 0.16554748 0.98156875 0.09548224 0 0.25983202 -0.13680886 0.95591354 0 0 0 0 1 0.9509585 -0.13703525 -0.27730724 22.900002 0.17120278 0.97984827 0.102893054 0 0.25761905 -0.1453228 0.95525587 0 0 0 0 1 0.9509585 -0.13703525 -0.27730724 22.900002 0.17120278 0.97984827 0.102893054 0 0.25761905 -0.1453228 0.95525587 0 0 0 0 1</float_array>
        <technique_common>
          <accessor source="#Motion_7_RHand_transform_pose_array_id" count="16" stride="16">
            <param name="TRANSFORM" type="float4x4" />
          </accessor>
        </technique_common>
      </source>
      <sampler id="Motion_7_RHand_transform_samp_id">
        <input semantic="INPUT" source="#Motion_7_RHand_transform_frame_id" />
        <input semantic="INTERPOLATION" source="#Motion_7_RHand_transform_interp_id" />
        <input semantic="OUTPUT" source="#Motion_7_RHand_transform_pose_id" />
      </sampler>
      <channel source="#Motion_7_RHand_transform_samp_id" target="RHand_bone_id/transform" />
    </animation>
    <animation id="Motion_7_Hips_transform_id" name="Motion_7_Hips_transform">
      <source id="Motion_7_Hips_transform_frame_id" name="Motion_7_Hips_transform_frame">
        <float_array id="Motion_7_Hips_transform_frame_array_id" count="16">0 0.033333335 0.06666667 0.1 0.13333334 0.16666667 0.2 0.23333333 0.26666668 0.3 0.33333334 0.36666667 0.4 0.43333334 0.46666667 0.5</float_array>
        <technique_common>
          <accessor source="#Motion_7_Hips_transform_frame_array_id" count="16" stride="1">
            <param name="TIME" type="float" />
          </accessor>
        </technique_common>
      </source>
      <source id="Motion_7_Hips_transform_interp_id" name="Motion_7_Hips_transform_interp">
        <Name_array id="Motion_7_Hips_transform_interp_array_id" count="16">LINEAR LINEAR LINEAR LINEAR LINEAR LINEAR LINEAR LINEAR LINEAR LINEAR LINEAR LINEAR LINEAR LINEAR LINEAR LINEAR</Name_array>
        <technique_common>
          <accessor source="#Motion_7_Hips_transform_interp_array_id" count="16" stride="1">
            <param name="INTERPOLATION" type="Name" />
          </accessor>
        </technique_common>
      </source>
      <source id="Motion_7_Hips_transform_pose_id" name="Motion_7_Hips_transform_pose">
        <float_array id="Motion_7_Hips_transform_pose_array_id" count="256">-0.81515956 0.10462089 0.56970966 -0.010002 -0.1426656 -0.98951685 -0.022416819 0 0.5613922 -0.09955126 0.82154024 0 0 0 0 1 -0.81899583 0.10496351 0.5641176 -0.010002 -0.14095093 -0.9898051 -0.020465259 0 0.5562183 -0.096273854 0.8254408 0 0 0 0 1 -0.82237756 0.10522021 0.5591276 -0.010002 -0.13925746 -0.9900832 -0.01850285 0 0.55163604 -0.093079016 0.8288751 0 0 0 0 1 -0.8252647 0.10538721 0.5548258 -0.010002 -0.1376135 -0.99034715 -0.016577508 0 0.5477232 -0.090032354 0.83180135 0 0 0 0 1 -0.82761633 0.10545962 0.5512981 -0.010002 -0.13604471 -0.9905931 -0.014738407 0 0.54455775 -0.08719893 0.8341782 0 0 0 0 1 -0.8293905 0.105435 0.54863006 -0.010002 -0.13457832 -0.9908172 -0.013034578 0 0.5422178 -0.08464447 0.8359636 0 0 0 0 1 -0.830544 0.10531181 0.546906 -0.010002 -0.1332421 -0.9910166 -0.011515077 0 0.5407803 -0.082434684 0.8371148 0 0 0 0 1 -0.83090615 0.10517776 0.54638135 -0.010002 -0.13216215 -0.9911758 -0.010184642 0 0.5404887 -0.08067341 0.8374746 0 0 0 0 1 -0.8303157 0.10511486 0.5472907 -0.010002 -0.13145858 -0.99128056 -0.009051509 0 0.5415671 -0.07946166 0.8368937 0 0 0 0 1 -0.8287343 0.10511717 0.54968166 -0.010002 -0.13115741 -0.9913279 -0.008166634 0 0.5440563 -0.078862794 0.8353343 0 0 0 0 1 -0.8261157 0.10518369 0.553596 -0.010002 -0.13129416 -0.9913142 -0.0075760856 0 0.5479909 -0.078942664 0.83275086 0 0 0 0 1 -0.82258487 0.1051901 0.5588282 -0.010002 -0.13177548 -0.99125195 -0.007384423 0 0.5531629 -0.07971418 0.8292506 0 0 0 0 1 -0.8184322 0.105115086 0.56490636 -0.010002 -0.13260208 -0.9911394 -0.0076864213 0 0.5590931 -0.08119858 0.82511914 0 0 0 0 1 -0.8138629 0.1050785 0.571477 -0.010002 -0.13392422 -0.9909551 -0.00851804 0 0.56541294 -0.08346712 0.8205739 0 0 0 0 1 -0.80909204 0.10500868 0.5782239 -0.010002 -0.13570598 -0.9906987 -0.009973064 0 0.5717985 -0.08653757 0.8158172 0 0 0 0 1 -0.80909204 0.10500868 0.5782239 -0.010002 -0.13570598 -0.9906987 -0.009973064 0 0.5717985 -0.08653757 0.8158172 0 0 0 0 1</float_array>
        <technique_common>
          <accessor source="#Motion_7_Hips_transform_pose_array_id" count="16" stride="16">
            <param name="TRANSFORM" type="float4x4" />
          </accessor>
        </technique_common>
      </source>
      <sampler id="Motion_7_Hips_transform_samp_id">
        <input semantic="INPUT" source="#Motion_7_Hips_transform_frame_id" />
        <input semantic="INTERPOLATION" source="#Motion_7_Hips_transform_interp_id" />
        <input semantic="OUTPUT" source="#Motion_7_Hips_transform_pose_id" />
      </sampler>
      <channel source="#Motion_7_Hips_transform_samp_id" target="Hips_bone_id/transform" />
    </animation>
    <animation id="Motion_7_LThigh_transform_id" name="Motion_7_LThigh_transform">
      <source id="Motion_7_LThigh_transform_frame_id" name="Motion_7_LThigh_transform_frame">
        <float_array id="Motion_7_LThigh_transform_frame_array_id" count="16">0 0.033333335 0.06666667 0.1 0.13333334 0.16666667 0.2 0.23333333 0.26666668 0.3 0.33333334 0.36666667 0.4 0.43333334 0.46666667 0.5</float_array>
        <technique_common>
          <accessor source="#Motion_7_LThigh_transform_frame_array_id" count="16" stride="1">
            <param name="TIME" type="float" />
          </accessor>
        </technique_common>
      </source>
      <source id="Motion_7_LThigh_transform_interp_id" name="Motion_7_LThigh_transform_interp">
        <Name_array id="Motion_7_LThigh_transform_interp_array_id" count="16">LINEAR LINEAR LINEAR LINEAR LINEAR LINEAR LINEAR LINEAR LINEAR LINEAR LINEAR LINEAR LINEAR LINEAR LINEAR LINEAR</Name_array>
        <technique_common>
          <accessor source="#Motion_7_LThigh_transform_interp_array_id" count="16" stride="1">
            <param name="INTERPOLATION" type="Name" />
          </accessor>
        </technique_common>
      </source>
      <source id="Motion_7_LThigh_transform_pose_id" name="Motion_7_LThigh_transform_pose">
        <float_array id="Motion_7_LThigh_transform_pose_array_id" count="256">0.83630264 0.057405 -0.54525465 10.510002 -0.14893492 0.9808936 -0.12516439 8.799997 0.5276517 0.18588275 0.8288735 0 0 0 0 1 0.8358962 0.058908135 -0.5457173 10.510002 -0.1526907 0.9799365 -0.12810174 8.799997 0.5272221 0.1904057 0.8281199 0 0 0 0 1 0.8355498 0.06018426 -0.5461085 10.510002 -0.15582943 0.9791236 -0.13051513 8.799997 0.5268527 0.19415164 0.82748497 0 0 0 0 1 0.8352643 0.06125522 -0.54642594 10.510002 -0.15834466 0.97847265 -0.1323566 8.799997 0.5265553 0.19707637 0.82698274 0 0 0 0 1 0.83504033 0.06214269 -0.54666805 10.510002 -0.16022971 0.9779997 -0.13357788 8.799997 0.52634025 0.19913536 0.8266263 0 0 0 0 1 0.8348778 0.062868 -0.54683334 10.510002 -0.16147771 0.9777188 -0.13413033 8.799997 0.5262167 0.20028383 0.82642746 0 0 0 0 1 0.83477616 0.0634523 -0.54692096 10.510002 -0.16208158 0.9776415 -0.13396496 8.799997 0.52619225 0.20047656 0.8263963 0 0 0 0 1 0.8347344 0.063916415 -0.54693073 10.510002 -0.16203395 0.9777768 -0.13303205 8.799997 0.5262732 0.19966775 0.8265405 0 0 0 0 1 0.83475137 0.06426244 -0.54686433 10.510002 -0.16134462 0.9781192 -0.13134211 8.799997 0.5264581 0.1978716 0.8268547 0 0 0 0 1 0.8348259 0.0644719 -0.54672587 10.510002 -0.1600424 0.9786484 -0.12897177 8.799997 0.52673733 0.1951683 0.8273192 0 0 0 0 1 0.83495617 0.06453438 -0.5465194 10.510002 -0.158148 0.9793471 -0.12597008 8.799997 0.5271028 0.19161047 0.8279179 0 0 0 0 1 0.83514017 0.06443933 -0.5462494 10.510002 -0.15568201 0.98019636 -0.12238571 8.799997 0.5275452 0.18725044 0.82863337 0 0 0 0 1 0.8353754 0.06417589 -0.54592067 10.510002 -0.1526648 0.98117596 -0.118267335 8.799997 0.5280543 0.1821405 0.8294477 0 0 0 0 1 0.83565897 0.06373329 -0.54553837 10.510002 -0.14911672 0.9822652 -0.113663375 8.799997 0.5286192 0.17633271 0.8303424 0 0 0 0 1 0.8359876 0.06310053 -0.5451083 10.510002 -0.14505811 0.98344254 -0.10862252 8.799997 0.52922857 0.16987947 0.83129907 0 0 0 0 1 0.8359876 0.06310053 -0.5451083 10.510002 -0.14505811 0.98344254 -0.10862252 8.799997 0.52922857 0.16987947 0.83129907 0 0 0 0 1</float_array>
        <technique_common>
          <accessor source="#Motion_7_LThigh_transform_pose_array_id" count="16" stride="16">
            <param name="TRANSFORM" type="float4x4" />
          </accessor>
        </technique_common>
      </source>
      <sampler id="Motion_7_LThigh_transform_samp_id">
        <input semantic="INPUT" source="#Motion_7_LThigh_transform_frame_id" />
        <input semantic="INTERPOLATION" source="#Motion_7_LThigh_transform_interp_id" />
        <input semantic="OUTPUT" source="#Motion_7_LThigh_transform_pose_id" />
      </sampler>
      <channel source="#Motion_7_LThigh_transform_samp_id" target="LThigh_bone_id/transform" />
    </animation>
    <animation id="Motion_7_LLeg_transform_id" name="Motion_7_LLeg_transform">
      <source id="Motion_7_LLeg_transform_frame_id" name="Motion_7_LLeg_transform_frame">
        <float_array id="Motion_7_LLeg_transform_frame_array_id" count="16">0 0.033333335 0.06666667 0.1 0.13333334 0.16666667 0.2 0.23333333 0.26666668 0.3 0.33333334 0.36666667 0.4 0.43333334 0.46666667 0.5</float_array>
        <technique_common>
          <accessor source="#Motion_7_LLeg_transform_frame_array_id" count="16" stride="1">
            <param name="TIME" type="float" />
          </accessor>
        </technique_common>
      </source>
      <source id="Motion_7_LLeg_transform_interp_id" name="Motion_7_LLeg_transform_interp">
        <Name_array id="Motion_7_LLeg_transform_interp_array_id" count="16">LINEAR LINEAR LINEAR LINEAR LINEAR LINEAR LINEAR LINEAR LINEAR LINEAR LINEAR LINEAR LINEAR LINEAR LINEAR LINEAR</Name_array>
        <technique_common>
          <accessor source="#Motion_7_LLeg_transform_interp_array_id" count="16" stride="1">
            <param name="INTERPOLATION" type="Name" />
          </accessor>
        </technique_common>
      </source>
      <source id="Motion_7_LLeg_transform_pose_id" name="Motion_7_LLeg_transform_pose">
        <float_array id="Motion_7_LLeg_transform_pose_array_id" count="256">0.45385838 0 0.8910738 33.899998 0 1 0 0 -0.8910738 0 0.45385838 0 0 0 0 1 0.44124502 0 0.89738667 33.899998 0 1 0 0 -0.89738667 0 0.44124502 0 0 0 0 1 0.4303472 0 0.90266347 33.899998 0 1 0 0 -0.90266347 0 0.4303472 0 0 0 0 1 0.422145 0 0.9065283 33.899998 0 1 0 0 -0.9065283 0 0.422145 0 0 0 0 1 0.4170493 0 0.90888387 33.899998 0 1 0 0 -0.90888387 0 0.4170493 0 0 0 0 1 0.41478413 0 0.90991986 33.899998 0 1 0 0 -0.90991986 0 0.41478413 0 0 0 0 1 0.41529614 0 0.90968627 33.899998 0 1 0 0 -0.90968627 0 0.41529614 0 0 0 0 1 0.41852015 0 0.9082075 33.899998 0 1 0 0 -0.9082075 0 0.41852015 0 0 0 0 1 0.42438018 0 0.9054841 33.899998 0 1 0 0 -0.9054841 0 0.42438018 0 0 0 0 1 0.43235928 0 0.9017014 33.899998 0 1 0 0 -0.9017014 0 0.43235928 0 0 0 0 1 0.4416976 0 0.897164 33.899998 0 1 0 0 -0.897164 0 0.4416976 0 0 0 0 1 0.4519496 0 0.8920435 33.899998 0 1 0 0 -0.8920435 0 0.4519496 0 0 0 0 1 0.4626767 0 0.88652706 33.899998 0 1 0 0 -0.88652706 0 0.4626767 0 0 0 0 1 0.47344953 0 0.880821 33.899998 0 1 0 0 -0.880821 0 0.47344953 0 0 0 0 1 0.4838487 0 0.87515163 33.899998 0 1 0 0 -0.87515163 0 0.4838487 0 0 0 0 1 0.4838487 0 0.87515163 33.899998 0 1 0 0 -0.87515163 0 0.4838487 0 0 0 0 1</float_array>
        <technique_common>
          <accessor source="#Motion_7_LLeg_transform_pose_array_id" count="16" stride="16">
            <param name="TRANSFORM" type="float4x4" />
          </accessor>
        </technique_common>
      </source>
      <sampler id="Motion_7_LLeg_transform_samp_id">
        <input semantic="INPUT" source="#Motion_7_LLeg_transform_frame_id" />
        <input semantic="INTERPOLATION" source="#Motion_7_LLeg_transform_interp_id" />
        <input semantic="OUTPUT" source="#Motion_7_LLeg_transform_pose_id" />
      </sampler>
      <channel source="#Motion_7_LLeg_transform_samp_id" target="LLeg_bone_id/transform" />
    </animation>
    <animation id="Motion_7_LFoot_transform_id" name="Motion_7_LFoot_transform">
      <source id="Motion_7_LFoot_transform_frame_id" name="Motion_7_LFoot_transform_frame">
        <float_array id="Motion_7_LFoot_transform_frame_array_id" count="16">0 0.033333335 0.06666667 0.1 0.13333334 0.16666667 0.2 0.23333333 0.26666668 0.3 0.33333334 0.36666667 0.4 0.43333334 0.46666667 0.5</float_array>
        <technique_common>
          <accessor source="#Motion_7_LFoot_transform_frame_array_id" count="16" stride="1">
            <param name="TIME" type="float" />
          </accessor>
        </technique_common>
      </source>
      <source id="Motion_7_LFoot_transform_interp_id" name="Motion_7_LFoot_transform_interp">
        <Name_array id="Motion_7_LFoot_transform_interp_array_id" count="16">LINEAR LINEAR LINEAR LINEAR LINEAR LINEAR LINEAR LINEAR LINEAR LINEAR LINEAR LINEAR LINEAR LINEAR LINEAR LINEAR</Name_array>
        <technique_common>
          <accessor source="#Motion_7_LFoot_transform_interp_array_id" count="16" stride="1">
            <param name="INTERPOLATION" type="Name" />
          </accessor>
        </technique_common>
      </source>
      <source id="Motion_7_LFoot_transform_pose_id" name="Motion_7_LFoot_transform_pose">
        <float_array id="Motion_7_LFoot_transform_pose_array_id" count="256">0.20803154 0.022078954 -0.97787285 33.9 0.09783182 0.9942622 0.043261632 4E-06 0.97321725 -0.104666874 0.20467782 0 0 0 0 1 0.21917331 0.014210869 -0.97558254 33.9 0.10751493 0.9934529 0.038625374 4E-06 0.96974415 -0.11335534 0.21621048 0 0 0 0 1 0.23096716 0.00711488 -0.9729356 33.9 0.11507739 0.9927545 0.03457828 4E-06 0.9661322 -0.119949326 0.22847492 0 0 0 0 1 0.24329114 0.001099322 -0.9699527 33.9 0.11994442 0.9922899 0.031210028 4E-06 0.96250856 -0.12393353 0.24128348 0 0 0 0 1 0.2560243 -0.003506083 -0.966664 33.9 0.12153143 0.99217576 0.028589416 4E-06 0.9590004 -0.12479964 0.25444722 0 0 0 0 1 0.2690143 -0.006616596 -0.96311337 33.9 0.11950809 0.99247783 0.026562344 4E-06 0.95569295 -0.12224549 0.2677815 0 0 0 0 1 0.28205127 -0.008579381 -0.959361 33.9 0.11398269 0.9931774 0.02462902 4E-06 0.95260435 -0.11629719 0.28110486 0 0 0 0 1 0.2949189 -0.009380974 -0.95547634 33.9 0.10534171 0.99417573 0.022754025 4E-06 0.9496979 -0.10736209 0.2941894 0 0 0 0 1 0.3073933 -0.008776482 -0.95154214 33.9 0.09421909 0.99532455 0.021256942 4E-06 0.9469067 -0.096187666 0.30678302 0 0 0 0 1 0.31923825 -0.006737437 -0.94765055 33.9 0.081057414 0.9965043 0.020221315 4E-06 0.9442016 -0.083269514 0.31866843 0 0 0 0 1 0.33021533 -0.0032577887 -0.9438999 33.9 0.06630422 0.9976039 0.019752821 4E-06 0.9415739 -0.069107234 0.32964015 0 0 0 0 1 0.3400889 0.0016456004 -0.9403918 33.9 0.05041313 0.9985286 0.019979035 4E-06 0.939041 -0.054202743 0.3395055 0 0 0 0 1 0.34862727 0.0077453637 -0.93722934 33.9 0.03403312 0.9992018 0.020917026 4E-06 0.9366433 -0.039189085 0.3480854 0 0 0 0 1 0.35562015 0.014765334 -0.9345139 33.9 0.017849686 0.99958557 0.02258599 4E-06 0.93446004 -0.024712814 0.35520917 0 0 0 0 1 0.36088222 0.022588845 -0.93233776 33.9 0.002380319 0.99968106 0.025141805 4E-06 0.93260837 -0.011292491 0.36071336 0 0 0 0 1 0.36088222 0.022588845 -0.93233776 33.9 0.002380319 0.99968106 0.025141805 4E-06 0.93260837 -0.011292491 0.36071336 0 0 0 0 1</float_array>
        <technique_common>
          <accessor source="#Motion_7_LFoot_transform_pose_array_id" count="16" stride="16">
            <param name="TRANSFORM" type="float4x4" />
          </accessor>
        </technique_common>
      </source>
      <sampler id="Motion_7_LFoot_transform_samp_id">
        <input semantic="INPUT" source="#Motion_7_LFoot_transform_frame_id" />
        <input semantic="INTERPOLATION" source="#Motion_7_LFoot_transform_interp_id" />
        <input semantic="OUTPUT" source="#Motion_7_LFoot_transform_pose_id" />
      </sampler>
      <channel source="#Motion_7_LFoot_transform_samp_id" target="LFoot_bone_id/transform" />
    </animation>
    <animation id="Motion_7_RThigh_transform_id" name="Motion_7_RThigh_transform">
      <source id="Motion_7_RThigh_transform_frame_id" name="Motion_7_RThigh_transform_frame">
        <float_array id="Motion_7_RThigh_transform_frame_array_id" count="16">0 0.033333335 0.06666667 0.1 0.13333334 0.16666667 0.2 0.23333333 0.26666668 0.3 0.33333334 0.36666667 0.4 0.43333334 0.46666667 0.5</float_array>
        <technique_common>
          <accessor source="#Motion_7_RThigh_transform_frame_array_id" count="16" stride="1">
            <param name="TIME" type="float" />
          </accessor>
        </technique_common>
      </source>
      <source id="Motion_7_RThigh_transform_interp_id" name="Motion_7_RThigh_transform_interp">
        <Name_array id="Motion_7_RThigh_transform_interp_array_id" count="16">LINEAR LINEAR LINEAR LINEAR LINEAR LINEAR LINEAR LINEAR LINEAR LINEAR LINEAR LINEAR LINEAR LINEAR LINEAR LINEAR</Name_array>
        <technique_common>
          <accessor source="#Motion_7_RThigh_transform_interp_array_id" count="16" stride="1">
            <param name="INTERPOLATION" type="Name" />
          </accessor>
        </technique_common>
      </source>
      <source id="Motion_7_RThigh_transform_pose_id" name="Motion_7_RThigh_transform_pose">
        <float_array id="Motion_7_RThigh_transform_pose_array_id" count="256">0.9570402 0.064429045 -0.2827066 10.510002 -0.090188 0.9927821 -0.07905559 -8.8 0.27557257 0.101156116 0.9559431 0 0 0 0 1 0.95633775 0.06450069 -0.28505754 10.510002 -0.09161548 0.99234444 -0.08281994 -8.8 0.27753335 0.105319515 0.95492566 0 0 0 0 1 0.9554484 0.064552516 -0.28801283 10.510002 -0.0928088 0.99200237 -0.08554401 -8.8 0.28018734 0.10846301 0.9537981 0 0 0 0 1 0.9543619 0.06458898 -0.29158464 10.510002 -0.09375377 0.99177194 -0.08717019 -8.8 0.28355524 0.11052907 0.95256484 0 0 0 0 1 0.9530665 0.064617075 -0.29578504 10.510002 -0.09443364 0.9916659 -0.08764132 -8.8 0.2876568 0.11146007 0.95122564 0 0 0 0 1 0.95154876 0.064646535 -0.30062568 10.510002 -0.09482869 0.9916934 -0.08690068 -8.8 0.2925107 0.11119817 0.949775 0 0 0 0 1 0.94984883 0.0647005 -0.3059428 10.510002 -0.09490846 0.99185896 -0.084901266 -8.8 0.29795894 0.10967993 0.94825673 0 0 0 0 1 0.9480469 0.06480316 -0.3114604 10.510002 -0.09464326 0.99215704 -0.0816519 -8.8 0.30372635 0.10688747 0.9467446 0 0 0 0 1 0.9461904 0.06493908 -0.31702772 10.510002 -0.09403993 0.9925586 -0.07735552 -8.8 0.3096452 0.10300632 0.94525635 0 0 0 0 1 0.94433045 0.0650813 -0.32249707 10.510002 -0.093116716 0.99302924 -0.072265245 -8.8 0.31554592 0.09827214 0.9438079 0 0 0 0 1 0.94252187 0.065198556 -0.32772198 10.510002 -0.091896504 0.9935366 -0.066633634 -8.8 0.32125935 0.09292016 0.9424215 0 0 0 0 1 0.94082266 0.06525487 -0.3325575 10.510002 -0.09040722 0.9940526 -0.060712505 -8.8 0.32661784 0.0871853 0.9411267 0 0 0 0 1 0.939294 0.06520946 -0.33685988 10.510002 -0.08868188 0.994554 -0.054752797 -8.8 0.33145493 0.081302345 0.93996143 0 0 0 0 1 0.9379941 0.06507684 -0.3404879 10.510002 -0.0868177 0.9950187 -0.04899385 -8.8 0.33560348 0.07551631 0.9389716 0 0 0 0 1 0.93698126 0.0648918 -0.34330046 10.510002 -0.0849396 0.9954287 -0.043669198 -8.8 0.33889735 0.07007702 0.9382099 0 0 0 0 1 0.93698126 0.0648918 -0.34330046 10.510002 -0.0849396 0.9954287 -0.043669198 -8.8 0.33889735 0.07007702 0.9382099 0 0 0 0 1</float_array>
        <technique_common>
          <accessor source="#Motion_7_RThigh_transform_pose_array_id" count="16" stride="16">
            <param name="TRANSFORM" type="float4x4" />
          </accessor>
        </technique_common>
      </source>
      <sampler id="Motion_7_RThigh_transform_samp_id">
        <input semantic="INPUT" source="#Motion_7_RThigh_transform_frame_id" />
        <input semantic="INTERPOLATION" source="#Motion_7_RThigh_transform_interp_id" />
        <input semantic="OUTPUT" source="#Motion_7_RThigh_transform_pose_id" />
      </sampler>
      <channel source="#Motion_7_RThigh_transform_samp_id" target="RThigh_bone_id/transform" />
    </animation>
    <animation id="Motion_7_RLeg_transform_id" name="Motion_7_RLeg_transform">
      <source id="Motion_7_RLeg_transform_frame_id" name="Motion_7_RLeg_transform_frame">
        <float_array id="Motion_7_RLeg_transform_frame_array_id" count="16">0 0.033333335 0.06666667 0.1 0.13333334 0.16666667 0.2 0.23333333 0.26666668 0.3 0.33333334 0.36666667 0.4 0.43333334 0.46666667 0.5</float_array>
        <technique_common>
          <accessor source="#Motion_7_RLeg_transform_frame_array_id" count="16" stride="1">
            <param name="TIME" type="float" />
          </accessor>
        </technique_common>
      </source>
      <source id="Motion_7_RLeg_transform_interp_id" name="Motion_7_RLeg_transform_interp">
        <Name_array id="Motion_7_RLeg_transform_interp_array_id" count="16">LINEAR LINEAR LINEAR LINEAR LINEAR LINEAR LINEAR LINEAR LINEAR LINEAR LINEAR LINEAR LINEAR LINEAR LINEAR LINEAR</Name_array>
        <technique_common>
          <accessor source="#Motion_7_RLeg_transform_interp_array_id" count="16" stride="1">
            <param name="INTERPOLATION" type="Name" />
          </accessor>
        </technique_common>
      </source>
      <source id="Motion_7_RLeg_transform_pose_id" name="Motion_7_RLeg_transform_pose">
        <float_array id="Motion_7_RLeg_transform_pose_array_id" count="256">0.37926102 0 0.92528975 33.899998 0 1 0 0 -0.92528975 0 0.37926102 0 0 0 0 1 0.37984782 0 0.92504895 33.899998 0 1 0 0 -0.92504895 0 0.37984782 0 0 0 0 1 0.38017792 0 0.92491335 33.899998 0 1 0 0 -0.92491335 0 0.38017792 0 0 0 0 1 0.38026804 0 0.92487633 33.899998 0 1 0 0 -0.92487633 0 0.38026804 0 0 0 0 1 0.38013494 0 0.92493105 33.899998 0 1 0 0 -0.92493105 0 0.38013494 0 0 0 0 1 0.3797955 0 0.9250705 33.899998 0 1 0 0 -0.9250705 0 0.3797955 0 0 0 0 1 0.3792658 0 0.9252878 33.899998 0 1 0 0 -0.9252878 0 0.3792658 0 0 0 0 1 0.3785628 0 0.92557555 33.899998 0 1 0 0 -0.92557555 0 0.3785628 0 0 0 0 1 0.37770253 0 0.92592704 33.899998 0 1 0 0 -0.92592704 0 0.37770253 0 0 0 0 1 0.37670213 0 0.9263345 33.899998 0 1 0 0 -0.9263345 0 0.37670213 0 0 0 0 1 0.37557775 0 0.9267909 33.899998 0 1 0 0 -0.9267909 0 0.37557775 0 0 0 0 1 0.37434596 0 0.92728907 33.899998 0 1 0 0 -0.92728907 0 0.37434596 0 0 0 0 1 0.3730232 0 0.927822 33.899998 0 1 0 0 -0.927822 0 0.3730232 0 0 0 0 1 0.37162614 0 0.9283825 33.899998 0 1 0 0 -0.9283825 0 0.37162614 0 0 0 0 1 0.37017155 0 0.92896336 33.899998 0 1 0 0 -0.92896336 0 0.37017155 0 0 0 0 1 0.37017155 0 0.92896336 33.899998 0 1 0 0 -0.92896336 0 0.37017155 0 0 0 0 1</float_array>
        <technique_common>
          <accessor source="#Motion_7_RLeg_transform_pose_array_id" count="16" stride="16">
            <param name="TRANSFORM" type="float4x4" />
          </accessor>
        </technique_common>
      </source>
      <sampler id="Motion_7_RLeg_transform_samp_id">
        <input semantic="INPUT" source="#Motion_7_RLeg_transform_frame_id" />
        <input semantic="INTERPOLATION" source="#Motion_7_RLeg_transform_interp_id" />
        <input semantic="OUTPUT" source="#Motion_7_RLeg_transform_pose_id" />
      </sampler>
      <channel source="#Motion_7_RLeg_transform_samp_id" target="RLeg_bone_id/transform" />
    </animation>
    <animation id="Motion_7_RFoot_transform_id" name="Motion_7_RFoot_transform">
      <source id="Motion_7_RFoot_transform_frame_id" name="Motion_7_RFoot_transform_frame">
        <float_array id="Motion_7_RFoot_transform_frame_array_id" count="16">0 0.033333335 0.06666667 0.1 0.13333334 0.16666667 0.2 0.23333333 0.26666668 0.3 0.33333334 0.36666667 0.4 0.43333334 0.46666667 0.5</float_array>
        <technique_common>
          <accessor source="#Motion_7_RFoot_transform_frame_array_id" count="16" stride="1">
            <param name="TIME" type="float" />
          </accessor>
        </technique_common>
      </source>
      <source id="Motion_7_RFoot_transform_interp_id" name="Motion_7_RFoot_transform_interp">
        <Name_array id="Motion_7_RFoot_transform_interp_array_id" count="16">LINEAR LINEAR LINEAR LINEAR LINEAR LINEAR LINEAR LINEAR LINEAR LINEAR LINEAR LINEAR LINEAR LINEAR LINEAR LINEAR</Name_array>
        <technique_common>
          <accessor source="#Motion_7_RFoot_transform_interp_array_id" count="16" stride="1">
            <param name="INTERPOLATION" type="Name" />
          </accessor>
        </technique_common>
      </source>
      <source id="Motion_7_RFoot_transform_pose_id" name="Motion_7_RFoot_transform_pose">
        <float_array id="Motion_7_RFoot_transform_pose_array_id" count="256">0.14873523 -0.090713456 -0.9847076 33.9 0.03230403 0.9956978 -0.08684654 0 0.9883493 -0.018892877 0.15102577 0 0 0 0 1 0.15732867 -0.1051035 -0.98193735 33.9 0.038283102 0.994222 -0.10028459 0 0.98680395 -0.021813966 0.1604433 0 0 0 0 1 0.16744065 -0.11768374 -0.9788331 33.9 0.04155631 0.99281 -0.112255484 0 0.985006 -0.021880563 0.17112726 0 0 0 0 1 0.17903304 -0.12733342 -0.9755682 33.9 0.041249577 0.99168885 -0.12186753 0 0.98297787 -0.01842346 0.18279755 0 0 0 0 1 0.19184339 -0.1346341 -0.972147 33.9 0.038188387 0.9908197 -0.12968403 0 0.98068225 -0.0122457035 0.19522369 0 0 0 0 1 0.20496356 -0.13969415 -0.9687494 33.9 0.03268026 0.99018735 -0.13587117 0 0.9782238 -0.0038103387 0.20751756 0 0 0 0 1 0.21751708 -0.1426416 -0.9655774 33.9 0.025028627 0.98975366 -0.14057484 0 0.9757356 0.006410368 0.21885848 0 0 0 0 1 0.22930062 -0.14363918 -0.9626988 33.9 0.015591025 0.98946655 -0.1439195 0 0.9732307 0.017991364 0.22912478 0 0 0 0 1 0.24010247 -0.14286788 -0.9601769 33.9 0.0047341734 0.98927134 -0.14601311 0 0.9707361 0.030512478 0.23820281 0 0 0 0 1 0.24973267 -0.13994107 -0.9581493 33.9 -0.0072383434 0.9892044 -0.14636338 0 0.9682878 0.04348714 0.24602371 0 0 0 0 1 0.25798327 -0.13456419 -0.9567325 33.9 -0.019972976 0.98929876 -0.14453036 0 0.96594286 0.056395214 0.25253487 0 0 0 0 1 0.26462245 -0.12708105 -0.95594215 33.9 -0.03300819 0.9895047 -0.14068007 0 0.9637871 0.06878103 0.25765043 0 0 0 0 1 0.26943415 -0.117847405 -0.9557809 33.9 -0.0458659 0.9897876 -0.13496998 0 0.9619259 0.080203265 0.26127738 0 0 0 0 1 0.27217972 -0.107228264 -0.95625323 33.9 -0.058055177 0.99013144 -0.12755147 0 0.9604935 0.09023237 0.26326853 0 0 0 0 1 0.2730986 -0.095573395 -0.95722663 33.9 -0.06904571 0.99053884 -0.11859828 0 0.95950496 0.09848142 0.26391584 0 0 0 0 1 0.2730986 -0.095573395 -0.95722663 33.9 -0.06904571 0.99053884 -0.11859828 0 0.95950496 0.09848142 0.26391584 0 0 0 0 1</float_array>
        <technique_common>
          <accessor source="#Motion_7_RFoot_transform_pose_array_id" count="16" stride="16">
            <param name="TRANSFORM" type="float4x4" />
          </accessor>
        </technique_common>
      </source>
      <sampler id="Motion_7_RFoot_transform_samp_id">
        <input semantic="INPUT" source="#Motion_7_RFoot_transform_frame_id" />
        <input semantic="INTERPOLATION" source="#Motion_7_RFoot_transform_interp_id" />
        <input semantic="OUTPUT" source="#Motion_7_RFoot_transform_pose_id" />
      </sampler>
      <channel source="#Motion_7_RFoot_transform_samp_id" target="RFoot_bone_id/transform" />
    </animation>
  </library_animations>
  <library_visual_scenes>
    <visual_scene id="tr0213_00_fi_00_clip_id" name="tr0213_00_fi_00_clip">
      <node id="tr0213_00_fi_bone_id" name="tr0213_00_fi" sid="tr0213_00_fi" type="JOINT">
        <matrix sid="transform">1 0 0 0 0 1 0 0 0 0 1 0 0 0 0 1</matrix>
        <node id="Origin_bone_id" name="Origin" sid="Origin" type="JOINT">
          <matrix sid="transform">1 0 0 0 0 1 0 0 0 0 1 0 0 0 0 1</matrix>
          <node id="Waist_bone_id" name="Waist" sid="Waist" type="JOINT">
            <matrix sid="transform">3.1391647E-07 -1 0 0 1 3.1391647E-07 0 88.8 0 0 1 0 0 0 0 1</matrix>
            <node id="Spine2_bone_id" name="Spine2" sid="Spine2" type="JOINT">
              <matrix sid="transform">1 0 0 12.099998 0 1 0 0 0 0 1 0 0 0 0 1</matrix>
              <node id="Spine3_bone_id" name="Spine3" sid="Spine3" type="JOINT">
                <matrix sid="transform">0.9919065 0 0.12697035 12.099991 0 1 0 0 -0.12697035 0 0.9919065 0 0 0 0 1</matrix>
                <node id="Neck_bone_id" name="Neck" sid="Neck" type="JOINT">
                  <matrix sid="transform">0.9441987 0 -0.32937634 15.720233 0 1 0 0 0.32937634 0 0.9441987 0 0 0 0 1</matrix>
                  <node id="Head_bone_id" name="Head" sid="Head" type="JOINT">
                    <matrix sid="transform">0.9783777 0 0.2068263 5.129917 0 1 0 0 -0.2068263 0 0.9783777 0 0 0 0 1</matrix>
                    <node id="Hair_bone_id" name="Hair" sid="Hair" type="JOINT">
                      <matrix sid="transform">-0.90939814 0 0.41592675 2.803734 0 1 0 0 -0.41592675 0 -0.90939814 -10.410409 0 0 0 1</matrix>
                    </node>
                    <node id="Loc_Head_bone_id" name="Loc_Head" sid="Loc_Head" type="JOINT">
                      <matrix sid="transform">3.1391647E-07 1 0 35.163876 -1 3.1391647E-07 0 0 0 0 1 0.935 0 0 0 1</matrix>
                    </node>
                    <node id="Loc_Eye_bone_id" name="Loc_Eye" sid="Loc_Eye" type="JOINT">
                      <matrix sid="transform">3.1391647E-07 1 0 10.581758 -1 3.1391647E-07 0 0 0 0 1 14.511809 0 0 0 1</matrix>
                    </node>
                    <node id="Loc_Mouth_bone_id" name="Loc_Mouth" sid="Loc_Mouth" type="JOINT">
                      <matrix sid="transform">3.1391647E-07 1 0 1.906411 -1 3.1391647E-07 0 0 0 0 1 14.008676 0 0 0 1</matrix>
                    </node>
                  </node>
                </node>
                <node id="LShoulder_bone_id" name="LShoulder" sid="LShoulder" type="JOINT">
                  <matrix sid="transform">-0.49867246 0.85744053 -0.12697043 14.14009 -0.86443686 -0.5027414 -3.2229138E-07 -4.650002 -0.06383357 0.10975776 0.9919065 -0.201936 0 0 0 1</matrix>
                  <node id="LArm_bone_id" name="LArm" sid="LArm" type="JOINT">
                    <matrix sid="transform">0.8644369 -0.5027413 0 9.635175 0.5027413 0.8644369 0 0 0 0 1 0 0 0 0 1</matrix>
                    <node id="LForeArm_bone_id" name="LForeArm" sid="LForeArm" type="JOINT">
                      <matrix sid="transform">1 0 0 22.9 0 1 0 0 0 0 1 0 0 0 0 1</matrix>
                      <node id="LHand_bone_id" name="LHand" sid="LHand" type="JOINT">
                        <matrix sid="transform">1 0 0 22.900002 0 1 0 0 0 0 1 0 0 0 0 1</matrix>
                      </node>
                    </node>
                  </node>
                </node>
                <node id="RShoulder_bone_id" name="RShoulder" sid="RShoulder" type="JOINT">
                  <matrix sid="transform">-0.49867246 -0.85744053 -0.12697043 14.14009 0.86443686 -0.5027414 3.2229138E-07 4.650001 -0.06383357 -0.10975776 0.9919065 -0.201935 0 0 0 1</matrix>
                  <node id="RArm_bone_id" name="RArm" sid="RArm" type="JOINT">
                    <matrix sid="transform">0.8644369 0.5027413 0 9.635175 -0.5027413 0.8644369 0 0 0 0 1 0 0 0 0 1</matrix>
                    <node id="RForeArm_bone_id" name="RForeArm" sid="RForeArm" type="JOINT">
                      <matrix sid="transform">1 0 0 22.9 0 1 0 0 0 0 1 0 0 0 0 1</matrix>
                      <node id="RHand_bone_id" name="RHand" sid="RHand" type="JOINT">
                        <matrix sid="transform">1 0 0 22.900002 0 1 0 0 0 0 1 0 0 0 0 1</matrix>
                      </node>
                    </node>
                  </node>
                </node>
              </node>
            </node>
            <node id="Hips_bone_id" name="Hips" sid="Hips" type="JOINT">
              <matrix sid="transform">-1 -3.2584137E-07 0 -0.010002 3.2584137E-07 -1 0 0 0 0 1 0 0 0 0 1</matrix>
              <node id="LThigh_bone_id" name="LThigh" sid="LThigh" type="JOINT">
                <matrix sid="transform">1 0 0 10.510002 0 1 0 8.799997 0 0 1 0 0 0 0 1</matrix>
                <node id="LLeg_bone_id" name="LLeg" sid="LLeg" type="JOINT">
                  <matrix sid="transform">1 0 0 33.899998 0 1 0 0 0 0 1 0 0 0 0 1</matrix>
                  <node id="LFoot_bone_id" name="LFoot" sid="LFoot" type="JOINT">
                    <matrix sid="transform">3.1391647E-07 0 -1 33.9 0 1 0 4E-06 1 0 3.1391647E-07 0 0 0 0 1</matrix>
                  </node>
                </node>
              </node>
              <node id="RThigh_bone_id" name="RThigh" sid="RThigh" type="JOINT">
                <matrix sid="transform">1 0 0 10.510002 0 1 0 -8.8 0 0 1 0 0 0 0 1</matrix>
                <node id="RLeg_bone_id" name="RLeg" sid="RLeg" type="JOINT">
                  <matrix sid="transform">1 0 0 33.899998 0 1 0 0 0 0 1 0 0 0 0 1</matrix>
                  <node id="RFoot_bone_id" name="RFoot" sid="RFoot" type="JOINT">
                    <matrix sid="transform">3.1391647E-07 0 -1 33.9 0 1 0 0 1 0 3.1391647E-07 0 0 0 0 1</matrix>
                  </node>
                </node>
              </node>
            </node>
          </node>
          <node id="CamTgtHead_bone_id" name="CamTgtHead" sid="CamTgtHead" type="JOINT">
            <matrix sid="transform">1 0 0 0 0 1 0 144.19376 0 0 1 0 0 0 0 1</matrix>
          </node>
          <node id="CamTgtBust_bone_id" name="CamTgtBust" sid="CamTgtBust" type="JOINT">
            <matrix sid="transform">1 0 0 0 0 1 0 112.99999 0 0 1 0 0 0 0 1</matrix>
          </node>
          <node id="CamTgtBody_bone_id" name="CamTgtBody" sid="CamTgtBody" type="JOINT">
            <matrix sid="transform">1 0 0 0 0 1 0 88.8 0 0 1 0 0 0 0 1</matrix>
          </node>
          <node id="CamTgtFoot_bone_id" name="CamTgtFoot" sid="CamTgtFoot" type="JOINT">
            <matrix sid="transform">1 0 0 0 0 1 0 0 0 0 1 0 0 0 0 1</matrix>
          </node>
        </node>
        <node id="tr0213_00_fi_HelmetSkin_bone_id" name="tr0213_00_fi_HelmetSkin" sid="tr0213_00_fi_HelmetSkin" type="JOINT">
          <matrix sid="transform">1 0 0 0 0 1 0 0 0 0 1 0 0 0 0 1</matrix>
        </node>
        <node id="tr0213_00_fi_HeadSkin_bone_id" name="tr0213_00_fi_HeadSkin" sid="tr0213_00_fi_HeadSkin" type="JOINT">
          <matrix sid="transform">1 0 0 0 0 1 0 0 0 0 1 0 0 0 0 1</matrix>
        </node>
        <node id="tr0213_00_fi_FaceSkin_bone_id" name="tr0213_00_fi_FaceSkin" sid="tr0213_00_fi_FaceSkin" type="JOINT">
          <matrix sid="transform">1 0 0 0 0 1 0 0 0 0 1 0 0 0 0 1</matrix>
        </node>
        <node id="tr0213_00_fi_BodySkin_bone_id" name="tr0213_00_fi_BodySkin" sid="tr0213_00_fi_BodySkin" type="JOINT">
          <matrix sid="transform">1 0 0 0 0 1 0 0 0 0 1 0 0 0 0 1</matrix>
        </node>
        <node id="tr0213_00_fi_BottomSkin_bone_id" name="tr0213_00_fi_BottomSkin" sid="tr0213_00_fi_BottomSkin" type="JOINT">
          <matrix sid="transform">1 0 0 0 0 1 0 0 0 0 1 0 0 0 0 1</matrix>
        </node>
      </node>
    </visual_scene>
  </library_visual_scenes>
  <scene>
    <instance_visual_scene url="#tr0213_00_fi_00_clip_id" />
  </scene>
</COLLADA>