<?xml version="1.0" encoding="utf-8"?>
<COLLADA xmlns:xsi="http://www.w3.org/2001/XMLSchema-instance" xmlns:xsd="http://www.w3.org/2001/XMLSchema" version="1.4.1" xmlns="http://www.collada.org/2005/11/COLLADASchema">
  <asset>
    <created>2026-02-17T05:46:57.2652404-05:00</created>
    <modified>2026-02-17T05:46:57.2652406-05:00</modified>
    <up_axis>Y_UP</up_axis>
  </asset>
  <library_animations>
    <animation id="Motion_9_Waist_transform_id" name="Motion_9_Waist_transform">
      <source id="Motion_9_Waist_transform_frame_id" name="Motion_9_Waist_transform_frame">
        <float_array id="Motion_9_Waist_transform_frame_array_id" count="4">0 0.033333335 0.06666667 0.1</float_array>
        <technique_common>
          <accessor source="#Motion_9_Waist_transform_frame_array_id" count="4" stride="1">
            <param name="TIME" type="float" />
          </accessor>
        </technique_common>
      </source>
      <source id="Motion_9_Waist_transform_interp_id" name="Motion_9_Waist_transform_interp">
        <Name_array id="Motion_9_Waist_transform_interp_array_id" count="4">LINEAR LINEAR LINEAR LINEAR</Name_array>
        <technique_common>
          <accessor source="#Motion_9_Waist_transform_interp_array_id" count="4" stride="1">
            <param name="INTERPOLATION" type="Name" />
          </accessor>
        </technique_common>
      </source>
      <source id="Motion_9_Waist_transform_pose_id" name="Motion_9_Waist_transform_pose">
        <float_array id="Motion_9_Waist_transform_pose_array_id" count="64">-0.0016288068 -1.1429989 5.550006E-05 -0.045189437 1.1429962 -0.0016288068 -0.0025022975 14.654952 0.0025023737 5.1934243E-05 1.1429973 0.16108753 0 0 0 1 -0.0012527397 -1.1429993 5.3954867E-05 -0.03227423 1.142998 -0.0012527397 -0.001769788 14.945729 0.0017698461 5.2015148E-05 1.1429987 0.1583483 0 0 0 1 -0.000842881 -1.1429996 5.281555E-05 -0.019195102 1.1429992 -0.000842881 -0.0010825868 15.075675 0.0010826255 5.2017243E-05 1.1429994 0.1521374 0 0 0 1 -0.000842881 -1.1429996 5.281555E-05 -0.019195102 1.1429992 -0.000842881 -0.0010825868 15.075675 0.0010826255 5.2017243E-05 1.1429994 0.1521374 0 0 0 1</float_array>
        <technique_common>
          <accessor source="#Motion_9_Waist_transform_pose_array_id" count="4" stride="16">
            <param name="TRANSFORM" type="float4x4" />
          </accessor>
        </technique_common>
      </source>
      <sampler id="Motion_9_Waist_transform_samp_id">
        <input semantic="INPUT" source="#Motion_9_Waist_transform_frame_id" />
        <input semantic="INTERPOLATION" source="#Motion_9_Waist_transform_interp_id" />
        <input semantic="OUTPUT" source="#Motion_9_Waist_transform_pose_id" />
      </sampler>
      <channel source="#Motion_9_Waist_transform_samp_id" target="Waist_bone_id/transform" />
    </animation>
    <animation id="Motion_9_LowerHorn_transform_id" name="Motion_9_LowerHorn_transform">
      <source id="Motion_9_LowerHorn_transform_frame_id" name="Motion_9_LowerHorn_transform_frame">
        <float_array id="Motion_9_LowerHorn_transform_frame_array_id" count="4">0 0.033333335 0.06666667 0.1</float_array>
        <technique_common>
          <accessor source="#Motion_9_LowerHorn_transform_frame_array_id" count="4" stride="1">
            <param name="TIME" type="float" />
          </accessor>
        </technique_common>
      </source>
      <source id="Motion_9_LowerHorn_transform_interp_id" name="Motion_9_LowerHorn_transform_interp">
        <Name_array id="Motion_9_LowerHorn_transform_interp_array_id" count="4">LINEAR LINEAR LINEAR LINEAR</Name_array>
        <technique_common>
          <accessor source="#Motion_9_LowerHorn_transform_interp_array_id" count="4" stride="1">
            <param name="INTERPOLATION" type="Name" />
          </accessor>
        </technique_common>
      </source>
      <source id="Motion_9_LowerHorn_transform_pose_id" name="Motion_9_LowerHorn_transform_pose">
        <float_array id="Motion_9_LowerHorn_transform_pose_array_id" count="64">-0.6038933 0 -0.6330454 -9.385896 0 0.8748906 0 0 0.6330454 0 -0.6038933 6.2352567 0 0 0 1 -0.6038933 0 -0.6330454 -9.385896 0 0.8748906 0 0 0.6330454 0 -0.6038933 6.2352567 0 0 0 1 -0.6038933 0 -0.6330454 -9.385896 0 0.8748906 0 0 0.6330454 0 -0.6038933 6.2352567 0 0 0 1 -0.6038933 0 -0.6330454 -9.385896 0 0.8748906 0 0 0.6330454 0 -0.6038933 6.2352567 0 0 0 1</float_array>
        <technique_common>
          <accessor source="#Motion_9_LowerHorn_transform_pose_array_id" count="4" stride="16">
            <param name="TRANSFORM" type="float4x4" />
          </accessor>
        </technique_common>
      </source>
      <sampler id="Motion_9_LowerHorn_transform_samp_id">
        <input semantic="INPUT" source="#Motion_9_LowerHorn_transform_frame_id" />
        <input semantic="INTERPOLATION" source="#Motion_9_LowerHorn_transform_interp_id" />
        <input semantic="OUTPUT" source="#Motion_9_LowerHorn_transform_pose_id" />
      </sampler>
      <channel source="#Motion_9_LowerHorn_transform_samp_id" target="LowerHorn_bone_id/transform" />
    </animation>
    <animation id="Motion_9_RLowerHornB_transform_id" name="Motion_9_RLowerHornB_transform">
      <source id="Motion_9_RLowerHornB_transform_frame_id" name="Motion_9_RLowerHornB_transform_frame">
        <float_array id="Motion_9_RLowerHornB_transform_frame_array_id" count="4">0 0.033333335 0.06666667 0.1</float_array>
        <technique_common>
          <accessor source="#Motion_9_RLowerHornB_transform_frame_array_id" count="4" stride="1">
            <param name="TIME" type="float" />
          </accessor>
        </technique_common>
      </source>
      <source id="Motion_9_RLowerHornB_transform_interp_id" name="Motion_9_RLowerHornB_transform_interp">
        <Name_array id="Motion_9_RLowerHornB_transform_interp_array_id" count="4">LINEAR LINEAR LINEAR LINEAR</Name_array>
        <technique_common>
          <accessor source="#Motion_9_RLowerHornB_transform_interp_array_id" count="4" stride="1">
            <param name="INTERPOLATION" type="Name" />
          </accessor>
        </technique_common>
      </source>
      <source id="Motion_9_RLowerHornB_transform_pose_id" name="Motion_9_RLowerHornB_transform_pose">
        <float_array id="Motion_9_RLowerHornB_transform_pose_array_id" count="64">-0.48762378 0.30898082 -0.65740955 -8.257858 0.49750975 0.7189928 -0.031095738 6.5709643 0.52928305 -0.3911697 -0.57643664 5.0863795 0 0 0 1 -0.48762378 0.30898082 -0.65740955 -8.257858 0.49750975 0.7189928 -0.031095738 6.5709643 0.52928305 -0.3911697 -0.57643664 5.0863795 0 0 0 1 -0.48762378 0.30898082 -0.65740955 -8.257858 0.49750975 0.7189928 -0.031095738 6.5709643 0.52928305 -0.3911697 -0.57643664 5.0863795 0 0 0 1 -0.48762378 0.30898082 -0.65740955 -8.257858 0.49750975 0.7189928 -0.031095738 6.5709643 0.52928305 -0.3911697 -0.57643664 5.0863795 0 0 0 1</float_array>
        <technique_common>
          <accessor source="#Motion_9_RLowerHornB_transform_pose_array_id" count="4" stride="16">
            <param name="TRANSFORM" type="float4x4" />
          </accessor>
        </technique_common>
      </source>
      <sampler id="Motion_9_RLowerHornB_transform_samp_id">
        <input semantic="INPUT" source="#Motion_9_RLowerHornB_transform_frame_id" />
        <input semantic="INTERPOLATION" source="#Motion_9_RLowerHornB_transform_interp_id" />
        <input semantic="OUTPUT" source="#Motion_9_RLowerHornB_transform_pose_id" />
      </sampler>
      <channel source="#Motion_9_RLowerHornB_transform_samp_id" target="RLowerHornB_bone_id/transform" />
    </animation>
    <animation id="Motion_9_LLowerHornB_transform_id" name="Motion_9_LLowerHornB_transform">
      <source id="Motion_9_LLowerHornB_transform_frame_id" name="Motion_9_LLowerHornB_transform_frame">
        <float_array id="Motion_9_LLowerHornB_transform_frame_array_id" count="4">0 0.033333335 0.06666667 0.1</float_array>
        <technique_common>
          <accessor source="#Motion_9_LLowerHornB_transform_frame_array_id" count="4" stride="1">
            <param name="TIME" type="float" />
          </accessor>
        </technique_common>
      </source>
      <source id="Motion_9_LLowerHornB_transform_interp_id" name="Motion_9_LLowerHornB_transform_interp">
        <Name_array id="Motion_9_LLowerHornB_transform_interp_array_id" count="4">LINEAR LINEAR LINEAR LINEAR</Name_array>
        <technique_common>
          <accessor source="#Motion_9_LLowerHornB_transform_interp_array_id" count="4" stride="1">
            <param name="INTERPOLATION" type="Name" />
          </accessor>
        </technique_common>
      </source>
      <source id="Motion_9_LLowerHornB_transform_pose_id" name="Motion_9_LLowerHornB_transform_pose">
        <float_array id="Motion_9_LLowerHornB_transform_pose_array_id" count="64">-0.48762378 -0.30898082 -0.65740955 -8.257856 -0.49750975 0.7189928 0.031095738 -6.570963 0.52928305 0.3911697 -0.57643664 5.086381 0 0 0 1 -0.48762378 -0.30898082 -0.65740955 -8.257856 -0.49750975 0.7189928 0.031095738 -6.570963 0.52928305 0.3911697 -0.57643664 5.086381 0 0 0 1 -0.48762378 -0.30898082 -0.65740955 -8.257856 -0.49750975 0.7189928 0.031095738 -6.570963 0.52928305 0.3911697 -0.57643664 5.086381 0 0 0 1 -0.48762378 -0.30898082 -0.65740955 -8.257856 -0.49750975 0.7189928 0.031095738 -6.570963 0.52928305 0.3911697 -0.57643664 5.086381 0 0 0 1</float_array>
        <technique_common>
          <accessor source="#Motion_9_LLowerHornB_transform_pose_array_id" count="4" stride="16">
            <param name="TRANSFORM" type="float4x4" />
          </accessor>
        </technique_common>
      </source>
      <sampler id="Motion_9_LLowerHornB_transform_samp_id">
        <input semantic="INPUT" source="#Motion_9_LLowerHornB_transform_frame_id" />
        <input semantic="INTERPOLATION" source="#Motion_9_LLowerHornB_transform_interp_id" />
        <input semantic="OUTPUT" source="#Motion_9_LLowerHornB_transform_pose_id" />
      </sampler>
      <channel source="#Motion_9_LLowerHornB_transform_samp_id" target="LLowerHornB_bone_id/transform" />
    </animation>
    <animation id="Motion_9_RLowerHornA_transform_id" name="Motion_9_RLowerHornA_transform">
      <source id="Motion_9_RLowerHornA_transform_frame_id" name="Motion_9_RLowerHornA_transform_frame">
        <float_array id="Motion_9_RLowerHornA_transform_frame_array_id" count="4">0 0.033333335 0.06666667 0.1</float_array>
        <technique_common>
          <accessor source="#Motion_9_RLowerHornA_transform_frame_array_id" count="4" stride="1">
            <param name="TIME" type="float" />
          </accessor>
        </technique_common>
      </source>
      <source id="Motion_9_RLowerHornA_transform_interp_id" name="Motion_9_RLowerHornA_transform_interp">
        <Name_array id="Motion_9_RLowerHornA_transform_interp_array_id" count="4">LINEAR LINEAR LINEAR LINEAR</Name_array>
        <technique_common>
          <accessor source="#Motion_9_RLowerHornA_transform_interp_array_id" count="4" stride="1">
            <param name="INTERPOLATION" type="Name" />
          </accessor>
        </technique_common>
      </source>
      <source id="Motion_9_RLowerHornA_transform_pose_id" name="Motion_9_RLowerHornA_transform_pose">
        <float_array id="Motion_9_RLowerHornA_transform_pose_array_id" count="64">-0.30388105 0.5700842 -0.58999497 -5.0775895 0.8130325 0.2935015 -0.13516136 11.29487 0.10985501 -0.59522647 -0.6317208 1.5785298 0 0 0 1 -0.30388105 0.5700842 -0.58999497 -5.0775895 0.8130325 0.2935015 -0.13516136 11.29487 0.10985501 -0.59522647 -0.6317208 1.5785298 0 0 0 1 -0.30388105 0.5700842 -0.58999497 -5.0775895 0.8130325 0.2935015 -0.13516136 11.29487 0.10985501 -0.59522647 -0.6317208 1.5785298 0 0 0 1 -0.30388105 0.5700842 -0.58999497 -5.0775895 0.8130325 0.2935015 -0.13516136 11.29487 0.10985501 -0.59522647 -0.6317208 1.5785298 0 0 0 1</float_array>
        <technique_common>
          <accessor source="#Motion_9_RLowerHornA_transform_pose_array_id" count="4" stride="16">
            <param name="TRANSFORM" type="float4x4" />
          </accessor>
        </technique_common>
      </source>
      <sampler id="Motion_9_RLowerHornA_transform_samp_id">
        <input semantic="INPUT" source="#Motion_9_RLowerHornA_transform_frame_id" />
        <input semantic="INTERPOLATION" source="#Motion_9_RLowerHornA_transform_interp_id" />
        <input semantic="OUTPUT" source="#Motion_9_RLowerHornA_transform_pose_id" />
      </sampler>
      <channel source="#Motion_9_RLowerHornA_transform_samp_id" target="RLowerHornA_bone_id/transform" />
    </animation>
    <animation id="Motion_9_LLowerHornA_transform_id" name="Motion_9_LLowerHornA_transform">
      <source id="Motion_9_LLowerHornA_transform_frame_id" name="Motion_9_LLowerHornA_transform_frame">
        <float_array id="Motion_9_LLowerHornA_transform_frame_array_id" count="4">0 0.033333335 0.06666667 0.1</float_array>
        <technique_common>
          <accessor source="#Motion_9_LLowerHornA_transform_frame_array_id" count="4" stride="1">
            <param name="TIME" type="float" />
          </accessor>
        </technique_common>
      </source>
      <source id="Motion_9_LLowerHornA_transform_interp_id" name="Motion_9_LLowerHornA_transform_interp">
        <Name_array id="Motion_9_LLowerHornA_transform_interp_array_id" count="4">LINEAR LINEAR LINEAR LINEAR</Name_array>
        <technique_common>
          <accessor source="#Motion_9_LLowerHornA_transform_interp_array_id" count="4" stride="1">
            <param name="INTERPOLATION" type="Name" />
          </accessor>
        </technique_common>
      </source>
      <source id="Motion_9_LLowerHornA_transform_pose_id" name="Motion_9_LLowerHornA_transform_pose">
        <float_array id="Motion_9_LLowerHornA_transform_pose_array_id" count="64">-0.30388105 -0.5700842 -0.58999497 -5.077586 -0.8130325 0.2935015 0.13516136 -11.294842 0.10985501 0.59522647 -0.6317208 1.5785289 0 0 0 1 -0.30388105 -0.5700842 -0.58999497 -5.077586 -0.8130325 0.2935015 0.13516136 -11.294842 0.10985501 0.59522647 -0.6317208 1.5785289 0 0 0 1 -0.30388105 -0.5700842 -0.58999497 -5.077586 -0.8130325 0.2935015 0.13516136 -11.294842 0.10985501 0.59522647 -0.6317208 1.5785289 0 0 0 1 -0.30388105 -0.5700842 -0.58999497 -5.077586 -0.8130325 0.2935015 0.13516136 -11.294842 0.10985501 0.59522647 -0.6317208 1.5785289 0 0 0 1</float_array>
        <technique_common>
          <accessor source="#Motion_9_LLowerHornA_transform_pose_array_id" count="4" stride="16">
            <param name="TRANSFORM" type="float4x4" />
          </accessor>
        </technique_common>
      </source>
      <sampler id="Motion_9_LLowerHornA_transform_samp_id">
        <input semantic="INPUT" source="#Motion_9_LLowerHornA_transform_frame_id" />
        <input semantic="INTERPOLATION" source="#Motion_9_LLowerHornA_transform_interp_id" />
        <input semantic="OUTPUT" source="#Motion_9_LLowerHornA_transform_pose_id" />
      </sampler>
      <channel source="#Motion_9_LLowerHornA_transform_samp_id" target="LLowerHornA_bone_id/transform" />
    </animation>
    <animation id="Motion_9_Hips_transform_id" name="Motion_9_Hips_transform">
      <source id="Motion_9_Hips_transform_frame_id" name="Motion_9_Hips_transform_frame">
        <float_array id="Motion_9_Hips_transform_frame_array_id" count="4">0 0.033333335 0.06666667 0.1</float_array>
        <technique_common>
          <accessor source="#Motion_9_Hips_transform_frame_array_id" count="4" stride="1">
            <param name="TIME" type="float" />
          </accessor>
        </technique_common>
      </source>
      <source id="Motion_9_Hips_transform_interp_id" name="Motion_9_Hips_transform_interp">
        <Name_array id="Motion_9_Hips_transform_interp_array_id" count="4">LINEAR LINEAR LINEAR LINEAR</Name_array>
        <technique_common>
          <accessor source="#Motion_9_Hips_transform_interp_array_id" count="4" stride="1">
            <param name="INTERPOLATION" type="Name" />
          </accessor>
        </technique_common>
      </source>
      <source id="Motion_9_Hips_transform_pose_id" name="Motion_9_Hips_transform_pose">
        <float_array id="Motion_9_Hips_transform_pose_array_id" count="64">-1 8.742278E-08 0 -0.001 -8.742278E-08 -1 0 0 0 0 1 0 0 0 0 1 -1 8.742278E-08 0 -0.001 -8.742278E-08 -1 0 0 0 0 1 0 0 0 0 1 -1 8.742278E-08 0 -0.001 -8.742278E-08 -1 0 0 0 0 1 0 0 0 0 1 -1 8.742278E-08 0 -0.001 -8.742278E-08 -1 0 0 0 0 1 0 0 0 0 1</float_array>
        <technique_common>
          <accessor source="#Motion_9_Hips_transform_pose_array_id" count="4" stride="16">
            <param name="TRANSFORM" type="float4x4" />
          </accessor>
        </technique_common>
      </source>
      <sampler id="Motion_9_Hips_transform_samp_id">
        <input semantic="INPUT" source="#Motion_9_Hips_transform_frame_id" />
        <input semantic="INTERPOLATION" source="#Motion_9_Hips_transform_interp_id" />
        <input semantic="OUTPUT" source="#Motion_9_Hips_transform_pose_id" />
      </sampler>
      <channel source="#Motion_9_Hips_transform_samp_id" target="Hips_bone_id/transform" />
    </animation>
    <animation id="Motion_9_RHips_transform_id" name="Motion_9_RHips_transform">
      <source id="Motion_9_RHips_transform_frame_id" name="Motion_9_RHips_transform_frame">
        <float_array id="Motion_9_RHips_transform_frame_array_id" count="4">0 0.033333335 0.06666667 0.1</float_array>
        <technique_common>
          <accessor source="#Motion_9_RHips_transform_frame_array_id" count="4" stride="1">
            <param name="TIME" type="float" />
          </accessor>
        </technique_common>
      </source>
      <source id="Motion_9_RHips_transform_interp_id" name="Motion_9_RHips_transform_interp">
        <Name_array id="Motion_9_RHips_transform_interp_array_id" count="4">LINEAR LINEAR LINEAR LINEAR</Name_array>
        <technique_common>
          <accessor source="#Motion_9_RHips_transform_interp_array_id" count="4" stride="1">
            <param name="INTERPOLATION" type="Name" />
          </accessor>
        </technique_common>
      </source>
      <source id="Motion_9_RHips_transform_pose_id" name="Motion_9_RHips_transform_pose">
        <float_array id="Motion_9_RHips_transform_pose_array_id" count="64">1 0 0 -0.50045204 0 1 0 -2.66322 0 0 1 0.059518326 0 0 0 1 1 0 0 -0.50045204 0 1 0 -2.66322 0 0 1 0.059518326 0 0 0 1 1 0 0 -0.50045204 0 1 0 -2.66322 0 0 1 0.059518326 0 0 0 1 1 0 0 -0.50045204 0 1 0 -2.66322 0 0 1 0.059518326 0 0 0 1</float_array>
        <technique_common>
          <accessor source="#Motion_9_RHips_transform_pose_array_id" count="4" stride="16">
            <param name="TRANSFORM" type="float4x4" />
          </accessor>
        </technique_common>
      </source>
      <sampler id="Motion_9_RHips_transform_samp_id">
        <input semantic="INPUT" source="#Motion_9_RHips_transform_frame_id" />
        <input semantic="INTERPOLATION" source="#Motion_9_RHips_transform_interp_id" />
        <input semantic="OUTPUT" source="#Motion_9_RHips_transform_pose_id" />
      </sampler>
      <channel source="#Motion_9_RHips_transform_samp_id" target="RHips_bone_id/transform" />
    </animation>
    <animation id="Motion_9_RFoot_transform_id" name="Motion_9_RFoot_transform">
      <source id="Motion_9_RFoot_transform_frame_id" name="Motion_9_RFoot_transform_frame">
        <float_array id="Motion_9_RFoot_transform_frame_array_id" count="4">0 0.033333335 0.06666667 0.1</float_array>
        <technique_common>
          <accessor source="#Motion_9_RFoot_transform_frame_array_id" count="4" stride="1">
            <param name="TIME" type="float" />
          </accessor>
        </technique_common>
      </source>
      <source id="Motion_9_RFoot_transform_interp_id" name="Motion_9_RFoot_transform_interp">
        <Name_array id="Motion_9_RFoot_transform_interp_array_id" count="4">LINEAR LINEAR LINEAR LINEAR</Name_array>
        <technique_common>
          <accessor source="#Motion_9_RFoot_transform_interp_array_id" count="4" stride="1">
            <param name="INTERPOLATION" type="Name" />
          </accessor>
        </technique_common>
      </source>
      <source id="Motion_9_RFoot_transform_pose_id" name="Motion_9_RFoot_transform_pose">
        <float_array id="Motion_9_RFoot_transform_pose_array_id" count="64">0.058794916 -4.0709972E-05 -0.9982701 10.889094 -0.5929476 0.804482 -0.03495553 -1.7570679 0.8030917 0.5939771 0.047275305 0.09847763 0 0 0 1 0.08375996 0.00038304925 -0.99648595 11.057526 -0.5885742 0.80694705 -0.049162626 -1.7830113 0.8040925 0.5906237 0.067815304 0.105599515 0 0 0 1 0.09523022 0.00027140975 -0.9954552 11.164406 -0.5855833 0.80868936 -0.055799395 -1.8057681 0.80499893 0.58823586 0.07717061 0.11220441 0 0 0 1 0.09523022 0.00027140975 -0.9954552 11.164406 -0.5855833 0.80868936 -0.055799395 -1.8057681 0.80499893 0.58823586 0.07717061 0.11220441 0 0 0 1</float_array>
        <technique_common>
          <accessor source="#Motion_9_RFoot_transform_pose_array_id" count="4" stride="16">
            <param name="TRANSFORM" type="float4x4" />
          </accessor>
        </technique_common>
      </source>
      <sampler id="Motion_9_RFoot_transform_samp_id">
        <input semantic="INPUT" source="#Motion_9_RFoot_transform_frame_id" />
        <input semantic="INTERPOLATION" source="#Motion_9_RFoot_transform_interp_id" />
        <input semantic="OUTPUT" source="#Motion_9_RFoot_transform_pose_id" />
      </sampler>
      <channel source="#Motion_9_RFoot_transform_samp_id" target="RFoot_bone_id/transform" />
    </animation>
    <animation id="Motion_9_RToe_transform_id" name="Motion_9_RToe_transform">
      <source id="Motion_9_RToe_transform_frame_id" name="Motion_9_RToe_transform_frame">
        <float_array id="Motion_9_RToe_transform_frame_array_id" count="4">0 0.033333335 0.06666667 0.1</float_array>
        <technique_common>
          <accessor source="#Motion_9_RToe_transform_frame_array_id" count="4" stride="1">
            <param name="TIME" type="float" />
          </accessor>
        </technique_common>
      </source>
      <source id="Motion_9_RToe_transform_interp_id" name="Motion_9_RToe_transform_interp">
        <Name_array id="Motion_9_RToe_transform_interp_array_id" count="4">LINEAR LINEAR LINEAR LINEAR</Name_array>
        <technique_common>
          <accessor source="#Motion_9_RToe_transform_interp_array_id" count="4" stride="1">
            <param name="INTERPOLATION" type="Name" />
          </accessor>
        </technique_common>
      </source>
      <source id="Motion_9_RToe_transform_pose_id" name="Motion_9_RToe_transform_pose">
        <float_array id="Motion_9_RToe_transform_pose_array_id" count="64">0.9981203 -1.7484557E-07 -0.061285194 2.411195 1.745169E-07 1 -1.0715444E-08 0 0.061285194 -8.881784E-16 0.9981203 -1.02615 0 0 0 1 0.9963259 -1.7480636E-07 -0.08564285 2.411195 1.7434695E-07 1 -1.2843893E-08 0 0.08564285 -2.134866E-09 0.9963259 -1.02615 0 0 0 1 0.99533874 -1.7477782E-07 -0.09644092 2.411195 1.742604E-07 1 -1.3787799E-08 0 0.09644092 -3.082302E-09 0.99533874 -1.02615 0 0 0 1 0.99533874 -1.7477782E-07 -0.09644092 2.411195 1.742604E-07 1 -1.3787799E-08 0 0.09644092 -3.082302E-09 0.99533874 -1.02615 0 0 0 1</float_array>
        <technique_common>
          <accessor source="#Motion_9_RToe_transform_pose_array_id" count="4" stride="16">
            <param name="TRANSFORM" type="float4x4" />
          </accessor>
        </technique_common>
      </source>
      <sampler id="Motion_9_RToe_transform_samp_id">
        <input semantic="INPUT" source="#Motion_9_RToe_transform_frame_id" />
        <input semantic="INTERPOLATION" source="#Motion_9_RToe_transform_interp_id" />
        <input semantic="OUTPUT" source="#Motion_9_RToe_transform_pose_id" />
      </sampler>
      <channel source="#Motion_9_RToe_transform_samp_id" target="RToe_bone_id/transform" />
    </animation>
    <animation id="Motion_9_LHips_transform_id" name="Motion_9_LHips_transform">
      <source id="Motion_9_LHips_transform_frame_id" name="Motion_9_LHips_transform_frame">
        <float_array id="Motion_9_LHips_transform_frame_array_id" count="4">0 0.033333335 0.06666667 0.1</float_array>
        <technique_common>
          <accessor source="#Motion_9_LHips_transform_frame_array_id" count="4" stride="1">
            <param name="TIME" type="float" />
          </accessor>
        </technique_common>
      </source>
      <source id="Motion_9_LHips_transform_interp_id" name="Motion_9_LHips_transform_interp">
        <Name_array id="Motion_9_LHips_transform_interp_array_id" count="4">LINEAR LINEAR LINEAR LINEAR</Name_array>
        <technique_common>
          <accessor source="#Motion_9_LHips_transform_interp_array_id" count="4" stride="1">
            <param name="INTERPOLATION" type="Name" />
          </accessor>
        </technique_common>
      </source>
      <source id="Motion_9_LHips_transform_pose_id" name="Motion_9_LHips_transform_pose">
        <float_array id="Motion_9_LHips_transform_pose_array_id" count="64">1 0 0 -0.50040776 0 1 0 2.663224 0 0 1 0.059518326 0 0 0 1 1 0 0 -0.50040776 0 1 0 2.663224 0 0 1 0.059518326 0 0 0 1 1 0 0 -0.50040776 0 1 0 2.663224 0 0 1 0.059518326 0 0 0 1 1 0 0 -0.50040776 0 1 0 2.663224 0 0 1 0.059518326 0 0 0 1</float_array>
        <technique_common>
          <accessor source="#Motion_9_LHips_transform_pose_array_id" count="4" stride="16">
            <param name="TRANSFORM" type="float4x4" />
          </accessor>
        </technique_common>
      </source>
      <sampler id="Motion_9_LHips_transform_samp_id">
        <input semantic="INPUT" source="#Motion_9_LHips_transform_frame_id" />
        <input semantic="INTERPOLATION" source="#Motion_9_LHips_transform_interp_id" />
        <input semantic="OUTPUT" source="#Motion_9_LHips_transform_pose_id" />
      </sampler>
      <channel source="#Motion_9_LHips_transform_samp_id" target="LHips_bone_id/transform" />
    </animation>
    <animation id="Motion_9_LFoot_transform_id" name="Motion_9_LFoot_transform">
      <source id="Motion_9_LFoot_transform_frame_id" name="Motion_9_LFoot_transform_frame">
        <float_array id="Motion_9_LFoot_transform_frame_array_id" count="4">0 0.033333335 0.06666667 0.1</float_array>
        <technique_common>
          <accessor source="#Motion_9_LFoot_transform_frame_array_id" count="4" stride="1">
            <param name="TIME" type="float" />
          </accessor>
        </technique_common>
      </source>
      <source id="Motion_9_LFoot_transform_interp_id" name="Motion_9_LFoot_transform_interp">
        <Name_array id="Motion_9_LFoot_transform_interp_array_id" count="4">LINEAR LINEAR LINEAR LINEAR</Name_array>
        <technique_common>
          <accessor source="#Motion_9_LFoot_transform_interp_array_id" count="4" stride="1">
            <param name="INTERPOLATION" type="Name" />
          </accessor>
        </technique_common>
      </source>
      <source id="Motion_9_LFoot_transform_pose_id" name="Motion_9_LFoot_transform_pose">
        <float_array id="Motion_9_LFoot_transform_pose_array_id" count="64">0.061741114 0.00235039 -0.99808943 10.898686 0.5897232 0.80669296 0.03837958 1.8117086 0.80524194 -0.5909661 0.04842007 0.09455114 0 0 0 1 0.08648461 0.0013968349 -0.99625224 11.064678 0.58573896 0.8088311 0.051982045 1.8221799 0.8058724 -0.5880394 0.06913322 0.10191935 0 0 0 1 0.096453905 0.000939399 -0.995337 11.170463 0.5833274 0.8102139 0.05729246 1.8286587 0.8064897 -0.5861335 0.0776003 0.10832178 0 0 0 1 0.096453905 0.000939399 -0.995337 11.170463 0.5833274 0.8102139 0.05729246 1.8286587 0.8064897 -0.5861335 0.0776003 0.10832178 0 0 0 1</float_array>
        <technique_common>
          <accessor source="#Motion_9_LFoot_transform_pose_array_id" count="4" stride="16">
            <param name="TRANSFORM" type="float4x4" />
          </accessor>
        </technique_common>
      </source>
      <sampler id="Motion_9_LFoot_transform_samp_id">
        <input semantic="INPUT" source="#Motion_9_LFoot_transform_frame_id" />
        <input semantic="INTERPOLATION" source="#Motion_9_LFoot_transform_interp_id" />
        <input semantic="OUTPUT" source="#Motion_9_LFoot_transform_pose_id" />
      </sampler>
      <channel source="#Motion_9_LFoot_transform_samp_id" target="LFoot_bone_id/transform" />
    </animation>
    <animation id="Motion_9_LToe_transform_id" name="Motion_9_LToe_transform">
      <source id="Motion_9_LToe_transform_frame_id" name="Motion_9_LToe_transform_frame">
        <float_array id="Motion_9_LToe_transform_frame_array_id" count="4">0 0.033333335 0.06666667 0.1</float_array>
        <technique_common>
          <accessor source="#Motion_9_LToe_transform_frame_array_id" count="4" stride="1">
            <param name="TIME" type="float" />
          </accessor>
        </technique_common>
      </source>
      <source id="Motion_9_LToe_transform_interp_id" name="Motion_9_LToe_transform_interp">
        <Name_array id="Motion_9_LToe_transform_interp_array_id" count="4">LINEAR LINEAR LINEAR LINEAR</Name_array>
        <technique_common>
          <accessor source="#Motion_9_LToe_transform_interp_array_id" count="4" stride="1">
            <param name="INTERPOLATION" type="Name" />
          </accessor>
        </technique_common>
      </source>
      <source id="Motion_9_LToe_transform_pose_id" name="Motion_9_LToe_transform_pose">
        <float_array id="Motion_9_LToe_transform_pose_array_id" count="64">0.9980399 -1.7484555E-07 -0.062581 2.4111965 1.7450284E-07 1 -1.094201E-08 0 0.062581 0 0.9980399 -1.0261507 0 0 0 1 0.9962033 -1.7480559E-07 -0.087056994 2.4111965 1.7432868E-07 1 -1.3080748E-08 0 0.087056994 -2.1454456E-09 0.9962033 -1.0261507 0 0 0 1 0.99530655 -1.7477998E-07 -0.09677246 2.4111965 1.7424978E-07 1 -1.3929995E-08 0 0.09677246 -2.997965E-09 0.99530655 -1.0261507 0 0 0 1 0.99530655 -1.7477998E-07 -0.09677246 2.4111965 1.7424978E-07 1 -1.3929995E-08 0 0.09677246 -2.997965E-09 0.99530655 -1.0261507 0 0 0 1</float_array>
        <technique_common>
          <accessor source="#Motion_9_LToe_transform_pose_array_id" count="4" stride="16">
            <param name="TRANSFORM" type="float4x4" />
          </accessor>
        </technique_common>
      </source>
      <sampler id="Motion_9_LToe_transform_samp_id">
        <input semantic="INPUT" source="#Motion_9_LToe_transform_frame_id" />
        <input semantic="INTERPOLATION" source="#Motion_9_LToe_transform_interp_id" />
        <input semantic="OUTPUT" source="#Motion_9_LToe_transform_pose_id" />
      </sampler>
      <channel source="#Motion_9_LToe_transform_samp_id" target="LToe_bone_id/transform" />
    </animation>
    <animation id="Motion_9_Spine_transform_id" name="Motion_9_Spine_transform">
      <source id="Motion_9_Spine_transform_frame_id" name="Motion_9_Spine_transform_frame">
        <float_array id="Motion_9_Spine_transform_frame_array_id" count="4">0 0.033333335 0.06666667 0.1</float_array>
        <technique_common>
          <accessor source="#Motion_9_Spine_transform_frame_array_id" count="4" stride="1">
            <param name="TIME" type="float" />
          </accessor>
        </technique_common>
      </source>
      <source id="Motion_9_Spine_transform_interp_id" name="Motion_9_Spine_transform_interp">
        <Name_array id="Motion_9_Spine_transform_interp_array_id" count="4">LINEAR LINEAR LINEAR LINEAR</Name_array>
        <technique_common>
          <accessor source="#Motion_9_Spine_transform_interp_array_id" count="4" stride="1">
            <param name="INTERPOLATION" type="Name" />
          </accessor>
        </technique_common>
      </source>
      <source id="Motion_9_Spine_transform_pose_id" name="Motion_9_Spine_transform_pose">
        <float_array id="Motion_9_Spine_transform_pose_array_id" count="64">0.9999485 0 -0.010148892 0.024908934 0 1 0 -6.514469E-05 0.010148892 0 0.9999485 0.0012865366 0 0 0 1 0.99999887 0 -0.0015184492 0.012755513 0 1 0 -6.514469E-05 0.0015184492 0 0.99999887 0.0012865366 0 0 0 1 1 0 0 0.0049457196 0 1 0 -6.514469E-05 0 0 1 0.0012865366 0 0 0 1 1 0 0 0.0049457196 0 1 0 -6.514469E-05 0 0 1 0.0012865366 0 0 0 1</float_array>
        <technique_common>
          <accessor source="#Motion_9_Spine_transform_pose_array_id" count="4" stride="16">
            <param name="TRANSFORM" type="float4x4" />
          </accessor>
        </technique_common>
      </source>
      <sampler id="Motion_9_Spine_transform_samp_id">
        <input semantic="INPUT" source="#Motion_9_Spine_transform_frame_id" />
        <input semantic="INTERPOLATION" source="#Motion_9_Spine_transform_interp_id" />
        <input semantic="OUTPUT" source="#Motion_9_Spine_transform_pose_id" />
      </sampler>
      <channel source="#Motion_9_Spine_transform_samp_id" target="Spine_bone_id/transform" />
    </animation>
    <animation id="Motion_9_RShoulder_transform_id" name="Motion_9_RShoulder_transform">
      <source id="Motion_9_RShoulder_transform_frame_id" name="Motion_9_RShoulder_transform_frame">
        <float_array id="Motion_9_RShoulder_transform_frame_array_id" count="4">0 0.033333335 0.06666667 0.1</float_array>
        <technique_common>
          <accessor source="#Motion_9_RShoulder_transform_frame_array_id" count="4" stride="1">
            <param name="TIME" type="float" />
          </accessor>
        </technique_common>
      </source>
      <source id="Motion_9_RShoulder_transform_interp_id" name="Motion_9_RShoulder_transform_interp">
        <Name_array id="Motion_9_RShoulder_transform_interp_array_id" count="4">LINEAR LINEAR LINEAR LINEAR</Name_array>
        <technique_common>
          <accessor source="#Motion_9_RShoulder_transform_interp_array_id" count="4" stride="1">
            <param name="INTERPOLATION" type="Name" />
          </accessor>
        </technique_common>
      </source>
      <source id="Motion_9_RShoulder_transform_pose_id" name="Motion_9_RShoulder_transform_pose">
        <float_array id="Motion_9_RShoulder_transform_pose_array_id" count="64">-0.33529902 0.053645074 -0.9405833 0.13465205 0.3206636 0.94526553 -0.060397953 -0.0133316 0.885861 -0.3218622 -0.33414865 -4.2238417 0 0 0 1 -0.33674836 0.04450117 -0.9405425 0.13465205 0.31995708 0.9448536 -0.06985107 -0.0133316 0.88556653 -0.32445544 -0.3324163 -4.2238417 0 0 0 1 -0.3318193 0.04465425 -0.9422855 0.13465205 0.3197603 0.9450685 -0.06781526 -0.0133316 0.88749605 -0.3238079 -0.3278706 -4.2238417 0 0 0 1 -0.3318193 0.04465425 -0.9422855 0.13465205 0.3197603 0.9450685 -0.06781526 -0.0133316 0.88749605 -0.3238079 -0.3278706 -4.2238417 0 0 0 1</float_array>
        <technique_common>
          <accessor source="#Motion_9_RShoulder_transform_pose_array_id" count="4" stride="16">
            <param name="TRANSFORM" type="float4x4" />
          </accessor>
        </technique_common>
      </source>
      <sampler id="Motion_9_RShoulder_transform_samp_id">
        <input semantic="INPUT" source="#Motion_9_RShoulder_transform_frame_id" />
        <input semantic="INTERPOLATION" source="#Motion_9_RShoulder_transform_interp_id" />
        <input semantic="OUTPUT" source="#Motion_9_RShoulder_transform_pose_id" />
      </sampler>
      <channel source="#Motion_9_RShoulder_transform_samp_id" target="RShoulder_bone_id/transform" />
    </animation>
    <animation id="Motion_9_RArm_transform_id" name="Motion_9_RArm_transform">
      <source id="Motion_9_RArm_transform_frame_id" name="Motion_9_RArm_transform_frame">
        <float_array id="Motion_9_RArm_transform_frame_array_id" count="4">0 0.033333335 0.06666667 0.1</float_array>
        <technique_common>
          <accessor source="#Motion_9_RArm_transform_frame_array_id" count="4" stride="1">
            <param name="TIME" type="float" />
          </accessor>
        </technique_common>
      </source>
      <source id="Motion_9_RArm_transform_interp_id" name="Motion_9_RArm_transform_interp">
        <Name_array id="Motion_9_RArm_transform_interp_array_id" count="4">LINEAR LINEAR LINEAR LINEAR</Name_array>
        <technique_common>
          <accessor source="#Motion_9_RArm_transform_interp_array_id" count="4" stride="1">
            <param name="INTERPOLATION" type="Name" />
          </accessor>
        </technique_common>
      </source>
      <source id="Motion_9_RArm_transform_pose_id" name="Motion_9_RArm_transform_pose">
        <float_array id="Motion_9_RArm_transform_pose_array_id" count="64">0.4789105 0.81932354 -0.31520414 14.692971 -0.72861147 0.57125986 0.3778724 -0.0082981 0.48966324 0.048694283 0.8705509 0.16531426 0 0 0 1 0.4594165 0.82216495 -0.33612674 14.699766 -0.70923 0.56737465 0.41842422 -0.0082981 0.5347235 0.04616016 0.8437654 0.1846873 0 0 0 1 0.48614323 0.8049904 -0.34008113 14.705231 -0.7086524 0.59086686 0.3856011 -0.0082981 0.51134783 0.053541943 0.8577043 0.20117754 0 0 0 1 0.48614323 0.8049904 -0.34008113 14.705231 -0.7086524 0.59086686 0.3856011 -0.0082981 0.51134783 0.053541943 0.8577043 0.20117754 0 0 0 1</float_array>
        <technique_common>
          <accessor source="#Motion_9_RArm_transform_pose_array_id" count="4" stride="16">
            <param name="TRANSFORM" type="float4x4" />
          </accessor>
        </technique_common>
      </source>
      <sampler id="Motion_9_RArm_transform_samp_id">
        <input semantic="INPUT" source="#Motion_9_RArm_transform_frame_id" />
        <input semantic="INTERPOLATION" source="#Motion_9_RArm_transform_interp_id" />
        <input semantic="OUTPUT" source="#Motion_9_RArm_transform_pose_id" />
      </sampler>
      <channel source="#Motion_9_RArm_transform_samp_id" target="RArm_bone_id/transform" />
    </animation>
    <animation id="Motion_9_LShoulder_transform_id" name="Motion_9_LShoulder_transform">
      <source id="Motion_9_LShoulder_transform_frame_id" name="Motion_9_LShoulder_transform_frame">
        <float_array id="Motion_9_LShoulder_transform_frame_array_id" count="4">0 0.033333335 0.06666667 0.1</float_array>
        <technique_common>
          <accessor source="#Motion_9_LShoulder_transform_frame_array_id" count="4" stride="1">
            <param name="TIME" type="float" />
          </accessor>
        </technique_common>
      </source>
      <source id="Motion_9_LShoulder_transform_interp_id" name="Motion_9_LShoulder_transform_interp">
        <Name_array id="Motion_9_LShoulder_transform_interp_array_id" count="4">LINEAR LINEAR LINEAR LINEAR</Name_array>
        <technique_common>
          <accessor source="#Motion_9_LShoulder_transform_interp_array_id" count="4" stride="1">
            <param name="INTERPOLATION" type="Name" />
          </accessor>
        </technique_common>
      </source>
      <source id="Motion_9_LShoulder_transform_pose_id" name="Motion_9_LShoulder_transform_pose">
        <float_array id="Motion_9_LShoulder_transform_pose_array_id" count="64">-0.3378849 -0.04598716 -0.94006324 0.13467029 -0.3179373 0.94566905 0.06801416 0.013331618 0.8858609 0.32186216 -0.3341483 -4.223837 0 0 0 1 -0.33867908 -0.038780138 -0.9401024 0.13467029 -0.31791234 0.94510573 0.075543836 0.013331618 0.88556653 0.32445526 -0.3324163 -4.223837 0 0 0 1 -0.33296 -0.04127784 -0.94203705 0.13467029 -0.31857288 0.94522196 0.07118115 0.013331618 0.88749593 0.32380792 -0.32787108 -4.223837 0 0 0 1 -0.33296 -0.04127784 -0.94203705 0.13467029 -0.31857288 0.94522196 0.07118115 0.013331618 0.88749593 0.32380792 -0.32787108 -4.223837 0 0 0 1</float_array>
        <technique_common>
          <accessor source="#Motion_9_LShoulder_transform_pose_array_id" count="4" stride="16">
            <param name="TRANSFORM" type="float4x4" />
          </accessor>
        </technique_common>
      </source>
      <sampler id="Motion_9_LShoulder_transform_samp_id">
        <input semantic="INPUT" source="#Motion_9_LShoulder_transform_frame_id" />
        <input semantic="INTERPOLATION" source="#Motion_9_LShoulder_transform_interp_id" />
        <input semantic="OUTPUT" source="#Motion_9_LShoulder_transform_pose_id" />
      </sampler>
      <channel source="#Motion_9_LShoulder_transform_samp_id" target="LShoulder_bone_id/transform" />
    </animation>
    <animation id="Motion_9_LArm_transform_id" name="Motion_9_LArm_transform">
      <source id="Motion_9_LArm_transform_frame_id" name="Motion_9_LArm_transform_frame">
        <float_array id="Motion_9_LArm_transform_frame_array_id" count="4">0 0.033333335 0.06666667 0.1</float_array>
        <technique_common>
          <accessor source="#Motion_9_LArm_transform_frame_array_id" count="4" stride="1">
            <param name="TIME" type="float" />
          </accessor>
        </technique_common>
      </source>
      <source id="Motion_9_LArm_transform_interp_id" name="Motion_9_LArm_transform_interp">
        <Name_array id="Motion_9_LArm_transform_interp_array_id" count="4">LINEAR LINEAR LINEAR LINEAR</Name_array>
        <technique_common>
          <accessor source="#Motion_9_LArm_transform_interp_array_id" count="4" stride="1">
            <param name="INTERPOLATION" type="Name" />
          </accessor>
        </technique_common>
      </source>
      <source id="Motion_9_LArm_transform_pose_id" name="Motion_9_LArm_transform_pose">
        <float_array id="Motion_9_LArm_transform_pose_array_id" count="64">0.53975266 -0.7948331 -0.27732188 14.696873 0.7405326 0.60497177 -0.2926101 0.007961477 0.40034813 -0.0474288 0.9151349 0.17719845 0 0 0 1 0.51138484 -0.8079935 -0.2926296 14.701561 0.73804814 0.58738047 -0.33206815 0.007961477 0.44019377 -0.046160087 0.8967155 0.1898281 0 0 0 1 0.5376053 -0.7901566 -0.29433486 14.7058 0.732383 0.6105617 -0.30137932 0.007961477 0.41784647 -0.053542748 0.90693855 0.20255096 0 0 0 1 0.5376053 -0.7901566 -0.29433486 14.7058 0.732383 0.6105617 -0.30137932 0.007961477 0.41784647 -0.053542748 0.90693855 0.20255096 0 0 0 1</float_array>
        <technique_common>
          <accessor source="#Motion_9_LArm_transform_pose_array_id" count="4" stride="16">
            <param name="TRANSFORM" type="float4x4" />
          </accessor>
        </technique_common>
      </source>
      <sampler id="Motion_9_LArm_transform_samp_id">
        <input semantic="INPUT" source="#Motion_9_LArm_transform_frame_id" />
        <input semantic="INTERPOLATION" source="#Motion_9_LArm_transform_interp_id" />
        <input semantic="OUTPUT" source="#Motion_9_LArm_transform_pose_id" />
      </sampler>
      <channel source="#Motion_9_LArm_transform_samp_id" target="LArm_bone_id/transform" />
    </animation>
    <animation id="Motion_9_Head_transform_id" name="Motion_9_Head_transform">
      <source id="Motion_9_Head_transform_frame_id" name="Motion_9_Head_transform_frame">
        <float_array id="Motion_9_Head_transform_frame_array_id" count="4">0 0.033333335 0.06666667 0.1</float_array>
        <technique_common>
          <accessor source="#Motion_9_Head_transform_frame_array_id" count="4" stride="1">
            <param name="TIME" type="float" />
          </accessor>
        </technique_common>
      </source>
      <source id="Motion_9_Head_transform_interp_id" name="Motion_9_Head_transform_interp">
        <Name_array id="Motion_9_Head_transform_interp_array_id" count="4">LINEAR LINEAR LINEAR LINEAR</Name_array>
        <technique_common>
          <accessor source="#Motion_9_Head_transform_interp_array_id" count="4" stride="1">
            <param name="INTERPOLATION" type="Name" />
          </accessor>
        </technique_common>
      </source>
      <source id="Motion_9_Head_transform_pose_id" name="Motion_9_Head_transform_pose">
        <float_array id="Motion_9_Head_transform_pose_array_id" count="64">0.9972079 0.009649365 -0.07404927 0.001 -0.00963379 0.99995345 0.00056753395 0 0.0740513 0.00014742573 0.99725443 0 0 0 0 1 0.9979543 0.00658408 -0.06359111 0.001 -0.00657951 0.9999783 0.00028127732 0 0.063591585 0.00013769639 0.997976 0 0 0 0 1 0.9985386 0.0038212081 -0.053907607 0.001 -0.003823169 0.99999267 6.674658E-05 0 0.053907465 0.00013944886 0.99854594 0 0 0 0 1 0.9985386 0.0038212081 -0.053907607 0.001 -0.003823169 0.99999267 6.674658E-05 0 0.053907465 0.00013944886 0.99854594 0 0 0 0 1</float_array>
        <technique_common>
          <accessor source="#Motion_9_Head_transform_pose_array_id" count="4" stride="16">
            <param name="TRANSFORM" type="float4x4" />
          </accessor>
        </technique_common>
      </source>
      <sampler id="Motion_9_Head_transform_samp_id">
        <input semantic="INPUT" source="#Motion_9_Head_transform_frame_id" />
        <input semantic="INTERPOLATION" source="#Motion_9_Head_transform_interp_id" />
        <input semantic="OUTPUT" source="#Motion_9_Head_transform_pose_id" />
      </sampler>
      <channel source="#Motion_9_Head_transform_samp_id" target="Head_bone_id/transform" />
    </animation>
    <animation id="Motion_9_Horn_transform_id" name="Motion_9_Horn_transform">
      <source id="Motion_9_Horn_transform_frame_id" name="Motion_9_Horn_transform_frame">
        <float_array id="Motion_9_Horn_transform_frame_array_id" count="4">0 0.033333335 0.06666667 0.1</float_array>
        <technique_common>
          <accessor source="#Motion_9_Horn_transform_frame_array_id" count="4" stride="1">
            <param name="TIME" type="float" />
          </accessor>
        </technique_common>
      </source>
      <source id="Motion_9_Horn_transform_interp_id" name="Motion_9_Horn_transform_interp">
        <Name_array id="Motion_9_Horn_transform_interp_array_id" count="4">LINEAR LINEAR LINEAR LINEAR</Name_array>
        <technique_common>
          <accessor source="#Motion_9_Horn_transform_interp_array_id" count="4" stride="1">
            <param name="INTERPOLATION" type="Name" />
          </accessor>
        </technique_common>
      </source>
      <source id="Motion_9_Horn_transform_pose_id" name="Motion_9_Horn_transform_pose">
        <float_array id="Motion_9_Horn_transform_pose_array_id" count="64">-0.02330818 0 0.8745801 0.76541835 0 0.8748906 0 -4.59684E-06 -0.8745801 0 -0.02330818 -11.009373 0 0 0 1 -0.02330818 0 0.8745801 0.76541835 0 0.8748906 0 -4.59684E-06 -0.8745801 0 -0.02330818 -11.009373 0 0 0 1 -0.02330818 0 0.8745801 0.76541835 0 0.8748906 0 -4.59684E-06 -0.8745801 0 -0.02330818 -11.009373 0 0 0 1 -0.02330818 0 0.8745801 0.76541835 0 0.8748906 0 -4.59684E-06 -0.8745801 0 -0.02330818 -11.009373 0 0 0 1</float_array>
        <technique_common>
          <accessor source="#Motion_9_Horn_transform_pose_array_id" count="4" stride="16">
            <param name="TRANSFORM" type="float4x4" />
          </accessor>
        </technique_common>
      </source>
      <sampler id="Motion_9_Horn_transform_samp_id">
        <input semantic="INPUT" source="#Motion_9_Horn_transform_frame_id" />
        <input semantic="INTERPOLATION" source="#Motion_9_Horn_transform_interp_id" />
        <input semantic="OUTPUT" source="#Motion_9_Horn_transform_pose_id" />
      </sampler>
      <channel source="#Motion_9_Horn_transform_samp_id" target="Horn_bone_id/transform" />
    </animation>
    <animation id="Motion_9_RHornB_transform_id" name="Motion_9_RHornB_transform">
      <source id="Motion_9_RHornB_transform_frame_id" name="Motion_9_RHornB_transform_frame">
        <float_array id="Motion_9_RHornB_transform_frame_array_id" count="4">0 0.033333335 0.06666667 0.1</float_array>
        <technique_common>
          <accessor source="#Motion_9_RHornB_transform_frame_array_id" count="4" stride="1">
            <param name="TIME" type="float" />
          </accessor>
        </technique_common>
      </source>
      <source id="Motion_9_RHornB_transform_interp_id" name="Motion_9_RHornB_transform_interp">
        <Name_array id="Motion_9_RHornB_transform_interp_array_id" count="4">LINEAR LINEAR LINEAR LINEAR</Name_array>
        <technique_common>
          <accessor source="#Motion_9_RHornB_transform_interp_array_id" count="4" stride="1">
            <param name="INTERPOLATION" type="Name" />
          </accessor>
        </technique_common>
      </source>
      <source id="Motion_9_RHornB_transform_pose_id" name="Motion_9_RHornB_transform_pose">
        <float_array id="Motion_9_RHornB_transform_pose_array_id" count="64">-0.11166896 -0.037346013 0.8669306 3.4697156 0.62104344 0.6070187 0.10614583 7.86 -0.6060268 0.6289413 -0.050968178 -7.0707746 0 0 0 1 -0.11166896 -0.037346013 0.8669306 3.4697156 0.62104344 0.6070187 0.10614583 7.86 -0.6060268 0.6289413 -0.050968178 -7.0707746 0 0 0 1 -0.11166896 -0.037346013 0.8669306 3.4697156 0.62104344 0.6070187 0.10614583 7.86 -0.6060268 0.6289413 -0.050968178 -7.0707746 0 0 0 1 -0.11166896 -0.037346013 0.8669306 3.4697156 0.62104344 0.6070187 0.10614583 7.86 -0.6060268 0.6289413 -0.050968178 -7.0707746 0 0 0 1</float_array>
        <technique_common>
          <accessor source="#Motion_9_RHornB_transform_pose_array_id" count="4" stride="16">
            <param name="TRANSFORM" type="float4x4" />
          </accessor>
        </technique_common>
      </source>
      <sampler id="Motion_9_RHornB_transform_samp_id">
        <input semantic="INPUT" source="#Motion_9_RHornB_transform_frame_id" />
        <input semantic="INTERPOLATION" source="#Motion_9_RHornB_transform_interp_id" />
        <input semantic="OUTPUT" source="#Motion_9_RHornB_transform_pose_id" />
      </sampler>
      <channel source="#Motion_9_RHornB_transform_samp_id" target="RHornB_bone_id/transform" />
    </animation>
    <animation id="Motion_9_LHornB_transform_id" name="Motion_9_LHornB_transform">
      <source id="Motion_9_LHornB_transform_frame_id" name="Motion_9_LHornB_transform_frame">
        <float_array id="Motion_9_LHornB_transform_frame_array_id" count="4">0 0.033333335 0.06666667 0.1</float_array>
        <technique_common>
          <accessor source="#Motion_9_LHornB_transform_frame_array_id" count="4" stride="1">
            <param name="TIME" type="float" />
          </accessor>
        </technique_common>
      </source>
      <source id="Motion_9_LHornB_transform_interp_id" name="Motion_9_LHornB_transform_interp">
        <Name_array id="Motion_9_LHornB_transform_interp_array_id" count="4">LINEAR LINEAR LINEAR LINEAR</Name_array>
        <technique_common>
          <accessor source="#Motion_9_LHornB_transform_interp_array_id" count="4" stride="1">
            <param name="INTERPOLATION" type="Name" />
          </accessor>
        </technique_common>
      </source>
      <source id="Motion_9_LHornB_transform_pose_id" name="Motion_9_LHornB_transform_pose">
        <float_array id="Motion_9_LHornB_transform_pose_array_id" count="64">-0.11166896 0.037346013 0.8669306 3.4696953 -0.62104344 0.6070187 -0.10614583 -7.8600006 -0.6060268 -0.6289413 -0.050968178 -7.070772 0 0 0 1 -0.11166896 0.037346013 0.8669306 3.4696953 -0.62104344 0.6070187 -0.10614583 -7.8600006 -0.6060268 -0.6289413 -0.050968178 -7.070772 0 0 0 1 -0.11166896 0.037346013 0.8669306 3.4696953 -0.62104344 0.6070187 -0.10614583 -7.8600006 -0.6060268 -0.6289413 -0.050968178 -7.070772 0 0 0 1 -0.11166896 0.037346013 0.8669306 3.4696953 -0.62104344 0.6070187 -0.10614583 -7.8600006 -0.6060268 -0.6289413 -0.050968178 -7.070772 0 0 0 1</float_array>
        <technique_common>
          <accessor source="#Motion_9_LHornB_transform_pose_array_id" count="4" stride="16">
            <param name="TRANSFORM" type="float4x4" />
          </accessor>
        </technique_common>
      </source>
      <sampler id="Motion_9_LHornB_transform_samp_id">
        <input semantic="INPUT" source="#Motion_9_LHornB_transform_frame_id" />
        <input semantic="INTERPOLATION" source="#Motion_9_LHornB_transform_interp_id" />
        <input semantic="OUTPUT" source="#Motion_9_LHornB_transform_pose_id" />
      </sampler>
      <channel source="#Motion_9_LHornB_transform_samp_id" target="LHornB_bone_id/transform" />
    </animation>
    <animation id="Motion_9_RHornA_transform_id" name="Motion_9_RHornA_transform">
      <source id="Motion_9_RHornA_transform_frame_id" name="Motion_9_RHornA_transform_frame">
        <float_array id="Motion_9_RHornA_transform_frame_array_id" count="4">0 0.033333335 0.06666667 0.1</float_array>
        <technique_common>
          <accessor source="#Motion_9_RHornA_transform_frame_array_id" count="4" stride="1">
            <param name="TIME" type="float" />
          </accessor>
        </technique_common>
      </source>
      <source id="Motion_9_RHornA_transform_interp_id" name="Motion_9_RHornA_transform_interp">
        <Name_array id="Motion_9_RHornA_transform_interp_array_id" count="4">LINEAR LINEAR LINEAR LINEAR</Name_array>
        <technique_common>
          <accessor source="#Motion_9_RHornA_transform_interp_array_id" count="4" stride="1">
            <param name="INTERPOLATION" type="Name" />
          </accessor>
        </technique_common>
      </source>
      <source id="Motion_9_RHornA_transform_pose_id" name="Motion_9_RHornA_transform_pose">
        <float_array id="Motion_9_RHornA_transform_pose_array_id" count="64">0.009184173 -0.13078013 0.8650121 2.226866 0.8701741 -0.087882794 -0.022525888 11.670633 0.090257704 0.8605852 0.12915246 1.1083978 0 0 0 1 0.009184173 -0.13078013 0.8650121 2.226866 0.8701741 -0.087882794 -0.022525888 11.670633 0.090257704 0.8605852 0.12915246 1.1083978 0 0 0 1 0.009184173 -0.13078013 0.8650121 2.226866 0.8701741 -0.087882794 -0.022525888 11.670633 0.090257704 0.8605852 0.12915246 1.1083978 0 0 0 1 0.009184173 -0.13078013 0.8650121 2.226866 0.8701741 -0.087882794 -0.022525888 11.670633 0.090257704 0.8605852 0.12915246 1.1083978 0 0 0 1</float_array>
        <technique_common>
          <accessor source="#Motion_9_RHornA_transform_pose_array_id" count="4" stride="16">
            <param name="TRANSFORM" type="float4x4" />
          </accessor>
        </technique_common>
      </source>
      <sampler id="Motion_9_RHornA_transform_samp_id">
        <input semantic="INPUT" source="#Motion_9_RHornA_transform_frame_id" />
        <input semantic="INTERPOLATION" source="#Motion_9_RHornA_transform_interp_id" />
        <input semantic="OUTPUT" source="#Motion_9_RHornA_transform_pose_id" />
      </sampler>
      <channel source="#Motion_9_RHornA_transform_samp_id" target="RHornA_bone_id/transform" />
    </animation>
    <animation id="Motion_9_LHornA_transform_id" name="Motion_9_LHornA_transform">
      <source id="Motion_9_LHornA_transform_frame_id" name="Motion_9_LHornA_transform_frame">
        <float_array id="Motion_9_LHornA_transform_frame_array_id" count="4">0 0.033333335 0.06666667 0.1</float_array>
        <technique_common>
          <accessor source="#Motion_9_LHornA_transform_frame_array_id" count="4" stride="1">
            <param name="TIME" type="float" />
          </accessor>
        </technique_common>
      </source>
      <source id="Motion_9_LHornA_transform_interp_id" name="Motion_9_LHornA_transform_interp">
        <Name_array id="Motion_9_LHornA_transform_interp_array_id" count="4">LINEAR LINEAR LINEAR LINEAR</Name_array>
        <technique_common>
          <accessor source="#Motion_9_LHornA_transform_interp_array_id" count="4" stride="1">
            <param name="INTERPOLATION" type="Name" />
          </accessor>
        </technique_common>
      </source>
      <source id="Motion_9_LHornA_transform_pose_id" name="Motion_9_LHornA_transform_pose">
        <float_array id="Motion_9_LHornA_transform_pose_array_id" count="64">0.009184173 0.13078013 0.8650121 2.2269068 -0.8701741 -0.087882794 0.022525888 -11.670586 0.090257704 -0.8605852 0.12915246 1.1083964 0 0 0 1 0.009184173 0.13078013 0.8650121 2.2269068 -0.8701741 -0.087882794 0.022525888 -11.670586 0.090257704 -0.8605852 0.12915246 1.1083964 0 0 0 1 0.009184173 0.13078013 0.8650121 2.2269068 -0.8701741 -0.087882794 0.022525888 -11.670586 0.090257704 -0.8605852 0.12915246 1.1083964 0 0 0 1 0.009184173 0.13078013 0.8650121 2.2269068 -0.8701741 -0.087882794 0.022525888 -11.670586 0.090257704 -0.8605852 0.12915246 1.1083964 0 0 0 1</float_array>
        <technique_common>
          <accessor source="#Motion_9_LHornA_transform_pose_array_id" count="4" stride="16">
            <param name="TRANSFORM" type="float4x4" />
          </accessor>
        </technique_common>
      </source>
      <sampler id="Motion_9_LHornA_transform_samp_id">
        <input semantic="INPUT" source="#Motion_9_LHornA_transform_frame_id" />
        <input semantic="INTERPOLATION" source="#Motion_9_LHornA_transform_interp_id" />
        <input semantic="OUTPUT" source="#Motion_9_LHornA_transform_pose_id" />
      </sampler>
      <channel source="#Motion_9_LHornA_transform_samp_id" target="LHornA_bone_id/transform" />
    </animation>
    <animation id="Motion_9_RUpperHornB_transform_id" name="Motion_9_RUpperHornB_transform">
      <source id="Motion_9_RUpperHornB_transform_frame_id" name="Motion_9_RUpperHornB_transform_frame">
        <float_array id="Motion_9_RUpperHornB_transform_frame_array_id" count="4">0 0.033333335 0.06666667 0.1</float_array>
        <technique_common>
          <accessor source="#Motion_9_RUpperHornB_transform_frame_array_id" count="4" stride="1">
            <param name="TIME" type="float" />
          </accessor>
        </technique_common>
      </source>
      <source id="Motion_9_RUpperHornB_transform_interp_id" name="Motion_9_RUpperHornB_transform_interp">
        <Name_array id="Motion_9_RUpperHornB_transform_interp_array_id" count="4">LINEAR LINEAR LINEAR LINEAR</Name_array>
        <technique_common>
          <accessor source="#Motion_9_RUpperHornB_transform_interp_array_id" count="4" stride="1">
            <param name="INTERPOLATION" type="Name" />
          </accessor>
        </technique_common>
      </source>
      <source id="Motion_9_RUpperHornB_transform_pose_id" name="Motion_9_RUpperHornB_transform_pose">
        <float_array id="Motion_9_RUpperHornB_transform_pose_array_id" count="64">0.3148736 -0.02514325 0.8158775 8.27757 0.54691833 0.65565497 -0.19086796 5.2569413 -0.6059444 0.57872105 0.2516883 -5.4768753 0 0 0 1 0.3148736 -0.02514325 0.8158775 8.27757 0.54691833 0.65565497 -0.19086796 5.2569413 -0.6059444 0.57872105 0.2516883 -5.4768753 0 0 0 1 0.3148736 -0.02514325 0.8158775 8.27757 0.54691833 0.65565497 -0.19086796 5.2569413 -0.6059444 0.57872105 0.2516883 -5.4768753 0 0 0 1 0.3148736 -0.02514325 0.8158775 8.27757 0.54691833 0.65565497 -0.19086796 5.2569413 -0.6059444 0.57872105 0.2516883 -5.4768753 0 0 0 1</float_array>
        <technique_common>
          <accessor source="#Motion_9_RUpperHornB_transform_pose_array_id" count="4" stride="16">
            <param name="TRANSFORM" type="float4x4" />
          </accessor>
        </technique_common>
      </source>
      <sampler id="Motion_9_RUpperHornB_transform_samp_id">
        <input semantic="INPUT" source="#Motion_9_RUpperHornB_transform_frame_id" />
        <input semantic="INTERPOLATION" source="#Motion_9_RUpperHornB_transform_interp_id" />
        <input semantic="OUTPUT" source="#Motion_9_RUpperHornB_transform_pose_id" />
      </sampler>
      <channel source="#Motion_9_RUpperHornB_transform_samp_id" target="RUpperHornB_bone_id/transform" />
    </animation>
    <animation id="Motion_9_LUpperHornB_transform_id" name="Motion_9_LUpperHornB_transform">
      <source id="Motion_9_LUpperHornB_transform_frame_id" name="Motion_9_LUpperHornB_transform_frame">
        <float_array id="Motion_9_LUpperHornB_transform_frame_array_id" count="4">0 0.033333335 0.06666667 0.1</float_array>
        <technique_common>
          <accessor source="#Motion_9_LUpperHornB_transform_frame_array_id" count="4" stride="1">
            <param name="TIME" type="float" />
          </accessor>
        </technique_common>
      </source>
      <source id="Motion_9_LUpperHornB_transform_interp_id" name="Motion_9_LUpperHornB_transform_interp">
        <Name_array id="Motion_9_LUpperHornB_transform_interp_array_id" count="4">LINEAR LINEAR LINEAR LINEAR</Name_array>
        <technique_common>
          <accessor source="#Motion_9_LUpperHornB_transform_interp_array_id" count="4" stride="1">
            <param name="INTERPOLATION" type="Name" />
          </accessor>
        </technique_common>
      </source>
      <source id="Motion_9_LUpperHornB_transform_pose_id" name="Motion_9_LUpperHornB_transform_pose">
        <float_array id="Motion_9_LUpperHornB_transform_pose_array_id" count="64">0.3148736 0.02514325 0.8158775 8.277582 -0.54691833 0.65565497 0.19086796 -5.2569447 -0.6059444 -0.57872105 0.2516883 -5.4768777 0 0 0 1 0.3148736 0.02514325 0.8158775 8.277582 -0.54691833 0.65565497 0.19086796 -5.2569447 -0.6059444 -0.57872105 0.2516883 -5.4768777 0 0 0 1 0.3148736 0.02514325 0.8158775 8.277582 -0.54691833 0.65565497 0.19086796 -5.2569447 -0.6059444 -0.57872105 0.2516883 -5.4768777 0 0 0 1 0.3148736 0.02514325 0.8158775 8.277582 -0.54691833 0.65565497 0.19086796 -5.2569447 -0.6059444 -0.57872105 0.2516883 -5.4768777 0 0 0 1</float_array>
        <technique_common>
          <accessor source="#Motion_9_LUpperHornB_transform_pose_array_id" count="4" stride="16">
            <param name="TRANSFORM" type="float4x4" />
          </accessor>
        </technique_common>
      </source>
      <sampler id="Motion_9_LUpperHornB_transform_samp_id">
        <input semantic="INPUT" source="#Motion_9_LUpperHornB_transform_frame_id" />
        <input semantic="INTERPOLATION" source="#Motion_9_LUpperHornB_transform_interp_id" />
        <input semantic="OUTPUT" source="#Motion_9_LUpperHornB_transform_pose_id" />
      </sampler>
      <channel source="#Motion_9_LUpperHornB_transform_samp_id" target="LUpperHornB_bone_id/transform" />
    </animation>
    <animation id="Motion_9_RUpperHornA_transform_id" name="Motion_9_RUpperHornA_transform">
      <source id="Motion_9_RUpperHornA_transform_frame_id" name="Motion_9_RUpperHornA_transform_frame">
        <float_array id="Motion_9_RUpperHornA_transform_frame_array_id" count="4">0 0.033333335 0.06666667 0.1</float_array>
        <technique_common>
          <accessor source="#Motion_9_RUpperHornA_transform_frame_array_id" count="4" stride="1">
            <param name="TIME" type="float" />
          </accessor>
        </technique_common>
      </source>
      <source id="Motion_9_RUpperHornA_transform_interp_id" name="Motion_9_RUpperHornA_transform_interp">
        <Name_array id="Motion_9_RUpperHornA_transform_interp_array_id" count="4">LINEAR LINEAR LINEAR LINEAR</Name_array>
        <technique_common>
          <accessor source="#Motion_9_RUpperHornA_transform_interp_array_id" count="4" stride="1">
            <param name="INTERPOLATION" type="Name" />
          </accessor>
        </technique_common>
      </source>
      <source id="Motion_9_RUpperHornA_transform_pose_id" name="Motion_9_RUpperHornA_transform_pose">
        <float_array id="Motion_9_RUpperHornA_transform_pose_array_id" count="64">0.29487592 -0.17796588 0.80424494 7.44278 0.8191285 -0.026517026 -0.3062007 8.832069 0.08666166 0.8561884 0.15768562 2.0271523 0 0 0 1 0.29487592 -0.17796588 0.80424494 7.44278 0.8191285 -0.026517026 -0.3062007 8.832069 0.08666166 0.8561884 0.15768562 2.0271523 0 0 0 1 0.29487592 -0.17796588 0.80424494 7.44278 0.8191285 -0.026517026 -0.3062007 8.832069 0.08666166 0.8561884 0.15768562 2.0271523 0 0 0 1 0.29487592 -0.17796588 0.80424494 7.44278 0.8191285 -0.026517026 -0.3062007 8.832069 0.08666166 0.8561884 0.15768562 2.0271523 0 0 0 1</float_array>
        <technique_common>
          <accessor source="#Motion_9_RUpperHornA_transform_pose_array_id" count="4" stride="16">
            <param name="TRANSFORM" type="float4x4" />
          </accessor>
        </technique_common>
      </source>
      <sampler id="Motion_9_RUpperHornA_transform_samp_id">
        <input semantic="INPUT" source="#Motion_9_RUpperHornA_transform_frame_id" />
        <input semantic="INTERPOLATION" source="#Motion_9_RUpperHornA_transform_interp_id" />
        <input semantic="OUTPUT" source="#Motion_9_RUpperHornA_transform_pose_id" />
      </sampler>
      <channel source="#Motion_9_RUpperHornA_transform_samp_id" target="RUpperHornA_bone_id/transform" />
    </animation>
    <animation id="Motion_9_LUpperHornA_transform_id" name="Motion_9_LUpperHornA_transform">
      <source id="Motion_9_LUpperHornA_transform_frame_id" name="Motion_9_LUpperHornA_transform_frame">
        <float_array id="Motion_9_LUpperHornA_transform_frame_array_id" count="4">0 0.033333335 0.06666667 0.1</float_array>
        <technique_common>
          <accessor source="#Motion_9_LUpperHornA_transform_frame_array_id" count="4" stride="1">
            <param name="TIME" type="float" />
          </accessor>
        </technique_common>
      </source>
      <source id="Motion_9_LUpperHornA_transform_interp_id" name="Motion_9_LUpperHornA_transform_interp">
        <Name_array id="Motion_9_LUpperHornA_transform_interp_array_id" count="4">LINEAR LINEAR LINEAR LINEAR</Name_array>
        <technique_common>
          <accessor source="#Motion_9_LUpperHornA_transform_interp_array_id" count="4" stride="1">
            <param name="INTERPOLATION" type="Name" />
          </accessor>
        </technique_common>
      </source>
      <source id="Motion_9_LUpperHornA_transform_pose_id" name="Motion_9_LUpperHornA_transform_pose">
        <float_array id="Motion_9_LUpperHornA_transform_pose_array_id" count="64">0.29487592 0.17796588 0.80424494 7.442795 -0.8191285 -0.026517026 0.3062007 -8.832067 0.08666166 -0.8561884 0.15768562 2.0271556 0 0 0 1 0.29487592 0.17796588 0.80424494 7.442795 -0.8191285 -0.026517026 0.3062007 -8.832067 0.08666166 -0.8561884 0.15768562 2.0271556 0 0 0 1 0.29487592 0.17796588 0.80424494 7.442795 -0.8191285 -0.026517026 0.3062007 -8.832067 0.08666166 -0.8561884 0.15768562 2.0271556 0 0 0 1 0.29487592 0.17796588 0.80424494 7.442795 -0.8191285 -0.026517026 0.3062007 -8.832067 0.08666166 -0.8561884 0.15768562 2.0271556 0 0 0 1</float_array>
        <technique_common>
          <accessor source="#Motion_9_LUpperHornA_transform_pose_array_id" count="4" stride="16">
            <param name="TRANSFORM" type="float4x4" />
          </accessor>
        </technique_common>
      </source>
      <sampler id="Motion_9_LUpperHornA_transform_samp_id">
        <input semantic="INPUT" source="#Motion_9_LUpperHornA_transform_frame_id" />
        <input semantic="INTERPOLATION" source="#Motion_9_LUpperHornA_transform_interp_id" />
        <input semantic="OUTPUT" source="#Motion_9_LUpperHornA_transform_pose_id" />
      </sampler>
      <channel source="#Motion_9_LUpperHornA_transform_samp_id" target="LUpperHornA_bone_id/transform" />
    </animation>
    <animation id="Motion_9_Hair1_transform_id" name="Motion_9_Hair1_transform">
      <source id="Motion_9_Hair1_transform_frame_id" name="Motion_9_Hair1_transform_frame">
        <float_array id="Motion_9_Hair1_transform_frame_array_id" count="4">0 0.033333335 0.06666667 0.1</float_array>
        <technique_common>
          <accessor source="#Motion_9_Hair1_transform_frame_array_id" count="4" stride="1">
            <param name="TIME" type="float" />
          </accessor>
        </technique_common>
      </source>
      <source id="Motion_9_Hair1_transform_interp_id" name="Motion_9_Hair1_transform_interp">
        <Name_array id="Motion_9_Hair1_transform_interp_array_id" count="4">LINEAR LINEAR LINEAR LINEAR</Name_array>
        <technique_common>
          <accessor source="#Motion_9_Hair1_transform_interp_array_id" count="4" stride="1">
            <param name="INTERPOLATION" type="Name" />
          </accessor>
        </technique_common>
      </source>
      <source id="Motion_9_Hair1_transform_pose_id" name="Motion_9_Hair1_transform_pose">
        <float_array id="Motion_9_Hair1_transform_pose_array_id" count="64">0.5975055 0 0.8018648 -0.27824682 0 1 0 0 -0.8018648 0 0.5975055 0.7971269 0 0 0 1 0.5975055 0 0.8018648 -0.27824682 0 1 0 0 -0.8018648 0 0.5975055 0.7971269 0 0 0 1 0.5975055 0 0.8018648 -0.27824682 0 1 0 0 -0.8018648 0 0.5975055 0.7971269 0 0 0 1 0.5975055 0 0.8018648 -0.27824682 0 1 0 0 -0.8018648 0 0.5975055 0.7971269 0 0 0 1</float_array>
        <technique_common>
          <accessor source="#Motion_9_Hair1_transform_pose_array_id" count="4" stride="16">
            <param name="TRANSFORM" type="float4x4" />
          </accessor>
        </technique_common>
      </source>
      <sampler id="Motion_9_Hair1_transform_samp_id">
        <input semantic="INPUT" source="#Motion_9_Hair1_transform_frame_id" />
        <input semantic="INTERPOLATION" source="#Motion_9_Hair1_transform_interp_id" />
        <input semantic="OUTPUT" source="#Motion_9_Hair1_transform_pose_id" />
      </sampler>
      <channel source="#Motion_9_Hair1_transform_samp_id" target="Hair1_bone_id/transform" />
    </animation>
    <animation id="Motion_9_Hair2_transform_id" name="Motion_9_Hair2_transform">
      <source id="Motion_9_Hair2_transform_frame_id" name="Motion_9_Hair2_transform_frame">
        <float_array id="Motion_9_Hair2_transform_frame_array_id" count="4">0 0.033333335 0.06666667 0.1</float_array>
        <technique_common>
          <accessor source="#Motion_9_Hair2_transform_frame_array_id" count="4" stride="1">
            <param name="TIME" type="float" />
          </accessor>
        </technique_common>
      </source>
      <source id="Motion_9_Hair2_transform_interp_id" name="Motion_9_Hair2_transform_interp">
        <Name_array id="Motion_9_Hair2_transform_interp_array_id" count="4">LINEAR LINEAR LINEAR LINEAR</Name_array>
        <technique_common>
          <accessor source="#Motion_9_Hair2_transform_interp_array_id" count="4" stride="1">
            <param name="INTERPOLATION" type="Name" />
          </accessor>
        </technique_common>
      </source>
      <source id="Motion_9_Hair2_transform_pose_id" name="Motion_9_Hair2_transform_pose">
        <float_array id="Motion_9_Hair2_transform_pose_array_id" count="64">0.5553906 0.82820636 -0.07493681 12.131923 -0.5473648 0.43191868 0.71682495 0 0.6260456 -0.35710007 0.6932146 0 0 0 0 1 0.55285287 0.82960784 -0.07813156 12.131923 -0.5413276 0.42885423 0.72322094 0 0.6334968 -0.35754 0.68618286 0 0 0 0 1 0.5513425 0.8302938 -0.08144802 12.131923 -0.5349643 0.4267621 0.729169 0 0.6401833 -0.35845008 0.6794696 0 0 0 0 1 0.5513425 0.8302938 -0.08144802 12.131923 -0.5349643 0.4267621 0.729169 0 0.6401833 -0.35845008 0.6794696 0 0 0 0 1</float_array>
        <technique_common>
          <accessor source="#Motion_9_Hair2_transform_pose_array_id" count="4" stride="16">
            <param name="TRANSFORM" type="float4x4" />
          </accessor>
        </technique_common>
      </source>
      <sampler id="Motion_9_Hair2_transform_samp_id">
        <input semantic="INPUT" source="#Motion_9_Hair2_transform_frame_id" />
        <input semantic="INTERPOLATION" source="#Motion_9_Hair2_transform_interp_id" />
        <input semantic="OUTPUT" source="#Motion_9_Hair2_transform_pose_id" />
      </sampler>
      <channel source="#Motion_9_Hair2_transform_samp_id" target="Hair2_bone_id/transform" />
    </animation>
    <animation id="Motion_9_Hair3_transform_id" name="Motion_9_Hair3_transform">
      <source id="Motion_9_Hair3_transform_frame_id" name="Motion_9_Hair3_transform_frame">
        <float_array id="Motion_9_Hair3_transform_frame_array_id" count="4">0 0.033333335 0.06666667 0.1</float_array>
        <technique_common>
          <accessor source="#Motion_9_Hair3_transform_frame_array_id" count="4" stride="1">
            <param name="TIME" type="float" />
          </accessor>
        </technique_common>
      </source>
      <source id="Motion_9_Hair3_transform_interp_id" name="Motion_9_Hair3_transform_interp">
        <Name_array id="Motion_9_Hair3_transform_interp_array_id" count="4">LINEAR LINEAR LINEAR LINEAR</Name_array>
        <technique_common>
          <accessor source="#Motion_9_Hair3_transform_interp_array_id" count="4" stride="1">
            <param name="INTERPOLATION" type="Name" />
          </accessor>
        </technique_common>
      </source>
      <source id="Motion_9_Hair3_transform_pose_id" name="Motion_9_Hair3_transform_pose">
        <float_array id="Motion_9_Hair3_transform_pose_array_id" count="64">0.93390137 0.09890044 0.3435796 8.11279 -0.07747385 0.9941257 -0.07557647 0 -0.34903586 0.043962527 0.9360776 -3.7372763 0 0 0 1 0.9339774 0.11777044 0.33736676 8.11279 -0.10008638 0.9925551 -0.06940584 0 -0.34302902 0.031057667 0.93881124 -3.7372763 0 0 0 1 0.9358588 0.11998318 0.3313191 8.11279 -0.10315271 0.99233884 -0.06799366 0 -0.33693892 0.029456006 0.9410656 -3.7372763 0 0 0 1 0.9358588 0.11998318 0.3313191 8.11279 -0.10315271 0.99233884 -0.06799366 0 -0.33693892 0.029456006 0.9410656 -3.7372763 0 0 0 1</float_array>
        <technique_common>
          <accessor source="#Motion_9_Hair3_transform_pose_array_id" count="4" stride="16">
            <param name="TRANSFORM" type="float4x4" />
          </accessor>
        </technique_common>
      </source>
      <sampler id="Motion_9_Hair3_transform_samp_id">
        <input semantic="INPUT" source="#Motion_9_Hair3_transform_frame_id" />
        <input semantic="INTERPOLATION" source="#Motion_9_Hair3_transform_interp_id" />
        <input semantic="OUTPUT" source="#Motion_9_Hair3_transform_pose_id" />
      </sampler>
      <channel source="#Motion_9_Hair3_transform_samp_id" target="Hair3_bone_id/transform" />
    </animation>
    <animation id="Motion_9_REar_transform_id" name="Motion_9_REar_transform">
      <source id="Motion_9_REar_transform_frame_id" name="Motion_9_REar_transform_frame">
        <float_array id="Motion_9_REar_transform_frame_array_id" count="4">0 0.033333335 0.06666667 0.1</float_array>
        <technique_common>
          <accessor source="#Motion_9_REar_transform_frame_array_id" count="4" stride="1">
            <param name="TIME" type="float" />
          </accessor>
        </technique_common>
      </source>
      <source id="Motion_9_REar_transform_interp_id" name="Motion_9_REar_transform_interp">
        <Name_array id="Motion_9_REar_transform_interp_array_id" count="4">LINEAR LINEAR LINEAR LINEAR</Name_array>
        <technique_common>
          <accessor source="#Motion_9_REar_transform_interp_array_id" count="4" stride="1">
            <param name="INTERPOLATION" type="Name" />
          </accessor>
        </technique_common>
      </source>
      <source id="Motion_9_REar_transform_pose_id" name="Motion_9_REar_transform_pose">
        <float_array id="Motion_9_REar_transform_pose_array_id" count="64">0.8244428 -0.56587577 -0.008870736 6.053152 0.5593734 0.8123873 0.16470674 4.87419 -0.085997075 -0.14075333 0.9863027 8.157495 0 0 0 1 0.82431215 -0.56597245 -0.013590455 6.053152 0.5604813 0.8124599 0.1605292 4.87419 -0.07981339 -0.13994336 0.9869375 8.157495 0 0 0 1 0.82422626 -0.56579083 -0.023059055 6.053152 0.56207424 0.81251174 0.15458722 4.87419 -0.06872828 -0.14037575 0.98771 8.157495 0 0 0 1 0.82422626 -0.56579083 -0.023059055 6.053152 0.56207424 0.81251174 0.15458722 4.87419 -0.06872828 -0.14037575 0.98771 8.157495 0 0 0 1</float_array>
        <technique_common>
          <accessor source="#Motion_9_REar_transform_pose_array_id" count="4" stride="16">
            <param name="TRANSFORM" type="float4x4" />
          </accessor>
        </technique_common>
      </source>
      <sampler id="Motion_9_REar_transform_samp_id">
        <input semantic="INPUT" source="#Motion_9_REar_transform_frame_id" />
        <input semantic="INTERPOLATION" source="#Motion_9_REar_transform_interp_id" />
        <input semantic="OUTPUT" source="#Motion_9_REar_transform_pose_id" />
      </sampler>
      <channel source="#Motion_9_REar_transform_samp_id" target="REar_bone_id/transform" />
    </animation>
    <animation id="Motion_9_LEar_transform_id" name="Motion_9_LEar_transform">
      <source id="Motion_9_LEar_transform_frame_id" name="Motion_9_LEar_transform_frame">
        <float_array id="Motion_9_LEar_transform_frame_array_id" count="4">0 0.033333335 0.06666667 0.1</float_array>
        <technique_common>
          <accessor source="#Motion_9_LEar_transform_frame_array_id" count="4" stride="1">
            <param name="TIME" type="float" />
          </accessor>
        </technique_common>
      </source>
      <source id="Motion_9_LEar_transform_interp_id" name="Motion_9_LEar_transform_interp">
        <Name_array id="Motion_9_LEar_transform_interp_array_id" count="4">LINEAR LINEAR LINEAR LINEAR</Name_array>
        <technique_common>
          <accessor source="#Motion_9_LEar_transform_interp_array_id" count="4" stride="1">
            <param name="INTERPOLATION" type="Name" />
          </accessor>
        </technique_common>
      </source>
      <source id="Motion_9_LEar_transform_pose_id" name="Motion_9_LEar_transform_pose">
        <float_array id="Motion_9_LEar_transform_pose_array_id" count="64">0.74261487 0.6696658 -0.008423615 6.0531855 -0.66165364 0.73166776 -0.16394137 -4.874187 -0.103622645 0.12731881 0.9864341 8.157489 0 0 0 1 0.74247026 0.6697609 -0.012577742 6.0531855 -0.66276294 0.7317241 -0.1591389 -4.874187 -0.09738158 0.12649198 0.98717606 8.157489 0 0 0 1 0.7424106 0.6696091 -0.02121422 6.0531855 -0.66434973 0.7317568 -0.15222166 -4.874187 -0.08640538 0.12710463 0.98811865 8.157489 0 0 0 1 0.7424106 0.6696091 -0.02121422 6.0531855 -0.66434973 0.7317568 -0.15222166 -4.874187 -0.08640538 0.12710463 0.98811865 8.157489 0 0 0 1</float_array>
        <technique_common>
          <accessor source="#Motion_9_LEar_transform_pose_array_id" count="4" stride="16">
            <param name="TRANSFORM" type="float4x4" />
          </accessor>
        </technique_common>
      </source>
      <sampler id="Motion_9_LEar_transform_samp_id">
        <input semantic="INPUT" source="#Motion_9_LEar_transform_frame_id" />
        <input semantic="INTERPOLATION" source="#Motion_9_LEar_transform_interp_id" />
        <input semantic="OUTPUT" source="#Motion_9_LEar_transform_pose_id" />
      </sampler>
      <channel source="#Motion_9_LEar_transform_samp_id" target="LEar_bone_id/transform" />
    </animation>
  </library_animations>
  <library_visual_scenes>
    <visual_scene id="pm0858_00_fi_00_clip_id" name="pm0858_00_fi_00_clip">
      <node id="pm0858_00_fi_bone_id" name="pm0858_00_fi" sid="pm0858_00_fi" type="JOINT">
        <matrix sid="transform">1 0 0 0 0 1 0 0 0 0 1 0 0 0 0 1</matrix>
        <node id="Origin_bone_id" name="Origin" sid="Origin" type="JOINT">
          <matrix sid="transform">1 0 0 0 0 1 0 0 0 0 1 0 0 0 0 1</matrix>
          <node id="Waist_bone_id" name="Waist" sid="Waist" type="JOINT">
            <matrix sid="transform">3.1391647E-07 -1 0 0 1 3.1391647E-07 0 12.914248 0 0 1 -0.059518 0 0 0 1</matrix>
            <node id="Spine_bone_id" name="Spine" sid="Spine" type="JOINT">
              <matrix sid="transform">1 0 0 0.001 0 1 0 0 0 0 1 0 0 0 0 1</matrix>
              <node id="Head_bone_id" name="Head" sid="Head" type="JOINT">
                <matrix sid="transform">0.99754757 0 -0.06999173 0.001 0 1 0 0 0.06999173 0 0.99754757 0 0 0 0 1</matrix>
                <node id="LEar_bone_id" name="LEar" sid="LEar" type="JOINT">
                  <matrix sid="transform">0.9242361 0.38180566 -0.0034690348 6.053185 -0.37697533 0.91102517 -0.16710111 -4.874187 -0.060639773 0.15574864 0.98593366 8.157489 0 0 0 1</matrix>
                </node>
                <node id="REar_bone_id" name="REar" sid="REar" type="JOINT">
                  <matrix sid="transform">0.9242361 -0.38180566 -0.0034690348 6.053152 0.37697533 0.91102517 0.16710111 4.87419 -0.060639773 -0.15574864 0.98593366 8.157495 0 0 0 1</matrix>
                </node>
                <node id="Hair1_bone_id" name="Hair1" sid="Hair1" type="JOINT">
                  <matrix sid="transform">0.5975053 0 0.801865 -0.278247 0 1 0 0 -0.801865 0 0.5975053 0.797127 0 0 0 1</matrix>
                  <node id="Hair2_bone_id" name="Hair2" sid="Hair2" type="JOINT">
                    <matrix sid="transform">0.9465751 0 0.3224835 12.131923 0 1 0 0 -0.3224835 0 0.9465751 0 0 0 0 1</matrix>
                    <node id="Hair3_bone_id" name="Hair3" sid="Hair3" type="JOINT">
                      <matrix sid="transform">0.98464024 0 -0.17459555 8.11279 0 1 0 0 0.17459555 0 0.98464024 -3.737276 0 0 0 1</matrix>
                    </node>
                  </node>
                </node>
                <node id="LUpperHornA_bone_id" name="LUpperHornA" sid="LUpperHornA" type="JOINT">
                  <matrix sid="transform">0.33704308 0.2034146 0.9192521 7.442795 -0.9362639 -0.030309148 0.34998736 -8.832067 0.09905429 -0.97862345 0.18023427 2.027156 0 0 0 1</matrix>
                </node>
                <node id="RUpperHornA_bone_id" name="RUpperHornA" sid="RUpperHornA" type="JOINT">
                  <matrix sid="transform">0.33704308 -0.2034146 0.9192521 7.44278 0.9362639 -0.030309148 -0.34998736 8.832069 0.09905429 0.97862345 0.18023427 2.027152 0 0 0 1</matrix>
                </node>
                <node id="LUpperHornB_bone_id" name="LUpperHornB" sid="LUpperHornB" type="JOINT">
                  <matrix sid="transform">0.3599011 0.02873908 0.93254775 8.277582 -0.6251278 0.74941343 0.21816228 -5.256945 -0.692594 -0.6614783 0.2876803 -5.476878 0 0 0 1</matrix>
                </node>
                <node id="RUpperHornB_bone_id" name="RUpperHornB" sid="RUpperHornB" type="JOINT">
                  <matrix sid="transform">0.3599011 -0.02873908 0.93254775 8.27757 0.6251278 0.74941343 -0.21816228 5.256941 -0.692594 0.6614783 0.2876803 -5.476875 0 0 0 1</matrix>
                </node>
                <node id="LHornA_bone_id" name="LHornA" sid="LHornA" type="JOINT">
                  <matrix sid="transform">0.010497762 0.14948148 0.9887088 2.226907 -0.994609 -0.10044959 0.025747238 -11.670586 0.10316413 -0.9836489 0.14762111 1.108396 0 0 0 1</matrix>
                </node>
                <node id="RHornA_bone_id" name="RHornA" sid="RHornA" type="JOINT">
                  <matrix sid="transform">0.010497762 -0.14948148 0.9887088 2.226866 0.994609 -0.10044959 -0.025747238 11.670633 0.10316413 0.9836489 0.14762111 1.108398 0 0 0 1</matrix>
                </node>
                <node id="LHornB_bone_id" name="LHornB" sid="LHornB" type="JOINT">
                  <matrix sid="transform">-0.12763774 0.042686235 0.9909019 3.469695 -0.70985305 0.6938221 -0.12132452 -7.860001 -0.69268847 -0.7188803 -0.05825693 -7.070772 0 0 0 1</matrix>
                </node>
                <node id="RHornB_bone_id" name="RHornB" sid="RHornB" type="JOINT">
                  <matrix sid="transform">-0.12763774 -0.042686235 0.9909019 3.469716 0.70985305 0.6938221 0.12132452 7.86 -0.69268847 0.7188803 -0.05825693 -7.070775 0 0 0 1</matrix>
                </node>
                <node id="Horn_bone_id" name="Horn" sid="Horn" type="JOINT">
                  <matrix sid="transform">0.006793284 0 0.99997693 3.222046 0 1 0 0 -0.99997693 0 0.006793284 -10.263908 0 0 0 1</matrix>
                </node>
                <node id="Loc_Head_bone_id" name="Loc_Head" sid="Loc_Head" type="JOINT">
                  <matrix sid="transform">3.1391647E-07 0.99754757 0.06999173 12.494558 -1 3.1314661E-07 2.1971557E-08 0 0 -0.06999173 0.99754757 -0.816998 0 0 0 1</matrix>
                </node>
                <node id="Loc_Eye_bone_id" name="Loc_Eye" sid="Loc_Eye" type="JOINT">
                  <matrix sid="transform">3.1391647E-07 0.99754757 0.06999173 3.681891 -1 3.1314661E-07 2.1971557E-08 0 0 -0.06999173 0.99754757 12.226832 0 0 0 1</matrix>
                </node>
                <node id="Loc_Mouth_bone_id" name="Loc_Mouth" sid="Loc_Mouth" type="JOINT">
                  <matrix sid="transform">3.1391647E-07 0.99754757 0.06999173 0.593833 -1 3.1314661E-07 2.1971557E-08 0 0 -0.06999173 0.99754757 12.129935 0 0 0 1</matrix>
                </node>
              </node>
              <node id="LShoulder_bone_id" name="LShoulder" sid="LShoulder" type="JOINT">
                <matrix sid="transform">-0.3759641 -0.0609237 -0.9246292 0.13467 -0.31929928 0.9452434 0.067548506 0.013332 0.86988443 0.32062927 -0.3748305 -4.223837 0 0 0 1</matrix>
                <node id="LArm_bone_id" name="LArm" sid="LArm" type="JOINT">
                  <matrix sid="transform">0.99912 0.04194369 0 14.635793 -0.04194369 0.99912 0 0 0 0 1 0 0 0 0 1</matrix>
                </node>
              </node>
              <node id="RShoulder_bone_id" name="RShoulder" sid="RShoulder" type="JOINT">
                <matrix sid="transform">-0.3759641 0.0609237 -0.9246292 0.134652 0.31929928 0.9452434 -0.067548506 -0.013332 0.86988443 -0.32062927 -0.3748305 -4.223842 0 0 0 1</matrix>
                <node id="RArm_bone_id" name="RArm" sid="RArm" type="JOINT">
                  <matrix sid="transform">0.99912 -0.04194369 0 14.63579 0.04194369 0.99912 0 1E-06 0 0 1 -1.6E-05 0 0 0 1</matrix>
                </node>
              </node>
            </node>
            <node id="Hips_bone_id" name="Hips" sid="Hips" type="JOINT">
              <matrix sid="transform">-1 3.2584137E-07 0 -0.001 -3.2584137E-07 -1 0 0 0 0 1 0 0 0 0 1</matrix>
              <node id="LHips_bone_id" name="LHips" sid="LHips" type="JOINT">
                <matrix sid="transform">1 0 0 -0.500408 0 1 0 2.663224 0 0 1 0.059518 0 0 0 1</matrix>
                <node id="LFoot_bone_id" name="LFoot" sid="LFoot" type="JOINT">
                  <matrix sid="transform">3.1391647E-07 0 -1 11.121935 0 1 0 1.82403 1 0 3.1391647E-07 -0.250275 0 0 0 1</matrix>
                  <node id="LToe_bone_id" name="LToe" sid="LToe" type="JOINT">
                    <matrix sid="transform">1 0 0 2.411196 0 1 0 0 0 0 1 -1.026151 0 0 0 1</matrix>
                  </node>
                </node>
              </node>
              <node id="RHips_bone_id" name="RHips" sid="RHips" type="JOINT">
                <matrix sid="transform">1 0 0 -0.500452 0 1 0 -2.66322 0 0 1 0.059518 0 0 0 1</matrix>
                <node id="RFoot_bone_id" name="RFoot" sid="RFoot" type="JOINT">
                  <matrix sid="transform">3.1391647E-07 0 -1 11.12198 0 1 0 -1.82403 1 0 3.1391647E-07 -0.250275 0 0 0 1</matrix>
                  <node id="RToe_bone_id" name="RToe" sid="RToe" type="JOINT">
                    <matrix sid="transform">1 0 0 2.411195 0 1 0 0 0 0 1 -1.02615 0 0 0 1</matrix>
                  </node>
                </node>
              </node>
            </node>
            <node id="LLowerHornA_bone_id" name="LLowerHornA" sid="LLowerHornA" type="JOINT">
              <matrix sid="transform">-0.34733543 -0.6516065 -0.67436415 -5.077586 -0.9292963 0.3354723 0.15448861 -11.294842 0.1255647 0.6803435 -0.722057 1.578529 0 0 0 1</matrix>
            </node>
            <node id="RLowerHornA_bone_id" name="RLowerHornA" sid="RLowerHornA" type="JOINT">
              <matrix sid="transform">-0.34733543 0.6516065 -0.67436415 -5.07759 0.9292963 0.3354723 -0.15448861 11.29487 0.1255647 -0.6803435 -0.722057 1.57853 0 0 0 1</matrix>
            </node>
            <node id="LLowerHornB_bone_id" name="LLowerHornB" sid="LLowerHornB" type="JOINT">
              <matrix sid="transform">-0.55735415 -0.35316473 -0.75141937 -8.257856 -0.5686536 0.8218089 0.035542786 -6.570963 0.60497063 0.4471072 -0.658867 5.086381 0 0 0 1</matrix>
            </node>
            <node id="RLowerHornB_bone_id" name="RLowerHornB" sid="RLowerHornB" type="JOINT">
              <matrix sid="transform">-0.55735415 0.35316473 -0.75141937 -8.257858 0.5686536 0.8218089 -0.035542786 6.570964 0.60497063 -0.4471072 -0.658867 5.08638 0 0 0 1</matrix>
            </node>
            <node id="LowerHorn_bone_id" name="LowerHorn" sid="LowerHorn" type="JOINT">
              <matrix sid="transform">-0.6902504 0 -0.7235706 -9.385896 0 1 0 0 0.7235706 0 -0.6902504 6.235257 0 0 0 1</matrix>
            </node>
          </node>
          <node id="CamTgtHead_bone_id" name="CamTgtHead" sid="CamTgtHead" type="JOINT">
            <matrix sid="transform">1 0 0 0 0 1 0 15.733335 0 0 1 12.39503 0 0 0 1</matrix>
          </node>
        </node>
        <node id="pm0858_00_fi_BodySkin_bone_id" name="pm0858_00_fi_BodySkin" sid="pm0858_00_fi_BodySkin" type="JOINT">
          <matrix sid="transform">1 0 0 0 0 1 0 0 0 0 1 0 0 0 0 1</matrix>
        </node>
        <node id="pm0858_00_fi_TailSkin_bone_id" name="pm0858_00_fi_TailSkin" sid="pm0858_00_fi_TailSkin" type="JOINT">
          <matrix sid="transform">1 0 0 0 0 1 0 0 0 0 1 0 0 0 0 1</matrix>
        </node>
        <node id="pm0858_00_fi_ArmSkin_bone_id" name="pm0858_00_fi_ArmSkin" sid="pm0858_00_fi_ArmSkin" type="JOINT">
          <matrix sid="transform">1 0 0 0 0 1 0 0 0 0 1 0 0 0 0 1</matrix>
        </node>
        <node id="pm0858_00_fi_FootSkin_bone_id" name="pm0858_00_fi_FootSkin" sid="pm0858_00_fi_FootSkin" type="JOINT">
          <matrix sid="transform">1 0 0 0 0 1 0 0 0 0 1 0 0 0 0 1</matrix>
        </node>
        <node id="pm0858_00_fi_NeedlesSkin_bone_id" name="pm0858_00_fi_NeedlesSkin" sid="pm0858_00_fi_NeedlesSkin" type="JOINT">
          <matrix sid="transform">1 0 0 0 0 1 0 0 0 0 1 0 0 0 0 1</matrix>
        </node>
      </node>
    </visual_scene>
  </library_visual_scenes>
  <scene>
    <instance_visual_scene url="#pm0858_00_fi_00_clip_id" />
  </scene>
</COLLADA>