<?xml version="1.0" encoding="utf-8"?>
<COLLADA xmlns:xsi="http://www.w3.org/2001/XMLSchema-instance" xmlns:xsd="http://www.w3.org/2001/XMLSchema" version="1.4.1" xmlns="http://www.collada.org/2005/11/COLLADASchema">
  <asset>
    <created>2026-02-17T05:46:52.9921418-05:00</created>
    <modified>2026-02-17T05:46:52.992142-05:00</modified>
    <up_axis>Y_UP</up_axis>
  </asset>
  <library_animations>
    <animation id="Motion_9_Waist_transform_id" name="Motion_9_Waist_transform">
      <source id="Motion_9_Waist_transform_frame_id" name="Motion_9_Waist_transform_frame">
        <float_array id="Motion_9_Waist_transform_frame_array_id" count="10">0 0.033333335 0.06666667 0.1 0.13333334 0.16666667 0.2 0.23333333 0.26666668 0.3</float_array>
        <technique_common>
          <accessor source="#Motion_9_Waist_transform_frame_array_id" count="10" stride="1">
            <param name="TIME" type="float" />
          </accessor>
        </technique_common>
      </source>
      <source id="Motion_9_Waist_transform_interp_id" name="Motion_9_Waist_transform_interp">
        <Name_array id="Motion_9_Waist_transform_interp_array_id" count="10">LINEAR LINEAR LINEAR LINEAR LINEAR LINEAR LINEAR LINEAR LINEAR LINEAR</Name_array>
        <technique_common>
          <accessor source="#Motion_9_Waist_transform_interp_array_id" count="10" stride="1">
            <param name="INTERPOLATION" type="Name" />
          </accessor>
        </technique_common>
      </source>
      <source id="Motion_9_Waist_transform_pose_id" name="Motion_9_Waist_transform_pose">
        <float_array id="Motion_9_Waist_transform_pose_array_id" count="160">-0.24288595 -0.97001994 0.008265376 0.9456312 -0.030733258 -0.0008215904 -0.99952745 17.577833 0.96956813 -0.24302495 -0.029612541 -2.301466 0 0 0 1 -0.23373222 -0.97223777 0.0110887885 0.99508643 -0.04315704 -0.001019597 -0.9990678 17.658688 0.97134274 -0.23399284 -0.04172051 -2.6781518 0 0 0 1 -0.22292471 -0.97473264 0.0141688585 1.0473144 -0.057851076 -0.001281023 -0.9983244 17.746296 0.97311753 -0.22337091 -0.056103706 -3.1203237 0 0 0 1 -0.21132731 -0.97726536 0.01711744 1.0988587 -0.073483974 -0.001577735 -0.997295 17.836634 0.97464895 -0.2120136 -0.0714798 -3.592964 0 0 0 1 -0.20038891 -0.9795196 0.019632548 1.146263 -0.0883024 -0.0018997192 -0.9960918 17.925661 0.97572887 -0.20133942 -0.086113214 -4.044498 0 0 0 1 -0.1909554 -0.98136497 0.021428794 1.1860706 -0.1004996 -0.0021698475 -0.99493486 18.009352 0.97644055 -0.19214159 -0.09821248 -4.4233537 0 0 0 1 -0.18438423 -0.9825939 0.0226233 1.2148255 -0.10898948 -0.002434969 -0.99403995 18.079966 0.97679263 -0.1857509 -0.10664356 -4.6779566 0 0 0 1 -0.18191338 -0.98304397 0.023059338 1.2290709 -0.112130105 -0.0025590658 -0.9936901 18.130983 0.9769002 -0.18335134 -0.109763145 -4.772334 0 0 0 1 -0.18860579 -0.9817626 0.023872256 1.2281562 -0.1112929 -0.0027840137 -0.9937837 18.160198 0.9757262 -0.19009021 -0.108738065 -4.752698 0 0 0 1 -0.18860579 -0.9817626 0.023872256 1.2281562 -0.1112929 -0.0027840137 -0.9937837 18.160198 0.9757262 -0.19009021 -0.108738065 -4.752698 0 0 0 1</float_array>
        <technique_common>
          <accessor source="#Motion_9_Waist_transform_pose_array_id" count="10" stride="16">
            <param name="TRANSFORM" type="float4x4" />
          </accessor>
        </technique_common>
      </source>
      <sampler id="Motion_9_Waist_transform_samp_id">
        <input semantic="INPUT" source="#Motion_9_Waist_transform_frame_id" />
        <input semantic="INTERPOLATION" source="#Motion_9_Waist_transform_interp_id" />
        <input semantic="OUTPUT" source="#Motion_9_Waist_transform_pose_id" />
      </sampler>
      <channel source="#Motion_9_Waist_transform_samp_id" target="Waist_bone_id/transform" />
    </animation>
    <animation id="Motion_9_Hips_transform_id" name="Motion_9_Hips_transform">
      <source id="Motion_9_Hips_transform_frame_id" name="Motion_9_Hips_transform_frame">
        <float_array id="Motion_9_Hips_transform_frame_array_id" count="10">0 0.033333335 0.06666667 0.1 0.13333334 0.16666667 0.2 0.23333333 0.26666668 0.3</float_array>
        <technique_common>
          <accessor source="#Motion_9_Hips_transform_frame_array_id" count="10" stride="1">
            <param name="TIME" type="float" />
          </accessor>
        </technique_common>
      </source>
      <source id="Motion_9_Hips_transform_interp_id" name="Motion_9_Hips_transform_interp">
        <Name_array id="Motion_9_Hips_transform_interp_array_id" count="10">LINEAR LINEAR LINEAR LINEAR LINEAR LINEAR LINEAR LINEAR LINEAR LINEAR</Name_array>
        <technique_common>
          <accessor source="#Motion_9_Hips_transform_interp_array_id" count="10" stride="1">
            <param name="INTERPOLATION" type="Name" />
          </accessor>
        </technique_common>
      </source>
      <source id="Motion_9_Hips_transform_pose_id" name="Motion_9_Hips_transform_pose">
        <float_array id="Motion_9_Hips_transform_pose_array_id" count="160">-0.9915447 0.003181883 0.12972663 -0.001 0.0039489297 -0.99849653 0.054673728 0 0.12970556 0.05472373 0.9900413 9E-06 0 0 0 1 -0.9921346 0.009245646 0.12483651 -0.001 -0.0025535205 -0.99855626 0.05366107 0 0.12515238 0.052920215 0.99072516 9E-06 0 0 0 1 -0.99354446 0.014090742 0.11256336 -0.001 -0.008559012 -0.9987385 0.049476206 0 0.11311853 0.048193388 0.99241203 9E-06 0 0 0 1 -0.99535906 0.017872531 0.094554454 -0.001 -0.013882216 -0.9989916 0.04269202 0 0.095222145 0.041181274 0.9946039 9E-06 0 0 0 1 -0.9971061 0.020828756 0.07311304 -0.001 -0.018361019 -0.9992441 0.03426377 0 0.07377145 0.032822188 0.9967349 9E-06 0 0 0 1 -0.9984571 0.023010729 0.0505356 -0.001 -0.021759534 -0.9994463 0.025170892 0 0.051086824 0.024032425 0.99840504 9E-06 0 0 0 1 -0.99927795 0.02441853 0.029109675 -0.001 -0.023947686 -0.9995785 0.016415153 0 0.029498238 0.015706189 0.99944144 9E-06 0 0 0 1 -0.9996245 0.025305105 0.010520092 -0.001 -0.02521081 -0.99964166 0.009001325 0 0.010744101 0.008732724 0.99990416 9E-06 0 0 0 1 -0.99966264 0.025820684 -0.002837858 -0.001 -0.025831748 -0.9996587 0.0039337203 0 -0.0027353175 0.0040056994 0.99998826 9E-06 0 0 0 1 -0.99966264 0.025820684 -0.002837858 -0.001 -0.025831748 -0.9996587 0.0039337203 0 -0.0027353175 0.0040056994 0.99998826 9E-06 0 0 0 1</float_array>
        <technique_common>
          <accessor source="#Motion_9_Hips_transform_pose_array_id" count="10" stride="16">
            <param name="TRANSFORM" type="float4x4" />
          </accessor>
        </technique_common>
      </source>
      <sampler id="Motion_9_Hips_transform_samp_id">
        <input semantic="INPUT" source="#Motion_9_Hips_transform_frame_id" />
        <input semantic="INTERPOLATION" source="#Motion_9_Hips_transform_interp_id" />
        <input semantic="OUTPUT" source="#Motion_9_Hips_transform_pose_id" />
      </sampler>
      <channel source="#Motion_9_Hips_transform_samp_id" target="Hips_bone_id/transform" />
    </animation>
    <animation id="Motion_9_RThigh_transform_id" name="Motion_9_RThigh_transform">
      <source id="Motion_9_RThigh_transform_frame_id" name="Motion_9_RThigh_transform_frame">
        <float_array id="Motion_9_RThigh_transform_frame_array_id" count="10">0 0.033333335 0.06666667 0.1 0.13333334 0.16666667 0.2 0.23333333 0.26666668 0.3</float_array>
        <technique_common>
          <accessor source="#Motion_9_RThigh_transform_frame_array_id" count="10" stride="1">
            <param name="TIME" type="float" />
          </accessor>
        </technique_common>
      </source>
      <source id="Motion_9_RThigh_transform_interp_id" name="Motion_9_RThigh_transform_interp">
        <Name_array id="Motion_9_RThigh_transform_interp_array_id" count="10">LINEAR LINEAR LINEAR LINEAR LINEAR LINEAR LINEAR LINEAR LINEAR LINEAR</Name_array>
        <technique_common>
          <accessor source="#Motion_9_RThigh_transform_interp_array_id" count="10" stride="1">
            <param name="INTERPOLATION" type="Name" />
          </accessor>
        </technique_common>
      </source>
      <source id="Motion_9_RThigh_transform_pose_id" name="Motion_9_RThigh_transform_pose">
        <float_array id="Motion_9_RThigh_transform_pose_array_id" count="160">-0.18186533 -0.14684105 -0.9722975 5.103623 -0.15740564 0.980384 -0.118620016 -5.95216 0.9706432 0.13147224 -0.20141149 -1.515067 0 0 0 1 -0.21357095 -0.14022645 -0.96681124 5.103623 -0.14164728 0.9836318 -0.11137587 -5.95216 0.96660405 0.11315952 -0.22993791 -1.515067 0 0 0 1 -0.24659097 -0.13440451 -0.9597543 5.103623 -0.12602627 0.9863741 -0.10575227 -5.95216 0.96089035 0.0948767 -0.2601694 -1.515067 0 0 0 1 -0.27500463 -0.13016175 -0.95259136 5.103623 -0.111813545 0.9884002 -0.102775075 -5.95216 0.9549189 0.078248985 -0.2863685 -1.515067 0 0 0 1 -0.29317188 -0.12761194 -0.94750476 5.103623 -0.10029177 0.9896889 -0.10226162 -5.95216 0.9507848 0.0650467 -0.3029474 -1.515067 0 0 0 1 -0.29884756 -0.12621698 -0.94591725 5.103623 -0.0917166 0.99042517 -0.103179425 -5.95216 0.9498832 0.055921394 -0.30756235 -1.515067 0 0 0 1 -0.29005313 -0.12535714 -0.94876486 5.103623 -0.0862838 0.99077183 -0.104528986 -5.95216 0.9531129 0.051544093 -0.29819274 -1.515067 0 0 0 1 -0.26870966 -0.12455412 -0.95513433 5.103623 -0.08430826 0.99083984 -0.10549172 -5.95216 0.9595246 0.052179076 -0.27674925 -1.515067 0 0 0 1 -0.25414288 -0.11632388 -0.96014595 5.103623 -0.086330585 0.9915065 -0.09727229 -5.95216 0.96330607 0.058168918 -0.26202655 -1.515067 0 0 0 1 -0.25414288 -0.11632388 -0.96014595 5.103623 -0.086330585 0.9915065 -0.09727229 -5.95216 0.96330607 0.058168918 -0.26202655 -1.515067 0 0 0 1</float_array>
        <technique_common>
          <accessor source="#Motion_9_RThigh_transform_pose_array_id" count="10" stride="16">
            <param name="TRANSFORM" type="float4x4" />
          </accessor>
        </technique_common>
      </source>
      <sampler id="Motion_9_RThigh_transform_samp_id">
        <input semantic="INPUT" source="#Motion_9_RThigh_transform_frame_id" />
        <input semantic="INTERPOLATION" source="#Motion_9_RThigh_transform_interp_id" />
        <input semantic="OUTPUT" source="#Motion_9_RThigh_transform_pose_id" />
      </sampler>
      <channel source="#Motion_9_RThigh_transform_samp_id" target="RThigh_bone_id/transform" />
    </animation>
    <animation id="Motion_9_RLeg_transform_id" name="Motion_9_RLeg_transform">
      <source id="Motion_9_RLeg_transform_frame_id" name="Motion_9_RLeg_transform_frame">
        <float_array id="Motion_9_RLeg_transform_frame_array_id" count="10">0 0.033333335 0.06666667 0.1 0.13333334 0.16666667 0.2 0.23333333 0.26666668 0.3</float_array>
        <technique_common>
          <accessor source="#Motion_9_RLeg_transform_frame_array_id" count="10" stride="1">
            <param name="TIME" type="float" />
          </accessor>
        </technique_common>
      </source>
      <source id="Motion_9_RLeg_transform_interp_id" name="Motion_9_RLeg_transform_interp">
        <Name_array id="Motion_9_RLeg_transform_interp_array_id" count="10">LINEAR LINEAR LINEAR LINEAR LINEAR LINEAR LINEAR LINEAR LINEAR LINEAR</Name_array>
        <technique_common>
          <accessor source="#Motion_9_RLeg_transform_interp_array_id" count="10" stride="1">
            <param name="INTERPOLATION" type="Name" />
          </accessor>
        </technique_common>
      </source>
      <source id="Motion_9_RLeg_transform_pose_id" name="Motion_9_RLeg_transform_pose">
        <float_array id="Motion_9_RLeg_transform_pose_array_id" count="160">0.5018122 0 0.8649766 5.647007 0 1 0 0 -0.8649766 0 0.5018122 0 0 0 0 1 0.52830434 0 0.8490551 5.647007 0 1 0 0 -0.8490551 0 0.52830434 0 0 0 0 1 0.5723137 0 0.82003474 5.647007 0 1 0 0 -0.82003474 0 0.5723137 0 0 0 0 1 0.6299651 0 0.7766234 5.647007 0 1 0 0 -0.7766234 0 0.6299651 0 0 0 0 1 0.69673455 0 0.7173291 5.647007 0 1 0 0 -0.7173291 0 0.69673455 0 0 0 0 1 0.76449645 0 0.6446279 5.647007 0 1 0 0 -0.6446279 0 0.76449645 0 0 0 0 1 0.8260563 0 0.5635876 5.647007 0 1 0 0 -0.5635876 0 0.8260563 0 0 0 0 1 0.87294346 0 0.4878214 5.647007 0 1 0 0 -0.4878214 0 0.87294346 0 0 0 0 1 0.8968421 0 0.44235072 5.647007 0 1 0 0 -0.44235072 0 0.8968421 0 0 0 0 1 0.8968421 0 0.44235072 5.647007 0 1 0 0 -0.44235072 0 0.8968421 0 0 0 0 1</float_array>
        <technique_common>
          <accessor source="#Motion_9_RLeg_transform_pose_array_id" count="10" stride="16">
            <param name="TRANSFORM" type="float4x4" />
          </accessor>
        </technique_common>
      </source>
      <sampler id="Motion_9_RLeg_transform_samp_id">
        <input semantic="INPUT" source="#Motion_9_RLeg_transform_frame_id" />
        <input semantic="INTERPOLATION" source="#Motion_9_RLeg_transform_interp_id" />
        <input semantic="OUTPUT" source="#Motion_9_RLeg_transform_pose_id" />
      </sampler>
      <channel source="#Motion_9_RLeg_transform_samp_id" target="RLeg_bone_id/transform" />
    </animation>
    <animation id="Motion_9_RFoot_transform_id" name="Motion_9_RFoot_transform">
      <source id="Motion_9_RFoot_transform_frame_id" name="Motion_9_RFoot_transform_frame">
        <float_array id="Motion_9_RFoot_transform_frame_array_id" count="10">0 0.033333335 0.06666667 0.1 0.13333334 0.16666667 0.2 0.23333333 0.26666668 0.3</float_array>
        <technique_common>
          <accessor source="#Motion_9_RFoot_transform_frame_array_id" count="10" stride="1">
            <param name="TIME" type="float" />
          </accessor>
        </technique_common>
      </source>
      <source id="Motion_9_RFoot_transform_interp_id" name="Motion_9_RFoot_transform_interp">
        <Name_array id="Motion_9_RFoot_transform_interp_array_id" count="10">LINEAR LINEAR LINEAR LINEAR LINEAR LINEAR LINEAR LINEAR LINEAR LINEAR</Name_array>
        <technique_common>
          <accessor source="#Motion_9_RFoot_transform_interp_array_id" count="10" stride="1">
            <param name="INTERPOLATION" type="Name" />
          </accessor>
        </technique_common>
      </source>
      <source id="Motion_9_RFoot_transform_pose_id" name="Motion_9_RFoot_transform_pose">
        <float_array id="Motion_9_RFoot_transform_pose_array_id" count="160">-0.6084027 -0.0249958 -0.7932348 5.852866 0.10380973 0.98840994 -0.11076697 0 0.7868099 -0.1497364 -0.59875655 1E-05 0 0 0 1 -0.5784273 -0.0293536 -0.81520545 5.852866 0.08748409 0.9913564 -0.09777053 0 0.8110291 -0.12787068 -0.5708597 1E-05 0 0 0 1 -0.5377941 -0.032387674 -0.84245354 5.852866 0.069483265 0.9941596 -0.08257572 0 0.84020776 -0.10294519 -0.53240275 1E-05 0 0 0 1 -0.4884311 -0.03341015 -0.8719627 5.852866 0.051794376 0.9963949 -0.06719059 0 0.871064 -0.07798073 -0.4849397 1E-05 0 0 0 1 -0.43434 -0.03237087 -0.90016705 5.852866 0.03673591 0.99788594 -0.053610396 0 0.89999944 -0.056353603 -0.43223262 1E-05 0 0 0 1 -0.38051128 -0.029801266 -0.924296 5.852866 0.02546786 0.99876386 -0.042686794 0 0.9244256 -0.039782647 -0.379282 1E-05 0 0 0 1 -0.33132553 -0.027339943 -0.9431203 5.852866 0.017995898 0.9992151 -0.03528817 0 0.9433449 -0.028664172 -0.33057356 1E-05 0 0 0 1 -0.2958616 -0.02675225 -0.954856 5.852866 0.01441822 0.9993688 -0.032466844 0 0.9551218 -0.023373023 -0.29528916 1E-05 0 0 0 1 -0.27729166 -0.02856469 -0.960361 5.852866 0.012705876 0.9993615 -0.033393364 0 0.9607017 -0.02146193 -0.27675164 1E-05 0 0 0 1 -0.27729166 -0.02856469 -0.960361 5.852866 0.012705876 0.9993615 -0.033393364 0 0.9607017 -0.02146193 -0.27675164 1E-05 0 0 0 1</float_array>
        <technique_common>
          <accessor source="#Motion_9_RFoot_transform_pose_array_id" count="10" stride="16">
            <param name="TRANSFORM" type="float4x4" />
          </accessor>
        </technique_common>
      </source>
      <sampler id="Motion_9_RFoot_transform_samp_id">
        <input semantic="INPUT" source="#Motion_9_RFoot_transform_frame_id" />
        <input semantic="INTERPOLATION" source="#Motion_9_RFoot_transform_interp_id" />
        <input semantic="OUTPUT" source="#Motion_9_RFoot_transform_pose_id" />
      </sampler>
      <channel source="#Motion_9_RFoot_transform_samp_id" target="RFoot_bone_id/transform" />
    </animation>
    <animation id="Motion_9_RToe1_transform_id" name="Motion_9_RToe1_transform">
      <source id="Motion_9_RToe1_transform_frame_id" name="Motion_9_RToe1_transform_frame">
        <float_array id="Motion_9_RToe1_transform_frame_array_id" count="10">0 0.033333335 0.06666667 0.1 0.13333334 0.16666667 0.2 0.23333333 0.26666668 0.3</float_array>
        <technique_common>
          <accessor source="#Motion_9_RToe1_transform_frame_array_id" count="10" stride="1">
            <param name="TIME" type="float" />
          </accessor>
        </technique_common>
      </source>
      <source id="Motion_9_RToe1_transform_interp_id" name="Motion_9_RToe1_transform_interp">
        <Name_array id="Motion_9_RToe1_transform_interp_array_id" count="10">LINEAR LINEAR LINEAR LINEAR LINEAR LINEAR LINEAR LINEAR LINEAR LINEAR</Name_array>
        <technique_common>
          <accessor source="#Motion_9_RToe1_transform_interp_array_id" count="10" stride="1">
            <param name="INTERPOLATION" type="Name" />
          </accessor>
        </technique_common>
      </source>
      <source id="Motion_9_RToe1_transform_pose_id" name="Motion_9_RToe1_transform_pose">
        <float_array id="Motion_9_RToe1_transform_pose_array_id" count="160">1 -1.0750085E-09 3.7583013E-05 0.2902 1.509958E-07 0.9999921 -0.003989058 0 -3.7582708E-05 0.003989058 0.9999921 -5.7167 0 0 0 1 1 8.597887E-09 3.7583006E-05 0.2902 1.6066858E-07 0.99998987 -0.004503801 0 -3.7582664E-05 0.004503801 0.99998987 -5.7167 0 0 0 1 1 1.9089377E-08 3.7582995E-05 0.2902 1.7115994E-07 0.9999872 -0.005062105 0 -3.758261E-05 0.005062105 0.9999872 -5.7167 0 0 0 1 1 2.998752E-08 3.758298E-05 0.2902 1.8205792E-07 0.9999841 -0.0056420476 0 -3.758255E-05 0.0056420476 0.9999841 -5.7167 0 0 0 1 1 4.0880323E-08 3.7582955E-05 0.2902 1.9295055E-07 0.9999806 -0.0062217056 0 -3.7582482E-05 0.0062217056 0.9999806 -5.7167 0 0 0 1 1 5.135587E-08 3.7582937E-05 0.2902 2.0342591E-07 0.999977 -0.006779157 0 -3.758242E-05 0.006779157 0.999977 -5.7167 0 0 0 1 1 6.100216E-08 3.7582904E-05 0.2902 2.1307201E-07 0.9999734 -0.007292479 0 -3.758235E-05 0.007292479 0.9999734 -5.7167 0 0 0 1 1 6.9407264E-08 3.7582882E-05 0.2902 2.2147697E-07 0.99997 -0.0077397507 0 -3.7582293E-05 0.0077397507 0.99997 -5.7167 0 0 0 1 1 7.615919E-08 3.7582857E-05 0.2902 2.2822874E-07 0.9999672 -0.008099049 0 -3.758224E-05 0.008099049 0.9999672 -5.7167 0 0 0 1 1 7.615919E-08 3.7582857E-05 0.2902 2.2822874E-07 0.9999672 -0.008099049 0 -3.758224E-05 0.008099049 0.9999672 -5.7167 0 0 0 1</float_array>
        <technique_common>
          <accessor source="#Motion_9_RToe1_transform_pose_array_id" count="10" stride="16">
            <param name="TRANSFORM" type="float4x4" />
          </accessor>
        </technique_common>
      </source>
      <sampler id="Motion_9_RToe1_transform_samp_id">
        <input semantic="INPUT" source="#Motion_9_RToe1_transform_frame_id" />
        <input semantic="INTERPOLATION" source="#Motion_9_RToe1_transform_interp_id" />
        <input semantic="OUTPUT" source="#Motion_9_RToe1_transform_pose_id" />
      </sampler>
      <channel source="#Motion_9_RToe1_transform_samp_id" target="RToe1_bone_id/transform" />
    </animation>
    <animation id="Motion_9_LThigh_transform_id" name="Motion_9_LThigh_transform">
      <source id="Motion_9_LThigh_transform_frame_id" name="Motion_9_LThigh_transform_frame">
        <float_array id="Motion_9_LThigh_transform_frame_array_id" count="10">0 0.033333335 0.06666667 0.1 0.13333334 0.16666667 0.2 0.23333333 0.26666668 0.3</float_array>
        <technique_common>
          <accessor source="#Motion_9_LThigh_transform_frame_array_id" count="10" stride="1">
            <param name="TIME" type="float" />
          </accessor>
        </technique_common>
      </source>
      <source id="Motion_9_LThigh_transform_interp_id" name="Motion_9_LThigh_transform_interp">
        <Name_array id="Motion_9_LThigh_transform_interp_array_id" count="10">LINEAR LINEAR LINEAR LINEAR LINEAR LINEAR LINEAR LINEAR LINEAR LINEAR</Name_array>
        <technique_common>
          <accessor source="#Motion_9_LThigh_transform_interp_array_id" count="10" stride="1">
            <param name="INTERPOLATION" type="Name" />
          </accessor>
        </technique_common>
      </source>
      <source id="Motion_9_LThigh_transform_pose_id" name="Motion_9_LThigh_transform_pose">
        <float_array id="Motion_9_LThigh_transform_pose_array_id" count="160">-0.0010834932 0.16258879 -0.98669326 5.103626 0.11870273 0.9797387 0.16131243 5.952158 0.9929292 -0.116948396 -0.020361304 -1.51509 0 0 0 1 -0.052342296 0.15397733 -0.98668694 5.103626 0.11521628 0.9823745 0.1471923 5.952158 0.9919604 -0.10597802 -0.06916046 -1.51509 0 0 0 1 -0.10822582 0.14542077 -0.98343265 5.103626 0.110116795 0.98490936 0.13352087 5.952158 0.98800874 -0.09384204 -0.12260592 -1.51509 0 0 0 1 -0.15836298 0.1371526 -0.977809 5.103626 0.10288176 0.9872072 0.121808425 5.952158 0.9820065 -0.08130875 -0.17044759 -1.51509 0 0 0 1 -0.19276512 0.12969384 -0.97263616 5.103626 0.09333814 0.98915565 0.11339805 5.952158 0.9767956 -0.06892487 -0.20278001 -1.51509 0 0 0 1 -0.20662045 0.12386833 -0.97054857 5.103626 0.082063034 0.9906526 0.1089637 5.952158 0.9749736 -0.057132017 -0.21485412 -1.51509 0 0 0 1 -0.1955167 0.120422766 -0.9732789 5.103626 0.06979488 0.9916245 0.10867193 5.952158 0.97821367 -0.046682697 -0.2022841 -1.51509 0 0 0 1 -0.1597172 0.12014985 -0.9798237 5.103626 0.056919605 0.992035 0.112369 5.952158 0.9855205 -0.037823904 -0.16528392 -1.51509 0 0 0 1 -0.11632395 0.12893024 -0.9848073 5.103626 0.044156704 0.9912296 0.1245553 5.952158 0.99222916 -0.028997071 -0.12099683 -1.51509 0 0 0 1 -0.11632395 0.12893024 -0.9848073 5.103626 0.044156704 0.9912296 0.1245553 5.952158 0.99222916 -0.028997071 -0.12099683 -1.51509 0 0 0 1</float_array>
        <technique_common>
          <accessor source="#Motion_9_LThigh_transform_pose_array_id" count="10" stride="16">
            <param name="TRANSFORM" type="float4x4" />
          </accessor>
        </technique_common>
      </source>
      <sampler id="Motion_9_LThigh_transform_samp_id">
        <input semantic="INPUT" source="#Motion_9_LThigh_transform_frame_id" />
        <input semantic="INTERPOLATION" source="#Motion_9_LThigh_transform_interp_id" />
        <input semantic="OUTPUT" source="#Motion_9_LThigh_transform_pose_id" />
      </sampler>
      <channel source="#Motion_9_LThigh_transform_samp_id" target="LThigh_bone_id/transform" />
    </animation>
    <animation id="Motion_9_LLeg_transform_id" name="Motion_9_LLeg_transform">
      <source id="Motion_9_LLeg_transform_frame_id" name="Motion_9_LLeg_transform_frame">
        <float_array id="Motion_9_LLeg_transform_frame_array_id" count="10">0 0.033333335 0.06666667 0.1 0.13333334 0.16666667 0.2 0.23333333 0.26666668 0.3</float_array>
        <technique_common>
          <accessor source="#Motion_9_LLeg_transform_frame_array_id" count="10" stride="1">
            <param name="TIME" type="float" />
          </accessor>
        </technique_common>
      </source>
      <source id="Motion_9_LLeg_transform_interp_id" name="Motion_9_LLeg_transform_interp">
        <Name_array id="Motion_9_LLeg_transform_interp_array_id" count="10">LINEAR LINEAR LINEAR LINEAR LINEAR LINEAR LINEAR LINEAR LINEAR LINEAR</Name_array>
        <technique_common>
          <accessor source="#Motion_9_LLeg_transform_interp_array_id" count="10" stride="1">
            <param name="INTERPOLATION" type="Name" />
          </accessor>
        </technique_common>
      </source>
      <source id="Motion_9_LLeg_transform_pose_id" name="Motion_9_LLeg_transform_pose">
        <float_array id="Motion_9_LLeg_transform_pose_array_id" count="160">0.49408627 0 0.8694129 5.647039 0 1 0 0 -0.8694129 0 0.49408627 0 0 0 0 1 0.5035809 0 0.86394805 5.647039 0 1 0 0 -0.86394805 0 0.5035809 0 0 0 0 1 0.53632206 0 0.84401345 5.647039 0 1 0 0 -0.84401345 0 0.53632206 0 0 0 0 1 0.59059834 0 0.80696565 5.647039 0 1 0 0 -0.80696565 0 0.59059834 0 0 0 0 1 0.6629661 0 0.7486494 5.647039 0 1 0 0 -0.7486494 0 0.6629661 0 0 0 0 1 0.74408305 0 0.6680872 5.647039 0 1 0 0 -0.6680872 0 0.74408305 0 0 0 0 1 0.824075 0 0.56648076 5.647039 0 1 0 0 -0.56648076 0 0.824075 0 0 0 0 1 0.89061433 0 0.4547594 5.647039 0 1 0 0 -0.4547594 0 0.89061433 0 0 0 0 1 0.93171966 0 0.36317825 5.647039 0 1 0 0 -0.36317825 0 0.93171966 0 0 0 0 1 0.93171966 0 0.36317825 5.647039 0 1 0 0 -0.36317825 0 0.93171966 0 0 0 0 1</float_array>
        <technique_common>
          <accessor source="#Motion_9_LLeg_transform_pose_array_id" count="10" stride="16">
            <param name="TRANSFORM" type="float4x4" />
          </accessor>
        </technique_common>
      </source>
      <sampler id="Motion_9_LLeg_transform_samp_id">
        <input semantic="INPUT" source="#Motion_9_LLeg_transform_frame_id" />
        <input semantic="INTERPOLATION" source="#Motion_9_LLeg_transform_interp_id" />
        <input semantic="OUTPUT" source="#Motion_9_LLeg_transform_pose_id" />
      </sampler>
      <channel source="#Motion_9_LLeg_transform_samp_id" target="LLeg_bone_id/transform" />
    </animation>
    <animation id="Motion_9_LFoot_transform_id" name="Motion_9_LFoot_transform">
      <source id="Motion_9_LFoot_transform_frame_id" name="Motion_9_LFoot_transform_frame">
        <float_array id="Motion_9_LFoot_transform_frame_array_id" count="10">0 0.033333335 0.06666667 0.1 0.13333334 0.16666667 0.2 0.23333333 0.26666668 0.3</float_array>
        <technique_common>
          <accessor source="#Motion_9_LFoot_transform_frame_array_id" count="10" stride="1">
            <param name="TIME" type="float" />
          </accessor>
        </technique_common>
      </source>
      <source id="Motion_9_LFoot_transform_interp_id" name="Motion_9_LFoot_transform_interp">
        <Name_array id="Motion_9_LFoot_transform_interp_array_id" count="10">LINEAR LINEAR LINEAR LINEAR LINEAR LINEAR LINEAR LINEAR LINEAR LINEAR</Name_array>
        <technique_common>
          <accessor source="#Motion_9_LFoot_transform_interp_array_id" count="10" stride="1">
            <param name="INTERPOLATION" type="Name" />
          </accessor>
        </technique_common>
      </source>
      <source id="Motion_9_LFoot_transform_pose_id" name="Motion_9_LFoot_transform_pose">
        <float_array id="Motion_9_LFoot_transform_pose_array_id" count="160">-0.7791251 0.064583175 -0.6235326 5.852854 0.07195664 0.9973179 0.013386191 0 0.6227247 -0.03443779 -0.7816826 0 0 0 0 1 -0.75429654 0.064666025 -0.6533416 5.852854 0.079470955 0.99681324 0.0069110766 0 0.6517064 -0.046708677 -0.7570318 0 0 0 0 1 -0.7138685 0.06262374 -0.69747406 5.852854 0.08533844 0.99634975 0.0021143723 0 0.69506055 -0.058011964 -0.716607 0 0 0 0 1 -0.6590364 0.05825997 -0.7498514 5.852854 0.08929492 0.99600464 -0.0010953993 0 0.74679166 -0.06767982 -0.6616056 0 0 0 0 1 -0.59333205 0.052126527 -0.8032681 5.852854 0.091544 0.9957965 -0.00299849 0 0.7997353 -0.07531348 -0.5956099 0 0 0 0 1 -0.5217885 0.045226254 -0.8518753 5.852854 0.092622064 0.9956938 -0.0038710088 0 0.8480319 -0.08092229 -0.5237305 0 0 0 0 1 -0.44985938 0.038326103 -0.89227664 5.852854 0.09287563 0.9956694 -0.004057985 0 0.888257 -0.08469628 -0.45147073 0 0 0 0 1 -0.38625348 0.032176383 -0.92183113 5.852854 0.09251097 0.9957036 -0.0040078424 0 0.91774166 -0.08682755 -0.38757062 0 0 0 0 1 -0.34272945 0.027376823 -0.93903536 5.852854 0.09138389 0.99580634 -0.004321374 0 0.934979 -0.08729375 -0.343794 0 0 0 0 1 -0.34272945 0.027376823 -0.93903536 5.852854 0.09138389 0.99580634 -0.004321374 0 0.934979 -0.08729375 -0.343794 0 0 0 0 1</float_array>
        <technique_common>
          <accessor source="#Motion_9_LFoot_transform_pose_array_id" count="10" stride="16">
            <param name="TRANSFORM" type="float4x4" />
          </accessor>
        </technique_common>
      </source>
      <sampler id="Motion_9_LFoot_transform_samp_id">
        <input semantic="INPUT" source="#Motion_9_LFoot_transform_frame_id" />
        <input semantic="INTERPOLATION" source="#Motion_9_LFoot_transform_interp_id" />
        <input semantic="OUTPUT" source="#Motion_9_LFoot_transform_pose_id" />
      </sampler>
      <channel source="#Motion_9_LFoot_transform_samp_id" target="LFoot_bone_id/transform" />
    </animation>
    <animation id="Motion_9_LToe1_transform_id" name="Motion_9_LToe1_transform">
      <source id="Motion_9_LToe1_transform_frame_id" name="Motion_9_LToe1_transform_frame">
        <float_array id="Motion_9_LToe1_transform_frame_array_id" count="10">0 0.033333335 0.06666667 0.1 0.13333334 0.16666667 0.2 0.23333333 0.26666668 0.3</float_array>
        <technique_common>
          <accessor source="#Motion_9_LToe1_transform_frame_array_id" count="10" stride="1">
            <param name="TIME" type="float" />
          </accessor>
        </technique_common>
      </source>
      <source id="Motion_9_LToe1_transform_interp_id" name="Motion_9_LToe1_transform_interp">
        <Name_array id="Motion_9_LToe1_transform_interp_array_id" count="10">LINEAR LINEAR LINEAR LINEAR LINEAR LINEAR LINEAR LINEAR LINEAR LINEAR</Name_array>
        <technique_common>
          <accessor source="#Motion_9_LToe1_transform_interp_array_id" count="10" stride="1">
            <param name="INTERPOLATION" type="Name" />
          </accessor>
        </technique_common>
      </source>
      <source id="Motion_9_LToe1_transform_pose_id" name="Motion_9_LToe1_transform_pose">
        <float_array id="Motion_9_LToe1_transform_pose_array_id" count="160">1 2.7607562E-08 3.7519432E-05 0.290285 -1.5099579E-07 0.9999946 0.0032886525 0 -3.751914E-05 -0.0032886525 0.9999946 -5.716707 0 0 0 1 1 4.269834E-08 3.7519425E-05 0.290285 -1.5099582E-07 0.9999958 0.0028864422 0 -3.751915E-05 -0.0028864422 0.9999958 -5.716707 0 0 0 1 1 5.964972E-08 3.7519403E-05 0.290285 -1.509958E-07 0.999997 0.002434641 0 -3.751915E-05 -0.002434641 0.999997 -5.716707 0 0 0 1 1 7.752247E-08 3.7519367E-05 0.290285 -1.509958E-07 0.9999981 0.0019582815 0 -3.751914E-05 -0.0019582815 0.9999981 -5.716707 0 0 0 1 1 9.536836E-08 3.7519323E-05 0.290285 -1.509958E-07 0.9999989 0.0014826371 0 -3.751914E-05 -0.0014826371 0.9999989 -5.716707 0 0 0 1 1 1.1222131E-07 3.751928E-05 0.290285 -1.509958E-07 0.99999946 0.001033457 0 -3.751914E-05 -0.001033457 0.99999946 -5.716707 0 0 0 1 1 1.2711519E-07 3.7519225E-05 0.290285 -1.5099579E-07 0.9999998 0.0006364901 0 -3.7519138E-05 -0.0006364901 0.9999998 -5.716707 0 0 0 1 1 1.3911976E-07 3.751919E-05 0.290285 -1.509958E-07 0.99999994 0.00031653245 0 -3.7519145E-05 -0.00031653245 0.99999994 -5.716707 0 0 0 1 1 1.4810978E-07 3.7519156E-05 0.290285 -1.509958E-07 1 7.692178E-05 0 -3.751914E-05 -7.692178E-05 1 -5.716707 0 0 0 1 1 1.4810978E-07 3.7519156E-05 0.290285 -1.509958E-07 1 7.692178E-05 0 -3.751914E-05 -7.692178E-05 1 -5.716707 0 0 0 1</float_array>
        <technique_common>
          <accessor source="#Motion_9_LToe1_transform_pose_array_id" count="10" stride="16">
            <param name="TRANSFORM" type="float4x4" />
          </accessor>
        </technique_common>
      </source>
      <sampler id="Motion_9_LToe1_transform_samp_id">
        <input semantic="INPUT" source="#Motion_9_LToe1_transform_frame_id" />
        <input semantic="INTERPOLATION" source="#Motion_9_LToe1_transform_interp_id" />
        <input semantic="OUTPUT" source="#Motion_9_LToe1_transform_pose_id" />
      </sampler>
      <channel source="#Motion_9_LToe1_transform_samp_id" target="LToe1_bone_id/transform" />
    </animation>
    <animation id="Motion_9_Tail1_transform_id" name="Motion_9_Tail1_transform">
      <source id="Motion_9_Tail1_transform_frame_id" name="Motion_9_Tail1_transform_frame">
        <float_array id="Motion_9_Tail1_transform_frame_array_id" count="10">0 0.033333335 0.06666667 0.1 0.13333334 0.16666667 0.2 0.23333333 0.26666668 0.3</float_array>
        <technique_common>
          <accessor source="#Motion_9_Tail1_transform_frame_array_id" count="10" stride="1">
            <param name="TIME" type="float" />
          </accessor>
        </technique_common>
      </source>
      <source id="Motion_9_Tail1_transform_interp_id" name="Motion_9_Tail1_transform_interp">
        <Name_array id="Motion_9_Tail1_transform_interp_array_id" count="10">LINEAR LINEAR LINEAR LINEAR LINEAR LINEAR LINEAR LINEAR LINEAR LINEAR</Name_array>
        <technique_common>
          <accessor source="#Motion_9_Tail1_transform_interp_array_id" count="10" stride="1">
            <param name="INTERPOLATION" type="Name" />
          </accessor>
        </technique_common>
      </source>
      <source id="Motion_9_Tail1_transform_pose_id" name="Motion_9_Tail1_transform_pose">
        <float_array id="Motion_9_Tail1_transform_pose_array_id" count="160">0.8981654 -0.19381213 0.39463374 8.172412 0.1459193 0.9781225 0.14826997 0 -0.41473666 -0.075586274 0.9067967 -4.511647 0 0 0 1 0.887984 -0.23961167 0.39251846 8.172412 0.1901366 0.9684578 0.16105115 0 -0.41872734 -0.06837872 0.90553397 -4.511647 0 0 0 1 0.8789979 -0.26863816 0.39394948 8.172412 0.21759665 0.961138 0.16989833 0 -0.42428097 -0.063618205 0.9032931 -4.511647 0 0 0 1 0.8720111 -0.27895197 0.40222177 8.172412 0.22565678 0.9582905 0.17538041 0 -0.43436804 -0.062169604 0.8985874 -4.511647 0 0 0 1 0.86936605 -0.25901163 0.4208511 8.172412 0.19973123 0.96314347 0.18017247 0 -0.45200676 -0.07257872 0.8890569 -4.511647 0 0 0 1 0.8681355 -0.20868003 0.45032588 8.172412 0.13729444 0.9728805 0.1861553 0 -0.47696015 -0.09978078 0.87324274 -4.511647 0 0 0 1 0.86318624 -0.14266825 0.48430905 8.172412 0.055705417 0.9803004 0.18949388 0 -0.50180316 -0.13658987 0.8541293 -4.511647 0 0 0 1 0.85378134 -0.07542491 0.5151393 8.172412 -0.026251478 0.9819551 0.18728313 0 -0.5199695 -0.17342201 0.83639497 -4.511647 0 0 0 1 0.8431565 -0.022707932 0.5371884 8.172412 -0.08935401 0.97929627 0.18164429 0 -0.5301914 -0.2011545 0.823671 -4.511647 0 0 0 1 0.8431565 -0.022707932 0.5371884 8.172412 -0.08935401 0.97929627 0.18164429 0 -0.5301914 -0.2011545 0.823671 -4.511647 0 0 0 1</float_array>
        <technique_common>
          <accessor source="#Motion_9_Tail1_transform_pose_array_id" count="10" stride="16">
            <param name="TRANSFORM" type="float4x4" />
          </accessor>
        </technique_common>
      </source>
      <sampler id="Motion_9_Tail1_transform_samp_id">
        <input semantic="INPUT" source="#Motion_9_Tail1_transform_frame_id" />
        <input semantic="INTERPOLATION" source="#Motion_9_Tail1_transform_interp_id" />
        <input semantic="OUTPUT" source="#Motion_9_Tail1_transform_pose_id" />
      </sampler>
      <channel source="#Motion_9_Tail1_transform_samp_id" target="Tail1_bone_id/transform" />
    </animation>
    <animation id="Motion_9_Spine2_transform_id" name="Motion_9_Spine2_transform">
      <source id="Motion_9_Spine2_transform_frame_id" name="Motion_9_Spine2_transform_frame">
        <float_array id="Motion_9_Spine2_transform_frame_array_id" count="10">0 0.033333335 0.06666667 0.1 0.13333334 0.16666667 0.2 0.23333333 0.26666668 0.3</float_array>
        <technique_common>
          <accessor source="#Motion_9_Spine2_transform_frame_array_id" count="10" stride="1">
            <param name="TIME" type="float" />
          </accessor>
        </technique_common>
      </source>
      <source id="Motion_9_Spine2_transform_interp_id" name="Motion_9_Spine2_transform_interp">
        <Name_array id="Motion_9_Spine2_transform_interp_array_id" count="10">LINEAR LINEAR LINEAR LINEAR LINEAR LINEAR LINEAR LINEAR LINEAR LINEAR</Name_array>
        <technique_common>
          <accessor source="#Motion_9_Spine2_transform_interp_array_id" count="10" stride="1">
            <param name="INTERPOLATION" type="Name" />
          </accessor>
        </technique_common>
      </source>
      <source id="Motion_9_Spine2_transform_pose_id" name="Motion_9_Spine2_transform_pose">
        <float_array id="Motion_9_Spine2_transform_pose_array_id" count="160">0.9802459 0.09645021 0.1726711 5.73029 -0.090624526 0.9950272 -0.04132865 0 -0.17579858 0.024864007 0.9841121 0.009936 0 0 0 1 0.9819212 0.08729242 0.16796084 5.73029 -0.08244176 0.995958 -0.03565271 0 -0.17039414 0.021161161 0.9851487 0.009936 0 0 0 1 0.98399687 0.074619144 0.16180891 5.73029 -0.07087679 0.9970696 -0.028786648 0 -0.16348279 0.016857475 0.98640215 0.009936 0 0 0 1 0.98629516 0.05981941 0.15376425 5.73029 -0.057250742 0.9981372 -0.021083223 0 -0.15473899 0.011991164 0.9878826 0.009936 0 0 0 1 0.988434 0.044955242 0.14483525 5.73029 -0.043459337 0.9989643 -0.013477337 0 -0.1452911 0.0070270146 0.98936397 0.009936 0 0 0 1 0.9901869 0.03209572 0.13601354 5.73029 -0.03142186 0.999481 -0.007098891 0 -0.1361708 0.0027554298 0.9906815 0.009936 0 0 0 1 0.99145615 0.023266478 0.12834845 5.73029 -0.023118297 0.9997292 -0.0026443687 0 -0.12837522 -0.00034542172 0.9917256 0.009936 0 0 0 1 0.992261 0.019844763 0.12257383 5.73029 -0.019905485 0.9998016 -0.00072926097 0 -0.12256398 -0.0017162745 0.9924591 0.009936 0 0 0 1 0.99203765 0.02505222 0.123425 5.73029 -0.025067642 0.99968475 -0.0014282118 0 -0.12342187 -0.0016771341 0.9923529 0.009936 0 0 0 1 0.99203765 0.02505222 0.123425 5.73029 -0.025067642 0.99968475 -0.0014282118 0 -0.12342187 -0.0016771341 0.9923529 0.009936 0 0 0 1</float_array>
        <technique_common>
          <accessor source="#Motion_9_Spine2_transform_pose_array_id" count="10" stride="16">
            <param name="TRANSFORM" type="float4x4" />
          </accessor>
        </technique_common>
      </source>
      <sampler id="Motion_9_Spine2_transform_samp_id">
        <input semantic="INPUT" source="#Motion_9_Spine2_transform_frame_id" />
        <input semantic="INTERPOLATION" source="#Motion_9_Spine2_transform_interp_id" />
        <input semantic="OUTPUT" source="#Motion_9_Spine2_transform_pose_id" />
      </sampler>
      <channel source="#Motion_9_Spine2_transform_samp_id" target="Spine2_bone_id/transform" />
    </animation>
    <animation id="Motion_9_RArm_transform_id" name="Motion_9_RArm_transform">
      <source id="Motion_9_RArm_transform_frame_id" name="Motion_9_RArm_transform_frame">
        <float_array id="Motion_9_RArm_transform_frame_array_id" count="10">0 0.033333335 0.06666667 0.1 0.13333334 0.16666667 0.2 0.23333333 0.26666668 0.3</float_array>
        <technique_common>
          <accessor source="#Motion_9_RArm_transform_frame_array_id" count="10" stride="1">
            <param name="TIME" type="float" />
          </accessor>
        </technique_common>
      </source>
      <source id="Motion_9_RArm_transform_interp_id" name="Motion_9_RArm_transform_interp">
        <Name_array id="Motion_9_RArm_transform_interp_array_id" count="10">LINEAR LINEAR LINEAR LINEAR LINEAR LINEAR LINEAR LINEAR LINEAR LINEAR</Name_array>
        <technique_common>
          <accessor source="#Motion_9_RArm_transform_interp_array_id" count="10" stride="1">
            <param name="INTERPOLATION" type="Name" />
          </accessor>
        </technique_common>
      </source>
      <source id="Motion_9_RArm_transform_pose_id" name="Motion_9_RArm_transform_pose">
        <float_array id="Motion_9_RArm_transform_pose_array_id" count="160">-0.31263375 0.09966704 0.9446303 8.764399 0.03621906 -0.9925058 0.11670536 6.32468 0.9491829 0.07069966 0.3066811 2.483962 0 0 0 1 -0.28285933 0.10295974 0.9536194 8.764399 0.031593096 -0.99268246 0.1165483 6.32468 0.958641 0.06309456 0.27753657 2.483962 0 0 0 1 -0.23892796 0.10773881 0.96504176 8.764399 0.023176894 -0.99290967 0.11658825 6.32468 0.9707606 0.050222877 0.23473698 2.483962 0 0 0 1 -0.18134701 0.11461124 0.9767177 8.764399 0.011217013 -0.99287987 0.11859042 6.32468 0.98335516 0.032461874 0.17877018 2.483962 0 0 0 1 -0.115188956 0.12111036 0.9859328 8.764399 -0.0005802512 -0.9925475 0.12185511 6.32468 0.99334335 0.013464283 0.11440092 2.483962 0 0 0 1 -0.04867351 0.12794328 0.99058634 8.764399 -0.011629663 -0.99176717 0.12752435 6.32468 0.99874693 -0.0053131245 0.04976082 2.483962 0 0 0 1 0.0027086735 0.13304605 0.9911062 8.764399 -0.0189027 -0.9909259 0.13307351 6.32468 0.99981767 -0.019095033 -0.00016915798 2.483962 0 0 0 1 0.021414578 0.13511606 0.99059826 8.764399 -0.022178993 -0.9905174 0.1355845 6.32468 0.99952453 -0.02487395 -0.018214703 2.483962 0 0 0 1 0.021961808 0.13526878 0.99056554 8.764399 -0.022770323 -0.9904797 0.13576192 6.32468 0.99949944 -0.02553707 -0.018672585 2.483962 0 0 0 1 0.021961808 0.13526878 0.99056554 8.764399 -0.022770323 -0.9904797 0.13576192 6.32468 0.99949944 -0.02553707 -0.018672585 2.483962 0 0 0 1</float_array>
        <technique_common>
          <accessor source="#Motion_9_RArm_transform_pose_array_id" count="10" stride="16">
            <param name="TRANSFORM" type="float4x4" />
          </accessor>
        </technique_common>
      </source>
      <sampler id="Motion_9_RArm_transform_samp_id">
        <input semantic="INPUT" source="#Motion_9_RArm_transform_frame_id" />
        <input semantic="INTERPOLATION" source="#Motion_9_RArm_transform_interp_id" />
        <input semantic="OUTPUT" source="#Motion_9_RArm_transform_pose_id" />
      </sampler>
      <channel source="#Motion_9_RArm_transform_samp_id" target="RArm_bone_id/transform" />
    </animation>
    <animation id="Motion_9_RForeArm_transform_id" name="Motion_9_RForeArm_transform">
      <source id="Motion_9_RForeArm_transform_frame_id" name="Motion_9_RForeArm_transform_frame">
        <float_array id="Motion_9_RForeArm_transform_frame_array_id" count="10">0 0.033333335 0.06666667 0.1 0.13333334 0.16666667 0.2 0.23333333 0.26666668 0.3</float_array>
        <technique_common>
          <accessor source="#Motion_9_RForeArm_transform_frame_array_id" count="10" stride="1">
            <param name="TIME" type="float" />
          </accessor>
        </technique_common>
      </source>
      <source id="Motion_9_RForeArm_transform_interp_id" name="Motion_9_RForeArm_transform_interp">
        <Name_array id="Motion_9_RForeArm_transform_interp_array_id" count="10">LINEAR LINEAR LINEAR LINEAR LINEAR LINEAR LINEAR LINEAR LINEAR LINEAR</Name_array>
        <technique_common>
          <accessor source="#Motion_9_RForeArm_transform_interp_array_id" count="10" stride="1">
            <param name="INTERPOLATION" type="Name" />
          </accessor>
        </technique_common>
      </source>
      <source id="Motion_9_RForeArm_transform_pose_id" name="Motion_9_RForeArm_transform_pose">
        <float_array id="Motion_9_RForeArm_transform_pose_array_id" count="160">0.9497249 0 -0.31308565 6.066125 0 1 0 0 0.31308565 0 0.9497249 -9E-06 0 0 0 1 0.94153106 0 -0.3369262 6.066125 0 1 0 0 0.3369262 0 0.94153106 -9E-06 0 0 0 1 0.9347073 0 -0.35541847 6.066125 0 1 0 0 0.35541847 0 0.9347073 -9E-06 0 0 0 1 0.9325587 0 -0.36101827 6.066125 0 1 0 0 0.36101827 0 0.9325587 -9E-06 0 0 0 1 0.9369952 0 -0.34934226 6.066125 0 1 0 0 0.34934226 0 0.9369952 -9E-06 0 0 0 1 0.9455143 0 -0.3255805 6.066125 0 1 0 0 0.3255805 0 0.9455143 -9E-06 0 0 0 1 0.9528682 0 -0.30338445 6.066125 0 1 0 0 0.30338445 0 0.9528682 -9E-06 0 0 0 1 0.95242965 0 -0.30475846 6.066125 0 1 0 0 0.30475846 0 0.95242965 -9E-06 0 0 0 1 0.9546222 0 -0.29781944 6.066125 0 1 0 0 0.29781944 0 0.9546222 -9E-06 0 0 0 1 0.9546222 0 -0.29781944 6.066125 0 1 0 0 0.29781944 0 0.9546222 -9E-06 0 0 0 1</float_array>
        <technique_common>
          <accessor source="#Motion_9_RForeArm_transform_pose_array_id" count="10" stride="16">
            <param name="TRANSFORM" type="float4x4" />
          </accessor>
        </technique_common>
      </source>
      <sampler id="Motion_9_RForeArm_transform_samp_id">
        <input semantic="INPUT" source="#Motion_9_RForeArm_transform_frame_id" />
        <input semantic="INTERPOLATION" source="#Motion_9_RForeArm_transform_interp_id" />
        <input semantic="OUTPUT" source="#Motion_9_RForeArm_transform_pose_id" />
      </sampler>
      <channel source="#Motion_9_RForeArm_transform_samp_id" target="RForeArm_bone_id/transform" />
    </animation>
    <animation id="Motion_9_RHand_transform_id" name="Motion_9_RHand_transform">
      <source id="Motion_9_RHand_transform_frame_id" name="Motion_9_RHand_transform_frame">
        <float_array id="Motion_9_RHand_transform_frame_array_id" count="10">0 0.033333335 0.06666667 0.1 0.13333334 0.16666667 0.2 0.23333333 0.26666668 0.3</float_array>
        <technique_common>
          <accessor source="#Motion_9_RHand_transform_frame_array_id" count="10" stride="1">
            <param name="TIME" type="float" />
          </accessor>
        </technique_common>
      </source>
      <source id="Motion_9_RHand_transform_interp_id" name="Motion_9_RHand_transform_interp">
        <Name_array id="Motion_9_RHand_transform_interp_array_id" count="10">LINEAR LINEAR LINEAR LINEAR LINEAR LINEAR LINEAR LINEAR LINEAR LINEAR</Name_array>
        <technique_common>
          <accessor source="#Motion_9_RHand_transform_interp_array_id" count="10" stride="1">
            <param name="INTERPOLATION" type="Name" />
          </accessor>
        </technique_common>
      </source>
      <source id="Motion_9_RHand_transform_pose_id" name="Motion_9_RHand_transform_pose">
        <float_array id="Motion_9_RHand_transform_pose_array_id" count="160">0.40802473 -0.019862551 -0.91275483 5.601961 -0.0067870542 0.9996697 -0.024787903 0.26135936 0.9129457 0.016308993 0.40775514 0.13496071 0 0 0 1 0.40500897 -0.016615687 -0.9141617 5.633696 -0.006604238 0.9997556 -0.02109736 0.19912276 0.9142889 0.014581961 0.40480024 0.15584826 0 0 0 1 0.3992204 -0.011885948 -0.9167779 5.6672635 -0.0043582106 0.9998801 -0.014861188 0.12820856 0.91684455 0.009928401 0.39912075 0.17191921 0 0 0 1 0.38792807 -0.005051191 -0.9216758 5.7019157 0.0009849186 0.9999867 -0.0050658225 0.055298768 0.92168915 0.0010573994 0.3879279 0.18293457 0 0 0 1 0.3692937 0.0025618428 -0.9293092 5.736903 0.008499528 0.99994504 0.0061341515 -0.0129246265 0.9292739 -0.010163994 0.3692516 0.18865535 0 0 0 1 0.34873104 0.009293641 -0.9371768 5.771477 0.01691465 0.9997256 0.016207993 -0.069779694 0.93707025 -0.02150425 0.34847814 0.18884258 0 0 0 1 0.3323 0.014139159 -0.94306767 5.8048882 0.023922322 0.9994396 0.023413608 -0.10858441 0.94287026 -0.03034071 0.33177555 0.18325724 0 0 0 1 0.3322506 0.016270436 -0.94305086 5.8363876 0.027263414 0.99926776 0.026845649 -0.12265678 0.94279706 -0.03463027 0.3315637 0.1716604 0 0 0 1 0.32680774 0.017997913 -0.94491947 5.8652263 0.029215273 0.9991484 0.029135142 -0.10531488 0.9446392 -0.03712767 0.3260036 0.153813 0 0 0 1 0.32680774 0.017997913 -0.94491947 5.8652263 0.029215273 0.9991484 0.029135142 -0.10531488 0.9446392 -0.03712767 0.3260036 0.153813 0 0 0 1</float_array>
        <technique_common>
          <accessor source="#Motion_9_RHand_transform_pose_array_id" count="10" stride="16">
            <param name="TRANSFORM" type="float4x4" />
          </accessor>
        </technique_common>
      </source>
      <sampler id="Motion_9_RHand_transform_samp_id">
        <input semantic="INPUT" source="#Motion_9_RHand_transform_frame_id" />
        <input semantic="INTERPOLATION" source="#Motion_9_RHand_transform_interp_id" />
        <input semantic="OUTPUT" source="#Motion_9_RHand_transform_pose_id" />
      </sampler>
      <channel source="#Motion_9_RHand_transform_samp_id" target="RHand_bone_id/transform" />
    </animation>
    <animation id="Motion_9_LArm_transform_id" name="Motion_9_LArm_transform">
      <source id="Motion_9_LArm_transform_frame_id" name="Motion_9_LArm_transform_frame">
        <float_array id="Motion_9_LArm_transform_frame_array_id" count="10">0 0.033333335 0.06666667 0.1 0.13333334 0.16666667 0.2 0.23333333 0.26666668 0.3</float_array>
        <technique_common>
          <accessor source="#Motion_9_LArm_transform_frame_array_id" count="10" stride="1">
            <param name="TIME" type="float" />
          </accessor>
        </technique_common>
      </source>
      <source id="Motion_9_LArm_transform_interp_id" name="Motion_9_LArm_transform_interp">
        <Name_array id="Motion_9_LArm_transform_interp_array_id" count="10">LINEAR LINEAR LINEAR LINEAR LINEAR LINEAR LINEAR LINEAR LINEAR LINEAR</Name_array>
        <technique_common>
          <accessor source="#Motion_9_LArm_transform_interp_array_id" count="10" stride="1">
            <param name="INTERPOLATION" type="Name" />
          </accessor>
        </technique_common>
      </source>
      <source id="Motion_9_LArm_transform_pose_id" name="Motion_9_LArm_transform_pose">
        <float_array id="Motion_9_LArm_transform_pose_array_id" count="160">-0.36230183 -0.096796885 0.927021 8.764395 0.0012152754 -0.99464107 -0.1033826 -6.324685 0.9320601 -0.036329105 0.3604777 2.483928 0 0 0 1 -0.36290085 -0.09987738 0.9264596 8.764395 0.0043906197 -0.99441135 -0.105483115 -6.324685 0.93181735 -0.034212187 0.36131138 2.483928 0 0 0 1 -0.3558836 -0.10167131 0.9289834 8.764395 0.0038891695 -0.99421704 -0.107320815 -6.324685 0.93452233 -0.034580737 0.3542207 2.483928 0 0 0 1 -0.33817422 -0.10369633 0.935353 8.764395 0.00031191483 -0.99392295 -0.11007682 -6.324685 0.9410835 -0.036933385 0.33615148 2.483928 0 0 0 1 -0.3137281 -0.10542388 0.94364196 8.764395 -0.0053391084 -0.9936054 -0.112780884 -6.324685 0.94949764 -0.04042076 0.31115937 2.483928 0 0 0 1 -0.28773212 -0.10569546 0.9518608 8.764395 -0.012455106 -0.9933946 -0.11407237 -6.324685 0.95763004 -0.04467779 0.28451478 2.483928 0 0 0 1 -0.2667923 -0.10614349 0.95789117 8.764395 -0.017490376 -0.9932196 -0.114929646 -6.324685 0.96359533 -0.04741622 0.26312685 2.483928 0 0 0 1 -0.25864816 -0.10703933 0.9600228 8.764395 -0.018760253 -0.99309754 -0.11578141 -6.324685 0.96578944 -0.04795691 0.25485468 2.483928 0 0 0 1 -0.2545271 -0.10560161 0.9612825 8.764395 -0.020717736 -0.99319625 -0.11459312 -6.324685 0.9668436 -0.049082663 0.25060767 2.483928 0 0 0 1 -0.2545271 -0.10560161 0.9612825 8.764395 -0.020717736 -0.99319625 -0.11459312 -6.324685 0.9668436 -0.049082663 0.25060767 2.483928 0 0 0 1</float_array>
        <technique_common>
          <accessor source="#Motion_9_LArm_transform_pose_array_id" count="10" stride="16">
            <param name="TRANSFORM" type="float4x4" />
          </accessor>
        </technique_common>
      </source>
      <sampler id="Motion_9_LArm_transform_samp_id">
        <input semantic="INPUT" source="#Motion_9_LArm_transform_frame_id" />
        <input semantic="INTERPOLATION" source="#Motion_9_LArm_transform_interp_id" />
        <input semantic="OUTPUT" source="#Motion_9_LArm_transform_pose_id" />
      </sampler>
      <channel source="#Motion_9_LArm_transform_samp_id" target="LArm_bone_id/transform" />
    </animation>
    <animation id="Motion_9_LForeArm_transform_id" name="Motion_9_LForeArm_transform">
      <source id="Motion_9_LForeArm_transform_frame_id" name="Motion_9_LForeArm_transform_frame">
        <float_array id="Motion_9_LForeArm_transform_frame_array_id" count="10">0 0.033333335 0.06666667 0.1 0.13333334 0.16666667 0.2 0.23333333 0.26666668 0.3</float_array>
        <technique_common>
          <accessor source="#Motion_9_LForeArm_transform_frame_array_id" count="10" stride="1">
            <param name="TIME" type="float" />
          </accessor>
        </technique_common>
      </source>
      <source id="Motion_9_LForeArm_transform_interp_id" name="Motion_9_LForeArm_transform_interp">
        <Name_array id="Motion_9_LForeArm_transform_interp_array_id" count="10">LINEAR LINEAR LINEAR LINEAR LINEAR LINEAR LINEAR LINEAR LINEAR LINEAR</Name_array>
        <technique_common>
          <accessor source="#Motion_9_LForeArm_transform_interp_array_id" count="10" stride="1">
            <param name="INTERPOLATION" type="Name" />
          </accessor>
        </technique_common>
      </source>
      <source id="Motion_9_LForeArm_transform_pose_id" name="Motion_9_LForeArm_transform_pose">
        <float_array id="Motion_9_LForeArm_transform_pose_array_id" count="160">0.985641 0 -0.1688543 6.066163 0 1 0 0 0.1688543 0 0.985641 0 0 0 0 1 0.9722324 0 -0.23401748 6.066163 0 1 0 0 0.23401748 0 0.9722324 0 0 0 0 1 0.9555419 0 -0.29485527 6.066163 0 1 0 0 0.29485527 0 0.9555419 0 0 0 0 1 0.9387322 0 -0.34464747 6.066163 0 1 0 0 0.34464747 0 0.9387322 0 0 0 0 1 0.92512405 0 -0.379665 6.066163 0 1 0 0 0.379665 0 0.92512405 0 0 0 0 1 0.9149817 0 -0.40349528 6.066163 0 1 0 0 0.40349528 0 0.9149817 0 0 0 0 1 0.9072399 0 -0.42061356 6.066163 0 1 0 0 0.42061356 0 0.9072399 0 0 0 0 1 0.9007695 0 -0.43429753 6.066163 0 1 0 0 0.43429753 0 0.9007695 0 0 0 0 1 0.90797067 0 -0.4190337 6.066163 0 1 0 0 0.4190337 0 0.90797067 0 0 0 0 1 0.90797067 0 -0.4190337 6.066163 0 1 0 0 0.4190337 0 0.90797067 0 0 0 0 1</float_array>
        <technique_common>
          <accessor source="#Motion_9_LForeArm_transform_pose_array_id" count="10" stride="16">
            <param name="TRANSFORM" type="float4x4" />
          </accessor>
        </technique_common>
      </source>
      <sampler id="Motion_9_LForeArm_transform_samp_id">
        <input semantic="INPUT" source="#Motion_9_LForeArm_transform_frame_id" />
        <input semantic="INTERPOLATION" source="#Motion_9_LForeArm_transform_interp_id" />
        <input semantic="OUTPUT" source="#Motion_9_LForeArm_transform_pose_id" />
      </sampler>
      <channel source="#Motion_9_LForeArm_transform_samp_id" target="LForeArm_bone_id/transform" />
    </animation>
    <animation id="Motion_9_LHand_transform_id" name="Motion_9_LHand_transform">
      <source id="Motion_9_LHand_transform_frame_id" name="Motion_9_LHand_transform_frame">
        <float_array id="Motion_9_LHand_transform_frame_array_id" count="10">0 0.033333335 0.06666667 0.1 0.13333334 0.16666667 0.2 0.23333333 0.26666668 0.3</float_array>
        <technique_common>
          <accessor source="#Motion_9_LHand_transform_frame_array_id" count="10" stride="1">
            <param name="TIME" type="float" />
          </accessor>
        </technique_common>
      </source>
      <source id="Motion_9_LHand_transform_interp_id" name="Motion_9_LHand_transform_interp">
        <Name_array id="Motion_9_LHand_transform_interp_array_id" count="10">LINEAR LINEAR LINEAR LINEAR LINEAR LINEAR LINEAR LINEAR LINEAR LINEAR</Name_array>
        <technique_common>
          <accessor source="#Motion_9_LHand_transform_interp_array_id" count="10" stride="1">
            <param name="INTERPOLATION" type="Name" />
          </accessor>
        </technique_common>
      </source>
      <source id="Motion_9_LHand_transform_pose_id" name="Motion_9_LHand_transform_pose">
        <float_array id="Motion_9_LHand_transform_pose_array_id" count="160">0.3752972 0.05746147 -0.9251217 5.6127186 0.00094946846 0.99805224 0.06237653 0.30127126 0.926904 -0.024288105 0.3745116 0.044162624 0 0 0 1 0.3575983 0.052640878 -0.9323907 5.636049 0.0053870175 0.9982772 0.058426768 0.23304419 0.93385994 -0.025916114 0.35669863 0.06204386 0 0 0 1 0.32987094 0.048706118 -0.94276875 5.661653 0.010879654 0.9984057 0.05538723 0.15640827 0.94396335 -0.028527634 0.3288151 0.074091345 0 0 0 1 0.29500365 0.04574168 -0.95440066 5.6891627 0.017033536 0.998443 0.053117543 0.078283116 0.9553443 -0.03192669 0.2937652 0.080725044 0 0 0 1 0.25876743 0.043765694 -0.9649477 5.71821 0.023426605 0.99839485 0.05156496 0.0055883676 0.96565557 -0.035948783 0.25732678 0.082364984 0 0 0 1 0.22597432 0.04229623 -0.9732146 5.748428 0.029257476 0.9983115 0.050180357 -0.05475638 0.97369385 -0.039813276 0.22435528 0.07943112 0 0 0 1 0.2046389 0.041486867 -0.977958 5.7794466 0.033513613 0.99821866 0.04935913 -0.09583151 0.9782637 -0.042875703 0.20288402 0.07234346 0 0 0 1 0.20204163 0.04166461 -0.97849035 5.810899 0.036230173 0.99809283 0.049980216 -0.11071732 0.9787066 -0.04554896 0.2001468 0.061521992 0 0 0 1 0.19166154 0.043159675 -0.98051167 5.842417 0.038775716 0.9979197 0.051505454 -0.09249433 0.9806948 -0.047891654 0.18958926 0.047386702 0 0 0 1 0.19166154 0.043159675 -0.98051167 5.842417 0.038775716 0.9979197 0.051505454 -0.09249433 0.9806948 -0.047891654 0.18958926 0.047386702 0 0 0 1</float_array>
        <technique_common>
          <accessor source="#Motion_9_LHand_transform_pose_array_id" count="10" stride="16">
            <param name="TRANSFORM" type="float4x4" />
          </accessor>
        </technique_common>
      </source>
      <sampler id="Motion_9_LHand_transform_samp_id">
        <input semantic="INPUT" source="#Motion_9_LHand_transform_frame_id" />
        <input semantic="INTERPOLATION" source="#Motion_9_LHand_transform_interp_id" />
        <input semantic="OUTPUT" source="#Motion_9_LHand_transform_pose_id" />
      </sampler>
      <channel source="#Motion_9_LHand_transform_samp_id" target="LHand_bone_id/transform" />
    </animation>
    <animation id="Motion_9_Neck_transform_id" name="Motion_9_Neck_transform">
      <source id="Motion_9_Neck_transform_frame_id" name="Motion_9_Neck_transform_frame">
        <float_array id="Motion_9_Neck_transform_frame_array_id" count="10">0 0.033333335 0.06666667 0.1 0.13333334 0.16666667 0.2 0.23333333 0.26666668 0.3</float_array>
        <technique_common>
          <accessor source="#Motion_9_Neck_transform_frame_array_id" count="10" stride="1">
            <param name="TIME" type="float" />
          </accessor>
        </technique_common>
      </source>
      <source id="Motion_9_Neck_transform_interp_id" name="Motion_9_Neck_transform_interp">
        <Name_array id="Motion_9_Neck_transform_interp_array_id" count="10">LINEAR LINEAR LINEAR LINEAR LINEAR LINEAR LINEAR LINEAR LINEAR LINEAR</Name_array>
        <technique_common>
          <accessor source="#Motion_9_Neck_transform_interp_array_id" count="10" stride="1">
            <param name="INTERPOLATION" type="Name" />
          </accessor>
        </technique_common>
      </source>
      <source id="Motion_9_Neck_transform_pose_id" name="Motion_9_Neck_transform_pose">
        <float_array id="Motion_9_Neck_transform_pose_array_id" count="160">0.13450545 0.11553478 0.9841544 6.636405 0.020474155 0.9926436 -0.11932959 0 -0.99070126 0.0362002 0.13115048 0 0 0 0 1 0.15180612 0.11578229 0.98160547 6.636405 0.017478626 0.9926457 -0.11978759 0 -0.9882557 0.0353416 0.14866596 0 0 0 0 1 0.17086828 0.11617493 0.97842085 6.636405 0.01417432 0.99263185 -0.12033765 0 -0.98519194 0.03443034 0.16796261 0 0 0 0 1 0.1914829 0.11665656 0.97453856 6.636405 0.010679737 0.9926051 -0.12091761 0 -0.9814378 0.033561476 0.18882108 0 0 0 0 1 0.21125853 0.117172375 0.97038156 6.636405 0.0072509423 0.99257344 -0.12143059 0 -0.9774032 0.032689426 0.20883995 0 0 0 0 1 0.22789037 0.11765993 0.9665517 6.636405 0.0041502155 0.99254566 -0.12180273 0 -0.97367805 0.03176908 0.2257033 0 0 0 0 1 0.23911095 0.11804965 0.9637895 6.636405 0.0016462095 0.99253136 -0.12197851 0 -0.97099084 0.030753002 0.23713082 0 0 0 0 1 0.24291706 0.11826545 0.9628108 6.636405 -6.455928E-06 0.9925405 -0.12191563 0 -0.97004706 0.029609181 0.2411058 0 0 0 0 1 0.24113405 0.11822376 0.96326405 6.636405 -0.0008001216 0.9925763 -0.12162103 0 -0.9704916 0.028556254 0.23943853 0 0 0 0 1 0.24113405 0.11822376 0.96326405 6.636405 -0.0008001216 0.9925763 -0.12162103 0 -0.9704916 0.028556254 0.23943853 0 0 0 0 1</float_array>
        <technique_common>
          <accessor source="#Motion_9_Neck_transform_pose_array_id" count="10" stride="16">
            <param name="TRANSFORM" type="float4x4" />
          </accessor>
        </technique_common>
      </source>
      <sampler id="Motion_9_Neck_transform_samp_id">
        <input semantic="INPUT" source="#Motion_9_Neck_transform_frame_id" />
        <input semantic="INTERPOLATION" source="#Motion_9_Neck_transform_interp_id" />
        <input semantic="OUTPUT" source="#Motion_9_Neck_transform_pose_id" />
      </sampler>
      <channel source="#Motion_9_Neck_transform_samp_id" target="Neck_bone_id/transform" />
    </animation>
    <animation id="Motion_9_Head_transform_id" name="Motion_9_Head_transform">
      <source id="Motion_9_Head_transform_frame_id" name="Motion_9_Head_transform_frame">
        <float_array id="Motion_9_Head_transform_frame_array_id" count="10">0 0.033333335 0.06666667 0.1 0.13333334 0.16666667 0.2 0.23333333 0.26666668 0.3</float_array>
        <technique_common>
          <accessor source="#Motion_9_Head_transform_frame_array_id" count="10" stride="1">
            <param name="TIME" type="float" />
          </accessor>
        </technique_common>
      </source>
      <source id="Motion_9_Head_transform_interp_id" name="Motion_9_Head_transform_interp">
        <Name_array id="Motion_9_Head_transform_interp_array_id" count="10">LINEAR LINEAR LINEAR LINEAR LINEAR LINEAR LINEAR LINEAR LINEAR LINEAR</Name_array>
        <technique_common>
          <accessor source="#Motion_9_Head_transform_interp_array_id" count="10" stride="1">
            <param name="INTERPOLATION" type="Name" />
          </accessor>
        </technique_common>
      </source>
      <source id="Motion_9_Head_transform_pose_id" name="Motion_9_Head_transform_pose">
        <float_array id="Motion_9_Head_transform_pose_array_id" count="160">0.92074454 -0.027988624 0.38916084 6.903133 0.022987586 0.9995825 0.017502392 0 -0.38948825 -0.0071693626 0.9210035 -0.061441 0 0 0 1 0.9274931 -0.024788102 0.37301755 6.903133 0.021015486 0.9996786 0.014177397 0 -0.3732491 -0.005310293 0.92771596 -0.061441 0 0 0 1 0.94386536 -0.018614521 0.32980552 6.903133 0.016895963 0.99982464 0.0080767125 0 -0.32989803 -0.0020509474 0.9440143 -0.061441 0 0 0 1 0.9643 -0.008592359 0.2646729 6.903133 0.009088694 0.99995846 -0.00065071054 0 -0.26465634 0.0030330112 0.964338 -0.061441 0 0 0 1 0.98267365 0.0034891558 0.18531151 6.903133 -0.0017122091 0.999951 -0.009748138 0 -0.18533646 0.009261946 0.98263144 -0.061441 0 0 0 1 0.99481875 0.016035587 0.10039181 6.903133 -0.0143161565 0.99973863 -0.017824318 0 -0.10065139 0.01629474 0.9947883 -0.061441 0 0 0 1 0.9994311 0.027646763 0.019317094 6.903133 -0.027182901 0.9993453 -0.023876587 0 -0.019964557 0.02333791 0.9995283 -0.061441 0 0 0 1 0.9981379 0.037178326 -0.04835843 6.903133 -0.03853194 0.99888253 -0.027366603 0 0.047286946 0.029178986 0.99845505 -0.061441 0 0 0 1 0.9944653 0.043648746 -0.09556956 6.903133 -0.04656029 0.9985103 -0.02844912 0 0.09418542 0.03274141 0.99501616 -0.061441 0 0 0 1 0.9944653 0.043648746 -0.09556956 6.903133 -0.04656029 0.9985103 -0.02844912 0 0.09418542 0.03274141 0.99501616 -0.061441 0 0 0 1</float_array>
        <technique_common>
          <accessor source="#Motion_9_Head_transform_pose_array_id" count="10" stride="16">
            <param name="TRANSFORM" type="float4x4" />
          </accessor>
        </technique_common>
      </source>
      <sampler id="Motion_9_Head_transform_samp_id">
        <input semantic="INPUT" source="#Motion_9_Head_transform_frame_id" />
        <input semantic="INTERPOLATION" source="#Motion_9_Head_transform_interp_id" />
        <input semantic="OUTPUT" source="#Motion_9_Head_transform_pose_id" />
      </sampler>
      <channel source="#Motion_9_Head_transform_samp_id" target="Head_bone_id/transform" />
    </animation>
  </library_animations>
  <library_visual_scenes>
    <visual_scene id="pm0828_00_fi_00_clip_id" name="pm0828_00_fi_00_clip">
      <node id="pm0828_00_fi_bone_id" name="pm0828_00_fi" sid="pm0828_00_fi" type="JOINT">
        <matrix sid="transform">1 0 0 0 0 1 0 0 0 0 1 0 0 0 0 1</matrix>
        <node id="Origin_bone_id" name="Origin" sid="Origin" type="JOINT">
          <matrix sid="transform">1 0 0 0 0 1 0 0 0 0 1 0 0 0 0 1</matrix>
          <node id="Waist_bone_id" name="Waist" sid="Waist" type="JOINT">
            <matrix sid="transform">3.1391647E-07 -1 -3.1391647E-07 0 0 3.1391647E-07 -1 18.335442 1 3.1391647E-07 9.854355E-14 -6.027977 0 0 0 1</matrix>
            <node id="Spine2_bone_id" name="Spine2" sid="Spine2" type="JOINT">
              <matrix sid="transform">0.99846035 0 -0.05547051 5.73029 0 1 0 0 0.05547051 0 0.99846035 0.009936 0 0 0 1</matrix>
              <node id="Neck_bone_id" name="Neck" sid="Neck" type="JOINT">
                <matrix sid="transform">0.19454478 0 0.9808936 6.636405 0 1 0 0 -0.9808936 0 0.19454478 0 0 0 0 1</matrix>
                <node id="Head_bone_id" name="Head" sid="Head" type="JOINT">
                  <matrix sid="transform">0.9999628 0 -0.008624893 6.903133 0 1 0 0 0.008624893 0 0.9999628 -0.061441 0 0 0 1</matrix>
                  <node id="Loc_Head_bone_id" name="Loc_Head" sid="Loc_Head" type="JOINT">
                    <matrix sid="transform">3.1391647E-07 0.96641105 0.2570013 23.694235 -1 3.0337236E-07 8.067695E-08 0 0 -0.2570013 0.96641105 -1.776915 0 0 0 1</matrix>
                  </node>
                  <node id="Loc_Eye_bone_id" name="Loc_Eye" sid="Loc_Eye" type="JOINT">
                    <matrix sid="transform">3.1391647E-07 0.96641105 0.2570013 14.316988 -1 3.0337236E-07 8.067695E-08 0 0 -0.2570013 0.96641105 12.177429 0 0 0 1</matrix>
                  </node>
                  <node id="Loc_Mouth_bone_id" name="Loc_Mouth" sid="Loc_Mouth" type="JOINT">
                    <matrix sid="transform">3.1391647E-07 0.96641105 0.2570013 6.934798 -1 3.0337236E-07 8.067695E-08 0 0 -0.2570013 0.96641105 16.79738 0 0 0 1</matrix>
                  </node>
                </node>
                <node id="RootFeeler_bone_id" name="RootFeeler" sid="RootFeeler" type="JOINT">
                  <matrix sid="transform">1 0 0 6.903133 0 1 0 0 0 0 1 -0.061441 0 0 0 1</matrix>
                </node>
              </node>
              <node id="LArm_bone_id" name="LArm" sid="LArm" type="JOINT">
                <matrix sid="transform">-0.025914466 3.2584137E-07 0.9996642 8.764395 -8.4440055E-09 -1 3.2573195E-07 -6.324685 0.9996642 0 0.025914466 2.483928 0 0 0 1</matrix>
                <node id="LForeArm_bone_id" name="LForeArm" sid="LForeArm" type="JOINT">
                  <matrix sid="transform">0.995324 0 -0.096592166 6.066163 0 1 0 0 0.096592166 0 0.995324 0 0 0 0 1</matrix>
                  <node id="LHand_bone_id" name="LHand" sid="LHand" type="JOINT">
                    <matrix sid="transform">0.0153247835 0 -0.9998826 6.354436 0 1 0 0 0.9998826 0 0.0153247835 0 0 0 0 1</matrix>
                  </node>
                </node>
              </node>
              <node id="RArm_bone_id" name="RArm" sid="RArm" type="JOINT">
                <matrix sid="transform">-0.025914466 -3.2584137E-07 0.9996642 8.764399 8.4440055E-09 -1 -3.2573195E-07 6.32468 0.9996642 0 0.025914466 2.483962 0 0 0 1</matrix>
                <node id="RForeArm_bone_id" name="RForeArm" sid="RForeArm" type="JOINT">
                  <matrix sid="transform">0.995324 0 -0.096592166 6.066125 0 1 0 0 0.096592166 0 0.995324 -9E-06 0 0 0 1</matrix>
                  <node id="RHand_bone_id" name="RHand" sid="RHand" type="JOINT">
                    <matrix sid="transform">0.0153247835 0 -0.9998826 6.354436 0 1 0 0 0.9998826 0 0.0153247835 7E-06 0 0 0 1</matrix>
                  </node>
                </node>
              </node>
            </node>
            <node id="Hips_bone_id" name="Hips" sid="Hips" type="JOINT">
              <matrix sid="transform">-1 -3.2584137E-07 0 -0.001 3.2584137E-07 -1 0 0 0 0 1 9E-06 0 0 0 1</matrix>
              <node id="Tail1_bone_id" name="Tail1" sid="Tail1" type="JOINT">
                <matrix sid="transform">0.57752144 0 0.81637555 8.172412 0 1 0 0 -0.81637555 0 0.57752144 -4.511647 0 0 0 1</matrix>
              </node>
              <node id="LThigh_bone_id" name="LThigh" sid="LThigh" type="JOINT">
                <matrix sid="transform">0.06212828 0 -0.99806815 5.103626 0 1 0 5.952158 0.99806815 0 0.06212828 -1.51509 0 0 0 1</matrix>
                <node id="LLeg_bone_id" name="LLeg" sid="LLeg" type="JOINT">
                  <matrix sid="transform">0.9928897 0 0.11903807 5.647039 0 1 0 0 -0.11903807 0 0.9928897 0 0 0 0 1</matrix>
                  <node id="LFoot_bone_id" name="LFoot" sid="LFoot" type="JOINT">
                    <matrix sid="transform">-0.1804943 0 -0.98357606 5.852854 0 1 0 0 0.98357606 0 -0.1804943 0 0 0 0 1</matrix>
                    <node id="LToe1_bone_id" name="LToe1" sid="LToe1" type="JOINT">
                      <matrix sid="transform">1 0 3.8E-05 0.290285 0 1 0 0 -3.8E-05 0 1 -5.716707 0 0 0 1</matrix>
                    </node>
                  </node>
                </node>
              </node>
              <node id="RThigh_bone_id" name="RThigh" sid="RThigh" type="JOINT">
                <matrix sid="transform">0.062121257 0 -0.99806863 5.103623 0 1 0 -5.95216 0.99806863 0 0.062121257 -1.515067 0 0 0 1</matrix>
                <node id="RLeg_bone_id" name="RLeg" sid="RLeg" type="JOINT">
                  <matrix sid="transform">0.99288887 0 0.11904501 5.647007 0 1 0 0 -0.11904501 0 0.99288887 0 0 0 0 1</matrix>
                  <node id="RFoot_bone_id" name="RFoot" sid="RFoot" type="JOINT">
                    <matrix sid="transform">-0.1804943 0 -0.98357606 5.852866 0 1 0 0 0.98357606 0 -0.1804943 1E-05 0 0 0 1</matrix>
                    <node id="RToe1_bone_id" name="RToe1" sid="RToe1" type="JOINT">
                      <matrix sid="transform">1 0 3.8E-05 0.2902 0 1 0 0 -3.8E-05 0 1 -5.7167 0 0 0 1</matrix>
                    </node>
                  </node>
                </node>
              </node>
            </node>
          </node>
          <node id="CamTgtHead_bone_id" name="CamTgtHead" sid="CamTgtHead" type="JOINT">
            <matrix sid="transform">1 0 0 0 0 1 0 35.365448 0 0 1 23.433392 0 0 0 1</matrix>
          </node>
        </node>
        <node id="pm0828_00_fi_BodySkin_bone_id" name="pm0828_00_fi_BodySkin" sid="pm0828_00_fi_BodySkin" type="JOINT">
          <matrix sid="transform">1 0 0 0 0 1 0 0 0 0 1 0 0 0 0 1</matrix>
        </node>
        <node id="pm0828_00_fi_HeadSkin_bone_id" name="pm0828_00_fi_HeadSkin" sid="pm0828_00_fi_HeadSkin" type="JOINT">
          <matrix sid="transform">1 0 0 0 0 1 0 0 0 0 1 0 0 0 0 1</matrix>
        </node>
        <node id="pm0828_00_fi_Neckparts_bone_id" name="pm0828_00_fi_Neckparts" sid="pm0828_00_fi_Neckparts" type="JOINT">
          <matrix sid="transform">1 0 0 0 0 1 0 0 0 0 1 0 0 0 0 1</matrix>
        </node>
      </node>
    </visual_scene>
  </library_visual_scenes>
  <scene>
    <instance_visual_scene url="#pm0828_00_fi_00_clip_id" />
  </scene>
</COLLADA>