<?xml version="1.0" encoding="utf-8"?>
<COLLADA xmlns:xsi="http://www.w3.org/2001/XMLSchema-instance" xmlns:xsd="http://www.w3.org/2001/XMLSchema" version="1.4.1" xmlns="http://www.collada.org/2005/11/COLLADASchema">
  <asset>
    <created>2026-02-17T05:46:49.6095797-05:00</created>
    <modified>2026-02-17T05:46:49.60958-05:00</modified>
    <up_axis>Y_UP</up_axis>
  </asset>
  <library_animations>
    <animation id="Motion_56_Waist_transform_id" name="Motion_56_Waist_transform">
      <source id="Motion_56_Waist_transform_frame_id" name="Motion_56_Waist_transform_frame">
        <float_array id="Motion_56_Waist_transform_frame_array_id" count="16">0 0.033333335 0.06666667 0.1 0.13333334 0.16666667 0.2 0.23333333 0.26666668 0.3 0.33333334 0.36666667 0.4 0.43333334 0.46666667 0.5</float_array>
        <technique_common>
          <accessor source="#Motion_56_Waist_transform_frame_array_id" count="16" stride="1">
            <param name="TIME" type="float" />
          </accessor>
        </technique_common>
      </source>
      <source id="Motion_56_Waist_transform_interp_id" name="Motion_56_Waist_transform_interp">
        <Name_array id="Motion_56_Waist_transform_interp_array_id" count="16">LINEAR LINEAR LINEAR LINEAR LINEAR LINEAR LINEAR LINEAR LINEAR LINEAR LINEAR LINEAR LINEAR LINEAR LINEAR LINEAR</Name_array>
        <technique_common>
          <accessor source="#Motion_56_Waist_transform_interp_array_id" count="16" stride="1">
            <param name="INTERPOLATION" type="Name" />
          </accessor>
        </technique_common>
      </source>
      <source id="Motion_56_Waist_transform_pose_id" name="Motion_56_Waist_transform_pose">
        <float_array id="Motion_56_Waist_transform_pose_array_id" count="256">0.025548577 -0.99966204 -0.004804801 0 0.9953772 0.025883615 -0.09248962 54.647335 0.09258273 -0.0024196133 0.995702 0.32674518 0 0 0 1 0.024477541 -0.9996894 -0.004674647 0 0.99568254 0.024797678 -0.089450344 54.647335 0.089538485 -0.0024649464 0.9959803 0.2897355 0 0 0 1 0.02343762 -0.9997154 -0.0044627674 0 0.9963246 0.02372551 -0.08230799 54.647335 0.08239044 -0.0025172606 0.99659693 0.2030487 0 0 0 1 0.02213794 -0.99974597 -0.0042100623 0 0.99705064 0.022387385 -0.07340758 54.647335 0.07348319 -0.0025725588 0.9972931 0.09506497 0 0 0 1 0.020281255 -0.9997864 -0.0039757956 0 0.99759185 0.020500243 -0.06625912 54.647335 0.06632648 -0.0026224032 0.9977945 0.007912483 0 0 0 1 0.01758027 -0.9998383 -0.0037705358 0 0.9978308 0.017784 -0.0633814 54.647335 0.06343821 -0.002648104 0.99798226 -0.030656407 0 0 0 1 0.013551593 -0.9999019 -0.0035347827 0 0.9978597 0.0137498975 -0.06392869 54.647335 0.06397103 -0.0026608855 0.9979482 -0.03252873 0 0 0 1 0.007904351 -0.9999636 -0.0032261498 0 0.9977624 0.008101046 -0.06636816 54.647335 0.066391885 -0.0026943348 0.99779 -0.015035508 0 0 0 1 0.001937747 -0.99999404 -0.0028632283 0 0.99760187 0.0021312237 -0.069180146 54.647335 0.06918583 -0.002722308 0.9976001 0.0044922163 0 0 0 1 -0.0025434494 -0.9999936 -0.0025514849 0 0.99746305 -0.0023554564 -0.07114885 54.647335 0.071142375 -0.0027259588 0.99746245 0.015547909 0 0 0 1 -0.00435555 -0.9999877 -0.0023928918 0 0.99739134 -0.004171729 -0.07206358 54.647335 0.0720527 -0.0027005225 0.9973972 0.020186312 0 0 0 1 -0.004300952 -0.9999879 -0.0023689792 0 0.99740285 -0.0041195154 -0.07190544 54.647335 0.07189482 -0.0026720986 0.9974086 0.019918308 0 0 0 1 -0.0035780668 -0.9999906 -0.0024144538 0 0.99747896 -0.0033979416 -0.07088006 54.647335 0.070871204 -0.0026619807 0.99748194 0.01625479 0 0 0 1 -0.0029832125 -0.99999243 -0.0024652071 0 0.9975732 -0.0028045177 -0.06956856 54.647335 0.069561124 -0.0026667714 0.99757415 0.010706642 0 0 0 1 -0.0025026798 -0.9999937 -0.0025074333 0 0.9976473 -0.0023249388 -0.06851503 54.647335 0.068508774 -0.0026730038 0.9976469 0.00478475 0 0 0 1 -0.0025026798 -0.9999937 -0.0025074333 0 0.9976473 -0.0023249388 -0.06851503 54.647335 0.068508774 -0.0026730038 0.9976469 0.00478475 0 0 0 1</float_array>
        <technique_common>
          <accessor source="#Motion_56_Waist_transform_pose_array_id" count="16" stride="16">
            <param name="TRANSFORM" type="float4x4" />
          </accessor>
        </technique_common>
      </source>
      <sampler id="Motion_56_Waist_transform_samp_id">
        <input semantic="INPUT" source="#Motion_56_Waist_transform_frame_id" />
        <input semantic="INTERPOLATION" source="#Motion_56_Waist_transform_interp_id" />
        <input semantic="OUTPUT" source="#Motion_56_Waist_transform_pose_id" />
      </sampler>
      <channel source="#Motion_56_Waist_transform_samp_id" target="Waist_bone_id/transform" />
    </animation>
    <animation id="Motion_56_RThigh_transform_id" name="Motion_56_RThigh_transform">
      <source id="Motion_56_RThigh_transform_frame_id" name="Motion_56_RThigh_transform_frame">
        <float_array id="Motion_56_RThigh_transform_frame_array_id" count="16">0 0.033333335 0.06666667 0.1 0.13333334 0.16666667 0.2 0.23333333 0.26666668 0.3 0.33333334 0.36666667 0.4 0.43333334 0.46666667 0.5</float_array>
        <technique_common>
          <accessor source="#Motion_56_RThigh_transform_frame_array_id" count="16" stride="1">
            <param name="TIME" type="float" />
          </accessor>
        </technique_common>
      </source>
      <source id="Motion_56_RThigh_transform_interp_id" name="Motion_56_RThigh_transform_interp">
        <Name_array id="Motion_56_RThigh_transform_interp_array_id" count="16">LINEAR LINEAR LINEAR LINEAR LINEAR LINEAR LINEAR LINEAR LINEAR LINEAR LINEAR LINEAR LINEAR LINEAR LINEAR LINEAR</Name_array>
        <technique_common>
          <accessor source="#Motion_56_RThigh_transform_interp_array_id" count="16" stride="1">
            <param name="INTERPOLATION" type="Name" />
          </accessor>
        </technique_common>
      </source>
      <source id="Motion_56_RThigh_transform_pose_id" name="Motion_56_RThigh_transform_pose">
        <float_array id="Motion_56_RThigh_transform_pose_array_id" count="256">-0.02234912 -0.06197264 -0.9978276 11.299995 -0.213184 0.97541696 -0.05580593 -7.8 0.9767564 0.21147367 -0.03501129 0 0 0 0 1 -0.02005136 -0.058023162 -0.99811375 11.299995 -0.21141046 0.9759869 -0.052489758 -7.8 0.97719157 0.20995921 -0.03183663 0 0 0 0 1 -0.0140942335 -0.05175148 -0.9985606 11.299995 -0.20786129 0.9769946 -0.04769995 -7.8 0.97805685 0.20688978 -0.024527073 0 0 0 0 1 -0.0066975355 -0.04284109 -0.9990595 11.299995 -0.20239188 0.97846264 -0.04060109 -7.8 0.9792817 0.2019296 -0.01522398 0 0 0 0 1 -0.00049829483 -0.032558672 -0.99946976 11.299995 -0.19635457 0.9800163 -0.031827062 -7.8 0.9805329 0.19623458 -0.0068813562 0 0 0 0 1 0.0018276572 -0.021769024 -0.99976134 11.299995 -0.19069329 0.9814094 -0.021718025 -7.8 0.98164797 0.19068748 -0.0023576021 0 0 0 0 1 -0.00043797493 -0.011140779 -0.99993783 11.299995 -0.18633634 0.9824259 -0.010864057 -7.8 0.98248595 0.18632 -0.002506256 0 0 0 0 1 -0.005106926 -0.0012129247 -0.9999863 11.299995 -0.18413919 0.98290014 -0.00025182217 -7.8 0.982887 0.18413538 -0.0052429438 0 0 0 0 1 -0.010385752 0.0065153465 -0.9999248 11.299995 -0.18410125 0.9828721 0.008316413 -7.8 0.98285234 0.18417378 -0.009008408 0 0 0 0 1 -0.014438987 0.010918044 -0.99983615 11.299995 -0.18527266 0.98259574 0.013405368 -7.8 0.9825811 0.18543586 -0.01216495 0 0 0 0 1 -0.016086936 0.012250677 -0.9997956 11.299995 -0.18631369 0.98237526 0.015035056 -7.8 0.98235863 0.18651748 -0.013520956 0 0 0 0 1 -0.01586759 0.011535592 -0.9998075 11.299995 -0.1871849 0.98222053 0.014303453 -7.8 0.98219645 0.18737584 -0.013426185 0 0 0 0 1 -0.014547229 0.009837516 -0.9998458 11.299995 -0.18789327 0.9821112 0.012396775 -7.8 0.9820817 0.18804464 -0.012438655 0 0 0 0 1 -0.0128932 0.00821925 -0.9998832 11.299995 -0.1884444 0.9820277 0.010502398 -7.8 0.9819993 0.18855777 -0.011112571 0 0 0 0 1 -0.01162076 0.007205881 -0.99990654 11.299995 -0.188874 0.98195755 0.009271599 -7.8 0.98193264 0.1889641 -0.010050178 0 0 0 0 1 -0.01162076 0.007205881 -0.99990654 11.299995 -0.188874 0.98195755 0.009271599 -7.8 0.98193264 0.1889641 -0.010050178 0 0 0 0 1</float_array>
        <technique_common>
          <accessor source="#Motion_56_RThigh_transform_pose_array_id" count="16" stride="16">
            <param name="TRANSFORM" type="float4x4" />
          </accessor>
        </technique_common>
      </source>
      <sampler id="Motion_56_RThigh_transform_samp_id">
        <input semantic="INPUT" source="#Motion_56_RThigh_transform_frame_id" />
        <input semantic="INTERPOLATION" source="#Motion_56_RThigh_transform_interp_id" />
        <input semantic="OUTPUT" source="#Motion_56_RThigh_transform_pose_id" />
      </sampler>
      <channel source="#Motion_56_RThigh_transform_samp_id" target="RThigh_bone_id/transform" />
    </animation>
    <animation id="Motion_56_RLeg_transform_id" name="Motion_56_RLeg_transform">
      <source id="Motion_56_RLeg_transform_frame_id" name="Motion_56_RLeg_transform_frame">
        <float_array id="Motion_56_RLeg_transform_frame_array_id" count="16">0 0.033333335 0.06666667 0.1 0.13333334 0.16666667 0.2 0.23333333 0.26666668 0.3 0.33333334 0.36666667 0.4 0.43333334 0.46666667 0.5</float_array>
        <technique_common>
          <accessor source="#Motion_56_RLeg_transform_frame_array_id" count="16" stride="1">
            <param name="TIME" type="float" />
          </accessor>
        </technique_common>
      </source>
      <source id="Motion_56_RLeg_transform_interp_id" name="Motion_56_RLeg_transform_interp">
        <Name_array id="Motion_56_RLeg_transform_interp_array_id" count="16">LINEAR LINEAR LINEAR LINEAR LINEAR LINEAR LINEAR LINEAR LINEAR LINEAR LINEAR LINEAR LINEAR LINEAR LINEAR LINEAR</Name_array>
        <technique_common>
          <accessor source="#Motion_56_RLeg_transform_interp_array_id" count="16" stride="1">
            <param name="INTERPOLATION" type="Name" />
          </accessor>
        </technique_common>
      </source>
      <source id="Motion_56_RLeg_transform_pose_id" name="Motion_56_RLeg_transform_pose">
        <float_array id="Motion_56_RLeg_transform_pose_array_id" count="256">0.110661685 0 0.99385816 34.3 0 1 0 0 -0.99385816 0 0.110661685 0 0 0 0 1 0.11217618 0 0.9936883 34.3 0 1 0 0 -0.9936883 0 0.11217618 0 0 0 0 1 0.11452335 0 0.9934206 34.3 0 1 0 0 -0.9934206 0 0.11452335 0 0 0 0 1 0.11703253 0 0.99312806 34.3 0 1 0 0 -0.99312806 0 0.11703253 0 0 0 0 1 0.1190325 0 0.99289036 34.3 0 1 0 0 -0.99289036 0 0.1190325 0 0 0 0 1 0.119853735 0 0.9927916 34.3 0 1 0 0 -0.9927916 0 0.119853735 0 0 0 0 1 0.1195907 0 0.99282324 34.3 0 1 0 0 -0.99282324 0 0.1195907 0 0 0 0 1 0.118918896 0 0.9929039 34.3 0 1 0 0 -0.9929039 0 0.118918896 0 0 0 0 1 0.118040085 0 0.99300885 34.3 0 1 0 0 -0.99300885 0 0.118040085 0 0 0 0 1 0.11715579 0 0.99311364 34.3 0 1 0 0 -0.99311364 0 0.11715579 0 0 0 0 1 0.11646831 0 0.99319446 34.3 0 1 0 0 -0.99319446 0 0.11646831 0 0 0 0 1 0.11617929 0 0.99322826 34.3 0 1 0 0 -0.99322826 0 0.11617929 0 0 0 0 1 0.11619544 0 0.9932264 34.3 0 1 0 0 -0.9932264 0 0.11619544 0 0 0 0 1 0.11626518 0 0.9932182 34.3 0 1 0 0 -0.9932182 0 0.11626518 0 0 0 0 1 0.11635345 0 0.9932079 34.3 0 1 0 0 -0.9932079 0 0.11635345 0 0 0 0 1 0.11635345 0 0.9932079 34.3 0 1 0 0 -0.9932079 0 0.11635345 0 0 0 0 1</float_array>
        <technique_common>
          <accessor source="#Motion_56_RLeg_transform_pose_array_id" count="16" stride="16">
            <param name="TRANSFORM" type="float4x4" />
          </accessor>
        </technique_common>
      </source>
      <sampler id="Motion_56_RLeg_transform_samp_id">
        <input semantic="INPUT" source="#Motion_56_RLeg_transform_frame_id" />
        <input semantic="INTERPOLATION" source="#Motion_56_RLeg_transform_interp_id" />
        <input semantic="OUTPUT" source="#Motion_56_RLeg_transform_pose_id" />
      </sampler>
      <channel source="#Motion_56_RLeg_transform_samp_id" target="RLeg_bone_id/transform" />
    </animation>
    <animation id="Motion_56_RFoot_transform_id" name="Motion_56_RFoot_transform">
      <source id="Motion_56_RFoot_transform_frame_id" name="Motion_56_RFoot_transform_frame">
        <float_array id="Motion_56_RFoot_transform_frame_array_id" count="16">0 0.033333335 0.06666667 0.1 0.13333334 0.16666667 0.2 0.23333333 0.26666668 0.3 0.33333334 0.36666667 0.4 0.43333334 0.46666667 0.5</float_array>
        <technique_common>
          <accessor source="#Motion_56_RFoot_transform_frame_array_id" count="16" stride="1">
            <param name="TIME" type="float" />
          </accessor>
        </technique_common>
      </source>
      <source id="Motion_56_RFoot_transform_interp_id" name="Motion_56_RFoot_transform_interp">
        <Name_array id="Motion_56_RFoot_transform_interp_array_id" count="16">LINEAR LINEAR LINEAR LINEAR LINEAR LINEAR LINEAR LINEAR LINEAR LINEAR LINEAR LINEAR LINEAR LINEAR LINEAR LINEAR</Name_array>
        <technique_common>
          <accessor source="#Motion_56_RFoot_transform_interp_array_id" count="16" stride="1">
            <param name="INTERPOLATION" type="Name" />
          </accessor>
        </technique_common>
      </source>
      <source id="Motion_56_RFoot_transform_pose_id" name="Motion_56_RFoot_transform_pose">
        <float_array id="Motion_56_RFoot_transform_pose_array_id" count="256">0.048560143 0.015927145 -0.9986933 34.3 0.019271439 0.9996718 0.016879799 0 0.9986344 -0.020065943 0.048237264 0 0 0 0 1 0.05025333 0.014029446 -0.9986379 34.3 0.017288255 0.9997393 0.0149148945 0 0.9985868 -0.018014228 0.049997687 0 0 0 0 1 0.05255288 0.010535889 -0.9985626 34.3 0.013506866 0.9998454 0.011260271 0 0.9985268 -0.014079211 0.052402437 0 0 0 0 1 0.055070996 0.005052758 -0.99846965 34.3 0.007706025 0.99995524 0.0054853046 0 0.9984527 -0.007996313 0.05502957 0 0 0 0 1 0.05742681 -0.001384503 -0.9983488 34.3 0.0010948665 0.9999985 -0.0013238121 0 0.99834913 -0.0010170363 0.05742824 0 0 0 0 1 0.059231102 -0.00795873 -0.9982126 34.3 -0.0053345747 0.9999514 -0.008289132 0 0.9982301 0.0058160145 0.059185743 0 0 0 0 1 0.060084105 -0.013859671 -0.99809706 34.3 -0.010597037 0.9998384 -0.014521777 0 0.998137 0.011449399 0.059927523 0 0 0 0 1 0.060301483 -0.018276349 -0.9980129 34.3 -0.013706181 0.99972296 -0.019135812 0 0.9980861 0.014832864 0.060034275 0 0 0 0 1 0.06046456 -0.020500228 -0.99795973 34.3 -0.014478803 0.99966586 -0.021412518 0 0.99806523 0.01574396 0.060147524 0 0 0 0 1 0.060578287 -0.0209052 -0.9979446 34.3 -0.013880681 0.99966633 -0.021783873 0 0.998067 0.015171782 0.060267866 0 0 0 0 1 0.060652256 -0.020297576 -0.9979526 34.3 -0.012641539 0.9996974 -0.021101376 0 0.99807894 0.013895503 0.0603773 0 0 0 0 1 0.06069511 -0.01948345 -0.9979662 34.3 -0.011490896 0.9997296 -0.020216743 0 0.99809015 0.012694584 0.060454845 0 0 0 0 1 0.06071204 -0.018787635 -0.9979785 34.3 -0.010676879 0.9997534 -0.019470578 0 0.9980982 0.011837395 0.06049645 0 0 0 0 1 0.06070441 -0.018058628 -0.9979924 34.3 -0.009971209 0.99977547 -0.018697407 0 0.998106 0.011086205 0.060510755 0 0 0 0 1 0.06067568 -0.017388053 -0.9980061 34.3 -0.009388739 0.99979407 -0.017990012 0 0.9981134 0.010461574 0.060499907 0 0 0 0 1 0.06067568 -0.017388053 -0.9980061 34.3 -0.009388739 0.99979407 -0.017990012 0 0.9981134 0.010461574 0.060499907 0 0 0 0 1</float_array>
        <technique_common>
          <accessor source="#Motion_56_RFoot_transform_pose_array_id" count="16" stride="16">
            <param name="TRANSFORM" type="float4x4" />
          </accessor>
        </technique_common>
      </source>
      <sampler id="Motion_56_RFoot_transform_samp_id">
        <input semantic="INPUT" source="#Motion_56_RFoot_transform_frame_id" />
        <input semantic="INTERPOLATION" source="#Motion_56_RFoot_transform_interp_id" />
        <input semantic="OUTPUT" source="#Motion_56_RFoot_transform_pose_id" />
      </sampler>
      <channel source="#Motion_56_RFoot_transform_samp_id" target="RFoot_bone_id/transform" />
    </animation>
    <animation id="Motion_56_LThigh_transform_id" name="Motion_56_LThigh_transform">
      <source id="Motion_56_LThigh_transform_frame_id" name="Motion_56_LThigh_transform_frame">
        <float_array id="Motion_56_LThigh_transform_frame_array_id" count="16">0 0.033333335 0.06666667 0.1 0.13333334 0.16666667 0.2 0.23333333 0.26666668 0.3 0.33333334 0.36666667 0.4 0.43333334 0.46666667 0.5</float_array>
        <technique_common>
          <accessor source="#Motion_56_LThigh_transform_frame_array_id" count="16" stride="1">
            <param name="TIME" type="float" />
          </accessor>
        </technique_common>
      </source>
      <source id="Motion_56_LThigh_transform_interp_id" name="Motion_56_LThigh_transform_interp">
        <Name_array id="Motion_56_LThigh_transform_interp_array_id" count="16">LINEAR LINEAR LINEAR LINEAR LINEAR LINEAR LINEAR LINEAR LINEAR LINEAR LINEAR LINEAR LINEAR LINEAR LINEAR LINEAR</Name_array>
        <technique_common>
          <accessor source="#Motion_56_LThigh_transform_interp_array_id" count="16" stride="1">
            <param name="INTERPOLATION" type="Name" />
          </accessor>
        </technique_common>
      </source>
      <source id="Motion_56_LThigh_transform_pose_id" name="Motion_56_LThigh_transform_pose">
        <float_array id="Motion_56_LThigh_transform_pose_array_id" count="256">-0.046068788 -0.02472455 -0.9986323 11.300003 0.22817355 0.97300494 -0.03461612 7.8 0.97253 -0.22945619 -0.039183617 0 0 0 0 1 -0.042693377 -0.025763154 -0.99875605 11.300003 0.2264128 0.97341 -0.034787707 7.8 0.9730954 -0.22761634 -0.035724998 0 0 0 0 1 -0.03537941 -0.028838895 -0.99895775 11.300003 0.22350213 0.9740371 -0.036035053 7.8 0.97406113 -0.22454408 -0.028015256 0 0 0 0 1 -0.026293874 -0.03357189 -0.9990903 11.300003 0.21891963 0.97498214 -0.038523294 7.8 0.9753885 -0.21973345 -0.018286467 0 0 0 0 1 -0.018561244 -0.038085237 -0.9991022 11.300003 0.21343859 0.97608846 -0.041173175 7.8 0.97678024 -0.21401115 -0.009988546 0 0 0 0 1 -0.014344454 -0.040835954 -0.9990629 11.300003 0.20768008 0.97725445 -0.042926416 7.8 0.9780916 -0.20810123 -0.0055373907 0 0 0 0 1 -0.012834668 -0.040636264 -0.99909145 11.300003 0.20241484 0.9783818 -0.04239425 7.8 0.9792157 -0.20277509 -0.004331827 0 0 0 0 1 -0.012798905 -0.037106156 -0.9992294 11.300003 0.19835338 0.97935796 -0.038908884 7.8 0.98004705 -0.1986985 -0.0051745176 0 0 0 0 1 -0.013171077 -0.03172575 -0.9994098 11.300003 0.19578305 0.98006827 -0.033691965 7.8 0.98055875 -0.19611126 -0.006697178 0 0 0 0 1 -0.013216376 -0.026108071 -0.9995718 11.300003 0.1948504 0.980428 -0.028184354 7.8 0.980744 -0.19513945 -0.007870555 0 0 0 0 1 -0.013057232 -0.021774933 -0.99967766 11.300003 0.1956576 0.9803808 -0.023910187 7.8 0.98058534 -0.19590673 -0.00854063 0 0 0 0 1 -0.01277101 -0.019421957 -0.99972975 11.300003 0.19749194 0.9800673 -0.021562837 7.8 0.9802213 -0.19771394 -0.00868082 0 0 0 0 1 -0.012289524 -0.018526308 -0.9997529 11.300003 0.19923726 0.97973466 -0.020604491 7.8 0.97987425 -0.19944124 -0.008349419 0 0 0 0 1 -0.0115965605 -0.018402293 -0.9997634 11.300003 0.2007516 0.9794307 -0.02035661 7.8 0.97957355 -0.20094018 -0.007663727 0 0 0 0 1 -0.010949492 -0.01845476 -0.9997697 11.300003 0.20176585 0.9792237 -0.020285249 7.8 0.9793725 -0.2019415 -0.0069984198 0 0 0 0 1 -0.010949492 -0.01845476 -0.9997697 11.300003 0.20176585 0.9792237 -0.020285249 7.8 0.9793725 -0.2019415 -0.0069984198 0 0 0 0 1</float_array>
        <technique_common>
          <accessor source="#Motion_56_LThigh_transform_pose_array_id" count="16" stride="16">
            <param name="TRANSFORM" type="float4x4" />
          </accessor>
        </technique_common>
      </source>
      <sampler id="Motion_56_LThigh_transform_samp_id">
        <input semantic="INPUT" source="#Motion_56_LThigh_transform_frame_id" />
        <input semantic="INTERPOLATION" source="#Motion_56_LThigh_transform_interp_id" />
        <input semantic="OUTPUT" source="#Motion_56_LThigh_transform_pose_id" />
      </sampler>
      <channel source="#Motion_56_LThigh_transform_samp_id" target="LThigh_bone_id/transform" />
    </animation>
    <animation id="Motion_56_LLeg_transform_id" name="Motion_56_LLeg_transform">
      <source id="Motion_56_LLeg_transform_frame_id" name="Motion_56_LLeg_transform_frame">
        <float_array id="Motion_56_LLeg_transform_frame_array_id" count="16">0 0.033333335 0.06666667 0.1 0.13333334 0.16666667 0.2 0.23333333 0.26666668 0.3 0.33333334 0.36666667 0.4 0.43333334 0.46666667 0.5</float_array>
        <technique_common>
          <accessor source="#Motion_56_LLeg_transform_frame_array_id" count="16" stride="1">
            <param name="TIME" type="float" />
          </accessor>
        </technique_common>
      </source>
      <source id="Motion_56_LLeg_transform_interp_id" name="Motion_56_LLeg_transform_interp">
        <Name_array id="Motion_56_LLeg_transform_interp_array_id" count="16">LINEAR LINEAR LINEAR LINEAR LINEAR LINEAR LINEAR LINEAR LINEAR LINEAR LINEAR LINEAR LINEAR LINEAR LINEAR LINEAR</Name_array>
        <technique_common>
          <accessor source="#Motion_56_LLeg_transform_interp_array_id" count="16" stride="1">
            <param name="INTERPOLATION" type="Name" />
          </accessor>
        </technique_common>
      </source>
      <source id="Motion_56_LLeg_transform_pose_id" name="Motion_56_LLeg_transform_pose">
        <float_array id="Motion_56_LLeg_transform_pose_array_id" count="256">0.023485482 0 0.99972415 34.299995 0 1 0 0 -0.99972415 0 0.023485482 0 0 0 0 1 0.025190353 0 0.99968266 34.299995 0 1 0 0 -0.99968266 0 0.025190353 0 0 0 0 1 0.027632296 0 0.9996181 34.299995 0 1 0 0 -0.9996181 0 0.027632296 0 0 0 0 1 0.030302346 0 0.99954087 34.299995 0 1 0 0 -0.99954087 0 0.030302346 0 0 0 0 1 0.0326913 0 0.9994655 34.299995 0 1 0 0 -0.9994655 0 0.0326913 0 0 0 0 1 0.03429085 0 0.99941194 34.299995 0 1 0 0 -0.99941194 0 0.03429085 0 0 0 0 1 0.035230637 0 0.99937916 34.299995 0 1 0 0 -0.99937916 0 0.035230637 0 0 0 0 1 0.035990357 0 0.9993521 34.299995 0 1 0 0 -0.9993521 0 0.035990357 0 0 0 0 1 0.036586702 0 0.9993305 34.299995 0 1 0 0 -0.9993305 0 0.036586702 0 0 0 0 1 0.037035227 0 0.999314 34.299995 0 1 0 0 -0.999314 0 0.037035227 0 0 0 0 1 0.03735298 0 0.99930215 34.299995 0 1 0 0 -0.99930215 0 0.03735298 0 0 0 0 1 0.037555456 0 0.9992946 34.299995 0 1 0 0 -0.9992946 0 0.037555456 0 0 0 0 1 0.03765917 0 0.9992906 34.299995 0 1 0 0 -0.9992906 0 0.03765917 0 0 0 0 1 0.037680328 0 0.9992898 34.299995 0 1 0 0 -0.9992898 0 0.037680328 0 0 0 0 1 0.03763485 0 0.9992916 34.299995 0 1 0 0 -0.9992916 0 0.03763485 0 0 0 0 1 0.03763485 0 0.9992916 34.299995 0 1 0 0 -0.9992916 0 0.03763485 0 0 0 0 1</float_array>
        <technique_common>
          <accessor source="#Motion_56_LLeg_transform_pose_array_id" count="16" stride="16">
            <param name="TRANSFORM" type="float4x4" />
          </accessor>
        </technique_common>
      </source>
      <sampler id="Motion_56_LLeg_transform_samp_id">
        <input semantic="INPUT" source="#Motion_56_LLeg_transform_frame_id" />
        <input semantic="INTERPOLATION" source="#Motion_56_LLeg_transform_interp_id" />
        <input semantic="OUTPUT" source="#Motion_56_LLeg_transform_pose_id" />
      </sampler>
      <channel source="#Motion_56_LLeg_transform_samp_id" target="LLeg_bone_id/transform" />
    </animation>
    <animation id="Motion_56_LFoot_transform_id" name="Motion_56_LFoot_transform">
      <source id="Motion_56_LFoot_transform_frame_id" name="Motion_56_LFoot_transform_frame">
        <float_array id="Motion_56_LFoot_transform_frame_array_id" count="16">0 0.033333335 0.06666667 0.1 0.13333334 0.16666667 0.2 0.23333333 0.26666668 0.3 0.33333334 0.36666667 0.4 0.43333334 0.46666667 0.5</float_array>
        <technique_common>
          <accessor source="#Motion_56_LFoot_transform_frame_array_id" count="16" stride="1">
            <param name="TIME" type="float" />
          </accessor>
        </technique_common>
      </source>
      <source id="Motion_56_LFoot_transform_interp_id" name="Motion_56_LFoot_transform_interp">
        <Name_array id="Motion_56_LFoot_transform_interp_array_id" count="16">LINEAR LINEAR LINEAR LINEAR LINEAR LINEAR LINEAR LINEAR LINEAR LINEAR LINEAR LINEAR LINEAR LINEAR LINEAR LINEAR</Name_array>
        <technique_common>
          <accessor source="#Motion_56_LFoot_transform_interp_array_id" count="16" stride="1">
            <param name="INTERPOLATION" type="Name" />
          </accessor>
        </technique_common>
      </source>
      <source id="Motion_56_LFoot_transform_pose_id" name="Motion_56_LFoot_transform_pose">
        <float_array id="Motion_56_LFoot_transform_pose_array_id" count="256">-0.025873542 0.021469502 -0.9994346 34.3 0.031619117 0.9992867 0.02064776 0 0.99916494 -0.031067006 -0.026533961 0 0 0 0 1 -0.024190187 0.022784146 -0.99944764 34.3 0.033883046 0.99918455 0.021958057 0 0.99913293 -0.033333164 -0.024942398 0 0 0 0 1 -0.02160573 0.025080815 -0.9994518 34.3 0.03740746 0.99900556 0.02426095 0 0.9990664 -0.036862783 -0.02252245 0 0 0 0 1 -0.018769503 0.028485883 -0.99941796 34.3 0.04224297 0.99872404 0.027672764 0 0.998931 -0.04169898 -0.01994884 0 0 0 0 1 -0.016335607 0.03267234 -0.99933255 34.3 0.0479844 0.99834 0.031855512 0 0.99871445 -0.047431994 -0.017876267 0 0 0 0 1 -0.014968991 0.0368723 -0.999208 34.3 0.05378304 0.9979028 0.03601843 0 0.9984405 -0.05320128 -0.016920686 0 0 0 0 1 -0.014533162 0.040539652 -0.99907225 34.3 0.05901868 0.9974705 0.039616123 0 0.9981511 -0.058388174 -0.016889095 0 0 0 0 1 -0.014410973 0.043114785 -0.9989662 34.3 0.06306483 0.99712 0.042125337 0 0.9979054 -0.06239257 -0.017088532 0 0 0 0 1 -0.014545202 0.044047974 -0.9989235 34.3 0.06530007 0.99693835 0.04300961 0 0.99775964 -0.06460419 -0.017377019 0 0 0 0 1 -0.014866471 0.04330461 -0.9989514 34.3 0.06561798 0.9969503 0.042241342 0 0.9977341 -0.06492119 -0.017662644 0 0 0 0 1 -0.01528275 0.04159711 -0.99901754 34.3 0.06465838 0.99708414 0.04052747 0 0.9977904 -0.06397548 -0.017927766 0 0 0 0 1 -0.015705585 0.039495472 -0.9990964 34.3 0.06291888 0.9972783 0.038434535 0 0.9978951 -0.062258385 -0.018147826 0 0 0 0 1 -0.016046405 0.03757025 -0.99916506 34.3 0.060897652 0.9974754 0.0365287 0 0.9980149 -0.060260653 -0.018293738 0 0 0 0 1 -0.016222596 0.036212463 -0.9992124 34.3 0.059273753 0.99762124 0.03519246 0 0.99810994 -0.058656156 -0.018330455 0 0 0 0 1 -0.016266346 0.035465993 -0.9992385 34.3 0.058356546 0.9977008 0.034461446 0 0.9981632 -0.057751544 -0.018298626 0 0 0 0 1 -0.016266346 0.035465993 -0.9992385 34.3 0.058356546 0.9977008 0.034461446 0 0.9981632 -0.057751544 -0.018298626 0 0 0 0 1</float_array>
        <technique_common>
          <accessor source="#Motion_56_LFoot_transform_pose_array_id" count="16" stride="16">
            <param name="TRANSFORM" type="float4x4" />
          </accessor>
        </technique_common>
      </source>
      <sampler id="Motion_56_LFoot_transform_samp_id">
        <input semantic="INPUT" source="#Motion_56_LFoot_transform_frame_id" />
        <input semantic="INTERPOLATION" source="#Motion_56_LFoot_transform_interp_id" />
        <input semantic="OUTPUT" source="#Motion_56_LFoot_transform_pose_id" />
      </sampler>
      <channel source="#Motion_56_LFoot_transform_samp_id" target="LFoot_bone_id/transform" />
    </animation>
    <animation id="Motion_56_Spine2_transform_id" name="Motion_56_Spine2_transform">
      <source id="Motion_56_Spine2_transform_frame_id" name="Motion_56_Spine2_transform_frame">
        <float_array id="Motion_56_Spine2_transform_frame_array_id" count="16">0 0.033333335 0.06666667 0.1 0.13333334 0.16666667 0.2 0.23333333 0.26666668 0.3 0.33333334 0.36666667 0.4 0.43333334 0.46666667 0.5</float_array>
        <technique_common>
          <accessor source="#Motion_56_Spine2_transform_frame_array_id" count="16" stride="1">
            <param name="TIME" type="float" />
          </accessor>
        </technique_common>
      </source>
      <source id="Motion_56_Spine2_transform_interp_id" name="Motion_56_Spine2_transform_interp">
        <Name_array id="Motion_56_Spine2_transform_interp_array_id" count="16">LINEAR LINEAR LINEAR LINEAR LINEAR LINEAR LINEAR LINEAR LINEAR LINEAR LINEAR LINEAR LINEAR LINEAR LINEAR LINEAR</Name_array>
        <technique_common>
          <accessor source="#Motion_56_Spine2_transform_interp_array_id" count="16" stride="1">
            <param name="INTERPOLATION" type="Name" />
          </accessor>
        </technique_common>
      </source>
      <source id="Motion_56_Spine2_transform_pose_id" name="Motion_56_Spine2_transform_pose">
        <float_array id="Motion_56_Spine2_transform_pose_array_id" count="256">0.998949 -0.033252064 -0.03154745 13.5 0.03326838 0.99944645 -7.62532E-06 0 0.03153024 -0.0010419152 0.99950224 0 0 0 0 1 0.9987335 -0.030423587 -0.04007196 13.5 0.030452324 0.9995362 0.000106787425 0 0.04005013 -0.0013269365 0.99919677 0 0 0 0 1 0.99790835 -0.026836557 -0.05881097 13.5 0.026899362 0.9996381 0.00027636572 0 0.058782272 -0.0018577653 0.9982691 0 0 0 0 1 0.9967385 -0.022393843 -0.07752992 13.5 0.022513518 0.9997463 0.00066976214 0 0.07749526 -0.0024130489 0.9969898 0 0 0 0 1 0.99614215 -0.01730707 -0.08603099 13.5 0.017489258 0.9998461 0.0013644067 0 0.08599414 -0.002863761 0.9962915 0 0 0 0 1 0.9965293 -0.012103978 -0.08235826 13.5 0.012331602 0.99992144 0.002255714 0 0.08232448 -0.0032634945 0.9966002 0 0 0 0 1 0.997278 -0.0071609584 -0.07338481 13.5 0.007414567 0.99996746 0.003184029 0 0.07335962 -0.0037194784 0.9972986 0 0 0 0 1 0.998101 -0.0028635901 -0.061532162 13.5 0.0031126845 0.99998736 0.0039527235 0 0.061520062 -0.004136747 0.9980973 0 0 0 0 1 0.9987276 0.0004101415 -0.050428335 13.5 -0.00018754994 0.9999902 0.00441867 0 0.050429653 -0.00440359 0.9987179 0 0 0 0 1 0.9990933 0.0022866577 -0.042512394 13.5 -0.0020930055 0.99998724 0.004599141 0 0.04252237 -0.004505992 0.99908537 0 0 0 0 1 0.9991983 0.0026774546 -0.03994395 13.5 -0.0024987725 0.99998665 0.004522582 0 0.039955527 -0.0044191456 0.9991917 0 0 0 0 1 0.9992417 0.0020783 -0.038880885 13.5 -0.0019161559 0.99998933 0.004207082 0 0.038889214 -0.00412939 0.999235 0 0 0 0 1 0.9992458 0.0010050307 -0.038817048 13.5 -0.00086341816 0.9999929 0.0036647955 0 0.038820453 -0.0036285163 0.9992396 0 0 0 0 1 0.9992285 -2.4274017E-05 -0.039273586 13.5 0.00014334488 0.9999954 0.0030290175 0 0.039273333 -0.0030323102 0.9992239 0 0 0 0 1 0.9992085 -0.00072979805 -0.03977278 13.5 0.0008282299 0.99999666 0.002458433 0 0.03977085 -0.0024894278 0.9992057 0 0 0 0 1 0.9992085 -0.00072979805 -0.03977278 13.5 0.0008282299 0.99999666 0.002458433 0 0.03977085 -0.0024894278 0.9992057 0 0 0 0 1</float_array>
        <technique_common>
          <accessor source="#Motion_56_Spine2_transform_pose_array_id" count="16" stride="16">
            <param name="TRANSFORM" type="float4x4" />
          </accessor>
        </technique_common>
      </source>
      <sampler id="Motion_56_Spine2_transform_samp_id">
        <input semantic="INPUT" source="#Motion_56_Spine2_transform_frame_id" />
        <input semantic="INTERPOLATION" source="#Motion_56_Spine2_transform_interp_id" />
        <input semantic="OUTPUT" source="#Motion_56_Spine2_transform_pose_id" />
      </sampler>
      <channel source="#Motion_56_Spine2_transform_samp_id" target="Spine2_bone_id/transform" />
    </animation>
    <animation id="Motion_56_Spine3_transform_id" name="Motion_56_Spine3_transform">
      <source id="Motion_56_Spine3_transform_frame_id" name="Motion_56_Spine3_transform_frame">
        <float_array id="Motion_56_Spine3_transform_frame_array_id" count="16">0 0.033333335 0.06666667 0.1 0.13333334 0.16666667 0.2 0.23333333 0.26666668 0.3 0.33333334 0.36666667 0.4 0.43333334 0.46666667 0.5</float_array>
        <technique_common>
          <accessor source="#Motion_56_Spine3_transform_frame_array_id" count="16" stride="1">
            <param name="TIME" type="float" />
          </accessor>
        </technique_common>
      </source>
      <source id="Motion_56_Spine3_transform_interp_id" name="Motion_56_Spine3_transform_interp">
        <Name_array id="Motion_56_Spine3_transform_interp_array_id" count="16">LINEAR LINEAR LINEAR LINEAR LINEAR LINEAR LINEAR LINEAR LINEAR LINEAR LINEAR LINEAR LINEAR LINEAR LINEAR LINEAR</Name_array>
        <technique_common>
          <accessor source="#Motion_56_Spine3_transform_interp_array_id" count="16" stride="1">
            <param name="INTERPOLATION" type="Name" />
          </accessor>
        </technique_common>
      </source>
      <source id="Motion_56_Spine3_transform_pose_id" name="Motion_56_Spine3_transform_pose">
        <float_array id="Motion_56_Spine3_transform_pose_array_id" count="256">0.9822432 -0.042550348 0.18272337 13.5 0.028786696 0.99659 0.07732844 0 -0.18539065 -0.070695326 0.98011863 0 0 0 0 1 0.981512 -0.041648738 0.18681416 13.5 0.029792005 0.9973858 0.06583359 0 -0.18906766 -0.05905089 0.98018694 0 0 0 0 1 0.98065704 -0.03770564 0.1920677 13.5 0.029228752 0.9984775 0.04677961 0 -0.19353913 -0.04026086 0.9802661 0 0 0 0 1 0.9796211 -0.02988159 0.19861922 13.5 0.024574175 0.9992734 0.029133629 0 -0.19934547 -0.023659013 0.97964364 0 0 0 0 1 0.9783742 -0.019890243 0.20588413 13.5 0.018296799 0.99978614 0.009640733 0 -0.20603186 -0.005665224 0.97852886 0 0 0 0 1 0.9769375 -0.01090221 0.21324699 13.5 0.012523969 0.999902 -0.006255622 0 -0.21315788 0.00878205 0.9769783 0 0 0 0 1 0.97522503 -0.00527645 0.2211522 13.5 0.008321926 0.99988294 -0.012841468 0 -0.22105856 0.014363733 0.97515476 0 0 0 0 1 0.9731702 -0.0023271656 0.23007463 13.5 0.0052978047 0.99991035 -0.012294743 0 -0.2300254 0.013183769 0.9730953 0 0 0 0 1 0.9706974 -0.00097010774 0.24030313 13.5 0.0030746937 0.9999601 -0.00838328 0 -0.24028543 0.008876486 0.9706617 0 0 0 0 1 0.9680875 -0.00023848441 0.25061223 13.5 0.0011618114 0.9999931 -0.0035363494 0 -0.25060967 0.00371466 0.9680811 0 0 0 0 1 0.9658356 0.0002741835 0.2591555 13.5 -0.0006220868 0.999999 0.0012604413 0 -0.25915492 -0.0013785963 0.9658348 0 0 0 0 1 0.96449465 0.0003599368 0.26410225 13.5 -0.0015994834 0.9999887 0.0044784187 0 -0.26409766 -0.0047418377 0.9644843 0 0 0 0 1 0.96462554 -0.00022839068 0.26362386 13.5 -0.0012626614 0.99998415 0.0054865386 0 -0.26362094 -0.0056253225 0.9646099 0 0 0 0 1 0.9665553 -0.001730402 0.25645253 13.5 0.00025494554 0.99998325 0.005786467 0 -0.25645825 -0.0055275583 0.9665395 0 0 0 0 1 0.96859974 -0.0030564754 0.24860649 13.5 0.0016022241 0.9999804 0.006051739 0 -0.24862011 -0.00546339 0.96858567 0 0 0 0 1 0.96859974 -0.0030564754 0.24860649 13.5 0.0016022241 0.9999804 0.006051739 0 -0.24862011 -0.00546339 0.96858567 0 0 0 0 1</float_array>
        <technique_common>
          <accessor source="#Motion_56_Spine3_transform_pose_array_id" count="16" stride="16">
            <param name="TRANSFORM" type="float4x4" />
          </accessor>
        </technique_common>
      </source>
      <sampler id="Motion_56_Spine3_transform_samp_id">
        <input semantic="INPUT" source="#Motion_56_Spine3_transform_frame_id" />
        <input semantic="INTERPOLATION" source="#Motion_56_Spine3_transform_interp_id" />
        <input semantic="OUTPUT" source="#Motion_56_Spine3_transform_pose_id" />
      </sampler>
      <channel source="#Motion_56_Spine3_transform_samp_id" target="Spine3_bone_id/transform" />
    </animation>
    <animation id="Motion_56_Bag_transform_id" name="Motion_56_Bag_transform">
      <source id="Motion_56_Bag_transform_frame_id" name="Motion_56_Bag_transform_frame">
        <float_array id="Motion_56_Bag_transform_frame_array_id" count="16">0 0.033333335 0.06666667 0.1 0.13333334 0.16666667 0.2 0.23333333 0.26666668 0.3 0.33333334 0.36666667 0.4 0.43333334 0.46666667 0.5</float_array>
        <technique_common>
          <accessor source="#Motion_56_Bag_transform_frame_array_id" count="16" stride="1">
            <param name="TIME" type="float" />
          </accessor>
        </technique_common>
      </source>
      <source id="Motion_56_Bag_transform_interp_id" name="Motion_56_Bag_transform_interp">
        <Name_array id="Motion_56_Bag_transform_interp_array_id" count="16">LINEAR LINEAR LINEAR LINEAR LINEAR LINEAR LINEAR LINEAR LINEAR LINEAR LINEAR LINEAR LINEAR LINEAR LINEAR LINEAR</Name_array>
        <technique_common>
          <accessor source="#Motion_56_Bag_transform_interp_array_id" count="16" stride="1">
            <param name="INTERPOLATION" type="Name" />
          </accessor>
        </technique_common>
      </source>
      <source id="Motion_56_Bag_transform_pose_id" name="Motion_56_Bag_transform_pose">
        <float_array id="Motion_56_Bag_transform_pose_array_id" count="256">0.15515453 0.0055372007 0.98787475 -8.588704 -0.09541385 0.9953933 0.009406254 0 -0.9832717 -0.09571635 0.15496808 -8.632769 0 0 0 1 0.15165162 0.0058136247 0.9884169 -8.588704 -0.10559285 0.99435556 0.010352433 0 -0.9827777 -0.105939716 0.1514095 -8.632769 0 0 0 1 0.14113533 0.005789373 0.9899734 -8.588704 -0.116007075 0.9931904 0.010730345 0 -0.98317003 -0.116358355 0.1408459 -8.632769 0 0 0 1 0.13058245 0.0062375553 0.9914178 -8.588704 -0.12473419 0.9921379 0.010187004 0 -0.98355967 -0.12499395 0.13033384 -8.632769 0 0 0 1 0.12756109 0.0072070435 0.99180454 -8.588704 -0.1308156 0.99136 0.009621054 0 -0.98316604 -0.13097076 0.12740177 -8.632769 0 0 0 1 0.12963158 0.008717932 0.9915239 -8.588704 -0.13152164 0.99127704 0.008479346 0 -0.982801 -0.13150606 0.12964737 -8.632769 0 0 0 1 0.13378757 0.010512818 0.9909542 -8.588704 -0.12311919 0.99237317 0.0060943104 0 -0.98333234 -0.122820824 0.13406157 -8.632769 0 0 0 1 0.13968617 0.011185244 0.99013263 -8.588704 -0.106803976 0.9942727 0.0038357042 0 -0.9844189 -0.1062859 0.14008075 -8.632769 0 0 0 1 0.14648372 0.010885805 0.9891532 -8.588704 -0.08628038 0.9962692 0.0018131398 0 -0.9854432 -0.08561011 0.14687645 -8.632769 0 0 0 1 0.15228075 0.009228032 0.9882942 -8.588704 -0.06471647 0.99790347 0.00065403804 0 -0.9862161 -0.06405851 0.15255868 -8.632769 0 0 0 1 0.15599912 0.006394295 0.98773646 -8.588704 -0.04489682 0.99899143 0.00062366575 0 -0.9867363 -0.04444352 0.15612888 -8.632769 0 0 0 1 0.1581536 0.0037983693 0.9874072 -8.588704 -0.028488982 0.99959385 0.0007178476 0 -0.98700345 -0.028243758 0.15819758 -8.632769 0 0 0 1 0.15934008 0.0022909609 0.9872212 -8.588704 -0.016330315 0.9998666 0.00031545013 0 -0.98708874 -0.016171895 0.1593563 -8.632769 0 0 0 1 0.16017348 0.0014019669 0.9870878 -8.588704 -0.007954078 0.99996835 -0.00012956373 0 -0.9870568 -0.007830621 0.16017956 -8.632769 0 0 0 1 0.160433 0.00061005086 0.98704654 -8.588704 -0.0029905103 0.9999955 -0.00013198121 0 -0.98704225 -0.0029305986 0.16043413 -8.632769 0 0 0 1 0.160433 0.00061005086 0.98704654 -8.588704 -0.0029905103 0.9999955 -0.00013198121 0 -0.98704225 -0.0029305986 0.16043413 -8.632769 0 0 0 1</float_array>
        <technique_common>
          <accessor source="#Motion_56_Bag_transform_pose_array_id" count="16" stride="16">
            <param name="TRANSFORM" type="float4x4" />
          </accessor>
        </technique_common>
      </source>
      <sampler id="Motion_56_Bag_transform_samp_id">
        <input semantic="INPUT" source="#Motion_56_Bag_transform_frame_id" />
        <input semantic="INTERPOLATION" source="#Motion_56_Bag_transform_interp_id" />
        <input semantic="OUTPUT" source="#Motion_56_Bag_transform_pose_id" />
      </sampler>
      <channel source="#Motion_56_Bag_transform_samp_id" target="Bag_bone_id/transform" />
    </animation>
    <animation id="Motion_56_RShoulder_transform_id" name="Motion_56_RShoulder_transform">
      <source id="Motion_56_RShoulder_transform_frame_id" name="Motion_56_RShoulder_transform_frame">
        <float_array id="Motion_56_RShoulder_transform_frame_array_id" count="16">0 0.033333335 0.06666667 0.1 0.13333334 0.16666667 0.2 0.23333333 0.26666668 0.3 0.33333334 0.36666667 0.4 0.43333334 0.46666667 0.5</float_array>
        <technique_common>
          <accessor source="#Motion_56_RShoulder_transform_frame_array_id" count="16" stride="1">
            <param name="TIME" type="float" />
          </accessor>
        </technique_common>
      </source>
      <source id="Motion_56_RShoulder_transform_interp_id" name="Motion_56_RShoulder_transform_interp">
        <Name_array id="Motion_56_RShoulder_transform_interp_array_id" count="16">LINEAR LINEAR LINEAR LINEAR LINEAR LINEAR LINEAR LINEAR LINEAR LINEAR LINEAR LINEAR LINEAR LINEAR LINEAR LINEAR</Name_array>
        <technique_common>
          <accessor source="#Motion_56_RShoulder_transform_interp_array_id" count="16" stride="1">
            <param name="INTERPOLATION" type="Name" />
          </accessor>
        </technique_common>
      </source>
      <source id="Motion_56_RShoulder_transform_pose_id" name="Motion_56_RShoulder_transform_pose">
        <float_array id="Motion_56_RShoulder_transform_pose_array_id" count="256">-0.469702 -0.8781719 -0.09052068 14.18017 0.882825 -0.46721685 -0.048254095 4.5 8.261204E-05 -0.10257896 0.99472487 -0.240233 0 0 0 1 -0.46949267 -0.878304 -0.09032653 14.18017 0.88293207 -0.4673506 -0.044883505 4.5 -0.0027928054 -0.100824654 0.9949003 -0.240233 0 0 0 1 -0.46933866 -0.8783967 -0.0902244 14.18017 0.88300234 -0.4674878 -0.041978046 4.5 -0.005305428 -0.09937027 0.99503636 -0.240233 0 0 0 1 -0.46926498 -0.8784127 -0.0904502 14.18017 0.8830286 -0.46760726 -0.040046204 4.5 -0.0071180835 -0.098662406 0.9950955 -0.240233 0 0 0 1 -0.46917927 -0.8784412 -0.09062059 14.18017 0.8830527 -0.46777153 -0.037522696 4.5 -0.00942824 -0.09762762 0.99517834 -0.240233 0 0 0 1 -0.46904624 -0.8785108 -0.090634145 14.18017 0.88308185 -0.46800125 -0.033784524 4.5 -0.01273682 -0.09588386 0.995311 -0.240233 0 0 0 1 -0.46892798 -0.87856704 -0.09070012 14.18017 0.88308936 -0.4682448 -0.029999696 4.5 -0.016113106 -0.094164014 0.9954263 -0.240233 0 0 0 1 -0.46885657 -0.8785994 -0.09075458 14.18017 0.8830719 -0.468467 -0.026877675 4.5 -0.018900823 -0.092744604 0.9955105 -0.240233 0 0 0 1 -0.46882427 -0.8786189 -0.09073259 14.18017 0.88303894 -0.46866643 -0.024367478 4.5 -0.0211136 -0.091544494 0.99557716 -0.240233 0 0 0 1 -0.46881187 -0.878634 -0.09065209 14.18017 0.8829979 -0.46885324 -0.022167165 4.5 -0.023025699 -0.090437844 0.99563587 -0.240233 0 0 0 1 -0.46883035 -0.878632 -0.090573624 14.18017 0.8829518 -0.46901083 -0.02060986 4.5 -0.024371538 -0.08963469 0.99567646 -0.240233 0 0 0 1 -0.46889222 -0.8786008 -0.090557754 14.18017 0.8829047 -0.4691248 -0.020028729 4.5 -0.024885636 -0.08934519 0.9956898 -0.240233 0 0 0 1 -0.46900868 -0.87852776 -0.090664886 14.18017 0.88285935 -0.46917892 -0.020756837 4.5 -0.02430258 -0.08977947 0.99566513 -0.240233 0 0 0 1 -0.469177 -0.87842834 -0.09075398 14.18017 0.88281584 -0.4691658 -0.02279029 4.5 -0.02255904 -0.09081174 0.99561256 -0.240233 0 0 0 1 -0.46935582 -0.8783304 -0.090778396 14.18017 0.8827737 -0.46911788 -0.025275283 4.5 -0.020385727 -0.09199989 0.99555033 -0.240233 0 0 0 1 -0.46935582 -0.8783304 -0.090778396 14.18017 0.8827737 -0.46911788 -0.025275283 4.5 -0.020385727 -0.09199989 0.99555033 -0.240233 0 0 0 1</float_array>
        <technique_common>
          <accessor source="#Motion_56_RShoulder_transform_pose_array_id" count="16" stride="16">
            <param name="TRANSFORM" type="float4x4" />
          </accessor>
        </technique_common>
      </source>
      <sampler id="Motion_56_RShoulder_transform_samp_id">
        <input semantic="INPUT" source="#Motion_56_RShoulder_transform_frame_id" />
        <input semantic="INTERPOLATION" source="#Motion_56_RShoulder_transform_interp_id" />
        <input semantic="OUTPUT" source="#Motion_56_RShoulder_transform_pose_id" />
      </sampler>
      <channel source="#Motion_56_RShoulder_transform_samp_id" target="RShoulder_bone_id/transform" />
    </animation>
    <animation id="Motion_56_RArm_transform_id" name="Motion_56_RArm_transform">
      <source id="Motion_56_RArm_transform_frame_id" name="Motion_56_RArm_transform_frame">
        <float_array id="Motion_56_RArm_transform_frame_array_id" count="16">0 0.033333335 0.06666667 0.1 0.13333334 0.16666667 0.2 0.23333333 0.26666668 0.3 0.33333334 0.36666667 0.4 0.43333334 0.46666667 0.5</float_array>
        <technique_common>
          <accessor source="#Motion_56_RArm_transform_frame_array_id" count="16" stride="1">
            <param name="TIME" type="float" />
          </accessor>
        </technique_common>
      </source>
      <source id="Motion_56_RArm_transform_interp_id" name="Motion_56_RArm_transform_interp">
        <Name_array id="Motion_56_RArm_transform_interp_array_id" count="16">LINEAR LINEAR LINEAR LINEAR LINEAR LINEAR LINEAR LINEAR LINEAR LINEAR LINEAR LINEAR LINEAR LINEAR LINEAR LINEAR</Name_array>
        <technique_common>
          <accessor source="#Motion_56_RArm_transform_interp_array_id" count="16" stride="1">
            <param name="INTERPOLATION" type="Name" />
          </accessor>
        </technique_common>
      </source>
      <source id="Motion_56_RArm_transform_pose_id" name="Motion_56_RArm_transform_pose">
        <float_array id="Motion_56_RArm_transform_pose_array_id" count="256">0.8489294 -0.36341706 -0.38372758 12.61957 0.5108386 0.75039774 0.41946054 0 0.13550916 -0.55211526 0.8226822 0 0 0 0 1 0.85080934 -0.3651518 -0.37787247 12.61957 0.50930095 0.7500679 0.42191318 0 0.12936765 -0.5514185 0.824137 0 0 0 0 1 0.85187835 -0.37040022 -0.37027955 12.61957 0.5094278 0.7501507 0.42161265 0 0.121600024 -0.5477934 0.82772934 0 0 0 0 1 0.8495877 -0.37722588 -0.36864805 12.61957 0.51435167 0.74731004 0.42067808 0 0.11680375 -0.54701763 0.8289322 0 0 0 0 1 0.8452954 -0.38365084 -0.37187046 12.61957 0.52228415 0.74008095 0.4236737 0 0.11267148 -0.5523515 0.8259618 0 0 0 0 1 0.84000474 -0.3878793 -0.3793965 12.61957 0.5314452 0.7291087 0.4312383 0 0.1093529 -0.56387067 0.81859136 0 0 0 0 1 0.83473396 -0.3888179 -0.38992295 12.61957 0.53999543 0.71664464 0.4413903 0 0.10781574 -0.57900006 0.80816746 0 0 0 0 1 0.8301312 -0.38740852 -0.40099487 12.61957 0.5471215 0.70454764 0.45196304 0 0.10742566 -0.59458154 0.79682654 0 0 0 0 1 0.82628214 -0.38542697 -0.41073582 12.61957 0.5530284 0.6934795 0.46178538 0 0.10685232 -0.60871357 0.7861618 0 0 0 0 1 0.82350886 -0.38350722 -0.4180375 12.61957 0.5573263 0.6845072 0.46993324 0 0.10592684 -0.6199775 0.77743644 0 0 0 0 1 0.8217495 -0.381778 -0.42305234 12.61957 0.55996895 0.6786404 0.47527033 0 0.10565266 -0.62744933 0.7714563 0 0 0 0 1 0.8211569 -0.37977 -0.42600006 12.61957 0.56074 0.67575866 0.4784568 0 0.1061697 -0.6317634 0.7678561 0 0 0 0 1 0.8222857 -0.3763892 -0.42682242 12.61957 0.5587331 0.67631924 0.4800099 0 0.107997656 -0.63318515 0.76642877 0 0 0 0 1 0.82518065 -0.37129697 -0.4256941 12.61957 0.553796 0.6802567 0.48016748 0 0.11129655 -0.63197255 0.76695746 0 0 0 0 1 0.8276756 -0.3677895 -0.4238916 12.61957 0.54937434 0.6852692 0.478115 0 0.11463417 -0.6285993 0.76923466 0 0 0 0 1 0.8276756 -0.3677895 -0.4238916 12.61957 0.54937434 0.6852692 0.478115 0 0.11463417 -0.6285993 0.76923466 0 0 0 0 1</float_array>
        <technique_common>
          <accessor source="#Motion_56_RArm_transform_pose_array_id" count="16" stride="16">
            <param name="TRANSFORM" type="float4x4" />
          </accessor>
        </technique_common>
      </source>
      <sampler id="Motion_56_RArm_transform_samp_id">
        <input semantic="INPUT" source="#Motion_56_RArm_transform_frame_id" />
        <input semantic="INTERPOLATION" source="#Motion_56_RArm_transform_interp_id" />
        <input semantic="OUTPUT" source="#Motion_56_RArm_transform_pose_id" />
      </sampler>
      <channel source="#Motion_56_RArm_transform_samp_id" target="RArm_bone_id/transform" />
    </animation>
    <animation id="Motion_56_RForeArm_transform_id" name="Motion_56_RForeArm_transform">
      <source id="Motion_56_RForeArm_transform_frame_id" name="Motion_56_RForeArm_transform_frame">
        <float_array id="Motion_56_RForeArm_transform_frame_array_id" count="16">0 0.033333335 0.06666667 0.1 0.13333334 0.16666667 0.2 0.23333333 0.26666668 0.3 0.33333334 0.36666667 0.4 0.43333334 0.46666667 0.5</float_array>
        <technique_common>
          <accessor source="#Motion_56_RForeArm_transform_frame_array_id" count="16" stride="1">
            <param name="TIME" type="float" />
          </accessor>
        </technique_common>
      </source>
      <source id="Motion_56_RForeArm_transform_interp_id" name="Motion_56_RForeArm_transform_interp">
        <Name_array id="Motion_56_RForeArm_transform_interp_array_id" count="16">LINEAR LINEAR LINEAR LINEAR LINEAR LINEAR LINEAR LINEAR LINEAR LINEAR LINEAR LINEAR LINEAR LINEAR LINEAR LINEAR</Name_array>
        <technique_common>
          <accessor source="#Motion_56_RForeArm_transform_interp_array_id" count="16" stride="1">
            <param name="INTERPOLATION" type="Name" />
          </accessor>
        </technique_common>
      </source>
      <source id="Motion_56_RForeArm_transform_pose_id" name="Motion_56_RForeArm_transform_pose">
        <float_array id="Motion_56_RForeArm_transform_pose_array_id" count="256">0.46219802 1.7484554E-07 -0.88677675 22.6 -8.081325E-08 1 1.5504897E-07 0 0.88677675 0 0.46219802 0 0 0 0 1 0.45658505 1.7484555E-07 -0.8896798 22.6 -7.9831864E-08 1 1.5555655E-07 0 0.8896798 0 0.45658505 0 0 0 0 1 0.45272934 1.7484555E-07 -0.891648 22.6 -7.915773E-08 1 1.5590068E-07 0 0.891648 0 0.45272934 0 0 0 0 1 0.4530818 1.7484555E-07 -0.891469 22.6 -7.921934E-08 1 1.5586939E-07 0 0.891469 0 0.4530818 0 0 0 0 1 0.46006954 1.7484555E-07 -0.8878829 22.6 -8.044111E-08 1 1.5524239E-07 0 0.8878829 -7.1054274E-15 0.46006954 0 0 0 0 1 0.47109377 1.7484555E-07 -0.8820831 22.6 -8.2368665E-08 1 1.5422832E-07 0 0.8820831 0 0.47109377 0 0 0 0 1 0.48174053 1.7484555E-07 -0.8763139 22.6 -8.423018E-08 1 1.5321959E-07 0 0.8763139 0 0.48174053 0 0 0 0 1 0.49166065 0 -0.87078685 22.6 0 1 0 0 0.87078685 0 0.49166065 0 0 0 0 1 0.50051403 0 -0.8657284 22.6 0 1 0 0 0.8657284 0 0.50051403 0 0 0 0 1 0.50796723 0 -0.8613764 22.6 0 1 0 0 0.8613764 0 0.50796723 0 0 0 0 1 0.51369214 0 -0.8579746 22.6 0 1 0 0 0.8579746 0 0.51369214 0 0 0 0 1 0.5173608 0 -0.8557674 22.6 0 1 0 0 0.8557674 0 0.5173608 0 0 0 0 1 0.5186418 0 -0.8549916 22.6 0 1 0 0 0.8549916 0 0.5186418 0 0 0 0 1 0.5171944 0 -0.8558679 22.6 0 1 0 0 0.8558679 0 0.5171944 0 0 0 0 1 0.51455176 0 -0.8574593 22.6 0 1 0 0 0.8574593 0 0.51455176 0 0 0 0 1 0.51455176 0 -0.8574593 22.6 0 1 0 0 0.8574593 0 0.51455176 0 0 0 0 1</float_array>
        <technique_common>
          <accessor source="#Motion_56_RForeArm_transform_pose_array_id" count="16" stride="16">
            <param name="TRANSFORM" type="float4x4" />
          </accessor>
        </technique_common>
      </source>
      <sampler id="Motion_56_RForeArm_transform_samp_id">
        <input semantic="INPUT" source="#Motion_56_RForeArm_transform_frame_id" />
        <input semantic="INTERPOLATION" source="#Motion_56_RForeArm_transform_interp_id" />
        <input semantic="OUTPUT" source="#Motion_56_RForeArm_transform_pose_id" />
      </sampler>
      <channel source="#Motion_56_RForeArm_transform_samp_id" target="RForeArm_bone_id/transform" />
    </animation>
    <animation id="Motion_56_RHand_transform_id" name="Motion_56_RHand_transform">
      <source id="Motion_56_RHand_transform_frame_id" name="Motion_56_RHand_transform_frame">
        <float_array id="Motion_56_RHand_transform_frame_array_id" count="16">0 0.033333335 0.06666667 0.1 0.13333334 0.16666667 0.2 0.23333333 0.26666668 0.3 0.33333334 0.36666667 0.4 0.43333334 0.46666667 0.5</float_array>
        <technique_common>
          <accessor source="#Motion_56_RHand_transform_frame_array_id" count="16" stride="1">
            <param name="TIME" type="float" />
          </accessor>
        </technique_common>
      </source>
      <source id="Motion_56_RHand_transform_interp_id" name="Motion_56_RHand_transform_interp">
        <Name_array id="Motion_56_RHand_transform_interp_array_id" count="16">LINEAR LINEAR LINEAR LINEAR LINEAR LINEAR LINEAR LINEAR LINEAR LINEAR LINEAR LINEAR LINEAR LINEAR LINEAR LINEAR</Name_array>
        <technique_common>
          <accessor source="#Motion_56_RHand_transform_interp_array_id" count="16" stride="1">
            <param name="INTERPOLATION" type="Name" />
          </accessor>
        </technique_common>
      </source>
      <source id="Motion_56_RHand_transform_pose_id" name="Motion_56_RHand_transform_pose">
        <float_array id="Motion_56_RHand_transform_pose_array_id" count="256">0.8906612 0.44792855 -0.07799164 22.600002 -0.33804858 0.7671081 0.5452232 0 0.30404904 -0.45924416 0.834655 0 0 0 0 1 0.8882352 0.4530391 -0.0761169 22.600002 -0.34717667 0.7705002 0.5346006 0 0.3008431 -0.44842508 0.84167 0 0 0 0 1 0.8846024 0.4604002 -0.07423062 22.600002 -0.35871413 0.77347624 0.52255017 0 0.29799783 -0.4356216 0.849371 0 0 0 0 1 0.8791409 0.47102872 -0.07240986 22.600002 -0.37350652 0.775396 0.5091699 0 0.29597995 -0.42058653 0.85761464 0 0 0 0 1 0.87287945 0.48288035 -0.07005728 22.600002 -0.38944626 0.7759709 0.4961863 0 0.29396102 -0.40582725 0.865385 0 0 0 0 1 0.8672583 0.49337545 -0.066660926 22.600002 -0.40395406 0.77560645 0.4850317 0 0.29100537 -0.39371982 0.8719522 0 0 0 0 1 0.86364883 0.500193 -0.062590666 22.600002 -0.41421607 0.7749355 0.47738874 0 0.28729028 -0.38637018 0.87646013 0 0 0 0 1 0.8626791 0.50241786 -0.057974502 22.600002 -0.41903606 0.77423835 0.47430342 0 0.2831846 -0.38487828 0.87845045 0 0 0 0 1 0.8634033 0.5017009 -0.053206347 22.600002 -0.4200213 0.77322096 0.47509104 0 0.27949384 -0.38784736 0.8783266 0 0 0 0 1 0.86490357 0.49954876 -0.048916407 22.600002 -0.41862306 0.77167785 0.47881943 0 0.27694136 -0.39365512 0.8765496 0 0 0 0 1 0.86631864 0.49740905 -0.04556548 22.600002 -0.4164796 0.7696911 0.48385984 0 0.2757476 -0.4001997 0.87395847 0 0 0 0 1 0.8669001 0.49662608 -0.042974047 22.600002 -0.41534895 0.767304 0.48859984 0 0.2756256 -0.40571803 0.87144905 0 0 0 0 1 0.86665004 0.49734277 -0.039596513 22.600002 -0.41637826 0.76471716 0.49176908 0 0.27485794 -0.40970457 0.8698249 0 0 0 0 1 0.8661943 0.49843258 -0.03567063 22.600002 -0.4183727 0.7623938 0.4936801 0 0.2732613 -0.41269925 0.86891174 0 0 0 0 1 0.8659054 0.49914917 -0.032526277 22.600002 -0.41966793 0.76032966 0.49575967 0 0.27218872 -0.41563076 0.8678504 0 0 0 0 1 0.8659054 0.49914917 -0.032526277 22.600002 -0.41966793 0.76032966 0.49575967 0 0.27218872 -0.41563076 0.8678504 0 0 0 0 1</float_array>
        <technique_common>
          <accessor source="#Motion_56_RHand_transform_pose_array_id" count="16" stride="16">
            <param name="TRANSFORM" type="float4x4" />
          </accessor>
        </technique_common>
      </source>
      <sampler id="Motion_56_RHand_transform_samp_id">
        <input semantic="INPUT" source="#Motion_56_RHand_transform_frame_id" />
        <input semantic="INTERPOLATION" source="#Motion_56_RHand_transform_interp_id" />
        <input semantic="OUTPUT" source="#Motion_56_RHand_transform_pose_id" />
      </sampler>
      <channel source="#Motion_56_RHand_transform_samp_id" target="RHand_bone_id/transform" />
    </animation>
    <animation id="Motion_56_LShoulder_transform_id" name="Motion_56_LShoulder_transform">
      <source id="Motion_56_LShoulder_transform_frame_id" name="Motion_56_LShoulder_transform_frame">
        <float_array id="Motion_56_LShoulder_transform_frame_array_id" count="16">0 0.033333335 0.06666667 0.1 0.13333334 0.16666667 0.2 0.23333333 0.26666668 0.3 0.33333334 0.36666667 0.4 0.43333334 0.46666667 0.5</float_array>
        <technique_common>
          <accessor source="#Motion_56_LShoulder_transform_frame_array_id" count="16" stride="1">
            <param name="TIME" type="float" />
          </accessor>
        </technique_common>
      </source>
      <source id="Motion_56_LShoulder_transform_interp_id" name="Motion_56_LShoulder_transform_interp">
        <Name_array id="Motion_56_LShoulder_transform_interp_array_id" count="16">LINEAR LINEAR LINEAR LINEAR LINEAR LINEAR LINEAR LINEAR LINEAR LINEAR LINEAR LINEAR LINEAR LINEAR LINEAR LINEAR</Name_array>
        <technique_common>
          <accessor source="#Motion_56_LShoulder_transform_interp_array_id" count="16" stride="1">
            <param name="INTERPOLATION" type="Name" />
          </accessor>
        </technique_common>
      </source>
      <source id="Motion_56_LShoulder_transform_pose_id" name="Motion_56_LShoulder_transform_pose">
        <float_array id="Motion_56_LShoulder_transform_pose_array_id" count="256">-0.4745791 0.87599856 -0.08602764 14.18017 -0.8703037 -0.45236623 0.1947712 -4.5 0.1317033 0.16730458 0.9770688 -0.240233 0 0 0 1 -0.45875454 0.8842602 -0.087338164 14.18017 -0.87852144 -0.4366387 0.19376929 -4.5 0.13320725 0.16562103 0.97715175 -0.240233 0 0 0 1 -0.4339441 0.8965758 -0.0885693 14.18017 -0.89290655 -0.4148928 0.17487729 -4.5 0.12004399 0.15497106 0.9805985 -0.240233 0 0 0 1 -0.40661955 0.9093952 -0.08752668 14.18017 -0.9088365 -0.39287186 0.1402423 -4.5 0.0931489 0.1365727 0.9862409 -0.240233 0 0 0 1 -0.3840412 0.9193515 -0.0854711 14.18017 -0.92146045 -0.3757577 0.098575056 -4.5 0.0585087 0.1166151 0.9914523 -0.240233 0 0 0 1 -0.37233698 0.9243202 -0.08365056 14.18017 -0.9278972 -0.36886847 0.054247897 -4.5 0.019286372 0.097817615 0.99501747 -0.240233 0 0 0 1 -0.37805438 0.92198646 -0.08376047 14.18017 -0.92565167 -0.37797654 0.017399058 -4.5 -0.015617799 0.08411081 0.996334 -0.240233 0 0 0 1 -0.39795637 0.9133355 -0.0863082 14.18017 -0.9166681 -0.39964175 -0.0024682432 -4.5 -0.03674669 0.078133725 0.9962654 -0.240233 0 0 0 1 -0.4238304 0.901336 -0.089225486 14.18017 -0.9043816 -0.42653203 -0.012823502 -4.5 -0.0496158 0.075258896 0.9959289 -0.240233 0 0 0 1 -0.4447707 0.8910071 -0.09102334 14.18017 -0.8936363 -0.44827747 -0.021480268 -4.5 -0.059942793 0.07178797 0.9956171 -0.240233 0 0 0 1 -0.45377076 0.88636523 -0.09191864 14.18017 -0.88869137 -0.45772898 -0.026685841 -4.5 -0.06572721 0.069578044 0.9954089 -0.240233 0 0 0 1 -0.45432878 0.8861016 -0.09170217 14.18017 -0.8885156 -0.458161 -0.025069512 -4.5 -0.0642285 0.07008901 0.9954709 -0.240233 0 0 0 1 -0.45541656 0.885565 -0.09149222 14.18017 -0.88872975 -0.45827675 -0.011930767 -4.5 -0.0524942 0.07587838 0.99573433 -0.240233 0 0 0 1 -0.45675147 0.8849063 -0.09120908 14.18017 -0.88887024 -0.4581108 0.0066614263 -4.5 -0.035889126 0.08411564 0.9958095 -0.240233 0 0 0 1 -0.4579271 0.884324 -0.09095965 14.18017 -0.8887102 -0.4579457 0.021901239 -4.5 -0.022286806 0.090865955 0.9956137 -0.240233 0 0 0 1 -0.4579271 0.884324 -0.09095965 14.18017 -0.8887102 -0.4579457 0.021901239 -4.5 -0.022286806 0.090865955 0.9956137 -0.240233 0 0 0 1</float_array>
        <technique_common>
          <accessor source="#Motion_56_LShoulder_transform_pose_array_id" count="16" stride="16">
            <param name="TRANSFORM" type="float4x4" />
          </accessor>
        </technique_common>
      </source>
      <sampler id="Motion_56_LShoulder_transform_samp_id">
        <input semantic="INPUT" source="#Motion_56_LShoulder_transform_frame_id" />
        <input semantic="INTERPOLATION" source="#Motion_56_LShoulder_transform_interp_id" />
        <input semantic="OUTPUT" source="#Motion_56_LShoulder_transform_pose_id" />
      </sampler>
      <channel source="#Motion_56_LShoulder_transform_samp_id" target="LShoulder_bone_id/transform" />
    </animation>
    <animation id="Motion_56_LArm_transform_id" name="Motion_56_LArm_transform">
      <source id="Motion_56_LArm_transform_frame_id" name="Motion_56_LArm_transform_frame">
        <float_array id="Motion_56_LArm_transform_frame_array_id" count="16">0 0.033333335 0.06666667 0.1 0.13333334 0.16666667 0.2 0.23333333 0.26666668 0.3 0.33333334 0.36666667 0.4 0.43333334 0.46666667 0.5</float_array>
        <technique_common>
          <accessor source="#Motion_56_LArm_transform_frame_array_id" count="16" stride="1">
            <param name="TIME" type="float" />
          </accessor>
        </technique_common>
      </source>
      <source id="Motion_56_LArm_transform_interp_id" name="Motion_56_LArm_transform_interp">
        <Name_array id="Motion_56_LArm_transform_interp_array_id" count="16">LINEAR LINEAR LINEAR LINEAR LINEAR LINEAR LINEAR LINEAR LINEAR LINEAR LINEAR LINEAR LINEAR LINEAR LINEAR LINEAR</Name_array>
        <technique_common>
          <accessor source="#Motion_56_LArm_transform_interp_array_id" count="16" stride="1">
            <param name="INTERPOLATION" type="Name" />
          </accessor>
        </technique_common>
      </source>
      <source id="Motion_56_LArm_transform_pose_id" name="Motion_56_LArm_transform_pose">
        <float_array id="Motion_56_LArm_transform_pose_array_id" count="256">0.8038904 0.5813725 0.12556358 12.61957 -0.5630034 0.6757177 0.47584945 0 0.19180025 -0.45322353 0.87051773 0 0 0 0 1 0.79149425 0.60219353 0.10440178 12.61957 -0.5706238 0.666929 0.4791598 0 0.21891837 -0.4388264 0.8714965 0 0 0 0 1 0.7725196 0.63348997 0.04363338 12.61957 -0.5775372 0.6723996 0.4629574 0 0.26393983 -0.38284358 0.8853059 0 0 0 0 1 0.74697685 0.6632116 -0.046647727 12.61957 -0.58517945 0.6891482 0.42736375 0 0.31557974 -0.29193354 0.90287554 0 0 0 0 1 0.7181792 0.68032455 -0.14620897 12.61957 -0.59530735 0.7094847 0.377148 0 0.36031607 -0.18382058 0.9145394 0 0 0 0 1 0.7064173 0.6636428 -0.24607475 12.61957 -0.60446995 0.7465289 0.27804786 0 0.36822638 -0.047673002 0.9285131 0 0 0 0 1 0.7253103 0.598382 -0.34038788 12.61957 -0.600399 0.7917484 0.11249646 0 0.33681744 0.1227737 0.9335313 0 0 0 0 1 0.7602483 0.5057495 -0.40772527 12.61957 -0.5802526 0.810871 -0.076125816 0 0.292112 0.29445815 0.9099258 0 0 0 0 1 0.78994036 0.42553645 -0.44148943 12.61957 -0.5589084 0.7958348 -0.23295596 0 0.25222138 0.43077347 0.8664979 0 0 0 0 1 0.8113673 0.36988187 -0.45262623 12.61957 -0.5453511 0.75773597 -0.35836905 0 0.21041696 0.53760916 0.81651765 0 0 0 0 1 0.81776214 0.34311065 -0.46210402 12.61957 -0.5501127 0.70202756 -0.45225358 0 0.16923676 0.62404513 0.7628411 0 0 0 0 1 0.8127228 0.34443378 -0.4699436 12.61957 -0.5668022 0.6542114 -0.50074214 0 0.13496998 0.67332965 0.72691834 0 0 0 0 1 0.8133205 0.35261005 -0.46279138 12.61957 -0.5705137 0.6393595 -0.5154935 0 0.11412187 0.68329024 0.7211731 0 0 0 0 1 0.81887895 0.3608451 -0.44634977 12.61957 -0.5644433 0.64734805 -0.5121956 0 0.1041204 0.67136526 0.7337763 0 0 0 0 1 0.8233237 0.36770123 -0.4323584 12.61957 -0.5592091 0.6558173 -0.50713784 0 0.09707287 0.65931743 0.74557185 0 0 0 0 1 0.8233237 0.36770123 -0.4323584 12.61957 -0.5592091 0.6558173 -0.50713784 0 0.09707287 0.65931743 0.74557185 0 0 0 0 1</float_array>
        <technique_common>
          <accessor source="#Motion_56_LArm_transform_pose_array_id" count="16" stride="16">
            <param name="TRANSFORM" type="float4x4" />
          </accessor>
        </technique_common>
      </source>
      <sampler id="Motion_56_LArm_transform_samp_id">
        <input semantic="INPUT" source="#Motion_56_LArm_transform_frame_id" />
        <input semantic="INTERPOLATION" source="#Motion_56_LArm_transform_interp_id" />
        <input semantic="OUTPUT" source="#Motion_56_LArm_transform_pose_id" />
      </sampler>
      <channel source="#Motion_56_LArm_transform_samp_id" target="LArm_bone_id/transform" />
    </animation>
    <animation id="Motion_56_LForeArm_transform_id" name="Motion_56_LForeArm_transform">
      <source id="Motion_56_LForeArm_transform_frame_id" name="Motion_56_LForeArm_transform_frame">
        <float_array id="Motion_56_LForeArm_transform_frame_array_id" count="16">0 0.033333335 0.06666667 0.1 0.13333334 0.16666667 0.2 0.23333333 0.26666668 0.3 0.33333334 0.36666667 0.4 0.43333334 0.46666667 0.5</float_array>
        <technique_common>
          <accessor source="#Motion_56_LForeArm_transform_frame_array_id" count="16" stride="1">
            <param name="TIME" type="float" />
          </accessor>
        </technique_common>
      </source>
      <source id="Motion_56_LForeArm_transform_interp_id" name="Motion_56_LForeArm_transform_interp">
        <Name_array id="Motion_56_LForeArm_transform_interp_array_id" count="16">LINEAR LINEAR LINEAR LINEAR LINEAR LINEAR LINEAR LINEAR LINEAR LINEAR LINEAR LINEAR LINEAR LINEAR LINEAR LINEAR</Name_array>
        <technique_common>
          <accessor source="#Motion_56_LForeArm_transform_interp_array_id" count="16" stride="1">
            <param name="INTERPOLATION" type="Name" />
          </accessor>
        </technique_common>
      </source>
      <source id="Motion_56_LForeArm_transform_pose_id" name="Motion_56_LForeArm_transform_pose">
        <float_array id="Motion_56_LForeArm_transform_pose_array_id" count="256">0.36079335 -0.0019005144 -0.93264383 22.6 0.001463949 0.99999785 -0.0014714376 0 0.93264467 -0.00083445816 0.36079538 0 0 0 0 1 0.39081508 -0.001813185 -0.9204675 22.6 0.0014174049 0.99999803 -0.0013680422 0 0.9204682 -0.00077002344 0.39081687 0 0 0 0 1 0.42258716 -0.0017414263 -0.9063206 22.6 0.0013790282 0.9999982 -0.0012784258 0 0.90632117 -0.00070959545 0.42258883 0 0 0 0 1 0.45184398 -0.0016816154 -0.8920954 22.6 0.0013452694 0.9999984 -0.0012036389 0 0.892096 -0.0006562518 0.45184547 0 0 0 0 1 0.47568142 -0.0016313184 -0.87961614 22.6 0.0013141313 0.9999985 -0.0011439172 0 0.8796166 -0.00061179086 0.47568285 0 0 0 0 1 0.46785986 -0.0015766284 -0.88380134 22.6 0.0012658887 0.99999857 -0.0011137885 0 0.8838018 -0.000597697 0.46786118 0 0 0 0 1 0.45611423 -0.0015311372 -0.88991994 22.6 0.0012226673 0.9999986 -0.0010938726 0 0.8899204 -0.00058914494 0.45611548 0 0 0 0 1 0.45258695 -0.0014992433 -0.89171904 22.6 0.0011926906 0.9999987 -0.0010759501 0 0.8917195 -0.0005765839 0.45258814 0 0 0 0 1 0.45185584 -0.001476603 -0.8920898 22.6 0.0011709953 0.99999875 -0.0010620905 0 0.89209026 -0.000564721 0.45185697 0 0 0 0 1 0.44912666 -0.0014594094 -0.8934669 22.6 0.0011534133 0.9999988 -0.0010536248 0 0.89346737 -0.0005573255 0.4491278 0 0 0 0 1 0.46786475 -0.0014569489 -0.88379884 22.6 0.0011558812 0.9999988 -0.0010366058 0 0.8837993 -0.00053657516 0.46786588 0 0 0 0 1 0.4997394 -0.0014635067 -0.8661745 22.6 0.0011716847 0.9999988 -0.0010136154 0 0.866175 -0.0005083401 0.49974048 0 0 0 0 1 0.5140555 -0.0014639669 -0.8577556 22.6 0.0011785405 0.9999988 -0.0010004363 0 0.8577561 -0.0004966202 0.5140567 0 0 0 0 1 0.5107187 -0.0014571238 -0.8597466 22.6 0.0011758045 0.9999988 -0.0009963594 0 0.85974705 -0.00050203456 0.51071984 0 0 0 0 1 0.50813305 -0.0014495765 -0.8612773 22.6 0.0011757574 0.9999988 -0.0009893836 0 0.86127776 -0.00050991477 0.5081342 0 0 0 0 1 0.50813305 -0.0014495765 -0.8612773 22.6 0.0011757574 0.9999988 -0.0009893836 0 0.86127776 -0.00050991477 0.5081342 0 0 0 0 1</float_array>
        <technique_common>
          <accessor source="#Motion_56_LForeArm_transform_pose_array_id" count="16" stride="16">
            <param name="TRANSFORM" type="float4x4" />
          </accessor>
        </technique_common>
      </source>
      <sampler id="Motion_56_LForeArm_transform_samp_id">
        <input semantic="INPUT" source="#Motion_56_LForeArm_transform_frame_id" />
        <input semantic="INTERPOLATION" source="#Motion_56_LForeArm_transform_interp_id" />
        <input semantic="OUTPUT" source="#Motion_56_LForeArm_transform_pose_id" />
      </sampler>
      <channel source="#Motion_56_LForeArm_transform_samp_id" target="LForeArm_bone_id/transform" />
    </animation>
    <animation id="Motion_56_LHand_transform_id" name="Motion_56_LHand_transform">
      <source id="Motion_56_LHand_transform_frame_id" name="Motion_56_LHand_transform_frame">
        <float_array id="Motion_56_LHand_transform_frame_array_id" count="16">0 0.033333335 0.06666667 0.1 0.13333334 0.16666667 0.2 0.23333333 0.26666668 0.3 0.33333334 0.36666667 0.4 0.43333334 0.46666667 0.5</float_array>
        <technique_common>
          <accessor source="#Motion_56_LHand_transform_frame_array_id" count="16" stride="1">
            <param name="TIME" type="float" />
          </accessor>
        </technique_common>
      </source>
      <source id="Motion_56_LHand_transform_interp_id" name="Motion_56_LHand_transform_interp">
        <Name_array id="Motion_56_LHand_transform_interp_array_id" count="16">LINEAR LINEAR LINEAR LINEAR LINEAR LINEAR LINEAR LINEAR LINEAR LINEAR LINEAR LINEAR LINEAR LINEAR LINEAR LINEAR</Name_array>
        <technique_common>
          <accessor source="#Motion_56_LHand_transform_interp_array_id" count="16" stride="1">
            <param name="INTERPOLATION" type="Name" />
          </accessor>
        </technique_common>
      </source>
      <source id="Motion_56_LHand_transform_pose_id" name="Motion_56_LHand_transform_pose">
        <float_array id="Motion_56_LHand_transform_pose_array_id" count="256">0.8518226 -0.4537051 -0.2618204 22.600002 0.49535236 0.5351233 0.684302 0 -0.17036508 -0.71259725 0.68057394 0 0 0 0 1 0.85422206 -0.43956828 -0.27764073 22.600002 0.49297935 0.5151768 0.7011165 0 -0.16515452 -0.7357803 0.65677345 0 0 0 0 1 0.8561993 -0.4062837 -0.31914932 22.600002 0.493161 0.45857084 0.7392598 0 -0.15399662 -0.7903457 0.59299135 0 0 0 0 1 0.85716116 -0.3673695 -0.36099094 22.600002 0.49521968 0.3952471 0.77365196 0 -0.14153546 -0.8419142 0.520719 0 0 0 0 1 0.8608728 -0.3456025 -0.37343937 22.600002 0.4945925 0.3960293 0.7736531 0 -0.11948347 -0.85071725 0.51186323 0 0 0 0 1 0.87164855 -0.35082665 -0.34227115 22.600002 0.4834852 0.500837 0.7179167 0 -0.08044222 -0.79125404 0.60617334 0 0 0 0 1 0.8793122 -0.3774627 -0.29039967 22.600002 0.4742701 0.6385487 0.6060722 0 -0.043335304 -0.67065454 0.7405029 0 0 0 0 1 0.8829742 -0.41197893 -0.22501087 22.600002 0.46935818 0.76695013 0.4375961 0 -0.0077082515 -0.4919968 0.8705629 0 0 0 0 1 0.88260615 -0.44545776 -0.15024549 22.600002 0.46945548 0.85204613 0.2315793 0 0.024857275 -0.2749269 0.96114373 0 0 0 0 1 0.8805834 -0.46812087 -0.07372699 22.600002 0.47035962 0.8823368 0.015606523 0 0.0577463 -0.048421048 0.9971563 0 0 0 0 1 0.87941194 -0.47600254 -0.0075010695 22.600002 0.46718207 0.86593086 -0.17861873 0 0.09151837 0.15357506 0.98388976 0 0 0 0 1 0.8761703 -0.4807844 0.034234047 22.600002 0.465946 0.82666683 -0.31546202 0 0.12336907 0.29234967 0.9483205 0 0 0 0 1 0.8669698 -0.4965623 0.042298634 22.600002 0.47509646 0.79788667 -0.37102592 0 0.15048797 0.3417642 0.9276587 0 0 0 0 1 0.8516017 -0.5236992 0.022662908 22.600002 0.495444 0.7900289 -0.36109492 0 0.17120078 0.31873724 0.93225366 0 0 0 0 1 0.83656824 -0.5478531 -0.0032561347 22.600002 0.51570094 0.7894507 -0.33289656 0 0.18494898 0.2768115 0.9429577 0 0 0 0 1 0.83656824 -0.5478531 -0.0032561347 22.600002 0.51570094 0.7894507 -0.33289656 0 0.18494898 0.2768115 0.9429577 0 0 0 0 1</float_array>
        <technique_common>
          <accessor source="#Motion_56_LHand_transform_pose_array_id" count="16" stride="16">
            <param name="TRANSFORM" type="float4x4" />
          </accessor>
        </technique_common>
      </source>
      <sampler id="Motion_56_LHand_transform_samp_id">
        <input semantic="INPUT" source="#Motion_56_LHand_transform_frame_id" />
        <input semantic="INTERPOLATION" source="#Motion_56_LHand_transform_interp_id" />
        <input semantic="OUTPUT" source="#Motion_56_LHand_transform_pose_id" />
      </sampler>
      <channel source="#Motion_56_LHand_transform_samp_id" target="LHand_bone_id/transform" />
    </animation>
    <animation id="Motion_56_Neck_transform_id" name="Motion_56_Neck_transform">
      <source id="Motion_56_Neck_transform_frame_id" name="Motion_56_Neck_transform_frame">
        <float_array id="Motion_56_Neck_transform_frame_array_id" count="16">0 0.033333335 0.06666667 0.1 0.13333334 0.16666667 0.2 0.23333333 0.26666668 0.3 0.33333334 0.36666667 0.4 0.43333334 0.46666667 0.5</float_array>
        <technique_common>
          <accessor source="#Motion_56_Neck_transform_frame_array_id" count="16" stride="1">
            <param name="TIME" type="float" />
          </accessor>
        </technique_common>
      </source>
      <source id="Motion_56_Neck_transform_interp_id" name="Motion_56_Neck_transform_interp">
        <Name_array id="Motion_56_Neck_transform_interp_array_id" count="16">LINEAR LINEAR LINEAR LINEAR LINEAR LINEAR LINEAR LINEAR LINEAR LINEAR LINEAR LINEAR LINEAR LINEAR LINEAR LINEAR</Name_array>
        <technique_common>
          <accessor source="#Motion_56_Neck_transform_interp_array_id" count="16" stride="1">
            <param name="INTERPOLATION" type="Name" />
          </accessor>
        </technique_common>
      </source>
      <source id="Motion_56_Neck_transform_pose_id" name="Motion_56_Neck_transform_pose">
        <float_array id="Motion_56_Neck_transform_pose_array_id" count="256">0.90735567 0.048903998 -0.41750938 16.800177 -0.07399528 0.99628246 -0.0441136 0 0.41379994 0.07092045 0.9076012 0 0 0 0 1 0.9149963 0.045794938 -0.40085474 16.800177 -0.069638126 0.996552 -0.045107603 0 0.3974069 0.069188066 0.9150305 0 0 0 0 1 0.9229262 0.03912937 -0.3829832 16.800177 -0.05923424 0.99740833 -0.040839568 0 0.3803926 0.060377628 0.9228521 0 0 0 0 1 0.9284604 0.03318964 -0.3699456 16.800177 -0.045389436 0.9986733 -0.024318943 0 0.36864763 0.039370798 0.9287351 0 0 0 0 1 0.9282368 0.029782716 -0.37079567 16.800177 -0.032566775 0.9994688 -0.0012480789 0 0.37056154 0.013234131 0.9287136 0 0 0 0 1 0.91990525 0.027076053 -0.39120483 16.800177 -0.02172116 0.99960005 0.018107686 0 0.39153868 -0.008159932 0.9201255 0 0 0 0 1 0.9057808 0.023714963 -0.4230825 16.800177 -0.014067978 0.9995653 0.025910197 0 0.42351303 -0.017517043 0.90572065 0 0 0 0 1 0.89034176 0.019732336 -0.454865 16.800177 -0.009381346 0.9996434 0.025002345 0 0.45519617 -0.017993387 0.8902094 0 0 0 0 1 0.8794906 0.015883975 -0.47565106 16.800177 -0.0066570668 0.9997557 0.021076933 0 0.47586963 -0.0153705245 0.87938154 0 0 0 0 1 0.8778461 0.012762617 -0.47877273 16.800177 -0.0050083883 0.99983484 0.017469492 0 0.47891662 -0.012937646 0.87776506 0 0 0 0 1 0.8776404 0.010323774 -0.47920847 16.800177 -0.0041212924 0.9998936 0.013993206 0 0.47930193 -0.0103060445 0.8775896 0 0 0 0 1 0.8781175 0.008530886 -0.47836903 16.800177 -0.0037546756 0.9999331 0.010939816 0 0.47843036 -0.007810323 0.8780908 0 0 0 0 1 0.8790305 0.007336932 -0.47670907 16.800177 -0.003684564 0.99995625 0.00859595 0 0.47675127 -0.005799637 0.87901914 0 0 0 0 1 0.8823883 0.006680867 -0.47047448 16.800177 -0.0037104585 0.9999669 0.007240734 0 0.47050726 -0.0046434635 0.8823839 0 0 0 0 1 0.8860008 0.0064185513 -0.4636393 16.800177 -0.0036993101 0.9999702 0.006774164 0 0.46366897 -0.004286769 0.88599813 0 0 0 0 1 0.8860008 0.0064185513 -0.4636393 16.800177 -0.0036993101 0.9999702 0.006774164 0 0.46366897 -0.004286769 0.88599813 0 0 0 0 1</float_array>
        <technique_common>
          <accessor source="#Motion_56_Neck_transform_pose_array_id" count="16" stride="16">
            <param name="TRANSFORM" type="float4x4" />
          </accessor>
        </technique_common>
      </source>
      <sampler id="Motion_56_Neck_transform_samp_id">
        <input semantic="INPUT" source="#Motion_56_Neck_transform_frame_id" />
        <input semantic="INTERPOLATION" source="#Motion_56_Neck_transform_interp_id" />
        <input semantic="OUTPUT" source="#Motion_56_Neck_transform_pose_id" />
      </sampler>
      <channel source="#Motion_56_Neck_transform_samp_id" target="Neck_bone_id/transform" />
    </animation>
    <animation id="Motion_56_Head_transform_id" name="Motion_56_Head_transform">
      <source id="Motion_56_Head_transform_frame_id" name="Motion_56_Head_transform_frame">
        <float_array id="Motion_56_Head_transform_frame_array_id" count="16">0 0.033333335 0.06666667 0.1 0.13333334 0.16666667 0.2 0.23333333 0.26666668 0.3 0.33333334 0.36666667 0.4 0.43333334 0.46666667 0.5</float_array>
        <technique_common>
          <accessor source="#Motion_56_Head_transform_frame_array_id" count="16" stride="1">
            <param name="TIME" type="float" />
          </accessor>
        </technique_common>
      </source>
      <source id="Motion_56_Head_transform_interp_id" name="Motion_56_Head_transform_interp">
        <Name_array id="Motion_56_Head_transform_interp_array_id" count="16">LINEAR LINEAR LINEAR LINEAR LINEAR LINEAR LINEAR LINEAR LINEAR LINEAR LINEAR LINEAR LINEAR LINEAR LINEAR LINEAR</Name_array>
        <technique_common>
          <accessor source="#Motion_56_Head_transform_interp_array_id" count="16" stride="1">
            <param name="INTERPOLATION" type="Name" />
          </accessor>
        </technique_common>
      </source>
      <source id="Motion_56_Head_transform_pose_id" name="Motion_56_Head_transform_pose">
        <float_array id="Motion_56_Head_transform_pose_array_id" count="256">0.9359108 0.0008636816 0.35223597 5.120195 -0.0008934072 0.9999996 -7.816296E-05 0 -0.3522359 -0.00024153659 0.93591124 0 0 0 0 1 0.9359108 0.0008636816 0.35223597 5.120195 -0.0008934072 0.9999996 -7.816296E-05 0 -0.3522359 -0.00024153659 0.93591124 0 0 0 0 1 0.9359108 0.0008636816 0.35223597 5.120195 -0.0008934072 0.9999996 -7.816296E-05 0 -0.3522359 -0.00024153659 0.93591124 0 0 0 0 1 0.9359108 0.0008636816 0.35223597 5.120195 -0.0008934072 0.9999996 -7.816296E-05 0 -0.3522359 -0.00024153659 0.93591124 0 0 0 0 1 0.9359108 0.0008636816 0.35223597 5.120195 -0.0008934072 0.9999996 -7.816296E-05 0 -0.3522359 -0.00024153659 0.93591124 0 0 0 0 1 0.9359108 0.0008636816 0.35223597 5.120195 -0.0008934072 0.9999996 -7.816296E-05 0 -0.3522359 -0.00024153659 0.93591124 0 0 0 0 1 0.9359108 0.0008636816 0.35223597 5.120195 -0.0008934072 0.9999996 -7.816296E-05 0 -0.3522359 -0.00024153659 0.93591124 0 0 0 0 1 0.9359108 0.0008636816 0.35223597 5.120195 -0.0008934072 0.9999996 -7.816296E-05 0 -0.3522359 -0.00024153659 0.93591124 0 0 0 0 1 0.9359108 0.0008636816 0.35223597 5.120195 -0.0008934072 0.9999996 -7.816296E-05 0 -0.3522359 -0.00024153659 0.93591124 0 0 0 0 1 0.9359108 0.0008636816 0.35223597 5.120195 -0.0008934072 0.9999996 -7.816296E-05 0 -0.3522359 -0.00024153659 0.93591124 0 0 0 0 1 0.9359108 0.0008636816 0.35223597 5.120195 -0.0008934072 0.9999996 -7.816296E-05 0 -0.3522359 -0.00024153659 0.93591124 0 0 0 0 1 0.9359108 0.0008636816 0.35223597 5.120195 -0.0008934072 0.9999996 -7.816296E-05 0 -0.3522359 -0.00024153659 0.93591124 0 0 0 0 1 0.9359108 0.0008636816 0.35223597 5.120195 -0.0008934072 0.9999996 -7.816296E-05 0 -0.3522359 -0.00024153659 0.93591124 0 0 0 0 1 0.9359108 0.0008636816 0.35223597 5.120195 -0.0008934072 0.9999996 -7.816296E-05 0 -0.3522359 -0.00024153659 0.93591124 0 0 0 0 1 0.9359108 0.0008636816 0.35223597 5.120195 -0.0008934072 0.9999996 -7.816296E-05 0 -0.3522359 -0.00024153659 0.93591124 0 0 0 0 1 0.9359108 0.0008636816 0.35223597 5.120195 -0.0008934072 0.9999996 -7.816296E-05 0 -0.3522359 -0.00024153659 0.93591124 0 0 0 0 1</float_array>
        <technique_common>
          <accessor source="#Motion_56_Head_transform_pose_array_id" count="16" stride="16">
            <param name="TRANSFORM" type="float4x4" />
          </accessor>
        </technique_common>
      </source>
      <sampler id="Motion_56_Head_transform_samp_id">
        <input semantic="INPUT" source="#Motion_56_Head_transform_frame_id" />
        <input semantic="INTERPOLATION" source="#Motion_56_Head_transform_interp_id" />
        <input semantic="OUTPUT" source="#Motion_56_Head_transform_pose_id" />
      </sampler>
      <channel source="#Motion_56_Head_transform_samp_id" target="Head_bone_id/transform" />
    </animation>
  </library_animations>
  <library_visual_scenes>
    <visual_scene id="tr0099_00_fi_00_clip_id" name="tr0099_00_fi_00_clip">
      <node id="tr0099_00_fi_bone_id" name="tr0099_00_fi" sid="tr0099_00_fi" type="JOINT">
        <matrix sid="transform">1 0 0 0 0 1 0 0 0 0 1 0 0 0 0 1</matrix>
        <node id="Origin_bone_id" name="Origin" sid="Origin" type="JOINT">
          <matrix sid="transform">1 0 0 0 0 1 0 0 0 0 1 0 0 0 0 1</matrix>
          <node id="Waist_bone_id" name="Waist" sid="Waist" type="JOINT">
            <matrix sid="transform">3.1391647E-07 -1 0 0 1 3.1391647E-07 0 90.6 0 0 1 0 0 0 0 1</matrix>
            <node id="Spine2_bone_id" name="Spine2" sid="Spine2" type="JOINT">
              <matrix sid="transform">1 0 0 13.5 0 1 0 0 0 0 1 0 0 0 0 1</matrix>
              <node id="Spine3_bone_id" name="Spine3" sid="Spine3" type="JOINT">
                <matrix sid="transform">0.99582267 0 0.091308646 13.5 0 1 0 0 -0.091308646 0 0.99582267 0 0 0 0 1</matrix>
                <node id="Neck_bone_id" name="Neck" sid="Neck" type="JOINT">
                  <matrix sid="transform">0.9344343 0 -0.35613555 16.800177 0 1 0 0 0.35613555 0 0.9344343 0 0 0 0 1</matrix>
                  <node id="Head_bone_id" name="Head" sid="Head" type="JOINT">
                    <matrix sid="transform">0.9630491 0 0.2693259 5.120195 0 1 0 0 -0.2693259 0 0.9630491 0 0 0 0 1</matrix>
                    <node id="Loc_Head_bone_id" name="Loc_Head" sid="Loc_Head" type="JOINT">
                      <matrix sid="transform">3.1391647E-07 1 0 30.424664 -1 3.1391647E-07 0 0 0 0 1 0.155 0 0 0 1</matrix>
                    </node>
                    <node id="Loc_Eye_bone_id" name="Loc_Eye" sid="Loc_Eye" type="JOINT">
                      <matrix sid="transform">3.1391647E-07 1 0 10.198341 -1 3.1391647E-07 0 0 0 0 1 15.450066 0 0 0 1</matrix>
                    </node>
                    <node id="Loc_Mouth_bone_id" name="Loc_Mouth" sid="Loc_Mouth" type="JOINT">
                      <matrix sid="transform">3.1391647E-07 1 0 0.864628 -1 3.1391647E-07 0 0 0 0 1 13.593221 0 0 0 1</matrix>
                    </node>
                  </node>
                </node>
                <node id="LShoulder_bone_id" name="LShoulder" sid="LShoulder" type="JOINT">
                  <matrix sid="transform">-0.44190192 0.8924043 -0.09130862 14.18017 -0.89614785 -0.44375566 -2.0772681E-07 -4.5 -0.040518906 0.08182593 0.9958226 -0.240233 0 0 0 1</matrix>
                  <node id="LArm_bone_id" name="LArm" sid="LArm" type="JOINT">
                    <matrix sid="transform">0.8961479 -0.44375545 0 12.61957 0.44375545 0.8961479 0 0 0 0 1 0 0 0 0 1</matrix>
                    <node id="LForeArm_bone_id" name="LForeArm" sid="LForeArm" type="JOINT">
                      <matrix sid="transform">1 0 0 22.6 0 1 0 0 0 0 1 0 0 0 0 1</matrix>
                      <node id="LHand_bone_id" name="LHand" sid="LHand" type="JOINT">
                        <matrix sid="transform">1 0 0 22.600002 0 1 0 0 0 0 1 0 0 0 0 1</matrix>
                      </node>
                    </node>
                  </node>
                </node>
                <node id="RShoulder_bone_id" name="RShoulder" sid="RShoulder" type="JOINT">
                  <matrix sid="transform">-0.44190192 -0.8924043 -0.09130862 14.18017 0.89614785 -0.44375566 2.0772681E-07 4.5 -0.040518906 -0.08182593 0.9958226 -0.240233 0 0 0 1</matrix>
                  <node id="RArm_bone_id" name="RArm" sid="RArm" type="JOINT">
                    <matrix sid="transform">0.8961479 0.44375545 0 12.61957 -0.44375545 0.8961479 0 0 0 0 1 0 0 0 0 1</matrix>
                    <node id="RForeArm_bone_id" name="RForeArm" sid="RForeArm" type="JOINT">
                      <matrix sid="transform">1 0 0 22.6 0 1 0 0 0 0 1 0 0 0 0 1</matrix>
                      <node id="RHand_bone_id" name="RHand" sid="RHand" type="JOINT">
                        <matrix sid="transform">1 0 0 22.600002 0 1 0 0 0 0 1 0 0 0 0 1</matrix>
                      </node>
                    </node>
                  </node>
                </node>
                <node id="Bag_bone_id" name="Bag" sid="Bag" type="JOINT">
                  <matrix sid="transform">0.09130899 0 0.9958226 -8.588704 0 1 0 0 -0.9958226 0 0.09130899 -8.632769 0 0 0 1</matrix>
                </node>
              </node>
            </node>
            <node id="Hips_bone_id" name="Hips" sid="Hips" type="JOINT">
              <matrix sid="transform">-1 -3.2584137E-07 0 -0.010002 3.2584137E-07 -1 0 0 0 0 1 0 0 0 0 1</matrix>
              <node id="LThigh_bone_id" name="LThigh" sid="LThigh" type="JOINT">
                <matrix sid="transform">1 0 0 11.300003 0 1 0 7.8 0 0 1 0 0 0 0 1</matrix>
                <node id="LLeg_bone_id" name="LLeg" sid="LLeg" type="JOINT">
                  <matrix sid="transform">1 0 0 34.299995 0 1 0 0 0 0 1 0 0 0 0 1</matrix>
                  <node id="LFoot_bone_id" name="LFoot" sid="LFoot" type="JOINT">
                    <matrix sid="transform">3.1391647E-07 0 -1 34.3 0 1 0 0 1 0 3.1391647E-07 0 0 0 0 1</matrix>
                  </node>
                </node>
              </node>
              <node id="RThigh_bone_id" name="RThigh" sid="RThigh" type="JOINT">
                <matrix sid="transform">1 0 0 11.299995 0 1 0 -7.8 0 0 1 0 0 0 0 1</matrix>
                <node id="RLeg_bone_id" name="RLeg" sid="RLeg" type="JOINT">
                  <matrix sid="transform">1 0 0 34.3 0 1 0 0 0 0 1 0 0 0 0 1</matrix>
                  <node id="RFoot_bone_id" name="RFoot" sid="RFoot" type="JOINT">
                    <matrix sid="transform">3.1391647E-07 0 -1 34.3 0 1 0 0 1 0 3.1391647E-07 0 0 0 0 1</matrix>
                  </node>
                </node>
              </node>
            </node>
          </node>
          <node id="CamTgtHead_bone_id" name="CamTgtHead" sid="CamTgtHead" type="JOINT">
            <matrix sid="transform">1 0 0 0 0 1 0 149.45934 0 0 1 0 0 0 0 1</matrix>
          </node>
          <node id="CamTgtBust_bone_id" name="CamTgtBust" sid="CamTgtBust" type="JOINT">
            <matrix sid="transform">1 0 0 0 0 1 0 117.6 0 0 1 0 0 0 0 1</matrix>
          </node>
          <node id="CamTgtBody_bone_id" name="CamTgtBody" sid="CamTgtBody" type="JOINT">
            <matrix sid="transform">1 0 0 0 0 1 0 90.6 0 0 1 0 0 0 0 1</matrix>
          </node>
          <node id="CamTgtFoot_bone_id" name="CamTgtFoot" sid="CamTgtFoot" type="JOINT">
            <matrix sid="transform">1 0 0 0 0 1 0 0 0 0 1 0 0 0 0 1</matrix>
          </node>
        </node>
        <node id="tr0099_00_fi_Hair_bone_id" name="tr0099_00_fi_Hair" sid="tr0099_00_fi_Hair" type="JOINT">
          <matrix sid="transform">1 0 0 0 0 1 0 0 0 0 1 0 0 0 0 1</matrix>
        </node>
        <node id="tr0063_00_fi_FaceSkin_bone_id" name="tr0063_00_fi_FaceSkin" sid="tr0063_00_fi_FaceSkin" type="JOINT">
          <matrix sid="transform">1 0 0 0 0 1 0 0 0 0 1 0 0 0 0 1</matrix>
        </node>
        <node id="tr0099_00_fi_BodySkin_bone_id" name="tr0099_00_fi_BodySkin" sid="tr0099_00_fi_BodySkin" type="JOINT">
          <matrix sid="transform">1 0 0 0 0 1 0 0 0 0 1 0 0 0 0 1</matrix>
        </node>
      </node>
    </visual_scene>
  </library_visual_scenes>
  <scene>
    <instance_visual_scene url="#tr0099_00_fi_00_clip_id" />
  </scene>
</COLLADA>