<?xml version="1.0" encoding="utf-8"?>
<COLLADA xmlns:xsi="http://www.w3.org/2001/XMLSchema-instance" xmlns:xsd="http://www.w3.org/2001/XMLSchema" version="1.4.1" xmlns="http://www.collada.org/2005/11/COLLADASchema">
  <asset>
    <created>2026-02-17T02:22:37.3983714-05:00</created>
    <modified>2026-02-17T02:22:37.3983718-05:00</modified>
    <up_axis>Y_UP</up_axis>
  </asset>
  <library_animations>
    <animation id="Motion_28_Jaw_transform_id" name="Motion_28_Jaw_transform">
      <source id="Motion_28_Jaw_transform_frame_id" name="Motion_28_Jaw_transform_frame">
        <float_array id="Motion_28_Jaw_transform_frame_array_id" count="71">0 0.033333335 0.06666667 0.1 0.13333334 0.16666667 0.2 0.23333333 0.26666668 0.3 0.33333334 0.36666667 0.4 0.43333334 0.46666667 0.5 0.53333336 0.56666666 0.6 0.6333333 0.6666667 0.7 0.73333335 0.76666665 0.8 0.8333333 0.8666667 0.9 0.93333334 0.96666664 1 1.0333333 1.0666667 1.1 1.1333333 1.1666666 1.2 1.2333333 1.2666667 1.3 1.3333334 1.3666667 1.4 1.4333333 1.4666667 1.5 1.5333333 1.5666667 1.6 1.6333333 1.6666666 1.7 1.7333333 1.7666667 1.8 1.8333334 1.8666667 1.9 1.9333333 1.9666667 2 2.0333333 2.0666666 2.1 2.1333334 2.1666667 2.2 2.2333333 2.2666667 2.3 2.3333333</float_array>
        <technique_common>
          <accessor source="#Motion_28_Jaw_transform_frame_array_id" count="71" stride="1">
            <param name="TIME" type="float" />
          </accessor>
        </technique_common>
      </source>
      <source id="Motion_28_Jaw_transform_interp_id" name="Motion_28_Jaw_transform_interp">
        <Name_array id="Motion_28_Jaw_transform_interp_array_id" count="71">LINEAR LINEAR LINEAR LINEAR LINEAR LINEAR LINEAR LINEAR LINEAR LINEAR LINEAR LINEAR LINEAR LINEAR LINEAR LINEAR LINEAR LINEAR LINEAR LINEAR LINEAR LINEAR LINEAR LINEAR LINEAR LINEAR LINEAR LINEAR LINEAR LINEAR LINEAR LINEAR LINEAR LINEAR LINEAR LINEAR LINEAR LINEAR LINEAR LINEAR LINEAR LINEAR LINEAR LINEAR LINEAR LINEAR LINEAR LINEAR LINEAR LINEAR LINEAR LINEAR LINEAR LINEAR LINEAR LINEAR LINEAR LINEAR LINEAR LINEAR LINEAR LINEAR LINEAR LINEAR LINEAR LINEAR LINEAR LINEAR LINEAR LINEAR LINEAR</Name_array>
        <technique_common>
          <accessor source="#Motion_28_Jaw_transform_interp_array_id" count="71" stride="1">
            <param name="INTERPOLATION" type="Name" />
          </accessor>
        </technique_common>
      </source>
      <source id="Motion_28_Jaw_transform_pose_id" name="Motion_28_Jaw_transform_pose">
        <float_array id="Motion_28_Jaw_transform_pose_array_id" count="1136">0.14700341 0 -0.989136 3.262256 0 1 0 0 0.989136 0 0.14700341 16.319197 0 0 0 1 0.14700341 0 -0.989136 3.262256 0 1 0 0 0.989136 0 0.14700341 16.319197 0 0 0 1 0.14700341 0 -0.989136 3.262256 0 1 0 0 0.989136 0 0.14700341 16.319197 0 0 0 1 0.14700341 0 -0.989136 3.262256 0 1 0 0 0.989136 0 0.14700341 16.319197 0 0 0 1 0.14700341 0 -0.989136 3.262256 0 1 0 0 0.989136 0 0.14700341 16.319197 0 0 0 1 0.14700341 0 -0.989136 3.262256 0 1 0 0 0.989136 0 0.14700341 16.319197 0 0 0 1 0.14700341 0 -0.989136 3.262256 0 1 0 0 0.989136 0 0.14700341 16.319197 0 0 0 1 0.14700341 0 -0.989136 3.262256 0 1 0 0 0.989136 0 0.14700341 16.319197 0 0 0 1 0.14700341 0 -0.989136 3.262256 0 1 0 0 0.989136 0 0.14700341 16.319197 0 0 0 1 0.14700341 0 -0.989136 3.262256 0 1 0 0 0.989136 0 0.14700341 16.319197 0 0 0 1 -0.2112366 0 -0.9774349 3.262256 0 1 0 0 0.9774349 0 -0.2112366 16.319197 0 0 0 1 -0.2112366 0 -0.9774349 3.262256 0 1 0 0 0.9774349 0 -0.2112366 16.319197 0 0 0 1 -0.2112366 0 -0.9774349 3.262256 0 1 0 0 0.9774349 0 -0.2112366 16.319197 0 0 0 1 -0.2112366 0 -0.9774349 3.262256 0 1 0 0 0.9774349 0 -0.2112366 16.319197 0 0 0 1 -0.2112366 0 -0.9774349 3.262256 0 1 0 0 0.9774349 0 -0.2112366 16.319197 0 0 0 1 -0.2112366 0 -0.9774349 3.262256 0 1 0 0 0.9774349 0 -0.2112366 16.319197 0 0 0 1 -0.2112366 0 -0.9774349 3.262256 0 1 0 0 0.9774349 0 -0.2112366 16.319197 0 0 0 1 -0.2112366 0 -0.9774349 3.262256 0 1 0 0 0.9774349 0 -0.2112366 16.319197 0 0 0 1 -0.2112366 0 -0.9774349 3.262256 0 1 0 0 0.9774349 0 -0.2112366 16.319197 0 0 0 1 -0.2112366 0 -0.9774349 3.262256 0 1 0 0 0.9774349 0 -0.2112366 16.319197 0 0 0 1 -0.5423293 0 -0.84016603 3.262256 0 1 0 0 0.84016603 0 -0.5423293 16.319197 0 0 0 1 -0.5423293 0 -0.84016603 3.262256 0 1 0 0 0.84016603 0 -0.5423293 16.319197 0 0 0 1 -0.5423293 0 -0.84016603 3.262256 0 1 0 0 0.84016603 0 -0.5423293 16.319197 0 0 0 1 -0.5423293 0 -0.84016603 3.262256 0 1 0 0 0.84016603 0 -0.5423293 16.319197 0 0 0 1 -0.5423293 0 -0.84016603 3.262256 0 1 0 0 0.84016603 0 -0.5423293 16.319197 0 0 0 1 -0.5423293 0 -0.84016603 3.262256 0 1 0 0 0.84016603 0 -0.5423293 16.319197 0 0 0 1 -0.5423293 0 -0.84016603 3.262256 0 1 0 0 0.84016603 0 -0.5423293 16.319197 0 0 0 1 -0.5423293 0 -0.84016603 3.262256 0 1 0 0 0.84016603 0 -0.5423293 16.319197 0 0 0 1 -0.5423293 0 -0.84016603 3.262256 0 1 0 0 0.84016603 0 -0.5423293 16.319197 0 0 0 1 -0.5423293 0 -0.84016603 3.262256 0 1 0 0 0.84016603 0 -0.5423293 16.319197 0 0 0 1 0.14700341 0 -0.989136 3.262256 0 1 0 0 0.989136 0 0.14700341 16.319197 0 0 0 1 0.14700341 0 -0.989136 3.262256 0 1 0 0 0.989136 0 0.14700341 16.319197 0 0 0 1 0.14700341 0 -0.989136 3.262256 0 1 0 0 0.989136 0 0.14700341 16.319197 0 0 0 1 0.14700341 0 -0.989136 3.262256 0 1 0 0 0.989136 0 0.14700341 16.319197 0 0 0 1 0.14700341 0 -0.989136 3.262256 0 1 0 0 0.989136 0 0.14700341 16.319197 0 0 0 1 0.14700341 0 -0.989136 3.262256 0 1 0 0 0.989136 0 0.14700341 16.319197 0 0 0 1 0.14700341 0 -0.989136 3.262256 0 1 0 0 0.989136 0 0.14700341 16.319197 0 0 0 1 0.14700341 0 -0.989136 3.262256 0 1 0 0 0.989136 0 0.14700341 16.319197 0 0 0 1 0.14700341 0 -0.989136 3.262256 0 1 0 0 0.989136 0 0.14700341 16.319197 0 0 0 1 0.14700341 0 -0.989136 3.262256 0 1 0 0 0.989136 0 0.14700341 16.319197 0 0 0 1 -0.2112366 0 -0.9774349 3.262256 0 1 0 0 0.9774349 0 -0.2112366 16.319197 0 0 0 1 -0.2112366 0 -0.9774349 3.262256 0 1 0 0 0.9774349 0 -0.2112366 16.319197 0 0 0 1 -0.2112366 0 -0.9774349 3.262256 0 1 0 0 0.9774349 0 -0.2112366 16.319197 0 0 0 1 -0.2112366 0 -0.9774349 3.262256 0 1 0 0 0.9774349 0 -0.2112366 16.319197 0 0 0 1 -0.2112366 0 -0.9774349 3.262256 0 1 0 0 0.9774349 0 -0.2112366 16.319197 0 0 0 1 -0.2112366 0 -0.9774349 3.262256 0 1 0 0 0.9774349 0 -0.2112366 16.319197 0 0 0 1 -0.2112366 0 -0.9774349 3.262256 0 1 0 0 0.9774349 0 -0.2112366 16.319197 0 0 0 1 -0.2112366 0 -0.9774349 3.262256 0 1 0 0 0.9774349 0 -0.2112366 16.319197 0 0 0 1 -0.2112366 0 -0.9774349 3.262256 0 1 0 0 0.9774349 0 -0.2112366 16.319197 0 0 0 1 -0.2112366 0 -0.9774349 3.262256 0 1 0 0 0.9774349 0 -0.2112366 16.319197 0 0 0 1 0.14700341 0 -0.989136 3.262256 0 1 0 0 0.989136 0 0.14700341 16.319197 0 0 0 1 0.14700341 0 -0.989136 3.262256 0 1 0 0 0.989136 0 0.14700341 16.319197 0 0 0 1 0.14700341 0 -0.989136 3.262256 0 1 0 0 0.989136 0 0.14700341 16.319197 0 0 0 1 0.14700341 0 -0.989136 3.262256 0 1 0 0 0.989136 0 0.14700341 16.319197 0 0 0 1 0.14700341 0 -0.989136 3.262256 0 1 0 0 0.989136 0 0.14700341 16.319197 0 0 0 1 0.14700341 0 -0.989136 3.262256 0 1 0 0 0.989136 0 0.14700341 16.319197 0 0 0 1 0.14700341 0 -0.989136 3.262256 0 1 0 0 0.989136 0 0.14700341 16.319197 0 0 0 1 0.14700341 0 -0.989136 3.262256 0 1 0 0 0.989136 0 0.14700341 16.319197 0 0 0 1 0.14700341 0 -0.989136 3.262256 0 1 0 0 0.989136 0 0.14700341 16.319197 0 0 0 1 0.14700341 0 -0.989136 3.262256 0 1 0 0 0.989136 0 0.14700341 16.319197 0 0 0 1 0.14700341 0 -0.989136 3.262256 0 1 0 0 0.989136 0 0.14700341 16.319197 0 0 0 1 0.14700341 0 -0.989136 3.262256 0 1 0 0 0.989136 0 0.14700341 16.319197 0 0 0 1 0.14700341 0 -0.989136 3.262256 0 1 0 0 0.989136 0 0.14700341 16.319197 0 0 0 1 0.14700359 0 -0.989136 3.262256 0 1 0 0 0.989136 0 0.14700359 16.319197 0 0 0 1 0.14700359 0 -0.989136 3.262256 0 1 0 0 0.989136 0 0.14700359 16.319197 0 0 0 1 0.14700359 0 -0.989136 3.262256 0 1 0 0 0.989136 0 0.14700359 16.319197 0 0 0 1 0.14700359 0 -0.989136 3.262256 0 1 0 0 0.989136 0 0.14700359 16.319197 0 0 0 1 0.14700359 0 -0.989136 3.262256 0 1 0 0 0.989136 0 0.14700359 16.319197 0 0 0 1 0.14700359 0 -0.989136 3.262256 0 1 0 0 0.989136 0 0.14700359 16.319197 0 0 0 1 0.14700341 0 -0.989136 3.262256 0 1 0 0 0.989136 0 0.14700341 16.319197 0 0 0 1 0.14700341 0 -0.989136 3.262256 0 1 0 0 0.989136 0 0.14700341 16.319197 0 0 0 1</float_array>
        <technique_common>
          <accessor source="#Motion_28_Jaw_transform_pose_array_id" count="71" stride="16">
            <param name="TRANSFORM" type="float4x4" />
          </accessor>
        </technique_common>
      </source>
      <sampler id="Motion_28_Jaw_transform_samp_id">
        <input semantic="INPUT" source="#Motion_28_Jaw_transform_frame_id" />
        <input semantic="INTERPOLATION" source="#Motion_28_Jaw_transform_interp_id" />
        <input semantic="OUTPUT" source="#Motion_28_Jaw_transform_pose_id" />
      </sampler>
      <channel source="#Motion_28_Jaw_transform_samp_id" target="Jaw_bone_id/transform" />
    </animation>
  </library_animations>
  <library_visual_scenes>
    <visual_scene id="PM_HighPoly_00_clip_id" name="PM_HighPoly_00_clip">
      <node id="pm0018_00_bone_id" name="pm0018_00" sid="pm0018_00" type="JOINT">
        <matrix sid="transform">1 0 0 0 0 1 0 0 0 0 1 0 0 0 0 1</matrix>
        <node id="Origin_bone_id" name="Origin" sid="Origin" type="JOINT">
          <matrix sid="transform">1 0 0 0 0 1 0 0 0 0 1 0 0 0 0 1</matrix>
          <node id="Waist_bone_id" name="Waist" sid="Waist" type="JOINT">
            <matrix sid="transform">3.1391647E-07 -1 -3.1391647E-07 0 0 3.1391647E-07 -1 52.47155 1 3.1391647E-07 9.854355E-14 6.03639 0 0 0 1</matrix>
            <node id="Spine1_bone_id" name="Spine1" sid="Spine1" type="JOINT">
              <matrix sid="transform">0.7761339 0 0.63056815 0 0 1 0 0 -0.63056815 0 0.7761339 0 0 0 0 1</matrix>
              <node id="Spine2_bone_id" name="Spine2" sid="Spine2" type="JOINT">
                <matrix sid="transform">0.8662462 0 0.49961737 20.538233 0 1 0 0 -0.49961737 0 0.8662462 0 0 0 0 1</matrix>
                <node id="Neck_bone_id" name="Neck" sid="Neck" type="JOINT">
                  <matrix sid="transform">0.9928007 0 -0.11977773 29.139305 0 1 0 0 0.11977773 0 0.9928007 0 0 0 0 1</matrix>
                  <node id="Head_bone_id" name="Head" sid="Head" type="JOINT">
                    <matrix sid="transform">0.9786221 0 0.20566678 9.575741 0 1 0 0 -0.20566678 0 0.9786221 0 0 0 0 1</matrix>
                    <node id="Jaw_bone_id" name="Jaw" sid="Jaw" type="JOINT">
                      <matrix sid="transform">0.14700371 0 -0.9891359 3.262256 0 1 0 0 0.9891359 0 0.14700371 16.319197 0 0 0 1</matrix>
                    </node>
                    <node id="LHairA1_bone_id" name="LHairA1" sid="LHairA1" type="JOINT">
                      <matrix sid="transform">-0.08917333 0.8877532 0.45159987 21.54864 -0.25494134 0.41795793 -0.87196106 -14.20272 -0.9628359 -0.19288714 0.1890543 6.318089 0 0 0 1</matrix>
                      <node id="LHairA2_bone_id" name="LHairA2" sid="LHairA2" type="JOINT">
                        <matrix sid="transform">0.97406054 0.012086705 0.22596453 12.359342 -0.011774043 0.9999269 -0.0027313663 0 -0.22598104 0 0.9741317 0 0 0 0 1</matrix>
                        <node id="LHairA3_bone_id" name="LHairA3" sid="LHairA3" type="JOINT">
                          <matrix sid="transform">0.99506146 0.005327975 0.09911757 21.286127 -0.0053017377 0.9999858 -0.00052810344 0 -0.09911898 0 0.9950756 0 0 0 0 1</matrix>
                          <node id="LHairA4_bone_id" name="LHairA4" sid="LHairA4" type="JOINT">
                            <matrix sid="transform">0.9990674 -0.00816291 0.042398874 21.544754 0.008155569 0.9999667 0.0003461097 0 -0.042400286 0 0.9991007 0 0 0 0 1</matrix>
                            <node id="LHairA5_bone_id" name="LHairA5" sid="LHairA5" type="JOINT">
                              <matrix sid="transform">0.9978325 -0.004573984 0.06564508 22.98646 0.0045641176 0.9999895 0.00030026268 0 -0.06564576 0 0.99784297 0 0 0 0 1</matrix>
                              <node id="LHairA6_bone_id" name="LHairA6" sid="LHairA6" type="JOINT">
                                <matrix sid="transform">0.99936587 -0.018958863 0.030141015 21.733309 0.018950246 0.9998203 0.00057154207 0 -0.030146433 0 0.9995455 0 0 0 0 1</matrix>
                              </node>
                            </node>
                          </node>
                        </node>
                      </node>
                    </node>
                    <node id="RHairA1_bone_id" name="RHairA1" sid="RHairA1" type="JOINT">
                      <matrix sid="transform">-0.08917333 -0.8877532 0.45159987 21.548635 0.25494134 0.41795793 0.87196106 14.2027 -0.9628359 0.19288714 0.1890543 6.318045 0 0 0 1</matrix>
                      <node id="RHairA2_bone_id" name="RHairA2" sid="RHairA2" type="JOINT">
                        <matrix sid="transform">0.97406054 -0.012086705 0.22596453 12.359228 0.011774043 0.9999269 0.0027313663 0.000153 -0.22598104 0 0.9741317 -4.4E-05 0 0 0 1</matrix>
                        <node id="RHairA3_bone_id" name="RHairA3" sid="RHairA3" type="JOINT">
                          <matrix sid="transform">0.99506146 -0.005327975 0.09911757 21.28622 0.0053017377 0.9999858 0.00052810344 -1.3E-05 -0.09911898 0 0.9950756 7.7E-05 0 0 0 1</matrix>
                          <node id="RHairA4_bone_id" name="RHairA4" sid="RHairA4" type="JOINT">
                            <matrix sid="transform">0.9990674 0.00816291 0.042398874 21.544727 -0.008155569 0.9999667 -0.0003461097 -0.000329 -0.042400286 0 0.9991007 0.000131 0 0 0 1</matrix>
                            <node id="RHairA5_bone_id" name="RHairA5" sid="RHairA5" type="JOINT">
                              <matrix sid="transform">0.9978325 0.004573984 0.06564508 22.986458 -0.0045641176 0.9999895 -0.00030026268 0.000386 -0.06564576 0 0.99784297 -0.000177 0 0 0 1</matrix>
                              <node id="RHairA6_bone_id" name="RHairA6" sid="RHairA6" type="JOINT">
                                <matrix sid="transform">0.99936587 0.018958863 0.030141015 21.733273 -0.018950246 0.9998203 -0.00057154207 -0.000185 -0.030146433 0 0.9995455 4E-05 0 0 0 1</matrix>
                              </node>
                            </node>
                          </node>
                        </node>
                      </node>
                    </node>
                    <node id="LHairB1_bone_id" name="LHairB1" sid="LHairB1" type="JOINT">
                      <matrix sid="transform">0.06863047 0.61795557 0.7832119 25.333103 -0.21933284 0.77520114 -0.59241563 -10.557542 -0.9732332 -0.13112631 0.18874037 5.859602 0 0 0 1</matrix>
                      <node id="LHairB2_bone_id" name="LHairB2" sid="LHairB2" type="JOINT">
                        <matrix sid="transform">0.9518943 0.013320606 0.30613694 12.101547 -0.012680934 0.99991125 -0.004078292 0 -0.30616412 0 0.95197874 0 0 0 0 1</matrix>
                        <node id="LHairB3_bone_id" name="LHairB3" sid="LHairB3" type="JOINT">
                          <matrix sid="transform">0.99398607 -0.019285804 0.10779498 22.65448 0.019173386 0.99981403 0.0020792994 0 -0.10781503 0 0.99417096 0 0 0 0 1</matrix>
                          <node id="LHairB4_bone_id" name="LHairB4" sid="LHairB4" type="JOINT">
                            <matrix sid="transform">0.99958813 -0.0050559784 0.028249882 21.025557 0.0050539607 0.99998724 0.0001428326 0 -0.028250242 0 0.9996009 0 0 0 0 1</matrix>
                            <node id="LHairB5_bone_id" name="LHairB5" sid="LHairB5" type="JOINT">
                              <matrix sid="transform">0.99663705 -0.014484493 0.08065281 23.185085 0.014437296 0.9998951 0.0011683377 0 -0.080661274 0 0.9967416 0 0 0 0 1</matrix>
                              <node id="LHairB6_bone_id" name="LHairB6" sid="LHairB6" type="JOINT">
                                <matrix sid="transform">1 0 0 21.784012 0 1 0 0 0 0 1 0 0 0 0 1</matrix>
                              </node>
                            </node>
                          </node>
                        </node>
                      </node>
                    </node>
                    <node id="RHairB1_bone_id" name="RHairB1" sid="RHairB1" type="JOINT">
                      <matrix sid="transform">0.06863047 -0.61795557 0.7832119 25.333288 0.21933284 0.77520114 0.59241563 10.557499 -0.9732332 0.13112631 0.18874037 5.859575 0 0 0 1</matrix>
                      <node id="RHairB2_bone_id" name="RHairB2" sid="RHairB2" type="JOINT">
                        <matrix sid="transform">0.9518943 -0.013320606 0.30613694 12.101593 0.012680934 0.99991125 0.004078292 -5.9E-05 -0.30616412 0 0.95197874 0.000119 0 0 0 1</matrix>
                        <node id="RHairB3_bone_id" name="RHairB3" sid="RHairB3" type="JOINT">
                          <matrix sid="transform">0.99398607 0.019285804 0.10779498 22.654469 -0.019173386 0.99981403 -0.0020792994 0.000313 -0.10781503 0 0.99417096 -0.00032 0 0 0 1</matrix>
                          <node id="RHairB4_bone_id" name="RHairB4" sid="RHairB4" type="JOINT">
                            <matrix sid="transform">0.99958813 0.0050559784 0.028249882 21.025578 -0.0050539607 0.99998724 -0.0001428326 -0.000443 -0.028250242 0 0.9996009 0.000415 0 0 0 1</matrix>
                            <node id="RHairB5_bone_id" name="RHairB5" sid="RHairB5" type="JOINT">
                              <matrix sid="transform">0.99663705 0.014484493 0.08065281 23.18504 -0.014437296 0.9998951 -0.0011683377 8.2E-05 -0.080661274 0 0.9967416 -1.8E-05 0 0 0 1</matrix>
                              <node id="RHairB6_bone_id" name="RHairB6" sid="RHairB6" type="JOINT">
                                <matrix sid="transform">1 0 0 21.7841 0 1 0 0.000577 0 0 1 -0.0007 0 0 0 1</matrix>
                              </node>
                            </node>
                          </node>
                        </node>
                      </node>
                    </node>
                    <node id="HairC1_bone_id" name="HairC1" sid="HairC1" type="JOINT">
                      <matrix sid="transform">0.08632769 0 0.9962668 29.772547 0 1 0 0 -0.9962668 0 0.08632769 5.336574 0 0 0 1</matrix>
                      <node id="HairC2_bone_id" name="HairC2" sid="HairC2" type="JOINT">
                        <matrix sid="transform">0.96956515 0 0.24483353 12.394992 0 1 0 0 -0.24483353 0 0.96956515 0 0 0 0 1</matrix>
                        <node id="HairC3_bone_id" name="HairC3" sid="HairC3" type="JOINT">
                          <matrix sid="transform">0.99151736 0 0.12997425 22.661276 0 1 0 0 -0.12997425 0 0.99151736 0 0 0 0 1</matrix>
                          <node id="HairC4_bone_id" name="HairC4" sid="HairC4" type="JOINT">
                            <matrix sid="transform">0.9981339 0 0.061062988 22.526825 0 1 0 0 -0.061062988 0 0.9981339 0 0 0 0 1</matrix>
                            <node id="HairC5_bone_id" name="HairC5" sid="HairC5" type="JOINT">
                              <matrix sid="transform">0.9998283 0 -0.01853094 21.72648 0 1 0 0 0.01853094 0 0.9998283 0 0 0 0 1</matrix>
                              <node id="HairC6_bone_id" name="HairC6" sid="HairC6" type="JOINT">
                                <matrix sid="transform">0.9996241 1.3708281E-07 -0.027416563 22.314491 0 1 5E-06 0 0.027416563 -4.9981204E-06 0.9996241 0 0 0 0 1</matrix>
                              </node>
                            </node>
                          </node>
                        </node>
                      </node>
                    </node>
                  </node>
                </node>
                <node id="LShoulder_bone_id" name="LShoulder" sid="LShoulder" type="JOINT">
                  <matrix sid="transform">-0.12281701 -0.75876623 0.63967943 24.54408 -0.9674819 0.23515281 0.09317599 -5.054205 -0.22112122 -0.60743475 -0.7629734 -3.03162 0 0 0 1</matrix>
                  <node id="LArm_bone_id" name="LArm" sid="LArm" type="JOINT">
                    <matrix sid="transform">0.9906339 0.11136547 0.07900684 15.104209 -0.1111735 0.99377745 -0.006837858 0 -0.079276726 -0.0020096535 0.9968506 0 0 0 0 1</matrix>
                    <node id="LForeArm_bone_id" name="LForeArm" sid="LForeArm" type="JOINT">
                      <matrix sid="transform">0.72977644 0.6835604 -0.013095383 25.658632 -0.68358654 0.729863 0.0030603 0 0.011649736 0.006718493 0.9999095 0 0 0 0 1</matrix>
                      <node id="LHand_bone_id" name="LHand" sid="LHand" type="JOINT">
                        <matrix sid="transform">0.8375403 -0.5119067 0.19099168 49.65137 0.53218013 0.8434794 -0.072984986 0 -0.12373606 0.16276984 0.9788745 0 0 0 0 1</matrix>
                      </node>
                    </node>
                  </node>
                </node>
                <node id="RShoulder_bone_id" name="RShoulder" sid="RShoulder" type="JOINT">
                  <matrix sid="transform">-0.12281701 0.75876623 0.63967943 24.544043 0.9674819 0.23515281 -0.09317599 5.05421 -0.22112122 0.60743475 -0.7629734 -3.031609 0 0 0 1</matrix>
                  <node id="RArm_bone_id" name="RArm" sid="RArm" type="JOINT">
                    <matrix sid="transform">0.9906339 -0.11136547 0.07900684 15.104247 0.1111735 0.99377745 0.006837858 2.4E-05 -0.079276726 0.0020096535 0.9968506 4.4E-05 0 0 0 1</matrix>
                    <node id="RForeArm_bone_id" name="RForeArm" sid="RForeArm" type="JOINT">
                      <matrix sid="transform">0.72977644 -0.6835604 -0.013095383 25.658548 0.68358654 0.729863 -0.0030603 1.4E-05 0.011649736 -0.006718493 0.9999095 -4.9E-05 0 0 0 1</matrix>
                      <node id="RHand_bone_id" name="RHand" sid="RHand" type="JOINT">
                        <matrix sid="transform">0.8375403 0.5119067 0.19099168 49.651474 -0.53218013 0.8434794 0.072984986 8.4E-05 -0.12373606 -0.16276984 0.9788745 0.000283 0 0 0 1</matrix>
                      </node>
                    </node>
                  </node>
                </node>
                <node id="LFeeler1_bone_id" name="LFeeler1" sid="LFeeler1" type="JOINT">
                  <matrix sid="transform">-0.9630442 0.17690784 0.20309955 24.757572 -0.15110146 0.26936466 -0.9511104 -20.2395 -0.22296673 -0.94665 -0.23267904 -5.964679 0 0 0 1</matrix>
                  <node id="LFeeler2_bone_id" name="LFeeler2" sid="LFeeler2" type="JOINT">
                    <matrix sid="transform">0.8806322 -0.43327376 0.19173093 41.67123 0.44356868 0.8961573 -0.012201572 0 -0.16653445 0.09579094 0.9813717 0 0 0 0 1</matrix>
                  </node>
                </node>
                <node id="RFeeler1_bone_id" name="RFeeler1" sid="RFeeler1" type="JOINT">
                  <matrix sid="transform">-0.9630442 -0.17690825 0.20309925 24.7576 0.1511012 0.26936403 0.95111066 20.2395 -0.22296697 0.9466501 -0.23267843 -5.964702 0 0 0 1</matrix>
                  <node id="RFeeler2_bone_id" name="RFeeler2" sid="RFeeler2" type="JOINT">
                    <matrix sid="transform">0.8806322 0.43327376 0.19173093 41.671257 -0.44356868 0.8961573 0.012201572 3.5E-05 -0.16653445 -0.09579094 0.9813717 2.1E-05 0 0 0 1</matrix>
                  </node>
                </node>
              </node>
            </node>
            <node id="Hips_bone_id" name="Hips" sid="Hips" type="JOINT">
              <matrix sid="transform">-0.9721321 -3.2584137E-07 0.23443371 0 3.1676086E-07 -1 -7.6388204E-08 0 0.23443371 0 0.9721321 0 0 0 0 1</matrix>
              <node id="Tail1_bone_id" name="Tail1" sid="Tail1" type="JOINT">
                <matrix sid="transform">0.9999418 0 -0.01078579 36.71862 0 1 0 0 0.01078579 0 0.9999418 0 0 0 0 1</matrix>
                <node id="Tail2_bone_id" name="Tail2" sid="Tail2" type="JOINT">
                  <matrix sid="transform">0.9809301 0 -0.194361 20.766163 0 1 0 0 0.194361 0 0.9809301 0 0 0 0 1</matrix>
                </node>
              </node>
              <node id="LThigh_bone_id" name="LThigh" sid="LThigh" type="JOINT">
                <matrix sid="transform">0.35374066 0 -0.93534356 6.481628 0 1 0 12.457924 0.93534356 0 0.35374066 1.438732 0 0 0 1</matrix>
                <node id="LLeg_bone_id" name="LLeg" sid="LLeg" type="JOINT">
                  <matrix sid="transform">0.98317164 0 -0.18268429 24.622633 0 1 0 0 0.18268429 0 0.98317164 0 0 0 0 1</matrix>
                  <node id="LFoot_bone_id" name="LFoot" sid="LFoot" type="JOINT">
                    <matrix sid="transform">0.058751423 0 -0.99827266 17.08153 0 1 0 0 0.99827266 0 0.058751423 0 0 0 0 1</matrix>
                    <node id="LToeA1_bone_id" name="LToeA1" sid="LToeA1" type="JOINT">
                      <matrix sid="transform">0.8659773 0.5000833 0 7.619841 -0.5000833 0.8659773 0 -5.259369 0 0 1 -4.806689 0 0 0 1</matrix>
                      <node id="LToeA2_bone_id" name="LToeA2" sid="LToeA2" type="JOINT">
                        <matrix sid="transform">0.99961203 0.027853398 0 9.173812 -0.027853398 0.99961203 0 0 0 0 1 0 0 0 0 1</matrix>
                      </node>
                    </node>
                    <node id="LToeB1_bone_id" name="LToeB1" sid="LToeB1" type="JOINT">
                      <matrix sid="transform">1 0 0 10.087453 0 1 0 0 0 0 1 -4.806689 0 0 0 1</matrix>
                      <node id="LToeB2_bone_id" name="LToeB2" sid="LToeB2" type="JOINT">
                        <matrix sid="transform">1 0 0 8.782363 0 1 0 0 0 0 1 0 0 0 0 1</matrix>
                      </node>
                    </node>
                    <node id="LToeC1_bone_id" name="LToeC1" sid="LToeC1" type="JOINT">
                      <matrix sid="transform">0.8592544 -0.5115485 0 7.615026 0.5115485 0.8592544 0 5.090387 0 0 1 -4.806689 0 0 0 1</matrix>
                      <node id="LToeC2_bone_id" name="LToeC2" sid="LToeC2" type="JOINT">
                        <matrix sid="transform">0.9999371 -0.011214766 0 9.219645 0.011214766 0.9999371 0 0 0 0 1 0 0 0 0 1</matrix>
                      </node>
                    </node>
                    <node id="LToeD_bone_id" name="LToeD" sid="LToeD" type="JOINT">
                      <matrix sid="transform">-0.98339415 -3.2584137E-07 -0.18148272 -4.915547 3.204305E-07 -1 5.9134578E-08 0 -0.18148272 0 0.98339415 -4.805511 0 0 0 1</matrix>
                    </node>
                  </node>
                </node>
              </node>
              <node id="RThigh_bone_id" name="RThigh" sid="RThigh" type="JOINT">
                <matrix sid="transform">0.35374066 0 -0.93534356 6.481628 0 1 0 -12.4579 0.93534356 0 0.35374066 1.438732 0 0 0 1</matrix>
                <node id="RLeg_bone_id" name="RLeg" sid="RLeg" type="JOINT">
                  <matrix sid="transform">0.98317164 0 -0.18268429 24.622602 0 1 0 0 0.18268429 0 0.98317164 -4E-06 0 0 0 1</matrix>
                  <node id="RFoot_bone_id" name="RFoot" sid="RFoot" type="JOINT">
                    <matrix sid="transform">0.058751423 0 -0.99827266 17.081566 0 1 0 0 0.99827266 0 0.058751423 -6E-06 0 0 0 1</matrix>
                    <node id="RToeA1_bone_id" name="RToeA1" sid="RToeA1" type="JOINT">
                      <matrix sid="transform">0.8659773 -0.5000833 0 7.61984 0.5000833 0.8659773 0 5.25934 0 0 1 -4.80668 0 0 0 1</matrix>
                      <node id="RToeA2_bone_id" name="RToeA2" sid="RToeA2" type="JOINT">
                        <matrix sid="transform">0.99961203 -0.027853398 0 9.173858 0.027853398 0.99961203 0 -1.6E-05 0 0 1 0 0 0 0 1</matrix>
                      </node>
                    </node>
                    <node id="RToeB1_bone_id" name="RToeB1" sid="RToeB1" type="JOINT">
                      <matrix sid="transform">1 0 0 10.08746 0 1 0 0 0 0 1 -4.80668 0 0 0 1</matrix>
                      <node id="RToeB2_bone_id" name="RToeB2" sid="RToeB2" type="JOINT">
                        <matrix sid="transform">1 0 0 8.78234 0 1 0 0 0 0 1 0 0 0 0 1</matrix>
                      </node>
                    </node>
                    <node id="RToeC1_bone_id" name="RToeC1" sid="RToeC1" type="JOINT">
                      <matrix sid="transform">0.8592544 0.5115485 0 7.61503 -0.5115485 0.8592544 0 -5.0904 0 0 1 -4.80668 0 0 0 1</matrix>
                      <node id="RToeC2_bone_id" name="RToeC2" sid="RToeC2" type="JOINT">
                        <matrix sid="transform">0.9999371 0.011214766 0 9.219689 -0.011214766 0.9999371 0 1.7E-05 0 0 1 0 0 0 0 1</matrix>
                      </node>
                    </node>
                    <node id="RToeD_bone_id" name="RToeD" sid="RToeD" type="JOINT">
                      <matrix sid="transform">-0.98339415 3.2584137E-07 -0.18148272 -4.91554 -3.204305E-07 -1 -5.9134578E-08 0 -0.18148272 0 0.98339415 -4.80551 0 0 0 1</matrix>
                    </node>
                  </node>
                </node>
              </node>
            </node>
          </node>
        </node>
        <node id="pm0018_00_BodySkin_bone_id" name="pm0018_00_BodySkin" sid="pm0018_00_BodySkin" type="JOINT">
          <matrix sid="transform">1 0 0 0 0 1 0 0 0 0 1 0 0 0 0 1</matrix>
        </node>
        <node id="pm0018_00_IrisSkin_bone_id" name="pm0018_00_IrisSkin" sid="pm0018_00_IrisSkin" type="JOINT">
          <matrix sid="transform">1 0 0 0 0 1 0 0 0 0 1 0 0 0 0 1</matrix>
        </node>
        <node id="pm0018_00_WingRSkin_bone_id" name="pm0018_00_WingRSkin" sid="pm0018_00_WingRSkin" type="JOINT">
          <matrix sid="transform">1 0 0 0 0 1 0 0 0 0 1 0 0 0 0 1</matrix>
        </node>
        <node id="pm0018_00_WingLSkin_bone_id" name="pm0018_00_WingLSkin" sid="pm0018_00_WingLSkin" type="JOINT">
          <matrix sid="transform">1 0 0 0 0 1 0 0 0 0 1 0 0 0 0 1</matrix>
        </node>
      </node>
    </visual_scene>
  </library_visual_scenes>
  <scene>
    <instance_visual_scene url="#PM_HighPoly_00_clip_id" />
  </scene>
</COLLADA>