<?xml version="1.0" encoding="utf-8"?>
<COLLADA xmlns:xsi="http://www.w3.org/2001/XMLSchema-instance" xmlns:xsd="http://www.w3.org/2001/XMLSchema" version="1.4.1" xmlns="http://www.collada.org/2005/11/COLLADASchema">
  <asset>
    <created>2026-02-17T02:22:35.8850484-05:00</created>
    <modified>2026-02-17T02:22:35.8850486-05:00</modified>
    <up_axis>Y_UP</up_axis>
  </asset>
  <library_animations>
    <animation id="Motion_0_2_Waist_transform_id" name="Motion_0_2_Waist_transform">
      <source id="Motion_0_2_Waist_transform_frame_id" name="Motion_0_2_Waist_transform_frame">
        <float_array id="Motion_0_2_Waist_transform_frame_array_id" count="61">0 0.033333335 0.06666667 0.1 0.13333334 0.16666667 0.2 0.23333333 0.26666668 0.3 0.33333334 0.36666667 0.4 0.43333334 0.46666667 0.5 0.53333336 0.56666666 0.6 0.6333333 0.6666667 0.7 0.73333335 0.76666665 0.8 0.8333333 0.8666667 0.9 0.93333334 0.96666664 1 1.0333333 1.0666667 1.1 1.1333333 1.1666666 1.2 1.2333333 1.2666667 1.3 1.3333334 1.3666667 1.4 1.4333333 1.4666667 1.5 1.5333333 1.5666667 1.6 1.6333333 1.6666666 1.7 1.7333333 1.7666667 1.8 1.8333334 1.8666667 1.9 1.9333333 1.9666667 2</float_array>
        <technique_common>
          <accessor source="#Motion_0_2_Waist_transform_frame_array_id" count="61" stride="1">
            <param name="TIME" type="float" />
          </accessor>
        </technique_common>
      </source>
      <source id="Motion_0_2_Waist_transform_interp_id" name="Motion_0_2_Waist_transform_interp">
        <Name_array id="Motion_0_2_Waist_transform_interp_array_id" count="61">LINEAR LINEAR LINEAR LINEAR LINEAR LINEAR LINEAR LINEAR LINEAR LINEAR LINEAR LINEAR LINEAR LINEAR LINEAR LINEAR LINEAR LINEAR LINEAR LINEAR LINEAR LINEAR LINEAR LINEAR LINEAR LINEAR LINEAR LINEAR LINEAR LINEAR LINEAR LINEAR LINEAR LINEAR LINEAR LINEAR LINEAR LINEAR LINEAR LINEAR LINEAR LINEAR LINEAR LINEAR LINEAR LINEAR LINEAR LINEAR LINEAR LINEAR LINEAR LINEAR LINEAR LINEAR LINEAR LINEAR LINEAR LINEAR LINEAR LINEAR LINEAR</Name_array>
        <technique_common>
          <accessor source="#Motion_0_2_Waist_transform_interp_array_id" count="61" stride="1">
            <param name="INTERPOLATION" type="Name" />
          </accessor>
        </technique_common>
      </source>
      <source id="Motion_0_2_Waist_transform_pose_id" name="Motion_0_2_Waist_transform_pose">
        <float_array id="Motion_0_2_Waist_transform_pose_array_id" count="976">-0.0117896795 -0.99990994 0.0064224005 -0.024820782 0.26295215 -0.0092971325 -0.9647641 7.6067443 0.9647369 -0.009685427 0.26303804 -13.487296 0 0 0 1 -0.015039444 -0.99985147 0.00842154 -0.034306318 0.25884226 -0.012028456 -0.9658447 7.6402893 0.9658025 -0.01234597 0.25898468 -13.445537 0 0 0 1 -0.01804924 -0.99978405 0.010295719 -0.043314897 0.25438696 -0.014550567 -0.96699303 7.6758466 0.9669341 -0.014834464 0.25459468 -13.401766 0 0 0 1 -0.020782948 -0.99971163 0.012031674 -0.051801085 0.24968734 -0.016842961 -0.96818006 7.7125254 0.96810347 -0.01711747 0.24996543 -13.356994 0 0 0 1 -0.023205042 -0.999638 0.013614446 -0.05971947 0.24484438 -0.01888609 -0.9693785 7.7494354 0.96928465 -0.019161016 0.24519396 -13.312229 0 0 0 1 -0.025280714 -0.9995674 0.015028387 -0.06702461 0.23995924 -0.020661354 -0.97056305 7.7856865 0.97045374 -0.02093035 0.24037778 -13.268482 0 0 0 1 -0.026975632 -0.99950397 0.016256183 -0.07367109 0.2351335 -0.022150278 -0.97171074 7.8203874 0.97158873 -0.022389948 0.2356143 -13.226761 0 0 0 1 -0.028346062 -0.9994489 0.017278492 -0.07961346 0.23054242 -0.0233562 -0.972782 7.8526487 0.9726494 -0.023590982 0.23107731 -13.188074 0 0 0 1 -0.029451966 -0.99940205 0.018107533 -0.08480632 0.22642192 -0.02431488 -0.9737257 7.8815794 0.9735838 -0.024578273 0.2270028 -13.15343 0 0 0 1 -0.030277848 -0.9993653 0.018763274 -0.08920422 0.22294804 -0.025051236 -0.9745084 7.90629 0.97436 -0.025322765 0.2235651 -13.123839 0 0 0 1 -0.030841708 -0.999339 0.019245803 -0.09276176 0.22025833 -0.02557683 -0.97510624 7.9258885 0.9749539 -0.025834918 0.22090149 -13.100311 0 0 0 1 -0.031161308 -0.9993231 0.019555926 -0.09543348 0.21849063 -0.025902748 -0.9754953 7.939486 0.97534144 -0.026124895 0.21914983 -13.083853 0 0 0 1 -0.03125429 -0.9993174 0.01969561 -0.097173974 0.21778235 -0.026040554 -0.97564995 7.946192 0.9754969 -0.02620387 0.2184475 -13.075474 0 0 0 1 -0.031138062 -0.9993217 0.019667596 -0.09793781 0.2182703 -0.026000738 -0.975542 7.945115 0.9753915 -0.026083529 0.21893173 -13.076184 0 0 0 1 -0.030822635 -0.99933684 0.019382417 -0.097679555 0.22000334 -0.02569902 -0.9751605 7.935365 0.975012 -0.025792837 0.2206496 -13.086991 0 0 0 1 -0.030290604 -0.9993646 0.018781602 -0.09635378 0.22279906 -0.025068045 -0.974542 7.9160523 0.97439367 -0.025334924 0.22341692 -13.108906 0 0 0 1 -0.029505134 -0.99940324 0.017960966 -0.09391506 0.22640455 -0.02418375 -0.97373307 7.8890333 0.9735864 -0.024663746 0.22698295 -13.139956 0 0 0 1 -0.028452396 -0.99945146 0.016941369 -0.09031798 0.23063928 -0.023054838 -0.97276604 7.8575835 0.97262317 -0.023770213 0.23116887 -13.176598 0 0 0 1 -0.027118683 -0.99950826 0.015743792 -0.08551709 0.23532352 -0.02169025 -0.9716751 7.8229394 0.9715388 -0.022645652 0.23579597 -13.217478 0 0 0 1 -0.025489092 -0.9995716 0.014388531 -0.07946698 0.24027723 -0.020097136 -0.9704963 7.786338 0.9703697 -0.021279782 0.24068654 -13.261242 0 0 0 1 -0.023548841 -0.9996395 0.012895703 -0.07212222 0.24532127 -0.01828301 -0.9692694 7.749015 0.9691558 -0.019661605 0.2456634 -13.306537 0 0 0 1 -0.02128303 -0.9997097 0.011283904 -0.06343738 0.2502763 -0.016254544 -0.96803796 7.712208 0.96794045 -0.017778754 0.25054967 -13.35201 0 0 0 1 -0.018676996 -0.9997798 0.009570926 -0.05390471 0.25496373 -0.014018774 -0.9668491 7.677154 0.9667703 -0.01561752 0.25516933 -13.396307 0 0 0 1 -0.015715003 -0.9998463 0.007772863 -0.0440943 0.25920528 -0.011581898 -0.9657528 7.6450887 0.96569437 -0.0131620765 0.25934744 -13.438075 0 0 0 1 -0.012383699 -0.99990594 0.0059044957 -0.034077447 0.26282254 -0.00895226 -0.9648027 7.61725 0.9647648 -0.0103958845 0.26290858 -13.475962 0 0 0 1 -0.008669019 -0.9999546 0.003978312 -0.02392546 0.26563635 -0.006138444 -0.9640538 7.5948734 0.9640344 -0.0073005557 0.26567745 -13.508612 0 0 0 1 -0.00455904 -0.9999876 0.0020055473 -0.013709672 0.2674673 -0.0031518936 -0.9635618 7.5791965 0.9635562 -0.0038564801 0.26747835 -13.534674 0 0 0 1 -0.0002193451 -1.0000001 2.0742416E-05 -0.0035013445 0.26807228 -7.891655E-05 -0.96339893 7.571455 0.9633989 -0.00020566583 0.2680722 -13.5527935 0 0 0 1 0.004098594 -0.99998975 -0.001929611 0.006628178 0.26739967 0.0029553175 -0.9635812 7.572887 0.96357703 0.0034333766 0.26740903 -13.561617 0 0 0 1 0.008258104 -0.9999583 -0.0038793385 0.016607609 0.26561686 0.005933702 -0.9640603 7.584728 0.96404326 0.0069307983 0.26565486 -13.559792 0 0 0 1 0.012137175 -0.9999095 -0.005812496 0.026365634 0.26284602 0.008798838 -0.96479774 7.6055017 0.9647615 0.010182172 0.26292896 -13.548485 0 0 0 1 0.01561451 -0.99984825 -0.007710874 0.03583093 0.2592113 0.011496067 -0.9657521 7.632075 0.9656943 0.013080865 0.2593516 -13.530602 0 0 0 1 0.018627644 -0.9997812 -0.009517312 0.04493222 0.2549016 0.0139532685 -0.9668663 7.6632013 0.9667876 0.015584469 0.25510573 -13.507394 0 0 0 1 0.021231055 -0.9997119 -0.011198193 0.053598166 0.25013676 0.016156077 -0.96807563 7.697633 0.96797764 0.0177522 0.2504077 -13.480111 0 0 0 1 0.023484826 -0.9996426 -0.012774646 0.061757483 0.24508679 0.018145144 -0.9693314 7.7341223 0.9692167 0.01963371 0.24542522 -13.450005 0 0 0 1 0.025404572 -0.9995759 -0.01423046 0.069338866 0.23993534 0.01991576 -0.9705845 7.7714233 0.97045636 0.021242887 0.24033958 -13.418325 0 0 0 1 0.027006745 -0.99951434 -0.0155493915 0.07627099 0.23486659 0.02146411 -0.9717907 7.808288 0.9716525 0.022592932 0.23533213 -13.386324 0 0 0 1 0.028310299 -0.9994595 -0.016715765 0.08248256 0.23006585 0.022788405 -0.97290826 7.8434696 0.97276324 0.023697615 0.23058659 -13.355252 0 0 0 1 0.029334903 -0.99941266 -0.01771459 0.087902255 0.22571889 0.023887753 -0.9738995 7.8757205 0.9737507 0.024570674 0.22628713 -13.326362 0 0 0 1 0.030101717 -0.999375 -0.018531531 0.092458785 0.22201192 0.024761736 -0.9747294 7.903794 0.9745791 0.025226712 0.22261858 -13.300901 0 0 0 1 0.03063178 -0.99934727 -0.019152671 0.09608083 0.21913105 0.025409758 -0.97536457 7.926442 0.9752145 0.025680214 0.21976626 -13.280125 0 0 0 1 0.03094709 -0.99932945 -0.019565284 0.09869708 0.2172623 0.025832295 -0.9757713 7.942418 0.9756225 0.025946468 0.21791613 -13.265282 0 0 0 1 0.031067252 -0.999322 -0.019755572 0.100236244 0.21659046 0.026026368 -0.97591555 7.950475 0.9757681 0.026040107 0.21725225 -13.257622 0 0 0 1 0.030977309 -0.9993257 -0.019711494 0.100627005 0.21723384 0.02598077 -0.9757738 7.949365 0.97562796 0.025944859 0.21789217 -13.258398 0 0 0 1 0.030629873 -0.99934196 -0.019425035 0.09979807 0.21907017 0.025673628 -0.97537124 7.937842 0.9752282 0.025620073 0.21971238 -13.268861 0 0 0 1 0.030034006 -0.99936986 -0.01892212 0.097678095 0.22191194 0.025124907 -0.974743 7.9172945 0.9746041 0.025076449 0.22252661 -13.287484 0 0 0 1 0.029175997 -0.99940836 -0.018211454 0.094195805 0.22557649 0.024332285 -0.9739216 7.8907914 0.9737885 0.024307072 0.2261529 -13.311099 0 0 0 1 0.028042734 -0.999457 -0.017302215 0.08927989 0.22988084 0.023293138 -0.97293997 7.859607 0.9728147 0.02330646 0.2304092 -13.338486 0 0 0 1 0.02662021 -0.9995142 -0.016204149 0.08285901 0.23464242 0.022004724 -0.9718326 7.825015 0.9717171 0.022068083 0.23511428 -13.36843 0 0 0 1 0.024895608 -0.9995786 -0.014927655 0.07486191 0.2396785 0.020464897 -0.9706366 7.7882886 0.970533 0.0205867 0.24008703 -13.3997135 0 0 0 1 0.022858262 -0.99964786 -0.013483316 0.06601103 0.24480692 0.018673062 -0.96939206 7.7507005 0.9693024 0.018857867 0.24514747 -13.431121 0 0 0 1 0.020498395 -0.99971926 -0.011882424 0.057083927 0.24984673 0.016630054 -0.9681425 7.713525 0.96806836 0.016876578 0.25011754 -13.461432 0 0 0 1 0.017807782 -0.99979013 -0.010136098 0.048091948 0.25461763 0.014338076 -0.96693563 7.6780357 0.96687794 0.014638275 0.2548194 -13.489432 0 0 0 1 0.014780641 -0.9998567 -0.008254737 0.039046407 0.25894 0.0118016 -0.96582127 7.645505 0.96578026 0.01213792 0.25907737 -13.513905 0 0 0 1 0.011412978 -0.99991536 -0.0062485933 0.029958636 0.26263583 0.009027183 -0.9648528 7.617206 0.96482754 0.009370804 0.26271665 -13.533632 0 0 0 1 0.0077536106 -0.99996126 -0.004165292 0.020839943 0.26551485 0.006074667 -0.9640876 7.5944138 0.96407557 0.0063691735 0.2655517 -13.547398 0 0 0 1 0.0038776398 -0.99999034 -0.0020683706 0.011701674 0.2673824 0.0030299425 -0.96358573 7.5784006 0.96358263 0.003183335 0.26739162 -13.553984 0 0 0 1 -0.00018894672 -1 3.874302E-06 0.0025551375 0.2680439 -5.4359436E-05 -0.9634067 7.570441 0.9634067 -0.0001809299 0.26804388 -13.552173 0 0 0 1 -0.0042870045 -0.99998856 0.0020973384 -0.006588337 0.26744854 -0.0031673908 -0.9635669 7.571806 0.9635626 -0.003569901 0.26745915 -13.5407505 0 0 0 1 -0.008182287 -0.99995726 0.004307598 -0.015717419 0.2656271 -0.006326556 -0.9640551 7.5837717 0.9640411 -0.006743908 0.26566744 -13.518497 0 0 0 1 -0.008182287 -0.99995726 0.004307598 -0.015717419 0.2656271 -0.006326556 -0.9640551 7.5837717 0.9640411 -0.006743908 0.26566744 -13.518497 0 0 0 1</float_array>
        <technique_common>
          <accessor source="#Motion_0_2_Waist_transform_pose_array_id" count="61" stride="16">
            <param name="TRANSFORM" type="float4x4" />
          </accessor>
        </technique_common>
      </source>
      <sampler id="Motion_0_2_Waist_transform_samp_id">
        <input semantic="INPUT" source="#Motion_0_2_Waist_transform_frame_id" />
        <input semantic="INTERPOLATION" source="#Motion_0_2_Waist_transform_interp_id" />
        <input semantic="OUTPUT" source="#Motion_0_2_Waist_transform_pose_id" />
      </sampler>
      <channel source="#Motion_0_2_Waist_transform_samp_id" target="Waist_bone_id/transform" />
    </animation>
    <animation id="Motion_0_2_Spine1_transform_id" name="Motion_0_2_Spine1_transform">
      <source id="Motion_0_2_Spine1_transform_frame_id" name="Motion_0_2_Spine1_transform_frame">
        <float_array id="Motion_0_2_Spine1_transform_frame_array_id" count="61">0 0.033333335 0.06666667 0.1 0.13333334 0.16666667 0.2 0.23333333 0.26666668 0.3 0.33333334 0.36666667 0.4 0.43333334 0.46666667 0.5 0.53333336 0.56666666 0.6 0.6333333 0.6666667 0.7 0.73333335 0.76666665 0.8 0.8333333 0.8666667 0.9 0.93333334 0.96666664 1 1.0333333 1.0666667 1.1 1.1333333 1.1666666 1.2 1.2333333 1.2666667 1.3 1.3333334 1.3666667 1.4 1.4333333 1.4666667 1.5 1.5333333 1.5666667 1.6 1.6333333 1.6666666 1.7 1.7333333 1.7666667 1.8 1.8333334 1.8666667 1.9 1.9333333 1.9666667 2</float_array>
        <technique_common>
          <accessor source="#Motion_0_2_Spine1_transform_frame_array_id" count="61" stride="1">
            <param name="TIME" type="float" />
          </accessor>
        </technique_common>
      </source>
      <source id="Motion_0_2_Spine1_transform_interp_id" name="Motion_0_2_Spine1_transform_interp">
        <Name_array id="Motion_0_2_Spine1_transform_interp_array_id" count="61">LINEAR LINEAR LINEAR LINEAR LINEAR LINEAR LINEAR LINEAR LINEAR LINEAR LINEAR LINEAR LINEAR LINEAR LINEAR LINEAR LINEAR LINEAR LINEAR LINEAR LINEAR LINEAR LINEAR LINEAR LINEAR LINEAR LINEAR LINEAR LINEAR LINEAR LINEAR LINEAR LINEAR LINEAR LINEAR LINEAR LINEAR LINEAR LINEAR LINEAR LINEAR LINEAR LINEAR LINEAR LINEAR LINEAR LINEAR LINEAR LINEAR LINEAR LINEAR LINEAR LINEAR LINEAR LINEAR LINEAR LINEAR LINEAR LINEAR LINEAR LINEAR</Name_array>
        <technique_common>
          <accessor source="#Motion_0_2_Spine1_transform_interp_array_id" count="61" stride="1">
            <param name="INTERPOLATION" type="Name" />
          </accessor>
        </technique_common>
      </source>
      <source id="Motion_0_2_Spine1_transform_pose_id" name="Motion_0_2_Spine1_transform_pose">
        <float_array id="Motion_0_2_Spine1_transform_pose_array_id" count="976">0.9999995 0 0.000947574 0 0 1 0 0 -0.000947574 0 0.9999995 0 0 0 0 1 0.9999996 0 0.0008931379 0 0 1 0 0 -0.0008931379 0 0.9999996 0 0 0 0 1 0.99999964 0 0.0008110089 0 0 1 0 0 -0.0008110089 0 0.99999964 0 0 0 0 1 0.99999976 0 0.00070592616 0 0 1 0 0 -0.00070592616 0 0.99999976 0 0 0 0 1 0.9999998 0 0.00058262906 0 0 1 0 0 -0.00058262906 0 0.9999998 0 0 0 0 1 0.9999999 0 0.00044585703 0 0 1 0 0 -0.00044585703 0 0.9999999 0 0 0 0 1 0.99999994 0 0.0003003492 0 0 1 0 0 -0.0003003492 0 0.99999994 0 0 0 0 1 1 0 0.00015084492 0 0 1 0 0 -0.00015084492 0 1 0 0 0 0 1 1 0 2.083485E-06 0 0 1 0 0 -2.083485E-06 0 1 0 0 0 0 1 1 0 -0.00014119578 0 0 1 0 0 0.00014119578 0 1 0 0 0 0 1 0.99999994 0 -0.00027425349 0 0 1 0 0 0.00027425349 0 0.99999994 0 0 0 0 1 0.99999994 0 -0.00039235037 0 0 1 0 0 0.00039235037 0 0.99999994 0 0 0 0 1 0.9999999 0 -0.0004907471 0 0 1 0 0 0.0004907471 0 0.9999999 0 0 0 0 1 0.9999998 0 -0.0005647044 0 0 1 0 0 0.0005647044 0 0.9999998 0 0 0 0 1 0.9999998 0 -0.00060948316 0 0 1 0 0 0.00060948316 0 0.9999998 0 0 0 0 1 0.9999998 0 -0.0006203436 0 0 1 0 0 0.0006203436 0 0.9999998 0 0 0 0 1 0.9999998 0 -0.00059254677 0 0 1 0 0 0.00059254677 0 0.9999998 0 0 0 0 1 0.9999999 0 -0.0005213534 0 0 1 0 0 0.0005213534 0 0.9999999 0 0 0 0 1 0.99999994 0 -0.0004020241 0 0 1 0 0 0.0004020241 0 0.99999994 0 0 0 0 1 1 0 -0.00022981937 0 0 1 0 0 0.00022981937 0 1 0 0 0 0 1 1 0 0 0 0 1 0 0 0 0 1 0 0 0 0 1 1 0 0.00021325418 0 0 1 0 0 -0.00021325418 0 1 0 0 0 0 1 0.99999994 0 0.00034771021 0 0 1 0 0 -0.00034771021 0 0.99999994 0 0 0 0 1 0.9999999 0 0.00042602737 0 0 1 0 0 -0.00042602737 0 0.9999999 0 0 0 0 1 0.9999999 0 0.0004708651 0 0 1 0 0 -0.0004708651 0 0.9999999 0 0 0 0 1 0.9999999 0 0.00050488254 0 0 1 0 0 -0.00050488254 0 0.9999999 0 0 0 0 1 0.9999998 0 0.0005507392 0 0 1 0 0 -0.0005507392 0 0.9999998 0 0 0 0 1 0.9999998 0 0.00063109427 0 0 1 0 0 -0.00063109427 0 0.9999998 0 0 0 0 1 0.99999976 0 0.0007179114 0 0 1 0 0 -0.0007179114 0 0.99999976 0 0 0 0 1 0.9999997 0 0.00077017443 0 0 1 0 0 -0.00077017443 0 0.9999997 0 0 0 0 1 0.9999997 0 0.0007910735 0 0 1 0 0 -0.0007910735 0 0.9999997 0 0 0 0 1 0.9999997 0 0.0007837985 0 0 1 0 0 -0.0007837985 0 0.9999997 0 0 0 0 1 0.9999997 0 0.0007515395 0 0 1 0 0 -0.0007515395 0 0.9999997 0 0 0 0 1 0.99999976 0 0.0006974864 0 0 1 0 0 -0.0006974864 0 0.99999976 0 0 0 0 1 0.9999998 0 0.0006248293 0 0 1 0 0 -0.0006248293 0 0.9999998 0 0 0 0 1 0.9999999 0 0.0005367582 0 0 1 0 0 -0.0005367582 0 0.9999999 0 0 0 0 1 0.9999999 0 0.0004364632 0 0 1 0 0 -0.0004364632 0 0.9999999 0 0 0 0 1 0.99999994 0 0.000327134 0 0 1 0 0 -0.000327134 0 0.99999994 0 0 0 0 1 1 0 0.00021196081 0 0 1 0 0 -0.00021196081 0 1 0 0 0 0 1 1 0 9.4133604E-05 0 0 1 0 0 -9.4133604E-05 0 1 0 0 0 0 1 1 0 -2.3157569E-05 0 0 1 0 0 2.3157569E-05 0 1 0 0 0 0 1 1 0 -0.00013672287 0 0 1 0 0 0.00013672287 0 1 0 0 0 0 1 1 0 -0.00024337211 0 0 1 0 0 0.00024337211 0 1 0 0 0 0 1 0.99999994 0 -0.00033991545 0 0 1 0 0 0.00033991545 0 0.99999994 0 0 0 0 1 0.9999999 0 -0.00042316265 0 0 1 0 0 0.00042316265 0 0.9999999 0 0 0 0 1 0.9999999 0 -0.0004899239 0 0 1 0 0 0.0004899239 0 0.9999999 0 0 0 0 1 0.9999999 0 -0.0005370093 0 0 1 0 0 0.0005370093 0 0.9999999 0 0 0 0 1 0.9999998 0 -0.0005612286 0 0 1 0 0 0.0005612286 0 0.9999998 0 0 0 0 1 0.9999998 0 -0.00055939186 0 0 1 0 0 0.00055939186 0 0.9999998 0 0 0 0 1 0.9999999 0 -0.0005283093 0 0 1 0 0 0.0005283093 0 0.9999999 0 0 0 0 1 0.9999999 0 -0.00046479068 0 0 1 0 0 0.00046479068 0 0.9999999 0 0 0 0 1 0.99999994 0 -0.0003656461 0 0 1 0 0 0.0003656461 0 0.99999994 0 0 0 0 1 1 0 -0.0002276855 0 0 1 0 0 0.0002276855 0 1 0 0 0 0 1 1 0 -4.7719048E-05 0 0 1 0 0 4.7719048E-05 0 1 0 0 0 0 1 1 0 0.00017744387 0 0 1 0 0 -0.00017744387 0 1 0 0 0 0 1 0.9999999 0 0.00045099237 0 0 1 0 0 -0.00045099237 0 0.9999999 0 0 0 0 1 0.99999976 0 0.0006872317 0 0 1 0 0 -0.0006872317 0 0.99999976 0 0 0 0 1 0.99999964 0 0.0008210078 0 0 1 0 0 -0.0008210078 0 0.99999964 0 0 0 0 1 0.9999996 0 0.00088632235 0 0 1 0 0 -0.00088632235 0 0.9999996 0 0 0 0 1 0.9999996 0 0.0009171771 0 0 1 0 0 -0.0009171771 0 0.9999996 0 0 0 0 1 0.9999996 0 0.0009171771 0 0 1 0 0 -0.0009171771 0 0.9999996 0 0 0 0 1</float_array>
        <technique_common>
          <accessor source="#Motion_0_2_Spine1_transform_pose_array_id" count="61" stride="16">
            <param name="TRANSFORM" type="float4x4" />
          </accessor>
        </technique_common>
      </source>
      <sampler id="Motion_0_2_Spine1_transform_samp_id">
        <input semantic="INPUT" source="#Motion_0_2_Spine1_transform_frame_id" />
        <input semantic="INTERPOLATION" source="#Motion_0_2_Spine1_transform_interp_id" />
        <input semantic="OUTPUT" source="#Motion_0_2_Spine1_transform_pose_id" />
      </sampler>
      <channel source="#Motion_0_2_Spine1_transform_samp_id" target="Spine1_bone_id/transform" />
    </animation>
    <animation id="Motion_0_2_Spine2_transform_id" name="Motion_0_2_Spine2_transform">
      <source id="Motion_0_2_Spine2_transform_frame_id" name="Motion_0_2_Spine2_transform_frame">
        <float_array id="Motion_0_2_Spine2_transform_frame_array_id" count="61">0 0.033333335 0.06666667 0.1 0.13333334 0.16666667 0.2 0.23333333 0.26666668 0.3 0.33333334 0.36666667 0.4 0.43333334 0.46666667 0.5 0.53333336 0.56666666 0.6 0.6333333 0.6666667 0.7 0.73333335 0.76666665 0.8 0.8333333 0.8666667 0.9 0.93333334 0.96666664 1 1.0333333 1.0666667 1.1 1.1333333 1.1666666 1.2 1.2333333 1.2666667 1.3 1.3333334 1.3666667 1.4 1.4333333 1.4666667 1.5 1.5333333 1.5666667 1.6 1.6333333 1.6666666 1.7 1.7333333 1.7666667 1.8 1.8333334 1.8666667 1.9 1.9333333 1.9666667 2</float_array>
        <technique_common>
          <accessor source="#Motion_0_2_Spine2_transform_frame_array_id" count="61" stride="1">
            <param name="TIME" type="float" />
          </accessor>
        </technique_common>
      </source>
      <source id="Motion_0_2_Spine2_transform_interp_id" name="Motion_0_2_Spine2_transform_interp">
        <Name_array id="Motion_0_2_Spine2_transform_interp_array_id" count="61">LINEAR LINEAR LINEAR LINEAR LINEAR LINEAR LINEAR LINEAR LINEAR LINEAR LINEAR LINEAR LINEAR LINEAR LINEAR LINEAR LINEAR LINEAR LINEAR LINEAR LINEAR LINEAR LINEAR LINEAR LINEAR LINEAR LINEAR LINEAR LINEAR LINEAR LINEAR LINEAR LINEAR LINEAR LINEAR LINEAR LINEAR LINEAR LINEAR LINEAR LINEAR LINEAR LINEAR LINEAR LINEAR LINEAR LINEAR LINEAR LINEAR LINEAR LINEAR LINEAR LINEAR LINEAR LINEAR LINEAR LINEAR LINEAR LINEAR LINEAR LINEAR</Name_array>
        <technique_common>
          <accessor source="#Motion_0_2_Spine2_transform_interp_array_id" count="61" stride="1">
            <param name="INTERPOLATION" type="Name" />
          </accessor>
        </technique_common>
      </source>
      <source id="Motion_0_2_Spine2_transform_pose_id" name="Motion_0_2_Spine2_transform_pose">
        <float_array id="Motion_0_2_Spine2_transform_pose_array_id" count="976">0.88362634 5.0958755E-05 0.4681928 12.055121 -0.00012646195 1 0.0001298319 0 -0.4681928 -0.00017393145 0.88362634 0 0 0 0 1 0.883592 5.095223E-05 0.46825758 12.055121 -0.00012646633 1 0.00012982686 0 -0.46825758 -0.00017393279 0.883592 0 0 0 0 1 0.88357514 5.0949013E-05 0.4682894 12.055121 -0.00012646848 1 0.00012982439 0 -0.4682894 -0.00017393345 0.88357514 0 0 0 0 1 0.88357407 5.0948824E-05 0.46829146 12.055121 -0.00012646863 1 0.00012982423 0 -0.46829146 -0.0001739335 0.88357407 0 0 0 0 1 0.88358706 5.0951287E-05 0.4682669 12.055121 -0.00012646696 1 0.00012982613 0 -0.4682669 -0.00017393299 0.88358706 0 0 0 0 1 0.88361245 5.095612E-05 0.46821898 12.055121 -0.00012646372 1 0.00012982986 0 -0.46821898 -0.000173932 0.88361245 0 0 0 0 1 0.8836486 5.0962986E-05 0.46815082 12.055121 -0.0001264591 1 0.00012983513 0 -0.46815082 -0.00017393057 0.8836486 0 0 0 0 1 0.88369364 5.0971557E-05 0.4680657 12.055121 -0.00012645335 1 0.00012984175 0 -0.4680657 -0.00017392881 0.88369364 0 0 0 0 1 0.883746 5.0981525E-05 0.46796677 12.055121 -0.00012644666 1 0.00012984942 0 -0.46796677 -0.00017392673 0.883746 0 0 0 0 1 0.8838041 5.099257E-05 0.46785718 12.055121 -0.00012643923 1 0.00012985789 0 -0.46785718 -0.00017392443 0.8838041 0 0 0 0 1 0.883866 5.100435E-05 0.46774015 12.055121 -0.00012643133 1 0.00012986697 0 -0.46774015 -0.00017392202 0.883866 0 0 0 0 1 0.88393015 5.1016566E-05 0.46761897 12.055121 -0.00012642313 1 0.00012987637 0 -0.46761897 -0.00017391948 0.88393015 0 0 0 0 1 0.8839948 5.1028874E-05 0.4674967 12.055121 -0.00012641484 1 0.00012988583 0 -0.4674967 -0.00017391692 0.8839948 0 0 0 0 1 0.8840583 5.1040974E-05 0.4673766 12.055121 -0.00012640674 1 0.00012989514 0 -0.4673766 -0.00017391442 0.8840583 0 0 0 0 1 0.8841189 5.1052524E-05 0.4672619 12.055121 -0.00012639897 1 0.00012990403 0 -0.4672619 -0.00017391205 0.8841189 0 0 0 0 1 0.88417506 5.1063224E-05 0.4671557 12.055121 -0.0001263918 1 0.00012991225 0 -0.4671557 -0.00017390982 0.88417506 0 0 0 0 1 0.88422495 5.107273E-05 0.46706125 12.055121 -0.0001263854 1 0.00012991957 0 -0.46706125 -0.00017390786 0.88422495 0 0 0 0 1 0.8842669 5.1080733E-05 0.4669818 12.055121 -0.00012638004 1 0.00012992573 0 -0.4669818 -0.00017390621 0.8842669 0 0 0 0 1 0.8842993 5.1086907E-05 0.46692047 12.055121 -0.00012637587 1 0.00012993049 0 -0.46692047 -0.00017390492 0.8842993 0 0 0 0 1 0.8843204 5.1090934E-05 0.46688053 12.055121 -0.00012637318 1 0.00012993356 0 -0.46688053 -0.00017390406 0.8843204 0 0 0 0 1 0.88432854 5.1092476E-05 0.4668651 12.055121 -0.00012637214 1 0.00012993476 0 -0.4668651 -0.00017390375 0.88432854 0 0 0 0 1 0.884322 5.1091232E-05 0.46687746 12.055121 -0.00012637296 1 0.0001299338 0 -0.46687746 -0.00017390402 0.884322 0 0 0 0 1 0.88429916 5.108688E-05 0.46692073 12.055121 -0.00012637589 1 0.00012993044 0 -0.46692073 -0.0001739049 0.88429916 0 0 0 0 1 0.8842583 5.107909E-05 0.4669982 12.055121 -0.00012638114 1 0.00012992445 0 -0.4669982 -0.00017390653 0.8842583 0 0 0 0 1 0.88419765 5.106753E-05 0.46711296 12.055121 -0.00012638891 1 0.00012991557 0 -0.46711296 -0.00017390895 0.88419765 0 0 0 0 1 0.8841156 5.105189E-05 0.46726826 12.055121 -0.00012639942 1 0.00012990355 0 -0.46726826 -0.00017391218 0.8841156 0 0 0 0 1 0.88403034 5.103566E-05 0.4674295 12.055121 -0.00012641032 1 0.00012989105 0 -0.4674295 -0.00017391554 0.88403034 0 0 0 0 1 0.88396066 5.1022376E-05 0.4675613 12.055121 -0.00012641923 1 0.00012988083 0 -0.4675613 -0.00017391828 0.88396066 0 0 0 0 1 0.8839054 5.101187E-05 0.46766567 12.055121 -0.0001264263 1 0.00012987274 0 -0.46766567 -0.00017392046 0.8839054 0 0 0 0 1 0.8838637 5.100391E-05 0.4677446 12.055121 -0.00012643162 1 0.0001298666 0 -0.4677446 -0.00017392209 0.8838637 0 0 0 0 1 0.8838343 5.0998322E-05 0.46780005 12.055121 -0.00012643538 1 0.00012986232 0 -0.46780005 -0.00017392325 0.8838343 0 0 0 0 1 0.8838163 5.0994895E-05 0.46783412 12.055121 -0.00012643769 1 0.00012985969 0 -0.46783412 -0.00017392397 0.8838163 0 0 0 0 1 0.8838086 5.0993436E-05 0.4678486 12.055121 -0.00012643867 1 0.00012985856 0 -0.4678486 -0.00017392426 0.8838086 0 0 0 0 1 0.88381016 5.0993734E-05 0.46784565 12.055121 -0.00012643846 1 0.00012985879 0 -0.46784565 -0.0001739242 0.88381016 0 0 0 0 1 0.88381994 5.0995593E-05 0.46782714 12.055121 -0.00012643723 1 0.00012986023 0 -0.46782714 -0.00017392384 0.88381994 0 0 0 0 1 0.8838369 5.0998824E-05 0.46779516 12.055121 -0.00012643504 1 0.00012986269 0 -0.46779516 -0.00017392315 0.88383687 0 0 0 0 1 0.88385993 5.1003204E-05 0.4677516 12.055121 -0.0001264321 1 0.0001298661 0 -0.4677516 -0.00017392225 0.88385993 0 0 0 0 1 0.88388807 5.1008567E-05 0.46769845 12.055121 -0.00012642851 1 0.0001298702 0 -0.46769845 -0.00017392114 0.88388807 0 0 0 0 1 0.8839202 5.101467E-05 0.4676378 12.055121 -0.00012642442 1 0.00012987491 0 -0.4676378 -0.00017391989 0.8839202 0 0 0 0 1 0.88395524 5.102135E-05 0.46757147 12.055121 -0.00012641991 1 0.00012988003 0 -0.46757147 -0.0001739185 0.88395524 0 0 0 0 1 0.8839922 5.102839E-05 0.46750158 12.055121 -0.0001264152 1 0.00012988545 0 -0.46750158 -0.00017391704 0.8839922 0 0 0 0 1 0.88403004 5.1035597E-05 0.46743006 12.055121 -0.00012641036 1 0.00012989099 0 -0.46743006 -0.00017391554 0.88403004 0 0 0 0 1 0.88406765 5.1042756E-05 0.4673589 12.055121 -0.00012640553 1 0.00012989652 0 -0.4673589 -0.00017391406 0.88406765 0 0 0 0 1 0.8841041 5.1049698E-05 0.46729007 12.055121 -0.00012640088 1 0.00012990183 0 -0.46729007 -0.00017391262 0.884104 0 0 0 0 1 0.8841381 5.1056177E-05 0.46722558 12.055121 -0.00012639651 1 0.00012990682 0 -0.46722558 -0.00017391126 0.8841381 0 0 0 0 1 0.88416886 5.106205E-05 0.4671674 12.055121 -0.0001263926 1 0.00012991134 0 -0.4671674 -0.00017391007 0.88416886 0 0 0 0 1 0.8841952 5.1067065E-05 0.46711755 12.055121 -0.00012638922 1 0.00012991522 0 -0.46711755 -0.00017390904 0.8841952 0 0 0 0 1 0.8842161 5.1071045E-05 0.46707797 12.055121 -0.00012638653 1 0.00012991828 0 -0.46707797 -0.00017390819 0.8842161 0 0 0 0 1 0.88423055 5.1073803E-05 0.4670507 12.055121 -0.0001263847 1 0.00012992039 0 -0.4670507 -0.00017390763 0.88423055 0 0 0 0 1 0.8842374 5.1075112E-05 0.46703768 12.055121 -0.0001263838 1 0.00012992139 0 -0.46703768 -0.00017390735 0.8842374 0 0 0 0 1 0.88423574 5.107478E-05 0.46704084 12.055121 -0.00012638402 1 0.00012992114 0 -0.46704084 -0.00017390742 0.88423574 0 0 0 0 1 0.8842244 5.107263E-05 0.46706226 12.055121 -0.00012638548 1 0.00012991948 0 -0.46706226 -0.00017390786 0.8842244 0 0 0 0 1 0.8842024 5.106843E-05 0.46710393 12.055121 -0.00012638829 1 0.00012991627 0 -0.46710393 -0.00017390875 0.88420236 0 0 0 0 1 0.8841686 5.106201E-05 0.46716782 12.055121 -0.00012639261 1 0.0001299113 0 -0.46716782 -0.00017391007 0.8841686 0 0 0 0 1 0.88412213 5.1053135E-05 0.46725583 12.055121 -0.00012639856 1 0.0001299045 0 -0.46725583 -0.0001739119 0.88412213 0 0 0 0 1 0.88406175 5.1041632E-05 0.46737006 12.055121 -0.0001264063 1 0.00012989566 0 -0.46737006 -0.0001739143 0.88406175 0 0 0 0 1 0.8839865 5.1027295E-05 0.46751246 12.055121 -0.00012641592 1 0.0001298846 0 -0.46751246 -0.00017391724 0.8839865 0 0 0 0 1 0.8838953 5.1009927E-05 0.46768492 12.055121 -0.00012642759 1 0.00012987126 0 -0.46768492 -0.00017392087 0.8838952 0 0 0 0 1 0.8837992 5.099164E-05 0.46786648 12.055121 -0.00012643987 1 0.00012985719 0 -0.46786648 -0.00017392464 0.88379914 0 0 0 0 1 0.8837097 5.097462E-05 0.4680354 12.055121 -0.00012645131 1 0.00012984409 0 -0.4680354 -0.00017392816 0.8837097 0 0 0 0 1 0.8837097 5.097462E-05 0.4680354 12.055121 -0.00012645131 1 0.00012984409 0 -0.4680354 -0.00017392816 0.8837097 0 0 0 0 1</float_array>
        <technique_common>
          <accessor source="#Motion_0_2_Spine2_transform_pose_array_id" count="61" stride="16">
            <param name="TRANSFORM" type="float4x4" />
          </accessor>
        </technique_common>
      </source>
      <sampler id="Motion_0_2_Spine2_transform_samp_id">
        <input semantic="INPUT" source="#Motion_0_2_Spine2_transform_frame_id" />
        <input semantic="INTERPOLATION" source="#Motion_0_2_Spine2_transform_interp_id" />
        <input semantic="OUTPUT" source="#Motion_0_2_Spine2_transform_pose_id" />
      </sampler>
      <channel source="#Motion_0_2_Spine2_transform_samp_id" target="Spine2_bone_id/transform" />
    </animation>
    <animation id="Motion_0_2_Head_transform_id" name="Motion_0_2_Head_transform">
      <source id="Motion_0_2_Head_transform_frame_id" name="Motion_0_2_Head_transform_frame">
        <float_array id="Motion_0_2_Head_transform_frame_array_id" count="61">0 0.033333335 0.06666667 0.1 0.13333334 0.16666667 0.2 0.23333333 0.26666668 0.3 0.33333334 0.36666667 0.4 0.43333334 0.46666667 0.5 0.53333336 0.56666666 0.6 0.6333333 0.6666667 0.7 0.73333335 0.76666665 0.8 0.8333333 0.8666667 0.9 0.93333334 0.96666664 1 1.0333333 1.0666667 1.1 1.1333333 1.1666666 1.2 1.2333333 1.2666667 1.3 1.3333334 1.3666667 1.4 1.4333333 1.4666667 1.5 1.5333333 1.5666667 1.6 1.6333333 1.6666666 1.7 1.7333333 1.7666667 1.8 1.8333334 1.8666667 1.9 1.9333333 1.9666667 2</float_array>
        <technique_common>
          <accessor source="#Motion_0_2_Head_transform_frame_array_id" count="61" stride="1">
            <param name="TIME" type="float" />
          </accessor>
        </technique_common>
      </source>
      <source id="Motion_0_2_Head_transform_interp_id" name="Motion_0_2_Head_transform_interp">
        <Name_array id="Motion_0_2_Head_transform_interp_array_id" count="61">LINEAR LINEAR LINEAR LINEAR LINEAR LINEAR LINEAR LINEAR LINEAR LINEAR LINEAR LINEAR LINEAR LINEAR LINEAR LINEAR LINEAR LINEAR LINEAR LINEAR LINEAR LINEAR LINEAR LINEAR LINEAR LINEAR LINEAR LINEAR LINEAR LINEAR LINEAR LINEAR LINEAR LINEAR LINEAR LINEAR LINEAR LINEAR LINEAR LINEAR LINEAR LINEAR LINEAR LINEAR LINEAR LINEAR LINEAR LINEAR LINEAR LINEAR LINEAR LINEAR LINEAR LINEAR LINEAR LINEAR LINEAR LINEAR LINEAR LINEAR LINEAR</Name_array>
        <technique_common>
          <accessor source="#Motion_0_2_Head_transform_interp_array_id" count="61" stride="1">
            <param name="INTERPOLATION" type="Name" />
          </accessor>
        </technique_common>
      </source>
      <source id="Motion_0_2_Head_transform_pose_id" name="Motion_0_2_Head_transform_pose">
        <float_array id="Motion_0_2_Head_transform_pose_array_id" count="976">0.88278985 0.00011469445 0.46976817 14.273544 -0.00028069547 0.99999994 0.0002833327 0 -0.4697681 -0.000381985 0.8827898 0 0 0 0 1 0.8826803 0.00011464882 0.46997392 14.273544 -0.00028072583 0.99999994 0.00028329727 0 -0.46997386 -0.0003819947 0.88268024 0 0 0 0 1 0.8825935 0.00011461271 0.47013685 14.273544 -0.00028074984 0.99999994 0.00028326918 0 -0.4701368 -0.0003820024 0.88259345 0 0 0 0 1 0.8825278 0.00011458537 0.47026014 14.273544 -0.00028076803 0.99999994 0.000283248 0 -0.47026008 -0.00038200823 0.8825278 0 0 0 0 1 0.8824817 0.00011456618 0.4703467 14.273544 -0.00028078078 0.99999994 0.0002832331 0 -0.47034663 -0.0003820123 0.8824817 0 0 0 0 1 0.8824535 0.00011455444 0.47039965 14.273544 -0.00028078858 0.99999994 0.00028322396 0 -0.4703996 -0.0003820148 0.88245344 0 0 0 0 1 0.8824416 0.00011454948 0.470422 14.273544 -0.0002807919 0.99999994 0.00028322008 0 -0.47042194 -0.00038201583 0.8824415 0 0 0 0 1 0.8824443 0.000114550625 0.47041684 14.273544 -0.00028079114 0.99999994 0.00028322096 0 -0.47041678 -0.0003820156 0.88244426 0 0 0 0 1 0.8824601 0.000114557195 0.47038716 14.273544 -0.00028078674 0.99999994 0.00028322605 0 -0.4703871 -0.00038201417 0.8824601 0 0 0 0 1 0.88248736 0.00011456852 0.47033608 14.273544 -0.0002807792 0.99999994 0.00028323487 0 -0.47033602 -0.0003820118 0.88248736 0 0 0 0 1 0.88252443 0.00011458396 0.47026652 14.273544 -0.00028076896 0.99999994 0.00028324686 0 -0.47026646 -0.0003820085 0.8825244 0 0 0 0 1 0.8825697 0.00011460277 0.47018164 14.273544 -0.00028075645 0.99999994 0.0002832615 0 -0.47018158 -0.0003820045 0.8825696 0 0 0 0 1 0.8826214 0.00011462435 0.47008446 14.273544 -0.00028074213 0.99999994 0.00028327823 0 -0.4700844 -0.00038199994 0.8826214 0 0 0 0 1 0.88267815 0.00011464794 0.46997797 14.273544 -0.0002807264 0.99999994 0.00028329654 0 -0.46997792 -0.0003819949 0.8826781 0 0 0 0 1 0.8827381 0.00011467293 0.46986523 14.273544 -0.0002807098 0.99999994 0.00028331595 0 -0.46986517 -0.00038198958 0.8827381 0 0 0 0 1 0.88279986 0.00011469864 0.46974927 14.273544 -0.0002806927 0.99999994 0.00028333592 0 -0.4697492 -0.0003819841 0.8827998 0 0 0 0 1 0.8828616 0.00011472436 0.46963316 14.273544 -0.00028067557 0.99999994 0.0002833559 0 -0.4696331 -0.0003819786 0.8828616 0 0 0 0 1 0.8829219 0.00011474946 0.46951994 14.273544 -0.0002806589 0.99999994 0.00028337538 0 -0.46951988 -0.00038197328 0.8829218 0 0 0 0 1 0.8829789 0.00011477324 0.46941265 14.273544 -0.00028064306 0.99999994 0.00028339383 0 -0.4694126 -0.00038196816 0.88297886 0 0 0 0 1 0.88303113 0.00011479503 0.46931434 14.273544 -0.00028062856 0.99999994 0.00028341077 0 -0.46931428 -0.00038196356 0.88303113 0 0 0 0 1 0.883077 0.000114814124 0.46922806 14.273544 -0.00028061582 0.99999994 0.0002834256 0 -0.469228 -0.00038195946 0.88307697 0 0 0 0 1 0.8831149 0.00011482995 0.46915683 14.273544 -0.00028060534 0.99999994 0.00028343787 0 -0.46915677 -0.00038195608 0.8831148 0 0 0 0 1 0.88314307 0.0001148417 0.46910372 14.273544 -0.00028059748 0.99999994 0.000283447 0 -0.46910366 -0.00038195358 0.88314307 0 0 0 0 1 0.88316005 0.00011484878 0.46907175 14.273544 -0.00028059277 0.99999994 0.00028345248 0 -0.4690717 -0.00038195206 0.88316 0 0 0 0 1 0.88316417 0.00011485048 0.46906403 14.273544 -0.0002805916 0.99999994 0.0002834538 0 -0.46906397 -0.0003819517 0.8831641 0 0 0 0 1 0.8831538 0.000114846174 0.46908355 14.273544 -0.0002805945 0.99999994 0.00028345044 0 -0.4690835 -0.0003819526 0.88315374 0 0 0 0 1 0.88312733 0.000114835144 0.46913338 14.273544 -0.00028060185 0.99999994 0.00028344188 0 -0.46913332 -0.00038195497 0.8831273 0 0 0 0 1 0.88308316 0.000114816714 0.4692165 14.273544 -0.00028061413 0.99999994 0.0002834276 0 -0.46921644 -0.0003819589 0.8830831 0 0 0 0 1 0.8830196 0.000114790215 0.469336 14.273544 -0.00028063174 0.99999994 0.00028340705 0 -0.46933594 -0.00038196455 0.8830196 0 0 0 0 1 0.88293517 0.00011475501 0.46949497 14.273544 -0.0002806552 0.99999994 0.0002833797 0 -0.4694949 -0.00038197206 0.8829351 0 0 0 0 1 0.882828 0.00011471037 0.46969637 14.273544 -0.0002806849 0.99999994 0.000283345 0 -0.4696963 -0.0003819816 0.882828 0 0 0 0 1 0.8827209 0.00011466576 0.46989763 14.273544 -0.0002807146 0.99999994 0.00028331036 0 -0.46989757 -0.0003819911 0.8827209 0 0 0 0 1 0.8826364 0.00011463058 0.47005627 14.273544 -0.00028073796 0.99999994 0.0002832831 0 -0.4700562 -0.00038199863 0.8826364 0 0 0 0 1 0.882573 0.00011460418 0.47017533 14.273544 -0.0002807555 0.99999994 0.00028326258 0 -0.47017527 -0.00038200425 0.882573 0 0 0 0 1 0.882529 0.00011458585 0.47025797 14.273544 -0.00028076768 0.99999994 0.00028324832 0 -0.4702579 -0.0003820081 0.88252896 0 0 0 0 1 0.88250273 0.00011457494 0.4703073 14.273544 -0.00028077498 0.99999994 0.00028323985 0 -0.47030723 -0.00038201045 0.8825027 0 0 0 0 1 0.88249254 0.000114570685 0.47032636 14.273544 -0.00028077778 0.99999994 0.00028323656 0 -0.4703263 -0.00038201135 0.8824925 0 0 0 0 1 0.88249683 0.000114572475 0.47031832 14.273544 -0.0002807766 0.99999994 0.00028323795 0 -0.47031826 -0.000382011 0.8824968 0 0 0 0 1 0.88251394 0.000114579576 0.47028625 14.273544 -0.00028077187 0.99999994 0.00028324345 0 -0.4702862 -0.00038200946 0.8825139 0 0 0 0 1 0.8825422 0.00011459133 0.4702332 14.273544 -0.00028076404 0.99999994 0.0002832526 0 -0.47023314 -0.00038200695 0.88254213 0 0 0 0 1 0.8825799 0.000114607035 0.47016236 14.273544 -0.0002807536 0.99999994 0.0002832648 0 -0.4701623 -0.0003820036 0.88257986 0 0 0 0 1 0.8826255 0.00011462603 0.47007674 14.273544 -0.00028074096 0.99999994 0.0002832795 0 -0.47007668 -0.00038199953 0.88262546 0 0 0 0 1 0.8826773 0.00011464759 0.46997947 14.273544 -0.00028072664 0.99999994 0.0002832963 0 -0.4699794 -0.00038199496 0.8826773 0 0 0 0 1 0.88273364 0.000114671064 0.46987367 14.273544 -0.000280711 0.99999994 0.0002833145 0 -0.4698736 -0.00038199 0.88273364 0 0 0 0 1 0.8827929 0.00011469573 0.46976238 14.273544 -0.00028069463 0.99999994 0.00028333368 0 -0.46976233 -0.00038198472 0.88279283 0 0 0 0 1 0.8828534 0.00011472091 0.46964872 14.273544 -0.00028067786 0.99999994 0.0002833532 0 -0.46964866 -0.00038197933 0.8828533 0 0 0 0 1 0.8829134 0.00011474593 0.46953583 14.273544 -0.00028066122 0.99999994 0.00028337265 0 -0.46953577 -0.00038197404 0.88291335 0 0 0 0 1 0.8829714 0.000114770104 0.46942678 14.273544 -0.00028064512 0.99999994 0.00028339145 0 -0.46942672 -0.00038196886 0.88297135 0 0 0 0 1 0.8830257 0.00011479275 0.4693246 14.273544 -0.00028063005 0.99999994 0.00028340897 0 -0.46932453 -0.00038196403 0.88302565 0 0 0 0 1 0.88307464 0.00011481316 0.4692325 14.273544 -0.00028061648 0.99999994 0.00028342483 0 -0.46923244 -0.00038195963 0.88307464 0 0 0 0 1 0.8831166 0.00011483066 0.4691535 14.273544 -0.0002806048 0.99999994 0.00028343842 0 -0.46915343 -0.00038195594 0.8831166 0 0 0 0 1 0.8831499 0.000114844544 0.4690908 14.273544 -0.00028059556 0.99999994 0.00028344922 0 -0.46909073 -0.00038195294 0.88314986 0 0 0 0 1 0.883173 0.00011485418 0.46904737 14.273544 -0.00028058916 0.99999994 0.00028345667 0 -0.4690473 -0.0003819509 0.883173 0 0 0 0 1 0.88318413 0.00011485881 0.46902645 14.273544 -0.00028058607 0.99999994 0.00028346028 0 -0.4690264 -0.0003819499 0.8831841 0 0 0 0 1 0.8831817 0.000114857816 0.469031 14.273544 -0.00028058677 0.99999994 0.0002834595 0 -0.46903095 -0.0003819501 0.8831817 0 0 0 0 1 0.88316405 0.000114850445 0.4690642 14.273544 -0.00028059166 0.99999994 0.0002834538 0 -0.46906415 -0.0003819517 0.883164 0 0 0 0 1 0.88312954 0.00011483606 0.46912915 14.273544 -0.00028060123 0.99999994 0.0002834426 0 -0.4691291 -0.00038195477 0.88312954 0 0 0 0 1 0.88307655 0.00011481395 0.46922895 14.273544 -0.00028061596 0.99999994 0.00028342544 0 -0.4692289 -0.0003819595 0.8830765 0 0 0 0 1 0.88300335 0.00011478344 0.46936664 14.273544 -0.00028063628 0.99999994 0.00028340178 0 -0.46936658 -0.00038196603 0.88300335 0 0 0 0 1 0.88290834 0.00011474383 0.46954536 14.273544 -0.0002806626 0.99999994 0.00028337102 0 -0.4695453 -0.00038197445 0.8829083 0 0 0 0 1 0.88290834 0.00011474383 0.46954536 14.273544 -0.0002806626 0.99999994 0.00028337102 0 -0.4695453 -0.00038197445 0.8829083 0 0 0 0 1</float_array>
        <technique_common>
          <accessor source="#Motion_0_2_Head_transform_pose_array_id" count="61" stride="16">
            <param name="TRANSFORM" type="float4x4" />
          </accessor>
        </technique_common>
      </source>
      <sampler id="Motion_0_2_Head_transform_samp_id">
        <input semantic="INPUT" source="#Motion_0_2_Head_transform_frame_id" />
        <input semantic="INTERPOLATION" source="#Motion_0_2_Head_transform_interp_id" />
        <input semantic="OUTPUT" source="#Motion_0_2_Head_transform_pose_id" />
      </sampler>
      <channel source="#Motion_0_2_Head_transform_samp_id" target="Head_bone_id/transform" />
    </animation>
  </library_animations>
  <library_visual_scenes>
    <visual_scene id="PM_HighPoly_00_clip_id" name="PM_HighPoly_00_clip">
      <node id="pm0011_00_bone_id" name="pm0011_00" sid="pm0011_00" type="JOINT">
        <matrix sid="transform">1 0 0 0 0 1 0 0 0 0 1 0 0 0 0 1</matrix>
        <node id="Origin_bone_id" name="Origin" sid="Origin" type="JOINT">
          <matrix sid="transform">1 0 0 0 0 1 0 0 0 0 1 0 0 0 0 1</matrix>
          <node id="Waist_bone_id" name="Waist" sid="Waist" type="JOINT">
            <matrix sid="transform">6.852405E-08 -1 -3.063462E-07 0 0.21828754 3.1391647E-07 -0.9758845 7.951947 0.9758845 0 0.21828754 -13.151186 0 0 0 1</matrix>
            <node id="Spine1_bone_id" name="Spine1" sid="Spine1" type="JOINT">
              <matrix sid="transform">1 0 0 0 0 1 0 0 0 0 1 0 0 0 0 1</matrix>
              <node id="Spine2_bone_id" name="Spine2" sid="Spine2" type="JOINT">
                <matrix sid="transform">0.88407236 0 0.46735007 12.055121 0 1 0 0 -0.46735007 0 0.88407236 0 0 0 0 1</matrix>
                <node id="Head_bone_id" name="Head" sid="Head" type="JOINT">
                  <matrix sid="transform">0.88289744 0 0.46956587 14.273544 0 1 0 0 -0.46956587 0 0.88289744 0 0 0 0 1</matrix>
                </node>
              </node>
            </node>
            <node id="Hips_bone_id" name="Hips" sid="Hips" type="JOINT">
              <matrix sid="transform">-0.9857948 3.2584137E-07 -0.16795418 0 -3.2121272E-07 -1 -5.472642E-08 0 -0.16795418 0 0.9857948 0 0 0 0 1</matrix>
              <node id="Tail1_bone_id" name="Tail1" sid="Tail1" type="JOINT">
                <matrix sid="transform">0.99868417 0 0.051282495 9.888545 0 1 0 0 -0.051282495 0 0.99868417 0 0 0 0 1</matrix>
                <node id="Tail2_bone_id" name="Tail2" sid="Tail2" type="JOINT">
                  <matrix sid="transform">1 0 0 8.557178 0 1 0 0 0 0 1 0 0 0 0 1</matrix>
                </node>
              </node>
            </node>
          </node>
        </node>
        <node id="pm0011_00_Skin_bone_id" name="pm0011_00_Skin" sid="pm0011_00_Skin" type="JOINT">
          <matrix sid="transform">1 0 0 0 0 1 0 0 0 0 1 0 0 0 0 1</matrix>
        </node>
      </node>
    </visual_scene>
  </library_visual_scenes>
  <scene>
    <instance_visual_scene url="#PM_HighPoly_00_clip_id" />
  </scene>
</COLLADA>