<?xml version="1.0" encoding="utf-8"?>
<COLLADA xmlns:xsi="http://www.w3.org/2001/XMLSchema-instance" xmlns:xsd="http://www.w3.org/2001/XMLSchema" version="1.4.1" xmlns="http://www.collada.org/2005/11/COLLADASchema">
  <asset>
    <created>2026-02-17T05:46:52.0902655-05:00</created>
    <modified>2026-02-17T05:46:52.0902657-05:00</modified>
    <up_axis>Y_UP</up_axis>
  </asset>
  <library_animations>
    <animation id="Motion_374_Offset_Node_transform_id" name="Motion_374_Offset_Node_transform">
      <source id="Motion_374_Offset_Node_transform_frame_id" name="Motion_374_Offset_Node_transform_frame">
        <float_array id="Motion_374_Offset_Node_transform_frame_array_id" count="31">0 0.033333335 0.06666667 0.1 0.13333334 0.16666667 0.2 0.23333333 0.26666668 0.3 0.33333334 0.36666667 0.4 0.43333334 0.46666667 0.5 0.53333336 0.56666666 0.6 0.6333333 0.6666667 0.7 0.73333335 0.76666665 0.8 0.8333333 0.8666667 0.9 0.93333334 0.96666664 1</float_array>
        <technique_common>
          <accessor source="#Motion_374_Offset_Node_transform_frame_array_id" count="31" stride="1">
            <param name="TIME" type="float" />
          </accessor>
        </technique_common>
      </source>
      <source id="Motion_374_Offset_Node_transform_interp_id" name="Motion_374_Offset_Node_transform_interp">
        <Name_array id="Motion_374_Offset_Node_transform_interp_array_id" count="31">LINEAR LINEAR LINEAR LINEAR LINEAR LINEAR LINEAR LINEAR LINEAR LINEAR LINEAR LINEAR LINEAR LINEAR LINEAR LINEAR LINEAR LINEAR LINEAR LINEAR LINEAR LINEAR LINEAR LINEAR LINEAR LINEAR LINEAR LINEAR LINEAR LINEAR LINEAR</Name_array>
        <technique_common>
          <accessor source="#Motion_374_Offset_Node_transform_interp_array_id" count="31" stride="1">
            <param name="INTERPOLATION" type="Name" />
          </accessor>
        </technique_common>
      </source>
      <source id="Motion_374_Offset_Node_transform_pose_id" name="Motion_374_Offset_Node_transform_pose">
        <float_array id="Motion_374_Offset_Node_transform_pose_array_id" count="496">0.940243 -0.019805312 -0.33992776 7.9514914 -0.086975224 -0.97915983 -0.18352512 -4.5917892 -0.32920882 0.2021235 -0.9223707 0.15554214 0 0 0 1 0.9451489 -0.048762947 -0.3229795 7.662579 -0.11101048 -0.9778919 -0.17721424 -4.2360954 -0.30719745 0.20334795 -0.92966664 0.031270266 0 0 0 1 0.9522226 -0.099939846 -0.28858986 7.247534 -0.15079641 -0.975577 -0.15971705 -4.031521 -0.2655796 0.1956045 -0.9440371 -0.25527623 0 0 0 1 0.96582055 -0.14417091 -0.21541908 6.8444204 -0.17321455 -0.97722566 -0.12258273 -4.017643 -0.19284022 0.15570664 -0.9687971 0.14056292 0 0 0 1 0.94607264 -0.17448181 -0.27295178 7.1529346 -0.2032418 -0.9757987 -0.08068228 -5.094488 -0.25226843 0.13180651 -0.9586384 -0.08759244 0 0 0 1 0.19482315 0.9739891 -0.11571123 18.522781 0.8685454 -0.22612524 -0.44101733 -3.445036 -0.4557113 -0.014580056 -0.89000833 2.2551262 0 0 0 1 -0.43760276 0.89899683 0.01755096 32.111885 0.7901678 0.39379722 -0.46963644 -0.19959068 -0.42911327 -0.1916461 -0.8826852 5.2538786 0 0 0 1 -0.80254805 0.5908567 0.082494885 44.133705 0.49078643 0.7324946 -0.47178423 3.689394 -0.3391839 -0.3381421 -0.8778466 7.3429217 0 0 0 1 -0.9765097 0.1771897 0.12260708 52.014446 0.09979771 0.87622297 -0.47145915 7.910942 -0.19096884 -0.44814855 -0.8733233 7.918511 0 0 0 1 -0.96139145 -0.2416418 0.13166663 56.596985 -0.27510518 0.832425 -0.48102584 10.2800045 0.006633334 -0.4986762 -0.86676323 7.1022835 0 0 0 1 -0.7947587 -0.5941206 0.12401138 60.07075 -0.5767975 0.67579544 -0.4589172 9.5465145 0.18884589 -0.43625802 -0.8797816 6.835155 0 0 0 1 -0.550166 -0.82760876 0.11127093 62.35081 -0.78470796 0.4668163 -0.40781862 4.551386 0.28557116 -0.31168312 -0.9062576 7.720592 0 0 0 1 -0.2814927 -0.9538566 0.1044967 62.69653 -0.91014326 0.23090911 -0.34397715 -3.60952 0.30397564 -0.19193399 -0.9331453 8.701729 0 0 0 1 -0.0046163797 -0.99382573 0.11085689 60.364777 -0.95836467 -0.0272547 -0.28424382 -12.699237 0.28551018 -0.10755347 -0.95232177 8.834045 0 0 0 1 0.28154242 -0.95130795 0.12548637 55.464348 -0.92003137 -0.30477273 -0.24628325 -19.944695 0.2725361 -0.046112254 -0.96103954 7.9415355 0 0 0 1 0.5480492 -0.8229911 0.14942476 48.348923 -0.7950099 -0.56805015 -0.21278673 -23.400372 0.26000234 -0.0021765828 -0.9656055 6.715737 0 0 0 1 0.75277257 -0.63550997 0.17164066 39.01595 -0.6130419 -0.77178085 -0.16891915 -23.404997 0.23981881 0.021934755 -0.97056973 5.4652514 0 0 0 1 0.8870516 -0.41909993 0.19363557 28.186428 -0.40387213 -0.9076433 -0.11432734 -20.122541 0.22366662 0.023210231 -0.9743893 3.9986773 0 0 0 1 0.95409286 -0.20433071 0.21898793 17.28617 -0.19787884 -0.9788861 -0.05124352 -13.078575 0.22483487 0.0055580046 -0.9743811 2.7730184 0 0 0 1 0.9037999 -0.3163147 0.28825462 8.779024 -0.27182585 -0.94455147 -0.18420985 -5.4882183 0.33053958 0.08813378 -0.93966806 1.5020056 0 0 0 1 0.9562263 -0.16979538 0.23832917 7.483607 -0.085341945 -0.9408525 -0.32789192 -5.3427544 0.27990717 0.2931994 -0.9141586 1.1841137 0 0 0 1 0.9708861 -0.18813768 0.14827129 7.017427 -0.12401714 -0.9243535 -0.36081955 -5.110422 0.2049388 0.3319265 -0.9207742 0.9884287 0 0 0 1 0.9821255 -0.1684624 0.08396376 6.962883 -0.1298545 -0.9293288 -0.34566724 -4.846737 0.13626187 0.32858557 -0.9345931 0.8870239 0 0 0 1 0.9907534 -0.13179737 0.03220418 7.0121784 -0.11475059 -0.94064987 -0.3193895 -4.686192 0.07238757 0.31274077 -0.94707596 0.84340096 0 0 0 1 0.995349 -0.09438807 -0.019268712 7.132978 -0.09590246 -0.95193064 -0.29091415 -4.606178 0.009116348 0.29140905 -0.95655525 0.8210613 0 0 0 1 0.9948638 -0.065683834 -0.07701719 7.2948627 -0.08390934 -0.9607142 -0.26455086 -4.5883956 -0.0566148 0.2696545 -0.9612913 0.78350663 0 0 0 1 0.98876685 -0.04570256 -0.14230742 7.467414 -0.07914029 -0.9677713 -0.23907162 -4.614543 -0.12679486 0.24764834 -0.96051705 0.6942384 0 0 0 1 0.9748957 -0.03204173 -0.22034441 7.6373634 -0.08061311 -0.9732505 -0.2151393 -4.666321 -0.20755689 0.22750103 -0.95140064 0.5418051 0 0 0 1 0.95951444 -0.023778012 -0.280654 7.792829 -0.08224368 -0.97665787 -0.19843304 -4.717472 -0.26938456 0.2134814 -0.93907297 0.3707959 0 0 0 1 0.94682395 -0.019720443 -0.32114714 7.90547 -0.08429494 -0.97846067 -0.18843947 -4.7074413 -0.31051368 0.2054901 -0.92809236 0.22877377 0 0 0 1 0.94682395 -0.019720443 -0.32114714 7.90547 -0.08429494 -0.97846067 -0.18843947 -4.7074413 -0.31051368 0.2054901 -0.92809236 0.22877377 0 0 0 1</float_array>
        <technique_common>
          <accessor source="#Motion_374_Offset_Node_transform_pose_array_id" count="31" stride="16">
            <param name="TRANSFORM" type="float4x4" />
          </accessor>
        </technique_common>
      </source>
      <sampler id="Motion_374_Offset_Node_transform_samp_id">
        <input semantic="INPUT" source="#Motion_374_Offset_Node_transform_frame_id" />
        <input semantic="INTERPOLATION" source="#Motion_374_Offset_Node_transform_interp_id" />
        <input semantic="OUTPUT" source="#Motion_374_Offset_Node_transform_pose_id" />
      </sampler>
      <channel source="#Motion_374_Offset_Node_transform_samp_id" target="Offset_Node_bone_id/transform" />
    </animation>
  </library_animations>
  <library_visual_scenes>
    <visual_scene id="ob0204_00_fi_00_clip_id" name="ob0204_00_fi_00_clip">
      <node id="ob0204_00_fi_bone_id" name="ob0204_00_fi" sid="ob0204_00_fi" type="JOINT">
        <matrix sid="transform">1 0 0 0 0 1 0 0 0 0 1 0 0 0 0 1</matrix>
        <node id="Origin_bone_id" name="Origin" sid="Origin" type="JOINT">
          <matrix sid="transform">1 0 0 0 0 1 0 0 0 0 1 0 0 0 0 1</matrix>
          <node id="Loc_Attach_bone_id" name="Loc_Attach" sid="Loc_Attach" type="JOINT">
            <matrix sid="transform">1 0 0 0 0 1 0 0 0 0 1 0 0 0 0 1</matrix>
            <node id="Offset_Node_bone_id" name="Offset_Node" sid="Offset_Node" type="JOINT">
              <matrix sid="transform">3.1391647E-07 0 -1 0 0 1 0 0 1 0 3.1391647E-07 0 0 0 0 1</matrix>
            </node>
          </node>
        </node>
        <node id="ob0204_00_fi_BallSkin_bone_id" name="ob0204_00_fi_BallSkin" sid="ob0204_00_fi_BallSkin" type="JOINT">
          <matrix sid="transform">1 0 0 0 0 1 0 0 0 0 1 0 0 0 0 1</matrix>
        </node>
      </node>
    </visual_scene>
  </library_visual_scenes>
  <scene>
    <instance_visual_scene url="#ob0204_00_fi_00_clip_id" />
  </scene>
</COLLADA>