<?xml version="1.0" encoding="utf-8"?>
<COLLADA xmlns:xsi="http://www.w3.org/2001/XMLSchema-instance" xmlns:xsd="http://www.w3.org/2001/XMLSchema" version="1.4.1" xmlns="http://www.collada.org/2005/11/COLLADASchema">
  <asset>
    <created>2026-02-17T05:46:48.7911341-05:00</created>
    <modified>2026-02-17T05:46:48.7911343-05:00</modified>
    <up_axis>Y_UP</up_axis>
  </asset>
  <library_animations>
    <animation id="Motion_54_Waist_transform_id" name="Motion_54_Waist_transform">
      <source id="Motion_54_Waist_transform_frame_id" name="Motion_54_Waist_transform_frame">
        <float_array id="Motion_54_Waist_transform_frame_array_id" count="16">0 0.033333335 0.06666667 0.1 0.13333334 0.16666667 0.2 0.23333333 0.26666668 0.3 0.33333334 0.36666667 0.4 0.43333334 0.46666667 0.5</float_array>
        <technique_common>
          <accessor source="#Motion_54_Waist_transform_frame_array_id" count="16" stride="1">
            <param name="TIME" type="float" />
          </accessor>
        </technique_common>
      </source>
      <source id="Motion_54_Waist_transform_interp_id" name="Motion_54_Waist_transform_interp">
        <Name_array id="Motion_54_Waist_transform_interp_array_id" count="16">LINEAR LINEAR LINEAR LINEAR LINEAR LINEAR LINEAR LINEAR LINEAR LINEAR LINEAR LINEAR LINEAR LINEAR LINEAR LINEAR</Name_array>
        <technique_common>
          <accessor source="#Motion_54_Waist_transform_interp_array_id" count="16" stride="1">
            <param name="INTERPOLATION" type="Name" />
          </accessor>
        </technique_common>
      </source>
      <source id="Motion_54_Waist_transform_pose_id" name="Motion_54_Waist_transform_pose">
        <float_array id="Motion_54_Waist_transform_pose_array_id" count="256">-0.055947065 -0.9895007 -0.1332595 -3.784588E-05 0.99613446 -0.06437147 0.059769 53.53599 -0.06771959 -0.12940049 0.9892773 0 0 0 0 1 -0.05584252 -0.9894658 -0.133563 0.0026368843 0.9961621 -0.06424463 0.0594448 53.53599 -0.06739931 -0.12973085 0.9892559 0 0 0 0 1 -0.0548234 -0.989468 -0.1339689 0.008552754 0.9962504 -0.06319904 0.059085455 53.53599 -0.06692986 -0.13022731 0.9892225 0 0 0 0 1 -0.052026868 -0.9895529 -0.13445503 0.018529586 0.99644405 -0.060374618 0.0587708 53.53599 -0.066274494 -0.13091925 0.9891753 0 0 0 0 1 -0.047736645 -0.98969346 -0.13501182 0.033387195 0.99671274 -0.05605495 0.058494303 53.53599 -0.06545949 -0.13177569 0.9891159 0 0 0 0 1 -0.04228711 -0.9898567 -0.13562995 0.05394542 0.9970205 -0.050573945 0.058245413 53.53599 -0.06451395 -0.13276282 0.989046 0 0 0 0 1 -0.036013126 -0.9900128 -0.13629986 0.081024066 0.99733394 -0.044266343 0.0580135 53.53599 -0.06346761 -0.13384724 0.98896754 0 0 0 0 1 -0.029249907 -0.9901375 -0.13701162 0.115443 0.99762565 -0.0374676 0.057787504 53.53599 -0.062351055 -0.13499601 0.9888824 0 0 0 0 1 -0.022026181 -0.99022174 -0.13775185 0.15802197 0.9978838 -0.030206561 0.057579603 53.53599 -0.061177615 -0.13619207 0.9887917 0 0 0 0 1 -0.014302254 -0.9902649 -0.13845982 0.20664823 0.99809575 -0.022448778 0.0574548 53.53599 -0.06000371 -0.13737442 0.9887001 0 0 0 0 1 -0.006312132 -0.9902608 -0.13908195 0.25795442 0.9982441 -0.014431834 0.057450034 53.53599 -0.05889772 -0.13847512 0.988613 0 0 0 0 1 0.0016294122 -0.9902046 -0.13961442 0.31087855 0.9983219 -0.0064707994 0.057544854 53.53599 -0.057884604 -0.1394739 0.9885324 0 0 0 0 1 0.008962452 -0.9901031 -0.14005576 0.3643586 0.9983337 0.0008750558 0.057699274 53.53599 -0.05700566 -0.14033951 0.988461 0 0 0 0 1 0.015082598 -0.9899792 -0.14040525 0.41733256 0.99829954 0.0070019364 0.057869248 53.53599 -0.056306247 -0.14103931 0.9884015 0 0 0 0 1 0.019385695 -0.98986775 -0.14066266 0.46873856 0.99825186 0.011306405 0.058010623 53.53599 -0.055832457 -0.14154135 0.9883566 0 0 0 0 1 0.019385695 -0.98986775 -0.14066266 0.46873856 0.99825186 0.011306405 0.058010623 53.53599 -0.055832457 -0.14154135 0.9883566 0 0 0 0 1</float_array>
        <technique_common>
          <accessor source="#Motion_54_Waist_transform_pose_array_id" count="16" stride="16">
            <param name="TRANSFORM" type="float4x4" />
          </accessor>
        </technique_common>
      </source>
      <sampler id="Motion_54_Waist_transform_samp_id">
        <input semantic="INPUT" source="#Motion_54_Waist_transform_frame_id" />
        <input semantic="INTERPOLATION" source="#Motion_54_Waist_transform_interp_id" />
        <input semantic="OUTPUT" source="#Motion_54_Waist_transform_pose_id" />
      </sampler>
      <channel source="#Motion_54_Waist_transform_samp_id" target="Waist_bone_id/transform" />
    </animation>
    <animation id="Motion_54_Hips_transform_id" name="Motion_54_Hips_transform">
      <source id="Motion_54_Hips_transform_frame_id" name="Motion_54_Hips_transform_frame">
        <float_array id="Motion_54_Hips_transform_frame_array_id" count="16">0 0.033333335 0.06666667 0.1 0.13333334 0.16666667 0.2 0.23333333 0.26666668 0.3 0.33333334 0.36666667 0.4 0.43333334 0.46666667 0.5</float_array>
        <technique_common>
          <accessor source="#Motion_54_Hips_transform_frame_array_id" count="16" stride="1">
            <param name="TIME" type="float" />
          </accessor>
        </technique_common>
      </source>
      <source id="Motion_54_Hips_transform_interp_id" name="Motion_54_Hips_transform_interp">
        <Name_array id="Motion_54_Hips_transform_interp_array_id" count="16">LINEAR LINEAR LINEAR LINEAR LINEAR LINEAR LINEAR LINEAR LINEAR LINEAR LINEAR LINEAR LINEAR LINEAR LINEAR LINEAR</Name_array>
        <technique_common>
          <accessor source="#Motion_54_Hips_transform_interp_array_id" count="16" stride="1">
            <param name="INTERPOLATION" type="Name" />
          </accessor>
        </technique_common>
      </source>
      <source id="Motion_54_Hips_transform_pose_id" name="Motion_54_Hips_transform_pose">
        <float_array id="Motion_54_Hips_transform_pose_array_id" count="256">-1 -1.509958E-07 0 -0.010002 1.509958E-07 -1 0 0 0 0 1 0 0 0 0 1 -0.9999994 -0.0012608944 -3.1740423E-05 -0.010002 0.0012609216 -0.99999905 -0.00087164674 0 -3.064133E-05 -0.0008716861 0.99999964 0 0 0 0 1 -0.9999943 -0.003471647 -9.92154E-05 -0.010002 0.003471863 -0.99999166 -0.0022667544 0 -9.134517E-05 -0.002267085 0.99999744 0 0 0 0 1 -0.9999777 -0.006696147 -0.00020186629 -0.010002 0.0066969497 -0.9999685 -0.0042775725 0 -0.00017321666 -0.004278829 0.9999908 0 0 0 0 1 -0.99993944 -0.0109970495 -0.00034178162 -0.010002 0.010999173 -0.9999149 -0.006997868 0 -0.0002647967 -0.007001204 0.99997544 0 0 0 0 1 -0.99986863 -0.01619512 -0.00052155345 -0.010002 0.016199647 -0.99981534 -0.010332877 0 -0.00035411498 -0.01033997 0.9999465 0 0 0 0 1 -0.9997598 -0.02191156 -0.00074027653 -0.010002 0.021919793 -0.9996613 -0.01403171 0 -0.00043256916 -0.014044564 0.9999013 0 0 0 0 1 -0.99960995 -0.027910145 -0.0009950713 -0.010002 0.027923519 -0.9994488 -0.01795406 0 -0.0004934224 -0.017974844 0.9998383 0 0 0 0 1 -0.9994222 -0.033956483 -0.0012797517 -0.010002 0.033976406 -0.99918103 -0.021957744 0 -0.00053309626 -0.021988545 0.99975806 0 0 0 0 1 -0.99920535 -0.03981858 -0.0015845116 -0.010002 0.039846282 -0.9988699 -0.025898613 0 -0.0005514751 -0.025941178 0.9996633 0 0 0 0 1 -0.99897313 -0.045266505 -0.0018959471 -0.010002 0.045302834 -0.9985337 -0.029630665 0 -0.0005518905 -0.02968613 0.9995591 0 0 0 0 1 -0.9987433 -0.050071694 -0.002197418 -0.010002 0.05011697 -0.9981979 -0.033006296 0 -0.0005407768 -0.033074938 0.9994527 0 0 0 0 1 -0.9985378 -0.054008126 -0.0024697953 -0.010002 0.054062 -0.9978931 -0.03587676 0 -0.0005269549 -0.035957806 0.9993532 0 0 0 0 1 -0.998379 -0.05685032 -0.0026925183 -0.010002 0.056911662 -0.9976522 -0.038092718 0 -0.0005206136 -0.03818421 0.99927056 0 0 0 0 1 -0.9982904 -0.058373377 -0.0028450405 -0.010002 0.058440246 -0.99750865 -0.03950498 0 -0.00053191406 -0.03960372 0.9992153 0 0 0 0 1 -0.9982904 -0.058373377 -0.0028450405 -0.010002 0.058440246 -0.99750865 -0.03950498 0 -0.00053191406 -0.03960372 0.9992153 0 0 0 0 1</float_array>
        <technique_common>
          <accessor source="#Motion_54_Hips_transform_pose_array_id" count="16" stride="16">
            <param name="TRANSFORM" type="float4x4" />
          </accessor>
        </technique_common>
      </source>
      <sampler id="Motion_54_Hips_transform_samp_id">
        <input semantic="INPUT" source="#Motion_54_Hips_transform_frame_id" />
        <input semantic="INTERPOLATION" source="#Motion_54_Hips_transform_interp_id" />
        <input semantic="OUTPUT" source="#Motion_54_Hips_transform_pose_id" />
      </sampler>
      <channel source="#Motion_54_Hips_transform_samp_id" target="Hips_bone_id/transform" />
    </animation>
    <animation id="Motion_54_RThigh_transform_id" name="Motion_54_RThigh_transform">
      <source id="Motion_54_RThigh_transform_frame_id" name="Motion_54_RThigh_transform_frame">
        <float_array id="Motion_54_RThigh_transform_frame_array_id" count="16">0 0.033333335 0.06666667 0.1 0.13333334 0.16666667 0.2 0.23333333 0.26666668 0.3 0.33333334 0.36666667 0.4 0.43333334 0.46666667 0.5</float_array>
        <technique_common>
          <accessor source="#Motion_54_RThigh_transform_frame_array_id" count="16" stride="1">
            <param name="TIME" type="float" />
          </accessor>
        </technique_common>
      </source>
      <source id="Motion_54_RThigh_transform_interp_id" name="Motion_54_RThigh_transform_interp">
        <Name_array id="Motion_54_RThigh_transform_interp_array_id" count="16">LINEAR LINEAR LINEAR LINEAR LINEAR LINEAR LINEAR LINEAR LINEAR LINEAR LINEAR LINEAR LINEAR LINEAR LINEAR LINEAR</Name_array>
        <technique_common>
          <accessor source="#Motion_54_RThigh_transform_interp_array_id" count="16" stride="1">
            <param name="INTERPOLATION" type="Name" />
          </accessor>
        </technique_common>
      </source>
      <source id="Motion_54_RThigh_transform_pose_id" name="Motion_54_RThigh_transform_pose">
        <float_array id="Motion_54_RThigh_transform_pose_array_id" count="256">-0.25697088 -0.4180764 -0.87130827 10.510002 0.36695594 0.7918511 -0.48817536 -7.2 0.894041 -0.4451786 -0.050067067 0 0 0 0 1 -0.25769448 -0.4183281 -0.8709736 10.510002 0.36681795 0.79157656 -0.48872396 -7.2 0.8938893 -0.44543025 -0.050534606 0 0 0 0 1 -0.2589141 -0.41927212 -0.87015766 10.510002 0.36636853 0.7909281 -0.49010903 -7.2 0.89372116 -0.44569457 -0.051174283 0 0 0 0 1 -0.260597 -0.4210862 -0.86877817 10.510002 0.36544728 0.78988826 -0.4924681 -7.2 0.8936092 -0.4458284 -0.051957726 0 0 0 0 1 -0.26270986 -0.42394626 -0.8667486 10.510002 0.36389232 0.78843486 -0.49593633 -7.2 0.89362514 -0.4456905 -0.05285871 0 0 0 0 1 -0.2652173 -0.42802492 -0.86397594 10.510002 0.36153933 0.7865394 -0.5006447 -7.2 0.89383954 -0.4451409 -0.053856015 0 0 0 0 1 -0.26802492 -0.4332626 -0.8604919 10.510002 0.3583364 0.7842579 -0.5064925 -7.2 0.89429176 -0.44409814 -0.0549469 0 0 0 0 1 -0.27099347 -0.43926537 -0.85650945 10.510002 0.35448033 0.7817308 -0.5130698 -7.2 0.8949336 -0.44265437 -0.05613303 0 0 0 0 1 -0.27402222 -0.44570482 -0.85220844 10.510002 0.35018075 0.7790555 -0.5200442 -7.2 0.89570385 -0.44093058 -0.0574013 0 0 0 0 1 -0.27701128 -0.4522577 -0.8477781 10.510002 0.34565133 0.776339 -0.5270891 -7.2 0.89654326 -0.43904528 -0.0587312 0 0 0 0 1 -0.27986443 -0.45860636 -0.84341925 10.510002 0.34110975 0.77370006 -0.5338842 -7.2 0.89739627 -0.43711376 -0.060096025 0 0 0 0 1 -0.2824881 -0.46443915 -0.839343 10.510002 0.33677804 0.77126825 -0.5401164 -7.2 0.89820987 -0.4352488 -0.06146109 0 0 0 0 1 -0.28479207 -0.46944907 -0.8357698 10.510002 0.3328813 0.7691835 -0.54547846 -7.2 0.8989347 -0.43356 -0.06278658 0 0 0 0 1 -0.28656065 -0.47321922 -0.8330344 10.510002 0.3295272 0.76776534 -0.5494981 -7.2 0.899608 -0.43197215 -0.06407273 0 0 0 0 1 -0.28776085 -0.47541946 -0.83136654 10.510002 0.32691193 0.7671823 -0.5518696 -7.2 0.90017915 -0.43058997 -0.06534481 0 0 0 0 1 -0.28776085 -0.47541946 -0.83136654 10.510002 0.32691193 0.7671823 -0.5518696 -7.2 0.90017915 -0.43058997 -0.06534481 0 0 0 0 1</float_array>
        <technique_common>
          <accessor source="#Motion_54_RThigh_transform_pose_array_id" count="16" stride="16">
            <param name="TRANSFORM" type="float4x4" />
          </accessor>
        </technique_common>
      </source>
      <sampler id="Motion_54_RThigh_transform_samp_id">
        <input semantic="INPUT" source="#Motion_54_RThigh_transform_frame_id" />
        <input semantic="INTERPOLATION" source="#Motion_54_RThigh_transform_interp_id" />
        <input semantic="OUTPUT" source="#Motion_54_RThigh_transform_pose_id" />
      </sampler>
      <channel source="#Motion_54_RThigh_transform_samp_id" target="RThigh_bone_id/transform" />
    </animation>
    <animation id="Motion_54_RLeg_transform_id" name="Motion_54_RLeg_transform">
      <source id="Motion_54_RLeg_transform_frame_id" name="Motion_54_RLeg_transform_frame">
        <float_array id="Motion_54_RLeg_transform_frame_array_id" count="16">0 0.033333335 0.06666667 0.1 0.13333334 0.16666667 0.2 0.23333333 0.26666668 0.3 0.33333334 0.36666667 0.4 0.43333334 0.46666667 0.5</float_array>
        <technique_common>
          <accessor source="#Motion_54_RLeg_transform_frame_array_id" count="16" stride="1">
            <param name="TIME" type="float" />
          </accessor>
        </technique_common>
      </source>
      <source id="Motion_54_RLeg_transform_interp_id" name="Motion_54_RLeg_transform_interp">
        <Name_array id="Motion_54_RLeg_transform_interp_array_id" count="16">LINEAR LINEAR LINEAR LINEAR LINEAR LINEAR LINEAR LINEAR LINEAR LINEAR LINEAR LINEAR LINEAR LINEAR LINEAR LINEAR</Name_array>
        <technique_common>
          <accessor source="#Motion_54_RLeg_transform_interp_array_id" count="16" stride="1">
            <param name="INTERPOLATION" type="Name" />
          </accessor>
        </technique_common>
      </source>
      <source id="Motion_54_RLeg_transform_pose_id" name="Motion_54_RLeg_transform_pose">
        <float_array id="Motion_54_RLeg_transform_pose_array_id" count="256">0.011150658 0 0.99993783 33.899998 0 1 0 0 -0.99993783 0 0.011150658 0 0 0 0 1 0.011700153 0 0.9999316 33.899998 0 1 0 0 -0.9999316 0 0.011700153 0 0 0 0 1 0.012674987 0 0.9999196 33.899998 0 1 0 0 -0.9999196 0 0.012674987 0 0 0 0 1 0.014001906 0 0.99990195 33.899998 0 1 0 0 -0.99990195 0 0.014001906 0 0 0 0 1 0.015608013 0 0.9998782 33.899998 0 1 0 0 -0.9998782 0 0.015608013 0 0 0 0 1 0.017419994 0 0.9998483 33.899998 0 1 0 0 -0.9998483 0 0.017419994 0 0 0 0 1 0.019365072 0 0.9998125 33.899998 0 1 0 0 -0.9998125 0 0.019365072 0 0 0 0 1 0.021369755 0 0.99977165 33.899998 0 1 0 0 -0.99977165 0 0.021369755 0 0 0 0 1 0.023361206 0 0.9997271 33.899998 0 1 0 0 -0.9997271 0 0.023361206 0 0 0 0 1 0.02526623 0 0.9996807 33.899998 0 1 0 0 -0.9996807 0 0.02526623 0 0 0 0 1 0.027011633 0 0.9996351 33.899998 0 1 0 0 -0.9996351 0 0.027011633 0 0 0 0 1 0.028524637 0 0.99959314 33.899998 0 1 0 0 -0.99959314 0 0.028524637 0 0 0 0 1 0.029731989 0 0.9995579 33.899998 0 1 0 0 -0.9995579 0 0.029731989 0 0 0 0 1 0.030560791 0 0.99953294 33.899998 0 1 0 0 -0.99953294 0 0.030560791 0 0 0 0 1 0.03093791 0 0.99952126 33.899998 0 1 0 0 -0.99952126 0 0.03093791 0 0 0 0 1 0.03093791 0 0.99952126 33.899998 0 1 0 0 -0.99952126 0 0.03093791 0 0 0 0 1</float_array>
        <technique_common>
          <accessor source="#Motion_54_RLeg_transform_pose_array_id" count="16" stride="16">
            <param name="TRANSFORM" type="float4x4" />
          </accessor>
        </technique_common>
      </source>
      <sampler id="Motion_54_RLeg_transform_samp_id">
        <input semantic="INPUT" source="#Motion_54_RLeg_transform_frame_id" />
        <input semantic="INTERPOLATION" source="#Motion_54_RLeg_transform_interp_id" />
        <input semantic="OUTPUT" source="#Motion_54_RLeg_transform_pose_id" />
      </sampler>
      <channel source="#Motion_54_RLeg_transform_samp_id" target="RLeg_bone_id/transform" />
    </animation>
    <animation id="Motion_54_RFoot_transform_id" name="Motion_54_RFoot_transform">
      <source id="Motion_54_RFoot_transform_frame_id" name="Motion_54_RFoot_transform_frame">
        <float_array id="Motion_54_RFoot_transform_frame_array_id" count="16">0 0.033333335 0.06666667 0.1 0.13333334 0.16666667 0.2 0.23333333 0.26666668 0.3 0.33333334 0.36666667 0.4 0.43333334 0.46666667 0.5</float_array>
        <technique_common>
          <accessor source="#Motion_54_RFoot_transform_frame_array_id" count="16" stride="1">
            <param name="TIME" type="float" />
          </accessor>
        </technique_common>
      </source>
      <source id="Motion_54_RFoot_transform_interp_id" name="Motion_54_RFoot_transform_interp">
        <Name_array id="Motion_54_RFoot_transform_interp_array_id" count="16">LINEAR LINEAR LINEAR LINEAR LINEAR LINEAR LINEAR LINEAR LINEAR LINEAR LINEAR LINEAR LINEAR LINEAR LINEAR LINEAR</Name_array>
        <technique_common>
          <accessor source="#Motion_54_RFoot_transform_interp_array_id" count="16" stride="1">
            <param name="INTERPOLATION" type="Name" />
          </accessor>
        </technique_common>
      </source>
      <source id="Motion_54_RFoot_transform_pose_id" name="Motion_54_RFoot_transform_pose">
        <float_array id="Motion_54_RFoot_transform_pose_array_id" count="256">0.44934005 0.17797202 -0.8754538 33.9 -0.29521173 0.9544854 0.042516485 0 0.8431747 0.2393399 0.48142797 0 0 0 0 1 0.45017868 0.17658873 -0.8753031 33.9 -0.29495963 0.9546343 0.040892273 0 0.84281546 0.2397703 0.48184258 0 0 0 0 1 0.4515592 0.17408606 -0.87509334 33.9 -0.29435357 0.95493764 0.038079657 0 0.84228873 0.24039164 0.48245376 0 0 0 0 1 0.4534248 0.17059603 -0.87481594 33.9 -0.29336938 0.9553854 0.034251772 0 0.8416296 0.2411136 0.48324305 0 0 0 0 1 0.4557171 0.1662503 -0.8744614 33.9 -0.2919824 0.9559661 0.029581979 0 0.8408735 0.24184634 0.48419225 0 0 0 0 1 0.45837653 0.16117993 -0.8740206 33.9 -0.2901678 0.9566686 0.024243906 0 0.8400557 0.24249981 0.48528367 0 0 0 0 1 0.4613437 0.15551576 -0.8734855 33.9 -0.28790137 0.95748305 0.018411525 0 0.8392108 0.24298361 0.486502 0 0 0 0 1 0.46455884 0.14938842 -0.8728506 33.9 -0.28515965 0.9584016 0.012259439 0 0.8383729 0.24320655 0.4878335 0 0 0 0 1 0.46796232 0.14292844 -0.8721139 33.9 -0.28192067 0.9594192 0.0059625804 0 0.837575 0.24307667 0.4892665 0 0 0 0 1 0.4714654 0.1363803 -0.8712753 33.9 -0.27827692 0.96050084 -0.00023476034 0 0.8368287 0.2425665 0.49079442 0 0 0 0 1 0.4749779 0.12996465 -0.87034774 33.9 -0.27440414 0.9615947 -0.006161429 0 0.83612096 0.24175358 0.4923991 0 0 0 0 1 0.47844028 0.12377041 -0.8693537 33.9 -0.27041382 0.9626723 -0.0117633715 0 0.8354468 0.24071333 0.49405044 0 0 0 0 1 0.4817949 0.11792465 -0.86831295 33.9 -0.26638338 0.96371853 -0.016924739 0 0.8348135 0.23945841 0.49572784 0 0 0 0 1 0.48498613 0.11255545 -0.8672484 33.9 -0.262392 0.96472114 -0.021530017 0 0.8342296 0.2380008 0.49741006 0 0 0 0 1 0.48796195 0.10779154 -0.86618364 33.9 -0.2585199 0.9656702 -0.025464311 0 0.8337029 0.23635133 0.4990766 0 0 0 0 1 0.48796195 0.10779154 -0.86618364 33.9 -0.2585199 0.9656702 -0.025464311 0 0.8337029 0.23635133 0.4990766 0 0 0 0 1</float_array>
        <technique_common>
          <accessor source="#Motion_54_RFoot_transform_pose_array_id" count="16" stride="16">
            <param name="TRANSFORM" type="float4x4" />
          </accessor>
        </technique_common>
      </source>
      <sampler id="Motion_54_RFoot_transform_samp_id">
        <input semantic="INPUT" source="#Motion_54_RFoot_transform_frame_id" />
        <input semantic="INTERPOLATION" source="#Motion_54_RFoot_transform_interp_id" />
        <input semantic="OUTPUT" source="#Motion_54_RFoot_transform_pose_id" />
      </sampler>
      <channel source="#Motion_54_RFoot_transform_samp_id" target="RFoot_bone_id/transform" />
    </animation>
    <animation id="Motion_54_LThigh_transform_id" name="Motion_54_LThigh_transform">
      <source id="Motion_54_LThigh_transform_frame_id" name="Motion_54_LThigh_transform_frame">
        <float_array id="Motion_54_LThigh_transform_frame_array_id" count="16">0 0.033333335 0.06666667 0.1 0.13333334 0.16666667 0.2 0.23333333 0.26666668 0.3 0.33333334 0.36666667 0.4 0.43333334 0.46666667 0.5</float_array>
        <technique_common>
          <accessor source="#Motion_54_LThigh_transform_frame_array_id" count="16" stride="1">
            <param name="TIME" type="float" />
          </accessor>
        </technique_common>
      </source>
      <source id="Motion_54_LThigh_transform_interp_id" name="Motion_54_LThigh_transform_interp">
        <Name_array id="Motion_54_LThigh_transform_interp_array_id" count="16">LINEAR LINEAR LINEAR LINEAR LINEAR LINEAR LINEAR LINEAR LINEAR LINEAR LINEAR LINEAR LINEAR LINEAR LINEAR LINEAR</Name_array>
        <technique_common>
          <accessor source="#Motion_54_LThigh_transform_interp_array_id" count="16" stride="1">
            <param name="INTERPOLATION" type="Name" />
          </accessor>
        </technique_common>
      </source>
      <source id="Motion_54_LThigh_transform_pose_id" name="Motion_54_LThigh_transform_pose">
        <float_array id="Motion_54_LThigh_transform_pose_array_id" count="256">0.12697959 -0.22172895 -0.9668053 10.510002 -0.14512095 0.96005404 -0.23924069 7.199996 0.98123187 0.17068236 0.089729786 0 0 0 0 1 0.12642306 -0.22292595 -0.9666029 10.510002 -0.14506127 0.95979154 -0.24032776 7.199996 0.98131263 0.1705996 0.089001834 0 0 0 0 1 0.12557542 -0.22565065 -0.9660811 10.510002 -0.1450103 0.959156 -0.24288222 7.199996 0.98142904 0.17059177 0.087724745 0 0 0 0 1 0.12448692 -0.23072492 -0.9650228 10.510002 -0.14481382 0.9579491 -0.24771449 7.199996 0.9815966 0.17058584 0.08583993 0 0 0 0 1 0.12323856 -0.23838928 -0.96331865 10.510002 -0.14489967 0.9559923 -0.25511345 7.199996 0.9817415 0.17102435 0.08327258 0 0 0 0 1 0.12193179 -0.24827868 -0.960984 10.510002 -0.14597595 0.95319384 -0.26478776 7.199996 0.9817451 0.1725666 0.07998192 0 0 0 0 1 0.12061423 -0.2599276 -0.95806575 10.510002 -0.14793006 0.94962937 -0.27626222 7.199996 0.98161554 0.17504789 0.07608771 0 0 0 0 1 0.119330406 -0.27280614 -0.9546398 10.510002 -0.15057927 0.94541484 -0.28899243 7.199996 0.9813695 0.17823456 0.071737826 0 0 0 0 1 0.11812645 -0.28638875 -0.95080364 10.510002 -0.15373746 0.9406879 -0.30244192 7.199996 0.98102546 0.18190052 0.067091405 0 0 0 0 1 0.11704838 -0.30015656 -0.9466815 10.510002 -0.15721509 0.9356139 -0.31608567 7.199996 0.98060346 0.18582997 0.062322974 0 0 0 0 1 0.11614281 -0.31359863 -0.94242597 10.510002 -0.16081922 0.93038946 -0.32941246 7.199996 0.9801265 0.18981908 0.057625353 0 0 0 0 1 0.11545551 -0.32621366 -0.93821883 10.510002 -0.16435379 0.92524254 -0.341927 7.199996 0.9796213 0.1936772 0.0532099 0 0 0 0 1 0.11504018 -0.3372988 -0.9343422 10.510002 -0.16767341 0.92049724 -0.35294545 7.199996 0.97910744 0.19726725 0.049338162 0 0 0 0 1 0.11485398 -0.34591788 -0.9312085 10.510002 -0.17066272 0.9166034 -0.36154175 7.199996 0.97861266 0.20044708 0.04624027 0 0 0 0 1 0.11477047 -0.3512336 -0.92922693 10.510002 -0.17317557 0.91401076 -0.36687136 7.199996 0.97818094 0.2030254 0.044076383 0 0 0 0 1 0.11477047 -0.3512336 -0.92922693 10.510002 -0.17317557 0.91401076 -0.36687136 7.199996 0.97818094 0.2030254 0.044076383 0 0 0 0 1</float_array>
        <technique_common>
          <accessor source="#Motion_54_LThigh_transform_pose_array_id" count="16" stride="16">
            <param name="TRANSFORM" type="float4x4" />
          </accessor>
        </technique_common>
      </source>
      <sampler id="Motion_54_LThigh_transform_samp_id">
        <input semantic="INPUT" source="#Motion_54_LThigh_transform_frame_id" />
        <input semantic="INTERPOLATION" source="#Motion_54_LThigh_transform_interp_id" />
        <input semantic="OUTPUT" source="#Motion_54_LThigh_transform_pose_id" />
      </sampler>
      <channel source="#Motion_54_LThigh_transform_samp_id" target="LThigh_bone_id/transform" />
    </animation>
    <animation id="Motion_54_LLeg_transform_id" name="Motion_54_LLeg_transform">
      <source id="Motion_54_LLeg_transform_frame_id" name="Motion_54_LLeg_transform_frame">
        <float_array id="Motion_54_LLeg_transform_frame_array_id" count="16">0 0.033333335 0.06666667 0.1 0.13333334 0.16666667 0.2 0.23333333 0.26666668 0.3 0.33333334 0.36666667 0.4 0.43333334 0.46666667 0.5</float_array>
        <technique_common>
          <accessor source="#Motion_54_LLeg_transform_frame_array_id" count="16" stride="1">
            <param name="TIME" type="float" />
          </accessor>
        </technique_common>
      </source>
      <source id="Motion_54_LLeg_transform_interp_id" name="Motion_54_LLeg_transform_interp">
        <Name_array id="Motion_54_LLeg_transform_interp_array_id" count="16">LINEAR LINEAR LINEAR LINEAR LINEAR LINEAR LINEAR LINEAR LINEAR LINEAR LINEAR LINEAR LINEAR LINEAR LINEAR LINEAR</Name_array>
        <technique_common>
          <accessor source="#Motion_54_LLeg_transform_interp_array_id" count="16" stride="1">
            <param name="INTERPOLATION" type="Name" />
          </accessor>
        </technique_common>
      </source>
      <source id="Motion_54_LLeg_transform_pose_id" name="Motion_54_LLeg_transform_pose">
        <float_array id="Motion_54_LLeg_transform_pose_array_id" count="256">0.00923723 -3.3336767E-07 0.9999573 33.899998 -6.0070596E-07 1 3.38931E-07 0 -0.9999573 -6.038111E-07 0.00923723 0 0 0 0 1 0.008885145 -3.3345805E-07 0.9999605 33.899998 -6.007369E-07 1 3.3880906E-07 0 -0.9999605 -6.0372355E-07 0.008885145 0 0 0 0 1 0.008182824 -3.3363818E-07 0.99996644 33.899998 -6.007985E-07 1 3.385657E-07 0 -0.99996644 -6.0354876E-07 0.008182824 0 0 0 0 1 0.0071822405 -3.3389472E-07 0.99997425 33.899998 -6.0088615E-07 1 3.382192E-07 0 -0.99997425 -6.0329984E-07 0.0071822405 0 0 0 0 1 0.0059352517 -3.3421406E-07 0.9999824 33.899998 -6.0099495E-07 1 3.377871E-07 0 -0.9999824 -6.029892E-07 0.0059352517 0 0 0 0 1 0.0044934154 -3.345831E-07 0.9999899 33.899998 -6.0112035E-07 1 3.372876E-07 0 -0.9999899 -6.026299E-07 0.0044934154 0 0 0 0 1 0.0029085875 -3.3498816E-07 0.9999958 33.899998 -6.0125757E-07 1 3.3673842E-07 0 -0.9999958 -6.022345E-07 0.0029085875 0 0 0 0 1 0.0012328625 -3.354159E-07 0.9999992 33.899998 -6.0140195E-07 1 3.3615765E-07 0 -0.9999992 -6.0181594E-07 0.0012328625 0 0 0 0 1 -0.0004825592 -3.358533E-07 0.9999999 33.899998 -6.015491E-07 1 3.3556307E-07 0 -0.9999999 -6.0138717E-07 -0.0004825592 0 0 0 0 1 -0.0021852255 -3.362868E-07 0.9999976 33.899998 -6.0169447E-07 1 3.349728E-07 0 -0.9999976 -6.00961E-07 -0.0021852255 0 0 0 0 1 -0.0038237572 -3.3670358E-07 0.99999267 33.899998 -6.018337E-07 1 3.344047E-07 0 -0.99999267 -6.005506E-07 -0.0038237572 0 0 0 0 1 -0.005346298 -3.3709023E-07 0.99998564 33.899998 -6.019624E-07 1 3.3387676E-07 0 -0.99998564 -6.001688E-07 -0.005346298 0 0 0 0 1 -0.0067008734 -3.3743396E-07 0.9999775 33.899998 -6.0207657E-07 1 3.33407E-07 0 -0.9999775 -5.998289E-07 -0.0067008734 0 0 0 0 1 -0.007835984 -3.3772173E-07 0.99996936 33.899998 -6.021719E-07 1 3.3301336E-07 0 -0.99996936 -5.995439E-07 -0.007835984 0 0 0 0 1 -0.008699536 -3.379405E-07 0.99996215 33.899998 -6.022441E-07 1 3.3271382E-07 0 -0.99996215 -5.993269E-07 -0.008699536 0 0 0 0 1 -0.008699536 -3.379405E-07 0.99996215 33.899998 -6.022441E-07 1 3.3271382E-07 0 -0.99996215 -5.993269E-07 -0.008699536 0 0 0 0 1</float_array>
        <technique_common>
          <accessor source="#Motion_54_LLeg_transform_pose_array_id" count="16" stride="16">
            <param name="TRANSFORM" type="float4x4" />
          </accessor>
        </technique_common>
      </source>
      <sampler id="Motion_54_LLeg_transform_samp_id">
        <input semantic="INPUT" source="#Motion_54_LLeg_transform_frame_id" />
        <input semantic="INTERPOLATION" source="#Motion_54_LLeg_transform_interp_id" />
        <input semantic="OUTPUT" source="#Motion_54_LLeg_transform_pose_id" />
      </sampler>
      <channel source="#Motion_54_LLeg_transform_samp_id" target="LLeg_bone_id/transform" />
    </animation>
    <animation id="Motion_54_LFoot_transform_id" name="Motion_54_LFoot_transform">
      <source id="Motion_54_LFoot_transform_frame_id" name="Motion_54_LFoot_transform_frame">
        <float_array id="Motion_54_LFoot_transform_frame_array_id" count="16">0 0.033333335 0.06666667 0.1 0.13333334 0.16666667 0.2 0.23333333 0.26666668 0.3 0.33333334 0.36666667 0.4 0.43333334 0.46666667 0.5</float_array>
        <technique_common>
          <accessor source="#Motion_54_LFoot_transform_frame_array_id" count="16" stride="1">
            <param name="TIME" type="float" />
          </accessor>
        </technique_common>
      </source>
      <source id="Motion_54_LFoot_transform_interp_id" name="Motion_54_LFoot_transform_interp">
        <Name_array id="Motion_54_LFoot_transform_interp_array_id" count="16">LINEAR LINEAR LINEAR LINEAR LINEAR LINEAR LINEAR LINEAR LINEAR LINEAR LINEAR LINEAR LINEAR LINEAR LINEAR LINEAR</Name_array>
        <technique_common>
          <accessor source="#Motion_54_LFoot_transform_interp_array_id" count="16" stride="1">
            <param name="INTERPOLATION" type="Name" />
          </accessor>
        </technique_common>
      </source>
      <source id="Motion_54_LFoot_transform_pose_id" name="Motion_54_LFoot_transform_pose">
        <float_array id="Motion_54_LFoot_transform_pose_array_id" count="256">0.018020272 0.23941618 -0.97074986 33.9 -0.0012476221 0.9709121 0.23943305 4E-06 0.9998369 -0.003103532 0.017794788 0 0 0 0 1 0.01902622 0.23888835 -0.9708607 33.9 0.00069180876 0.97103304 0.23894434 4E-06 0.9998188 -0.005217865 0.018309832 0 0 0 0 1 0.020727158 0.23805553 -0.9710304 33.9 0.004160404 0.97121006 0.23818839 4E-06 0.99977654 -0.008976869 0.019140065 0 0 0 0 1 0.023047984 0.23708254 -0.97121614 33.9 0.009261161 0.97138184 0.23734277 4E-06 0.99969155 -0.014464885 0.020192742 0 0 0 0 1 0.025911689 0.23613197 -0.9713754 33.9 0.016096778 0.9714772 0.23658608 4E-06 0.99953455 -0.02176635 0.021371663 0 0 0 0 1 0.029238641 0.23536488 -0.97146714 33.9 0.02476906 0.9714137 0.23609743 4E-06 0.99926555 -0.030965514 0.022573054 0 0 0 0 1 0.032951117 0.23494114 -0.97145087 33.9 0.03537731 0.97109544 0.23605517 4E-06 0.9988306 -0.04214561 0.023687124 0 0 0 0 1 0.0369215 0.23489565 -0.9713191 33.9 0.047489993 0.97047126 0.23649578 4E-06 0.9981891 -0.054859713 0.024676085 0 0 0 0 1 0.04099524 0.23508808 -0.9711092 33.9 0.06026169 0.9695751 0.23726067 4E-06 0.9973405 -0.06824726 0.025581181 0 0 0 0 1 0.045055985 0.23541962 -0.9708489 33.9 0.07316919 0.96844786 0.23823309 4E-06 0.9963013 -0.081770055 0.02640891 0 0 0 0 1 0.04899293 0.23579755 -0.9705664 33.9 0.08569009 0.96715826 0.23929505 4E-06 0.9951165 -0.09489168 0.027178407 0 0 0 0 1 0.05269897 0.23613492 -0.97029024 33.9 0.097303875 0.96580255 0.24032758 4E-06 0.9938585 -0.107078 0.027919948 0 0 0 0 1 0.055940986 0.23635344 -0.9700555 33.9 0.10750668 0.9645024 0.24120012 4E-06 0.99262935 -0.11778042 0.028545618 0 0 0 0 1 0.058537424 0.23637927 -0.96989596 33.9 0.11579153 0.96339655 0.24178378 4E-06 0.9915471 -0.12645914 0.029024065 0 0 0 0 1 0.0604645 0.23613518 -0.9698372 33.9 0.12163651 0.96263075 0.24196398 4E-06 0.99073136 -0.13259783 0.029482365 0 0 0 0 1 0.0604645 0.23613518 -0.9698372 33.9 0.12163651 0.96263075 0.24196398 4E-06 0.99073136 -0.13259783 0.029482365 0 0 0 0 1</float_array>
        <technique_common>
          <accessor source="#Motion_54_LFoot_transform_pose_array_id" count="16" stride="16">
            <param name="TRANSFORM" type="float4x4" />
          </accessor>
        </technique_common>
      </source>
      <sampler id="Motion_54_LFoot_transform_samp_id">
        <input semantic="INPUT" source="#Motion_54_LFoot_transform_frame_id" />
        <input semantic="INTERPOLATION" source="#Motion_54_LFoot_transform_interp_id" />
        <input semantic="OUTPUT" source="#Motion_54_LFoot_transform_pose_id" />
      </sampler>
      <channel source="#Motion_54_LFoot_transform_samp_id" target="LFoot_bone_id/transform" />
    </animation>
    <animation id="Motion_54_Spine2_transform_id" name="Motion_54_Spine2_transform">
      <source id="Motion_54_Spine2_transform_frame_id" name="Motion_54_Spine2_transform_frame">
        <float_array id="Motion_54_Spine2_transform_frame_array_id" count="16">0 0.033333335 0.06666667 0.1 0.13333334 0.16666667 0.2 0.23333333 0.26666668 0.3 0.33333334 0.36666667 0.4 0.43333334 0.46666667 0.5</float_array>
        <technique_common>
          <accessor source="#Motion_54_Spine2_transform_frame_array_id" count="16" stride="1">
            <param name="TIME" type="float" />
          </accessor>
        </technique_common>
      </source>
      <source id="Motion_54_Spine2_transform_interp_id" name="Motion_54_Spine2_transform_interp">
        <Name_array id="Motion_54_Spine2_transform_interp_array_id" count="16">LINEAR LINEAR LINEAR LINEAR LINEAR LINEAR LINEAR LINEAR LINEAR LINEAR LINEAR LINEAR LINEAR LINEAR LINEAR LINEAR</Name_array>
        <technique_common>
          <accessor source="#Motion_54_Spine2_transform_interp_array_id" count="16" stride="1">
            <param name="INTERPOLATION" type="Name" />
          </accessor>
        </technique_common>
      </source>
      <source id="Motion_54_Spine2_transform_pose_id" name="Motion_54_Spine2_transform_pose">
        <float_array id="Motion_54_Spine2_transform_pose_array_id" count="256">0.99677575 0.07970443 -0.0092388075 12.099998 -0.08015014 0.99445045 -0.068148784 0 0.0037557755 0.06866955 0.9976324 0 0 0 0 1 0.99681205 0.07940302 -0.0078005036 12.099998 -0.079752065 0.9944439 -0.06870891 0 0.0023014678 0.06911197 0.9976063 0 0 0 0 1 0.9969095 0.07844396 -0.004245134 12.099998 -0.07854888 0.9944713 -0.06969115 0 -0.001245186 0.06980921 0.9975596 0 0 0 0 1 0.99709034 0.07622461 0.0007957495 12.099998 -0.07597464 0.99456394 -0.071207024 0 -0.0062191514 0.070939384 0.99746126 0 0 0 0 1 0.9973314 0.072727226 0.006391977 12.099998 -0.07206515 0.99469906 -0.073351495 0 -0.011692745 0.07269511 0.99728566 0 0 0 0 1 0.9975753 0.0686239 0.011589958 12.099998 -0.067547366 0.99479985 -0.07622715 0 -0.016760694 0.075259455 0.9970231 0 0 0 0 1 0.9978088 0.06433525 0.015444908 12.099998 -0.0629045 0.994812 -0.079950154 0 -0.020508394 0.07880342 0.9966792 0 0 0 0 1 0.9980551 0.059881337 0.01732681 12.099998 -0.058210894 0.99470854 -0.08465459 0 -0.022304356 0.083481334 0.9962597 0 0 0 0 1 0.9983312 0.055026636 0.017517556 12.099998 -0.053225942 0.9944729 -0.090502165 0 -0.022400763 0.08941875 0.9957422 0 0 0 0 1 0.9986237 0.049800865 0.016446507 12.099998 -0.047969326 0.99408275 -0.09745971 0 -0.021202767 0.09653666 0.9951036 0 0 0 0 1 0.99891526 0.044232026 0.014552849 12.099998 -0.042464107 0.993558 -0.10506794 0 -0.019106466 0.10433599 0.99435854 0 0 0 0 1 0.99918884 0.038353946 0.01227111 12.099998 -0.03672787 0.99293286 -0.11285117 0 -0.016512677 0.11230895 0.9935361 0 0 0 0 1 0.9994292 0.032260623 0.010026658 12.099998 -0.030821849 0.9922553 -0.120330885 0 -0.013830952 0.119953156 0.99268323 0 0 0 0 1 0.9996111 0.026655376 0.00819897 12.099998 -0.025399163 0.991574 -0.12702718 0 -0.011515844 0.12676954 0.99186534 0 0 0 0 1 0.99972147 0.022496466 0.0071366495 12.099998 -0.021353725 0.9909588 -0.13245629 0 -0.010051924 0.13226698 0.99116313 0 0 0 0 1 0.99972147 0.022496466 0.0071366495 12.099998 -0.021353725 0.9909588 -0.13245629 0 -0.010051924 0.13226698 0.99116313 0 0 0 0 1</float_array>
        <technique_common>
          <accessor source="#Motion_54_Spine2_transform_pose_array_id" count="16" stride="16">
            <param name="TRANSFORM" type="float4x4" />
          </accessor>
        </technique_common>
      </source>
      <sampler id="Motion_54_Spine2_transform_samp_id">
        <input semantic="INPUT" source="#Motion_54_Spine2_transform_frame_id" />
        <input semantic="INTERPOLATION" source="#Motion_54_Spine2_transform_interp_id" />
        <input semantic="OUTPUT" source="#Motion_54_Spine2_transform_pose_id" />
      </sampler>
      <channel source="#Motion_54_Spine2_transform_samp_id" target="Spine2_bone_id/transform" />
    </animation>
    <animation id="Motion_54_Spine3_transform_id" name="Motion_54_Spine3_transform">
      <source id="Motion_54_Spine3_transform_frame_id" name="Motion_54_Spine3_transform_frame">
        <float_array id="Motion_54_Spine3_transform_frame_array_id" count="16">0 0.033333335 0.06666667 0.1 0.13333334 0.16666667 0.2 0.23333333 0.26666668 0.3 0.33333334 0.36666667 0.4 0.43333334 0.46666667 0.5</float_array>
        <technique_common>
          <accessor source="#Motion_54_Spine3_transform_frame_array_id" count="16" stride="1">
            <param name="TIME" type="float" />
          </accessor>
        </technique_common>
      </source>
      <source id="Motion_54_Spine3_transform_interp_id" name="Motion_54_Spine3_transform_interp">
        <Name_array id="Motion_54_Spine3_transform_interp_array_id" count="16">LINEAR LINEAR LINEAR LINEAR LINEAR LINEAR LINEAR LINEAR LINEAR LINEAR LINEAR LINEAR LINEAR LINEAR LINEAR LINEAR</Name_array>
        <technique_common>
          <accessor source="#Motion_54_Spine3_transform_interp_array_id" count="16" stride="1">
            <param name="INTERPOLATION" type="Name" />
          </accessor>
        </technique_common>
      </source>
      <source id="Motion_54_Spine3_transform_pose_id" name="Motion_54_Spine3_transform_pose">
        <float_array id="Motion_54_Spine3_transform_pose_array_id" count="256">0.9754038 -0.045548595 0.21566817 12.099991 0.046834968 0.99890226 -0.0008550538 0 -0.21539247 0.010934833 0.97646636 0 0 0 0 1 0.97542024 -0.04650737 0.21538892 12.099991 0.049275022 0.9987571 -0.0074947514 0 -0.21477267 0.017923826 0.97649956 0 0 0 0 1 0.9754259 -0.04779538 0.21508119 12.099991 0.054266017 0.99823135 -0.024277488 0 -0.21354043 0.03535249 0.97629434 0 0 0 0 1 0.97540164 -0.050090827 0.2146684 12.099991 0.061640568 0.99697006 -0.047446482 0 -0.21164131 0.05951166 0.97553384 0 0 0 0 1 0.9753933 -0.052957278 0.21401745 12.099991 0.069809064 0.9949615 -0.071960665 0 -0.20912829 0.08513031 0.97417563 0 0 0 0 1 0.9754437 -0.0562378 0.21294798 12.099991 0.07748346 0.9926681 -0.092770495 0 -0.20616947 0.10699234 0.9726494 0 0 0 0 1 0.9756098 -0.059626292 0.21125889 12.099991 0.08354842 0.9908309 -0.10617815 0 -0.20299083 0.12123878 0.97164595 0 0 0 0 1 0.9759311 -0.062665366 0.20888172 12.099991 0.08784098 0.9896461 -0.11351023 0 -0.19960581 0.12912653 0.971331 0 0 0 0 1 0.97641647 -0.06518326 0.20582028 12.099991 0.090734385 0.98894924 -0.11724603 0 -0.19590335 0.13315594 0.97154075 0 0 0 0 1 0.9770848 -0.06696103 0.20204316 12.099991 0.0922528 0.98866236 -0.11847451 0 -0.1918193 0.1343987 0.9721843 0 0 0 0 1 0.9779352 -0.06790055 0.19756576 12.099991 0.09230237 0.9888282 -0.11704335 0 -0.18741128 0.1326966 0.9732773 0 0 0 0 1 0.9789393 -0.067810126 0.19256067 12.099991 0.09087222 0.98936534 -0.113571495 0 -0.18281156 0.12867802 0.9746907 0 0 0 0 1 0.9800693 -0.06650172 0.18719447 12.099991 0.087944925 0.9901794 -0.10867563 0 -0.17812899 0.12297244 0.9762929 0 0 0 0 1 0.981262 -0.06421662 0.18166186 12.099991 0.08391922 0.991142 -0.102932766 0 -0.1734427 0.116248935 0.977959 0 0 0 0 1 0.98236936 -0.062439665 0.17621508 12.099991 0.08042145 0.9920479 -0.09681594 0 -0.16876864 0.10928048 0.979579 0 0 0 0 1 0.98236936 -0.062439665 0.17621508 12.099991 0.08042145 0.9920479 -0.09681594 0 -0.16876864 0.10928048 0.979579 0 0 0 0 1</float_array>
        <technique_common>
          <accessor source="#Motion_54_Spine3_transform_pose_array_id" count="16" stride="16">
            <param name="TRANSFORM" type="float4x4" />
          </accessor>
        </technique_common>
      </source>
      <sampler id="Motion_54_Spine3_transform_samp_id">
        <input semantic="INPUT" source="#Motion_54_Spine3_transform_frame_id" />
        <input semantic="INTERPOLATION" source="#Motion_54_Spine3_transform_interp_id" />
        <input semantic="OUTPUT" source="#Motion_54_Spine3_transform_pose_id" />
      </sampler>
      <channel source="#Motion_54_Spine3_transform_samp_id" target="Spine3_bone_id/transform" />
    </animation>
    <animation id="Motion_54_RShoulder_transform_id" name="Motion_54_RShoulder_transform">
      <source id="Motion_54_RShoulder_transform_frame_id" name="Motion_54_RShoulder_transform_frame">
        <float_array id="Motion_54_RShoulder_transform_frame_array_id" count="16">0 0.033333335 0.06666667 0.1 0.13333334 0.16666667 0.2 0.23333333 0.26666668 0.3 0.33333334 0.36666667 0.4 0.43333334 0.46666667 0.5</float_array>
        <technique_common>
          <accessor source="#Motion_54_RShoulder_transform_frame_array_id" count="16" stride="1">
            <param name="TIME" type="float" />
          </accessor>
        </technique_common>
      </source>
      <source id="Motion_54_RShoulder_transform_interp_id" name="Motion_54_RShoulder_transform_interp">
        <Name_array id="Motion_54_RShoulder_transform_interp_array_id" count="16">LINEAR LINEAR LINEAR LINEAR LINEAR LINEAR LINEAR LINEAR LINEAR LINEAR LINEAR LINEAR LINEAR LINEAR LINEAR LINEAR</Name_array>
        <technique_common>
          <accessor source="#Motion_54_RShoulder_transform_interp_array_id" count="16" stride="1">
            <param name="INTERPOLATION" type="Name" />
          </accessor>
        </technique_common>
      </source>
      <source id="Motion_54_RShoulder_transform_pose_id" name="Motion_54_RShoulder_transform_pose">
        <float_array id="Motion_54_RShoulder_transform_pose_array_id" count="256">-0.6211182 -0.7734816 -0.12624827 14.14009 0.781875 -0.62260365 -0.032192525 3.93 -0.053702302 -0.118705705 0.9914762 -0.201935 0 0 0 1 -0.61837125 -0.7756525 -0.12641318 14.14009 0.783775 -0.62046206 -0.026903432 3.93 -0.057566863 -0.11571579 0.9916128 -0.201935 0 0 0 1 -0.6110333 -0.78136605 -0.12690689 14.14009 0.7887446 -0.6145668 -0.013770871 3.93 -0.06723267 -0.10851159 0.991819 -0.201935 0 0 0 1 -0.6000122 -0.7897652 -0.12750158 14.14009 0.7959117 -0.6053966 0.00442712 3.93 -0.0806854 -0.09882368 0.9918285 -0.201935 0 0 0 1 -0.5865948 -0.7997003 -0.12800589 14.14009 0.80428094 -0.5937706 0.023838997 3.93 -0.09507021 -0.08896887 0.99148685 -0.201935 0 0 0 1 -0.5720234 -0.8101272 -0.12838812 14.14009 0.81317574 -0.5806036 0.040558238 3.93 -0.10739991 -0.08120184 0.9908943 -0.201935 0 0 0 1 -0.557457 -0.820154 -0.12879896 14.14009 0.82208675 -0.5669658 0.052184522 3.93 -0.11582395 -0.07679328 0.9902967 -0.201935 0 0 0 1 -0.5439724 -0.8291268 -0.12900825 14.14009 0.8302123 -0.5541314 0.06071425 3.93 -0.12182731 -0.07407737 0.9897831 -0.201935 0 0 0 1 -0.532321 -0.83665615 -0.12899865 14.14009 0.83698326 -0.5429989 0.06790468 3.93 -0.12685902 -0.07182263 0.98931706 -0.201935 0 0 0 1 -0.5186727 -0.8451148 -0.12945867 14.14009 0.8448719 -0.5298418 0.073885955 3.93 -0.13103473 -0.07105338 0.98882824 -0.201935 0 0 0 1 -0.5058929 -0.8527777 -0.1297785 14.14009 0.8534703 -0.5166702 0.06811834 3.93 -0.12514251 -0.07630152 0.9892004 -0.201935 0 0 0 1 -0.495744 -0.8586744 -0.13006315 14.14009 0.8613653 -0.5052594 0.052564137 3.93 -0.11085109 -0.08597352 0.9901114 -0.201935 0 0 0 1 -0.48806262 -0.8630405 -0.13021408 14.14009 0.86811787 -0.49545336 0.029953793 3.93 -0.09036635 -0.09842184 0.9910333 -0.201935 0 0 0 1 -0.48316705 -0.865815 -0.13005412 14.14009 0.8731298 -0.4874853 0.0015725866 3.93 -0.064761035 -0.112794295 0.9915056 -0.201935 0 0 0 1 -0.48090315 -0.86712414 -0.12972206 14.14009 0.8758134 -0.48201227 -0.024798676 3.93 -0.0410241 -0.12553808 0.99124026 -0.201935 0 0 0 1 -0.48090315 -0.86712414 -0.12972206 14.14009 0.8758134 -0.48201227 -0.024798676 3.93 -0.0410241 -0.12553808 0.99124026 -0.201935 0 0 0 1</float_array>
        <technique_common>
          <accessor source="#Motion_54_RShoulder_transform_pose_array_id" count="16" stride="16">
            <param name="TRANSFORM" type="float4x4" />
          </accessor>
        </technique_common>
      </source>
      <sampler id="Motion_54_RShoulder_transform_samp_id">
        <input semantic="INPUT" source="#Motion_54_RShoulder_transform_frame_id" />
        <input semantic="INTERPOLATION" source="#Motion_54_RShoulder_transform_interp_id" />
        <input semantic="OUTPUT" source="#Motion_54_RShoulder_transform_pose_id" />
      </sampler>
      <channel source="#Motion_54_RShoulder_transform_samp_id" target="RShoulder_bone_id/transform" />
    </animation>
    <animation id="Motion_54_RArm_transform_id" name="Motion_54_RArm_transform">
      <source id="Motion_54_RArm_transform_frame_id" name="Motion_54_RArm_transform_frame">
        <float_array id="Motion_54_RArm_transform_frame_array_id" count="16">0 0.033333335 0.06666667 0.1 0.13333334 0.16666667 0.2 0.23333333 0.26666668 0.3 0.33333334 0.36666667 0.4 0.43333334 0.46666667 0.5</float_array>
        <technique_common>
          <accessor source="#Motion_54_RArm_transform_frame_array_id" count="16" stride="1">
            <param name="TIME" type="float" />
          </accessor>
        </technique_common>
      </source>
      <source id="Motion_54_RArm_transform_interp_id" name="Motion_54_RArm_transform_interp">
        <Name_array id="Motion_54_RArm_transform_interp_array_id" count="16">LINEAR LINEAR LINEAR LINEAR LINEAR LINEAR LINEAR LINEAR LINEAR LINEAR LINEAR LINEAR LINEAR LINEAR LINEAR LINEAR</Name_array>
        <technique_common>
          <accessor source="#Motion_54_RArm_transform_interp_array_id" count="16" stride="1">
            <param name="INTERPOLATION" type="Name" />
          </accessor>
        </technique_common>
      </source>
      <source id="Motion_54_RArm_transform_pose_id" name="Motion_54_RArm_transform_pose">
        <float_array id="Motion_54_RArm_transform_pose_array_id" count="256">0.7986936 -0.4602126 -0.3876763 8.161548 0.59472406 0.70180565 0.3921378 0 0.09160668 -0.5437584 0.8342272 0 0 0 0 1 0.80279505 -0.46210882 -0.37679648 8.161548 0.59066594 0.7026718 0.39669386 0 0.08144857 -0.54102474 0.8370534 0 0 0 0 1 0.81099933 -0.46931952 -0.34931257 8.161548 0.58232814 0.7050487 0.40472254 0 0.05633819 -0.5316442 0.84509194 0 0 0 0 1 0.8199879 -0.48158464 -0.30934775 8.161548 0.5719406 0.71057606 0.40983602 0 0.022444353 -0.5129891 0.8581016 0 0 0 0 1 0.82590425 -0.49855497 -0.2632968 8.161548 0.56367767 0.72000533 0.4047961 0 -0.012237996 -0.48273733 0.8756797 0 0 0 0 1 0.82688165 -0.519724 -0.21483418 8.161548 0.56083 0.7337619 0.38348806 0 -0.04167083 -0.4375847 0.8982111 0 0 0 0 1 0.81999373 -0.5470484 -0.16836968 8.161548 0.56916195 0.74820495 0.3409457 0 -0.060538765 -0.37540296 0.92488253 0 0 0 0 1 0.80129105 -0.58638364 -0.11868832 8.161548 0.5939018 0.7556821 0.2760892 0 -0.07220354 -0.291717 0.9537756 0 0 0 0 1 0.7667463 -0.6392832 -0.058456462 8.161548 0.6372968 0.7470813 0.18900345 0 -0.077154994 -0.1821718 0.9802349 0 0 0 0 1 0.7268688 -0.68674284 -0.006784197 8.161548 0.68373317 0.72268367 0.101179555 0 -0.0645815 -0.07818285 0.99484503 0 0 0 0 1 0.69038475 -0.7220889 0.04423384 8.161548 0.7220271 0.69156766 0.020273501 0 -0.04522996 0.017941518 0.9988155 0 0 0 0 1 0.6625727 -0.7434256 0.09119086 8.161548 0.74861026 0.6612186 -0.04870982 0 -0.02408496 0.100540206 0.9946414 0 0 0 0 1 0.64930403 -0.7505875 0.12256721 8.161548 0.76052576 0.64034534 -0.10751024 0 0.0022105053 0.16302234 0.9866199 0 0 0 0 1 0.6468947 -0.74944955 0.14089939 8.161548 0.7620128 0.6281636 -0.15731198 0 0.029389508 0.20913142 0.9774458 0 0 0 0 1 0.6487402 -0.745678 0.15198828 8.161548 0.75919634 0.62037504 -0.19686483 0 0.052508038 0.24310307 0.9685782 0 0 0 0 1 0.6487402 -0.745678 0.15198828 8.161548 0.75919634 0.62037504 -0.19686483 0 0.052508038 0.24310307 0.9685782 0 0 0 0 1</float_array>
        <technique_common>
          <accessor source="#Motion_54_RArm_transform_pose_array_id" count="16" stride="16">
            <param name="TRANSFORM" type="float4x4" />
          </accessor>
        </technique_common>
      </source>
      <sampler id="Motion_54_RArm_transform_samp_id">
        <input semantic="INPUT" source="#Motion_54_RArm_transform_frame_id" />
        <input semantic="INTERPOLATION" source="#Motion_54_RArm_transform_interp_id" />
        <input semantic="OUTPUT" source="#Motion_54_RArm_transform_pose_id" />
      </sampler>
      <channel source="#Motion_54_RArm_transform_samp_id" target="RArm_bone_id/transform" />
    </animation>
    <animation id="Motion_54_RForeArm_transform_id" name="Motion_54_RForeArm_transform">
      <source id="Motion_54_RForeArm_transform_frame_id" name="Motion_54_RForeArm_transform_frame">
        <float_array id="Motion_54_RForeArm_transform_frame_array_id" count="16">0 0.033333335 0.06666667 0.1 0.13333334 0.16666667 0.2 0.23333333 0.26666668 0.3 0.33333334 0.36666667 0.4 0.43333334 0.46666667 0.5</float_array>
        <technique_common>
          <accessor source="#Motion_54_RForeArm_transform_frame_array_id" count="16" stride="1">
            <param name="TIME" type="float" />
          </accessor>
        </technique_common>
      </source>
      <source id="Motion_54_RForeArm_transform_interp_id" name="Motion_54_RForeArm_transform_interp">
        <Name_array id="Motion_54_RForeArm_transform_interp_array_id" count="16">LINEAR LINEAR LINEAR LINEAR LINEAR LINEAR LINEAR LINEAR LINEAR LINEAR LINEAR LINEAR LINEAR LINEAR LINEAR LINEAR</Name_array>
        <technique_common>
          <accessor source="#Motion_54_RForeArm_transform_interp_array_id" count="16" stride="1">
            <param name="INTERPOLATION" type="Name" />
          </accessor>
        </technique_common>
      </source>
      <source id="Motion_54_RForeArm_transform_pose_id" name="Motion_54_RForeArm_transform_pose">
        <float_array id="Motion_54_RForeArm_transform_pose_array_id" count="256">0.37118572 -1.7484554E-07 -0.92855865 22.9 6.490016E-08 1 -1.6235435E-07 0 0.92855865 0 0.37118572 0 0 0 0 1 0.35180002 3.5587942E-05 -0.93607515 22.9 -1.2519839E-05 1 3.331299E-05 0 0.93607515 0 0.35180002 0 0 0 0 1 0.30687374 4.989306E-05 -0.9517502 22.9 -1.5310872E-05 1 4.748573E-05 0 0.9517502 0 0.30687374 0 0 0 0 1 0.24756694 4.7508867E-05 -0.9688708 22.9 -1.1761624E-05 1 4.6029956E-05 0 0.9688708 -1.8189894E-12 0.24756694 0 0 0 0 1 0.18820709 3.3203756E-05 -0.98212934 22.9 -6.2491827E-06 1 3.2610384E-05 0 0.98212934 0 0.18820709 0 0 0 0 1 0.13810885 1.1746082E-05 -0.990417 22.9 -1.622237E-06 1 1.1633521E-05 0 0.990417 4.5474735E-13 0.13810885 0 0 0 0 1 0.09659684 -1.2095776E-05 -0.99532366 22.9 1.1684137E-06 1 -1.2039211E-05 0 0.99532366 4.5474735E-13 0.09659684 0 0 0 0 1 0.06362885 -3.3553442E-05 -0.99797356 22.9 2.134966E-06 1 -3.3485452E-05 0 0.99797356 0 0.06362885 0 0 0 0 1 0.039061546 -4.7858564E-05 -0.9992368 22.9 1.8694318E-06 1 -4.7822035E-05 0 0.9992368 0 0.039061546 0 0 0 0 1 0.022692144 -5.0242743E-05 -0.9997425 22.9 1.1401153E-06 1 -5.0229806E-05 0 0.9997425 1.8189894E-12 0.022692144 0 0 0 0 1 0.014286339 -3.593763E-05 -0.99989796 22.9 5.1341704E-07 1 -3.5933965E-05 0 0.99989796 0 0.014286339 0 0 0 0 1 0.014840424 -1.7484555E-07 -0.99988985 22.9 2.5947813E-09 1 -1.748263E-07 0 0.99988985 0 0.014840424 0 0 0 0 1 0.030461192 -1.7484555E-07 -0.999536 22.9 5.326001E-09 1 -1.7476441E-07 0 0.999536 7.1054274E-15 0.030461192 0 0 0 0 1 0.064632535 0 -0.9979091 22.9 0 1 0 0 0.9979091 0 0.064632535 0 0 0 0 1 0.09960216 -1.7484555E-07 -0.99502736 22.9 1.7414997E-08 1 -1.739761E-07 0 0.99502736 -7.1054274E-15 0.09960216 0 0 0 0 1 0.09960216 -1.7484555E-07 -0.99502736 22.9 1.7414997E-08 1 -1.739761E-07 0 0.99502736 -7.1054274E-15 0.09960216 0 0 0 0 1</float_array>
        <technique_common>
          <accessor source="#Motion_54_RForeArm_transform_pose_array_id" count="16" stride="16">
            <param name="TRANSFORM" type="float4x4" />
          </accessor>
        </technique_common>
      </source>
      <sampler id="Motion_54_RForeArm_transform_samp_id">
        <input semantic="INPUT" source="#Motion_54_RForeArm_transform_frame_id" />
        <input semantic="INTERPOLATION" source="#Motion_54_RForeArm_transform_interp_id" />
        <input semantic="OUTPUT" source="#Motion_54_RForeArm_transform_pose_id" />
      </sampler>
      <channel source="#Motion_54_RForeArm_transform_samp_id" target="RForeArm_bone_id/transform" />
    </animation>
    <animation id="Motion_54_RHand_transform_id" name="Motion_54_RHand_transform">
      <source id="Motion_54_RHand_transform_frame_id" name="Motion_54_RHand_transform_frame">
        <float_array id="Motion_54_RHand_transform_frame_array_id" count="16">0 0.033333335 0.06666667 0.1 0.13333334 0.16666667 0.2 0.23333333 0.26666668 0.3 0.33333334 0.36666667 0.4 0.43333334 0.46666667 0.5</float_array>
        <technique_common>
          <accessor source="#Motion_54_RHand_transform_frame_array_id" count="16" stride="1">
            <param name="TIME" type="float" />
          </accessor>
        </technique_common>
      </source>
      <source id="Motion_54_RHand_transform_interp_id" name="Motion_54_RHand_transform_interp">
        <Name_array id="Motion_54_RHand_transform_interp_array_id" count="16">LINEAR LINEAR LINEAR LINEAR LINEAR LINEAR LINEAR LINEAR LINEAR LINEAR LINEAR LINEAR LINEAR LINEAR LINEAR LINEAR</Name_array>
        <technique_common>
          <accessor source="#Motion_54_RHand_transform_interp_array_id" count="16" stride="1">
            <param name="INTERPOLATION" type="Name" />
          </accessor>
        </technique_common>
      </source>
      <source id="Motion_54_RHand_transform_pose_id" name="Motion_54_RHand_transform_pose">
        <float_array id="Motion_54_RHand_transform_pose_array_id" count="256">0.77977633 0.60806906 -0.14899936 22.900002 -0.14358345 0.40535158 0.9028145 0 0.6093707 -0.68259954 0.40339226 0 0 0 0 1 0.78551674 0.595356 -0.1688626 22.900002 -0.13031772 0.42589027 0.89534056 0 0.60496336 -0.6812992 0.4121294 0 0 0 0 1 0.80189687 0.55590963 -0.2189198 22.900002 -0.09757811 0.4833541 0.8699697 0 0.58944035 -0.67626417 0.4418447 0 0 0 0 1 0.83369464 0.47147673 -0.28751165 22.900002 -0.053318843 0.586934 0.8078772 0 0.54964566 -0.6581931 0.5144623 0 0 0 0 1 0.87875545 0.33139163 -0.34346533 22.900002 -0.0030499548 0.7235267 0.6902897 0 0.47726256 -0.6055483 0.63681376 0 0 0 0 1 0.9239956 0.15959151 -0.34750924 22.900002 0.0489229 0.85194916 0.52133405 0 0.3792607 -0.49871156 0.7793896 0 0 0 0 1 0.95969296 0.003633175 -0.28102717 22.900002 0.090925574 0.9421286 0.32268602 0 0.2659361 -0.33523202 0.9038238 0 0 0 0 1 0.9833422 -0.082904354 -0.16175604 22.900002 0.10213919 0.9881631 0.114460915 0 0.15035203 -0.12907588 0.98017025 0 0 0 0 1 0.99781454 -0.05191484 -0.04087793 22.900002 0.046361834 0.9908559 -0.12670925 0 0.04708223 0.12453716 0.9910973 0 0 0 0 1 0.99825996 0.057910245 0.01111269 22.900002 -0.04946028 0.9249269 -0.37691364 0 -0.032105587 0.37570813 0.92618173 0 0 0 0 1 0.9872992 0.1545287 -0.0368939 22.900002 -0.14752874 0.80557114 -0.5738383 0 -0.058953825 0.57199305 0.81813717 0 0 0 0 1 0.977212 0.16931432 -0.12802084 22.900002 -0.21032232 0.690918 -0.6916624 0 -0.028656434 0.70282644 0.71078396 0 0 0 0 1 0.96849126 0.11274093 -0.22206795 22.900002 -0.24289632 0.62454814 -0.74225396 0 0.055009715 0.772806 0.63225377 0 0 0 0 1 0.95439756 0.028342068 -0.29719013 22.900002 -0.25417206 0.59930915 -0.7590949 0 0.15659444 0.80001575 0.579183 0 0 0 0 1 0.93534964 -0.04783131 -0.35047567 22.900002 -0.2552092 0.59480953 -0.7622794 0 0.24492711 0.80244243 0.54414797 0 0 0 0 1 0.93534964 -0.04783131 -0.35047567 22.900002 -0.2552092 0.59480953 -0.7622794 0 0.24492711 0.80244243 0.54414797 0 0 0 0 1</float_array>
        <technique_common>
          <accessor source="#Motion_54_RHand_transform_pose_array_id" count="16" stride="16">
            <param name="TRANSFORM" type="float4x4" />
          </accessor>
        </technique_common>
      </source>
      <sampler id="Motion_54_RHand_transform_samp_id">
        <input semantic="INPUT" source="#Motion_54_RHand_transform_frame_id" />
        <input semantic="INTERPOLATION" source="#Motion_54_RHand_transform_interp_id" />
        <input semantic="OUTPUT" source="#Motion_54_RHand_transform_pose_id" />
      </sampler>
      <channel source="#Motion_54_RHand_transform_samp_id" target="RHand_bone_id/transform" />
    </animation>
    <animation id="Motion_54_LShoulder_transform_id" name="Motion_54_LShoulder_transform">
      <source id="Motion_54_LShoulder_transform_frame_id" name="Motion_54_LShoulder_transform_frame">
        <float_array id="Motion_54_LShoulder_transform_frame_array_id" count="16">0 0.033333335 0.06666667 0.1 0.13333334 0.16666667 0.2 0.23333333 0.26666668 0.3 0.33333334 0.36666667 0.4 0.43333334 0.46666667 0.5</float_array>
        <technique_common>
          <accessor source="#Motion_54_LShoulder_transform_frame_array_id" count="16" stride="1">
            <param name="TIME" type="float" />
          </accessor>
        </technique_common>
      </source>
      <source id="Motion_54_LShoulder_transform_interp_id" name="Motion_54_LShoulder_transform_interp">
        <Name_array id="Motion_54_LShoulder_transform_interp_array_id" count="16">LINEAR LINEAR LINEAR LINEAR LINEAR LINEAR LINEAR LINEAR LINEAR LINEAR LINEAR LINEAR LINEAR LINEAR LINEAR LINEAR</Name_array>
        <technique_common>
          <accessor source="#Motion_54_LShoulder_transform_interp_array_id" count="16" stride="1">
            <param name="INTERPOLATION" type="Name" />
          </accessor>
        </technique_common>
      </source>
      <source id="Motion_54_LShoulder_transform_pose_id" name="Motion_54_LShoulder_transform_pose">
        <float_array id="Motion_54_LShoulder_transform_pose_array_id" count="256">-0.65322316 0.7430548 -0.14549702 14.14009 -0.6930459 -0.66415274 -0.28033692 -3.930001 -0.3049379 -0.08228643 0.94881076 -0.201936 0 0 0 1 -0.65303993 0.7429734 -0.14672923 14.14009 -0.69251865 -0.6642618 -0.28137916 -3.930001 -0.30652383 -0.08213908 0.94831234 -0.201936 0 0 0 1 -0.65209615 0.74318445 -0.1498265 14.14009 -0.69170904 -0.6641222 -0.28369132 -3.930001 -0.31033802 -0.08135763 0.9471385 -0.201936 0 0 0 1 -0.65043855 0.7437352 -0.15423235 14.14009 -0.69077694 -0.6636499 -0.28704685 -3.930001 -0.31584316 -0.08016617 0.94541866 -0.201936 0 0 0 1 -0.64830196 0.74455464 -0.15919553 14.14009 -0.68986225 -0.66289306 -0.2909692 -3.930001 -0.32217205 -0.0788129 0.9433948 -0.201936 0 0 0 1 -0.6460004 0.7454896 -0.16409981 14.14009 -0.6890987 -0.6620164 -0.2947495 -3.930001 -0.32836944 -0.07732732 0.9413788 -0.201936 0 0 0 1 -0.64382184 0.7464473 -0.16825598 14.14009 -0.68865275 -0.6611049 -0.29782206 -3.930001 -0.3335433 -0.07587438 0.9396765 -0.201936 0 0 0 1 -0.6415354 0.7477009 -0.17139246 14.14009 -0.68945134 -0.6599755 -0.29847774 -3.930001 -0.33628696 -0.07331731 0.9389013 -0.201936 0 0 0 1 -0.63985 0.74877566 -0.17299458 14.14009 -0.6926859 -0.6594181 -0.29215428 -3.930001 -0.33283374 -0.06710398 0.9405949 -0.201936 0 0 0 1 -0.6378921 0.750286 -0.17368019 14.14009 -0.69883335 -0.658695 -0.27884215 -3.930001 -0.3236136 -0.056497686 0.94450104 -0.201936 0 0 0 1 -0.6363466 0.7515889 -0.17371547 14.14009 -0.70600003 -0.6581801 -0.261463 -3.930001 -0.31084874 -0.043737978 0.9494525 -0.201936 0 0 0 1 -0.63574827 0.7521405 -0.1735193 14.14009 -0.71202254 -0.65823245 -0.2444464 -3.930001 -0.29807407 -0.031856716 0.954011 -0.201936 0 0 0 1 -0.6373589 0.75074226 -0.17366606 14.14009 -0.7147116 -0.6601924 -0.23094043 -3.930001 -0.28802973 -0.023070775 0.9573435 -0.201936 0 0 0 1 -0.6426339 0.7460841 -0.17429931 14.14009 -0.71276236 -0.6656107 -0.22120675 -3.930001 -0.2810543 -0.017920956 0.9595245 -0.201936 0 0 0 1 -0.6481619 0.7412 -0.17466782 14.14009 -0.7093526 -0.6710987 -0.21551213 -3.930001 -0.27695692 -0.015785672 0.96075267 -0.201936 0 0 0 1 -0.6481619 0.7412 -0.17466782 14.14009 -0.7093526 -0.6710987 -0.21551213 -3.930001 -0.27695692 -0.015785672 0.96075267 -0.201936 0 0 0 1</float_array>
        <technique_common>
          <accessor source="#Motion_54_LShoulder_transform_pose_array_id" count="16" stride="16">
            <param name="TRANSFORM" type="float4x4" />
          </accessor>
        </technique_common>
      </source>
      <sampler id="Motion_54_LShoulder_transform_samp_id">
        <input semantic="INPUT" source="#Motion_54_LShoulder_transform_frame_id" />
        <input semantic="INTERPOLATION" source="#Motion_54_LShoulder_transform_interp_id" />
        <input semantic="OUTPUT" source="#Motion_54_LShoulder_transform_pose_id" />
      </sampler>
      <channel source="#Motion_54_LShoulder_transform_samp_id" target="LShoulder_bone_id/transform" />
    </animation>
    <animation id="Motion_54_LArm_transform_id" name="Motion_54_LArm_transform">
      <source id="Motion_54_LArm_transform_frame_id" name="Motion_54_LArm_transform_frame">
        <float_array id="Motion_54_LArm_transform_frame_array_id" count="16">0 0.033333335 0.06666667 0.1 0.13333334 0.16666667 0.2 0.23333333 0.26666668 0.3 0.33333334 0.36666667 0.4 0.43333334 0.46666667 0.5</float_array>
        <technique_common>
          <accessor source="#Motion_54_LArm_transform_frame_array_id" count="16" stride="1">
            <param name="TIME" type="float" />
          </accessor>
        </technique_common>
      </source>
      <source id="Motion_54_LArm_transform_interp_id" name="Motion_54_LArm_transform_interp">
        <Name_array id="Motion_54_LArm_transform_interp_array_id" count="16">LINEAR LINEAR LINEAR LINEAR LINEAR LINEAR LINEAR LINEAR LINEAR LINEAR LINEAR LINEAR LINEAR LINEAR LINEAR LINEAR</Name_array>
        <technique_common>
          <accessor source="#Motion_54_LArm_transform_interp_array_id" count="16" stride="1">
            <param name="INTERPOLATION" type="Name" />
          </accessor>
        </technique_common>
      </source>
      <source id="Motion_54_LArm_transform_pose_id" name="Motion_54_LArm_transform_pose">
        <float_array id="Motion_54_LArm_transform_pose_array_id" count="256">0.77371013 0.5931253 0.22265436 8.161509 -0.5910371 0.8023154 -0.08345755 0 -0.2281398 -0.06702503 0.9713186 0 0 0 0 1 0.77574646 0.5941795 0.21252778 8.161509 -0.5897448 0.8024606 -0.09087393 0 -0.22454059 -0.05484201 0.9729203 0 0 0 0 1 0.78021586 0.5967654 0.18744132 8.161509 -0.5872607 0.8020251 -0.108998105 0 -0.21537894 -0.025034871 0.9762096 0 0 0 0 1 0.785686 0.5993704 0.15314232 8.161509 -0.58477694 0.8003433 -0.13223687 0 -0.2018253 0.014342565 0.97931653 0 0 0 0 1 0.79062897 0.60102856 0.11692104 8.161509 -0.58318233 0.7973613 -0.15528454 0 -0.18655875 0.05458617 0.98092616 0 0 0 0 1 0.7942762 0.60196215 0.082261674 8.161509 -0.58251244 0.792996 -0.17842813 0 -0.17264014 0.093802765 0.98050827 0 0 0 0 1 0.79648006 0.6025836 0.050125673 8.161509 -0.5829138 0.78722066 -0.2012339 0 -0.1607202 0.13105983 0.97825986 0 0 0 0 1 0.796896 0.6037128 0.022084378 8.161509 -0.5846989 0.7799603 -0.22313479 0 -0.15193427 0.16490251 0.9745374 0 0 0 0 1 0.79431814 0.607498 0.002222851 8.161509 -0.58996433 0.77225494 -0.23572095 0 -0.14491661 0.185926 0.97181827 0 0 0 0 1 0.7880969 0.6154906 -0.0086315945 8.161509 -0.59927493 0.76397955 -0.23917527 0 -0.14061579 0.193666 0.970938 0 0 0 0 1 0.7800645 0.62560326 -0.010947026 8.161509 -0.61028486 0.7568716 -0.23387548 0 -0.13802779 0.18911877 0.9722049 0 0 0 0 1 0.77260983 0.6348451 -0.006769292 8.161509 -0.61995906 0.7521096 -0.22356634 0 -0.13683873 0.17692624 0.9746652 0 0 0 0 1 0.7682161 0.6401898 0.0010187924 8.161509 -0.6252263 0.7506004 -0.21375465 0 -0.13760825 0.16357279 0.97688687 0 0 0 0 1 0.768484 0.63978046 0.01064387 8.161509 -0.62414414 0.7531599 -0.20783229 0 -0.14098357 0.15307249 0.97810656 0 0 0 0 1 0.7700771 0.63766646 0.019045621 8.161509 -0.6214174 0.7565378 -0.20369333 0 -0.14429714 0.1450243 0.9788495 0 0 0 0 1 0.7700771 0.63766646 0.019045621 8.161509 -0.6214174 0.7565378 -0.20369333 0 -0.14429714 0.1450243 0.9788495 0 0 0 0 1</float_array>
        <technique_common>
          <accessor source="#Motion_54_LArm_transform_pose_array_id" count="16" stride="16">
            <param name="TRANSFORM" type="float4x4" />
          </accessor>
        </technique_common>
      </source>
      <sampler id="Motion_54_LArm_transform_samp_id">
        <input semantic="INPUT" source="#Motion_54_LArm_transform_frame_id" />
        <input semantic="INTERPOLATION" source="#Motion_54_LArm_transform_interp_id" />
        <input semantic="OUTPUT" source="#Motion_54_LArm_transform_pose_id" />
      </sampler>
      <channel source="#Motion_54_LArm_transform_samp_id" target="LArm_bone_id/transform" />
    </animation>
    <animation id="Motion_54_LForeArm_transform_id" name="Motion_54_LForeArm_transform">
      <source id="Motion_54_LForeArm_transform_frame_id" name="Motion_54_LForeArm_transform_frame">
        <float_array id="Motion_54_LForeArm_transform_frame_array_id" count="16">0 0.033333335 0.06666667 0.1 0.13333334 0.16666667 0.2 0.23333333 0.26666668 0.3 0.33333334 0.36666667 0.4 0.43333334 0.46666667 0.5</float_array>
        <technique_common>
          <accessor source="#Motion_54_LForeArm_transform_frame_array_id" count="16" stride="1">
            <param name="TIME" type="float" />
          </accessor>
        </technique_common>
      </source>
      <source id="Motion_54_LForeArm_transform_interp_id" name="Motion_54_LForeArm_transform_interp">
        <Name_array id="Motion_54_LForeArm_transform_interp_array_id" count="16">LINEAR LINEAR LINEAR LINEAR LINEAR LINEAR LINEAR LINEAR LINEAR LINEAR LINEAR LINEAR LINEAR LINEAR LINEAR LINEAR</Name_array>
        <technique_common>
          <accessor source="#Motion_54_LForeArm_transform_interp_array_id" count="16" stride="1">
            <param name="INTERPOLATION" type="Name" />
          </accessor>
        </technique_common>
      </source>
      <source id="Motion_54_LForeArm_transform_pose_id" name="Motion_54_LForeArm_transform_pose">
        <float_array id="Motion_54_LForeArm_transform_pose_array_id" count="256">0.9447163 7.8493955E-05 -0.32788885 22.9 -7.5641256E-05 1 2.1453676E-05 0 0.32788885 4.5342895E-06 0.9447163 0 0 0 0 1 0.9448363 7.8495585E-05 -0.3275428 22.9 -7.5645956E-05 1 2.1440042E-05 0 0.3275428 4.5199613E-06 0.9448363 0 0 0 0 1 0.94495827 7.8497236E-05 -0.32719082 22.9 -7.5650736E-05 1 2.142617E-05 0 0.32719082 4.5053866E-06 0.94495827 0 0 0 0 1 0.9450295 7.8498204E-05 -0.326985 22.9 -7.565352E-05 1 2.1418065E-05 0 0.326985 4.4968647E-06 0.94502956 0 0 0 0 1 0.9449975 7.849777E-05 -0.32707754 22.9 -7.565227E-05 1 2.142171E-05 0 0.32707754 4.5006973E-06 0.9449975 0 0 0 0 1 0.9448094 7.849521E-05 -0.32762054 22.9 -7.56449E-05 1 2.1443104E-05 0 0.32762054 4.523179E-06 0.9448094 0 0 0 0 1 0.94454175 7.8491576E-05 -0.32839125 22.9 -7.563442E-05 1 2.147347E-05 0 0.32839125 4.555095E-06 0.9445418 0 0 0 0 1 0.9446614 7.8493205E-05 -0.32804707 22.9 -7.563911E-05 1 2.145991E-05 0 0.32804707 4.5408397E-06 0.9446614 0 0 0 0 1 0.9456941 7.8507175E-05 -0.325058 22.9 -7.567959E-05 1 2.1342155E-05 0 0.325058 4.4171074E-06 0.9456941 0 0 0 0 1 0.9477185 7.853418E-05 -0.31910762 22.9 -7.575932E-05 1 2.1107844E-05 0 0.31910762 4.1710837E-06 0.9477185 0 0 0 0 1 0.94978267 7.856116E-05 -0.31291032 22.9 -7.584115E-05 1 2.0863958E-05 0 0.31291032 3.915253E-06 0.94978267 0 0 0 0 1 0.9509014 7.857554E-05 -0.309494 22.9 -7.588575E-05 1 2.0729578E-05 0 0.309494 3.7743985E-06 0.9509014 0 0 0 0 1 0.95011646 7.856547E-05 -0.31189528 22.9 -7.5854434E-05 1 2.0824027E-05 0 0.31189528 3.8733906E-06 0.95011646 0 0 0 0 1 0.94680727 7.85221E-05 -0.32180122 22.9 -7.572337E-05 1 2.1213895E-05 0 0.32180122 4.282405E-06 0.94680727 0 0 0 0 1 0.94327736 7.8474266E-05 -0.3320058 22.9 -7.558504E-05 1 2.161592E-05 0 0.3320058 4.7048643E-06 0.94327736 0 0 0 0 1 0.94327736 7.8474266E-05 -0.3320058 22.9 -7.558504E-05 1 2.161592E-05 0 0.3320058 4.7048643E-06 0.94327736 0 0 0 0 1</float_array>
        <technique_common>
          <accessor source="#Motion_54_LForeArm_transform_pose_array_id" count="16" stride="16">
            <param name="TRANSFORM" type="float4x4" />
          </accessor>
        </technique_common>
      </source>
      <sampler id="Motion_54_LForeArm_transform_samp_id">
        <input semantic="INPUT" source="#Motion_54_LForeArm_transform_frame_id" />
        <input semantic="INTERPOLATION" source="#Motion_54_LForeArm_transform_interp_id" />
        <input semantic="OUTPUT" source="#Motion_54_LForeArm_transform_pose_id" />
      </sampler>
      <channel source="#Motion_54_LForeArm_transform_samp_id" target="LForeArm_bone_id/transform" />
    </animation>
    <animation id="Motion_54_LHand_transform_id" name="Motion_54_LHand_transform">
      <source id="Motion_54_LHand_transform_frame_id" name="Motion_54_LHand_transform_frame">
        <float_array id="Motion_54_LHand_transform_frame_array_id" count="16">0 0.033333335 0.06666667 0.1 0.13333334 0.16666667 0.2 0.23333333 0.26666668 0.3 0.33333334 0.36666667 0.4 0.43333334 0.46666667 0.5</float_array>
        <technique_common>
          <accessor source="#Motion_54_LHand_transform_frame_array_id" count="16" stride="1">
            <param name="TIME" type="float" />
          </accessor>
        </technique_common>
      </source>
      <source id="Motion_54_LHand_transform_interp_id" name="Motion_54_LHand_transform_interp">
        <Name_array id="Motion_54_LHand_transform_interp_array_id" count="16">LINEAR LINEAR LINEAR LINEAR LINEAR LINEAR LINEAR LINEAR LINEAR LINEAR LINEAR LINEAR LINEAR LINEAR LINEAR LINEAR</Name_array>
        <technique_common>
          <accessor source="#Motion_54_LHand_transform_interp_array_id" count="16" stride="1">
            <param name="INTERPOLATION" type="Name" />
          </accessor>
        </technique_common>
      </source>
      <source id="Motion_54_LHand_transform_pose_id" name="Motion_54_LHand_transform_pose">
        <float_array id="Motion_54_LHand_transform_pose_array_id" count="256">0.38026887 -0.92113584 0.08309242 22.900002 0.62910765 0.19176 -0.7532939 0 0.6779522 0.3387283 0.65241396 0 0 0 0 1 0.38257492 -0.92006415 0.08437073 22.900002 0.6307209 0.19334543 -0.7515376 0 0.6751501 0.34073383 0.6542728 0 0 0 0 1 0.38717258 -0.91777533 0.08823708 22.900002 0.63389283 0.19546944 -0.7483125 0 0.66953504 0.3456589 0.6574517 0 0 0 0 1 0.3930763 -0.91472375 0.09365627 22.900002 0.6376624 0.19779068 -0.74449 0 0.66247845 0.35236248 0.6610318 0 0 0 0 1 0.399287 -0.9114152 0.09945881 22.900002 0.64102256 0.19996536 -0.74101543 0 0.6554845 0.35963312 0.66408134 0 0 0 0 1 0.40424418 -0.9084997 0.105900645 22.900002 0.6447321 0.20090687 -0.7375344 0 0.6487736 0.3664215 0.66695434 0 0 0 0 1 0.406182 -0.907027 0.110987216 22.900002 0.6538832 0.20365715 -0.7286703 0 0.6383203 0.36854535 0.67581165 0 0 0 0 1 0.4044044 -0.90720475 0.11591622 22.900002 0.66756296 0.20616537 -0.71544075 0 0.6251534 0.36670876 0.6889905 0 0 0 0 1 0.39803636 -0.9095231 0.11972754 22.900002 0.6822337 0.20623052 -0.7014458 0 0.6132897 0.36088312 0.7025945 0 0 0 0 1 0.38814604 -0.9135624 0.12143415 22.900002 0.69552445 0.2039296 -0.6889546 0 0.60463905 0.35187542 0.71455956 0 0 0 0 1 0.376621 -0.9182618 0.12227754 22.900002 0.7065607 0.19937778 -0.6789849 0 0.59910643 0.34211648 0.72389764 0 0 0 0 1 0.36530715 -0.9226721 0.12339735 22.900002 0.71455187 0.192976 -0.6724403 0 0.59662914 0.33382106 0.72979254 0 0 0 0 1 0.35640317 -0.925803 0.12595788 22.900002 0.7208387 0.18668538 -0.6674878 0 0.59444785 0.32869005 0.73389006 0 0 0 0 1 0.35137576 -0.92707336 0.13065287 22.900002 0.7263006 0.18185914 -0.66288364 0 0.59078133 0.32781452 0.7372348 0 0 0 0 1 0.34849924 -0.9275481 0.13491762 22.900002 0.7301454 0.17838871 -0.65959466 0 0.58773804 0.3283777 0.7394133 0 0 0 0 1 0.34849924 -0.9275481 0.13491762 22.900002 0.7301454 0.17838871 -0.65959466 0 0.58773804 0.3283777 0.7394133 0 0 0 0 1</float_array>
        <technique_common>
          <accessor source="#Motion_54_LHand_transform_pose_array_id" count="16" stride="16">
            <param name="TRANSFORM" type="float4x4" />
          </accessor>
        </technique_common>
      </source>
      <sampler id="Motion_54_LHand_transform_samp_id">
        <input semantic="INPUT" source="#Motion_54_LHand_transform_frame_id" />
        <input semantic="INTERPOLATION" source="#Motion_54_LHand_transform_interp_id" />
        <input semantic="OUTPUT" source="#Motion_54_LHand_transform_pose_id" />
      </sampler>
      <channel source="#Motion_54_LHand_transform_samp_id" target="LHand_bone_id/transform" />
    </animation>
    <animation id="Motion_54_Neck_transform_id" name="Motion_54_Neck_transform">
      <source id="Motion_54_Neck_transform_frame_id" name="Motion_54_Neck_transform_frame">
        <float_array id="Motion_54_Neck_transform_frame_array_id" count="16">0 0.033333335 0.06666667 0.1 0.13333334 0.16666667 0.2 0.23333333 0.26666668 0.3 0.33333334 0.36666667 0.4 0.43333334 0.46666667 0.5</float_array>
        <technique_common>
          <accessor source="#Motion_54_Neck_transform_frame_array_id" count="16" stride="1">
            <param name="TIME" type="float" />
          </accessor>
        </technique_common>
      </source>
      <source id="Motion_54_Neck_transform_interp_id" name="Motion_54_Neck_transform_interp">
        <Name_array id="Motion_54_Neck_transform_interp_array_id" count="16">LINEAR LINEAR LINEAR LINEAR LINEAR LINEAR LINEAR LINEAR LINEAR LINEAR LINEAR LINEAR LINEAR LINEAR LINEAR LINEAR</Name_array>
        <technique_common>
          <accessor source="#Motion_54_Neck_transform_interp_array_id" count="16" stride="1">
            <param name="INTERPOLATION" type="Name" />
          </accessor>
        </technique_common>
      </source>
      <source id="Motion_54_Neck_transform_pose_id" name="Motion_54_Neck_transform_pose">
        <float_array id="Motion_54_Neck_transform_pose_array_id" count="256">0.89100784 -0.0051440885 -0.45395872 15.720233 -0.0132963965 0.99921113 -0.0374202 0 0.45379314 0.039377704 0.8902366 0 0 0 0 1 0.89070535 -0.005275159 -0.45455047 15.720233 -0.01268201 0.9992551 -0.036447357 0 0.45440415 0.03822847 0.88997495 0 0 0 0 1 0.8902104 -0.005374455 -0.45551798 15.720233 -0.011692044 0.9993315 -0.034640215 0 0.4553996 0.036163017 0.88955235 0 0 0 0 1 0.88953686 -0.0054360647 -0.4568311 15.720233 -0.010376867 0.99943084 -0.03209846 0 0.45674556 0.033293236 0.88897413 0 0 0 0 1 0.8886986 -0.005453589 -0.45845944 15.720233 -0.008786391 0.9995431 -0.028921967 0 0.4584077 0.029731115 0.88824457 0 0 0 0 1 0.8877094 -0.0054204776 -0.4603724 15.720233 -0.0069704033 0.99965787 -0.025210712 0 0.46035153 0.025588766 0.88736784 0 0 0 0 1 0.8865828 -0.0053303256 -0.4625393 15.720233 -0.0049788146 0.9997657 -0.021064607 0 0.46254322 0.020978415 0.88634855 0 0 0 0 1 0.88533276 -0.0051771253 -0.4649291 15.720233 -0.0028618854 0.9998584 -0.016583418 0 0.46494913 0.016012417 0.8851926 0 0 0 0 1 0.88397354 -0.004978041 -0.4675105 15.720233 -0.00069295755 0.9999283 -0.011957465 0 0.46753648 0.010894047 0.88390666 0 0 0 0 1 0.88251936 -0.0047631273 -0.47025198 15.720233 0.0014418487 0.9999714 -0.0074226833 0 0.4702739 0.005872629 0.882501 0 0 0 0 1 0.8809849 -0.004547292 -0.47312248 15.720233 0.0034717233 0.99998903 -0.0031465557 0 0.4731316 0.0011295178 0.88099104 0 0 0 0 1 0.8794185 -0.004347162 -0.47602966 15.720233 0.0053244443 0.9999856 0.00070440094 0 0.4760197 -0.0031540564 0.879429 0 0 0 0 1 0.877869 -0.0041815173 -0.47888252 15.720233 0.0069259126 0.9999682 0.0039647715 0 0.4788507 -0.0067972485 0.87787 0 0 0 0 1 0.876353 -0.0040706564 -0.4816522 15.720233 0.008200621 0.99994546 0.0064698225 0 0.48159957 -0.009619695 0.8763386 0 0 0 0 1 0.8748873 -0.004036014 -0.48430976 15.720233 0.009072075 0.9999264 0.008055436 0 0.48424163 -0.011441293 0.8748595 0 0 0 0 1 0.8748873 -0.004036014 -0.48430976 15.720233 0.009072075 0.9999264 0.008055436 0 0.48424163 -0.011441293 0.8748595 0 0 0 0 1</float_array>
        <technique_common>
          <accessor source="#Motion_54_Neck_transform_pose_array_id" count="16" stride="16">
            <param name="TRANSFORM" type="float4x4" />
          </accessor>
        </technique_common>
      </source>
      <sampler id="Motion_54_Neck_transform_samp_id">
        <input semantic="INPUT" source="#Motion_54_Neck_transform_frame_id" />
        <input semantic="INTERPOLATION" source="#Motion_54_Neck_transform_interp_id" />
        <input semantic="OUTPUT" source="#Motion_54_Neck_transform_pose_id" />
      </sampler>
      <channel source="#Motion_54_Neck_transform_samp_id" target="Neck_bone_id/transform" />
    </animation>
    <animation id="Motion_54_Head_transform_id" name="Motion_54_Head_transform">
      <source id="Motion_54_Head_transform_frame_id" name="Motion_54_Head_transform_frame">
        <float_array id="Motion_54_Head_transform_frame_array_id" count="16">0 0.033333335 0.06666667 0.1 0.13333334 0.16666667 0.2 0.23333333 0.26666668 0.3 0.33333334 0.36666667 0.4 0.43333334 0.46666667 0.5</float_array>
        <technique_common>
          <accessor source="#Motion_54_Head_transform_frame_array_id" count="16" stride="1">
            <param name="TIME" type="float" />
          </accessor>
        </technique_common>
      </source>
      <source id="Motion_54_Head_transform_interp_id" name="Motion_54_Head_transform_interp">
        <Name_array id="Motion_54_Head_transform_interp_array_id" count="16">LINEAR LINEAR LINEAR LINEAR LINEAR LINEAR LINEAR LINEAR LINEAR LINEAR LINEAR LINEAR LINEAR LINEAR LINEAR LINEAR</Name_array>
        <technique_common>
          <accessor source="#Motion_54_Head_transform_interp_array_id" count="16" stride="1">
            <param name="INTERPOLATION" type="Name" />
          </accessor>
        </technique_common>
      </source>
      <source id="Motion_54_Head_transform_pose_id" name="Motion_54_Head_transform_pose">
        <float_array id="Motion_54_Head_transform_pose_array_id" count="256">0.9816854 -0.022842426 0.18913497 5.129917 0.026074708 0.9995531 -0.014618885 0 -0.18871652 0.019282784 0.9818423 0 0 0 0 1 0.98134094 -0.02594816 0.19051686 5.129917 0.02768917 0.9995956 -0.006481586 0 -0.19027162 0.0116359 0.9816625 0 0 0 0 1 0.9807324 -0.032271 0.19267207 5.129917 0.03022802 0.9994514 0.013534387 0 -0.19300315 -0.007449516 0.9811699 0 0 0 0 1 0.9798709 -0.041846056 0.195197 5.129917 0.034432713 0.9985566 0.041220117 0 -0.19664015 -0.03366923 0.97989744 0 0 0 0 1 0.97881633 -0.052973885 0.1977684 5.129917 0.039608043 0.99669385 0.07094029 0 -0.20087256 -0.0616043 0.9776784 0 0 0 0 1 0.9776333 -0.064392686 0.20021676 5.129917 0.045595404 0.9942275 0.09712175 0 -0.20531495 -0.08582049 0.97492594 0 0 0 0 1 0.9764108 -0.074806266 0.20254855 5.129917 0.052307703 0.9920749 0.11424228 0 -0.20948936 -0.10095254 0.9725856 0 0 0 0 1 0.97526586 -0.08315988 0.20479491 5.129917 0.059440117 0.9910685 0.11937415 0 -0.21289292 -0.1042485 0.97149825 0 0 0 0 1 0.97428495 -0.08983894 0.20663461 5.129917 0.06667693 0.99095505 0.116456926 0 -0.21522799 -0.09968446 0.9714628 0 0 0 0 1 0.9735249 -0.09568894 0.20758817 5.129917 0.07390463 0.9911485 0.110285364 0 -0.21630377 -0.09202383 0.97197956 0 0 0 0 1 0.9729626 -0.10094859 0.2077333 5.129917 0.08048639 0.99123937 0.10472064 0 -0.21648484 -0.08516957 0.97256386 0 0 0 0 1 0.97252685 -0.10552994 0.20749682 5.129917 0.08612601 0.9912078 0.10044612 0 -0.21627253 -0.079815686 0.9730651 0 0 0 0 1 0.97224295 -0.10924782 0.20690234 5.129917 0.09063427 0.9911072 0.09742651 0 -0.21570604 -0.07596979 0.9734986 0 0 0 0 1 0.97213626 -0.11191539 0.20597595 5.129917 0.09382383 0.9909856 0.095627666 0 -0.2148214 -0.073637664 0.9738733 0 0 0 0 1 0.9722861 -0.11277052 0.20479888 5.129917 0.09502632 0.9909761 0.094532356 0 -0.21361125 -0.072451204 0.97422844 0 0 0 0 1 0.9722861 -0.11277052 0.20479888 5.129917 0.09502632 0.9909761 0.094532356 0 -0.21361125 -0.072451204 0.97422844 0 0 0 0 1</float_array>
        <technique_common>
          <accessor source="#Motion_54_Head_transform_pose_array_id" count="16" stride="16">
            <param name="TRANSFORM" type="float4x4" />
          </accessor>
        </technique_common>
      </source>
      <sampler id="Motion_54_Head_transform_samp_id">
        <input semantic="INPUT" source="#Motion_54_Head_transform_frame_id" />
        <input semantic="INTERPOLATION" source="#Motion_54_Head_transform_interp_id" />
        <input semantic="OUTPUT" source="#Motion_54_Head_transform_pose_id" />
      </sampler>
      <channel source="#Motion_54_Head_transform_samp_id" target="Head_bone_id/transform" />
    </animation>
  </library_animations>
  <library_visual_scenes>
    <visual_scene id="tr0090_00_fi_00_clip_id" name="tr0090_00_fi_00_clip">
      <node id="tr0090_00_fi_bone_id" name="tr0090_00_fi" sid="tr0090_00_fi" type="JOINT">
        <matrix sid="transform">1 0 0 0 0 1 0 0 0 0 1 0 0 0 0 1</matrix>
        <node id="Origin_bone_id" name="Origin" sid="Origin" type="JOINT">
          <matrix sid="transform">1 0 0 0 0 1 0 0 0 0 1 0 0 0 0 1</matrix>
          <node id="Waist_bone_id" name="Waist" sid="Waist" type="JOINT">
            <matrix sid="transform">3.1391647E-07 -1 0 0 1 3.1391647E-07 0 88.8 0 0 1 0 0 0 0 1</matrix>
            <node id="Spine2_bone_id" name="Spine2" sid="Spine2" type="JOINT">
              <matrix sid="transform">1 0 0 12.099998 0 1 0 0 0 0 1 0 0 0 0 1</matrix>
              <node id="Spine3_bone_id" name="Spine3" sid="Spine3" type="JOINT">
                <matrix sid="transform">0.9919065 0 0.12697035 12.099991 0 1 0 0 -0.12697035 0 0.9919065 0 0 0 0 1</matrix>
                <node id="Neck_bone_id" name="Neck" sid="Neck" type="JOINT">
                  <matrix sid="transform">0.9441987 0 -0.32937634 15.720233 0 1 0 0 0.32937634 0 0.9441987 0 0 0 0 1</matrix>
                  <node id="Head_bone_id" name="Head" sid="Head" type="JOINT">
                    <matrix sid="transform">0.9783777 0 0.2068263 5.129917 0 1 0 0 -0.2068263 0 0.9783777 0 0 0 0 1</matrix>
                    <node id="Hair_bone_id" name="Hair" sid="Hair" type="JOINT">
                      <matrix sid="transform">-0.8695338 -0.45192218 0.19919175 28 -0.46233907 0.8866788 -0.0065747416 0 -0.17364782 -0.09781109 -0.97993845 -13.5 0 0 0 1</matrix>
                    </node>
                    <node id="Loc_Head_bone_id" name="Loc_Head" sid="Loc_Head" type="JOINT">
                      <matrix sid="transform">3.1391647E-07 1 0 31.27118 -1 3.1391647E-07 0 0 0 0 1 1.06847 0 0 0 1</matrix>
                    </node>
                    <node id="Loc_Eye_bone_id" name="Loc_Eye" sid="Loc_Eye" type="JOINT">
                      <matrix sid="transform">3.1391647E-07 1 0 9.967316 -1 3.1391647E-07 0 0 0 0 1 13.050114 0 0 0 1</matrix>
                    </node>
                    <node id="Loc_Mouth_bone_id" name="Loc_Mouth" sid="Loc_Mouth" type="JOINT">
                      <matrix sid="transform">3.1391647E-07 1 0 1.057783 -1 3.1391647E-07 0 0 0 0 1 12.671976 0 0 0 1</matrix>
                    </node>
                  </node>
                </node>
                <node id="LShoulder_bone_id" name="LShoulder" sid="LShoulder" type="JOINT">
                  <matrix sid="transform">-0.5887142 0.798307 -0.12697051 14.14009 -0.80482084 -0.59351784 -2.6574628E-07 -3.930001 -0.075359486 0.10218836 0.99190646 -0.201936 0 0 0 1</matrix>
                  <node id="LArm_bone_id" name="LArm" sid="LArm" type="JOINT">
                    <matrix sid="transform">0.8048207 -0.593518 0 8.161509 0.593518 0.8048207 0 0 0 0 1 0 0 0 0 1</matrix>
                    <node id="LForeArm_bone_id" name="LForeArm" sid="LForeArm" type="JOINT">
                      <matrix sid="transform">1 0 0 22.9 0 1 0 0 0 0 1 0 0 0 0 1</matrix>
                      <node id="LHand_bone_id" name="LHand" sid="LHand" type="JOINT">
                        <matrix sid="transform">1 0 0 22.900002 0 1 0 0 0 0 1 0 0 0 0 1</matrix>
                      </node>
                    </node>
                  </node>
                </node>
                <node id="RShoulder_bone_id" name="RShoulder" sid="RShoulder" type="JOINT">
                  <matrix sid="transform">-0.58871174 -0.79830885 -0.12696993 14.14009 0.8048227 -0.5935153 -1.4453335E-07 3.93 -0.07535849 -0.10218837 0.9919065 -0.201935 0 0 0 1</matrix>
                  <node id="RArm_bone_id" name="RArm" sid="RArm" type="JOINT">
                    <matrix sid="transform">0.8048231 0.5935148 0 8.161548 -0.5935148 0.8048231 0 0 0 0 1 0 0 0 0 1</matrix>
                    <node id="RForeArm_bone_id" name="RForeArm" sid="RForeArm" type="JOINT">
                      <matrix sid="transform">1 0 0 22.9 0 1 0 0 0 0 1 0 0 0 0 1</matrix>
                      <node id="RHand_bone_id" name="RHand" sid="RHand" type="JOINT">
                        <matrix sid="transform">1 0 0 22.900002 0 1 0 0 0 0 1 0 0 0 0 1</matrix>
                      </node>
                    </node>
                  </node>
                </node>
              </node>
            </node>
            <node id="Hips_bone_id" name="Hips" sid="Hips" type="JOINT">
              <matrix sid="transform">-1 -3.2584137E-07 0 -0.010002 3.2584137E-07 -1 0 0 0 0 1 0 0 0 0 1</matrix>
              <node id="LThigh_bone_id" name="LThigh" sid="LThigh" type="JOINT">
                <matrix sid="transform">1 0 0 10.510002 0 1 0 7.199996 0 0 1 0 0 0 0 1</matrix>
                <node id="LLeg_bone_id" name="LLeg" sid="LLeg" type="JOINT">
                  <matrix sid="transform">1 0 0 33.899998 0 1 0 0 0 0 1 0 0 0 0 1</matrix>
                  <node id="LFoot_bone_id" name="LFoot" sid="LFoot" type="JOINT">
                    <matrix sid="transform">3.1391647E-07 0 -1 33.9 0 1 0 4E-06 1 0 3.1391647E-07 0 0 0 0 1</matrix>
                  </node>
                </node>
              </node>
              <node id="RThigh_bone_id" name="RThigh" sid="RThigh" type="JOINT">
                <matrix sid="transform">1 0 0 10.510002 0 1 0 -7.2 0 0 1 0 0 0 0 1</matrix>
                <node id="RLeg_bone_id" name="RLeg" sid="RLeg" type="JOINT">
                  <matrix sid="transform">1 0 0 33.899998 0 1 0 0 0 0 1 0 0 0 0 1</matrix>
                  <node id="RFoot_bone_id" name="RFoot" sid="RFoot" type="JOINT">
                    <matrix sid="transform">3.1391647E-07 0 -1 33.9 0 1 0 0 1 0 3.1391647E-07 0 0 0 0 1</matrix>
                  </node>
                </node>
              </node>
            </node>
          </node>
          <node id="CamTgtHead_bone_id" name="CamTgtHead" sid="CamTgtHead" type="JOINT">
            <matrix sid="transform">1 0 0 0 0 1 0 143.5793 0 0 1 0 0 0 0 1</matrix>
          </node>
          <node id="CamTgtBust_bone_id" name="CamTgtBust" sid="CamTgtBust" type="JOINT">
            <matrix sid="transform">1 0 0 0 0 1 0 113 0 0 1 0 0 0 0 1</matrix>
          </node>
          <node id="CamTgtBody_bone_id" name="CamTgtBody" sid="CamTgtBody" type="JOINT">
            <matrix sid="transform">1 0 0 0 0 1 0 88.8 0 0 1 0 0 0 0 1</matrix>
          </node>
          <node id="CamTgtFoot_bone_id" name="CamTgtFoot" sid="CamTgtFoot" type="JOINT">
            <matrix sid="transform">1 0 0 0 0 1 0 0 0 0 1 0 0 0 0 1</matrix>
          </node>
        </node>
        <node id="tr0090_00_fi_HeadSkin_bone_id" name="tr0090_00_fi_HeadSkin" sid="tr0090_00_fi_HeadSkin" type="JOINT">
          <matrix sid="transform">1 0 0 0 0 1 0 0 0 0 1 0 0 0 0 1</matrix>
        </node>
        <node id="tr0090_00_fi_FaceSkin_bone_id" name="tr0090_00_fi_FaceSkin" sid="tr0090_00_fi_FaceSkin" type="JOINT">
          <matrix sid="transform">1 0 0 0 0 1 0 0 0 0 1 0 0 0 0 1</matrix>
        </node>
        <node id="tr0090_00_fi_BodySkin_bone_id" name="tr0090_00_fi_BodySkin" sid="tr0090_00_fi_BodySkin" type="JOINT">
          <matrix sid="transform">1 0 0 0 0 1 0 0 0 0 1 0 0 0 0 1</matrix>
        </node>
        <node id="tr0090_00_fi_BottomSkin_bone_id" name="tr0090_00_fi_BottomSkin" sid="tr0090_00_fi_BottomSkin" type="JOINT">
          <matrix sid="transform">1 0 0 0 0 1 0 0 0 0 1 0 0 0 0 1</matrix>
        </node>
      </node>
    </visual_scene>
  </library_visual_scenes>
  <scene>
    <instance_visual_scene url="#tr0090_00_fi_00_clip_id" />
  </scene>
</COLLADA>