<?xml version="1.0" encoding="utf-8"?>
<COLLADA xmlns:xsi="http://www.w3.org/2001/XMLSchema-instance" xmlns:xsd="http://www.w3.org/2001/XMLSchema" version="1.4.1" xmlns="http://www.collada.org/2005/11/COLLADASchema">
  <asset>
    <created>2026-02-17T05:46:53.901769-05:00</created>
    <modified>2026-02-17T05:46:53.9017693-05:00</modified>
    <up_axis>Y_UP</up_axis>
  </asset>
  <library_animations>
    <animation id="Motion_30_Waist_transform_id" name="Motion_30_Waist_transform">
      <source id="Motion_30_Waist_transform_frame_id" name="Motion_30_Waist_transform_frame">
        <float_array id="Motion_30_Waist_transform_frame_array_id" count="17">0 0.033333335 0.06666667 0.1 0.13333334 0.16666667 0.2 0.23333333 0.26666668 0.3 0.33333334 0.36666667 0.4 0.43333334 0.46666667 0.5 0.53333336</float_array>
        <technique_common>
          <accessor source="#Motion_30_Waist_transform_frame_array_id" count="17" stride="1">
            <param name="TIME" type="float" />
          </accessor>
        </technique_common>
      </source>
      <source id="Motion_30_Waist_transform_interp_id" name="Motion_30_Waist_transform_interp">
        <Name_array id="Motion_30_Waist_transform_interp_array_id" count="17">LINEAR LINEAR LINEAR LINEAR LINEAR LINEAR LINEAR LINEAR LINEAR LINEAR LINEAR LINEAR LINEAR LINEAR LINEAR LINEAR LINEAR</Name_array>
        <technique_common>
          <accessor source="#Motion_30_Waist_transform_interp_array_id" count="17" stride="1">
            <param name="INTERPOLATION" type="Name" />
          </accessor>
        </technique_common>
      </source>
      <source id="Motion_30_Waist_transform_pose_id" name="Motion_30_Waist_transform_pose">
        <float_array id="Motion_30_Waist_transform_pose_array_id" count="272">5.9604645E-08 -0.99999994 -4.7431868E-06 -0.5 0.99999994 5.9604645E-08 -1.5367928E-06 -22.85253 1.5367928E-06 -4.7431868E-06 1 0 0 0 0 1 0.00076299906 -0.9953005 0.096831635 -0.5 0.9999997 0.000759542 -7.250905E-05 -23.069344 -1.3820827E-06 0.09683166 0.99530077 0 0 0 0 1 0.0025011897 -0.98249763 0.18625799 -0.5 0.99999684 0.0024548173 -0.00047967583 -23.609594 1.4066696E-05 0.18625861 0.98250073 0 0 0 0 1 0.005259633 -0.97221005 0.23405167 -0.5 0.9999863 0.005113542 -0.0012310445 -24.35773 -2.2351742E-08 0.23405492 0.9722234 0 0 0 0 1 0.0078077316 -0.9701912 0.24221492 -0.5 0.99996954 0.007571399 -0.0019063652 -25.143028 1.5623868E-05 0.24222241 0.97022074 0 0 0 0 1 0.010181785 -0.9757598 0.2186075 -0.5 0.9999482 0.00993073 -0.0022471398 -25.794767 2.1740794E-05 0.21861905 0.9758103 0 0 0 0 1 0.011770666 -0.9852947 0.17045769 -0.5 0.99993074 0.01160115 -0.0019905344 -26.197361 -1.6249716E-05 0.17046931 0.985363 0 0 0 0 1 0.012008429 -0.9944034 0.104964495 -0.5 0.9999278 0.0119431615 -0.0012508184 -26.221739 -9.786338E-06 0.10497195 0.9944752 0 0 0 0 1 0.010886729 -0.9994972 0.029782832 -0.5 0.99994075 0.010881722 -0.00032976177 -25.93451 5.5050477E-06 0.029784657 0.99955636 0 0 0 0 1 0.008857429 -0.9988566 -0.046977364 -0.5 0.9999607 0.008847535 0.0004185941 -25.43356 -2.4847686E-06 -0.046979226 0.9988959 0 0 0 0 1 0.006595075 -0.993096 -0.11711858 -0.5 0.9999782 0.0065510273 0.0007608421 -24.816774 1.1652708E-05 -0.117121056 0.99311763 0 0 0 0 1 0.004216552 -0.9849642 -0.17270702 -0.5 0.9999911 0.004153967 0.00072393566 -24.182041 4.373491E-06 -0.17270854 0.98497295 0 0 0 0 1 0.002062738 -0.97849554 -0.20625761 -0.5 0.9999979 0.002018392 0.00042559206 -23.596655 -1.4156103E-07 -0.20625806 0.9784976 0 0 0 0 1 0.0007582903 -0.97725326 -0.21207449 -0.5 0.9999997 0.00074505806 0.00014231354 -23.15223 1.8946826E-05 -0.21207452 0.9772535 0 0 0 0 1 -3.6120415E-05 -0.97916347 -0.2030741 -0.5 1.0000001 -3.540516E-05 -6.876886E-06 -22.93761 -4.5448542E-07 -0.2030741 0.97916335 0 0 0 0 1 -0.00022161007 -0.9853065 -0.17079529 -0.5 1 -0.00022017956 -2.746284E-05 -22.905405 -1.0550022E-05 -0.17079529 0.98530656 0 0 0 0 1 -0.00022161007 -0.9853065 -0.17079529 -0.5 1 -0.00022017956 -2.746284E-05 -22.905405 -1.0550022E-05 -0.17079529 0.98530656 0 0 0 0 1</float_array>
        <technique_common>
          <accessor source="#Motion_30_Waist_transform_pose_array_id" count="17" stride="16">
            <param name="TRANSFORM" type="float4x4" />
          </accessor>
        </technique_common>
      </source>
      <sampler id="Motion_30_Waist_transform_samp_id">
        <input semantic="INPUT" source="#Motion_30_Waist_transform_frame_id" />
        <input semantic="INTERPOLATION" source="#Motion_30_Waist_transform_interp_id" />
        <input semantic="OUTPUT" source="#Motion_30_Waist_transform_pose_id" />
      </sampler>
      <channel source="#Motion_30_Waist_transform_samp_id" target="Waist_bone_id/transform" />
    </animation>
    <animation id="Motion_30_Hips_transform_id" name="Motion_30_Hips_transform">
      <source id="Motion_30_Hips_transform_frame_id" name="Motion_30_Hips_transform_frame">
        <float_array id="Motion_30_Hips_transform_frame_array_id" count="17">0 0.033333335 0.06666667 0.1 0.13333334 0.16666667 0.2 0.23333333 0.26666668 0.3 0.33333334 0.36666667 0.4 0.43333334 0.46666667 0.5 0.53333336</float_array>
        <technique_common>
          <accessor source="#Motion_30_Hips_transform_frame_array_id" count="17" stride="1">
            <param name="TIME" type="float" />
          </accessor>
        </technique_common>
      </source>
      <source id="Motion_30_Hips_transform_interp_id" name="Motion_30_Hips_transform_interp">
        <Name_array id="Motion_30_Hips_transform_interp_array_id" count="17">LINEAR LINEAR LINEAR LINEAR LINEAR LINEAR LINEAR LINEAR LINEAR LINEAR LINEAR LINEAR LINEAR LINEAR LINEAR LINEAR LINEAR</Name_array>
        <technique_common>
          <accessor source="#Motion_30_Hips_transform_interp_array_id" count="17" stride="1">
            <param name="INTERPOLATION" type="Name" />
          </accessor>
        </technique_common>
      </source>
      <source id="Motion_30_Hips_transform_pose_id" name="Motion_30_Hips_transform_pose">
        <float_array id="Motion_30_Hips_transform_pose_array_id" count="272">-0.973068 0.006406626 -0.23042792 -0.010002 -0.013256764 -0.9995142 0.028191978 0 -0.23013547 0.03048745 0.9726809 0 0 0 0 1 -0.9730722 0.0065187938 -0.23040834 -0.010002 -0.008229654 -0.9999453 0.006465091 0 -0.23035356 0.008187181 0.9730725 0 0 0 0 1 -0.9730754 0.0067591257 -0.23038743 -0.010002 -0.0031018993 -0.9998634 -0.016232746 0 -0.2304657 -0.015081049 0.9729636 0 0 0 0 1 -0.9731729 0.0064033438 -0.22998695 -0.010002 0.0030321197 -0.9991691 -0.040649258 0 -0.23005609 -0.04025609 0.9723444 0 0 0 0 1 -0.97349167 0.007187778 -0.2286098 -0.010002 0.011821266 -0.9965892 -0.08167264 0 -0.22841707 -0.08221008 0.97008616 0 0 0 0 1 -0.97541296 0.012078127 -0.2200539 -0.010002 0.03304532 -0.9791932 -0.20022213 0 -0.21789356 -0.202571 0.9547185 0 0 0 0 1 -0.97819686 0.017987221 -0.20689936 -0.010002 0.055148475 -0.9379779 -0.3422808 0 -0.2002237 -0.34622818 0.916535 0 0 0 0 1 -0.98033416 0.021780834 -0.19613925 -0.010002 0.06827322 -0.89508533 -0.44063732 0 -0.18515879 -0.44536284 0.8759955 0 0 0 0 1 -0.9806235 0.021677075 -0.19469889 -0.010002 0.06981791 -0.88992715 -0.45072725 0 -0.18303828 -0.45558718 0.87117004 0 0 0 0 1 -0.97992325 0.020813335 -0.19828546 -0.010002 0.06485504 -0.9071704 -0.415735 0 -0.18853155 -0.4202482 0.88760763 0 0 0 0 1 -0.9788617 0.018384412 -0.20369574 -0.010002 0.05608324 -0.933648 -0.3537742 0 -0.19668403 -0.3577199 0.9128811 0 0 0 0 1 -0.97754467 0.015616823 -0.2101482 -0.010002 0.043455806 -0.96087575 -0.27354893 0 -0.20619832 -0.27653852 0.9386206 0 0 0 0 1 -0.97612095 0.011567786 -0.21692029 -0.010002 0.029416777 -0.9823437 -0.18475851 0 -0.21522751 -0.18672773 0.9585457 0 0 0 0 1 -0.9748516 0.00855649 -0.22269042 -0.010002 0.013836629 -0.99501073 -0.0988029 0 -0.22242479 -0.099399455 0.96986955 0 0 0 0 1 -0.9739548 0.0063009667 -0.2266536 -0.010002 -0.0001435997 -0.9996306 -0.027172651 0 -0.22674114 -0.026432395 0.97359633 0 0 0 0 1 -0.97363997 0.005594993 -0.22802186 -0.010002 -0.0049233176 -0.99998176 -0.003514364 0 -0.22803736 -0.002299101 0.9736497 0 0 0 0 1 -0.97363997 0.005594993 -0.22802186 -0.010002 -0.0049233176 -0.99998176 -0.003514364 0 -0.22803736 -0.002299101 0.9736497 0 0 0 0 1</float_array>
        <technique_common>
          <accessor source="#Motion_30_Hips_transform_pose_array_id" count="17" stride="16">
            <param name="TRANSFORM" type="float4x4" />
          </accessor>
        </technique_common>
      </source>
      <sampler id="Motion_30_Hips_transform_samp_id">
        <input semantic="INPUT" source="#Motion_30_Hips_transform_frame_id" />
        <input semantic="INTERPOLATION" source="#Motion_30_Hips_transform_interp_id" />
        <input semantic="OUTPUT" source="#Motion_30_Hips_transform_pose_id" />
      </sampler>
      <channel source="#Motion_30_Hips_transform_samp_id" target="Hips_bone_id/transform" />
    </animation>
    <animation id="Motion_30_RThigh_transform_id" name="Motion_30_RThigh_transform">
      <source id="Motion_30_RThigh_transform_frame_id" name="Motion_30_RThigh_transform_frame">
        <float_array id="Motion_30_RThigh_transform_frame_array_id" count="17">0 0.033333335 0.06666667 0.1 0.13333334 0.16666667 0.2 0.23333333 0.26666668 0.3 0.33333334 0.36666667 0.4 0.43333334 0.46666667 0.5 0.53333336</float_array>
        <technique_common>
          <accessor source="#Motion_30_RThigh_transform_frame_array_id" count="17" stride="1">
            <param name="TIME" type="float" />
          </accessor>
        </technique_common>
      </source>
      <source id="Motion_30_RThigh_transform_interp_id" name="Motion_30_RThigh_transform_interp">
        <Name_array id="Motion_30_RThigh_transform_interp_array_id" count="17">LINEAR LINEAR LINEAR LINEAR LINEAR LINEAR LINEAR LINEAR LINEAR LINEAR LINEAR LINEAR LINEAR LINEAR LINEAR LINEAR LINEAR</Name_array>
        <technique_common>
          <accessor source="#Motion_30_RThigh_transform_interp_array_id" count="17" stride="1">
            <param name="INTERPOLATION" type="Name" />
          </accessor>
        </technique_common>
      </source>
      <source id="Motion_30_RThigh_transform_pose_id" name="Motion_30_RThigh_transform_pose">
        <float_array id="Motion_30_RThigh_transform_pose_array_id" count="272">0.99187833 -0.011059118 -0.12670869 10.510002 0.023878856 0.99469 0.100107774 -7.2 0.124928765 -0.10232039 0.98687553 0 0 0 0 1 0.99067396 -0.011189181 -0.13579357 10.510002 0.024879508 0.9947221 0.09954341 -7.2 0.13396305 -0.101993546 0.9857237 0 0 0 0 1 0.98955464 -0.011053553 -0.1437339 10.510002 0.025588399 0.99469125 0.09967201 -7.2 0.14186914 -0.10230882 0.9845842 0 0 0 0 1 0.9886903 -0.010054648 -0.14963426 10.510002 0.025579095 0.994436 0.102189824 -7.2 0.1477742 -0.1048616 0.9834464 0 0 0 0 1 0.98813623 -0.006770907 -0.15343043 10.510002 0.025236608 0.99260616 0.11872719 -7.2 0.15149209 -0.12119071 0.981001 0 0 0 0 1 0.9877957 -0.0017752862 -0.1557449 10.510002 0.024050005 0.98968124 0.14125358 -7.2 0.15388705 -0.14327534 0.97764564 0 0 0 0 1 0.98759854 0.0020014662 -0.15698774 10.510002 0.023080165 0.98720425 0.1577817 -7.2 0.15529476 -0.15944828 0.97491527 0 0 0 0 1 0.98747975 0.0014819009 -0.1577387 10.510002 0.02411155 0.98678774 0.16021426 -7.2 0.15589203 -0.16201167 0.9743972 0 0 0 0 1 0.98736244 -0.004160476 -0.15842362 10.510002 0.029784724 0.98671323 0.15971813 -7.2 0.15565418 -0.16241828 0.9743675 0 0 0 0 1 0.98723906 -0.009977684 -0.15893246 10.510002 0.03547251 0.986738 0.15839736 -7.2 0.15524428 -0.16201378 0.97450024 0 0 0 0 1 0.987116 -0.0115599455 -0.15958807 10.510002 0.036916528 0.9869316 0.15685394 -7.2 0.1556893 -0.16072449 0.97464275 0 0 0 0 1 0.986491 -0.010644536 -0.16346914 10.510002 0.035919506 0.987658 0.15245147 -7.2 0.15982881 -0.15626372 0.9746981 0 0 0 0 1 0.98489994 -0.008965284 -0.17289227 10.510002 0.034329113 0.9889415 0.14427829 -7.2 0.16968685 -0.1480349 0.9743162 0 0 0 0 1 0.9861479 -0.0095709 -0.16559198 10.510002 0.032265607 0.9903321 0.13491166 -7.2 0.16269985 -0.13838577 0.9769228 0 0 0 0 1 0.98756295 -0.0046626655 -0.15715498 10.510002 0.027932 0.9888627 0.14618611 -7.2 0.15472308 -0.14875764 0.9766944 0 0 0 0 1 0.98997486 -0.008184756 -0.14100656 10.510002 0.027277749 0.99060434 0.134011 -7.2 0.13858485 -0.13651386 0.98089665 0 0 0 0 1 0.98997486 -0.008184756 -0.14100656 10.510002 0.027277749 0.99060434 0.134011 -7.2 0.13858485 -0.13651386 0.98089665 0 0 0 0 1</float_array>
        <technique_common>
          <accessor source="#Motion_30_RThigh_transform_pose_array_id" count="17" stride="16">
            <param name="TRANSFORM" type="float4x4" />
          </accessor>
        </technique_common>
      </source>
      <sampler id="Motion_30_RThigh_transform_samp_id">
        <input semantic="INPUT" source="#Motion_30_RThigh_transform_frame_id" />
        <input semantic="INTERPOLATION" source="#Motion_30_RThigh_transform_interp_id" />
        <input semantic="OUTPUT" source="#Motion_30_RThigh_transform_pose_id" />
      </sampler>
      <channel source="#Motion_30_RThigh_transform_samp_id" target="RThigh_bone_id/transform" />
    </animation>
    <animation id="Motion_30_RLeg_transform_id" name="Motion_30_RLeg_transform">
      <source id="Motion_30_RLeg_transform_frame_id" name="Motion_30_RLeg_transform_frame">
        <float_array id="Motion_30_RLeg_transform_frame_array_id" count="17">0 0.033333335 0.06666667 0.1 0.13333334 0.16666667 0.2 0.23333333 0.26666668 0.3 0.33333334 0.36666667 0.4 0.43333334 0.46666667 0.5 0.53333336</float_array>
        <technique_common>
          <accessor source="#Motion_30_RLeg_transform_frame_array_id" count="17" stride="1">
            <param name="TIME" type="float" />
          </accessor>
        </technique_common>
      </source>
      <source id="Motion_30_RLeg_transform_interp_id" name="Motion_30_RLeg_transform_interp">
        <Name_array id="Motion_30_RLeg_transform_interp_array_id" count="17">LINEAR LINEAR LINEAR LINEAR LINEAR LINEAR LINEAR LINEAR LINEAR LINEAR LINEAR LINEAR LINEAR LINEAR LINEAR LINEAR LINEAR</Name_array>
        <technique_common>
          <accessor source="#Motion_30_RLeg_transform_interp_array_id" count="17" stride="1">
            <param name="INTERPOLATION" type="Name" />
          </accessor>
        </technique_common>
      </source>
      <source id="Motion_30_RLeg_transform_pose_id" name="Motion_30_RLeg_transform_pose">
        <float_array id="Motion_30_RLeg_transform_pose_array_id" count="272">0.87885445 0 0.47708994 33.899998 0 1 0 0 -0.47708994 0 0.87885445 0 0 0 0 1 0.8670094 0 0.4982918 33.899998 0 1 0 0 -0.4982918 0 0.8670094 0 0 0 0 1 0.8480149 0 0.52997243 33.899998 0 1 0 0 -0.52997243 0 0.8480149 0 0 0 0 1 0.85303074 0 0.52186066 33.899998 0 1 0 0 -0.52186066 0 0.85303074 0 0 0 0 1 0.90682673 0 0.42150363 33.899998 0 1 0 0 -0.42150363 0 0.90682673 0 0 0 0 1 0.9636871 0 0.26703402 33.899998 0 1 0 0 -0.26703402 0 0.9636871 0 0 0 0 1 0.9927511 0 0.12018806 33.899998 0 1 0 0 -0.12018806 0 0.9927511 0 0 0 0 1 0.99912775 0 0.041758776 33.899998 0 1 0 0 -0.041758776 0 0.99912775 0 0 0 0 1 0.9999511 0 0.009885493 33.899998 0 1 0 0 -0.009885493 0 0.9999511 0 0 0 0 1 1 0 0 33.899998 0 1 0 0 0 0 1 0 0 0 0 1 0.99995506 0 0.009483384 33.899998 0 1 0 0 -0.009483384 0 0.99995506 0 0 0 0 1 0.99642587 0 0.08447166 33.899998 0 1 0 0 -0.08447166 0 0.99642587 0 0 0 0 1 0.98345697 0 0.18114182 33.899998 0 1 0 0 -0.18114182 0 0.98345697 0 0 0 0 1 0.966609 0 0.25625572 33.899998 0 1 0 0 -0.25625572 0 0.966609 0 0 0 0 1 0.9427604 0 0.33347082 33.899998 0 1 0 0 -0.33347082 0 0.9427604 0 0 0 0 1 0.91766965 0 0.39734426 33.899998 0 1 0 0 -0.39734426 0 0.91766965 0 0 0 0 1 0.91766965 0 0.39734426 33.899998 0 1 0 0 -0.39734426 0 0.91766965 0 0 0 0 1</float_array>
        <technique_common>
          <accessor source="#Motion_30_RLeg_transform_pose_array_id" count="17" stride="16">
            <param name="TRANSFORM" type="float4x4" />
          </accessor>
        </technique_common>
      </source>
      <sampler id="Motion_30_RLeg_transform_samp_id">
        <input semantic="INPUT" source="#Motion_30_RLeg_transform_frame_id" />
        <input semantic="INTERPOLATION" source="#Motion_30_RLeg_transform_interp_id" />
        <input semantic="OUTPUT" source="#Motion_30_RLeg_transform_pose_id" />
      </sampler>
      <channel source="#Motion_30_RLeg_transform_samp_id" target="RLeg_bone_id/transform" />
    </animation>
    <animation id="Motion_30_RFoot_transform_id" name="Motion_30_RFoot_transform">
      <source id="Motion_30_RFoot_transform_frame_id" name="Motion_30_RFoot_transform_frame">
        <float_array id="Motion_30_RFoot_transform_frame_array_id" count="17">0 0.033333335 0.06666667 0.1 0.13333334 0.16666667 0.2 0.23333333 0.26666668 0.3 0.33333334 0.36666667 0.4 0.43333334 0.46666667 0.5 0.53333336</float_array>
        <technique_common>
          <accessor source="#Motion_30_RFoot_transform_frame_array_id" count="17" stride="1">
            <param name="TIME" type="float" />
          </accessor>
        </technique_common>
      </source>
      <source id="Motion_30_RFoot_transform_interp_id" name="Motion_30_RFoot_transform_interp">
        <Name_array id="Motion_30_RFoot_transform_interp_array_id" count="17">LINEAR LINEAR LINEAR LINEAR LINEAR LINEAR LINEAR LINEAR LINEAR LINEAR LINEAR LINEAR LINEAR LINEAR LINEAR LINEAR LINEAR</Name_array>
        <technique_common>
          <accessor source="#Motion_30_RFoot_transform_interp_array_id" count="17" stride="1">
            <param name="INTERPOLATION" type="Name" />
          </accessor>
        </technique_common>
      </source>
      <source id="Motion_30_RFoot_transform_pose_id" name="Motion_30_RFoot_transform_pose">
        <float_array id="Motion_30_RFoot_transform_pose_array_id" count="272">0.48219192 0.0071290582 -0.8760366 33.9 0.057397954 0.9975613 0.039711244 0 0.87418324 -0.06943115 0.4806068 0 0 0 0 1 0.49686366 0.0072073787 -0.8677987 33.9 0.056715123 0.9975581 0.04075768 0 0.86597335 -0.06946832 0.49524158 0 0 0 0 1 0.513285 0.0073542763 -0.8581867 33.9 0.055899598 0.99755335 0.04198236 0 0.85639584 -0.0695212 0.511618 0 0 0 0 1 0.5352777 0.0073473435 -0.8446441 33.9 0.054898247 0.99754536 0.043468148 0 0.8428902 -0.069637015 0.53356045 0 0 0 0 1 0.56476825 0.0070274584 -0.82521963 33.9 0.053675555 0.99753356 0.045229625 0 0.8235022 -0.069838375 0.56299806 0 0 0 0 1 0.59405255 0.006631164 -0.8043989 33.9 0.052408278 0.99752253 0.046926975 0 0.8027172 -0.07003425 0.5922333 0 0 0 0 1 0.61304533 0.0065329913 -0.7900207 33.9 0.05139368 0.997518 0.04812967 0 0.7883743 -0.07010774 0.61118805 0 0 0 0 1 0.61580527 0.006952213 -0.78786767 33.9 0.050870642 0.99752384 0.04856324 0 0.7862544 -0.06998483 0.61392677 0 0 0 0 1 0.6155894 0.007249046 -0.7880338 33.9 0.050557125 0.9975346 0.04867 0 0.78644377 -0.06980146 0.61370516 0 0 0 0 1 0.61582863 0.0072070565 -0.78784716 33.9 0.050402246 0.9975496 0.048522785 0 0.7862663 -0.069590986 0.61395633 0 0 0 0 1 0.61342156 0.0072876476 -0.78972197 33.9 0.05013048 0.9975816 0.048144966 0 0.78816295 -0.06912231 0.61157274 0 0 0 0 1 0.5916232 0.007353591 -0.8061811 33.9 0.050956286 0.997618 0.046494514 0 0.8046026 -0.06858723 0.5898392 0 0 0 0 1 0.5729989 0.00570987 -0.81953627 33.9 0.052964643 0.9976273 0.04398219 0 0.8178429 -0.06860819 0.57133687 0 0 0 0 1 0.554355 0.0042213406 -0.83226967 33.9 0.055244878 0.9975951 0.041857183 0 0.8304448 -0.06918237 0.5527886 0 0 0 0 1 0.5309757 0.004528202 -0.847375 33.9 0.056779217 0.9975483 0.040909268 0 0.84548265 -0.06983511 0.5294168 0 0 0 0 1 0.5079428 0.0074490905 -0.86135864 33.9 0.055765852 0.9975805 0.04151225 0 0.85958385 -0.06912024 0.5062984 0 0 0 0 1 0.5079428 0.0074490905 -0.86135864 33.9 0.055765852 0.9975805 0.04151225 0 0.85958385 -0.06912024 0.5062984 0 0 0 0 1</float_array>
        <technique_common>
          <accessor source="#Motion_30_RFoot_transform_pose_array_id" count="17" stride="16">
            <param name="TRANSFORM" type="float4x4" />
          </accessor>
        </technique_common>
      </source>
      <sampler id="Motion_30_RFoot_transform_samp_id">
        <input semantic="INPUT" source="#Motion_30_RFoot_transform_frame_id" />
        <input semantic="INTERPOLATION" source="#Motion_30_RFoot_transform_interp_id" />
        <input semantic="OUTPUT" source="#Motion_30_RFoot_transform_pose_id" />
      </sampler>
      <channel source="#Motion_30_RFoot_transform_samp_id" target="RFoot_bone_id/transform" />
    </animation>
    <animation id="Motion_30_LThigh_transform_id" name="Motion_30_LThigh_transform">
      <source id="Motion_30_LThigh_transform_frame_id" name="Motion_30_LThigh_transform_frame">
        <float_array id="Motion_30_LThigh_transform_frame_array_id" count="17">0 0.033333335 0.06666667 0.1 0.13333334 0.16666667 0.2 0.23333333 0.26666668 0.3 0.33333334 0.36666667 0.4 0.43333334 0.46666667 0.5 0.53333336</float_array>
        <technique_common>
          <accessor source="#Motion_30_LThigh_transform_frame_array_id" count="17" stride="1">
            <param name="TIME" type="float" />
          </accessor>
        </technique_common>
      </source>
      <source id="Motion_30_LThigh_transform_interp_id" name="Motion_30_LThigh_transform_interp">
        <Name_array id="Motion_30_LThigh_transform_interp_array_id" count="17">LINEAR LINEAR LINEAR LINEAR LINEAR LINEAR LINEAR LINEAR LINEAR LINEAR LINEAR LINEAR LINEAR LINEAR LINEAR LINEAR LINEAR</Name_array>
        <technique_common>
          <accessor source="#Motion_30_LThigh_transform_interp_array_id" count="17" stride="1">
            <param name="INTERPOLATION" type="Name" />
          </accessor>
        </technique_common>
      </source>
      <source id="Motion_30_LThigh_transform_pose_id" name="Motion_30_LThigh_transform_pose">
        <float_array id="Motion_30_LThigh_transform_pose_array_id" count="272">0.9981801 0.017788954 -0.057620384 10.510002 -0.02196388 0.99711543 -0.07265254 7.199996 0.05616176 0.07378588 0.9956915 0 0 0 0 1 0.9991837 0.018131882 -0.03609893 10.510002 -0.020691484 0.9972013 -0.07184303 7.199996 0.03469525 0.07253133 0.99676245 0 0 0 0 1 0.9996511 0.02047192 -0.016693357 10.510002 -0.020939011 0.99938005 -0.028303236 7.199996 0.016103588 0.0286429 0.99946 0 0 0 0 1 0.9996795 0.025314907 -0.00011771958 10.510002 -0.025241973 0.9971312 0.07135939 7.199996 0.0019238379 -0.07133355 0.99745065 0 0 0 0 1 0.99935716 0.03259539 0.014927113 10.510002 -0.034776546 0.9825473 0.18273307 7.199996 -0.00871034 -0.18313472 0.9830492 0 0 0 0 1 0.99870676 0.04196164 0.028706988 10.510002 -0.048032887 0.9638105 0.2622253 7.199996 -0.016664693 -0.26326504 0.9645796 0 0 0 0 1 0.9977378 0.053607147 0.04056537 10.510002 -0.06342289 0.9506839 0.30360773 7.199996 -0.0222893 -0.30549368 0.9519332 0 0 0 0 1 0.99646914 0.06692472 0.05069846 10.510002 -0.08025916 0.93657786 0.34114572 7.199996 -0.024651974 -0.3440102 0.93864226 0 0 0 0 1 0.9954516 0.07321484 0.0609565 10.510002 -0.09268894 0.8921869 0.4420536 7.199996 -0.022019707 -0.44569293 0.89491504 0 0 0 0 1 0.9957979 0.0726503 0.055754498 10.510002 -0.09069532 0.8667101 0.49049765 7.199996 -0.012688188 -0.4934932 0.8696571 0 0 0 0 1 0.99691707 0.06922976 0.0369265 10.510002 -0.07843035 0.8926753 0.44382375 7.199996 -0.0022375602 -0.44535166 0.89535296 0 0 0 0 1 0.997969 0.062327538 0.013159529 10.510002 -0.062878855 0.9307362 0.36024487 7.199996 0.010205126 -0.36034065 0.93276495 0 0 0 0 1 0.9985893 0.05199474 -0.010770351 10.510002 -0.047587134 0.9663235 0.25289193 7.199996 0.023556694 -0.25202265 0.9674346 0 0 0 0 1 0.9991693 0.04067719 -0.0024694283 10.510002 -0.03995046 0.9896748 0.13765076 7.199996 0.008043177 -0.13743776 0.99047774 0 0 0 0 1 0.99911594 0.040455054 0.011435556 10.510002 -0.041038338 0.997561 0.056462016 7.199996 -0.00912349 -0.056881394 0.99833924 0 0 0 0 1 0.9991254 0.03325637 -0.02534545 10.510002 -0.03289249 0.9993516 0.014641177 7.199996 0.025815928 -0.013794698 0.9995715 0 0 0 0 1 0.9991254 0.03325637 -0.02534545 10.510002 -0.03289249 0.9993516 0.014641177 7.199996 0.025815928 -0.013794698 0.9995715 0 0 0 0 1</float_array>
        <technique_common>
          <accessor source="#Motion_30_LThigh_transform_pose_array_id" count="17" stride="16">
            <param name="TRANSFORM" type="float4x4" />
          </accessor>
        </technique_common>
      </source>
      <sampler id="Motion_30_LThigh_transform_samp_id">
        <input semantic="INPUT" source="#Motion_30_LThigh_transform_frame_id" />
        <input semantic="INTERPOLATION" source="#Motion_30_LThigh_transform_interp_id" />
        <input semantic="OUTPUT" source="#Motion_30_LThigh_transform_pose_id" />
      </sampler>
      <channel source="#Motion_30_LThigh_transform_samp_id" target="LThigh_bone_id/transform" />
    </animation>
    <animation id="Motion_30_LLeg_transform_id" name="Motion_30_LLeg_transform">
      <source id="Motion_30_LLeg_transform_frame_id" name="Motion_30_LLeg_transform_frame">
        <float_array id="Motion_30_LLeg_transform_frame_array_id" count="17">0 0.033333335 0.06666667 0.1 0.13333334 0.16666667 0.2 0.23333333 0.26666668 0.3 0.33333334 0.36666667 0.4 0.43333334 0.46666667 0.5 0.53333336</float_array>
        <technique_common>
          <accessor source="#Motion_30_LLeg_transform_frame_array_id" count="17" stride="1">
            <param name="TIME" type="float" />
          </accessor>
        </technique_common>
      </source>
      <source id="Motion_30_LLeg_transform_interp_id" name="Motion_30_LLeg_transform_interp">
        <Name_array id="Motion_30_LLeg_transform_interp_array_id" count="17">LINEAR LINEAR LINEAR LINEAR LINEAR LINEAR LINEAR LINEAR LINEAR LINEAR LINEAR LINEAR LINEAR LINEAR LINEAR LINEAR LINEAR</Name_array>
        <technique_common>
          <accessor source="#Motion_30_LLeg_transform_interp_array_id" count="17" stride="1">
            <param name="INTERPOLATION" type="Name" />
          </accessor>
        </technique_common>
      </source>
      <source id="Motion_30_LLeg_transform_pose_id" name="Motion_30_LLeg_transform_pose">
        <float_array id="Motion_30_LLeg_transform_pose_array_id" count="272">0.99811375 0 0.061391227 33.899998 0 1 0 0 -0.061391227 0 0.99811375 0 0 0 0 1 1 0 0 33.899998 0 1 0 0 0 0 1 0 0 0 0 1 0.99603015 0 0.08901623 33.899998 0 1 0 0 -0.08901623 0 0.99603015 0 0 0 0 1 0.95867836 0 0.28449208 33.899998 0 1 0 0 -0.28449208 0 0.95867836 0 0 0 0 1 0.8818295 0 0.47156838 33.899998 0 1 0 0 -0.47156838 0 0.8818295 0 0 0 0 1 0.81930697 0 0.5733551 33.899998 0 1 0 0 -0.5733551 0 0.81930697 0 0 0 0 1 0.7688498 0 0.63942945 33.899998 0 1 0 0 -0.63942945 0 0.7688498 0 0 0 0 1 0.72973835 0 0.6837265 33.899998 0 1 0 0 -0.6837265 0 0.72973835 0 0 0 0 1 0.70885277 0 0.70535654 33.899998 0 1 0 0 -0.70535654 0 0.70885277 0 0 0 0 1 0.7125088 0 0.7016632 33.899998 0 1 0 0 -0.7016632 0 0.7125088 0 0 0 0 1 0.7575257 0 0.6528054 33.899998 0 1 0 0 -0.6528054 0 0.7575257 0 0 0 0 1 0.8251814 0 0.56486785 33.899998 0 1 0 0 -0.56486785 0 0.8251814 0 0 0 0 1 0.8947568 0 0.44655383 33.899998 0 1 0 0 -0.44655383 0 0.8947568 0 0 0 0 1 0.9542804 0 0.29891294 33.899998 0 1 0 0 -0.29891294 0 0.9542804 0 0 0 0 1 0.98715836 0 0.1597447 33.899998 0 1 0 0 -0.1597447 0 0.98715836 0 0 0 0 1 0.99152577 0 0.12991036 33.899998 0 1 0 0 -0.12991036 0 0.99152577 0 0 0 0 1 0.99152577 0 0.12991036 33.899998 0 1 0 0 -0.12991036 0 0.99152577 0 0 0 0 1</float_array>
        <technique_common>
          <accessor source="#Motion_30_LLeg_transform_pose_array_id" count="17" stride="16">
            <param name="TRANSFORM" type="float4x4" />
          </accessor>
        </technique_common>
      </source>
      <sampler id="Motion_30_LLeg_transform_samp_id">
        <input semantic="INPUT" source="#Motion_30_LLeg_transform_frame_id" />
        <input semantic="INTERPOLATION" source="#Motion_30_LLeg_transform_interp_id" />
        <input semantic="OUTPUT" source="#Motion_30_LLeg_transform_pose_id" />
      </sampler>
      <channel source="#Motion_30_LLeg_transform_samp_id" target="LLeg_bone_id/transform" />
    </animation>
    <animation id="Motion_30_LFoot_transform_id" name="Motion_30_LFoot_transform">
      <source id="Motion_30_LFoot_transform_frame_id" name="Motion_30_LFoot_transform_frame">
        <float_array id="Motion_30_LFoot_transform_frame_array_id" count="17">0 0.033333335 0.06666667 0.1 0.13333334 0.16666667 0.2 0.23333333 0.26666668 0.3 0.33333334 0.36666667 0.4 0.43333334 0.46666667 0.5 0.53333336</float_array>
        <technique_common>
          <accessor source="#Motion_30_LFoot_transform_frame_array_id" count="17" stride="1">
            <param name="TIME" type="float" />
          </accessor>
        </technique_common>
      </source>
      <source id="Motion_30_LFoot_transform_interp_id" name="Motion_30_LFoot_transform_interp">
        <Name_array id="Motion_30_LFoot_transform_interp_array_id" count="17">LINEAR LINEAR LINEAR LINEAR LINEAR LINEAR LINEAR LINEAR LINEAR LINEAR LINEAR LINEAR LINEAR LINEAR LINEAR LINEAR LINEAR</Name_array>
        <technique_common>
          <accessor source="#Motion_30_LFoot_transform_interp_array_id" count="17" stride="1">
            <param name="INTERPOLATION" type="Name" />
          </accessor>
        </technique_common>
      </source>
      <source id="Motion_30_LFoot_transform_pose_id" name="Motion_30_LFoot_transform_pose">
        <float_array id="Motion_30_LFoot_transform_pose_array_id" count="272">0.23367381 0.025330491 -0.9719851 33.9 0.038461953 0.9986374 0.035271663 4E-06 0.97155404 -0.04562651 0.23238117 0 0 0 0 1 0.24363887 0.022515796 -0.96960455 33.9 0.027381036 0.99917233 0.030082615 4E-06 0.9694794 -0.033878073 0.24282074 0 0 0 0 1 0.09300929 0.025336346 -0.99534285 33.9 0.01957344 0.99943644 0.02726958 4E-06 0.9954729 -0.022018611 0.09246099 0 0 0 0 1 0.049520373 0.033696897 -0.99820447 33.9 0.012334299 0.99933386 0.034346916 4E-06 0.9986969 -0.014013024 0.04907179 0 0 0 0 1 0.13885105 0.04764268 -0.98916656 33.9 0.00031771138 0.9988399 0.048153188 4E-06 0.99031323 -0.0070003904 0.1386748 0 0 0 0 1 0.3335337 0.06507904 -0.94048923 33.9 -0.022196362 0.99788 0.06117862 4E-06 0.9424768 0.00047030672 0.33427113 0 0 0 0 1 0.61717236 0.08530532 -0.7821901 33.9 -0.05902237 0.99632394 0.062088177 4E-06 0.7846112 0.007847605 0.6199385 0 0 0 0 1 0.74357796 0.10897459 -0.6597093 33.9 -0.09307362 0.9938935 0.059271026 4E-06 0.66213983 0.0173289 0.74917996 0 0 0 0 1 0.7320672 0.16084497 -0.6619716 33.9 -0.14420135 0.9862948 0.08017786 4E-06 0.6657954 0.036761623 0.7452282 0 0 0 0 1 0.7002419 0.22011793 -0.67912394 33.9 -0.19814208 0.97382975 0.1113346 4E-06 0.68585783 0.056601875 0.725531 0 0 0 0 1 0.65162545 0.2288372 -0.7231997 33.9 -0.19709449 0.9717415 0.12989333 4E-06 0.73248756 0.05789687 0.67831403 0 0 0 0 1 0.58527124 0.20783159 -0.78374976 33.9 -0.16240686 0.97705257 0.13781229 4E-06 0.7944065 0.04662877 0.60559404 0 0 0 0 1 0.52225435 0.17527762 -0.8345827 33.9 -0.1173268 0.9841116 0.13326217 4E-06 0.8446803 0.02832216 0.53452134 0 0 0 0 1 0.47098762 0.13785782 -0.87130123 33.9 -0.07231334 0.9904228 0.117615856 4E-06 0.87917084 0.0076111034 0.4764458 0 0 0 0 1 0.4183287 0.0954711 -0.9032643 33.9 -0.02820506 0.9953464 0.092141174 4E-06 0.90785766 -0.013068676 0.4190747 0 0 0 0 1 0.33347195 0.07310988 -0.93992096 33.9 0.0024090298 0.9969192 0.07839807 4E-06 0.94275695 -0.028407855 0.33226848 0 0 0 0 1 0.33347195 0.07310988 -0.93992096 33.9 0.0024090298 0.9969192 0.07839807 4E-06 0.94275695 -0.028407855 0.33226848 0 0 0 0 1</float_array>
        <technique_common>
          <accessor source="#Motion_30_LFoot_transform_pose_array_id" count="17" stride="16">
            <param name="TRANSFORM" type="float4x4" />
          </accessor>
        </technique_common>
      </source>
      <sampler id="Motion_30_LFoot_transform_samp_id">
        <input semantic="INPUT" source="#Motion_30_LFoot_transform_frame_id" />
        <input semantic="INTERPOLATION" source="#Motion_30_LFoot_transform_interp_id" />
        <input semantic="OUTPUT" source="#Motion_30_LFoot_transform_pose_id" />
      </sampler>
      <channel source="#Motion_30_LFoot_transform_samp_id" target="LFoot_bone_id/transform" />
    </animation>
    <animation id="Motion_30_Spine2_transform_id" name="Motion_30_Spine2_transform">
      <source id="Motion_30_Spine2_transform_frame_id" name="Motion_30_Spine2_transform_frame">
        <float_array id="Motion_30_Spine2_transform_frame_array_id" count="17">0 0.033333335 0.06666667 0.1 0.13333334 0.16666667 0.2 0.23333333 0.26666668 0.3 0.33333334 0.36666667 0.4 0.43333334 0.46666667 0.5 0.53333336</float_array>
        <technique_common>
          <accessor source="#Motion_30_Spine2_transform_frame_array_id" count="17" stride="1">
            <param name="TIME" type="float" />
          </accessor>
        </technique_common>
      </source>
      <source id="Motion_30_Spine2_transform_interp_id" name="Motion_30_Spine2_transform_interp">
        <Name_array id="Motion_30_Spine2_transform_interp_array_id" count="17">LINEAR LINEAR LINEAR LINEAR LINEAR LINEAR LINEAR LINEAR LINEAR LINEAR LINEAR LINEAR LINEAR LINEAR LINEAR LINEAR LINEAR</Name_array>
        <technique_common>
          <accessor source="#Motion_30_Spine2_transform_interp_array_id" count="17" stride="1">
            <param name="INTERPOLATION" type="Name" />
          </accessor>
        </technique_common>
      </source>
      <source id="Motion_30_Spine2_transform_pose_id" name="Motion_30_Spine2_transform_pose">
        <float_array id="Motion_30_Spine2_transform_pose_array_id" count="272">0.9843449 0.008726755 -0.17603667 12.099998 -0.010126246 0.9999238 -0.0070532323 0 0.17596172 0.008725404 0.9843583 0 0 0 0 1 0.98435336 0.008738035 -0.17598903 12.099998 -0.009173814 0.99995655 -0.0016627174 0 0.17596686 0.0032511924 0.98439074 0 0 0 0 1 0.9843316 0.008731648 -0.1761109 12.099998 -0.0063577346 0.9998812 0.014039403 0 0.17621255 -0.012699762 0.9842702 0 0 0 0 1 0.9837001 0.0070627313 -0.17967822 12.099998 -0.00029036961 0.99928945 0.037690017 0 0.17981674 -0.037023503 0.98300314 0 0 0 0 1 0.98187923 0.0027820372 -0.18948734 12.099998 0.009917283 0.9977678 0.0660382 0 0.18924809 -0.06672073 0.9796599 0 0 0 0 1 0.9791716 -0.0028127804 -0.20301495 12.099998 0.022630576 0.9951854 0.09536233 0 0.20176928 -0.09797043 0.97452086 0 0 0 0 1 0.9761908 -0.008224909 -0.2167577 12.099998 0.035238948 0.99201953 0.1210599 0 0.21403216 -0.12581587 0.96869016 0 0 0 0 1 0.9737898 -0.012300465 -0.22711697 12.099998 0.044858176 0.9893104 0.13875431 0 0.22298244 -0.14530557 0.9639321 0 0 0 0 1 0.97276634 -0.0138539355 -0.23137358 12.099998 0.048690118 0.9881534 0.14554082 0 0.22661626 -0.1528428 0.9619169 0 0 0 0 1 0.9736167 -0.012493741 -0.22784722 12.099998 0.04443539 0.98976606 0.13560471 0 0.22382122 -0.1421515 0.96420795 0 0 0 0 1 0.9757901 -0.008999561 -0.218524 12.099998 0.033903595 0.9932994 0.110484585 0 0.21606545 -0.115218505 0.9695568 0 0 0 0 1 0.978502 -0.0041886754 -0.20619492 12.099998 0.020239169 0.9969181 0.07579382 0 0.20524196 -0.07833761 0.9755711 0 0 0 0 1 0.98108345 0.0011720364 -0.19358164 12.099998 0.0067128236 0.9991743 0.040070474 0 0.19346878 -0.04061196 0.9802655 0 0 0 0 1 0.98304963 0.0056528393 -0.18325254 12.099998 -0.003995101 0.9999477 0.0094141215 0 0.18329617 -0.008522436 0.9830208 0 0 0 0 1 0.9841848 0.00834349 -0.17694809 12.099998 -0.009991294 0.9999146 -0.008423384 0 0.1768627 0.010058107 0.98418415 0 0 0 0 1 0.98432136 0.008678252 -0.17617075 12.099998 -0.010533439 0.99989843 -0.009598174 0 0.17606957 0.011303372 0.98431283 0 0 0 0 1 0.98432136 0.008678252 -0.17617075 12.099998 -0.010533439 0.99989843 -0.009598174 0 0.17606957 0.011303372 0.98431283 0 0 0 0 1</float_array>
        <technique_common>
          <accessor source="#Motion_30_Spine2_transform_pose_array_id" count="17" stride="16">
            <param name="TRANSFORM" type="float4x4" />
          </accessor>
        </technique_common>
      </source>
      <sampler id="Motion_30_Spine2_transform_samp_id">
        <input semantic="INPUT" source="#Motion_30_Spine2_transform_frame_id" />
        <input semantic="INTERPOLATION" source="#Motion_30_Spine2_transform_interp_id" />
        <input semantic="OUTPUT" source="#Motion_30_Spine2_transform_pose_id" />
      </sampler>
      <channel source="#Motion_30_Spine2_transform_samp_id" target="Spine2_bone_id/transform" />
    </animation>
    <animation id="Motion_30_Spine3_transform_id" name="Motion_30_Spine3_transform">
      <source id="Motion_30_Spine3_transform_frame_id" name="Motion_30_Spine3_transform_frame">
        <float_array id="Motion_30_Spine3_transform_frame_array_id" count="17">0 0.033333335 0.06666667 0.1 0.13333334 0.16666667 0.2 0.23333333 0.26666668 0.3 0.33333334 0.36666667 0.4 0.43333334 0.46666667 0.5 0.53333336</float_array>
        <technique_common>
          <accessor source="#Motion_30_Spine3_transform_frame_array_id" count="17" stride="1">
            <param name="TIME" type="float" />
          </accessor>
        </technique_common>
      </source>
      <source id="Motion_30_Spine3_transform_interp_id" name="Motion_30_Spine3_transform_interp">
        <Name_array id="Motion_30_Spine3_transform_interp_array_id" count="17">LINEAR LINEAR LINEAR LINEAR LINEAR LINEAR LINEAR LINEAR LINEAR LINEAR LINEAR LINEAR LINEAR LINEAR LINEAR LINEAR LINEAR</Name_array>
        <technique_common>
          <accessor source="#Motion_30_Spine3_transform_interp_array_id" count="17" stride="1">
            <param name="INTERPOLATION" type="Name" />
          </accessor>
        </technique_common>
      </source>
      <source id="Motion_30_Spine3_transform_pose_id" name="Motion_30_Spine3_transform_pose">
        <float_array id="Motion_30_Spine3_transform_pose_array_id" count="272">0.9919066 1.990702E-07 0.12696987 12.099991 0.004430985 0.99939084 -0.03461705 0 -0.12689254 0.03489948 0.9913023 0 0 0 0 1 0.9919005 6.4540654E-07 0.12701735 12.099991 0.0022312899 0.9998456 -0.017429609 0 -0.12699774 0.017571852 0.9917473 0 0 0 0 1 0.99195415 -0.00037205196 0.12659705 12.099991 -0.001978037 0.99982804 0.018437319 0 -0.12658215 -0.018539388 0.99178284 0 0 0 0 1 0.9921771 -0.0044301045 0.1247594 12.099991 -0.0026238835 0.99840933 0.056319725 0 -0.12481045 -0.0562065 0.9905873 0 0 0 0 1 0.9926198 -0.015416299 0.12028402 12.099991 0.004050874 0.99554825 0.09416623 0 -0.12120023 -0.09298401 0.98826337 0 0 0 0 1 0.9931381 -0.03000648 0.11303269 12.099991 0.015309926 0.99156404 0.12871034 0 -0.11594129 -0.12609662 0.9852194 0 0 0 0 1 0.99348193 -0.044407234 0.104983956 12.099991 0.027566856 0.98725665 0.1567303 0 -0.11060606 -0.15281463 0.9820458 0 0 0 0 1 0.99362224 -0.055009216 0.09843195 12.099991 0.037115835 0.9838404 0.17515828 0 -0.10647666 -0.17038776 0.97960746 0 0 0 0 1 0.99366415 -0.058899052 0.0957207 12.099991 0.04070974 0.9824681 0.18193169 0 -0.104758136 -0.17688222 0.9786411 0 0 0 0 1 0.9936054 -0.05573627 0.09819269 12.099991 0.038556065 0.98488003 0.16889268 0 -0.106121466 -0.16402677 0.98073107 0 0 0 0 1 0.993443 -0.046669554 0.10436912 12.099991 0.032259587 0.9902217 0.13572155 0 -0.109682634 -0.13146473 0.9852344 0 0 0 0 1 0.99312097 -0.034015965 0.11204287 12.099991 0.02397789 0.99567556 0.08975062 0 -0.114611305 -0.08644667 0.98964196 0 0 0 0 1 0.99266475 -0.02035636 0.11917339 12.099991 0.015465211 0.99900526 0.041824292 0 -0.11990625 -0.039674457 0.9919922 0 0 0 0 1 0.9922208 -0.008386304 0.124207504 12.099991 0.008453478 0.9999643 -1.379411E-05 0 -0.124202944 0.0010636721 0.9922563 0 0 0 0 1 0.9919722 -0.0010179695 0.12645209 12.099991 0.0044562267 0.99962795 -0.026910288 0 -0.12637764 0.027257757 0.99160767 0 0 0 0 1 0.99190366 0.00032477197 0.1269923 12.099991 0.003641084 0.9995129 -0.030995727 0 -0.1269405 0.031207163 0.9914193 0 0 0 0 1 0.99190366 0.00032477197 0.1269923 12.099991 0.003641084 0.9995129 -0.030995727 0 -0.1269405 0.031207163 0.9914193 0 0 0 0 1</float_array>
        <technique_common>
          <accessor source="#Motion_30_Spine3_transform_pose_array_id" count="17" stride="16">
            <param name="TRANSFORM" type="float4x4" />
          </accessor>
        </technique_common>
      </source>
      <sampler id="Motion_30_Spine3_transform_samp_id">
        <input semantic="INPUT" source="#Motion_30_Spine3_transform_frame_id" />
        <input semantic="INTERPOLATION" source="#Motion_30_Spine3_transform_interp_id" />
        <input semantic="OUTPUT" source="#Motion_30_Spine3_transform_pose_id" />
      </sampler>
      <channel source="#Motion_30_Spine3_transform_samp_id" target="Spine3_bone_id/transform" />
    </animation>
    <animation id="Motion_30_RShoulder_transform_id" name="Motion_30_RShoulder_transform">
      <source id="Motion_30_RShoulder_transform_frame_id" name="Motion_30_RShoulder_transform_frame">
        <float_array id="Motion_30_RShoulder_transform_frame_array_id" count="17">0 0.033333335 0.06666667 0.1 0.13333334 0.16666667 0.2 0.23333333 0.26666668 0.3 0.33333334 0.36666667 0.4 0.43333334 0.46666667 0.5 0.53333336</float_array>
        <technique_common>
          <accessor source="#Motion_30_RShoulder_transform_frame_array_id" count="17" stride="1">
            <param name="TIME" type="float" />
          </accessor>
        </technique_common>
      </source>
      <source id="Motion_30_RShoulder_transform_interp_id" name="Motion_30_RShoulder_transform_interp">
        <Name_array id="Motion_30_RShoulder_transform_interp_array_id" count="17">LINEAR LINEAR LINEAR LINEAR LINEAR LINEAR LINEAR LINEAR LINEAR LINEAR LINEAR LINEAR LINEAR LINEAR LINEAR LINEAR LINEAR</Name_array>
        <technique_common>
          <accessor source="#Motion_30_RShoulder_transform_interp_array_id" count="17" stride="1">
            <param name="INTERPOLATION" type="Name" />
          </accessor>
        </technique_common>
      </source>
      <source id="Motion_30_RShoulder_transform_pose_id" name="Motion_30_RShoulder_transform_pose">
        <float_array id="Motion_30_RShoulder_transform_pose_array_id" count="272">-0.6105288 -0.78145266 -0.12878908 14.14009 0.78195226 -0.6205776 0.058604077 3.93 -0.12571989 -0.06492743 0.98993886 -0.201935 0 0 0 1 -0.6137284 -0.78139687 -0.11294453 14.14009 0.7834643 -0.6204394 0.03519489 3.93 -0.09757641 -0.06688791 0.9929778 -0.201935 0 0 0 1 -0.62179255 -0.77993864 -0.07120007 14.14009 0.78280514 -0.62173915 -0.025617223 3.93 -0.02428802 -0.07166439 0.997133 -0.201935 0 0 0 1 -0.63137543 -0.77537185 -0.012794107 14.14009 0.7715779 -0.6264626 -0.110509075 3.93 0.07767059 -0.07964436 0.9937928 -0.201935 0 0 0 1 -0.6393 -0.7670575 0.054022327 14.14009 0.74527556 -0.63538134 -0.2021262 3.93 0.18936719 -0.08895776 0.9778684 -0.201935 0 0 0 1 -0.6438911 -0.7557813 0.11915749 14.14009 0.7066431 -0.64713836 -0.28612432 3.93 0.29335883 -0.100031115 0.95075464 -0.201935 0 0 0 1 -0.64536524 -0.7442183 0.17216966 14.14009 0.66576964 -0.65850985 -0.35087776 3.93 0.37450513 -0.111819044 0.9204577 -0.201935 0 0 0 1 -0.6451112 -0.7365144 0.20341636 14.14009 0.63851327 -0.6658584 -0.38591897 3.93 0.41968137 -0.119076595 0.8998268 -0.201935 0 0 0 1 -0.64544797 -0.7365432 0.20223911 14.14009 0.63938046 -0.6658678 -0.3844636 3.93 0.41783863 -0.11884357 0.90071476 -0.201935 0 0 0 1 -0.64740276 -0.74456155 0.16278253 14.14009 0.6721045 -0.6584506 -0.3387017 3.93 0.35936844 -0.10986946 0.9267055 -0.201935 0 0 0 1 -0.6478466 -0.75545865 0.0978653 14.14009 0.71639055 -0.6478833 -0.2589062 3.93 0.25899816 -0.097621635 0.96093184 -0.201935 0 0 0 1 -0.64420986 -0.764558 0.021091085 14.14009 0.7528518 -0.63872886 -0.15887016 3.93 0.13493693 -0.08646725 0.9870742 -0.201935 0 0 0 1 -0.6363523 -0.76965225 -0.051879704 14.14009 0.7712954 -0.6337255 -0.059123546 3.93 0.01262708 -0.07763797 0.99690163 -0.201935 0 0 0 1 -0.6271093 -0.77164876 -0.10626656 14.14009 0.7747214 -0.63205326 0.017768295 3.93 -0.08087699 -0.071184315 0.9941789 -0.201935 0 0 0 1 -0.6209425 -0.77335274 -0.12788892 14.14009 0.77457225 -0.63040257 0.051284276 3.93 -0.12028236 -0.067214616 0.9904617 -0.201935 0 0 0 1 -0.61876845 -0.7750282 -0.12828271 14.14009 0.776492 -0.6281637 0.049701244 3.93 -0.11910243 -0.06885694 0.99049145 -0.201935 0 0 0 1 -0.61876845 -0.7750282 -0.12828271 14.14009 0.776492 -0.6281637 0.049701244 3.93 -0.11910243 -0.06885694 0.99049145 -0.201935 0 0 0 1</float_array>
        <technique_common>
          <accessor source="#Motion_30_RShoulder_transform_pose_array_id" count="17" stride="16">
            <param name="TRANSFORM" type="float4x4" />
          </accessor>
        </technique_common>
      </source>
      <sampler id="Motion_30_RShoulder_transform_samp_id">
        <input semantic="INPUT" source="#Motion_30_RShoulder_transform_frame_id" />
        <input semantic="INTERPOLATION" source="#Motion_30_RShoulder_transform_interp_id" />
        <input semantic="OUTPUT" source="#Motion_30_RShoulder_transform_pose_id" />
      </sampler>
      <channel source="#Motion_30_RShoulder_transform_samp_id" target="RShoulder_bone_id/transform" />
    </animation>
    <animation id="Motion_30_RArm_transform_id" name="Motion_30_RArm_transform">
      <source id="Motion_30_RArm_transform_frame_id" name="Motion_30_RArm_transform_frame">
        <float_array id="Motion_30_RArm_transform_frame_array_id" count="17">0 0.033333335 0.06666667 0.1 0.13333334 0.16666667 0.2 0.23333333 0.26666668 0.3 0.33333334 0.36666667 0.4 0.43333334 0.46666667 0.5 0.53333336</float_array>
        <technique_common>
          <accessor source="#Motion_30_RArm_transform_frame_array_id" count="17" stride="1">
            <param name="TIME" type="float" />
          </accessor>
        </technique_common>
      </source>
      <source id="Motion_30_RArm_transform_interp_id" name="Motion_30_RArm_transform_interp">
        <Name_array id="Motion_30_RArm_transform_interp_array_id" count="17">LINEAR LINEAR LINEAR LINEAR LINEAR LINEAR LINEAR LINEAR LINEAR LINEAR LINEAR LINEAR LINEAR LINEAR LINEAR LINEAR LINEAR</Name_array>
        <technique_common>
          <accessor source="#Motion_30_RArm_transform_interp_array_id" count="17" stride="1">
            <param name="INTERPOLATION" type="Name" />
          </accessor>
        </technique_common>
      </source>
      <source id="Motion_30_RArm_transform_pose_id" name="Motion_30_RArm_transform_pose">
        <float_array id="Motion_30_RArm_transform_pose_array_id" count="272">0.92327154 -0.3723894 0.09431718 8.161548 0.35597423 0.9216629 0.1543368 0 -0.14440203 -0.10892029 0.9835062 0 0 0 0 1 0.92495036 -0.36617988 0.10187809 8.161548 0.35310698 0.9270349 0.12618153 0 -0.14064969 -0.080737785 0.9867619 0 0 0 0 1 0.92581433 -0.36383727 0.10242171 8.161548 0.3521814 0.9287443 0.11576834 0 -0.13724442 -0.07110897 0.9879815 0 0 0 0 1 0.92504007 -0.36936763 0.088703886 8.161548 0.3553582 0.92394954 0.14155486 0 -0.1342437 -0.09942226 0.9859482 0 0 0 0 1 0.9232919 -0.37970245 0.05794923 8.161548 0.36118102 0.9095986 0.20537458 0 -0.13069177 -0.16869052 0.9769663 0 0 0 0 1 0.9207897 -0.38960555 0.018809836 8.161548 0.3687047 0.8851035 0.28398705 0 -0.12729158 -0.25455707 0.9586436 0 0 0 0 1 0.9179712 -0.39624962 -0.017752353 8.161548 0.37621638 0.8556366 0.35545364 0 -0.12565881 -0.33297494 0.9345253 0 0 0 0 1 0.91578287 -0.39948076 -0.041915506 8.161548 0.38174134 0.8331228 0.40022495 0 -0.124961406 -0.38252005 0.91545784 0 0 0 0 1 0.91471124 -0.40196186 -0.041593313 8.161548 0.38376212 0.83179677 0.4010496 0 -0.12660946 -0.38280654 0.9151116 0 0 0 0 1 0.9144165 -0.4041802 -0.02192901 8.161548 0.38354436 0.8478683 0.366078 0 -0.12936854 -0.3431585 0.93032575 0 0 0 0 1 0.91446877 -0.40462628 0.00494387 8.161548 0.38169888 0.86657995 0.32147342 0 -0.13436085 -0.29209036 0.9469057 0 0 0 0 1 0.9146227 -0.40291923 0.03348675 8.161548 0.37948197 0.88408726 0.27273268 0 -0.13949445 -0.23673987 0.9615069 0 0 0 0 1 0.9150492 -0.39897075 0.05922286 8.161548 0.37659273 0.8976845 0.22878036 0 -0.14444011 -0.18704239 0.9716749 0 0 0 0 1 0.9160257 -0.3937001 0.076792836 8.161548 0.37286708 0.90633386 0.19881926 0 -0.1478751 -0.15349005 0.9770229 0 0 0 0 1 0.9177755 -0.38839325 0.08269699 8.161548 0.3681158 0.9102365 0.18963204 0 -0.14892562 -0.14359759 0.97836643 0 0 0 0 1 0.9203642 -0.3825616 0.08109477 8.161548 0.36349544 0.9133683 0.18338327 0 -0.14422478 -0.13930182 0.97969085 0 0 0 0 1 0.9203642 -0.3825616 0.08109477 8.161548 0.36349544 0.9133683 0.18338327 0 -0.14422478 -0.13930182 0.97969085 0 0 0 0 1</float_array>
        <technique_common>
          <accessor source="#Motion_30_RArm_transform_pose_array_id" count="17" stride="16">
            <param name="TRANSFORM" type="float4x4" />
          </accessor>
        </technique_common>
      </source>
      <sampler id="Motion_30_RArm_transform_samp_id">
        <input semantic="INPUT" source="#Motion_30_RArm_transform_frame_id" />
        <input semantic="INTERPOLATION" source="#Motion_30_RArm_transform_interp_id" />
        <input semantic="OUTPUT" source="#Motion_30_RArm_transform_pose_id" />
      </sampler>
      <channel source="#Motion_30_RArm_transform_samp_id" target="RArm_bone_id/transform" />
    </animation>
    <animation id="Motion_30_RForeArm_transform_id" name="Motion_30_RForeArm_transform">
      <source id="Motion_30_RForeArm_transform_frame_id" name="Motion_30_RForeArm_transform_frame">
        <float_array id="Motion_30_RForeArm_transform_frame_array_id" count="17">0 0.033333335 0.06666667 0.1 0.13333334 0.16666667 0.2 0.23333333 0.26666668 0.3 0.33333334 0.36666667 0.4 0.43333334 0.46666667 0.5 0.53333336</float_array>
        <technique_common>
          <accessor source="#Motion_30_RForeArm_transform_frame_array_id" count="17" stride="1">
            <param name="TIME" type="float" />
          </accessor>
        </technique_common>
      </source>
      <source id="Motion_30_RForeArm_transform_interp_id" name="Motion_30_RForeArm_transform_interp">
        <Name_array id="Motion_30_RForeArm_transform_interp_array_id" count="17">LINEAR LINEAR LINEAR LINEAR LINEAR LINEAR LINEAR LINEAR LINEAR LINEAR LINEAR LINEAR LINEAR LINEAR LINEAR LINEAR LINEAR</Name_array>
        <technique_common>
          <accessor source="#Motion_30_RForeArm_transform_interp_array_id" count="17" stride="1">
            <param name="INTERPOLATION" type="Name" />
          </accessor>
        </technique_common>
      </source>
      <source id="Motion_30_RForeArm_transform_pose_id" name="Motion_30_RForeArm_transform_pose">
        <float_array id="Motion_30_RForeArm_transform_pose_array_id" count="272">0.81078994 -1.7484554E-07 -0.5853372 22.9 1.4176301E-07 1 -1.02343606E-07 0 0.5853372 3.5527137E-15 0.81078994 0 0 0 0 1 0.8466978 -1.7531453E-07 -0.5320741 22.9 1.4544086E-07 1 -9.805037E-08 0 0.5320741 5.6337086E-09 0.8466978 0 0 0 0 1 0.8919809 -1.75565E-07 -0.45207307 22.9 1.5038903E-07 1 -9.162427E-08 0 0.45207307 1.3740266E-08 0.8919809 0 0 0 0 1 0.91445726 -1.7548479E-07 -0.4046825 22.9 1.5303712E-07 1 -8.781916E-08 0 0.4046825 1.8375427E-08 0.91445726 0 0 0 0 1 0.91395825 -1.7548852E-07 -0.40580824 22.9 1.5297645E-07 1 -8.79096E-08 0 0.40580824 1.826659E-08 0.91395825 0 0 0 0 1 0.9057381 -1.7553648E-07 -0.42383775 22.9 1.5199026E-07 1 -8.935756E-08 0 0.42383775 1.651535E-08 0.9057381 0 0 0 0 1 0.89095867 -1.7556482E-07 -0.45408437 22.9 1.5027226E-07 1 -9.1785715E-08 0 0.45408437 1.3541005E-08 0.89095867 0 0 0 0 1 0.8715251 -1.7550875E-07 -0.4903509 22.9 1.4810112E-07 1 -9.4697256E-08 0 0.4903509 9.909524E-09 0.8715251 0 0 0 0 1 0.85003 -1.7534751E-07 -0.5267343 22.9 1.457916E-07 1 -9.762088E-08 0 0.5267343 6.1872285E-09 0.85003 0 0 0 0 1 0.82995963 -1.7512039E-07 -0.5578235 22.9 1.4370474E-07 1 -1.00123515E-07 0 0.5578235 2.9365914E-09 0.82995963 0 0 0 0 1 0.81496364 -1.7490979E-07 -0.5795121 22.9 1.4218193E-07 1 -1.0187308E-07 0 0.5795121 6.267129E-10 0.81496364 0 0 0 0 1 0.80549926 -1.7476084E-07 -0.59259677 22.9 1.4123488E-07 1 -1.0293044E-07 0 0.59259677 -7.849401E-10 0.80549926 0 0 0 0 1 0.8005756 -1.7467876E-07 -0.5992317 22.9 1.4074614E-07 1 -1.03467215E-07 0 0.5992317 -1.5062227E-09 0.8005756 0 0 0 0 1 0.79894936 -1.74651E-07 -0.6013983 22.9 1.4058529E-07 1 -1.0364259E-07 0 0.6013983 -1.742567E-09 0.79894936 0 0 0 0 1 0.79941905 -1.7465906E-07 -0.6007738 22.9 1.4063171E-07 1 -1.0359204E-07 0 0.6007738 -1.6744011E-09 0.79941905 0 0 0 0 1 0.80971456 -1.748286E-07 -0.58682394 22.9 1.4165538E-07 1 -1.02463744E-07 0 0.58682394 -1.6039436E-10 0.80971456 0 0 0 0 1 0.80971456 -1.748286E-07 -0.58682394 22.9 1.4165538E-07 1 -1.02463744E-07 0 0.58682394 -1.6039436E-10 0.80971456 0 0 0 0 1</float_array>
        <technique_common>
          <accessor source="#Motion_30_RForeArm_transform_pose_array_id" count="17" stride="16">
            <param name="TRANSFORM" type="float4x4" />
          </accessor>
        </technique_common>
      </source>
      <sampler id="Motion_30_RForeArm_transform_samp_id">
        <input semantic="INPUT" source="#Motion_30_RForeArm_transform_frame_id" />
        <input semantic="INTERPOLATION" source="#Motion_30_RForeArm_transform_interp_id" />
        <input semantic="OUTPUT" source="#Motion_30_RForeArm_transform_pose_id" />
      </sampler>
      <channel source="#Motion_30_RForeArm_transform_samp_id" target="RForeArm_bone_id/transform" />
    </animation>
    <animation id="Motion_30_RHand_transform_id" name="Motion_30_RHand_transform">
      <source id="Motion_30_RHand_transform_frame_id" name="Motion_30_RHand_transform_frame">
        <float_array id="Motion_30_RHand_transform_frame_array_id" count="17">0 0.033333335 0.06666667 0.1 0.13333334 0.16666667 0.2 0.23333333 0.26666668 0.3 0.33333334 0.36666667 0.4 0.43333334 0.46666667 0.5 0.53333336</float_array>
        <technique_common>
          <accessor source="#Motion_30_RHand_transform_frame_array_id" count="17" stride="1">
            <param name="TIME" type="float" />
          </accessor>
        </technique_common>
      </source>
      <source id="Motion_30_RHand_transform_interp_id" name="Motion_30_RHand_transform_interp">
        <Name_array id="Motion_30_RHand_transform_interp_array_id" count="17">LINEAR LINEAR LINEAR LINEAR LINEAR LINEAR LINEAR LINEAR LINEAR LINEAR LINEAR LINEAR LINEAR LINEAR LINEAR LINEAR LINEAR</Name_array>
        <technique_common>
          <accessor source="#Motion_30_RHand_transform_interp_array_id" count="17" stride="1">
            <param name="INTERPOLATION" type="Name" />
          </accessor>
        </technique_common>
      </source>
      <source id="Motion_30_RHand_transform_pose_id" name="Motion_30_RHand_transform_pose">
        <float_array id="Motion_30_RHand_transform_pose_array_id" count="272">0.9717604 -0.21730815 -0.09197247 22.900002 0.21462436 0.97594744 -0.038249154 0 0.09807214 0.017429482 0.99502665 0 0 0 0 1 0.97609764 -0.19620526 -0.09347127 22.900002 0.1960505 0.98053294 -0.0109260855 0 0.09379541 -0.007660161 0.995562 0 0 0 0 1 0.9861739 -0.13942319 -0.0895667 22.900002 0.14162707 0.9897433 0.0187095 0 0.086039506 -0.03113589 0.9958051 0 0 0 0 1 0.9962032 -0.045713797 -0.07409078 22.900002 0.04850392 0.9981629 0.036306016 0 0.07229498 -0.039761864 0.9965904 0 0 0 0 1 0.99462783 0.09009976 -0.050965324 22.900002 -0.09061729 0.9958542 -0.00793195 0 0.050039366 0.012507679 0.9986689 0 0 0 0 1 0.9727077 0.22679211 -0.049041834 22.900002 -0.23066096 0.96806633 -0.09819954 0 0.025204863 0.10683148 0.99395764 0 0 0 0 1 0.946734 0.3114611 -0.081772104 22.900002 -0.32171994 0.9257544 -0.19868308 0 0.013818834 0.21440774 0.9766465 0 0 0 0 1 0.9478947 0.29444277 -0.1216513 22.900002 -0.3173083 0.90669405 -0.2778872 0 0.02847863 0.30200878 0.95287967 0 0 0 0 1 0.97767884 0.15980846 -0.13640143 22.900002 -0.1975269 0.92036855 -0.33749792 0 0.071604565 0.35690752 0.93139136 0 0 0 0 1 0.9918147 -0.029856455 -0.124146014 22.900002 -0.019095954 0.92665964 -0.37541616 0 0.1262497 0.37471396 0.9185045 0 0 0 0 1 0.97367114 -0.20111501 -0.10731825 22.900002 0.14483032 0.9093239 -0.39006957 0 0.17603591 0.36425653 0.91451 0 0 0 0 1 0.9527101 -0.28330374 -0.10992016 22.900002 0.22429566 0.89963186 -0.3746385 0 0.20502417 0.33226728 0.9206321 0 0 0 0 1 0.9506423 -0.28601494 -0.12031058 22.900002 0.23372848 0.91508585 -0.32861653 0 0.20408377 0.28427675 0.9367692 0 0 0 0 1 0.9549995 -0.2716272 -0.11914105 22.900002 0.23269695 0.93520343 -0.26692057 0 0.18392402 0.22718525 0.9563257 0 0 0 0 1 0.96111643 -0.25170085 -0.11358634 22.900002 0.2259846 0.9533138 -0.2003092 0 0.15870142 0.16685171 0.97312605 0 0 0 0 1 0.966127 -0.23460376 -0.10751629 22.900002 0.21973148 0.9663086 -0.13403668 0 0.13533942 0.10587174 0.9851266 0 0 0 0 1 0.966127 -0.23460376 -0.10751629 22.900002 0.21973148 0.9663086 -0.13403668 0 0.13533942 0.10587174 0.9851266 0 0 0 0 1</float_array>
        <technique_common>
          <accessor source="#Motion_30_RHand_transform_pose_array_id" count="17" stride="16">
            <param name="TRANSFORM" type="float4x4" />
          </accessor>
        </technique_common>
      </source>
      <sampler id="Motion_30_RHand_transform_samp_id">
        <input semantic="INPUT" source="#Motion_30_RHand_transform_frame_id" />
        <input semantic="INTERPOLATION" source="#Motion_30_RHand_transform_interp_id" />
        <input semantic="OUTPUT" source="#Motion_30_RHand_transform_pose_id" />
      </sampler>
      <channel source="#Motion_30_RHand_transform_samp_id" target="RHand_bone_id/transform" />
    </animation>
    <animation id="Motion_30_LShoulder_transform_id" name="Motion_30_LShoulder_transform">
      <source id="Motion_30_LShoulder_transform_frame_id" name="Motion_30_LShoulder_transform_frame">
        <float_array id="Motion_30_LShoulder_transform_frame_array_id" count="17">0 0.033333335 0.06666667 0.1 0.13333334 0.16666667 0.2 0.23333333 0.26666668 0.3 0.33333334 0.36666667 0.4 0.43333334 0.46666667 0.5 0.53333336</float_array>
        <technique_common>
          <accessor source="#Motion_30_LShoulder_transform_frame_array_id" count="17" stride="1">
            <param name="TIME" type="float" />
          </accessor>
        </technique_common>
      </source>
      <source id="Motion_30_LShoulder_transform_interp_id" name="Motion_30_LShoulder_transform_interp">
        <Name_array id="Motion_30_LShoulder_transform_interp_array_id" count="17">LINEAR LINEAR LINEAR LINEAR LINEAR LINEAR LINEAR LINEAR LINEAR LINEAR LINEAR LINEAR LINEAR LINEAR LINEAR LINEAR LINEAR</Name_array>
        <technique_common>
          <accessor source="#Motion_30_LShoulder_transform_interp_array_id" count="17" stride="1">
            <param name="INTERPOLATION" type="Name" />
          </accessor>
        </technique_common>
      </source>
      <source id="Motion_30_LShoulder_transform_pose_id" name="Motion_30_LShoulder_transform_pose">
        <float_array id="Motion_30_LShoulder_transform_pose_array_id" count="272">-0.60990846 0.7818524 -0.12930018 14.14009 -0.7823948 -0.62002075 -0.058588844 -3.930001 -0.12597662 0.065429956 0.9898731 -0.201936 0 0 0 1 -0.6091434 0.7824207 -0.12946992 14.14009 -0.78241223 -0.61956453 -0.06301727 -3.930001 -0.12952097 0.06291228 0.9895789 -0.201936 0 0 0 1 -0.6078166 0.7823963 -0.13569902 14.14009 -0.7822958 -0.6193181 -0.06676426 -3.930001 -0.13627703 0.06557635 0.98849803 -0.201936 0 0 0 1 -0.60573256 0.78115344 -0.15128535 14.14009 -0.7819629 -0.6195775 -0.06824674 -3.930001 -0.14704418 0.076960266 0.98613137 -0.201936 0 0 0 1 -0.60359216 0.7784018 -0.17253211 14.14009 -0.78109664 -0.6207155 -0.06782636 -3.930001 -0.15988949 0.09382479 0.9826659 -0.201936 0 0 0 1 -0.6015346 0.7748089 -0.19449356 14.14009 -0.78017056 -0.6221317 -0.06547044 -3.930001 -0.17172766 0.11235541 0.97871643 -0.201936 0 0 0 1 -0.59963953 0.7713088 -0.2133433 14.14009 -0.7795571 -0.6232408 -0.0621433 -3.930001 -0.18089591 0.12904972 0.9749989 -0.201936 0 0 0 1 -0.5986028 0.7688893 -0.22468644 14.14009 -0.77916753 -0.62398696 -0.059483267 -3.930001 -0.18593746 0.13946152 0.9726139 -0.201936 0 0 0 1 -0.5991477 0.7684687 -0.22467372 14.14009 -0.7789534 -0.6243664 -0.05829775 -3.930001 -0.18507868 0.14008136 0.9726886 -0.201936 0 0 0 1 -0.60098803 0.77022696 -0.21345729 14.14009 -0.7792798 -0.6240213 -0.05762369 -3.930001 -0.17758521 0.13171178 0.9752515 -0.201936 0 0 0 1 -0.60360444 0.7732238 -0.19438718 14.14009 -0.7798974 -0.62326276 -0.057473607 -3.930001 -0.1655943 0.11691075 0.9792397 -0.201936 0 0 0 1 -0.605919 0.7766129 -0.17243813 14.14009 -0.780825 -0.62206125 -0.057899762 -3.930001 -0.15223275 0.09956144 0.9833172 -0.201936 0 0 0 1 -0.60794604 0.7794195 -0.15134992 14.14009 -0.781578 -0.6210358 -0.058739137 -3.930001 -0.13977616 0.08258152 0.98673344 -0.201936 0 0 0 1 -0.6087605 0.7816742 -0.13563241 14.14009 -0.78162616 -0.62021875 -0.06625174 -3.930001 -0.13590904 0.0656824 0.9885416 -0.201936 0 0 0 1 -0.6094301 0.78220826 -0.12940234 14.14009 -0.7819695 -0.61994874 -0.06470729 -3.930001 -0.13083741 0.061754115 0.98947865 -0.201936 0 0 0 1 -0.60968876 0.78202236 -0.12930699 14.14009 -0.7823292 -0.6199242 -0.060454708 -3.930001 -0.12743749 0.06430208 0.98976004 -0.201936 0 0 0 1 -0.60968876 0.78202236 -0.12930699 14.14009 -0.7823292 -0.6199242 -0.060454708 -3.930001 -0.12743749 0.06430208 0.98976004 -0.201936 0 0 0 1</float_array>
        <technique_common>
          <accessor source="#Motion_30_LShoulder_transform_pose_array_id" count="17" stride="16">
            <param name="TRANSFORM" type="float4x4" />
          </accessor>
        </technique_common>
      </source>
      <sampler id="Motion_30_LShoulder_transform_samp_id">
        <input semantic="INPUT" source="#Motion_30_LShoulder_transform_frame_id" />
        <input semantic="INTERPOLATION" source="#Motion_30_LShoulder_transform_interp_id" />
        <input semantic="OUTPUT" source="#Motion_30_LShoulder_transform_pose_id" />
      </sampler>
      <channel source="#Motion_30_LShoulder_transform_samp_id" target="LShoulder_bone_id/transform" />
    </animation>
    <animation id="Motion_30_LArm_transform_id" name="Motion_30_LArm_transform">
      <source id="Motion_30_LArm_transform_frame_id" name="Motion_30_LArm_transform_frame">
        <float_array id="Motion_30_LArm_transform_frame_array_id" count="17">0 0.033333335 0.06666667 0.1 0.13333334 0.16666667 0.2 0.23333333 0.26666668 0.3 0.33333334 0.36666667 0.4 0.43333334 0.46666667 0.5 0.53333336</float_array>
        <technique_common>
          <accessor source="#Motion_30_LArm_transform_frame_array_id" count="17" stride="1">
            <param name="TIME" type="float" />
          </accessor>
        </technique_common>
      </source>
      <source id="Motion_30_LArm_transform_interp_id" name="Motion_30_LArm_transform_interp">
        <Name_array id="Motion_30_LArm_transform_interp_array_id" count="17">LINEAR LINEAR LINEAR LINEAR LINEAR LINEAR LINEAR LINEAR LINEAR LINEAR LINEAR LINEAR LINEAR LINEAR LINEAR LINEAR LINEAR</Name_array>
        <technique_common>
          <accessor source="#Motion_30_LArm_transform_interp_array_id" count="17" stride="1">
            <param name="INTERPOLATION" type="Name" />
          </accessor>
        </technique_common>
      </source>
      <source id="Motion_30_LArm_transform_pose_id" name="Motion_30_LArm_transform_pose">
        <float_array id="Motion_30_LArm_transform_pose_array_id" count="272">0.900407 0.42665446 0.08504826 8.161509 -0.4103722 0.8978508 -0.15955739 0 -0.14443652 0.10876514 0.9835183 0 0 0 0 1 0.8992468 0.4273865 0.09325198 8.161509 -0.4137722 0.90021 -0.13569993 0 -0.14194268 0.08344264 0.98635167 0 0 0 0 1 0.893416 0.44096366 0.08578393 8.161509 -0.42580286 0.8921027 -0.1511447 0 -0.14317739 0.098508045 0.9847824 0 0 0 0 1 0.8848064 0.46102095 0.0676558 8.161509 -0.4425102 0.8768556 -0.18790671 0 -0.1459533 0.13632268 0.9798539 0 0 0 0 1 0.8751866 0.48192492 0.042388394 8.161509 -0.45982048 0.8558687 -0.23675707 0 -0.15037803 0.18771556 0.97064376 0 0 0 0 1 0.86540323 0.50085574 0.014858164 8.161509 -0.4764246 0.8316523 -0.2852614 0 -0.15523165 0.23978734 0.95833457 0 0 0 0 1 0.8572185 0.5148517 -0.01020582 8.161509 -0.48975062 0.8089812 -0.3251059 0 -0.15912499 0.2836851 0.94562256 0 0 0 0 1 0.85248744 0.52209264 -0.026162095 8.161509 -0.49715525 0.7942681 -0.34924898 0 -0.1615606 0.31073698 0.9366647 0 0 0 0 1 0.85300106 0.5211819 -0.027544051 8.161509 -0.49628016 0.793648 -0.35189325 0 -0.1615401 0.3138349 0.9356348 0 0 0 0 1 0.85867786 0.51212025 -0.020131052 8.161509 -0.4864451 0.8020016 -0.34664768 0 -0.16138016 0.3074513 0.93777937 0 0 0 0 1 0.86812234 0.4963011 -0.006987661 8.161509 -0.4696995 0.81687725 -0.3348043 0 -0.16045569 0.2939332 0.94226176 0 0 0 0 1 0.8789801 0.47677425 0.008962646 8.161509 -0.44944677 0.8345871 -0.31853104 0 -0.1593475 0.2759542 0.9478701 0 0 0 0 1 0.8883751 0.45817572 0.029405542 8.161509 -0.4292482 0.85159683 -0.30088004 0 -0.16289759 0.25467208 0.95320857 0 0 0 0 1 0.89521754 0.4430169 0.048183244 8.161509 -0.41206712 0.86410797 -0.28899494 0 -0.16966516 0.23885861 0.9561173 0 0 0 0 1 0.8978364 0.43632174 0.0592715 8.161509 -0.40760535 0.87447006 -0.26298288 0 -0.1665763 0.21195622 0.9629781 0 0 0 0 1 0.89897 0.43331775 0.06394246 8.161509 -0.40929088 0.88301826 -0.22969472 0 -0.15599316 0.18031761 0.97116 0 0 0 0 1 0.89897 0.43331775 0.06394246 8.161509 -0.40929088 0.88301826 -0.22969472 0 -0.15599316 0.18031761 0.97116 0 0 0 0 1</float_array>
        <technique_common>
          <accessor source="#Motion_30_LArm_transform_pose_array_id" count="17" stride="16">
            <param name="TRANSFORM" type="float4x4" />
          </accessor>
        </technique_common>
      </source>
      <sampler id="Motion_30_LArm_transform_samp_id">
        <input semantic="INPUT" source="#Motion_30_LArm_transform_frame_id" />
        <input semantic="INTERPOLATION" source="#Motion_30_LArm_transform_interp_id" />
        <input semantic="OUTPUT" source="#Motion_30_LArm_transform_pose_id" />
      </sampler>
      <channel source="#Motion_30_LArm_transform_samp_id" target="LArm_bone_id/transform" />
    </animation>
    <animation id="Motion_30_LForeArm_transform_id" name="Motion_30_LForeArm_transform">
      <source id="Motion_30_LForeArm_transform_frame_id" name="Motion_30_LForeArm_transform_frame">
        <float_array id="Motion_30_LForeArm_transform_frame_array_id" count="17">0 0.033333335 0.06666667 0.1 0.13333334 0.16666667 0.2 0.23333333 0.26666668 0.3 0.33333334 0.36666667 0.4 0.43333334 0.46666667 0.5 0.53333336</float_array>
        <technique_common>
          <accessor source="#Motion_30_LForeArm_transform_frame_array_id" count="17" stride="1">
            <param name="TIME" type="float" />
          </accessor>
        </technique_common>
      </source>
      <source id="Motion_30_LForeArm_transform_interp_id" name="Motion_30_LForeArm_transform_interp">
        <Name_array id="Motion_30_LForeArm_transform_interp_array_id" count="17">LINEAR LINEAR LINEAR LINEAR LINEAR LINEAR LINEAR LINEAR LINEAR LINEAR LINEAR LINEAR LINEAR LINEAR LINEAR LINEAR LINEAR</Name_array>
        <technique_common>
          <accessor source="#Motion_30_LForeArm_transform_interp_array_id" count="17" stride="1">
            <param name="INTERPOLATION" type="Name" />
          </accessor>
        </technique_common>
      </source>
      <source id="Motion_30_LForeArm_transform_pose_id" name="Motion_30_LForeArm_transform_pose">
        <float_array id="Motion_30_LForeArm_transform_pose_array_id" count="272">0.81077385 -0.00025620055 -0.58535945 22.9 0.00025068194 0.99999994 -9.046441E-05 0 0.58535945 -7.339285E-05 0.8107739 0 0 0 0 1 0.81798124 -0.00020885782 -0.5752448 22.9 0.00021337628 1 -5.9661572E-05 0 0.5752448 -7.394154E-05 0.8179813 0 0 0 0 1 0.82715964 -0.00015504043 -0.56196696 22.9 0.00017023053 1 -2.532639E-05 0 0.56196696 -7.471496E-05 0.8271597 0 0 0 0 1 0.8397085 -9.748701E-05 -0.5430374 22.9 0.00012311744 1 1.0856998E-05 0 0.5430374 -7.5974094E-05 0.8397085 0 0 0 0 1 0.85465765 -3.8770326E-05 -0.519192 22.9 7.380155E-05 1 4.681261E-05 0 0.519192 -7.832593E-05 0.85465765 0 0 0 0 1 0.87098753 1.8498095E-05 -0.49130514 22.9 2.4240775E-05 1 8.062506E-05 0 0.49130514 -8.213303E-05 0.87098753 0 0 0 0 1 0.88775206 7.166935E-05 -0.460322 22.9 -2.3375498E-05 1 0.000110613226 0 0.460322 -8.7436856E-05 0.88775206 0 0 0 0 1 0.90429264 0.000118060765 -0.42691308 22.9 -6.66526E-05 1 0.00013536081 0 0.42691308 -9.395091E-05 0.90429264 0 0 0 0 1 0.9249862 0.0001544118 -0.38000074 22.9 -0.00010403012 1 0.00015311912 0 0.38000074 -0.00010210154 0.9249862 0 0 0 0 1 0.95852715 0.00017603328 -0.28500125 22.9 -0.0001360275 1 0.00016016497 0 0.28500125 -0.00011475447 0.95852715 0 0 0 0 1 0.973453 0.0001848246 -0.22888689 22.9 -0.00015192418 1 0.00016136163 0 0.22888692 -0.00012230453 0.973453 0 0 0 0 1 0.9666553 0.0001813092 -0.25608104 22.9 -0.00014494847 1 0.00016086307 0 0.25608104 -0.00011838059 0.9666553 0 0 0 0 1 0.94777894 0.00015983624 -0.31892794 22.9 -0.00011709479 1 0.00015318904 0 0.31892794 -0.00010784455 0.94777894 0 0 0 0 1 0.9171354 0.00011625103 -0.39857572 22.9 -6.887445E-05 1 0.0001331838 0 0.39857572 -9.469589E-05 0.9171354 0 0 0 0 1 0.88570166 4.640208E-05 -0.4642549 22.9 -2.1619671E-06 1 9.5825E-05 0 0.4642549 -8.3868654E-05 0.88570166 0 0 0 0 1 0.85639703 -5.1966956E-05 -0.5163179 22.9 8.411077E-05 1 3.8862203E-05 0 0.5163179 -7.670937E-05 0.85639703 0 0 0 0 1 0.85639703 -5.1966956E-05 -0.5163179 22.9 8.411077E-05 1 3.8862203E-05 0 0.5163179 -7.670937E-05 0.85639703 0 0 0 0 1</float_array>
        <technique_common>
          <accessor source="#Motion_30_LForeArm_transform_pose_array_id" count="17" stride="16">
            <param name="TRANSFORM" type="float4x4" />
          </accessor>
        </technique_common>
      </source>
      <sampler id="Motion_30_LForeArm_transform_samp_id">
        <input semantic="INPUT" source="#Motion_30_LForeArm_transform_frame_id" />
        <input semantic="INTERPOLATION" source="#Motion_30_LForeArm_transform_interp_id" />
        <input semantic="OUTPUT" source="#Motion_30_LForeArm_transform_pose_id" />
      </sampler>
      <channel source="#Motion_30_LForeArm_transform_samp_id" target="LForeArm_bone_id/transform" />
    </animation>
    <animation id="Motion_30_LHand_transform_id" name="Motion_30_LHand_transform">
      <source id="Motion_30_LHand_transform_frame_id" name="Motion_30_LHand_transform_frame">
        <float_array id="Motion_30_LHand_transform_frame_array_id" count="17">0 0.033333335 0.06666667 0.1 0.13333334 0.16666667 0.2 0.23333333 0.26666668 0.3 0.33333334 0.36666667 0.4 0.43333334 0.46666667 0.5 0.53333336</float_array>
        <technique_common>
          <accessor source="#Motion_30_LHand_transform_frame_array_id" count="17" stride="1">
            <param name="TIME" type="float" />
          </accessor>
        </technique_common>
      </source>
      <source id="Motion_30_LHand_transform_interp_id" name="Motion_30_LHand_transform_interp">
        <Name_array id="Motion_30_LHand_transform_interp_array_id" count="17">LINEAR LINEAR LINEAR LINEAR LINEAR LINEAR LINEAR LINEAR LINEAR LINEAR LINEAR LINEAR LINEAR LINEAR LINEAR LINEAR LINEAR</Name_array>
        <technique_common>
          <accessor source="#Motion_30_LHand_transform_interp_array_id" count="17" stride="1">
            <param name="INTERPOLATION" type="Name" />
          </accessor>
        </technique_common>
      </source>
      <source id="Motion_30_LHand_transform_pose_id" name="Motion_30_LHand_transform_pose">
        <float_array id="Motion_30_LHand_transform_pose_array_id" count="272">0.9717939 0.21715373 -0.09198297 22.900002 -0.2143467 0.97595906 0.039489105 0 0.09834682 -0.018659025 0.99497724 0 0 0 0 1 0.9721107 0.21197449 -0.10033746 22.900002 -0.20938908 0.9771785 0.035754703 0 0.10562669 -0.01374796 0.9943108 0 0 0 0 1 0.9735612 0.20107378 -0.10838778 22.900002 -0.19898303 0.9795472 0.029884428 0 0.11217992 -0.007526993 0.9936594 0 0 0 0 1 0.9754791 0.18708463 -0.11593027 22.900002 -0.18604903 0.9823412 0.019787751 0 0.117585056 0.0022661742 0.99306023 0 0 0 0 1 0.9771211 0.17371069 -0.12271471 22.900002 -0.17460723 0.98463196 0.0034933211 0 0.12143566 0.018013477 0.9924358 0 0 0 0 1 0.978153 0.16337954 -0.12854508 22.900002 -0.16739295 0.9856668 -0.020989863 0 0.12327329 0.042048834 0.99148154 0 0 0 0 1 0.9775495 0.16334926 -0.13309395 22.900002 -0.17166592 0.9836995 -0.05353638 0 0.12217933 0.07518216 0.98965645 0 0 0 0 1 0.97155964 0.1959218 -0.13299075 22.900002 -0.2082281 0.97430444 -0.0858597 0 0.112751685 0.111110225 0.9873913 0 0 0 0 1 0.9593475 0.24980403 -0.13134032 22.900002 -0.26487604 0.95758665 -0.1134394 0 0.09743212 0.14361672 0.9848255 0 0 0 0 1 0.9424488 0.30790594 -0.13032344 22.900002 -0.32459947 0.9360446 -0.13585183 0 0.08015897 0.1703363 0.9821202 0 0 0 0 1 0.92604995 0.35405478 -0.13067803 22.900002 -0.37150988 0.916144 -0.15053415 0 0.06642257 0.18795031 0.97993 0 0 0 0 1 0.9184587 0.3733376 -0.1305858 22.900002 -0.39091298 0.9070926 -0.15610927 0 0.060171958 0.19442761 0.9790696 0 0 0 0 1 0.9253374 0.35876003 -0.12264575 22.900002 -0.3738146 0.9173275 -0.13701412 0 0.063351125 0.17263106 0.9829472 0 0 0 0 1 0.93822974 0.3280367 -0.11007655 22.900002 -0.33880118 0.9355599 -0.099706426 0 0.07027584 0.1308416 0.98890936 0 0 0 0 1 0.9497202 0.29683208 -0.09961052 22.900002 -0.30358374 0.95084965 -0.06100677 0 0.07660586 0.0881795 0.9931545 0 0 0 0 1 0.9598155 0.2650744 -0.092139915 22.900002 -0.2680789 0.9631526 -0.021697251 0 0.08299342 0.045526125 0.9955096 0 0 0 0 1 0.9598155 0.2650744 -0.092139915 22.900002 -0.2680789 0.9631526 -0.021697251 0 0.08299342 0.045526125 0.9955096 0 0 0 0 1</float_array>
        <technique_common>
          <accessor source="#Motion_30_LHand_transform_pose_array_id" count="17" stride="16">
            <param name="TRANSFORM" type="float4x4" />
          </accessor>
        </technique_common>
      </source>
      <sampler id="Motion_30_LHand_transform_samp_id">
        <input semantic="INPUT" source="#Motion_30_LHand_transform_frame_id" />
        <input semantic="INTERPOLATION" source="#Motion_30_LHand_transform_interp_id" />
        <input semantic="OUTPUT" source="#Motion_30_LHand_transform_pose_id" />
      </sampler>
      <channel source="#Motion_30_LHand_transform_samp_id" target="LHand_bone_id/transform" />
    </animation>
    <animation id="Motion_30_Neck_transform_id" name="Motion_30_Neck_transform">
      <source id="Motion_30_Neck_transform_frame_id" name="Motion_30_Neck_transform_frame">
        <float_array id="Motion_30_Neck_transform_frame_array_id" count="17">0 0.033333335 0.06666667 0.1 0.13333334 0.16666667 0.2 0.23333333 0.26666668 0.3 0.33333334 0.36666667 0.4 0.43333334 0.46666667 0.5 0.53333336</float_array>
        <technique_common>
          <accessor source="#Motion_30_Neck_transform_frame_array_id" count="17" stride="1">
            <param name="TIME" type="float" />
          </accessor>
        </technique_common>
      </source>
      <source id="Motion_30_Neck_transform_interp_id" name="Motion_30_Neck_transform_interp">
        <Name_array id="Motion_30_Neck_transform_interp_array_id" count="17">LINEAR LINEAR LINEAR LINEAR LINEAR LINEAR LINEAR LINEAR LINEAR LINEAR LINEAR LINEAR LINEAR LINEAR LINEAR LINEAR LINEAR</Name_array>
        <technique_common>
          <accessor source="#Motion_30_Neck_transform_interp_array_id" count="17" stride="1">
            <param name="INTERPOLATION" type="Name" />
          </accessor>
        </technique_common>
      </source>
      <source id="Motion_30_Neck_transform_pose_id" name="Motion_30_Neck_transform_pose">
        <float_array id="Motion_30_Neck_transform_pose_array_id" count="272">0.94135165 0.0061035473 -0.33737192 15.720233 -0.005600786 0.9999813 0.0024635235 0 0.33738062 -0.00042949407 0.9413682 0 0 0 0 1 0.9413389 0.008490408 -0.33735588 15.720233 -0.004817573 0.99991965 0.011722805 0 0.3374283 -0.009409895 0.9413042 0 0 0 0 1 0.9465469 0.012704473 -0.32231584 15.720233 -0.002487145 0.99948186 0.032091785 0 0.32255653 -0.029574733 0.9460881 0 0 0 0 1 0.9581676 0.01641205 -0.28573674 15.720233 -0.0011692783 0.9985707 0.0534346 0 0.2862053 -0.0508652 0.95681727 0 0 0 0 1 0.9711252 0.018984716 -0.23781401 15.720233 -0.0016874652 0.9973504 0.07272773 0 0.23856461 -0.07022642 0.9685841 0 0 0 0 1 0.9807809 0.020621117 -0.1940197 15.720233 -0.0040308284 0.99632853 0.08551734 0 0.19507083 -0.08309171 0.9772631 0 0 0 0 1 0.9859419 0.022085564 -0.16562264 15.720233 -0.007636143 0.996146 0.08737727 0 0.16691412 -0.08488419 0.9823107 0 0 0 0 1 0.98610467 0.024071546 -0.16437213 15.720233 -0.0120067205 0.99718577 0.074002326 0 0.16569091 -0.07100047 0.98361856 0 0 0 0 1 0.9824442 0.025856158 -0.18475617 15.720233 -0.018304048 0.9989302 0.04246565 0 0.18565653 -0.03833835 0.9818665 0 0 0 0 1 0.9756323 0.025513016 -0.21792355 15.720233 -0.02253697 0.99961585 0.01613143 0 0.2182514 -0.010827009 0.9758325 0 0 0 0 1 0.9662366 0.02171869 -0.25673938 15.720233 -0.019101655 0.9997371 0.012683145 0 0.25694734 -0.0073507717 0.96639746 0 0 0 0 1 0.95636284 0.016598921 -0.29170975 15.720233 -0.010430037 0.99968815 0.022689829 0 0.29199544 -0.018657165 0.95623773 0 0 0 0 1 0.9489076 0.012231229 -0.31531692 15.720233 -0.0023072176 0.99949074 0.03182723 0 0.31554562 -0.029473595 0.9484526 0 0 0 0 1 0.94407386 0.009863764 -0.32958654 15.720233 0.00074096816 0.9994865 0.032034762 0 0.32973328 -0.030487394 0.9435817 0 0 0 0 1 0.9416671 0.008931397 -0.33642724 15.720233 4.123617E-05 0.9996447 0.026653774 0 0.3365458 -0.025112856 0.9413322 0 0 0 0 1 0.9411922 0.008176498 -0.3377727 15.720233 -0.0019364322 0.99982125 0.01880697 0 0.3378661 -0.0170469 0.9410398 0 0 0 0 1 0.9411922 0.008176498 -0.3377727 15.720233 -0.0019364322 0.99982125 0.01880697 0 0.3378661 -0.0170469 0.9410398 0 0 0 0 1</float_array>
        <technique_common>
          <accessor source="#Motion_30_Neck_transform_pose_array_id" count="17" stride="16">
            <param name="TRANSFORM" type="float4x4" />
          </accessor>
        </technique_common>
      </source>
      <sampler id="Motion_30_Neck_transform_samp_id">
        <input semantic="INPUT" source="#Motion_30_Neck_transform_frame_id" />
        <input semantic="INTERPOLATION" source="#Motion_30_Neck_transform_interp_id" />
        <input semantic="OUTPUT" source="#Motion_30_Neck_transform_pose_id" />
      </sampler>
      <channel source="#Motion_30_Neck_transform_samp_id" target="Neck_bone_id/transform" />
    </animation>
    <animation id="Motion_30_Head_transform_id" name="Motion_30_Head_transform">
      <source id="Motion_30_Head_transform_frame_id" name="Motion_30_Head_transform_frame">
        <float_array id="Motion_30_Head_transform_frame_array_id" count="17">0 0.033333335 0.06666667 0.1 0.13333334 0.16666667 0.2 0.23333333 0.26666668 0.3 0.33333334 0.36666667 0.4 0.43333334 0.46666667 0.5 0.53333336</float_array>
        <technique_common>
          <accessor source="#Motion_30_Head_transform_frame_array_id" count="17" stride="1">
            <param name="TIME" type="float" />
          </accessor>
        </technique_common>
      </source>
      <source id="Motion_30_Head_transform_interp_id" name="Motion_30_Head_transform_interp">
        <Name_array id="Motion_30_Head_transform_interp_array_id" count="17">LINEAR LINEAR LINEAR LINEAR LINEAR LINEAR LINEAR LINEAR LINEAR LINEAR LINEAR LINEAR LINEAR LINEAR LINEAR LINEAR LINEAR</Name_array>
        <technique_common>
          <accessor source="#Motion_30_Head_transform_interp_array_id" count="17" stride="1">
            <param name="INTERPOLATION" type="Name" />
          </accessor>
        </technique_common>
      </source>
      <source id="Motion_30_Head_transform_pose_id" name="Motion_30_Head_transform_pose">
        <float_array id="Motion_30_Head_transform_pose_array_id" count="272">0.9435111 -0.01421954 0.33103555 5.129917 0.010350983 0.999856 0.013446366 0 -0.33117908 -0.009260252 0.94352245 0 0 0 0 1 0.9436347 -0.019804154 0.33039576 5.129917 0.007833588 0.9992651 0.037523344 0 -0.33089608 -0.032820143 0.9430963 0 0 0 0 1 0.9448944 -0.035697445 0.32542327 5.129917 0.0076243114 0.9961671 0.087137125 0 -0.32728657 -0.07985426 0.9415449 0 0 0 0 1 0.9479795 -0.062859684 0.3120633 5.129917 0.017472107 0.9891064 0.14616174 0 -0.3178515 -0.13310593 0.93875086 0 0 0 0 1 0.9514736 -0.09396202 0.29303426 5.129917 0.033306934 0.9780941 0.2054812 0 -0.3059225 -0.18574986 0.93376034 0 0 0 0 1 0.9541076 -0.120321445 0.2742289 5.129917 0.049151786 0.9662335 0.25293657 0 -0.29540285 -0.22784984 0.9278047 0 0 0 0 1 0.9555232 -0.13651222 0.26141888 5.129917 0.060024943 0.9578858 0.28080562 0 -0.28874284 -0.2526246 0.9234762 0 0 0 0 1 0.9554896 -0.13331997 0.2631833 5.129917 0.058848184 0.9602713 0.27279282 0 -0.28909612 -0.24516284 0.92537487 0 0 0 0 1 0.953274 -0.09824395 0.28568643 5.129917 0.041771356 0.97942656 0.19743039 0 -0.29920524 -0.17627175 0.9377657 0 0 0 0 1 0.94946474 -0.052929167 0.30937886 5.129917 0.023145106 0.9948021 0.09916187 0 -0.31301928 -0.086990096 0.9457545 0 0 0 0 1 0.94663614 -0.02524646 0.32131395 5.129917 0.0139522925 0.9992028 0.0374045 0 -0.32200214 -0.030925386 0.9462337 0 0 0 0 1 0.9450387 -0.01801866 0.3264618 5.129917 0.012836175 0.9997552 0.018022224 0 -0.3267066 -0.012841177 0.94503856 0 0 0 0 1 0.9442236 -0.013511348 0.3290277 5.129917 0.012336555 0.9999079 0.0056579937 0 -0.32907385 -0.001283343 0.94430333 0 0 0 0 1 0.9436985 -0.011405629 0.33060995 5.129917 0.012114272 0.9999266 -8.296361E-05 0 -0.33058473 0.0040833917 0.9437675 0 0 0 0 1 0.9434874 -0.011109214 0.33122218 5.129917 0.011900809 0.99992913 -0.00036179856 0 -0.3311947 0.0042831637 0.94355273 0 0 0 0 1 0.94346356 -0.011812836 0.3312657 5.129917 0.011643831 0.9999291 0.0024948793 0 -0.33127165 0.0015033737 0.9435342 0 0 0 0 1 0.94346356 -0.011812836 0.3312657 5.129917 0.011643831 0.9999291 0.0024948793 0 -0.33127165 0.0015033737 0.9435342 0 0 0 0 1</float_array>
        <technique_common>
          <accessor source="#Motion_30_Head_transform_pose_array_id" count="17" stride="16">
            <param name="TRANSFORM" type="float4x4" />
          </accessor>
        </technique_common>
      </source>
      <sampler id="Motion_30_Head_transform_samp_id">
        <input semantic="INPUT" source="#Motion_30_Head_transform_frame_id" />
        <input semantic="INTERPOLATION" source="#Motion_30_Head_transform_interp_id" />
        <input semantic="OUTPUT" source="#Motion_30_Head_transform_pose_id" />
      </sampler>
      <channel source="#Motion_30_Head_transform_samp_id" target="Head_bone_id/transform" />
    </animation>
    <animation id="Motion_30_Hair_transform_id" name="Motion_30_Hair_transform">
      <source id="Motion_30_Hair_transform_frame_id" name="Motion_30_Hair_transform_frame">
        <float_array id="Motion_30_Hair_transform_frame_array_id" count="17">0 0.033333335 0.06666667 0.1 0.13333334 0.16666667 0.2 0.23333333 0.26666668 0.3 0.33333334 0.36666667 0.4 0.43333334 0.46666667 0.5 0.53333336</float_array>
        <technique_common>
          <accessor source="#Motion_30_Hair_transform_frame_array_id" count="17" stride="1">
            <param name="TIME" type="float" />
          </accessor>
        </technique_common>
      </source>
      <source id="Motion_30_Hair_transform_interp_id" name="Motion_30_Hair_transform_interp">
        <Name_array id="Motion_30_Hair_transform_interp_array_id" count="17">LINEAR LINEAR LINEAR LINEAR LINEAR LINEAR LINEAR LINEAR LINEAR LINEAR LINEAR LINEAR LINEAR LINEAR LINEAR LINEAR LINEAR</Name_array>
        <technique_common>
          <accessor source="#Motion_30_Hair_transform_interp_array_id" count="17" stride="1">
            <param name="INTERPOLATION" type="Name" />
          </accessor>
        </technique_common>
      </source>
      <source id="Motion_30_Hair_transform_pose_id" name="Motion_30_Hair_transform_pose">
        <float_array id="Motion_30_Hair_transform_pose_array_id" count="272">-0.93223906 0 0.36184284 13 0 1 0 0 -0.36184284 0 -0.93223906 -8.7 0 0 0 1 -0.9319546 0.00056786276 0.36257532 13 0.022991797 0.99807876 0.057534352 0 -0.36184606 0.061955646 -0.9301771 -8.7 0 0 0 1 -0.9288672 0.010856524 0.37025383 13 0.08202077 0.9807855 0.17700958 0 -0.3612179 0.1947869 -0.91191006 -8.7 0 0 0 1 -0.9180323 0.04165543 0.39431188 13 0.16212508 0.94697106 0.27741888 0 -0.36184594 0.3186073 -0.8761034 -8.7 0 0 0 1 -0.8853953 0.1180934 0.44958782 13 0.28883988 0.897576 0.33305988 0 -0.36420703 0.4247485 -0.82881963 -8.7 0 0 0 1 -0.8249786 0.19961688 0.5287373 13 0.4284431 0.831015 0.3547542 0 -0.3685737 0.5191986 -0.77109396 -8.7 0 0 0 1 -0.7880012 0.23325129 0.5697787 13 0.49139935 0.79582834 0.35381335 0 -0.37091863 0.55879426 -0.7417332 -8.7 0 0 0 1 -0.79566264 0.23108824 0.55992794 13 0.47908932 0.8057223 0.34825996 0 -0.37066764 0.54535294 -0.75179505 -8.7 0 0 0 1 -0.8152844 0.22335814 0.5342499 13 0.4450721 0.8319213 0.33138776 0 -0.37043574 0.5079549 -0.777663 -8.7 0 0 0 1 -0.8421297 0.20794737 0.49756905 13 0.39305353 0.8683989 0.3023116 0 -0.3692235 0.45015693 -0.8130388 -8.7 0 0 0 1 -0.86988354 0.18326151 0.45794886 13 0.3287379 0.90756637 0.26125586 0 -0.3677408 0.37780744 -0.849722 -8.7 0 0 0 1 -0.8943304 0.1492516 0.42177814 13 0.25627714 0.94362915 0.20949008 0 -0.3667354 0.2954455 -0.8821659 -8.7 0 0 0 1 -0.9131304 0.10918926 0.3927724 13 0.1813633 0.97167367 0.15151787 0 -0.3651025 0.2095901 -0.90706766 -8.7 0 0 0 1 -0.9245652 0.06845938 0.37482396 13 0.11149511 0.98927736 0.0943354 0 -0.3643467 0.12901023 -0.92228425 -8.7 0 0 0 1 -0.9301121 0.033186395 0.36577335 13 0.05350632 0.9975279 0.04555422 0 -0.36335734 0.061941713 -0.92958844 -8.7 0 0 0 1 -0.93194544 0.009063153 0.36248514 13 0.0145530645 0.999817 0.012417523 0 -0.36230627 0.016847724 -0.9319067 -8.7 0 0 0 1 -0.93194544 0.009063153 0.36248514 13 0.0145530645 0.999817 0.012417523 0 -0.36230627 0.016847724 -0.9319067 -8.7 0 0 0 1</float_array>
        <technique_common>
          <accessor source="#Motion_30_Hair_transform_pose_array_id" count="17" stride="16">
            <param name="TRANSFORM" type="float4x4" />
          </accessor>
        </technique_common>
      </source>
      <sampler id="Motion_30_Hair_transform_samp_id">
        <input semantic="INPUT" source="#Motion_30_Hair_transform_frame_id" />
        <input semantic="INTERPOLATION" source="#Motion_30_Hair_transform_interp_id" />
        <input semantic="OUTPUT" source="#Motion_30_Hair_transform_pose_id" />
      </sampler>
      <channel source="#Motion_30_Hair_transform_samp_id" target="Hair_bone_id/transform" />
    </animation>
    <animation id="Motion_30_Loc_Eye_transform_id" name="Motion_30_Loc_Eye_transform">
      <source id="Motion_30_Loc_Eye_transform_frame_id" name="Motion_30_Loc_Eye_transform_frame">
        <float_array id="Motion_30_Loc_Eye_transform_frame_array_id" count="17">0 0.033333335 0.06666667 0.1 0.13333334 0.16666667 0.2 0.23333333 0.26666668 0.3 0.33333334 0.36666667 0.4 0.43333334 0.46666667 0.5 0.53333336</float_array>
        <technique_common>
          <accessor source="#Motion_30_Loc_Eye_transform_frame_array_id" count="17" stride="1">
            <param name="TIME" type="float" />
          </accessor>
        </technique_common>
      </source>
      <source id="Motion_30_Loc_Eye_transform_interp_id" name="Motion_30_Loc_Eye_transform_interp">
        <Name_array id="Motion_30_Loc_Eye_transform_interp_array_id" count="17">LINEAR LINEAR LINEAR LINEAR LINEAR LINEAR LINEAR LINEAR LINEAR LINEAR LINEAR LINEAR LINEAR LINEAR LINEAR LINEAR LINEAR</Name_array>
        <technique_common>
          <accessor source="#Motion_30_Loc_Eye_transform_interp_array_id" count="17" stride="1">
            <param name="INTERPOLATION" type="Name" />
          </accessor>
        </technique_common>
      </source>
      <source id="Motion_30_Loc_Eye_transform_pose_id" name="Motion_30_Loc_Eye_transform_pose">
        <float_array id="Motion_30_Loc_Eye_transform_pose_array_id" count="272">1.1920929E-06 49.999996 0 9.278537 -19.999998 2.9802322E-06 0 0 0 0 400 13.201164 0 0 0 1 1.1922598E-06 50.002796 0 9.278537 -20.002798 2.9803991E-06 0 0 0 0 400.0028 13.201164 0 0 0 1 1.192509E-06 50.006977 0 9.278537 -20.006979 2.9806483E-06 0 0 0 0 400.007 13.201164 0 0 0 1 1.1928286E-06 50.01234 0 9.278537 -20.01234 2.980968E-06 0 0 0 0 400.01233 13.201164 0 0 0 1 1.193207E-06 50.01869 0 9.278537 -20.01869 2.9813464E-06 0 0 0 0 400.01868 13.201164 0 0 0 1 1.1936324E-06 50.025826 0 9.278537 -20.025827 2.9817718E-06 0 0 0 0 400.02582 13.201164 0 0 0 1 1.1940931E-06 50.03355 0 9.278537 -20.033556 2.9822322E-06 0 0 0 0 400.03357 13.201164 0 0 0 1 1.1945773E-06 50.041676 0 9.278537 -20.04168 2.9827165E-06 0 0 0 0 400.0417 13.201164 0 0 0 1 1.1950731E-06 50.049995 0 9.278537 -20.049997 2.9832124E-06 0 0 0 0 400.05 13.201164 0 0 0 1 1.195569E-06 50.058315 0 9.278537 -20.058317 2.9837083E-06 0 0 0 0 400.05832 13.201164 0 0 0 1 1.1960532E-06 50.06644 0 9.278537 -20.06644 2.9841926E-06 0 0 0 0 400.06644 13.201164 0 0 0 1 1.1965138E-06 50.074165 0 9.278537 -20.07417 2.984653E-06 0 0 0 0 400.0742 13.201164 0 0 0 1 1.1969393E-06 50.081303 0 9.278537 -20.081306 2.9850785E-06 0 0 0 0 400.0813 13.201164 0 0 0 1 1.1973177E-06 50.08765 0 9.278537 -20.087656 2.9854568E-06 0 0 0 0 400.08768 13.201164 0 0 0 1 1.1976373E-06 50.093014 0 9.278537 -20.093018 2.9857765E-06 0 0 0 0 400.09302 13.201164 0 0 0 1 1.1978865E-06 50.097195 0 9.278537 -20.097198 2.9860257E-06 0 0 0 0 400.0972 13.201164 0 0 0 1 1.1978865E-06 50.097195 0 9.278537 -20.097198 2.9860257E-06 0 0 0 0 400.0972 13.201164 0 0 0 1</float_array>
        <technique_common>
          <accessor source="#Motion_30_Loc_Eye_transform_pose_array_id" count="17" stride="16">
            <param name="TRANSFORM" type="float4x4" />
          </accessor>
        </technique_common>
      </source>
      <sampler id="Motion_30_Loc_Eye_transform_samp_id">
        <input semantic="INPUT" source="#Motion_30_Loc_Eye_transform_frame_id" />
        <input semantic="INTERPOLATION" source="#Motion_30_Loc_Eye_transform_interp_id" />
        <input semantic="OUTPUT" source="#Motion_30_Loc_Eye_transform_pose_id" />
      </sampler>
      <channel source="#Motion_30_Loc_Eye_transform_samp_id" target="Loc_Eye_bone_id/transform" />
    </animation>
  </library_animations>
  <library_visual_scenes>
    <visual_scene id="tr0110_00_fi_00_clip_id" name="tr0110_00_fi_00_clip">
      <node id="tr0110_00_fi_bone_id" name="tr0110_00_fi" sid="tr0110_00_fi" type="JOINT">
        <matrix sid="transform">1 0 0 0 0 1 0 0 0 0 1 0 0 0 0 1</matrix>
        <node id="Origin_bone_id" name="Origin" sid="Origin" type="JOINT">
          <matrix sid="transform">1 0 0 0 0 1 0 0 0 0 1 0 0 0 0 1</matrix>
          <node id="Waist_bone_id" name="Waist" sid="Waist" type="JOINT">
            <matrix sid="transform">3.1391647E-07 -1 0 0 1 3.1391647E-07 0 88.8 0 0 1 0 0 0 0 1</matrix>
            <node id="Spine2_bone_id" name="Spine2" sid="Spine2" type="JOINT">
              <matrix sid="transform">1 0 0 12.099998 0 1 0 0 0 0 1 0 0 0 0 1</matrix>
              <node id="Spine3_bone_id" name="Spine3" sid="Spine3" type="JOINT">
                <matrix sid="transform">0.9919065 0 0.12697035 12.099991 0 1 0 0 -0.12697035 0 0.9919065 0 0 0 0 1</matrix>
                <node id="Neck_bone_id" name="Neck" sid="Neck" type="JOINT">
                  <matrix sid="transform">0.9441987 0 -0.32937634 15.720233 0 1 0 0 0.32937634 0 0.9441987 0 0 0 0 1</matrix>
                  <node id="Head_bone_id" name="Head" sid="Head" type="JOINT">
                    <matrix sid="transform">0.9783777 0 0.2068263 5.129917 0 1 0 0 -0.2068263 0 0.9783777 0 0 0 0 1</matrix>
                    <node id="Hair_bone_id" name="Hair" sid="Hair" type="JOINT">
                      <matrix sid="transform">-0.9573411 0 0.28896025 13 0 1 0 0 -0.28896025 0 -0.9573411 -8.7 0 0 0 1</matrix>
                    </node>
                    <node id="Loc_Head_bone_id" name="Loc_Head" sid="Loc_Head" type="JOINT">
                      <matrix sid="transform">3.1391647E-07 1 0 31.57833 -1 3.1391647E-07 0 0 0 0 1 0.935 0 0 0 1</matrix>
                    </node>
                    <node id="Loc_Eye_bone_id" name="Loc_Eye" sid="Loc_Eye" type="JOINT">
                      <matrix sid="transform">3.1391647E-07 1 0 9.278537 -1 3.1391647E-07 0 0 0 0 1 13.201164 0 0 0 1</matrix>
                    </node>
                    <node id="Loc_Mouth_bone_id" name="Loc_Mouth" sid="Loc_Mouth" type="JOINT">
                      <matrix sid="transform">3.1391647E-07 1 0 1.209505 -1 3.1391647E-07 0 0 0 0 1 13.426648 0 0 0 1</matrix>
                    </node>
                  </node>
                </node>
                <node id="LShoulder_bone_id" name="LShoulder" sid="LShoulder" type="JOINT">
                  <matrix sid="transform">-0.5887142 0.798307 -0.12697051 14.14009 -0.80482084 -0.59351784 -2.6574628E-07 -3.930001 -0.075359486 0.10218836 0.99190646 -0.201936 0 0 0 1</matrix>
                  <node id="LArm_bone_id" name="LArm" sid="LArm" type="JOINT">
                    <matrix sid="transform">0.8048207 -0.593518 0 8.161509 0.593518 0.8048207 0 0 0 0 1 0 0 0 0 1</matrix>
                    <node id="LForeArm_bone_id" name="LForeArm" sid="LForeArm" type="JOINT">
                      <matrix sid="transform">1 0 0 22.9 0 1 0 0 0 0 1 0 0 0 0 1</matrix>
                      <node id="LHand_bone_id" name="LHand" sid="LHand" type="JOINT">
                        <matrix sid="transform">1 0 0 22.900002 0 1 0 0 0 0 1 0 0 0 0 1</matrix>
                      </node>
                    </node>
                  </node>
                </node>
                <node id="RShoulder_bone_id" name="RShoulder" sid="RShoulder" type="JOINT">
                  <matrix sid="transform">-0.58871174 -0.79830885 -0.12696993 14.14009 0.8048227 -0.5935153 -1.4453335E-07 3.93 -0.07535849 -0.10218837 0.9919065 -0.201935 0 0 0 1</matrix>
                  <node id="RArm_bone_id" name="RArm" sid="RArm" type="JOINT">
                    <matrix sid="transform">0.8048231 0.5935148 0 8.161548 -0.5935148 0.8048231 0 0 0 0 1 0 0 0 0 1</matrix>
                    <node id="RForeArm_bone_id" name="RForeArm" sid="RForeArm" type="JOINT">
                      <matrix sid="transform">1 0 0 22.9 0 1 0 0 0 0 1 0 0 0 0 1</matrix>
                      <node id="RHand_bone_id" name="RHand" sid="RHand" type="JOINT">
                        <matrix sid="transform">1 0 0 22.900002 0 1 0 0 0 0 1 0 0 0 0 1</matrix>
                      </node>
                    </node>
                  </node>
                </node>
              </node>
            </node>
            <node id="Hips_bone_id" name="Hips" sid="Hips" type="JOINT">
              <matrix sid="transform">-1 -3.2584137E-07 0 -0.010002 3.2584137E-07 -1 0 0 0 0 1 0 0 0 0 1</matrix>
              <node id="LThigh_bone_id" name="LThigh" sid="LThigh" type="JOINT">
                <matrix sid="transform">1 0 0 10.510002 0 1 0 7.199996 0 0 1 0 0 0 0 1</matrix>
                <node id="LLeg_bone_id" name="LLeg" sid="LLeg" type="JOINT">
                  <matrix sid="transform">1 0 0 33.899998 0 1 0 0 0 0 1 0 0 0 0 1</matrix>
                  <node id="LFoot_bone_id" name="LFoot" sid="LFoot" type="JOINT">
                    <matrix sid="transform">3.1391647E-07 0 -1 33.9 0 1 0 4E-06 1 0 3.1391647E-07 0 0 0 0 1</matrix>
                  </node>
                </node>
              </node>
              <node id="RThigh_bone_id" name="RThigh" sid="RThigh" type="JOINT">
                <matrix sid="transform">1 0 0 10.510002 0 1 0 -7.2 0 0 1 0 0 0 0 1</matrix>
                <node id="RLeg_bone_id" name="RLeg" sid="RLeg" type="JOINT">
                  <matrix sid="transform">1 0 0 33.899998 0 1 0 0 0 0 1 0 0 0 0 1</matrix>
                  <node id="RFoot_bone_id" name="RFoot" sid="RFoot" type="JOINT">
                    <matrix sid="transform">3.1391647E-07 0 -1 33.9 0 1 0 0 1 0 3.1391647E-07 0 0 0 0 1</matrix>
                  </node>
                </node>
              </node>
            </node>
          </node>
          <node id="CamTgtHead_bone_id" name="CamTgtHead" sid="CamTgtHead" type="JOINT">
            <matrix sid="transform">1 0 0 0 0 1 0 142.89053 0 0 1 0 0 0 0 1</matrix>
          </node>
          <node id="CamTgtBust_bone_id" name="CamTgtBust" sid="CamTgtBust" type="JOINT">
            <matrix sid="transform">1 0 0 0 0 1 0 112.99999 0 0 1 0 0 0 0 1</matrix>
          </node>
          <node id="CamTgtBody_bone_id" name="CamTgtBody" sid="CamTgtBody" type="JOINT">
            <matrix sid="transform">1 0 0 0 0 1 0 88.8 0 0 1 0 0 0 0 1</matrix>
          </node>
          <node id="CamTgtFoot_bone_id" name="CamTgtFoot" sid="CamTgtFoot" type="JOINT">
            <matrix sid="transform">1 0 0 0 0 1 0 0 0 0 1 0 0 0 0 1</matrix>
          </node>
        </node>
        <node id="tr0110_00_fi_BodySkin_bone_id" name="tr0110_00_fi_BodySkin" sid="tr0110_00_fi_BodySkin" type="JOINT">
          <matrix sid="transform">1 0 0 0 0 1 0 0 0 0 1 0 0 0 0 1</matrix>
        </node>
        <node id="tr0110_00_fi_FaceSkin_bone_id" name="tr0110_00_fi_FaceSkin" sid="tr0110_00_fi_FaceSkin" type="JOINT">
          <matrix sid="transform">1 0 0 0 0 1 0 0 0 0 1 0 0 0 0 1</matrix>
        </node>
        <node id="tr0110_00_fi_HeadSkin_bone_id" name="tr0110_00_fi_HeadSkin" sid="tr0110_00_fi_HeadSkin" type="JOINT">
          <matrix sid="transform">1 0 0 0 0 1 0 0 0 0 1 0 0 0 0 1</matrix>
        </node>
        <node id="tr0110_00_fi_BodypartsSkin_bone_id" name="tr0110_00_fi_BodypartsSkin" sid="tr0110_00_fi_BodypartsSkin" type="JOINT">
          <matrix sid="transform">1 0 0 0 0 1 0 0 0 0 1 0 0 0 0 1</matrix>
        </node>
      </node>
    </visual_scene>
  </library_visual_scenes>
  <scene>
    <instance_visual_scene url="#tr0110_00_fi_00_clip_id" />
  </scene>
</COLLADA>