<?xml version="1.0" encoding="utf-8"?>
<COLLADA xmlns:xsi="http://www.w3.org/2001/XMLSchema-instance" xmlns:xsd="http://www.w3.org/2001/XMLSchema" version="1.4.1" xmlns="http://www.collada.org/2005/11/COLLADASchema">
  <asset>
    <created>2026-02-17T05:46:53.5624492-05:00</created>
    <modified>2026-02-17T05:46:53.5624494-05:00</modified>
    <up_axis>Y_UP</up_axis>
  </asset>
  <library_animations>
    <animation id="Motion_7_Waist_transform_id" name="Motion_7_Waist_transform">
      <source id="Motion_7_Waist_transform_frame_id" name="Motion_7_Waist_transform_frame">
        <float_array id="Motion_7_Waist_transform_frame_array_id" count="16">0 0.033333335 0.06666667 0.1 0.13333334 0.16666667 0.2 0.23333333 0.26666668 0.3 0.33333334 0.36666667 0.4 0.43333334 0.46666667 0.5</float_array>
        <technique_common>
          <accessor source="#Motion_7_Waist_transform_frame_array_id" count="16" stride="1">
            <param name="TIME" type="float" />
          </accessor>
        </technique_common>
      </source>
      <source id="Motion_7_Waist_transform_interp_id" name="Motion_7_Waist_transform_interp">
        <Name_array id="Motion_7_Waist_transform_interp_array_id" count="16">LINEAR LINEAR LINEAR LINEAR LINEAR LINEAR LINEAR LINEAR LINEAR LINEAR LINEAR LINEAR LINEAR LINEAR LINEAR LINEAR</Name_array>
        <technique_common>
          <accessor source="#Motion_7_Waist_transform_interp_array_id" count="16" stride="1">
            <param name="INTERPOLATION" type="Name" />
          </accessor>
        </technique_common>
      </source>
      <source id="Motion_7_Waist_transform_pose_id" name="Motion_7_Waist_transform_pose">
        <float_array id="Motion_7_Waist_transform_pose_array_id" count="256">-1.1920929E-07 -0.99999994 1.8626451E-09 -2.5629997E-06 0.9993474 -1.1920929E-07 -0.036120456 152.43 0.03612046 0 0.99934745 8.498 0 0 0 1 0.0017559528 -0.9999967 -0.0018146671 -0.122064985 0.99921197 0.0018265247 -0.03964896 152.332 0.03965215 -0.0017436147 0.999212 8.497666 0 0 0 1 0.005456686 -0.999974 -0.0047030896 -0.22983433 0.9990307 0.0056568384 -0.043653987 152.22734 0.04367946 -0.0044603236 0.99903566 8.509059 0 0 0 1 0.010233104 -0.9999153 -0.008042593 -0.31936216 0.9988039 0.010605633 -0.047732078 152.11914 0.047813334 -0.007544523 0.9988278 8.539145 0 0 0 1 0.014821112 -0.99983335 -0.010659253 -0.38670012 0.9985578 0.015350699 -0.0514457 152.01054 0.051600754 -0.0098814 0.9986189 8.594895 0 0 0 1 0.017963111 -0.9997709 -0.011643689 -0.4358308 0.998343 0.018571734 -0.05446415 151.90465 0.054667916 -0.010646049 0.99844784 8.683272 0 0 0 1 0.018722296 -0.9997647 -0.0109473355 -0.4697463 0.9981929 0.019315898 -0.05690051 151.80786 0.057098586 -0.00986225 0.9983198 8.811247 0 0 0 1 0.01789546 -0.999799 -0.009030407 -0.48301217 0.9981073 0.018395185 -0.058679476 151.72571 0.0588338 -0.007963225 0.998236 8.9825 0 0 0 1 0.016796112 -0.9998388 -0.0063329656 -0.47019413 0.9980649 0.017144918 -0.059770152 151.66011 0.059869103 -0.005316807 0.9981921 9.184444 0 0 0 1 0.016735256 -0.99985456 -0.0032979194 -0.42585784 0.9980464 0.0169034 -0.060148515 151.6129 0.060195513 -0.0022848714 0.99818397 9.39963 0 0 0 1 0.01902306 -0.99981904 -0.00036557764 -0.34912774 0.9980295 0.019010842 -0.05979909 151.586 0.059795216 0.0007727053 0.9982104 9.61061 0 0 0 1 0.024718046 -0.99969244 0.002037907 -0.24671373 0.9979732 0.024555862 -0.058708772 151.5813 0.058640666 0.0034849495 0.9982731 9.799943 0 0 0 1 0.032607317 -0.99946207 0.0035070349 -0.12455961 0.9978562 0.03235531 -0.05688756 151.59985 0.056743488 0.005354466 0.9983744 9.950177 0 0 0 1 0.040597737 -0.99916893 0.0036478136 0.011390768 0.9977085 0.040340126 -0.05431765 151.63725 0.054125354 0.0058446303 0.99851704 10.045615 0 0 0 1 0.047076702 -0.9988882 0.0025015995 0.15519369 0.9975793 0.046886384 -0.05135619 151.68733 0.0511818 0.0049132276 0.99867725 10.0647135 0 0 0 1 0.047076702 -0.9988882 0.0025015995 0.15519369 0.9975793 0.046886384 -0.05135619 151.68733 0.0511818 0.0049132276 0.99867725 10.0647135 0 0 0 1</float_array>
        <technique_common>
          <accessor source="#Motion_7_Waist_transform_pose_array_id" count="16" stride="16">
            <param name="TRANSFORM" type="float4x4" />
          </accessor>
        </technique_common>
      </source>
      <sampler id="Motion_7_Waist_transform_samp_id">
        <input semantic="INPUT" source="#Motion_7_Waist_transform_frame_id" />
        <input semantic="INTERPOLATION" source="#Motion_7_Waist_transform_interp_id" />
        <input semantic="OUTPUT" source="#Motion_7_Waist_transform_pose_id" />
      </sampler>
      <channel source="#Motion_7_Waist_transform_samp_id" target="Waist_bone_id/transform" />
    </animation>
    <animation id="Motion_7_Spine2_transform_id" name="Motion_7_Spine2_transform">
      <source id="Motion_7_Spine2_transform_frame_id" name="Motion_7_Spine2_transform_frame">
        <float_array id="Motion_7_Spine2_transform_frame_array_id" count="16">0 0.033333335 0.06666667 0.1 0.13333334 0.16666667 0.2 0.23333333 0.26666668 0.3 0.33333334 0.36666667 0.4 0.43333334 0.46666667 0.5</float_array>
        <technique_common>
          <accessor source="#Motion_7_Spine2_transform_frame_array_id" count="16" stride="1">
            <param name="TIME" type="float" />
          </accessor>
        </technique_common>
      </source>
      <source id="Motion_7_Spine2_transform_interp_id" name="Motion_7_Spine2_transform_interp">
        <Name_array id="Motion_7_Spine2_transform_interp_array_id" count="16">LINEAR LINEAR LINEAR LINEAR LINEAR LINEAR LINEAR LINEAR LINEAR LINEAR LINEAR LINEAR LINEAR LINEAR LINEAR LINEAR</Name_array>
        <technique_common>
          <accessor source="#Motion_7_Spine2_transform_interp_array_id" count="16" stride="1">
            <param name="INTERPOLATION" type="Name" />
          </accessor>
        </technique_common>
      </source>
      <source id="Motion_7_Spine2_transform_pose_id" name="Motion_7_Spine2_transform_pose">
        <float_array id="Motion_7_Spine2_transform_pose_array_id" count="256">0.99851197 6.026247E-09 -0.05453343 12.800003 6.026247E-09 1 2.2084667E-07 0 0.05453343 -2.2084667E-07 0.99851197 0 0 0 0 1 0.9987319 -0.0039693383 -0.050187826 12.800003 0.0037626764 0.999984 -0.004211575 0 0.05020374 0.004017394 0.9987309 0 0 0 0 1 0.99911535 -0.008603912 -0.041164577 12.800003 0.008247202 0.99992704 -0.008827418 0 0.041237526 0.008480117 0.9991134 0 0 0 0 1 0.99944234 -0.014239697 -0.030202784 12.800003 0.013839342 0.99981415 -0.013423442 0 0.030388314 0.012997969 0.99945366 0 0 0 0 1 0.9995742 -0.019885393 -0.021354103 12.800003 0.019523157 0.9996642 -0.01703996 0 0.021685777 0.016615806 0.99962676 0 0 0 0 1 0.9995405 -0.02450273 -0.017844083 12.800003 0.0241647 0.99952894 -0.018918863 0 0.018299242 0.018478973 0.9996618 0 0 0 0 1 0.9994149 -0.027701883 -0.020059986 12.800003 0.027325558 0.99944985 -0.018797219 0 0.02056967 0.018238071 0.99962205 0 0 0 0 1 0.99916965 -0.030194784 -0.027354887 12.800003 0.02973081 0.99940974 -0.017212216 0 0.02785846 0.016384639 0.99947757 0 0 0 0 1 0.9987224 -0.03256588 -0.038640417 12.800003 0.032022674 0.9993806 -0.01459468 0 0.039091773 0.013338663 0.9991466 0 0 0 0 1 0.997966 -0.0353602 -0.05304234 12.800003 0.034803506 0.9993293 -0.011382813 0 0.053409267 0.009513602 0.9985274 0 0 0 0 1 0.9967658 -0.040030356 -0.06968173 12.800003 0.039563973 0.99918455 -0.008060875 0 0.06994758 0.0052779187 0.9975367 0 0 0 0 1 0.9949945 -0.04793043 -0.08768477 12.800003 0.04766148 0.9988502 -0.005159487 0 0.08783125 0.0009544755 0.99613494 0 0 0 0 1 0.9926721 -0.057683792 -0.10618271 12.800003 0.05767982 0.9983303 -0.0031109923 0 0.10618487 -0.0030364045 0.9943418 0 0 0 0 1 0.9899693 -0.06716742 -0.12429501 12.800003 0.0674128 0.9977227 -0.0022354068 0 0.12416209 -0.0061660903 0.9922428 0 0 0 0 1 0.98719865 -0.07427025 -0.14114812 12.800003 0.07466835 0.9972053 -0.0024810948 0 0.14093792 -0.008089963 0.9899854 0 0 0 0 1 0.98719865 -0.07427025 -0.14114812 12.800003 0.07466835 0.9972053 -0.0024810948 0 0.14093792 -0.008089963 0.9899854 0 0 0 0 1</float_array>
        <technique_common>
          <accessor source="#Motion_7_Spine2_transform_pose_array_id" count="16" stride="16">
            <param name="TRANSFORM" type="float4x4" />
          </accessor>
        </technique_common>
      </source>
      <sampler id="Motion_7_Spine2_transform_samp_id">
        <input semantic="INPUT" source="#Motion_7_Spine2_transform_frame_id" />
        <input semantic="INTERPOLATION" source="#Motion_7_Spine2_transform_interp_id" />
        <input semantic="OUTPUT" source="#Motion_7_Spine2_transform_pose_id" />
      </sampler>
      <channel source="#Motion_7_Spine2_transform_samp_id" target="Spine2_bone_id/transform" />
    </animation>
    <animation id="Motion_7_Spine3_transform_id" name="Motion_7_Spine3_transform">
      <source id="Motion_7_Spine3_transform_frame_id" name="Motion_7_Spine3_transform_frame">
        <float_array id="Motion_7_Spine3_transform_frame_array_id" count="16">0 0.033333335 0.06666667 0.1 0.13333334 0.16666667 0.2 0.23333333 0.26666668 0.3 0.33333334 0.36666667 0.4 0.43333334 0.46666667 0.5</float_array>
        <technique_common>
          <accessor source="#Motion_7_Spine3_transform_frame_array_id" count="16" stride="1">
            <param name="TIME" type="float" />
          </accessor>
        </technique_common>
      </source>
      <source id="Motion_7_Spine3_transform_interp_id" name="Motion_7_Spine3_transform_interp">
        <Name_array id="Motion_7_Spine3_transform_interp_array_id" count="16">LINEAR LINEAR LINEAR LINEAR LINEAR LINEAR LINEAR LINEAR LINEAR LINEAR LINEAR LINEAR LINEAR LINEAR LINEAR LINEAR</Name_array>
        <technique_common>
          <accessor source="#Motion_7_Spine3_transform_interp_array_id" count="16" stride="1">
            <param name="INTERPOLATION" type="Name" />
          </accessor>
        </technique_common>
      </source>
      <source id="Motion_7_Spine3_transform_pose_id" name="Motion_7_Spine3_transform_pose">
        <float_array id="Motion_7_Spine3_transform_pose_array_id" count="256">0.99839824 0 0.0565769 12.800003 0 1 0 0 -0.0565769 0 0.99839824 0 0 0 0 1 0.9985679 0.00062060443 0.053495694 12.800003 -0.00039545324 0.999991 -0.004219254 0 -0.053497832 0.0041920566 0.9985592 0 0 0 0 1 0.99896353 0.0015658073 0.045490198 12.800003 -0.0011927576 0.9999654 -0.008226643 0 -0.045501508 0.008163857 0.99893093 0 0 0 0 1 0.99940646 0.002785162 0.03433594 12.800003 -0.002377863 0.9999264 -0.011897319 0 -0.034366548 0.0118086105 0.9993395 0 0 0 0 1 0.9997385 0.0042517493 0.022468854 12.800003 -0.0039127935 0.9998782 -0.0151080545 0 -0.022530355 0.015016187 0.9996334 0 0 0 0 1 0.99990624 0.005958583 0.012329683 12.800003 -0.0057393294 0.99982613 -0.017742248 0 -0.012433257 0.017669821 0.9997666 0 0 0 0 1 0.99994844 0.007912337 0.0063610594 12.800003 -0.00778569 0.99977577 -0.019693866 0 -0.0065154578 0.019643325 0.99978584 0 0 0 0 1 0.9999279 0.010118508 0.0064690094 12.800003 -0.009981531 0.99973243 -0.0208672 0 -0.006678424 0.020801125 0.99976134 0 0 0 0 1 0.9998474 0.012488977 0.012215138 12.800003 -0.012228602 0.99970126 -0.021163164 0 -0.012475795 0.02101056 0.99970144 0 0 0 0 1 0.9996357 0.014870652 0.02252422 12.800003 -0.014406069 0.99968296 -0.020649593 0 -0.022824151 0.020317584 0.999533 0 0 0 0 1 0.9991933 0.017141007 0.036317226 12.800003 -0.016439762 0.9996743 -0.019520333 0 -0.036639992 0.018907538 0.9991496 0 0 0 0 1 0.99843615 0.019174054 0.052512456 12.800003 -0.018258769 0.99967384 -0.017854529 0 -0.052837674 0.016867796 0.99846065 0 0 0 0 1 0.99732196 0.020846218 0.07010275 12.800003 -0.019790266 0.9996805 -0.015723918 0 -0.070408136 0.014294455 0.99741584 0 0 0 0 1 0.9958863 0.022038419 0.087890275 12.800003 -0.020958535 0.99969333 -0.013190795 0 -0.088154025 0.01129448 0.99604285 0 0 0 0 1 0.9942661 0.022640742 0.10450979 12.800003 -0.021681145 0.9997118 -0.010308982 0 -0.104713075 0.00798398 0.9944704 0 0 0 0 1 0.9942661 0.022640742 0.10450979 12.800003 -0.021681145 0.9997118 -0.010308982 0 -0.104713075 0.00798398 0.9944704 0 0 0 0 1</float_array>
        <technique_common>
          <accessor source="#Motion_7_Spine3_transform_pose_array_id" count="16" stride="16">
            <param name="TRANSFORM" type="float4x4" />
          </accessor>
        </technique_common>
      </source>
      <sampler id="Motion_7_Spine3_transform_samp_id">
        <input semantic="INPUT" source="#Motion_7_Spine3_transform_frame_id" />
        <input semantic="INTERPOLATION" source="#Motion_7_Spine3_transform_interp_id" />
        <input semantic="OUTPUT" source="#Motion_7_Spine3_transform_pose_id" />
      </sampler>
      <channel source="#Motion_7_Spine3_transform_samp_id" target="Spine3_bone_id/transform" />
    </animation>
    <animation id="Motion_7_Neck_transform_id" name="Motion_7_Neck_transform">
      <source id="Motion_7_Neck_transform_frame_id" name="Motion_7_Neck_transform_frame">
        <float_array id="Motion_7_Neck_transform_frame_array_id" count="16">0 0.033333335 0.06666667 0.1 0.13333334 0.16666667 0.2 0.23333333 0.26666668 0.3 0.33333334 0.36666667 0.4 0.43333334 0.46666667 0.5</float_array>
        <technique_common>
          <accessor source="#Motion_7_Neck_transform_frame_array_id" count="16" stride="1">
            <param name="TIME" type="float" />
          </accessor>
        </technique_common>
      </source>
      <source id="Motion_7_Neck_transform_interp_id" name="Motion_7_Neck_transform_interp">
        <Name_array id="Motion_7_Neck_transform_interp_array_id" count="16">LINEAR LINEAR LINEAR LINEAR LINEAR LINEAR LINEAR LINEAR LINEAR LINEAR LINEAR LINEAR LINEAR LINEAR LINEAR LINEAR</Name_array>
        <technique_common>
          <accessor source="#Motion_7_Neck_transform_interp_array_id" count="16" stride="1">
            <param name="INTERPOLATION" type="Name" />
          </accessor>
        </technique_common>
      </source>
      <source id="Motion_7_Neck_transform_pose_id" name="Motion_7_Neck_transform_pose">
        <float_array id="Motion_7_Neck_transform_pose_array_id" count="256">0.9801783 0 -0.19811743 14.250113 0 1 0 0 0.19811743 0 0.9801783 0 0 0 0 1 0.9809185 -0.0003033453 -0.19441904 14.250113 0.00038346884 0.9999999 0.00037448196 0 0.19441889 -0.00044188992 0.98091847 0 0 0 0 1 0.9828756 -0.0007338867 -0.18426883 14.250113 0.000932344 0.99999905 0.0009903584 0 0.18426794 -0.001145201 0.9828754 0 0 0 0 1 0.9857041 -0.0012803731 -0.1684806 14.250113 0.0016117141 0.999997 0.0018299079 0 0.16847777 -0.0020752903 0.9857033 0 0 0 0 1 0.9889585 -0.0019327198 -0.14818008 14.250113 0.0023851297 0.999993 0.002875473 0 0.1481735 -0.0031971522 0.9889562 0 0 0 0 1 0.99221534 -0.0026798851 -0.124505386 14.250113 0.0032163372 0.9999864 0.004107858 0 0.12449269 -0.004476331 0.99221045 0 0 0 0 1 0.9951196 -0.0035081818 -0.09861435 14.250113 0.004070858 0.9999766 0.0055051893 0 0.09859273 -0.0058797663 0.9951105 0 0 0 0 1 0.9974176 -0.0044000326 -0.071685016 14.250113 0.0049173925 0.9999631 0.007042247 0 0.071651384 -0.0073765647 0.9974024 0 0 0 0 1 0.99897677 -0.005333141 -0.04491125 14.250113 0.0057290043 0.9999458 0.008690247 0 0.04486247 -0.0089386515 0.99895316 0 0 0 0 1 0.99979025 -0.0062800497 -0.019494982 14.250113 0.006484017 0.9999247 0.010417041 0 0.019428095 -0.010541261 0.9997557 0 0 0 0 1 0.99996835 -0.0072080335 0.0033621425 14.250113 0.0071665635 0.99990004 0.012187616 0 -0.0034496551 -0.012163135 0.99992007 0 0 0 0 1 0.999715 -0.008079247 0.022465313 14.250113 0.007766704 0.9998723 0.013964843 0 -0.022575269 -0.013786381 0.99965006 0 0 0 0 1 0.9992897 -0.008851094 0.036629457 14.250113 0.008280119 0.9998423 0.015710322 0 -0.036762733 -0.015395867 0.9992054 0 0 0 0 1 0.9989565 -0.009476734 0.044677462 14.250113 0.0087073 0.99981093 0.01738526 0 -0.04483377 -0.016978096 0.99885017 0 0 0 0 1 0.9989182 -0.009905765 0.045434743 14.250113 0.009052325 0.9997794 0.018951321 0 -0.045612447 -0.01851953 0.9987875 0 0 0 0 1 0.9989182 -0.009905765 0.045434743 14.250113 0.009052325 0.9997794 0.018951321 0 -0.045612447 -0.01851953 0.9987875 0 0 0 0 1</float_array>
        <technique_common>
          <accessor source="#Motion_7_Neck_transform_pose_array_id" count="16" stride="16">
            <param name="TRANSFORM" type="float4x4" />
          </accessor>
        </technique_common>
      </source>
      <sampler id="Motion_7_Neck_transform_samp_id">
        <input semantic="INPUT" source="#Motion_7_Neck_transform_frame_id" />
        <input semantic="INTERPOLATION" source="#Motion_7_Neck_transform_interp_id" />
        <input semantic="OUTPUT" source="#Motion_7_Neck_transform_pose_id" />
      </sampler>
      <channel source="#Motion_7_Neck_transform_samp_id" target="Neck_bone_id/transform" />
    </animation>
    <animation id="Motion_7_Head_transform_id" name="Motion_7_Head_transform">
      <source id="Motion_7_Head_transform_frame_id" name="Motion_7_Head_transform_frame">
        <float_array id="Motion_7_Head_transform_frame_array_id" count="16">0 0.033333335 0.06666667 0.1 0.13333334 0.16666667 0.2 0.23333333 0.26666668 0.3 0.33333334 0.36666667 0.4 0.43333334 0.46666667 0.5</float_array>
        <technique_common>
          <accessor source="#Motion_7_Head_transform_frame_array_id" count="16" stride="1">
            <param name="TIME" type="float" />
          </accessor>
        </technique_common>
      </source>
      <source id="Motion_7_Head_transform_interp_id" name="Motion_7_Head_transform_interp">
        <Name_array id="Motion_7_Head_transform_interp_array_id" count="16">LINEAR LINEAR LINEAR LINEAR LINEAR LINEAR LINEAR LINEAR LINEAR LINEAR LINEAR LINEAR LINEAR LINEAR LINEAR LINEAR</Name_array>
        <technique_common>
          <accessor source="#Motion_7_Head_transform_interp_array_id" count="16" stride="1">
            <param name="INTERPOLATION" type="Name" />
          </accessor>
        </technique_common>
      </source>
      <source id="Motion_7_Head_transform_pose_id" name="Motion_7_Head_transform_pose">
        <float_array id="Motion_7_Head_transform_pose_array_id" count="256">0.9735535 3.8308565E-07 0.22845925 5.699835 -3.8308565E-07 1 -4.434613E-08 0 -0.22845925 -4.434613E-08 0.9735535 0 0 0 0 1 0.97459555 0.0019054271 0.22396399 5.699835 -0.0019477136 0.9999981 -3.21056E-05 0 -0.22396363 -0.00040492776 0.9745974 0 0 0 0 1 0.9772768 0.0047847778 0.21191302 5.699835 -0.0048609786 0.9999882 -0.00016138447 0 -0.21191129 -0.0008723872 0.97728854 0 0 0 0 1 0.9810528 0.007830188 0.1935822 5.699835 -0.007924698 0.9999685 -0.00028615174 0 -0.19357836 -0.0012533508 0.981084 0 0 0 0 1 0.9852561 0.010225844 0.17078009 5.699835 -0.0103199035 0.9999467 -0.00033698417 0 -0.17077443 -0.0014304182 0.9853091 0 0 0 0 1 0.9893184 0.011147082 0.14534414 5.699835 -0.011223156 0.999937 -0.0002965707 0 -0.1453383 -0.0013378173 0.98938113 0 0 0 0 1 0.99282855 0.009762814 0.11914761 5.699835 -0.009808373 0.9999519 -0.00020405592 0 -0.11914387 -0.0009660517 0.9928765 0 0 0 0 1 0.99554574 0.005911272 0.09409418 5.699835 -0.0059210407 0.9999825 -0.0001753748 0 -0.09409357 -0.0003825418 0.99556327 0 0 0 0 1 0.9973968 0.00044238256 0.07210656 5.699835 -0.00041814437 0.9999998 -0.00035123917 0 -0.07210671 0.00032017392 0.9973969 0 0 0 0 1 0.9984624 -0.0059547257 0.055113256 5.699835 0.006007714 0.99998164 -0.0007958235 0 -0.055107504 0.0011257045 0.9984798 0 0 0 0 1 0.9988931 -0.012584841 0.04532381 5.699835 0.012666237 0.99991864 -0.001509131 0 -0.045301132 0.0020815427 0.9989712 0 0 0 0 1 0.99880785 -0.018751383 0.04506928 5.699835 0.018868603 0.9998196 -0.0021768562 0 -0.04502033 0.0030246554 0.9989815 0 0 0 0 1 0.99821675 -0.02375526 0.05476272 5.699835 0.023929391 0.99971044 -0.0025261366 0 -0.05468686 0.0038320706 0.9984962 0 0 0 0 1 0.99731934 -0.027519787 0.06779929 5.699835 0.027765067 0.9996109 -0.002677907 0 -0.06769922 0.00455318 0.9976954 0 0 0 0 1 0.99665225 -0.030716425 0.07576823 5.699835 0.031019444 0.99951476 -0.0028254245 0 -0.07564469 0.0051662545 0.99712145 0 0 0 0 1 0.99665225 -0.030716425 0.07576823 5.699835 0.031019444 0.99951476 -0.0028254245 0 -0.07564469 0.0051662545 0.99712145 0 0 0 0 1</float_array>
        <technique_common>
          <accessor source="#Motion_7_Head_transform_pose_array_id" count="16" stride="16">
            <param name="TRANSFORM" type="float4x4" />
          </accessor>
        </technique_common>
      </source>
      <sampler id="Motion_7_Head_transform_samp_id">
        <input semantic="INPUT" source="#Motion_7_Head_transform_frame_id" />
        <input semantic="INTERPOLATION" source="#Motion_7_Head_transform_interp_id" />
        <input semantic="OUTPUT" source="#Motion_7_Head_transform_pose_id" />
      </sampler>
      <channel source="#Motion_7_Head_transform_samp_id" target="Head_bone_id/transform" />
    </animation>
    <animation id="Motion_7_LShoulder_transform_id" name="Motion_7_LShoulder_transform">
      <source id="Motion_7_LShoulder_transform_frame_id" name="Motion_7_LShoulder_transform_frame">
        <float_array id="Motion_7_LShoulder_transform_frame_array_id" count="16">0 0.033333335 0.06666667 0.1 0.13333334 0.16666667 0.2 0.23333333 0.26666668 0.3 0.33333334 0.36666667 0.4 0.43333334 0.46666667 0.5</float_array>
        <technique_common>
          <accessor source="#Motion_7_LShoulder_transform_frame_array_id" count="16" stride="1">
            <param name="TIME" type="float" />
          </accessor>
        </technique_common>
      </source>
      <source id="Motion_7_LShoulder_transform_interp_id" name="Motion_7_LShoulder_transform_interp">
        <Name_array id="Motion_7_LShoulder_transform_interp_array_id" count="16">LINEAR LINEAR LINEAR LINEAR LINEAR LINEAR LINEAR LINEAR LINEAR LINEAR LINEAR LINEAR LINEAR LINEAR LINEAR LINEAR</Name_array>
        <technique_common>
          <accessor source="#Motion_7_LShoulder_transform_interp_array_id" count="16" stride="1">
            <param name="INTERPOLATION" type="Name" />
          </accessor>
        </technique_common>
      </source>
      <source id="Motion_7_LShoulder_transform_pose_id" name="Motion_7_LShoulder_transform_pose">
        <float_array id="Motion_7_LShoulder_transform_pose_array_id" count="256">-0.70576274 0.7042151 -0.07733116 12.810532 -0.7048343 -0.7089783 -0.023632057 -3.840002 -0.07146817 0.037827026 0.9967253 -0.109299 0 0 0 1 -0.70378935 0.70640874 -0.07528008 12.810532 -0.7065544 -0.7070532 -0.02926605 -3.840002 -0.07390083 0.03259234 0.9967329 -0.109299 0 0 0 1 -0.6985122 0.71219856 -0.069668755 12.810532 -0.7115342 -0.70160687 -0.038297437 -3.840002 -0.07615547 0.022820476 0.99683475 -0.109299 0 0 0 1 -0.69053173 0.7207601 -0.06058633 12.810532 -0.7193396 -0.69309115 -0.04663845 -3.840002 -0.07560699 0.011376819 0.9970728 -0.109299 0 0 0 1 -0.6802366 0.73138285 -0.048551157 12.810532 -0.7293855 -0.6819657 -0.054031316 -3.840002 -0.072627805 -0.0013415702 0.9973582 -0.109299 0 0 0 1 -0.6680076 0.7433664 -0.034237243 12.810532 -0.74108034 -0.6687212 -0.060099214 -3.840002 -0.06757091 -0.014774187 0.9976051 -0.109299 0 0 0 1 -0.6542548 0.75605404 -0.018243117 12.810532 -0.7538222 -0.65388477 -0.06470487 -3.840002 -0.06084928 -0.028581409 0.99773765 -0.109299 0 0 0 1 -0.6393944 0.7688781 -0.0010271464 12.810532 -0.7670258 -0.63794565 -0.06853053 -3.840002 -0.053346887 -0.043030195 0.9976485 -0.109299 0 0 0 1 -0.6238997 0.7813208 0.016951524 12.810532 -0.78014386 -0.62138724 -0.07248296 -3.840002 -0.046098977 -0.058446705 0.9972256 -0.109299 0 0 0 1 -0.6083473 0.79288477 0.035316367 12.810532 -0.7926697 -0.60474384 -0.077197544 -3.840002 -0.0398514 -0.07495714 0.9963901 -0.109299 0 0 0 1 -0.5932584 0.8032422 0.05335222 12.810532 -0.80425525 -0.58852446 -0.082537726 -3.840002 -0.03489869 -0.091875 0.9951588 -0.109299 0 0 0 1 -0.5791751 0.8121458 0.07053626 12.810532 -0.81460834 -0.5732771 -0.08812899 -3.840002 -0.031136775 -0.108501546 0.99360853 -0.109299 0 0 0 1 -0.566893 0.8192439 0.08644331 12.810532 -0.8233049 -0.5598223 -0.0936416 -3.840002 -0.028322427 -0.12425392 0.99184614 -0.109299 0 0 0 1 -0.55728006 0.82422435 0.10046394 12.810532 -0.8299056 -0.54906404 -0.0989198 -3.840002 -0.026370972 -0.13850163 0.99001104 -0.109299 0 0 0 1 -0.5512607 0.82678115 0.112004444 12.810532 -0.83395374 -0.54197323 -0.10385875 -3.840002 -0.025165062 -0.15065973 0.98826534 -0.109299 0 0 0 1 -0.5512607 0.82678115 0.112004444 12.810532 -0.83395374 -0.54197323 -0.10385875 -3.840002 -0.025165062 -0.15065973 0.98826534 -0.109299 0 0 0 1</float_array>
        <technique_common>
          <accessor source="#Motion_7_LShoulder_transform_pose_array_id" count="16" stride="16">
            <param name="TRANSFORM" type="float4x4" />
          </accessor>
        </technique_common>
      </source>
      <sampler id="Motion_7_LShoulder_transform_samp_id">
        <input semantic="INPUT" source="#Motion_7_LShoulder_transform_frame_id" />
        <input semantic="INTERPOLATION" source="#Motion_7_LShoulder_transform_interp_id" />
        <input semantic="OUTPUT" source="#Motion_7_LShoulder_transform_pose_id" />
      </sampler>
      <channel source="#Motion_7_LShoulder_transform_samp_id" target="LShoulder_bone_id/transform" />
    </animation>
    <animation id="Motion_7_LArm_transform_id" name="Motion_7_LArm_transform">
      <source id="Motion_7_LArm_transform_frame_id" name="Motion_7_LArm_transform_frame">
        <float_array id="Motion_7_LArm_transform_frame_array_id" count="16">0 0.033333335 0.06666667 0.1 0.13333334 0.16666667 0.2 0.23333333 0.26666668 0.3 0.33333334 0.36666667 0.4 0.43333334 0.46666667 0.5</float_array>
        <technique_common>
          <accessor source="#Motion_7_LArm_transform_frame_array_id" count="16" stride="1">
            <param name="TIME" type="float" />
          </accessor>
        </technique_common>
      </source>
      <source id="Motion_7_LArm_transform_interp_id" name="Motion_7_LArm_transform_interp">
        <Name_array id="Motion_7_LArm_transform_interp_array_id" count="16">LINEAR LINEAR LINEAR LINEAR LINEAR LINEAR LINEAR LINEAR LINEAR LINEAR LINEAR LINEAR LINEAR LINEAR LINEAR LINEAR</Name_array>
        <technique_common>
          <accessor source="#Motion_7_LArm_transform_interp_array_id" count="16" stride="1">
            <param name="INTERPOLATION" type="Name" />
          </accessor>
        </technique_common>
      </source>
      <source id="Motion_7_LArm_transform_pose_id" name="Motion_7_LArm_transform_pose">
        <float_array id="Motion_7_LArm_transform_pose_array_id" count="256">0.77585185 0.2695535 -0.5704339 6.70358 -0.38965026 0.91581875 -0.097204454 0 0.4962123 0.29768598 0.81557125 0 0 0 0 1 0.7862589 0.27143586 -0.5550852 6.70358 -0.38095856 0.92023855 -0.08961926 0 0.4864849 0.2819284 0.8269515 0 0 0 0 1 0.7978941 0.2844341 -0.53147167 6.70358 -0.37571016 0.9241295 -0.069473036 0 0.47138816 0.25511146 0.8442223 0 0 0 0 1 0.80228984 0.30898634 -0.51074296 6.70358 -0.38521495 0.9216004 -0.047562316 0 0.4560048 0.2349046 0.8584168 0 0 0 0 1 0.80436003 0.3434551 -0.48481292 6.70358 -0.4034548 0.91475064 -0.02134253 0 0.4361527 0.21276717 0.87435746 0 0 0 0 1 0.8056969 0.37997082 -0.45439482 6.70358 -0.42494807 0.9052111 0.0034649223 0 0.4126398 0.19030254 0.8907937 0 0 0 0 1 0.8076147 0.41300792 -0.42093104 6.70358 -0.44599408 0.89476013 0.022216499 0 0.38580793 0.16979039 0.90682054 0 0 0 0 1 0.8091747 0.44394618 -0.3849001 6.70358 -0.46711117 0.8834265 0.03694279 0 0.35643154 0.14989795 0.9222186 0 0 0 0 1 0.8092807 0.47435722 -0.34648225 6.70358 -0.48894015 0.87086844 0.050256297 0 0.3255799 0.12873764 0.93670934 0 0 0 0 1 0.80930793 0.5012519 -0.30621424 6.70358 -0.5081844 0.85894597 0.06293176 0 0.29456618 0.10468213 0.94988024 0 0 0 0 1 0.81176555 0.5191867 -0.26736087 6.70358 -0.52106255 0.8506573 0.06982827 0 0.26368636 0.082627535 0.961063 0 0 0 0 1 0.8182902 0.5249021 -0.23426263 6.70358 -0.52501905 0.8484379 0.06714239 0 0.23400049 0.06805039 0.96985203 0 0 0 0 1 0.8273742 0.5219572 -0.20739466 6.70358 -0.522183 0.850847 0.058174048 0 0.2068255 0.060166266 0.9765261 0 0 0 0 1 0.8368963 0.51504517 -0.18529171 6.70358 -0.516067 0.8552851 0.04649914 0 0.1824264 0.056707993 0.9815828 0 0 0 0 1 0.84525645 0.5074677 -0.16738588 6.70358 -0.5094264 0.8598306 0.034293976 0 0.16132659 0.056283575 0.9852948 0 0 0 0 1 0.84525645 0.5074677 -0.16738588 6.70358 -0.5094264 0.8598306 0.034293976 0 0.16132659 0.056283575 0.9852948 0 0 0 0 1</float_array>
        <technique_common>
          <accessor source="#Motion_7_LArm_transform_pose_array_id" count="16" stride="16">
            <param name="TRANSFORM" type="float4x4" />
          </accessor>
        </technique_common>
      </source>
      <sampler id="Motion_7_LArm_transform_samp_id">
        <input semantic="INPUT" source="#Motion_7_LArm_transform_frame_id" />
        <input semantic="INTERPOLATION" source="#Motion_7_LArm_transform_interp_id" />
        <input semantic="OUTPUT" source="#Motion_7_LArm_transform_pose_id" />
      </sampler>
      <channel source="#Motion_7_LArm_transform_samp_id" target="LArm_bone_id/transform" />
    </animation>
    <animation id="Motion_7_LForeArm_transform_id" name="Motion_7_LForeArm_transform">
      <source id="Motion_7_LForeArm_transform_frame_id" name="Motion_7_LForeArm_transform_frame">
        <float_array id="Motion_7_LForeArm_transform_frame_array_id" count="16">0 0.033333335 0.06666667 0.1 0.13333334 0.16666667 0.2 0.23333333 0.26666668 0.3 0.33333334 0.36666667 0.4 0.43333334 0.46666667 0.5</float_array>
        <technique_common>
          <accessor source="#Motion_7_LForeArm_transform_frame_array_id" count="16" stride="1">
            <param name="TIME" type="float" />
          </accessor>
        </technique_common>
      </source>
      <source id="Motion_7_LForeArm_transform_interp_id" name="Motion_7_LForeArm_transform_interp">
        <Name_array id="Motion_7_LForeArm_transform_interp_array_id" count="16">LINEAR LINEAR LINEAR LINEAR LINEAR LINEAR LINEAR LINEAR LINEAR LINEAR LINEAR LINEAR LINEAR LINEAR LINEAR LINEAR</Name_array>
        <technique_common>
          <accessor source="#Motion_7_LForeArm_transform_interp_array_id" count="16" stride="1">
            <param name="INTERPOLATION" type="Name" />
          </accessor>
        </technique_common>
      </source>
      <source id="Motion_7_LForeArm_transform_pose_id" name="Motion_7_LForeArm_transform_pose">
        <float_array id="Motion_7_LForeArm_transform_pose_array_id" count="256">0.63973844 -0.0009615691 -0.76859206 21.35 0.00083493575 0.9999995 -0.0005561183 0 0.7685922 -0.0002859547 0.639739 0 0 0 0 1 0.59861505 -0.0011113702 -0.80103606 21.35 0.0009539566 0.99999934 -0.00067452225 0 0.8010363 -0.00036037457 0.59861565 0 0 0 0 1 0.5422238 -0.0012439016 -0.8402332 21.35 0.0010506398 0.9999991 -0.00080241833 0 0.84023345 -0.00044769215 0.54222465 0 0 0 0 1 0.50753814 -0.0013734493 -0.8616282 21.35 0.0011465373 0.9999989 -0.00091865205 0 0.86162853 -0.00052163785 0.50753915 0 0 0 0 1 0.47163922 -0.0014924168 -0.8817904 21.35 0.0012301315 0.9999987 -0.0010345278 0 0.88179076 -0.0005967942 0.4716404 0 0 0 0 1 0.43544078 -0.0016014124 -0.900216 21.35 0.001302408 0.9999985 -0.0011489337 0 0.90021646 -0.0006721559 0.4354422 0 0 0 0 1 0.40038776 -0.0017015336 -0.9163442 21.35 0.0013650281 0.9999983 -0.0012604326 0 0.9163448 -0.0007461738 0.40038937 0 0 0 0 1 0.36800504 -0.0017941887 -0.9298221 21.35 0.0014200499 0.99999803 -0.0013675732 0 0.9298227 -0.00081711984 0.36800689 0 0 0 0 1 0.33918655 -0.001880604 -0.9407172 21.35 0.0014692411 0.99999785 -0.001469361 0 0.94071794 -0.00088375306 0.33918858 0 0 0 0 1 0.31362987 -0.001961252 -0.9495433 21.35 0.0015133137 0.9999976 -0.0015656232 0 0.94954413 -0.0009459307 0.31363213 0 0 0 0 1 0.29107302 -0.0020365375 -0.95669866 21.35 0.0015529023 0.99999744 -0.0016562417 0 0.9566996 -0.0010035723 0.29107547 0 0 0 0 1 0.27121836 -0.0021067522 -0.96251553 21.35 0.0015884999 0.9999972 -0.0017411833 0 0.9625165 -0.001056715 0.27122092 0 0 0 0 1 0.25374085 -0.0021720808 -0.9672698 21.35 0.0016204651 0.999997 -0.001820481 0 0.96727085 -0.0011054965 0.2537436 0 0 0 0 1 0.23760158 -0.002232018 -0.9713601 21.35 0.0016482229 0.99999684 -0.0018946531 0 0.9713613 -0.0011508456 0.2376045 0 0 0 0 1 0.22143757 -0.0022856207 -0.9751719 21.35 0.0016706157 0.99999666 -0.0019644494 0 0.9751731 -0.0011941346 0.22144067 0 0 0 0 1 0.22143757 -0.0022856207 -0.9751719 21.35 0.0016706157 0.99999666 -0.0019644494 0 0.9751731 -0.0011941346 0.22144067 0 0 0 0 1</float_array>
        <technique_common>
          <accessor source="#Motion_7_LForeArm_transform_pose_array_id" count="16" stride="16">
            <param name="TRANSFORM" type="float4x4" />
          </accessor>
        </technique_common>
      </source>
      <sampler id="Motion_7_LForeArm_transform_samp_id">
        <input semantic="INPUT" source="#Motion_7_LForeArm_transform_frame_id" />
        <input semantic="INTERPOLATION" source="#Motion_7_LForeArm_transform_interp_id" />
        <input semantic="OUTPUT" source="#Motion_7_LForeArm_transform_pose_id" />
      </sampler>
      <channel source="#Motion_7_LForeArm_transform_samp_id" target="LForeArm_bone_id/transform" />
    </animation>
    <animation id="Motion_7_LHand_transform_id" name="Motion_7_LHand_transform">
      <source id="Motion_7_LHand_transform_frame_id" name="Motion_7_LHand_transform_frame">
        <float_array id="Motion_7_LHand_transform_frame_array_id" count="16">0 0.033333335 0.06666667 0.1 0.13333334 0.16666667 0.2 0.23333333 0.26666668 0.3 0.33333334 0.36666667 0.4 0.43333334 0.46666667 0.5</float_array>
        <technique_common>
          <accessor source="#Motion_7_LHand_transform_frame_array_id" count="16" stride="1">
            <param name="TIME" type="float" />
          </accessor>
        </technique_common>
      </source>
      <source id="Motion_7_LHand_transform_interp_id" name="Motion_7_LHand_transform_interp">
        <Name_array id="Motion_7_LHand_transform_interp_array_id" count="16">LINEAR LINEAR LINEAR LINEAR LINEAR LINEAR LINEAR LINEAR LINEAR LINEAR LINEAR LINEAR LINEAR LINEAR LINEAR LINEAR</Name_array>
        <technique_common>
          <accessor source="#Motion_7_LHand_transform_interp_array_id" count="16" stride="1">
            <param name="INTERPOLATION" type="Name" />
          </accessor>
        </technique_common>
      </source>
      <source id="Motion_7_LHand_transform_pose_id" name="Motion_7_LHand_transform_pose">
        <float_array id="Motion_7_LHand_transform_pose_array_id" count="256">0.9580434 -0.27696332 0.07378475 21.35 0.20699856 0.4905185 -0.8464887 0 0.19825356 0.82624626 0.527269 0 0 0 0 1 0.9815857 -0.18881534 0.028953664 21.35 0.106713906 0.41630858 -0.90293926 0 0.15843514 0.889402 0.42879176 0 0 0 0 1 0.99375457 -0.08971253 -0.06635938 21.35 -0.033472545 0.3276422 -0.94420874 0 0.10644949 0.9405329 0.32259303 0 0 0 0 1 0.9905512 -0.03927894 -0.13139851 21.35 -0.10721886 0.37561244 -0.9205538 0 0.08551329 0.9259441 0.36785185 0 0 0 0 1 0.9827538 0.02295044 -0.18348904 21.35 -0.17152677 0.4838754 -0.8581627 0 0.06909062 0.8748359 0.47946697 0 0 0 0 1 0.9744644 0.08985146 -0.20578104 21.35 -0.21672139 0.6161169 -0.7572529 0 0.0587449 0.7825131 0.6198567 0 0 0 0 1 0.97051954 0.14088833 -0.19555646 21.35 -0.23436087 0.7410707 -0.62919724 0 0.056274615 0.656479 0.75224227 0 0 0 0 1 0.9712777 0.17167377 -0.16476554 21.35 -0.2302965 0.8524085 -0.4694287 0 0.059858948 0.49389055 0.86746126 0 0 0 0 1 0.9731934 0.19175518 -0.1269823 21.35 -0.21944204 0.9394795 -0.26310363 0 0.068845786 0.28391597 0.9563744 0 0 0 0 1 0.97562575 0.19989337 -0.09053778 21.35 -0.20270495 0.97897184 -0.02290957 0 0.08405446 0.04070362 0.9956295 0 0 0 0 1 0.97816586 0.19887692 -0.060328655 21.35 -0.18078938 0.95744675 0.22496873 0 0.10250256 -0.20914996 0.9724965 0 0 0 0 1 0.9802244 0.19375242 -0.04025175 21.35 -0.15509261 0.8785092 0.45184937 0 0.12290844 -0.436671 0.8911857 0 0 0 0 1 0.9812002 0.19048475 -0.031011034 21.35 -0.12727572 0.75946844 0.63797224 0 0.14507589 -0.62203157 0.7694347 0 0 0 0 1 0.98087436 0.19229937 -0.030107774 21.35 -0.09900379 0.6260905 0.77343965 0 0.16758215 -0.7556664 0.6331545 0 0 0 0 1 0.9794608 0.19836393 -0.03617111 21.35 -0.07148615 0.50935465 0.8575824 0 0.18853733 -0.8373826 0.5130732 0 0 0 0 1 0.9794608 0.19836393 -0.03617111 21.35 -0.07148615 0.50935465 0.8575824 0 0.18853733 -0.8373826 0.5130732 0 0 0 0 1</float_array>
        <technique_common>
          <accessor source="#Motion_7_LHand_transform_pose_array_id" count="16" stride="16">
            <param name="TRANSFORM" type="float4x4" />
          </accessor>
        </technique_common>
      </source>
      <sampler id="Motion_7_LHand_transform_samp_id">
        <input semantic="INPUT" source="#Motion_7_LHand_transform_frame_id" />
        <input semantic="INTERPOLATION" source="#Motion_7_LHand_transform_interp_id" />
        <input semantic="OUTPUT" source="#Motion_7_LHand_transform_pose_id" />
      </sampler>
      <channel source="#Motion_7_LHand_transform_samp_id" target="LHand_bone_id/transform" />
    </animation>
    <animation id="Motion_7_RShoulder_transform_id" name="Motion_7_RShoulder_transform">
      <source id="Motion_7_RShoulder_transform_frame_id" name="Motion_7_RShoulder_transform_frame">
        <float_array id="Motion_7_RShoulder_transform_frame_array_id" count="16">0 0.033333335 0.06666667 0.1 0.13333334 0.16666667 0.2 0.23333333 0.26666668 0.3 0.33333334 0.36666667 0.4 0.43333334 0.46666667 0.5</float_array>
        <technique_common>
          <accessor source="#Motion_7_RShoulder_transform_frame_array_id" count="16" stride="1">
            <param name="TIME" type="float" />
          </accessor>
        </technique_common>
      </source>
      <source id="Motion_7_RShoulder_transform_interp_id" name="Motion_7_RShoulder_transform_interp">
        <Name_array id="Motion_7_RShoulder_transform_interp_array_id" count="16">LINEAR LINEAR LINEAR LINEAR LINEAR LINEAR LINEAR LINEAR LINEAR LINEAR LINEAR LINEAR LINEAR LINEAR LINEAR LINEAR</Name_array>
        <technique_common>
          <accessor source="#Motion_7_RShoulder_transform_interp_array_id" count="16" stride="1">
            <param name="INTERPOLATION" type="Name" />
          </accessor>
        </technique_common>
      </source>
      <source id="Motion_7_RShoulder_transform_pose_id" name="Motion_7_RShoulder_transform_pose">
        <float_array id="Motion_7_RShoulder_transform_pose_array_id" count="256">-0.70398176 -0.7060325 -0.07699108 12.810532 0.70915544 -0.7047136 -0.021845086 3.840002 -0.038833324 -0.069977194 0.99679244 -0.109299 0 0 0 1 -0.7037164 -0.706304 -0.0769282 12.810532 0.70920676 -0.70480645 -0.016544852 3.840002 -0.042533793 -0.06620088 0.99689937 -0.109299 0 0 0 1 -0.7035146 -0.706514 -0.076842636 12.810532 0.709239 -0.7048547 -0.0126261525 3.840002 -0.04524236 -0.06338249 0.99696326 -0.109299 0 0 0 1 -0.7033752 -0.7066428 -0.07693417 12.810532 0.7092696 -0.7048607 -0.010370987 3.840002 -0.046899308 -0.061861776 0.9969822 -0.109299 0 0 0 1 -0.7032802 -0.7067245 -0.077055216 12.810532 0.70930445 -0.704842 -0.009223366 3.840002 -0.04779337 -0.06114222 0.9969842 -0.109299 0 0 0 1 -0.7032201 -0.7067711 -0.077176996 12.810532 0.70934385 -0.7048063 -0.008915208 3.840002 -0.048093818 -0.061014377 0.99697757 -0.109299 0 0 0 1 -0.70318687 -0.7067937 -0.077270545 12.810532 0.709385 -0.7047615 -0.009178422 3.840002 -0.04797005 -0.06126871 0.9969679 -0.109299 0 0 0 1 -0.70317316 -0.70680344 -0.07730683 12.810532 0.709424 -0.70471454 -0.009744907 3.840002 -0.047591507 -0.06169568 0.99695975 -0.109299 0 0 0 1 -0.7031708 -0.70681137 -0.07725677 12.810532 0.70945746 -0.70467234 -0.010346547 3.840002 -0.047127645 -0.062085778 0.99695754 -0.109299 0 0 0 1 -0.70317733 -0.7068105 -0.07720377 12.810532 0.7094834 -0.70463634 -0.01098685 3.840002 -0.046634972 -0.0625005 0.9969548 -0.109299 0 0 0 1 -0.7031987 -0.7067894 -0.07720262 12.810532 0.70950425 -0.7046007 -0.0118926205 3.840002 -0.045991447 -0.06313847 0.9969445 -0.109299 0 0 0 1 -0.70323825 -0.7067526 -0.07718049 12.810532 0.70952255 -0.7045604 -0.013130954 3.840002 -0.04509798 -0.06399548 0.99693066 -0.109299 0 0 0 1 -0.70329726 -0.7066984 -0.07714176 12.810532 0.7095375 -0.704514 -0.014736835 3.840002 -0.043932926 -0.06509933 0.9969112 -0.109299 0 0 0 1 -0.7033758 -0.7066253 -0.07709076 12.810532 0.7095478 -0.7044581 -0.016745225 3.840002 -0.042474627 -0.066477776 0.99688345 -0.109299 0 0 0 1 -0.7034768 -0.70653117 -0.077031836 12.810532 0.7095517 -0.70439196 -0.019191097 3.840002 -0.0407015 -0.06815857 0.99684393 -0.109299 0 0 0 1 -0.7034768 -0.70653117 -0.077031836 12.810532 0.7095517 -0.70439196 -0.019191097 3.840002 -0.0407015 -0.06815857 0.99684393 -0.109299 0 0 0 1</float_array>
        <technique_common>
          <accessor source="#Motion_7_RShoulder_transform_pose_array_id" count="16" stride="16">
            <param name="TRANSFORM" type="float4x4" />
          </accessor>
        </technique_common>
      </source>
      <sampler id="Motion_7_RShoulder_transform_samp_id">
        <input semantic="INPUT" source="#Motion_7_RShoulder_transform_frame_id" />
        <input semantic="INTERPOLATION" source="#Motion_7_RShoulder_transform_interp_id" />
        <input semantic="OUTPUT" source="#Motion_7_RShoulder_transform_pose_id" />
      </sampler>
      <channel source="#Motion_7_RShoulder_transform_samp_id" target="RShoulder_bone_id/transform" />
    </animation>
    <animation id="Motion_7_RArm_transform_id" name="Motion_7_RArm_transform">
      <source id="Motion_7_RArm_transform_frame_id" name="Motion_7_RArm_transform_frame">
        <float_array id="Motion_7_RArm_transform_frame_array_id" count="16">0 0.033333335 0.06666667 0.1 0.13333334 0.16666667 0.2 0.23333333 0.26666668 0.3 0.33333334 0.36666667 0.4 0.43333334 0.46666667 0.5</float_array>
        <technique_common>
          <accessor source="#Motion_7_RArm_transform_frame_array_id" count="16" stride="1">
            <param name="TIME" type="float" />
          </accessor>
        </technique_common>
      </source>
      <source id="Motion_7_RArm_transform_interp_id" name="Motion_7_RArm_transform_interp">
        <Name_array id="Motion_7_RArm_transform_interp_array_id" count="16">LINEAR LINEAR LINEAR LINEAR LINEAR LINEAR LINEAR LINEAR LINEAR LINEAR LINEAR LINEAR LINEAR LINEAR LINEAR LINEAR</Name_array>
        <technique_common>
          <accessor source="#Motion_7_RArm_transform_interp_array_id" count="16" stride="1">
            <param name="INTERPOLATION" type="Name" />
          </accessor>
        </technique_common>
      </source>
      <source id="Motion_7_RArm_transform_pose_id" name="Motion_7_RArm_transform_pose">
        <float_array id="Motion_7_RArm_transform_pose_array_id" count="256">0.8055841 -0.25203365 -0.5362027 6.70358 0.37146372 0.9198993 0.1256981 0 0.46157235 -0.30044025 0.8346776 0 0 0 0 1 0.8115921 -0.25341636 -0.5264014 6.70358 0.36895686 0.92093486 0.12549841 0 0.45297801 -0.29607293 0.84092313 0 0 0 0 1 0.81644595 -0.25428522 -0.5184159 6.70358 0.36599094 0.9223214 0.12399143 0 0.44661695 -0.29096782 0.8460916 0 0 0 0 1 0.81987053 -0.25470662 -0.51277363 6.70358 0.362755 0.9239904 0.121039055 0 0.44296852 -0.28524756 0.84994864 0 0 0 0 1 0.82234883 -0.25500524 -0.50864005 6.70358 0.35935515 0.925861 0.11681319 0 0.44114202 -0.2788436 0.85301816 0 0 0 0 1 0.8240174 -0.25526854 -0.5057996 6.70358 0.3560343 0.9277604 0.11180401 0 0.44072083 -0.27221048 0.8553751 0 0 0 0 1 0.82500917 -0.25534326 -0.5041426 6.70358 0.353239 0.9293533 0.10735315 0 0.44111466 -0.26665014 0.85692215 0 0 0 0 1 0.8254506 -0.25508356 -0.50355107 6.70358 0.3514157 0.93033755 0.10478083 0 0.44174463 -0.26344717 0.85758805 0 0 0 0 1 0.82539195 -0.25456095 -0.50391155 6.70358 0.35081583 0.9305935 0.10451794 0 0.4423306 -0.2630484 0.8574084 0 0 0 0 1 0.824962 -0.25349575 -0.505151 6.70358 0.35082412 0.93041974 0.10602592 0 0.44312534 -0.26468652 0.8564934 0 0 0 0 1 0.8243432 -0.25138053 -0.5072141 6.70358 0.3507659 0.9300841 0.10911856 0 0.44432148 -0.26786458 0.85488415 0 0 0 0 1 0.8235301 -0.24825568 -0.51006603 6.70358 0.3505163 0.9296597 0.11345077 0 0.44602305 -0.2722166 0.8526204 0 0 0 0 1 0.82251406 -0.2441604 -0.51366943 6.70358 0.3499518 0.9292196 0.11867876 0 0.44833505 -0.2773745 0.84974056 0 0 0 0 1 0.82116026 -0.2395095 -0.5180068 6.70358 0.34932265 0.92871463 0.12434952 0 0.45129764 -0.2830624 0.84628963 0 0 0 0 1 0.81930035 -0.23482338 -0.5230726 6.70358 0.34898147 0.9280721 0.12997742 0 0.45492736 -0.28903317 0.8423188 0 0 0 0 1 0.81930035 -0.23482338 -0.5230726 6.70358 0.34898147 0.9280721 0.12997742 0 0.45492736 -0.28903317 0.8423188 0 0 0 0 1</float_array>
        <technique_common>
          <accessor source="#Motion_7_RArm_transform_pose_array_id" count="16" stride="16">
            <param name="TRANSFORM" type="float4x4" />
          </accessor>
        </technique_common>
      </source>
      <sampler id="Motion_7_RArm_transform_samp_id">
        <input semantic="INPUT" source="#Motion_7_RArm_transform_frame_id" />
        <input semantic="INTERPOLATION" source="#Motion_7_RArm_transform_interp_id" />
        <input semantic="OUTPUT" source="#Motion_7_RArm_transform_pose_id" />
      </sampler>
      <channel source="#Motion_7_RArm_transform_samp_id" target="RArm_bone_id/transform" />
    </animation>
    <animation id="Motion_7_RForeArm_transform_id" name="Motion_7_RForeArm_transform">
      <source id="Motion_7_RForeArm_transform_frame_id" name="Motion_7_RForeArm_transform_frame">
        <float_array id="Motion_7_RForeArm_transform_frame_array_id" count="16">0 0.033333335 0.06666667 0.1 0.13333334 0.16666667 0.2 0.23333333 0.26666668 0.3 0.33333334 0.36666667 0.4 0.43333334 0.46666667 0.5</float_array>
        <technique_common>
          <accessor source="#Motion_7_RForeArm_transform_frame_array_id" count="16" stride="1">
            <param name="TIME" type="float" />
          </accessor>
        </technique_common>
      </source>
      <source id="Motion_7_RForeArm_transform_interp_id" name="Motion_7_RForeArm_transform_interp">
        <Name_array id="Motion_7_RForeArm_transform_interp_array_id" count="16">LINEAR LINEAR LINEAR LINEAR LINEAR LINEAR LINEAR LINEAR LINEAR LINEAR LINEAR LINEAR LINEAR LINEAR LINEAR LINEAR</Name_array>
        <technique_common>
          <accessor source="#Motion_7_RForeArm_transform_interp_array_id" count="16" stride="1">
            <param name="INTERPOLATION" type="Name" />
          </accessor>
        </technique_common>
      </source>
      <source id="Motion_7_RForeArm_transform_pose_id" name="Motion_7_RForeArm_transform_pose">
        <float_array id="Motion_7_RForeArm_transform_pose_array_id" count="256">0.5950814 0 -0.8036654 21.35 0 1 0 0 0.8036654 0 0.5950814 0 0 0 0 1 0.5793278 0 -0.8150946 21.35 0 1 0 0 0.8150946 0 0.5793278 0 0 0 0 1 0.56865776 0 -0.82257426 21.35 0 1 0 0 0.82257426 0 0.56865776 0 0 0 0 1 0.56141925 0 -0.8275315 21.35 0 1 0 0 0.8275315 0 0.56141925 0 0 0 0 1 0.5555661 0 -0.83147234 21.35 0 1 0 0 0.83147234 0 0.5555661 0 0 0 0 1 0.548998 0 -0.83582366 21.35 0 1 0 0 0.83582366 0 0.548998 0 0 0 0 1 0.54121125 0 -0.8408867 21.35 0 1 0 0 0.8408867 0 0.54121125 0 0 0 0 1 0.5351696 0 -0.8447446 21.35 0 1 0 0 0.8447446 0 0.5351696 0 0 0 0 1 0.53273404 0 -0.8462827 21.35 0 1 0 0 0.8462827 0 0.53273404 0 0 0 0 1 0.53343594 0 -0.84584045 21.35 0 1 0 0 0.84584045 0 0.53343594 0 0 0 0 1 0.53686166 0 -0.8436703 21.35 0 1 0 0 0.8436703 0 0.53686166 0 0 0 0 1 0.5425831 0 -0.8400022 21.35 0 1 0 0 0.8400022 0 0.5425831 0 0 0 0 1 0.55016506 0 -0.83505595 21.35 0 1 0 0 0.83505595 0 0.55016506 0 0 0 0 1 0.558738 0 -0.8293442 21.35 0 1 0 0 0.8293442 0 0.558738 0 0 0 0 1 0.5673764 0 -0.8234586 21.35 0 1 0 0 0.8234586 0 0.5673764 0 0 0 0 1 0.5673764 0 -0.8234586 21.35 0 1 0 0 0.8234586 0 0.5673764 0 0 0 0 1</float_array>
        <technique_common>
          <accessor source="#Motion_7_RForeArm_transform_pose_array_id" count="16" stride="16">
            <param name="TRANSFORM" type="float4x4" />
          </accessor>
        </technique_common>
      </source>
      <sampler id="Motion_7_RForeArm_transform_samp_id">
        <input semantic="INPUT" source="#Motion_7_RForeArm_transform_frame_id" />
        <input semantic="INTERPOLATION" source="#Motion_7_RForeArm_transform_interp_id" />
        <input semantic="OUTPUT" source="#Motion_7_RForeArm_transform_pose_id" />
      </sampler>
      <channel source="#Motion_7_RForeArm_transform_samp_id" target="RForeArm_bone_id/transform" />
    </animation>
    <animation id="Motion_7_RHand_transform_id" name="Motion_7_RHand_transform">
      <source id="Motion_7_RHand_transform_frame_id" name="Motion_7_RHand_transform_frame">
        <float_array id="Motion_7_RHand_transform_frame_array_id" count="16">0 0.033333335 0.06666667 0.1 0.13333334 0.16666667 0.2 0.23333333 0.26666668 0.3 0.33333334 0.36666667 0.4 0.43333334 0.46666667 0.5</float_array>
        <technique_common>
          <accessor source="#Motion_7_RHand_transform_frame_array_id" count="16" stride="1">
            <param name="TIME" type="float" />
          </accessor>
        </technique_common>
      </source>
      <source id="Motion_7_RHand_transform_interp_id" name="Motion_7_RHand_transform_interp">
        <Name_array id="Motion_7_RHand_transform_interp_array_id" count="16">LINEAR LINEAR LINEAR LINEAR LINEAR LINEAR LINEAR LINEAR LINEAR LINEAR LINEAR LINEAR LINEAR LINEAR LINEAR LINEAR</Name_array>
        <technique_common>
          <accessor source="#Motion_7_RHand_transform_interp_array_id" count="16" stride="1">
            <param name="INTERPOLATION" type="Name" />
          </accessor>
        </technique_common>
      </source>
      <source id="Motion_7_RHand_transform_pose_id" name="Motion_7_RHand_transform_pose">
        <float_array id="Motion_7_RHand_transform_pose_array_id" count="256">0.9637981 0.24762575 0.09886725 21.35 -0.2249931 0.5563311 0.79992115 0 0.14307813 -0.79320693 0.59190494 0 0 0 0 1 0.96432596 0.24473505 0.10089682 21.35 -0.2246827 0.5551595 0.8008218 0 0.13997534 -0.79492307 0.59034246 0 0 0 0 1 0.9646721 0.24316831 0.10137499 21.35 -0.22409149 0.5550294 0.8010777 0 0.1385306 -0.79549456 0.5899133 0 0 0 0 1 0.96487 0.24273907 0.10051708 21.35 -0.22321548 0.5556073 0.8009215 0 0.13856693 -0.7952221 0.59027195 0 0 0 0 1 0.9649742 0.2426864 0.09963937 21.35 -0.2225367 0.5560781 0.80078375 0 0.13893205 -0.7949091 0.59060764 0 0 0 0 1 0.96502423 0.24256597 0.09944852 21.35 -0.22227122 0.5558902 0.8009879 0 0.13900997 -0.79507726 0.5903629 0 0 0 0 1 0.96505445 0.24198529 0.100563556 21.35 -0.22270188 0.5551009 0.8014155 0 0.13810785 -0.7958053 0.5895932 0 0 0 0 1 0.96507007 0.24109052 0.102543406 21.35 -0.22356732 0.5537693 0.8020955 0 0.13659224 -0.7970037 0.5883261 0 0 0 0 1 0.96505946 0.2404149 0.10421572 21.35 -0.224353 0.5526509 0.8026473 0 0.13537347 -0.79798347 0.58727884 0 0 0 0 1 0.9650321 0.24011578 0.10515422 21.35 -0.22492312 0.55248916 0.80259913 0 0.13462016 -0.7981855 0.58717734 0 0 0 0 1 0.9650028 0.24028754 0.105031006 21.35 -0.22506681 0.5533247 0.80198294 0 0.13459027 -0.7975548 0.58804065 0 0 0 0 1 0.96498364 0.24102066 0.103515975 21.35 -0.2245758 0.5551957 0.8008267 0 0.13554417 -0.7960319 0.58988214 0 0 0 0 1 0.9649628 0.24219932 0.10092753 21.35 -0.22365649 0.5581074 0.79905814 0 0.13720295 -0.7936345 0.5927223 0 0 0 0 1 0.9649279 0.24345706 0.09819743 21.35 -0.22275947 0.5614387 0.79697233 0 0.13889669 -0.7908953 0.5959803 0 0 0 0 1 0.96488994 0.24452105 0.09590013 21.35 -0.2220541 0.56441283 0.7950662 0 0.14028315 -0.78844637 0.59889317 0 0 0 0 1 0.96488994 0.24452105 0.09590013 21.35 -0.2220541 0.56441283 0.7950662 0 0.14028315 -0.78844637 0.59889317 0 0 0 0 1</float_array>
        <technique_common>
          <accessor source="#Motion_7_RHand_transform_pose_array_id" count="16" stride="16">
            <param name="TRANSFORM" type="float4x4" />
          </accessor>
        </technique_common>
      </source>
      <sampler id="Motion_7_RHand_transform_samp_id">
        <input semantic="INPUT" source="#Motion_7_RHand_transform_frame_id" />
        <input semantic="INTERPOLATION" source="#Motion_7_RHand_transform_interp_id" />
        <input semantic="OUTPUT" source="#Motion_7_RHand_transform_pose_id" />
      </sampler>
      <channel source="#Motion_7_RHand_transform_samp_id" target="RHand_bone_id/transform" />
    </animation>
    <animation id="Motion_7_Hips_transform_id" name="Motion_7_Hips_transform">
      <source id="Motion_7_Hips_transform_frame_id" name="Motion_7_Hips_transform_frame">
        <float_array id="Motion_7_Hips_transform_frame_array_id" count="16">0 0.033333335 0.06666667 0.1 0.13333334 0.16666667 0.2 0.23333333 0.26666668 0.3 0.33333334 0.36666667 0.4 0.43333334 0.46666667 0.5</float_array>
        <technique_common>
          <accessor source="#Motion_7_Hips_transform_frame_array_id" count="16" stride="1">
            <param name="TIME" type="float" />
          </accessor>
        </technique_common>
      </source>
      <source id="Motion_7_Hips_transform_interp_id" name="Motion_7_Hips_transform_interp">
        <Name_array id="Motion_7_Hips_transform_interp_array_id" count="16">LINEAR LINEAR LINEAR LINEAR LINEAR LINEAR LINEAR LINEAR LINEAR LINEAR LINEAR LINEAR LINEAR LINEAR LINEAR LINEAR</Name_array>
        <technique_common>
          <accessor source="#Motion_7_Hips_transform_interp_array_id" count="16" stride="1">
            <param name="INTERPOLATION" type="Name" />
          </accessor>
        </technique_common>
      </source>
      <source id="Motion_7_Hips_transform_pose_id" name="Motion_7_Hips_transform_pose">
        <float_array id="Motion_7_Hips_transform_pose_array_id" count="256">-0.99639726 -3.8965044E-07 -0.08480828 -0.010002 3.884765E-07 -1 3.0344697E-08 0 -0.08480828 -2.710653E-09 0.9963973 0 0 0 0 1 -0.99639726 -3.8965044E-07 -0.08480828 -0.010002 3.884765E-07 -1 3.0344697E-08 0 -0.08480828 -2.710653E-09 0.9963973 0 0 0 0 1 -0.99639726 -3.8965044E-07 -0.08480828 -0.010002 3.884765E-07 -1 3.0344697E-08 0 -0.08480828 -2.710653E-09 0.9963973 0 0 0 0 1 -0.99639726 -3.8965044E-07 -0.08480828 -0.010002 3.884765E-07 -1 3.0344697E-08 0 -0.08480828 -2.710653E-09 0.9963973 0 0 0 0 1 -0.99639726 -3.8965044E-07 -0.08480828 -0.010002 3.884765E-07 -1 3.0344697E-08 0 -0.08480828 -2.710653E-09 0.9963973 0 0 0 0 1 -0.99639726 -3.8965044E-07 -0.08480828 -0.010002 3.884765E-07 -1 3.0344697E-08 0 -0.08480828 -2.710653E-09 0.9963973 0 0 0 0 1 -0.99639726 -3.8965044E-07 -0.08480828 -0.010002 3.884765E-07 -1 3.0344697E-08 0 -0.08480828 -2.710653E-09 0.9963973 0 0 0 0 1 -0.99639726 -3.8965044E-07 -0.08480828 -0.010002 3.884765E-07 -1 3.0344697E-08 0 -0.08480828 -2.710653E-09 0.9963973 0 0 0 0 1 -0.99639726 -3.8965044E-07 -0.08480828 -0.010002 3.884765E-07 -1 3.0344697E-08 0 -0.08480828 -2.710653E-09 0.9963973 0 0 0 0 1 -0.99639726 -3.8965044E-07 -0.08480828 -0.010002 3.884765E-07 -1 3.0344697E-08 0 -0.08480828 -2.710653E-09 0.9963973 0 0 0 0 1 -0.99639726 -3.8965044E-07 -0.08480828 -0.010002 3.884765E-07 -1 3.0344697E-08 0 -0.08480828 -2.710653E-09 0.9963973 0 0 0 0 1 -0.99639726 -3.8965044E-07 -0.08480828 -0.010002 3.884765E-07 -1 3.0344697E-08 0 -0.08480828 -2.710653E-09 0.9963973 0 0 0 0 1 -0.99639726 -3.8965044E-07 -0.08480828 -0.010002 3.884765E-07 -1 3.0344697E-08 0 -0.08480828 -2.710653E-09 0.9963973 0 0 0 0 1 -0.99639726 -3.8965044E-07 -0.08480828 -0.010002 3.884765E-07 -1 3.0344697E-08 0 -0.08480828 -2.710653E-09 0.9963973 0 0 0 0 1 -0.99639726 -3.8965044E-07 -0.08480828 -0.010002 3.884765E-07 -1 3.0344697E-08 0 -0.08480828 -2.710653E-09 0.9963973 0 0 0 0 1 -0.99639726 -3.8965044E-07 -0.08480828 -0.010002 3.884765E-07 -1 3.0344697E-08 0 -0.08480828 -2.710653E-09 0.9963973 0 0 0 0 1</float_array>
        <technique_common>
          <accessor source="#Motion_7_Hips_transform_pose_array_id" count="16" stride="16">
            <param name="TRANSFORM" type="float4x4" />
          </accessor>
        </technique_common>
      </source>
      <sampler id="Motion_7_Hips_transform_samp_id">
        <input semantic="INPUT" source="#Motion_7_Hips_transform_frame_id" />
        <input semantic="INTERPOLATION" source="#Motion_7_Hips_transform_interp_id" />
        <input semantic="OUTPUT" source="#Motion_7_Hips_transform_pose_id" />
      </sampler>
      <channel source="#Motion_7_Hips_transform_samp_id" target="Hips_bone_id/transform" />
    </animation>
    <animation id="Motion_7_LThigh_transform_id" name="Motion_7_LThigh_transform">
      <source id="Motion_7_LThigh_transform_frame_id" name="Motion_7_LThigh_transform_frame">
        <float_array id="Motion_7_LThigh_transform_frame_array_id" count="16">0 0.033333335 0.06666667 0.1 0.13333334 0.16666667 0.2 0.23333333 0.26666668 0.3 0.33333334 0.36666667 0.4 0.43333334 0.46666667 0.5</float_array>
        <technique_common>
          <accessor source="#Motion_7_LThigh_transform_frame_array_id" count="16" stride="1">
            <param name="TIME" type="float" />
          </accessor>
        </technique_common>
      </source>
      <source id="Motion_7_LThigh_transform_interp_id" name="Motion_7_LThigh_transform_interp">
        <Name_array id="Motion_7_LThigh_transform_interp_array_id" count="16">LINEAR LINEAR LINEAR LINEAR LINEAR LINEAR LINEAR LINEAR LINEAR LINEAR LINEAR LINEAR LINEAR LINEAR LINEAR LINEAR</Name_array>
        <technique_common>
          <accessor source="#Motion_7_LThigh_transform_interp_array_id" count="16" stride="1">
            <param name="INTERPOLATION" type="Name" />
          </accessor>
        </technique_common>
      </source>
      <source id="Motion_7_LThigh_transform_pose_id" name="Motion_7_LThigh_transform_pose">
        <float_array id="Motion_7_LThigh_transform_pose_array_id" count="256">0.23752797 -0.6779575 -0.6956681 6.260002 0.38643903 0.7230038 -0.57265204 7.1 0.8912045 -0.13281243 0.43372285 0 0 0 0 1 0.22862363 -0.6782699 -0.69834167 6.260002 0.39014786 0.7210509 -0.57259953 7.1 0.89191693 -0.14154676 0.4294749 0 0 0 0 1 0.21936643 -0.6792052 -0.7003991 6.260002 0.394933 0.7182577 -0.57282966 7.1 0.8921359 -0.15095109 0.4258021 0 0 0 0 1 0.21033978 -0.6807093 -0.7017065 6.260002 0.4002133 0.71482 -0.57346463 7.1 0.89195657 -0.16020983 0.42278403 0 0 0 0 1 0.20271397 -0.6821998 -0.7025031 6.260002 0.40482813 0.7116058 -0.57422245 7.1 0.8916397 -0.16799003 0.420426 0 0 0 0 1 0.19741583 -0.6833784 -0.70286626 6.260002 0.4079128 0.7092228 -0.5749872 7.1 0.89142257 -0.1731966 0.41877055 0 0 0 0 1 0.19537663 -0.68395686 -0.7028734 6.260002 0.40861383 0.70828676 -0.5756427 7.1 0.8915507 -0.17473659 0.41785693 0 0 0 0 1 0.19693446 -0.6840119 -0.7023849 6.260002 0.40683943 0.7088353 -0.5762241 7.1 0.89201933 -0.1722795 0.41787714 0 0 0 0 1 0.20090675 -0.6842418 -0.7010348 6.260002 0.40382293 0.70984113 -0.57710713 7.1 0.8925041 -0.16714917 0.41892433 0 0 0 0 1 0.20587671 -0.6852693 -0.6985849 6.260002 0.4006732 0.71032494 -0.578705 7.1 0.89279103 -0.16076225 0.42080837 0 0 0 0 1 0.21068275 -0.68777835 -0.6946752 6.260002 0.39862204 0.70930433 -0.5813672 7.1 0.8925879 -0.15442878 0.42360175 0 0 0 0 1 0.2142868 -0.6923363 -0.6890222 6.260002 0.39877427 0.70595264 -0.58532894 7.1 0.8916615 -0.14933604 0.4273622 0 0 0 0 1 0.21700978 -0.69819504 -0.6822246 6.260002 0.4008127 0.70098025 -0.5898948 7.1 0.89008754 -0.14543137 0.43196505 0 0 0 0 1 0.21973848 -0.70408905 -0.67525816 6.260002 0.4038441 0.69573444 -0.5940231 7.1 0.88804555 -0.14216933 0.43722188 0 0 0 0 1 0.22339207 -0.7087794 -0.6691246 6.260002 0.40697867 0.69159627 -0.5967101 7.1 0.88569987 -0.13901915 0.44295526 0 0 0 0 1 0.22339207 -0.7087794 -0.6691246 6.260002 0.40697867 0.69159627 -0.5967101 7.1 0.88569987 -0.13901915 0.44295526 0 0 0 0 1</float_array>
        <technique_common>
          <accessor source="#Motion_7_LThigh_transform_pose_array_id" count="16" stride="16">
            <param name="TRANSFORM" type="float4x4" />
          </accessor>
        </technique_common>
      </source>
      <sampler id="Motion_7_LThigh_transform_samp_id">
        <input semantic="INPUT" source="#Motion_7_LThigh_transform_frame_id" />
        <input semantic="INTERPOLATION" source="#Motion_7_LThigh_transform_interp_id" />
        <input semantic="OUTPUT" source="#Motion_7_LThigh_transform_pose_id" />
      </sampler>
      <channel source="#Motion_7_LThigh_transform_samp_id" target="LThigh_bone_id/transform" />
    </animation>
    <animation id="Motion_7_LLeg_transform_id" name="Motion_7_LLeg_transform">
      <source id="Motion_7_LLeg_transform_frame_id" name="Motion_7_LLeg_transform_frame">
        <float_array id="Motion_7_LLeg_transform_frame_array_id" count="16">0 0.033333335 0.06666667 0.1 0.13333334 0.16666667 0.2 0.23333333 0.26666668 0.3 0.33333334 0.36666667 0.4 0.43333334 0.46666667 0.5</float_array>
        <technique_common>
          <accessor source="#Motion_7_LLeg_transform_frame_array_id" count="16" stride="1">
            <param name="TIME" type="float" />
          </accessor>
        </technique_common>
      </source>
      <source id="Motion_7_LLeg_transform_interp_id" name="Motion_7_LLeg_transform_interp">
        <Name_array id="Motion_7_LLeg_transform_interp_array_id" count="16">LINEAR LINEAR LINEAR LINEAR LINEAR LINEAR LINEAR LINEAR LINEAR LINEAR LINEAR LINEAR LINEAR LINEAR LINEAR LINEAR</Name_array>
        <technique_common>
          <accessor source="#Motion_7_LLeg_transform_interp_array_id" count="16" stride="1">
            <param name="INTERPOLATION" type="Name" />
          </accessor>
        </technique_common>
      </source>
      <source id="Motion_7_LLeg_transform_pose_id" name="Motion_7_LLeg_transform_pose">
        <float_array id="Motion_7_LLeg_transform_pose_array_id" count="256">0.5000677 0 0.8659863 32.800003 0 1 0 0 -0.8659863 0 0.5000677 0 0 0 0 1 0.49777764 0 0.8673047 32.800003 0 1 0 0 -0.8673047 0 0.49777764 0 0 0 0 1 0.4955507 0 0.86857903 32.800003 0 1 0 0 -0.86857903 0 0.4955507 0 0 0 0 1 0.49354243 0 0.8697217 32.800003 0 1 0 0 -0.8697217 0 0.49354243 0 0 0 0 1 0.49190992 0 0.8706461 32.800003 0 1 0 0 -0.8706461 0 0.49190992 0 0 0 0 1 0.4908105 0 0.87126637 32.800003 0 1 0 0 -0.87126637 0 0.4908105 0 0 0 0 1 0.49040127 0 0.8714968 32.800003 0 1 0 0 -0.8714968 0 0.49040127 0 0 0 0 1 0.4908389 0 0.8712504 32.800003 0 1 0 0 -0.8712504 0 0.4908389 0 0 0 0 1 0.4916768 0 0.8707777 32.800003 0 1 0 0 -0.8707777 0 0.4916768 0 0 0 0 1 0.4924047 0 0.87036633 32.800003 0 1 0 0 -0.87036633 0 0.4924047 0 0 0 0 1 0.49308318 0 0.8699821 32.800003 0 1 0 0 -0.8699821 0 0.49308318 0 0 0 0 1 0.49377257 0 0.86959106 32.800003 0 1 0 0 -0.86959106 0 0.49377257 0 0 0 0 1 0.49453288 0 0.8691589 32.800003 0 1 0 0 -0.8691589 0 0.49453288 0 0 0 0 1 0.49542397 0 0.86865133 32.800003 0 1 0 0 -0.86865133 0 0.49542397 0 0 0 0 1 0.4965062 0 0.86803323 32.800003 0 1 0 0 -0.86803323 0 0.4965062 0 0 0 0 1 0.4965062 0 0.86803323 32.800003 0 1 0 0 -0.86803323 0 0.4965062 0 0 0 0 1</float_array>
        <technique_common>
          <accessor source="#Motion_7_LLeg_transform_pose_array_id" count="16" stride="16">
            <param name="TRANSFORM" type="float4x4" />
          </accessor>
        </technique_common>
      </source>
      <sampler id="Motion_7_LLeg_transform_samp_id">
        <input semantic="INPUT" source="#Motion_7_LLeg_transform_frame_id" />
        <input semantic="INTERPOLATION" source="#Motion_7_LLeg_transform_interp_id" />
        <input semantic="OUTPUT" source="#Motion_7_LLeg_transform_pose_id" />
      </sampler>
      <channel source="#Motion_7_LLeg_transform_samp_id" target="LLeg_bone_id/transform" />
    </animation>
    <animation id="Motion_7_LFoot_transform_id" name="Motion_7_LFoot_transform">
      <source id="Motion_7_LFoot_transform_frame_id" name="Motion_7_LFoot_transform_frame">
        <float_array id="Motion_7_LFoot_transform_frame_array_id" count="16">0 0.033333335 0.06666667 0.1 0.13333334 0.16666667 0.2 0.23333333 0.26666668 0.3 0.33333334 0.36666667 0.4 0.43333334 0.46666667 0.5</float_array>
        <technique_common>
          <accessor source="#Motion_7_LFoot_transform_frame_array_id" count="16" stride="1">
            <param name="TIME" type="float" />
          </accessor>
        </technique_common>
      </source>
      <source id="Motion_7_LFoot_transform_interp_id" name="Motion_7_LFoot_transform_interp">
        <Name_array id="Motion_7_LFoot_transform_interp_array_id" count="16">LINEAR LINEAR LINEAR LINEAR LINEAR LINEAR LINEAR LINEAR LINEAR LINEAR LINEAR LINEAR LINEAR LINEAR LINEAR LINEAR</Name_array>
        <technique_common>
          <accessor source="#Motion_7_LFoot_transform_interp_array_id" count="16" stride="1">
            <param name="INTERPOLATION" type="Name" />
          </accessor>
        </technique_common>
      </source>
      <source id="Motion_7_LFoot_transform_pose_id" name="Motion_7_LFoot_transform_pose">
        <float_array id="Motion_7_LFoot_transform_pose_array_id" count="256">0.002174139 0.33055514 -0.9437843 32.8 0.060669407 0.94200426 0.3300715 0 0.99815565 -0.0579765 -0.018006563 0 0 0 0 1 0.00013023615 0.32912722 -0.9442856 32.8 0.057626903 0.9427139 0.32858735 0 0.99833816 -0.054459065 -0.01884377 0 0 0 0 1 -0.0018383265 0.32768476 -0.94478536 32.8 0.054464802 0.9434174 0.32710433 0 0.99851406 -0.050856248 -0.019581556 0 0 0 0 1 -0.0035914183 0.32631195 -0.94525534 32.8 0.051449433 0.9440698 0.32570723 0 0.9986692 -0.04746309 -0.020179152 0 0 0 0 1 -0.004989624 0.3250948 -0.9456683 32.8 0.048847616 0.9446303 0.32448024 0 0.9987938 -0.044574603 -0.020593405 0 0 0 0 1 -0.0058933496 0.32412046 -0.9459974 32.8 0.046926484 0.9450613 0.32350737 0 0.9988809 -0.04248579 -0.020779371 0 0 0 0 1 -0.0061626434 0.3234762 -0.9462162 32.8 0.04595302 0.9453262 0.3228726 0 0.9989246 -0.041491717 -0.020690441 0 0 0 0 1 -0.0056587458 0.3232481 -0.9462973 32.8 0.046194524 0.9453867 0.3226608 0 0.9989164 -0.041887864 -0.02028203 0 0 0 0 1 -0.0046013594 0.32330412 -0.94628406 32.8 0.047179982 0.94531035 0.32274204 0 0.998876 -0.043160617 -0.019603252 0 0 0 0 1 -0.003344655 0.3234406 -0.94624263 32.8 0.048106626 0.9452043 0.32291567 0 0.9988367 -0.044440538 -0.018720984 0 0 0 0 1 -0.0019509792 0.32363555 -0.9461798 32.8 0.048743486 0.9450877 0.32316148 0 0.9988094 -0.04548961 -0.017619014 0 0 0 0 1 -0.00048327446 0.32386744 -0.9461024 32.8 0.048859283 0.94498014 0.32345837 0 0.99880564 -0.046069577 -0.016280651 0 0 0 0 1 0.0009961128 0.3241158 -0.9460169 32.8 0.048222646 0.9449012 0.32378435 0 0.99883616 -0.045941964 -0.014688492 0 0 0 0 1 0.0025462508 0.3245542 -0.94586366 32.8 0.04749912 0.94475985 0.32430333 0 0.99886805 -0.045753464 -0.013010383 0 0 0 0 1 0.004271269 0.32531613 -0.9455957 32.8 0.04762566 0.9444651 0.3251423 0 0.9988561 -0.046423376 -0.011459351 0 0 0 0 1 0.004271269 0.32531613 -0.9455957 32.8 0.04762566 0.9444651 0.3251423 0 0.9988561 -0.046423376 -0.011459351 0 0 0 0 1</float_array>
        <technique_common>
          <accessor source="#Motion_7_LFoot_transform_pose_array_id" count="16" stride="16">
            <param name="TRANSFORM" type="float4x4" />
          </accessor>
        </technique_common>
      </source>
      <sampler id="Motion_7_LFoot_transform_samp_id">
        <input semantic="INPUT" source="#Motion_7_LFoot_transform_frame_id" />
        <input semantic="INTERPOLATION" source="#Motion_7_LFoot_transform_interp_id" />
        <input semantic="OUTPUT" source="#Motion_7_LFoot_transform_pose_id" />
      </sampler>
      <channel source="#Motion_7_LFoot_transform_samp_id" target="LFoot_bone_id/transform" />
    </animation>
    <animation id="Motion_7_RThigh_transform_id" name="Motion_7_RThigh_transform">
      <source id="Motion_7_RThigh_transform_frame_id" name="Motion_7_RThigh_transform_frame">
        <float_array id="Motion_7_RThigh_transform_frame_array_id" count="16">0 0.033333335 0.06666667 0.1 0.13333334 0.16666667 0.2 0.23333333 0.26666668 0.3 0.33333334 0.36666667 0.4 0.43333334 0.46666667 0.5</float_array>
        <technique_common>
          <accessor source="#Motion_7_RThigh_transform_frame_array_id" count="16" stride="1">
            <param name="TIME" type="float" />
          </accessor>
        </technique_common>
      </source>
      <source id="Motion_7_RThigh_transform_interp_id" name="Motion_7_RThigh_transform_interp">
        <Name_array id="Motion_7_RThigh_transform_interp_array_id" count="16">LINEAR LINEAR LINEAR LINEAR LINEAR LINEAR LINEAR LINEAR LINEAR LINEAR LINEAR LINEAR LINEAR LINEAR LINEAR LINEAR</Name_array>
        <technique_common>
          <accessor source="#Motion_7_RThigh_transform_interp_array_id" count="16" stride="1">
            <param name="INTERPOLATION" type="Name" />
          </accessor>
        </technique_common>
      </source>
      <source id="Motion_7_RThigh_transform_pose_id" name="Motion_7_RThigh_transform_pose">
        <float_array id="Motion_7_RThigh_transform_pose_array_id" count="256">0.20579636 0.6623483 -0.72037673 6.260002 -0.40745464 0.72728634 0.5523001 -7.1 0.8897351 0.17985949 0.41954976 0 0 0 0 1 0.20388043 0.65996397 -0.7231046 6.260002 -0.40425277 0.7294606 0.55178523 -7.1 0.8916347 0.17981881 0.415515 0 0 0 0 1 0.20295572 0.6569278 -0.7261231 6.260002 -0.3999765 0.732488 0.5508903 -7.1 0.89377165 0.17862588 0.41141838 0 0 0 0 1 0.20326757 0.6532296 -0.7293649 6.260002 -0.3949208 0.73633325 0.54940957 -7.1 0.89594626 0.17636429 0.40764666 0 0 0 0 1 0.20415854 0.64978766 -0.7321854 6.260002 -0.39036933 0.739937 0.5478184 -7.1 0.8977367 0.17398086 0.40472156 0 0 0 0 1 0.20508206 0.64745015 -0.7339956 6.260002 -0.3875329 0.74236137 0.54655087 -7.1 0.8987544 0.17235972 0.40315324 0 0 0 0 1 0.20589131 0.6466699 -0.7344568 6.260002 -0.38720173 0.74312055 0.54575336 -7.1 0.89871216 0.17201707 0.4033938 0 0 0 0 1 0.20735061 0.646888 -0.733854 6.260002 -0.38890746 0.74283934 0.54492265 -7.1 0.8976396 0.17241122 0.40560776 0 0 0 0 1 0.20995796 0.64749086 -0.7325798 6.260002 -0.3917162 0.74222374 0.54374844 -7.1 0.89581025 0.1727991 0.4094684 0 0 0 0 1 0.21411866 0.6478458 -0.73106015 6.260002 -0.39465588 0.7419887 0.54194045 -7.1 0.8935323 0.17247765 0.41454983 0 0 0 0 1 0.22024661 0.64730906 -0.7297139 6.260002 -0.39674866 0.7428558 0.53921777 -7.1 0.8911128 0.1707521 0.42043048 0 0 0 0 1 0.22875631 0.6452126 -0.72895217 6.260002 -0.3969993 0.7455418 0.535312 -7.1 0.8888544 0.16693746 0.4266963 0 0 0 0 1 0.23938894 0.6413517 -0.72894514 6.260002 -0.39487934 0.7501899 0.53036344 -7.1 0.88699675 0.16088223 0.4328437 0 0 0 0 1 0.25009274 0.63702 -0.7291496 6.260002 -0.3913746 0.75532603 0.5256505 -7.1 0.88559556 0.15390928 0.43821502 0 0 0 0 1 0.25861573 0.63384086 -0.72894704 6.260002 -0.38780496 0.7592628 0.5226159 -7.1 0.8847177 0.14753252 0.44216388 0 0 0 0 1 0.25861573 0.63384086 -0.72894704 6.260002 -0.38780496 0.7592628 0.5226159 -7.1 0.8847177 0.14753252 0.44216388 0 0 0 0 1</float_array>
        <technique_common>
          <accessor source="#Motion_7_RThigh_transform_pose_array_id" count="16" stride="16">
            <param name="TRANSFORM" type="float4x4" />
          </accessor>
        </technique_common>
      </source>
      <sampler id="Motion_7_RThigh_transform_samp_id">
        <input semantic="INPUT" source="#Motion_7_RThigh_transform_frame_id" />
        <input semantic="INTERPOLATION" source="#Motion_7_RThigh_transform_interp_id" />
        <input semantic="OUTPUT" source="#Motion_7_RThigh_transform_pose_id" />
      </sampler>
      <channel source="#Motion_7_RThigh_transform_samp_id" target="RThigh_bone_id/transform" />
    </animation>
    <animation id="Motion_7_RLeg_transform_id" name="Motion_7_RLeg_transform">
      <source id="Motion_7_RLeg_transform_frame_id" name="Motion_7_RLeg_transform_frame">
        <float_array id="Motion_7_RLeg_transform_frame_array_id" count="16">0 0.033333335 0.06666667 0.1 0.13333334 0.16666667 0.2 0.23333333 0.26666668 0.3 0.33333334 0.36666667 0.4 0.43333334 0.46666667 0.5</float_array>
        <technique_common>
          <accessor source="#Motion_7_RLeg_transform_frame_array_id" count="16" stride="1">
            <param name="TIME" type="float" />
          </accessor>
        </technique_common>
      </source>
      <source id="Motion_7_RLeg_transform_interp_id" name="Motion_7_RLeg_transform_interp">
        <Name_array id="Motion_7_RLeg_transform_interp_array_id" count="16">LINEAR LINEAR LINEAR LINEAR LINEAR LINEAR LINEAR LINEAR LINEAR LINEAR LINEAR LINEAR LINEAR LINEAR LINEAR LINEAR</Name_array>
        <technique_common>
          <accessor source="#Motion_7_RLeg_transform_interp_array_id" count="16" stride="1">
            <param name="INTERPOLATION" type="Name" />
          </accessor>
        </technique_common>
      </source>
      <source id="Motion_7_RLeg_transform_pose_id" name="Motion_7_RLeg_transform_pose">
        <float_array id="Motion_7_RLeg_transform_pose_array_id" count="256">0.5000432 0 0.8660005 32.800003 0 1 0 0 -0.8660005 0 0.5000432 0 0 0 0 1 0.50096637 0 0.8654668 32.800003 0 1 0 0 -0.8654668 0 0.50096637 0 0 0 0 1 0.50236267 0 0.86465704 32.800003 0 1 0 0 -0.86465704 0 0.50236267 0 0 0 0 1 0.5040518 0 0.8636734 32.800003 0 1 0 0 -0.8636734 0 0.5040518 0 0 0 0 1 0.50585383 0 0.8626192 32.800003 0 1 0 0 -0.8626192 0 0.50585383 0 0 0 0 1 0.5075899 0 0.8615988 32.800003 0 1 0 0 -0.8615988 0 0.5075899 0 0 0 0 1 0.5090816 0 0.86071825 32.800003 0 1 0 0 -0.86071825 0 0.5090816 0 0 0 0 1 0.5101515 0 0.86008453 32.800003 0 1 0 0 -0.86008453 0 0.5101515 0 0 0 0 1 0.5111339 0 0.8595011 32.800003 0 1 0 0 -0.8595011 0 0.5111339 0 0 0 0 1 0.51245403 0 0.85871464 32.800003 0 1 0 0 -0.85871464 0 0.51245403 0 0 0 0 1 0.5140712 0 0.8577475 32.800003 0 1 0 0 -0.8577475 0 0.5140712 0 0 0 0 1 0.51594484 0 0.8566218 32.800003 0 1 0 0 -0.8566218 0 0.51594484 0 0 0 0 1 0.5180342 0 0.85535985 32.800003 0 1 0 0 -0.85535985 0 0.5180342 0 0 0 0 1 0.5202992 0 0.85398406 32.800003 0 1 0 0 -0.85398406 0 0.5202992 0 0 0 0 1 0.52269906 0 0.8525173 32.800003 0 1 0 0 -0.8525173 0 0.52269906 0 0 0 0 1 0.52269906 0 0.8525173 32.800003 0 1 0 0 -0.8525173 0 0.52269906 0 0 0 0 1</float_array>
        <technique_common>
          <accessor source="#Motion_7_RLeg_transform_pose_array_id" count="16" stride="16">
            <param name="TRANSFORM" type="float4x4" />
          </accessor>
        </technique_common>
      </source>
      <sampler id="Motion_7_RLeg_transform_samp_id">
        <input semantic="INPUT" source="#Motion_7_RLeg_transform_frame_id" />
        <input semantic="INTERPOLATION" source="#Motion_7_RLeg_transform_interp_id" />
        <input semantic="OUTPUT" source="#Motion_7_RLeg_transform_pose_id" />
      </sampler>
      <channel source="#Motion_7_RLeg_transform_samp_id" target="RLeg_bone_id/transform" />
    </animation>
    <animation id="Motion_7_RFoot_transform_id" name="Motion_7_RFoot_transform">
      <source id="Motion_7_RFoot_transform_frame_id" name="Motion_7_RFoot_transform_frame">
        <float_array id="Motion_7_RFoot_transform_frame_array_id" count="16">0 0.033333335 0.06666667 0.1 0.13333334 0.16666667 0.2 0.23333333 0.26666668 0.3 0.33333334 0.36666667 0.4 0.43333334 0.46666667 0.5</float_array>
        <technique_common>
          <accessor source="#Motion_7_RFoot_transform_frame_array_id" count="16" stride="1">
            <param name="TIME" type="float" />
          </accessor>
        </technique_common>
      </source>
      <source id="Motion_7_RFoot_transform_interp_id" name="Motion_7_RFoot_transform_interp">
        <Name_array id="Motion_7_RFoot_transform_interp_array_id" count="16">LINEAR LINEAR LINEAR LINEAR LINEAR LINEAR LINEAR LINEAR LINEAR LINEAR LINEAR LINEAR LINEAR LINEAR LINEAR LINEAR</Name_array>
        <technique_common>
          <accessor source="#Motion_7_RFoot_transform_interp_array_id" count="16" stride="1">
            <param name="INTERPOLATION" type="Name" />
          </accessor>
        </technique_common>
      </source>
      <source id="Motion_7_RFoot_transform_pose_id" name="Motion_7_RFoot_transform_pose">
        <float_array id="Motion_7_RFoot_transform_pose_array_id" count="256">0.027660787 -0.36943078 -0.9288465 32.8 0.026137158 0.92915165 -0.36877382 0 0.99927557 -0.014076844 0.03535694 0 0 0 0 1 0.027251959 -0.37070268 -0.92835164 32.8 0.023067668 0.9286825 -0.37015766 0 0.99936235 -0.011327416 0.03385967 0 0 0 0 1 0.027130127 -0.37194008 -0.9278601 32.8 0.019777134 0.92821985 -0.371506 0 0.9994362 -0.008271426 0.032538652 0 0 0 0 1 0.027246475 -0.3730704 -0.92740285 32.8 0.016554117 0.9277885 -0.37273917 0 0.9994917 -0.0051965415 0.0314548 0 0 0 0 1 0.02755171 -0.37402135 -0.9270107 32.8 0.0136870295 0.92741704 -0.37377846 0 0.9995267 -0.0023897886 0.03067118 0 0 0 0 1 0.027997375 -0.37472105 -0.9267148 32.8 0.011464313 0.9271376 -0.37454563 0 0.99954224 -0.00013785064 0.03025335 0 0 0 0 1 0.02853471 -0.3750984 -0.92654574 32.8 0.010174185 0.92698413 -0.37496257 0 0.99954104 0.0012726039 0.030267596 0 0 0 0 1 0.0291152 -0.37508267 -0.9265341 32.8 0.010104939 0.9269901 -0.37494975 0 0.999525 0.0015541762 0.03077966 0 0 0 0 1 0.029801726 -0.3748073 -0.9266236 32.8 0.010841042 0.9271021 -0.37465215 0 0.99949706 0.0011197478 0.031692564 0 0 0 0 1 0.030718088 -0.37446478 -0.92673206 32.8 0.011617929 0.92724085 -0.37428522 0 0.99946046 0.00073060393 0.032833576 0 0 0 0 1 0.031906128 -0.37407285 -0.9268502 32.8 0.012199938 0.9273991 -0.37387437 0 0.99941635 0.0006213635 0.0341534 0 0 0 0 1 0.033408463 -0.3736486 -0.9269685 32.8 0.012351215 0.92756975 -0.3734458 0 0.9993655 0.0010270923 0.035603702 0 0 0 0 1 0.03526658 -0.37320787 -0.9270772 32.8 0.0118355155 0.92774516 -0.37302655 0 0.9993079 0.0021829456 0.03713548 0 0 0 0 1 0.03759855 -0.37263775 -0.9272149 32.8 0.0112143755 0.9279699 -0.3724864 0 0.99922997 0.0036068112 0.039069176 0 0 0 0 1 0.040387392 -0.37182942 -0.9274222 32.8 0.011321455 0.9282901 -0.3716844 0 0.99912006 0.0045116246 0.04170084 0 0 0 0 1 0.040387392 -0.37182942 -0.9274222 32.8 0.011321455 0.9282901 -0.3716844 0 0.99912006 0.0045116246 0.04170084 0 0 0 0 1</float_array>
        <technique_common>
          <accessor source="#Motion_7_RFoot_transform_pose_array_id" count="16" stride="16">
            <param name="TRANSFORM" type="float4x4" />
          </accessor>
        </technique_common>
      </source>
      <sampler id="Motion_7_RFoot_transform_samp_id">
        <input semantic="INPUT" source="#Motion_7_RFoot_transform_frame_id" />
        <input semantic="INTERPOLATION" source="#Motion_7_RFoot_transform_interp_id" />
        <input semantic="OUTPUT" source="#Motion_7_RFoot_transform_pose_id" />
      </sampler>
      <channel source="#Motion_7_RFoot_transform_samp_id" target="RFoot_bone_id/transform" />
    </animation>
  </library_animations>
  <library_visual_scenes>
    <visual_scene id="tr0205_00_fi_00_clip_id" name="tr0205_00_fi_00_clip">
      <node id="tr0205_00_fi_bone_id" name="tr0205_00_fi" sid="tr0205_00_fi" type="JOINT">
        <matrix sid="transform">1 0 0 0 0 1 0 0 0 0 1 0 0 0 0 1</matrix>
        <node id="Origin_bone_id" name="Origin" sid="Origin" type="JOINT">
          <matrix sid="transform">1 0 0 0 0 1 0 0 0 0 1 0 0 0 0 1</matrix>
          <node id="Waist_bone_id" name="Waist" sid="Waist" type="JOINT">
            <matrix sid="transform">3.1391647E-07 -1 0 0 1 3.1391647E-07 0 80.65 0 0 1 0 0 0 0 1</matrix>
            <node id="Spine2_bone_id" name="Spine2" sid="Spine2" type="JOINT">
              <matrix sid="transform">1 0 0 12.800003 0 1 0 0 0 0 1 0 0 0 0 1</matrix>
              <node id="Spine3_bone_id" name="Spine3" sid="Spine3" type="JOINT">
                <matrix sid="transform">0.9971689 0 0.07519396 12.800003 0 1 0 0 -0.07519396 0 0.9971689 0 0 0 0 1</matrix>
                <node id="Neck_bone_id" name="Neck" sid="Neck" type="JOINT">
                  <matrix sid="transform">0.97107327 0 -0.23878163 14.250113 0 1 0 0 0.23878163 0 0.97107327 0 0 0 0 1</matrix>
                  <node id="Head_bone_id" name="Head" sid="Head" type="JOINT">
                    <matrix sid="transform">0.9862791 0 0.16508679 5.699835 0 1 0 0 -0.16508679 0 0.9862791 0 0 0 0 1</matrix>
                    <node id="Loc_Head_bone_id" name="Loc_Head" sid="Loc_Head" type="JOINT">
                      <matrix sid="transform">3.1391647E-07 1 0 30.897501 -1 3.1391647E-07 0 0 0 0 1 0.130562 0 0 0 1</matrix>
                    </node>
                    <node id="Loc_Eye_bone_id" name="Loc_Eye" sid="Loc_Eye" type="JOINT">
                      <matrix sid="transform">3.1391647E-07 1 0 9 -1 3.1391647E-07 0 0 0 0 1 11.593714 0 0 0 1</matrix>
                    </node>
                    <node id="Loc_Mouth_bone_id" name="Loc_Mouth" sid="Loc_Mouth" type="JOINT">
                      <matrix sid="transform">3.1391647E-07 1 0 0.383804 -1 3.1391647E-07 0 0 0 0 1 11.585683 0 0 0 1</matrix>
                    </node>
                  </node>
                </node>
                <node id="LShoulder_bone_id" name="LShoulder" sid="LShoulder" type="JOINT">
                  <matrix sid="transform">-0.65748256 0.74970824 -0.075194746 12.810532 -0.7518368 -0.65934926 -8.489264E-08 -3.840002 -0.049579665 0.05653412 0.99716884 -0.109299 0 0 0 1</matrix>
                  <node id="LArm_bone_id" name="LArm" sid="LArm" type="JOINT">
                    <matrix sid="transform">0.7518374 -0.65934855 0 6.70358 0.65934855 0.7518374 0 0 0 0 1 0 0 0 0 1</matrix>
                    <node id="LForeArm_bone_id" name="LForeArm" sid="LForeArm" type="JOINT">
                      <matrix sid="transform">1 0 0 21.35 0 1 0 0 0 0 1 0 0 0 0 1</matrix>
                      <node id="LHand_bone_id" name="LHand" sid="LHand" type="JOINT">
                        <matrix sid="transform">1 0 0 21.35 0 1 0 0 0 0 1 0 0 0 0 1</matrix>
                      </node>
                    </node>
                  </node>
                </node>
                <node id="RShoulder_bone_id" name="RShoulder" sid="RShoulder" type="JOINT">
                  <matrix sid="transform">-0.65748256 -0.74970824 -0.075194746 12.810532 0.7518368 -0.65934926 8.489264E-08 3.840002 -0.049579665 -0.05653412 0.99716884 -0.109299 0 0 0 1</matrix>
                  <node id="RArm_bone_id" name="RArm" sid="RArm" type="JOINT">
                    <matrix sid="transform">0.7518374 0.65934855 0 6.70358 -0.65934855 0.7518374 0 0 0 0 1 0 0 0 0 1</matrix>
                    <node id="RForeArm_bone_id" name="RForeArm" sid="RForeArm" type="JOINT">
                      <matrix sid="transform">1 0 0 21.35 0 1 0 0 0 0 1 0 0 0 0 1</matrix>
                      <node id="RHand_bone_id" name="RHand" sid="RHand" type="JOINT">
                        <matrix sid="transform">1 0 0 21.35 0 1 0 0 0 0 1 0 0 0 0 1</matrix>
                      </node>
                    </node>
                  </node>
                </node>
              </node>
            </node>
            <node id="Hips_bone_id" name="Hips" sid="Hips" type="JOINT">
              <matrix sid="transform">-1 -3.2584137E-07 0 -0.010002 3.2584137E-07 -1 0 0 0 0 1 0 0 0 0 1</matrix>
              <node id="LThigh_bone_id" name="LThigh" sid="LThigh" type="JOINT">
                <matrix sid="transform">1 0 0 6.260002 0 1 0 7.1 0 0 1 0 0 0 0 1</matrix>
                <node id="LLeg_bone_id" name="LLeg" sid="LLeg" type="JOINT">
                  <matrix sid="transform">1 0 0 32.800003 0 1 0 0 0 0 1 0 0 0 0 1</matrix>
                  <node id="LFoot_bone_id" name="LFoot" sid="LFoot" type="JOINT">
                    <matrix sid="transform">3.1391647E-07 0 -1 32.8 0 1 0 0 1 0 3.1391647E-07 0 0 0 0 1</matrix>
                  </node>
                </node>
              </node>
              <node id="RThigh_bone_id" name="RThigh" sid="RThigh" type="JOINT">
                <matrix sid="transform">1 0 0 6.260002 0 1 0 -7.1 0 0 1 0 0 0 0 1</matrix>
                <node id="RLeg_bone_id" name="RLeg" sid="RLeg" type="JOINT">
                  <matrix sid="transform">1 0 0 32.800003 0 1 0 0 0 0 1 0 0 0 0 1</matrix>
                  <node id="RFoot_bone_id" name="RFoot" sid="RFoot" type="JOINT">
                    <matrix sid="transform">3.1391647E-07 0 -1 32.8 0 1 0 0 1 0 3.1391647E-07 0 0 0 0 1</matrix>
                  </node>
                </node>
              </node>
            </node>
          </node>
          <node id="CamTgtHead_bone_id" name="CamTgtHead" sid="CamTgtHead" type="JOINT">
            <matrix sid="transform">1 0 0 0 0 1 0 135.0814 0 0 1 0 0 0 0 1</matrix>
          </node>
          <node id="CamTgtBust_bone_id" name="CamTgtBust" sid="CamTgtBust" type="JOINT">
            <matrix sid="transform">1 0 0 0 0 1 0 106.25001 0 0 1 0 0 0 0 1</matrix>
          </node>
          <node id="CamTgtBody_bone_id" name="CamTgtBody" sid="CamTgtBody" type="JOINT">
            <matrix sid="transform">1 0 0 0 0 1 0 80.65 0 0 1 0 0 0 0 1</matrix>
          </node>
          <node id="CamTgtFoot_bone_id" name="CamTgtFoot" sid="CamTgtFoot" type="JOINT">
            <matrix sid="transform">1 0 0 0 0 1 0 0 0 0 1 0 0 0 0 1</matrix>
          </node>
        </node>
        <node id="tr0205_00_fi_RopeSkin_bone_id" name="tr0205_00_fi_RopeSkin" sid="tr0205_00_fi_RopeSkin" type="JOINT">
          <matrix sid="transform">1 0 0 0 0 1 0 0 0 0 1 0 0 0 0 1</matrix>
        </node>
        <node id="tr0205_00_fi_BottomsSkin_bone_id" name="tr0205_00_fi_BottomsSkin" sid="tr0205_00_fi_BottomsSkin" type="JOINT">
          <matrix sid="transform">1 0 0 0 0 1 0 0 0 0 1 0 0 0 0 1</matrix>
        </node>
        <node id="tr0205_00_fi_BodySkin_bone_id" name="tr0205_00_fi_BodySkin" sid="tr0205_00_fi_BodySkin" type="JOINT">
          <matrix sid="transform">1 0 0 0 0 1 0 0 0 0 1 0 0 0 0 1</matrix>
        </node>
        <node id="tr0205_00_fi_FaceSkin_bone_id" name="tr0205_00_fi_FaceSkin" sid="tr0205_00_fi_FaceSkin" type="JOINT">
          <matrix sid="transform">1 0 0 0 0 1 0 0 0 0 1 0 0 0 0 1</matrix>
        </node>
        <node id="tr0205_00_fi_HeadSkin_bone_id" name="tr0205_00_fi_HeadSkin" sid="tr0205_00_fi_HeadSkin" type="JOINT">
          <matrix sid="transform">1 0 0 0 0 1 0 0 0 0 1 0 0 0 0 1</matrix>
        </node>
        <node id="tr0205_00_fi_HelmetSkin_bone_id" name="tr0205_00_fi_HelmetSkin" sid="tr0205_00_fi_HelmetSkin" type="JOINT">
          <matrix sid="transform">1 0 0 0 0 1 0 0 0 0 1 0 0 0 0 1</matrix>
        </node>
      </node>
    </visual_scene>
  </library_visual_scenes>
  <scene>
    <instance_visual_scene url="#tr0205_00_fi_00_clip_id" />
  </scene>
</COLLADA>