<?xml version="1.0" encoding="utf-8"?>
<COLLADA xmlns="http://www.collada.org/2005/11/COLLADASchema" version="1.4.1">
	<asset>
		<created>2026-02-17T06:55:57Z</created>
		<modified>2026-02-17T06:55:57Z</modified>
		<up_axis>Y_UP</up_axis>
	</asset>
	<library_animations>
		<animation id="anim_Waist_transform" name="anim_Waist_transform">
			<source id="anim_Waist_transform_input">
				<float_array id="anim_Waist_transform_input_array" count="16">0 0.03333333333333333 0.06666666666666667 0.1 0.13333333333333333 0.16666666666666666 0.2 0.23333333333333334 0.26666666666666666 0.3 0.3333333333333333 0.36666666666666664 0.4 0.43333333333333335 0.4666666666666667 0.5</float_array>
				<technique_common>
					<accessor source="#anim_Waist_transform_input_array" count="16" stride="1">
						<param name="TIME" type="float"/>
					</accessor>
				</technique_common>
			</source>
			<source id="anim_Waist_transform_output">
				<float_array id="anim_Waist_transform_output_array" count="256">-0.006727914061217977 -0.9999773649017731 0.00006968852888318642 0 0.9998759401324742 -0.006728224197041444 -0.014242027361134064 53.75318145751953 0.014242173871492084 -0.000026139252809699934 0.9998985747565369 0 0 0 0 1 -0.005705797598535067 -0.9999836619522943 0.00034598012128023766 0 0.999858063728344 -0.005710565034428017 -0.015850610221521812 53.75318145751953 0.015852326995479036 0.00025549064041447984 0.9998743113278594 0 0 0 0 1 -0.002807762175906392 -0.9999958755255791 0.0006044860575705538 0 0.9998435053103161 -0.0028178917153394156 -0.017464947038583974 53.75318145751953 0.01746657838111032 0.0005553540410134089 0.9998472934511278 0 0 0 0 1 0.00008993237026055922 -0.9999996274105528 0.000858539995808337 0 0.999817933112659 0.00007353398251597199 -0.0190812792832156 53.75318145751953 0.019081209041867258 0.0008600997087771858 0.9998175672041333 0 0 0 0 1 0.0029872542886608677 -0.9999949241610347 0.001108135362335198 0 0.9997813478960745 0.002963678215132437 -0.020699589622631073 53.75318145751953 0.02069620039821473 0.0011697280040805155 0.9997851264274106 0 0 0 0 1 0.005884171840853658 -0.9999817724308102 0.0013532656363617421 0 0.9997337505449779 0.005852507159807008 -0.02231986068989168 53.75318145751953 0.022311533856260723 0.0014842392258868006 0.9997499649866967 0 0 0 0 1 0.005663562746486495 -0.9999826325272179 0.0016305523456374704 0 0.9996978370964473 0.005622930911732826 -0.02392942023215592 53.75318145751953 0.02391983615541386 0.0017655854261781744 0.9997123206935088 0 0 0 0 1 0.005442642585066215 -0.9999833680961779 0.0019081857130539628 0 0.999659290332989 0.005392145217822941 -0.025538755273023652 53.75318145751953 0.02552804130043485 0.0020465338927536207 0.9996720116150042 0 0 0 0 1 0.005215853171292251 -0.9999855871361623 0.0012729476189467983 0 0.9996425041087662 0.005180673493578536 -0.026230223051064316 53.75318145751953 0.02622325027244285 0.001409305537487868 0.9996551180297387 0 0 0 0 1 0.004988371117525814 -0.9999873545327734 0.0006379091934539238 0 0.9996251914102962 0.0049693906270277255 -0.026921772874844176 53.75318145751953 0.026918262416480765 0.0007719658938502294 0.9996373398473749 0 0 0 0 1 0.004763424491275314 -0.9999886431024484 0.00015314450724152225 0 0.9996114704651967 0.004757421818506802 -0.027464068381216823 53.75318145751953 0.02746302790158573 0.0002839080220345142 0.9996227795997407 0 0 0 0 1 0.004538063077360821 -0.999989648003329 -0.0003314659622826333 0 0.9995974078864853 0.004545566322037509 -0.02800642735929441 53.75318145751953 0.028007644137366672 -0.000204237582772316 0.9996076881241382 0 0 0 0 1 0.004079469906989708 -0.9999913487886044 -0.0008125719817991608 0 0.9995840090844442 0.004101005699921445 -0.028548039073095693 53.75318145751953 0.028551124460303702 -0.0006957730929342352 0.9995920914012152 0 0 0 0 1 0.003620465353786795 -0.9999926096900894 -0.001293366083857033 0 0.9995701144036694 0.0036565597405322503 -0.029089791369126934 53.75318145751953 0.029094305656905482 -0.0011874915026059852 0.999575965718601 0 0 0 0 1 0.003161049874416011 -0.9999934305922179 -0.0017738478228339905 0 0.9995557237573075 0.0032122286954698875 -0.029631683901073708 53.75318145751953 0.029637187243336797 -0.0016793925137139256 0.9995593112832716 0 0 0 0 1 0.0027012239259611714 -0.999993811379739 -0.0022540167534416174 0 0.999540837058866 0.0027680128163233286 -0.030173716322492376 53.75318145751953 0.030179768736081927 -0.0021714758280142587 0.9995421283026369 0 0 0 0 1</float_array>
				<technique_common>
					<accessor source="#anim_Waist_transform_output_array" count="16" stride="16">
						<param name="TRANSFORM" type="float4x4"/>
					</accessor>
				</technique_common>
			</source>
			<source id="anim_Waist_transform_interpolation">
				<Name_array id="anim_Waist_transform_interpolation_array" count="16">LINEAR LINEAR LINEAR LINEAR LINEAR LINEAR LINEAR LINEAR LINEAR LINEAR LINEAR LINEAR LINEAR LINEAR LINEAR LINEAR</Name_array>
				<technique_common>
					<accessor source="#anim_Waist_transform_interpolation_array" count="16" stride="1">
						<param name="INTERPOLATION" type="Name"/>
					</accessor>
				</technique_common>
			</source>
			<sampler id="anim_Waist_transform_sampler">
				<input semantic="INPUT" source="#anim_Waist_transform_input"/>
				<input semantic="OUTPUT" source="#anim_Waist_transform_output"/>
				<input semantic="INTERPOLATION" source="#anim_Waist_transform_interpolation"/>
			</sampler>
			<channel source="#anim_Waist_transform_sampler" target="Waist_bone_id/transform"/>
		</animation>
		<animation id="anim_RThigh_transform" name="anim_RThigh_transform">
			<source id="anim_RThigh_transform_input">
				<float_array id="anim_RThigh_transform_input_array" count="16">0 0.03333333333333333 0.06666666666666667 0.1 0.13333333333333333 0.16666666666666666 0.2 0.23333333333333334 0.26666666666666666 0.3 0.3333333333333333 0.36666666666666664 0.4 0.43333333333333335 0.4666666666666667 0.5</float_array>
				<technique_common>
					<accessor source="#anim_RThigh_transform_input_array" count="16" stride="1">
						<param name="TIME" type="float"/>
					</accessor>
				</technique_common>
			</source>
			<source id="anim_RThigh_transform_output">
				<float_array id="anim_RThigh_transform_output_array" count="256">0.04755359179077012 0.07954071204106346 -0.9956967063497788 10.510002136230469 0.01378593883772719 0.9966772194994795 0.08027744403721906 -7.199999809265137 0.9987735498090442 -0.017544094698416765 0.0462990382519306 0 0 0 0 1 0.044552231834554035 0.07616835447104217 -0.9960991318215943 10.510002136230469 0.013648695888803901 0.9969497152584977 0.07684385692126124 -7.199999809265137 0.9989138159716758 -0.017019019453951872 0.04337673613506343 0 0 0 0 1 0.04154762015419333 0.07279634756818903 -0.9964810520226938 10.510002136230469 0.013501465825517832 0.9972102623800297 0.07341255358938732 -7.199999809265137 0.9990452971112399 -0.016504071760741697 0.04044885579631452 0 0 0 0 1 0.03853981813180507 0.06942476373508416 -0.9968424572612743 10.510002136230469 0.01334424702005272 0.9974588841745657 0.06998360845725266 -7.199999809265137 0.9991679606001364 -0.015999267531920776 0.037515462793451304 0 0 0 0 1 0.035526423160785914 0.0659072307440357 -0.9971931157970624 10.510002136230469 0.013030281274950171 0.997707635919518 0.06640545909623805 -7.199999809265137 0.9992837860324246 -0.015352855224318899 0.03458619390977624 0 0 0 0 1 0.03251018154925134 0.0623898561991915 -0.9975222272907401 10.510002136230469 0.012705980380078315 0.9979433411570502 0.0628302944675932 -7.199999809265137 0.9993906374177296 -0.01471712212858254 0.031650594908099294 0 0 0 0 1 0.029491157355458264 0.05887271937508248 -0.9978297823532922 10.510002136230469 0.01237134507155133 0.9981660262354402 0.059258196820956996 -7.199999809265137 0.9994884799030734 -0.014092089367211093 0.02870873661989204 0 0 0 0 1 0.026443805528066022 0.05902654216472587 -0.9979061040344777 10.510002136230469 0.012474225515570227 0.9981579831994395 0.05937199906533434 -7.199999809265137 0.9995724680316984 -0.014018127382186378 0.02565878519564546 0 0 0 0 1 0.0253648390476664 0.059181981220928076 -0.9979249060118962 10.510002136230469 0.012522145803983049 0.998148953366797 0.05951355103866328 -7.199999809265137 0.9995998303343943 -0.014005712817757827 0.02457680214992841 0 0 0 0 1 0.024285845275966 0.059337372110749964 -0.997942520383926 10.510002136230469 0.012570216690834305 0.9981399043669003 0.05965501624155968 -7.199999809265137 0.9996260237566735 -0.013993126220601042 0.023494787655925276 0 0 0 0 1 0.023206825496430272 0.05949271464685206 -0.9979589471287517 10.510002136230469 0.012618438065743486 0.9981308362254219 0.05979639451272257 -7.199999809265137 0.9996510482519184 -0.013980367659271194 0.022412743003755176 0 0 0 0 1 0.022127780992561408 0.059648008641984565 -0.9979741862259721 10.510002136230469 0.012666809818158181 0.9981217489680501 0.05993768569098579 -7.199999809265137 0.9996749037749102 -0.013967437202526675 0.021330669483577425 0 0 0 0 1 0.021048713047898238 0.05980325390898739 -0.997988237656599 10.510002136230469 0.01271533183735405 0.9981126426204892 0.06007888961531821 -7.199999809265137 0.9996975902818278 -0.013954334919329 0.020248568385591748 0 0 0 0 1 0.019969622946012233 0.059958450260790525 -0.9980011014030589 10.510002136230469 0.012764004012435156 0.998103517208459 0.060220006124823894 -7.199999809265137 0.9997191077302489 -0.01394106087884264 0.019166441000033507 0 0 0 0 1 0.01889474609028119 0.05999821916193614 -0.9980196402213637 10.510002136230469 0.012928287909568376 0.9980997257564103 0.06024779511904009 -7.199999809265137 0.99973788962003 -0.014041052039459188 0.018083166639559778 0 0 0 0 1 0.017819848021032314 0.06003809584680641 -0.9980370133735507 10.510002136230469 0.013092565225166962 0.9980959173371419 0.06027540568717916 -7.199999809265137 0.9997554889833474 -0.014140963263475644 0.016999864871491632 0 0 0 0 1</float_array>
				<technique_common>
					<accessor source="#anim_RThigh_transform_output_array" count="16" stride="16">
						<param name="TRANSFORM" type="float4x4"/>
					</accessor>
				</technique_common>
			</source>
			<source id="anim_RThigh_transform_interpolation">
				<Name_array id="anim_RThigh_transform_interpolation_array" count="16">LINEAR LINEAR LINEAR LINEAR LINEAR LINEAR LINEAR LINEAR LINEAR LINEAR LINEAR LINEAR LINEAR LINEAR LINEAR LINEAR</Name_array>
				<technique_common>
					<accessor source="#anim_RThigh_transform_interpolation_array" count="16" stride="1">
						<param name="INTERPOLATION" type="Name"/>
					</accessor>
				</technique_common>
			</source>
			<sampler id="anim_RThigh_transform_sampler">
				<input semantic="INPUT" source="#anim_RThigh_transform_input"/>
				<input semantic="OUTPUT" source="#anim_RThigh_transform_output"/>
				<input semantic="INTERPOLATION" source="#anim_RThigh_transform_interpolation"/>
			</sampler>
			<channel source="#anim_RThigh_transform_sampler" target="RThigh_bone_id/transform"/>
		</animation>
		<animation id="anim_RLeg_transform" name="anim_RLeg_transform">
			<source id="anim_RLeg_transform_input">
				<float_array id="anim_RLeg_transform_input_array" count="16">0 0.03333333333333333 0.06666666666666667 0.1 0.13333333333333333 0.16666666666666666 0.2 0.23333333333333334 0.26666666666666666 0.3 0.3333333333333333 0.36666666666666664 0.4 0.43333333333333335 0.4666666666666667 0.5</float_array>
				<technique_common>
					<accessor source="#anim_RLeg_transform_input_array" count="16" stride="1">
						<param name="TIME" type="float"/>
					</accessor>
				</technique_common>
			</source>
			<source id="anim_RLeg_transform_output">
				<float_array id="anim_RLeg_transform_output_array" count="256">-0.0611731736271417 0 0.9981271676637118 33.89999771118164 0 1 0 0 -0.9981271676637118 0 -0.0611731736271417 0 0 0 0 1 -0.06133744674220787 0 0.9981170861312548 33.89999771118164 0 1 0 0 -0.9981170861312548 0 -0.06133744674220787 0 0 0 0 1 -0.06150171819580863 0 0.9981069775625072 33.89999771118164 0 1 0 0 -0.9981069775625072 0 -0.06150171819580863 0 0 0 0 1 -0.06166598798349465 0 0.998096841957743 33.89999771118164 0 1 0 0 -0.998096841957743 0 -0.06166598798349465 0 0 0 0 1 -0.06183025610081572 0 0.9980866793172363 33.89999771118164 0 1 0 0 -0.9980866793172363 0 -0.06183025610081572 0 0 0 0 1 -0.06199452254332227 0 0.9980764896412626 33.89999771118164 0 1 0 0 -0.9980764896412626 0 -0.06199452254332227 0 0 0 0 1 -0.06215878730656543 0 0.9980662729300982 33.89999771118164 0 1 0 0 -0.9980662729300982 0 -0.06215878730656543 0 0 0 0 1 -0.06232305038609498 0 0.9980560291840194 33.89999771118164 0 1 0 0 -0.9980560291840194 0 -0.06232305038609498 0 0 0 0 1 -0.06248731177746181 0 0.998045758403304 33.89999771118164 0 1 0 0 -0.998045758403304 0 -0.06248731177746181 0 0 0 0 1 -0.06265157147621658 0 0.9980354605882302 33.89999771118164 0 1 0 0 -0.9980354605882302 0 -0.06265157147621658 0 0 0 0 1 -0.06281582947790976 0 0.9980251357390766 33.89999771118164 0 1 0 0 -0.9980251357390766 0 -0.06281582947790976 0 0 0 0 1 -0.06298008577809222 0 0.9980147838561232 33.89999771118164 0 1 0 0 -0.9980147838561232 0 -0.06298008577809222 0 0 0 0 1 -0.0631443403723142 0 0.9980044049396503 33.89999771118164 0 1 0 0 -0.9980044049396503 0 -0.0631443403723142 0 0 0 0 1 -0.06330859325612748 0 0.997993998989939 33.89999771118164 0 1 0 0 -0.997993998989939 0 -0.06330859325612748 0 0 0 0 1 -0.06314340049050715 0 0.9980044644060945 33.89999771118164 0 1 0 0 -0.9980044644060945 0 -0.06314340049050715 0 0 0 0 1 -0.06297820599487292 0 0.9980149024787494 33.89999771118164 0 1 0 0 -0.9980149024787494 0 -0.06297820599487292 0 0 0 0 1</float_array>
				<technique_common>
					<accessor source="#anim_RLeg_transform_output_array" count="16" stride="16">
						<param name="TRANSFORM" type="float4x4"/>
					</accessor>
				</technique_common>
			</source>
			<source id="anim_RLeg_transform_interpolation">
				<Name_array id="anim_RLeg_transform_interpolation_array" count="16">LINEAR LINEAR LINEAR LINEAR LINEAR LINEAR LINEAR LINEAR LINEAR LINEAR LINEAR LINEAR LINEAR LINEAR LINEAR LINEAR</Name_array>
				<technique_common>
					<accessor source="#anim_RLeg_transform_interpolation_array" count="16" stride="1">
						<param name="INTERPOLATION" type="Name"/>
					</accessor>
				</technique_common>
			</source>
			<sampler id="anim_RLeg_transform_sampler">
				<input semantic="INPUT" source="#anim_RLeg_transform_input"/>
				<input semantic="OUTPUT" source="#anim_RLeg_transform_output"/>
				<input semantic="INTERPOLATION" source="#anim_RLeg_transform_interpolation"/>
			</sampler>
			<channel source="#anim_RLeg_transform_sampler" target="RLeg_bone_id/transform"/>
		</animation>
		<animation id="anim_RFoot_transform" name="anim_RFoot_transform">
			<source id="anim_RFoot_transform_input">
				<float_array id="anim_RFoot_transform_input_array" count="16">0 0.03333333333333333 0.06666666666666667 0.1 0.13333333333333333 0.16666666666666666 0.2 0.23333333333333334 0.26666666666666666 0.3 0.3333333333333333 0.36666666666666664 0.4 0.43333333333333335 0.4666666666666667 0.5</float_array>
				<technique_common>
					<accessor source="#anim_RFoot_transform_input_array" count="16" stride="1">
						<param name="TIME" type="float"/>
					</accessor>
				</technique_common>
			</source>
			<source id="anim_RFoot_transform_output">
				<float_array id="anim_RFoot_transform_output_array" count="256">-0.10649736430110401 -0.06004651215876725 -0.9924982255774996 33.900001525878906 0.06817954118390711 0.9953845034558203 -0.06753695613485912 0 0.9919727121049601 -0.07486058146699763 -0.1019118824355294 0 0 0 0 1 -0.10265172207664452 -0.05950234510331589 -0.9929360980858262 33.900001525878906 0.06757482329229275 0.9954861108062184 -0.0666411768272812 0 0.9924194008642289 -0.07393831293122295 -0.09816750312180611 0 0 0 0 1 -0.09880515655526367 -0.05895390839509495 -0.9933589370026489 33.900001525878906 0.0669658967477415 0.9955867161667274 -0.06574693350357075 0 0.9928510007603663 -0.07301730806661447 -0.09442120001273269 0 0 0 0 1 -0.09495773022449239 -0.05840120638206997 -0.9937667375011762 33.900001525878906 0.06635276700763419 0.9956863147563698 -0.06485424363378099 0 0.9932675066572164 -0.07209758456424238 -0.09067303082482026 0 0 0 0 1 -0.0911095055840827 -0.05784424348739138 -0.9941594949944378 33.900001525878906 0.06573543960398746 0.995784901804699 -0.0639631246725522 0 0.9936689136590188 -0.0711791601044668 -0.08692305329731664 0 0 0 0 1 -0.0872605451450077 -0.05728302420935234 -0.9945372051353468 33.900001525878906 0.0651139201433933 0.9958824725518886 -0.06307359405882024 0 0.9940552171104763 -0.0702620523566441 -0.08317132519129622 0 0 0 0 1 -0.0834109114284507 -0.056717553121345465 -0.9948998638167575 33.900001525878906 0.0644882143069575 0.9959790222488208 -0.06218566921552504 0 0.9944264125968171 -0.06934627897883297 -0.07941790428873574 0 0 0 0 1 -0.07956066696480368 -0.05614783487181825 -0.9952474671715186 33.900001525878906 0.0638583278502368 0.9960745461571765 -0.06129936754931969 0 0.9947824959438558 -0.06843185761750112 -0.07566284839160353 0 0 0 0 1 -0.0784128390984471 -0.05546048038806335 -0.9953770952657323 33.900001525878906 0.0631175339543215 0.9961720289973286 -0.06047698364560411 0 0.9949209031737379 -0.06756791959555092 -0.07461214827012452 0 0 0 0 1 -0.07726576781586192 -0.05477186334678727 -0.9955049191788791 33.900001525878906 0.062375504077247956 0.996268318971169 -0.05965511801572651 0 0.9950574343297652 -0.0667044196427935 -0.07356101403041926 0 0 0 0 1 -0.07619903695364849 -0.05490568912270045 -0.9955797668038951 33.900001525878906 0.062455770310270504 0.9962592018021532 -0.05972335874251615 0 0.9951346559749025 -0.06673056366087372 -0.07248481462495993 0 0 0 0 1 -0.07513223582554707 -0.05503958092900544 -0.9956534495852529 33.900001525878906 0.0625361339510566 0.996250070087708 -0.05979155292089523 0 0.995210720948237 -0.06675659054652335 -0.0714085326014613 0 0 0 0 1 -0.07406536569178312 -0.0551735386559673 -0.9957259674414045 33.900001525878906 0.06261659497234152 0.9962409238221095 -0.05985970043476242 0 0.9952856291733605 -0.0667825002096226 -0.07033216921679286 0 0 0 0 1 -0.07299816718165997 -0.055151066449620624 -0.9958060189904399 33.900001525878906 0.06285358106562479 0.9962306596987278 -0.059782104541948905 0 0.9953495340509009 -0.06695395840207735 -0.06925657022223608 0 0 0 0 1 -0.07193089545157227 -0.05512876848457772 -0.9958849156227386 33.900001525878906 0.06309055383702072 0.9962203494512772 -0.059704249059116414 0 0.995412240378866 -0.06712551098165914 -0.06818091726706377 0 0 0 0 1 -0.07086355178503778 -0.055106644899744636 -0.9959626572900729 33.900001525878906 0.06332751300135372 0.9962099930462721 -0.0596261339666585 0 0.9954737480845354 -0.06729715776048778 -0.0671052116596571 0 0 0 0 1</float_array>
				<technique_common>
					<accessor source="#anim_RFoot_transform_output_array" count="16" stride="16">
						<param name="TRANSFORM" type="float4x4"/>
					</accessor>
				</technique_common>
			</source>
			<source id="anim_RFoot_transform_interpolation">
				<Name_array id="anim_RFoot_transform_interpolation_array" count="16">LINEAR LINEAR LINEAR LINEAR LINEAR LINEAR LINEAR LINEAR LINEAR LINEAR LINEAR LINEAR LINEAR LINEAR LINEAR LINEAR</Name_array>
				<technique_common>
					<accessor source="#anim_RFoot_transform_interpolation_array" count="16" stride="1">
						<param name="INTERPOLATION" type="Name"/>
					</accessor>
				</technique_common>
			</source>
			<sampler id="anim_RFoot_transform_sampler">
				<input semantic="INPUT" source="#anim_RFoot_transform_input"/>
				<input semantic="OUTPUT" source="#anim_RFoot_transform_output"/>
				<input semantic="INTERPOLATION" source="#anim_RFoot_transform_interpolation"/>
			</sampler>
			<channel source="#anim_RFoot_transform_sampler" target="RFoot_bone_id/transform"/>
		</animation>
		<animation id="anim_LThigh_transform" name="anim_LThigh_transform">
			<source id="anim_LThigh_transform_input">
				<float_array id="anim_LThigh_transform_input_array" count="16">0 0.03333333333333333 0.06666666666666667 0.1 0.13333333333333333 0.16666666666666666 0.2 0.23333333333333334 0.26666666666666666 0.3 0.3333333333333333 0.36666666666666664 0.4 0.43333333333333335 0.4666666666666667 0.5</float_array>
				<technique_common>
					<accessor source="#anim_LThigh_transform_input_array" count="16" stride="1">
						<param name="TIME" type="float"/>
					</accessor>
				</technique_common>
			</source>
			<source id="anim_LThigh_transform_output">
				<float_array id="anim_LThigh_transform_output_array" count="256">0.05689632783504983 -0.05381490671962695 -0.9969286652983976 10.510002136230469 -0.017148532410402467 0.9983462312796293 -0.05487012234294968 7.199995994567871 0.9982328063708666 0.020217771996902605 0.055879387795727986 0 0 0 0 1 0.054387602059321805 -0.05718849581690334 -0.9968808678515386 10.510002136230469 -0.017858129269353613 0.9981431498509585 -0.05823520949224745 7.199995994567871 0.9983601934979358 0.02096970080394379 0.053265332881313854 0 0 0 0 1 0.051877721558148515 -0.06056114285311468 -0.9968154543255536 10.510002136230469 -0.018575871757989547 0.9979283193156101 -0.061595507111740194 7.199995994567871 0.9984806653082301 0.021712150613109386 0.0506452714612895 0 0 0 0 1 0.04936672994346547 -0.06393278599778925 -0.9967324238978333 10.510002136230469 -0.01930175385655236 0.9977017672450409 -0.06495095021770941 7.199995994567871 0.9985941959939234 0.022445099925889927 0.048019258809011256 0 0 0 0 1 0.04685584259816211 -0.06736659236680725 -0.9966274490737755 10.510002136230469 -0.020099132224136694 0.9974577122041266 -0.06836766229985053 7.199995994567871 0.9986994317101884 0.02323477130066398 0.045382711513889507 0 0 0 0 1 0.044344048065121267 -0.07079936404113774 -0.9965044181801549 10.510002136230469 -0.020904758674187802 0.9972014571082057 -0.07177914046605206 7.199995994567871 0.9987975753204313 0.02401466203471778 0.042739905725049265 0 0 0 0 1 0.04183139108461653 -0.07423103645833347 -0.9963633312934834 10.510002136230469 -0.021718625826894416 0.9969330315798713 -0.0751853166326953 7.199995994567871 0.9988886004015249 0.02478474876388422 0.04009089942360888 0 0 0 0 1 0.03933505267404169 -0.07342412500097958 -0.9965247871974742 10.510002136230469 -0.021698740782907608 0.9969986786884412 -0.0743155390341658 7.199995994567871 0.9989904495437215 0.02454653868354888 0.03762378448655179 0 0 0 0 1 0.036838272081143764 -0.07261718825067787 -0.9966793294137496 10.510002136230469 -0.021676780449948915 0.9970635619852373 -0.0734463787441943 7.199995994567871 0.9990861118539286 0.024310436686257538 0.035155991932003916 0 0 0 0 1 0.034341066538865817 -0.07181023216742868 -0.9968269567507859 10.510002136230469 -0.021652747005344707 0.9971276826355503 -0.07257784144613197 7.199995994567871 0.9991755850180166 0.024076442384981328 0.03268753930761603 0 0 0 0 1 0.03184345328475757 -0.07100326270799598 -0.9969676680653796 10.510002136230469 -0.021626642640572867 0.9971910418087834 -0.07170993281554655 7.199995994567871 0.9992588667662643 0.023844555377120196 0.030218444166916103 0 0 0 0 1 0.029345449560857162 -0.07019628582586526 -0.997101462262655 10.510002136230469 -0.021598469561242242 0.9972536406784408 -0.07084265852018432 7.199995994567871 0.9993359548733766 0.023614775244511173 0.027748724069188158 0 0 0 0 1 0.026847072613566447 -0.06938930747120171 -0.9972283382960742 10.510002136230469 -0.02156822998707211 0.9973154804221162 -0.06997602421993189 7.199995994567871 0.9994068471585068 0.023387101553436682 0.025278396579343942 0 0 0 0 1 0.025912916694186605 -0.06834706068466233 -0.9973250222691533 10.510002136230469 -0.021254155996309188 0.997396846647068 -0.0689042172248535 7.199995994567871 0.9994382330095665 0.02298281084315688 0.024392802308528805 0 0 0 0 1 0.024965883613200957 -0.06765880094730517 -0.9973961055216654 10.510002136230469 -0.020584699882496442 0.9974607610999561 -0.068178443782796 7.199995994567871 0.9994763502885697 0.02223323458854468 0.0235097531584465 0 0 0 0 1 0.02401900849930283 -0.06696998417446466 -0.9974658432499747 10.510002136230469 -0.019914726525755735 0.9975236542373094 -0.06745341284508383 7.199995994567871 0.9995131269263627 0.021484423583538637 0.022625840209112846 0 0 0 0 1</float_array>
				<technique_common>
					<accessor source="#anim_LThigh_transform_output_array" count="16" stride="16">
						<param name="TRANSFORM" type="float4x4"/>
					</accessor>
				</technique_common>
			</source>
			<source id="anim_LThigh_transform_interpolation">
				<Name_array id="anim_LThigh_transform_interpolation_array" count="16">LINEAR LINEAR LINEAR LINEAR LINEAR LINEAR LINEAR LINEAR LINEAR LINEAR LINEAR LINEAR LINEAR LINEAR LINEAR LINEAR</Name_array>
				<technique_common>
					<accessor source="#anim_LThigh_transform_interpolation_array" count="16" stride="1">
						<param name="INTERPOLATION" type="Name"/>
					</accessor>
				</technique_common>
			</source>
			<sampler id="anim_LThigh_transform_sampler">
				<input semantic="INPUT" source="#anim_LThigh_transform_input"/>
				<input semantic="OUTPUT" source="#anim_LThigh_transform_output"/>
				<input semantic="INTERPOLATION" source="#anim_LThigh_transform_interpolation"/>
			</sampler>
			<channel source="#anim_LThigh_transform_sampler" target="LThigh_bone_id/transform"/>
		</animation>
		<animation id="anim_LLeg_transform" name="anim_LLeg_transform">
			<source id="anim_LLeg_transform_input">
				<float_array id="anim_LLeg_transform_input_array" count="16">0 0.03333333333333333 0.06666666666666667 0.1 0.13333333333333333 0.16666666666666666 0.2 0.23333333333333334 0.26666666666666666 0.3 0.3333333333333333 0.36666666666666664 0.4 0.43333333333333335 0.4666666666666667 0.5</float_array>
				<technique_common>
					<accessor source="#anim_LLeg_transform_input_array" count="16" stride="1">
						<param name="TIME" type="float"/>
					</accessor>
				</technique_common>
			</source>
			<source id="anim_LLeg_transform_output">
				<float_array id="anim_LLeg_transform_output_array" count="256">-0.10295988112639076 -4.068276934450877e-7 0.9946855095346842 33.89999771118164 -7.172716209561249e-7 0.9999999999996867 3.347565531257731e-7 0 -0.9946855095345087 -6.789931928494019e-7 -0.10295988112665033 0 0 0 0 1 -0.10343200653806095 -4.069605272932956e-7 0.9946365265881528 33.89999771118164 -7.173011673783111e-7 0.9999999999996868 3.3456304827313556e-7 0 -0.9946365265879774 -6.7884941424241e-7 -0.10343200653832052 0 0 0 0 1 -0.10390410864632105 -4.070933089338146e-7 0.9945873195482878 33.89999771118164 -7.173306502351907e-7 0.9999999999996868 3.343695426032102e-7 0 -0.9945873195481124 -6.78705599364584e-7 -0.10390410864658062 0 0 0 0 1 -0.10437618734480525 -4.0722603835513434e-7 0.9945378884261757 33.89999771118164 -7.173600695283639e-7 0.9999999999996868 3.3417603613892104e-7 0 -0.9945378884260003 -6.785617482358132e-7 -0.1043761873450646 0 0 0 0 1 -0.10484824252715352 -4.073587155457523e-7 0.9944882332329537 33.89999771118164 -7.173894252594397e-7 0.9999999999996869 3.3398252890319053e-7 0 -0.9944882332327782 -6.784178608759903e-7 -0.10484824252741287 0 0 0 0 1 -0.10532027408701095 -4.074913404941733e-7 0.9944383539798085 33.89999771118164 -7.174187174300354e-7 0.9999999999996869 3.337890209189401e-7 0 -0.9944383539796333 -6.782739373050119e-7 -0.1053202740872703 0 0 0 0 1 -0.10579228191802792 -4.0762391318891074e-7 0.9943882506779785 33.89999771118164 -7.174479460417773e-7 0.999999999999687 3.3359551220908997e-7 0 -0.9943882506778033 -6.781299775427786e-7 -0.10579228191828727 0 0 0 0 1 -0.1062642659138604 -4.0775643361848543e-7 0.994337923338752 33.89999771118164 -7.174771110963007e-7 0.999999999999687 3.3340200279655975e-7 0 -0.9943379233385768 -6.779859816091955e-7 -0.10626426591411975 0 0 0 0 1 -0.10673622596817012 -4.078889017714265e-7 0.994287371973468 33.89999771118164 -7.175062125952495e-7 0.999999999999687 3.332084927042674e-7 0 -0.9942873719732928 -6.77841949524171e-7 -0.10673622596842924 0 0 0 0 1 -0.10720816197462257 -4.080213176362703e-7 0.9942365965935154 33.89999771118164 -7.17535250540276e-7 0.9999999999996871 3.330149819551298e-7 0 -0.9942365965933402 -6.776978813076177e-7 -0.1072081619748817 0 0 0 0 1 -0.1076800738268906 -4.0815368120156125e-7 0.9941855972103343 33.89999771118164 -7.175642249330417e-7 0.9999999999996871 3.3282147057206315e-7 0 -0.9941855972101591 -6.775537769794525e-7 -0.10768007382714972 0 0 0 0 1 -0.10815196141865124 -4.0828599245585215e-7 0.9941343738354147 33.89999771118164 -7.175931357752165e-7 0.9999999999996873 3.326279585779821e-7 0 -0.9941343738352395 -6.77409636559596e-7 -0.10815196141891037 0 0 0 0 1 -0.10862382464358733 -4.08418251387703e-7 0.9940829264802974 33.89999771118164 -7.17621983068479e-7 0.9999999999996873 3.324344459958002e-7 0 -0.9940829264801222 -6.772654600679722e-7 -0.10862382464384646 0 0 0 0 1 -0.10909566339538745 -4.0855045798568224e-7 0.9940312551565738 33.89999771118164 -7.176507668145173e-7 0.9999999999996873 3.3224093284843045e-7 0 -0.9940312551563986 -6.771212475245104e-7 -0.10909566339564658 0 0 0 0 1 -0.10956747756774599 -4.086826122383656e-7 0.9939793598758853 33.89999771118164 -7.17679487015027e-7 0.9999999999996874 3.3204741915878365e-7 0 -0.9939793598757103 -6.769769989491424e-7 -0.10956747756800489 0 0 0 0 1 -0.11003926705436129 -4.08814714134337e-7 0.993927240649924 33.89999771118164 -7.177081436717135e-7 0.9999999999996874 3.3185390494977066e-7 0 -0.993927240649749 -6.768327143618049e-7 -0.1100392670546202 0 0 0 0 1</float_array>
				<technique_common>
					<accessor source="#anim_LLeg_transform_output_array" count="16" stride="16">
						<param name="TRANSFORM" type="float4x4"/>
					</accessor>
				</technique_common>
			</source>
			<source id="anim_LLeg_transform_interpolation">
				<Name_array id="anim_LLeg_transform_interpolation_array" count="16">LINEAR LINEAR LINEAR LINEAR LINEAR LINEAR LINEAR LINEAR LINEAR LINEAR LINEAR LINEAR LINEAR LINEAR LINEAR LINEAR</Name_array>
				<technique_common>
					<accessor source="#anim_LLeg_transform_interpolation_array" count="16" stride="1">
						<param name="INTERPOLATION" type="Name"/>
					</accessor>
				</technique_common>
			</source>
			<sampler id="anim_LLeg_transform_sampler">
				<input semantic="INPUT" source="#anim_LLeg_transform_input"/>
				<input semantic="OUTPUT" source="#anim_LLeg_transform_output"/>
				<input semantic="INTERPOLATION" source="#anim_LLeg_transform_interpolation"/>
			</sampler>
			<channel source="#anim_LLeg_transform_sampler" target="LLeg_bone_id/transform"/>
		</animation>
		<animation id="anim_LFoot_transform" name="anim_LFoot_transform">
			<source id="anim_LFoot_transform_input">
				<float_array id="anim_LFoot_transform_input_array" count="16">0 0.03333333333333333 0.06666666666666667 0.1 0.13333333333333333 0.16666666666666666 0.2 0.23333333333333334 0.26666666666666666 0.3 0.3333333333333333 0.36666666666666664 0.4 0.43333333333333335 0.4666666666666667 0.5</float_array>
				<technique_common>
					<accessor source="#anim_LFoot_transform_input_array" count="16" stride="1">
						<param name="TIME" type="float"/>
					</accessor>
				</technique_common>
			</source>
			<source id="anim_LFoot_transform_output">
				<float_array id="anim_LFoot_transform_output_array" count="256">-0.15261169914740957 0.045132376901662795 -0.9872551533613522 33.900001525878906 -0.060664020525089145 0.9966451532038003 0.054939195562957135 0.000003999999989900971 0.9864226000538877 0.06827523087166781 -0.14936179883875367 0 0 0 0 1 -0.15086209424978692 0.04628903788346625 -0.9874704823387845 33.900001525878906 -0.0597493454840214 0.9966499179492807 0.055847620951327816 0.000003999999989900971 0.9867475078422037 0.06742600406011885 -0.14759095413908452 0 0 0 0 1 -0.14911154118976455 0.04744474263455206 -0.987681499614301 33.900001525878906 -0.05883573899750637 0.9966528294639067 0.05675820062516271 0.000003999999989900971 0.9870684394208086 0.06657427369434855 -0.14582099293805229 0 0 0 0 1 -0.14736004792770863 0.04859948491420413 -0.9878882053860233 33.900001525878906 -0.05792320637742328 0.9966538847330642 0.057670930367479 0.000003999999989900971 0.9873853950903376 0.06572004346138417 -0.1440519262270794 0 0 0 0 1 -0.14560762242564973 0.04975325848577668 -0.9880905998751317 33.900001525878906 -0.057011752930237664 0.9966530807504866 0.05858580594636829 0.000003999999989900971 0.9876983751729935 0.06486331706451248 -0.14228376499101203 0 0 0 0 1 -0.14385427264724227 0.050906057116728944 -0.9882886833258601 33.900001525878906 -0.05610138395697117 0.996650414518278 0.0595028231150181 0.000003999999989900971 0.9880073800125414 0.06400409822326196 -0.14051652020805827 0 0 0 0 1 -0.1421000065577207 0.0520578745786597 -0.9884824560054914 33.900001525878906 -0.05519210475317098 0.9966458830469337 0.06042197761173317 0.000003999999989900971 0.988312409974301 0.06314239067338455 -0.13875020284972184 0 0 0 0 1 -0.13913052669499626 0.053256738188568985 -0.9888409459458519 33.900001525878906 -0.054331577025312765 0.996638246271445 0.061321169321213405 0.000003999999989900971 0.9887824716688275 0.06225693460565366 -0.13576928155511436 0 0 0 0 1 -0.1361593528856635 0.05445392936641214 -0.9891892640937402 33.900001525878906 -0.053472916704120625 0.9966287356062432 0.06222387438158465 0.000003999999989900971 0.9892427800094937 0.061367197593330314 -0.13278851327818075 0 0 0 0 1 -0.13314806086832265 0.05454425499705196 -0.9895941178755165 33.900001525878906 -0.05288721792231998 0.9966708166555526 0.06205018458949855 0.000003999999989900971 0.989684058711386 0.06059874152134167 -0.12982009266129468 0 0 0 0 1 -0.13013561455291445 0.05463230296323979 -0.9899899157556444 33.900001525878906 -0.05230041295896323 0.9967124705322185 0.06187825053993939 0.000003999999989900971 0.9901158460651245 0.05982944558070364 -0.12685049787938718 0 0 0 0 1 -0.1271220430260549 0.054718070086429586 -0.9903766551079939 33.900001525878906 -0.05171250728154201 0.9967536957118964 0.06170807625694339 0.000003999999989900971 0.9905381379672052 0.059059316713731595 -0.12387975759489045 0 0 0 0 1 -0.12410737538416816 0.054801553209173764 -0.9907543333950729 33.900001525878906 -0.051123506372359004 0.9967944906728858 0.0615396657480155 0.000003999999989900971 0.9909509304054608 0.058288361874770496 -0.12090790048010636 0 0 0 0 1 -0.12109164073320189 0.05488274919516115 -0.9911229481680477 33.900001525878906 -0.050533415728477214 0.9968348538961472 0.0613730230040825 0.000003999999989900971 0.9913542194590965 0.05751658803013081 -0.1179349552169251 0 0 0 0 1 -0.11807486818834478 0.05496165492925483 -0.9914824970667627 33.900001525878906 -0.04994224086166941 0.9968747838653196 0.0612081519994467 0.000003999999989900971 0.9917480012987273 0.056744002158024505 -0.11496095049654964 0 0 0 0 1 -0.11505708687374328 0.05503826731752985 -0.9918329778197598 33.900001525878906 -0.04934998729836716 0.9969142790667377 0.06104505669173949 0.000003999999989900971 0.9921322721864151 0.05597061124850088 -0.11198591501921262 0 0 0 0 1</float_array>
				<technique_common>
					<accessor source="#anim_LFoot_transform_output_array" count="16" stride="16">
						<param name="TRANSFORM" type="float4x4"/>
					</accessor>
				</technique_common>
			</source>
			<source id="anim_LFoot_transform_interpolation">
				<Name_array id="anim_LFoot_transform_interpolation_array" count="16">LINEAR LINEAR LINEAR LINEAR LINEAR LINEAR LINEAR LINEAR LINEAR LINEAR LINEAR LINEAR LINEAR LINEAR LINEAR LINEAR</Name_array>
				<technique_common>
					<accessor source="#anim_LFoot_transform_interpolation_array" count="16" stride="1">
						<param name="INTERPOLATION" type="Name"/>
					</accessor>
				</technique_common>
			</source>
			<sampler id="anim_LFoot_transform_sampler">
				<input semantic="INPUT" source="#anim_LFoot_transform_input"/>
				<input semantic="OUTPUT" source="#anim_LFoot_transform_output"/>
				<input semantic="INTERPOLATION" source="#anim_LFoot_transform_interpolation"/>
			</sampler>
			<channel source="#anim_LFoot_transform_sampler" target="LFoot_bone_id/transform"/>
		</animation>
		<animation id="anim_Spine2_transform" name="anim_Spine2_transform">
			<source id="anim_Spine2_transform_input">
				<float_array id="anim_Spine2_transform_input_array" count="16">0 0.03333333333333333 0.06666666666666667 0.1 0.13333333333333333 0.16666666666666666 0.2 0.23333333333333334 0.26666666666666666 0.3 0.3333333333333333 0.36666666666666664 0.4 0.43333333333333335 0.4666666666666667 0.5</float_array>
				<technique_common>
					<accessor source="#anim_Spine2_transform_input_array" count="16" stride="1">
						<param name="TIME" type="float"/>
					</accessor>
				</technique_common>
			</source>
			<source id="anim_Spine2_transform_output">
				<float_array id="anim_Spine2_transform_output_array" count="256">0.9996565724880623 0.0248311615675527 0.008375589330039492 12.099998474121094 -0.024957387350240928 0.9995711399136766 0.01531878155478207 0 -0.007991614234271562 -0.015522553490943133 0.9998475806016892 0 0 0 0 1 0.9997219344318321 0.022612794741793195 0.00668695220867093 12.099998474121094 -0.022712431264289845 0.9996261817585684 0.01521979661002067 0 -0.00634029036720151 -0.015367441451035937 0.9998618116826488 0 0 0 0 1 0.9998860452529661 0.015081013396130676 0.0006778962525917431 12.099998474121094 -0.015089560763489484 0.9997711709417474 0.015162813384472056 0 -0.0004490705384564169 -0.01517131466660333 0.9998848081388868 0 0 0 0 1 0.9999573093038904 0.007547404303818683 -0.005330690199076008 12.099998474121094 -0.007466375150029717 0.9998587110558567 0.015060251254207692 0 0.005443602836618823 -0.015019807388763176 0.9998723781434117 0 0 0 0 1 0.9999357198772688 0.000012669204919863057 -0.011338251762044518 12.099998474121094 0.00015641962091616439 0.9998887959331021 0.014912119244210344 0 0.01133717982703156 -0.014912934216397614 0.9998245209768697 0 0 0 0 1 0.9998212788894235 -0.007522490062077125 -0.01734423313910191 12.099998474121094 0.007778117636568607 0.9998614247418834 0.014718430594420047 0 0.017231110409641925 -0.014850705585830277 0.9997412392102537 0 0 0 0 1 0.9996139968801597 -0.015057371625503519 -0.0233480791716026 12.099998474121094 0.01539801309203903 0.9997766019868114 0.014479202758520453 0 0.023124844520327835 -0.014833127769841166 0.9996225387047224 0 0 0 0 1 0.9996268041041377 -0.01305942979863562 -0.023993828579083817 12.099998474121094 0.01340671856955095 0.9998068529562816 0.014370688183003293 0 0.02380152124854227 -0.014687003608318504 0.9996088132420924 0 0 0 0 1 0.9996351947409878 -0.011061536207721963 -0.024639802188180557 12.099998474121094 0.01141530357708122 0.9998331082034627 0.014263470280612506 0 0.024477914114370287 -0.014539537713699684 0.9995946346212956 0 0 0 0 1 0.9996391687495052 -0.009063699704250389 -0.02528599710253422 12.099998474121094 0.009423776950894133 0.9998553676497023 0.014157549578177806 0 0.025154020151419022 -0.01439073068853481 0.999580002871442 0 0 0 0 1 0.9996387261080673 -0.00706592913943596 -0.025932410424737286 12.099998474121094 0.0074321475277285675 0.9998736312340638 0.01405292659674086 0 0.025829836394499896 -0.014240583141282464 0.9995649180236518 0 0 0 0 1 0.9996338668146332 -0.005068233364181771 -0.026579039256346377 12.099998474121094 0.00544042414475883 0.9998878989133273 0.013949601851552963 0 0.02650535987964193 -0.014089095686307174 0.9995493801110542 0 0 0 0 1 0.9996245908867447 -0.0030706212290396735 -0.02722588069789493 12.099998474121094 0.0034486156395554203 0.9998981706619888 0.013847575852072592 0 0.02718058764410458 -0.01393626894387666 0.9995333891687886 0 0 0 0 1 0.9996478661642207 -0.001079598894661625 -0.026513734922616248 12.099998474121094 0.0014502621811525083 0.9999014356904099 0.013964800172683468 0 0.026496045231808343 -0.013998334561072145 0.9995509022639069 0 0 0 0 1 0.9996666740010178 0.0009113889218759271 -0.02580136163026889 12.099998474121094 -0.0005481822121830332 0.9999007130119479 0.014080611295691955 0 0.025811632803933112 -0.014061774014369722 0.9995679197150955 0 0 0 0 1 0.9996831390974719 0.0019594190105581676 -0.025095459377460945 12.099998474121094 -0.0016037941888908116 0.9998981274510086 0.014183178916104842 0 0.02512069362944442 -0.014138436869315651 0.999584441332731 0 0 0 0 1</float_array>
				<technique_common>
					<accessor source="#anim_Spine2_transform_output_array" count="16" stride="16">
						<param name="TRANSFORM" type="float4x4"/>
					</accessor>
				</technique_common>
			</source>
			<source id="anim_Spine2_transform_interpolation">
				<Name_array id="anim_Spine2_transform_interpolation_array" count="16">LINEAR LINEAR LINEAR LINEAR LINEAR LINEAR LINEAR LINEAR LINEAR LINEAR LINEAR LINEAR LINEAR LINEAR LINEAR LINEAR</Name_array>
				<technique_common>
					<accessor source="#anim_Spine2_transform_interpolation_array" count="16" stride="1">
						<param name="INTERPOLATION" type="Name"/>
					</accessor>
				</technique_common>
			</source>
			<sampler id="anim_Spine2_transform_sampler">
				<input semantic="INPUT" source="#anim_Spine2_transform_input"/>
				<input semantic="OUTPUT" source="#anim_Spine2_transform_output"/>
				<input semantic="INTERPOLATION" source="#anim_Spine2_transform_interpolation"/>
			</sampler>
			<channel source="#anim_Spine2_transform_sampler" target="Spine2_bone_id/transform"/>
		</animation>
		<animation id="anim_Spine3_transform" name="anim_Spine3_transform">
			<source id="anim_Spine3_transform_input">
				<float_array id="anim_Spine3_transform_input_array" count="16">0 0.03333333333333333 0.06666666666666667 0.1 0.13333333333333333 0.16666666666666666 0.2 0.23333333333333334 0.26666666666666666 0.3 0.3333333333333333 0.36666666666666664 0.4 0.43333333333333335 0.4666666666666667 0.5</float_array>
				<technique_common>
					<accessor source="#anim_Spine3_transform_input_array" count="16" stride="1">
						<param name="TIME" type="float"/>
					</accessor>
				</technique_common>
			</source>
			<source id="anim_Spine3_transform_output">
				<float_array id="anim_Spine3_transform_output_array" count="256">0.9852879808000302 0.05313927677990617 0.16243094580254008 12.100000381469727 -0.05352367278726301 0.9985645544505026 -0.0020117272258099827 0 -0.16230468675414517 -0.006711770137422043 0.9867178628155372 0 0 0 0 1 0.985835045969165 0.05047086304750898 0.1599435966902516 12.100000381469727 -0.05080794540187928 0.9987064716525106 -0.0019839766714063183 0 -0.15983683812880534 -0.006170531794960904 0.987124161245359 0 0 0 0 1 0.9863685574405667 0.047800591718625336 0.1574553026225687 12.100000381469727 -0.04809165009131699 0.9988409980882929 -0.001963091815807634 0 -0.15736664857621432 -0.005635953276265442 0.9875241637279353 0 0 0 0 1 0.9876013169395816 0.04126431897366968 0.15146251932027027 12.100000381469727 -0.04150504941606621 0.9991370557469773 -0.0015731199036986584 0 -0.15139672933116455 -0.004732844060473038 0.9884617496569735 0 0 0 0 1 0.9887543497012691 0.034720116021022346 0.145462536380703 12.100000381469727 -0.03491362704360766 0.9993895849785431 -0.0012231447482518804 0 -0.14541621159100682 -0.0038692350538647646 0.9893630043753493 0 0 0 0 1 0.9898275627662266 0.028168509941133103 0.13945583901711636 12.100000381469727 -0.028317913768133147 0.9995985503380144 -0.0009131932768161697 0 -0.1394255778115772 -0.0030451945482239057 0.9902278702612198 0 0 0 0 1 0.9908208696118869 0.021610028460174742 0.13344291293094127 12.100000381469727 -0.021718440778726235 0.9997639198876704 -0.0006432891889961202 0 -0.13342531121074927 -0.0022607876481783072 0.9910562926330293 0 0 0 0 1 0.991734190159491 0.015045199907518882 0.1274242442725918 12.100000381469727 -0.015115739616561444 0.999885665200026 -0.00041345295477587904 0 -0.12741589572946804 -0.0015160762659879134 0.991848219753513 0 0 0 0 1 0.9925674507805456 0.00847455317316171 0.1214003196022334 12.100000381469727 -0.00851034213207354 0.9999637613605274 -0.0002237018129033779 0 -0.12139781599272785 -0.0008111191165895879 0.9926036028334647 0 0 0 0 1 0.9933205843027566 0.0018986176651026134 0.1153716258505185 12.100000381469727 -0.0019027804421000163 0.9999981869699669 -0.00007404976953509012 0 -0.11537155727049639 -0.00014597171289956707 0.9933223960352648 0 0 0 0 1 0.9932189180179721 0.001430140574457098 0.11625031436149386 12.100000381469727 -0.001558791384641228 0.9999982691940076 0.0010157649375526201 0 -0.11624866046810184 -0.0011900869407251372 0.9932194282395232 0 0 0 0 1 0.9931163118012252 0.0009607485989908156 0.1171284260820627 12.100000381469727 -0.0012157712592544391 0.9999970436146182 0.0021058637820693077 0 -0.11712605659961775 -0.00223376904647673 0.9931145438172125 0 0 0 0 1 0.9930127658092142 0.0004904427031157482 0.11800595919651626 12.100000381469727 -0.0008737207995534148 0.999994510301491 0.0031962444909098896 0 -0.11800374380459007 -0.003277015843142141 0.9930077429785049 0 0 0 0 1 0.9929082802006053 0.00001922385314183546 0.11888291189031235 12.100000381469727 -0.0005326407371121967 0.9999906693270508 0.004286904790410295 0 -0.11888172022191414 -0.004319825144649322 0.9928990259375815 0 0 0 0 1 0.992802855136033 -0.0004529069827250344 0.11975928235007989 12.100000381469727 -0.00019253180146356703 0.9999855207664549 0.005377842406352238 0 -0.11975998398983938 -0.005362194765870981 0.9927883929126319 0 0 0 0 1 0.9927093843015988 -0.0009256074469725747 0.12052892420657675 12.100000381469727 0.00014695129277392434 0.9999790646524829 0.0064690541861198835 0 -0.12053238869639217 -0.006404178916887944 0.9926887376048659 0 0 0 0 1</float_array>
				<technique_common>
					<accessor source="#anim_Spine3_transform_output_array" count="16" stride="16">
						<param name="TRANSFORM" type="float4x4"/>
					</accessor>
				</technique_common>
			</source>
			<source id="anim_Spine3_transform_interpolation">
				<Name_array id="anim_Spine3_transform_interpolation_array" count="16">LINEAR LINEAR LINEAR LINEAR LINEAR LINEAR LINEAR LINEAR LINEAR LINEAR LINEAR LINEAR LINEAR LINEAR LINEAR LINEAR</Name_array>
				<technique_common>
					<accessor source="#anim_Spine3_transform_interpolation_array" count="16" stride="1">
						<param name="INTERPOLATION" type="Name"/>
					</accessor>
				</technique_common>
			</source>
			<sampler id="anim_Spine3_transform_sampler">
				<input semantic="INPUT" source="#anim_Spine3_transform_input"/>
				<input semantic="OUTPUT" source="#anim_Spine3_transform_output"/>
				<input semantic="INTERPOLATION" source="#anim_Spine3_transform_interpolation"/>
			</sampler>
			<channel source="#anim_Spine3_transform_sampler" target="Spine3_bone_id/transform"/>
		</animation>
		<animation id="anim_RShoulder_transform" name="anim_RShoulder_transform">
			<source id="anim_RShoulder_transform_input">
				<float_array id="anim_RShoulder_transform_input_array" count="16">0 0.03333333333333333 0.06666666666666667 0.1 0.13333333333333333 0.16666666666666666 0.2 0.23333333333333334 0.26666666666666666 0.3 0.3333333333333333 0.36666666666666664 0.4 0.43333333333333335 0.4666666666666667 0.5</float_array>
				<technique_common>
					<accessor source="#anim_RShoulder_transform_input_array" count="16" stride="1">
						<param name="TIME" type="float"/>
					</accessor>
				</technique_common>
			</source>
			<source id="anim_RShoulder_transform_output">
				<float_array id="anim_RShoulder_transform_output_array" count="256">-0.5722283419695946 -0.8107406178993543 -0.12350860348535371 14.140089988708496 0.8128421571345611 -0.5407148539952598 -0.21659887869912564 3.930000066757202 0.10882257225209489 -0.22433701691218605 0.9684165171099568 -0.20193499326705933 0 0 0 1 -0.5755455755127092 -0.8084645619259662 -0.12301358712597917 14.140089988708496 0.8134433480321405 -0.5505335711622423 -0.18767713383790607 3.930000066757202 0.08400720236984073 -0.20808132817051317 0.9744972810720345 -0.20193499326705933 0 0 0 1 -0.5857572241941997 -0.8012860121342981 -0.1217752070916726 14.140089988708496 0.8083853311122625 -0.5667942818179785 -0.15892576424532312 3.930000066757202 0.05832350081077044 -0.19153320562334836 0.9797517034416527 -0.20193499326705933 0 0 0 1 -0.5962073515340705 -0.793676682530566 -0.12088886459887446 14.140089988708496 0.8021560280644225 -0.5827433208784591 -0.1302149323674327 3.930000066757202 0.03290137712375149 -0.174606831420826 0.9840883871911811 -0.20193499326705933 0 0 0 1 -0.6068721238497361 -0.7856318290012699 -0.12036965794680461 14.140089988708496 0.7947613901512721 -0.5983605525919673 -0.10158238935294778 3.930000066757202 0.00778190329731944 -0.15731267705418972 0.9875181839435239 -0.20193499326705933 0 0 0 1 -0.6184488293830332 -0.7758485701907669 -0.12482003672367296 14.140089988708496 0.7857279472180165 -0.6130190602852998 -0.08269960512293903 3.930000066757202 -0.012354691227149342 -0.1492200652052897 0.9887268246309548 -0.20193499326705933 0 0 0 1 -0.620825038284849 -0.7744007586064414 -0.12198252706180598 14.140089988708496 0.7838718046370341 -0.6153886701651261 -0.08271504414238892 3.930000066757202 -0.011012072179915032 -0.14697023406855525 0.9890796148764458 -0.20193499326705933 0 0 0 1 -0.6213116455772809 -0.7744275062840068 -0.11930581117777064 14.140089988708496 0.7835060294897905 -0.6158672198346213 -0.08261881920190842 3.930000066757202 -0.009494252113504749 -0.1448088569249433 0.9894140963888156 -0.20193499326705933 0 0 0 1 -0.6226717304926503 -0.772936340319486 -0.12185782641590659 14.140089988708496 0.7824785517396007 -0.615606299231132 -0.09357457140937492 3.930000066757202 -0.00268925878011924 -0.1536173758416377 0.9881267478045226 -0.20193499326705933 0 0 0 1 -0.6240927231240652 -0.7713863590338447 -0.1243839139121225 14.140089988708496 0.7813395768227885 -0.6152921741907962 -0.10451797008146263 3.930000066757202 0.0040912875693971396 -0.16241497922319947 0.9867140598420356 -0.20193499326705933 0 0 0 1 -0.6256701522478181 -0.770180177047361 -0.12393286678475475 14.140089988708496 0.779965294525706 -0.6148122462086814 -0.11687617912673394 3.930000066757202 0.013820272125430647 -0.1697892717315532 0.9853834803178141 -0.20193499326705933 0 0 0 1 -0.6264019744770519 -0.7696035349112714 -0.12381827580501706 14.140089988708496 0.7793392602283028 -0.6150937108409138 -0.11954097352271045 3.930000066757202 0.01583931305498104 -0.17137714531416068 0.9850781645260012 -0.20193499326705933 0 0 0 1 -0.627135578770486 -0.7690247065654384 -0.12370111774817791 14.140089988708496 0.7787054245628887 -0.6153730463219971 -0.12220423731080837 3.930000066757202 0.01785574407686532 -0.17296535650911843 0.9847660421902935 -0.20193499326705933 0 0 0 1 -0.6274092037805263 -0.7688123384879028 -0.12363364914233267 14.140089988708496 0.7784347895275453 -0.6151855141103553 -0.12484414957051379 3.930000066757202 0.01992409256887502 -0.17456910212732704 0.9844433244823014 -0.20193499326705933 0 0 0 1 -0.6274384760219096 -0.7687881523956316 -0.12363549467452764 14.140089988708496 0.7784115821627303 -0.615216751166471 -0.1248349223538345 3.930000066757202 0.019908981948334153 -0.17456553445707415 0.9844442628292863 -0.20193499326705933 0 0 0 1 -0.6274677473635464 -0.7687639651095763 -0.12363734050649375 14.140089988708496 0.7783883734291017 -0.6152479873011023 -0.12482569540098679 3.930000066757202 0.019893871642141493 -0.17456196627829504 0.9844452010143284 -0.20193499326705933 0 0 0 1</float_array>
				<technique_common>
					<accessor source="#anim_RShoulder_transform_output_array" count="16" stride="16">
						<param name="TRANSFORM" type="float4x4"/>
					</accessor>
				</technique_common>
			</source>
			<source id="anim_RShoulder_transform_interpolation">
				<Name_array id="anim_RShoulder_transform_interpolation_array" count="16">LINEAR LINEAR LINEAR LINEAR LINEAR LINEAR LINEAR LINEAR LINEAR LINEAR LINEAR LINEAR LINEAR LINEAR LINEAR LINEAR</Name_array>
				<technique_common>
					<accessor source="#anim_RShoulder_transform_interpolation_array" count="16" stride="1">
						<param name="INTERPOLATION" type="Name"/>
					</accessor>
				</technique_common>
			</source>
			<sampler id="anim_RShoulder_transform_sampler">
				<input semantic="INPUT" source="#anim_RShoulder_transform_input"/>
				<input semantic="OUTPUT" source="#anim_RShoulder_transform_output"/>
				<input semantic="INTERPOLATION" source="#anim_RShoulder_transform_interpolation"/>
			</sampler>
			<channel source="#anim_RShoulder_transform_sampler" target="RShoulder_bone_id/transform"/>
		</animation>
		<animation id="anim_RArm_transform" name="anim_RArm_transform">
			<source id="anim_RArm_transform_input">
				<float_array id="anim_RArm_transform_input_array" count="16">0 0.03333333333333333 0.06666666666666667 0.1 0.13333333333333333 0.16666666666666666 0.2 0.23333333333333334 0.26666666666666666 0.3 0.3333333333333333 0.36666666666666664 0.4 0.43333333333333335 0.4666666666666667 0.5</float_array>
				<technique_common>
					<accessor source="#anim_RArm_transform_input_array" count="16" stride="1">
						<param name="TIME" type="float"/>
					</accessor>
				</technique_common>
			</source>
			<source id="anim_RArm_transform_output">
				<float_array id="anim_RArm_transform_output_array" count="256">0.8630489738221097 -0.5005399624469044 -0.06786910032006473 8.161547660827637 0.4433773465925678 0.8150572678048774 -0.37295868233221546 0 0.24199792832406114 0.2917899864493297 0.9253624189985039 0 0 0 0 1 0.8301406329434237 -0.5514954202787636 -0.08197152522578803 8.161547660827637 0.5105922021819895 0.8110161359987698 -0.2855668577068624 0 0.22396904385927618 0.19520663042318775 0.9548467095987642 0 0 0 0 1 0.8076555986619299 -0.5757864728500496 -0.12713131649180265 8.161547660827637 0.553268743459686 0.8145590244456073 -0.17431951469861526 0 0.20392677965529654 0.07045234827257191 0.976447814868926 0 0 0 0 1 0.7843935216322494 -0.5945871387191346 -0.17661522496984955 8.161547660827637 0.5943380169163537 0.8019565172324312 -0.06023343022247129 0 0.1774517536382607 -0.0577224301136214 0.9824352376581797 0 0 0 0 1 0.7791686178456159 -0.5855975686224162 -0.22354362569321298 8.161547660827637 0.6076611369955671 0.7931781670167118 0.04020370571556475 0 0.15376673095896673 -0.16716423957151774 0.9738644204706675 0 0 0 0 1 0.7919916225725404 -0.5511500467850008 -0.2626459512419829 8.161547660827637 0.5949067882565908 0.7933654532050509 0.12906266286952212 0 0.13724133146083362 -0.2584664070815308 0.9562216967572018 0 0 0 0 1 0.8120816399290749 -0.49633012560760914 -0.30688730261195124 8.161547660827637 0.5665568906582152 0.7965723640891007 0.21091647260751392 0 0.139773744808528 -0.3451505109134796 0.9280810444559056 0 0 0 0 1 0.8299352909184139 -0.4375785581352402 -0.34602372512365664 8.161547660827637 0.5385641774108123 0.7901981931557933 0.29246442919291016 0 0.1454511591496707 -0.4290825340113529 0.8914775035346733 0 0 0 0 1 0.8429188189141439 -0.37718706667355884 -0.38368969422513943 8.161547660827637 0.511597710071533 0.7826897903175138 0.35449185488850077 0 0.1666002634150029 -0.49510262458092724 0.852711993209389 0 0 0 0 1 0.8514111533613944 -0.31786267465954304 -0.41720782350059266 8.161547660827637 0.4896336149910702 0.7668547475666276 0.41496110565365074 0 0.18803715325061848 -0.5575814883878458 0.8085449355506458 0 0 0 0 1 0.8593531349665016 -0.2710779893803039 -0.4336230080343729 8.161547660827637 0.4682612957152066 0.7579219617954494 0.4541868104241398 0 0.20553235355622682 -0.5933557309925215 0.7782579444759744 0 0 0 0 1 0.8644533900178595 -0.2479618421093546 -0.4373045407314747 8.161547660827637 0.454717372165948 0.7566158603576738 0.4698558835491068 0 0.21436522091310722 -0.605018482951515 0.7668117026688639 0 0 0 0 1 0.8649748415425902 -0.239378472935932 -0.44104021380508174 8.161547660827637 0.4534576472451947 0.7492849768840077 0.4826470610816815 0 0.21492948995711011 -0.6174706228726943 0.7566606532891633 0 0 0 0 1 0.8635507642637952 -0.23794751691017424 -0.44459088692380744 8.161547660827637 0.4551945158737696 0.7472006699175686 0.4842407578810165 0 0.2169747226242262 -0.6205418100910035 0.7535581143290284 0 0 0 0 1 0.8627881013514408 -0.23715206916514003 -0.4464925399791899 8.161547660827637 0.4564640334444447 0.745077400704564 0.48631291688681216 0 0.21734138662023114 -0.6233927839252097 0.7510953059445731 0 0 0 0 1 0.8620235591262126 -0.23634977743846153 -0.4483906401968788 8.161547660827637 0.45773471383875486 0.7429455699130578 0.4883756872465244 0 0.2177023547376792 -0.6262353094894534 0.748622082155154 0 0 0 0 1</float_array>
				<technique_common>
					<accessor source="#anim_RArm_transform_output_array" count="16" stride="16">
						<param name="TRANSFORM" type="float4x4"/>
					</accessor>
				</technique_common>
			</source>
			<source id="anim_RArm_transform_interpolation">
				<Name_array id="anim_RArm_transform_interpolation_array" count="16">LINEAR LINEAR LINEAR LINEAR LINEAR LINEAR LINEAR LINEAR LINEAR LINEAR LINEAR LINEAR LINEAR LINEAR LINEAR LINEAR</Name_array>
				<technique_common>
					<accessor source="#anim_RArm_transform_interpolation_array" count="16" stride="1">
						<param name="INTERPOLATION" type="Name"/>
					</accessor>
				</technique_common>
			</source>
			<sampler id="anim_RArm_transform_sampler">
				<input semantic="INPUT" source="#anim_RArm_transform_input"/>
				<input semantic="OUTPUT" source="#anim_RArm_transform_output"/>
				<input semantic="INTERPOLATION" source="#anim_RArm_transform_interpolation"/>
			</sampler>
			<channel source="#anim_RArm_transform_sampler" target="RArm_bone_id/transform"/>
		</animation>
		<animation id="anim_RForeArm_transform" name="anim_RForeArm_transform">
			<source id="anim_RForeArm_transform_input">
				<float_array id="anim_RForeArm_transform_input_array" count="16">0 0.03333333333333333 0.06666666666666667 0.1 0.13333333333333333 0.16666666666666666 0.2 0.23333333333333334 0.26666666666666666 0.3 0.3333333333333333 0.36666666666666664 0.4 0.43333333333333335 0.4666666666666667 0.5</float_array>
				<technique_common>
					<accessor source="#anim_RForeArm_transform_input_array" count="16" stride="1">
						<param name="TIME" type="float"/>
					</accessor>
				</technique_common>
			</source>
			<source id="anim_RForeArm_transform_output">
				<float_array id="anim_RForeArm_transform_output_array" count="256">0.08836063467147637 -1.748455136869522e-7 -0.9960885493973032 22.899999618530273 1.5449564548395417e-8 0.9999999999999847 -1.741616048724002e-7 0 0.9960885493973185 -1.0439790297160822e-13 0.0883606346714777 0 0 0 0 1 0.05311137487754225 -1.7401720372686135e-7 -0.9985885948971114 22.899999618530273 1.2313229579167337e-8 0.9999999999999849 -1.7360826276269321e-7 0 0.9985885948971265 -3.075277098677967e-9 0.05311137487754358 0 0 0 0 1 0.040944646841991617 -1.7371533985160113e-7 -0.9991614163361967 22.899999618530273 1.1237601932672656e-8 0.9999999999999849 -1.734006311456863e-7 0 0.9991614163362118 -4.128350658832981e-9 0.04094464684199295 0 0 0 0 1 0.060879702242962574 -1.7420566082703344e-7 -0.998145110620083 22.899999618530273 1.3001828078154351e-8 0.9999999999999848 -1.737363751622122e-7 0 0.9981451106200981 -2.400692336685555e-9 0.06087970224296391 0 0 0 0 1 0.12801318229446068 -1.7569466590640905e-7 -0.9917724664250438 22.899999618530273 1.9015529987293188e-8 0.9999999999999846 -1.7469775907800109e-7 0 0.9917724664250591 3.504537003408823e-9 0.12801318229446212 0 0 0 0 1 0.1945645205128348 -1.7692017782079169e-7 -0.980889722322331 22.899999618530273 2.509991469748057e-8 0.9999999999999843 -1.7538834492571782e-7 0 0.9808897223223465 9.50410087608608e-9 0.19456452051283624 0 0 0 0 1 0.2602310737067117 -1.778767742425198e-7 -0.9655463677511406 22.899999618530273 3.124128509510312e-8 0.999999999999984 -1.7580390413937252e-7 0 0.9655463677511565 1.5584729388566107e-8 0.26023107370671317 0 0 0 0 1 0.3428475973073123 -1.7870381898288545e-7 -0.9393910394615073 22.899999618530273 3.919548906240506e-8 0.9999999999999838 -1.7592858861767323e-7 0 0.9393910394615235 2.3496802692701015e-8 0.34284759730731373 0 0 0 0 1 0.4228894756185908 -1.7907076269932145e-7 -0.906181268516957 22.899999618530273 4.719070752378392e-8 0.9999999999999835 -1.7558772694663995e-7 0 0.9061812685169734 3.149086656740967e-8 0.42288947561859225 0 0 0 0 1 0.48651720968893464 -1.7902283294603858e-7 -0.8736709933816398 22.899999618530273 5.3791633543950386e-8 0.9999999999999832 -1.7495404866080262e-7 0 0.8736709933816564 3.812196566427153e-8 0.4865172096889361 0 0 0 0 1 0.507963647631885 -1.78932014031227e-7 -0.8613785072106677 22.899999618530273 5.607339689392953e-8 0.9999999999999831 -1.7466046058783057e-7 0 0.8613785072106843 4.0420745746535165e-8 0.5079636476318864 0 0 0 0 1 0.507436324789924 -1.7893472470802064e-7 -0.861689257379749 22.899999618530273 5.601692028896089e-8 0.9999999999999831 -1.746681918818528e-7 0 0.8616892573797656 4.036380690173337e-8 0.5074363247899254 0 0 0 0 1 0.5098757901289868 -1.7892197935439382e-7 -0.8602480332092073 22.899999618530273 5.627834996799746e-8 0.9999999999999831 -1.7463220536159966e-7 0 0.8602480332092242 4.0627393818483854e-8 0.5098757901289883 0 0 0 0 1 0.5123111621249135 -1.789087309226237e-7 -0.8587999028657308 22.899999618530273 5.653975365409208e-8 0.9999999999999831 -1.7459571609346036e-7 0 0.8587999028657477 4.089099926768552e-8 0.512311162124915 0 0 0 0 1 0.5147424212262499 -1.7889497931904088e-7 -0.8573448779750806 22.899999618530273 5.680113027116185e-8 0.9999999999999831 -1.7455872407885578e-7 0 0.8573448779750975 4.1154622177339204e-8 0.5147424212262514 0 0 0 0 1 0.516158566554386 -1.7888672621872883e-7 -0.8564930438552842 22.899999618530273 5.6953567432957674e-8 0.9999999999999831 -1.7453691604952497e-7 0 0.8564930438553011 4.1308390069874964e-8 0.5161585665543875 0 0 0 0 1</float_array>
				<technique_common>
					<accessor source="#anim_RForeArm_transform_output_array" count="16" stride="16">
						<param name="TRANSFORM" type="float4x4"/>
					</accessor>
				</technique_common>
			</source>
			<source id="anim_RForeArm_transform_interpolation">
				<Name_array id="anim_RForeArm_transform_interpolation_array" count="16">LINEAR LINEAR LINEAR LINEAR LINEAR LINEAR LINEAR LINEAR LINEAR LINEAR LINEAR LINEAR LINEAR LINEAR LINEAR LINEAR</Name_array>
				<technique_common>
					<accessor source="#anim_RForeArm_transform_interpolation_array" count="16" stride="1">
						<param name="INTERPOLATION" type="Name"/>
					</accessor>
				</technique_common>
			</source>
			<sampler id="anim_RForeArm_transform_sampler">
				<input semantic="INPUT" source="#anim_RForeArm_transform_input"/>
				<input semantic="OUTPUT" source="#anim_RForeArm_transform_output"/>
				<input semantic="INTERPOLATION" source="#anim_RForeArm_transform_interpolation"/>
			</sampler>
			<channel source="#anim_RForeArm_transform_sampler" target="RForeArm_bone_id/transform"/>
		</animation>
		<animation id="anim_RHand_transform" name="anim_RHand_transform">
			<source id="anim_RHand_transform_input">
				<float_array id="anim_RHand_transform_input_array" count="16">0 0.03333333333333333 0.06666666666666667 0.1 0.13333333333333333 0.16666666666666666 0.2 0.23333333333333334 0.26666666666666666 0.3 0.3333333333333333 0.36666666666666664 0.4 0.43333333333333335 0.4666666666666667 0.5</float_array>
				<technique_common>
					<accessor source="#anim_RHand_transform_input_array" count="16" stride="1">
						<param name="TIME" type="float"/>
					</accessor>
				</technique_common>
			</source>
			<source id="anim_RHand_transform_output">
				<float_array id="anim_RHand_transform_output_array" count="256">0.9093298454822913 0.12464398447107472 -0.3969673906636748 22.900001525878906 -0.41384986815673974 0.36951143427263966 -0.8319793185941738 0 0.04298277261649425 0.920828527510389 0.38759167197096434 0 0 0 0 1 0.9080984111861945 0.09797019072620353 -0.4071352568007105 22.900001525878906 -0.40393247806987953 0.46133449138900506 -0.7899424284181564 0 0.11043472624784054 0.8818006173642199 0.4585104605727607 0 0 0 0 1 0.8890109044767504 0.14927070891994176 -0.43287165208635253 22.900001525878906 -0.4145226913386194 0.6639447301652842 -0.6223731466340233 0 0.1945007714298786 0.7327316362381836 0.6521302010863292 0 0 0 0 1 0.8781640394773812 0.21565666738919564 -0.42698960359633387 22.900001525878906 -0.40186567027918996 0.8167842064860167 -0.4139656303197953 0 0.25948391630277556 0.535122193377918 0.8039355293396233 0 0 0 0 1 0.8523185797533538 0.33755443329746937 -0.3995122565935245 22.900001525878906 -0.40410677031236064 0.9099415175390053 -0.09329604946901633 0 0.3320402939327377 0.24096356409224295 0.911968093731916 0 0 0 0 1 0.8311237652012823 0.46163426472753205 -0.31004369457725606 22.900001525878906 -0.40752887274460375 0.8849814298078269 0.22522896522163158 0 0.378356319885312 -0.0608413882547498 0.9236583895997905 0 0 0 0 1 0.8143386954166906 0.5379436915551411 -0.21787398620089954 22.900001525878906 -0.4195731871819281 0.8050166978902398 0.4194120369229919 0 0.4010122563526472 -0.2501293681955833 0.8812629967387926 0 0 0 0 1 0.8001087463268978 0.5900575419397567 -0.10797264121624695 22.900001525878906 -0.44074120187502636 0.7003752614937437 0.561446066917676 0 0.4069068530031871 -0.40162991707239953 0.8204390426420844 0 0 0 0 1 0.7855137801698937 0.6185589615838314 0.018785957722084773 22.900001525878906 -0.4676923707015883 0.5735003480527439 0.672578023110263 0 0.4052554102670708 -0.5371053544954786 0.7397877334895155 0 0 0 0 1 0.8006221309722714 0.588408809967298 0.11304545877781738 22.900001525878906 -0.4595847376637511 0.48202553147188887 0.7459445394369371 0 0.38442954140383145 -0.6491736742676117 0.656344016757926 0 0 0 0 1 0.8269692556813485 0.5290717391576801 0.19027597058615708 22.900001525878906 -0.45022834003026674 0.4204288817441352 0.7877398029990401 0 0.33677335404011244 -0.7371042329413418 0.5858848502807777 0 0 0 0 1 0.8277183340409818 0.5227451458159166 0.20400949002023816 22.900001525878906 -0.45694661448061 0.41687909635620035 0.7857554393931655 0 0.3257025498935038 -0.7436056290448142 0.5839250957492199 0 0 0 0 1 0.8278541904630002 0.5184759161976124 0.21410316124685533 22.900001525878906 -0.46648405714716257 0.4243541114942666 0.7760903378379571 0 0.3115285922036263 -0.7423653496634646 0.5931640783616863 0 0 0 0 1 0.8267089074635432 0.5203244375763508 0.21404406551289576 22.900001525878906 -0.468358621447602 0.42564165021757594 0.7742540844682452 0 0.3117572517779443 -0.7403321317225889 0.5955801799111105 0 0 0 0 1 0.8255598992487722 0.5221721314098751 0.2139792464965359 22.900001525878906 -0.47023326105960656 0.4269197564734558 0.7724119378452751 0 0.31198002010642456 -0.7382924804652377 0.5979905353288475 0 0 0 0 1 0.8244071702149905 0.524018974095169 0.2139087012871571 22.900001525878906 -0.4721079528182081 0.4281884126957042 0.7705639260430857 0 0.312196890733896 -0.7362464247936149 0.6003951227272819 0 0 0 0 1</float_array>
				<technique_common>
					<accessor source="#anim_RHand_transform_output_array" count="16" stride="16">
						<param name="TRANSFORM" type="float4x4"/>
					</accessor>
				</technique_common>
			</source>
			<source id="anim_RHand_transform_interpolation">
				<Name_array id="anim_RHand_transform_interpolation_array" count="16">LINEAR LINEAR LINEAR LINEAR LINEAR LINEAR LINEAR LINEAR LINEAR LINEAR LINEAR LINEAR LINEAR LINEAR LINEAR LINEAR</Name_array>
				<technique_common>
					<accessor source="#anim_RHand_transform_interpolation_array" count="16" stride="1">
						<param name="INTERPOLATION" type="Name"/>
					</accessor>
				</technique_common>
			</source>
			<sampler id="anim_RHand_transform_sampler">
				<input semantic="INPUT" source="#anim_RHand_transform_input"/>
				<input semantic="OUTPUT" source="#anim_RHand_transform_output"/>
				<input semantic="INTERPOLATION" source="#anim_RHand_transform_interpolation"/>
			</sampler>
			<channel source="#anim_RHand_transform_sampler" target="RHand_bone_id/transform"/>
		</animation>
		<animation id="anim_LShoulder_transform" name="anim_LShoulder_transform">
			<source id="anim_LShoulder_transform_input">
				<float_array id="anim_LShoulder_transform_input_array" count="16">0 0.03333333333333333 0.06666666666666667 0.1 0.13333333333333333 0.16666666666666666 0.2 0.23333333333333334 0.26666666666666666 0.3 0.3333333333333333 0.36666666666666664 0.4 0.43333333333333335 0.4666666666666667 0.5</float_array>
				<technique_common>
					<accessor source="#anim_LShoulder_transform_input_array" count="16" stride="1">
						<param name="TIME" type="float"/>
					</accessor>
				</technique_common>
			</source>
			<source id="anim_LShoulder_transform_output">
				<float_array id="anim_LShoulder_transform_output_array" count="256">-0.6100154754166605 0.7824979473038257 -0.12481218777621488 14.140089988708496 -0.7923782525067117 -0.6032312313628267 0.09082283007536054 -3.9300010204315186 -0.00422193161904065 0.15430179510876432 0.9880147424606665 -0.2019360065460205 0 0 0 1 -0.6099554148921431 0.7825599326072408 -0.12471705465373775 14.140089988708496 -0.7924207665906406 -0.6033097113237644 0.08992619695248091 -3.9300010204315186 -0.004870371613537809 0.15367935482746484 0.9881087669786967 -0.2019360065460205 0 0 0 1 -0.6098944470489929 0.7826226128273395 -0.12462186545751663 14.140089988708496 -0.792463442116861 -0.6033866540535284 0.0890294255759517 -3.9300010204315186 -0.005518728757551487 0.1530568247462225 0.9882019793703637 -0.2019360065460205 0 0 0 1 -0.6098325719060482 0.7826859877831133 -0.12452661872237256 14.140089988708496 -0.7925062790405034 -0.6034620592420736 0.08813251804352397 -3.9300010204315186 -0.006167002823946888 0.15243420739220137 0.9882943794704495 -0.2019360065460205 0 0 0 1 -0.6097821642851378 0.7827468805246262 -0.12439064735220345 14.140089988708496 -0.7925393879830708 -0.6035607024482368 0.08715386942420174 -3.9300010204315186 -0.006857887076442332 0.15172936264664733 0.9883982850529887 -0.2019360065460205 0 0 0 1 -0.6097306834321243 0.782808586231124 -0.12425462166142609 14.140089988708496 -0.7925727166889809 -0.6036574786163627 0.0861750385598112 -3.9300010204315186 -0.007548671515148098 0.15102438820722128 0.9885012148323293 -0.2019360065460205 0 0 0 1 -0.6095398586629879 0.7828464172592959 -0.12495058097259831 14.140089988708496 -0.7927035810092398 -0.6036840961553998 0.08477349057439122 -3.9300010204315186 -0.009066055163808227 0.15072159444924615 0.9885346769893526 -0.2019360065460205 0 0 0 1 -0.6093450919016625 0.7828867056844975 -0.12564618990574156 14.140089988708496 -0.7928345090758429 -0.6037073935891013 0.08337160274530836 -3.9300010204315186 -0.010583014401485395 0.15041871222799755 0.9885657341916363 -0.2019360065460205 0 0 0 1 -0.6091463840862736 0.7829294503411405 -0.12634143636645118 14.140089988708496 -0.7929654997887748 -0.6037273696445826 0.08196938017804126 -3.9300010204315186 -0.012099541287038162 0.15011575177360154 0.9885943870820275 -0.2019360065460205 0 0 0 1 -0.6092716318459539 0.7829016679770129 -0.12590892306179524 14.140089988708496 -0.7928234481612395 -0.6044009933413907 0.07829699415471764 -3.9300010204315186 -0.01480063084777887 0.14752768393339855 0.9889471794791445 -0.2019360065460205 0 0 0 1 -0.6093813136929747 0.7828856727366564 -0.12547684226779776 14.140089988708496 -0.7926841467824515 -0.605048444771539 0.07462052612599085 -3.9300010204315186 -0.01750022747286513 0.14493585789312272 0.989286277644233 -0.2019360065460205 0 0 0 1 -0.6094754394231299 0.7828814810880784 -0.12504509310373144 14.140089988708496 -0.7925476117098778 -0.6056696971380111 0.07094012363761475 -3.9300010204315186 -0.02019831460674413 0.14234045292216796 0.9896116528967103 -0.2019360065460205 0 0 0 1 -0.6092231603004985 0.7830722065593543 -0.1250802153329533 14.140089988708496 -0.7926552188266922 -0.6059791373620589 0.06698499196644432 -3.9300010204315186 -0.02334191552299939 0.1399542939541325 0.9898827963872882 -0.2019360065460205 0 0 0 1 -0.6089521970757803 0.7832775259494472 -0.12511410399748676 14.140089988708496 -0.7927646783543777 -0.6062604212453608 0.06302750498852648 -3.9300010204315186 -0.026483701219072682 0.13756678005213158 0.9901383714389759 -0.2019360065460205 0 0 0 1 -0.608475726848154 0.7835226438966858 -0.1258950210999581 14.140089988708496 -0.7930482944279627 -0.6061383551591026 0.060586278231280766 -3.9300010204315186 -0.028839080108615738 0.13670611144409714 0.9901917726139331 -0.2019360065460205 0 0 0 1 -0.6081977917016521 0.783783701435872 -0.12561272042559488 14.140089988708496 -0.7932131726188696 -0.6061096014345322 0.058685720859343524 -3.9300010204315186 -0.03013816439569595 0.13533019032114546 0.9903420775845589 -0.2019360065460205 0 0 0 1</float_array>
				<technique_common>
					<accessor source="#anim_LShoulder_transform_output_array" count="16" stride="16">
						<param name="TRANSFORM" type="float4x4"/>
					</accessor>
				</technique_common>
			</source>
			<source id="anim_LShoulder_transform_interpolation">
				<Name_array id="anim_LShoulder_transform_interpolation_array" count="16">LINEAR LINEAR LINEAR LINEAR LINEAR LINEAR LINEAR LINEAR LINEAR LINEAR LINEAR LINEAR LINEAR LINEAR LINEAR LINEAR</Name_array>
				<technique_common>
					<accessor source="#anim_LShoulder_transform_interpolation_array" count="16" stride="1">
						<param name="INTERPOLATION" type="Name"/>
					</accessor>
				</technique_common>
			</source>
			<sampler id="anim_LShoulder_transform_sampler">
				<input semantic="INPUT" source="#anim_LShoulder_transform_input"/>
				<input semantic="OUTPUT" source="#anim_LShoulder_transform_output"/>
				<input semantic="INTERPOLATION" source="#anim_LShoulder_transform_interpolation"/>
			</sampler>
			<channel source="#anim_LShoulder_transform_sampler" target="LShoulder_bone_id/transform"/>
		</animation>
		<animation id="anim_LArm_transform" name="anim_LArm_transform">
			<source id="anim_LArm_transform_input">
				<float_array id="anim_LArm_transform_input_array" count="16">0 0.03333333333333333 0.06666666666666667 0.1 0.13333333333333333 0.16666666666666666 0.2 0.23333333333333334 0.26666666666666666 0.3 0.3333333333333333 0.36666666666666664 0.4 0.43333333333333335 0.4666666666666667 0.5</float_array>
				<technique_common>
					<accessor source="#anim_LArm_transform_input_array" count="16" stride="1">
						<param name="TIME" type="float"/>
					</accessor>
				</technique_common>
			</source>
			<source id="anim_LArm_transform_output">
				<float_array id="anim_LArm_transform_output_array" count="256">0.904034146162236 0.21857686169375443 -0.3673505384572429 8.161508560180664 -0.4063658630354078 0.7060862092850761 -0.5799215898868741 0 0.1326237080321807 0.6735476379511258 0.7271482183697171 0 0 0 0 1 0.9013320727243727 0.22374769842285497 -0.37086043483885056 8.161508560180664 -0.4117803280667483 0.7081646106299727 -0.5735327764553132 0 0.1343035967337708 0.6696565177027506 0.7304263769899046 0 0 0 0 1 0.8985912097246181 0.22893235752957325 -0.37433115483699597 8.161508560180664 -0.417173932484132 0.7101806151893917 -0.5671061663083395 0 0.13601377820416685 0.6657578159399774 0.7336666699894844 0 0 0 0 1 0.8930233863557829 0.23980254547194413 -0.38079386891969025 8.161508560180664 -0.427811725498527 0.7148905762392552 -0.553090039261492 0 0.13959354909028945 0.6568304219427431 0.741004344024308 0 0 0 0 1 0.8873013064815212 0.25073143221888006 -0.3870789847223106 8.161508560180664 -0.43835907859825407 0.7193157662274804 -0.5389120027120037 0 0.14330983820615842 0.6478569111725537 0.7481602187494887 0 0 0 0 1 0.8814257298626119 0.2617152001293088 -0.3931842275033902 8.161508560180664 -0.4488120166415106 0.7234548798206849 -0.5245767918825792 0 0.14716132798511397 0.6388412877115208 0.755132672224387 0 0 0 0 1 0.875397471933879 0.2727500055726324 -0.3991073797762986 8.161508560180664 -0.45916658924998754 0.7273067174750755 -0.5100891902718229 0 0.15114664881599882 0.6297875619411356 0.7619201515749097 0 0 0 0 1 0.869217403665623 0.283831980285836 -0.4048462821020027 8.161508560180664 -0.4694188722393443 0.730870185830704 -0.49545402798779875 0 0.15526437952838934 0.6206997490178429 0.7685211734356128 0 0 0 0 1 0.8674416977428729 0.29270603310740023 -0.4023283226414613 8.161508560180664 -0.4729288314510079 0.7362535232020251 -0.4840135018312912 0 0.15454197293727828 0.6101261572454788 0.7770861283316791 0 0 0 0 1 0.8657102768781137 0.30022701981072325 -0.40051148932732394 8.161508560180664 -0.47679604207585596 0.7381597325137554 -0.47726904734753084 0 0.15235239009749105 0.604139012041759 0.7821795211847401 0 0 0 0 1 0.863940098078692 0.3077297617853782 -0.3986350469330241 8.161508560180664 -0.4806758607554175 0.7399824210480848 -0.4705068898824474 0 0.15019395400221136 0.5981040129035495 0.7872187535430366 0 0 0 0 1 0.8621311939092979 0.3152135623177944 -0.39669914875060475 8.161508560180664 -0.48456782921519115 0.741721365958605 -0.4637277586797866 0 0.1480669557268123 0.592021811601082 0.7922034784134484 0 0 0 0 1 0.8602836009724248 0.32267772596495314 -0.3947039536969501 8.161508560180664 -0.48847148704907695 0.7433763532007398 -0.4569323843218298 0 0.14597168300044036 0.585893064191799 0.7971333546489969 0 0 0 0 1 0.8587528965863135 0.3290587920560282 -0.39276427278361764 8.161508560180664 -0.49248835855651235 0.7416329263685448 -0.4554512259422966 0 0.14141668674851843 0.5845518915345808 0.798937048091034 0 0 0 0 1 0.8593883753868221 0.33108150834134387 -0.38966223204773015 8.161508560180664 -0.4922204669511505 0.7420194272489349 -0.4551111748787915 0 0.13845805200272693 0.5829169790112338 0.80064796472359 0 0 0 0 1 0.8600122003037671 0.33309892084836973 -0.3865541673017182 8.161508560180664 -0.49195510725228825 0.7424044088001435 -0.45477012461517186 0 0.1354960803014715 0.5812751523364481 0.80234656445901 0 0 0 0 1</float_array>
				<technique_common>
					<accessor source="#anim_LArm_transform_output_array" count="16" stride="16">
						<param name="TRANSFORM" type="float4x4"/>
					</accessor>
				</technique_common>
			</source>
			<source id="anim_LArm_transform_interpolation">
				<Name_array id="anim_LArm_transform_interpolation_array" count="16">LINEAR LINEAR LINEAR LINEAR LINEAR LINEAR LINEAR LINEAR LINEAR LINEAR LINEAR LINEAR LINEAR LINEAR LINEAR LINEAR</Name_array>
				<technique_common>
					<accessor source="#anim_LArm_transform_interpolation_array" count="16" stride="1">
						<param name="INTERPOLATION" type="Name"/>
					</accessor>
				</technique_common>
			</source>
			<sampler id="anim_LArm_transform_sampler">
				<input semantic="INPUT" source="#anim_LArm_transform_input"/>
				<input semantic="OUTPUT" source="#anim_LArm_transform_output"/>
				<input semantic="INTERPOLATION" source="#anim_LArm_transform_interpolation"/>
			</sampler>
			<channel source="#anim_LArm_transform_sampler" target="LArm_bone_id/transform"/>
		</animation>
		<animation id="anim_LForeArm_transform" name="anim_LForeArm_transform">
			<source id="anim_LForeArm_transform_input">
				<float_array id="anim_LForeArm_transform_input_array" count="16">0 0.03333333333333333 0.06666666666666667 0.1 0.13333333333333333 0.16666666666666666 0.2 0.23333333333333334 0.26666666666666666 0.3 0.3333333333333333 0.36666666666666664 0.4 0.43333333333333335 0.4666666666666667 0.5</float_array>
				<technique_common>
					<accessor source="#anim_LForeArm_transform_input_array" count="16" stride="1">
						<param name="TIME" type="float"/>
					</accessor>
				</technique_common>
			</source>
			<source id="anim_LForeArm_transform_output">
				<float_array id="anim_LForeArm_transform_output_array" count="256">0.5292573354482812 -0.0013603426390177877 -0.8484602656236119 22.899999618530273 0.0011237116246708382 0.9999989615172756 -0.0009023505720414549 0 0.8484606120182422 -0.0004758490041536672 0.5292583144565186 0 0 0 0 1 0.5277472955902452 -0.0013676651140527686 -0.8494003305210789 22.899999618530273 0.0011289194710575197 0.9999989498705648 -0.0009087346122929761 0 0.8494006813854167 -0.00047932233780107066 0.5277482853710529 0 0 0 0 1 0.5262355859316781 -0.0013749796983315167 -0.8503377079313683 22.899999618530273 0.0011341146675935816 0.9999989381629568 -0.0009151267013730118 0 0.8503380632919266 -0.00048280823107412044 0.526236586539883 0 0 0 0 1 0.5247222112556325 -0.0013822863700899072 -0.8512723948886106 22.899999618530273 0.0011392972011704096 0.9999989263945314 -0.0009215268157342974 0 0.8512727547718691 -0.0004863066684467633 0.5247232227459895 0 0 0 0 1 0.5232071763504265 -0.001389585107593001 -0.8522043884354519 22.899999618530273 0.001144467058722314 0.9999989145653678 -0.0009279349318076384 0 0.852204752867857 -0.00048981763435497 0.5232081987776185 0 0 0 0 1 0.5216904860096336 -0.0013968758891351068 -0.8531336856230579 22.899999618530273 0.0011496242272265671 0.9999989026755461 -0.0009343510260019829 0 0.8531340546310225 -0.0004933411131967867 0.5216915194282705 0 0 0 0 1 0.5201721450320635 -0.0014041586930398499 -0.854060283511127 22.899999618530273 0.001154768693703438 0.9999988907251461 -0.0009407750747045032 0 0.8540606571210302 -0.0004968770893323908 0.520173189496683 0 0 0 0 1 0.5186521582217494 -0.0014114334976602382 -0.8549841791678973 22.899999618530273 0.001159900445216232 0.9999988787142481 -0.0009472070542806703 0 0.8549845574060847 -0.0005004255470841433 0.5186532137868165 0 0 0 0 1 0.5171305303879317 -0.0014187002813787284 -0.8559053696701571 22.899999618530273 0.0011650194688713267 0.9999988666429322 -0.0009536469410743336 0 0.8559057525629405 -0.0005039864707366441 0.5171315971078383 0 0 0 0 1 0.5156072663450425 -0.0014259590226072929 -0.8568238521032536 22.899999618530273 0.001170125751818209 0.999998854511279 -0.0009600947114077982 0 0.8568242396769115 -0.0005075598445367861 0.5156083442741077 0 0 0 0 1 0.5140823709126922 -0.001433209699787484 -0.8577396235611024 22.899999618530273 0.001175219281249511 0.999998842319369 -0.0009665503415819024 0 0.8577400158418788 -0.000511145652693808 0.5140834601051618 0 0 0 0 1 0.510398686635229 -0.0014394879822511757 -0.8599366886901514 22.899999618530273 0.001178818140205451 0.9999988305825084 -0.000974279943355207 0 0.8599370855294157 -0.0005164377645526151 0.5103997866606231 0 0 0 0 1 0.5067056127255912 -0.0014457420382452584 -0.8621179338479986 22.899999618530273 0.0011823828877367587 0.9999988187993346 -0.0009820237483612788 0 0.8621183352667371 -0.0005217565470683608 0.5067067236252304 0 0 0 0 1 0.5030032171240232 -0.001451971754379612 -0.8642833189070048 22.899999618530273 0.0011859134659375002 0.9999988069700978 -0.0009897816084411476 0 0.8642837249260998 -0.000527101892980884 0.503004338939 0 0 0 0 1 0.49929156794225715 -0.0014581770177330756 -0.8664328040313036 22.899999618530273 0.001189409817541689 0.9999987950950489 -0.000997553375196118 0 0.8664332146715339 -0.0005324736945472463 0.49929270071343557 0 0 0 0 1 0.4982800401206292 -0.0014656037416315491 -0.8670149096890183 22.899999618530273 0.0011947725479936496 0.99999878249638 -0.0010037551077599523 0 0.8670153252024688 -0.0005357344774317167 0.49828118452599335 0 0 0 0 1</float_array>
				<technique_common>
					<accessor source="#anim_LForeArm_transform_output_array" count="16" stride="16">
						<param name="TRANSFORM" type="float4x4"/>
					</accessor>
				</technique_common>
			</source>
			<source id="anim_LForeArm_transform_interpolation">
				<Name_array id="anim_LForeArm_transform_interpolation_array" count="16">LINEAR LINEAR LINEAR LINEAR LINEAR LINEAR LINEAR LINEAR LINEAR LINEAR LINEAR LINEAR LINEAR LINEAR LINEAR LINEAR</Name_array>
				<technique_common>
					<accessor source="#anim_LForeArm_transform_interpolation_array" count="16" stride="1">
						<param name="INTERPOLATION" type="Name"/>
					</accessor>
				</technique_common>
			</source>
			<sampler id="anim_LForeArm_transform_sampler">
				<input semantic="INPUT" source="#anim_LForeArm_transform_input"/>
				<input semantic="OUTPUT" source="#anim_LForeArm_transform_output"/>
				<input semantic="INTERPOLATION" source="#anim_LForeArm_transform_interpolation"/>
			</sampler>
			<channel source="#anim_LForeArm_transform_sampler" target="LForeArm_bone_id/transform"/>
		</animation>
		<animation id="anim_LHand_transform" name="anim_LHand_transform">
			<source id="anim_LHand_transform_input">
				<float_array id="anim_LHand_transform_input_array" count="16">0 0.03333333333333333 0.06666666666666667 0.1 0.13333333333333333 0.16666666666666666 0.2 0.23333333333333334 0.26666666666666666 0.3 0.3333333333333333 0.36666666666666664 0.4 0.43333333333333335 0.4666666666666667 0.5</float_array>
				<technique_common>
					<accessor source="#anim_LHand_transform_input_array" count="16" stride="1">
						<param name="TIME" type="float"/>
					</accessor>
				</technique_common>
			</source>
			<source id="anim_LHand_transform_output">
				<float_array id="anim_LHand_transform_output_array" count="256">0.7331674776191938 -0.676746356999961 0.06693144290085568 22.900001525878906 0.5336060675244507 0.5114792820981947 -0.6735380528859576 0 0.4215803772266928 0.5295312193550037 0.7361159373806565 0 0 0 0 1 0.7318058329134233 -0.6785063804916468 0.06394774856095811 22.900001525878906 0.5286547361399144 0.5059458759665892 -0.6815738702072126 0 0.4300981200502141 0.5325860139212496 0.7289497547189012 0 0 0 0 1 0.7304017448875967 -0.6802884155261655 0.06099969480295292 22.900001525878906 0.5236234864443785 0.5003678313485633 -0.689529171098199 0 0.4385564222639863 0.535574182585788 0.7216845290281462 0 0 0 0 1 0.728955547953495 -0.6820920808796699 0.058087884356910036 22.900001525878906 0.51851294767057 0.4947458530683616 -0.6974029423293509 0 0.44695428424593553 0.5384950641119204 0.7143213098608372 0 0 0 0 1 0.7274675826761459 -0.6839169908263039 0.05521291347518539 22.900001525878906 0.5133237586203294 0.4890806530206313 -0.7051941815392485 0 0.4552907148089257 0.5413480068311015 0.7068611607018531 0 0 0 0 1 0.7259381957196462 -0.6857627552002762 0.05237537184049959 22.900001525878906 0.5080565675798071 0.4833729500736058 -0.7129018973716961 0 0.46356473133137455 0.5441323687461217 0.6993051588172399 0 0 0 0 1 0.7240317948673871 -0.6880679834795849 0.04837778551616184 22.900001525878906 0.5021026638528798 0.4776584023198708 -0.7209267408309049 0 0.4729385530626066 0.5462644971106639 0.6913206377821233 0 0 0 0 1 0.7258524853893732 -0.6865398263364774 0.042440974399150205 22.900001525878906 0.49186553155236085 0.47491921347700483 -0.72973970670445 0 0.4808393373308629 0.5505586322311755 0.6824065680743071 0 0 0 0 1 0.727575137391191 -0.6850567644922468 0.03649176446273747 22.900001525878906 0.48153617344787814 0.4720889447502944 -0.7384138012698087 0 0.488628010977026 0.5548236275321805 0.6733597918057386 0 0 0 0 1 0.7291999103969882 -0.6836192649970094 0.0305318063987923 22.900001525878906 0.4711165274457501 0.4691682845269558 -0.7469473464451772 0 0.49630304073668785 0.5590579767063364 0.6641818052585717 0 0 0 0 1 0.7307269858472478 -0.682227779698511 0.024562751520056186 22.900001525878906 0.4606085468467864 0.46615794309052716 -0.7553386913599094 0 0.5038629166016169 0.563260178515443 0.6548741349087346 0 0 0 0 1 0.7341973683399718 -0.6784844884039615 0.02475930770183918 22.900001525878906 0.4534050203160146 0.4628393748241967 -0.7617109692426526 0 0.5053494947804875 0.5704721834652077 0.6474437242089419 0 0 0 0 1 0.7374708128123961 -0.6749752374965281 0.02335013953554807 22.900001525878906 0.447482614867001 0.4624347539800061 -0.76544980743563 0 0.5058617495340157 0.5749456731535225 0.6430718181357568 0 0 0 0 1 0.7407157259539898 -0.671460988068798 0.021916998565666646 22.900001525878906 0.44154574079662673 0.46198088200568765 -0.7691625468297355 0 0.5063374093515232 0.5794081516193231 0.6386772437845798 0 0 0 0 1 0.7439320189338114 -0.6679420186724397 0.02045998281644487 22.900001525878906 0.43559476159053984 0.46147780247596937 -0.7728489124640281 0 0.5067764348111935 0.5838593131172407 0.6342601576690119 0 0 0 0 1 0.7448638098109832 -0.6668993478196937 0.020570967685916347 22.900001525878906 0.43221654695675155 0.45879868956638303 -0.7763328016958657 0 0.5082979061245974 0.5871533209731827 0.62998747312904 0 0 0 0 1</float_array>
				<technique_common>
					<accessor source="#anim_LHand_transform_output_array" count="16" stride="16">
						<param name="TRANSFORM" type="float4x4"/>
					</accessor>
				</technique_common>
			</source>
			<source id="anim_LHand_transform_interpolation">
				<Name_array id="anim_LHand_transform_interpolation_array" count="16">LINEAR LINEAR LINEAR LINEAR LINEAR LINEAR LINEAR LINEAR LINEAR LINEAR LINEAR LINEAR LINEAR LINEAR LINEAR LINEAR</Name_array>
				<technique_common>
					<accessor source="#anim_LHand_transform_interpolation_array" count="16" stride="1">
						<param name="INTERPOLATION" type="Name"/>
					</accessor>
				</technique_common>
			</source>
			<sampler id="anim_LHand_transform_sampler">
				<input semantic="INPUT" source="#anim_LHand_transform_input"/>
				<input semantic="OUTPUT" source="#anim_LHand_transform_output"/>
				<input semantic="INTERPOLATION" source="#anim_LHand_transform_interpolation"/>
			</sampler>
			<channel source="#anim_LHand_transform_sampler" target="LHand_bone_id/transform"/>
		</animation>
		<animation id="anim_Neck_transform" name="anim_Neck_transform">
			<source id="anim_Neck_transform_input">
				<float_array id="anim_Neck_transform_input_array" count="16">0 0.03333333333333333 0.06666666666666667 0.1 0.13333333333333333 0.16666666666666666 0.2 0.23333333333333334 0.26666666666666666 0.3 0.3333333333333333 0.36666666666666664 0.4 0.43333333333333335 0.4666666666666667 0.5</float_array>
				<technique_common>
					<accessor source="#anim_Neck_transform_input_array" count="16" stride="1">
						<param name="TIME" type="float"/>
					</accessor>
				</technique_common>
			</source>
			<source id="anim_Neck_transform_output">
				<float_array id="anim_Neck_transform_output_array" count="256">0.9289112799361963 -0.012704865873483174 -0.37008434226596837 15.720232963562012 0.011876726081353515 0.999919269904956 -0.004516309370286173 0 0.37011184442663564 -0.00020013964235042307 0.9289871810521593 0 0 0 0 1 0.9311494711895891 -0.01918219090630238 -0.3641328134834634 15.720232963562012 0.01828274348735914 0.9998153463963699 -0.005917296754620818 0 0.3641790817632501 -0.0011474590803115027 0.9313282341600811 0 0 0 0 1 0.9333072787023717 -0.025667296425462907 -0.3581601784333106 15.720232963562012 0.024699406163881568 0.9996684308569269 -0.007277890023975913 0 0.3582282273304619 -0.0020538359858805347 0.9336317897872898 0 0 0 0 1 0.9356266826604379 -0.02348487429571123 -0.3522089882060635 15.720232963562012 0.022451369321225365 0.9997232941366938 -0.007019342994863467 0 0.3522763783017906 -0.0013400894717295483 0.9358950568577555 0 0 0 0 1 0.9379030347481203 -0.021297144392863572 -0.3462431646270808 15.720232963562012 0.02020088923077959 0.9997729852353021 -0.006775106492017706 0 0.34630885273777223 -0.0006400268759411444 0.9381203381661897 0 0 0 0 1 0.9401362304688582 -0.019104204941800693 -0.3402629828725828 15.720232963562012 0.017948068923178566 0.9998174969505934 -0.006545197734141837 0 0.340325924639506 0.000046314056845975834 0.940307536326958 0 0 0 0 1 0.9423263487201043 -0.017499987365804222 -0.33423764442389337 15.720232963562012 0.015098972340286522 0.9998381687839843 -0.009780453821576843 0 0.33435471215776746 0.004169734390273211 0.9424380827263991 0 0 0 0 1 0.9444732238760865 -0.01586892333269264 -0.32820497658227704 15.720232963562012 0.012269500356521395 0.9998397606704673 -0.013035042900735441 0 0.32835923733331035 0.008284337914632352 0.944516585880419 0 0 0 0 1 0.9465767430340399 -0.01421110231372982 -0.3221653521378389 15.720232963562012 0.009459829129751046 0.9998222519568404 -0.01630877447229691 0 0.32233985353955996 0.012389877440113474 0.9465429254698986 0 0 0 0 1 0.948636795904566 -0.012526615407507507 -0.3161191442515801 15.720232963562012 0.00667013367034004 0.9997856231248595 -0.019601456824843502 0 0.316296915528335 0.01648610624946968 0.9485169843118216 0 0 0 0 1 0.9506532748179277 -0.01081555533465621 -0.31006672643279953 15.720232963562012 0.003900587830535472 0.9997298557928158 -0.022912897046247008 0 0.31023077940869415 0.02057277811280299 0.9504386483662138 0 0 0 0 1 0.9514853527619828 -0.009123085440871287 -0.3075587631517655 15.720232963562012 0.0011023169355637939 0.9996549994960806 -0.02624246329643276 0 0.3076920674583256 0.024630292213646467 0.9511671463673941 0 0 0 0 1 0.9522932342129601 -0.010281393772147688 -0.3050112932570243 15.720232963562012 0.0011742798863958234 0.9995484062861386 -0.030026730717625422 0 0.3051822687165308 0.028236083881133845 0.9518752578085475 0 0 0 0 1 0.9511612086245975 -0.011110111107011045 -0.30849460390578093 15.720232963562012 0.0015683433599304776 0.9995131522790168 -0.031160852369089873 0 0.3086906145429436 0.029155168537546162 0.9507155624268739 0 0 0 0 1 0.950015961798364 -0.011942057374926249 -0.31197285073221254 15.720232963562012 0.0019581347560074383 0.9994764226994539 -0.0322962254169105 0 0.31219519220610475 0.03007104476995353 0.9495419391632139 0 0 0 0 1 0.9493613056751128 -0.012752969201163445 -0.3139274965073929 15.720232963562012 0.002370501038249059 0.9994381706380481 -0.03343237647101315 0 0.31417748488978753 0.030995239121937267 0.9488581575452156 0 0 0 0 1</float_array>
				<technique_common>
					<accessor source="#anim_Neck_transform_output_array" count="16" stride="16">
						<param name="TRANSFORM" type="float4x4"/>
					</accessor>
				</technique_common>
			</source>
			<source id="anim_Neck_transform_interpolation">
				<Name_array id="anim_Neck_transform_interpolation_array" count="16">LINEAR LINEAR LINEAR LINEAR LINEAR LINEAR LINEAR LINEAR LINEAR LINEAR LINEAR LINEAR LINEAR LINEAR LINEAR LINEAR</Name_array>
				<technique_common>
					<accessor source="#anim_Neck_transform_interpolation_array" count="16" stride="1">
						<param name="INTERPOLATION" type="Name"/>
					</accessor>
				</technique_common>
			</source>
			<sampler id="anim_Neck_transform_sampler">
				<input semantic="INPUT" source="#anim_Neck_transform_input"/>
				<input semantic="OUTPUT" source="#anim_Neck_transform_output"/>
				<input semantic="INTERPOLATION" source="#anim_Neck_transform_interpolation"/>
			</sampler>
			<channel source="#anim_Neck_transform_sampler" target="Neck_bone_id/transform"/>
		</animation>
	</library_animations>
</COLLADA>