<?xml version="1.0" encoding="utf-8"?>
<COLLADA xmlns:xsi="http://www.w3.org/2001/XMLSchema-instance" xmlns:xsd="http://www.w3.org/2001/XMLSchema" version="1.4.1" xmlns="http://www.collada.org/2005/11/COLLADASchema">
  <asset>
    <created>2026-02-17T02:22:35.8267151-05:00</created>
    <modified>2026-02-17T02:22:35.8267153-05:00</modified>
    <up_axis>Y_UP</up_axis>
  </asset>
  <library_animations>
    <animation id="Motion_2_2_Waist_transform_id" name="Motion_2_2_Waist_transform">
      <source id="Motion_2_2_Waist_transform_frame_id" name="Motion_2_2_Waist_transform_frame">
        <float_array id="Motion_2_2_Waist_transform_frame_array_id" count="31">0 0.033333335 0.06666667 0.1 0.13333334 0.16666667 0.2 0.23333333 0.26666668 0.3 0.33333334 0.36666667 0.4 0.43333334 0.46666667 0.5 0.53333336 0.56666666 0.6 0.6333333 0.6666667 0.7 0.73333335 0.76666665 0.8 0.8333333 0.8666667 0.9 0.93333334 0.96666664 1</float_array>
        <technique_common>
          <accessor source="#Motion_2_2_Waist_transform_frame_array_id" count="31" stride="1">
            <param name="TIME" type="float" />
          </accessor>
        </technique_common>
      </source>
      <source id="Motion_2_2_Waist_transform_interp_id" name="Motion_2_2_Waist_transform_interp">
        <Name_array id="Motion_2_2_Waist_transform_interp_array_id" count="31">LINEAR LINEAR LINEAR LINEAR LINEAR LINEAR LINEAR LINEAR LINEAR LINEAR LINEAR LINEAR LINEAR LINEAR LINEAR LINEAR LINEAR LINEAR LINEAR LINEAR LINEAR LINEAR LINEAR LINEAR LINEAR LINEAR LINEAR LINEAR LINEAR LINEAR LINEAR</Name_array>
        <technique_common>
          <accessor source="#Motion_2_2_Waist_transform_interp_array_id" count="31" stride="1">
            <param name="INTERPOLATION" type="Name" />
          </accessor>
        </technique_common>
      </source>
      <source id="Motion_2_2_Waist_transform_pose_id" name="Motion_2_2_Waist_transform_pose">
        <float_array id="Motion_2_2_Waist_transform_pose_array_id" count="496">-0.06975651 -0.99756396 8.940697E-08 0 0.03926143 -0.0027455091 -0.99922514 2.599997 0.9967911 -0.069702506 0.039357305 0 0 0 0 1 -0.06798005 -0.99768656 0.00048196316 0 0.03215462 -0.0026737452 -0.99947935 2.711859 0.9971684 -0.06792909 0.032261968 0.034766186 0 0 0 1 -0.06294799 -0.9980153 0.0016313493 0 0.012369007 -0.002414465 -0.9999204 2.837518 0.99793994 -0.062922895 0.01249665 0.09716945 0 0 0 1 -0.055053234 -0.9984787 0.0030431747 0 -0.018517077 -0.0020263195 -0.9998265 2.980435 0.99831164 -0.055100143 -0.018377304 0.20370412 0 0 0 1 -0.044887543 -0.99898326 0.0042316616 0 -0.058411986 -0.0016040802 -0.9982914 3.1440709 0.997283 -0.045057923 -0.058280706 0.3436064 0 0 0 1 -0.03306794 -0.99944186 0.004724711 0 -0.10516441 -0.0012215376 -0.994454 3.3262367 0.9939048 -0.033381432 -0.105065346 0.50958693 0 0 0 1 -0.020201087 -0.9997877 0.0040655136 0 -0.15655449 -0.00085294247 -0.98766893 3.518721 0.9874627 -0.020588458 -0.15650403 0.694356 0 0 0 1 -0.006765604 -0.99997574 0.0016989708 0 -0.21035963 -0.00023782253 -0.9776241 3.7159524 0.97760075 -0.006971538 -0.2103529 0.8906243 0 0 0 1 0.006613016 -0.9999755 -0.0022936463 0 -0.26446408 0.00046300888 -0.9643954 3.912359 0.9643729 0.006984204 -0.2644546 1.0911022 0 0 0 1 0.019298434 -0.9997868 -0.0073612332 0 -0.3168338 0.0008676052 -0.94848084 4.102369 0.94828486 0.020636588 -0.31674957 1.2885003 0 0 0 1 0.030851126 -0.99943393 -0.013422906 0 -0.36555666 0.00121665 -0.9307884 4.280411 0.93027776 0.03362283 -0.36531234 1.475529 0 0 0 1 0.0407362 -0.9989668 -0.020148844 0 -0.40877274 0.0017384291 -0.9126346 4.4409127 0.9117266 0.045413584 -0.40827966 1.6448989 0 0 0 1 0.048537612 -0.99846876 -0.02653572 0 -0.4447945 0.0021802783 -0.89563 4.578303 0.89431643 0.055274665 -0.44400764 1.7893203 0 0 0 1 0.054359913 -0.99800944 -0.031970263 0 -0.47239944 0.002503395 -0.88138103 4.68701 0.8797066 0.0630146 -0.471323 1.9015043 0 0 0 1 0.05797851 -0.997681 -0.03565067 0 -0.4900435 0.002670765 -0.87169385 4.7614617 0.86976767 0.06800985 -0.48875213 1.9741606 0 0 0 1 0.05920148 -0.99756426 -0.036887318 0 -0.49620777 0.0026558638 -0.8681997 4.7949095 0.86618304 0.06970245 -0.4948418 2 0 0 0 1 0.05795735 -0.99768794 -0.035488874 0 -0.4899566 0.0025466084 -0.87174296 4.7428045 0.869818 0.06791186 -0.4886762 1.9744066 0 0 0 1 0.05434525 -0.9980145 -0.031836808 0 -0.47231025 0.0023988485 -0.8814291 4.56843 0.8797554 0.0629383 -0.4712422 1.9023997 0 0 0 1 0.04852444 -0.9984691 -0.026544273 0 -0.44473112 0.0021978617 -0.89566135 4.3022013 0.8943486 0.05526641 -0.4439435 1.7911422 0 0 0 1 0.04060942 -0.9989705 -0.020219505 0 -0.40865573 0.0018606186 -0.9126868 3.9825487 0.91178477 0.04532656 -0.4081595 1.6477972 0 0 0 1 0.030759394 -0.99943554 -0.013507545 0 -0.3655884 0.0013278723 -0.93077576 3.647903 0.9302683 0.033568352 -0.3653412 1.4795284 0 0 0 1 0.019257069 -0.99978817 -0.0072704256 0 -0.31692907 0.00079250336 -0.948449 3.3366945 0.94825375 0.02056858 -0.31684685 1.2934986 0 0 0 1 0.0066201687 -0.9999757 -0.0021988451 0 -0.2644426 0.00036990643 -0.96440136 3.0873542 0.9643787 0.006965935 -0.26443362 1.0968711 0 0 0 1 -0.00661397 -0.999977 0.0015032887 0 -0.21026361 -7.903576E-05 -0.97764474 2.9206147 0.9776224 -0.006782174 -0.21025825 0.896809 0 0 0 1 -0.020020008 -0.99979186 0.0039351583 0 -0.1565018 -0.0007536411 -0.98767734 2.7983868 0.98747474 -0.02038917 -0.15645409 0.70047575 0 0 0 1 -0.03303814 -0.999442 0.0049324334 0 -0.10518989 -0.0014307499 -0.9944512 2.6912715 0.9939033 -0.033373535 -0.10508394 0.51503426 0 0 0 1 -0.044931173 -0.9989798 0.004492134 0 -0.058487386 -0.0018582344 -0.99828625 2.6066883 0.9972763 -0.04511705 -0.058344007 0.34764826 0 0 0 1 -0.05508268 -0.99847674 0.0031581223 0 -0.018630385 -0.0021345615 -0.9998241 2.5500646 0.99830794 -0.055131853 -0.018484354 0.20548019 0 0 0 1 -0.063025475 -0.99801064 0.0016382039 0 0.012252212 -0.0024151802 -0.99992204 2.5268261 0.9979367 -0.06300053 0.012380004 0.095693834 0 0 0 1 -0.06798005 -0.99768656 0.00048196316 0 0.03215462 -0.0026737452 -0.99947935 2.5424 0.9971684 -0.06792909 0.032261968 0.02545205 0 0 0 1 -0.06798005 -0.99768656 0.00048196316 0 0.03215462 -0.0026737452 -0.99947935 2.5424 0.9971684 -0.06792909 0.032261968 0.02545205 0 0 0 1</float_array>
        <technique_common>
          <accessor source="#Motion_2_2_Waist_transform_pose_array_id" count="31" stride="16">
            <param name="TRANSFORM" type="float4x4" />
          </accessor>
        </technique_common>
      </source>
      <sampler id="Motion_2_2_Waist_transform_samp_id">
        <input semantic="INPUT" source="#Motion_2_2_Waist_transform_frame_id" />
        <input semantic="INTERPOLATION" source="#Motion_2_2_Waist_transform_interp_id" />
        <input semantic="OUTPUT" source="#Motion_2_2_Waist_transform_pose_id" />
      </sampler>
      <channel source="#Motion_2_2_Waist_transform_samp_id" target="Waist_bone_id/transform" />
    </animation>
    <animation id="Motion_2_2_Hips_transform_id" name="Motion_2_2_Hips_transform">
      <source id="Motion_2_2_Hips_transform_frame_id" name="Motion_2_2_Hips_transform_frame">
        <float_array id="Motion_2_2_Hips_transform_frame_array_id" count="31">0 0.033333335 0.06666667 0.1 0.13333334 0.16666667 0.2 0.23333333 0.26666668 0.3 0.33333334 0.36666667 0.4 0.43333334 0.46666667 0.5 0.53333336 0.56666666 0.6 0.6333333 0.6666667 0.7 0.73333335 0.76666665 0.8 0.8333333 0.8666667 0.9 0.93333334 0.96666664 1</float_array>
        <technique_common>
          <accessor source="#Motion_2_2_Hips_transform_frame_array_id" count="31" stride="1">
            <param name="TIME" type="float" />
          </accessor>
        </technique_common>
      </source>
      <source id="Motion_2_2_Hips_transform_interp_id" name="Motion_2_2_Hips_transform_interp">
        <Name_array id="Motion_2_2_Hips_transform_interp_array_id" count="31">LINEAR LINEAR LINEAR LINEAR LINEAR LINEAR LINEAR LINEAR LINEAR LINEAR LINEAR LINEAR LINEAR LINEAR LINEAR LINEAR LINEAR LINEAR LINEAR LINEAR LINEAR LINEAR LINEAR LINEAR LINEAR LINEAR LINEAR LINEAR LINEAR LINEAR LINEAR</Name_array>
        <technique_common>
          <accessor source="#Motion_2_2_Hips_transform_interp_array_id" count="31" stride="1">
            <param name="INTERPOLATION" type="Name" />
          </accessor>
        </technique_common>
      </source>
      <source id="Motion_2_2_Hips_transform_pose_id" name="Motion_2_2_Hips_transform_pose">
        <float_array id="Motion_2_2_Hips_transform_pose_array_id" count="496">-0.9781505 -1.0359524E-05 0.20789815 0 1.0332505E-05 -1 -1.2158819E-06 0 0.20789815 9.587932E-07 0.9781505 0 0 0 0 1 -0.9673668 -0.007416928 0.2532713 0 0.0071496107 -0.99997234 -0.001975856 0 0.253279 -0.000100586156 0.9673933 0 0 0 0 1 -0.9493977 -0.013630757 0.31378105 0 0.012859808 -0.99990714 -0.0045267856 0 0.3138136 -0.00026255473 0.9494846 0 0 0 0 1 -0.92211306 -0.019950837 0.3864059 0 0.018322065 -0.9998009 -0.00789804 0 0.38648653 -0.00020313193 0.92229503 0 0 0 0 1 -0.88409173 -0.025254907 0.46663076 0 0.022293428 -0.99968123 -0.011866815 0 0.46678162 -8.8553876E-05 0.8843726 0 0 0 0 1 -0.8347068 -0.029596876 0.54989874 0 0.024715945 -0.9995619 -0.016281802 0 0.5501398 7.376075E-07 0.83507264 0 0 0 0 1 -0.773821 -0.032954726 0.63254654 0 0.02559096 -0.9994569 -0.020763699 0 0.63288724 0.00012008846 0.77424395 0 0 0 0 1 -0.7028836 -0.034727752 0.71045625 0 0.024586365 -0.99939644 -0.024527114 0 0.71087945 0.00022782478 0.70331377 0 0 0 0 1 -0.62443817 -0.03465453 0.78030515 0 0.021799158 -0.9993994 -0.02694009 0 0.78077006 0.00018757582 0.62481844 0 0 0 0 1 -0.54114795 -0.032943755 0.8402819 0 0.0178983 -0.99945724 -0.02765768 0 0.8407369 7.272512E-05 0.54144377 0 0 0 0 1 -0.4573604 -0.029946767 0.88877696 0 0.0137956375 -0.9995513 -0.02658007 0 0.8891743 0.00010456983 0.45756853 0 0 0 0 1 -0.3774687 -0.025406376 0.9256738 0 0.009713146 -0.9996772 -0.023476701 0 0.92597145 0.0001294855 0.37759358 0 0 0 0 1 -0.30507302 -0.019777892 0.95212364 0 0.00614686 -0.9998045 -0.018798802 0 0.95230925 0.000117564574 0.30513477 0 0 0 0 1 -0.24429822 -0.01362193 0.9696044 0 0.0035023764 -0.99990714 -0.013165205 0 0.9696938 0.00017968286 0.24432337 0 0 0 0 1 -0.19949913 -0.006896897 0.9798737 0 0.001454917 -0.99997616 -0.006742173 0 0.97989696 8.057756E-05 0.19950438 0 0 0 0 1 -0.17364836 -3.813902E-07 0.9848078 0 2.1522723E-07 -1 -3.493234E-07 0 0.9848078 1.5129802E-07 0.17364824 0 0 0 0 1 -0.1932292 0.0068557747 0.9811299 0 -0.0014177328 -0.99997675 0.006708253 0 0.9811528 -9.4750896E-05 0.19323409 0 0 0 0 1 -0.2705077 0.013458412 0.96262395 0 -0.0037441277 -0.99990976 0.012927562 0 0.96271074 -0.00010718405 0.27053326 0 0 0 0 1 -0.3853873 0.019788228 0.9225427 0 -0.0077112447 -0.99980426 0.01822413 0 0.9227227 -9.060465E-05 0.38546437 0 0 0 0 1 -0.51650155 0.025319561 0.8559117 0 -0.013079885 -0.9996793 0.021679409 0 0.8561862 2.223067E-06 0.51666725 0 0 0 0 1 -0.6430137 0.029638082 0.7652808 0 -0.018973142 -0.9995605 0.02276951 0 0.76561946 0.00012132805 0.64329374 0 0 0 0 1 -0.74788713 0.033020172 0.66300404 0 -0.024616525 -0.9994545 0.022008587 0 0.6633692 0.00013908558 0.7482922 0 0 0 0 1 -0.8225068 0.03471584 0.5676953 0 -0.02848591 -0.9993975 0.019843513 0 0.568042 0.00015010312 0.8229996 0 0 0 0 1 -0.86807966 0.034587476 0.49521855 0 -0.03004082 -0.9994017 0.017141843 0 0.49551514 3.715977E-06 0.8685993 0 0 0 0 1 -0.90541685 0.033005003 0.42323798 0 -0.02988216 -0.99945486 0.014013864 0 0.4234699 4.1125808E-05 0.90591013 0 0 0 0 1 -0.9356184 0.02942896 0.3517845 0 -0.027470777 -0.9995669 0.010557752 0 0.3519428 0.00021423353 0.93602145 0 0 0 0 1 -0.9579426 0.024840213 0.2858811 0 -0.023732968 -0.9996909 0.00733772 0 0.28597516 0.00024430896 0.958237 0 0 0 0 1 -0.9722979 0.019720467 0.23291188 0 -0.019155322 -0.99980557 0.004688261 0 0.23295903 9.688479E-05 0.97248656 0 0 0 0 1 -0.9800377 0.013683697 0.19834018 0 -0.013414558 -0.9999063 0.0027006245 0 0.19835857 -1.39322365E-05 0.98012954 0 0 0 0 1 -0.98211396 0.006886816 0.18815967 0 -0.006767607 -0.9999759 0.0012759885 0 0.188164 -2.022431E-05 0.9821376 0 0 0 0 1 -0.98211396 0.006886816 0.18815967 0 -0.006767607 -0.9999759 0.0012759885 0 0.188164 -2.022431E-05 0.9821376 0 0 0 0 1</float_array>
        <technique_common>
          <accessor source="#Motion_2_2_Hips_transform_pose_array_id" count="31" stride="16">
            <param name="TRANSFORM" type="float4x4" />
          </accessor>
        </technique_common>
      </source>
      <sampler id="Motion_2_2_Hips_transform_samp_id">
        <input semantic="INPUT" source="#Motion_2_2_Hips_transform_frame_id" />
        <input semantic="INTERPOLATION" source="#Motion_2_2_Hips_transform_interp_id" />
        <input semantic="OUTPUT" source="#Motion_2_2_Hips_transform_pose_id" />
      </sampler>
      <channel source="#Motion_2_2_Hips_transform_samp_id" target="Hips_bone_id/transform" />
    </animation>
    <animation id="Motion_2_2_Tail1_transform_id" name="Motion_2_2_Tail1_transform">
      <source id="Motion_2_2_Tail1_transform_frame_id" name="Motion_2_2_Tail1_transform_frame">
        <float_array id="Motion_2_2_Tail1_transform_frame_array_id" count="31">0 0.033333335 0.06666667 0.1 0.13333334 0.16666667 0.2 0.23333333 0.26666668 0.3 0.33333334 0.36666667 0.4 0.43333334 0.46666667 0.5 0.53333336 0.56666666 0.6 0.6333333 0.6666667 0.7 0.73333335 0.76666665 0.8 0.8333333 0.8666667 0.9 0.93333334 0.96666664 1</float_array>
        <technique_common>
          <accessor source="#Motion_2_2_Tail1_transform_frame_array_id" count="31" stride="1">
            <param name="TIME" type="float" />
          </accessor>
        </technique_common>
      </source>
      <source id="Motion_2_2_Tail1_transform_interp_id" name="Motion_2_2_Tail1_transform_interp">
        <Name_array id="Motion_2_2_Tail1_transform_interp_array_id" count="31">LINEAR LINEAR LINEAR LINEAR LINEAR LINEAR LINEAR LINEAR LINEAR LINEAR LINEAR LINEAR LINEAR LINEAR LINEAR LINEAR LINEAR LINEAR LINEAR LINEAR LINEAR LINEAR LINEAR LINEAR LINEAR LINEAR LINEAR LINEAR LINEAR LINEAR LINEAR</Name_array>
        <technique_common>
          <accessor source="#Motion_2_2_Tail1_transform_interp_array_id" count="31" stride="1">
            <param name="INTERPOLATION" type="Name" />
          </accessor>
        </technique_common>
      </source>
      <source id="Motion_2_2_Tail1_transform_pose_id" name="Motion_2_2_Tail1_transform_pose">
        <float_array id="Motion_2_2_Tail1_transform_pose_array_id" count="496">0.9781476 1.8978668E-07 0.20791163 3.383535 -2.0960974E-07 1 7.331281E-08 0 -0.20791163 -1.1529105E-07 0.9781476 0 0 0 0 1 0.97409487 0.006822486 0.22603685 3.383535 -0.0066257245 0.9999767 -0.0016291279 0 -0.22604269 8.926727E-05 0.9741174 0 0 0 0 1 0.9689258 0.013348388 0.24699125 3.383535 -0.012887053 0.9999109 -0.003484331 0 -0.24701574 0.00019306887 0.9690114 0 0 0 0 1 0.9621762 0.019365244 0.2717387 3.383535 -0.018568505 0.9998124 -0.00550322 0 -0.27179432 0.00024928572 0.9623553 0 0 0 0 1 0.95394886 0.024659866 0.29895398 3.383535 -0.023463177 0.9996959 -0.007592125 0 -0.2990503 0.00022808858 0.95423734 0 0 0 0 1 0.9443179 0.029018985 0.32775244 3.383535 -0.027373651 0.99957883 -0.009633295 0 -0.32789394 0.00012511155 0.94471455 0 0 0 0 1 0.9334455 0.032230355 0.35726833 3.383535 -0.030114524 0.9994805 -0.01148532 0 -0.35745287 -3.8044993E-05 0.9339312 0 0 0 0 1 0.92159045 0.034083907 0.38666442 3.383535 -0.03151354 0.999419 -0.0129867755 0 -0.3868824 -0.00021667592 0.92212903 0 0 0 0 1 0.9091076 0.034372397 0.41514072 3.383535 -0.031411186 0.999409 -0.01396138 0 -0.41537526 -0.00034766318 0.9096501 0 0 0 0 1 0.89644146 0.032891568 0.44193992 3.383535 -0.029658806 0.99945885 -0.014224525 0 -0.44216862 -0.00035595708 0.8969319 0 0 0 0 1 0.8841018 0.0297551 0.46634606 3.383535 -0.026430685 0.9995572 -0.013669055 0 -0.46654627 -0.00024100952 0.88449675 0 0 0 0 1 0.8726527 0.025360493 0.4876823 3.383535 -0.022186091 0.9996784 -0.012285833 0 -0.48783705 -9.849947E-05 0.8729347 0 0 0 0 1 0.86270887 0.019925795 0.5053082 3.383535 -0.01720146 0.99980146 -0.010057203 0 -0.5054082 -1.5601516E-05 0.86288035 0 0 0 0 1 0.8549054 0.013699884 0.5186029 3.383535 -0.011701565 0.9999061 -0.007124653 0 -0.5186519 2.2438122E-05 0.85498554 0 0 0 0 1 0.84986806 0.006965568 0.52694947 3.383535 -0.0058551584 0.99997574 -0.0037751 0 -0.52696294 0.00012296462 0.84988827 0 0 0 0 1 0.8480481 -1.4498466E-05 0.52991927 3.383535 0.0001693379 0.99999994 -0.00024363752 0 -0.52991927 0.00029635176 0.84804803 0 0 0 0 1 0.85550475 -0.006986175 0.5177479 3.383535 0.0062352275 0.99997544 0.003190235 0 -0.5177574 0.0004990145 0.8555273 0 0 0 0 1 0.874135 -0.013707972 0.48548958 3.383535 0.012263673 0.9999059 0.006151678 0 -0.4855282 0.00057648844 0.87422085 0 0 0 0 1 0.899095 -0.019924585 0.43729988 3.383535 0.018112984 0.9998014 0.00831314 0 -0.43737867 0.00044650352 0.8992773 0 0 0 0 1 0.9248328 -0.02536596 0.3795271 3.383535 0.023534928 0.9996782 0.009464211 0 -0.37964505 0.00017932989 0.9251322 0 0 0 0 1 0.94716734 -0.029765662 0.31935573 3.383535 0.028202202 0.9995569 0.009520009 0 -0.3194976 -1.0506716E-05 0.9475871 0 0 0 0 1 0.9637586 -0.03292359 0.2647365 3.383535 0.031706665 0.99945784 0.008869848 0 -0.26488498 -0.00015448127 0.96428 0 0 0 0 1 0.9744287 -0.034633342 0.22201186 3.383535 0.03368927 0.9994 0.008039083 0 -0.22215709 -0.00035409536 0.9750108 0 0 0 0 1 0.97971374 -0.034641743 0.19738524 3.383535 0.033879124 0.9993997 0.0072401613 0 -0.19751756 -0.00040604593 0.98029923 0 0 0 0 1 0.98281074 -0.032890707 0.18166249 3.383535 0.032267585 0.99945885 0.006385374 0 -0.18177421 -0.00041380362 0.9833402 0 0 0 0 1 0.9843849 -0.029650329 0.17351423 3.383535 0.029137818 0.9995603 0.0055007613 0 -0.17360105 -0.00035904022 0.984816 0 0 0 0 1 0.9848246 -0.025174037 0.17171727 3.383535 0.024755675 0.999683 0.004577635 0 -0.1717781 -0.00025718962 0.9851356 0 0 0 0 1 0.98436743 -0.019715894 0.17502026 3.383535 0.019386832 0.9998056 0.0035898439 0 -0.17505701 -0.0001406367 0.9845583 0 0 0 0 1 0.98304856 -0.013530479 0.18284532 3.383535 0.013295104 0.99990845 0.0025130895 0 -0.18286258 -3.9541395E-05 0.9831385 0 0 0 0 1 0.98090667 -0.006873147 0.19435763 3.383535 0.006744888 0.9999764 0.0013216829 0 -0.19436213 1.4472869E-05 0.98092985 0 0 0 0 1 0.98090667 -0.006873147 0.19435763 3.383535 0.006744888 0.9999764 0.0013216829 0 -0.19436213 1.4472869E-05 0.98092985 0 0 0 0 1</float_array>
        <technique_common>
          <accessor source="#Motion_2_2_Tail1_transform_pose_array_id" count="31" stride="16">
            <param name="TRANSFORM" type="float4x4" />
          </accessor>
        </technique_common>
      </source>
      <sampler id="Motion_2_2_Tail1_transform_samp_id">
        <input semantic="INPUT" source="#Motion_2_2_Tail1_transform_frame_id" />
        <input semantic="INTERPOLATION" source="#Motion_2_2_Tail1_transform_interp_id" />
        <input semantic="OUTPUT" source="#Motion_2_2_Tail1_transform_pose_id" />
      </sampler>
      <channel source="#Motion_2_2_Tail1_transform_samp_id" target="Tail1_bone_id/transform" />
    </animation>
    <animation id="Motion_2_2_Tail2_transform_id" name="Motion_2_2_Tail2_transform">
      <source id="Motion_2_2_Tail2_transform_frame_id" name="Motion_2_2_Tail2_transform_frame">
        <float_array id="Motion_2_2_Tail2_transform_frame_array_id" count="31">0 0.033333335 0.06666667 0.1 0.13333334 0.16666667 0.2 0.23333333 0.26666668 0.3 0.33333334 0.36666667 0.4 0.43333334 0.46666667 0.5 0.53333336 0.56666666 0.6 0.6333333 0.6666667 0.7 0.73333335 0.76666665 0.8 0.8333333 0.8666667 0.9 0.93333334 0.96666664 1</float_array>
        <technique_common>
          <accessor source="#Motion_2_2_Tail2_transform_frame_array_id" count="31" stride="1">
            <param name="TIME" type="float" />
          </accessor>
        </technique_common>
      </source>
      <source id="Motion_2_2_Tail2_transform_interp_id" name="Motion_2_2_Tail2_transform_interp">
        <Name_array id="Motion_2_2_Tail2_transform_interp_array_id" count="31">LINEAR LINEAR LINEAR LINEAR LINEAR LINEAR LINEAR LINEAR LINEAR LINEAR LINEAR LINEAR LINEAR LINEAR LINEAR LINEAR LINEAR LINEAR LINEAR LINEAR LINEAR LINEAR LINEAR LINEAR LINEAR LINEAR LINEAR LINEAR LINEAR LINEAR LINEAR</Name_array>
        <technique_common>
          <accessor source="#Motion_2_2_Tail2_transform_interp_array_id" count="31" stride="1">
            <param name="INTERPOLATION" type="Name" />
          </accessor>
        </technique_common>
      </source>
      <source id="Motion_2_2_Tail2_transform_pose_id" name="Motion_2_2_Tail2_transform_pose">
        <float_array id="Motion_2_2_Tail2_transform_pose_array_id" count="496">0.9309114 -0.016713584 0.36486244 3.122913 0.016201472 0.9998588 0.004464942 0 -0.36488557 0.0017548423 0.9310507 0 0 0 0 1 0.9288865 -0.009944829 0.37023106 3.122913 0.009616892 0.99995005 0.002731621 0 -0.3702397 0.0010231063 0.92893565 0 0 0 0 1 0.92758304 -0.0029891354 0.37360507 3.122913 0.0028454547 0.9999955 0.0009360854 0 -0.3736062 0.00019477942 0.9275874 0 0 0 0 1 0.9274446 0.0039468664 0.37393972 3.122913 -0.003913715 0.99999195 -0.00084794615 0 -0.37394008 -0.00067707046 0.9274526 0 0 0 0 1 0.9286292 0.010659177 0.37085593 3.122913 -0.010465397 0.999942 -0.0025349061 0 -0.37086147 -0.0015271667 0.928687 0 0 0 0 1 0.93086386 0.01694256 0.3649731 3.122913 -0.016612012 0.99985385 -0.00404567 0 -0.3649883 -0.0022969698 0.9310093 0 0 0 0 1 0.93393147 0.02258935 0.35673758 3.122913 -0.022151666 0.9997405 -0.0053130086 0 -0.356765 -0.002940346 0.9341895 0 0 0 0 1 0.93761474 0.027389212 0.34659553 3.122913 -0.026877942 0.999619 -0.0062828907 0 -0.34663552 -0.0034248433 0.93799365 0 0 0 0 1 0.9417049 0.03112923 0.33499673 3.122913 -0.030580059 0.9995084 -0.006915092 0 -0.33504733 -0.003732244 0.9421939 0 0 0 0 1 0.9460082 0.033594307 0.3223971 3.122913 -0.033043448 0.9994281 -0.007182816 0 -0.32245404 -0.0038581088 0.94657725 0 0 0 0 1 0.9503491 0.034567665 0.30925995 3.122913 -0.034050528 0.9993951 -0.007071296 0 -0.3093173 -0.0038102646 0.9509512 0 0 0 0 1 0.9545712 0.033831522 0.29605627 3.122913 -0.03338176 0.99942106 -0.0065753437 0 -0.2961073 -0.0036062463 0.95514786 0 0 0 0 1 0.95852786 0.031408712 0.2832628 3.122913 -0.03105779 0.99950117 -0.00573067 0 -0.28330147 -0.0033045087 0.9590252 0 0 0 0 1 0.9620811 0.027633889 0.27136034 3.122913 -0.02739179 0.9996138 -0.0046804785 0 -0.2713849 -0.0029300451 0.9624664 0 0 0 0 1 0.9651149 0.022753354 0.26083612 3.122913 -0.022610039 0.99973804 -0.0035505423 0 -0.26084858 -0.002470833 0.96537656 0 0 0 0 1 0.96753025 0.017006079 0.2521824 3.122913 -0.016952148 0.99985343 -0.0023866477 0 -0.25218603 -0.001965879 0.96767676 0 0 0 0 1 0.9692386 0.010633362 0.24589327 3.122913 -0.010660773 0.9999424 -0.0012197087 0 -0.24589208 -0.0014392235 0.96929616 0 0 0 0 1 0.97015315 0.0038784705 0.24246192 3.122913 -0.003981133 0.9999921 -6.6529145E-05 0 -0.24246025 -0.00090072973 0.9701609 0 0 0 0 1 0.97017735 -0.0030137545 0.24237753 3.122913 0.0028395157 0.9999954 0.0010681972 0 -0.24237965 -0.00034810585 0.9701814 0 0 0 0 1 0.9692881 -0.009797426 0.24573277 3.122913 0.009552989 0.99995196 0.00218675 0 -0.2457424 0.00022789184 0.96933514 0 0 0 0 1 0.9675994 -0.016226897 0.2519685 3.122913 0.01591249 0.999868 0.0032854886 0 -0.25198853 0.000830409 0.96772987 0 0 0 0 1 0.9651979 -0.022057854 0.26058865 3.122913 0.021673508 0.9997556 0.0043487647 0 -0.2606209 0.0014504516 0.96544015 0 0 0 0 1 0.9621722 -0.027047725 0.27109608 3.122913 0.026594235 0.999632 0.0053469567 0 -0.27114096 0.0020649002 0.96253747 0 0 0 0 1 0.95862156 -0.030956188 0.28299534 3.122913 0.030435989 0.99951726 0.0062356154 0 -0.2830518 0.0026356475 0.959101 0 0 0 0 1 0.9546624 -0.03354547 0.2957946 3.122913 0.032963417 0.9994323 0.0069558164 0 -0.29586005 0.003109946 0.95522624 0 0 0 0 1 0.9504305 -0.034580577 0.30900806 3.122913 0.033944603 0.999396 0.0074357474 0 -0.30907857 0.0034219956 0.9510304 0 0 0 0 1 0.94608176 -0.033828974 0.3221566 3.122913 0.033150554 0.99942154 0.007593421 0 -0.32222712 0.003495674 0.9466559 0 0 0 0 1 0.94178134 -0.031279996 0.33476776 3.122913 0.030574443 0.9995053 0.0073784944 0 -0.3348329 0.0032864083 0.94227177 0 0 0 0 1 0.937698 -0.02732504 0.34637517 3.122913 0.02663063 0.99962246 0.006765011 0 -0.34642923 0.002880652 0.93807167 0 0 0 0 1 0.9340207 -0.022341203 0.35651952 3.122913 0.021713566 0.99974763 0.005763061 0 -0.35655832 0.002358492 0.9342701 0 0 0 0 1 0.9340207 -0.022341203 0.35651952 3.122913 0.021713566 0.99974763 0.005763061 0 -0.35655832 0.002358492 0.9342701 0 0 0 0 1</float_array>
        <technique_common>
          <accessor source="#Motion_2_2_Tail2_transform_pose_array_id" count="31" stride="16">
            <param name="TRANSFORM" type="float4x4" />
          </accessor>
        </technique_common>
      </source>
      <sampler id="Motion_2_2_Tail2_transform_samp_id">
        <input semantic="INPUT" source="#Motion_2_2_Tail2_transform_frame_id" />
        <input semantic="INTERPOLATION" source="#Motion_2_2_Tail2_transform_interp_id" />
        <input semantic="OUTPUT" source="#Motion_2_2_Tail2_transform_pose_id" />
      </sampler>
      <channel source="#Motion_2_2_Tail2_transform_samp_id" target="Tail2_bone_id/transform" />
    </animation>
    <animation id="Motion_2_2_Tail3_transform_id" name="Motion_2_2_Tail3_transform">
      <source id="Motion_2_2_Tail3_transform_frame_id" name="Motion_2_2_Tail3_transform_frame">
        <float_array id="Motion_2_2_Tail3_transform_frame_array_id" count="31">0 0.033333335 0.06666667 0.1 0.13333334 0.16666667 0.2 0.23333333 0.26666668 0.3 0.33333334 0.36666667 0.4 0.43333334 0.46666667 0.5 0.53333336 0.56666666 0.6 0.6333333 0.6666667 0.7 0.73333335 0.76666665 0.8 0.8333333 0.8666667 0.9 0.93333334 0.96666664 1</float_array>
        <technique_common>
          <accessor source="#Motion_2_2_Tail3_transform_frame_array_id" count="31" stride="1">
            <param name="TIME" type="float" />
          </accessor>
        </technique_common>
      </source>
      <source id="Motion_2_2_Tail3_transform_interp_id" name="Motion_2_2_Tail3_transform_interp">
        <Name_array id="Motion_2_2_Tail3_transform_interp_array_id" count="31">LINEAR LINEAR LINEAR LINEAR LINEAR LINEAR LINEAR LINEAR LINEAR LINEAR LINEAR LINEAR LINEAR LINEAR LINEAR LINEAR LINEAR LINEAR LINEAR LINEAR LINEAR LINEAR LINEAR LINEAR LINEAR LINEAR LINEAR LINEAR LINEAR LINEAR LINEAR</Name_array>
        <technique_common>
          <accessor source="#Motion_2_2_Tail3_transform_interp_array_id" count="31" stride="1">
            <param name="INTERPOLATION" type="Name" />
          </accessor>
        </technique_common>
      </source>
      <source id="Motion_2_2_Tail3_transform_pose_id" name="Motion_2_2_Tail3_transform_pose">
        <float_array id="Motion_2_2_Tail3_transform_pose_array_id" count="496">0.9478256 -0.029202819 0.31744888 2.840044 0.029461943 0.999558 0.0039852904 0 -0.31742492 0.005575301 0.948267 0 0 0 0 1 0.9322962 -0.024373835 0.3608735 2.840044 0.024432207 0.9996918 0.0044011767 0 -0.36086956 0.004713735 0.9326044 0 0 0 0 1 0.91705114 -0.018789183 0.3983267 2.840044 0.018709406 0.9998166 0.004087737 0 -0.39833045 0.0037037928 0.9172345 0 0 0 0 1 0.904426 -0.012672934 0.4264423 2.840044 0.01252911 0.99991655 0.0031428027 0 -0.42644653 0.00250051 0.9045093 0 0 0 0 1 0.89571565 -0.0062307296 0.4445837 2.840044 0.006089568 0.9999799 0.0017456394 0 -0.44458568 0.0011437265 0.8957356 0 0 0 0 1 0.89251614 0.00034120417 0.4510153 2.840044 -0.0004360958 0.9999999 0.000106467465 0 -0.45101523 -0.00029170982 0.8925162 0 0 0 0 1 0.8956925 0.0068576084 0.44462103 2.840044 -0.0068959044 0.999975 -0.0015312538 0 -0.44462043 -0.0016945314 0.8957175 0 0 0 0 1 0.90436023 0.013131252 0.42656788 2.840044 -0.013137696 0.9999094 -0.0029276765 0 -0.4265677 -0.0029564446 0.90445083 0 0 0 0 1 0.91703534 0.018962082 0.39835486 2.840044 -0.018988803 0.9998122 -0.0038787466 0 -0.3983536 -0.0040073344 0.91722316 0 0 0 0 1 0.932078 0.024136392 0.3614527 2.840044 -0.024248729 0.999697 -0.00422565 0 -0.3614452 -0.004826133 0.9323809 0 0 0 0 1 0.9478632 0.028430132 0.31740665 2.840044 -0.028688526 0.9995809 -0.0038607195 0 -0.3173834 -0.0054464955 0.94828165 0 0 0 0 1 0.9629272 0.03161478 0.26790234 2.840044 -0.032055266 0.9994824 -0.0027305605 0 -0.26785 -0.0059583504 0.9634422 0 0 0 0 1 0.976087 0.033495307 0.2147844 2.840044 -0.03404951 0.9994195 -0.0011201007 0 -0.21469723 -0.0062199878 0.97666085 0 0 0 0 1 0.98652864 0.03385954 0.1600461 2.840044 -0.034392443 0.99940825 0.000560021 0 -0.15993243 -0.0060568536 0.98710936 0 0 0 0 1 0.9938582 0.03245539 0.10579469 2.840044 -0.032862905 0.99945766 0.0021105097 0 -0.10566882 -0.0055742683 0.9943858 0 0 0 0 1 0.99809724 0.029414138 0.054191396 2.840044 -0.029636608 0.9995553 0.0033060897 0 -0.054070048 -0.0049058483 0.9985251 0 0 0 0 1 0.9996557 0.025174998 0.007395466 2.840044 -0.025204785 0.99967444 0.003962702 0 -0.007293297 -0.004147739 0.9999648 0 0 0 0 1 0.99927306 0.019956952 -0.032481954 2.840044 -0.01983828 0.9997953 0.003971768 0 0.032554567 -0.0033244947 0.99946445 0 0 0 0 1 0.99789023 0.013983831 -0.06340003 2.840044 -0.013803275 0.9998993 0.0032849973 0 0.06343958 -0.0024029384 0.9979828 0 0 0 0 1 0.99648964 0.0074839336 -0.08338123 2.840044 -0.0073501063 0.99997115 0.0019118632 0 0.083393134 -0.0012922911 0.99651587 0 0 0 0 1 0.9958981 0.0007058559 -0.090478845 2.840044 -0.0006918848 0.99999976 0.00018577721 0 0.09047895 -0.00012241425 0.99589837 0 0 0 0 1 0.996501 -0.006087049 -0.08335831 2.840044 0.0059869187 0.99998105 -0.0014511113 0 0.08336557 0.0009469745 0.9965186 0 0 0 0 1 0.9979145 -0.012642758 -0.06329972 2.840044 0.012490997 0.9999181 -0.0027926862 0 0.06332984 0.0019961856 0.99799067 0 0 0 0 1 0.9993039 -0.01871473 -0.032272775 2.840044 0.018605899 0.9998202 -0.0036692044 0 0.032335643 0.003066186 0.9994724 0 0 0 0 1 0.99968064 -0.024062755 0.007719746 2.840044 0.02409385 0.99970186 -0.0039605796 0 -0.0076221414 0.004145313 0.99996233 0 0 0 0 1 0.99810225 -0.028456274 0.05460953 2.840044 0.028695628 0.9995817 -0.0036037304 0 -0.054484136 0.005163946 0.9985013 0 0 0 0 1 0.99383396 -0.03167941 0.1062568 2.840044 0.032136913 0.9994801 -0.002595767 0 -0.10611932 0.005994527 0.99433535 0 0 0 0 1 0.98647016 -0.03353603 0.16047424 2.840044 0.034137547 0.99941665 -0.0009920581 0 -0.16034737 0.0064568324 0.9870395 0 0 0 0 1 0.9760108 -0.033833023 0.21507722 2.840044 0.034441184 0.9994063 0.0009204538 0 -0.21498066 0.006509141 0.9765966 0 0 0 0 1 0.9628913 -0.032360435 0.26794258 2.840044 0.032843076 0.99945694 0.0026817243 0 -0.26788387 0.00621785 0.9634311 0 0 0 0 1 0.9628913 -0.032360435 0.26794258 2.840044 0.032843076 0.99945694 0.0026817243 0 -0.26788387 0.00621785 0.9634311 0 0 0 0 1</float_array>
        <technique_common>
          <accessor source="#Motion_2_2_Tail3_transform_pose_array_id" count="31" stride="16">
            <param name="TRANSFORM" type="float4x4" />
          </accessor>
        </technique_common>
      </source>
      <sampler id="Motion_2_2_Tail3_transform_samp_id">
        <input semantic="INPUT" source="#Motion_2_2_Tail3_transform_frame_id" />
        <input semantic="INTERPOLATION" source="#Motion_2_2_Tail3_transform_interp_id" />
        <input semantic="OUTPUT" source="#Motion_2_2_Tail3_transform_pose_id" />
      </sampler>
      <channel source="#Motion_2_2_Tail3_transform_samp_id" target="Tail3_bone_id/transform" />
    </animation>
    <animation id="Motion_2_2_Spine1_transform_id" name="Motion_2_2_Spine1_transform">
      <source id="Motion_2_2_Spine1_transform_frame_id" name="Motion_2_2_Spine1_transform_frame">
        <float_array id="Motion_2_2_Spine1_transform_frame_array_id" count="31">0 0.033333335 0.06666667 0.1 0.13333334 0.16666667 0.2 0.23333333 0.26666668 0.3 0.33333334 0.36666667 0.4 0.43333334 0.46666667 0.5 0.53333336 0.56666666 0.6 0.6333333 0.6666667 0.7 0.73333335 0.76666665 0.8 0.8333333 0.8666667 0.9 0.93333334 0.96666664 1</float_array>
        <technique_common>
          <accessor source="#Motion_2_2_Spine1_transform_frame_array_id" count="31" stride="1">
            <param name="TIME" type="float" />
          </accessor>
        </technique_common>
      </source>
      <source id="Motion_2_2_Spine1_transform_interp_id" name="Motion_2_2_Spine1_transform_interp">
        <Name_array id="Motion_2_2_Spine1_transform_interp_array_id" count="31">LINEAR LINEAR LINEAR LINEAR LINEAR LINEAR LINEAR LINEAR LINEAR LINEAR LINEAR LINEAR LINEAR LINEAR LINEAR LINEAR LINEAR LINEAR LINEAR LINEAR LINEAR LINEAR LINEAR LINEAR LINEAR LINEAR LINEAR LINEAR LINEAR LINEAR LINEAR</Name_array>
        <technique_common>
          <accessor source="#Motion_2_2_Spine1_transform_interp_array_id" count="31" stride="1">
            <param name="INTERPOLATION" type="Name" />
          </accessor>
        </technique_common>
      </source>
      <source id="Motion_2_2_Spine1_transform_pose_id" name="Motion_2_2_Spine1_transform_pose">
        <float_array id="Motion_2_2_Spine1_transform_pose_array_id" count="496">1 1.6018748E-07 -1.3406388E-06 0 -1.6018748E-07 1 1.0737678E-13 0 1.3406388E-06 1.0737678E-13 1 0 0 0 0 1 0.99994814 -0.006860205 -0.0075292676 0 0.0068601053 0.99997646 -3.9102368E-05 0 0.007529359 -1.25512315E-05 0.9999716 0 0 0 0 1 0.99983793 -0.013483346 -0.01192681 0 0.013483291 0.9999091 -8.505518E-05 0 0.011926874 -7.577126E-05 0.9999289 0 0 0 0 1 0.9997155 -0.019626701 -0.013552817 0 0.01962698 0.99980736 -0.00011230501 0 0.0135524105 -0.0001537278 0.99990815 0 0 0 0 1 0.9996029 -0.025048086 -0.012906426 0 0.025048831 0.99968624 -0.00010407022 0 0.012904982 -0.00021926199 0.99991673 0 0 0 0 1 0.99950963 -0.029505452 -0.010486528 0 0.02950651 0.9995646 -5.3899304E-05 0 0.010483552 -0.00025554796 0.999945 0 0 0 0 1 0.99944025 -0.032756723 -0.006791769 0 0.032757707 0.9994633 3.3978962E-05 0 0.006787011 -0.00025644276 0.99997693 0 0 0 0 1 0.99939996 -0.034559764 -0.0023205923 0 0.034560196 0.9994026 0.00014551383 0 0.0023141769 -0.00022562663 0.9999973 0 0 0 0 1 0.9993947 -0.034672335 0.0028408938 0 0.034671716 0.9993987 0.00026604795 0 -0.00284841 -0.00016738825 0.99999595 0 0 0 0 1 0.9994089 -0.033025213 0.00954824 0 0.033022985 0.9994545 0.00039123913 0 -0.009555954 -7.569646E-05 0.99995434 0 0 0 0 1 0.99938905 -0.029876057 0.018136559 0 0.029871874 0.9995536 0.0005016687 0 -0.01814345 4.0410785E-05 0.9998354 0 0 0 0 1 0.9992837 -0.025472937 0.027986767 0 0.025467252 0.9996755 0.00055958587 0 -0.027991941 0.00015356114 0.99960816 0 0 0 0 1 0.999054 -0.020064296 0.03858098 0 0.020058682 0.99979866 0.00053262897 0 -0.0385839 0.0002417585 0.99925536 0 0 0 0 1 0.9986823 -0.013898992 0.049400937 0 0.013896386 0.9999034 0.00039623433 0 -0.049401667 0.0002907823 0.99877894 0 0 0 0 1 0.9981765 -0.0072261374 0.05992871 0 0.0072309524 0.99997383 0.0001365221 0 -0.05992813 0.0002970685 0.9982026 0 0 0 0 1 0.9975564 -0.00029478557 0.069865085 0 0.00031288245 0.99999994 -0.00024808277 0 -0.06986501 0.00026933613 0.99755645 0 0 0 0 1 0.99672073 0.0066464073 0.08064465 0 -0.0066070114 0.9999779 -0.0007553474 0 -0.080647886 0.00022005034 0.9967426 0 0 0 0 1 0.9955264 0.013348666 0.09353662 0 -0.013276263 0.9999109 -0.0013963247 0 -0.093546934 0.00014826114 0.9956149 0 0 0 0 1 0.9940271 0.019563517 0.10736596 0 -0.01944316 0.9998086 -0.0021677604 0 -0.10738782 6.7278976E-05 0.9942172 0 0 0 0 1 0.992391 0.025043884 0.12055242 0 -0.024858894 0.99968636 -0.0030384 0 -0.1205907 1.8480932E-05 0.9927023 0 0 0 0 1 0.9908723 0.029536162 0.131528 0 -0.029286891 0.9995637 -0.003829646 0 -0.13158374 -5.7355734E-05 0.99130505 0 0 0 0 1 0.9897866 0.03278616 0.13873537 0 -0.032496393 0.99946237 -0.0043539163 0 -0.13880353 -0.00019895029 0.9903199 0 0 0 0 1 0.9894608 0.03454885 0.14061895 0 -0.03424962 0.99940294 -0.0045482125 0 -0.14069214 -0.00031586713 0.99005336 0 0 0 0 1 0.990158 0.034579664 0.13561448 0 -0.034304887 0.99940187 -0.0043632872 0 -0.13568425 -0.0003318952 0.9907521 0 0 0 0 1 0.9919147 0.03283624 0.12258461 0 -0.03261598 0.9994607 -0.0038035915 0 -0.122643396 -0.00022537843 0.9924508 0 0 0 0 1 0.99422383 0.0296057 0.10316241 0 -0.02945576 0.99956167 -0.0029768986 0 -0.10320532 -7.902365E-05 0.9946601 0 0 0 0 1 0.99648273 0.025138358 0.07993861 0 -0.025057642 0.999684 -0.0020128668 0 -0.079963945 2.713874E-06 0.99679774 0 0 0 0 1 0.9982628 0.01969105 0.055530608 0 -0.01965855 0.9998061 -0.00113151 0 -0.05554212 3.789307E-05 0.99845636 0 0 0 0 1 0.99937767 0.013518119 0.032581087 0 -0.013508897 0.9999086 -0.0005031814 0 -0.03258491 6.273376E-05 0.999469 0 0 0 0 1 0.9998888 0.0068705226 0.013237233 0 -0.006869308 0.9999764 -0.00013719709 0 -0.013237863 4.625118E-05 0.9999124 0 0 0 0 1 0.9998888 0.0068705226 0.013237233 0 -0.006869308 0.9999764 -0.00013719709 0 -0.013237863 4.625118E-05 0.9999124 0 0 0 0 1</float_array>
        <technique_common>
          <accessor source="#Motion_2_2_Spine1_transform_pose_array_id" count="31" stride="16">
            <param name="TRANSFORM" type="float4x4" />
          </accessor>
        </technique_common>
      </source>
      <sampler id="Motion_2_2_Spine1_transform_samp_id">
        <input semantic="INPUT" source="#Motion_2_2_Spine1_transform_frame_id" />
        <input semantic="INTERPOLATION" source="#Motion_2_2_Spine1_transform_interp_id" />
        <input semantic="OUTPUT" source="#Motion_2_2_Spine1_transform_pose_id" />
      </sampler>
      <channel source="#Motion_2_2_Spine1_transform_samp_id" target="Spine1_bone_id/transform" />
    </animation>
    <animation id="Motion_2_2_Spine2_transform_id" name="Motion_2_2_Spine2_transform">
      <source id="Motion_2_2_Spine2_transform_frame_id" name="Motion_2_2_Spine2_transform_frame">
        <float_array id="Motion_2_2_Spine2_transform_frame_array_id" count="31">0 0.033333335 0.06666667 0.1 0.13333334 0.16666667 0.2 0.23333333 0.26666668 0.3 0.33333334 0.36666667 0.4 0.43333334 0.46666667 0.5 0.53333336 0.56666666 0.6 0.6333333 0.6666667 0.7 0.73333335 0.76666665 0.8 0.8333333 0.8666667 0.9 0.93333334 0.96666664 1</float_array>
        <technique_common>
          <accessor source="#Motion_2_2_Spine2_transform_frame_array_id" count="31" stride="1">
            <param name="TIME" type="float" />
          </accessor>
        </technique_common>
      </source>
      <source id="Motion_2_2_Spine2_transform_interp_id" name="Motion_2_2_Spine2_transform_interp">
        <Name_array id="Motion_2_2_Spine2_transform_interp_array_id" count="31">LINEAR LINEAR LINEAR LINEAR LINEAR LINEAR LINEAR LINEAR LINEAR LINEAR LINEAR LINEAR LINEAR LINEAR LINEAR LINEAR LINEAR LINEAR LINEAR LINEAR LINEAR LINEAR LINEAR LINEAR LINEAR LINEAR LINEAR LINEAR LINEAR LINEAR LINEAR</Name_array>
        <technique_common>
          <accessor source="#Motion_2_2_Spine2_transform_interp_array_id" count="31" stride="1">
            <param name="INTERPOLATION" type="Name" />
          </accessor>
        </technique_common>
      </source>
      <source id="Motion_2_2_Spine2_transform_pose_id" name="Motion_2_2_Spine2_transform_pose">
        <float_array id="Motion_2_2_Spine2_transform_pose_array_id" count="496">0.9710952 0.01676958 0.23810266 3.819445 -0.016552486 0.99985874 -0.002911236 0 -0.23811786 -0.0011141037 0.97123563 0 0 0 0 1 0.9766701 0.009986211 0.214513 3.819445 -0.009892464 0.99994993 -0.0015105676 0 -0.21451735 -0.0006467361 0.97672 0 0 0 0 1 0.97901464 0.0029776297 0.20376813 3.819445 -0.0029823463 0.9999955 -0.00028392868 0 -0.20376807 -0.00032973682 0.97901917 0 0 0 0 1 0.97805494 -0.0040299636 0.20830807 3.819445 0.0039300113 0.9999919 0.0008936969 0 -0.20830998 -5.543162E-05 0.97806287 0 0 0 0 1 0.9755096 -0.010812876 0.219691 3.819445 0.010605517 0.9999415 0.0021232534 0 -0.2197011 0.0002586827 0.9755672 0 0 0 0 1 0.97145575 -0.017152349 0.23659977 3.819445 0.016814968 0.9998527 0.0034438893 0 -0.236624 0.00063283194 0.97160107 0 0 0 0 1 0.9659236 -0.022831634 0.25781825 3.819445 0.02233228 0.99973875 0.004865407 0 -0.257862 0.0010580586 0.96618116 0 0 0 0 1 0.9589785 -0.027637418 0.28212848 3.819445 0.026935678 0.9996169 0.006366238 0 -0.28219637 0.0014942363 0.9593555 0 0 0 0 1 0.9506512 -0.031360872 0.30867255 3.819445 0.030407606 0.99950635 0.007899517 0 -0.3087679 0.0018763067 0.9511356 0 0 0 0 1 0.94096607 -0.033798806 0.3368093 3.819445 0.032535523 0.9994264 0.009395821 0 -0.3369337 0.0021171186 0.941526 0 0 0 0 1 0.93009603 -0.03472047 0.36567172 3.819445 0.03315046 0.9993944 0.010573234 0 -0.3658174 0.0022880621 0.93068385 0 0 0 0 1 0.91830456 -0.03389226 0.39442107 3.819445 0.032102466 0.99942255 0.0111374445 0 -0.3945708 0.002434323 0.91886234 0 0 0 0 1 0.9059366 -0.03138016 0.422249 3.819445 0.029480834 0.9995045 0.011028673 0 -0.42238584 0.0024569742 0.9064128 0 0 0 0 1 0.8934153 -0.027545398 0.4483864 3.819445 0.025667103 0.9996178 0.010266788 0 -0.44849786 0.0023362748 0.8937808 0 0 0 0 1 0.88124925 -0.022631034 0.47210976 3.819445 0.020919662 0.9997418 0.008874532 0 -0.47218868 0.0020557032 0.8814951 0 0 0 0 1 0.8700135 -0.016876213 0.492739 3.819445 0.015486325 0.9998563 0.006901172 0 -0.49278465 0.0016266042 0.8701498 0 0 0 0 1 0.8603296 -0.010514825 0.50962967 3.819445 0.009601665 0.99994415 0.0044221133 0 -0.50964767 0.0010888178 0.8603825 0 0 0 0 1 0.8524949 -0.0037746467 0.52272195 3.819445 0.0034848205 0.9999927 0.0015377733 0 -0.522724 0.00051064807 0.85250187 0 0 0 0 1 0.84829617 0.003120622 0.5295128 3.819445 -0.0026578058 0.9999951 -0.0016354661 0 -0.5295153 -1.9982574E-05 0.84830034 0 0 0 0 1 0.8499163 0.009898892 0.5268248 3.819445 -0.008709332 0.9999508 -0.0047382023 0 -0.52684575 -0.0005612166 0.8499607 0 0 0 0 1 0.85661775 0.0162926 0.5156943 3.819445 -0.014554114 0.9998666 -0.007413528 0 -0.5157463 -0.0011549138 0.8567406 0 0 0 0 1 0.86682844 0.022086259 0.49811703 3.819445 -0.019988876 0.99975467 -0.009543765 0 -0.4982056 -0.0016839928 0.86705726 0 0 0 0 1 0.87897545 0.027054343 0.47609892 3.819445 -0.024780702 0.9996318 -0.011053908 0 -0.47622266 -0.002081952 0.8793223 0 0 0 0 1 0.8917939 0.030962467 0.45138124 3.819445 -0.02867566 0.99951786 -0.011907362 0 -0.45153227 -0.0023247413 0.8922518 0 0 0 0 1 0.90391016 0.033567805 0.4264031 3.819445 -0.031400178 0.99943346 -0.01211494 0 -0.4265682 -0.0024383161 0.9044521 0 0 0 0 1 0.9144581 0.034625407 0.4031965 3.819445 -0.032678876 0.99939734 -0.011709122 0 -0.40335894 -0.0024685054 0.9150385 0 0 0 0 1 0.92548656 0.03390644 0.37725988 3.819445 -0.032285493 0.99942225 -0.010621483 0 -0.37740204 -0.002349982 0.92604655 0 0 0 0 1 0.9384149 0.031377144 0.3440828 3.819445 -0.030176645 0.99950546 -0.008845005 0 -0.34419015 -0.0020829812 0.93889767 0 0 0 0 1 0.9513803 0.027419087 0.30679587 3.819445 -0.026634388 0.99962246 -0.0067448816 0 -0.306865 -0.0017543738 0.9517514 0 0 0 0 1 0.9625112 0.022423225 0.27031362 3.819445 -0.021967953 0.9997476 -0.0047099525 0 -0.270351 -0.0014048548 0.9627608 0 0 0 0 1 0.9625112 0.022423225 0.27031362 3.819445 -0.021967953 0.9997476 -0.0047099525 0 -0.270351 -0.0014048548 0.9627608 0 0 0 0 1</float_array>
        <technique_common>
          <accessor source="#Motion_2_2_Spine2_transform_pose_array_id" count="31" stride="16">
            <param name="TRANSFORM" type="float4x4" />
          </accessor>
        </technique_common>
      </source>
      <sampler id="Motion_2_2_Spine2_transform_samp_id">
        <input semantic="INPUT" source="#Motion_2_2_Spine2_transform_frame_id" />
        <input semantic="INTERPOLATION" source="#Motion_2_2_Spine2_transform_interp_id" />
        <input semantic="OUTPUT" source="#Motion_2_2_Spine2_transform_pose_id" />
      </sampler>
      <channel source="#Motion_2_2_Spine2_transform_samp_id" target="Spine2_bone_id/transform" />
    </animation>
    <animation id="Motion_2_2_Head_transform_id" name="Motion_2_2_Head_transform">
      <source id="Motion_2_2_Head_transform_frame_id" name="Motion_2_2_Head_transform_frame">
        <float_array id="Motion_2_2_Head_transform_frame_array_id" count="31">0 0.033333335 0.06666667 0.1 0.13333334 0.16666667 0.2 0.23333333 0.26666668 0.3 0.33333334 0.36666667 0.4 0.43333334 0.46666667 0.5 0.53333336 0.56666666 0.6 0.6333333 0.6666667 0.7 0.73333335 0.76666665 0.8 0.8333333 0.8666667 0.9 0.93333334 0.96666664 1</float_array>
        <technique_common>
          <accessor source="#Motion_2_2_Head_transform_frame_array_id" count="31" stride="1">
            <param name="TIME" type="float" />
          </accessor>
        </technique_common>
      </source>
      <source id="Motion_2_2_Head_transform_interp_id" name="Motion_2_2_Head_transform_interp">
        <Name_array id="Motion_2_2_Head_transform_interp_array_id" count="31">LINEAR LINEAR LINEAR LINEAR LINEAR LINEAR LINEAR LINEAR LINEAR LINEAR LINEAR LINEAR LINEAR LINEAR LINEAR LINEAR LINEAR LINEAR LINEAR LINEAR LINEAR LINEAR LINEAR LINEAR LINEAR LINEAR LINEAR LINEAR LINEAR LINEAR LINEAR</Name_array>
        <technique_common>
          <accessor source="#Motion_2_2_Head_transform_interp_array_id" count="31" stride="1">
            <param name="INTERPOLATION" type="Name" />
          </accessor>
        </technique_common>
      </source>
      <source id="Motion_2_2_Head_transform_pose_id" name="Motion_2_2_Head_transform_pose">
        <float_array id="Motion_2_2_Head_transform_pose_array_id" count="496">0.7008474 0.018398825 0.7130739 5.334749 0.016297359 0.99899334 -0.041794073 0 -0.71312505 0.04091249 0.699842 0 0 0 0 1 0.68027395 0.010354475 0.7328848 5.334749 0.029701628 0.9986895 -0.04167933 0 -0.7323559 0.050121233 0.6790749 0 0 0 0 1 0.6613801 0.0023416188 0.75004727 5.334749 0.041945294 0.99831474 -0.040103413 0 -0.7488771 0.057984553 0.6601673 0 0 0 0 1 0.6462464 -0.0055594034 0.76310855 5.334749 0.052261695 0.99794817 -0.0369881 0 -0.7613372 0.06378477 0.645211 0 0 0 0 1 0.63644826 -0.013279067 0.77120507 5.334749 0.059933044 0.99768025 -0.03228197 0 -0.7689874 0.06676647 0.6357677 0 0 0 0 1 0.632606 -0.020554973 0.7742009 5.334749 0.06442704 0.9975795 -0.026158217 0 -0.7717893 0.06642732 0.6323991 0 0 0 0 1 0.6353679 -0.026791653 0.7717447 5.334749 0.0655125 0.99766505 -0.019301 0 -0.76942563 0.06282216 0.63563955 0 0 0 0 1 0.64462936 -0.031671684 0.76383895 5.334749 0.063374296 0.9979164 -0.01210627 0 -0.761864 0.056211814 0.64529335 0 0 0 0 1 0.65914404 -0.035250403 0.75119007 5.334749 0.058667623 0.9982668 -0.0046341196 0 -0.74972475 0.04712509 0.6600697 0 0 0 0 1 0.67770714 -0.037410945 0.73437965 5.334749 0.05187004 0.9986493 0.003006231 0 -0.73350024 0.036054958 0.6787323 0 0 0 0 1 0.6990993 -0.03804621 0.71401167 5.334749 0.043435253 0.9989989 0.010703708 0 -0.7137041 0.023530323 0.70005196 0 0 0 0 1 0.72213197 -0.037085544 0.69076055 5.334749 0.03379145 0.99926096 0.0183222 0 -0.6909295 0.0101107545 0.72285146 0 0 0 0 1 0.74568844 -0.034514785 0.6654003 5.334749 0.023339167 0.99939764 0.025684157 0 -0.665886 -0.003622489 0.74604475 0 0 0 0 1 0.76875734 -0.030389084 0.6388182 5.334749 0.012449181 0.9993922 0.032560464 0 -0.6394194 -0.017078333 0.7686684 0 0 0 0 1 0.790458 -0.02483782 0.6120124 5.334749 0.001461355 0.9992511 0.03866601 0 -0.6125145 -0.029669492 0.7899023 0 0 0 0 1 0.8100533 -0.01811234 0.58607644 5.334749 -0.009365054 0.99899566 0.043817393 0 -0.5862815 -0.04098306 0.8090701 0 0 0 0 1 0.8269476 -0.010538287 0.5621802 5.334749 -0.019809697 0.99865764 0.0478596 0 -0.5619299 -0.050714 0.82562876 0 0 0 0 1 0.8406682 -0.002438169 0.54154503 5.334749 -0.029621731 0.9982858 0.050477866 0 -0.5407398 -0.058476638 0.8391549 0 0 0 0 1 0.8508333 0.0056440737 0.5254054 5.334749 -0.0383498 0.99794245 0.05138285 0 -0.5240344 -0.063867435 0.8492991 0 0 0 0 1 0.8570965 0.013222855 0.51498616 5.334749 -0.04558223 0.99769616 0.05024597 0 -0.5131353 -0.06653986 0.8557246 0 0 0 0 1 0.8590642 0.020075936 0.51147395 5.334749 -0.051103864 0.997602 0.046676297 0 -0.5093103 -0.06623623 0.8580302 0 0 0 0 1 0.85646516 0.02606212 0.5155465 5.334749 -0.054633405 0.99769187 0.04032545 0 -0.5133056 -0.0627034 0.8559122 0 0 0 0 1 0.84970176 0.031071356 0.5263474 5.334749 -0.05589947 0.9979447 0.031329848 0 -0.5242921 -0.056043565 0.8496922 0 0 0 0 1 0.8392197 0.03489156 0.542672 5.334749 -0.054765463 0.99828863 0.020506691 0 -0.5410277 -0.046929304 0.8396943 0 0 0 0 1 0.82541186 0.037349217 0.5632941 5.334749 -0.051088795 0.9986567 0.008646022 0 -0.56221455 -0.035914548 0.8262112 0 0 0 0 1 0.8086839 0.0382585 0.586998 5.334749 -0.044774413 0.99899125 -0.003426861 0 -0.586537 -0.023511242 0.80958116 0 0 0 0 1 0.7895049 0.037349816 0.6126067 5.334749 -0.03574739 0.9992505 -0.014853055 0 -0.6127023 -0.010172531 0.79024833 0 0 0 0 1 0.7684229 0.034694448 0.63900125 5.334749 -0.024404127 0.9993917 -0.024914904 0 -0.6394769 0.003550917 0.7688021 0 0 0 0 1 0.746101 0.03053698 0.6651321 5.334749 -0.011454147 0.9993886 -0.033034574 0 -0.66573423 0.017028607 0.7459946 0 0 0 0 1 0.7233407 0.025040755 0.6900371 5.334749 0.0023411755 0.9992475 -0.03871586 0 -0.6904873 0.029620254 0.7227378 0 0 0 0 1 0.7233407 0.025040755 0.6900371 5.334749 0.0023411755 0.9992475 -0.03871586 0 -0.6904873 0.029620254 0.7227378 0 0 0 0 1</float_array>
        <technique_common>
          <accessor source="#Motion_2_2_Head_transform_pose_array_id" count="31" stride="16">
            <param name="TRANSFORM" type="float4x4" />
          </accessor>
        </technique_common>
      </source>
      <sampler id="Motion_2_2_Head_transform_samp_id">
        <input semantic="INPUT" source="#Motion_2_2_Head_transform_frame_id" />
        <input semantic="INTERPOLATION" source="#Motion_2_2_Head_transform_interp_id" />
        <input semantic="OUTPUT" source="#Motion_2_2_Head_transform_pose_id" />
      </sampler>
      <channel source="#Motion_2_2_Head_transform_samp_id" target="Head_bone_id/transform" />
    </animation>
    <animation id="Motion_2_2_Nose_transform_id" name="Motion_2_2_Nose_transform">
      <source id="Motion_2_2_Nose_transform_frame_id" name="Motion_2_2_Nose_transform_frame">
        <float_array id="Motion_2_2_Nose_transform_frame_array_id" count="31">0 0.033333335 0.06666667 0.1 0.13333334 0.16666667 0.2 0.23333333 0.26666668 0.3 0.33333334 0.36666667 0.4 0.43333334 0.46666667 0.5 0.53333336 0.56666666 0.6 0.6333333 0.6666667 0.7 0.73333335 0.76666665 0.8 0.8333333 0.8666667 0.9 0.93333334 0.96666664 1</float_array>
        <technique_common>
          <accessor source="#Motion_2_2_Nose_transform_frame_array_id" count="31" stride="1">
            <param name="TIME" type="float" />
          </accessor>
        </technique_common>
      </source>
      <source id="Motion_2_2_Nose_transform_interp_id" name="Motion_2_2_Nose_transform_interp">
        <Name_array id="Motion_2_2_Nose_transform_interp_array_id" count="31">LINEAR LINEAR LINEAR LINEAR LINEAR LINEAR LINEAR LINEAR LINEAR LINEAR LINEAR LINEAR LINEAR LINEAR LINEAR LINEAR LINEAR LINEAR LINEAR LINEAR LINEAR LINEAR LINEAR LINEAR LINEAR LINEAR LINEAR LINEAR LINEAR LINEAR LINEAR</Name_array>
        <technique_common>
          <accessor source="#Motion_2_2_Nose_transform_interp_array_id" count="31" stride="1">
            <param name="INTERPOLATION" type="Name" />
          </accessor>
        </technique_common>
      </source>
      <source id="Motion_2_2_Nose_transform_pose_id" name="Motion_2_2_Nose_transform_pose">
        <float_array id="Motion_2_2_Nose_transform_pose_array_id" count="496">-0.3760879 -2.0012449E-06 0.9265838 2.302229 2.2045415E-06 -0.99999976 -1.2650154E-06 0 0.9265838 1.5669353E-06 0.37608814 3.144737 0 0 0 1 -0.35040987 -0.00019436365 0.9365965 2.302229 0.0001945711 -1 -0.00013472613 0 0.9365965 0.00013502523 0.3504098 3.144737 0 0 0 1 -0.3252896 -0.00023660056 0.9456145 2.302229 0.000236812 -1 -0.00016874539 0 0.9456145 0.00016904173 0.32528955 3.144737 0 0 0 1 -0.30175185 -0.00012638736 0.9533866 2.302229 0.00012660243 -1 -9.2496426E-05 0 0.9533866 9.27901E-05 0.30175173 3.144737 0 0 0 1 -0.28084517 7.955098E-05 0.9597532 2.302229 -7.933273E-05 -1.0000002 5.967241E-05 0 0.9597532 -5.938113E-05 0.280845 3.144737 0 0 0 1 -0.26362872 0.0002833096 0.96462417 2.302229 -0.00028308877 -0.9999999 0.00021633219 0 0.96462417 -0.0002160429 0.26362884 3.144737 0 0 0 1 -0.25116265 0.00037016283 0.9679448 2.302229 -0.00036994013 -0.99999976 0.00028642916 0 0.9679448 -0.00028614132 0.25116283 3.144737 0 0 0 1 -0.24449623 0.00023376502 0.9696503 2.302229 -0.00023354133 -1 0.0001821946 0 0.9696503 -0.00018190753 0.24449617 3.144737 0 0 0 1 -0.24459064 -0.00012056536 0.9696264 2.302229 0.00012078907 -1 -9.3872724E-05 0 0.9696264 9.415988E-05 0.2445907 3.144737 0 0 0 1 -0.25131583 -0.00033078724 0.9679052 2.302229 0.00033100994 -1 -0.00025580937 0 0.9679052 0.00025609732 0.2513157 3.144737 0 0 0 1 -0.2636826 -0.00048668464 0.9646093 2.302229 0.00048690554 -0.99999976 -0.0003714416 0 0.9646093 0.000371731 0.26368278 3.144737 0 0 0 1 -0.28071976 -0.0005746666 0.95978963 2.302229 0.0005748849 -0.99999976 -0.00043059944 0 0.95978963 0.00043089077 0.28072 3.144737 0 0 0 1 -0.30144536 -0.0005696839 0.9534833 2.302229 0.00056989904 -0.99999976 -0.0004173019 0 0.9534833 0.00041759555 0.30144554 3.144737 0 0 0 1 -0.32487762 -0.00046301974 0.94575584 2.302229 0.00046323126 -0.99999976 -0.00033045118 0 0.94575584 0.00033074745 0.32487792 3.144737 0 0 0 1 -0.35004652 -0.00028248536 0.93673235 2.302229 0.00028269287 -1 -0.00019592546 0 0.93673235 0.00019622453 0.35004646 3.144737 0 0 0 1 -0.37596083 -7.0424474E-05 0.92663544 2.302229 7.062779E-05 -0.9999999 -4.734459E-05 0 0.92663544 4.7646507E-05 0.37596095 3.144737 0 0 0 1 -0.40157926 0.00014267841 0.9158243 2.302229 -0.00014247932 -1 9.331666E-05 0 0.9158243 -9.301197E-05 0.40157926 3.144737 0 0 0 1 -0.42590773 0.0002471818 0.9047667 2.302229 -0.0002469868 -1 0.00015693353 0 0.9047667 -0.00015662622 0.42590767 3.144737 0 0 0 1 -0.44807768 0.00022616882 0.8939946 2.302229 -0.00022597764 -1 0.00013972489 0 0.8939946 -0.00013941519 0.44807768 3.144737 0 0 0 1 -0.46734118 0.0001978503 0.88407695 2.302229 -0.00019766246 -0.9999999 0.00011930462 0 0.88407695 -0.00011899287 0.4673413 3.144737 0 0 0 1 -0.48294914 0.00016687113 0.8756483 2.302229 -0.00016668606 -0.9999999 9.863574E-05 0 0.8756483 -9.8322336E-05 0.48294926 3.144737 0 0 0 1 -0.49417078 0.00011927842 0.8693648 2.302229 -0.00011909537 -1 6.950472E-05 0 0.8693648 -6.919012E-05 0.49417084 3.144737 0 0 0 1 -0.50027275 5.0551545E-05 0.8658678 2.302229 -5.0369603E-05 -0.9999999 2.928045E-05 0 0.8658678 -2.8965209E-05 0.50027287 3.144737 0 0 0 1 -0.50049186 3.731846E-07 0.86574125 2.302229 -1.9128174E-07 -1 3.2047643E-07 0 0.86574125 -5.2046545E-09 0.50049186 3.144737 0 0 0 1 -0.49456894 -6.4342996E-05 0.8691384 2.302229 6.452597E-05 -1 -3.7313333E-05 0 0.8691384 3.762799E-05 0.49456894 3.144737 0 0 0 1 -0.48333156 -0.00021234475 0.87543744 2.302229 0.00021252976 -1 -0.00012522016 0 0.87543744 0.00012553364 0.4833315 3.144737 0 0 0 1 -0.46758568 -0.0003701064 0.8839478 2.302229 0.00037029423 -1 -0.000222821 0 0.8839478 0.00022313285 0.46758562 3.144737 0 0 0 1 -0.44813728 -0.0004575175 0.8939644 2.302229 0.00045770872 -0.9999995 -0.00028233894 0 0.8939644 0.00028264872 0.4481377 3.144737 0 0 0 1 -0.42581773 -0.00041935072 0.90480876 2.302229 0.00041954577 -0.99999976 -0.0002660237 0 0.90480876 0.0002663311 0.42581797 3.144737 0 0 0 1 -0.4014963 -0.00024890542 0.91586053 2.302229 0.00024910455 -0.99999976 -0.00016256933 0 0.91586053 0.00016287404 0.40149647 3.144737 0 0 0 1 -0.4014963 -0.00024890542 0.91586053 2.302229 0.00024910455 -0.99999976 -0.00016256933 0 0.91586053 0.00016287404 0.40149647 3.144737 0 0 0 1</float_array>
        <technique_common>
          <accessor source="#Motion_2_2_Nose_transform_pose_array_id" count="31" stride="16">
            <param name="TRANSFORM" type="float4x4" />
          </accessor>
        </technique_common>
      </source>
      <sampler id="Motion_2_2_Nose_transform_samp_id">
        <input semantic="INPUT" source="#Motion_2_2_Nose_transform_frame_id" />
        <input semantic="INTERPOLATION" source="#Motion_2_2_Nose_transform_interp_id" />
        <input semantic="OUTPUT" source="#Motion_2_2_Nose_transform_pose_id" />
      </sampler>
      <channel source="#Motion_2_2_Nose_transform_samp_id" target="Nose_bone_id/transform" />
    </animation>
    <animation id="Motion_2_2_FeelerA2_transform_id" name="Motion_2_2_FeelerA2_transform">
      <source id="Motion_2_2_FeelerA2_transform_frame_id" name="Motion_2_2_FeelerA2_transform_frame">
        <float_array id="Motion_2_2_FeelerA2_transform_frame_array_id" count="31">0 0.033333335 0.06666667 0.1 0.13333334 0.16666667 0.2 0.23333333 0.26666668 0.3 0.33333334 0.36666667 0.4 0.43333334 0.46666667 0.5 0.53333336 0.56666666 0.6 0.6333333 0.6666667 0.7 0.73333335 0.76666665 0.8 0.8333333 0.8666667 0.9 0.93333334 0.96666664 1</float_array>
        <technique_common>
          <accessor source="#Motion_2_2_FeelerA2_transform_frame_array_id" count="31" stride="1">
            <param name="TIME" type="float" />
          </accessor>
        </technique_common>
      </source>
      <source id="Motion_2_2_FeelerA2_transform_interp_id" name="Motion_2_2_FeelerA2_transform_interp">
        <Name_array id="Motion_2_2_FeelerA2_transform_interp_array_id" count="31">LINEAR LINEAR LINEAR LINEAR LINEAR LINEAR LINEAR LINEAR LINEAR LINEAR LINEAR LINEAR LINEAR LINEAR LINEAR LINEAR LINEAR LINEAR LINEAR LINEAR LINEAR LINEAR LINEAR LINEAR LINEAR LINEAR LINEAR LINEAR LINEAR LINEAR LINEAR</Name_array>
        <technique_common>
          <accessor source="#Motion_2_2_FeelerA2_transform_interp_array_id" count="31" stride="1">
            <param name="INTERPOLATION" type="Name" />
          </accessor>
        </technique_common>
      </source>
      <source id="Motion_2_2_FeelerA2_transform_pose_id" name="Motion_2_2_FeelerA2_transform_pose">
        <float_array id="Motion_2_2_FeelerA2_transform_pose_array_id" count="496">0.6388491 6.067035E-07 -0.76933205 2.777654 -1.8620535E-06 1 -7.5762813E-07 0 0.76933205 1.9165475E-06 0.6388491 0 0 0 0 1 0.65241766 6.245202E-07 -0.7578596 2.777654 -1.8576682E-06 1 -7.7515057E-07 0 0.7578596 1.9135737E-06 0.65241766 0 0 0 0 1 0.6891068 6.740165E-07 -0.7246598 2.777654 -1.8443393E-06 1 -8.2373856E-07 0 0.7246598 1.9041623E-06 0.6891068 0 0 0 0 1 0.7429564 7.5077384E-07 -0.66933984 2.777654 -1.8202782E-06 1 -8.988161E-07 0 0.66933984 1.8861658E-06 0.7429564 0 0 0 0 1 0.80598915 8.4883493E-07 -0.59193027 2.777654 -1.78334E-06 1 -9.94235E-07 0 0.59193027 1.8569556E-06 0.80598915 0 0 0 0 1 0.86978835 9.617635E-07 -0.49342498 2.777654 -1.731691E-06 1 -1.1033919E-06 0 0.49342498 1.814177E-06 0.86978835 0 0 0 0 1 0.9263766 1.0827773E-06 -0.37659845 2.777654 -1.6645602E-06 1 -1.2194215E-06 0 0.37659845 1.7565143E-06 0.9263766 0 0 0 0 1 0.9692001 1.2050828E-06 -0.24627472 2.777654 -1.5827488E-06 1 -1.3355718E-06 0 0.24627472 1.6842273E-06 0.9692001 0 0 0 0 1 0.99403816 1.3223527E-06 -0.10903261 2.777654 -1.488858E-06 1 -1.4457041E-06 0 0.10903261 1.5994192E-06 0.99403816 0 0 0 0 1 0.9996206 1.4292378E-06 0.027542528 2.777654 -1.3872165E-06 1 -1.5447986E-06 0 -0.027542528 1.506005E-06 0.9996206 0 0 0 0 1 0.9877843 1.5217736E-06 0.15582731 2.777654 -1.283558E-06 1 -1.629336E-06 0 -0.15582731 1.409419E-06 0.9877843 0 0 0 0 1 0.96296257 1.5979381E-06 0.26963505 2.777654 -1.18401E-06 1 -1.6977791E-06 0 -0.26963505 1.3156472E-06 0.96296257 0 0 0 0 1 0.93136597 1.6570157E-06 0.36408442 2.777654 -1.0950521E-06 1 -1.7499277E-06 0 -0.36408442 1.2311317E-06 0.93136597 0 0 0 0 1 0.90035623 1.698964E-06 0.43515357 2.777654 -1.0236507E-06 1 -1.786297E-06 0 -0.43515357 1.1628584E-06 0.90035623 0 0 0 0 1 0.8773288 1.7242271E-06 0.47988972 2.777654 -9.764324E-07 1 -1.8078631E-06 0 -0.47988972 1.1175107E-06 0.8773288 0 0 0 0 1 0.86858964 1.7328452E-06 0.4955321 2.777654 -9.59463E-07 1 -1.8151512E-06 0 -0.4955321 1.1011767E-06 0.86858964 0 0 0 0 1 0.8773231 1.724233E-06 0.47990018 2.777654 -9.76421E-07 1 -1.8078681E-06 0 -0.47990018 1.1174998E-06 0.8773231 0 0 0 0 1 0.90034705 1.6989749E-06 0.43517265 2.777654 -1.023631E-06 1 -1.7863066E-06 0 -0.43517265 1.1628396E-06 0.90034705 0 0 0 0 1 0.9313781 1.6569968E-06 0.3640532 2.777654 -1.0950826E-06 1 -1.7499113E-06 0 -0.3640532 1.2311608E-06 0.9313781 0 0 0 0 1 0.9630202 1.5978052E-06 0.26942924 2.777654 -1.1841972E-06 1 -1.6976608E-06 0 -0.26942924 1.3158242E-06 0.9630202 0 0 0 0 1 0.9878746 1.5213757E-06 0.15525375 2.777654 -1.2840405E-06 1 -1.6289756E-06 0 -0.15525375 1.4098715E-06 0.9878746 0 0 0 0 1 0.99963635 1.4288055E-06 0.026966104 2.777654 -1.3876636E-06 1 -1.5444004E-06 0 -0.026966104 1.506419E-06 0.99963635 0 0 0 0 1 0.99401903 1.3222103E-06 -0.10920674 2.777654 -1.4889821E-06 1 -1.4455715E-06 0 0.10920674 1.5995325E-06 0.99401903 0 0 0 0 1 0.9692167 1.2051414E-06 -0.2462093 2.777654 -1.5827061E-06 1 -1.3356271E-06 0 0.2462093 1.6841891E-06 0.9692167 0 0 0 0 1 0.9264459 1.0829453E-06 -0.37642798 2.777654 -1.6644578E-06 1 -1.2195819E-06 0 0.37642798 1.756425E-06 0.9264459 0 0 0 0 1 0.86989015 9.619594E-07 -0.49324545 2.777654 -1.7315926E-06 1 -1.1035805E-06 0 0.49324545 1.8140942E-06 0.86989015 0 0 0 0 1 0.806088 8.489975E-07 -0.5917957 2.777654 -1.7832728E-06 1 -9.943926E-07 0 0.5917957 1.8569012E-06 0.806088 0 0 0 0 1 0.74302185 7.5087064E-07 -0.6692671 2.777654 -1.8202452E-06 1 -8.989107E-07 0 0.6692671 1.8861406E-06 0.74302185 0 0 0 0 1 0.6891297 6.740479E-07 -0.724638 2.777654 -1.84433E-06 1 -8.2376937E-07 0 0.724638 1.9041556E-06 0.6891297 0 0 0 0 1 0.65241766 6.245202E-07 -0.7578596 2.777654 -1.8576682E-06 1 -7.7515057E-07 0 0.7578596 1.9135737E-06 0.65241766 0 0 0 0 1 0.65241766 6.245202E-07 -0.7578596 2.777654 -1.8576682E-06 1 -7.7515057E-07 0 0.7578596 1.9135737E-06 0.65241766 0 0 0 0 1</float_array>
        <technique_common>
          <accessor source="#Motion_2_2_FeelerA2_transform_pose_array_id" count="31" stride="16">
            <param name="TRANSFORM" type="float4x4" />
          </accessor>
        </technique_common>
      </source>
      <sampler id="Motion_2_2_FeelerA2_transform_samp_id">
        <input semantic="INPUT" source="#Motion_2_2_FeelerA2_transform_frame_id" />
        <input semantic="INTERPOLATION" source="#Motion_2_2_FeelerA2_transform_interp_id" />
        <input semantic="OUTPUT" source="#Motion_2_2_FeelerA2_transform_pose_id" />
      </sampler>
      <channel source="#Motion_2_2_FeelerA2_transform_samp_id" target="FeelerA2_bone_id/transform" />
    </animation>
    <animation id="Motion_2_2_FeelerB2_transform_id" name="Motion_2_2_FeelerB2_transform">
      <source id="Motion_2_2_FeelerB2_transform_frame_id" name="Motion_2_2_FeelerB2_transform_frame">
        <float_array id="Motion_2_2_FeelerB2_transform_frame_array_id" count="31">0 0.033333335 0.06666667 0.1 0.13333334 0.16666667 0.2 0.23333333 0.26666668 0.3 0.33333334 0.36666667 0.4 0.43333334 0.46666667 0.5 0.53333336 0.56666666 0.6 0.6333333 0.6666667 0.7 0.73333335 0.76666665 0.8 0.8333333 0.8666667 0.9 0.93333334 0.96666664 1</float_array>
        <technique_common>
          <accessor source="#Motion_2_2_FeelerB2_transform_frame_array_id" count="31" stride="1">
            <param name="TIME" type="float" />
          </accessor>
        </technique_common>
      </source>
      <source id="Motion_2_2_FeelerB2_transform_interp_id" name="Motion_2_2_FeelerB2_transform_interp">
        <Name_array id="Motion_2_2_FeelerB2_transform_interp_array_id" count="31">LINEAR LINEAR LINEAR LINEAR LINEAR LINEAR LINEAR LINEAR LINEAR LINEAR LINEAR LINEAR LINEAR LINEAR LINEAR LINEAR LINEAR LINEAR LINEAR LINEAR LINEAR LINEAR LINEAR LINEAR LINEAR LINEAR LINEAR LINEAR LINEAR LINEAR LINEAR</Name_array>
        <technique_common>
          <accessor source="#Motion_2_2_FeelerB2_transform_interp_array_id" count="31" stride="1">
            <param name="INTERPOLATION" type="Name" />
          </accessor>
        </technique_common>
      </source>
      <source id="Motion_2_2_FeelerB2_transform_pose_id" name="Motion_2_2_FeelerB2_transform_pose">
        <float_array id="Motion_2_2_FeelerB2_transform_pose_array_id" count="496">0.9970863 0 -0.07628218 1.017844 0 1 0 0 0.07628218 0 0.9970863 0 0 0 0 1 0.99941665 0 0.03415153 1.017844 0 1 0 0 -0.03415153 0 0.99941665 0 0 0 0 1 0.99005365 0 0.14069033 1.017844 0 1 0 0 -0.14069033 0 0.99005365 0 0 0 0 1 0.97121817 0 0.23819175 1.017844 0 1 0 0 -0.23819175 0 0.97121817 0 0 0 0 1 0.9466719 0 0.32219917 1.017844 0 1 0 0 -0.32219917 0 0.9466719 0 0 0 0 1 0.9211928 0 0.38910642 1.017844 0 1 0 0 -0.38910642 0 0.9211928 0 0 0 0 1 0.89992833 0 0.4360379 1.017844 0 1 0 0 -0.4360379 0 0.89992833 0 0 0 0 1 0.8876866 0 0.46044815 1.017844 0 1 0 0 -0.46044815 0 0.8876866 0 0 0 0 1 0.8878686 0 0.46009713 1.017844 0 1 0 0 -0.46009713 0 0.8878686 0 0 0 0 1 0.900019 0 0.43585068 1.017844 0 1 0 0 -0.43585068 0 0.900019 0 0 0 0 1 0.9210898 0 0.38935015 1.017844 0 1 0 0 -0.38935015 0 0.9210898 0 0 0 0 1 0.94645655 0 0.32283124 1.017844 0 1 0 0 -0.32283124 0 0.94645655 0 0 0 0 1 0.9710023 0 0.23907018 1.017844 0 1 0 0 -0.23907018 0 0.9710023 0 0 0 0 1 0.9899297 0 0.1415599 1.017844 0 1 0 0 -0.1415599 0 0.9899297 0 0 0 0 1 0.9993997 0 0.034643713 1.017844 0 1 0 0 -0.034643713 0 0.9993997 0 0 0 0 1 0.9970595 0 -0.0766311 1.017844 0 1 0 0 0.0766311 0 0.9970595 0 0 0 0 1 0.98238206 0 -0.18688376 1.017844 0 1 0 0 0.18688376 0 0.98238206 0 0 0 0 1 0.9567576 0 -0.29088637 1.017844 0 1 0 0 0.29088637 0 0.9567576 0 0 0 0 1 0.92332196 0 -0.38402674 1.017844 0 1 0 0 0.38402674 0 0.92332196 0 0 0 0 1 0.8865578 0 -0.46261787 1.017844 0 1 0 0 0.46261787 0 0.8865578 0 0 0 0 1 0.85142875 0 -0.52447027 1.017844 0 1 0 0 0.52447027 0 0.85142875 0 0 0 0 1 0.82321846 0 -0.56772476 1.017844 0 1 0 0 0.56772476 0 0.82321846 0 0 0 0 1 0.8073125 0 -0.5901242 1.017844 0 1 0 0 0.5901242 0 0.8073125 0 0 0 0 1 0.80754447 0 -0.5898067 1.017844 0 1 0 0 0.5898067 0 0.80754447 0 0 0 0 1 0.82324314 0 -0.56768894 1.017844 0 1 0 0 0.56768894 0 0.82324314 0 0 0 0 1 0.85119754 0 -0.5248455 1.017844 0 1 0 0 0.5248455 0 0.85119754 0 0 0 0 1 0.88648653 0 -0.46275437 1.017844 0 1 0 0 0.46275437 0 0.88648653 0 0 0 0 1 0.92354214 0 -0.38349694 1.017844 0 1 0 0 0.38349694 0 0.92354214 0 0 0 0 1 0.95704633 0 -0.28993505 1.017844 0 1 0 0 0.28993505 0 0.95704633 0 0 0 0 1 0.9825622 0 -0.18593438 1.017844 0 1 0 0 0.18593438 0 0.9825622 0 0 0 0 1 0.9825622 0 -0.18593438 1.017844 0 1 0 0 0.18593438 0 0.9825622 0 0 0 0 1</float_array>
        <technique_common>
          <accessor source="#Motion_2_2_FeelerB2_transform_pose_array_id" count="31" stride="16">
            <param name="TRANSFORM" type="float4x4" />
          </accessor>
        </technique_common>
      </source>
      <sampler id="Motion_2_2_FeelerB2_transform_samp_id">
        <input semantic="INPUT" source="#Motion_2_2_FeelerB2_transform_frame_id" />
        <input semantic="INTERPOLATION" source="#Motion_2_2_FeelerB2_transform_interp_id" />
        <input semantic="OUTPUT" source="#Motion_2_2_FeelerB2_transform_pose_id" />
      </sampler>
      <channel source="#Motion_2_2_FeelerB2_transform_samp_id" target="FeelerB2_bone_id/transform" />
    </animation>
  </library_animations>
  <library_visual_scenes>
    <visual_scene id="PM_HighPoly_00_clip_id" name="PM_HighPoly_00_clip">
      <node id="pm0010_00_bone_id" name="pm0010_00" sid="pm0010_00" type="JOINT">
        <matrix sid="transform">1 0 0 0 0 1 0 0 0 0 1 0 0 0 0 1</matrix>
        <node id="Origin_bone_id" name="Origin" sid="Origin" type="JOINT">
          <matrix sid="transform">1 0 0 0 0 1 0 0 0 0 1 0 0 0 0 1</matrix>
          <node id="Waist_bone_id" name="Waist" sid="Waist" type="JOINT">
            <matrix sid="transform">3.1105327E-07 -1 -4.230144E-08 0 0.9908791 3.1391647E-07 -0.13475381 -1.845401 0.13475381 0 0.9908791 -1.326753 0 0 0 1</matrix>
            <node id="Hips_bone_id" name="Hips" sid="Hips" type="JOINT">
              <matrix sid="transform">-1 -3.2584137E-07 0 0 3.2584137E-07 -1 0 0 0 0 1 0 0 0 0 1</matrix>
              <node id="Tail1_bone_id" name="Tail1" sid="Tail1" type="JOINT">
                <matrix sid="transform">1 0 0 3.383535 0 1 0 0 0 0 1 0 0 0 0 1</matrix>
                <node id="Tail2_bone_id" name="Tail2" sid="Tail2" type="JOINT">
                  <matrix sid="transform">0.99453276 0 0.104425274 3.122913 0 1 0 0 -0.104425274 0 0.99453276 0 0 0 0 1</matrix>
                  <node id="Tail3_bone_id" name="Tail3" sid="Tail3" type="JOINT">
                    <matrix sid="transform">0.9822583 0 0.18753302 2.840044 0 1 0 0 -0.18753302 0 0.9822583 0 0 0 0 1</matrix>
                  </node>
                </node>
              </node>
            </node>
            <node id="Spine1_bone_id" name="Spine1" sid="Spine1" type="JOINT">
              <matrix sid="transform">1 0 0 0 0 1 0 0 0 0 1 0 0 0 0 1</matrix>
              <node id="Spine2_bone_id" name="Spine2" sid="Spine2" type="JOINT">
                <matrix sid="transform">0.99780047 0 0.06628936 3.819445 0 1 0 0 -0.06628936 0 0.99780047 0 0 0 0 1</matrix>
                <node id="Head_bone_id" name="Head" sid="Head" type="JOINT">
                  <matrix sid="transform">0.95492214 0 -0.29685643 5.334749 0 1 0 0 0.29685643 0 0.95492214 0 0 0 0 1</matrix>
                  <node id="Nose_bone_id" name="Nose" sid="Nose" type="JOINT">
                    <matrix sid="transform">-0.37608668 3.2584137E-07 0.9265845 2.302229 -1.225446E-07 -1 3.0191956E-07 0 0.9265845 0 0.37608668 3.144737 0 0 0 1</matrix>
                  </node>
                </node>
                <node id="FeelerA1_bone_id" name="FeelerA1" sid="FeelerA1" type="JOINT">
                  <matrix sid="transform">-0.109946646 3.2584137E-07 0.9939375 2.720342 -3.5825167E-08 -1 3.2386595E-07 0 0.9939375 0 0.109946646 -1.534698 0 0 0 1</matrix>
                  <node id="FeelerA2_bone_id" name="FeelerA2" sid="FeelerA2" type="JOINT">
                    <matrix sid="transform">0.98390394 -5.3609403E-07 -0.178698 2.777654 0 1 -3E-06 0 0.178698 2.9517118E-06 0.98390394 0 0 0 0 1</matrix>
                    <node id="LFeelerA_bone_id" name="LFeelerA" sid="LFeelerA" type="JOINT">
                      <matrix sid="transform">0.8035317 -0.5449949 0.23941055 0.63685 0.5223045 0.8384394 0.1556195 1.915195 -0.28554305 0 0.95836586 -0.175914 0 0 0 1</matrix>
                    </node>
                    <node id="RFeelerA_bone_id" name="RFeelerA" sid="RFeelerA" type="JOINT">
                      <matrix sid="transform">0.8035319 0.54499453 0.23941068 0.636853 -0.5223058 0.8384396 -0.15561399 -1.9152 -0.28554016 -4.791834E-06 0.95836675 -0.175904 0 0 0 1</matrix>
                    </node>
                  </node>
                </node>
              </node>
              <node id="FeelerB1_bone_id" name="FeelerB1" sid="FeelerB1" type="JOINT">
                <matrix sid="transform">0.058783434 3.252779E-07 0.99827075 1.978274 0 -1 3.2584137E-07 0 0.99827075 -1.9154074E-08 -0.058783434 -0.852686 0 0 0 1</matrix>
                <node id="FeelerB2_bone_id" name="FeelerB2" sid="FeelerB2" type="JOINT">
                  <matrix sid="transform">0.9970869 0 -0.07627385 1.017844 0 1 0 0 0.07627385 0 0.9970869 0 0 0 0 1</matrix>
                  <node id="LFeelerB_bone_id" name="LFeelerB" sid="LFeelerB" type="JOINT">
                    <matrix sid="transform">0.7079964 -0.67520607 0.20697297 1.577706 0.64808106 0.7376292 0.18945754 1.707554 -0.28059217 0 0.95982707 0 0 0 0 1</matrix>
                  </node>
                  <node id="RFeelerB_bone_id" name="RFeelerB" sid="RFeelerB" type="JOINT">
                    <matrix sid="transform">0.7079964 0.67520607 0.20697297 1.577705 -0.64808106 0.7376292 -0.18945754 -1.70755 -0.28059217 0 0.95982707 0 0 0 0 1</matrix>
                  </node>
                </node>
              </node>
            </node>
          </node>
        </node>
        <node id="pm0010_00_BodySkin_bone_id" name="pm0010_00_BodySkin" sid="pm0010_00_BodySkin" type="JOINT">
          <matrix sid="transform">1 0 0 0 0 1 0 0 0 0 1 0 0 0 0 1</matrix>
        </node>
      </node>
    </visual_scene>
  </library_visual_scenes>
  <scene>
    <instance_visual_scene url="#PM_HighPoly_00_clip_id" />
  </scene>
</COLLADA>