<?xml version="1.0" encoding="utf-8"?>
<COLLADA xmlns:xsi="http://www.w3.org/2001/XMLSchema-instance" xmlns:xsd="http://www.w3.org/2001/XMLSchema" version="1.4.1" xmlns="http://www.collada.org/2005/11/COLLADASchema">
  <asset>
    <created>2026-02-17T05:46:53.4739413-05:00</created>
    <modified>2026-02-17T05:46:53.4739415-05:00</modified>
    <up_axis>Y_UP</up_axis>
  </asset>
  <library_animations>
    <animation id="Motion_1_Waist_transform_id" name="Motion_1_Waist_transform">
      <source id="Motion_1_Waist_transform_frame_id" name="Motion_1_Waist_transform_frame">
        <float_array id="Motion_1_Waist_transform_frame_array_id" count="16">0 0.033333335 0.06666667 0.1 0.13333334 0.16666667 0.2 0.23333333 0.26666668 0.3 0.33333334 0.36666667 0.4 0.43333334 0.46666667 0.5</float_array>
        <technique_common>
          <accessor source="#Motion_1_Waist_transform_frame_array_id" count="16" stride="1">
            <param name="TIME" type="float" />
          </accessor>
        </technique_common>
      </source>
      <source id="Motion_1_Waist_transform_interp_id" name="Motion_1_Waist_transform_interp">
        <Name_array id="Motion_1_Waist_transform_interp_array_id" count="16">LINEAR LINEAR LINEAR LINEAR LINEAR LINEAR LINEAR LINEAR LINEAR LINEAR LINEAR LINEAR LINEAR LINEAR LINEAR LINEAR</Name_array>
        <technique_common>
          <accessor source="#Motion_1_Waist_transform_interp_array_id" count="16" stride="1">
            <param name="INTERPOLATION" type="Name" />
          </accessor>
        </technique_common>
      </source>
      <source id="Motion_1_Waist_transform_pose_id" name="Motion_1_Waist_transform_pose">
        <float_array id="Motion_1_Waist_transform_pose_array_id" count="256">0.048451126 -0.99114126 0.123659134 -2.8773065 0.9459651 0.0057920218 -0.32421672 102.822464 0.32062832 0.13268587 0.9378656 -11.281064 0 0 0 1 0.04746926 -0.9924147 0.11340107 -2.5880842 0.9387611 0.0055348873 -0.34452423 102.99753 0.34128326 0.12281083 0.931903 -9.901435 0 0 0 1 0.03328371 -0.99505585 0.093574554 -1.7901082 0.9377474 -0.0012946129 -0.3473157 103.63155 0.34571964 0.099309295 0.93306786 -9.783426 0 0 0 1 0.009066582 -0.9972945 0.07294956 -0.6241107 0.9471989 -0.014818311 -0.32030427 104.33345 0.32051864 0.07200182 0.94450176 -11.126718 0 0 0 1 -0.016717672 -0.99824035 0.056891993 0.76360226 0.9573488 -0.032396078 -0.2871127 104.710205 0.2884506 0.0496656 0.95620584 -12.8101845 0 0 0 1 -0.04234004 -0.998267 0.040871963 2.0927668 0.9592852 -0.052052498 -0.27760136 104.40603 0.27924776 0.027454227 0.9598265 -13.711091 0 0 0 1 -0.06713474 -0.9974988 0.022115618 3.0873137 0.9521243 -0.070675254 -0.2974298 103.61319 0.2982489 0.001088947 0.9544875 -13.344212 0 0 0 1 -0.085577965 -0.9962698 0.011086449 3.5784793 0.94188476 -0.08452439 -0.3251289 102.879486 0.32485318 -0.017381713 0.94560474 -11.871749 0 0 0 1 -0.0911839 -0.9957231 0.014869034 3.5022335 0.9351914 -0.09075248 -0.34231728 102.75374 0.3422026 -0.017308429 0.9394668 -10.2762985 0 0 0 1 -0.08112633 -0.99622345 0.030940622 2.9239023 0.9359788 -0.08681691 -0.34118396 103.24215 0.34258163 0.0012807548 0.9394872 -9.536957 0 0 0 1 -0.060316563 -0.9968711 0.05108732 1.9624395 0.9442984 -0.07357383 -0.32076085 103.95159 0.3235159 0.028894499 0.94578147 -10.297461 0 0 0 1 -0.035826087 -0.9969628 0.069150984 0.73014075 0.9546703 -0.054602504 -0.29261452 104.49081 0.2955016 0.055533193 0.9537268 -12.001971 0 0 0 1 -0.011857271 -0.996574 0.081851676 -0.5802741 0.96099955 -0.03397584 -0.27445474 104.518814 0.27629542 0.07540514 0.9581101 -13.465791 0 0 0 1 0.013640106 -0.994888 0.10005759 -1.7690804 0.96006423 -0.014935136 -0.27938038 103.95104 0.2794466 0.09987246 0.9549529 -13.790933 0 0 0 1 0.036703885 -0.99245214 0.117010534 -2.5852273 0.9528316 -0.0005440712 -0.30349892 103.23513 0.30127183 0.122630924 0.9456199 -12.878277 0 0 0 1 0.036703885 -0.99245214 0.117010534 -2.5852273 0.9528316 -0.0005440712 -0.30349892 103.23513 0.30127183 0.122630924 0.9456199 -12.878277 0 0 0 1</float_array>
        <technique_common>
          <accessor source="#Motion_1_Waist_transform_pose_array_id" count="16" stride="16">
            <param name="TRANSFORM" type="float4x4" />
          </accessor>
        </technique_common>
      </source>
      <sampler id="Motion_1_Waist_transform_samp_id">
        <input semantic="INPUT" source="#Motion_1_Waist_transform_frame_id" />
        <input semantic="INTERPOLATION" source="#Motion_1_Waist_transform_interp_id" />
        <input semantic="OUTPUT" source="#Motion_1_Waist_transform_pose_id" />
      </sampler>
      <channel source="#Motion_1_Waist_transform_samp_id" target="Waist_bone_id/transform" />
    </animation>
    <animation id="Motion_1_Spine2_transform_id" name="Motion_1_Spine2_transform">
      <source id="Motion_1_Spine2_transform_frame_id" name="Motion_1_Spine2_transform_frame">
        <float_array id="Motion_1_Spine2_transform_frame_array_id" count="16">0 0.033333335 0.06666667 0.1 0.13333334 0.16666667 0.2 0.23333333 0.26666668 0.3 0.33333334 0.36666667 0.4 0.43333334 0.46666667 0.5</float_array>
        <technique_common>
          <accessor source="#Motion_1_Spine2_transform_frame_array_id" count="16" stride="1">
            <param name="TIME" type="float" />
          </accessor>
        </technique_common>
      </source>
      <source id="Motion_1_Spine2_transform_interp_id" name="Motion_1_Spine2_transform_interp">
        <Name_array id="Motion_1_Spine2_transform_interp_array_id" count="16">LINEAR LINEAR LINEAR LINEAR LINEAR LINEAR LINEAR LINEAR LINEAR LINEAR LINEAR LINEAR LINEAR LINEAR LINEAR LINEAR</Name_array>
        <technique_common>
          <accessor source="#Motion_1_Spine2_transform_interp_array_id" count="16" stride="1">
            <param name="INTERPOLATION" type="Name" />
          </accessor>
        </technique_common>
      </source>
      <source id="Motion_1_Spine2_transform_pose_id" name="Motion_1_Spine2_transform_pose">
        <float_array id="Motion_1_Spine2_transform_pose_array_id" count="256">0.9223089 6.589107E-07 -0.38645345 10.700001 0.009560388 0.99969393 0.022818504 0 0.3863352 -0.024740355 0.92202663 0 0 0 0 1 0.92079 0.00020369235 -0.39005855 10.700001 0.02064459 0.9985728 0.049256023 0 0.3895119 -0.053407054 0.9194717 0 0 0 0 1 0.9188665 6.243773E-05 -0.39456856 10.700001 0.02906724 0.9972721 0.06784925 0 0.39349645 -0.07381342 0.91635805 0 0 0 0 1 0.9177243 4.8056245E-07 -0.397218 10.700001 0.032525115 0.99664193 0.075146556 0 0.39588416 -0.081883386 0.91464245 0 0 0 0 1 0.91851914 -0.00012523215 -0.39537656 10.700001 0.029315032 0.99726903 0.06778735 0 0.3942883 -0.07385445 0.9160143 0 0 0 0 1 0.92028356 -0.0002273377 -0.391252 10.700001 0.02099554 0.99858767 0.04880444 0 0.39068833 -0.053128473 0.9189886 0 0 0 0 1 0.9216198 -6.099185E-05 -0.38809404 10.700001 0.009662811 0.9996936 0.022789488 0 0.38797376 -0.024753323 0.92133796 0 0 0 0 1 0.9215476 0.00020148314 -0.38826543 10.700001 -0.0029654899 0.99997437 -0.006519669 0 0.38825417 0.007159583 0.9215245 0 0 0 0 1 0.9204554 0.0002671471 -0.39084753 10.700001 -0.015267894 0.9992611 -0.035273254 0 0.39054933 0.038434878 0.9197793 0 0 0 0 1 0.919045 0.00015209615 -0.3941527 10.700001 -0.025329301 0.99795574 -0.058675185 0 0.39333802 0.06390875 0.91717005 0 0 0 0 1 0.9180217 1.2116507E-05 -0.3965302 10.700001 -0.031125331 0.9969168 -0.07202894 0 0.39530677 0.07846626 0.9151916 0 0 0 0 1 0.91788596 -0.00019279867 -0.39684418 10.700001 -0.030946424 0.99691993 -0.07206228 0 0.39563575 0.07842586 0.9150529 0 0 0 0 1 0.91872823 -0.00014812127 -0.39489034 10.700001 -0.025038868 0.9979658 -0.05862826 0 0.39409575 0.06375105 0.9168557 0 0 0 0 1 0.9200421 7.694587E-05 -0.39181948 10.700001 -0.015066146 0.9992674 -0.035180993 0 0.39152974 0.038271204 0.9193692 0 0 0 0 1 0.92133105 0.00011229084 -0.3887789 10.700001 -0.0030040387 0.99997216 -0.006830171 0 0.38876733 0.0074607558 0.9213058 0 0 0 0 1 0.92133105 0.00011229084 -0.3887789 10.700001 -0.0030040387 0.99997216 -0.006830171 0 0.38876733 0.0074607558 0.9213058 0 0 0 0 1</float_array>
        <technique_common>
          <accessor source="#Motion_1_Spine2_transform_pose_array_id" count="16" stride="16">
            <param name="TRANSFORM" type="float4x4" />
          </accessor>
        </technique_common>
      </source>
      <sampler id="Motion_1_Spine2_transform_samp_id">
        <input semantic="INPUT" source="#Motion_1_Spine2_transform_frame_id" />
        <input semantic="INTERPOLATION" source="#Motion_1_Spine2_transform_interp_id" />
        <input semantic="OUTPUT" source="#Motion_1_Spine2_transform_pose_id" />
      </sampler>
      <channel source="#Motion_1_Spine2_transform_samp_id" target="Spine2_bone_id/transform" />
    </animation>
    <animation id="Motion_1_Spine3_transform_id" name="Motion_1_Spine3_transform">
      <source id="Motion_1_Spine3_transform_frame_id" name="Motion_1_Spine3_transform_frame">
        <float_array id="Motion_1_Spine3_transform_frame_array_id" count="16">0 0.033333335 0.06666667 0.1 0.13333334 0.16666667 0.2 0.23333333 0.26666668 0.3 0.33333334 0.36666667 0.4 0.43333334 0.46666667 0.5</float_array>
        <technique_common>
          <accessor source="#Motion_1_Spine3_transform_frame_array_id" count="16" stride="1">
            <param name="TIME" type="float" />
          </accessor>
        </technique_common>
      </source>
      <source id="Motion_1_Spine3_transform_interp_id" name="Motion_1_Spine3_transform_interp">
        <Name_array id="Motion_1_Spine3_transform_interp_array_id" count="16">LINEAR LINEAR LINEAR LINEAR LINEAR LINEAR LINEAR LINEAR LINEAR LINEAR LINEAR LINEAR LINEAR LINEAR LINEAR LINEAR</Name_array>
        <technique_common>
          <accessor source="#Motion_1_Spine3_transform_interp_array_id" count="16" stride="1">
            <param name="INTERPOLATION" type="Name" />
          </accessor>
        </technique_common>
      </source>
      <source id="Motion_1_Spine3_transform_pose_id" name="Motion_1_Spine3_transform_pose">
        <float_array id="Motion_1_Spine3_transform_pose_array_id" count="256">0.9510102 -3.3967808E-08 0.3091595 10.699997 -7.224674E-05 1 0.00022234913 0 -0.3091595 -0.00023379206 0.95101017 0 0 0 0 1 0.94742566 -0.00011564919 0.31997585 10.699997 -0.0011105733 0.9999927 0.0036497563 0 -0.31997395 -0.0038132295 0.9474187 0 0 0 0 1 0.95539117 -0.0002745347 0.29534328 10.699997 -0.0018887523 0.9999734 0.00703935 0 -0.29533738 -0.007283163 0.9553653 0 0 0 0 1 0.96848136 -0.00027594576 0.24908586 10.699997 -0.0022298307 0.9999497 0.009777679 0 -0.24907602 -0.010024919 0.96843207 0 0 0 0 1 0.97460425 -0.00026502425 0.22393408 10.699997 -0.0022919853 0.9999351 0.011158577 0 -0.22392252 -0.01138845 0.9745404 0 0 0 0 1 0.9698914 -0.0003859196 0.24353753 10.699997 -0.0022381258 0.99994236 0.010497916 0 -0.24352755 -0.010726905 0.9698347 0 0 0 0 1 0.95928717 -0.0004244537 0.28243217 10.699997 -0.0018826732 0.99996704 0.007897344 0 -0.2824262 -0.0081075495 0.95925474 0 0 0 0 1 0.94918156 -0.00026636975 0.31472892 10.699997 -0.0011409617 0.99999017 0.004287331 0 -0.31472695 -0.004428549 0.9491719 0 0 0 0 1 0.9493662 1.7673523E-05 0.3141715 10.699997 -0.00010879016 0.99999994 0.0002724887 0 -0.3141715 -0.00029287033 0.9493662 0 0 0 0 1 0.96093655 0.00013236972 0.27676874 10.699997 0.0009035481 0.9999931 -0.0036153689 0 -0.2767673 0.003724214 0.96092975 0 0 0 0 1 0.974041 5.3731375E-05 0.22637178 10.699997 0.0015328617 0.9999755 -0.0068330085 0 -0.2263666 0.0070026265 0.974017 0 0 0 0 1 0.9821153 -2.2929278E-05 0.18828025 10.699997 0.0017010801 0.99996024 -0.008751468 0 -0.18827257 0.00891523 0.98207635 0 0 0 0 1 0.98233193 3.2241747E-05 0.18714696 10.699997 0.0016264135 0.9999608 -0.008709297 0 -0.1871399 0.008859798 0.9822933 0 0 0 0 1 0.9756687 0.00014034595 0.21924977 10.699997 0.0013258369 0.9999777 -0.0065401224 0 -0.2192458 0.006671683 0.97564685 0 0 0 0 1 0.9639745 0.00014146345 0.26599464 10.699997 0.0007385942 0.9999946 -0.0032085185 0 -0.26599362 0.0032893922 0.9639692 0 0 0 0 1 0.9639745 0.00014146345 0.26599464 10.699997 0.0007385942 0.9999946 -0.0032085185 0 -0.26599362 0.0032893922 0.9639692 0 0 0 0 1</float_array>
        <technique_common>
          <accessor source="#Motion_1_Spine3_transform_pose_array_id" count="16" stride="16">
            <param name="TRANSFORM" type="float4x4" />
          </accessor>
        </technique_common>
      </source>
      <sampler id="Motion_1_Spine3_transform_samp_id">
        <input semantic="INPUT" source="#Motion_1_Spine3_transform_frame_id" />
        <input semantic="INTERPOLATION" source="#Motion_1_Spine3_transform_interp_id" />
        <input semantic="OUTPUT" source="#Motion_1_Spine3_transform_pose_id" />
      </sampler>
      <channel source="#Motion_1_Spine3_transform_samp_id" target="Spine3_bone_id/transform" />
    </animation>
    <animation id="Motion_1_Neck_transform_id" name="Motion_1_Neck_transform">
      <source id="Motion_1_Neck_transform_frame_id" name="Motion_1_Neck_transform_frame">
        <float_array id="Motion_1_Neck_transform_frame_array_id" count="16">0 0.033333335 0.06666667 0.1 0.13333334 0.16666667 0.2 0.23333333 0.26666668 0.3 0.33333334 0.36666667 0.4 0.43333334 0.46666667 0.5</float_array>
        <technique_common>
          <accessor source="#Motion_1_Neck_transform_frame_array_id" count="16" stride="1">
            <param name="TIME" type="float" />
          </accessor>
        </technique_common>
      </source>
      <source id="Motion_1_Neck_transform_interp_id" name="Motion_1_Neck_transform_interp">
        <Name_array id="Motion_1_Neck_transform_interp_array_id" count="16">LINEAR LINEAR LINEAR LINEAR LINEAR LINEAR LINEAR LINEAR LINEAR LINEAR LINEAR LINEAR LINEAR LINEAR LINEAR LINEAR</Name_array>
        <technique_common>
          <accessor source="#Motion_1_Neck_transform_interp_array_id" count="16" stride="1">
            <param name="INTERPOLATION" type="Name" />
          </accessor>
        </technique_common>
      </source>
      <source id="Motion_1_Neck_transform_pose_id" name="Motion_1_Neck_transform_pose">
        <float_array id="Motion_1_Neck_transform_pose_array_id" count="256">0.9718987 0 -0.23539966 11.139861 0 1 0 0 0.23539966 0 0.9718987 0 0 0 0 1 0.9751317 0 -0.22162615 11.139861 0 1 0 0 0.22162615 0 0.9751317 0 0 0 0 1 0.97424203 0 -0.22550495 11.139861 0 1 0 0 0.22550495 0 0.97424203 0 0 0 0 1 0.9642671 0 -0.2649321 11.139861 0 1 0 0 0.2649321 0 0.9642671 0 0 0 0 1 0.9528606 0 -0.30340847 11.139861 0 1 0 0 0.30340847 0 0.9528606 0 0 0 0 1 0.9523215 0 -0.30509618 11.139861 0 1 0 0 0.30509618 0 0.9523215 0 0 0 0 1 0.961589 0 -0.27449346 11.139861 0 1 0 0 0.27449346 0 0.961589 0 0 0 0 1 0.97151816 0 -0.23696512 11.139861 0 1 0 0 0.23696512 0 0.97151816 0 0 0 0 1 0.97580266 0 -0.218653 11.139861 0 1 0 0 0.218653 0 0.97580266 0 0 0 0 1 0.972398 0 -0.23332846 11.139861 0 1 0 0 0.23332846 0 0.972398 0 0 0 0 1 0.9643383 0 -0.26467273 11.139861 0 1 0 0 0.26467273 0 0.9643383 0 0 0 0 1 0.95519656 0 -0.29597214 11.139861 0 1 0 0 0.29597214 0 0.95519656 0 0 0 0 1 0.95070535 0 -0.31009573 11.139861 0 1 0 0 0.31009573 0 0.95070535 0 0 0 0 1 0.95412177 0 -0.2994188 11.139861 0 1 0 0 0.2994188 0 0.95412177 0 0 0 0 1 0.9622247 0 -0.27225643 11.139861 0 1 0 0 0.27225643 0 0.9622247 0 0 0 0 1 0.9622247 0 -0.27225643 11.139861 0 1 0 0 0.27225643 0 0.9622247 0 0 0 0 1</float_array>
        <technique_common>
          <accessor source="#Motion_1_Neck_transform_pose_array_id" count="16" stride="16">
            <param name="TRANSFORM" type="float4x4" />
          </accessor>
        </technique_common>
      </source>
      <sampler id="Motion_1_Neck_transform_samp_id">
        <input semantic="INPUT" source="#Motion_1_Neck_transform_frame_id" />
        <input semantic="INTERPOLATION" source="#Motion_1_Neck_transform_interp_id" />
        <input semantic="OUTPUT" source="#Motion_1_Neck_transform_pose_id" />
      </sampler>
      <channel source="#Motion_1_Neck_transform_samp_id" target="Neck_bone_id/transform" />
    </animation>
    <animation id="Motion_1_Head_transform_id" name="Motion_1_Head_transform">
      <source id="Motion_1_Head_transform_frame_id" name="Motion_1_Head_transform_frame">
        <float_array id="Motion_1_Head_transform_frame_array_id" count="16">0 0.033333335 0.06666667 0.1 0.13333334 0.16666667 0.2 0.23333333 0.26666668 0.3 0.33333334 0.36666667 0.4 0.43333334 0.46666667 0.5</float_array>
        <technique_common>
          <accessor source="#Motion_1_Head_transform_frame_array_id" count="16" stride="1">
            <param name="TIME" type="float" />
          </accessor>
        </technique_common>
      </source>
      <source id="Motion_1_Head_transform_interp_id" name="Motion_1_Head_transform_interp">
        <Name_array id="Motion_1_Head_transform_interp_array_id" count="16">LINEAR LINEAR LINEAR LINEAR LINEAR LINEAR LINEAR LINEAR LINEAR LINEAR LINEAR LINEAR LINEAR LINEAR LINEAR LINEAR</Name_array>
        <technique_common>
          <accessor source="#Motion_1_Head_transform_interp_array_id" count="16" stride="1">
            <param name="INTERPOLATION" type="Name" />
          </accessor>
        </technique_common>
      </source>
      <source id="Motion_1_Head_transform_pose_id" name="Motion_1_Head_transform_pose">
        <float_array id="Motion_1_Head_transform_pose_array_id" count="256">0.8563027 -0.06792089 0.51198876 3.409983 0.02265959 0.9953011 0.09413932 0 -0.515977 -0.0690103 0.85381806 0 0 0 0 1 0.84456396 -0.065855145 0.5313895 3.409983 0.036168996 0.99715775 0.066092655 0 -0.53423166 -0.03659965 0.8445454 0 0 0 0 1 0.8219122 -0.048665904 0.56753147 3.409983 0.04220952 0.99880785 0.024519108 0 -0.5680481 0.003802673 0.8229866 0 0 0 0 1 0.80690074 -0.016656313 0.5904522 3.409983 0.03409853 0.9992489 -0.018410172 0 -0.589702 0.03498873 0.80686265 0 0 0 0 1 0.8110548 0.015685022 0.58475983 3.409983 0.013785417 0.99885035 -0.045912385 0 -0.58480775 0.04529862 0.8099061 0 0 0 0 1 0.8357712 0.042888895 0.54740024 3.409983 -0.010159593 0.99798197 -0.06268036 0 -0.5489838 0.046825085 0.83452034 0 0 0 0 1 0.8603637 0.0676288 0.5051738 3.409983 -0.033364635 0.99650496 -0.07658099 0 -0.50858724 0.04903257 0.8596132 0 0 0 0 1 0.8610504 0.08633009 0.501138 3.409983 -0.0534321 0.99538845 -0.079667166 0 -0.50570464 0.04182059 0.8616924 0 0 0 0 1 0.8419436 0.09351926 0.53139925 3.409983 -0.070744984 0.9954962 -0.06310658 0 -0.5349076 0.015538355 0.8447677 0 0 0 0 1 0.8209561 0.08205114 0.56506526 3.409983 -0.08244662 0.9962848 -0.024884297 0 -0.5650077 -0.026158804 0.82467085 0 0 0 0 1 0.80309314 0.05119507 0.59365016 3.409983 -0.079426244 0.9966088 0.02150292 0 -0.5905362 -0.064420246 0.8044359 0 0 0 0 1 0.80625856 0.016008288 0.5913466 3.409983 -0.06344165 0.9962085 0.059529863 0 -0.5881516 -0.08551247 0.8042172 0 0 0 0 1 0.82377815 -0.012074066 0.5667837 3.409983 -0.039710157 0.9960885 0.07893521 0 -0.56551987 -0.08753217 0.82007647 0 0 0 0 1 0.8406786 -0.03722716 0.5402533 3.409983 -0.015945395 0.9955001 0.093409136 0 -0.5412996 -0.08714162 0.83630204 0 0 0 0 1 0.8555226 -0.05690369 0.51462907 3.409983 0.0052233376 0.9948403 0.10131841 0 -0.5177391 -0.0839921 0.85140556 0 0 0 0 1 0.8555226 -0.05690369 0.51462907 3.409983 0.0052233376 0.9948403 0.10131841 0 -0.5177391 -0.0839921 0.85140556 0 0 0 0 1</float_array>
        <technique_common>
          <accessor source="#Motion_1_Head_transform_pose_array_id" count="16" stride="16">
            <param name="TRANSFORM" type="float4x4" />
          </accessor>
        </technique_common>
      </source>
      <sampler id="Motion_1_Head_transform_samp_id">
        <input semantic="INPUT" source="#Motion_1_Head_transform_frame_id" />
        <input semantic="INTERPOLATION" source="#Motion_1_Head_transform_interp_id" />
        <input semantic="OUTPUT" source="#Motion_1_Head_transform_pose_id" />
      </sampler>
      <channel source="#Motion_1_Head_transform_samp_id" target="Head_bone_id/transform" />
    </animation>
    <animation id="Motion_1_Loc_Eye_transform_id" name="Motion_1_Loc_Eye_transform">
      <source id="Motion_1_Loc_Eye_transform_frame_id" name="Motion_1_Loc_Eye_transform_frame">
        <float_array id="Motion_1_Loc_Eye_transform_frame_array_id" count="16">0 0.033333335 0.06666667 0.1 0.13333334 0.16666667 0.2 0.23333333 0.26666668 0.3 0.33333334 0.36666667 0.4 0.43333334 0.46666667 0.5</float_array>
        <technique_common>
          <accessor source="#Motion_1_Loc_Eye_transform_frame_array_id" count="16" stride="1">
            <param name="TIME" type="float" />
          </accessor>
        </technique_common>
      </source>
      <source id="Motion_1_Loc_Eye_transform_interp_id" name="Motion_1_Loc_Eye_transform_interp">
        <Name_array id="Motion_1_Loc_Eye_transform_interp_array_id" count="16">LINEAR LINEAR LINEAR LINEAR LINEAR LINEAR LINEAR LINEAR LINEAR LINEAR LINEAR LINEAR LINEAR LINEAR LINEAR LINEAR</Name_array>
        <technique_common>
          <accessor source="#Motion_1_Loc_Eye_transform_interp_array_id" count="16" stride="1">
            <param name="INTERPOLATION" type="Name" />
          </accessor>
        </technique_common>
      </source>
      <source id="Motion_1_Loc_Eye_transform_pose_id" name="Motion_1_Loc_Eye_transform_pose">
        <float_array id="Motion_1_Loc_Eye_transform_pose_array_id" count="256">7.1883205E-06 50.1 0 7.481961 -20.1 1.7917155E-05 0 0 0 0 400.1 10.227155 0 0 0 1 7.1883205E-06 50.1 0 7.481961 -20.1 1.7917155E-05 0 0 0 0 400.1 10.227155 0 0 0 1 7.1883205E-06 50.1 0 7.481961 -20.1 1.7917155E-05 0 0 0 0 400.1 10.227155 0 0 0 1 7.1883205E-06 50.1 0 7.481961 -20.1 1.7917155E-05 0 0 0 0 400.1 10.227155 0 0 0 1 7.1883205E-06 50.1 0 7.481961 -20.1 1.7917155E-05 0 0 0 0 400.1 10.227155 0 0 0 1 7.1883205E-06 50.1 0 7.481961 -20.1 1.7917155E-05 0 0 0 0 400.1 10.227155 0 0 0 1 7.1883205E-06 50.1 0 7.481961 -20.1 1.7917155E-05 0 0 0 0 400.1 10.227155 0 0 0 1 7.1883205E-06 50.1 0 7.481961 -20.1 1.7917155E-05 0 0 0 0 400.1 10.227155 0 0 0 1 7.1883205E-06 50.1 0 7.481961 -20.1 1.7917155E-05 0 0 0 0 400.1 10.227155 0 0 0 1 7.1883205E-06 50.1 0 7.481961 -20.1 1.7917155E-05 0 0 0 0 400.1 10.227155 0 0 0 1 7.1883205E-06 50.1 0 7.481961 -20.1 1.7917155E-05 0 0 0 0 400.1 10.227155 0 0 0 1 7.1883205E-06 50.1 0 7.481961 -20.1 1.7917155E-05 0 0 0 0 400.1 10.227155 0 0 0 1 7.1883205E-06 50.1 0 7.481961 -20.1 1.7917155E-05 0 0 0 0 400.1 10.227155 0 0 0 1 7.1883205E-06 50.1 0 7.481961 -20.1 1.7917155E-05 0 0 0 0 400.1 10.227155 0 0 0 1 7.1883205E-06 50.1 0 7.481961 -20.1 1.7917155E-05 0 0 0 0 400.1 10.227155 0 0 0 1 7.1883205E-06 50.1 0 7.481961 -20.1 1.7917155E-05 0 0 0 0 400.1 10.227155 0 0 0 1</float_array>
        <technique_common>
          <accessor source="#Motion_1_Loc_Eye_transform_pose_array_id" count="16" stride="16">
            <param name="TRANSFORM" type="float4x4" />
          </accessor>
        </technique_common>
      </source>
      <sampler id="Motion_1_Loc_Eye_transform_samp_id">
        <input semantic="INPUT" source="#Motion_1_Loc_Eye_transform_frame_id" />
        <input semantic="INTERPOLATION" source="#Motion_1_Loc_Eye_transform_interp_id" />
        <input semantic="OUTPUT" source="#Motion_1_Loc_Eye_transform_pose_id" />
      </sampler>
      <channel source="#Motion_1_Loc_Eye_transform_samp_id" target="Loc_Eye_bone_id/transform" />
    </animation>
    <animation id="Motion_1_LShoulder_transform_id" name="Motion_1_LShoulder_transform">
      <source id="Motion_1_LShoulder_transform_frame_id" name="Motion_1_LShoulder_transform_frame">
        <float_array id="Motion_1_LShoulder_transform_frame_array_id" count="16">0 0.033333335 0.06666667 0.1 0.13333334 0.16666667 0.2 0.23333333 0.26666668 0.3 0.33333334 0.36666667 0.4 0.43333334 0.46666667 0.5</float_array>
        <technique_common>
          <accessor source="#Motion_1_LShoulder_transform_frame_array_id" count="16" stride="1">
            <param name="TIME" type="float" />
          </accessor>
        </technique_common>
      </source>
      <source id="Motion_1_LShoulder_transform_interp_id" name="Motion_1_LShoulder_transform_interp">
        <Name_array id="Motion_1_LShoulder_transform_interp_array_id" count="16">LINEAR LINEAR LINEAR LINEAR LINEAR LINEAR LINEAR LINEAR LINEAR LINEAR LINEAR LINEAR LINEAR LINEAR LINEAR LINEAR</Name_array>
        <technique_common>
          <accessor source="#Motion_1_LShoulder_transform_interp_array_id" count="16" stride="1">
            <param name="INTERPOLATION" type="Name" />
          </accessor>
        </technique_common>
      </source>
      <source id="Motion_1_LShoulder_transform_pose_id" name="Motion_1_LShoulder_transform_pose">
        <float_array id="Motion_1_LShoulder_transform_pose_array_id" count="256">-0.69652736 0.7081712 -0.11551309 9.530002 -0.7172918 -0.68306327 0.13753961 -3.120002 0.01849885 0.17865668 0.9837376 -0.185056 0 0 0 1 -0.6798676 0.7241608 -0.11563294 9.530002 -0.731562 -0.68069685 0.03832274 -3.120002 -0.05095916 0.11064706 0.99255246 -0.185056 0 0 0 1 -0.6715044 0.7320525 -0.11481107 9.530002 -0.73640877 -0.67650676 -0.0064174123 -3.120002 -0.08236832 0.08023855 0.9933666 -0.185056 0 0 0 1 -0.67904806 0.72493774 -0.11558225 9.530002 -0.7322965 -0.67994785 0.037589762 -3.120002 -0.05133965 0.11016573 0.9925864 -0.185056 0 0 0 1 -0.69508195 0.70955026 -0.11575672 9.530002 -0.7188047 -0.6828798 0.13036525 -3.120002 0.013452787 0.173821 0.98468536 -0.185056 0 0 0 1 -0.7089591 0.6959632 -0.11407256 9.530002 -0.70172757 -0.6799841 0.21260373 -3.120002 0.070396855 0.23077516 0.9704572 -0.185056 0 0 0 1 -0.7108042 0.6941599 -0.11357511 9.530002 -0.6988712 -0.6786976 0.22571787 -3.120002 0.07960113 0.2398156 0.96754956 -0.185056 0 0 0 1 -0.7022259 0.7027126 -0.11433993 9.530002 -0.709984 -0.6792538 0.1858409 -3.120002 0.052926913 0.21168184 0.97590446 -0.185056 0 0 0 1 -0.6900761 0.7146641 -0.11423896 9.530002 -0.72349143 -0.6770818 0.13461293 -3.120002 0.018853903 0.17554404 0.984291 -0.185056 0 0 0 1 -0.6810763 0.72342634 -0.11308816 9.530002 -0.7322122 -0.67290294 0.10519767 -3.120002 5.390495E-06 0.1544522 0.9880003 -0.185056 0 0 0 1 -0.6814467 0.72314626 -0.112648465 9.530002 -0.7317646 -0.67064965 0.121446975 -3.120002 0.012276262 0.16519183 0.9861851 -0.185056 0 0 0 1 -0.6914896 0.7135025 -0.11294426 9.530002 -0.720389 -0.6694782 0.1812143 -3.120002 0.053683132 0.2066716 0.9769365 -0.185056 0 0 0 1 -0.70489 0.7004032 -0.11209358 9.530002 -0.70223737 -0.6668154 0.2494383 -3.120002 0.09996167 0.25454292 0.9618813 -0.185056 0 0 0 1 -0.7145319 0.6907865 -0.110716596 9.530002 -0.68859684 -0.6664674 0.28575417 -3.120002 0.1236061 0.28041956 0.9518857 -0.185056 0 0 0 1 -0.7122922 0.6928459 -0.112270504 9.530002 -0.69547266 -0.67512953 0.24600416 -3.120002 0.09464583 0.25330788 0.96274465 -0.185056 0 0 0 1 -0.7122922 0.6928459 -0.112270504 9.530002 -0.69547266 -0.67512953 0.24600416 -3.120002 0.09464583 0.25330788 0.96274465 -0.185056 0 0 0 1</float_array>
        <technique_common>
          <accessor source="#Motion_1_LShoulder_transform_pose_array_id" count="16" stride="16">
            <param name="TRANSFORM" type="float4x4" />
          </accessor>
        </technique_common>
      </source>
      <sampler id="Motion_1_LShoulder_transform_samp_id">
        <input semantic="INPUT" source="#Motion_1_LShoulder_transform_frame_id" />
        <input semantic="INTERPOLATION" source="#Motion_1_LShoulder_transform_interp_id" />
        <input semantic="OUTPUT" source="#Motion_1_LShoulder_transform_pose_id" />
      </sampler>
      <channel source="#Motion_1_LShoulder_transform_samp_id" target="LShoulder_bone_id/transform" />
    </animation>
    <animation id="Motion_1_LArm_transform_id" name="Motion_1_LArm_transform">
      <source id="Motion_1_LArm_transform_frame_id" name="Motion_1_LArm_transform_frame">
        <float_array id="Motion_1_LArm_transform_frame_array_id" count="16">0 0.033333335 0.06666667 0.1 0.13333334 0.16666667 0.2 0.23333333 0.26666668 0.3 0.33333334 0.36666667 0.4 0.43333334 0.46666667 0.5</float_array>
        <technique_common>
          <accessor source="#Motion_1_LArm_transform_frame_array_id" count="16" stride="1">
            <param name="TIME" type="float" />
          </accessor>
        </technique_common>
      </source>
      <source id="Motion_1_LArm_transform_interp_id" name="Motion_1_LArm_transform_interp">
        <Name_array id="Motion_1_LArm_transform_interp_array_id" count="16">LINEAR LINEAR LINEAR LINEAR LINEAR LINEAR LINEAR LINEAR LINEAR LINEAR LINEAR LINEAR LINEAR LINEAR LINEAR LINEAR</Name_array>
        <technique_common>
          <accessor source="#Motion_1_LArm_transform_interp_array_id" count="16" stride="1">
            <param name="INTERPOLATION" type="Name" />
          </accessor>
        </technique_common>
      </source>
      <source id="Motion_1_LArm_transform_pose_id" name="Motion_1_LArm_transform_pose">
        <float_array id="Motion_1_LArm_transform_pose_array_id" count="256">0.8319212 0.1287677 -0.5397462 7.079999 0.19496626 0.8428526 0.5015852 0 0.5195145 -0.52251166 0.67608154 0 0 0 0 1 0.85165304 0.18170647 -0.4915993 7.079999 0.1192639 0.84617895 0.51938164 0 0.51035595 -0.500963 0.69897985 0 0 0 0 1 0.8528462 0.2002929 -0.48221993 7.079999 0.10074578 0.8430361 0.52833736 0 0.51235104 -0.49917212 0.6988015 0 0 0 0 1 0.84195685 0.16087916 -0.5150015 7.079999 0.15815917 0.8389888 0.52065676 0 0.51584333 -0.5198228 0.6809479 0 0 0 0 1 0.8191351 0.09464351 -0.5657387 7.079999 0.24186406 0.8373361 0.49027547 0 0.5201148 -0.53843373 0.6630006 0 0 0 0 1 0.7950148 0.05220072 -0.6043398 7.079999 0.29123634 0.8411005 0.45577553 0 0.5321023 -0.538354 0.65348464 0 0 0 0 1 0.79067385 0.07517675 -0.60760456 7.079999 0.26240456 0.8550463 0.44725806 0 0.55315346 -0.51307344 0.656336 0 0 0 0 1 0.7864102 0.14663556 -0.6000474 7.079999 0.18916708 0.8675715 0.4599299 0 0.5880261 -0.47520283 0.6545285 0 0 0 0 1 0.7670208 0.2225388 -0.60179365 7.079999 0.124121904 0.86874396 0.47945562 0 0.62950206 -0.44244823 0.6387228 0 0 0 0 1 0.7357157 0.2705742 -0.62089616 7.079999 0.10382999 0.8608413 0.49816832 0 0.6692845 -0.4309779 0.6052407 0 0 0 0 1 0.70559275 0.2614652 -0.6586158 7.079999 0.14667779 0.8554185 0.49673414 0 0.6932708 -0.44709635 0.56522596 0 0 0 0 1 0.6965319 0.18992163 -0.69193435 7.079999 0.23359288 0.8517798 0.46894085 0 0.6784377 -0.4882632 0.5489274 0 0 0 0 1 0.7131082 0.1019518 -0.69360113 7.079999 0.3092582 0.8421534 0.44174322 0 0.62915504 -0.5295125 0.56901705 0 0 0 0 1 0.77169013 0.046784863 -0.6342757 7.079999 0.32370389 0.8295601 0.45502287 0 0.54745793 -0.5564541 0.62501884 0 0 0 0 1 0.82680166 0.060596548 -0.55922 7.079999 0.27167106 0.8275188 0.49133223 0 0.49253815 -0.5581582 0.66773164 0 0 0 0 1 0.82680166 0.060596548 -0.55922 7.079999 0.27167106 0.8275188 0.49133223 0 0.49253815 -0.5581582 0.66773164 0 0 0 0 1</float_array>
        <technique_common>
          <accessor source="#Motion_1_LArm_transform_pose_array_id" count="16" stride="16">
            <param name="TRANSFORM" type="float4x4" />
          </accessor>
        </technique_common>
      </source>
      <sampler id="Motion_1_LArm_transform_samp_id">
        <input semantic="INPUT" source="#Motion_1_LArm_transform_frame_id" />
        <input semantic="INTERPOLATION" source="#Motion_1_LArm_transform_interp_id" />
        <input semantic="OUTPUT" source="#Motion_1_LArm_transform_pose_id" />
      </sampler>
      <channel source="#Motion_1_LArm_transform_samp_id" target="LArm_bone_id/transform" />
    </animation>
    <animation id="Motion_1_LForeArm_transform_id" name="Motion_1_LForeArm_transform">
      <source id="Motion_1_LForeArm_transform_frame_id" name="Motion_1_LForeArm_transform_frame">
        <float_array id="Motion_1_LForeArm_transform_frame_array_id" count="16">0 0.033333335 0.06666667 0.1 0.13333334 0.16666667 0.2 0.23333333 0.26666668 0.3 0.33333334 0.36666667 0.4 0.43333334 0.46666667 0.5</float_array>
        <technique_common>
          <accessor source="#Motion_1_LForeArm_transform_frame_array_id" count="16" stride="1">
            <param name="TIME" type="float" />
          </accessor>
        </technique_common>
      </source>
      <source id="Motion_1_LForeArm_transform_interp_id" name="Motion_1_LForeArm_transform_interp">
        <Name_array id="Motion_1_LForeArm_transform_interp_array_id" count="16">LINEAR LINEAR LINEAR LINEAR LINEAR LINEAR LINEAR LINEAR LINEAR LINEAR LINEAR LINEAR LINEAR LINEAR LINEAR LINEAR</Name_array>
        <technique_common>
          <accessor source="#Motion_1_LForeArm_transform_interp_array_id" count="16" stride="1">
            <param name="INTERPOLATION" type="Name" />
          </accessor>
        </technique_common>
      </source>
      <source id="Motion_1_LForeArm_transform_pose_id" name="Motion_1_LForeArm_transform_pose">
        <float_array id="Motion_1_LForeArm_transform_pose_array_id" count="256">0.89768493 4.0275612E-05 -0.44063792 14.9 -3.104067E-05 1 2.8165694E-05 0 0.44063792 -1.1606223E-05 0.89768493 0 0 0 0 1 0.8198309 4.076639E-05 -0.57260567 14.9 -2.8595236E-05 1 3.0253157E-05 0 0.57260567 -8.4286785E-06 0.8198309 0 0 0 0 1 0.7748092 4.088652E-05 -0.6321952 14.9 -2.733446E-05 1 3.117317E-05 0 0.6321952 -6.872545E-06 0.7748092 0 0 0 0 1 0.8078105 4.0807467E-05 -0.5894423 14.9 -2.8250372E-05 1 3.0514471E-05 0 0.5894423 -7.9979445E-06 0.8078105 0 0 0 0 1 0.88650507 4.037696E-05 -0.46271887 14.9 -3.0659983E-05 1 2.8519979E-05 0 0.46271887 -1.10961555E-05 0.88650507 0 0 0 0 1 0.9493315 3.9564347E-05 -0.31427646 14.9 -3.30367E-05 1 2.609667E-05 0 0.31427646 -1.4391735E-05 0.9493315 0 0 0 0 1 0.9558382 3.942987E-05 -0.29389346 14.9 -3.3332384E-05 1 2.5755951E-05 0 0.29389346 -1.4822354E-05 0.9558382 0 0 0 0 1 0.9344943 3.982282E-05 -0.35597804 14.9 -3.241008E-05 1 2.6787555E-05 0 0.35597804 -1.3495541E-05 0.9344943 0 0 0 0 1 0.9048143 4.0203537E-05 -0.42580637 14.9 -3.1290656E-05 1 2.792655E-05 0 0.42580637 -1.1944581E-05 0.9048143 0 0 0 0 1 0.88703567 4.037245E-05 -0.4617009 14.9 -3.0677762E-05 1 2.8503691E-05 0 0.4617009 -1.11198415E-05 0.88703567 0 0 0 0 1 0.8995413 4.0257444E-05 -0.43683565 14.9 -3.110519E-05 1 2.8104478E-05 0 0.43683565 -1.1693285E-05 0.8995413 0 0 0 0 1 0.92970353 3.9894876E-05 -0.36830872 14.9 -3.2218995E-05 1 2.6990288E-05 0 0.36830872 -1.3226429E-05 0.92970353 0 0 0 0 1 0.95810187 3.93793E-05 -0.2864277 14.9 -3.3439006E-05 1 2.5630652E-05 0 0.2864277 -1.4978917E-05 0.95810187 0 0 0 0 1 0.95265216 3.9497616E-05 -0.30406228 14.9 -3.3185715E-05 1 2.5926187E-05 0 0.30406228 -1.4608112E-05 0.95265216 0 0 0 0 1 0.91675407 4.0067727E-05 -0.39945212 14.9 -3.1723994E-05 1 2.749924E-05 0 0.39945212 -1.2537823E-05 0.91675407 0 0 0 0 1 0.91675407 4.0067727E-05 -0.39945212 14.9 -3.1723994E-05 1 2.749924E-05 0 0.39945212 -1.2537823E-05 0.91675407 0 0 0 0 1</float_array>
        <technique_common>
          <accessor source="#Motion_1_LForeArm_transform_pose_array_id" count="16" stride="16">
            <param name="TRANSFORM" type="float4x4" />
          </accessor>
        </technique_common>
      </source>
      <sampler id="Motion_1_LForeArm_transform_samp_id">
        <input semantic="INPUT" source="#Motion_1_LForeArm_transform_frame_id" />
        <input semantic="INTERPOLATION" source="#Motion_1_LForeArm_transform_interp_id" />
        <input semantic="OUTPUT" source="#Motion_1_LForeArm_transform_pose_id" />
      </sampler>
      <channel source="#Motion_1_LForeArm_transform_samp_id" target="LForeArm_bone_id/transform" />
    </animation>
    <animation id="Motion_1_LHand_transform_id" name="Motion_1_LHand_transform">
      <source id="Motion_1_LHand_transform_frame_id" name="Motion_1_LHand_transform_frame">
        <float_array id="Motion_1_LHand_transform_frame_array_id" count="16">0 0.033333335 0.06666667 0.1 0.13333334 0.16666667 0.2 0.23333333 0.26666668 0.3 0.33333334 0.36666667 0.4 0.43333334 0.46666667 0.5</float_array>
        <technique_common>
          <accessor source="#Motion_1_LHand_transform_frame_array_id" count="16" stride="1">
            <param name="TIME" type="float" />
          </accessor>
        </technique_common>
      </source>
      <source id="Motion_1_LHand_transform_interp_id" name="Motion_1_LHand_transform_interp">
        <Name_array id="Motion_1_LHand_transform_interp_array_id" count="16">LINEAR LINEAR LINEAR LINEAR LINEAR LINEAR LINEAR LINEAR LINEAR LINEAR LINEAR LINEAR LINEAR LINEAR LINEAR LINEAR</Name_array>
        <technique_common>
          <accessor source="#Motion_1_LHand_transform_interp_array_id" count="16" stride="1">
            <param name="INTERPOLATION" type="Name" />
          </accessor>
        </technique_common>
      </source>
      <source id="Motion_1_LHand_transform_pose_id" name="Motion_1_LHand_transform_pose">
        <float_array id="Motion_1_LHand_transform_pose_array_id" count="256">0.99918276 -0.03705147 0.016156182 14.9 0.018976465 0.78290373 0.6218534 0 -0.035689317 -0.6210386 0.782967 0 0 0 0 1 0.99581885 -0.0608354 0.06814614 14.9 0.00709744 0.79525894 0.60622835 0 -0.091073975 -0.60321 0.79236555 0 0 0 0 1 0.99342096 -0.0757474 0.085890315 14.9 0.0064417534 0.7857767 0.6184767 0 -0.114338614 -0.61385447 0.78109497 0 0 0 0 1 0.99530566 -0.078346334 0.056820348 14.9 0.022020893 0.75502455 0.65532655 0 -0.0942432 -0.650999 0.7532055 0 0 0 0 1 0.9984827 -0.05501581 0.002363408 14.9 0.038247533 0.72375345 0.68899786 0 -0.0396163 -0.68786204 0.7247595 0 0 0 0 1 0.9987272 -0.013344305 -0.04864117 14.9 0.043541476 0.71487224 0.69789815 0 0.025459256 -0.6991278 0.71454334 0 0 0 0 1 0.9986322 -0.0059987083 -0.051940314 14.9 0.039719276 0.73306215 0.6790009 0 0.03400235 -0.6801352 0.7322978 0 0 0 0 1 0.99952793 -0.018017102 -0.024886727 14.9 0.029791035 0.7664395 0.6416253 0 0.007513944 -0.64206374 0.76661444 0 0 0 0 1 0.99961036 -0.027772862 0.0027908366 14.9 0.020362522 0.7939549 0.60763556 0 -0.019091576 -0.60734195 0.7942111 0 0 0 0 1 0.9993894 -0.032318916 0.013279681 14.9 0.018151822 0.8049766 0.59302884 0 -0.02985588 -0.59242564 0.8050717 0 0 0 0 1 0.9993896 -0.03492512 0.0008157464 14.9 0.027290948 0.79508764 0.6058802 0 -0.02180903 -0.6054881 0.7955555 0 0 0 0 1 0.9992225 -0.030934831 -0.02444095 14.9 0.03940536 0.7641311 0.6438562 0 -0.001241494 -0.64431876 0.764756 0 0 0 0 1 0.9986235 -0.014828019 -0.0503117 14.9 0.044978626 0.735538 0.67598873 0 0.026982598 -0.67732114 0.7351925 0 0 0 0 1 0.99905676 -0.01703691 -0.03994193 14.9 0.03974033 0.72945875 0.68286943 0 0.017502008 -0.6838126 0.7294477 0 0 0 0 1 0.99935746 -0.035785336 -0.0020324588 14.9 0.028216032 0.75047135 0.66030043 0 -0.02210377 -0.6599335 0.75099885 0 0 0 0 1 0.99935746 -0.035785336 -0.0020324588 14.9 0.028216032 0.75047135 0.66030043 0 -0.02210377 -0.6599335 0.75099885 0 0 0 0 1</float_array>
        <technique_common>
          <accessor source="#Motion_1_LHand_transform_pose_array_id" count="16" stride="16">
            <param name="TRANSFORM" type="float4x4" />
          </accessor>
        </technique_common>
      </source>
      <sampler id="Motion_1_LHand_transform_samp_id">
        <input semantic="INPUT" source="#Motion_1_LHand_transform_frame_id" />
        <input semantic="INTERPOLATION" source="#Motion_1_LHand_transform_interp_id" />
        <input semantic="OUTPUT" source="#Motion_1_LHand_transform_pose_id" />
      </sampler>
      <channel source="#Motion_1_LHand_transform_samp_id" target="LHand_bone_id/transform" />
    </animation>
    <animation id="Motion_1_RShoulder_transform_id" name="Motion_1_RShoulder_transform">
      <source id="Motion_1_RShoulder_transform_frame_id" name="Motion_1_RShoulder_transform_frame">
        <float_array id="Motion_1_RShoulder_transform_frame_array_id" count="16">0 0.033333335 0.06666667 0.1 0.13333334 0.16666667 0.2 0.23333333 0.26666668 0.3 0.33333334 0.36666667 0.4 0.43333334 0.46666667 0.5</float_array>
        <technique_common>
          <accessor source="#Motion_1_RShoulder_transform_frame_array_id" count="16" stride="1">
            <param name="TIME" type="float" />
          </accessor>
        </technique_common>
      </source>
      <source id="Motion_1_RShoulder_transform_interp_id" name="Motion_1_RShoulder_transform_interp">
        <Name_array id="Motion_1_RShoulder_transform_interp_array_id" count="16">LINEAR LINEAR LINEAR LINEAR LINEAR LINEAR LINEAR LINEAR LINEAR LINEAR LINEAR LINEAR LINEAR LINEAR LINEAR LINEAR</Name_array>
        <technique_common>
          <accessor source="#Motion_1_RShoulder_transform_interp_array_id" count="16" stride="1">
            <param name="INTERPOLATION" type="Name" />
          </accessor>
        </technique_common>
      </source>
      <source id="Motion_1_RShoulder_transform_pose_id" name="Motion_1_RShoulder_transform_pose">
        <float_array id="Motion_1_RShoulder_transform_pose_array_id" count="256">-0.7024791 -0.70235276 -0.114991896 9.529964 0.7102978 -0.6817279 -0.1752812 3.120001 0.044716038 -0.20480993 0.9777798 -0.185066 0 0 0 1 -0.6861731 -0.71838534 -0.114405975 9.529964 0.7274265 -0.6767366 -0.11348142 3.120001 0.0041006766 -0.16108985 0.9869312 -0.185066 0 0 0 1 -0.6782596 -0.72596747 -0.11373286 9.529964 0.7346907 -0.6728965 -0.08625527 3.120001 -0.0139119215 -0.14206193 0.98976 -0.185066 0 0 0 1 -0.6864375 -0.7181957 -0.11401108 9.529964 0.7270671 -0.67496693 -0.12567043 3.120001 0.013302267 -0.16915861 0.9854991 -0.185066 0 0 0 1 -0.70250595 -0.7023932 -0.114583656 9.529964 0.70941556 -0.6783085 -0.19138288 3.120001 0.05670297 -0.21573502 0.97480416 -0.185066 0 0 0 1 -0.7154509 -0.689338 -0.11376726 9.529964 0.6933846 -0.6805905 -0.2366736 3.120001 0.08571919 -0.24821281 0.9649055 -0.185066 0 0 0 1 -0.7144697 -0.6901961 -0.114728436 9.529964 0.6968933 -0.6874201 -0.20443481 3.120001 0.062233478 -0.22601593 0.97213364 -0.185066 0 0 0 1 -0.70114386 -0.70339847 -0.11673859 9.529964 0.71301293 -0.6909584 -0.11911808 3.120001 0.0031259768 -0.16675504 0.9859934 -0.185066 0 0 0 1 -0.6836041 -0.72039795 -0.117097974 9.529964 0.7275394 -0.6853738 -0.030804079 3.120001 -0.0580647 -0.106251195 0.9926425 -0.185066 0 0 0 1 -0.6711136 -0.73223925 -0.11589904 9.529964 0.735296 -0.6773906 0.02195692 3.120001 -0.09458661 -0.07048451 0.99301827 -0.185066 0 0 0 1 -0.6711565 -0.73223 -0.11570855 9.529964 0.736101 -0.6767484 0.01293315 3.120001 -0.087775595 -0.07649301 0.993199 -0.185066 0 0 0 1 -0.68312085 -0.72092474 -0.11667586 9.529964 0.7289665 -0.68277943 -0.049192563 3.120001 -0.044199757 -0.11865726 0.99195105 -0.185066 0 0 0 1 -0.70026803 -0.7043613 -0.11618815 9.529964 0.7137245 -0.6873847 -0.13453409 3.120001 0.014894649 -0.17713627 0.98407364 -0.185066 0 0 0 1 -0.71335864 -0.691319 -0.11487898 9.529964 0.69815326 -0.6868217 -0.2021328 3.120001 0.06083685 -0.22439636 0.9725971 -0.185066 0 0 0 1 -0.71436834 -0.69031686 -0.11463163 9.529964 0.6966556 -0.6861445 -0.20946741 3.120001 0.06594504 -0.22949567 0.9710731 -0.185066 0 0 0 1 -0.71436834 -0.69031686 -0.11463163 9.529964 0.6966556 -0.6861445 -0.20946741 3.120001 0.06594504 -0.22949567 0.9710731 -0.185066 0 0 0 1</float_array>
        <technique_common>
          <accessor source="#Motion_1_RShoulder_transform_pose_array_id" count="16" stride="16">
            <param name="TRANSFORM" type="float4x4" />
          </accessor>
        </technique_common>
      </source>
      <sampler id="Motion_1_RShoulder_transform_samp_id">
        <input semantic="INPUT" source="#Motion_1_RShoulder_transform_frame_id" />
        <input semantic="INTERPOLATION" source="#Motion_1_RShoulder_transform_interp_id" />
        <input semantic="OUTPUT" source="#Motion_1_RShoulder_transform_pose_id" />
      </sampler>
      <channel source="#Motion_1_RShoulder_transform_samp_id" target="RShoulder_bone_id/transform" />
    </animation>
    <animation id="Motion_1_RArm_transform_id" name="Motion_1_RArm_transform">
      <source id="Motion_1_RArm_transform_frame_id" name="Motion_1_RArm_transform_frame">
        <float_array id="Motion_1_RArm_transform_frame_array_id" count="16">0 0.033333335 0.06666667 0.1 0.13333334 0.16666667 0.2 0.23333333 0.26666668 0.3 0.33333334 0.36666667 0.4 0.43333334 0.46666667 0.5</float_array>
        <technique_common>
          <accessor source="#Motion_1_RArm_transform_frame_array_id" count="16" stride="1">
            <param name="TIME" type="float" />
          </accessor>
        </technique_common>
      </source>
      <source id="Motion_1_RArm_transform_interp_id" name="Motion_1_RArm_transform_interp">
        <Name_array id="Motion_1_RArm_transform_interp_array_id" count="16">LINEAR LINEAR LINEAR LINEAR LINEAR LINEAR LINEAR LINEAR LINEAR LINEAR LINEAR LINEAR LINEAR LINEAR LINEAR LINEAR</Name_array>
        <technique_common>
          <accessor source="#Motion_1_RArm_transform_interp_array_id" count="16" stride="1">
            <param name="INTERPOLATION" type="Name" />
          </accessor>
        </technique_common>
      </source>
      <source id="Motion_1_RArm_transform_pose_id" name="Motion_1_RArm_transform_pose">
        <float_array id="Motion_1_RArm_transform_pose_array_id" count="256">0.845333 -0.07449254 -0.52902085 7.079994 -0.25101423 0.8187394 -0.516389 0 0.47159734 0.56931245 0.6734087 0 0 0 0 1 0.8508696 -0.15802203 -0.5010489 7.079994 -0.16539033 0.8246399 -0.540939 0 0.4986652 0.5431372 0.6755257 0 0 0 0 1 0.8371206 -0.19359598 -0.51161486 7.079994 -0.14665177 0.8216144 -0.5508567 0 0.5269938 0.53616273 0.6593991 0 0 0 0 1 0.8164806 -0.14762414 -0.5581815 7.079994 -0.21817106 0.81620073 -0.5349933 0 0.53456604 0.55859065 0.6342047 0 0 0 0 1 0.79361594 -0.05728513 -0.6057162 7.079994 -0.31892756 0.8086492 -0.4943397 0 0.5181302 0.5854955 0.6234871 0 0 0 0 1 0.7980499 0.017505243 -0.602337 7.079994 -0.37342012 0.79888153 -0.47153556 0 0.47294152 0.6012337 0.64408416 0 0 0 0 1 0.8516543 0.027938202 -0.5233588 7.079994 -0.33229905 0.80099106 -0.4979866 0 0.4052929 0.5980241 0.6914513 0 0 0 0 1 0.89409167 -0.012801744 -0.44770104 7.079994 -0.25551662 0.8063845 -0.5333435 0 0.3678469 0.591253 0.7177106 0 0 0 0 1 0.9139598 -0.065470725 -0.40048853 7.079994 -0.18951944 0.80379784 -0.56390727 0 0.35883126 0.5912889 0.722231 0 0 0 0 1 0.9162519 -0.101336 -0.38757384 7.079994 -0.15978518 0.79474115 -0.5855384 0 0.36735702 0.5984292 0.7119911 0 0 0 0 1 0.9054535 -0.09087088 -0.414604 7.079994 -0.18913874 0.7880851 -0.58578867 0 0.37997437 0.60882205 0.69638723 0 0 0 0 1 0.8825631 -0.03351783 -0.4689978 7.079994 -0.26511136 0.7883142 -0.5552267 0 0.38832763 0.61435926 0.686851 0 0 0 0 1 0.8519236 0.029454768 -0.52283704 7.079994 -0.33975473 0.7908434 -0.50905144 0 0.39848828 0.6113093 0.6837456 0 0 0 0 1 0.8353688 0.055802897 -0.5468501 7.079994 -0.36836082 0.79524326 -0.4815584 0 0.40800646 0.60371697 0.68487704 0 0 0 0 1 0.8425462 0.0129746795 -0.53846776 7.079994 -0.3271876 0.8064555 -0.49252188 0 0.42785996 0.5911524 0.6837212 0 0 0 0 1 0.8425462 0.0129746795 -0.53846776 7.079994 -0.3271876 0.8064555 -0.49252188 0 0.42785996 0.5911524 0.6837212 0 0 0 0 1</float_array>
        <technique_common>
          <accessor source="#Motion_1_RArm_transform_pose_array_id" count="16" stride="16">
            <param name="TRANSFORM" type="float4x4" />
          </accessor>
        </technique_common>
      </source>
      <sampler id="Motion_1_RArm_transform_samp_id">
        <input semantic="INPUT" source="#Motion_1_RArm_transform_frame_id" />
        <input semantic="INTERPOLATION" source="#Motion_1_RArm_transform_interp_id" />
        <input semantic="OUTPUT" source="#Motion_1_RArm_transform_pose_id" />
      </sampler>
      <channel source="#Motion_1_RArm_transform_samp_id" target="RArm_bone_id/transform" />
    </animation>
    <animation id="Motion_1_RForeArm_transform_id" name="Motion_1_RForeArm_transform">
      <source id="Motion_1_RForeArm_transform_frame_id" name="Motion_1_RForeArm_transform_frame">
        <float_array id="Motion_1_RForeArm_transform_frame_array_id" count="16">0 0.033333335 0.06666667 0.1 0.13333334 0.16666667 0.2 0.23333333 0.26666668 0.3 0.33333334 0.36666667 0.4 0.43333334 0.46666667 0.5</float_array>
        <technique_common>
          <accessor source="#Motion_1_RForeArm_transform_frame_array_id" count="16" stride="1">
            <param name="TIME" type="float" />
          </accessor>
        </technique_common>
      </source>
      <source id="Motion_1_RForeArm_transform_interp_id" name="Motion_1_RForeArm_transform_interp">
        <Name_array id="Motion_1_RForeArm_transform_interp_array_id" count="16">LINEAR LINEAR LINEAR LINEAR LINEAR LINEAR LINEAR LINEAR LINEAR LINEAR LINEAR LINEAR LINEAR LINEAR LINEAR LINEAR</Name_array>
        <technique_common>
          <accessor source="#Motion_1_RForeArm_transform_interp_array_id" count="16" stride="1">
            <param name="INTERPOLATION" type="Name" />
          </accessor>
        </technique_common>
      </source>
      <source id="Motion_1_RForeArm_transform_pose_id" name="Motion_1_RForeArm_transform_pose">
        <float_array id="Motion_1_RForeArm_transform_pose_array_id" count="256">0.9334506 0 -0.358706 14.90003 0 1 0 0 0.358706 0 0.9334506 0 0 0 0 1 0.87491 2.6623407E-05 -0.4842856 14.90003 -2.3293085E-05 1 1.28933325E-05 0 0.4842856 0 0.87491 0 0 0 0 1 0.84759295 2.1298718E-05 -0.530647 14.90003 -1.8052644E-05 1 1.13021015E-05 0 0.530647 0 0.84759295 0 0 0 0 1 0.88026136 0 -0.47448912 14.90003 0 1 0 0 0.47448912 0 0.88026136 0 0 0 0 1 0.94128 -2.1298727E-05 -0.3376269 14.90003 2.0048066E-05 1 -7.1910235E-06 0 0.3376269 0 0.94128 0 0 0 0 1 0.9710397 -2.6623411E-05 -0.23891816 14.90003 2.5852389E-05 1 -6.3608163E-06 0 0.23891816 0 0.9710397 0 0 0 0 1 0.9349745 0 -0.35471502 14.90003 0 1 0 0 0.35471502 0 0.9349745 0 0 0 0 1 0.8643925 0 -0.50281763 14.90003 0 1 0 0 0.50281763 0 0.8643925 0 0 0 0 1 0.79109126 -1.7484554E-07 -0.61169815 14.90003 1.3831878E-07 1 -1.069527E-07 0 0.61169815 -3.5527137E-15 0.79109126 0 0 0 0 1 0.7513788 0 -0.65987116 14.90003 0 1 0 0 0.65987116 0 0.7513788 0 0 0 0 1 0.77259195 -1.7484557E-07 -0.6349029 14.90003 1.3508428E-07 1 -1.1100995E-07 0 0.6349029 0 0.77259195 0 0 0 0 1 0.8381027 0 -0.5455125 14.90003 0 1 0 0 0.5455125 0 0.8381027 0 0 0 0 1 0.9131859 0 -0.4075433 14.90003 0 1 0 0 0.4075433 0 0.9131859 0 0 0 0 1 0.9529279 -1.7484557E-07 -0.30319706 14.90003 1.6661521E-07 1 -5.3012656E-08 0 0.30319706 1.7763568E-15 0.9529279 0 0 0 0 1 0.9483253 0 -0.3172999 14.90003 0 1 0 0 0.3172999 0 0.9483253 0 0 0 0 1 0.9483253 0 -0.3172999 14.90003 0 1 0 0 0.3172999 0 0.9483253 0 0 0 0 1</float_array>
        <technique_common>
          <accessor source="#Motion_1_RForeArm_transform_pose_array_id" count="16" stride="16">
            <param name="TRANSFORM" type="float4x4" />
          </accessor>
        </technique_common>
      </source>
      <sampler id="Motion_1_RForeArm_transform_samp_id">
        <input semantic="INPUT" source="#Motion_1_RForeArm_transform_frame_id" />
        <input semantic="INTERPOLATION" source="#Motion_1_RForeArm_transform_interp_id" />
        <input semantic="OUTPUT" source="#Motion_1_RForeArm_transform_pose_id" />
      </sampler>
      <channel source="#Motion_1_RForeArm_transform_samp_id" target="RForeArm_bone_id/transform" />
    </animation>
    <animation id="Motion_1_RHand_transform_id" name="Motion_1_RHand_transform">
      <source id="Motion_1_RHand_transform_frame_id" name="Motion_1_RHand_transform_frame">
        <float_array id="Motion_1_RHand_transform_frame_array_id" count="16">0 0.033333335 0.06666667 0.1 0.13333334 0.16666667 0.2 0.23333333 0.26666668 0.3 0.33333334 0.36666667 0.4 0.43333334 0.46666667 0.5</float_array>
        <technique_common>
          <accessor source="#Motion_1_RHand_transform_frame_array_id" count="16" stride="1">
            <param name="TIME" type="float" />
          </accessor>
        </technique_common>
      </source>
      <source id="Motion_1_RHand_transform_interp_id" name="Motion_1_RHand_transform_interp">
        <Name_array id="Motion_1_RHand_transform_interp_array_id" count="16">LINEAR LINEAR LINEAR LINEAR LINEAR LINEAR LINEAR LINEAR LINEAR LINEAR LINEAR LINEAR LINEAR LINEAR LINEAR LINEAR</Name_array>
        <technique_common>
          <accessor source="#Motion_1_RHand_transform_interp_array_id" count="16" stride="1">
            <param name="INTERPOLATION" type="Name" />
          </accessor>
        </technique_common>
      </source>
      <source id="Motion_1_RHand_transform_pose_id" name="Motion_1_RHand_transform_pose">
        <float_array id="Motion_1_RHand_transform_pose_array_id" count="256">0.99316394 -0.10469415 -0.051618986 14.9 0.056422703 0.8176983 -0.57287514 0 0.102185436 0.5660465 0.8180156 0 0 0 0 1 0.99656254 -0.08284302 -0.00035068765 14.9 0.06968632 0.8405678 -0.5372053 0 0.044798482 0.53533417 0.84345144 0 0 0 0 1 0.9970562 -0.07508462 0.015534064 14.9 0.07168231 0.84089637 -0.536428 0 0.027214954 0.53596234 0.8438031 0 0 0 0 1 0.9969858 -0.07673407 -0.011456344 14.9 0.056471813 0.8189791 -0.5710379 0 0.05320057 0.5686697 0.8208438 0 0 0 0 1 0.99271333 -0.10133565 -0.06520193 14.9 0.040577136 0.79061633 -0.6109659 0 0.11346234 0.6038683 0.78896725 0 0 0 0 1 0.9868527 -0.128533 -0.09798446 14.9 0.038699448 0.7765398 -0.6288786 0 0.1569205 0.61681867 0.77130455 0 0 0 0 1 0.99356186 -0.10203568 -0.049229324 14.9 0.04987014 0.7840849 -0.6186468 0 0.10172401 0.6122088 0.7841254 0 0 0 0 1 0.99726784 -0.07244067 0.014462478 14.9 0.06694998 0.80361414 -0.59137297 0 0.031217206 0.59072554 0.80626845 0 0 0 0 1 0.99667436 -0.05529574 0.059855156 14.9 0.079652786 0.8160924 -0.57240605 0 -0.017195717 0.57527006 0.81778276 0 0 0 0 1 0.9963206 -0.047758326 0.07116492 14.9 0.0802543 0.81127316 -0.57913303 0 -0.030075759 0.5827135 0.8121209 0 0 0 0 1 0.9978673 -0.044525553 0.04773194 14.9 0.064438045 0.78867674 -0.6114219 0 -0.010421172 0.6131937 0.7898639 0 0 0 0 1 0.9985242 -0.054200757 0.0034235334 14.9 0.04317021 0.7539036 -0.65556514 0 0.03295111 0.65474546 0.7551309 0 0 0 0 1 0.9952123 -0.08510063 -0.048066333 14.9 0.029690718 0.73179245 -0.68088055 0 0.09311794 0.6761936 0.73081553 0 0 0 0 1 0.99006313 -0.115082785 -0.0808144 14.9 0.030674111 0.73758453 -0.67455775 0 0.13723743 0.6653759 0.7337853 0 0 0 0 1 0.99089587 -0.11410551 -0.07145182 14.9 0.043248568 0.7723804 -0.6336861 0 0.12749505 0.6248267 0.77028346 0 0 0 0 1 0.99089587 -0.11410551 -0.07145182 14.9 0.043248568 0.7723804 -0.6336861 0 0.12749505 0.6248267 0.77028346 0 0 0 0 1</float_array>
        <technique_common>
          <accessor source="#Motion_1_RHand_transform_pose_array_id" count="16" stride="16">
            <param name="TRANSFORM" type="float4x4" />
          </accessor>
        </technique_common>
      </source>
      <sampler id="Motion_1_RHand_transform_samp_id">
        <input semantic="INPUT" source="#Motion_1_RHand_transform_frame_id" />
        <input semantic="INTERPOLATION" source="#Motion_1_RHand_transform_interp_id" />
        <input semantic="OUTPUT" source="#Motion_1_RHand_transform_pose_id" />
      </sampler>
      <channel source="#Motion_1_RHand_transform_samp_id" target="RHand_bone_id/transform" />
    </animation>
    <animation id="Motion_1_Hips_transform_id" name="Motion_1_Hips_transform">
      <source id="Motion_1_Hips_transform_frame_id" name="Motion_1_Hips_transform_frame">
        <float_array id="Motion_1_Hips_transform_frame_array_id" count="16">0 0.033333335 0.06666667 0.1 0.13333334 0.16666667 0.2 0.23333333 0.26666668 0.3 0.33333334 0.36666667 0.4 0.43333334 0.46666667 0.5</float_array>
        <technique_common>
          <accessor source="#Motion_1_Hips_transform_frame_array_id" count="16" stride="1">
            <param name="TIME" type="float" />
          </accessor>
        </technique_common>
      </source>
      <source id="Motion_1_Hips_transform_interp_id" name="Motion_1_Hips_transform_interp">
        <Name_array id="Motion_1_Hips_transform_interp_array_id" count="16">LINEAR LINEAR LINEAR LINEAR LINEAR LINEAR LINEAR LINEAR LINEAR LINEAR LINEAR LINEAR LINEAR LINEAR LINEAR LINEAR</Name_array>
        <technique_common>
          <accessor source="#Motion_1_Hips_transform_interp_array_id" count="16" stride="1">
            <param name="INTERPOLATION" type="Name" />
          </accessor>
        </technique_common>
      </source>
      <source id="Motion_1_Hips_transform_pose_id" name="Motion_1_Hips_transform_pose">
        <float_array id="Motion_1_Hips_transform_pose_array_id" count="256">-0.95788264 -3.9215408E-07 -0.2871599 -0.009998 3.7843049E-07 -1 1.0329456E-07 0 -0.2871599 -9.725987E-09 0.95788264 0 0 0 0 1 -0.95788264 -3.9215408E-07 -0.2871599 -0.009998 3.7843049E-07 -1 1.0329456E-07 0 -0.2871599 -9.725987E-09 0.95788264 0 0 0 0 1 -0.95788264 -3.9215408E-07 -0.2871599 -0.009998 3.7843049E-07 -1 1.0329456E-07 0 -0.2871599 -9.725987E-09 0.95788264 0 0 0 0 1 -0.95788264 -3.9215408E-07 -0.2871599 -0.009998 3.7843049E-07 -1 1.0329456E-07 0 -0.2871599 -9.725987E-09 0.95788264 0 0 0 0 1 -0.95788264 -3.9215408E-07 -0.2871599 -0.009998 3.7843049E-07 -1 1.0329456E-07 0 -0.2871599 -9.725987E-09 0.95788264 0 0 0 0 1 -0.95788264 -3.9215408E-07 -0.2871599 -0.009998 3.7843049E-07 -1 1.0329456E-07 0 -0.2871599 -9.725987E-09 0.95788264 0 0 0 0 1 -0.95788264 -3.9215408E-07 -0.2871599 -0.009998 3.7843049E-07 -1 1.0329456E-07 0 -0.2871599 -9.725987E-09 0.95788264 0 0 0 0 1 -0.95788264 -3.9215408E-07 -0.2871599 -0.009998 3.7843049E-07 -1 1.0329456E-07 0 -0.2871599 -9.725987E-09 0.95788264 0 0 0 0 1 -0.95788264 -3.9215408E-07 -0.2871599 -0.009998 3.7843049E-07 -1 1.0329456E-07 0 -0.2871599 -9.725987E-09 0.95788264 0 0 0 0 1 -0.95788264 -3.9215408E-07 -0.2871599 -0.009998 3.7843049E-07 -1 1.0329456E-07 0 -0.2871599 -9.725987E-09 0.95788264 0 0 0 0 1 -0.95788264 -3.9215408E-07 -0.2871599 -0.009998 3.7843049E-07 -1 1.0329456E-07 0 -0.2871599 -9.725987E-09 0.95788264 0 0 0 0 1 -0.95788264 -3.9215408E-07 -0.2871599 -0.009998 3.7843049E-07 -1 1.0329456E-07 0 -0.2871599 -9.725987E-09 0.95788264 0 0 0 0 1 -0.95788264 -3.9215408E-07 -0.2871599 -0.009998 3.7843049E-07 -1 1.0329456E-07 0 -0.2871599 -9.725987E-09 0.95788264 0 0 0 0 1 -0.95788264 -3.9215408E-07 -0.2871599 -0.009998 3.7843049E-07 -1 1.0329456E-07 0 -0.2871599 -9.725987E-09 0.95788264 0 0 0 0 1 -0.95788264 -3.9215408E-07 -0.2871599 -0.009998 3.7843049E-07 -1 1.0329456E-07 0 -0.2871599 -9.725987E-09 0.95788264 0 0 0 0 1 -0.95788264 -3.9215408E-07 -0.2871599 -0.009998 3.7843049E-07 -1 1.0329456E-07 0 -0.2871599 -9.725987E-09 0.95788264 0 0 0 0 1</float_array>
        <technique_common>
          <accessor source="#Motion_1_Hips_transform_pose_array_id" count="16" stride="16">
            <param name="TRANSFORM" type="float4x4" />
          </accessor>
        </technique_common>
      </source>
      <sampler id="Motion_1_Hips_transform_samp_id">
        <input semantic="INPUT" source="#Motion_1_Hips_transform_frame_id" />
        <input semantic="INTERPOLATION" source="#Motion_1_Hips_transform_interp_id" />
        <input semantic="OUTPUT" source="#Motion_1_Hips_transform_pose_id" />
      </sampler>
      <channel source="#Motion_1_Hips_transform_samp_id" target="Hips_bone_id/transform" />
    </animation>
    <animation id="Motion_1_LThigh_transform_id" name="Motion_1_LThigh_transform">
      <source id="Motion_1_LThigh_transform_frame_id" name="Motion_1_LThigh_transform_frame">
        <float_array id="Motion_1_LThigh_transform_frame_array_id" count="16">0 0.033333335 0.06666667 0.1 0.13333334 0.16666667 0.2 0.23333333 0.26666668 0.3 0.33333334 0.36666667 0.4 0.43333334 0.46666667 0.5</float_array>
        <technique_common>
          <accessor source="#Motion_1_LThigh_transform_frame_array_id" count="16" stride="1">
            <param name="TIME" type="float" />
          </accessor>
        </technique_common>
      </source>
      <source id="Motion_1_LThigh_transform_interp_id" name="Motion_1_LThigh_transform_interp">
        <Name_array id="Motion_1_LThigh_transform_interp_array_id" count="16">LINEAR LINEAR LINEAR LINEAR LINEAR LINEAR LINEAR LINEAR LINEAR LINEAR LINEAR LINEAR LINEAR LINEAR LINEAR LINEAR</Name_array>
        <technique_common>
          <accessor source="#Motion_1_LThigh_transform_interp_array_id" count="16" stride="1">
            <param name="INTERPOLATION" type="Name" />
          </accessor>
        </technique_common>
      </source>
      <source id="Motion_1_LThigh_transform_pose_id" name="Motion_1_LThigh_transform_pose">
        <float_array id="Motion_1_LThigh_transform_pose_array_id" count="256">0.08110297 -0.22439456 -0.9711175 6 0.51874137 0.84147 -0.15111442 6 0.85107553 -0.49150306 0.18464845 0 0 0 0 1 0.079463184 -0.22787842 -0.9704416 6 0.5588286 0.8163417 -0.14593397 6 0.8254671 -0.5307142 0.19221413 0 0 0 0 1 0.054730654 -0.23095432 -0.97142404 6 0.5932729 0.7900539 -0.15440854 6 0.8031387 -0.5678687 0.18025911 0 0 0 0 1 0.029721081 -0.23115195 -0.97246355 6 0.6140579 0.77188367 -0.16470742 6 0.7887011 -0.5922536 0.16488194 0 0 0 0 1 0.027003467 -0.22858325 -0.9731497 6 0.61372876 0.77222 -0.1643568 6 0.78905493 -0.5928118 0.16114074 0 0 0 0 1 0.04191053 -0.23604068 -0.970839 6 0.58483315 0.7936272 -0.16770814 6 0.8100703 -0.56075007 0.17130572 0 0 0 0 1 0.06640947 -0.2568581 -0.9641647 6 0.5373812 0.8233911 -0.18234172 6 0.8407206 -0.5060148 0.19271171 0 0 0 0 1 0.09087515 -0.28787136 -0.95334774 6 0.4874922 0.84762603 -0.20947899 6 0.8683854 -0.44571316 0.21736318 0 0 0 0 1 0.09830946 -0.31412023 -0.94427943 6 0.44764286 0.86141706 -0.2399512 6 0.8887919 -0.3991105 0.22529912 0 0 0 0 1 0.0876199 -0.31008983 -0.94666106 6 0.4167599 0.8745613 -0.24789874 6 0.904784 -0.37280947 0.20586193 0 0 0 0 1 0.07215887 -0.28677183 -0.9552775 6 0.398013 0.88648903 -0.23605698 6 0.9145375 -0.3631792 0.17810696 0 0 0 0 1 0.06390172 -0.2588617 -0.96379834 6 0.3961827 0.89298654 -0.21357505 6 0.91594535 -0.36819237 0.15961987 0 0 0 0 1 0.06296396 -0.23796089 -0.9692317 6 0.41251755 0.89052093 -0.19183792 6 0.90877104 -0.3877462 0.15423375 0 0 0 0 1 0.06743121 -0.22605349 -0.9717783 6 0.4410395 0.88041985 -0.17419833 6 0.894951 -0.41684616 0.15906632 0 0 0 0 1 0.07410151 -0.2227936 -0.9720453 6 0.4781584 0.8633122 -0.16142063 6 0.875142 -0.45283008 0.17050338 0 0 0 0 1 0.07410151 -0.2227936 -0.9720453 6 0.4781584 0.8633122 -0.16142063 6 0.875142 -0.45283008 0.17050338 0 0 0 0 1</float_array>
        <technique_common>
          <accessor source="#Motion_1_LThigh_transform_pose_array_id" count="16" stride="16">
            <param name="TRANSFORM" type="float4x4" />
          </accessor>
        </technique_common>
      </source>
      <sampler id="Motion_1_LThigh_transform_samp_id">
        <input semantic="INPUT" source="#Motion_1_LThigh_transform_frame_id" />
        <input semantic="INTERPOLATION" source="#Motion_1_LThigh_transform_interp_id" />
        <input semantic="OUTPUT" source="#Motion_1_LThigh_transform_pose_id" />
      </sampler>
      <channel source="#Motion_1_LThigh_transform_samp_id" target="LThigh_bone_id/transform" />
    </animation>
    <animation id="Motion_1_LLeg_transform_id" name="Motion_1_LLeg_transform">
      <source id="Motion_1_LLeg_transform_frame_id" name="Motion_1_LLeg_transform_frame">
        <float_array id="Motion_1_LLeg_transform_frame_array_id" count="16">0 0.033333335 0.06666667 0.1 0.13333334 0.16666667 0.2 0.23333333 0.26666668 0.3 0.33333334 0.36666667 0.4 0.43333334 0.46666667 0.5</float_array>
        <technique_common>
          <accessor source="#Motion_1_LLeg_transform_frame_array_id" count="16" stride="1">
            <param name="TIME" type="float" />
          </accessor>
        </technique_common>
      </source>
      <source id="Motion_1_LLeg_transform_interp_id" name="Motion_1_LLeg_transform_interp">
        <Name_array id="Motion_1_LLeg_transform_interp_array_id" count="16">LINEAR LINEAR LINEAR LINEAR LINEAR LINEAR LINEAR LINEAR LINEAR LINEAR LINEAR LINEAR LINEAR LINEAR LINEAR LINEAR</Name_array>
        <technique_common>
          <accessor source="#Motion_1_LLeg_transform_interp_array_id" count="16" stride="1">
            <param name="INTERPOLATION" type="Name" />
          </accessor>
        </technique_common>
      </source>
      <source id="Motion_1_LLeg_transform_pose_id" name="Motion_1_LLeg_transform_pose">
        <float_array id="Motion_1_LLeg_transform_pose_array_id" count="256">0.68602467 0 0.7275783 21.1 0 1 0 0 -0.7275783 0 0.68602467 0 0 0 0 1 0.6570119 0 0.7538802 21.1 0 1 0 0 -0.7538802 0 0.6570119 0 0 0 0 1 0.6122956 0 0.79062885 21.1 0 1 0 0 -0.79062885 0 0.6122956 0 0 0 0 1 0.5761392 0 0.8173516 21.1 0 1 0 0 -0.8173516 0 0.5761392 0 0 0 0 1 0.5757086 0 0.8176549 21.1 0 1 0 0 -0.8176549 0 0.5757086 0 0 0 0 1 0.60382617 0 0.79711604 21.1 0 1 0 0 -0.79711604 0 0.60382617 0 0 0 0 1 0.65059865 0 0.75942177 21.1 0 1 0 0 -0.75942177 0 0.65059865 0 0 0 0 1 0.69882786 0 0.7152899 21.1 0 1 0 0 -0.7152899 0 0.69882786 0 0 0 0 1 0.7265965 0 0.6870644 21.1 0 1 0 0 -0.6870644 0 0.7265965 0 0 0 0 1 0.7431543 0 0.66912013 21.1 0 1 0 0 -0.66912013 0 0.7431543 0 0 0 0 1 0.7562758 0 0.654253 21.1 0 1 0 0 -0.654253 0 0.7562758 0 0 0 0 1 0.7614638 0 0.64820737 21.1 0 1 0 0 -0.64820737 0 0.7614638 0 0 0 0 1 0.7531878 0 0.65780556 21.1 0 1 0 0 -0.65780556 0 0.7531878 0 0 0 0 1 0.7342799 0 0.67884684 21.1 0 1 0 0 -0.67884684 0 0.7342799 0 0 0 0 1 0.71044993 0 0.70374775 21.1 0 1 0 0 -0.70374775 0 0.71044993 0 0 0 0 1 0.71044993 0 0.70374775 21.1 0 1 0 0 -0.70374775 0 0.71044993 0 0 0 0 1</float_array>
        <technique_common>
          <accessor source="#Motion_1_LLeg_transform_pose_array_id" count="16" stride="16">
            <param name="TRANSFORM" type="float4x4" />
          </accessor>
        </technique_common>
      </source>
      <sampler id="Motion_1_LLeg_transform_samp_id">
        <input semantic="INPUT" source="#Motion_1_LLeg_transform_frame_id" />
        <input semantic="INTERPOLATION" source="#Motion_1_LLeg_transform_interp_id" />
        <input semantic="OUTPUT" source="#Motion_1_LLeg_transform_pose_id" />
      </sampler>
      <channel source="#Motion_1_LLeg_transform_samp_id" target="LLeg_bone_id/transform" />
    </animation>
    <animation id="Motion_1_LFoot_transform_id" name="Motion_1_LFoot_transform">
      <source id="Motion_1_LFoot_transform_frame_id" name="Motion_1_LFoot_transform_frame">
        <float_array id="Motion_1_LFoot_transform_frame_array_id" count="16">0 0.033333335 0.06666667 0.1 0.13333334 0.16666667 0.2 0.23333333 0.26666668 0.3 0.33333334 0.36666667 0.4 0.43333334 0.46666667 0.5</float_array>
        <technique_common>
          <accessor source="#Motion_1_LFoot_transform_frame_array_id" count="16" stride="1">
            <param name="TIME" type="float" />
          </accessor>
        </technique_common>
      </source>
      <source id="Motion_1_LFoot_transform_interp_id" name="Motion_1_LFoot_transform_interp">
        <Name_array id="Motion_1_LFoot_transform_interp_array_id" count="16">LINEAR LINEAR LINEAR LINEAR LINEAR LINEAR LINEAR LINEAR LINEAR LINEAR LINEAR LINEAR LINEAR LINEAR LINEAR LINEAR</Name_array>
        <technique_common>
          <accessor source="#Motion_1_LFoot_transform_interp_array_id" count="16" stride="1">
            <param name="INTERPOLATION" type="Name" />
          </accessor>
        </technique_common>
      </source>
      <source id="Motion_1_LFoot_transform_pose_id" name="Motion_1_LFoot_transform_pose">
        <float_array id="Motion_1_LFoot_transform_pose_array_id" count="256">0.021963954 -0.056974936 -0.99813396 21.100002 -0.1784762 0.9821139 -0.05998785 0 0.983699 0.17946073 0.011402428 2E-06 0 0 0 1 0.049271643 -0.029715285 -0.9983433 21.100002 -0.19124138 0.9807825 -0.038631022 0 0.9803056 0.19282797 0.042641997 2E-06 0 0 0 1 0.08536416 0.0065562353 -0.99632835 21.100002 -0.21183562 0.977235 -0.011719242 0 0.9735701 0.21205823 0.08480966 2E-06 0 0 0 1 0.12453449 0.047749415 -0.9910657 21.100002 -0.23794644 0.97113144 0.016889319 0 0.9632614 0.23371725 0.13230115 2E-06 0 0 0 1 0.16046679 0.087829165 -0.9831258 21.100002 -0.26536858 0.96319944 0.04273531 0 0.9506997 0.25403312 0.1778686 2E-06 0 0 0 1 0.18802482 0.12014155 -0.9747886 21.100002 -0.2891785 0.9552681 0.06195668 0 0.938628 0.27023852 0.21435648 2E-06 0 0 0 1 0.20306313 0.13838428 -0.9693374 21.100002 -0.30346167 0.95011425 0.072068825 0 0.9309545 0.27952224 0.23492754 2E-06 0 0 0 1 0.2025209 0.13764313 -0.96955633 21.100002 -0.30295566 0.950309 0.071629316 0 0.93123734 0.27922618 0.2341572 2E-06 0 0 0 1 0.1878466 0.11950776 -0.97490084 21.100002 -0.289181 0.95530427 0.06138531 0 0.9386629 0.27039176 0.21401006 2E-06 0 0 0 1 0.16106844 0.088147424 -0.98299897 21.100002 -0.26606455 0.9630064 0.042758867 0 0.95040333 0.2546541 0.17856288 2E-06 0 0 0 1 0.12547123 0.048993953 -0.9908868 21.100002 -0.23869908 0.97093076 0.017781913 0 0.9629537 0.23429263 0.1335187 2E-06 0 0 0 1 0.086147726 0.007863216 -0.99625134 21.100002 -0.21250045 0.97710276 -0.010663241 0 0.9733561 0.21262248 0.085846126 2E-06 0 0 0 1 0.049322784 -0.029583022 -0.99834466 21.100002 -0.19178848 0.9806795 -0.03853479 0 0.9801961 0.19337165 0.042696178 2E-06 0 0 0 1 0.021976888 -0.05680242 -0.9981437 21.100002 -0.17853214 0.9821139 -0.059821103 0 0.9836887 0.17951539 0.0114427805 2E-06 0 0 0 1 0.011308432 -0.06732913 -0.9976668 21.100002 -0.17384091 0.9824045 -0.06826961 0 0.98470885 0.1742073 -0.0005950928 2E-06 0 0 0 1 0.011308432 -0.06732913 -0.9976668 21.100002 -0.17384091 0.9824045 -0.06826961 0 0.98470885 0.1742073 -0.0005950928 2E-06 0 0 0 1</float_array>
        <technique_common>
          <accessor source="#Motion_1_LFoot_transform_pose_array_id" count="16" stride="16">
            <param name="TRANSFORM" type="float4x4" />
          </accessor>
        </technique_common>
      </source>
      <sampler id="Motion_1_LFoot_transform_samp_id">
        <input semantic="INPUT" source="#Motion_1_LFoot_transform_frame_id" />
        <input semantic="INTERPOLATION" source="#Motion_1_LFoot_transform_interp_id" />
        <input semantic="OUTPUT" source="#Motion_1_LFoot_transform_pose_id" />
      </sampler>
      <channel source="#Motion_1_LFoot_transform_samp_id" target="LFoot_bone_id/transform" />
    </animation>
    <animation id="Motion_1_RThigh_transform_id" name="Motion_1_RThigh_transform">
      <source id="Motion_1_RThigh_transform_frame_id" name="Motion_1_RThigh_transform_frame">
        <float_array id="Motion_1_RThigh_transform_frame_array_id" count="16">0 0.033333335 0.06666667 0.1 0.13333334 0.16666667 0.2 0.23333333 0.26666668 0.3 0.33333334 0.36666667 0.4 0.43333334 0.46666667 0.5</float_array>
        <technique_common>
          <accessor source="#Motion_1_RThigh_transform_frame_array_id" count="16" stride="1">
            <param name="TIME" type="float" />
          </accessor>
        </technique_common>
      </source>
      <source id="Motion_1_RThigh_transform_interp_id" name="Motion_1_RThigh_transform_interp">
        <Name_array id="Motion_1_RThigh_transform_interp_array_id" count="16">LINEAR LINEAR LINEAR LINEAR LINEAR LINEAR LINEAR LINEAR LINEAR LINEAR LINEAR LINEAR LINEAR LINEAR LINEAR LINEAR</Name_array>
        <technique_common>
          <accessor source="#Motion_1_RThigh_transform_interp_array_id" count="16" stride="1">
            <param name="INTERPOLATION" type="Name" />
          </accessor>
        </technique_common>
      </source>
      <source id="Motion_1_RThigh_transform_pose_id" name="Motion_1_RThigh_transform_pose">
        <float_array id="Motion_1_RThigh_transform_pose_array_id" count="256">0.22532618 0.3727375 -0.90016377 6 -0.58188105 0.7925296 0.18251394 -6 0.7814362 0.48266304 0.39546657 0 0 0 0 1 0.21484113 0.3297661 -0.91929185 6 -0.5642746 0.81017995 0.15875314 -6 0.7971432 0.48462635 0.36013865 0 0 0 0 1 0.17999983 0.2942046 -0.9386393 6 -0.54887664 0.8219011 0.15235822 -6 0.8162931 0.4877727 0.3094241 0 0 0 0 1 0.14076948 0.2740265 -0.951364 6 -0.5398833 0.8267315 0.15824363 -6 0.82988554 0.49134967 0.2643209 0 0 0 0 1 0.11788905 0.27669525 -0.9536991 6 -0.5423264 0.822461 0.17158101 -6 0.831856 0.4969886 0.24701828 0 0 0 0 1 0.13579065 0.31514 -0.93928045 6 -0.56900203 0.80091834 0.18645787 -6 0.81104726 0.5091332 0.28807253 0 0 0 0 1 0.1703378 0.37598276 -0.9108359 6 -0.6014791 0.7718396 0.20612247 -6 0.78051776 0.5127383 0.3576193 0 0 0 0 1 0.17345351 0.44199583 -0.8800872 6 -0.61004317 0.7497665 0.25631502 -6 0.77315015 0.4924325 0.39968622 0 0 0 0 1 0.14630127 0.49830142 -0.85457104 6 -0.59505725 0.7344297 0.32637393 -6 0.7902549 0.4607697 0.40396583 0 0 0 0 1 0.1281321 0.53567004 -0.8346495 6 -0.5849166 0.720453 0.3725857 -6 0.80090874 0.4404601 0.40563542 0 0 0 0 1 0.115994334 0.5452436 -0.83021355 6 -0.5873915 0.71168244 0.38533008 -6 0.8009472 0.44296432 0.40282267 0 0 0 0 1 0.10504389 0.5311095 -0.84076667 6 -0.60037476 0.7078568 0.37214103 -6 0.79279006 0.4656839 0.39322072 0 0 0 0 1 0.11435008 0.50031024 -0.8582621 6 -0.6123888 0.7157638 0.33565187 -6 0.7822431 0.48720825 0.388232 0 0 0 0 1 0.15070885 0.459577 -0.8752577 6 -0.6118204 0.7388 0.28257814 -6 0.77650684 0.4929134 0.39252222 0 0 0 0 1 0.19598019 0.41672572 -0.887655 6 -0.59924495 0.7674196 0.22797519 -6 0.776207 0.4872442 0.40011984 0 0 0 0 1 0.19598019 0.41672572 -0.887655 6 -0.59924495 0.7674196 0.22797519 -6 0.776207 0.4872442 0.40011984 0 0 0 0 1</float_array>
        <technique_common>
          <accessor source="#Motion_1_RThigh_transform_pose_array_id" count="16" stride="16">
            <param name="TRANSFORM" type="float4x4" />
          </accessor>
        </technique_common>
      </source>
      <sampler id="Motion_1_RThigh_transform_samp_id">
        <input semantic="INPUT" source="#Motion_1_RThigh_transform_frame_id" />
        <input semantic="INTERPOLATION" source="#Motion_1_RThigh_transform_interp_id" />
        <input semantic="OUTPUT" source="#Motion_1_RThigh_transform_pose_id" />
      </sampler>
      <channel source="#Motion_1_RThigh_transform_samp_id" target="RThigh_bone_id/transform" />
    </animation>
    <animation id="Motion_1_RLeg_transform_id" name="Motion_1_RLeg_transform">
      <source id="Motion_1_RLeg_transform_frame_id" name="Motion_1_RLeg_transform_frame">
        <float_array id="Motion_1_RLeg_transform_frame_array_id" count="16">0 0.033333335 0.06666667 0.1 0.13333334 0.16666667 0.2 0.23333333 0.26666668 0.3 0.33333334 0.36666667 0.4 0.43333334 0.46666667 0.5</float_array>
        <technique_common>
          <accessor source="#Motion_1_RLeg_transform_frame_array_id" count="16" stride="1">
            <param name="TIME" type="float" />
          </accessor>
        </technique_common>
      </source>
      <source id="Motion_1_RLeg_transform_interp_id" name="Motion_1_RLeg_transform_interp">
        <Name_array id="Motion_1_RLeg_transform_interp_array_id" count="16">LINEAR LINEAR LINEAR LINEAR LINEAR LINEAR LINEAR LINEAR LINEAR LINEAR LINEAR LINEAR LINEAR LINEAR LINEAR LINEAR</Name_array>
        <technique_common>
          <accessor source="#Motion_1_RLeg_transform_interp_array_id" count="16" stride="1">
            <param name="INTERPOLATION" type="Name" />
          </accessor>
        </technique_common>
      </source>
      <source id="Motion_1_RLeg_transform_pose_id" name="Motion_1_RLeg_transform_pose">
        <float_array id="Motion_1_RLeg_transform_pose_array_id" count="256">0.8246614 0 0.56562674 21.1 0 1 0 0 -0.56562674 0 0.8246614 0 0 0 0 1 0.8584679 0 0.51286733 21.1 0 1 0 0 -0.51286733 0 0.8584679 0 0 0 0 1 0.86763436 0 0.49720275 21.1 0 1 0 0 -0.49720275 0 0.86763436 0 0 0 0 1 0.86095566 0 0.50868005 21.1 0 1 0 0 -0.50868005 0 0.86095566 0 0 0 0 1 0.84814787 0 0.5297596 21.1 0 1 0 0 -0.5297596 0 0.84814787 0 0 0 0 1 0.86886084 0 0.49505648 21.1 0 1 0 0 -0.49505648 0 0.86886084 0 0 0 0 1 0.8973829 0 0.44125262 21.1 0 1 0 0 -0.44125262 0 0.8973829 0 0 0 0 1 0.8836891 0 0.46807438 21.1 0 1 0 0 -0.46807438 0 0.8836891 0 0 0 0 1 0.8177457 0 0.5755797 21.1 0 1 0 0 -0.5755797 0 0.8177457 0 0 0 0 1 0.7427697 0 0.66954696 21.1 0 1 0 0 -0.66954696 0 0.7427697 0 0 0 0 1 0.67613506 0 0.7367777 21.1 0 1 0 0 -0.7367777 0 0.67613506 0 0 0 0 1 0.6296675 0 0.7768647 21.1 0 1 0 0 -0.7768647 0 0.6296675 0 0 0 0 1 0.62657243 0 0.77936316 21.1 0 1 0 0 -0.77936316 0 0.62657243 0 0 0 0 1 0.6767828 0 0.73618275 21.1 0 1 0 0 -0.73618275 0 0.6767828 0 0 0 0 1 0.75500864 0 0.65571487 21.1 0 1 0 0 -0.65571487 0 0.75500864 0 0 0 0 1 0.75500864 0 0.65571487 21.1 0 1 0 0 -0.65571487 0 0.75500864 0 0 0 0 1</float_array>
        <technique_common>
          <accessor source="#Motion_1_RLeg_transform_pose_array_id" count="16" stride="16">
            <param name="TRANSFORM" type="float4x4" />
          </accessor>
        </technique_common>
      </source>
      <sampler id="Motion_1_RLeg_transform_samp_id">
        <input semantic="INPUT" source="#Motion_1_RLeg_transform_frame_id" />
        <input semantic="INTERPOLATION" source="#Motion_1_RLeg_transform_interp_id" />
        <input semantic="OUTPUT" source="#Motion_1_RLeg_transform_pose_id" />
      </sampler>
      <channel source="#Motion_1_RLeg_transform_samp_id" target="RLeg_bone_id/transform" />
    </animation>
    <animation id="Motion_1_RFoot_transform_id" name="Motion_1_RFoot_transform">
      <source id="Motion_1_RFoot_transform_frame_id" name="Motion_1_RFoot_transform_frame">
        <float_array id="Motion_1_RFoot_transform_frame_array_id" count="16">0 0.033333335 0.06666667 0.1 0.13333334 0.16666667 0.2 0.23333333 0.26666668 0.3 0.33333334 0.36666667 0.4 0.43333334 0.46666667 0.5</float_array>
        <technique_common>
          <accessor source="#Motion_1_RFoot_transform_frame_array_id" count="16" stride="1">
            <param name="TIME" type="float" />
          </accessor>
        </technique_common>
      </source>
      <source id="Motion_1_RFoot_transform_interp_id" name="Motion_1_RFoot_transform_interp">
        <Name_array id="Motion_1_RFoot_transform_interp_array_id" count="16">LINEAR LINEAR LINEAR LINEAR LINEAR LINEAR LINEAR LINEAR LINEAR LINEAR LINEAR LINEAR LINEAR LINEAR LINEAR LINEAR</Name_array>
        <technique_common>
          <accessor source="#Motion_1_RFoot_transform_interp_array_id" count="16" stride="1">
            <param name="INTERPOLATION" type="Name" />
          </accessor>
        </technique_common>
      </source>
      <source id="Motion_1_RFoot_transform_pose_id" name="Motion_1_RFoot_transform_pose">
        <float_array id="Motion_1_RFoot_transform_pose_array_id" count="256">0.17858982 -0.10092569 -0.9787338 21.100002 0.21521774 0.9746445 -0.06123317 0 0.96009743 -0.19970524 0.1957826 2E-06 0 0 0 1 0.16812104 -0.074156195 -0.9829731 21.100002 0.18409336 0.98198533 -0.042595603 0 0.96842396 -0.1737976 0.17874408 2E-06 0 0 0 1 0.15075314 -0.036266685 -0.9879059 21.100002 0.14222042 0.9897269 -0.014630888 0 0.97828764 -0.13829476 0.15436232 2E-06 0 0 0 1 0.12727386 0.007349115 -0.9918405 21.100002 0.09566702 0.9952194 0.019650236 0 0.9872433 -0.09738737 0.12596238 2E-06 0 0 0 1 0.101201594 0.049601227 -0.9936288 21.100002 0.052259125 0.99711245 0.05509776 0 0.99349254 -0.057502158 0.098317266 2E-06 0 0 0 1 0.07782048 0.083627895 -0.9934537 21.100002 0.018568482 0.99618125 0.08531202 0 0.9967944 -0.025085948 0.07597047 2E-06 0 0 0 1 0.063536346 0.10288934 -0.9926616 21.100002 -9.419769E-05 0.9946719 0.10309168 0 0.99797964 -0.006456569 0.06320751 2E-06 0 0 0 1 0.06438726 0.10305302 -0.9925897 21.100002 1.7814338E-05 0.9946535 0.103268445 0 0.9979249 -0.0066668466 0.06404114 2E-06 0 0 0 1 0.07905227 0.08385255 -0.99333763 21.100002 0.01874692 0.9961547 0.08558229 0 0.9966942 -0.025387498 0.07717633 2E-06 0 0 0 1 0.10191256 0.04975803 -0.99354815 21.100002 0.052417684 0.99709225 0.055312227 0 0.9934114 -0.057716507 0.099008024 2E-06 0 0 0 1 0.12725347 0.0073920786 -0.9918426 21.100002 0.09570742 0.99521464 0.019696478 0 0.98724186 -0.09743315 0.12593704 2E-06 0 0 0 1 0.15034878 -0.036325112 -0.98796546 21.100002 0.14211527 0.98974 -0.014763225 0 0.9783652 -0.13818534 0.15396857 2E-06 0 0 0 1 0.16809624 -0.0740525 -0.98298514 21.100002 0.18417142 0.9819756 -0.042482056 0 0.96841335 -0.1738967 0.1787048 2E-06 0 0 0 1 0.17864704 -0.1006995 -0.97874653 21.100002 0.21493857 0.9747174 -0.061053008 0 0.9601493 -0.19946346 0.19577456 2E-06 0 0 0 1 0.18217081 -0.11111558 -0.9769683 21.100002 0.22718155 0.9714665 -0.068128325 0 0.95666206 -0.20953819 0.20221627 2E-06 0 0 0 1 0.18217081 -0.11111558 -0.9769683 21.100002 0.22718155 0.9714665 -0.068128325 0 0.95666206 -0.20953819 0.20221627 2E-06 0 0 0 1</float_array>
        <technique_common>
          <accessor source="#Motion_1_RFoot_transform_pose_array_id" count="16" stride="16">
            <param name="TRANSFORM" type="float4x4" />
          </accessor>
        </technique_common>
      </source>
      <sampler id="Motion_1_RFoot_transform_samp_id">
        <input semantic="INPUT" source="#Motion_1_RFoot_transform_frame_id" />
        <input semantic="INTERPOLATION" source="#Motion_1_RFoot_transform_interp_id" />
        <input semantic="OUTPUT" source="#Motion_1_RFoot_transform_pose_id" />
      </sampler>
      <channel source="#Motion_1_RFoot_transform_samp_id" target="RFoot_bone_id/transform" />
    </animation>
  </library_animations>
  <library_visual_scenes>
    <visual_scene id="tr0203_00_fi_00_clip_id" name="tr0203_00_fi_00_clip">
      <node id="tr0203_00_fi_bone_id" name="tr0203_00_fi" sid="tr0203_00_fi" type="JOINT">
        <matrix sid="transform">1 0 0 0 0 1 0 0 0 0 1 0 0 0 0 1</matrix>
        <node id="Origin_bone_id" name="Origin" sid="Origin" type="JOINT">
          <matrix sid="transform">1 0 0 0 0 1 0 0 0 0 1 0 0 0 0 1</matrix>
          <node id="Waist_bone_id" name="Waist" sid="Waist" type="JOINT">
            <matrix sid="transform">3.1391647E-07 -1 0 0 1 3.1391647E-07 0 56.6 0 0 1 0 0 0 0 1</matrix>
            <node id="Spine2_bone_id" name="Spine2" sid="Spine2" type="JOINT">
              <matrix sid="transform">1 0 0 10.700001 0 1 0 0 0 0 1 0 0 0 0 1</matrix>
              <node id="Spine3_bone_id" name="Spine3" sid="Spine3" type="JOINT">
                <matrix sid="transform">0.9934596 0 0.1141844 10.699997 0 1 0 0 -0.1141844 0 0.9934596 0 0 0 0 1</matrix>
                <node id="Neck_bone_id" name="Neck" sid="Neck" type="JOINT">
                  <matrix sid="transform">0.97238564 0 -0.23337978 11.139861 0 1 0 0 0.23337978 0 0.97238564 0 0 0 0 1</matrix>
                  <node id="Head_bone_id" name="Head" sid="Head" type="JOINT">
                    <matrix sid="transform">0.9926742 0 0.120822094 3.409983 0 1 0 0 -0.120822094 0 0.9926742 0 0 0 0 1</matrix>
                    <node id="Loc_Head_bone_id" name="Loc_Head" sid="Loc_Head" type="JOINT">
                      <matrix sid="transform">3.1391647E-07 1 0 29.483671 -1 3.1391647E-07 0 0 0 0 1 0.043989 0 0 0 1</matrix>
                    </node>
                    <node id="Loc_Eye_bone_id" name="Loc_Eye" sid="Loc_Eye" type="JOINT">
                      <matrix sid="transform">3.1391647E-07 1 0 7.481961 -1 3.1391647E-07 0 0 0 0 1 10.227155 0 0 0 1</matrix>
                    </node>
                    <node id="Loc_Mouth_bone_id" name="Loc_Mouth" sid="Loc_Mouth" type="JOINT">
                      <matrix sid="transform">3.1391647E-07 1 0 0.988389 -1 3.1391647E-07 0 0 0 0 1 10.064062 0 0 0 1</matrix>
                    </node>
                  </node>
                </node>
                <node id="LShoulder_bone_id" name="LShoulder" sid="LShoulder" type="JOINT">
                  <matrix sid="transform">-0.67374367 0.7300901 -0.11418423 9.530002 -0.7348966 -0.6781792 -3.0079892E-08 -3.120002 -0.07743739 0.08391358 0.99345964 -0.185056 0 0 0 1</matrix>
                  <node id="LArm_bone_id" name="LArm" sid="LArm" type="JOINT">
                    <matrix sid="transform">0.73489666 -0.6781791 0 7.079999 0.6781791 0.73489666 0 0 0 0 1 0 0 0 0 1</matrix>
                    <node id="LForeArm_bone_id" name="LForeArm" sid="LForeArm" type="JOINT">
                      <matrix sid="transform">1 0 0 14.9 0 1 0 0 0 0 1 0 0 0 0 1</matrix>
                      <node id="LHand_bone_id" name="LHand" sid="LHand" type="JOINT">
                        <matrix sid="transform">1 0 0 14.9 0 1 0 0 0 0 1 0 0 0 0 1</matrix>
                      </node>
                    </node>
                  </node>
                </node>
                <node id="RShoulder_bone_id" name="RShoulder" sid="RShoulder" type="JOINT">
                  <matrix sid="transform">-0.67374295 -0.73009074 -0.11418423 9.529964 0.73489726 -0.6781785 1.4243439E-07 3.120001 -0.07743739 -0.08391358 0.99345964 -0.185066 0 0 0 1</matrix>
                  <node id="RArm_bone_id" name="RArm" sid="RArm" type="JOINT">
                    <matrix sid="transform">0.7348974 0.6781783 0 7.079994 -0.6781783 0.7348974 0 0 0 0 1 0 0 0 0 1</matrix>
                    <node id="RForeArm_bone_id" name="RForeArm" sid="RForeArm" type="JOINT">
                      <matrix sid="transform">1 0 0 14.90003 0 1 0 0 0 0 1 0 0 0 0 1</matrix>
                      <node id="RHand_bone_id" name="RHand" sid="RHand" type="JOINT">
                        <matrix sid="transform">1 0 0 14.9 0 1 0 0 0 0 1 0 0 0 0 1</matrix>
                      </node>
                    </node>
                  </node>
                </node>
              </node>
            </node>
            <node id="Hips_bone_id" name="Hips" sid="Hips" type="JOINT">
              <matrix sid="transform">-1 -3.2584137E-07 0 -0.009998 3.2584137E-07 -1 0 0 0 0 1 0 0 0 0 1</matrix>
              <node id="LThigh_bone_id" name="LThigh" sid="LThigh" type="JOINT">
                <matrix sid="transform">1 0 0 6 0 1 0 6 0 0 1 0 0 0 0 1</matrix>
                <node id="LLeg_bone_id" name="LLeg" sid="LLeg" type="JOINT">
                  <matrix sid="transform">1 0 0 21.1 0 1 0 0 0 0 1 0 0 0 0 1</matrix>
                  <node id="LFoot_bone_id" name="LFoot" sid="LFoot" type="JOINT">
                    <matrix sid="transform">3.1391647E-07 0 -1 21.100002 0 1 0 0 1 0 3.1391647E-07 2E-06 0 0 0 1</matrix>
                  </node>
                </node>
              </node>
              <node id="RThigh_bone_id" name="RThigh" sid="RThigh" type="JOINT">
                <matrix sid="transform">1 0 0 6 0 1 0 -6 0 0 1 0 0 0 0 1</matrix>
                <node id="RLeg_bone_id" name="RLeg" sid="RLeg" type="JOINT">
                  <matrix sid="transform">1 0 0 21.1 0 1 0 0 0 0 1 0 0 0 0 1</matrix>
                  <node id="RFoot_bone_id" name="RFoot" sid="RFoot" type="JOINT">
                    <matrix sid="transform">3.1391647E-07 0 -1 21.100002 0 1 0 0 1 0 3.1391647E-07 2E-06 0 0 0 1</matrix>
                  </node>
                </node>
              </node>
            </node>
          </node>
          <node id="CamTgtHead_bone_id" name="CamTgtHead" sid="CamTgtHead" type="JOINT">
            <matrix sid="transform">1 0 0 0 0 1 0 99.93396 0 0 1 0 0 0 0 1</matrix>
          </node>
          <node id="CamTgtBust_bone_id" name="CamTgtBust" sid="CamTgtBust" type="JOINT">
            <matrix sid="transform">1 0 0 0 0 1 0 77.99999 0 0 1 0 0 0 0 1</matrix>
          </node>
          <node id="CamTgtBody_bone_id" name="CamTgtBody" sid="CamTgtBody" type="JOINT">
            <matrix sid="transform">1 0 0 0 0 1 0 56.6 0 0 1 0 0 0 0 1</matrix>
          </node>
          <node id="CamTgtFoot_bone_id" name="CamTgtFoot" sid="CamTgtFoot" type="JOINT">
            <matrix sid="transform">1 0 0 0 0 1 0 0 0 0 1 0 0 0 0 1</matrix>
          </node>
        </node>
        <node id="tr0203_00_fi_HelmetSkin_bone_id" name="tr0203_00_fi_HelmetSkin" sid="tr0203_00_fi_HelmetSkin" type="JOINT">
          <matrix sid="transform">1 0 0 0 0 1 0 0 0 0 1 0 0 0 0 1</matrix>
        </node>
        <node id="tr0203_00_fi_HeadSkin_bone_id" name="tr0203_00_fi_HeadSkin" sid="tr0203_00_fi_HeadSkin" type="JOINT">
          <matrix sid="transform">1 0 0 0 0 1 0 0 0 0 1 0 0 0 0 1</matrix>
        </node>
        <node id="tr0203_00_fi_FaceSkin_bone_id" name="tr0203_00_fi_FaceSkin" sid="tr0203_00_fi_FaceSkin" type="JOINT">
          <matrix sid="transform">1 0 0 0 0 1 0 0 0 0 1 0 0 0 0 1</matrix>
        </node>
        <node id="tr0203_00_fi_BodySkin_bone_id" name="tr0203_00_fi_BodySkin" sid="tr0203_00_fi_BodySkin" type="JOINT">
          <matrix sid="transform">1 0 0 0 0 1 0 0 0 0 1 0 0 0 0 1</matrix>
        </node>
        <node id="tr0203_00_fi_BottomSkin_bone_id" name="tr0203_00_fi_BottomSkin" sid="tr0203_00_fi_BottomSkin" type="JOINT">
          <matrix sid="transform">1 0 0 0 0 1 0 0 0 0 1 0 0 0 0 1</matrix>
        </node>
      </node>
    </visual_scene>
  </library_visual_scenes>
  <scene>
    <instance_visual_scene url="#tr0203_00_fi_00_clip_id" />
  </scene>
</COLLADA>