<?xml version="1.0" encoding="utf-8"?>
<COLLADA xmlns:xsi="http://www.w3.org/2001/XMLSchema-instance" xmlns:xsd="http://www.w3.org/2001/XMLSchema" version="1.4.1" xmlns="http://www.collada.org/2005/11/COLLADASchema">
  <asset>
    <created>2026-02-17T05:46:54.5839516-05:00</created>
    <modified>2026-02-17T05:46:54.5839518-05:00</modified>
    <up_axis>Y_UP</up_axis>
  </asset>
  <library_animations>
    <animation id="Motion_31_Waist_transform_id" name="Motion_31_Waist_transform">
      <source id="Motion_31_Waist_transform_frame_id" name="Motion_31_Waist_transform_frame">
        <float_array id="Motion_31_Waist_transform_frame_array_id" count="17">0 0.033333335 0.06666667 0.1 0.13333334 0.16666667 0.2 0.23333333 0.26666668 0.3 0.33333334 0.36666667 0.4 0.43333334 0.46666667 0.5 0.53333336</float_array>
        <technique_common>
          <accessor source="#Motion_31_Waist_transform_frame_array_id" count="17" stride="1">
            <param name="TIME" type="float" />
          </accessor>
        </technique_common>
      </source>
      <source id="Motion_31_Waist_transform_interp_id" name="Motion_31_Waist_transform_interp">
        <Name_array id="Motion_31_Waist_transform_interp_array_id" count="17">LINEAR LINEAR LINEAR LINEAR LINEAR LINEAR LINEAR LINEAR LINEAR LINEAR LINEAR LINEAR LINEAR LINEAR LINEAR LINEAR LINEAR</Name_array>
        <technique_common>
          <accessor source="#Motion_31_Waist_transform_interp_array_id" count="17" stride="1">
            <param name="INTERPOLATION" type="Name" />
          </accessor>
        </technique_common>
      </source>
      <source id="Motion_31_Waist_transform_pose_id" name="Motion_31_Waist_transform_pose">
        <float_array id="Motion_31_Waist_transform_pose_array_id" count="272">0.08681452 -0.99443483 0.059688143 -1.6738491 0.995059 0.08945447 0.043075107 56.51993 -0.04817476 0.055653676 0.9972873 -60.10008 0 0 0 1 0.08279848 -0.99605703 -0.03185761 6.2445297 0.996498 0.08312482 -0.009057736 59.243523 0.0116701815 -0.030996079 0.9994514 -56.584373 0 0 0 1 0.06552178 -0.99155277 -0.11193738 10.824348 0.9893182 0.07919043 -0.12238647 64.5859 0.13021702 -0.102722704 0.98614985 -48.877052 0 0 0 1 0.04578775 -0.98130596 -0.1869281 12.7973175 0.96993315 0.088446856 -0.22673088 67.730255 0.23902556 -0.17092627 0.9558509 -42.097614 0 0 0 1 0.048876703 -0.9690753 -0.24187632 14.050808 0.9685503 0.10513729 -0.2255137 65.602615 0.24396999 -0.22324702 0.943737 -42.139015 0 0 0 1 0.078650415 -0.9609582 -0.26528 14.6446 0.98626584 0.11377412 -0.11972985 59.03466 0.14523739 -0.2522198 0.95670855 -48.592434 0 0 0 1 0.10888636 -0.96493685 -0.23883204 12.660759 0.9938549 0.10086411 0.04559566 50.56155 -0.01990734 -0.24232914 0.96998984 -57.18545 0 0 0 1 0.110902846 -0.98160547 -0.15540725 6.9402313 0.9729392 0.07534146 0.2184333 43.990948 -0.2027067 -0.17542668 0.96339786 -64.281746 0 0 0 1 0.070678174 -0.99731416 -0.019213855 -2.0937157 0.9396003 0.060096383 0.33695668 42.93299 -0.33489695 -0.04186882 0.9413241 -67.87109 0 0 0 1 -0.0002988577 -0.9902022 0.13964142 -12.5421715 0.9203706 0.054333985 0.38725442 45.45907 -0.39104742 0.12863757 0.91133654 -68.18477 0 0 0 1 -0.07068002 -0.9557605 0.2855277 -21.900192 0.91769326 0.049883664 0.39414525 47.743362 -0.39095163 0.2898851 0.87356937 -66.53439 0 0 0 1 -0.10228145 -0.90932107 0.40332824 -28.23829 0.93528473 0.050182223 0.3503202 50.037113 -0.3387934 0.413058 0.84534144 -63.79969 0 0 0 1 -0.07339132 -0.87750554 0.47391734 -29.879036 0.965631 0.056281865 0.25375012 52.416378 -0.24934009 0.47625235 0.843216 -61.06101 0 0 0 1 -0.0058888197 -0.88887423 0.4581132 -25.660656 0.98715883 0.06796491 0.14456148 53.668068 -0.15963258 0.45308185 0.87706006 -59.81865 0 0 0 1 0.048733056 -0.938025 0.34312433 -17.329205 0.99412036 0.0788098 0.07425599 54.52321 -0.096695565 0.3374881 0.9363502 -59.983845 0 0 0 1 0.077955484 -0.9797119 0.18462832 -8.471901 0.9949639 0.08815801 0.04769904 56.02009 -0.0630078 0.1799801 0.98165023 -60.061935 0 0 0 1 0.077955484 -0.9797119 0.18462832 -8.471901 0.9949639 0.08815801 0.04769904 56.02009 -0.0630078 0.1799801 0.98165023 -60.061935 0 0 0 1</float_array>
        <technique_common>
          <accessor source="#Motion_31_Waist_transform_pose_array_id" count="17" stride="16">
            <param name="TRANSFORM" type="float4x4" />
          </accessor>
        </technique_common>
      </source>
      <sampler id="Motion_31_Waist_transform_samp_id">
        <input semantic="INPUT" source="#Motion_31_Waist_transform_frame_id" />
        <input semantic="INTERPOLATION" source="#Motion_31_Waist_transform_interp_id" />
        <input semantic="OUTPUT" source="#Motion_31_Waist_transform_pose_id" />
      </sampler>
      <channel source="#Motion_31_Waist_transform_samp_id" target="Waist_bone_id/transform" />
    </animation>
    <animation id="Motion_31_Hips_transform_id" name="Motion_31_Hips_transform">
      <source id="Motion_31_Hips_transform_frame_id" name="Motion_31_Hips_transform_frame">
        <float_array id="Motion_31_Hips_transform_frame_array_id" count="17">0 0.033333335 0.06666667 0.1 0.13333334 0.16666667 0.2 0.23333333 0.26666668 0.3 0.33333334 0.36666667 0.4 0.43333334 0.46666667 0.5 0.53333336</float_array>
        <technique_common>
          <accessor source="#Motion_31_Hips_transform_frame_array_id" count="17" stride="1">
            <param name="TIME" type="float" />
          </accessor>
        </technique_common>
      </source>
      <source id="Motion_31_Hips_transform_interp_id" name="Motion_31_Hips_transform_interp">
        <Name_array id="Motion_31_Hips_transform_interp_array_id" count="17">LINEAR LINEAR LINEAR LINEAR LINEAR LINEAR LINEAR LINEAR LINEAR LINEAR LINEAR LINEAR LINEAR LINEAR LINEAR LINEAR LINEAR</Name_array>
        <technique_common>
          <accessor source="#Motion_31_Hips_transform_interp_array_id" count="17" stride="1">
            <param name="INTERPOLATION" type="Name" />
          </accessor>
        </technique_common>
      </source>
      <source id="Motion_31_Hips_transform_pose_id" name="Motion_31_Hips_transform_pose">
        <float_array id="Motion_31_Hips_transform_pose_array_id" count="272">-0.93635404 -3.9353736E-07 0.35105732 -0.010002 3.7279884E-07 -1 -1.2666216E-07 0 0.35105732 1.2273151E-08 0.936354 0 0 0 0 1 -0.93635404 -3.9353736E-07 0.35105732 -0.010002 3.7279884E-07 -1 -1.2666216E-07 0 0.35105732 1.2273151E-08 0.936354 0 0 0 0 1 -0.93635404 -3.9353736E-07 0.35105732 -0.010002 3.7279884E-07 -1 -1.2666216E-07 0 0.35105732 1.2273151E-08 0.936354 0 0 0 0 1 -0.93635404 -3.9353736E-07 0.35105732 -0.010002 3.7279884E-07 -1 -1.2666216E-07 0 0.35105732 1.2273151E-08 0.936354 0 0 0 0 1 -0.93635404 -3.9353736E-07 0.35105732 -0.010002 3.7279884E-07 -1 -1.2666216E-07 0 0.35105732 1.2273151E-08 0.936354 0 0 0 0 1 -0.93635404 -3.9353736E-07 0.35105732 -0.010002 3.7279884E-07 -1 -1.2666216E-07 0 0.35105732 1.2273151E-08 0.936354 0 0 0 0 1 -0.93635404 -3.9353736E-07 0.35105732 -0.010002 3.7279884E-07 -1 -1.2666216E-07 0 0.35105732 1.2273151E-08 0.936354 0 0 0 0 1 -0.93635404 -3.9353736E-07 0.35105732 -0.010002 3.7279884E-07 -1 -1.2666216E-07 0 0.35105732 1.2273151E-08 0.936354 0 0 0 0 1 -0.93635404 -3.9353736E-07 0.35105732 -0.010002 3.7279884E-07 -1 -1.2666216E-07 0 0.35105732 1.2273151E-08 0.936354 0 0 0 0 1 -0.93635404 -3.9353736E-07 0.35105732 -0.010002 3.7279884E-07 -1 -1.2666216E-07 0 0.35105732 1.2273151E-08 0.936354 0 0 0 0 1 -0.93635404 -3.9353736E-07 0.35105732 -0.010002 3.7279884E-07 -1 -1.2666216E-07 0 0.35105732 1.2273151E-08 0.936354 0 0 0 0 1 -0.93635404 -3.9353736E-07 0.35105732 -0.010002 3.7279884E-07 -1 -1.2666216E-07 0 0.35105732 1.2273151E-08 0.936354 0 0 0 0 1 -0.93635404 -3.9353736E-07 0.35105732 -0.010002 3.7279884E-07 -1 -1.2666216E-07 0 0.35105732 1.2273151E-08 0.936354 0 0 0 0 1 -0.93635404 -3.9353736E-07 0.35105732 -0.010002 3.7279884E-07 -1 -1.2666216E-07 0 0.35105732 1.2273151E-08 0.936354 0 0 0 0 1 -0.93635404 -3.9353736E-07 0.35105732 -0.010002 3.7279884E-07 -1 -1.2666216E-07 0 0.35105732 1.2273151E-08 0.936354 0 0 0 0 1 -0.93635404 -3.9353736E-07 0.35105732 -0.010002 3.7279884E-07 -1 -1.2666216E-07 0 0.35105732 1.2273151E-08 0.936354 0 0 0 0 1 -0.93635404 -3.9353736E-07 0.35105732 -0.010002 3.7279884E-07 -1 -1.2666216E-07 0 0.35105732 1.2273151E-08 0.936354 0 0 0 0 1</float_array>
        <technique_common>
          <accessor source="#Motion_31_Hips_transform_pose_array_id" count="17" stride="16">
            <param name="TRANSFORM" type="float4x4" />
          </accessor>
        </technique_common>
      </source>
      <sampler id="Motion_31_Hips_transform_samp_id">
        <input semantic="INPUT" source="#Motion_31_Hips_transform_frame_id" />
        <input semantic="INTERPOLATION" source="#Motion_31_Hips_transform_interp_id" />
        <input semantic="OUTPUT" source="#Motion_31_Hips_transform_pose_id" />
      </sampler>
      <channel source="#Motion_31_Hips_transform_samp_id" target="Hips_bone_id/transform" />
    </animation>
    <animation id="Motion_31_RThigh_transform_id" name="Motion_31_RThigh_transform">
      <source id="Motion_31_RThigh_transform_frame_id" name="Motion_31_RThigh_transform_frame">
        <float_array id="Motion_31_RThigh_transform_frame_array_id" count="17">0 0.033333335 0.06666667 0.1 0.13333334 0.16666667 0.2 0.23333333 0.26666668 0.3 0.33333334 0.36666667 0.4 0.43333334 0.46666667 0.5 0.53333336</float_array>
        <technique_common>
          <accessor source="#Motion_31_RThigh_transform_frame_array_id" count="17" stride="1">
            <param name="TIME" type="float" />
          </accessor>
        </technique_common>
      </source>
      <source id="Motion_31_RThigh_transform_interp_id" name="Motion_31_RThigh_transform_interp">
        <Name_array id="Motion_31_RThigh_transform_interp_array_id" count="17">LINEAR LINEAR LINEAR LINEAR LINEAR LINEAR LINEAR LINEAR LINEAR LINEAR LINEAR LINEAR LINEAR LINEAR LINEAR LINEAR LINEAR</Name_array>
        <technique_common>
          <accessor source="#Motion_31_RThigh_transform_interp_array_id" count="17" stride="1">
            <param name="INTERPOLATION" type="Name" />
          </accessor>
        </technique_common>
      </source>
      <source id="Motion_31_RThigh_transform_pose_id" name="Motion_31_RThigh_transform_pose">
        <float_array id="Motion_31_RThigh_transform_pose_array_id" count="272">0.046564102 0.563852 -0.82456213 11.299995 -0.4832855 0.73513436 0.47540778 -7.8 0.87422365 0.37636197 0.30673242 0 0 0 0 1 0.034210622 0.6088532 -0.79254496 11.299995 -0.5376841 0.6796762 0.49893507 -7.8 0.84245205 0.40906993 0.35062277 0 0 0 0 1 0.03770542 0.6187359 -0.78469354 11.299995 -0.5920055 0.6464491 0.4812827 -7.8 0.80505127 0.446396 0.39066976 0 0 0 0 1 0.028184533 0.57348174 -0.81873333 11.299995 -0.6368235 0.6416323 0.4275089 -7.8 0.77049434 0.50933945 0.3832907 0 0 0 0 1 0.013881922 0.5240975 -0.85154504 11.299995 -0.6450431 0.6554169 0.3928716 -7.8 0.76402 0.5438295 0.34716392 0 0 0 0 1 -0.007871628 0.50616384 -0.8624014 11.299995 -0.60268474 0.6857863 0.40800533 -7.8 0.7979407 0.5229678 0.2996589 0 0 0 0 1 -0.020539999 0.5209084 -0.8533654 11.299995 -0.52922803 0.7184917 0.45131743 -7.8 0.84823096 0.46089494 0.26092154 0 0 0 0 1 -0.0050581694 0.55208206 -0.8337744 11.299995 -0.4611325 0.7385533 0.4918291 -7.8 0.8873169 0.38696826 0.25084722 0 0 0 0 1 0.036375582 0.57911485 -0.8144342 11.299995 -0.43774527 0.7418604 0.50795895 -7.8 0.898363 0.3380373 0.28049034 0 0 0 0 1 0.091608286 0.59237874 -0.8004344 11.299995 -0.45841214 0.73866415 0.49419993 -7.8 0.8840057 0.3216561 0.33922136 0 0 0 0 1 0.13425767 0.59628165 -0.79146904 11.299995 -0.4944098 0.73249537 0.46798456 -7.8 0.85879797 0.32847947 0.39315057 0 0 0 0 1 0.1344372 0.59104604 -0.79535604 11.299995 -0.53137904 0.7204789 0.4455855 -7.8 0.8363987 0.3627323 0.41092867 0 0 0 0 1 0.08488196 0.57463735 -0.81399447 11.299995 -0.5690648 0.69855595 0.43380272 -7.8 0.8178999 0.42639357 0.38630074 0 0 0 0 1 0.027966619 0.55881137 -0.82882303 11.299995 -0.58509856 0.6814213 0.43968704 -7.8 0.8104797 0.47264668 0.34601676 0 0 0 0 1 0.010343552 0.5588783 -0.8291852 11.299995 -0.5543405 0.69334793 0.4604077 -7.8 0.83222574 0.4548886 0.3169806 0 0 0 0 1 0.038431406 0.56215936 -0.8261354 11.299995 -0.4967076 0.7281211 0.4723571 -7.8 0.8670666 0.39219445 0.30721158 0 0 0 0 1 0.038431406 0.56215936 -0.8261354 11.299995 -0.4967076 0.7281211 0.4723571 -7.8 0.8670666 0.39219445 0.30721158 0 0 0 0 1</float_array>
        <technique_common>
          <accessor source="#Motion_31_RThigh_transform_pose_array_id" count="17" stride="16">
            <param name="TRANSFORM" type="float4x4" />
          </accessor>
        </technique_common>
      </source>
      <sampler id="Motion_31_RThigh_transform_samp_id">
        <input semantic="INPUT" source="#Motion_31_RThigh_transform_frame_id" />
        <input semantic="INTERPOLATION" source="#Motion_31_RThigh_transform_interp_id" />
        <input semantic="OUTPUT" source="#Motion_31_RThigh_transform_pose_id" />
      </sampler>
      <channel source="#Motion_31_RThigh_transform_samp_id" target="RThigh_bone_id/transform" />
    </animation>
    <animation id="Motion_31_RLeg_transform_id" name="Motion_31_RLeg_transform">
      <source id="Motion_31_RLeg_transform_frame_id" name="Motion_31_RLeg_transform_frame">
        <float_array id="Motion_31_RLeg_transform_frame_array_id" count="17">0 0.033333335 0.06666667 0.1 0.13333334 0.16666667 0.2 0.23333333 0.26666668 0.3 0.33333334 0.36666667 0.4 0.43333334 0.46666667 0.5 0.53333336</float_array>
        <technique_common>
          <accessor source="#Motion_31_RLeg_transform_frame_array_id" count="17" stride="1">
            <param name="TIME" type="float" />
          </accessor>
        </technique_common>
      </source>
      <source id="Motion_31_RLeg_transform_interp_id" name="Motion_31_RLeg_transform_interp">
        <Name_array id="Motion_31_RLeg_transform_interp_array_id" count="17">LINEAR LINEAR LINEAR LINEAR LINEAR LINEAR LINEAR LINEAR LINEAR LINEAR LINEAR LINEAR LINEAR LINEAR LINEAR LINEAR LINEAR</Name_array>
        <technique_common>
          <accessor source="#Motion_31_RLeg_transform_interp_array_id" count="17" stride="1">
            <param name="INTERPOLATION" type="Name" />
          </accessor>
        </technique_common>
      </source>
      <source id="Motion_31_RLeg_transform_pose_id" name="Motion_31_RLeg_transform_pose">
        <float_array id="Motion_31_RLeg_transform_pose_array_id" count="272">-0.66851246 0 0.743701 34.3 0 1 0 0 -0.743701 0 -0.66851246 0 0 0 0 1 -0.6608281 0 0.7505373 34.3 0 1 0 0 -0.7505373 0 -0.6608281 0 0 0 0 1 -0.65643287 0 0.7543845 34.3 0 1 0 0 -0.7543845 0 -0.65643287 0 0 0 0 1 -0.640548 0 0.76791817 34.3 0 1 0 0 -0.76791817 0 -0.640548 0 0 0 0 1 -0.6277102 0 0.778447 34.3 0 1 0 0 -0.778447 0 -0.6277102 0 0 0 0 1 -0.63264847 0 0.774439 34.3 0 1 0 0 -0.774439 0 -0.63264847 0 0 0 0 1 -0.6474147 0 0.76213795 34.3 0 1 0 0 -0.76213795 0 -0.6474147 0 0 0 0 1 -0.66085696 0 0.7505119 34.3 0 1 0 0 -0.7505119 0 -0.66085696 0 0 0 0 1 -0.6661359 0 0.7458304 34.3 0 1 0 0 -0.7458304 0 -0.6661359 0 0 0 0 1 -0.6614903 0 0.7499537 34.3 0 1 0 0 -0.7499537 0 -0.6614903 0 0 0 0 1 -0.65217876 0 0.7580651 34.3 0 1 0 0 -0.7580651 0 -0.65217876 0 0 0 0 1 -0.64626133 0 0.7631161 34.3 0 1 0 0 -0.7631161 0 -0.64626133 0 0 0 0 1 -0.64920557 0 0.76061296 34.3 0 1 0 0 -0.76061296 0 -0.64920557 0 0 0 0 1 -0.65779626 0 0.7531958 34.3 0 1 0 0 -0.7531958 0 -0.65779626 0 0 0 0 1 -0.6635369 0 0.74814355 34.3 0 1 0 0 -0.74814355 0 -0.6635369 0 0 0 0 1 -0.67787766 0 0.73517466 34.3 0 1 0 0 -0.73517466 0 -0.67787766 0 0 0 0 1 -0.67787766 0 0.73517466 34.3 0 1 0 0 -0.73517466 0 -0.67787766 0 0 0 0 1</float_array>
        <technique_common>
          <accessor source="#Motion_31_RLeg_transform_pose_array_id" count="17" stride="16">
            <param name="TRANSFORM" type="float4x4" />
          </accessor>
        </technique_common>
      </source>
      <sampler id="Motion_31_RLeg_transform_samp_id">
        <input semantic="INPUT" source="#Motion_31_RLeg_transform_frame_id" />
        <input semantic="INTERPOLATION" source="#Motion_31_RLeg_transform_interp_id" />
        <input semantic="OUTPUT" source="#Motion_31_RLeg_transform_pose_id" />
      </sampler>
      <channel source="#Motion_31_RLeg_transform_samp_id" target="RLeg_bone_id/transform" />
    </animation>
    <animation id="Motion_31_RFoot_transform_id" name="Motion_31_RFoot_transform">
      <source id="Motion_31_RFoot_transform_frame_id" name="Motion_31_RFoot_transform_frame">
        <float_array id="Motion_31_RFoot_transform_frame_array_id" count="17">0 0.033333335 0.06666667 0.1 0.13333334 0.16666667 0.2 0.23333333 0.26666668 0.3 0.33333334 0.36666667 0.4 0.43333334 0.46666667 0.5 0.53333336</float_array>
        <technique_common>
          <accessor source="#Motion_31_RFoot_transform_frame_array_id" count="17" stride="1">
            <param name="TIME" type="float" />
          </accessor>
        </technique_common>
      </source>
      <source id="Motion_31_RFoot_transform_interp_id" name="Motion_31_RFoot_transform_interp">
        <Name_array id="Motion_31_RFoot_transform_interp_array_id" count="17">LINEAR LINEAR LINEAR LINEAR LINEAR LINEAR LINEAR LINEAR LINEAR LINEAR LINEAR LINEAR LINEAR LINEAR LINEAR LINEAR LINEAR</Name_array>
        <technique_common>
          <accessor source="#Motion_31_RFoot_transform_interp_array_id" count="17" stride="1">
            <param name="INTERPOLATION" type="Name" />
          </accessor>
        </technique_common>
      </source>
      <source id="Motion_31_RFoot_transform_pose_id" name="Motion_31_RFoot_transform_pose">
        <float_array id="Motion_31_RFoot_transform_pose_array_id" count="272">-0.22184253 -0.063068695 -0.97304076 34.3 -0.10943606 0.9932116 -0.039425895 0 0.96892196 0.09773941 -0.22723854 0 0 0 0 1 -0.22359025 -0.063668124 -0.97260153 34.3 -0.05805056 0.9969627 -0.051917676 0 0.97295296 0.044851784 -0.22660708 0 0 0 0 1 -0.24903607 -0.037552625 -0.9677659 34.3 -0.018469097 0.9992504 -0.03402166 0 0.9683181 0.009401143 -0.24954295 0 0 0 0 1 -0.2642237 0.036350146 -0.9637761 34.3 0.021176582 0.9992672 0.031883083 0 0.96422887 -0.011985217 -0.26479983 0 0 0 0 1 -0.26329243 0.09782402 -0.95974344 34.3 0.047844905 0.9949454 0.08828646 0 0.9635288 -0.022673666 -0.2666421 0 0 0 0 1 -0.25241375 0.106360994 -0.9617559 34.3 0.048888884 0.9940728 0.09710398 0 0.96638346 -0.022508785 -0.25611746 0 0 0 0 1 -0.23816264 0.073670745 -0.9684272 34.3 0.029275358 0.99721044 0.06866075 0 0.97078395 -0.011998629 -0.23965502 0 0 0 0 1 -0.2288059 0.027036913 -0.9730966 34.3 0.00080379937 0.9996191 0.027584828 0 0.97347176 0.0055293925 -0.22874045 0 0 0 0 1 -0.23225498 -0.006800847 -0.97263116 34.3 -0.026416669 0.9996508 -0.00068172626 0 0.9722962 0.025535341 -0.23235357 0 0 0 0 1 -0.24648285 -0.024142971 -0.96884626 34.3 -0.054649062 0.9984453 -0.010977354 0 0.96760505 0.050240815 -0.24741912 0 0 0 0 1 -0.2593286 -0.03703814 -0.9650787 34.3 -0.084980704 0.99626356 -0.015399601 0 0.96204317 0.078019515 -0.26150715 0 0 0 0 1 -0.26043677 -0.04315283 -0.964526 34.3 -0.10506583 0.99433464 -0.016117081 0 0.95975715 0.09714124 -0.2634952 0 0 0 0 1 -0.2529421 -0.029476892 -0.96703243 34.3 -0.10004252 0.99497443 -0.004160989 0 0.9622952 0.09569186 -0.25461984 0 0 0 0 1 -0.23858714 -0.014835898 -0.9710078 34.3 -0.08540405 0.9963297 0.005761903 0 0.96735847 0.08430271 -0.2389785 0 0 0 0 1 -0.21858668 -0.024967859 -0.9754981 34.3 -0.08500237 0.9963598 -0.0064547434 0 0.97210824 0.081508726 -0.21991324 0 0 0 0 1 -0.22439826 -0.059403773 -0.9726853 34.3 -0.11828841 0.9924201 -0.033319917 0 0.9672918 0.10758047 -0.22972417 0 0 0 0 1 -0.22439826 -0.059403773 -0.9726853 34.3 -0.11828841 0.9924201 -0.033319917 0 0.9672918 0.10758047 -0.22972417 0 0 0 0 1</float_array>
        <technique_common>
          <accessor source="#Motion_31_RFoot_transform_pose_array_id" count="17" stride="16">
            <param name="TRANSFORM" type="float4x4" />
          </accessor>
        </technique_common>
      </source>
      <sampler id="Motion_31_RFoot_transform_samp_id">
        <input semantic="INPUT" source="#Motion_31_RFoot_transform_frame_id" />
        <input semantic="INTERPOLATION" source="#Motion_31_RFoot_transform_interp_id" />
        <input semantic="OUTPUT" source="#Motion_31_RFoot_transform_pose_id" />
      </sampler>
      <channel source="#Motion_31_RFoot_transform_samp_id" target="RFoot_bone_id/transform" />
    </animation>
    <animation id="Motion_31_LThigh_transform_id" name="Motion_31_LThigh_transform">
      <source id="Motion_31_LThigh_transform_frame_id" name="Motion_31_LThigh_transform_frame">
        <float_array id="Motion_31_LThigh_transform_frame_array_id" count="17">0 0.033333335 0.06666667 0.1 0.13333334 0.16666667 0.2 0.23333333 0.26666668 0.3 0.33333334 0.36666667 0.4 0.43333334 0.46666667 0.5 0.53333336</float_array>
        <technique_common>
          <accessor source="#Motion_31_LThigh_transform_frame_array_id" count="17" stride="1">
            <param name="TIME" type="float" />
          </accessor>
        </technique_common>
      </source>
      <source id="Motion_31_LThigh_transform_interp_id" name="Motion_31_LThigh_transform_interp">
        <Name_array id="Motion_31_LThigh_transform_interp_array_id" count="17">LINEAR LINEAR LINEAR LINEAR LINEAR LINEAR LINEAR LINEAR LINEAR LINEAR LINEAR LINEAR LINEAR LINEAR LINEAR LINEAR LINEAR</Name_array>
        <technique_common>
          <accessor source="#Motion_31_LThigh_transform_interp_array_id" count="17" stride="1">
            <param name="INTERPOLATION" type="Name" />
          </accessor>
        </technique_common>
      </source>
      <source id="Motion_31_LThigh_transform_pose_id" name="Motion_31_LThigh_transform_pose">
        <float_array id="Motion_31_LThigh_transform_pose_array_id" count="272">-0.058701992 -0.70483935 -0.706934 11.300003 0.36435437 0.64417475 -0.67252123 7.8 0.92940843 -0.2970528 0.21899688 0 0 0 0 1 -0.058463573 -0.6812887 -0.7296763 11.300003 0.34408128 0.67238605 -0.6553663 7.8 0.9371179 -0.2893831 0.19510865 0 0 0 0 1 -0.064921975 -0.6622065 -0.7465037 11.300003 0.3776664 0.676131 -0.63262546 7.8 0.923663 -0.32300064 0.20619738 0 0 0 0 1 -0.07367468 -0.6479824 -0.75808376 11.300003 0.43918905 0.66138756 -0.6080128 7.8 0.89536875 -0.37773716 0.23585916 0 0 0 0 1 -0.08219373 -0.63933563 -0.76452214 11.300003 0.503598 0.6353323 -0.5854417 7.8 0.8600194 -0.43313143 0.2697478 0 0 0 0 1 -0.10708499 -0.6432909 -0.7580961 11.300003 0.5535084 0.5948263 -0.58293235 7.8 0.8259306 -0.48203588 0.2923699 0 0 0 0 1 -0.11132026 -0.6677261 -0.7360365 11.300003 0.5754815 0.56050855 -0.59552604 7.8 0.810203 -0.48986942 0.32186806 0 0 0 0 1 -0.04403639 -0.7229504 -0.689495 11.300003 0.5438662 0.5615821 -0.6235664 7.8 0.8380156 -0.40245274 0.36845827 0 0 0 0 1 0.15280843 -0.7835442 -0.6022526 11.300003 0.4086815 0.6049615 -0.68337464 7.8 0.89979386 -0.14170405 0.41266328 0 0 0 0 1 0.2095561 -0.7724484 -0.5995078 11.300003 0.3623463 0.63081616 -0.68613124 7.8 0.90818024 -0.07344642 0.41208524 0 0 0 0 1 0.22122133 -0.7503723 -0.6228986 11.300003 0.32128492 0.6591435 -0.6799308 7.8 0.92078066 -0.049712747 0.3868999 0 0 0 0 1 0.20469409 -0.73341966 -0.6482251 11.300003 0.25995457 0.6791987 -0.6863765 7.8 0.9436757 -0.028011858 0.32968378 0 0 0 0 1 0.14461535 -0.7260246 -0.6722906 11.300003 0.20728064 0.68658596 -0.69687474 7.8 0.9675335 -0.03857401 0.24978173 0 0 0 0 1 0.060061336 -0.72153825 -0.6897647 11.300003 0.19549358 0.68613297 -0.7007166 7.8 0.97886413 -0.092758566 0.18226618 0 0 0 0 1 -0.0095796585 -0.7130717 -0.7010258 11.300003 0.24348281 0.6782943 -0.693277 7.8 0.969858 -0.17732906 0.16712278 0 0 0 0 1 -0.052850604 -0.70948523 -0.7027357 11.300003 0.32626492 0.65283144 -0.68363905 7.8 0.9437998 -0.26540875 0.19697762 0 0 0 0 1 -0.052850604 -0.70948523 -0.7027357 11.300003 0.32626492 0.65283144 -0.68363905 7.8 0.9437998 -0.26540875 0.19697762 0 0 0 0 1</float_array>
        <technique_common>
          <accessor source="#Motion_31_LThigh_transform_pose_array_id" count="17" stride="16">
            <param name="TRANSFORM" type="float4x4" />
          </accessor>
        </technique_common>
      </source>
      <sampler id="Motion_31_LThigh_transform_samp_id">
        <input semantic="INPUT" source="#Motion_31_LThigh_transform_frame_id" />
        <input semantic="INTERPOLATION" source="#Motion_31_LThigh_transform_interp_id" />
        <input semantic="OUTPUT" source="#Motion_31_LThigh_transform_pose_id" />
      </sampler>
      <channel source="#Motion_31_LThigh_transform_samp_id" target="LThigh_bone_id/transform" />
    </animation>
    <animation id="Motion_31_LLeg_transform_id" name="Motion_31_LLeg_transform">
      <source id="Motion_31_LLeg_transform_frame_id" name="Motion_31_LLeg_transform_frame">
        <float_array id="Motion_31_LLeg_transform_frame_array_id" count="17">0 0.033333335 0.06666667 0.1 0.13333334 0.16666667 0.2 0.23333333 0.26666668 0.3 0.33333334 0.36666667 0.4 0.43333334 0.46666667 0.5 0.53333336</float_array>
        <technique_common>
          <accessor source="#Motion_31_LLeg_transform_frame_array_id" count="17" stride="1">
            <param name="TIME" type="float" />
          </accessor>
        </technique_common>
      </source>
      <source id="Motion_31_LLeg_transform_interp_id" name="Motion_31_LLeg_transform_interp">
        <Name_array id="Motion_31_LLeg_transform_interp_array_id" count="17">LINEAR LINEAR LINEAR LINEAR LINEAR LINEAR LINEAR LINEAR LINEAR LINEAR LINEAR LINEAR LINEAR LINEAR LINEAR LINEAR LINEAR</Name_array>
        <technique_common>
          <accessor source="#Motion_31_LLeg_transform_interp_array_id" count="17" stride="1">
            <param name="INTERPOLATION" type="Name" />
          </accessor>
        </technique_common>
      </source>
      <source id="Motion_31_LLeg_transform_pose_id" name="Motion_31_LLeg_transform_pose">
        <float_array id="Motion_31_LLeg_transform_pose_array_id" count="272">-0.5945997 0 0.80402184 34.299995 0 1 0 0 -0.80402184 0 -0.5945997 0 0 0 0 1 -0.6225847 0 0.78255236 34.299995 0 1 0 0 -0.78255236 0 -0.6225847 0 0 0 0 1 -0.6303781 0 0.7762883 34.299995 0 1 0 0 -0.7762883 0 -0.6303781 0 0 0 0 1 -0.62172854 0 0.7832328 34.299995 0 1 0 0 -0.7832328 0 -0.62172854 0 0 0 0 1 -0.6125064 0 0.7904656 34.299995 0 1 0 0 -0.7904656 0 -0.6125064 0 0 0 0 1 -0.61801505 0 0.78616625 34.299995 0 1 0 0 -0.78616625 0 -0.61801505 0 0 0 0 1 -0.6298448 0 0.7767211 34.299995 0 1 0 0 -0.7767211 0 -0.6298448 0 0 0 0 1 -0.6365925 0 0.7712003 34.299995 0 1 0 0 -0.7712003 0 -0.6365925 0 0 0 0 1 -0.6312288 0 0.7755966 34.299995 0 1 0 0 -0.7755966 0 -0.6312288 0 0 0 0 1 -0.6132542 0 0.78988564 34.299995 0 1 0 0 -0.78988564 0 -0.6132542 0 0 0 0 1 -0.58961976 0 0.8076809 34.299995 0 1 0 0 -0.8076809 0 -0.58961976 0 0 0 0 1 -0.5709796 0 0.8209643 34.299995 0 1 0 0 -0.8209643 0 -0.5709796 0 0 0 0 1 -0.5646726 0 0.825315 34.299995 0 1 0 0 -0.825315 0 -0.5646726 0 0 0 0 1 -0.5714092 0 0.8206653 34.299995 0 1 0 0 -0.8206653 0 -0.5714092 0 0 0 0 1 -0.58542097 0 0.81072944 34.299995 0 1 0 0 -0.81072944 0 -0.58542097 0 0 0 0 1 -0.5828829 0 0.81255615 34.299995 0 1 0 0 -0.81255615 0 -0.5828829 0 0 0 0 1 -0.5828829 0 0.81255615 34.299995 0 1 0 0 -0.81255615 0 -0.5828829 0 0 0 0 1</float_array>
        <technique_common>
          <accessor source="#Motion_31_LLeg_transform_pose_array_id" count="17" stride="16">
            <param name="TRANSFORM" type="float4x4" />
          </accessor>
        </technique_common>
      </source>
      <sampler id="Motion_31_LLeg_transform_samp_id">
        <input semantic="INPUT" source="#Motion_31_LLeg_transform_frame_id" />
        <input semantic="INTERPOLATION" source="#Motion_31_LLeg_transform_interp_id" />
        <input semantic="OUTPUT" source="#Motion_31_LLeg_transform_pose_id" />
      </sampler>
      <channel source="#Motion_31_LLeg_transform_samp_id" target="LLeg_bone_id/transform" />
    </animation>
    <animation id="Motion_31_LFoot_transform_id" name="Motion_31_LFoot_transform">
      <source id="Motion_31_LFoot_transform_frame_id" name="Motion_31_LFoot_transform_frame">
        <float_array id="Motion_31_LFoot_transform_frame_array_id" count="17">0 0.033333335 0.06666667 0.1 0.13333334 0.16666667 0.2 0.23333333 0.26666668 0.3 0.33333334 0.36666667 0.4 0.43333334 0.46666667 0.5 0.53333336</float_array>
        <technique_common>
          <accessor source="#Motion_31_LFoot_transform_frame_array_id" count="17" stride="1">
            <param name="TIME" type="float" />
          </accessor>
        </technique_common>
      </source>
      <source id="Motion_31_LFoot_transform_interp_id" name="Motion_31_LFoot_transform_interp">
        <Name_array id="Motion_31_LFoot_transform_interp_array_id" count="17">LINEAR LINEAR LINEAR LINEAR LINEAR LINEAR LINEAR LINEAR LINEAR LINEAR LINEAR LINEAR LINEAR LINEAR LINEAR LINEAR LINEAR</Name_array>
        <technique_common>
          <accessor source="#Motion_31_LFoot_transform_interp_array_id" count="17" stride="1">
            <param name="INTERPOLATION" type="Name" />
          </accessor>
        </technique_common>
      </source>
      <source id="Motion_31_LFoot_transform_pose_id" name="Motion_31_LFoot_transform_pose">
        <float_array id="Motion_31_LFoot_transform_pose_array_id" count="272">-0.12458265 0.027252257 -0.99183494 34.3 0.00850109 0.9996154 0.02639823 0 0.9921729 -0.005142916 -0.12476635 0 0 0 0 1 -0.1501205 0.0032925992 -0.98866224 34.3 0.010074671 0.9999476 0.0018004258 0 0.98861635 -0.009690167 -0.15014577 0 0 0 0 1 -0.17935348 -0.0436515 -0.9828157 34.3 -0.020367673 0.99896574 -0.04065191 0 0.98357373 0.012726607 -0.18005705 0 0 0 0 1 -0.20557165 -0.083191216 -0.97509974 34.3 -0.040605765 0.9962474 -0.076434895 0 0.97779924 0.023881827 -0.20817816 0 0 0 0 1 -0.22341621 -0.104689 -0.96908486 34.3 -0.05318216 0.99404377 -0.09512448 0 0.97327125 0.030285686 -0.22765303 0 0 0 0 1 -0.23057246 -0.10939988 -0.96688557 34.3 -0.071193166 0.9928933 -0.09536516 0 0.97044706 0.046847053 -0.23672235 0 0 0 0 1 -0.23249292 -0.08058548 -0.96925384 34.3 -0.074474484 0.9951107 -0.06487123 0 0.9697425 0.057102583 -0.23735774 0 0 0 0 1 -0.23371911 0.017278703 -0.9721507 34.3 -0.025573233 0.99938697 0.02391097 0 0.9719678 0.030449484 -0.23313391 0 0 0 0 1 -0.21527076 0.23679857 -0.9474096 34.3 0.12419616 0.96891636 0.21395415 0 0.96862465 -0.07160657 -0.23798883 0 0 0 0 1 -0.19717646 0.25107467 -0.9476723 34.3 0.15010172 0.9629839 0.22390053 0 0.96880895 -0.09809936 -0.22756445 0 0 0 0 1 -0.17512143 0.22316627 -0.95892096 34.3 0.15328644 0.96827495 0.19734952 0 0.972541 -0.11242946 -0.20377398 0 0 0 0 1 -0.14297473 0.20940167 -0.9673206 34.3 0.16018814 0.9693714 0.18616903 0 0.976677 -0.12833583 -0.17213929 0 0 0 0 1 -0.11057019 0.19427574 -0.97469544 34.3 0.15303159 0.9723415 0.17644653 0 0.9820161 -0.12964946 -0.13724232 0 0 0 0 1 -0.09135282 0.15642235 -0.9834565 34.3 0.120040625 0.9821142 0.14505833 0 0.988557 -0.10480326 -0.10849595 0 0 0 0 1 -0.09241998 0.09949536 -0.9907367 34.3 0.074726604 0.99288225 0.092740044 0 0.9929122 -0.065463364 -0.09919703 0 0 0 0 1 -0.09941602 0.04417652 -0.99406475 34.3 0.013405917 0.9989828 0.043054353 0 0.9949556 -0.009046055 -0.09990704 0 0 0 0 1 -0.09941602 0.04417652 -0.99406475 34.3 0.013405917 0.9989828 0.043054353 0 0.9949556 -0.009046055 -0.09990704 0 0 0 0 1</float_array>
        <technique_common>
          <accessor source="#Motion_31_LFoot_transform_pose_array_id" count="17" stride="16">
            <param name="TRANSFORM" type="float4x4" />
          </accessor>
        </technique_common>
      </source>
      <sampler id="Motion_31_LFoot_transform_samp_id">
        <input semantic="INPUT" source="#Motion_31_LFoot_transform_frame_id" />
        <input semantic="INTERPOLATION" source="#Motion_31_LFoot_transform_interp_id" />
        <input semantic="OUTPUT" source="#Motion_31_LFoot_transform_pose_id" />
      </sampler>
      <channel source="#Motion_31_LFoot_transform_samp_id" target="LFoot_bone_id/transform" />
    </animation>
    <animation id="Motion_31_Spine2_transform_id" name="Motion_31_Spine2_transform">
      <source id="Motion_31_Spine2_transform_frame_id" name="Motion_31_Spine2_transform_frame">
        <float_array id="Motion_31_Spine2_transform_frame_array_id" count="17">0 0.033333335 0.06666667 0.1 0.13333334 0.16666667 0.2 0.23333333 0.26666668 0.3 0.33333334 0.36666667 0.4 0.43333334 0.46666667 0.5 0.53333336</float_array>
        <technique_common>
          <accessor source="#Motion_31_Spine2_transform_frame_array_id" count="17" stride="1">
            <param name="TIME" type="float" />
          </accessor>
        </technique_common>
      </source>
      <source id="Motion_31_Spine2_transform_interp_id" name="Motion_31_Spine2_transform_interp">
        <Name_array id="Motion_31_Spine2_transform_interp_array_id" count="17">LINEAR LINEAR LINEAR LINEAR LINEAR LINEAR LINEAR LINEAR LINEAR LINEAR LINEAR LINEAR LINEAR LINEAR LINEAR LINEAR LINEAR</Name_array>
        <technique_common>
          <accessor source="#Motion_31_Spine2_transform_interp_array_id" count="17" stride="1">
            <param name="INTERPOLATION" type="Name" />
          </accessor>
        </technique_common>
      </source>
      <source id="Motion_31_Spine2_transform_pose_id" name="Motion_31_Spine2_transform_pose">
        <float_array id="Motion_31_Spine2_transform_pose_array_id" count="272">0.9937609 0.0051035853 -0.111414626 13.5 -0.004796478 0.9999839 0.0030243006 0 0.111428276 -0.002471034 0.9937694 0 0 0 0 1 0.9885432 0.0063875276 -0.15080298 13.5 -0.0036964645 0.999829 0.01811848 0 0.15089293 -0.017353462 0.9883978 0 0 0 0 1 0.9726418 0.008876074 -0.23214021 13.5 -0.0019124111 0.9995419 0.030205525 0 0.23230198 -0.028935209 0.9722132 0 0 0 0 1 0.95761085 0.0057409746 -0.2880079 13.5 -0.007707788 0.99995404 -0.005695506 0 0.287962 0.0076739825 0.9576111 0 0 0 0 1 0.95660585 -0.008946473 -0.29124776 13.5 -0.005822796 0.99874204 -0.04980413 0 0.29132697 0.049338795 0.95535034 0 0 0 0 1 0.9634678 -0.010941308 -0.26760066 13.5 -0.004956571 0.9982656 -0.058661405 0 0.2677784 0.057844754 0.9617425 0 0 0 0 1 0.97292703 0.013803352 -0.23069996 13.5 -0.025502622 0.998531 -0.047807194 0 0.22970116 0.052396365 0.9718498 0 0 0 0 1 0.9802086 0.0469433 -0.19232135 13.5 -0.05297146 0.9982491 -0.026320383 0 0.19074903 0.035987005 0.98097897 0 0 0 0 1 0.98374295 0.07036709 -0.16522188 13.5 -0.0715188 0.9974387 -0.0010244292 0 0.16472663 0.012824247 0.9862559 0 0 0 0 1 0.983991 0.070519455 -0.16367225 13.5 -0.06693945 0.99738365 0.027293172 0 0.16516875 -0.015900105 0.98613715 0 0 0 0 1 0.97943956 0.04706124 -0.19617176 13.5 -0.036581066 0.99772024 0.05671055 0 0.1983934 -0.048368387 0.97892827 0 0 0 0 1 0.96914434 -0.013403804 -0.2461292 13.5 0.0318545 0.9969579 0.07113572 0 0.24442695 -0.0767811 0.96662307 0 0 0 0 1 0.9537842 -0.08876191 -0.2870835 13.5 0.111917436 0.9915732 0.0652464 0 0.2788729 -0.094360635 0.9556809 0 0 0 0 1 0.94917005 -0.12563704 -0.28860283 13.5 0.14720728 0.9876194 0.05420304 0 0.27821982 -0.09393234 0.9559134 0 0 0 0 1 0.9726758 -0.09157334 -0.21334495 13.5 0.102604285 0.9938689 0.041195296 0 0.20826451 -0.061959773 0.976108 0 0 0 0 1 0.9923317 -0.027158875 -0.12058262 13.5 0.029130828 0.9994687 0.014620675 0 0.12012147 -0.018021232 0.9925956 0 0 0 0 1 0.9923317 -0.027158875 -0.12058262 13.5 0.029130828 0.9994687 0.014620675 0 0.12012147 -0.018021232 0.9925956 0 0 0 0 1</float_array>
        <technique_common>
          <accessor source="#Motion_31_Spine2_transform_pose_array_id" count="17" stride="16">
            <param name="TRANSFORM" type="float4x4" />
          </accessor>
        </technique_common>
      </source>
      <sampler id="Motion_31_Spine2_transform_samp_id">
        <input semantic="INPUT" source="#Motion_31_Spine2_transform_frame_id" />
        <input semantic="INTERPOLATION" source="#Motion_31_Spine2_transform_interp_id" />
        <input semantic="OUTPUT" source="#Motion_31_Spine2_transform_pose_id" />
      </sampler>
      <channel source="#Motion_31_Spine2_transform_samp_id" target="Spine2_bone_id/transform" />
    </animation>
    <animation id="Motion_31_Spine3_transform_id" name="Motion_31_Spine3_transform">
      <source id="Motion_31_Spine3_transform_frame_id" name="Motion_31_Spine3_transform_frame">
        <float_array id="Motion_31_Spine3_transform_frame_array_id" count="17">0 0.033333335 0.06666667 0.1 0.13333334 0.16666667 0.2 0.23333333 0.26666668 0.3 0.33333334 0.36666667 0.4 0.43333334 0.46666667 0.5 0.53333336</float_array>
        <technique_common>
          <accessor source="#Motion_31_Spine3_transform_frame_array_id" count="17" stride="1">
            <param name="TIME" type="float" />
          </accessor>
        </technique_common>
      </source>
      <source id="Motion_31_Spine3_transform_interp_id" name="Motion_31_Spine3_transform_interp">
        <Name_array id="Motion_31_Spine3_transform_interp_array_id" count="17">LINEAR LINEAR LINEAR LINEAR LINEAR LINEAR LINEAR LINEAR LINEAR LINEAR LINEAR LINEAR LINEAR LINEAR LINEAR LINEAR LINEAR</Name_array>
        <technique_common>
          <accessor source="#Motion_31_Spine3_transform_interp_array_id" count="17" stride="1">
            <param name="INTERPOLATION" type="Name" />
          </accessor>
        </technique_common>
      </source>
      <source id="Motion_31_Spine3_transform_pose_id" name="Motion_31_Spine3_transform_pose">
        <float_array id="Motion_31_Spine3_transform_pose_array_id" count="272">0.99332917 0.107320815 -0.042182807 13.5 -0.110791594 0.98966354 -0.09105662 0 0.031974513 0.0951227 0.9949519 0 0 0 0 1 0.9930138 0.09956699 -0.06332421 13.5 -0.104124375 0.99186105 -0.07327891 0 0.055512656 0.07936057 0.9952991 0 0 0 0 1 0.99092627 0.08470648 -0.10435479 13.5 -0.09074446 0.99438006 -0.054531552 0 0.099149145 0.063506365 0.993044 0 0 0 0 1 0.9886985 0.075845204 -0.1293166 13.5 -0.08671033 0.99297065 -0.080564305 0 0.12229717 0.09086689 0.9883252 0 0 0 0 1 0.9879471 0.08685869 -0.1281254 13.5 -0.10547319 0.9835719 -0.14649837 0 0.11329588 0.15824644 0.98087823 0 0 0 0 1 0.9851693 0.11360038 -0.12859388 13.5 -0.14095488 0.96316636 -0.22900282 0 0.09784249 0.24373247 0.9648945 0 0 0 0 1 0.9796206 0.14683911 -0.13704687 13.5 -0.18287629 0.9342248 -0.30623567 0 0.08306521 0.3250574 0.9420392 0 0 0 0 1 0.9722961 0.17873101 -0.15065011 13.5 -0.22221442 0.9067193 -0.35844228 0 0.07253261 0.38198867 0.92131627 0 0 0 0 1 0.9651355 0.2041372 -0.16383363 13.5 -0.25178245 0.8951249 -0.367909 0 0.07154764 0.3963325 0.915315 0 0 0 0 1 0.9552027 0.22073168 -0.19714305 13.5 -0.27187392 0.91764563 -0.28984657 0 0.11692914 0.33046028 0.93654877 0 0 0 0 1 0.95261526 0.19795379 -0.23095119 13.5 -0.23601755 0.95999587 -0.1506773 0 0.19188505 0.19804603 0.9612273 0 0 0 0 1 0.9595918 0.13074674 -0.24917643 13.5 -0.14264633 0.98931193 -0.030231347 0 0.24256055 0.06455385 0.96798617 0 0 0 0 1 0.9648972 0.059411656 -0.2558194 13.5 -0.05789787 0.9982319 0.01345134 0 0.25616625 0.0018322375 0.966631 0 0 0 0 1 0.9738853 0.026734212 -0.22546124 13.5 -0.030355109 0.9994597 -0.012608056 0 0.22500235 0.019122701 0.97417057 0 0 0 0 1 0.98736477 0.056754183 -0.14795198 13.5 -0.064794734 0.99664015 -0.05010098 0 0.14461143 0.059054445 0.9877247 0 0 0 0 1 0.9922007 0.10284109 -0.07043815 13.5 -0.1087394 0.9903635 -0.08576666 0 0.06093903 0.092757136 0.9938222 0 0 0 0 1 0.9922007 0.10284109 -0.07043815 13.5 -0.1087394 0.9903635 -0.08576666 0 0.06093903 0.092757136 0.9938222 0 0 0 0 1</float_array>
        <technique_common>
          <accessor source="#Motion_31_Spine3_transform_pose_array_id" count="17" stride="16">
            <param name="TRANSFORM" type="float4x4" />
          </accessor>
        </technique_common>
      </source>
      <sampler id="Motion_31_Spine3_transform_samp_id">
        <input semantic="INPUT" source="#Motion_31_Spine3_transform_frame_id" />
        <input semantic="INTERPOLATION" source="#Motion_31_Spine3_transform_interp_id" />
        <input semantic="OUTPUT" source="#Motion_31_Spine3_transform_pose_id" />
      </sampler>
      <channel source="#Motion_31_Spine3_transform_samp_id" target="Spine3_bone_id/transform" />
    </animation>
    <animation id="Motion_31_RShoulder_transform_id" name="Motion_31_RShoulder_transform">
      <source id="Motion_31_RShoulder_transform_frame_id" name="Motion_31_RShoulder_transform_frame">
        <float_array id="Motion_31_RShoulder_transform_frame_array_id" count="17">0 0.033333335 0.06666667 0.1 0.13333334 0.16666667 0.2 0.23333333 0.26666668 0.3 0.33333334 0.36666667 0.4 0.43333334 0.46666667 0.5 0.53333336</float_array>
        <technique_common>
          <accessor source="#Motion_31_RShoulder_transform_frame_array_id" count="17" stride="1">
            <param name="TIME" type="float" />
          </accessor>
        </technique_common>
      </source>
      <source id="Motion_31_RShoulder_transform_interp_id" name="Motion_31_RShoulder_transform_interp">
        <Name_array id="Motion_31_RShoulder_transform_interp_array_id" count="17">LINEAR LINEAR LINEAR LINEAR LINEAR LINEAR LINEAR LINEAR LINEAR LINEAR LINEAR LINEAR LINEAR LINEAR LINEAR LINEAR LINEAR</Name_array>
        <technique_common>
          <accessor source="#Motion_31_RShoulder_transform_interp_array_id" count="17" stride="1">
            <param name="INTERPOLATION" type="Name" />
          </accessor>
        </technique_common>
      </source>
      <source id="Motion_31_RShoulder_transform_pose_id" name="Motion_31_RShoulder_transform_pose">
        <float_array id="Motion_31_RShoulder_transform_pose_array_id" count="272">-0.4691335 -0.8787948 -0.08737254 14.18017 0.85536516 -0.4275446 -0.29250044 4.5 0.2196922 -0.2119571 0.9522655 -0.240233 0 0 0 1 -0.4092809 -0.9116389 -0.037463732 14.18017 0.87309474 -0.37939262 -0.3062136 4.5 0.26494277 -0.15803677 0.9512254 -0.240233 0 0 0 1 -0.2937008 -0.9544437 0.05269529 14.18017 0.8874514 -0.2927407 -0.35599536 4.5 0.35520363 -0.05779165 0.9330008 -0.240233 0 0 0 1 -0.22020912 -0.96787477 0.12135176 14.18017 0.8962585 -0.24986124 -0.36645615 4.5 0.38500476 0.028065518 0.92248774 -0.240233 0 0 0 1 -0.20849705 -0.9662955 0.15100431 14.18017 0.917534 -0.24671257 -0.3118725 4.5 0.3386156 0.073527135 0.9380476 -0.240233 0 0 0 1 -0.19797838 -0.9647701 0.1732725 14.18017 0.9441887 -0.23517919 -0.23064812 4.5 0.26327246 0.11793862 0.9574853 -0.240233 0 0 0 1 -0.1899066 -0.9631932 0.19024779 14.18017 0.9629898 -0.22048831 -0.15503347 4.5 0.19127463 0.15376481 0.9694176 -0.240233 0 0 0 1 -0.1859113 -0.96132034 0.20322444 14.18017 0.96873873 -0.21390891 -0.12565161 4.5 0.16426297 0.17351131 0.9710363 -0.240233 0 0 0 1 -0.18809366 -0.9587542 0.21309875 14.18017 0.9629681 -0.22269976 -0.15197714 4.5 0.1931658 0.17662136 0.96513826 -0.240233 0 0 0 1 -0.192891 -0.9561755 0.22027566 14.18017 0.94135886 -0.24366772 -0.23338693 4.5 0.27683294 0.1623402 0.9471057 -0.240233 0 0 0 1 -0.1982348 -0.95405114 0.22469842 14.18017 0.90431035 -0.26644778 -0.33350933 4.5 0.37805533 0.13708398 0.91557753 -0.240233 0 0 0 1 -0.20181036 -0.9532774 0.22479934 14.18017 0.871607 -0.27948987 -0.4027241 4.5 0.44673693 0.11466277 0.8872872 -0.240233 0 0 0 1 -0.20590174 -0.9536487 0.21945035 14.18017 0.86638916 -0.28191185 -0.41218358 4.5 0.454944 0.10526009 0.8842772 -0.240233 0 0 0 1 -0.21323621 -0.9540955 0.21031384 14.18017 0.88629913 -0.2794838 -0.3692728 4.5 0.41110086 0.107658625 0.90521026 -0.240233 0 0 0 1 -0.3128096 -0.9441144 0.10391267 14.18017 0.89574975 -0.32961738 -0.29830265 4.5 0.31588328 -0.0002322197 0.948798 -0.240233 0 0 0 1 -0.4443462 -0.89437973 -0.051395103 14.18017 0.86612904 -0.41423833 -0.2796911 4.5 0.22886021 -0.16879447 0.9587134 -0.240233 0 0 0 1 -0.4443462 -0.89437973 -0.051395103 14.18017 0.86612904 -0.41423833 -0.2796911 4.5 0.22886021 -0.16879447 0.9587134 -0.240233 0 0 0 1</float_array>
        <technique_common>
          <accessor source="#Motion_31_RShoulder_transform_pose_array_id" count="17" stride="16">
            <param name="TRANSFORM" type="float4x4" />
          </accessor>
        </technique_common>
      </source>
      <sampler id="Motion_31_RShoulder_transform_samp_id">
        <input semantic="INPUT" source="#Motion_31_RShoulder_transform_frame_id" />
        <input semantic="INTERPOLATION" source="#Motion_31_RShoulder_transform_interp_id" />
        <input semantic="OUTPUT" source="#Motion_31_RShoulder_transform_pose_id" />
      </sampler>
      <channel source="#Motion_31_RShoulder_transform_samp_id" target="RShoulder_bone_id/transform" />
    </animation>
    <animation id="Motion_31_RArm_transform_id" name="Motion_31_RArm_transform">
      <source id="Motion_31_RArm_transform_frame_id" name="Motion_31_RArm_transform_frame">
        <float_array id="Motion_31_RArm_transform_frame_array_id" count="17">0 0.033333335 0.06666667 0.1 0.13333334 0.16666667 0.2 0.23333333 0.26666668 0.3 0.33333334 0.36666667 0.4 0.43333334 0.46666667 0.5 0.53333336</float_array>
        <technique_common>
          <accessor source="#Motion_31_RArm_transform_frame_array_id" count="17" stride="1">
            <param name="TIME" type="float" />
          </accessor>
        </technique_common>
      </source>
      <source id="Motion_31_RArm_transform_interp_id" name="Motion_31_RArm_transform_interp">
        <Name_array id="Motion_31_RArm_transform_interp_array_id" count="17">LINEAR LINEAR LINEAR LINEAR LINEAR LINEAR LINEAR LINEAR LINEAR LINEAR LINEAR LINEAR LINEAR LINEAR LINEAR LINEAR LINEAR</Name_array>
        <technique_common>
          <accessor source="#Motion_31_RArm_transform_interp_array_id" count="17" stride="1">
            <param name="INTERPOLATION" type="Name" />
          </accessor>
        </technique_common>
      </source>
      <source id="Motion_31_RArm_transform_pose_id" name="Motion_31_RArm_transform_pose">
        <float_array id="Motion_31_RArm_transform_pose_array_id" count="272">0.73050565 -0.48954713 -0.47613558 12.61957 0.47257435 0.865699 -0.16504171 0 0.4929858 -0.10444555 0.8637454 0 0 0 0 1 0.7267014 -0.50323707 -0.4676083 12.61957 0.47185758 0.8603754 -0.19262546 0 0.49925497 -0.08066336 0.86269224 0 0 0 0 1 0.6813515 -0.56416905 -0.4663405 12.61957 0.47717324 0.8254819 -0.301472 0 0.5550368 -0.017116815 0.83164966 0 0 0 0 1 0.6836351 -0.6140614 -0.3944257 12.61957 0.50510436 0.7881847 -0.35161692 0 0.5267947 0.04115151 0.8489958 0 0 0 0 1 0.70412403 -0.651584 -0.28221908 12.61957 0.5907115 0.7580627 -0.27640715 0 0.39404222 0.02791486 0.9186683 0 0 0 0 1 0.672855 -0.7157362 -0.18705034 12.61957 0.7031531 0.6973337 -0.13892998 0 0.22987372 -0.03804529 0.97247654 0 0 0 0 1 0.611889 -0.7777131 -0.14406326 12.61957 0.7859853 0.61824465 0.00082436204 0 0.088425234 -0.113736026 0.9895681 0 0 0 0 1 0.55314696 -0.8187401 -0.15392578 12.61957 0.83255684 0.54984975 0.067189634 0 0.029625215 -0.1653177 0.9857953 0 0 0 0 1 0.51648664 -0.83443195 -0.19226265 12.61957 0.85370237 0.51923525 0.03983818 0 0.0665873 -0.18471096 0.98053455 0 0 0 0 1 0.5210097 -0.81818783 -0.24314085 12.61957 0.8304522 0.5517296 -0.07709442 0 0.19722572 -0.1617499 0.9669224 0 0 0 0 1 0.5705284 -0.7537196 -0.32619646 12.61957 0.72287196 0.6493778 -0.23614538 0 0.38981214 -0.101070635 0.9153312 0 0 0 0 1 0.6192136 -0.66206604 -0.4221885 12.61957 0.5569177 0.7493278 -0.3582605 0 0.55354965 -0.01328443 0.8327102 0 0 0 0 1 0.6648662 -0.6338099 -0.3952694 12.61957 0.4811759 0.7681613 -0.42237186 0 0.5713341 0.0906267 0.81569856 0 0 0 0 1 0.6864518 -0.66956985 -0.28365517 12.61957 0.5684681 0.7373718 -0.36486548 0 0.45346224 0.089213654 0.8867993 0 0 0 0 1 0.68486696 -0.66076744 -0.30715412 12.61957 0.6005261 0.7505781 -0.27568275 0 0.4127053 0.0043519586 0.9108542 0 0 0 0 1 0.7089958 -0.5603971 -0.42811218 12.61957 0.515469 0.8261026 -0.22769749 0 0.48126557 -0.059242003 0.87457067 0 0 0 0 1 0.7089958 -0.5603971 -0.42811218 12.61957 0.515469 0.8261026 -0.22769749 0 0.48126557 -0.059242003 0.87457067 0 0 0 0 1</float_array>
        <technique_common>
          <accessor source="#Motion_31_RArm_transform_pose_array_id" count="17" stride="16">
            <param name="TRANSFORM" type="float4x4" />
          </accessor>
        </technique_common>
      </source>
      <sampler id="Motion_31_RArm_transform_samp_id">
        <input semantic="INPUT" source="#Motion_31_RArm_transform_frame_id" />
        <input semantic="INTERPOLATION" source="#Motion_31_RArm_transform_interp_id" />
        <input semantic="OUTPUT" source="#Motion_31_RArm_transform_pose_id" />
      </sampler>
      <channel source="#Motion_31_RArm_transform_samp_id" target="RArm_bone_id/transform" />
    </animation>
    <animation id="Motion_31_RForeArm_transform_id" name="Motion_31_RForeArm_transform">
      <source id="Motion_31_RForeArm_transform_frame_id" name="Motion_31_RForeArm_transform_frame">
        <float_array id="Motion_31_RForeArm_transform_frame_array_id" count="17">0 0.033333335 0.06666667 0.1 0.13333334 0.16666667 0.2 0.23333333 0.26666668 0.3 0.33333334 0.36666667 0.4 0.43333334 0.46666667 0.5 0.53333336</float_array>
        <technique_common>
          <accessor source="#Motion_31_RForeArm_transform_frame_array_id" count="17" stride="1">
            <param name="TIME" type="float" />
          </accessor>
        </technique_common>
      </source>
      <source id="Motion_31_RForeArm_transform_interp_id" name="Motion_31_RForeArm_transform_interp">
        <Name_array id="Motion_31_RForeArm_transform_interp_array_id" count="17">LINEAR LINEAR LINEAR LINEAR LINEAR LINEAR LINEAR LINEAR LINEAR LINEAR LINEAR LINEAR LINEAR LINEAR LINEAR LINEAR LINEAR</Name_array>
        <technique_common>
          <accessor source="#Motion_31_RForeArm_transform_interp_array_id" count="17" stride="1">
            <param name="INTERPOLATION" type="Name" />
          </accessor>
        </technique_common>
      </source>
      <source id="Motion_31_RForeArm_transform_pose_id" name="Motion_31_RForeArm_transform_pose">
        <float_array id="Motion_31_RForeArm_transform_pose_array_id" count="272">0.6534653 0 -0.7569565 22.6 0 1 0 0 0.7569565 0 0.6534653 0 0 0 0 1 0.6309305 1.0649361E-05 -0.7758394 22.6 -6.7190067E-06 1 8.262193E-06 0 0.7758394 0 0.6309305 0 0 0 0 1 0.63414156 -1.0649364E-05 -0.773217 22.6 6.7532037E-06 1 -8.234269E-06 0 0.773217 0 0.63414156 0 0 0 0 1 0.5907428 0 -0.8068599 22.6 0 1 0 0 0.8068599 0 0.5907428 0 0 0 0 1 0.47753555 0 -0.87861246 22.6 0 1 0 0 0.87861246 0 0.47753555 0 0 0 0 1 0.37735373 1.7484555E-07 -0.9260692 22.6 -6.597864E-08 1 1.6191908E-07 0 0.9260692 7.1054274E-15 0.37735373 0 0 0 0 1 0.3910364 1.7484555E-07 -0.9203752 22.6 -6.837098E-08 1 1.609235E-07 0 0.9203752 0 0.3910364 0 0 0 0 1 0.5317172 0 -0.846922 22.6 0 1 0 0 0.846922 0 0.5317172 0 0 0 0 1 0.699613 0 -0.714522 22.6 0 1 0 0 0.714522 0 0.699613 0 0 0 0 1 0.761673 1.064936E-05 -0.6479616 22.6 -8.111329E-06 1 6.900377E-06 0 0.6479616 0 0.761673 0 0 0 0 1 0.76848876 -1.0649363E-05 -0.6398633 22.6 8.183915E-06 1 -6.814137E-06 0 0.6398633 2.2737368E-13 0.76848876 0 0 0 0 1 0.7681876 0 -0.6402249 22.6 0 1 0 0 0.6402249 0 0.7681876 0 0 0 0 1 0.6227534 0 -0.7824182 22.6 0 1 0 0 0.7824182 0 0.6227534 0 0 0 0 1 0.3887732 1.7484555E-07 -0.9213335 22.6 -6.7975265E-08 1 1.6109107E-07 0 0.9213335 0 0.3887732 0 0 0 0 1 0.42914313 1.7484554E-07 -0.90323645 22.6 -7.503375E-08 1 1.5792688E-07 0 0.90323645 -7.1054274E-15 0.42914313 0 0 0 0 1 0.6125846 0 -0.79040504 22.6 0 1 0 0 0.79040504 0 0.6125846 0 0 0 0 1 0.6125846 0 -0.79040504 22.6 0 1 0 0 0.79040504 0 0.6125846 0 0 0 0 1</float_array>
        <technique_common>
          <accessor source="#Motion_31_RForeArm_transform_pose_array_id" count="17" stride="16">
            <param name="TRANSFORM" type="float4x4" />
          </accessor>
        </technique_common>
      </source>
      <sampler id="Motion_31_RForeArm_transform_samp_id">
        <input semantic="INPUT" source="#Motion_31_RForeArm_transform_frame_id" />
        <input semantic="INTERPOLATION" source="#Motion_31_RForeArm_transform_interp_id" />
        <input semantic="OUTPUT" source="#Motion_31_RForeArm_transform_pose_id" />
      </sampler>
      <channel source="#Motion_31_RForeArm_transform_samp_id" target="RForeArm_bone_id/transform" />
    </animation>
    <animation id="Motion_31_RHand_transform_id" name="Motion_31_RHand_transform">
      <source id="Motion_31_RHand_transform_frame_id" name="Motion_31_RHand_transform_frame">
        <float_array id="Motion_31_RHand_transform_frame_array_id" count="17">0 0.033333335 0.06666667 0.1 0.13333334 0.16666667 0.2 0.23333333 0.26666668 0.3 0.33333334 0.36666667 0.4 0.43333334 0.46666667 0.5 0.53333336</float_array>
        <technique_common>
          <accessor source="#Motion_31_RHand_transform_frame_array_id" count="17" stride="1">
            <param name="TIME" type="float" />
          </accessor>
        </technique_common>
      </source>
      <source id="Motion_31_RHand_transform_interp_id" name="Motion_31_RHand_transform_interp">
        <Name_array id="Motion_31_RHand_transform_interp_array_id" count="17">LINEAR LINEAR LINEAR LINEAR LINEAR LINEAR LINEAR LINEAR LINEAR LINEAR LINEAR LINEAR LINEAR LINEAR LINEAR LINEAR LINEAR</Name_array>
        <technique_common>
          <accessor source="#Motion_31_RHand_transform_interp_array_id" count="17" stride="1">
            <param name="INTERPOLATION" type="Name" />
          </accessor>
        </technique_common>
      </source>
      <source id="Motion_31_RHand_transform_pose_id" name="Motion_31_RHand_transform_pose">
        <float_array id="Motion_31_RHand_transform_pose_array_id" count="272">0.8344153 0.43281585 0.34120595 22.600002 -0.55072737 0.6309525 0.5464415 0 0.021223798 -0.64387065 0.76483995 0 0 0 0 1 0.8686383 0.34102806 0.35939866 22.600002 -0.49359044 0.6584009 0.5682224 0 -0.042848617 -0.67097545 0.74024045 0 0 0 0 1 0.9081397 0.17490458 0.38038224 22.600002 -0.39557725 0.65602326 0.64276904 0 -0.13711637 -0.7341947 0.66494906 0 0 0 0 1 0.92077595 0.07967572 0.3818683 22.600002 -0.34509206 0.62281173 0.7021517 0 -0.18188763 -0.77830416 0.6009655 0 0 0 0 1 0.9211201 0.113113016 0.37248248 22.600002 -0.36599138 0.5776217 0.7296598 0 -0.13261993 -0.8084297 0.57345736 0 0 0 0 1 0.91289395 0.23889789 0.33098704 22.600002 -0.40808186 0.5148828 0.75389975 0 0.009685531 -0.8233003 0.56752336 0 0 0 0 1 0.86053324 0.45251298 0.23391156 22.600002 -0.4519561 0.46641642 0.76038903 0 0.2349857 -0.76005775 0.60588276 0 0 0 0 1 0.7466861 0.65729827 0.102072984 22.600002 -0.4932471 0.4441762 0.7479404 0 0.44628152 -0.6088239 0.6558706 0 0 0 0 1 0.6493907 0.76044726 -0.0034252405 22.600002 -0.52643144 0.45279217 0.7196175 0 0.548782 -0.46550977 0.6943623 0 0 0 0 1 0.7124441 0.70129377 0.024705753 22.600002 -0.5310077 0.5157655 0.67232186 0 0.45875275 -0.49211067 0.7398466 0 0 0 0 1 0.8459714 0.5064052 0.16699174 22.600002 -0.4899672 0.6146693 0.6181535 0 0.21039143 -0.6047607 0.76811457 0 0 0 0 1 0.9063374 0.27480742 0.32098815 22.600002 -0.4197708 0.6726059 0.6094209 0 -0.048425138 -0.6870824 0.724964 0 0 0 0 1 0.89016986 0.05101168 0.45276427 22.600002 -0.38449606 0.6172619 0.68640405 0 -0.24445951 -0.7851023 0.56908166 0 0 0 0 1 0.8615097 -0.019624472 0.50736177 22.600002 -0.42404673 0.5217823 0.7402214 0 -0.27925882 -0.85285294 0.44119877 0 0 0 0 1 0.873228 0.16281419 0.45930856 22.600002 -0.47304845 0.50958186 0.7187151 0 -0.117038295 -0.84487736 0.5220002 0 0 0 0 1 0.854849 0.36490715 0.3688848 22.600002 -0.51868176 0.58146507 0.6267915 0 0.014227077 -0.7271459 0.6863355 0 0 0 0 1 0.854849 0.36490715 0.3688848 22.600002 -0.51868176 0.58146507 0.6267915 0 0.014227077 -0.7271459 0.6863355 0 0 0 0 1</float_array>
        <technique_common>
          <accessor source="#Motion_31_RHand_transform_pose_array_id" count="17" stride="16">
            <param name="TRANSFORM" type="float4x4" />
          </accessor>
        </technique_common>
      </source>
      <sampler id="Motion_31_RHand_transform_samp_id">
        <input semantic="INPUT" source="#Motion_31_RHand_transform_frame_id" />
        <input semantic="INTERPOLATION" source="#Motion_31_RHand_transform_interp_id" />
        <input semantic="OUTPUT" source="#Motion_31_RHand_transform_pose_id" />
      </sampler>
      <channel source="#Motion_31_RHand_transform_samp_id" target="RHand_bone_id/transform" />
    </animation>
    <animation id="Motion_31_LShoulder_transform_id" name="Motion_31_LShoulder_transform">
      <source id="Motion_31_LShoulder_transform_frame_id" name="Motion_31_LShoulder_transform_frame">
        <float_array id="Motion_31_LShoulder_transform_frame_array_id" count="17">0 0.033333335 0.06666667 0.1 0.13333334 0.16666667 0.2 0.23333333 0.26666668 0.3 0.33333334 0.36666667 0.4 0.43333334 0.46666667 0.5 0.53333336</float_array>
        <technique_common>
          <accessor source="#Motion_31_LShoulder_transform_frame_array_id" count="17" stride="1">
            <param name="TIME" type="float" />
          </accessor>
        </technique_common>
      </source>
      <source id="Motion_31_LShoulder_transform_interp_id" name="Motion_31_LShoulder_transform_interp">
        <Name_array id="Motion_31_LShoulder_transform_interp_array_id" count="17">LINEAR LINEAR LINEAR LINEAR LINEAR LINEAR LINEAR LINEAR LINEAR LINEAR LINEAR LINEAR LINEAR LINEAR LINEAR LINEAR LINEAR</Name_array>
        <technique_common>
          <accessor source="#Motion_31_LShoulder_transform_interp_array_id" count="17" stride="1">
            <param name="INTERPOLATION" type="Name" />
          </accessor>
        </technique_common>
      </source>
      <source id="Motion_31_LShoulder_transform_pose_id" name="Motion_31_LShoulder_transform_pose">
        <float_array id="Motion_31_LShoulder_transform_pose_array_id" count="272">-0.47542667 0.8774097 -0.06420239 14.18017 -0.82929504 -0.4226023 0.36561888 -4.5 0.29366547 0.22706765 0.92854774 -0.240233 0 0 0 1 -0.43833017 0.8985433 0.022065654 14.18017 -0.83623093 -0.41668725 0.35649666 -4.5 0.32952213 0.13781121 0.934036 -0.240233 0 0 0 1 -0.37514353 0.9205447 0.108926445 14.18017 -0.85392874 -0.38890994 0.34576708 -4.5 0.36065662 0.036696836 0.9319765 -0.240233 0 0 0 1 -0.31736898 0.9318002 0.17614049 14.18017 -0.8626247 -0.36082387 0.35452065 -4.5 0.39389807 -0.039429277 0.918308 -0.240233 0 0 0 1 -0.27879477 0.93660027 0.21225789 14.18017 -0.87023884 -0.33986092 0.35662144 -4.5 0.4061499 -0.08529085 0.9098174 -0.240233 0 0 0 1 -0.24337769 0.9388241 0.24367331 14.18017 -0.88452524 -0.3179102 0.34139162 -4.5 0.39797288 -0.13244808 0.90778583 -0.240233 0 0 0 1 -0.20991623 0.93972325 0.26991755 14.18017 -0.89400005 -0.29625523 0.33615017 -4.5 0.39585263 -0.17074291 0.90230125 -0.240233 0 0 0 1 -0.18115938 0.93958235 0.29045886 14.18017 -0.8973117 -0.27879715 0.34220463 -4.5 0.4025085 -0.19863854 0.8936049 -0.240233 0 0 0 1 -0.16215551 0.9387864 0.3039502 14.18017 -0.9095619 -0.26164103 0.3228639 -4.5 0.38262606 -0.22410735 0.89631087 -0.240233 0 0 0 1 -0.14778054 0.93854624 0.31191647 14.18017 -0.89692694 -0.26007462 0.3576076 -4.5 0.41675282 -0.22691882 0.8802414 -0.240233 0 0 0 1 -0.13735032 0.93890715 0.31557626 14.18017 -0.8617964 -0.270334 0.42921638 -4.5 0.48830527 -0.21300949 0.8462771 -0.240233 0 0 0 1 -0.16169798 0.9342793 0.3177672 14.18017 -0.83273506 -0.30196595 0.46407866 -4.5 0.5295339 -0.18957537 0.8268343 -0.240233 0 0 0 1 -0.22966874 0.921295 0.31379536 14.18017 -0.81214577 -0.35908937 0.45986283 -4.5 0.53635 -0.14923143 0.83069766 -0.240233 0 0 0 1 -0.31814456 0.8988965 0.30127886 14.18017 -0.8009735 -0.4248656 0.42181808 -4.5 0.5071739 -0.107117236 0.85516113 -0.240233 0 0 0 1 -0.41074538 0.8937896 0.18007952 14.18017 -0.80575913 -0.4482721 0.3870459 -4.5 0.42666215 0.013876587 0.9043046 -0.240233 0 0 0 1 -0.4665408 0.88449967 -4.8205256E-05 14.18017 -0.8202627 -0.4326378 0.37415722 -4.5 0.3309211 0.17459914 0.9273653 -0.240233 0 0 0 1 -0.4665408 0.88449967 -4.8205256E-05 14.18017 -0.8202627 -0.4326378 0.37415722 -4.5 0.3309211 0.17459914 0.9273653 -0.240233 0 0 0 1</float_array>
        <technique_common>
          <accessor source="#Motion_31_LShoulder_transform_pose_array_id" count="17" stride="16">
            <param name="TRANSFORM" type="float4x4" />
          </accessor>
        </technique_common>
      </source>
      <sampler id="Motion_31_LShoulder_transform_samp_id">
        <input semantic="INPUT" source="#Motion_31_LShoulder_transform_frame_id" />
        <input semantic="INTERPOLATION" source="#Motion_31_LShoulder_transform_interp_id" />
        <input semantic="OUTPUT" source="#Motion_31_LShoulder_transform_pose_id" />
      </sampler>
      <channel source="#Motion_31_LShoulder_transform_samp_id" target="LShoulder_bone_id/transform" />
    </animation>
    <animation id="Motion_31_LArm_transform_id" name="Motion_31_LArm_transform">
      <source id="Motion_31_LArm_transform_frame_id" name="Motion_31_LArm_transform_frame">
        <float_array id="Motion_31_LArm_transform_frame_array_id" count="17">0 0.033333335 0.06666667 0.1 0.13333334 0.16666667 0.2 0.23333333 0.26666668 0.3 0.33333334 0.36666667 0.4 0.43333334 0.46666667 0.5 0.53333336</float_array>
        <technique_common>
          <accessor source="#Motion_31_LArm_transform_frame_array_id" count="17" stride="1">
            <param name="TIME" type="float" />
          </accessor>
        </technique_common>
      </source>
      <source id="Motion_31_LArm_transform_interp_id" name="Motion_31_LArm_transform_interp">
        <Name_array id="Motion_31_LArm_transform_interp_array_id" count="17">LINEAR LINEAR LINEAR LINEAR LINEAR LINEAR LINEAR LINEAR LINEAR LINEAR LINEAR LINEAR LINEAR LINEAR LINEAR LINEAR LINEAR</Name_array>
        <technique_common>
          <accessor source="#Motion_31_LArm_transform_interp_array_id" count="17" stride="1">
            <param name="INTERPOLATION" type="Name" />
          </accessor>
        </technique_common>
      </source>
      <source id="Motion_31_LArm_transform_pose_id" name="Motion_31_LArm_transform_pose">
        <float_array id="Motion_31_LArm_transform_pose_array_id" count="272">0.7567572 0.03738887 -0.652626 12.61957 -0.20419756 0.9619248 -0.18167022 0 0.6209846 0.27074486 0.73557824 0 0 0 0 1 0.7464093 0.09918437 -0.6580544 12.61957 -0.2565435 0.955288 -0.14700426 0 0.6140509 0.2785449 0.738481 0 0 0 0 1 0.73371845 0.14929974 -0.6628475 12.61957 -0.2521731 0.96571845 -0.06161681 0 0.6309247 0.2123617 0.7462148 0 0 0 0 1 0.6958198 0.20442107 -0.6885106 12.61957 -0.29155865 0.9564935 -0.010667749 0 0.6563752 0.20816404 0.72514784 0 0 0 0 1 0.65788794 0.2806294 -0.6988781 12.61957 -0.42146677 0.9062487 -0.03284964 0 0.6241388 0.31616527 0.714486 0 0 0 0 1 0.64504826 0.31504065 -0.69617677 12.61957 -0.5586853 0.8159967 -0.1483917 0 0.52132857 0.48466358 0.7023658 0 0 0 0 1 0.6492083 0.25189614 -0.71768856 12.61957 -0.61955667 0.72248644 -0.3068598 0 0.44122347 0.64386463 0.6251081 0 0 0 0 1 0.6365869 0.25320137 -0.7284547 12.61957 -0.6745655 0.64062834 -0.3668198 0 0.37378943 0.72490305 0.5786165 0 0 0 0 1 0.52591157 0.53681576 -0.65973157 12.61957 -0.8228129 0.5175422 -0.23479554 0 0.21539694 0.66631734 0.7138804 0 0 0 0 1 0.60138404 0.5327431 -0.59541756 12.61957 -0.7603487 0.6104946 -0.2217347 0 0.2453716 0.5860726 0.7722122 0 0 0 0 1 0.7810965 0.2353844 -0.5783445 12.61957 -0.48515123 0.8118685 -0.32480422 0 0.39308587 0.53428805 0.7483447 0 0 0 0 1 0.80896866 0.15466043 -0.5671418 12.61957 -0.3143148 0.92908055 -0.19497569 0 0.49676538 0.3359903 0.80020916 0 0 0 0 1 0.798563 0.14251782 -0.58479553 12.61957 -0.20201968 0.97866863 -0.03735959 0 0.56699663 0.14797418 0.81031996 0 0 0 0 1 0.82526416 0.15194257 -0.54392326 12.61957 -0.20395179 0.978313 -0.03615713 0 0.5266334 0.14077331 0.8383556 0 0 0 0 1 0.81447697 0.1151181 -0.5686608 12.61957 -0.23196436 0.96298677 -0.13729173 0 0.5318081 0.24373001 0.81103384 0 0 0 0 1 0.76831657 0.032977767 -0.6392199 12.61957 -0.21069461 0.9560455 -0.20392343 0 0.60439837 0.29135793 0.7414938 0 0 0 0 1 0.76831657 0.032977767 -0.6392199 12.61957 -0.21069461 0.9560455 -0.20392343 0 0.60439837 0.29135793 0.7414938 0 0 0 0 1</float_array>
        <technique_common>
          <accessor source="#Motion_31_LArm_transform_pose_array_id" count="17" stride="16">
            <param name="TRANSFORM" type="float4x4" />
          </accessor>
        </technique_common>
      </source>
      <sampler id="Motion_31_LArm_transform_samp_id">
        <input semantic="INPUT" source="#Motion_31_LArm_transform_frame_id" />
        <input semantic="INTERPOLATION" source="#Motion_31_LArm_transform_interp_id" />
        <input semantic="OUTPUT" source="#Motion_31_LArm_transform_pose_id" />
      </sampler>
      <channel source="#Motion_31_LArm_transform_samp_id" target="LArm_bone_id/transform" />
    </animation>
    <animation id="Motion_31_LForeArm_transform_id" name="Motion_31_LForeArm_transform">
      <source id="Motion_31_LForeArm_transform_frame_id" name="Motion_31_LForeArm_transform_frame">
        <float_array id="Motion_31_LForeArm_transform_frame_array_id" count="17">0 0.033333335 0.06666667 0.1 0.13333334 0.16666667 0.2 0.23333333 0.26666668 0.3 0.33333334 0.36666667 0.4 0.43333334 0.46666667 0.5 0.53333336</float_array>
        <technique_common>
          <accessor source="#Motion_31_LForeArm_transform_frame_array_id" count="17" stride="1">
            <param name="TIME" type="float" />
          </accessor>
        </technique_common>
      </source>
      <source id="Motion_31_LForeArm_transform_interp_id" name="Motion_31_LForeArm_transform_interp">
        <Name_array id="Motion_31_LForeArm_transform_interp_array_id" count="17">LINEAR LINEAR LINEAR LINEAR LINEAR LINEAR LINEAR LINEAR LINEAR LINEAR LINEAR LINEAR LINEAR LINEAR LINEAR LINEAR LINEAR</Name_array>
        <technique_common>
          <accessor source="#Motion_31_LForeArm_transform_interp_array_id" count="17" stride="1">
            <param name="INTERPOLATION" type="Name" />
          </accessor>
        </technique_common>
      </source>
      <source id="Motion_31_LForeArm_transform_pose_id" name="Motion_31_LForeArm_transform_pose">
        <float_array id="Motion_31_LForeArm_transform_pose_array_id" count="272">0.64254 -0.0009509517 -0.76625156 22.6 0.00082683284 0.9999995 -0.0005477028 0 0.7662517 -0.00028164097 0.64254045 0 0 0 0 1 0.6446897 -0.00093005685 -0.7644439 22.6 0.00080628606 0.9999995 -0.0005366674 0 0.764444 -0.00027037648 0.64469016 0 0 0 0 1 0.6738578 -0.0010234152 -0.73886037 22.6 0.000904503 0.99999946 -0.0005601983 0 0.7388605 -0.00029080737 0.6738584 0 0 0 0 1 0.70363295 -0.0011927407 -0.7105626 22.6 0.0010790677 0.9999992 -0.00061004073 0 0.7105628 -0.00033750047 0.70363367 0 0 0 0 1 0.65579414 -0.0013720307 -0.7549385 22.6 0.0012500798 0.9999989 -0.0007314957 0 0.7549387 -0.00046402277 0.6557952 0 0 0 0 1 0.5254301 -0.0015033154 -0.85083544 22.6 0.0013619472 0.9999986 -0.00092580216 0 0.8508357 -0.00067234854 0.52543145 0 0 0 0 1 0.3678013 -0.0015656773 -0.9299031 22.6 0.0014052007 0.9999984 -0.0011279028 0 0.9299033 -0.00089185627 0.36780292 0 0 0 0 1 0.25498933 -0.0015808184 -0.96694267 22.6 0.0014088181 0.9999982 -0.001263345 0 0.9669429 -0.0010401065 0.2549911 0 0 0 0 1 0.3345577 -0.0016464485 -0.9423739 22.6 0.0014824107 0.99999815 -0.0012208461 0 0.9423741 -0.0009885416 0.33455956 0 0 0 0 1 0.45003754 -0.0016155031 -0.8930082 22.6 0.0014644996 0.99999833 -0.0010710099 0 0.8930084 -0.0008258156 0.45003915 0 0 0 0 1 0.52716994 -0.0013915026 -0.84975874 22.6 0.0012503688 0.99999887 -0.0008618259 0 0.849759 -0.000608183 0.52717113 0 0 0 0 1 0.7036457 -0.0011589364 -0.7105501 22.6 0.0010452657 0.9999993 -0.00059593096 0 0.71055025 -0.00032338937 0.7036464 0 0 0 0 1 0.7485709 -0.0009789994 -0.663054 22.6 0.0008738612 0.9999995 -0.0004899327 0 0.6630541 -0.00021266777 0.7485714 0 0 0 0 1 0.59451675 -0.00085124216 -0.80408275 22.6 0.0007196641 0.9999996 -0.00052654964 0 0.8040829 -0.00026562694 0.5945171 0 0 0 0 1 0.5598186 -0.0008297165 -0.8286148 22.6 0.0006930945 0.99999964 -0.0005330692 0 0.8286149 -0.0002758862 0.559819 0 0 0 0 1 0.6465056 -0.0008883665 -0.7629087 22.6 0.0007648909 0.9999996 -0.00051626074 0 0.7629088 -0.00024977644 0.6465061 0 0 0 0 1 0.6465056 -0.0008883665 -0.7629087 22.6 0.0007648909 0.9999996 -0.00051626074 0 0.7629088 -0.00024977644 0.6465061 0 0 0 0 1</float_array>
        <technique_common>
          <accessor source="#Motion_31_LForeArm_transform_pose_array_id" count="17" stride="16">
            <param name="TRANSFORM" type="float4x4" />
          </accessor>
        </technique_common>
      </source>
      <sampler id="Motion_31_LForeArm_transform_samp_id">
        <input semantic="INPUT" source="#Motion_31_LForeArm_transform_frame_id" />
        <input semantic="INTERPOLATION" source="#Motion_31_LForeArm_transform_interp_id" />
        <input semantic="OUTPUT" source="#Motion_31_LForeArm_transform_pose_id" />
      </sampler>
      <channel source="#Motion_31_LForeArm_transform_samp_id" target="LForeArm_bone_id/transform" />
    </animation>
    <animation id="Motion_31_LHand_transform_id" name="Motion_31_LHand_transform">
      <source id="Motion_31_LHand_transform_frame_id" name="Motion_31_LHand_transform_frame">
        <float_array id="Motion_31_LHand_transform_frame_array_id" count="17">0 0.033333335 0.06666667 0.1 0.13333334 0.16666667 0.2 0.23333333 0.26666668 0.3 0.33333334 0.36666667 0.4 0.43333334 0.46666667 0.5 0.53333336</float_array>
        <technique_common>
          <accessor source="#Motion_31_LHand_transform_frame_array_id" count="17" stride="1">
            <param name="TIME" type="float" />
          </accessor>
        </technique_common>
      </source>
      <source id="Motion_31_LHand_transform_interp_id" name="Motion_31_LHand_transform_interp">
        <Name_array id="Motion_31_LHand_transform_interp_array_id" count="17">LINEAR LINEAR LINEAR LINEAR LINEAR LINEAR LINEAR LINEAR LINEAR LINEAR LINEAR LINEAR LINEAR LINEAR LINEAR LINEAR LINEAR</Name_array>
        <technique_common>
          <accessor source="#Motion_31_LHand_transform_interp_array_id" count="17" stride="1">
            <param name="INTERPOLATION" type="Name" />
          </accessor>
        </technique_common>
      </source>
      <source id="Motion_31_LHand_transform_pose_id" name="Motion_31_LHand_transform_pose">
        <float_array id="Motion_31_LHand_transform_pose_array_id" count="272">0.8684466 -0.26697025 0.41776472 22.600002 0.48547414 0.62885803 -0.6073322 0 -0.100575075 0.73024964 0.6757368 0 0 0 0 1 0.8823563 -0.2193408 0.41633755 22.600002 0.44876426 0.65847105 -0.6041743 0 -0.14162613 0.7199344 0.67943835 0 0 0 0 1 0.90923357 -0.16677058 0.38142082 22.600002 0.37302524 0.7331166 -0.56867576 0 -0.18478754 0.6593387 0.72878397 0 0 0 0 1 0.9152988 -0.15988955 0.3696802 22.600002 0.35472688 0.75474364 -0.55184317 0 -0.19077983 0.6362369 0.7475331 0 0 0 0 1 0.8729952 -0.21308634 0.4387181 22.600002 0.4499409 0.6990172 -0.555813 0 -0.18823537 0.6826193 0.70611495 0 0 0 0 1 0.76940197 -0.27812937 0.5750345 22.600002 0.6056974 0.60356134 -0.5185021 0 -0.20285794 0.7472334 0.6328435 0 0 0 0 1 0.6845499 -0.20720527 0.69889724 22.600002 0.6255517 0.6592213 -0.41726777 0 -0.37426782 0.722837 0.5808875 0 0 0 0 1 0.66441685 -0.039473116 0.746319 22.600002 0.5011223 0.76438487 -0.40569967 0 -0.5544607 0.6435508 0.5276511 0 0 0 0 1 0.7285721 0.0073222816 0.68492997 22.600002 0.61042595 0.446697 -0.65409625 0 -0.31074563 0.89465535 0.32098126 0 0 0 0 1 0.71877795 -0.20316488 0.6648927 22.600002 0.69317037 0.28315032 -0.66282785 0 -0.053601235 0.93731 0.34435004 0 0 0 0 1 0.7632854 -0.23492374 0.6018357 22.600002 0.5872121 0.6407137 -0.49463925 0 -0.2694019 0.73095614 0.6269975 0 0 0 0 1 0.91082096 -0.19085112 0.36603412 22.600002 0.36720148 0.77969134 -0.50719273 0 -0.18859532 0.5963701 0.78024006 0 0 0 0 1 0.96522325 -0.13012025 0.22674385 22.600002 0.2396031 0.7872383 -0.5681956 0 -0.10456768 0.6027641 0.7910379 0 0 0 0 1 0.94902295 -0.121648714 0.29078695 22.600002 0.28111732 0.74393606 -0.60624427 0 -0.1425781 0.657085 0.74020994 0 0 0 0 1 0.90630424 -0.20736629 0.3682552 22.600002 0.40336663 0.6844667 -0.60728955 0 -0.12612703 0.698931 0.70397973 0 0 0 0 1 0.8763617 -0.27795422 0.39335936 22.600002 0.47213346 0.65730953 -0.5873961 0 -0.09528963 0.7004896 0.7072724 0 0 0 0 1 0.8763617 -0.27795422 0.39335936 22.600002 0.47213346 0.65730953 -0.5873961 0 -0.09528963 0.7004896 0.7072724 0 0 0 0 1</float_array>
        <technique_common>
          <accessor source="#Motion_31_LHand_transform_pose_array_id" count="17" stride="16">
            <param name="TRANSFORM" type="float4x4" />
          </accessor>
        </technique_common>
      </source>
      <sampler id="Motion_31_LHand_transform_samp_id">
        <input semantic="INPUT" source="#Motion_31_LHand_transform_frame_id" />
        <input semantic="INTERPOLATION" source="#Motion_31_LHand_transform_interp_id" />
        <input semantic="OUTPUT" source="#Motion_31_LHand_transform_pose_id" />
      </sampler>
      <channel source="#Motion_31_LHand_transform_samp_id" target="LHand_bone_id/transform" />
    </animation>
    <animation id="Motion_31_Neck_transform_id" name="Motion_31_Neck_transform">
      <source id="Motion_31_Neck_transform_frame_id" name="Motion_31_Neck_transform_frame">
        <float_array id="Motion_31_Neck_transform_frame_array_id" count="17">0 0.033333335 0.06666667 0.1 0.13333334 0.16666667 0.2 0.23333333 0.26666668 0.3 0.33333334 0.36666667 0.4 0.43333334 0.46666667 0.5 0.53333336</float_array>
        <technique_common>
          <accessor source="#Motion_31_Neck_transform_frame_array_id" count="17" stride="1">
            <param name="TIME" type="float" />
          </accessor>
        </technique_common>
      </source>
      <source id="Motion_31_Neck_transform_interp_id" name="Motion_31_Neck_transform_interp">
        <Name_array id="Motion_31_Neck_transform_interp_array_id" count="17">LINEAR LINEAR LINEAR LINEAR LINEAR LINEAR LINEAR LINEAR LINEAR LINEAR LINEAR LINEAR LINEAR LINEAR LINEAR LINEAR LINEAR</Name_array>
        <technique_common>
          <accessor source="#Motion_31_Neck_transform_interp_array_id" count="17" stride="1">
            <param name="INTERPOLATION" type="Name" />
          </accessor>
        </technique_common>
      </source>
      <source id="Motion_31_Neck_transform_pose_id" name="Motion_31_Neck_transform_pose">
        <float_array id="Motion_31_Neck_transform_pose_array_id" count="272">0.9401424 0.16561347 -0.29783303 16.800177 -0.16251191 0.98607385 0.035331078 0 0.29953665 0.015185172 0.95396394 0 0 0 0 1 0.93804437 0.16568372 -0.30433816 16.800177 -0.16220438 0.9860682 0.036868677 0 0.3062067 0.014780522 0.9518503 0 0 0 0 1 0.93305594 0.16573325 -0.31927904 16.800177 -0.16159117 0.98606217 0.03961956 0 0.32139525 0.014625405 0.9468322 0 0 0 0 1 0.9266296 0.16575412 -0.3374657 16.800177 -0.16084383 0.986057 0.04267206 0 0.3398335 0.014738086 0.94037014 0 0 0 0 1 0.9212599 0.16575257 -0.35186118 16.800177 -0.16023801 0.9860539 0.044961266 0 0.35440654 0.014960524 0.93497175 0 0 0 0 1 0.9198364 0.16573155 -0.3555757 16.800177 -0.1600981 0.9860548 0.045437068 0 0.35814747 0.015132329 0.9335424 0 0 0 0 1 0.92437834 0.16567533 -0.3436224 16.800177 -0.16066875 0.98606217 0.043208662 0 0.3459916 0.015268226 0.93811333 0 0 0 0 1 0.9369915 0.16563398 -0.3075911 16.800177 -0.16213569 0.98607135 0.0370854 0 0.3094494 0.015122799 0.95079565 0 0 0 0 1 0.953556 0.16561083 -0.25160286 16.800177 -0.16402622 0.9860751 0.02741041 0 0.2526388 0.015132103 0.96744233 0 0 0 0 1 0.96873814 0.16571254 -0.18462332 16.800177 -0.16563013 0.9860585 0.015978605 0 0.18469726 0.015100103 0.9826794 0 0 0 0 1 0.97878593 0.16592872 -0.12019029 16.800177 -0.16653794 0.98602223 0.0050287913 0 0.119344726 0.015094131 0.9927381 0 0 0 0 1 0.98343515 0.16616082 -0.07242839 16.800177 -0.16682276 0.9859819 -0.0031453003 0 0.07089046 0.015175903 0.99736863 0 0 0 0 1 0.9847256 0.16628605 -0.05161852 16.800177 -0.16683999 0.98596203 -0.0065841204 0 0.04979905 0.015095584 0.9986452 0 0 0 0 1 0.9835451 0.1661699 -0.07089794 16.800177 -0.16682588 0.9859805 -0.0033919457 0 0.06934035 0.015163742 0.9974778 0 0 0 0 1 0.9718702 0.16580017 -0.16726828 16.800177 -0.16589345 0.9860511 0.013514479 0 0.16717577 0.014614395 0.9858188 0 0 0 0 1 0.94616526 0.16561662 -0.27810508 16.800177 -0.16318797 0.9860749 0.032029636 0 0.27953708 0.0150780715 0.9600165 0 0 0 0 1 0.94616526 0.16561662 -0.27810508 16.800177 -0.16318797 0.9860749 0.032029636 0 0.27953708 0.0150780715 0.9600165 0 0 0 0 1</float_array>
        <technique_common>
          <accessor source="#Motion_31_Neck_transform_pose_array_id" count="17" stride="16">
            <param name="TRANSFORM" type="float4x4" />
          </accessor>
        </technique_common>
      </source>
      <sampler id="Motion_31_Neck_transform_samp_id">
        <input semantic="INPUT" source="#Motion_31_Neck_transform_frame_id" />
        <input semantic="INTERPOLATION" source="#Motion_31_Neck_transform_interp_id" />
        <input semantic="OUTPUT" source="#Motion_31_Neck_transform_pose_id" />
      </sampler>
      <channel source="#Motion_31_Neck_transform_samp_id" target="Neck_bone_id/transform" />
    </animation>
    <animation id="Motion_31_Head_transform_id" name="Motion_31_Head_transform">
      <source id="Motion_31_Head_transform_frame_id" name="Motion_31_Head_transform_frame">
        <float_array id="Motion_31_Head_transform_frame_array_id" count="17">0 0.033333335 0.06666667 0.1 0.13333334 0.16666667 0.2 0.23333333 0.26666668 0.3 0.33333334 0.36666667 0.4 0.43333334 0.46666667 0.5 0.53333336</float_array>
        <technique_common>
          <accessor source="#Motion_31_Head_transform_frame_array_id" count="17" stride="1">
            <param name="TIME" type="float" />
          </accessor>
        </technique_common>
      </source>
      <source id="Motion_31_Head_transform_interp_id" name="Motion_31_Head_transform_interp">
        <Name_array id="Motion_31_Head_transform_interp_array_id" count="17">LINEAR LINEAR LINEAR LINEAR LINEAR LINEAR LINEAR LINEAR LINEAR LINEAR LINEAR LINEAR LINEAR LINEAR LINEAR LINEAR LINEAR</Name_array>
        <technique_common>
          <accessor source="#Motion_31_Head_transform_interp_array_id" count="17" stride="1">
            <param name="INTERPOLATION" type="Name" />
          </accessor>
        </technique_common>
      </source>
      <source id="Motion_31_Head_transform_pose_id" name="Motion_31_Head_transform_pose">
        <float_array id="Motion_31_Head_transform_pose_array_id" count="272">0.92188704 -0.088829905 0.3771387 5.120195 0.08752869 0.99594843 0.02062491 0 -0.3774428 0.013996616 0.9259271 0 0 0 0 1 0.8263968 -0.10776156 0.55268055 5.120195 0.100345135 0.9939896 0.04376666 0 -0.55407506 0.019290175 0.83224314 0 0 0 0 1 0.6949277 -0.14990029 0.70328194 5.120195 0.12761617 0.9882148 0.0845318 0 -0.7076649 0.031006645 0.7058675 0 0 0 0 1 0.70889103 -0.19653979 0.6773815 5.120195 0.17261514 0.9795299 0.10356245 0 -0.6838696 0.043511815 0.7283057 0 0 0 0 1 0.7528654 -0.22261395 0.61938417 5.120195 0.20509501 0.9735569 0.100613475 0 -0.62540364 0.051284194 0.7786143 0 0 0 0 1 0.81156117 -0.21175173 0.5445454 5.120195 0.20319867 0.97612566 0.076739505 0 -0.54779446 0.048372094 0.83521336 0 0 0 0 1 0.89391196 -0.16638249 0.41621903 5.120195 0.16600871 0.9854155 0.037381094 0 -0.41636828 0.03568058 0.90849566 0 0 0 0 1 0.95270514 -0.10047952 0.28680447 5.120195 0.10122176 0.9947881 0.01227784 0 -0.28654334 0.01733369 0.9579105 0 0 0 0 1 0.96428275 -0.0297201 0.2632024 5.120195 0.027982203 0.9995548 0.010349876 0 -0.26339284 -0.0026152243 0.96468514 0 0 0 0 1 0.95694673 0.03259522 0.28842762 5.120195 -0.036787603 0.99928147 0.009125251 0 -0.28792295 -0.019342938 0.9574582 0 0 0 0 1 0.9430752 0.06863766 0.32541993 5.120195 -0.07467479 0.9971894 0.006081961 0 -0.32408783 -0.030036412 0.94555 0 0 0 0 1 0.92995435 0.067365326 0.36145097 5.120195 -0.0738144 0.9972638 0.0040476387 0 -0.36018932 -0.030444406 0.93238235 0 0 0 0 1 0.92224026 0.03688912 0.38485342 5.120195 -0.04252225 0.99907666 0.0061339457 0 -0.3842718 -0.022021806 0.9229573 0 0 0 0 1 0.92059773 -0.009814672 0.3903889 5.120195 0.0057637617 0.99991673 0.011546817 0 -0.39046973 -0.008379865 0.92057765 0 0 0 0 1 0.92129904 -0.054538704 0.38501114 5.120195 0.052021652 0.99850196 0.016959261 0 -0.3853593 0.004404363 0.9227561 0 0 0 0 1 0.9217922 -0.08448404 0.37836695 5.120195 0.082850814 0.9963485 0.020626301 0 -0.3787279 0.012334848 0.9254258 0 0 0 0 1 0.9217922 -0.08448404 0.37836695 5.120195 0.082850814 0.9963485 0.020626301 0 -0.3787279 0.012334848 0.9254258 0 0 0 0 1</float_array>
        <technique_common>
          <accessor source="#Motion_31_Head_transform_pose_array_id" count="17" stride="16">
            <param name="TRANSFORM" type="float4x4" />
          </accessor>
        </technique_common>
      </source>
      <sampler id="Motion_31_Head_transform_samp_id">
        <input semantic="INPUT" source="#Motion_31_Head_transform_frame_id" />
        <input semantic="INTERPOLATION" source="#Motion_31_Head_transform_interp_id" />
        <input semantic="OUTPUT" source="#Motion_31_Head_transform_pose_id" />
      </sampler>
      <channel source="#Motion_31_Head_transform_samp_id" target="Head_bone_id/transform" />
    </animation>
    <animation id="Motion_31_Loc_Eye_transform_id" name="Motion_31_Loc_Eye_transform">
      <source id="Motion_31_Loc_Eye_transform_frame_id" name="Motion_31_Loc_Eye_transform_frame">
        <float_array id="Motion_31_Loc_Eye_transform_frame_array_id" count="17">0 0.033333335 0.06666667 0.1 0.13333334 0.16666667 0.2 0.23333333 0.26666668 0.3 0.33333334 0.36666667 0.4 0.43333334 0.46666667 0.5 0.53333336</float_array>
        <technique_common>
          <accessor source="#Motion_31_Loc_Eye_transform_frame_array_id" count="17" stride="1">
            <param name="TIME" type="float" />
          </accessor>
        </technique_common>
      </source>
      <source id="Motion_31_Loc_Eye_transform_interp_id" name="Motion_31_Loc_Eye_transform_interp">
        <Name_array id="Motion_31_Loc_Eye_transform_interp_array_id" count="17">LINEAR LINEAR LINEAR LINEAR LINEAR LINEAR LINEAR LINEAR LINEAR LINEAR LINEAR LINEAR LINEAR LINEAR LINEAR LINEAR LINEAR</Name_array>
        <technique_common>
          <accessor source="#Motion_31_Loc_Eye_transform_interp_array_id" count="17" stride="1">
            <param name="INTERPOLATION" type="Name" />
          </accessor>
        </technique_common>
      </source>
      <source id="Motion_31_Loc_Eye_transform_pose_id" name="Motion_31_Loc_Eye_transform_pose">
        <float_array id="Motion_31_Loc_Eye_transform_pose_array_id" count="272">7.1525574E-06 50 0 8.002282 -20 1.7881393E-05 0 0 0 0 400 13.722511 0 0 0 1 7.154193E-06 50.00457 0 8.002282 -20.004574 1.7883027E-05 0 0 0 0 400.00458 13.722511 0 0 0 1 7.1562436E-06 50.010307 0 8.002282 -20.010307 1.7885079E-05 0 0 0 0 400.01035 13.722511 0 0 0 1 7.158638E-06 50.017002 0 8.002282 -20.017002 1.7887474E-05 0 0 0 0 400.017 13.722511 0 0 0 1 7.1613035E-06 50.024456 0 8.002282 -20.024456 1.789014E-05 0 0 0 0 400.02448 13.722511 0 0 0 1 7.16417E-06 50.03247 0 8.002282 -20.03247 1.7893006E-05 0 0 0 0 400.0325 13.722511 0 0 0 1 7.167163E-06 50.04084 0 8.002282 -20.04084 1.7896E-05 0 0 0 0 400.04086 13.722511 0 0 0 1 7.1702125E-06 50.049366 0 8.002282 -20.049368 1.7899049E-05 0 0 0 0 400.0494 13.722511 0 0 0 1 7.173246E-06 50.05785 0 8.002282 -20.05785 1.7902083E-05 0 0 0 0 400.05786 13.722511 0 0 0 1 7.1761924E-06 50.06609 0 8.002282 -20.066088 1.790503E-05 0 0 0 0 400.0661 13.722511 0 0 0 1 7.1789786E-06 50.07388 0 8.002282 -20.07388 1.7907814E-05 0 0 0 0 400.07388 13.722511 0 0 0 1 7.181534E-06 50.08102 0 8.002282 -20.081024 1.7910368E-05 0 0 0 0 400.08105 13.722511 0 0 0 1 7.183785E-06 50.08732 0 8.002282 -20.087318 1.7912622E-05 0 0 0 0 400.08734 13.722511 0 0 0 1 7.185662E-06 50.092564 0 8.002282 -20.092567 1.7914497E-05 0 0 0 0 400.0926 13.722511 0 0 0 1 7.1870904E-06 50.09656 0 8.002282 -20.096561 1.7915927E-05 0 0 0 0 400.09656 13.722511 0 0 0 1 7.1880013E-06 50.099106 0 8.002282 -20.099108 1.7916836E-05 0 0 0 0 400.09912 13.722511 0 0 0 1 7.1880013E-06 50.099106 0 8.002282 -20.099108 1.7916836E-05 0 0 0 0 400.09912 13.722511 0 0 0 1</float_array>
        <technique_common>
          <accessor source="#Motion_31_Loc_Eye_transform_pose_array_id" count="17" stride="16">
            <param name="TRANSFORM" type="float4x4" />
          </accessor>
        </technique_common>
      </source>
      <sampler id="Motion_31_Loc_Eye_transform_samp_id">
        <input semantic="INPUT" source="#Motion_31_Loc_Eye_transform_frame_id" />
        <input semantic="INTERPOLATION" source="#Motion_31_Loc_Eye_transform_interp_id" />
        <input semantic="OUTPUT" source="#Motion_31_Loc_Eye_transform_pose_id" />
      </sampler>
      <channel source="#Motion_31_Loc_Eye_transform_samp_id" target="Loc_Eye_bone_id/transform" />
    </animation>
  </library_animations>
  <library_visual_scenes>
    <visual_scene id="tr0092_00_fi_00_clip_id" name="tr0092_00_fi_00_clip">
      <node id="tr0092_00_fi_bone_id" name="tr0092_00_fi" sid="tr0092_00_fi" type="JOINT">
        <matrix sid="transform">1 0 0 0 0 1 0 0 0 0 1 0 0 0 0 1</matrix>
        <node id="Origin_bone_id" name="Origin" sid="Origin" type="JOINT">
          <matrix sid="transform">1 0 0 0 0 1 0 0 0 0 1 0 0 0 0 1</matrix>
          <node id="Waist_bone_id" name="Waist" sid="Waist" type="JOINT">
            <matrix sid="transform">3.1391647E-07 -1 0 0 1 3.1391647E-07 0 90.6 0 0 1 0 0 0 0 1</matrix>
            <node id="Spine2_bone_id" name="Spine2" sid="Spine2" type="JOINT">
              <matrix sid="transform">1 0 0 13.5 0 1 0 0 0 0 1 0 0 0 0 1</matrix>
              <node id="Spine3_bone_id" name="Spine3" sid="Spine3" type="JOINT">
                <matrix sid="transform">0.99582267 0 0.091308646 13.5 0 1 0 0 -0.091308646 0 0.99582267 0 0 0 0 1</matrix>
                <node id="Neck_bone_id" name="Neck" sid="Neck" type="JOINT">
                  <matrix sid="transform">0.9344343 0 -0.35613555 16.800177 0 1 0 0 0.35613555 0 0.9344343 0 0 0 0 1</matrix>
                  <node id="Head_bone_id" name="Head" sid="Head" type="JOINT">
                    <matrix sid="transform">0.9630491 0 0.2693259 5.120195 0 1 0 0 -0.2693259 0 0.9630491 0 0 0 0 1</matrix>
                    <node id="Loc_Head_bone_id" name="Loc_Head" sid="Loc_Head" type="JOINT">
                      <matrix sid="transform">3.1391647E-07 1 0 33.790222 -1 3.1391647E-07 0 0 0 0 1 0 0 0 0 1</matrix>
                    </node>
                    <node id="Loc_Eye_bone_id" name="Loc_Eye" sid="Loc_Eye" type="JOINT">
                      <matrix sid="transform">3.1391647E-07 1 0 8.002282 -1 3.1391647E-07 0 0 0 0 1 13.722511 0 0 0 1</matrix>
                    </node>
                    <node id="Loc_Mouth_bone_id" name="Loc_Mouth" sid="Loc_Mouth" type="JOINT">
                      <matrix sid="transform">3.1391647E-07 1 0 0.400917 -1 3.1391647E-07 0 0 0 0 1 12.012478 0 0 0 1</matrix>
                    </node>
                  </node>
                </node>
                <node id="LShoulder_bone_id" name="LShoulder" sid="LShoulder" type="JOINT">
                  <matrix sid="transform">-0.44190192 0.8924043 -0.09130862 14.18017 -0.89614785 -0.44375566 -2.0772681E-07 -4.5 -0.040518906 0.08182593 0.9958226 -0.240233 0 0 0 1</matrix>
                  <node id="LArm_bone_id" name="LArm" sid="LArm" type="JOINT">
                    <matrix sid="transform">0.8961479 -0.44375545 0 12.61957 0.44375545 0.8961479 0 0 0 0 1 0 0 0 0 1</matrix>
                    <node id="LForeArm_bone_id" name="LForeArm" sid="LForeArm" type="JOINT">
                      <matrix sid="transform">1 0 0 22.6 0 1 0 0 0 0 1 0 0 0 0 1</matrix>
                      <node id="LHand_bone_id" name="LHand" sid="LHand" type="JOINT">
                        <matrix sid="transform">1 0 0 22.600002 0 1 0 0 0 0 1 0 0 0 0 1</matrix>
                      </node>
                    </node>
                  </node>
                </node>
                <node id="RShoulder_bone_id" name="RShoulder" sid="RShoulder" type="JOINT">
                  <matrix sid="transform">-0.44190192 -0.8924043 -0.09130862 14.18017 0.89614785 -0.44375566 2.0772681E-07 4.5 -0.040518906 -0.08182593 0.9958226 -0.240233 0 0 0 1</matrix>
                  <node id="RArm_bone_id" name="RArm" sid="RArm" type="JOINT">
                    <matrix sid="transform">0.8961479 0.44375545 0 12.61957 -0.44375545 0.8961479 0 0 0 0 1 0 0 0 0 1</matrix>
                    <node id="RForeArm_bone_id" name="RForeArm" sid="RForeArm" type="JOINT">
                      <matrix sid="transform">1 0 0 22.6 0 1 0 0 0 0 1 0 0 0 0 1</matrix>
                      <node id="RHand_bone_id" name="RHand" sid="RHand" type="JOINT">
                        <matrix sid="transform">1 0 0 22.600002 0 1 0 0 0 0 1 0 0 0 0 1</matrix>
                      </node>
                    </node>
                  </node>
                </node>
              </node>
            </node>
            <node id="Hips_bone_id" name="Hips" sid="Hips" type="JOINT">
              <matrix sid="transform">-1 -3.2584137E-07 0 -0.010002 3.2584137E-07 -1 0 0 0 0 1 0 0 0 0 1</matrix>
              <node id="LThigh_bone_id" name="LThigh" sid="LThigh" type="JOINT">
                <matrix sid="transform">1 0 0 11.300003 0 1 0 7.8 0 0 1 0 0 0 0 1</matrix>
                <node id="LLeg_bone_id" name="LLeg" sid="LLeg" type="JOINT">
                  <matrix sid="transform">1 0 0 34.299995 0 1 0 0 0 0 1 0 0 0 0 1</matrix>
                  <node id="LFoot_bone_id" name="LFoot" sid="LFoot" type="JOINT">
                    <matrix sid="transform">3.1391647E-07 0 -1 34.3 0 1 0 0 1 0 3.1391647E-07 0 0 0 0 1</matrix>
                  </node>
                </node>
              </node>
              <node id="RThigh_bone_id" name="RThigh" sid="RThigh" type="JOINT">
                <matrix sid="transform">1 0 0 11.299995 0 1 0 -7.8 0 0 1 0 0 0 0 1</matrix>
                <node id="RLeg_bone_id" name="RLeg" sid="RLeg" type="JOINT">
                  <matrix sid="transform">1 0 0 34.3 0 1 0 0 0 0 1 0 0 0 0 1</matrix>
                  <node id="RFoot_bone_id" name="RFoot" sid="RFoot" type="JOINT">
                    <matrix sid="transform">3.1391647E-07 0 -1 34.3 0 1 0 0 1 0 3.1391647E-07 0 0 0 0 1</matrix>
                  </node>
                </node>
              </node>
            </node>
          </node>
          <node id="CamTgtHead_bone_id" name="CamTgtHead" sid="CamTgtHead" type="JOINT">
            <matrix sid="transform">1 0 0 0 0 1 0 147.26328 0 0 1 -0.155 0 0 0 1</matrix>
          </node>
          <node id="CamTgtBust_bone_id" name="CamTgtBust" sid="CamTgtBust" type="JOINT">
            <matrix sid="transform">1 0 0 0 0 1 0 117.6 0 0 1 0 0 0 0 1</matrix>
          </node>
          <node id="CamTgtBody_bone_id" name="CamTgtBody" sid="CamTgtBody" type="JOINT">
            <matrix sid="transform">1 0 0 0 0 1 0 90.6 0 0 1 0 0 0 0 1</matrix>
          </node>
          <node id="CamTgtFoot_bone_id" name="CamTgtFoot" sid="CamTgtFoot" type="JOINT">
            <matrix sid="transform">1 0 0 0 0 1 0 0 0 0 1 0 0 0 0 1</matrix>
          </node>
        </node>
        <node id="tr0092_00_fi_HeadSkin_bone_id" name="tr0092_00_fi_HeadSkin" sid="tr0092_00_fi_HeadSkin" type="JOINT">
          <matrix sid="transform">1 0 0 0 0 1 0 0 0 0 1 0 0 0 0 1</matrix>
        </node>
        <node id="tr0092_00_fi_FaceSkin_bone_id" name="tr0092_00_fi_FaceSkin" sid="tr0092_00_fi_FaceSkin" type="JOINT">
          <matrix sid="transform">1 0 0 0 0 1 0 0 0 0 1 0 0 0 0 1</matrix>
        </node>
        <node id="tr0092_00_fi_BodySkin_bone_id" name="tr0092_00_fi_BodySkin" sid="tr0092_00_fi_BodySkin" type="JOINT">
          <matrix sid="transform">1 0 0 0 0 1 0 0 0 0 1 0 0 0 0 1</matrix>
        </node>
        <node id="tr0092_00_fi_BottomSkin_bone_id" name="tr0092_00_fi_BottomSkin" sid="tr0092_00_fi_BottomSkin" type="JOINT">
          <matrix sid="transform">1 0 0 0 0 1 0 0 0 0 1 0 0 0 0 1</matrix>
        </node>
      </node>
    </visual_scene>
  </library_visual_scenes>
  <scene>
    <instance_visual_scene url="#tr0092_00_fi_00_clip_id" />
  </scene>
</COLLADA>