<?xml version="1.0" encoding="utf-8"?>
<COLLADA xmlns:xsi="http://www.w3.org/2001/XMLSchema-instance" xmlns:xsd="http://www.w3.org/2001/XMLSchema" version="1.4.1" xmlns="http://www.collada.org/2005/11/COLLADASchema">
  <asset>
    <created>2026-02-17T05:46:47.2671089-05:00</created>
    <modified>2026-02-17T05:46:47.2671091-05:00</modified>
    <up_axis>Y_UP</up_axis>
  </asset>
  <library_animations>
    <animation id="Motion_9_Waist_transform_id" name="Motion_9_Waist_transform">
      <source id="Motion_9_Waist_transform_frame_id" name="Motion_9_Waist_transform_frame">
        <float_array id="Motion_9_Waist_transform_frame_array_id" count="16">0 0.033333335 0.06666667 0.1 0.13333334 0.16666667 0.2 0.23333333 0.26666668 0.3 0.33333334 0.36666667 0.4 0.43333334 0.46666667 0.5</float_array>
        <technique_common>
          <accessor source="#Motion_9_Waist_transform_frame_array_id" count="16" stride="1">
            <param name="TIME" type="float" />
          </accessor>
        </technique_common>
      </source>
      <source id="Motion_9_Waist_transform_interp_id" name="Motion_9_Waist_transform_interp">
        <Name_array id="Motion_9_Waist_transform_interp_array_id" count="16">LINEAR LINEAR LINEAR LINEAR LINEAR LINEAR LINEAR LINEAR LINEAR LINEAR LINEAR LINEAR LINEAR LINEAR LINEAR LINEAR</Name_array>
        <technique_common>
          <accessor source="#Motion_9_Waist_transform_interp_array_id" count="16" stride="1">
            <param name="INTERPOLATION" type="Name" />
          </accessor>
        </technique_common>
      </source>
      <source id="Motion_9_Waist_transform_pose_id" name="Motion_9_Waist_transform_pose">
        <float_array id="Motion_9_Waist_transform_pose_array_id" count="256">0.031210124 -0.99743384 0.064432025 -1.5034286 0.9994516 0.031856656 0.0090315975 85.522224 -0.011061009 0.06411481 0.99788123 0.85422206 0 0 0 1 0.029480875 -0.99749774 0.06425874 -1.4423611 0.9995447 0.029833257 0.0045308266 85.49626 -0.006436538 0.0640959 0.99792296 0.773954 0 0 0 1 0.027570903 -0.99756354 0.064085856 -1.2860439 0.9996188 0.027607858 -0.0003089048 85.46081 -0.0014611296 0.06406994 0.99794436 0.6847179 0 0 0 1 0.025564432 -0.9976275 0.06391935 -1.0573567 0.9996655 0.025262713 -0.0055241454 85.41624 0.00389627 0.0640392 0.99793977 0.5872093 0 0 0 1 0.023537636 -0.997687 0.06377007 -0.78758806 0.9996786 0.022888243 -0.010894973 85.362854 0.009410189 0.064006016 0.99790514 0.4821235 0 0 0 1 0.021561384 -0.9977396 0.06364713 -0.508026 0.99966115 0.02058649 -0.015933562 85.30613 0.01458727 0.063969105 0.99784523 0.37460205 0 0 0 1 0.019829392 -0.9977816 0.06355179 -0.24995907 0.9996218 0.018574297 -0.020279337 85.254326 0.019053916 0.063929886 0.99777246 0.27394783 0 0 0 1 0.018526912 -0.99781096 0.06348267 -0.044675265 0.99957657 0.017059982 -0.023572318 85.212036 0.022437707 0.06389251 0.9977045 0.1870982 0 0 0 1 0.017717242 -0.99782854 0.06343778 0.07653701 0.999546 0.016129792 -0.025448645 85.18383 0.024370147 0.063859865 0.9976613 0.120990545 0 0 0 1 0.017462373 -0.99783444 0.06341621 0.097783126 0.99954784 0.015868962 -0.025544189 85.17431 0.024482515 0.0638336 0.9976602 0.08256217 0 0 0 1 0.017656624 -0.9978308 0.063419685 0.071522355 0.9995844 0.01617074 -0.023866724 85.180824 0.022789408 0.06381473 0.9977015 0.07875048 0 0 0 1 0.018081844 -0.99782145 0.06344476 0.04340801 0.99963677 0.016773582 -0.021093315 85.195496 0.019983172 0.06380312 0.99776244 0.11002863 0 0 0 1 0.018632233 -0.99780893 0.063484095 0.013345231 0.9996867 0.017530799 -0.017863283 85.21501 0.016711218 0.06379704 0.99782294 0.16116264 0 0 0 1 0.019204378 -0.99779516 0.06352926 -0.016045546 0.9997228 0.01829815 -0.01481651 85.2361 0.013621375 0.06379619 0.99786997 0.21552917 0 0 0 1 0.01969701 -0.99778295 0.06357041 -0.042143866 0.99974144 0.018933296 -0.012593456 85.25545 0.011361938 0.063802026 0.9978979 0.25650486 0 0 0 1 0.01969701 -0.99778295 0.06357041 -0.042143866 0.99974144 0.018933296 -0.012593456 85.25545 0.011361938 0.063802026 0.9978979 0.25650486 0 0 0 1</float_array>
        <technique_common>
          <accessor source="#Motion_9_Waist_transform_pose_array_id" count="16" stride="16">
            <param name="TRANSFORM" type="float4x4" />
          </accessor>
        </technique_common>
      </source>
      <sampler id="Motion_9_Waist_transform_samp_id">
        <input semantic="INPUT" source="#Motion_9_Waist_transform_frame_id" />
        <input semantic="INTERPOLATION" source="#Motion_9_Waist_transform_interp_id" />
        <input semantic="OUTPUT" source="#Motion_9_Waist_transform_pose_id" />
      </sampler>
      <channel source="#Motion_9_Waist_transform_samp_id" target="Waist_bone_id/transform" />
    </animation>
    <animation id="Motion_9_Hips_transform_id" name="Motion_9_Hips_transform">
      <source id="Motion_9_Hips_transform_frame_id" name="Motion_9_Hips_transform_frame">
        <float_array id="Motion_9_Hips_transform_frame_array_id" count="16">0 0.033333335 0.06666667 0.1 0.13333334 0.16666667 0.2 0.23333333 0.26666668 0.3 0.33333334 0.36666667 0.4 0.43333334 0.46666667 0.5</float_array>
        <technique_common>
          <accessor source="#Motion_9_Hips_transform_frame_array_id" count="16" stride="1">
            <param name="TIME" type="float" />
          </accessor>
        </technique_common>
      </source>
      <source id="Motion_9_Hips_transform_interp_id" name="Motion_9_Hips_transform_interp">
        <Name_array id="Motion_9_Hips_transform_interp_array_id" count="16">LINEAR LINEAR LINEAR LINEAR LINEAR LINEAR LINEAR LINEAR LINEAR LINEAR LINEAR LINEAR LINEAR LINEAR LINEAR LINEAR</Name_array>
        <technique_common>
          <accessor source="#Motion_9_Hips_transform_interp_array_id" count="16" stride="1">
            <param name="INTERPOLATION" type="Name" />
          </accessor>
        </technique_common>
      </source>
      <source id="Motion_9_Hips_transform_pose_id" name="Motion_9_Hips_transform_pose">
        <float_array id="Motion_9_Hips_transform_pose_array_id" count="256">-1 -1.509958E-07 0 -0.010002 1.509958E-07 -1 0 0 0 0 1 0 0 0 0 1 -1 -1.509958E-07 0 -0.010002 1.509958E-07 -1 0 0 0 0 1 0 0 0 0 1 -1 -1.509958E-07 0 -0.010002 1.509958E-07 -1 0 0 0 0 1 0 0 0 0 1 -1 -1.509958E-07 0 -0.010002 1.509958E-07 -1 0 0 0 0 1 0 0 0 0 1 -1 -1.509958E-07 0 -0.010002 1.509958E-07 -1 0 0 0 0 1 0 0 0 0 1 -1 -1.509958E-07 0 -0.010002 1.509958E-07 -1 0 0 0 0 1 0 0 0 0 1 -1 -1.509958E-07 0 -0.010002 1.509958E-07 -1 0 0 0 0 1 0 0 0 0 1 -1 -1.509958E-07 0 -0.010002 1.509958E-07 -1 0 0 0 0 1 0 0 0 0 1 -1 -1.509958E-07 0 -0.010002 1.509958E-07 -1 0 0 0 0 1 0 0 0 0 1 -1 -1.509958E-07 0 -0.010002 1.509958E-07 -1 0 0 0 0 1 0 0 0 0 1 -1 -1.509958E-07 0 -0.010002 1.509958E-07 -1 0 0 0 0 1 0 0 0 0 1 -1 -1.509958E-07 0 -0.010002 1.509958E-07 -1 0 0 0 0 1 0 0 0 0 1 -1 -1.509958E-07 0 -0.010002 1.509958E-07 -1 0 0 0 0 1 0 0 0 0 1 -1 -1.509958E-07 0 -0.010002 1.509958E-07 -1 0 0 0 0 1 0 0 0 0 1 -1 -1.509958E-07 0 -0.010002 1.509958E-07 -1 0 0 0 0 1 0 0 0 0 1 -1 -1.509958E-07 0 -0.010002 1.509958E-07 -1 0 0 0 0 1 0 0 0 0 1</float_array>
        <technique_common>
          <accessor source="#Motion_9_Hips_transform_pose_array_id" count="16" stride="16">
            <param name="TRANSFORM" type="float4x4" />
          </accessor>
        </technique_common>
      </source>
      <sampler id="Motion_9_Hips_transform_samp_id">
        <input semantic="INPUT" source="#Motion_9_Hips_transform_frame_id" />
        <input semantic="INTERPOLATION" source="#Motion_9_Hips_transform_interp_id" />
        <input semantic="OUTPUT" source="#Motion_9_Hips_transform_pose_id" />
      </sampler>
      <channel source="#Motion_9_Hips_transform_samp_id" target="Hips_bone_id/transform" />
    </animation>
    <animation id="Motion_9_RThigh_transform_id" name="Motion_9_RThigh_transform">
      <source id="Motion_9_RThigh_transform_frame_id" name="Motion_9_RThigh_transform_frame">
        <float_array id="Motion_9_RThigh_transform_frame_array_id" count="16">0 0.033333335 0.06666667 0.1 0.13333334 0.16666667 0.2 0.23333333 0.26666668 0.3 0.33333334 0.36666667 0.4 0.43333334 0.46666667 0.5</float_array>
        <technique_common>
          <accessor source="#Motion_9_RThigh_transform_frame_array_id" count="16" stride="1">
            <param name="TIME" type="float" />
          </accessor>
        </technique_common>
      </source>
      <source id="Motion_9_RThigh_transform_interp_id" name="Motion_9_RThigh_transform_interp">
        <Name_array id="Motion_9_RThigh_transform_interp_array_id" count="16">LINEAR LINEAR LINEAR LINEAR LINEAR LINEAR LINEAR LINEAR LINEAR LINEAR LINEAR LINEAR LINEAR LINEAR LINEAR LINEAR</Name_array>
        <technique_common>
          <accessor source="#Motion_9_RThigh_transform_interp_array_id" count="16" stride="1">
            <param name="INTERPOLATION" type="Name" />
          </accessor>
        </technique_common>
      </source>
      <source id="Motion_9_RThigh_transform_pose_id" name="Motion_9_RThigh_transform_pose">
        <float_array id="Motion_9_RThigh_transform_pose_array_id" count="256">0.9988937 -0.016173575 -0.044157084 13.099998 0.006296671 0.9765405 -0.21524176 -12.4 0.04660241 0.21472558 0.975562 0 0 0 0 1 0.9980055 -0.013998738 -0.0615551 13.099998 0.00038063852 0.976419 -0.2158839 -12.4 0.06312567 0.21542989 0.9744768 0 0 0 0 1 0.9963675 -0.010776928 -0.08447289 13.099998 -0.007809533 0.9762162 -0.21665858 -12.4 0.084798716 0.21653126 0.9725859 0 0 0 0 1 0.99399227 -0.005909778 -0.109290466 13.099998 -0.018095998 0.97592497 -0.21735454 -12.4 0.10794382 0.21802646 0.96995497 0 0 0 0 1 0.99116653 -0.00023219176 -0.13262305 13.099998 -0.0289277 0.97554207 -0.2179009 -12.4 0.12942997 0.21981257 0.96691793 0 0 0 0 1 0.9881048 0.005561376 -0.1536814 13.099998 -0.039436013 0.9750913 -0.21827014 -12.4 0.1486395 0.22173436 0.9637117 0 0 0 0 1 0.98515934 0.010833558 -0.17130007 13.099998 -0.048709918 0.97462136 -0.2184962 -12.4 0.1645856 0.22359759 0.960685 0 0 0 0 1 0.9827509 0.014959628 -0.18432818 13.099998 -0.055841424 0.9742029 -0.21865618 -12.4 0.17630203 0.2251777 0.9582341 0 0 0 0 1 0.981316 0.017322188 -0.19162165 13.099998 -0.059925206 0.9739181 -0.21884362 -12.4 0.18283294 0.22623773 0.95675945 0 0 0 0 1 0.9811133 0.017965637 -0.19259764 13.099998 -0.060831435 0.97381693 -0.21904367 -12.4 0.18361957 0.22662267 0.95651764 0 0 0 0 1 0.98188895 0.01767542 -0.18863109 13.099998 -0.05965347 0.9738402 -0.21926421 -12.4 0.17982095 0.2265456 0.9572573 0 0 0 0 1 0.9832438 0.016944906 -0.18150595 13.099998 -0.057318427 0.9739091 -0.21958067 -12.4 0.17304951 0.22630496 0.95856136 0 0 0 0 1 0.9847859 0.016286574 -0.17300697 13.099998 -0.054736674 0.97398984 -0.21988101 -12.4 0.16492592 0.22600557 0.960063 0 0 0 0 1 0.986182 0.015939515 -0.16489725 13.099998 -0.052545298 0.9740621 -0.22009555 -12.4 0.15711193 0.22571883 0.96143997 0 0 0 0 1 0.98717046 0.0156826 -0.15889788 13.099998 -0.050920643 0.97412294 -0.22020796 -12.4 0.15133265 0.22547397 0.962424 0 0 0 0 1 0.98717046 0.0156826 -0.15889788 13.099998 -0.050920643 0.97412294 -0.22020796 -12.4 0.15133265 0.22547397 0.962424 0 0 0 0 1</float_array>
        <technique_common>
          <accessor source="#Motion_9_RThigh_transform_pose_array_id" count="16" stride="16">
            <param name="TRANSFORM" type="float4x4" />
          </accessor>
        </technique_common>
      </source>
      <sampler id="Motion_9_RThigh_transform_samp_id">
        <input semantic="INPUT" source="#Motion_9_RThigh_transform_frame_id" />
        <input semantic="INTERPOLATION" source="#Motion_9_RThigh_transform_interp_id" />
        <input semantic="OUTPUT" source="#Motion_9_RThigh_transform_pose_id" />
      </sampler>
      <channel source="#Motion_9_RThigh_transform_samp_id" target="RThigh_bone_id/transform" />
    </animation>
    <animation id="Motion_9_RLeg_transform_id" name="Motion_9_RLeg_transform">
      <source id="Motion_9_RLeg_transform_frame_id" name="Motion_9_RLeg_transform_frame">
        <float_array id="Motion_9_RLeg_transform_frame_array_id" count="16">0 0.033333335 0.06666667 0.1 0.13333334 0.16666667 0.2 0.23333333 0.26666668 0.3 0.33333334 0.36666667 0.4 0.43333334 0.46666667 0.5</float_array>
        <technique_common>
          <accessor source="#Motion_9_RLeg_transform_frame_array_id" count="16" stride="1">
            <param name="TIME" type="float" />
          </accessor>
        </technique_common>
      </source>
      <source id="Motion_9_RLeg_transform_interp_id" name="Motion_9_RLeg_transform_interp">
        <Name_array id="Motion_9_RLeg_transform_interp_array_id" count="16">LINEAR LINEAR LINEAR LINEAR LINEAR LINEAR LINEAR LINEAR LINEAR LINEAR LINEAR LINEAR LINEAR LINEAR LINEAR LINEAR</Name_array>
        <technique_common>
          <accessor source="#Motion_9_RLeg_transform_interp_array_id" count="16" stride="1">
            <param name="INTERPOLATION" type="Name" />
          </accessor>
        </technique_common>
      </source>
      <source id="Motion_9_RLeg_transform_pose_id" name="Motion_9_RLeg_transform_pose">
        <float_array id="Motion_9_RLeg_transform_pose_array_id" count="256">0.99563223 0 0.09336215 30 0 1 0 0 -0.09336215 0 0.99563223 0 0 0 0 1 0.9934191 0 0.11453597 30 0 1 0 0 -0.11453597 0 0.9934191 0 0 0 0 1 0.98962927 0 0.14364515 30 0 1 0 0 -0.14364515 0 0.98962927 0 0 0 0 1 0.9846788 0 0.17437792 30 0 1 0 0 -0.17437792 0 0.9846788 0 0 0 0 1 0.9794987 0 0.20145044 30 0 1 0 0 -0.20145044 0 0.9794987 0 0 0 0 1 0.97443587 0 0.22466576 30 0 1 0 0 -0.22466576 0 0.97443587 0 0 0 0 1 0.9699722 0 0.24321586 30 0 1 0 0 -0.24321586 0 0.9699722 0 0 0 0 1 0.9665955 0 0.2563068 30 0 1 0 0 -0.2563068 0 0.9665955 0 0 0 0 1 0.9647565 0 0.26314428 30 0 1 0 0 -0.26314428 0 0.9647565 0 0 0 0 1 0.9645156 0 0.26402584 30 0 1 0 0 -0.26402584 0 0.9645156 0 0 0 0 1 0.9654004 0 0.26077214 30 0 1 0 0 -0.26077214 0 0.9654004 0 0 0 0 1 0.966979 0 0.25485593 30 0 1 0 0 -0.25485593 0 0.966979 0 0 0 0 1 0.9688237 0 0.24775128 30 0 1 0 0 -0.24775128 0 0.9688237 0 0 0 0 1 0.9705397 0 0.24094135 30 0 1 0 0 -0.24094135 0 0.9705397 0 0 0 0 1 0.9717726 0 0.23591936 30 0 1 0 0 -0.23591936 0 0.9717726 0 0 0 0 1 0.9717726 0 0.23591936 30 0 1 0 0 -0.23591936 0 0.9717726 0 0 0 0 1</float_array>
        <technique_common>
          <accessor source="#Motion_9_RLeg_transform_pose_array_id" count="16" stride="16">
            <param name="TRANSFORM" type="float4x4" />
          </accessor>
        </technique_common>
      </source>
      <sampler id="Motion_9_RLeg_transform_samp_id">
        <input semantic="INPUT" source="#Motion_9_RLeg_transform_frame_id" />
        <input semantic="INTERPOLATION" source="#Motion_9_RLeg_transform_interp_id" />
        <input semantic="OUTPUT" source="#Motion_9_RLeg_transform_pose_id" />
      </sampler>
      <channel source="#Motion_9_RLeg_transform_samp_id" target="RLeg_bone_id/transform" />
    </animation>
    <animation id="Motion_9_RFoot_transform_id" name="Motion_9_RFoot_transform">
      <source id="Motion_9_RFoot_transform_frame_id" name="Motion_9_RFoot_transform_frame">
        <float_array id="Motion_9_RFoot_transform_frame_array_id" count="16">0 0.033333335 0.06666667 0.1 0.13333334 0.16666667 0.2 0.23333333 0.26666668 0.3 0.33333334 0.36666667 0.4 0.43333334 0.46666667 0.5</float_array>
        <technique_common>
          <accessor source="#Motion_9_RFoot_transform_frame_array_id" count="16" stride="1">
            <param name="TIME" type="float" />
          </accessor>
        </technique_common>
      </source>
      <source id="Motion_9_RFoot_transform_interp_id" name="Motion_9_RFoot_transform_interp">
        <Name_array id="Motion_9_RFoot_transform_interp_array_id" count="16">LINEAR LINEAR LINEAR LINEAR LINEAR LINEAR LINEAR LINEAR LINEAR LINEAR LINEAR LINEAR LINEAR LINEAR LINEAR LINEAR</Name_array>
        <technique_common>
          <accessor source="#Motion_9_RFoot_transform_interp_array_id" count="16" stride="1">
            <param name="INTERPOLATION" type="Name" />
          </accessor>
        </technique_common>
      </source>
      <source id="Motion_9_RFoot_transform_pose_id" name="Motion_9_RFoot_transform_pose">
        <float_array id="Motion_9_RFoot_transform_pose_array_id" count="256">-0.03057909 -0.01831393 -0.99936455 30 -0.15068233 0.98849 -0.013503991 0 0.9881092 0.15017363 -0.03298676 0 0 0 0 1 -0.039556623 -0.021317892 -0.9989899 30 -0.14996281 0.98857546 -0.0151576325 0 0.98789996 0.14921176 -0.042301536 0 0 0 0 1 -0.05001068 -0.025586039 -0.998421 30 -0.14860034 0.98873544 -0.017894492 0 0.9876321 0.14747077 -0.05324936 0 0 0 0 1 -0.060471654 -0.030620433 -0.99770015 30 -0.14680654 0.98893255 -0.021453258 0 0.9873151 0.1451716 -0.064297676 0 0 0 0 1 -0.06949413 -0.035940472 -0.9969347 30 -0.14477487 0.98913425 -0.025567312 0 0.98702115 0.14255431 -0.0739423 0 0 0 0 1 -0.07690418 -0.041166626 -0.9961882 30 -0.14266917 0.9893196 -0.029868945 0 0.9867782 0.13982831 -0.08195603 0 0 0 0 1 -0.08253801 -0.045725066 -0.9955383 30 -0.14084472 0.98945564 -0.03376854 0 0.9865851 0.13742913 -0.088107824 0 0 0 0 1 -0.08621526 -0.04914895 -0.9950633 30 -0.1395488 0.9895317 -0.03678477 0 0.9864546 0.13568848 -0.09217143 0 0 0 0 1 -0.08773446 -0.05122264 -0.9948261 30 -0.13877848 0.9895665 -0.038712863 0 0.9864296 0.134664 -0.09392774 0 0 0 0 1 -0.08762181 -0.05176877 -0.9948077 30 -0.13853669 0.9895775 -0.039294403 0 0.98647356 0.13437432 -0.093880415 0 0 0 0 1 -0.086693406 -0.05138325 -0.99490905 30 -0.13861293 0.98957723 -0.039029576 0 0.98654485 0.13452363 -0.0929122 0 0 0 0 1 -0.085194826 -0.05082171 -0.9950675 30 -0.13876674 0.9895702 -0.03866017 0 0.9866539 0.1347886 -0.09135866 0 0 0 0 1 -0.08341217 -0.050178025 -0.99525094 30 -0.13896252 0.9895589 -0.038244553 0 0.9867785 0.13511252 -0.08951414 0 0 0 0 1 -0.08163321 -0.04954647 -0.9954302 30 -0.13916433 0.98954606 -0.037841015 0 0.98689884 0.13543928 -0.087674975 0 0 0 0 1 -0.08014381 -0.04902182 -0.9955771 30 -0.13933556 0.9895346 -0.037507802 0 0.98699665 0.13571328 -0.08613551 0 0 0 0 1 -0.08014381 -0.04902182 -0.9955771 30 -0.13933556 0.9895346 -0.037507802 0 0.98699665 0.13571328 -0.08613551 0 0 0 0 1</float_array>
        <technique_common>
          <accessor source="#Motion_9_RFoot_transform_pose_array_id" count="16" stride="16">
            <param name="TRANSFORM" type="float4x4" />
          </accessor>
        </technique_common>
      </source>
      <sampler id="Motion_9_RFoot_transform_samp_id">
        <input semantic="INPUT" source="#Motion_9_RFoot_transform_frame_id" />
        <input semantic="INTERPOLATION" source="#Motion_9_RFoot_transform_interp_id" />
        <input semantic="OUTPUT" source="#Motion_9_RFoot_transform_pose_id" />
      </sampler>
      <channel source="#Motion_9_RFoot_transform_samp_id" target="RFoot_bone_id/transform" />
    </animation>
    <animation id="Motion_9_LThigh_transform_id" name="Motion_9_LThigh_transform">
      <source id="Motion_9_LThigh_transform_frame_id" name="Motion_9_LThigh_transform_frame">
        <float_array id="Motion_9_LThigh_transform_frame_array_id" count="16">0 0.033333335 0.06666667 0.1 0.13333334 0.16666667 0.2 0.23333333 0.26666668 0.3 0.33333334 0.36666667 0.4 0.43333334 0.46666667 0.5</float_array>
        <technique_common>
          <accessor source="#Motion_9_LThigh_transform_frame_array_id" count="16" stride="1">
            <param name="TIME" type="float" />
          </accessor>
        </technique_common>
      </source>
      <source id="Motion_9_LThigh_transform_interp_id" name="Motion_9_LThigh_transform_interp">
        <Name_array id="Motion_9_LThigh_transform_interp_array_id" count="16">LINEAR LINEAR LINEAR LINEAR LINEAR LINEAR LINEAR LINEAR LINEAR LINEAR LINEAR LINEAR LINEAR LINEAR LINEAR LINEAR</Name_array>
        <technique_common>
          <accessor source="#Motion_9_LThigh_transform_interp_array_id" count="16" stride="1">
            <param name="INTERPOLATION" type="Name" />
          </accessor>
        </technique_common>
      </source>
      <source id="Motion_9_LThigh_transform_pose_id" name="Motion_9_LThigh_transform_pose">
        <float_array id="Motion_9_LThigh_transform_pose_array_id" count="256">0.9840876 -0.1684907 -0.056414027 13.100006 0.17576061 0.96965927 0.1699093 12.4 0.02607425 -0.17712098 0.9838436 0 0 0 0 1 0.98445815 -0.16370128 -0.06359261 13.100006 0.17226423 0.9705608 0.16833518 12.4 0.034163814 -0.17667367 0.9836764 0 0 0 0 1 0.9846219 -0.15728714 -0.07602952 13.100006 0.16803394 0.9717301 0.16584693 12.4 0.047794584 -0.17607205 0.9832163 0 0 0 0 1 0.9845151 -0.14935133 -0.09178386 13.100006 0.16280463 0.9731288 0.1628341 12.4 0.06499802 -0.17525546 0.9823751 0 0 0 0 1 0.9841166 -0.14044128 -0.10858536 13.100006 0.15670986 0.9746496 0.15968758 12.4 0.08340594 -0.1741676 0.9811774 0 0 0 0 1 0.9834856 -0.13163854 -0.124207295 13.100006 0.15044607 0.97611547 0.15673092 12.4 0.10060883 -0.17282909 0.9798 0 0 0 0 1 0.9827873 -0.12380894 -0.13711488 13.100006 0.14464194 0.97739655 0.1541906 12.4 0.11492544 -0.17136914 0.9784808 0 0 0 0 1 0.9821286 -0.11771485 -0.14685556 13.100006 0.14002118 0.978384 0.15217991 12.4 0.12576729 -0.17002313 0.9773816 0 0 0 0 1 0.9816425 -0.11412901 -0.15281579 13.100006 0.13729739 0.9789814 0.15081412 12.4 0.13239154 -0.16902676 0.97667927 0 0 0 0 1 0.98151 -0.11321933 -0.15433583 13.100006 0.13657707 0.9791666 0.15026435 12.4 0.13410765 -0.1685647 0.976525 0 0 0 0 1 0.9818312 -0.11421492 -0.15153363 13.100006 0.13711035 0.97906667 0.15043 12.4 0.13118017 -0.16847369 0.97693825 0 0 0 0 1 0.9824129 -0.116392314 -0.14600599 13.100006 0.13839749 0.9788074 0.1509377 12.4 0.12534374 -0.16849002 0.9777014 0 0 0 0 1 0.98307997 -0.11902198 -0.13923901 13.100006 0.13994294 0.97847855 0.15164316 12.4 0.11819353 -0.16856286 0.978579 0 0 0 0 1 0.98369366 -0.12137354 -0.13272227 13.100006 0.14125362 0.9781738 0.15239243 12.4 0.11132905 -0.16865496 0.97936785 0 0 0 0 1 0.9841367 -0.12288531 -0.12796141 13.100006 0.1420099 0.97796804 0.15300901 12.4 0.10633961 -0.16875358 0.9799051 0 0 0 0 1 0.9841367 -0.12288531 -0.12796141 13.100006 0.1420099 0.97796804 0.15300901 12.4 0.10633961 -0.16875358 0.9799051 0 0 0 0 1</float_array>
        <technique_common>
          <accessor source="#Motion_9_LThigh_transform_pose_array_id" count="16" stride="16">
            <param name="TRANSFORM" type="float4x4" />
          </accessor>
        </technique_common>
      </source>
      <sampler id="Motion_9_LThigh_transform_samp_id">
        <input semantic="INPUT" source="#Motion_9_LThigh_transform_frame_id" />
        <input semantic="INTERPOLATION" source="#Motion_9_LThigh_transform_interp_id" />
        <input semantic="OUTPUT" source="#Motion_9_LThigh_transform_pose_id" />
      </sampler>
      <channel source="#Motion_9_LThigh_transform_samp_id" target="LThigh_bone_id/transform" />
    </animation>
    <animation id="Motion_9_LLeg_transform_id" name="Motion_9_LLeg_transform">
      <source id="Motion_9_LLeg_transform_frame_id" name="Motion_9_LLeg_transform_frame">
        <float_array id="Motion_9_LLeg_transform_frame_array_id" count="16">0 0.033333335 0.06666667 0.1 0.13333334 0.16666667 0.2 0.23333333 0.26666668 0.3 0.33333334 0.36666667 0.4 0.43333334 0.46666667 0.5</float_array>
        <technique_common>
          <accessor source="#Motion_9_LLeg_transform_frame_array_id" count="16" stride="1">
            <param name="TIME" type="float" />
          </accessor>
        </technique_common>
      </source>
      <source id="Motion_9_LLeg_transform_interp_id" name="Motion_9_LLeg_transform_interp">
        <Name_array id="Motion_9_LLeg_transform_interp_array_id" count="16">LINEAR LINEAR LINEAR LINEAR LINEAR LINEAR LINEAR LINEAR LINEAR LINEAR LINEAR LINEAR LINEAR LINEAR LINEAR LINEAR</Name_array>
        <technique_common>
          <accessor source="#Motion_9_LLeg_transform_interp_array_id" count="16" stride="1">
            <param name="INTERPOLATION" type="Name" />
          </accessor>
        </technique_common>
      </source>
      <source id="Motion_9_LLeg_transform_pose_id" name="Motion_9_LLeg_transform_pose">
        <float_array id="Motion_9_LLeg_transform_pose_array_id" count="256">0.98168373 0 0.19051777 30 0 1 0 0 -0.19051777 0 0.98168373 0 0 0 0 1 0.9809454 0 0.19428352 30 0 1 0 0 -0.19428352 0 0.9809454 0 0 0 0 1 0.9782579 0 0.207392 30 0 1 0 0 -0.207392 0 0.9782579 0 0 0 0 1 0.97405 0 0.22633293 30 0 1 0 0 -0.22633293 0 0.97405 0 0 0 0 1 0.96916765 0 0.24640216 30 0 1 0 0 -0.24640216 0 0.96916765 0 0 0 0 1 0.9643727 0 0.26454744 30 0 1 0 0 -0.26454744 0 0.9643727 0 0 0 0 1 0.959995 0 0.2800173 30 0 1 0 0 -0.2800173 0 0.959995 0 0 0 0 1 0.95653135 0 0.2916295 30 0 1 0 0 -0.2916295 0 0.95653135 0 0 0 0 1 0.9544996 0 0.29821226 30 0 1 0 0 -0.29821226 0 0.9544996 0 0 0 0 1 0.95401275 0 0.2997659 30 0 1 0 0 -0.2997659 0 0.95401275 0 0 0 0 1 0.9545915 0 0.2979178 30 0 1 0 0 -0.2979178 0 0.9545915 0 0 0 0 1 0.9558276 0 0.29392785 30 0 1 0 0 -0.29392785 0 0.9558276 0 0 0 0 1 0.95731217 0 0.28905612 30 0 1 0 0 -0.28905612 0 0.95731217 0 0 0 0 1 0.9586557 0 0.28456858 30 0 1 0 0 -0.28456858 0 0.9586557 0 0 0 0 1 0.95953023 0 0.28160566 30 0 1 0 0 -0.28160566 0 0.95953023 0 0 0 0 1 0.95953023 0 0.28160566 30 0 1 0 0 -0.28160566 0 0.95953023 0 0 0 0 1</float_array>
        <technique_common>
          <accessor source="#Motion_9_LLeg_transform_pose_array_id" count="16" stride="16">
            <param name="TRANSFORM" type="float4x4" />
          </accessor>
        </technique_common>
      </source>
      <sampler id="Motion_9_LLeg_transform_samp_id">
        <input semantic="INPUT" source="#Motion_9_LLeg_transform_frame_id" />
        <input semantic="INTERPOLATION" source="#Motion_9_LLeg_transform_interp_id" />
        <input semantic="OUTPUT" source="#Motion_9_LLeg_transform_pose_id" />
      </sampler>
      <channel source="#Motion_9_LLeg_transform_samp_id" target="LLeg_bone_id/transform" />
    </animation>
    <animation id="Motion_9_LFoot_transform_id" name="Motion_9_LFoot_transform">
      <source id="Motion_9_LFoot_transform_frame_id" name="Motion_9_LFoot_transform_frame">
        <float_array id="Motion_9_LFoot_transform_frame_array_id" count="16">0 0.033333335 0.06666667 0.1 0.13333334 0.16666667 0.2 0.23333333 0.26666668 0.3 0.33333334 0.36666667 0.4 0.43333334 0.46666667 0.5</float_array>
        <technique_common>
          <accessor source="#Motion_9_LFoot_transform_frame_array_id" count="16" stride="1">
            <param name="TIME" type="float" />
          </accessor>
        </technique_common>
      </source>
      <source id="Motion_9_LFoot_transform_interp_id" name="Motion_9_LFoot_transform_interp">
        <Name_array id="Motion_9_LFoot_transform_interp_array_id" count="16">LINEAR LINEAR LINEAR LINEAR LINEAR LINEAR LINEAR LINEAR LINEAR LINEAR LINEAR LINEAR LINEAR LINEAR LINEAR LINEAR</Name_array>
        <technique_common>
          <accessor source="#Motion_9_LFoot_transform_interp_array_id" count="16" stride="1">
            <param name="INTERPOLATION" type="Name" />
          </accessor>
        </technique_common>
      </source>
      <source id="Motion_9_LFoot_transform_pose_id" name="Motion_9_LFoot_transform_pose">
        <float_array id="Motion_9_LFoot_transform_pose_array_id" count="256">-0.12489557 0.13928834 -0.98234403 30 0.038030364 0.9900411 0.13554452 0 0.9914408 -0.020429999 -0.12894893 0 0 0 0 1 -0.12606108 0.13696465 -0.9825219 30 0.039076176 0.99033993 0.13304088 0 0.99125254 -0.02162192 -0.13019538 0 0 0 0 1 -0.13035882 0.13358803 -0.98242587 30 0.040669184 0.9907678 0.12932591 0 0.99063236 -0.023095671 -0.13458824 0 0 0 0 1 -0.13771284 0.12945484 -0.98197603 30 0.042718057 0.9912757 0.12469004 0 0.9895507 -0.0247767 -0.14204144 0 0 0 0 1 -0.1459812 0.12487529 -0.98137444 30 0.045016024 0.9918123 0.119507246 0 0.9882627 -0.026731767 -0.15040731 0 0 0 0 1 -0.15416527 0.120142 -0.9807134 30 0.047440644 0.99233496 0.11410816 0 0.9869054 -0.028934166 -0.15868318 0 0 0 0 1 -0.16128159 0.1158055 -0.9800905 30 0.049618967 0.9927871 0.109140515 0 0.9856603 -0.031028714 -0.16586447 0 0 0 0 1 -0.16634107 0.11239479 -0.97964185 30 0.051206462 0.99312687 0.105247185 0 0.9847378 -0.03265707 -0.17095304 0 0 0 0 1 -0.16885173 0.11016238 -0.97946584 30 0.052162156 0.9933406 0.10273058 0 0.9842602 -0.033744805 -0.1734736 0 0 0 0 1 -0.1694367 0.10936505 -0.9794542 30 0.052487724 0.99341476 0.101843975 0 0.9841425 -0.034153216 -0.17406118 0 0 0 0 1 -0.16874921 0.10962707 -0.9795435 30 0.05235989 0.9933894 0.10215643 0 0.9842673 -0.03404997 -0.17337382 0 0 0 0 1 -0.16743982 0.11028195 -0.97969484 30 0.052028887 0.99332756 0.1029243 0 0.9845085 -0.033738818 -0.17206049 0 0 0 0 1 -0.16616857 0.11115554 -0.9798124 30 0.05159965 0.99324536 0.10392854 0 0.98474634 -0.033288322 -0.17078173 0 0 0 0 1 -0.16525364 0.11207284 -0.97986263 30 0.051163375 0.99315894 0.10496492 0 0.98492306 -0.03278724 -0.16985714 0 0 0 0 1 -0.16457772 0.11285855 -0.9798861 30 0.050792456 0.99308425 0.105847724 0 0.98505527 -0.032350622 -0.16917193 0 0 0 0 1 -0.16457772 0.11285855 -0.9798861 30 0.050792456 0.99308425 0.105847724 0 0.98505527 -0.032350622 -0.16917193 0 0 0 0 1</float_array>
        <technique_common>
          <accessor source="#Motion_9_LFoot_transform_pose_array_id" count="16" stride="16">
            <param name="TRANSFORM" type="float4x4" />
          </accessor>
        </technique_common>
      </source>
      <sampler id="Motion_9_LFoot_transform_samp_id">
        <input semantic="INPUT" source="#Motion_9_LFoot_transform_frame_id" />
        <input semantic="INTERPOLATION" source="#Motion_9_LFoot_transform_interp_id" />
        <input semantic="OUTPUT" source="#Motion_9_LFoot_transform_pose_id" />
      </sampler>
      <channel source="#Motion_9_LFoot_transform_samp_id" target="LFoot_bone_id/transform" />
    </animation>
    <animation id="Motion_9_Spine2_transform_id" name="Motion_9_Spine2_transform">
      <source id="Motion_9_Spine2_transform_frame_id" name="Motion_9_Spine2_transform_frame">
        <float_array id="Motion_9_Spine2_transform_frame_array_id" count="16">0 0.033333335 0.06666667 0.1 0.13333334 0.16666667 0.2 0.23333333 0.26666668 0.3 0.33333334 0.36666667 0.4 0.43333334 0.46666667 0.5</float_array>
        <technique_common>
          <accessor source="#Motion_9_Spine2_transform_frame_array_id" count="16" stride="1">
            <param name="TIME" type="float" />
          </accessor>
        </technique_common>
      </source>
      <source id="Motion_9_Spine2_transform_interp_id" name="Motion_9_Spine2_transform_interp">
        <Name_array id="Motion_9_Spine2_transform_interp_array_id" count="16">LINEAR LINEAR LINEAR LINEAR LINEAR LINEAR LINEAR LINEAR LINEAR LINEAR LINEAR LINEAR LINEAR LINEAR LINEAR LINEAR</Name_array>
        <technique_common>
          <accessor source="#Motion_9_Spine2_transform_interp_array_id" count="16" stride="1">
            <param name="INTERPOLATION" type="Name" />
          </accessor>
        </technique_common>
      </source>
      <source id="Motion_9_Spine2_transform_pose_id" name="Motion_9_Spine2_transform_pose">
        <float_array id="Motion_9_Spine2_transform_pose_array_id" count="256">0.9956379 -0.043462075 0.0825608 17.400002 0.030616725 0.9880711 0.1509245 0 -0.08813543 -0.1477384 0.9850916 0 0 0 0 1 0.9956655 -0.042885914 0.08252902 17.400002 0.030373767 0.98862624 0.14729403 0 -0.087907195 -0.14414887 0.9856437 0 0 0 0 1 0.9957407 -0.041948024 0.08210255 17.400002 0.029950442 0.9893768 0.14225535 0 -0.08719769 -0.13919042 0.9864191 0 0 0 0 1 0.9958887 -0.040664755 0.08094461 17.400002 0.02943933 0.9903626 0.13533394 0 -0.08566783 -0.1323946 0.9874881 0 0 0 0 1 0.99613166 -0.03910574 0.078692324 17.400002 0.028875615 0.99145967 0.12717691 0 -0.082993604 -0.124412656 0.98875356 0 0 0 0 1 0.9964588 -0.03735997 0.07532601 17.400002 0.02827553 0.99258107 0.118251264 0 -0.07918504 -0.11570263 0.99012256 0 0 0 0 1 0.996823 -0.035540584 0.07127919 17.400002 0.027631108 0.99365413 0.10903214 0 -0.07470193 -0.10671623 0.99147934 0 0 0 0 1 0.99719054 -0.033744637 0.06687588 17.400002 0.026951667 0.9946229 0.0999948 0 -0.069890566 -0.097911455 0.99273795 0 0 0 0 1 0.99753344 -0.032059323 0.062443923 17.400002 0.02625731 0.9954482 0.091615826 0 -0.06509683 -0.089750245 0.9938346 0 0 0 0 1 0.99783033 -0.030562177 0.058314476 17.400002 0.02557854 0.99610597 0.084372275 0 -0.060666 -0.08269762 0.9947265 0 0 0 0 1 0.99806553 -0.029322857 0.054821093 17.400002 0.024954246 0.9965827 0.078741185 0 -0.056942668 -0.07722085 0.9953866 0 0 0 0 1 0.9982274 -0.028402079 0.052300964 17.400002 0.024432614 0.9968818 0.07503138 0 -0.054268923 -0.07362052 0.99580866 0 0 0 0 1 0.99830526 -0.027845738 0.051099554 17.400002 0.024077298 0.99704593 0.07293583 0 -0.05297956 -0.07158188 0.9960267 0 0 0 0 1 0.9983054 -0.027611334 0.05122426 17.400002 0.02388405 0.99711853 0.072001 0 -0.053064704 -0.07065555 0.9960883 0 0 0 0 1 0.9982675 -0.02754622 0.05199323 17.400002 0.023777395 0.99713826 0.071763024 0 -0.053821236 -0.07040243 0.9960657 0 0 0 0 1 0.9982675 -0.02754622 0.05199323 17.400002 0.023777395 0.99713826 0.071763024 0 -0.053821236 -0.07040243 0.9960657 0 0 0 0 1</float_array>
        <technique_common>
          <accessor source="#Motion_9_Spine2_transform_pose_array_id" count="16" stride="16">
            <param name="TRANSFORM" type="float4x4" />
          </accessor>
        </technique_common>
      </source>
      <sampler id="Motion_9_Spine2_transform_samp_id">
        <input semantic="INPUT" source="#Motion_9_Spine2_transform_frame_id" />
        <input semantic="INTERPOLATION" source="#Motion_9_Spine2_transform_interp_id" />
        <input semantic="OUTPUT" source="#Motion_9_Spine2_transform_pose_id" />
      </sampler>
      <channel source="#Motion_9_Spine2_transform_samp_id" target="Spine2_bone_id/transform" />
    </animation>
    <animation id="Motion_9_Spine3_transform_id" name="Motion_9_Spine3_transform">
      <source id="Motion_9_Spine3_transform_frame_id" name="Motion_9_Spine3_transform_frame">
        <float_array id="Motion_9_Spine3_transform_frame_array_id" count="16">0 0.033333335 0.06666667 0.1 0.13333334 0.16666667 0.2 0.23333333 0.26666668 0.3 0.33333334 0.36666667 0.4 0.43333334 0.46666667 0.5</float_array>
        <technique_common>
          <accessor source="#Motion_9_Spine3_transform_frame_array_id" count="16" stride="1">
            <param name="TIME" type="float" />
          </accessor>
        </technique_common>
      </source>
      <source id="Motion_9_Spine3_transform_interp_id" name="Motion_9_Spine3_transform_interp">
        <Name_array id="Motion_9_Spine3_transform_interp_array_id" count="16">LINEAR LINEAR LINEAR LINEAR LINEAR LINEAR LINEAR LINEAR LINEAR LINEAR LINEAR LINEAR LINEAR LINEAR LINEAR LINEAR</Name_array>
        <technique_common>
          <accessor source="#Motion_9_Spine3_transform_interp_array_id" count="16" stride="1">
            <param name="INTERPOLATION" type="Name" />
          </accessor>
        </technique_common>
      </source>
      <source id="Motion_9_Spine3_transform_pose_id" name="Motion_9_Spine3_transform_pose">
        <float_array id="Motion_9_Spine3_transform_pose_array_id" count="256">0.9988405 -0.010030315 0.047084816 17.400002 0.0025263622 0.98762757 0.15679753 0 -0.04807499 -0.15649676 0.9865078 0 0 0 0 1 0.9987004 -0.009469485 0.05007895 17.400002 0.0019546845 0.9889815 0.14802627 0 -0.05092889 -0.147736 0.9877147 0 0 0 0 1 0.99854606 -0.008761769 0.053188335 17.400002 0.0013871919 0.9905518 0.1371318 0 -0.05388732 -0.13685863 0.98912376 0 0 0 0 1 0.99843264 -0.007832418 0.055416297 17.400002 0.00093347277 0.9923518 0.12343851 0 -0.05595928 -0.12319331 0.9908037 0 0 0 0 1 0.9984221 -0.0066833217 0.05575543 17.400002 0.0006257894 0.9941549 0.107961774 0 -0.05615107 -0.107756525 0.99259037 0 0 0 0 1 0.99854106 -0.0053728977 0.053729802 17.400002 0.00044034235 0.9958145 0.091396384 0 -0.05399598 -0.091239385 0.994364 0 0 0 0 1 0.9987442 -0.0040207463 0.049938187 17.400002 0.00029243017 0.9972253 0.07444257 0 -0.050098933 -0.07433448 0.9959741 0 0 0 0 1 0.99898374 -0.0027246585 0.044989794 17.400002 0.00011957227 0.99832785 0.05780537 0 -0.045072064 -0.057741243 0.9973136 0 0 0 0 1 0.9992184 -0.001555023 0.039498553 17.400002 -0.000113015354 0.99910945 0.042193074 0 -0.03952899 -0.04216456 0.9983284 0 0 0 0 1 0.99941885 -0.0005538582 0.03408211 17.400002 -0.00041163346 0.999599 0.028314864 0 -0.034084123 -0.02831244 0.99901783 0 0 0 0 1 0.9995689 0.00026179224 0.029360412 17.400002 -0.00075765257 0.99985725 0.016878884 0 -0.029351803 -0.016893853 0.99942636 0 0 0 0 1 0.99966276 0.0008920748 0.025954204 17.400002 -0.0011153899 0.99996245 0.0085909935 0 -0.025945565 -0.008617044 0.9996262 0 0 0 0 1 0.99970794 0.001347896 0.02412824 17.400002 -0.0014385832 0.99999195 0.0037415957 0 -0.024123002 -0.0037752136 0.99970186 0 0 0 0 1 0.99972457 0.0016430251 0.023412272 17.400002 -0.0016782256 0.9999975 0.001483936 0 -0.023409776 -0.0015228182 0.9997248 0 0 0 0 1 0.9997264 0.0017785326 0.023322964 17.400002 -0.0017980594 0.99999803 0.0008162919 0 -0.023321467 -0.00085800467 0.99972767 0 0 0 0 1 0.9997264 0.0017785326 0.023322964 17.400002 -0.0017980594 0.99999803 0.0008162919 0 -0.023321467 -0.00085800467 0.99972767 0 0 0 0 1</float_array>
        <technique_common>
          <accessor source="#Motion_9_Spine3_transform_pose_array_id" count="16" stride="16">
            <param name="TRANSFORM" type="float4x4" />
          </accessor>
        </technique_common>
      </source>
      <sampler id="Motion_9_Spine3_transform_samp_id">
        <input semantic="INPUT" source="#Motion_9_Spine3_transform_frame_id" />
        <input semantic="INTERPOLATION" source="#Motion_9_Spine3_transform_interp_id" />
        <input semantic="OUTPUT" source="#Motion_9_Spine3_transform_pose_id" />
      </sampler>
      <channel source="#Motion_9_Spine3_transform_samp_id" target="Spine3_bone_id/transform" />
    </animation>
    <animation id="Motion_9_RShoulder_transform_id" name="Motion_9_RShoulder_transform">
      <source id="Motion_9_RShoulder_transform_frame_id" name="Motion_9_RShoulder_transform_frame">
        <float_array id="Motion_9_RShoulder_transform_frame_array_id" count="16">0 0.033333335 0.06666667 0.1 0.13333334 0.16666667 0.2 0.23333333 0.26666668 0.3 0.33333334 0.36666667 0.4 0.43333334 0.46666667 0.5</float_array>
        <technique_common>
          <accessor source="#Motion_9_RShoulder_transform_frame_array_id" count="16" stride="1">
            <param name="TIME" type="float" />
          </accessor>
        </technique_common>
      </source>
      <source id="Motion_9_RShoulder_transform_interp_id" name="Motion_9_RShoulder_transform_interp">
        <Name_array id="Motion_9_RShoulder_transform_interp_array_id" count="16">LINEAR LINEAR LINEAR LINEAR LINEAR LINEAR LINEAR LINEAR LINEAR LINEAR LINEAR LINEAR LINEAR LINEAR LINEAR LINEAR</Name_array>
        <technique_common>
          <accessor source="#Motion_9_RShoulder_transform_interp_array_id" count="16" stride="1">
            <param name="INTERPOLATION" type="Name" />
          </accessor>
        </technique_common>
      </source>
      <source id="Motion_9_RShoulder_transform_pose_id" name="Motion_9_RShoulder_transform_pose">
        <float_array id="Motion_9_RShoulder_transform_pose_array_id" count="256">-0.52370965 -0.80812377 -0.2695627 21.680004 0.8504273 -0.5145204 -0.10973612 7.8 -0.050015174 -0.28671336 0.95671 -0.22445531 0 0 0 1 -0.52358687 -0.8093904 -0.26597762 21.680004 0.8508024 -0.51309025 -0.1134627 7.8 -0.044634886 -0.28570193 0.9572785 -0.22445531 0 0 0 1 -0.5230787 -0.8110103 -0.2620135 21.680004 0.85142404 -0.51105475 -0.11789909 7.8 -0.03828586 -0.28475508 0.95783544 -0.22445531 0 0 0 1 -0.52215576 -0.81296355 -0.25776625 21.680004 0.85227424 -0.5085033 -0.12268948 7.8 -0.031332955 -0.28375056 0.95838606 -0.22445531 0 0 0 1 -0.520789 -0.8152311 -0.2533319 21.680004 0.85334396 -0.5055231 -0.12747732 7.8 -0.024141625 -0.28256804 0.9589434 -0.22445531 0 0 0 1 -0.5192437 -0.81753355 -0.24904726 21.680004 0.8544484 -0.50254536 -0.13177946 7.8 -0.017423466 -0.2812237 0.95948404 -0.22445531 0 0 0 1 -0.5177779 -0.8196112 -0.24524194 21.680004 0.8554326 -0.4999814 -0.1351062 7.8 -0.011881836 -0.27974296 0.9600014 -0.22445531 0 0 0 1 -0.51635516 -0.8214707 -0.24199906 21.680004 0.85633856 -0.49788618 -0.13709086 7.8 -0.007871844 -0.27802065 0.96054286 -0.22445531 0 0 0 1 -0.5149393 -0.82311875 -0.2394011 21.680004 0.85720724 -0.4963125 -0.13736609 7.8 -0.005749151 -0.2759516 0.96115434 -0.22445531 0 0 0 1 -0.51360166 -0.82457715 -0.23724583 21.680004 0.85801345 -0.4952147 -0.13629064 7.8 -0.005105503 -0.2735592 0.9618416 -0.22445531 0 0 0 1 -0.5124761 -0.82583344 -0.23530215 21.680004 0.85868585 -0.49449682 -0.13465244 7.8 -0.00515569 -0.2710568 0.96254957 -0.22445531 0 0 0 1 -0.5115416 -0.82688963 -0.23362014 21.680004 0.8592396 -0.49405706 -0.13272008 7.8 -0.005676858 -0.26862755 0.9632274 -0.22445531 0 0 0 1 -0.5107521 -0.8277624 -0.23225383 21.680004 0.85970396 -0.49377203 -0.13076065 7.8 -0.0064416677 -0.26645583 0.9638256 -0.22445531 0 0 0 1 -0.5101265 -0.82842916 -0.23124894 21.680004 0.860069 -0.49358642 -0.12904935 7.8 -0.0072331205 -0.2647215 0.9642978 -0.22445531 0 0 0 1 -0.5096824 -0.8288688 -0.23065175 21.680004 0.86032695 -0.493446 -0.12786171 7.8 -0.0078336 -0.2636048 0.96459895 -0.22445531 0 0 0 1 -0.5096824 -0.8288688 -0.23065175 21.680004 0.86032695 -0.493446 -0.12786171 7.8 -0.0078336 -0.2636048 0.96459895 -0.22445531 0 0 0 1</float_array>
        <technique_common>
          <accessor source="#Motion_9_RShoulder_transform_pose_array_id" count="16" stride="16">
            <param name="TRANSFORM" type="float4x4" />
          </accessor>
        </technique_common>
      </source>
      <sampler id="Motion_9_RShoulder_transform_samp_id">
        <input semantic="INPUT" source="#Motion_9_RShoulder_transform_frame_id" />
        <input semantic="INTERPOLATION" source="#Motion_9_RShoulder_transform_interp_id" />
        <input semantic="OUTPUT" source="#Motion_9_RShoulder_transform_pose_id" />
      </sampler>
      <channel source="#Motion_9_RShoulder_transform_samp_id" target="RShoulder_bone_id/transform" />
    </animation>
    <animation id="Motion_9_RArm_transform_id" name="Motion_9_RArm_transform">
      <source id="Motion_9_RArm_transform_frame_id" name="Motion_9_RArm_transform_frame">
        <float_array id="Motion_9_RArm_transform_frame_array_id" count="16">0 0.033333335 0.06666667 0.1 0.13333334 0.16666667 0.2 0.23333333 0.26666668 0.3 0.33333334 0.36666667 0.4 0.43333334 0.46666667 0.5</float_array>
        <technique_common>
          <accessor source="#Motion_9_RArm_transform_frame_array_id" count="16" stride="1">
            <param name="TIME" type="float" />
          </accessor>
        </technique_common>
      </source>
      <source id="Motion_9_RArm_transform_interp_id" name="Motion_9_RArm_transform_interp">
        <Name_array id="Motion_9_RArm_transform_interp_array_id" count="16">LINEAR LINEAR LINEAR LINEAR LINEAR LINEAR LINEAR LINEAR LINEAR LINEAR LINEAR LINEAR LINEAR LINEAR LINEAR LINEAR</Name_array>
        <technique_common>
          <accessor source="#Motion_9_RArm_transform_interp_array_id" count="16" stride="1">
            <param name="INTERPOLATION" type="Name" />
          </accessor>
        </technique_common>
      </source>
      <source id="Motion_9_RArm_transform_pose_id" name="Motion_9_RArm_transform_pose">
        <float_array id="Motion_9_RArm_transform_pose_array_id" count="256">0.82822 -0.52733386 -0.18965927 16.87 0.55449224 0.8201516 0.1410308 0 0.081179045 -0.22196911 0.9716685 0 0 0 0 1 0.8272683 -0.5268326 -0.19512708 16.87 0.55488396 0.82056576 0.13702403 0 0.087925866 -0.22162853 0.97115904 0 0 0 0 1 0.82516176 -0.52648616 -0.20474452 16.87 0.55610645 0.82077813 0.13064769 0 0.099265605 -0.22166523 0.97005713 0 0 0 0 1 0.8220097 -0.5263884 -0.21729073 16.87 0.55798006 0.8207558 0.12254876 0 0.11383437 -0.22198018 0.9683835 0 0 0 0 1 0.8180379 -0.5266862 -0.23111828 16.87 0.5603173 0.8204634 0.11350933 0 0.1298403 -0.2223545 0.96628153 0 0 0 0 1 0.81356686 -0.5275241 -0.24459617 16.87 0.5629717 0.81986606 0.10431896 0 0.14550532 -0.22257118 0.963997 0 0 0 0 1 0.80883014 -0.5289271 -0.2569628 16.87 0.5658834 0.818932 0.095532164 0 0.1599055 -0.22268029 0.961688 0 0 0 0 1 0.80399513 -0.5308477 -0.26794136 16.87 0.56903976 0.8176327 0.087581865 0 0.17258497 -0.22288465 0.95944613 0 0 0 0 1 0.7993945 -0.53331786 -0.27665955 16.87 0.57242054 0.8159408 0.08108873 0 0.18249173 -0.22318748 0.95754063 0 0 0 0 1 0.7953845 -0.5363693 -0.28226113 16.87 0.57602084 0.8138304 0.07668229 0 0.18858266 -0.22358018 0.956268 0 0 0 0 1 0.7923142 -0.5400367 -0.28389898 16.87 0.5798346 0.81127465 0.075002156 0 0.18981613 -0.2240397 0.95591635 0 0 0 0 1 0.79048276 -0.5443614 -0.2807269 16.87 0.583831 0.8082441 0.07669892 0 0.18514393 -0.22452626 0.9567182 0 0 0 0 1 0.78970546 -0.5488172 -0.27416235 16.87 0.58761436 0.8050788 0.08097824 0 0.17628007 -0.22505069 0.958268 0 0 0 0 1 0.78954345 -0.55272585 -0.26667455 16.87 0.59070796 0.8022844 0.08604583 0 0.16638908 -0.22546369 0.95993793 0 0 0 0 1 0.7894394 -0.5556414 -0.26086032 16.87 0.59301853 0.8000964 0.090414494 0 0.15847535 -0.22607177 0.96113324 0 0 0 0 1 0.7894394 -0.5556414 -0.26086032 16.87 0.59301853 0.8000964 0.090414494 0 0.15847535 -0.22607177 0.96113324 0 0 0 0 1</float_array>
        <technique_common>
          <accessor source="#Motion_9_RArm_transform_pose_array_id" count="16" stride="16">
            <param name="TRANSFORM" type="float4x4" />
          </accessor>
        </technique_common>
      </source>
      <sampler id="Motion_9_RArm_transform_samp_id">
        <input semantic="INPUT" source="#Motion_9_RArm_transform_frame_id" />
        <input semantic="INTERPOLATION" source="#Motion_9_RArm_transform_interp_id" />
        <input semantic="OUTPUT" source="#Motion_9_RArm_transform_pose_id" />
      </sampler>
      <channel source="#Motion_9_RArm_transform_samp_id" target="RArm_bone_id/transform" />
    </animation>
    <animation id="Motion_9_RForeArm_transform_id" name="Motion_9_RForeArm_transform">
      <source id="Motion_9_RForeArm_transform_frame_id" name="Motion_9_RForeArm_transform_frame">
        <float_array id="Motion_9_RForeArm_transform_frame_array_id" count="16">0 0.033333335 0.06666667 0.1 0.13333334 0.16666667 0.2 0.23333333 0.26666668 0.3 0.33333334 0.36666667 0.4 0.43333334 0.46666667 0.5</float_array>
        <technique_common>
          <accessor source="#Motion_9_RForeArm_transform_frame_array_id" count="16" stride="1">
            <param name="TIME" type="float" />
          </accessor>
        </technique_common>
      </source>
      <source id="Motion_9_RForeArm_transform_interp_id" name="Motion_9_RForeArm_transform_interp">
        <Name_array id="Motion_9_RForeArm_transform_interp_array_id" count="16">LINEAR LINEAR LINEAR LINEAR LINEAR LINEAR LINEAR LINEAR LINEAR LINEAR LINEAR LINEAR LINEAR LINEAR LINEAR LINEAR</Name_array>
        <technique_common>
          <accessor source="#Motion_9_RForeArm_transform_interp_array_id" count="16" stride="1">
            <param name="INTERPOLATION" type="Name" />
          </accessor>
        </technique_common>
      </source>
      <source id="Motion_9_RForeArm_transform_pose_id" name="Motion_9_RForeArm_transform_pose">
        <float_array id="Motion_9_RForeArm_transform_pose_array_id" count="256">0.9831685 0 -0.18270127 24.8999 0 1 0 0 0.18270127 0 0.9831685 0 0 0 0 1 0.98317343 0 -0.18267469 24.8999 0 1 0 0 0.18267469 0 0.98317343 0 0 0 0 1 0.98273826 0 -0.18500139 24.8999 0 1 0 0 0.18500139 0 0.98273826 0 0 0 0 1 0.9816767 0 -0.19055396 24.8999 0 1 0 0 0.19055396 0 0.9816767 0 0 0 0 1 0.9801514 0 -0.19825049 24.8999 0 1 0 0 0.19825049 0 0.9801514 0 0 0 0 1 0.9782772 0 -0.20730111 24.8999 0 1 0 0 0.20730111 0 0.9782772 0 0 0 0 1 0.97618943 0 -0.21691968 24.8999 0 1 0 0 0.21691968 0 0.97618943 0 0 0 0 1 0.97376895 0 -0.22753905 24.8999 0 1 0 0 0.22753905 0 0.97376895 0 0 0 0 1 0.97084093 0 -0.23972455 24.8999 0 1 0 0 0.23972455 0 0.97084093 0 0 0 0 1 0.96749365 0 -0.25289524 24.8999 0 1 0 0 0.25289524 0 0.96749365 0 0 0 0 1 0.9638417 0 -0.26647562 24.8999 0 1 0 0 0.26647562 0 0.9638417 0 0 0 0 1 0.9597265 0 -0.280936 24.8999 0 1 0 0 0.280936 0 0.9597265 0 0 0 0 1 0.95506793 0 -0.296387 24.8999 0 1 0 0 0.296387 0 0.95506793 0 0 0 0 1 0.95024455 0 -0.31150484 24.8999 0 1 0 0 0.31150484 0 0.95024455 0 0 0 0 1 0.94650763 0 -0.3226815 24.8999 0 1 0 0 0.3226815 0 0.94650763 0 0 0 0 1 0.94650763 0 -0.3226815 24.8999 0 1 0 0 0.3226815 0 0.94650763 0 0 0 0 1</float_array>
        <technique_common>
          <accessor source="#Motion_9_RForeArm_transform_pose_array_id" count="16" stride="16">
            <param name="TRANSFORM" type="float4x4" />
          </accessor>
        </technique_common>
      </source>
      <sampler id="Motion_9_RForeArm_transform_samp_id">
        <input semantic="INPUT" source="#Motion_9_RForeArm_transform_frame_id" />
        <input semantic="INTERPOLATION" source="#Motion_9_RForeArm_transform_interp_id" />
        <input semantic="OUTPUT" source="#Motion_9_RForeArm_transform_pose_id" />
      </sampler>
      <channel source="#Motion_9_RForeArm_transform_samp_id" target="RForeArm_bone_id/transform" />
    </animation>
    <animation id="Motion_9_RHand_transform_id" name="Motion_9_RHand_transform">
      <source id="Motion_9_RHand_transform_frame_id" name="Motion_9_RHand_transform_frame">
        <float_array id="Motion_9_RHand_transform_frame_array_id" count="16">0 0.033333335 0.06666667 0.1 0.13333334 0.16666667 0.2 0.23333333 0.26666668 0.3 0.33333334 0.36666667 0.4 0.43333334 0.46666667 0.5</float_array>
        <technique_common>
          <accessor source="#Motion_9_RHand_transform_frame_array_id" count="16" stride="1">
            <param name="TIME" type="float" />
          </accessor>
        </technique_common>
      </source>
      <source id="Motion_9_RHand_transform_interp_id" name="Motion_9_RHand_transform_interp">
        <Name_array id="Motion_9_RHand_transform_interp_array_id" count="16">LINEAR LINEAR LINEAR LINEAR LINEAR LINEAR LINEAR LINEAR LINEAR LINEAR LINEAR LINEAR LINEAR LINEAR LINEAR LINEAR</Name_array>
        <technique_common>
          <accessor source="#Motion_9_RHand_transform_interp_array_id" count="16" stride="1">
            <param name="INTERPOLATION" type="Name" />
          </accessor>
        </technique_common>
      </source>
      <source id="Motion_9_RHand_transform_pose_id" name="Motion_9_RHand_transform_pose">
        <float_array id="Motion_9_RHand_transform_pose_array_id" count="256">0.96247035 -0.24472989 0.1172949 24.900002 0.26277298 0.94841146 -0.17738675 0 -0.067831986 0.20155142 0.9771263 0 0 0 0 1 0.9640422 -0.24010949 0.11388643 24.900002 0.257537 0.9498266 -0.17749414 0 -0.065554336 0.20044181 0.97751 0 0 0 0 1 0.96629417 -0.23344783 0.1085253 24.900002 0.24992003 0.9517896 -0.17786664 0 -0.06177067 0.19899413 0.978052 0 0 0 0 1 0.9692938 -0.2242519 0.1008995 24.900002 0.23938167 0.9543766 -0.17849852 0 -0.0562675 0.19717099 0.9787531 0 0 0 0 1 0.97248596 -0.21415547 0.09169789 24.900002 0.22766343 0.95711863 -0.17914599 0 -0.04940066 0.19509321 0.9795398 0 0 0 0 1 0.9753665 -0.20468478 0.08224558 24.900002 0.21652086 0.9596281 -0.17953451 0 -0.042177193 0.19291984 0.98030764 0 0 0 0 1 0.9775647 -0.19743635 0.073390454 24.900002 0.20768504 0.9615853 -0.17950132 0 -0.03513109 0.19071627 0.9810164 0 0 0 0 1 0.97877604 -0.1940197 0.065983154 24.900002 0.20289785 0.96271396 -0.17892554 0 -0.02880782 0.18851587 0.98164755 0 0 0 0 1 0.9787036 -0.19604605 0.060869955 24.900002 0.2038984 0.96272826 -0.17770699 0 -0.023762472 0.18633375 0.98219913 0 0 0 0 1 0.97701776 -0.20512404 0.057969272 24.900002 0.21224971 0.9612663 -0.17583306 0 -0.019656321 0.184096 0.98271173 0 0 0 0 1 0.9738724 -0.2199781 0.05641006 24.900002 0.22654128 0.95839286 -0.17367248 0 -0.015858859 0.18191405 0.98318654 0 0 0 0 1 0.9696848 -0.23789129 0.05584917 24.900002 0.2440399 0.9544646 -0.17158628 0 -0.012487177 0.18001401 0.98358476 0 0 0 0 1 0.9650095 -0.25617957 0.05593426 24.900002 0.26203656 0.9500218 -0.16969208 0 -0.009667125 0.17841129 0.98390853 0 0 0 0 1 0.9605898 -0.27220312 0.056326333 24.900002 0.27786824 0.94579494 -0.1681107 0 -0.007512901 0.17713672 0.98415756 0 0 0 0 1 0.95733356 -0.28336886 0.05669634 24.900002 0.28892002 0.94267994 -0.16697223 0 -0.006131774 0.17622884 0.9843301 0 0 0 0 1 0.95733356 -0.28336886 0.05669634 24.900002 0.28892002 0.94267994 -0.16697223 0 -0.006131774 0.17622884 0.9843301 0 0 0 0 1</float_array>
        <technique_common>
          <accessor source="#Motion_9_RHand_transform_pose_array_id" count="16" stride="16">
            <param name="TRANSFORM" type="float4x4" />
          </accessor>
        </technique_common>
      </source>
      <sampler id="Motion_9_RHand_transform_samp_id">
        <input semantic="INPUT" source="#Motion_9_RHand_transform_frame_id" />
        <input semantic="INTERPOLATION" source="#Motion_9_RHand_transform_interp_id" />
        <input semantic="OUTPUT" source="#Motion_9_RHand_transform_pose_id" />
      </sampler>
      <channel source="#Motion_9_RHand_transform_samp_id" target="RHand_bone_id/transform" />
    </animation>
    <animation id="Motion_9_LShoulder_transform_id" name="Motion_9_LShoulder_transform">
      <source id="Motion_9_LShoulder_transform_frame_id" name="Motion_9_LShoulder_transform_frame">
        <float_array id="Motion_9_LShoulder_transform_frame_array_id" count="16">0 0.033333335 0.06666667 0.1 0.13333334 0.16666667 0.2 0.23333333 0.26666668 0.3 0.33333334 0.36666667 0.4 0.43333334 0.46666667 0.5</float_array>
        <technique_common>
          <accessor source="#Motion_9_LShoulder_transform_frame_array_id" count="16" stride="1">
            <param name="TIME" type="float" />
          </accessor>
        </technique_common>
      </source>
      <source id="Motion_9_LShoulder_transform_interp_id" name="Motion_9_LShoulder_transform_interp">
        <Name_array id="Motion_9_LShoulder_transform_interp_array_id" count="16">LINEAR LINEAR LINEAR LINEAR LINEAR LINEAR LINEAR LINEAR LINEAR LINEAR LINEAR LINEAR LINEAR LINEAR LINEAR LINEAR</Name_array>
        <technique_common>
          <accessor source="#Motion_9_LShoulder_transform_interp_array_id" count="16" stride="1">
            <param name="INTERPOLATION" type="Name" />
          </accessor>
        </technique_common>
      </source>
      <source id="Motion_9_LShoulder_transform_pose_id" name="Motion_9_LShoulder_transform_pose">
        <float_array id="Motion_9_LShoulder_transform_pose_array_id" count="256">-0.4786775 0.87696743 -0.0423801 21.680004 -0.8772242 -0.47568524 0.06481846 -7.8 0.036684092 0.068203986 0.99699676 -0.22445531 0 0 0 1 -0.4796902 0.87610745 -0.048300635 21.680004 -0.87695885 -0.4768827 0.05938092 -7.8 0.028990332 0.07084212 0.9970662 -0.22445531 0 0 0 1 -0.4816836 0.87426955 -0.060280807 21.680004 -0.8761969 -0.4791957 0.05148408 -7.8 0.016124664 0.077616885 0.9968529 -0.22445531 0 0 0 1 -0.48479784 0.8712091 -0.07723828 21.680004 -0.87462586 -0.48298335 0.041912057 -7.8 -0.0007906407 0.08787347 0.99613136 -0.22445531 0 0 0 1 -0.4888233 0.8669037 -0.097620174 21.680004 -0.87215036 -0.48820698 0.03174445 -7.8 -0.02013947 0.1006569 0.99471736 -0.22445531 0 0 0 1 -0.49314415 0.86166245 -0.11977838 21.680004 -0.8690099 -0.4943123 0.021847103 -7.8 -0.040383082 0.11486237 0.99256027 -0.22445531 0 0 0 1 -0.49733937 0.85587174 -0.14190404 21.680004 -0.8654689 -0.50079954 0.012765728 -7.8 -0.060139675 0.12916246 0.98979807 -0.22445531 0 0 0 1 -0.5010669 0.8500662 -0.16223252 21.680004 -0.86188686 -0.50707567 0.005023852 -7.8 -0.07799357 0.14234337 0.98673975 -0.22445531 0 0 0 1 -0.50405157 0.8449151 -0.17902638 21.680004 -0.8587032 -0.5124724 -0.0009216368 -7.8 -0.09252478 0.15326597 0.98384386 -0.22445531 0 0 0 1 -0.50606155 0.8411796 -0.19057418 21.680004 -0.8564074 -0.51627946 -0.0046642125 -7.8 -0.102313 0.16084878 0.98166174 -0.22445531 0 0 0 1 -0.50718856 0.8392904 -0.19583556 21.680004 -0.8552482 -0.5181862 -0.0058043823 -7.8 -0.10635085 0.16454408 0.98061955 -0.22445531 0 0 0 1 -0.5077777 0.8386863 -0.19689344 21.680004 -0.8549134 -0.5187477 -0.0048787445 -7.8 -0.10622977 0.16584952 0.9804128 -0.22445531 0 0 0 1 -0.5079653 0.838613 -0.19672282 21.680004 -0.85502416 -0.51858044 -0.0028757006 -7.8 -0.10442819 0.166742 0.9804549 -0.22445531 0 0 0 1 -0.50793505 0.83861065 -0.19680978 21.680004 -0.8552638 -0.5181922 -0.0007265955 -7.8 -0.10259463 0.16795523 0.98044145 -0.22445531 0 0 0 1 -0.5079769 0.8386017 -0.19673948 21.680004 -0.8554338 -0.51791084 0.0011170581 -7.8 -0.10095675 0.16886505 0.98045516 -0.22445531 0 0 0 1 -0.5079769 0.8386017 -0.19673948 21.680004 -0.8554338 -0.51791084 0.0011170581 -7.8 -0.10095675 0.16886505 0.98045516 -0.22445531 0 0 0 1</float_array>
        <technique_common>
          <accessor source="#Motion_9_LShoulder_transform_pose_array_id" count="16" stride="16">
            <param name="TRANSFORM" type="float4x4" />
          </accessor>
        </technique_common>
      </source>
      <sampler id="Motion_9_LShoulder_transform_samp_id">
        <input semantic="INPUT" source="#Motion_9_LShoulder_transform_frame_id" />
        <input semantic="INTERPOLATION" source="#Motion_9_LShoulder_transform_interp_id" />
        <input semantic="OUTPUT" source="#Motion_9_LShoulder_transform_pose_id" />
      </sampler>
      <channel source="#Motion_9_LShoulder_transform_samp_id" target="LShoulder_bone_id/transform" />
    </animation>
    <animation id="Motion_9_LArm_transform_id" name="Motion_9_LArm_transform">
      <source id="Motion_9_LArm_transform_frame_id" name="Motion_9_LArm_transform_frame">
        <float_array id="Motion_9_LArm_transform_frame_array_id" count="16">0 0.033333335 0.06666667 0.1 0.13333334 0.16666667 0.2 0.23333333 0.26666668 0.3 0.33333334 0.36666667 0.4 0.43333334 0.46666667 0.5</float_array>
        <technique_common>
          <accessor source="#Motion_9_LArm_transform_frame_array_id" count="16" stride="1">
            <param name="TIME" type="float" />
          </accessor>
        </technique_common>
      </source>
      <source id="Motion_9_LArm_transform_interp_id" name="Motion_9_LArm_transform_interp">
        <Name_array id="Motion_9_LArm_transform_interp_array_id" count="16">LINEAR LINEAR LINEAR LINEAR LINEAR LINEAR LINEAR LINEAR LINEAR LINEAR LINEAR LINEAR LINEAR LINEAR LINEAR LINEAR</Name_array>
        <technique_common>
          <accessor source="#Motion_9_LArm_transform_interp_array_id" count="16" stride="1">
            <param name="INTERPOLATION" type="Name" />
          </accessor>
        </technique_common>
      </source>
      <source id="Motion_9_LArm_transform_pose_id" name="Motion_9_LArm_transform_pose">
        <float_array id="Motion_9_LArm_transform_pose_array_id" count="256">0.76533043 0.6190856 0.17607465 16.870005 -0.62410086 0.64690304 0.4381947 0 0.1573768 -0.44525206 0.8814665 0 0 0 0 1 0.76708555 0.6188421 0.16915728 16.870005 -0.62397623 0.65839416 0.42091656 0 0.14910875 -0.42842913 0.8911874 0 0 0 0 1 0.7691885 0.6198888 0.15519941 16.870005 -0.6241689 0.6767552 0.39040443 0 0.13697535 -0.39716527 0.9074676 0 0 0 0 1 0.7716169 0.62177527 0.13417487 16.870005 -0.62418866 0.69953644 0.34790412 0 0.12245796 -0.3521991 0.9278792 0 0 0 0 1 0.77433884 0.6236717 0.10692481 16.870005 -0.6237057 0.7237686 0.29521233 0 0.10672677 -0.29528397 0.9494297 0 0 0 0 1 0.7772881 0.62468606 0.074769944 16.870005 -0.62259775 0.7466475 0.2342852 0 0.09052791 -0.2286587 0.96928835 0 0 0 0 1 0.78035855 0.6241343 0.038689047 16.870005 -0.6208184 0.765821 0.16763885 0 0.07500027 -0.1548373 0.985089 0 0 0 0 1 0.7833934 0.6215262 -0.00028924271 16.870005 -0.618501 0.7796261 0.09818176 0 0.06124803 -0.07673604 0.99516845 0 0 0 0 1 0.786183 0.61662465 -0.041114703 16.870005 -0.6159423 0.7872535 0.029103298 0 0.050313503 0.0024437644 0.9987305 0 0 0 0 1 0.7886824 0.60920614 -0.08275222 16.870005 -0.613283 0.78902835 -0.0363082 0 0.04317466 0.07938617 0.9959085 0 0 0 0 1 0.7909065 0.5990858 -0.12475216 16.870005 -0.6105504 0.7862585 -0.09500391 0 0.04117196 0.15130669 0.98762906 0 0 0 0 1 0.7925696 0.58638835 -0.1672787 16.870005 -0.6080272 0.78076506 -0.14390534 0 0.04622095 0.215765 0.97535074 0 0 0 0 1 0.79338706 0.57161283 -0.20927425 16.870005 -0.60584235 0.7748819 -0.18031386 0 0.059093103 0.26984587 0.96108854 0 0 0 0 1 0.7936836 0.55657667 -0.24553762 16.870005 -0.6036535 0.7705326 -0.20465057 0 0.07529102 0.31064746 0.9475386 0 0 0 0 1 0.7935861 0.5451137 -0.27031872 16.870005 -0.6020106 0.7679385 -0.21875474 0 0.08834195 0.33633545 0.9375895 0 0 0 0 1 0.7935861 0.5451137 -0.27031872 16.870005 -0.6020106 0.7679385 -0.21875474 0 0.08834195 0.33633545 0.9375895 0 0 0 0 1</float_array>
        <technique_common>
          <accessor source="#Motion_9_LArm_transform_pose_array_id" count="16" stride="16">
            <param name="TRANSFORM" type="float4x4" />
          </accessor>
        </technique_common>
      </source>
      <sampler id="Motion_9_LArm_transform_samp_id">
        <input semantic="INPUT" source="#Motion_9_LArm_transform_frame_id" />
        <input semantic="INTERPOLATION" source="#Motion_9_LArm_transform_interp_id" />
        <input semantic="OUTPUT" source="#Motion_9_LArm_transform_pose_id" />
      </sampler>
      <channel source="#Motion_9_LArm_transform_samp_id" target="LArm_bone_id/transform" />
    </animation>
    <animation id="Motion_9_LForeArm_transform_id" name="Motion_9_LForeArm_transform">
      <source id="Motion_9_LForeArm_transform_frame_id" name="Motion_9_LForeArm_transform_frame">
        <float_array id="Motion_9_LForeArm_transform_frame_array_id" count="16">0 0.033333335 0.06666667 0.1 0.13333334 0.16666667 0.2 0.23333333 0.26666668 0.3 0.33333334 0.36666667 0.4 0.43333334 0.46666667 0.5</float_array>
        <technique_common>
          <accessor source="#Motion_9_LForeArm_transform_frame_array_id" count="16" stride="1">
            <param name="TIME" type="float" />
          </accessor>
        </technique_common>
      </source>
      <source id="Motion_9_LForeArm_transform_interp_id" name="Motion_9_LForeArm_transform_interp">
        <Name_array id="Motion_9_LForeArm_transform_interp_array_id" count="16">LINEAR LINEAR LINEAR LINEAR LINEAR LINEAR LINEAR LINEAR LINEAR LINEAR LINEAR LINEAR LINEAR LINEAR LINEAR LINEAR</Name_array>
        <technique_common>
          <accessor source="#Motion_9_LForeArm_transform_interp_array_id" count="16" stride="1">
            <param name="INTERPOLATION" type="Name" />
          </accessor>
        </technique_common>
      </source>
      <source id="Motion_9_LForeArm_transform_pose_id" name="Motion_9_LForeArm_transform_pose">
        <float_array id="Motion_9_LForeArm_transform_pose_array_id" count="256">0.40318024 -0.0017712214 -0.9151189 24.899923 0.0013859791 0.99999815 -0.0013248757 0 0.9151196 -0.0007341719 0.40318197 0 0 0 0 1 0.4028228 -0.0017267677 -0.9152764 24.899923 0.0013443171 0.9999983 -0.0012949564 0 0.915277 -0.0007087836 0.4028244 0 0 0 0 1 0.41875136 -0.0016546018 -0.9080994 24.899923 0.0012888968 0.9999984 -0.001227698 0 0.9081 -0.00065634603 0.41875285 0 0 0 0 1 0.4488629 -0.0015574121 -0.8935993 24.899923 0.0012199474 0.9999986 -0.0011300602 0 0.89359975 -0.0005829021 0.44886416 0 0 0 0 1 0.48993838 -0.001437009 -0.87175584 24.899923 0.0011363 0.99999887 -0.0010097899 0 0.8717563 -0.0004958415 0.48993945 0 0 0 0 1 0.5397229 -0.0012960087 -0.8418417 24.899923 0.0010377546 0.9999991 -0.00087416376 0 0.84184206 -0.00040181883 0.5397238 0 0 0 0 1 0.5991031 -0.0011386367 -0.8006711 24.899923 0.0009264781 0.9999993 -0.00072886364 0 0.80067134 -0.0003051398 0.5991037 0 0 0 0 1 0.6670137 -0.00096873817 -0.74504477 24.899923 0.0008037402 0.9999995 -0.00058067916 0 0.745045 -0.00021150148 0.6670141 0 0 0 0 1 0.73631567 -0.00078990933 -0.67663777 24.899923 0.00066933985 0.9999997 -0.0004390291 0 0.6766379 -0.00012963664 0.73631597 0 0 0 0 1 0.7998729 -0.0006081263 -0.6001691 24.899923 0.000526062 0.9999998 -0.00031215115 0 0.60016924 -6.604493E-05 0.79987305 0 0 0 0 1 0.8526688 -0.0004314737 -0.5224516 24.899923 0.000380097 0.9999999 -0.00020552488 0 0.5224516 -2.3337627E-05 0.85266894 0 0 0 0 1 0.89212745 -0.00026898293 -0.45178375 24.899923 0.00024003824 0.99999994 -0.00012138154 0 0.45178375 -1.5756814E-07 0.8921275 0 0 0 0 1 0.9185122 -0.00012953546 -0.39539263 24.899923 0.00011571141 1 -5.881019E-05 0 0.39539263 8.266441E-06 0.9185122 0 0 0 0 1 0.93196446 -2.119855E-05 -0.3625497 24.899923 1.6799444E-05 1 -1.5286356E-05 0 0.3625497 8.155706E-06 0.93196446 0 0 0 0 1 0.936628 4.881467E-05 -0.35032552 24.899923 -4.7684378E-05 1 1.1852243E-05 0 0.35032552 5.6039125E-06 0.936628 0 0 0 0 1 0.936628 4.881467E-05 -0.35032552 24.899923 -4.7684378E-05 1 1.1852243E-05 0 0.35032552 5.6039125E-06 0.936628 0 0 0 0 1</float_array>
        <technique_common>
          <accessor source="#Motion_9_LForeArm_transform_pose_array_id" count="16" stride="16">
            <param name="TRANSFORM" type="float4x4" />
          </accessor>
        </technique_common>
      </source>
      <sampler id="Motion_9_LForeArm_transform_samp_id">
        <input semantic="INPUT" source="#Motion_9_LForeArm_transform_frame_id" />
        <input semantic="INTERPOLATION" source="#Motion_9_LForeArm_transform_interp_id" />
        <input semantic="OUTPUT" source="#Motion_9_LForeArm_transform_pose_id" />
      </sampler>
      <channel source="#Motion_9_LForeArm_transform_samp_id" target="LForeArm_bone_id/transform" />
    </animation>
    <animation id="Motion_9_LHand_transform_id" name="Motion_9_LHand_transform">
      <source id="Motion_9_LHand_transform_frame_id" name="Motion_9_LHand_transform_frame">
        <float_array id="Motion_9_LHand_transform_frame_array_id" count="16">0 0.033333335 0.06666667 0.1 0.13333334 0.16666667 0.2 0.23333333 0.26666668 0.3 0.33333334 0.36666667 0.4 0.43333334 0.46666667 0.5</float_array>
        <technique_common>
          <accessor source="#Motion_9_LHand_transform_frame_array_id" count="16" stride="1">
            <param name="TIME" type="float" />
          </accessor>
        </technique_common>
      </source>
      <source id="Motion_9_LHand_transform_interp_id" name="Motion_9_LHand_transform_interp">
        <Name_array id="Motion_9_LHand_transform_interp_array_id" count="16">LINEAR LINEAR LINEAR LINEAR LINEAR LINEAR LINEAR LINEAR LINEAR LINEAR LINEAR LINEAR LINEAR LINEAR LINEAR LINEAR</Name_array>
        <technique_common>
          <accessor source="#Motion_9_LHand_transform_interp_array_id" count="16" stride="1">
            <param name="INTERPOLATION" type="Name" />
          </accessor>
        </technique_common>
      </source>
      <source id="Motion_9_LHand_transform_pose_id" name="Motion_9_LHand_transform_pose">
        <float_array id="Motion_9_LHand_transform_pose_array_id" count="256">0.99302155 -0.09212843 -0.07362422 24.900002 0.10432515 0.39511198 0.91268986 4.600015E-05 -0.054994885 -0.9140015 0.40196604 0 0 0 0 1 0.99234354 -0.025046483 -0.12094216 24.900002 0.12090513 0.39698762 0.9098257 4.600015E-05 0.025224611 -0.91748214 0.39697635 0 0 0 0 1 0.978432 0.08126059 -0.18991472 24.900002 0.14125153 0.4076507 0.9021469 4.600015E-05 0.15072785 -0.9095151 0.3873803 0 0 0 0 1 0.95666265 0.16291219 -0.24136305 24.900002 0.1541892 0.4197393 0.8944521 4.600015E-05 0.24702671 -0.8929045 0.37642962 0 0 0 0 1 0.95316225 0.17388771 -0.24747676 24.900002 0.15073837 0.43625814 0.8871059 4.600015E-05 0.26222056 -0.8828601 0.38961327 0 0 0 0 1 0.9583826 0.16320568 -0.23423633 24.900002 0.11420236 0.5328051 0.83849657 4.600015E-05 0.26164973 -0.8303509 0.4919927 0 0 0 0 1 0.9642711 0.15612708 -0.21402213 24.900002 0.054018464 0.67503214 0.7358082 4.600015E-05 0.2593514 -0.72107977 0.64248025 0 0 0 0 1 0.9671272 0.16093794 -0.19688563 24.900002 -0.01490318 0.8087878 0.5879117 4.600015E-05 0.253856 -0.5656512 0.7845992 0 0 0 0 1 0.9666761 0.17425998 -0.18753864 24.900002 -0.07818098 0.89852023 0.4319133 4.600015E-05 0.24377246 -0.4028583 0.8822019 0 0 0 0 1 0.9657095 0.188447 -0.17858583 24.900002 -0.123492 0.9384761 0.32250938 4.600015E-05 0.22837445 -0.28939644 0.929567 0 0 0 0 1 0.9684168 0.19545192 -0.15481429 24.900002 -0.15036911 0.9530974 0.2626679 4.600015E-05 0.19889204 -0.23109272 0.9523855 0 0 0 0 1 0.9735806 0.1967986 -0.11580639 24.900002 -0.16858152 0.9615538 0.21678212 4.600015E-05 0.1540165 -0.19153205 0.9693268 0 0 0 0 1 0.9782251 0.19610232 -0.0679668 24.900002 -0.18088719 0.96612465 0.18407342 4.600015E-05 0.10176162 -0.16777092 0.98055977 0 0 0 0 1 0.9808229 0.19367829 -0.021796294 24.900002 -0.18765524 0.9686452 0.16282484 4.600015E-05 0.052648515 -0.15561214 0.9864142 0 0 0 0 1 0.9815452 0.19085002 0.012051121 24.900002 -0.19045758 0.969978 0.15122378 4.600015E-05 0.01717174 -0.1507282 0.9884261 0 0 0 0 1 0.9815452 0.19085002 0.012051121 24.900002 -0.19045758 0.969978 0.15122378 4.600015E-05 0.01717174 -0.1507282 0.9884261 0 0 0 0 1</float_array>
        <technique_common>
          <accessor source="#Motion_9_LHand_transform_pose_array_id" count="16" stride="16">
            <param name="TRANSFORM" type="float4x4" />
          </accessor>
        </technique_common>
      </source>
      <sampler id="Motion_9_LHand_transform_samp_id">
        <input semantic="INPUT" source="#Motion_9_LHand_transform_frame_id" />
        <input semantic="INTERPOLATION" source="#Motion_9_LHand_transform_interp_id" />
        <input semantic="OUTPUT" source="#Motion_9_LHand_transform_pose_id" />
      </sampler>
      <channel source="#Motion_9_LHand_transform_samp_id" target="LHand_bone_id/transform" />
    </animation>
    <animation id="Motion_9_Neck_transform_id" name="Motion_9_Neck_transform">
      <source id="Motion_9_Neck_transform_frame_id" name="Motion_9_Neck_transform_frame">
        <float_array id="Motion_9_Neck_transform_frame_array_id" count="16">0 0.033333335 0.06666667 0.1 0.13333334 0.16666667 0.2 0.23333333 0.26666668 0.3 0.33333334 0.36666667 0.4 0.43333334 0.46666667 0.5</float_array>
        <technique_common>
          <accessor source="#Motion_9_Neck_transform_frame_array_id" count="16" stride="1">
            <param name="TIME" type="float" />
          </accessor>
        </technique_common>
      </source>
      <source id="Motion_9_Neck_transform_interp_id" name="Motion_9_Neck_transform_interp">
        <Name_array id="Motion_9_Neck_transform_interp_array_id" count="16">LINEAR LINEAR LINEAR LINEAR LINEAR LINEAR LINEAR LINEAR LINEAR LINEAR LINEAR LINEAR LINEAR LINEAR LINEAR LINEAR</Name_array>
        <technique_common>
          <accessor source="#Motion_9_Neck_transform_interp_array_id" count="16" stride="1">
            <param name="INTERPOLATION" type="Name" />
          </accessor>
        </technique_common>
      </source>
      <source id="Motion_9_Neck_transform_pose_id" name="Motion_9_Neck_transform_pose">
        <float_array id="Motion_9_Neck_transform_pose_array_id" count="256">0.82091755 -0.011695586 -0.57092696 23.860191 -0.097505264 0.98223716 -0.16032109 0 0.56266075 0.18727878 0.80519533 0 0 0 0 1 0.8255552 -0.012454204 -0.5641839 23.860191 -0.09358052 0.9828931 -0.15863097 0 0.5565081 0.18375525 0.8102671 0 0 0 0 1 0.83075035 -0.012813013 -0.55649763 23.860191 -0.08802262 0.98413277 -0.15406089 0 0.54964155 0.17697053 0.8164408 0 0 0 0 1 0.83620524 -0.012381852 -0.54827684 23.860191 -0.08074778 0.9860692 -0.1454212 0 0.5424395 0.16587412 0.8235564 0 0 0 0 1 0.8416511 -0.011540545 -0.53989834 23.860191 -0.072434984 0.98832434 -0.1340452 0 0.53514165 0.15192683 0.83098835 0 0 0 0 1 0.84682745 -0.01050988 -0.5317639 23.860191 -0.06361614 0.99062574 -0.12088683 0 0.52804947 0.13619906 0.8382205 0 0 0 0 1 0.85117424 -0.009508885 -0.5247971 23.860191 -0.054826856 0.99275565 -0.1069122 0 0.5220119 0.11977389 0.8444867 0 0 0 0 1 0.8540062 -0.008715151 -0.5201899 23.860191 -0.046572313 0.99456495 -0.09312144 0 0.5181742 0.10375273 0.84895873 0 0 0 0 1 0.85464656 -0.008042345 -0.51914793 23.860191 -0.03910543 0.99604297 -0.07980739 0 0.5177354 0.08850861 0.8509502 0 0 0 0 1 0.85190094 -0.006960796 -0.52365667 23.860191 -0.031701252 0.9973926 -0.064830594 0 0.52274257 0.07182982 0.84945905 0 0 0 0 1 0.8457713 -0.0052283397 -0.53352 23.860191 -0.023890302 0.99857795 -0.04765826 0 0.5330105 0.05305394 0.8444437 0 0 0 0 1 0.83735526 -0.003864292 -0.5466454 23.860191 -0.016979827 0.99930865 -0.033074033 0 0.5463953 0.03697666 0.83671075 0 0 0 0 1 0.8277533 -0.0033912598 -0.561082 23.860191 -0.01176947 0.9996568 -0.02340534 0 0.56096876 0.025977485 0.8274293 0 0 0 0 1 0.81858724 -0.0032196853 -0.5743732 23.860191 -0.007933606 0.99982554 -0.01691143 0 0.5743274 0.018400332 0.81841886 0 0 0 0 1 0.8119004 -0.0030737 -0.5837879 23.860191 -0.00544702 0.9999027 -0.012840003 0 0.58377063 0.013604708 0.81180465 0 0 0 0 1 0.8119004 -0.0030737 -0.5837879 23.860191 -0.00544702 0.9999027 -0.012840003 0 0.58377063 0.013604708 0.81180465 0 0 0 0 1</float_array>
        <technique_common>
          <accessor source="#Motion_9_Neck_transform_pose_array_id" count="16" stride="16">
            <param name="TRANSFORM" type="float4x4" />
          </accessor>
        </technique_common>
      </source>
      <sampler id="Motion_9_Neck_transform_samp_id">
        <input semantic="INPUT" source="#Motion_9_Neck_transform_frame_id" />
        <input semantic="INTERPOLATION" source="#Motion_9_Neck_transform_interp_id" />
        <input semantic="OUTPUT" source="#Motion_9_Neck_transform_pose_id" />
      </sampler>
      <channel source="#Motion_9_Neck_transform_samp_id" target="Neck_bone_id/transform" />
    </animation>
    <animation id="Motion_9_Head_transform_id" name="Motion_9_Head_transform">
      <source id="Motion_9_Head_transform_frame_id" name="Motion_9_Head_transform_frame">
        <float_array id="Motion_9_Head_transform_frame_array_id" count="16">0 0.033333335 0.06666667 0.1 0.13333334 0.16666667 0.2 0.23333333 0.26666668 0.3 0.33333334 0.36666667 0.4 0.43333334 0.46666667 0.5</float_array>
        <technique_common>
          <accessor source="#Motion_9_Head_transform_frame_array_id" count="16" stride="1">
            <param name="TIME" type="float" />
          </accessor>
        </technique_common>
      </source>
      <source id="Motion_9_Head_transform_interp_id" name="Motion_9_Head_transform_interp">
        <Name_array id="Motion_9_Head_transform_interp_array_id" count="16">LINEAR LINEAR LINEAR LINEAR LINEAR LINEAR LINEAR LINEAR LINEAR LINEAR LINEAR LINEAR LINEAR LINEAR LINEAR LINEAR</Name_array>
        <technique_common>
          <accessor source="#Motion_9_Head_transform_interp_array_id" count="16" stride="1">
            <param name="INTERPOLATION" type="Name" />
          </accessor>
        </technique_common>
      </source>
      <source id="Motion_9_Head_transform_pose_id" name="Motion_9_Head_transform_pose">
        <float_array id="Motion_9_Head_transform_pose_array_id" count="256">0.86417633 0.0013763166 0.5031872 5.1499934 -0.0016923235 0.99999857 0.00017121105 0 -0.5031862 -0.000999512 0.86417747 0 0 0 0 1 0.863116 0.0013742143 0.50500375 5.1499934 -0.0016902453 0.99999857 0.00016765308 0 -0.5050028 -0.0009982843 0.8631171 0 0 0 0 1 0.8619587 0.0013719304 0.5069767 5.1499934 -0.0016879758 0.99999857 0.00016378873 0 -0.50697577 -0.0009969436 0.86195976 0 0 0 0 1 0.8607266 0.0013695112 0.5090657 5.1499934 -0.0016855593 0.99999857 0.00015969694 0 -0.50906473 -0.0009955158 0.86072767 0 0 0 0 1 0.8594424 0.0013670046 0.51123077 5.1499934 -0.0016830408 0.99999857 0.00015545622 0 -0.5112298 -0.0009940278 0.8594435 0 0 0 0 1 0.85812914 0.0013644565 0.5134321 5.1499934 -0.0016804661 0.99999857 0.00015114457 0 -0.51343113 -0.0009925067 0.8581302 0 0 0 0 1 0.8568102 0.0013619128 0.5156301 5.1499934 -0.0016778812 0.99999857 0.00014683971 0 -0.5156292 -0.0009909798 0.8568113 0 0 0 0 1 0.8555094 0.0013594197 0.5177855 5.1499934 -0.0016753334 0.99999857 0.00014261858 0 -0.51778454 -0.0009894748 0.8555105 0 0 0 0 1 0.85425085 0.0013570216 0.51985925 5.1499934 -0.0016728697 0.99999857 0.00013855787 0 -0.5198583 -0.0009880199 0.8542519 0 0 0 0 1 0.85305923 0.0013547637 0.5218124 5.1499934 -0.0016705375 0.99999857 0.00013473339 0 -0.5218114 -0.0009866427 0.8530603 0 0 0 0 1 0.8519592 0.0013526909 0.52360636 5.1499934 -0.0016683864 0.9999986 0.00013122105 0 -0.5236054 -0.0009853727 0.8519603 0 0 0 0 1 0.85097617 0.0013508471 0.5252026 5.1499934 -0.0016664644 0.9999986 0.0001280958 0 -0.5252016 -0.0009842378 0.85097724 0 0 0 0 1 0.8501352 0.0013492763 0.52656275 5.1499934 -0.0016648207 0.9999986 0.000125433 0 -0.5265618 -0.0009832677 0.8501363 0 0 0 0 1 0.8494617 0.0013480226 0.52764857 5.1499934 -0.0016635049 0.9999986 0.00012330746 0 -0.5276476 -0.000982491 0.84946275 0 0 0 0 1 0.8489811 0.00134713 0.5284216 5.1499934 -0.0016625657 0.9999986 0.000121794204 0 -0.5284206 -0.0009819366 0.84898216 0 0 0 0 1 0.8489811 0.00134713 0.5284216 5.1499934 -0.0016625657 0.9999986 0.000121794204 0 -0.5284206 -0.0009819366 0.84898216 0 0 0 0 1</float_array>
        <technique_common>
          <accessor source="#Motion_9_Head_transform_pose_array_id" count="16" stride="16">
            <param name="TRANSFORM" type="float4x4" />
          </accessor>
        </technique_common>
      </source>
      <sampler id="Motion_9_Head_transform_samp_id">
        <input semantic="INPUT" source="#Motion_9_Head_transform_frame_id" />
        <input semantic="INTERPOLATION" source="#Motion_9_Head_transform_interp_id" />
        <input semantic="OUTPUT" source="#Motion_9_Head_transform_pose_id" />
      </sampler>
      <channel source="#Motion_9_Head_transform_samp_id" target="Head_bone_id/transform" />
    </animation>
  </library_animations>
  <library_visual_scenes>
    <visual_scene id="tr0066_00_fi_00_clip_id" name="tr0066_00_fi_00_clip">
      <node id="tr0066_00_fi_bone_id" name="tr0066_00_fi" sid="tr0066_00_fi" type="JOINT">
        <matrix sid="transform">1 0 0 0 0 1 0 0 0 0 1 0 0 0 0 1</matrix>
        <node id="Origin_bone_id" name="Origin" sid="Origin" type="JOINT">
          <matrix sid="transform">1 0 0 0 0 1 0 0 0 0 1 0 0 0 0 1</matrix>
          <node id="Waist_bone_id" name="Waist" sid="Waist" type="JOINT">
            <matrix sid="transform">3.1391647E-07 -1 0 0 1 3.1391647E-07 0 86 0 0 1 0 0 0 0 1</matrix>
            <node id="Spine2_bone_id" name="Spine2" sid="Spine2" type="JOINT">
              <matrix sid="transform">1 0 0 17.400002 0 1 0 0 0 0 1 0 0 0 0 1</matrix>
              <node id="Spine3_bone_id" name="Spine3" sid="Spine3" type="JOINT">
                <matrix sid="transform">0.9947531 0 0.1023047 17.400002 0 1 0 0 -0.1023047 0 0.9947531 0 0 0 0 1</matrix>
                <node id="Neck_bone_id" name="Neck" sid="Neck" type="JOINT">
                  <matrix sid="transform">0.90277416 0 -0.43011487 23.860191 0 1 0 0 0.43011487 0 0.90277416 0 0 0 0 1</matrix>
                  <node id="Head_bone_id" name="Head" sid="Head" type="JOINT">
                    <matrix sid="transform">0.9420402 0 0.33550006 5.149993 0 1 0 0 -0.33550006 0 0.9420402 0 0 0 0 1</matrix>
                    <node id="Loc_Head_bone_id" name="Loc_Head" sid="Loc_Head" type="JOINT">
                      <matrix sid="transform">3.1391647E-07 1 0 32.956882 -1 3.1391647E-07 0 0 0 0 1 0.713177 0 0 0 1</matrix>
                    </node>
                    <node id="Loc_Eye_bone_id" name="Loc_Eye" sid="Loc_Eye" type="JOINT">
                      <matrix sid="transform">3.1391647E-07 1 0 12.38 -1 3.1391647E-07 0 0 0 0 1 16.741209 0 0 0 1</matrix>
                    </node>
                    <node id="Loc_Mouth_bone_id" name="Loc_Mouth" sid="Loc_Mouth" type="JOINT">
                      <matrix sid="transform">3.1391647E-07 1 0 2.07 -1 3.1391647E-07 0 0 0 0 1 15.327436 0 0 0 1</matrix>
                    </node>
                  </node>
                </node>
                <node id="LShoulder_bone_id" name="LShoulder" sid="LShoulder" type="JOINT">
                  <matrix sid="transform">-0.43339297 0.8953794 -0.10230452 21.680004 -0.90010214 -0.43567896 -3.412489E-07 -7.8 -0.04457223 0.09208436 0.9947531 -0.224455 0 0 0 1</matrix>
                  <node id="LArm_bone_id" name="LArm" sid="LArm" type="JOINT">
                    <matrix sid="transform">0.9001032 -0.43567675 0 16.870005 0.43567675 0.9001032 0 0 0 0 1 0 0 0 0 1</matrix>
                    <node id="LForeArm_bone_id" name="LForeArm" sid="LForeArm" type="JOINT">
                      <matrix sid="transform">1 0 0 24.899923 0 1 0 0 0 0 1 0 0 0 0 1</matrix>
                      <node id="LHand_bone_id" name="LHand" sid="LHand" type="JOINT">
                        <matrix sid="transform">1 0 0 24.900002 0 1 0 4.6E-05 0 0 1 0 0 0 0 1</matrix>
                      </node>
                    </node>
                  </node>
                </node>
                <node id="RShoulder_bone_id" name="RShoulder" sid="RShoulder" type="JOINT">
                  <matrix sid="transform">-0.43339297 -0.8953794 -0.10230452 21.680004 0.90010214 -0.43567896 3.412489E-07 7.8 -0.04457223 -0.09208436 0.9947531 -0.224455 0 0 0 1</matrix>
                  <node id="RArm_bone_id" name="RArm" sid="RArm" type="JOINT">
                    <matrix sid="transform">0.9001023 0.43567857 0 16.87 -0.43567857 0.9001023 0 0 0 0 1 0 0 0 0 1</matrix>
                    <node id="RForeArm_bone_id" name="RForeArm" sid="RForeArm" type="JOINT">
                      <matrix sid="transform">1 0 0 24.8999 0 1 0 0 0 0 1 0 0 0 0 1</matrix>
                      <node id="RHand_bone_id" name="RHand" sid="RHand" type="JOINT">
                        <matrix sid="transform">1 0 0 24.900002 0 1 0 0 0 0 1 0 0 0 0 1</matrix>
                      </node>
                    </node>
                  </node>
                </node>
              </node>
            </node>
            <node id="Hips_bone_id" name="Hips" sid="Hips" type="JOINT">
              <matrix sid="transform">-1 -3.2584137E-07 0 -0.010002 3.2584137E-07 -1 0 0 0 0 1 0 0 0 0 1</matrix>
              <node id="LThigh_bone_id" name="LThigh" sid="LThigh" type="JOINT">
                <matrix sid="transform">1 0 0 13.100006 0 1 0 12.4 0 0 1 0 0 0 0 1</matrix>
                <node id="LLeg_bone_id" name="LLeg" sid="LLeg" type="JOINT">
                  <matrix sid="transform">1 0 0 30 0 1 0 0 0 0 1 0 0 0 0 1</matrix>
                  <node id="LFoot_bone_id" name="LFoot" sid="LFoot" type="JOINT">
                    <matrix sid="transform">3.1391647E-07 0 -1 30 0 1 0 0 1 0 3.1391647E-07 0 0 0 0 1</matrix>
                  </node>
                </node>
              </node>
              <node id="RThigh_bone_id" name="RThigh" sid="RThigh" type="JOINT">
                <matrix sid="transform">1 0 0 13.099998 0 1 0 -12.4 0 0 1 0 0 0 0 1</matrix>
                <node id="RLeg_bone_id" name="RLeg" sid="RLeg" type="JOINT">
                  <matrix sid="transform">1 0 0 30 0 1 0 0 0 0 1 0 0 0 0 1</matrix>
                  <node id="RFoot_bone_id" name="RFoot" sid="RFoot" type="JOINT">
                    <matrix sid="transform">3.1391647E-07 0 -1 30 0 1 0 0 1 0 3.1391647E-07 0 0 0 0 1</matrix>
                  </node>
                </node>
              </node>
            </node>
          </node>
          <node id="CamTgtHead_bone_id" name="CamTgtHead" sid="CamTgtHead" type="JOINT">
            <matrix sid="transform">1 0 0 0 0 1 0 161.76651 0 0 1 0 0 0 0 1</matrix>
          </node>
          <node id="CamTgtBust_bone_id" name="CamTgtBust" sid="CamTgtBust" type="JOINT">
            <matrix sid="transform">1 0 0 0 0 1 0 120.8 0 0 1 0 0 0 0 1</matrix>
          </node>
          <node id="CamTgtBody_bone_id" name="CamTgtBody" sid="CamTgtBody" type="JOINT">
            <matrix sid="transform">1 0 0 0 0 1 0 86 0 0 1 0 0 0 0 1</matrix>
          </node>
          <node id="CamTgtFoot_bone_id" name="CamTgtFoot" sid="CamTgtFoot" type="JOINT">
            <matrix sid="transform">1 0 0 0 0 1 0 0 0 0 1 0 0 0 0 1</matrix>
          </node>
        </node>
        <node id="tr0066_00_fi_HairSkin_bone_id" name="tr0066_00_fi_HairSkin" sid="tr0066_00_fi_HairSkin" type="JOINT">
          <matrix sid="transform">1 0 0 0 0 1 0 0 0 0 1 0 0 0 0 1</matrix>
        </node>
        <node id="tr0066_00_fi_FaceSkin_bone_id" name="tr0066_00_fi_FaceSkin" sid="tr0066_00_fi_FaceSkin" type="JOINT">
          <matrix sid="transform">1 0 0 0 0 1 0 0 0 0 1 0 0 0 0 1</matrix>
        </node>
        <node id="tr0066_00_fi_BodySkin_bone_id" name="tr0066_00_fi_BodySkin" sid="tr0066_00_fi_BodySkin" type="JOINT">
          <matrix sid="transform">1 0 0 0 0 1 0 0 0 0 1 0 0 0 0 1</matrix>
        </node>
      </node>
    </visual_scene>
  </library_visual_scenes>
  <scene>
    <instance_visual_scene url="#tr0066_00_fi_00_clip_id" />
  </scene>
</COLLADA>