<?xml version="1.0" encoding="utf-8"?>
<COLLADA xmlns:xsi="http://www.w3.org/2001/XMLSchema-instance" xmlns:xsd="http://www.w3.org/2001/XMLSchema" version="1.4.1" xmlns="http://www.collada.org/2005/11/COLLADASchema">
  <asset>
    <created>2026-02-17T05:46:47.048009-05:00</created>
    <modified>2026-02-17T05:46:47.0480093-05:00</modified>
    <up_axis>Y_UP</up_axis>
  </asset>
  <library_animations>
    <animation id="Motion_7_Waist_transform_id" name="Motion_7_Waist_transform">
      <source id="Motion_7_Waist_transform_frame_id" name="Motion_7_Waist_transform_frame">
        <float_array id="Motion_7_Waist_transform_frame_array_id" count="16">0 0.033333335 0.06666667 0.1 0.13333334 0.16666667 0.2 0.23333333 0.26666668 0.3 0.33333334 0.36666667 0.4 0.43333334 0.46666667 0.5</float_array>
        <technique_common>
          <accessor source="#Motion_7_Waist_transform_frame_array_id" count="16" stride="1">
            <param name="TIME" type="float" />
          </accessor>
        </technique_common>
      </source>
      <source id="Motion_7_Waist_transform_interp_id" name="Motion_7_Waist_transform_interp">
        <Name_array id="Motion_7_Waist_transform_interp_array_id" count="16">LINEAR LINEAR LINEAR LINEAR LINEAR LINEAR LINEAR LINEAR LINEAR LINEAR LINEAR LINEAR LINEAR LINEAR LINEAR LINEAR</Name_array>
        <technique_common>
          <accessor source="#Motion_7_Waist_transform_interp_array_id" count="16" stride="1">
            <param name="INTERPOLATION" type="Name" />
          </accessor>
        </technique_common>
      </source>
      <source id="Motion_7_Waist_transform_pose_id" name="Motion_7_Waist_transform_pose">
        <float_array id="Motion_7_Waist_transform_pose_array_id" count="256">-0.01056838 -0.99568605 -0.09218303 -0.7636458 0.9944048 -0.0007748604 -0.10563434 80.16491 0.10510721 -0.09278361 0.99012303 0.7106394 0 0 0 1 -0.010515571 -0.9956861 -0.09218713 -0.7658291 0.9943996 -0.0007171631 -0.1056827 80.16434 0.10516069 -0.092782155 0.9901175 0.7113945 0 0 0 1 -0.010454297 -0.9956867 -0.0921873 -0.7668119 0.99439114 -0.00064849854 -0.10576215 80.163 0.10524617 -0.09277592 0.990109 0.7133857 0 0 0 1 -0.010526538 -0.99568903 -0.0921554 -0.7625974 0.9943789 -0.0007132292 -0.105877504 80.160675 0.10535534 -0.092751905 0.99009967 0.7172389 0 0 0 1 -0.010873556 -0.99569374 -0.09206327 -0.7491886 0.99436194 -0.0010550022 -0.10603361 80.157135 0.10547987 -0.09269719 0.9900915 0.7235802 0 0 0 1 -0.01163733 -0.99570185 -0.09188277 -0.72258884 0.9943394 -0.0018181801 -0.106235206 80.15217 0.10561154 -0.09259896 0.9900867 0.7330355 0 0 0 1 -0.012959719 -0.9957128 -0.0915856 -0.67880094 0.9943091 -0.0031467676 -0.106486835 80.145546 0.10574212 -0.09244443 0.9900872 0.7462307 0 0 0 1 -0.014952421 -0.9957254 -0.091145396 -0.6186206 0.99426806 -0.0051552057 -0.10679179 80.13706 0.10586542 -0.09221975 0.99009496 0.75923705 0 0 0 1 -0.019447923 -0.99571514 -0.09040498 -0.4896231 0.99419236 -0.009686828 -0.107180715 80.12647 0.10584573 -0.09196438 0.9901208 0.76400185 0 0 0 1 -0.024743915 -0.99567455 -0.08955391 -0.23440623 0.9942333 -0.015159607 -0.10616111 80.11358 0.10434431 -0.09166432 0.990308 0.75496507 0 0 0 1 -0.029072523 -0.9956281 -0.08876598 -0.050262958 0.9943663 -0.019750953 -0.10414166 80.098145 0.10193315 -0.091293566 0.9905933 0.73466235 0 0 0 1 -0.032924533 -0.9955718 -0.08804863 0.07776531 0.9945516 -0.023917317 -0.10146401 80.07996 0.09890882 -0.09090958 0.99093515 0.71089196 0 0 0 1 -0.036573887 -0.99549973 -0.0874212 0.16972832 0.99474955 -0.027899742 -0.09846254 80.0588 0.09558041 -0.09056336 0.99129343 0.68598825 0 0 0 1 -0.0395689 -0.9954269 -0.086945415 0.24567586 0.9949448 -0.031212687 -0.095449485 80.03445 0.09229918 -0.09028273 0.9916299 0.6622855 0 0 0 1 -0.04154682 -0.99537253 -0.086645156 0.31668583 0.99513054 -0.03346646 -0.09271084 80.006676 0.08938211 -0.090075076 0.991916 0.642118 0 0 0 1 -0.04154682 -0.99537253 -0.086645156 0.31668583 0.99513054 -0.03346646 -0.09271084 80.006676 0.08938211 -0.090075076 0.991916 0.642118 0 0 0 1</float_array>
        <technique_common>
          <accessor source="#Motion_7_Waist_transform_pose_array_id" count="16" stride="16">
            <param name="TRANSFORM" type="float4x4" />
          </accessor>
        </technique_common>
      </source>
      <sampler id="Motion_7_Waist_transform_samp_id">
        <input semantic="INPUT" source="#Motion_7_Waist_transform_frame_id" />
        <input semantic="INTERPOLATION" source="#Motion_7_Waist_transform_interp_id" />
        <input semantic="OUTPUT" source="#Motion_7_Waist_transform_pose_id" />
      </sampler>
      <channel source="#Motion_7_Waist_transform_samp_id" target="Waist_bone_id/transform" />
    </animation>
    <animation id="Motion_7_Hips_transform_id" name="Motion_7_Hips_transform">
      <source id="Motion_7_Hips_transform_frame_id" name="Motion_7_Hips_transform_frame">
        <float_array id="Motion_7_Hips_transform_frame_array_id" count="16">0 0.033333335 0.06666667 0.1 0.13333334 0.16666667 0.2 0.23333333 0.26666668 0.3 0.33333334 0.36666667 0.4 0.43333334 0.46666667 0.5</float_array>
        <technique_common>
          <accessor source="#Motion_7_Hips_transform_frame_array_id" count="16" stride="1">
            <param name="TIME" type="float" />
          </accessor>
        </technique_common>
      </source>
      <source id="Motion_7_Hips_transform_interp_id" name="Motion_7_Hips_transform_interp">
        <Name_array id="Motion_7_Hips_transform_interp_array_id" count="16">LINEAR LINEAR LINEAR LINEAR LINEAR LINEAR LINEAR LINEAR LINEAR LINEAR LINEAR LINEAR LINEAR LINEAR LINEAR LINEAR</Name_array>
        <technique_common>
          <accessor source="#Motion_7_Hips_transform_interp_array_id" count="16" stride="1">
            <param name="INTERPOLATION" type="Name" />
          </accessor>
        </technique_common>
      </source>
      <source id="Motion_7_Hips_transform_pose_id" name="Motion_7_Hips_transform_pose">
        <float_array id="Motion_7_Hips_transform_pose_array_id" count="256">-1 -1.509958E-07 0 -0.010002 1.509958E-07 -1 0 0 0 0 1 0 0 0 0 1 -1 -1.509958E-07 0 -0.010002 1.509958E-07 -1 0 0 0 0 1 0 0 0 0 1 -1 -1.509958E-07 0 -0.010002 1.509958E-07 -1 0 0 0 0 1 0 0 0 0 1 -1 -1.509958E-07 0 -0.010002 1.509958E-07 -1 0 0 0 0 1 0 0 0 0 1 -1 -1.509958E-07 0 -0.010002 1.509958E-07 -1 0 0 0 0 1 0 0 0 0 1 -1 -1.509958E-07 0 -0.010002 1.509958E-07 -1 0 0 0 0 1 0 0 0 0 1 -1 -1.509958E-07 0 -0.010002 1.509958E-07 -1 0 0 0 0 1 0 0 0 0 1 -1 -1.509958E-07 0 -0.010002 1.509958E-07 -1 0 0 0 0 1 0 0 0 0 1 -1 -1.509958E-07 0 -0.010002 1.509958E-07 -1 0 0 0 0 1 0 0 0 0 1 -1 -1.509958E-07 0 -0.010002 1.509958E-07 -1 0 0 0 0 1 0 0 0 0 1 -1 -1.509958E-07 0 -0.010002 1.509958E-07 -1 0 0 0 0 1 0 0 0 0 1 -1 -1.509958E-07 0 -0.010002 1.509958E-07 -1 0 0 0 0 1 0 0 0 0 1 -1 -1.509958E-07 0 -0.010002 1.509958E-07 -1 0 0 0 0 1 0 0 0 0 1 -1 -1.509958E-07 0 -0.010002 1.509958E-07 -1 0 0 0 0 1 0 0 0 0 1 -1 -1.509958E-07 0 -0.010002 1.509958E-07 -1 0 0 0 0 1 0 0 0 0 1 -1 -1.509958E-07 0 -0.010002 1.509958E-07 -1 0 0 0 0 1 0 0 0 0 1</float_array>
        <technique_common>
          <accessor source="#Motion_7_Hips_transform_pose_array_id" count="16" stride="16">
            <param name="TRANSFORM" type="float4x4" />
          </accessor>
        </technique_common>
      </source>
      <sampler id="Motion_7_Hips_transform_samp_id">
        <input semantic="INPUT" source="#Motion_7_Hips_transform_frame_id" />
        <input semantic="INTERPOLATION" source="#Motion_7_Hips_transform_interp_id" />
        <input semantic="OUTPUT" source="#Motion_7_Hips_transform_pose_id" />
      </sampler>
      <channel source="#Motion_7_Hips_transform_samp_id" target="Hips_bone_id/transform" />
    </animation>
    <animation id="Motion_7_RThigh_transform_id" name="Motion_7_RThigh_transform">
      <source id="Motion_7_RThigh_transform_frame_id" name="Motion_7_RThigh_transform_frame">
        <float_array id="Motion_7_RThigh_transform_frame_array_id" count="16">0 0.033333335 0.06666667 0.1 0.13333334 0.16666667 0.2 0.23333333 0.26666668 0.3 0.33333334 0.36666667 0.4 0.43333334 0.46666667 0.5</float_array>
        <technique_common>
          <accessor source="#Motion_7_RThigh_transform_frame_array_id" count="16" stride="1">
            <param name="TIME" type="float" />
          </accessor>
        </technique_common>
      </source>
      <source id="Motion_7_RThigh_transform_interp_id" name="Motion_7_RThigh_transform_interp">
        <Name_array id="Motion_7_RThigh_transform_interp_array_id" count="16">LINEAR LINEAR LINEAR LINEAR LINEAR LINEAR LINEAR LINEAR LINEAR LINEAR LINEAR LINEAR LINEAR LINEAR LINEAR LINEAR</Name_array>
        <technique_common>
          <accessor source="#Motion_7_RThigh_transform_interp_array_id" count="16" stride="1">
            <param name="INTERPOLATION" type="Name" />
          </accessor>
        </technique_common>
      </source>
      <source id="Motion_7_RThigh_transform_pose_id" name="Motion_7_RThigh_transform_pose">
        <float_array id="Motion_7_RThigh_transform_pose_array_id" count="256">0.98574424 0.011205057 -0.1678772 6.260002 0.046274558 0.94124484 0.33453965 -7.1 0.16176209 -0.33753896 0.9273082 0 0 0 0 1 0.9857455 0.011129791 -0.16787481 6.260002 0.04636123 0.9412087 0.33462933 -7.1 0.1617296 -0.33764222 0.92727625 0 0 0 0 1 0.9857432 0.011043621 -0.16789384 6.260002 0.046462685 0.94117814 0.33470133 -7.1 0.16171433 -0.33773038 0.9272468 0 0 0 0 1 0.98571295 0.011147544 -0.1680646 6.260002 0.04638836 0.941252 0.33450383 -7.1 0.16192004 -0.33752102 0.92728716 0 0 0 0 1 0.98562986 0.011642342 -0.16851763 6.260002 0.045947395 0.9415286 0.33378538 -7.1 0.16255023 -0.33673182 0.9274638 0 0 0 0 1 0.98546785 0.012727933 -0.1693846 6.260002 0.044947676 0.94210416 0.33229426 -7.1 0.16380736 -0.33507875 0.92784125 0 0 0 0 1 0.9851976 0.014602416 -0.17079952 6.260002 0.043194395 0.94306946 0.32977906 -7.1 0.16589138 -0.33227512 0.928479 0 0 0 0 1 0.9847068 0.017700683 -0.17331801 6.260002 0.040347718 0.9446094 0.32570708 -7.1 0.16948308 -0.32771897 0.9294492 0 0 0 0 1 0.9840034 0.02316285 -0.17663734 6.260002 0.034885142 0.9472628 0.3185533 -7.1 0.17470057 -0.31961957 0.93130183 0 0 0 0 1 0.9832038 0.03157447 -0.17975911 6.260002 0.025675537 0.95119816 0.30751076 -7.1 0.18069601 -0.30696115 0.9344109 0 0 0 0 1 0.98246825 0.038191423 -0.18247625 6.260002 0.018432131 0.9540975 0.29892835 -7.1 0.18551666 -0.29705104 0.93666655 0 0 0 0 1 0.9818797 0.0434762 -0.18445069 6.260002 0.012495994 0.95635545 0.29193854 -7.1 0.18909279 -0.28895342 0.9384827 0 0 0 0 1 0.9813706 0.04757806 -0.18613982 6.260002 0.007782044 0.9582125 0.28595144 -7.1 0.19196653 -0.2820729 0.93999135 0 0 0 0 1 0.9809326 0.05065991 -0.18762954 6.260002 0.0042177234 0.9596527 0.28115627 -7.1 0.19430254 -0.27658674 0.94114095 0 0 0 0 1 0.9805503 0.052896943 -0.18900527 6.260002 0.0017419904 0.96061295 0.2778843 -7.1 0.19626014 -0.2728088 0.9418372 0 0 0 0 1 0.9805503 0.052896943 -0.18900527 6.260002 0.0017419904 0.96061295 0.2778843 -7.1 0.19626014 -0.2728088 0.9418372 0 0 0 0 1</float_array>
        <technique_common>
          <accessor source="#Motion_7_RThigh_transform_pose_array_id" count="16" stride="16">
            <param name="TRANSFORM" type="float4x4" />
          </accessor>
        </technique_common>
      </source>
      <sampler id="Motion_7_RThigh_transform_samp_id">
        <input semantic="INPUT" source="#Motion_7_RThigh_transform_frame_id" />
        <input semantic="INTERPOLATION" source="#Motion_7_RThigh_transform_interp_id" />
        <input semantic="OUTPUT" source="#Motion_7_RThigh_transform_pose_id" />
      </sampler>
      <channel source="#Motion_7_RThigh_transform_samp_id" target="RThigh_bone_id/transform" />
    </animation>
    <animation id="Motion_7_RLeg_transform_id" name="Motion_7_RLeg_transform">
      <source id="Motion_7_RLeg_transform_frame_id" name="Motion_7_RLeg_transform_frame">
        <float_array id="Motion_7_RLeg_transform_frame_array_id" count="16">0 0.033333335 0.06666667 0.1 0.13333334 0.16666667 0.2 0.23333333 0.26666668 0.3 0.33333334 0.36666667 0.4 0.43333334 0.46666667 0.5</float_array>
        <technique_common>
          <accessor source="#Motion_7_RLeg_transform_frame_array_id" count="16" stride="1">
            <param name="TIME" type="float" />
          </accessor>
        </technique_common>
      </source>
      <source id="Motion_7_RLeg_transform_interp_id" name="Motion_7_RLeg_transform_interp">
        <Name_array id="Motion_7_RLeg_transform_interp_array_id" count="16">LINEAR LINEAR LINEAR LINEAR LINEAR LINEAR LINEAR LINEAR LINEAR LINEAR LINEAR LINEAR LINEAR LINEAR LINEAR LINEAR</Name_array>
        <technique_common>
          <accessor source="#Motion_7_RLeg_transform_interp_array_id" count="16" stride="1">
            <param name="INTERPOLATION" type="Name" />
          </accessor>
        </technique_common>
      </source>
      <source id="Motion_7_RLeg_transform_pose_id" name="Motion_7_RLeg_transform_pose">
        <float_array id="Motion_7_RLeg_transform_pose_array_id" count="256">0.9759919 0 0.2178069 32.800003 0 1 0 0 -0.2178069 0 0.9759919 0 0 0 0 1 0.97601205 0 0.21771652 32.800003 0 1 0 0 -0.21771652 0 0.97601205 0 0 0 0 1 0.9760212 0 0.2176757 32.800003 0 1 0 0 -0.2176757 0 0.9760212 0 0 0 0 1 0.97593534 0 0.21806014 32.800003 0 1 0 0 -0.21806014 0 0.97593534 0 0 0 0 1 0.97566974 0 0.2192453 32.800003 0 1 0 0 -0.2192453 0 0.97566974 0 0 0 0 1 0.97513634 0 0.22160588 32.800003 0 1 0 0 -0.22160588 0 0.97513634 0 0 0 0 1 0.9742397 0 0.22551493 32.800003 0 1 0 0 -0.22551493 0 0.9742397 0 0 0 0 1 0.97275865 0 0.23182023 32.800003 0 1 0 0 -0.23182023 0 0.97275865 0 0 0 0 1 0.9703491 0 0.24170794 32.800003 0 1 0 0 -0.24170794 0 0.9703491 0 0 0 0 1 0.9669309 0 0.25503832 32.800003 0 1 0 0 -0.25503832 0 0.9669309 0 0 0 0 1 0.9637356 0 0.26685902 32.800003 0 1 0 0 -0.26685902 0 0.9637356 0 0 0 0 1 0.9605841 0 0.2779896 32.800003 0 1 0 0 -0.2779896 0 0.9605841 0 0 0 0 1 0.95748705 0 0.28847632 32.800003 0 1 0 0 -0.28847632 0 0.95748705 0 0 0 0 1 0.95445186 0 0.29836488 32.800003 0 1 0 0 -0.29836488 0 0.95445186 0 0 0 0 1 0.9516222 0 0.3072705 32.800003 0 1 0 0 -0.3072705 0 0.9516222 0 0 0 0 1 0.9516222 0 0.3072705 32.800003 0 1 0 0 -0.3072705 0 0.9516222 0 0 0 0 1</float_array>
        <technique_common>
          <accessor source="#Motion_7_RLeg_transform_pose_array_id" count="16" stride="16">
            <param name="TRANSFORM" type="float4x4" />
          </accessor>
        </technique_common>
      </source>
      <sampler id="Motion_7_RLeg_transform_samp_id">
        <input semantic="INPUT" source="#Motion_7_RLeg_transform_frame_id" />
        <input semantic="INTERPOLATION" source="#Motion_7_RLeg_transform_interp_id" />
        <input semantic="OUTPUT" source="#Motion_7_RLeg_transform_pose_id" />
      </sampler>
      <channel source="#Motion_7_RLeg_transform_samp_id" target="RLeg_bone_id/transform" />
    </animation>
    <animation id="Motion_7_RFoot_transform_id" name="Motion_7_RFoot_transform">
      <source id="Motion_7_RFoot_transform_frame_id" name="Motion_7_RFoot_transform_frame">
        <float_array id="Motion_7_RFoot_transform_frame_array_id" count="16">0 0.033333335 0.06666667 0.1 0.13333334 0.16666667 0.2 0.23333333 0.26666668 0.3 0.33333334 0.36666667 0.4 0.43333334 0.46666667 0.5</float_array>
        <technique_common>
          <accessor source="#Motion_7_RFoot_transform_frame_array_id" count="16" stride="1">
            <param name="TIME" type="float" />
          </accessor>
        </technique_common>
      </source>
      <source id="Motion_7_RFoot_transform_interp_id" name="Motion_7_RFoot_transform_interp">
        <Name_array id="Motion_7_RFoot_transform_interp_array_id" count="16">LINEAR LINEAR LINEAR LINEAR LINEAR LINEAR LINEAR LINEAR LINEAR LINEAR LINEAR LINEAR LINEAR LINEAR LINEAR LINEAR</Name_array>
        <technique_common>
          <accessor source="#Motion_7_RFoot_transform_interp_array_id" count="16" stride="1">
            <param name="INTERPOLATION" type="Name" />
          </accessor>
        </technique_common>
      </source>
      <source id="Motion_7_RFoot_transform_pose_id" name="Motion_7_RFoot_transform_pose">
        <float_array id="Motion_7_RFoot_transform_pose_array_id" count="256">-0.15174961 0.0002085045 -0.98841906 32.8 -0.1630655 0.98629224 0.025243081 0 0.97487533 0.16500765 -0.14963543 0 0 0 0 1 -0.15163863 0.00017502159 -0.9884359 32.8 -0.163205 0.98626995 0.025212377 0 0.9748691 0.16514087 -0.14952815 0 0 0 0 1 -0.15143454 6.900728E-05 -0.9884673 32.8 -0.16343768 0.9862341 0.025107719 0 0.9748619 0.16535497 -0.1493386 0 0 0 0 1 -0.15144622 -0.00013783574 -0.9884654 32.8 -0.1634274 0.98624104 0.024901763 0 0.97486174 0.16531362 -0.14938498 0 0 0 0 1 -0.1519835 -0.0004736483 -0.98838294 32.8 -0.16283832 0.98634684 0.024566948 0 0.97487676 0.16468039 -0.14998555 0 0 0 0 1 -0.15335631 -0.00096496195 -0.98817056 32.8 -0.1613352 0.986606 0.024074502 0 0.97491175 0.16311866 -0.1514579 0 0 0 0 1 -0.15587676 -0.0016346052 -0.9877751 32.8 -0.15858394 0.98706836 0.023392051 0 0.9749633 0.16029155 -0.1541202 0 0 0 0 1 -0.15985239 -0.0025523007 -0.9871376 32.8 -0.15419888 0.9877855 0.022416256 0 0.975023 0.15579882 -0.15829349 0 0 0 0 1 -0.16548502 -0.004420191 -0.9862024 32.8 -0.1465322 0.98900056 0.0201554 0 0.9752657 0.14784582 -0.16431248 0 0 0 0 1 -0.17178774 -0.008431017 -0.9850978 32.8 -0.13508601 0.99071914 0.015078057 0 0.9758281 0.13566318 -0.17133236 0 0 0 0 1 -0.17810428 -0.010981698 -0.9839504 32.8 -0.12562148 0.99200964 0.011667017 0 0.97596014 0.12568325 -0.17806065 0 0 0 0 1 -0.18423271 -0.01299395 -0.9827968 32.8 -0.11802216 0.9929702 0.008995689 0 0.97577107 0.1176491 -0.18447113 0 0 0 0 1 -0.19004393 -0.014426302 -0.9816696 32.8 -0.111753896 0.99371105 0.007031467 0 0.9753944 0.111041695 -0.19046092 0 0 0 0 1 -0.19541001 -0.0156165175 -0.98059744 32.8 -0.10666442 0.9942803 0.005421266 0 0.974904 0.10565421 -0.19595802 0 0 0 0 1 -0.20024014 -0.016529094 -0.9796074 32.8 -0.10297361 0.9946749 0.004265353 0 0.9743205 0.10172781 -0.200876 0 0 0 0 1 -0.20024014 -0.016529094 -0.9796074 32.8 -0.10297361 0.9946749 0.004265353 0 0.9743205 0.10172781 -0.200876 0 0 0 0 1</float_array>
        <technique_common>
          <accessor source="#Motion_7_RFoot_transform_pose_array_id" count="16" stride="16">
            <param name="TRANSFORM" type="float4x4" />
          </accessor>
        </technique_common>
      </source>
      <sampler id="Motion_7_RFoot_transform_samp_id">
        <input semantic="INPUT" source="#Motion_7_RFoot_transform_frame_id" />
        <input semantic="INTERPOLATION" source="#Motion_7_RFoot_transform_interp_id" />
        <input semantic="OUTPUT" source="#Motion_7_RFoot_transform_pose_id" />
      </sampler>
      <channel source="#Motion_7_RFoot_transform_samp_id" target="RFoot_bone_id/transform" />
    </animation>
    <animation id="Motion_7_LThigh_transform_id" name="Motion_7_LThigh_transform">
      <source id="Motion_7_LThigh_transform_frame_id" name="Motion_7_LThigh_transform_frame">
        <float_array id="Motion_7_LThigh_transform_frame_array_id" count="16">0 0.033333335 0.06666667 0.1 0.13333334 0.16666667 0.2 0.23333333 0.26666668 0.3 0.33333334 0.36666667 0.4 0.43333334 0.46666667 0.5</float_array>
        <technique_common>
          <accessor source="#Motion_7_LThigh_transform_frame_array_id" count="16" stride="1">
            <param name="TIME" type="float" />
          </accessor>
        </technique_common>
      </source>
      <source id="Motion_7_LThigh_transform_interp_id" name="Motion_7_LThigh_transform_interp">
        <Name_array id="Motion_7_LThigh_transform_interp_array_id" count="16">LINEAR LINEAR LINEAR LINEAR LINEAR LINEAR LINEAR LINEAR LINEAR LINEAR LINEAR LINEAR LINEAR LINEAR LINEAR LINEAR</Name_array>
        <technique_common>
          <accessor source="#Motion_7_LThigh_transform_interp_array_id" count="16" stride="1">
            <param name="INTERPOLATION" type="Name" />
          </accessor>
        </technique_common>
      </source>
      <source id="Motion_7_LThigh_transform_pose_id" name="Motion_7_LThigh_transform_pose">
        <float_array id="Motion_7_LThigh_transform_pose_array_id" count="256">0.9875784 -0.08621417 -0.13136244 6.260002 0.06931132 0.98932093 -0.12821876 7.1 0.14101389 0.11752117 0.98300755 0 0 0 0 1 0.987551 -0.086299695 -0.13151222 6.260002 0.06939443 0.989329 -0.12811169 7.1 0.14116487 0.11739061 0.9830015 0 0 0 0 1 0.98750067 -0.08638813 -0.13183147 6.260002 0.069471635 0.98934764 -0.12792557 7.1 0.14147839 0.11716804 0.982983 0 0 0 0 1 0.98745954 -0.08627058 -0.1322158 6.260002 0.069318734 0.989368 -0.12785088 7.1 0.14183986 0.11708253 0.9829411 0 0 0 0 1 0.9874596 -0.08573834 -0.13256103 6.260002 0.06871142 0.989381 -0.12807786 7.1 0.14213455 0.11736327 0.98286504 0 0 0 0 1 0.9875321 -0.084582716 -0.13276345 6.260002 0.067425266 0.9893762 -0.12879685 7.1 0.14224696 0.11823942 0.98274374 0 0 0 0 1 0.98770607 -0.08259462 -0.13272098 6.260002 0.06523608 0.9893395 -0.13019836 7.1 0.1420598 0.119939506 0.98256475 0 0 0 0 1 0.9880184 -0.079399884 -0.13234565 6.260002 0.061756358 0.9892622 -0.13246293 7.1 0.14144209 0.12270262 0.9823127 0 0 0 0 1 0.9885921 -0.07356313 -0.13143125 6.260002 0.05549194 0.9891227 -0.13622381 7.1 0.1400227 0.12737639 0.981921 0 0 0 0 1 0.9894268 -0.064038515 -0.13012953 6.260002 0.045477264 0.9889777 -0.14090757 7.1 0.13771872 0.13349979 0.98143333 0 0 0 0 1 0.9901119 -0.05629608 -0.12848811 6.260002 0.037369452 0.98869276 -0.14522429 7.1 0.13521083 0.13898675 0.9810202 0 0 0 0 1 0.9906664 -0.049699917 -0.12692542 6.260002 0.030567065 0.9884453 -0.14846425 7.1 0.13283749 0.1431988 0.98073864 0 0 0 0 1 0.99107146 -0.04420103 -0.125792 6.260002 0.024895981 0.98820627 -0.15109105 7.1 0.13098681 0.1466103 0.9804835 0 0 0 0 1 0.9912263 -0.039769065 -0.12605098 6.260002 0.020164017 0.9879973 -0.15314934 7.1 0.13062865 0.14926395 0.9801308 0 0 0 0 1 0.99109113 -0.036335483 -0.12813303 6.260002 0.01621899 0.98783237 -0.15467417 7.1 0.13219413 0.15121803 0.9796213 0 0 0 0 1 0.99109113 -0.036335483 -0.12813303 6.260002 0.01621899 0.98783237 -0.15467417 7.1 0.13219413 0.15121803 0.9796213 0 0 0 0 1</float_array>
        <technique_common>
          <accessor source="#Motion_7_LThigh_transform_pose_array_id" count="16" stride="16">
            <param name="TRANSFORM" type="float4x4" />
          </accessor>
        </technique_common>
      </source>
      <sampler id="Motion_7_LThigh_transform_samp_id">
        <input semantic="INPUT" source="#Motion_7_LThigh_transform_frame_id" />
        <input semantic="INTERPOLATION" source="#Motion_7_LThigh_transform_interp_id" />
        <input semantic="OUTPUT" source="#Motion_7_LThigh_transform_pose_id" />
      </sampler>
      <channel source="#Motion_7_LThigh_transform_samp_id" target="LThigh_bone_id/transform" />
    </animation>
    <animation id="Motion_7_LLeg_transform_id" name="Motion_7_LLeg_transform">
      <source id="Motion_7_LLeg_transform_frame_id" name="Motion_7_LLeg_transform_frame">
        <float_array id="Motion_7_LLeg_transform_frame_array_id" count="16">0 0.033333335 0.06666667 0.1 0.13333334 0.16666667 0.2 0.23333333 0.26666668 0.3 0.33333334 0.36666667 0.4 0.43333334 0.46666667 0.5</float_array>
        <technique_common>
          <accessor source="#Motion_7_LLeg_transform_frame_array_id" count="16" stride="1">
            <param name="TIME" type="float" />
          </accessor>
        </technique_common>
      </source>
      <source id="Motion_7_LLeg_transform_interp_id" name="Motion_7_LLeg_transform_interp">
        <Name_array id="Motion_7_LLeg_transform_interp_array_id" count="16">LINEAR LINEAR LINEAR LINEAR LINEAR LINEAR LINEAR LINEAR LINEAR LINEAR LINEAR LINEAR LINEAR LINEAR LINEAR LINEAR</Name_array>
        <technique_common>
          <accessor source="#Motion_7_LLeg_transform_interp_array_id" count="16" stride="1">
            <param name="INTERPOLATION" type="Name" />
          </accessor>
        </technique_common>
      </source>
      <source id="Motion_7_LLeg_transform_pose_id" name="Motion_7_LLeg_transform_pose">
        <float_array id="Motion_7_LLeg_transform_pose_array_id" count="256">0.98769355 0 0.15640162 32.800003 0 1 0 0 -0.15640162 0 0.98769355 0 0 0 0 1 0.98767066 0 0.15654594 32.800003 0 1 0 0 -0.15654594 0 0.98767066 0 0 0 0 1 0.9876226 0 0.15684883 32.800003 0 1 0 0 -0.15684883 0 0.9876226 0 0 0 0 1 0.9875721 0 0.15716687 32.800003 0 1 0 0 -0.15716687 0 0.9875721 0 0 0 0 1 0.98754185 0 0.15735659 32.800003 0 1 0 0 -0.15735659 0 0.98754185 0 0 0 0 1 0.9875549 0 0.15727456 32.800003 0 1 0 0 -0.15727456 0 0.9875549 0 0 0 0 1 0.987634 0 0.15677729 32.800003 0 1 0 0 -0.15677729 0 0.987634 0 0 0 0 1 0.9877762 0 0.15587866 32.800003 0 1 0 0 -0.15587866 0 0.9877762 0 0 0 0 1 0.9884234 0 0.15172063 32.800003 0 1 0 0 -0.15172063 0 0.9884234 0 0 0 0 1 0.98898804 0 0.14799556 32.800003 0 1 0 0 -0.14799556 0 0.98898804 0 0 0 0 1 0.9891808 0 0.14670143 32.800003 0 1 0 0 -0.14670143 0 0.9891808 0 0 0 0 1 0.9892502 0 0.14623298 32.800003 0 1 0 0 -0.14623298 0 0.9892502 0 0 0 0 1 0.9891173 0 0.14712879 32.800003 0 1 0 0 -0.14712879 0 0.9891173 0 0 0 0 1 0.98854005 0 0.15095873 32.800003 0 1 0 0 -0.15095873 0 0.98854005 0 0 0 0 1 0.98732644 0 0.1587026 32.800003 0 1 0 0 -0.1587026 0 0.98732644 0 0 0 0 1 0.98732644 0 0.1587026 32.800003 0 1 0 0 -0.1587026 0 0.98732644 0 0 0 0 1</float_array>
        <technique_common>
          <accessor source="#Motion_7_LLeg_transform_pose_array_id" count="16" stride="16">
            <param name="TRANSFORM" type="float4x4" />
          </accessor>
        </technique_common>
      </source>
      <sampler id="Motion_7_LLeg_transform_samp_id">
        <input semantic="INPUT" source="#Motion_7_LLeg_transform_frame_id" />
        <input semantic="INTERPOLATION" source="#Motion_7_LLeg_transform_interp_id" />
        <input semantic="OUTPUT" source="#Motion_7_LLeg_transform_pose_id" />
      </sampler>
      <channel source="#Motion_7_LLeg_transform_samp_id" target="LLeg_bone_id/transform" />
    </animation>
    <animation id="Motion_7_LFoot_transform_id" name="Motion_7_LFoot_transform">
      <source id="Motion_7_LFoot_transform_frame_id" name="Motion_7_LFoot_transform_frame">
        <float_array id="Motion_7_LFoot_transform_frame_array_id" count="16">0 0.033333335 0.06666667 0.1 0.13333334 0.16666667 0.2 0.23333333 0.26666668 0.3 0.33333334 0.36666667 0.4 0.43333334 0.46666667 0.5</float_array>
        <technique_common>
          <accessor source="#Motion_7_LFoot_transform_frame_array_id" count="16" stride="1">
            <param name="TIME" type="float" />
          </accessor>
        </technique_common>
      </source>
      <source id="Motion_7_LFoot_transform_interp_id" name="Motion_7_LFoot_transform_interp">
        <Name_array id="Motion_7_LFoot_transform_interp_array_id" count="16">LINEAR LINEAR LINEAR LINEAR LINEAR LINEAR LINEAR LINEAR LINEAR LINEAR LINEAR LINEAR LINEAR LINEAR LINEAR LINEAR</Name_array>
        <technique_common>
          <accessor source="#Motion_7_LFoot_transform_interp_array_id" count="16" stride="1">
            <param name="INTERPOLATION" type="Name" />
          </accessor>
        </technique_common>
      </source>
      <source id="Motion_7_LFoot_transform_pose_id" name="Motion_7_LFoot_transform_pose">
        <float_array id="Motion_7_LFoot_transform_pose_array_id" count="256">-0.12380147 0.083344296 -0.98880064 32.8 0.07761517 0.99422705 0.074083954 0 0.9892669 -0.06757423 -0.12955558 0 0 0 0 1 -0.12399411 0.0834536 -0.98876745 32.8 0.07759402 0.99422127 0.07418343 0 0.9892445 -0.06752414 -0.12975311 0 0 0 0 1 -0.12439489 0.08368861 -0.9886972 32.8 0.07755678 0.9942082 0.07439714 0 0.989197 -0.06742554 -0.13016498 0 0 0 0 1 -0.12482703 0.08390038 -0.98862463 32.8 0.077649325 0.9941882 0.07456825 0 0.9891352 -0.06745789 -0.13061643 0 0 0 0 1 -0.1251142 0.08394012 -0.9885852 32.8 0.07801728 0.9941615 0.07453983 0 0.98907024 -0.06780074 -0.13093245 0 0 0 0 1 -0.12507892 0.08365895 -0.9886134 32.8 0.07880622 0.99412805 0.07415509 0 0.98901206 -0.06863366 -0.13093734 0 0 0 0 1 -0.12454617 0.08290726 -0.98874396 32.8 0.08016233 0.99408615 0.07325763 0 0.98897034 -0.07013606 -0.13045573 0 0 0 0 1 -0.12334263 0.08153354 -0.98900896 32.8 0.082233176 0.9940312 0.071691975 0 0.988951 -0.07248667 -0.1293112 0 0 0 0 1 -0.121301174 0.07890257 -0.98947483 32.8 0.08564937 0.99394983 0.06875953 0 0.9889137 -0.07640728 -0.1273253 0 0 0 0 1 -0.118924975 0.07539119 -0.99003685 32.8 0.09006111 0.9938219 0.064861126 0 0.9888103 -0.08145022 -0.12498009 0 0 0 0 1 -0.11705613 0.07237783 -0.9904845 32.8 0.09413694 0.99365884 0.06148464 0 0.9886538 -0.08604402 -0.12312722 0 0 0 0 1 -0.11604178 0.0703817 -0.99074745 32.8 0.097273275 0.9934964 0.05918379 0 0.9884695 -0.089505464 -0.122133374 0 0 0 0 1 -0.11624944 0.0689416 -0.9908245 32.8 0.09978347 0.9933516 0.057410244 0 0.988195 -0.092194006 -0.1223557 0 0 0 0 1 -0.118041396 0.06796198 -0.99068016 32.8 0.101692565 0.9932373 0.056020528 0 0.9877878 -0.094132066 -0.12415433 0 0 0 0 1 -0.12178314 0.06734539 -0.99026936 32.8 0.10302643 0.99316394 0.054872066 0 0.9871952 -0.09534143 -0.12788892 0 0 0 0 1 -0.12178314 0.06734539 -0.99026936 32.8 0.10302643 0.99316394 0.054872066 0 0.9871952 -0.09534143 -0.12788892 0 0 0 0 1</float_array>
        <technique_common>
          <accessor source="#Motion_7_LFoot_transform_pose_array_id" count="16" stride="16">
            <param name="TRANSFORM" type="float4x4" />
          </accessor>
        </technique_common>
      </source>
      <sampler id="Motion_7_LFoot_transform_samp_id">
        <input semantic="INPUT" source="#Motion_7_LFoot_transform_frame_id" />
        <input semantic="INTERPOLATION" source="#Motion_7_LFoot_transform_interp_id" />
        <input semantic="OUTPUT" source="#Motion_7_LFoot_transform_pose_id" />
      </sampler>
      <channel source="#Motion_7_LFoot_transform_samp_id" target="LFoot_bone_id/transform" />
    </animation>
    <animation id="Motion_7_Spine2_transform_id" name="Motion_7_Spine2_transform">
      <source id="Motion_7_Spine2_transform_frame_id" name="Motion_7_Spine2_transform_frame">
        <float_array id="Motion_7_Spine2_transform_frame_array_id" count="16">0 0.033333335 0.06666667 0.1 0.13333334 0.16666667 0.2 0.23333333 0.26666668 0.3 0.33333334 0.36666667 0.4 0.43333334 0.46666667 0.5</float_array>
        <technique_common>
          <accessor source="#Motion_7_Spine2_transform_frame_array_id" count="16" stride="1">
            <param name="TIME" type="float" />
          </accessor>
        </technique_common>
      </source>
      <source id="Motion_7_Spine2_transform_interp_id" name="Motion_7_Spine2_transform_interp">
        <Name_array id="Motion_7_Spine2_transform_interp_array_id" count="16">LINEAR LINEAR LINEAR LINEAR LINEAR LINEAR LINEAR LINEAR LINEAR LINEAR LINEAR LINEAR LINEAR LINEAR LINEAR LINEAR</Name_array>
        <technique_common>
          <accessor source="#Motion_7_Spine2_transform_interp_array_id" count="16" stride="1">
            <param name="INTERPOLATION" type="Name" />
          </accessor>
        </technique_common>
      </source>
      <source id="Motion_7_Spine2_transform_pose_id" name="Motion_7_Spine2_transform_pose">
        <float_array id="Motion_7_Spine2_transform_pose_array_id" count="256">0.98827434 0.017052997 0.15173344 12.800003 -0.0073159924 0.9978909 -0.0645001 0 -0.15251334 0.062633716 0.9863147 0 0 0 0 1 0.9882634 0.016980888 0.15181243 12.800003 -0.0072320276 0.9978889 -0.06453946 0 -0.15258789 0.062684074 0.9863 0 0 0 0 1 0.98824406 0.016881289 0.15194963 12.800003 -0.007104428 0.99788225 -0.06465715 0 -0.15271933 0.06281753 0.98627114 0 0 0 0 1 0.98822594 0.016903453 0.152065 12.800003 -0.007085103 0.997868 -0.06487839 0 -0.15283747 0.06303711 0.98623884 0 0 0 0 1 0.9882188 0.017196588 0.15207858 12.800003 -0.0073259673 0.99784344 -0.06522841 0 -0.15287234 0.06334581 0.9862136 0 0 0 0 1 0.988232 0.017909836 0.15191013 12.800003 -0.00797902 0.9978054 -0.06573234 0 -0.15275401 0.06374671 0.9862062 0 0 0 0 1 0.98827416 0.019192215 0.15147905 12.800003 -0.009196378 0.9977497 -0.06641502 0 -0.15241282 0.06424319 0.98622674 0 0 0 0 1 0.9883439 0.02119424 0.1507553 12.800003 -0.011128632 0.99767065 -0.06730081 0 -0.15183054 0.06483865 0.9862776 0 0 0 0 1 0.9887561 0.02414644 0.14757475 12.800003 -0.0142129045 0.9975841 -0.06799949 0 -0.14886019 0.06513744 0.98671055 0 0 0 0 1 0.9898312 0.027980518 0.13946795 12.800003 -0.018593509 0.99750113 -0.068160184 0 -0.14102659 0.06487388 0.98787796 0 0 0 0 1 0.99121535 0.032476112 0.12820841 12.800003 -0.023899326 0.9974073 -0.067878015 0 -0.13008042 0.064217634 0.98942167 0 0 0 0 1 0.993136 0.037263263 0.110870786 12.800003 -0.029917706 0.9972912 -0.06719511 0 -0.11307437 0.063416876 0.99156064 0 0 0 0 1 0.9949836 0.04216765 0.09071641 12.800003 -0.036221117 0.9971469 -0.06622751 0 -0.093250245 0.062609434 0.9936722 0 0 0 0 1 0.9962664 0.04694953 0.072449274 12.800003 -0.042227782 0.9969663 -0.065383315 0 -0.075299196 0.062079832 0.9952267 0 0 0 0 1 0.99684817 0.050949186 0.060810678 12.800003 -0.046976686 0.9967751 -0.065058656 0 -0.06392925 0.061996914 0.9960268 0 0 0 0 1 0.99684817 0.050949186 0.060810678 12.800003 -0.046976686 0.9967751 -0.065058656 0 -0.06392925 0.061996914 0.9960268 0 0 0 0 1</float_array>
        <technique_common>
          <accessor source="#Motion_7_Spine2_transform_pose_array_id" count="16" stride="16">
            <param name="TRANSFORM" type="float4x4" />
          </accessor>
        </technique_common>
      </source>
      <sampler id="Motion_7_Spine2_transform_samp_id">
        <input semantic="INPUT" source="#Motion_7_Spine2_transform_frame_id" />
        <input semantic="INTERPOLATION" source="#Motion_7_Spine2_transform_interp_id" />
        <input semantic="OUTPUT" source="#Motion_7_Spine2_transform_pose_id" />
      </sampler>
      <channel source="#Motion_7_Spine2_transform_samp_id" target="Spine2_bone_id/transform" />
    </animation>
    <animation id="Motion_7_Spine3_transform_id" name="Motion_7_Spine3_transform">
      <source id="Motion_7_Spine3_transform_frame_id" name="Motion_7_Spine3_transform_frame">
        <float_array id="Motion_7_Spine3_transform_frame_array_id" count="16">0 0.033333335 0.06666667 0.1 0.13333334 0.16666667 0.2 0.23333333 0.26666668 0.3 0.33333334 0.36666667 0.4 0.43333334 0.46666667 0.5</float_array>
        <technique_common>
          <accessor source="#Motion_7_Spine3_transform_frame_array_id" count="16" stride="1">
            <param name="TIME" type="float" />
          </accessor>
        </technique_common>
      </source>
      <source id="Motion_7_Spine3_transform_interp_id" name="Motion_7_Spine3_transform_interp">
        <Name_array id="Motion_7_Spine3_transform_interp_array_id" count="16">LINEAR LINEAR LINEAR LINEAR LINEAR LINEAR LINEAR LINEAR LINEAR LINEAR LINEAR LINEAR LINEAR LINEAR LINEAR LINEAR</Name_array>
        <technique_common>
          <accessor source="#Motion_7_Spine3_transform_interp_array_id" count="16" stride="1">
            <param name="INTERPOLATION" type="Name" />
          </accessor>
        </technique_common>
      </source>
      <source id="Motion_7_Spine3_transform_pose_id" name="Motion_7_Spine3_transform_pose">
        <float_array id="Motion_7_Spine3_transform_pose_array_id" count="256">0.9882423 -0.021098502 0.1514329 12.800003 0.02230047 0.99973184 -0.0062431865 0 -0.15126055 0.009546806 0.98844784 0 0 0 0 1 0.988344 -0.021204704 0.15075299 12.800003 0.022417529 0.9997285 -0.0063499925 0 -0.15057743 0.009655487 0.9885511 0 0 0 0 1 0.9884951 -0.021355135 0.14973785 12.800003 0.02258215 0.99972385 -0.006498728 0 -0.14955772 0.009805363 0.9887044 0 0 0 0 1 0.98868567 -0.021536482 0.14844821 12.800003 0.022779195 0.99971825 -0.0066760574 0 -0.1482626 0.009982053 0.9888976 0 0 0 0 1 0.98890585 -0.021735393 0.14694478 12.800003 0.022993535 0.999712 -0.0068686157 0 -0.14675318 0.010171194 0.98912084 0 0 0 0 1 0.9891461 -0.021938471 0.14528824 12.800003 0.023210103 0.9997057 -0.007062983 0 -0.14509054 0.010358477 0.98936415 0 0 0 0 1 0.9893971 -0.022132238 0.1435394 12.800003 0.023413884 0.9996996 -0.0072456603 0 -0.14333591 0.01052965 0.98961806 0 0 0 0 1 0.9896382 -0.022302685 0.14184079 12.800003 0.023590224 0.9996943 -0.007402092 0 -0.14163235 0.01067145 0.9898618 0 0 0 0 1 0.9898417 -0.022435375 0.1403927 12.800003 0.02372475 0.9996903 -0.007516918 0 -0.14018057 0.010771341 0.99006736 0 0 0 0 1 0.98998827 -0.022516122 0.13934223 12.800003 0.023802971 0.99968797 -0.00757535 0 -0.1391282 0.010816267 0.9902153 0 0 0 0 1 0.99005896 -0.022530751 0.13883671 12.800003 0.023810385 0.9996879 -0.007562599 0 -0.138623 0.010793175 0.9902864 0 0 0 0 1 0.9900343 -0.022465175 0.13902332 12.800003 0.0237324 0.9996905 -0.0074639665 0 -0.13881262 0.010688939 0.99026096 0 0 0 0 1 0.9898933 -0.022305513 0.14004907 12.800003 0.023554238 0.99969614 -0.0072649363 0 -0.13984448 0.010490261 0.9901179 0 0 0 0 1 0.9896126 -0.022038199 0.14206073 12.800003 0.023260836 0.99970526 -0.006951327 0 -0.14186567 0.010183572 0.98983353 0 0 0 0 1 0.98916477 -0.021642877 0.1452055 12.800003 0.0228439 0.9997172 -0.0066087367 0 -0.14502141 0.009854189 0.98937947 0 0 0 0 1 0.98916477 -0.021642877 0.1452055 12.800003 0.0228439 0.9997172 -0.0066087367 0 -0.14502141 0.009854189 0.98937947 0 0 0 0 1</float_array>
        <technique_common>
          <accessor source="#Motion_7_Spine3_transform_pose_array_id" count="16" stride="16">
            <param name="TRANSFORM" type="float4x4" />
          </accessor>
        </technique_common>
      </source>
      <sampler id="Motion_7_Spine3_transform_samp_id">
        <input semantic="INPUT" source="#Motion_7_Spine3_transform_frame_id" />
        <input semantic="INTERPOLATION" source="#Motion_7_Spine3_transform_interp_id" />
        <input semantic="OUTPUT" source="#Motion_7_Spine3_transform_pose_id" />
      </sampler>
      <channel source="#Motion_7_Spine3_transform_samp_id" target="Spine3_bone_id/transform" />
    </animation>
    <animation id="Motion_7_RShoulder_transform_id" name="Motion_7_RShoulder_transform">
      <source id="Motion_7_RShoulder_transform_frame_id" name="Motion_7_RShoulder_transform_frame">
        <float_array id="Motion_7_RShoulder_transform_frame_array_id" count="16">0 0.033333335 0.06666667 0.1 0.13333334 0.16666667 0.2 0.23333333 0.26666668 0.3 0.33333334 0.36666667 0.4 0.43333334 0.46666667 0.5</float_array>
        <technique_common>
          <accessor source="#Motion_7_RShoulder_transform_frame_array_id" count="16" stride="1">
            <param name="TIME" type="float" />
          </accessor>
        </technique_common>
      </source>
      <source id="Motion_7_RShoulder_transform_interp_id" name="Motion_7_RShoulder_transform_interp">
        <Name_array id="Motion_7_RShoulder_transform_interp_array_id" count="16">LINEAR LINEAR LINEAR LINEAR LINEAR LINEAR LINEAR LINEAR LINEAR LINEAR LINEAR LINEAR LINEAR LINEAR LINEAR LINEAR</Name_array>
        <technique_common>
          <accessor source="#Motion_7_RShoulder_transform_interp_array_id" count="16" stride="1">
            <param name="INTERPOLATION" type="Name" />
          </accessor>
        </technique_common>
      </source>
      <source id="Motion_7_RShoulder_transform_pose_id" name="Motion_7_RShoulder_transform_pose">
        <float_array id="Motion_7_RShoulder_transform_pose_array_id" count="256">-0.6923325 -0.7176322 -0.075361714 12.810532 0.71935594 -0.6946161 0.005909933 3.840002 -0.056588635 -0.050120264 0.99713874 -0.10929876 0 0 0 1 -0.6920352 -0.71789473 -0.07559198 12.810532 0.7194001 -0.6945256 0.009868881 3.840002 -0.059585392 -0.047551267 0.99709 -0.10929876 0 0 0 1 -0.6915779 -0.7182735 -0.07617809 12.810532 0.71925235 -0.6944984 0.018651221 3.840002 -0.06630224 -0.041892495 0.99691975 -0.10929876 0 0 0 1 -0.6911298 -0.7186201 -0.07696985 12.810532 0.71900135 -0.6944581 0.027651558 3.840002 -0.073323324 -0.03623061 0.9966499 -0.10929876 0 0 0 1 -0.69081736 -0.7188285 -0.077824645 12.810532 0.71889216 -0.69437206 0.0322674 3.840002 -0.07723399 -0.03365665 0.99644476 -0.10929876 0 0 0 1 -0.6909267 -0.71858245 -0.079118244 12.810532 0.7196824 -0.69404995 0.018761802 3.840002 -0.06839391 -0.043976974 0.99668866 -0.10929876 0 0 0 1 -0.6913072 -0.7179531 -0.08147425 12.810532 0.7205303 -0.693416 -0.0032853894 3.840002 -0.054136775 -0.060975876 0.99667 -0.10929876 0 0 0 1 -0.6912333 -0.7173058 -0.08756961 12.810532 0.7215804 -0.69167423 -0.030129468 3.840002 -0.038957626 -0.08401503 0.9957027 -0.10929876 0 0 0 1 -0.68919957 -0.71799105 -0.09743275 12.810532 0.7237795 -0.68848 -0.046247724 3.840002 -0.033875044 -0.10239373 0.994167 -0.10929876 0 0 0 1 -0.6871314 -0.71745086 -0.114518404 12.810532 0.72642577 -0.6811503 -0.09132184 3.840002 -0.012485325 -0.14593923 0.9892148 -0.10929876 0 0 0 1 -0.6850004 -0.71749943 -0.12636954 12.810532 0.7284171 -0.67127764 -0.13709573 3.840002 0.013537079 -0.18596034 0.982464 -0.10929876 0 0 0 1 -0.6829413 -0.71761274 -0.13646626 12.810532 0.729491 -0.660331 -0.17834114 3.840002 0.037866957 -0.22134747 0.9744595 -0.10929876 0 0 0 1 -0.6802443 -0.71835005 -0.14574225 12.810532 0.731079 -0.650597 -0.20554087 3.840002 0.05283083 -0.24636713 0.9677356 -0.10929876 0 0 0 1 -0.678092 -0.71861106 -0.15423767 12.810532 0.7322584 -0.64250755 -0.22579107 3.840002 0.06315708 -0.26604894 0.9618883 -0.10929876 0 0 0 1 -0.6768513 -0.71855754 -0.15983482 12.810532 0.7328146 -0.6371845 -0.23870145 3.840002 0.069676444 -0.27869472 0.95784885 -0.10929876 0 0 0 1 -0.6768513 -0.71855754 -0.15983482 12.810532 0.7328146 -0.6371845 -0.23870145 3.840002 0.069676444 -0.27869472 0.95784885 -0.10929876 0 0 0 1</float_array>
        <technique_common>
          <accessor source="#Motion_7_RShoulder_transform_pose_array_id" count="16" stride="16">
            <param name="TRANSFORM" type="float4x4" />
          </accessor>
        </technique_common>
      </source>
      <sampler id="Motion_7_RShoulder_transform_samp_id">
        <input semantic="INPUT" source="#Motion_7_RShoulder_transform_frame_id" />
        <input semantic="INTERPOLATION" source="#Motion_7_RShoulder_transform_interp_id" />
        <input semantic="OUTPUT" source="#Motion_7_RShoulder_transform_pose_id" />
      </sampler>
      <channel source="#Motion_7_RShoulder_transform_samp_id" target="RShoulder_bone_id/transform" />
    </animation>
    <animation id="Motion_7_RArm_transform_id" name="Motion_7_RArm_transform">
      <source id="Motion_7_RArm_transform_frame_id" name="Motion_7_RArm_transform_frame">
        <float_array id="Motion_7_RArm_transform_frame_array_id" count="16">0 0.033333335 0.06666667 0.1 0.13333334 0.16666667 0.2 0.23333333 0.26666668 0.3 0.33333334 0.36666667 0.4 0.43333334 0.46666667 0.5</float_array>
        <technique_common>
          <accessor source="#Motion_7_RArm_transform_frame_array_id" count="16" stride="1">
            <param name="TIME" type="float" />
          </accessor>
        </technique_common>
      </source>
      <source id="Motion_7_RArm_transform_interp_id" name="Motion_7_RArm_transform_interp">
        <Name_array id="Motion_7_RArm_transform_interp_array_id" count="16">LINEAR LINEAR LINEAR LINEAR LINEAR LINEAR LINEAR LINEAR LINEAR LINEAR LINEAR LINEAR LINEAR LINEAR LINEAR LINEAR</Name_array>
        <technique_common>
          <accessor source="#Motion_7_RArm_transform_interp_array_id" count="16" stride="1">
            <param name="INTERPOLATION" type="Name" />
          </accessor>
        </technique_common>
      </source>
      <source id="Motion_7_RArm_transform_pose_id" name="Motion_7_RArm_transform_pose">
        <float_array id="Motion_7_RArm_transform_pose_array_id" count="256">0.87552947 -0.47200456 0.1032466 6.70358 0.44774935 0.8729173 0.19374207 0 -0.18157288 -0.1233983 0.97560453 0 0 0 0 1 0.87653464 -0.47090983 0.09965438 6.70358 0.4467607 0.87299293 0.19567378 0 -0.17914227 -0.1269932 0.97559255 0 0 0 0 1 0.87832284 -0.46925357 0.09137868 6.70358 0.4455298 0.87276196 0.19947377 0 -0.17335561 -0.13449046 0.9756332 0 0 0 0 1 0.88007504 -0.46760142 0.08256395 6.70358 0.44466525 0.8725945 0.20211789 0 -0.16655546 -0.14116558 0.9758748 0 0 0 0 1 0.88106436 -0.46663135 0.07733554 6.70358 0.44471657 0.87292635 0.20056617 0 -0.16109869 -0.14231929 0.97662294 0 0 0 0 1 0.88019574 -0.46682456 0.085617065 6.70358 0.44688788 0.8759359 0.18173453 0 -0.15983321 -0.121700734 0.9796133 0 0 0 0 1 0.8789583 -0.46668887 0.09815215 6.70358 0.4517417 0.88073045 0.14227904 0 -0.15284564 -0.08071792 0.98494816 0 0 0 0 1 0.87951136 -0.46663243 0.09334864 6.70358 0.46096498 0.8841203 0.07643669 0 -0.11819926 -0.024196483 0.99269503 0 0 0 0 1 0.88005936 -0.47121936 0.058718406 6.70358 0.47266358 0.88114846 -0.0129052615 0 -0.045658424 0.039111447 0.9981912 0 0 0 0 1 0.87579685 -0.47787732 0.067920044 6.70358 0.4826774 0.8666251 -0.1264258 0 0.001554817 0.1435068 0.9896481 0 0 0 0 1 0.8712439 -0.4856484 0.07127193 6.70358 0.48802614 0.8414973 -0.23176028 0 0.052578866 0.23670231 0.97015846 0 0 0 0 1 0.86696684 -0.4925139 0.0761484 6.70358 0.48870587 0.81024104 -0.32353672 0 0.09764778 0.31770977 0.9431465 0 0 0 0 1 0.86199105 -0.49875668 0.09062665 6.70358 0.49074218 0.7762224 -0.3957915 0 0.12705724 0.38564304 0.9138577 0 0 0 0 1 0.8552293 -0.5060669 0.1117097 6.70358 0.49665174 0.73874235 -0.45562792 0 0.14805354 0.44514716 0.8831332 0 0 0 0 1 0.8512471 -0.5069395 0.13561258 6.70358 0.49958235 0.7037745 -0.505093 0 0.16061088 0.49770856 0.85234404 0 0 0 0 1 0.8512471 -0.5069395 0.13561258 6.70358 0.49958235 0.7037745 -0.505093 0 0.16061088 0.49770856 0.85234404 0 0 0 0 1</float_array>
        <technique_common>
          <accessor source="#Motion_7_RArm_transform_pose_array_id" count="16" stride="16">
            <param name="TRANSFORM" type="float4x4" />
          </accessor>
        </technique_common>
      </source>
      <sampler id="Motion_7_RArm_transform_samp_id">
        <input semantic="INPUT" source="#Motion_7_RArm_transform_frame_id" />
        <input semantic="INTERPOLATION" source="#Motion_7_RArm_transform_interp_id" />
        <input semantic="OUTPUT" source="#Motion_7_RArm_transform_pose_id" />
      </sampler>
      <channel source="#Motion_7_RArm_transform_samp_id" target="RArm_bone_id/transform" />
    </animation>
    <animation id="Motion_7_RForeArm_transform_id" name="Motion_7_RForeArm_transform">
      <source id="Motion_7_RForeArm_transform_frame_id" name="Motion_7_RForeArm_transform_frame">
        <float_array id="Motion_7_RForeArm_transform_frame_array_id" count="16">0 0.033333335 0.06666667 0.1 0.13333334 0.16666667 0.2 0.23333333 0.26666668 0.3 0.33333334 0.36666667 0.4 0.43333334 0.46666667 0.5</float_array>
        <technique_common>
          <accessor source="#Motion_7_RForeArm_transform_frame_array_id" count="16" stride="1">
            <param name="TIME" type="float" />
          </accessor>
        </technique_common>
      </source>
      <source id="Motion_7_RForeArm_transform_interp_id" name="Motion_7_RForeArm_transform_interp">
        <Name_array id="Motion_7_RForeArm_transform_interp_array_id" count="16">LINEAR LINEAR LINEAR LINEAR LINEAR LINEAR LINEAR LINEAR LINEAR LINEAR LINEAR LINEAR LINEAR LINEAR LINEAR LINEAR</Name_array>
        <technique_common>
          <accessor source="#Motion_7_RForeArm_transform_interp_array_id" count="16" stride="1">
            <param name="INTERPOLATION" type="Name" />
          </accessor>
        </technique_common>
      </source>
      <source id="Motion_7_RForeArm_transform_pose_id" name="Motion_7_RForeArm_transform_pose">
        <float_array id="Motion_7_RForeArm_transform_pose_array_id" count="256">0.9669489 0 -0.2549701 21.35 0 1 0 0 0.2549701 0 0.9669489 0 0 0 0 1 0.9676105 0 -0.25244787 21.35 0 1 0 0 0.25244787 0 0.9676105 0 0 0 0 1 0.9688466 0 -0.24766152 21.35 0 1 0 0 0.24766152 0 0.9688466 0 0 0 0 1 0.9707621 0 -0.24004385 21.35 0 1 0 0 0.24004385 0 0.9707621 0 0 0 0 1 0.97289944 0 -0.23122866 21.35 0 1 0 0 0.23122866 0 0.97289944 0 0 0 0 1 0.97714525 0 -0.21257278 21.35 0 1 0 0 0.21257278 0 0.97714525 0 0 0 0 1 0.97959644 0 -0.20097476 21.35 0 1 0 0 0.20097476 0 0.97959644 0 0 0 0 1 0.9730177 0 -0.2307305 21.35 0 1 0 0 0.2307305 0 0.9730177 0 0 0 0 1 0.9670671 0 -0.25452146 21.35 0 1 0 0 0.25452146 0 0.9670671 0 0 0 0 1 0.9133428 0 -0.40719157 21.35 0 1 0 0 0.40719157 0 0.9133428 0 0 0 0 1 0.85559624 0 -0.51764375 21.35 0 1 0 0 0.51764375 0 0.85559624 0 0 0 0 1 0.7815537 0 -0.623838 21.35 0 1 0 0 0.623838 0 0.7815537 0 0 0 0 1 0.67318213 0 -0.73947674 21.35 0 1 0 0 0.73947674 0 0.67318213 0 0 0 0 1 0.5770383 0 -0.8167171 21.35 0 1 0 0 0.8167171 0 0.5770383 0 0 0 0 1 0.4467845 0 -0.89464164 21.35 0 1 0 0 0.89464164 0 0.4467845 0 0 0 0 1 0.4467845 0 -0.89464164 21.35 0 1 0 0 0.89464164 0 0.4467845 0 0 0 0 1</float_array>
        <technique_common>
          <accessor source="#Motion_7_RForeArm_transform_pose_array_id" count="16" stride="16">
            <param name="TRANSFORM" type="float4x4" />
          </accessor>
        </technique_common>
      </source>
      <sampler id="Motion_7_RForeArm_transform_samp_id">
        <input semantic="INPUT" source="#Motion_7_RForeArm_transform_frame_id" />
        <input semantic="INTERPOLATION" source="#Motion_7_RForeArm_transform_interp_id" />
        <input semantic="OUTPUT" source="#Motion_7_RForeArm_transform_pose_id" />
      </sampler>
      <channel source="#Motion_7_RForeArm_transform_samp_id" target="RForeArm_bone_id/transform" />
    </animation>
    <animation id="Motion_7_RHand_transform_id" name="Motion_7_RHand_transform">
      <source id="Motion_7_RHand_transform_frame_id" name="Motion_7_RHand_transform_frame">
        <float_array id="Motion_7_RHand_transform_frame_array_id" count="16">0 0.033333335 0.06666667 0.1 0.13333334 0.16666667 0.2 0.23333333 0.26666668 0.3 0.33333334 0.36666667 0.4 0.43333334 0.46666667 0.5</float_array>
        <technique_common>
          <accessor source="#Motion_7_RHand_transform_frame_array_id" count="16" stride="1">
            <param name="TIME" type="float" />
          </accessor>
        </technique_common>
      </source>
      <source id="Motion_7_RHand_transform_interp_id" name="Motion_7_RHand_transform_interp">
        <Name_array id="Motion_7_RHand_transform_interp_array_id" count="16">LINEAR LINEAR LINEAR LINEAR LINEAR LINEAR LINEAR LINEAR LINEAR LINEAR LINEAR LINEAR LINEAR LINEAR LINEAR LINEAR</Name_array>
        <technique_common>
          <accessor source="#Motion_7_RHand_transform_interp_array_id" count="16" stride="1">
            <param name="INTERPOLATION" type="Name" />
          </accessor>
        </technique_common>
      </source>
      <source id="Motion_7_RHand_transform_pose_id" name="Motion_7_RHand_transform_pose">
        <float_array id="Motion_7_RHand_transform_pose_array_id" count="256">0.9733105 0.22678086 0.03517261 21.35 -0.22949192 0.9615641 0.15075764 0 0.00036822632 -0.15480581 0.98794484 0 0 0 0 1 0.9727802 0.2297877 0.029938161 21.35 -0.23163387 0.9605119 0.15415129 0 0.006666108 -0.15689 0.9875936 0 0 0 0 1 0.9718843 0.23485109 0.01690698 21.35 -0.23447749 0.95878637 0.16046497 0 0.021475192 -0.15991768 0.98689675 0 0 0 0 1 0.970457 0.24127395 0.00017909706 21.35 -0.23781659 0.95642495 0.16939463 0 0.040699217 -0.16443281 0.9855483 0 0 0 0 1 0.96850663 0.24855264 -0.014714701 21.35 -0.24208732 0.9538362 0.17773633 0 0.058212243 -0.16857655 0.98396814 0 0 0 0 1 0.9675833 0.25136608 -0.024447251 21.35 -0.24285306 0.9526235 0.18311454 0 0.0693178 -0.17124148 0.98278755 0 0 0 0 1 0.9711382 0.23826298 0.011017431 21.35 -0.23724696 0.9601723 0.14759068 0 0.024586763 -0.14594479 0.98898715 0 0 0 0 1 0.9716737 0.21283758 0.10271471 21.35 -0.21087474 0.97706085 -0.029731005 0 -0.10668639 0.0072288997 0.99426645 0 0 0 0 1 0.95913136 0.2253872 0.17107776 21.35 -0.18017517 0.95265007 -0.24493821 0 -0.21818319 0.20410396 0.9543258 0 0 0 0 1 0.937263 0.2658589 0.2255152 21.35 -0.14438911 0.88481385 -0.44300815 0 -0.31731665 0.3826532 0.86769044 0 0 0 0 1 0.91463757 0.3131476 0.25568873 21.35 -0.11885382 0.81279755 -0.57029283 0 -0.38640898 0.49122167 0.780634 0 0 0 0 1 0.889668 0.37253553 0.26402313 21.35 -0.10600449 0.7309417 -0.67415667 0 -0.4441328 0.57178795 0.68978584 0 0 0 0 1 0.8615689 0.4480493 0.23864377 21.35 -0.10928835 0.6227909 -0.7747178 0 -0.4957369 0.64139175 0.5855438 0 0 0 0 1 0.82872117 0.53329754 0.1697497 21.35 -0.13161081 0.48050463 -0.86706054 0 -0.54396677 0.6962105 0.46839207 0 0 0 0 1 0.80253565 0.59190077 0.07476628 21.35 -0.15090404 0.32263637 -0.9344163 0 -0.57720405 0.7386198 0.3482474 0 0 0 0 1 0.80253565 0.59190077 0.07476628 21.35 -0.15090404 0.32263637 -0.9344163 0 -0.57720405 0.7386198 0.3482474 0 0 0 0 1</float_array>
        <technique_common>
          <accessor source="#Motion_7_RHand_transform_pose_array_id" count="16" stride="16">
            <param name="TRANSFORM" type="float4x4" />
          </accessor>
        </technique_common>
      </source>
      <sampler id="Motion_7_RHand_transform_samp_id">
        <input semantic="INPUT" source="#Motion_7_RHand_transform_frame_id" />
        <input semantic="INTERPOLATION" source="#Motion_7_RHand_transform_interp_id" />
        <input semantic="OUTPUT" source="#Motion_7_RHand_transform_pose_id" />
      </sampler>
      <channel source="#Motion_7_RHand_transform_samp_id" target="RHand_bone_id/transform" />
    </animation>
    <animation id="Motion_7_LShoulder_transform_id" name="Motion_7_LShoulder_transform">
      <source id="Motion_7_LShoulder_transform_frame_id" name="Motion_7_LShoulder_transform_frame">
        <float_array id="Motion_7_LShoulder_transform_frame_array_id" count="16">0 0.033333335 0.06666667 0.1 0.13333334 0.16666667 0.2 0.23333333 0.26666668 0.3 0.33333334 0.36666667 0.4 0.43333334 0.46666667 0.5</float_array>
        <technique_common>
          <accessor source="#Motion_7_LShoulder_transform_frame_array_id" count="16" stride="1">
            <param name="TIME" type="float" />
          </accessor>
        </technique_common>
      </source>
      <source id="Motion_7_LShoulder_transform_interp_id" name="Motion_7_LShoulder_transform_interp">
        <Name_array id="Motion_7_LShoulder_transform_interp_array_id" count="16">LINEAR LINEAR LINEAR LINEAR LINEAR LINEAR LINEAR LINEAR LINEAR LINEAR LINEAR LINEAR LINEAR LINEAR LINEAR LINEAR</Name_array>
        <technique_common>
          <accessor source="#Motion_7_LShoulder_transform_interp_array_id" count="16" stride="1">
            <param name="INTERPOLATION" type="Name" />
          </accessor>
        </technique_common>
      </source>
      <source id="Motion_7_LShoulder_transform_pose_id" name="Motion_7_LShoulder_transform_pose">
        <float_array id="Motion_7_LShoulder_transform_pose_array_id" count="256">-0.64413 0.76039624 -0.0830296 12.810532 -0.7495246 -0.6491053 -0.12990397 -3.840002 -0.15267345 -0.021442328 0.988044 -0.10929876 0 0 0 1 -0.64416635 0.76037174 -0.082969666 12.810532 -0.74898165 -0.6490556 -0.13323888 -3.840002 -0.15516306 -0.023685269 0.9876049 -0.10929876 0 0 0 1 -0.6436596 0.76082754 -0.08272472 12.810532 -0.7483907 -0.64834464 -0.13985729 -3.840002 -0.16004144 -0.02811009 0.98670995 -0.10929876 0 0 0 1 -0.64303386 0.7613596 -0.08269827 12.810532 -0.748106 -0.64757466 -0.14486004 -3.840002 -0.16384389 -0.031282842 0.98599017 -0.10929876 0 0 0 1 -0.643008 0.7613919 -0.08259952 12.810532 -0.74844277 -0.6475898 -0.14303991 -3.840002 -0.16240007 -0.030154817 0.9862641 -0.10929876 0 0 0 1 -0.6440352 0.7604526 -0.083251044 12.810532 -0.74978185 -0.6490736 -0.1285723 -3.840002 -0.15180919 -0.020384949 0.9881996 -0.10929876 0 0 0 1 -0.6447575 0.75967294 -0.084763974 12.810532 -0.75184065 -0.6502725 -0.1090024 -3.840002 -0.13792585 -0.006551113 0.9904209 -0.10929876 0 0 0 1 -0.64433014 0.7598589 -0.08633179 12.810532 -0.75403315 -0.65007234 -0.094020754 -3.840002 -0.12756442 0.004516639 0.99182 -0.10929876 0 0 0 1 -0.6427759 0.7609116 -0.088614956 12.810532 -0.7564441 -0.6487169 -0.08341856 -3.840002 -0.120960176 0.013412811 0.99256676 -0.10929876 0 0 0 1 -0.6399151 0.76262134 -0.094430596 12.810532 -0.7595753 -0.64635193 -0.072625 -3.840002 -0.116420776 0.025253313 0.99287885 -0.10929876 0 0 0 1 -0.6404865 0.76159716 -0.09872616 12.810532 -0.7626188 -0.64589536 -0.03509772 -3.840002 -0.090497084 0.052810803 0.9944955 -0.10929876 0 0 0 1 -0.6417086 0.7601379 -0.10198204 12.810532 -0.7640351 -0.6451733 -0.0013022907 -3.840002 -0.06678602 0.07708217 0.99478537 -0.10929876 0 0 0 1 -0.6428288 0.758842 -0.10454823 12.810532 -0.7644477 -0.64422727 0.024317529 -3.840002 -0.04889964 0.09555365 0.99422246 -0.10929876 0 0 0 1 -0.64313614 0.7582287 -0.10707696 12.810532 -0.7638678 -0.6450541 0.020288367 -3.840002 -0.05368719 0.09484081 0.9940437 -0.10929876 0 0 0 1 -0.6428838 0.7582065 -0.108733684 12.810532 -0.7634287 -0.64580667 0.010494806 -3.840002 -0.062263727 0.08975736 0.9940155 -0.10929876 0 0 0 1 -0.6428838 0.7582065 -0.108733684 12.810532 -0.7634287 -0.64580667 0.010494806 -3.840002 -0.062263727 0.08975736 0.9940155 -0.10929876 0 0 0 1</float_array>
        <technique_common>
          <accessor source="#Motion_7_LShoulder_transform_pose_array_id" count="16" stride="16">
            <param name="TRANSFORM" type="float4x4" />
          </accessor>
        </technique_common>
      </source>
      <sampler id="Motion_7_LShoulder_transform_samp_id">
        <input semantic="INPUT" source="#Motion_7_LShoulder_transform_frame_id" />
        <input semantic="INTERPOLATION" source="#Motion_7_LShoulder_transform_interp_id" />
        <input semantic="OUTPUT" source="#Motion_7_LShoulder_transform_pose_id" />
      </sampler>
      <channel source="#Motion_7_LShoulder_transform_samp_id" target="LShoulder_bone_id/transform" />
    </animation>
    <animation id="Motion_7_LArm_transform_id" name="Motion_7_LArm_transform">
      <source id="Motion_7_LArm_transform_frame_id" name="Motion_7_LArm_transform_frame">
        <float_array id="Motion_7_LArm_transform_frame_array_id" count="16">0 0.033333335 0.06666667 0.1 0.13333334 0.16666667 0.2 0.23333333 0.26666668 0.3 0.33333334 0.36666667 0.4 0.43333334 0.46666667 0.5</float_array>
        <technique_common>
          <accessor source="#Motion_7_LArm_transform_frame_array_id" count="16" stride="1">
            <param name="TIME" type="float" />
          </accessor>
        </technique_common>
      </source>
      <source id="Motion_7_LArm_transform_interp_id" name="Motion_7_LArm_transform_interp">
        <Name_array id="Motion_7_LArm_transform_interp_array_id" count="16">LINEAR LINEAR LINEAR LINEAR LINEAR LINEAR LINEAR LINEAR LINEAR LINEAR LINEAR LINEAR LINEAR LINEAR LINEAR LINEAR</Name_array>
        <technique_common>
          <accessor source="#Motion_7_LArm_transform_interp_array_id" count="16" stride="1">
            <param name="INTERPOLATION" type="Name" />
          </accessor>
        </technique_common>
      </source>
      <source id="Motion_7_LArm_transform_pose_id" name="Motion_7_LArm_transform_pose">
        <float_array id="Motion_7_LArm_transform_pose_array_id" count="256">0.7823006 0.52622116 0.33331215 6.70358 -0.52910256 0.84374547 -0.090244204 0 -0.32871902 -0.10575822 0.9384876 0 0 0 0 1 0.783904 0.52678573 0.32862028 6.70358 -0.5288073 0.84382445 -0.09123155 0 -0.3253573 -0.10226 0.9400455 0 0 0 0 1 0.78732747 0.527771 0.31870556 6.70358 -0.52901924 0.8437809 -0.09040214 0 -0.3166293 -0.09742527 0.9435328 0 0 0 0 1 0.79089534 0.52894 0.3077451 6.70358 -0.53007895 0.8434346 -0.08737545 0 -0.30577922 -0.09402436 0.94744843 0 0 0 0 1 0.79244506 0.5293745 0.30297437 6.70358 -0.5328052 0.84257776 -0.07862144 0 -0.29689965 -0.09912316 0.94975007 0 0 0 0 1 0.79054266 0.52795255 0.31033593 6.70358 -0.5380131 0.8408067 -0.0598827 0 -0.29254776 -0.11962497 0.948739 0 0 0 0 1 0.7876893 0.52073246 0.32921597 6.70358 -0.5426205 0.83945924 -0.029516578 0 -0.29173365 -0.15538943 0.9437932 0 0 0 0 1 0.7972346 0.5014536 0.33609724 6.70358 -0.53881437 0.8421473 0.021611936 0 -0.272206 -0.19832379 0.9415793 0 0 0 0 1 0.81873935 0.48898736 0.30092722 6.70358 -0.5401842 0.8336415 0.115077354 0 -0.19459407 -0.25677451 0.9466784 0 0 0 0 1 0.8204171 0.47936347 0.3116511 6.70358 -0.550137 0.81031096 0.20185503 0 -0.15577236 -0.33705613 0.9285086 0 0 0 0 1 0.8157547 0.47337684 0.3323533 6.70358 -0.5658582 0.7721636 0.28908116 0 -0.119786814 -0.4238841 0.8977602 0 0 0 0 1 0.8101388 0.47407383 0.34486085 6.70358 -0.5809855 0.72783625 0.36429405 0 -0.07829994 -0.49548793 0.8650785 0 0 0 0 1 0.80504185 0.47398594 0.35671407 6.70358 -0.5915235 0.6868151 0.4223565 0 -0.044805586 -0.5510194 0.8332887 0 0 0 0 1 0.7980237 0.47375092 0.37244898 6.70358 -0.6014933 0.66405976 0.44410634 0 -0.036932573 -0.5784329 0.8148934 0 0 0 0 1 0.79559803 0.47502816 0.37599474 6.70358 -0.6053579 0.6477131 0.46261165 0 -0.023783162 -0.59566426 0.8028813 0 0 0 0 1 0.79559803 0.47502816 0.37599474 6.70358 -0.6053579 0.6477131 0.46261165 0 -0.023783162 -0.59566426 0.8028813 0 0 0 0 1</float_array>
        <technique_common>
          <accessor source="#Motion_7_LArm_transform_pose_array_id" count="16" stride="16">
            <param name="TRANSFORM" type="float4x4" />
          </accessor>
        </technique_common>
      </source>
      <sampler id="Motion_7_LArm_transform_samp_id">
        <input semantic="INPUT" source="#Motion_7_LArm_transform_frame_id" />
        <input semantic="INTERPOLATION" source="#Motion_7_LArm_transform_interp_id" />
        <input semantic="OUTPUT" source="#Motion_7_LArm_transform_pose_id" />
      </sampler>
      <channel source="#Motion_7_LArm_transform_samp_id" target="LArm_bone_id/transform" />
    </animation>
    <animation id="Motion_7_LForeArm_transform_id" name="Motion_7_LForeArm_transform">
      <source id="Motion_7_LForeArm_transform_frame_id" name="Motion_7_LForeArm_transform_frame">
        <float_array id="Motion_7_LForeArm_transform_frame_array_id" count="16">0 0.033333335 0.06666667 0.1 0.13333334 0.16666667 0.2 0.23333333 0.26666668 0.3 0.33333334 0.36666667 0.4 0.43333334 0.46666667 0.5</float_array>
        <technique_common>
          <accessor source="#Motion_7_LForeArm_transform_frame_array_id" count="16" stride="1">
            <param name="TIME" type="float" />
          </accessor>
        </technique_common>
      </source>
      <source id="Motion_7_LForeArm_transform_interp_id" name="Motion_7_LForeArm_transform_interp">
        <Name_array id="Motion_7_LForeArm_transform_interp_array_id" count="16">LINEAR LINEAR LINEAR LINEAR LINEAR LINEAR LINEAR LINEAR LINEAR LINEAR LINEAR LINEAR LINEAR LINEAR LINEAR LINEAR</Name_array>
        <technique_common>
          <accessor source="#Motion_7_LForeArm_transform_interp_array_id" count="16" stride="1">
            <param name="INTERPOLATION" type="Name" />
          </accessor>
        </technique_common>
      </source>
      <source id="Motion_7_LForeArm_transform_pose_id" name="Motion_7_LForeArm_transform_pose">
        <float_array id="Motion_7_LForeArm_transform_pose_array_id" count="256">0.8791386 2.0623609E-05 -0.47656623 21.35 -7.828941E-06 1 2.8833107E-05 0 0.47656623 -2.1617285E-05 0.8791386 0 0 0 0 1 0.88159704 2.2681957E-05 -0.47200277 21.35 -1.3479483E-05 1 2.2878012E-05 0 0.47200277 -1.3806835E-05 0.88159704 0 0 0 0 1 0.8878217 3.4994473E-06 -0.46018767 21.35 -2.1357789E-07 1 7.1923437E-06 0 0.46018767 -6.2872327E-06 0.8878217 0 0 0 0 1 0.8964805 -3.9897808E-05 -0.44308314 21.35 3.530018E-05 1 -1.8623787E-05 0 0.44308314 1.0549484E-06 0.8964805 0 0 0 0 1 0.9059473 -0.00011055254 -0.42339042 21.35 9.64915E-05 1 -5.4645338E-05 0 0.42339042 8.65222E-06 0.9059473 0 0 0 0 1 0.91532385 -0.00021154666 -0.40271848 21.35 0.00018676775 1 -0.00010079914 0 0.40271848 1.7049042E-05 0.9153239 0 0 0 0 1 0.92005455 -0.00034598878 -0.39179018 21.35 0.00030854315 0.99999994 -0.00015853449 0 0.39179024 2.4976194E-05 0.92005455 0 0 0 0 1 0.9157597 -0.00051690335 -0.4017262 21.35 0.00046238265 0.9999999 -0.0002326757 0 0.40172625 2.7323782E-05 0.9157598 0 0 0 0 1 0.90838474 -0.0007270865 -0.41813478 21.35 0.00065091957 0.99999976 -0.0003247779 0 0.4181349 2.2851193E-05 0.9083849 0 0 0 0 1 0.8392621 -0.0009728723 -0.5437262 21.35 0.0008436306 0.9999995 -0.000487092 0 0.54372644 -4.9906215E-05 0.8392625 0 0 0 0 1 0.7487855 -0.0012485688 -0.6628113 21.35 0.0010479391 0.9999992 -0.00069987675 0 0.66281164 -0.0001705283 0.7487862 0 0 0 0 1 0.62673414 -0.0015424113 -0.77923167 21.35 0.0012464717 0.99999875 -0.0009768636 0 0.77923214 -0.00035905643 0.6267353 0 0 0 0 1 0.49011856 -0.0018470975 -0.87165385 21.35 0.0014368753 0.9999981 -0.0013111337 0 0.87165457 -0.0006098469 0.4901203 0 0 0 0 1 0.32063144 -0.0021358295 -0.94720167 21.35 0.0015849832 0.99999726 -0.0017183545 0 0.94720274 -0.00095034007 0.32063395 0 0 0 0 1 0.16775393 -0.0024257551 -0.9858259 21.35 0.0017250029 0.9999962 -0.0021670861 0 0.9858273 -0.0013370152 0.16775751 0 0 0 0 1 0.16775393 -0.0024257551 -0.9858259 21.35 0.0017250029 0.9999962 -0.0021670861 0 0.9858273 -0.0013370152 0.16775751 0 0 0 0 1</float_array>
        <technique_common>
          <accessor source="#Motion_7_LForeArm_transform_pose_array_id" count="16" stride="16">
            <param name="TRANSFORM" type="float4x4" />
          </accessor>
        </technique_common>
      </source>
      <sampler id="Motion_7_LForeArm_transform_samp_id">
        <input semantic="INPUT" source="#Motion_7_LForeArm_transform_frame_id" />
        <input semantic="INTERPOLATION" source="#Motion_7_LForeArm_transform_interp_id" />
        <input semantic="OUTPUT" source="#Motion_7_LForeArm_transform_pose_id" />
      </sampler>
      <channel source="#Motion_7_LForeArm_transform_samp_id" target="LForeArm_bone_id/transform" />
    </animation>
    <animation id="Motion_7_LHand_transform_id" name="Motion_7_LHand_transform">
      <source id="Motion_7_LHand_transform_frame_id" name="Motion_7_LHand_transform_frame">
        <float_array id="Motion_7_LHand_transform_frame_array_id" count="16">0 0.033333335 0.06666667 0.1 0.13333334 0.16666667 0.2 0.23333333 0.26666668 0.3 0.33333334 0.36666667 0.4 0.43333334 0.46666667 0.5</float_array>
        <technique_common>
          <accessor source="#Motion_7_LHand_transform_frame_array_id" count="16" stride="1">
            <param name="TIME" type="float" />
          </accessor>
        </technique_common>
      </source>
      <source id="Motion_7_LHand_transform_interp_id" name="Motion_7_LHand_transform_interp">
        <Name_array id="Motion_7_LHand_transform_interp_array_id" count="16">LINEAR LINEAR LINEAR LINEAR LINEAR LINEAR LINEAR LINEAR LINEAR LINEAR LINEAR LINEAR LINEAR LINEAR LINEAR LINEAR</Name_array>
        <technique_common>
          <accessor source="#Motion_7_LHand_transform_interp_array_id" count="16" stride="1">
            <param name="INTERPOLATION" type="Name" />
          </accessor>
        </technique_common>
      </source>
      <source id="Motion_7_LHand_transform_pose_id" name="Motion_7_LHand_transform_pose">
        <float_array id="Motion_7_LHand_transform_pose_array_id" count="256">0.97146857 -0.232918 -0.044699535 21.35 0.2271303 0.96792996 -0.10734735 0 0.06826915 0.094131954 0.9932162 0 0 0 0 1 0.970763 -0.23495133 -0.04916294 21.35 0.22848184 0.96722066 -0.11081618 0 0.07358782 0.09634341 0.99262416 0 0 0 0 1 0.96931404 -0.23833458 -0.060223747 21.35 0.23025484 0.96605396 -0.117143035 0 0.086098626 0.09968157 0.99128735 0 0 0 0 1 0.96731156 -0.24240798 -0.07447622 21.35 0.23200125 0.964513 -0.12605573 0 0.10239019 0.10465659 0.98922354 0 0 0 0 1 0.96525955 -0.2463033 -0.08722793 21.35 0.23358883 0.9630097 -0.13434488 0 0.11709093 0.10930221 0.987088 0 0 0 0 1 0.9637714 -0.24908476 -0.095401876 21.35 0.2347656 0.96193695 -0.13986568 0 0.126609 0.11240146 0.9855638 0 0 0 0 1 0.9690965 -0.23558652 -0.073150426 21.35 0.22802797 0.9686419 -0.09867174 0 0.09410231 0.0789421 0.99242777 0 0 0 0 1 0.9814949 -0.18813357 0.03568578 21.35 0.18690538 0.98174983 0.035123795 0 -0.041642476 -0.027803963 0.9987456 0 0 0 0 1 0.98141325 -0.16443273 0.098943904 21.35 0.14956984 0.97843295 0.14247037 0 -0.12023677 -0.12502329 0.9848412 0 0 0 0 1 0.9739884 -0.17201394 0.14750497 21.35 0.13096291 0.9585465 0.25305587 0 -0.18491952 -0.22715582 0.9561407 0 0 0 0 1 0.9609872 -0.2053544 0.18529193 21.35 0.12487291 0.9198642 0.37182888 0 -0.24680011 -0.33418486 0.9096209 0 0 0 0 1 0.9447777 -0.25561625 0.20507407 21.35 0.1262281 0.8613423 0.49209344 0 -0.30242604 -0.4390328 0.846043 0 0 0 0 1 0.9258417 -0.32369062 0.19504254 21.35 0.14536369 0.78142804 0.6068275 0 -0.34883606 -0.5334741 0.77053154 0 0 0 0 1 0.9053413 -0.3971353 0.15046808 21.35 0.17873505 0.67770815 0.71327794 0 -0.3852413 -0.6188661 0.6845392 0 0 0 0 1 0.8843363 -0.46160883 0.06976053 21.35 0.22195959 0.5471878 0.80704355 0 -0.4107106 -0.69821393 0.5863566 0 0 0 0 1 0.8843363 -0.46160883 0.06976053 21.35 0.22195959 0.5471878 0.80704355 0 -0.4107106 -0.69821393 0.5863566 0 0 0 0 1</float_array>
        <technique_common>
          <accessor source="#Motion_7_LHand_transform_pose_array_id" count="16" stride="16">
            <param name="TRANSFORM" type="float4x4" />
          </accessor>
        </technique_common>
      </source>
      <sampler id="Motion_7_LHand_transform_samp_id">
        <input semantic="INPUT" source="#Motion_7_LHand_transform_frame_id" />
        <input semantic="INTERPOLATION" source="#Motion_7_LHand_transform_interp_id" />
        <input semantic="OUTPUT" source="#Motion_7_LHand_transform_pose_id" />
      </sampler>
      <channel source="#Motion_7_LHand_transform_samp_id" target="LHand_bone_id/transform" />
    </animation>
    <animation id="Motion_7_Neck_transform_id" name="Motion_7_Neck_transform">
      <source id="Motion_7_Neck_transform_frame_id" name="Motion_7_Neck_transform_frame">
        <float_array id="Motion_7_Neck_transform_frame_array_id" count="16">0 0.033333335 0.06666667 0.1 0.13333334 0.16666667 0.2 0.23333333 0.26666668 0.3 0.33333334 0.36666667 0.4 0.43333334 0.46666667 0.5</float_array>
        <technique_common>
          <accessor source="#Motion_7_Neck_transform_frame_array_id" count="16" stride="1">
            <param name="TIME" type="float" />
          </accessor>
        </technique_common>
      </source>
      <source id="Motion_7_Neck_transform_interp_id" name="Motion_7_Neck_transform_interp">
        <Name_array id="Motion_7_Neck_transform_interp_array_id" count="16">LINEAR LINEAR LINEAR LINEAR LINEAR LINEAR LINEAR LINEAR LINEAR LINEAR LINEAR LINEAR LINEAR LINEAR LINEAR LINEAR</Name_array>
        <technique_common>
          <accessor source="#Motion_7_Neck_transform_interp_array_id" count="16" stride="1">
            <param name="INTERPOLATION" type="Name" />
          </accessor>
        </technique_common>
      </source>
      <source id="Motion_7_Neck_transform_pose_id" name="Motion_7_Neck_transform_pose">
        <float_array id="Motion_7_Neck_transform_pose_array_id" count="256">0.9390659 0.02601684 -0.34275126 14.2501135 -0.060505472 0.99407345 -0.09031614 0 0.3383702 0.10555113 0.9350746 0 0 0 0 1 0.9390358 0.026010405 -0.34283423 14.2501135 -0.060514744 0.99407136 -0.09033319 0 0.3384521 0.105572626 0.93504256 0 0 0 0 1 0.9389924 0.025963565 -0.34295654 14.2501135 -0.06049773 0.9940679 -0.090382785 0 0.33857542 0.10561684 0.9349929 0 0 0 0 1 0.9389896 0.025884224 -0.3429702 14.2501135 -0.060445532 0.9940635 -0.09046607 0 0.33859253 0.10567771 0.93497986 0 0 0 0 1 0.93908113 0.0257803 -0.34272733 14.2501135 -0.06034922 0.9940586 -0.09058419 0 0.33835575 0.105749235 0.93505746 0 0 0 0 1 0.93932045 0.02565975 -0.3420799 14.2501135 -0.060199797 0.9940536 -0.09073825 0 0.33771744 0.10582544 0.9352796 0 0 0 0 1 0.93976027 0.02553053 -0.34087956 14.2501135 -0.059988193 0.99404895 -0.09092925 0 0.3365295 0.105900444 0.9356992 0 0 0 0 1 0.9404886 0.025406538 -0.33887416 14.2501135 -0.059700407 0.99404496 -0.09116161 0 0.33454007 0.10596737 0.93640476 0 0 0 0 1 0.94197255 0.025363386 -0.33473042 14.2501135 -0.05927159 0.99404174 -0.09147645 0 0.33041587 0.1060083 0.93786335 0 0 0 0 1 0.9445816 0.025466107 -0.32728744 14.2501135 -0.058644213 0.99403924 -0.091906786 0 0.32299602 0.10600698 0.94044465 0 0 0 0 1 0.94637334 0.025398228 -0.32207528 14.2501135 -0.0580757 0.99403995 -0.0922593 0 0.31781247 0.10601649 0.94220793 0 0 0 0 1 0.950416 0.025679864 -0.30991912 14.2501135 -0.05713062 0.9940412 -0.092833936 0 0.30568844 0.105936736 0.94621986 0 0 0 0 1 0.95473415 0.025994806 -0.29632235 14.2501135 -0.056065008 0.9940455 -0.09343595 0 0.29212904 0.105819814 0.95050657 0 0 0 0 1 0.95741963 0.025991486 -0.2875276 14.2501135 -0.05517441 0.99405515 -0.093862616 0 0.28337863 0.10573008 0.95316195 0 0 0 0 1 0.9604792 0.026109356 -0.2771246 14.2501135 -0.054231536 0.9940653 -0.09430362 0 0.27301773 0.10560556 0.95619494 0 0 0 0 1 0.9604792 0.026109356 -0.2771246 14.2501135 -0.054231536 0.9940653 -0.09430362 0 0.27301773 0.10560556 0.95619494 0 0 0 0 1</float_array>
        <technique_common>
          <accessor source="#Motion_7_Neck_transform_pose_array_id" count="16" stride="16">
            <param name="TRANSFORM" type="float4x4" />
          </accessor>
        </technique_common>
      </source>
      <sampler id="Motion_7_Neck_transform_samp_id">
        <input semantic="INPUT" source="#Motion_7_Neck_transform_frame_id" />
        <input semantic="INTERPOLATION" source="#Motion_7_Neck_transform_interp_id" />
        <input semantic="OUTPUT" source="#Motion_7_Neck_transform_pose_id" />
      </sampler>
      <channel source="#Motion_7_Neck_transform_samp_id" target="Neck_bone_id/transform" />
    </animation>
    <animation id="Motion_7_Head_transform_id" name="Motion_7_Head_transform">
      <source id="Motion_7_Head_transform_frame_id" name="Motion_7_Head_transform_frame">
        <float_array id="Motion_7_Head_transform_frame_array_id" count="16">0 0.033333335 0.06666667 0.1 0.13333334 0.16666667 0.2 0.23333333 0.26666668 0.3 0.33333334 0.36666667 0.4 0.43333334 0.46666667 0.5</float_array>
        <technique_common>
          <accessor source="#Motion_7_Head_transform_frame_array_id" count="16" stride="1">
            <param name="TIME" type="float" />
          </accessor>
        </technique_common>
      </source>
      <source id="Motion_7_Head_transform_interp_id" name="Motion_7_Head_transform_interp">
        <Name_array id="Motion_7_Head_transform_interp_array_id" count="16">LINEAR LINEAR LINEAR LINEAR LINEAR LINEAR LINEAR LINEAR LINEAR LINEAR LINEAR LINEAR LINEAR LINEAR LINEAR LINEAR</Name_array>
        <technique_common>
          <accessor source="#Motion_7_Head_transform_interp_array_id" count="16" stride="1">
            <param name="INTERPOLATION" type="Name" />
          </accessor>
        </technique_common>
      </source>
      <source id="Motion_7_Head_transform_pose_id" name="Motion_7_Head_transform_pose">
        <float_array id="Motion_7_Head_transform_pose_array_id" count="256">0.9838561 -0.04783289 0.17245066 5.699835 0.030839376 0.99451864 0.09990795 0 -0.17628428 -0.09297678 0.9799383 0 0 0 0 1 0.98383486 -0.04784672 0.17256793 5.699835 0.03084375 0.9945194 0.09989884 0 -0.176402 -0.09296132 0.97991866 0 0 0 0 1 0.9838008 -0.047823854 0.17276815 5.699835 0.030805485 0.99452287 0.09987637 0 -0.17659834 -0.09293624 0.97988564 0 0 0 0 1 0.983782 -0.047703113 0.17290848 5.699835 0.030673098 0.9945287 0.099859044 0 -0.17672604 -0.09293589 0.97986263 0 0 0 0 1 0.9838065 -0.047423337 0.17284617 5.699835 0.030395072 0.9945366 0.099865526 0 -0.1766378 -0.092994675 0.979873 0 0 0 0 1 0.98390204 -0.046923272 0.17243844 5.699835 0.029919898 0.99454606 0.09991455 0 -0.1761863 -0.093146786 0.9799398 0 0 0 0 1 0.9840956 -0.046141546 0.17154254 5.699835 0.02919614 0.9945564 0.10002522 0 -0.17522405 -0.093426004 0.9800858 0 0 0 0 1 0.98441267 -0.045016423 0.17001548 5.699835 0.02817247 0.9945666 0.10021733 0 -0.17360315 -0.093865454 0.9803322 0 0 0 0 1 0.9848761 -0.04348565 0.16771415 5.699835 0.026797801 0.9945749 0.10051161 0 -0.17117509 -0.094497114 0.9806984 0 0 0 0 1 0.98551637 -0.041482985 0.16442832 5.699835 0.025024869 0.9945788 0.100929566 0 -0.16772377 -0.09535294 0.9812118 0 0 0 0 1 0.9858777 -0.03969829 0.16269353 5.699835 0.02328555 0.9945554 0.10157409 0 -0.16584006 -0.09635122 0.9814344 0 0 0 0 1 0.9863621 -0.038548023 0.16001187 5.699835 0.022145193 0.99442905 0.10305542 0 -0.16309305 -0.09810647 0.9817208 0 0 0 0 1 0.9870251 -0.03784817 0.15604182 5.699835 0.02143715 0.9941837 0.10554243 0 -0.15912883 -0.100827925 0.9820956 0 0 0 0 1 0.98753005 -0.037476856 0.15290491 5.699835 0.020926408 0.99388194 0.10844721 0 -0.15603368 -0.10389513 0.9822725 0 0 0 0 1 0.98774135 -0.0372673 0.15158555 5.699835 0.020427015 0.99359137 0.11117065 0 -0.15475711 -0.1067114 0.98217255 0 0 0 0 1 0.98774135 -0.0372673 0.15158555 5.699835 0.020427015 0.99359137 0.11117065 0 -0.15475711 -0.1067114 0.98217255 0 0 0 0 1</float_array>
        <technique_common>
          <accessor source="#Motion_7_Head_transform_pose_array_id" count="16" stride="16">
            <param name="TRANSFORM" type="float4x4" />
          </accessor>
        </technique_common>
      </source>
      <sampler id="Motion_7_Head_transform_samp_id">
        <input semantic="INPUT" source="#Motion_7_Head_transform_frame_id" />
        <input semantic="INTERPOLATION" source="#Motion_7_Head_transform_interp_id" />
        <input semantic="OUTPUT" source="#Motion_7_Head_transform_pose_id" />
      </sampler>
      <channel source="#Motion_7_Head_transform_samp_id" target="Head_bone_id/transform" />
    </animation>
  </library_animations>
  <library_visual_scenes>
    <visual_scene id="tr0062_00_fi_00_clip_id" name="tr0062_00_fi_00_clip">
      <node id="tr0062_00_fi_bone_id" name="tr0062_00_fi" sid="tr0062_00_fi" type="JOINT">
        <matrix sid="transform">1 0 0 0 0 1 0 0 0 0 1 0 0 0 0 1</matrix>
        <node id="Origin_bone_id" name="Origin" sid="Origin" type="JOINT">
          <matrix sid="transform">1 0 0 0 0 1 0 0 0 0 1 0 0 0 0 1</matrix>
          <node id="Waist_bone_id" name="Waist" sid="Waist" type="JOINT">
            <matrix sid="transform">3.1391647E-07 -1 0 0 1 3.1391647E-07 0 80.65 0 0 1 0 0 0 0 1</matrix>
            <node id="Spine2_bone_id" name="Spine2" sid="Spine2" type="JOINT">
              <matrix sid="transform">1 0 0 12.800003 0 1 0 0 0 0 1 0 0 0 0 1</matrix>
              <node id="Spine3_bone_id" name="Spine3" sid="Spine3" type="JOINT">
                <matrix sid="transform">0.9971689 0 0.07519396 12.800003 0 1 0 0 -0.07519396 0 0.9971689 0 0 0 0 1</matrix>
                <node id="Neck_bone_id" name="Neck" sid="Neck" type="JOINT">
                  <matrix sid="transform">0.97107327 0 -0.23878163 14.250113 0 1 0 0 0.23878163 0 0.97107327 0 0 0 0 1</matrix>
                  <node id="Head_bone_id" name="Head" sid="Head" type="JOINT">
                    <matrix sid="transform">0.9862791 0 0.16508679 5.699835 0 1 0 0 -0.16508679 0 0.9862791 0 0 0 0 1</matrix>
                    <node id="Loc_Head_bone_id" name="Loc_Head" sid="Loc_Head" type="JOINT">
                      <matrix sid="transform">3.1391647E-07 1 0 30.767733 -1 3.1391647E-07 0 0 0 0 1 0.130562 0 0 0 1</matrix>
                    </node>
                    <node id="Loc_Eye_bone_id" name="Loc_Eye" sid="Loc_Eye" type="JOINT">
                      <matrix sid="transform">3.1391647E-07 1 0 9 -1 3.1391647E-07 0 0 0 0 1 11.172963 0 0 0 1</matrix>
                    </node>
                    <node id="Loc_Mouth_bone_id" name="Loc_Mouth" sid="Loc_Mouth" type="JOINT">
                      <matrix sid="transform">3.1391647E-07 1 0 0.24 -1 3.1391647E-07 0 0 0 0 1 10.996027 0 0 0 1</matrix>
                    </node>
                  </node>
                </node>
                <node id="LShoulder_bone_id" name="LShoulder" sid="LShoulder" type="JOINT">
                  <matrix sid="transform">-0.65748256 0.74970824 -0.075194746 12.810532 -0.7518368 -0.65934926 -8.489264E-08 -3.840002 -0.049579665 0.05653412 0.99716884 -0.109299 0 0 0 1</matrix>
                  <node id="LArm_bone_id" name="LArm" sid="LArm" type="JOINT">
                    <matrix sid="transform">0.7518374 -0.65934855 0 6.70358 0.65934855 0.7518374 0 0 0 0 1 0 0 0 0 1</matrix>
                    <node id="LForeArm_bone_id" name="LForeArm" sid="LForeArm" type="JOINT">
                      <matrix sid="transform">1 0 0 21.35 0 1 0 0 0 0 1 0 0 0 0 1</matrix>
                      <node id="LHand_bone_id" name="LHand" sid="LHand" type="JOINT">
                        <matrix sid="transform">1 0 0 21.35 0 1 0 0 0 0 1 0 0 0 0 1</matrix>
                      </node>
                    </node>
                  </node>
                </node>
                <node id="RShoulder_bone_id" name="RShoulder" sid="RShoulder" type="JOINT">
                  <matrix sid="transform">-0.65748256 -0.74970824 -0.075194746 12.810532 0.7518368 -0.65934926 8.489264E-08 3.840002 -0.049579665 -0.05653412 0.99716884 -0.109299 0 0 0 1</matrix>
                  <node id="RArm_bone_id" name="RArm" sid="RArm" type="JOINT">
                    <matrix sid="transform">0.7518374 0.65934855 0 6.70358 -0.65934855 0.7518374 0 0 0 0 1 0 0 0 0 1</matrix>
                    <node id="RForeArm_bone_id" name="RForeArm" sid="RForeArm" type="JOINT">
                      <matrix sid="transform">1 0 0 21.35 0 1 0 0 0 0 1 0 0 0 0 1</matrix>
                      <node id="RHand_bone_id" name="RHand" sid="RHand" type="JOINT">
                        <matrix sid="transform">1 0 0 21.35 0 1 0 0 0 0 1 0 0 0 0 1</matrix>
                      </node>
                    </node>
                  </node>
                </node>
              </node>
            </node>
            <node id="Hips_bone_id" name="Hips" sid="Hips" type="JOINT">
              <matrix sid="transform">-1 -3.2584137E-07 0 -0.010002 3.2584137E-07 -1 0 0 0 0 1 0 0 0 0 1</matrix>
              <node id="LThigh_bone_id" name="LThigh" sid="LThigh" type="JOINT">
                <matrix sid="transform">1 0 0 6.260002 0 1 0 7.1 0 0 1 0 0 0 0 1</matrix>
                <node id="LLeg_bone_id" name="LLeg" sid="LLeg" type="JOINT">
                  <matrix sid="transform">1 0 0 32.800003 0 1 0 0 0 0 1 0 0 0 0 1</matrix>
                  <node id="LFoot_bone_id" name="LFoot" sid="LFoot" type="JOINT">
                    <matrix sid="transform">3.1391647E-07 0 -1 32.8 0 1 0 0 1 0 3.1391647E-07 0 0 0 0 1</matrix>
                  </node>
                </node>
              </node>
              <node id="RThigh_bone_id" name="RThigh" sid="RThigh" type="JOINT">
                <matrix sid="transform">1 0 0 6.260002 0 1 0 -7.1 0 0 1 0 0 0 0 1</matrix>
                <node id="RLeg_bone_id" name="RLeg" sid="RLeg" type="JOINT">
                  <matrix sid="transform">1 0 0 32.800003 0 1 0 0 0 0 1 0 0 0 0 1</matrix>
                  <node id="RFoot_bone_id" name="RFoot" sid="RFoot" type="JOINT">
                    <matrix sid="transform">3.1391647E-07 0 -1 32.8 0 1 0 0 1 0 3.1391647E-07 0 0 0 0 1</matrix>
                  </node>
                </node>
              </node>
            </node>
          </node>
          <node id="CamTgtHead_bone_id" name="CamTgtHead" sid="CamTgtHead" type="JOINT">
            <matrix sid="transform">1 0 0 0 0 1 0 135.0814 0 0 1 0 0 0 0 1</matrix>
          </node>
          <node id="CamTgtBust_bone_id" name="CamTgtBust" sid="CamTgtBust" type="JOINT">
            <matrix sid="transform">1 0 0 0 0 1 0 106.25001 0 0 1 0 0 0 0 1</matrix>
          </node>
          <node id="CamTgtBody_bone_id" name="CamTgtBody" sid="CamTgtBody" type="JOINT">
            <matrix sid="transform">1 0 0 0 0 1 0 80.65 0 0 1 0 0 0 0 1</matrix>
          </node>
          <node id="CamTgtFoot_bone_id" name="CamTgtFoot" sid="CamTgtFoot" type="JOINT">
            <matrix sid="transform">1 0 0 0 0 1 0 0 0 0 1 0 0 0 0 1</matrix>
          </node>
        </node>
        <node id="tr0062_00_fi_HeadSkin_bone_id" name="tr0062_00_fi_HeadSkin" sid="tr0062_00_fi_HeadSkin" type="JOINT">
          <matrix sid="transform">1 0 0 0 0 1 0 0 0 0 1 0 0 0 0 1</matrix>
        </node>
        <node id="tr0062_00_fi_FaceSkin_bone_id" name="tr0062_00_fi_FaceSkin" sid="tr0062_00_fi_FaceSkin" type="JOINT">
          <matrix sid="transform">1 0 0 0 0 1 0 0 0 0 1 0 0 0 0 1</matrix>
        </node>
        <node id="tr0062_00_fi_BodySkin_bone_id" name="tr0062_00_fi_BodySkin" sid="tr0062_00_fi_BodySkin" type="JOINT">
          <matrix sid="transform">1 0 0 0 0 1 0 0 0 0 1 0 0 0 0 1</matrix>
        </node>
        <node id="tr0062_00_fi_BottomSkin_bone_id" name="tr0062_00_fi_BottomSkin" sid="tr0062_00_fi_BottomSkin" type="JOINT">
          <matrix sid="transform">1 0 0 0 0 1 0 0 0 0 1 0 0 0 0 1</matrix>
        </node>
      </node>
    </visual_scene>
  </library_visual_scenes>
  <scene>
    <instance_visual_scene url="#tr0062_00_fi_00_clip_id" />
  </scene>
</COLLADA>