<?xml version="1.0" encoding="utf-8"?>
<COLLADA xmlns:xsi="http://www.w3.org/2001/XMLSchema-instance" xmlns:xsd="http://www.w3.org/2001/XMLSchema" version="1.4.1" xmlns="http://www.collada.org/2005/11/COLLADASchema">
  <asset>
    <created>2026-02-17T05:46:45.260393-05:00</created>
    <modified>2026-02-17T05:46:45.2603934-05:00</modified>
    <up_axis>Y_UP</up_axis>
  </asset>
  <library_animations>
    <animation id="Motion_9_Waist_transform_id" name="Motion_9_Waist_transform">
      <source id="Motion_9_Waist_transform_frame_id" name="Motion_9_Waist_transform_frame">
        <float_array id="Motion_9_Waist_transform_frame_array_id" count="16">0 0.033333335 0.06666667 0.1 0.13333334 0.16666667 0.2 0.23333333 0.26666668 0.3 0.33333334 0.36666667 0.4 0.43333334 0.46666667 0.5</float_array>
        <technique_common>
          <accessor source="#Motion_9_Waist_transform_frame_array_id" count="16" stride="1">
            <param name="TIME" type="float" />
          </accessor>
        </technique_common>
      </source>
      <source id="Motion_9_Waist_transform_interp_id" name="Motion_9_Waist_transform_interp">
        <Name_array id="Motion_9_Waist_transform_interp_array_id" count="16">LINEAR LINEAR LINEAR LINEAR LINEAR LINEAR LINEAR LINEAR LINEAR LINEAR LINEAR LINEAR LINEAR LINEAR LINEAR LINEAR</Name_array>
        <technique_common>
          <accessor source="#Motion_9_Waist_transform_interp_array_id" count="16" stride="1">
            <param name="INTERPOLATION" type="Name" />
          </accessor>
        </technique_common>
      </source>
      <source id="Motion_9_Waist_transform_pose_id" name="Motion_9_Waist_transform_pose">
        <float_array id="Motion_9_Waist_transform_pose_array_id" count="256">0.09373498 -0.97245824 0.21339835 -3.7556171 0.94758177 0.15290225 0.28055283 84.950806 -0.30545503 0.17591472 0.9358158 0.74999154 0 0 0 1 0.09767842 -0.9614337 0.2571075 -4.331334 0.94809896 0.16844541 0.2696937 85.078384 -0.30260122 0.21742004 0.92798764 0.7633316 0 0 0 1 0.09220564 -0.9549431 0.28210256 -4.6465006 0.9483163 0.17060715 0.26756227 85.3642 -0.30363545 0.24285163 0.92131895 0.7749697 0 0 0 1 0.08466989 -0.9526702 0.29197696 -4.7310643 0.9479722 0.16726899 0.27086887 85.63621 -0.30688742 0.25385156 0.91726744 0.7839971 0 0 0 1 0.0789333 -0.95389175 0.28958586 -4.6299253 0.94730043 0.16224432 0.27622205 85.72497 -0.3104696 0.2525217 0.9164286 0.7895051 0 0 0 1 0.07983178 -0.95759654 0.2768316 -4.373206 0.94824195 0.15858477 0.27511442 85.759674 -0.3073499 0.24054044 0.9206934 0.79115856 0 0 0 1 0.09823191 -0.964864 0.2436966 -3.5984282 0.956285 0.15929914 0.24524061 85.58257 -0.27544448 0.20895292 0.9383331 0.6464451 0 0 0 1 0.12564194 -0.97430193 0.18694854 -2.193187 0.9649862 0.16375732 0.2049029 85.19105 -0.23025149 0.15465836 0.96076274 0.32807547 0 0 0 1 0.14930218 -0.98189163 0.116609424 -0.5701628 0.9716141 0.16757125 0.16699061 84.85206 -0.18350706 0.08836729 0.9790385 0.009705871 0 0 0 1 0.16028762 -0.9860052 0.045842357 0.8579159 0.97509646 0.16538435 0.14776585 84.83122 -0.15327948 0.021015696 0.9879594 -0.13499345 0 0 0 1 0.14606762 -0.9891656 -0.014686599 1.6783195 0.97918147 0.14244616 0.14461246 85.115875 -0.14095362 -0.035504047 0.98937935 -0.125002 0 0 0 1 0.106569886 -0.99169034 -0.07206272 1.7573694 0.9847638 0.09525335 0.14548902 85.617485 -0.13741586 -0.08646951 0.98673195 -0.10422834 0 0 0 1 0.054986417 -0.98967034 -0.13239752 1.3711615 0.98961514 0.036379635 0.13906275 86.205894 -0.13280971 -0.13866915 0.9813931 -0.0772366 0 0 0 1 0.0033643842 -0.9824868 -0.18630141 0.7918274 0.9917349 -0.020616889 0.1266357 86.750946 -0.12825888 -0.18518767 0.9742973 -0.048131797 0 0 0 1 -0.03653598 -0.97386914 -0.22415133 0.26285076 0.9915047 -0.063345075 0.11360304 87.16485 -0.12483342 -0.21809651 0.9679104 -0.021018904 0 0 0 1 -0.03653598 -0.97386914 -0.22415133 0.26285076 0.9915047 -0.063345075 0.11360304 87.16485 -0.12483342 -0.21809651 0.9679104 -0.021018904 0 0 0 1</float_array>
        <technique_common>
          <accessor source="#Motion_9_Waist_transform_pose_array_id" count="16" stride="16">
            <param name="TRANSFORM" type="float4x4" />
          </accessor>
        </technique_common>
      </source>
      <sampler id="Motion_9_Waist_transform_samp_id">
        <input semantic="INPUT" source="#Motion_9_Waist_transform_frame_id" />
        <input semantic="INTERPOLATION" source="#Motion_9_Waist_transform_interp_id" />
        <input semantic="OUTPUT" source="#Motion_9_Waist_transform_pose_id" />
      </sampler>
      <channel source="#Motion_9_Waist_transform_samp_id" target="Waist_bone_id/transform" />
    </animation>
    <animation id="Motion_9_Spine2_transform_id" name="Motion_9_Spine2_transform">
      <source id="Motion_9_Spine2_transform_frame_id" name="Motion_9_Spine2_transform_frame">
        <float_array id="Motion_9_Spine2_transform_frame_array_id" count="16">0 0.033333335 0.06666667 0.1 0.13333334 0.16666667 0.2 0.23333333 0.26666668 0.3 0.33333334 0.36666667 0.4 0.43333334 0.46666667 0.5</float_array>
        <technique_common>
          <accessor source="#Motion_9_Spine2_transform_frame_array_id" count="16" stride="1">
            <param name="TIME" type="float" />
          </accessor>
        </technique_common>
      </source>
      <source id="Motion_9_Spine2_transform_interp_id" name="Motion_9_Spine2_transform_interp">
        <Name_array id="Motion_9_Spine2_transform_interp_array_id" count="16">LINEAR LINEAR LINEAR LINEAR LINEAR LINEAR LINEAR LINEAR LINEAR LINEAR LINEAR LINEAR LINEAR LINEAR LINEAR LINEAR</Name_array>
        <technique_common>
          <accessor source="#Motion_9_Spine2_transform_interp_array_id" count="16" stride="1">
            <param name="INTERPOLATION" type="Name" />
          </accessor>
        </technique_common>
      </source>
      <source id="Motion_9_Spine2_transform_pose_id" name="Motion_9_Spine2_transform_pose">
        <float_array id="Motion_9_Spine2_transform_pose_array_id" count="256">0.997775 0.015108934 -0.06493647 12.099998 -0.018769884 0.9982463 -0.05614232 0 0.06397434 0.05723625 0.99630886 0 0 0 0 1 0.99499774 0.06422314 -0.07651737 12.099998 -0.06942265 0.9953113 -0.06734887 0 0.07183325 0.07232401 0.99479103 0 0 0 0 1 0.9902653 0.10819929 -0.08756411 12.099998 -0.115161516 0.9902166 -0.07879613 0 0.07818176 0.0881131 0.9930376 0 0 0 0 1 0.9853792 0.14044479 -0.096452445 12.099998 -0.14924914 0.98459506 -0.09108902 0 0.08217363 0.10415267 0.9911608 0 0 0 0 1 0.9824593 0.1570717 -0.10050992 12.099998 -0.16745971 0.98027676 -0.10495092 0 0.08204272 0.11994137 0.9893852 0 0 0 0 1 0.98428273 0.15236218 -0.08929327 12.099998 -0.16241623 0.9795276 -0.11893971 0 0.06934331 0.13157298 0.9888782 0 0 0 0 1 0.9932605 0.10438864 -0.05036414 12.099998 -0.11018655 0.98524594 -0.1309554 0 0.035950813 0.13562226 0.99010813 0 0 0 0 1 0.9958834 0.030305043 -0.08542738 12.099998 -0.040624253 0.99172634 -0.12177259 0 0.08103026 0.12474172 0.9888749 0 0 0 0 1 0.98706764 -0.051719435 -0.15173188 12.099998 0.033735007 0.9923457 -0.11879393 0 0.15671444 0.112138964 0.9812571 0 0 0 0 1 0.9769372 -0.11863184 -0.17753935 12.099998 0.09675157 0.9871445 -0.12722005 0 0.19034934 0.10710879 0.97585595 0 0 0 0 1 0.97762287 -0.14134873 -0.15580125 12.099998 0.12412931 0.9855513 -0.11524151 0 0.16983937 0.093323246 0.981043 0 0 0 0 1 0.98394936 -0.12081883 -0.13132565 12.099998 0.110708825 0.9904841 -0.08176048 0 0.13995416 0.06590927 0.98796195 0 0 0 0 1 0.9928877 -0.07509088 -0.09238705 12.099998 0.07075455 0.9962721 -0.049353503 0 0.09574863 0.04246568 0.9944993 0 0 0 0 1 0.99875474 -0.021622032 -0.04496119 12.099998 0.020550545 0.9994969 -0.024158608 0 0.045460932 0.023204546 0.99869657 0 0 0 0 1 0.99974585 0.022347663 -0.002980754 12.099998 -0.022376347 0.99969995 -0.009965208 0 0.0027571607 0.010029375 0.9999459 0 0 0 0 1 0.99974585 0.022347663 -0.002980754 12.099998 -0.022376347 0.99969995 -0.009965208 0 0.0027571607 0.010029375 0.9999459 0 0 0 0 1</float_array>
        <technique_common>
          <accessor source="#Motion_9_Spine2_transform_pose_array_id" count="16" stride="16">
            <param name="TRANSFORM" type="float4x4" />
          </accessor>
        </technique_common>
      </source>
      <sampler id="Motion_9_Spine2_transform_samp_id">
        <input semantic="INPUT" source="#Motion_9_Spine2_transform_frame_id" />
        <input semantic="INTERPOLATION" source="#Motion_9_Spine2_transform_interp_id" />
        <input semantic="OUTPUT" source="#Motion_9_Spine2_transform_pose_id" />
      </sampler>
      <channel source="#Motion_9_Spine2_transform_samp_id" target="Spine2_bone_id/transform" />
    </animation>
    <animation id="Motion_9_Spine3_transform_id" name="Motion_9_Spine3_transform">
      <source id="Motion_9_Spine3_transform_frame_id" name="Motion_9_Spine3_transform_frame">
        <float_array id="Motion_9_Spine3_transform_frame_array_id" count="16">0 0.033333335 0.06666667 0.1 0.13333334 0.16666667 0.2 0.23333333 0.26666668 0.3 0.33333334 0.36666667 0.4 0.43333334 0.46666667 0.5</float_array>
        <technique_common>
          <accessor source="#Motion_9_Spine3_transform_frame_array_id" count="16" stride="1">
            <param name="TIME" type="float" />
          </accessor>
        </technique_common>
      </source>
      <source id="Motion_9_Spine3_transform_interp_id" name="Motion_9_Spine3_transform_interp">
        <Name_array id="Motion_9_Spine3_transform_interp_array_id" count="16">LINEAR LINEAR LINEAR LINEAR LINEAR LINEAR LINEAR LINEAR LINEAR LINEAR LINEAR LINEAR LINEAR LINEAR LINEAR LINEAR</Name_array>
        <technique_common>
          <accessor source="#Motion_9_Spine3_transform_interp_array_id" count="16" stride="1">
            <param name="INTERPOLATION" type="Name" />
          </accessor>
        </technique_common>
      </source>
      <source id="Motion_9_Spine3_transform_pose_id" name="Motion_9_Spine3_transform_pose">
        <float_array id="Motion_9_Spine3_transform_pose_array_id" count="256">0.91994953 -0.10174094 -0.37860477 12.099991 0.031964194 0.9819884 -0.18621787 0 0.39073145 0.15920925 0.9066318 0 0 0 0 1 0.90714574 -0.10808168 -0.40670007 12.099991 0.020821888 0.97679895 -0.21314377 0 0.42030114 0.18488419 0.8883495 0 0 0 0 1 0.90730584 -0.12183174 -0.40243396 12.099991 0.02775181 0.97236663 -0.23180382 0 0.41955438 0.1991487 0.885615 0 0 0 0 1 0.91690207 -0.13627581 -0.37512594 12.099991 0.044707593 0.9690551 -0.24276194 0 0.3966003 0.20581794 0.89462125 0 0 0 0 1 0.9269998 -0.14669141 -0.3451855 12.099991 0.06069986 0.9668868 -0.24788189 0 0.37011746 0.20883375 0.905208 0 0 0 0 1 0.9314334 -0.14287129 -0.33469337 12.099991 0.059076212 0.9668735 -0.24832557 0 0.35908478 0.21152632 0.9090186 0 0 0 0 1 0.93770194 -0.12407112 -0.32453266 12.099991 0.040437642 0.9666908 -0.25273252 0 0.3450795 0.22386444 0.91148496 0 0 0 0 1 0.9678634 -0.09319207 -0.23357177 12.099991 0.030334 0.96528304 -0.25943872 0 0.2496405 0.24401608 0.93708897 0 0 0 0 1 0.9896384 -0.0581967 -0.13125935 12.099991 0.024946155 0.9699627 -0.24197099 0 0.14139861 0.23618937 0.96136415 0 0 0 0 1 0.99398607 -0.04313889 -0.1006513 12.099991 0.021411499 0.97795814 -0.20770025 0 0.10739272 0.20429605 0.97300047 0 0 0 0 1 0.98932415 -0.03146205 -0.14229508 12.099991 0.006063793 0.98445916 -0.17550887 0 0.14560555 0.1727723 0.97414 0 0 0 0 1 0.9838133 -0.016782248 -0.17840913 12.099991 -0.0066436343 0.99150455 -0.12990238 0 0.17907351 0.12898497 0.9753438 0 0 0 0 1 0.9849457 -0.0013879882 -0.17285821 12.099991 -0.011878903 0.9970605 -0.075692 0 0.17245516 0.07660587 0.98203397 0 0 0 0 1 0.99770904 0.014391424 -0.066102885 12.099991 -0.016093975 0.99955046 -0.025296154 0 0.06570912 0.02630206 0.99749213 0 0 0 0 1 0.9973356 0.027261665 0.06766476 12.099991 -0.027942808 0.99956775 0.009140303 0 -0.06738633 -0.011006692 0.99766624 0 0 0 0 1 0.9973356 0.027261665 0.06766476 12.099991 -0.027942808 0.99956775 0.009140303 0 -0.06738633 -0.011006692 0.99766624 0 0 0 0 1</float_array>
        <technique_common>
          <accessor source="#Motion_9_Spine3_transform_pose_array_id" count="16" stride="16">
            <param name="TRANSFORM" type="float4x4" />
          </accessor>
        </technique_common>
      </source>
      <sampler id="Motion_9_Spine3_transform_samp_id">
        <input semantic="INPUT" source="#Motion_9_Spine3_transform_frame_id" />
        <input semantic="INTERPOLATION" source="#Motion_9_Spine3_transform_interp_id" />
        <input semantic="OUTPUT" source="#Motion_9_Spine3_transform_pose_id" />
      </sampler>
      <channel source="#Motion_9_Spine3_transform_samp_id" target="Spine3_bone_id/transform" />
    </animation>
    <animation id="Motion_9_Neck_transform_id" name="Motion_9_Neck_transform">
      <source id="Motion_9_Neck_transform_frame_id" name="Motion_9_Neck_transform_frame">
        <float_array id="Motion_9_Neck_transform_frame_array_id" count="16">0 0.033333335 0.06666667 0.1 0.13333334 0.16666667 0.2 0.23333333 0.26666668 0.3 0.33333334 0.36666667 0.4 0.43333334 0.46666667 0.5</float_array>
        <technique_common>
          <accessor source="#Motion_9_Neck_transform_frame_array_id" count="16" stride="1">
            <param name="TIME" type="float" />
          </accessor>
        </technique_common>
      </source>
      <source id="Motion_9_Neck_transform_interp_id" name="Motion_9_Neck_transform_interp">
        <Name_array id="Motion_9_Neck_transform_interp_array_id" count="16">LINEAR LINEAR LINEAR LINEAR LINEAR LINEAR LINEAR LINEAR LINEAR LINEAR LINEAR LINEAR LINEAR LINEAR LINEAR LINEAR</Name_array>
        <technique_common>
          <accessor source="#Motion_9_Neck_transform_interp_array_id" count="16" stride="1">
            <param name="INTERPOLATION" type="Name" />
          </accessor>
        </technique_common>
      </source>
      <source id="Motion_9_Neck_transform_pose_id" name="Motion_9_Neck_transform_pose">
        <float_array id="Motion_9_Neck_transform_pose_array_id" count="256">0.7817985 0.008201683 -0.6234773 15.720233 0.042330243 0.99690855 0.06619335 0 0.62209266 -0.0781418 0.7790344 0 0 0 0 1 0.78135633 0.008332873 -0.6240295 15.720233 0.0422467 0.996911 0.066209786 0 0.6226536 -0.07809662 0.7785907 0 0 0 0 1 0.7809723 0.008610314 -0.6245063 15.720233 0.04201115 0.9969162 0.06628164 0 0.6231511 -0.078000344 0.7782022 0 0 0 0 1 0.78067607 0.008860312 -0.6248731 15.720233 0.0417936 0.99692076 0.06634994 0 0.6235369 -0.07791351 0.7779019 0 0 0 0 1 0.7804978 0.0089092925 -0.62509507 15.720233 0.041763976 0.9969216 0.0663556 0 0.62376195 -0.07789685 0.777723 0 0 0 0 1 0.78076184 0.008413468 -0.62477213 15.720233 0.041926097 0.9969503 0.06581936 0 0.62342054 -0.0775835 0.778028 0 0 0 0 1 0.782553 0.0033860616 -0.62257475 15.720233 0.038661666 0.99779093 0.054023046 0 0.6213824 -0.06634568 0.7806934 0 0 0 0 1 0.7870624 -0.009532498 -0.61679965 15.720233 0.028978692 0.99934804 0.021533338 0 0.6161923 -0.03482213 0.78682554 0 0 0 0 1 0.7948069 -0.028521959 -0.6061918 15.720233 0.015039187 0.99951386 -0.027309582 0 0.60667604 0.0125892125 0.7948495 0 0 0 0 1 0.8048802 -0.05129876 -0.59121597 15.720233 -0.00055678 0.996191 -0.08719573 0 0.5934371 0.07051129 0.8017859 0 0 0 0 1 0.81633747 -0.07570915 -0.5725917 15.720233 -0.0153483115 0.988178 -0.15254065 0 0.5773713 0.13331297 0.8055247 0 0 0 0 1 0.8282398 -0.09967668 -0.55143756 15.720233 -0.027410965 0.97566867 -0.21753012 0 0.55970305 0.19528253 0.80535537 0 0 0 0 1 0.83971447 -0.12077471 -0.5294271 15.720233 -0.036012463 0.96042144 -0.27621332 0 0.54183275 0.25100628 0.80213034 0 0 0 0 1 0.84943223 -0.13743852 -0.50948566 15.720233 -0.041580096 0.94505346 -0.32426083 0 0.52605706 0.29662204 0.79704416 0 0 0 0 1 0.85596037 -0.1482587 -0.4953294 15.720233 -0.044621963 0.9332506 -0.35644385 0 0.51511234 0.32720438 0.79220986 0 0 0 0 1 0.85596037 -0.1482587 -0.4953294 15.720233 -0.044621963 0.9332506 -0.35644385 0 0.51511234 0.32720438 0.79220986 0 0 0 0 1</float_array>
        <technique_common>
          <accessor source="#Motion_9_Neck_transform_pose_array_id" count="16" stride="16">
            <param name="TRANSFORM" type="float4x4" />
          </accessor>
        </technique_common>
      </source>
      <sampler id="Motion_9_Neck_transform_samp_id">
        <input semantic="INPUT" source="#Motion_9_Neck_transform_frame_id" />
        <input semantic="INTERPOLATION" source="#Motion_9_Neck_transform_interp_id" />
        <input semantic="OUTPUT" source="#Motion_9_Neck_transform_pose_id" />
      </sampler>
      <channel source="#Motion_9_Neck_transform_samp_id" target="Neck_bone_id/transform" />
    </animation>
    <animation id="Motion_9_Head_transform_id" name="Motion_9_Head_transform">
      <source id="Motion_9_Head_transform_frame_id" name="Motion_9_Head_transform_frame">
        <float_array id="Motion_9_Head_transform_frame_array_id" count="16">0 0.033333335 0.06666667 0.1 0.13333334 0.16666667 0.2 0.23333333 0.26666668 0.3 0.33333334 0.36666667 0.4 0.43333334 0.46666667 0.5</float_array>
        <technique_common>
          <accessor source="#Motion_9_Head_transform_frame_array_id" count="16" stride="1">
            <param name="TIME" type="float" />
          </accessor>
        </technique_common>
      </source>
      <source id="Motion_9_Head_transform_interp_id" name="Motion_9_Head_transform_interp">
        <Name_array id="Motion_9_Head_transform_interp_array_id" count="16">LINEAR LINEAR LINEAR LINEAR LINEAR LINEAR LINEAR LINEAR LINEAR LINEAR LINEAR LINEAR LINEAR LINEAR LINEAR LINEAR</Name_array>
        <technique_common>
          <accessor source="#Motion_9_Head_transform_interp_array_id" count="16" stride="1">
            <param name="INTERPOLATION" type="Name" />
          </accessor>
        </technique_common>
      </source>
      <source id="Motion_9_Head_transform_pose_id" name="Motion_9_Head_transform_pose">
        <float_array id="Motion_9_Head_transform_pose_array_id" count="256">0.73682624 -0.34610352 0.58077484 5.129917 0.2524387 0.9377427 0.23856506 0 -0.62718564 -0.02917093 0.77832335 0 0 0 0 1 0.67287433 -0.45366484 0.58431864 5.129917 0.37011582 0.89036584 0.26507154 0 -0.64051104 0.03790576 0.7670129 0 0 0 0 1 0.6388742 -0.5184341 0.5683888 5.129917 0.44477138 0.8517461 0.27696046 0 -0.6277087 0.07586021 0.7747432 0 0 0 0 1 0.63432395 -0.5534895 0.53970593 5.129917 0.48257762 0.8289078 0.28289708 0 -0.603947 0.0810016 0.7928977 0 0 0 0 1 0.638611 -0.5692569 0.5178055 5.129917 0.49579525 0.8189802 0.2888919 0 -0.5885262 0.07223596 0.8052446 0 0 0 0 1 0.637341 -0.5740082 0.5141118 5.129917 0.49560606 0.81622076 0.29691467 0 -0.5900602 0.06556106 0.8046929 0 0 0 0 1 0.65133804 -0.56092113 0.51100516 5.129917 0.46216437 0.82738495 0.319121 0 -0.6017997 0.028312758 0.79814506 0 0 0 0 1 0.69644153 -0.50938493 0.5054663 5.129917 0.38882217 0.8598726 0.33081186 0 -0.6031472 -0.03385462 0.7969111 0 0 0 0 1 0.74211466 -0.43781334 0.5075287 5.129917 0.31849802 0.8965872 0.30771816 0 -0.5897668 -0.066715255 0.80481315 0 0 0 0 1 0.77442807 -0.3715941 0.5120342 5.129917 0.2664437 0.9256219 0.26875976 0 -0.57381964 -0.07170681 0.8158365 0 0 0 0 1 0.79374844 -0.32910842 0.51151836 5.129917 0.2438509 0.94261223 0.22807655 0 -0.55722535 -0.056301184 0.8284504 0 0 0 0 1 0.82076275 -0.2758389 0.5002613 5.129917 0.22158669 0.9608627 0.1662595 0 -0.52654326 -0.025608368 0.84976256 0 0 0 0 1 0.8580425 -0.22649293 0.46093827 5.129917 0.20383786 0.9739722 0.09913755 0 -0.47139502 0.008892439 0.88187736 0 0 0 0 1 0.90932894 -0.22879003 0.3475285 5.129917 0.22740625 0.97274256 0.045368135 0 -0.34843555 0.03777559 0.93657124 0 0 0 0 1 0.93644464 -0.27075577 0.22307563 5.129917 0.27621698 0.96107006 0.006963372 0 -0.21627668 0.055096462 0.97477627 0 0 0 0 1 0.93644464 -0.27075577 0.22307563 5.129917 0.27621698 0.96107006 0.006963372 0 -0.21627668 0.055096462 0.97477627 0 0 0 0 1</float_array>
        <technique_common>
          <accessor source="#Motion_9_Head_transform_pose_array_id" count="16" stride="16">
            <param name="TRANSFORM" type="float4x4" />
          </accessor>
        </technique_common>
      </source>
      <sampler id="Motion_9_Head_transform_samp_id">
        <input semantic="INPUT" source="#Motion_9_Head_transform_frame_id" />
        <input semantic="INTERPOLATION" source="#Motion_9_Head_transform_interp_id" />
        <input semantic="OUTPUT" source="#Motion_9_Head_transform_pose_id" />
      </sampler>
      <channel source="#Motion_9_Head_transform_samp_id" target="Head_bone_id/transform" />
    </animation>
    <animation id="Motion_9_LShoulder_transform_id" name="Motion_9_LShoulder_transform">
      <source id="Motion_9_LShoulder_transform_frame_id" name="Motion_9_LShoulder_transform_frame">
        <float_array id="Motion_9_LShoulder_transform_frame_array_id" count="16">0 0.033333335 0.06666667 0.1 0.13333334 0.16666667 0.2 0.23333333 0.26666668 0.3 0.33333334 0.36666667 0.4 0.43333334 0.46666667 0.5</float_array>
        <technique_common>
          <accessor source="#Motion_9_LShoulder_transform_frame_array_id" count="16" stride="1">
            <param name="TIME" type="float" />
          </accessor>
        </technique_common>
      </source>
      <source id="Motion_9_LShoulder_transform_interp_id" name="Motion_9_LShoulder_transform_interp">
        <Name_array id="Motion_9_LShoulder_transform_interp_array_id" count="16">LINEAR LINEAR LINEAR LINEAR LINEAR LINEAR LINEAR LINEAR LINEAR LINEAR LINEAR LINEAR LINEAR LINEAR LINEAR LINEAR</Name_array>
        <technique_common>
          <accessor source="#Motion_9_LShoulder_transform_interp_array_id" count="16" stride="1">
            <param name="INTERPOLATION" type="Name" />
          </accessor>
        </technique_common>
      </source>
      <source id="Motion_9_LShoulder_transform_pose_id" name="Motion_9_LShoulder_transform_pose">
        <float_array id="Motion_9_LShoulder_transform_pose_array_id" count="256">-0.44407594 0.890844 -0.09588215 14.14009 -0.8947555 -0.44653141 -0.0046978034 -3.930001 -0.046999414 0.0837049 0.9953816 -0.201936 0 0 0 1 -0.44407594 0.890844 -0.09588215 14.14009 -0.8947555 -0.44653141 -0.0046978034 -3.930001 -0.046999414 0.0837049 0.9953816 -0.201936 0 0 0 1 -0.44407594 0.890844 -0.09588215 14.14009 -0.8947555 -0.44653141 -0.0046978034 -3.930001 -0.046999414 0.0837049 0.9953816 -0.201936 0 0 0 1 -0.44407594 0.890844 -0.09588215 14.14009 -0.8947555 -0.44653141 -0.0046978034 -3.930001 -0.046999414 0.0837049 0.9953816 -0.201936 0 0 0 1 -0.44407594 0.890844 -0.09588215 14.14009 -0.8947555 -0.44653141 -0.0046978034 -3.930001 -0.046999414 0.0837049 0.9953816 -0.201936 0 0 0 1 -0.44407594 0.890844 -0.09588215 14.14009 -0.8947555 -0.44653141 -0.0046978034 -3.930001 -0.046999414 0.0837049 0.9953816 -0.201936 0 0 0 1 -0.44407594 0.890844 -0.09588215 14.14009 -0.8947555 -0.44653141 -0.0046978034 -3.930001 -0.046999414 0.0837049 0.9953816 -0.201936 0 0 0 1 -0.44407594 0.890844 -0.09588215 14.14009 -0.8947555 -0.44653141 -0.0046978034 -3.930001 -0.046999414 0.0837049 0.9953816 -0.201936 0 0 0 1 -0.44407594 0.890844 -0.09588215 14.14009 -0.8947555 -0.44653141 -0.0046978034 -3.930001 -0.046999414 0.0837049 0.9953816 -0.201936 0 0 0 1 -0.44407594 0.890844 -0.09588215 14.14009 -0.8947555 -0.44653141 -0.0046978034 -3.930001 -0.046999414 0.0837049 0.9953816 -0.201936 0 0 0 1 -0.44407594 0.890844 -0.09588215 14.14009 -0.8947555 -0.44653141 -0.0046978034 -3.930001 -0.046999414 0.0837049 0.9953816 -0.201936 0 0 0 1 -0.44407594 0.890844 -0.09588215 14.14009 -0.8947555 -0.44653141 -0.0046978034 -3.930001 -0.046999414 0.0837049 0.9953816 -0.201936 0 0 0 1 -0.44407594 0.890844 -0.09588215 14.14009 -0.8947555 -0.44653141 -0.0046978034 -3.930001 -0.046999414 0.0837049 0.9953816 -0.201936 0 0 0 1 -0.44407594 0.890844 -0.09588215 14.14009 -0.8947555 -0.44653141 -0.0046978034 -3.930001 -0.046999414 0.0837049 0.9953816 -0.201936 0 0 0 1 -0.44407594 0.890844 -0.09588215 14.14009 -0.8947555 -0.44653141 -0.0046978034 -3.930001 -0.046999414 0.0837049 0.9953816 -0.201936 0 0 0 1 -0.44407594 0.890844 -0.09588215 14.14009 -0.8947555 -0.44653141 -0.0046978034 -3.930001 -0.046999414 0.0837049 0.9953816 -0.201936 0 0 0 1</float_array>
        <technique_common>
          <accessor source="#Motion_9_LShoulder_transform_pose_array_id" count="16" stride="16">
            <param name="TRANSFORM" type="float4x4" />
          </accessor>
        </technique_common>
      </source>
      <sampler id="Motion_9_LShoulder_transform_samp_id">
        <input semantic="INPUT" source="#Motion_9_LShoulder_transform_frame_id" />
        <input semantic="INTERPOLATION" source="#Motion_9_LShoulder_transform_interp_id" />
        <input semantic="OUTPUT" source="#Motion_9_LShoulder_transform_pose_id" />
      </sampler>
      <channel source="#Motion_9_LShoulder_transform_samp_id" target="LShoulder_bone_id/transform" />
    </animation>
    <animation id="Motion_9_LArm_transform_id" name="Motion_9_LArm_transform">
      <source id="Motion_9_LArm_transform_frame_id" name="Motion_9_LArm_transform_frame">
        <float_array id="Motion_9_LArm_transform_frame_array_id" count="16">0 0.033333335 0.06666667 0.1 0.13333334 0.16666667 0.2 0.23333333 0.26666668 0.3 0.33333334 0.36666667 0.4 0.43333334 0.46666667 0.5</float_array>
        <technique_common>
          <accessor source="#Motion_9_LArm_transform_frame_array_id" count="16" stride="1">
            <param name="TIME" type="float" />
          </accessor>
        </technique_common>
      </source>
      <source id="Motion_9_LArm_transform_interp_id" name="Motion_9_LArm_transform_interp">
        <Name_array id="Motion_9_LArm_transform_interp_array_id" count="16">LINEAR LINEAR LINEAR LINEAR LINEAR LINEAR LINEAR LINEAR LINEAR LINEAR LINEAR LINEAR LINEAR LINEAR LINEAR LINEAR</Name_array>
        <technique_common>
          <accessor source="#Motion_9_LArm_transform_interp_array_id" count="16" stride="1">
            <param name="INTERPOLATION" type="Name" />
          </accessor>
        </technique_common>
      </source>
      <source id="Motion_9_LArm_transform_pose_id" name="Motion_9_LArm_transform_pose">
        <float_array id="Motion_9_LArm_transform_pose_array_id" count="256">0.76064265 0.6116074 0.21762168 8.161509 -0.64738756 0.6898294 0.32407525 0 0.048084967 -0.387391 0.9206607 0 0 0 0 1 0.7120329 0.64396054 0.2798642 8.161509 -0.6982102 0.60722375 0.37918586 0 0.07424052 -0.46539682 0.8819831 0 0 0 0 1 0.69286597 0.6492102 0.31378788 8.161509 -0.7118833 0.546645 0.44090983 0 0.11471259 -0.5288718 0.8409136 0 0 0 0 1 0.68622077 0.64681405 0.33276504 8.161509 -0.71017617 0.49681425 0.4988241 0 0.15732403 -0.57862526 0.8002762 0 0 0 0 1 0.6739365 0.6495469 0.3519922 8.161509 -0.7088395 0.43422538 0.55587316 0 0.20822175 -0.6241292 0.7530648 0 0 0 0 1 0.6779054 0.64803594 0.34712195 8.161509 -0.6921614 0.4035349 0.59839135 0 0.2477033 -0.6459171 0.72210395 0 0 0 0 1 0.70777255 0.6218269 0.33524525 8.161509 -0.67427516 0.45306802 0.58316594 0 0.2107393 -0.6387964 0.7399515 0 0 0 0 1 0.7482273 0.53121424 0.39745104 8.161509 -0.6630802 0.5789796 0.47445464 0 0.021921009 -0.61854184 0.78544605 0 0 0 0 1 0.7442639 0.4125585 0.5252301 8.161509 -0.62050086 0.71805036 0.31524962 0 -0.24708275 -0.56053466 0.7904119 0 0 0 0 1 0.6946793 0.36141062 0.6219349 8.161509 -0.56188995 0.8124689 0.1554801 0 -0.4491106 -0.4574678 0.7674783 0 0 0 0 1 0.6559068 0.35210758 0.6676874 8.161509 -0.4880203 0.8726204 0.019229889 0 -0.5758667 -0.33845803 0.7441933 0 0 0 0 1 0.6133541 0.37664622 0.69421494 8.161509 -0.39327544 0.907897 -0.14511192 0 -0.6849315 -0.18401271 0.70498806 0 0 0 0 1 0.59014124 0.49612707 0.63686043 8.161509 -0.21719255 0.85736305 -0.4666434 0 -0.777535 0.13706417 0.6137204 0 0 0 0 1 0.6646507 0.6089153 0.43296835 8.161509 -0.062222183 0.62258714 -0.78007287 0 -0.7445588 0.49153572 0.45169097 0 0 0 0 1 0.74232453 0.64270645 0.18942721 8.161509 -0.1015141 0.38732415 -0.9163377 0 -0.66230595 0.6609905 0.352764 0 0 0 0 1 0.74232453 0.64270645 0.18942721 8.161509 -0.1015141 0.38732415 -0.9163377 0 -0.66230595 0.6609905 0.352764 0 0 0 0 1</float_array>
        <technique_common>
          <accessor source="#Motion_9_LArm_transform_pose_array_id" count="16" stride="16">
            <param name="TRANSFORM" type="float4x4" />
          </accessor>
        </technique_common>
      </source>
      <sampler id="Motion_9_LArm_transform_samp_id">
        <input semantic="INPUT" source="#Motion_9_LArm_transform_frame_id" />
        <input semantic="INTERPOLATION" source="#Motion_9_LArm_transform_interp_id" />
        <input semantic="OUTPUT" source="#Motion_9_LArm_transform_pose_id" />
      </sampler>
      <channel source="#Motion_9_LArm_transform_samp_id" target="LArm_bone_id/transform" />
    </animation>
    <animation id="Motion_9_LForeArm_transform_id" name="Motion_9_LForeArm_transform">
      <source id="Motion_9_LForeArm_transform_frame_id" name="Motion_9_LForeArm_transform_frame">
        <float_array id="Motion_9_LForeArm_transform_frame_array_id" count="16">0 0.033333335 0.06666667 0.1 0.13333334 0.16666667 0.2 0.23333333 0.26666668 0.3 0.33333334 0.36666667 0.4 0.43333334 0.46666667 0.5</float_array>
        <technique_common>
          <accessor source="#Motion_9_LForeArm_transform_frame_array_id" count="16" stride="1">
            <param name="TIME" type="float" />
          </accessor>
        </technique_common>
      </source>
      <source id="Motion_9_LForeArm_transform_interp_id" name="Motion_9_LForeArm_transform_interp">
        <Name_array id="Motion_9_LForeArm_transform_interp_array_id" count="16">LINEAR LINEAR LINEAR LINEAR LINEAR LINEAR LINEAR LINEAR LINEAR LINEAR LINEAR LINEAR LINEAR LINEAR LINEAR LINEAR</Name_array>
        <technique_common>
          <accessor source="#Motion_9_LForeArm_transform_interp_array_id" count="16" stride="1">
            <param name="INTERPOLATION" type="Name" />
          </accessor>
        </technique_common>
      </source>
      <source id="Motion_9_LForeArm_transform_pose_id" name="Motion_9_LForeArm_transform_pose">
        <float_array id="Motion_9_LForeArm_transform_pose_array_id" count="256">-0.60673034 -0.0031455914 -0.79490155 22.9 0.0015360032 0.99998564 -0.0051295483 0 0.7949063 -0.0043332237 -0.60671675 0 0 0 0 1 -0.5051415 -0.0032167295 -0.8630306 22.9 0.0016885749 0.9999875 -0.0047155432 0 0.8630349 -0.0038393082 -0.5051297 0 0 0 0 1 -0.36935246 -0.0032330165 -0.9292837 22.9 0.0018451433 0.99998945 -0.0042123734 0 0.9292875 -0.0032705122 -0.36934257 0 0 0 0 1 -0.23151946 -0.0031864443 -0.97282505 22.9 0.001946848 0.9999911 -0.0037387495 0 0.97282827 -0.002759536 -0.23151124 0 0 0 0 1 -0.13020504 -0.0031215753 -0.99148214 22.9 0.0019879122 0.9999922 -0.003409428 0 0.9914851 -0.002414904 -0.13019776 0 0 0 0 1 -0.080687165 -0.0030840645 -0.9967347 22.9 0.001997084 0.9999927 -0.0032558122 0 0.9967374 -0.0022532654 -0.08068037 0 0 0 0 1 -0.06563628 -0.0030750195 -0.9978388 22.9 0.001997359 0.99999285 -0.0032130403 0 0.99784154 -0.0022039346 -0.0656296 0 0 0 0 1 -0.10559034 -0.0031170808 -0.99440485 22.9 0.0019842167 0.99999243 -0.0033452886 0 0.9944077 -0.0023263448 -0.10558331 0 0 0 0 1 -0.14906406 -0.0031558801 -0.9888225 22.9 0.0019660466 0.999992 -0.0034879076 0 0.9888256 -0.0024639925 -0.14905667 0 0 0 0 1 -0.16229224 -0.003163711 -0.9867377 22.9 0.0019590675 0.99999183 -0.0035284215 0 0.9867408 -0.0025057208 -0.16228473 0 0 0 0 1 -0.16256607 -0.0031565824 -0.98669267 22.9 0.0019568685 0.9999919 -0.0035215395 0 0.98669577 -0.0025033106 -0.16255867 0 0 0 0 1 -0.15685248 -0.0031395764 -0.9876171 22.9 0.0019546677 0.999992 -0.003489354 0 0.9876202 -0.002477777 -0.1568451 0 0 0 0 1 -0.22189867 -0.0031682828 -0.9750643 22.9 0.00190774 0.9999914 -0.0036834292 0 0.9750676 -0.0026775189 -0.2218908 0 0 0 0 1 -0.26458848 -0.003168416 -0.96435624 22.9 0.0018616316 0.99999106 -0.0037962669 0 0.9643597 -0.0027997242 -0.26458025 0 0 0 0 1 -0.19276083 -0.0030913104 -0.98124075 22.9 0.0018888649 0.999992 -0.0035214443 0 0.98124385 -0.0025322284 -0.19275355 0 0 0 0 1 -0.19276083 -0.0030913104 -0.98124075 22.9 0.0018888649 0.999992 -0.0035214443 0 0.98124385 -0.0025322284 -0.19275355 0 0 0 0 1</float_array>
        <technique_common>
          <accessor source="#Motion_9_LForeArm_transform_pose_array_id" count="16" stride="16">
            <param name="TRANSFORM" type="float4x4" />
          </accessor>
        </technique_common>
      </source>
      <sampler id="Motion_9_LForeArm_transform_samp_id">
        <input semantic="INPUT" source="#Motion_9_LForeArm_transform_frame_id" />
        <input semantic="INTERPOLATION" source="#Motion_9_LForeArm_transform_interp_id" />
        <input semantic="OUTPUT" source="#Motion_9_LForeArm_transform_pose_id" />
      </sampler>
      <channel source="#Motion_9_LForeArm_transform_samp_id" target="LForeArm_bone_id/transform" />
    </animation>
    <animation id="Motion_9_LHand_transform_id" name="Motion_9_LHand_transform">
      <source id="Motion_9_LHand_transform_frame_id" name="Motion_9_LHand_transform_frame">
        <float_array id="Motion_9_LHand_transform_frame_array_id" count="16">0 0.033333335 0.06666667 0.1 0.13333334 0.16666667 0.2 0.23333333 0.26666668 0.3 0.33333334 0.36666667 0.4 0.43333334 0.46666667 0.5</float_array>
        <technique_common>
          <accessor source="#Motion_9_LHand_transform_frame_array_id" count="16" stride="1">
            <param name="TIME" type="float" />
          </accessor>
        </technique_common>
      </source>
      <source id="Motion_9_LHand_transform_interp_id" name="Motion_9_LHand_transform_interp">
        <Name_array id="Motion_9_LHand_transform_interp_array_id" count="16">LINEAR LINEAR LINEAR LINEAR LINEAR LINEAR LINEAR LINEAR LINEAR LINEAR LINEAR LINEAR LINEAR LINEAR LINEAR LINEAR</Name_array>
        <technique_common>
          <accessor source="#Motion_9_LHand_transform_interp_array_id" count="16" stride="1">
            <param name="INTERPOLATION" type="Name" />
          </accessor>
        </technique_common>
      </source>
      <source id="Motion_9_LHand_transform_pose_id" name="Motion_9_LHand_transform_pose">
        <float_array id="Motion_9_LHand_transform_pose_array_id" count="256">0.7280218 0.66908187 -0.14937782 22.900002 0.24531215 -0.05078304 0.9681131 0 0.6401611 -0.7414517 -0.20110512 0 0 0 0 1 0.836079 0.5442568 -0.06896675 22.900002 0.21366207 -0.20725119 0.95467037 0 0.5052924 -0.8129154 -0.28956532 0 0 0 0 1 0.9302632 0.36602032 -0.025288433 22.900002 0.16086912 -0.34496927 0.9247256 0 0.3297446 -0.8643063 -0.37979352 0 0 0 0 1 0.9777843 0.20956224 -0.0046460778 22.900002 0.0894748 -0.39722598 0.9133488 0 0.18955785 -0.89347374 -0.40715194 0 0 0 0 1 0.99599135 0.0875468 0.018350862 22.900002 0.0149213 -0.36488914 0.9309314 0 0.0881961 -0.92692584 -0.36473274 0 0 0 0 1 0.9993882 0.031417064 0.015368179 22.900002 -0.005484703 -0.2931913 0.9560379 0 0.03454173 -0.9555373 -0.29283965 0 0 0 0 1 0.99756336 0.06566515 -0.023566421 22.900002 0.03925982 -0.24913669 0.9676724 0 0.05767109 -0.96623975 -0.2511077 0 0 0 0 1 0.9827316 0.1789911 -0.046913408 22.900002 0.08315335 -0.20070541 0.97611624 0 0.16530034 -0.9631613 -0.21212327 0 0 0 0 1 0.95283365 0.28429675 -0.10622346 22.900002 0.085263 0.0851503 0.99271333 0 0.29127014 -0.9549476 0.056894064 0 0 0 0 1 0.90428954 0.3247459 -0.2771291 22.900002 0.082833305 0.50333655 0.860111 0 0.41880673 -0.8007449 0.42826217 0 0 0 0 1 0.8466627 0.22727259 -0.4811543 22.900002 0.07805805 0.8413789 0.5347789 0 0.5263736 -0.4903353 0.69462365 0 0 0 0 1 0.79670125 0.051197946 -0.60220087 22.900002 0.07694624 0.9797043 0.18509108 0 0.5994551 -0.19379938 0.77659214 0 0 0 0 1 0.77512395 -0.047882013 -0.62999225 22.900002 0.08295936 0.9962044 0.02635511 0 0.6263391 -0.07269223 0.7761541 0 0 0 0 1 0.7433484 -0.20971644 -0.6351788 22.900002 0.290699 0.95650345 0.024396516 0 0.6024344 -0.20278096 0.7719797 0 0 0 0 1 0.547095 -0.44264054 -0.71046215 22.900002 0.62516856 0.7804748 -0.0048463494 0 0.55664295 -0.44150716 0.7037188 0 0 0 0 1 0.547095 -0.44264054 -0.71046215 22.900002 0.62516856 0.7804748 -0.0048463494 0 0.55664295 -0.44150716 0.7037188 0 0 0 0 1</float_array>
        <technique_common>
          <accessor source="#Motion_9_LHand_transform_pose_array_id" count="16" stride="16">
            <param name="TRANSFORM" type="float4x4" />
          </accessor>
        </technique_common>
      </source>
      <sampler id="Motion_9_LHand_transform_samp_id">
        <input semantic="INPUT" source="#Motion_9_LHand_transform_frame_id" />
        <input semantic="INTERPOLATION" source="#Motion_9_LHand_transform_interp_id" />
        <input semantic="OUTPUT" source="#Motion_9_LHand_transform_pose_id" />
      </sampler>
      <channel source="#Motion_9_LHand_transform_samp_id" target="LHand_bone_id/transform" />
    </animation>
    <animation id="Motion_9_RShoulder_transform_id" name="Motion_9_RShoulder_transform">
      <source id="Motion_9_RShoulder_transform_frame_id" name="Motion_9_RShoulder_transform_frame">
        <float_array id="Motion_9_RShoulder_transform_frame_array_id" count="16">0 0.033333335 0.06666667 0.1 0.13333334 0.16666667 0.2 0.23333333 0.26666668 0.3 0.33333334 0.36666667 0.4 0.43333334 0.46666667 0.5</float_array>
        <technique_common>
          <accessor source="#Motion_9_RShoulder_transform_frame_array_id" count="16" stride="1">
            <param name="TIME" type="float" />
          </accessor>
        </technique_common>
      </source>
      <source id="Motion_9_RShoulder_transform_interp_id" name="Motion_9_RShoulder_transform_interp">
        <Name_array id="Motion_9_RShoulder_transform_interp_array_id" count="16">LINEAR LINEAR LINEAR LINEAR LINEAR LINEAR LINEAR LINEAR LINEAR LINEAR LINEAR LINEAR LINEAR LINEAR LINEAR LINEAR</Name_array>
        <technique_common>
          <accessor source="#Motion_9_RShoulder_transform_interp_array_id" count="16" stride="1">
            <param name="INTERPOLATION" type="Name" />
          </accessor>
        </technique_common>
      </source>
      <source id="Motion_9_RShoulder_transform_pose_id" name="Motion_9_RShoulder_transform_pose">
        <float_array id="Motion_9_RShoulder_transform_pose_array_id" count="256">-0.67756665 -0.6677582 -0.30822444 14.14009 0.6880071 -0.72360015 0.055217296 3.93 -0.25990307 -0.17464723 0.94970983 -0.201935 0 0 0 1 -0.67756665 -0.6677582 -0.30822444 14.14009 0.6880071 -0.72360015 0.055217296 3.93 -0.25990307 -0.17464723 0.94970983 -0.201935 0 0 0 1 -0.67756665 -0.6677582 -0.30822444 14.14009 0.6880071 -0.72360015 0.055217296 3.93 -0.25990307 -0.17464723 0.94970983 -0.201935 0 0 0 1 -0.67756665 -0.6677582 -0.30822444 14.14009 0.6880071 -0.72360015 0.055217296 3.93 -0.25990307 -0.17464723 0.94970983 -0.201935 0 0 0 1 -0.67756665 -0.6677582 -0.30822444 14.14009 0.6880071 -0.72360015 0.055217296 3.93 -0.25990307 -0.17464723 0.94970983 -0.201935 0 0 0 1 -0.67756665 -0.6677582 -0.30822444 14.14009 0.6880071 -0.72360015 0.055217296 3.93 -0.25990307 -0.17464723 0.94970983 -0.201935 0 0 0 1 -0.67756665 -0.6677582 -0.30822444 14.14009 0.6880071 -0.72360015 0.055217296 3.93 -0.25990307 -0.17464723 0.94970983 -0.201935 0 0 0 1 -0.67756665 -0.6677582 -0.30822444 14.14009 0.6880071 -0.72360015 0.055217296 3.93 -0.25990307 -0.17464723 0.94970983 -0.201935 0 0 0 1 -0.67756665 -0.6677582 -0.30822444 14.14009 0.6880071 -0.72360015 0.055217296 3.93 -0.25990307 -0.17464723 0.94970983 -0.201935 0 0 0 1 -0.67756665 -0.6677582 -0.30822444 14.14009 0.6880071 -0.72360015 0.055217296 3.93 -0.25990307 -0.17464723 0.94970983 -0.201935 0 0 0 1 -0.67756665 -0.6677582 -0.30822444 14.14009 0.6880071 -0.72360015 0.055217296 3.93 -0.25990307 -0.17464723 0.94970983 -0.201935 0 0 0 1 -0.67756665 -0.6677582 -0.30822444 14.14009 0.6880071 -0.72360015 0.055217296 3.93 -0.25990307 -0.17464723 0.94970983 -0.201935 0 0 0 1 -0.67756665 -0.6677582 -0.30822444 14.14009 0.6880071 -0.72360015 0.055217296 3.93 -0.25990307 -0.17464723 0.94970983 -0.201935 0 0 0 1 -0.67756665 -0.6677582 -0.30822444 14.14009 0.6880071 -0.72360015 0.055217296 3.93 -0.25990307 -0.17464723 0.94970983 -0.201935 0 0 0 1 -0.67756665 -0.6677582 -0.30822444 14.14009 0.6880071 -0.72360015 0.055217296 3.93 -0.25990307 -0.17464723 0.94970983 -0.201935 0 0 0 1 -0.67756665 -0.6677582 -0.30822444 14.14009 0.6880071 -0.72360015 0.055217296 3.93 -0.25990307 -0.17464723 0.94970983 -0.201935 0 0 0 1</float_array>
        <technique_common>
          <accessor source="#Motion_9_RShoulder_transform_pose_array_id" count="16" stride="16">
            <param name="TRANSFORM" type="float4x4" />
          </accessor>
        </technique_common>
      </source>
      <sampler id="Motion_9_RShoulder_transform_samp_id">
        <input semantic="INPUT" source="#Motion_9_RShoulder_transform_frame_id" />
        <input semantic="INTERPOLATION" source="#Motion_9_RShoulder_transform_interp_id" />
        <input semantic="OUTPUT" source="#Motion_9_RShoulder_transform_pose_id" />
      </sampler>
      <channel source="#Motion_9_RShoulder_transform_samp_id" target="RShoulder_bone_id/transform" />
    </animation>
    <animation id="Motion_9_RArm_transform_id" name="Motion_9_RArm_transform">
      <source id="Motion_9_RArm_transform_frame_id" name="Motion_9_RArm_transform_frame">
        <float_array id="Motion_9_RArm_transform_frame_array_id" count="16">0 0.033333335 0.06666667 0.1 0.13333334 0.16666667 0.2 0.23333333 0.26666668 0.3 0.33333334 0.36666667 0.4 0.43333334 0.46666667 0.5</float_array>
        <technique_common>
          <accessor source="#Motion_9_RArm_transform_frame_array_id" count="16" stride="1">
            <param name="TIME" type="float" />
          </accessor>
        </technique_common>
      </source>
      <source id="Motion_9_RArm_transform_interp_id" name="Motion_9_RArm_transform_interp">
        <Name_array id="Motion_9_RArm_transform_interp_array_id" count="16">LINEAR LINEAR LINEAR LINEAR LINEAR LINEAR LINEAR LINEAR LINEAR LINEAR LINEAR LINEAR LINEAR LINEAR LINEAR LINEAR</Name_array>
        <technique_common>
          <accessor source="#Motion_9_RArm_transform_interp_array_id" count="16" stride="1">
            <param name="INTERPOLATION" type="Name" />
          </accessor>
        </technique_common>
      </source>
      <source id="Motion_9_RArm_transform_pose_id" name="Motion_9_RArm_transform_pose">
        <float_array id="Motion_9_RArm_transform_pose_array_id" count="256">0.8596417 -0.51087874 -0.0043759346 8.161548 0.33029556 0.562273 -0.75812525 0 0.38977057 0.65027064 0.65209424 0 0 0 0 1 0.8685985 -0.47969577 0.12421175 8.161548 0.39491746 0.51874834 -0.7582482 0 0.29929382 0.70766664 0.6400243 0 0 0 0 1 0.86178577 -0.46192136 0.20965202 8.161548 0.44349375 0.48544836 -0.7534276 0 0.2462491 0.7422725 0.62321174 0 0 0 0 1 0.8579426 -0.4377651 0.2688796 8.161548 0.47021046 0.45825893 -0.7542552 0 0.20697011 0.77353764 0.5990016 0 0 0 0 1 0.8596094 -0.40794882 0.3076514 8.161548 0.47997186 0.43823683 -0.7599839 0 0.17521031 0.8009534 0.57251644 0 0 0 0 1 0.86305976 -0.37834644 0.3346369 8.161548 0.48292577 0.42393953 -0.7661971 0 0.14802215 0.8228786 0.5485984 0 0 0 0 1 0.8934673 -0.27071974 0.35836712 8.161548 0.44386235 0.41041064 -0.7965861 0 0.06857389 0.87078935 0.4868508 0 0 0 0 1 0.93525946 -0.07417759 0.34610313 8.161548 0.34672004 0.38877606 -0.8536032 0 -0.07123838 0.91834134 0.38932538 0 0 0 0 1 0.9600408 0.10177809 0.2606968 8.161548 0.20714065 0.36796737 -0.9064727 0 -0.18818699 0.9242517 0.33218133 0 0 0 0 1 0.97057194 0.1737155 0.16677245 8.161548 0.09181145 0.3732977 -0.9231574 0 -0.22262251 0.91130227 0.34636325 0 0 0 0 1 0.9800693 0.08255264 0.18069096 8.161548 0.121472284 0.47067475 -0.87390494 0 -0.15718983 0.8784363 0.45126605 0 0 0 0 1 0.97398984 -0.10513516 0.2007248 8.161548 0.22115321 0.63398707 -0.74104774 0 -0.04934676 0.7661638 0.6407479 0 0 0 0 1 0.9420872 -0.29239464 0.16424716 8.161548 0.3328879 0.7558427 -0.5638151 0 0.040711503 0.5858389 0.8094043 0 0 0 0 1 0.8928449 -0.39151332 0.22258776 8.161548 0.448746 0.81524515 -0.36606336 0 -0.038144916 0.42672318 0.9035775 0 0 0 0 1 0.8354392 -0.45895538 0.30232656 8.161548 0.52549803 0.8281641 -0.19492593 0 -0.16091369 0.32172075 0.9330609 0 0 0 0 1 0.8354392 -0.45895538 0.30232656 8.161548 0.52549803 0.8281641 -0.19492593 0 -0.16091369 0.32172075 0.9330609 0 0 0 0 1</float_array>
        <technique_common>
          <accessor source="#Motion_9_RArm_transform_pose_array_id" count="16" stride="16">
            <param name="TRANSFORM" type="float4x4" />
          </accessor>
        </technique_common>
      </source>
      <sampler id="Motion_9_RArm_transform_samp_id">
        <input semantic="INPUT" source="#Motion_9_RArm_transform_frame_id" />
        <input semantic="INTERPOLATION" source="#Motion_9_RArm_transform_interp_id" />
        <input semantic="OUTPUT" source="#Motion_9_RArm_transform_pose_id" />
      </sampler>
      <channel source="#Motion_9_RArm_transform_samp_id" target="RArm_bone_id/transform" />
    </animation>
    <animation id="Motion_9_RForeArm_transform_id" name="Motion_9_RForeArm_transform">
      <source id="Motion_9_RForeArm_transform_frame_id" name="Motion_9_RForeArm_transform_frame">
        <float_array id="Motion_9_RForeArm_transform_frame_array_id" count="16">0 0.033333335 0.06666667 0.1 0.13333334 0.16666667 0.2 0.23333333 0.26666668 0.3 0.33333334 0.36666667 0.4 0.43333334 0.46666667 0.5</float_array>
        <technique_common>
          <accessor source="#Motion_9_RForeArm_transform_frame_array_id" count="16" stride="1">
            <param name="TIME" type="float" />
          </accessor>
        </technique_common>
      </source>
      <source id="Motion_9_RForeArm_transform_interp_id" name="Motion_9_RForeArm_transform_interp">
        <Name_array id="Motion_9_RForeArm_transform_interp_array_id" count="16">LINEAR LINEAR LINEAR LINEAR LINEAR LINEAR LINEAR LINEAR LINEAR LINEAR LINEAR LINEAR LINEAR LINEAR LINEAR LINEAR</Name_array>
        <technique_common>
          <accessor source="#Motion_9_RForeArm_transform_interp_array_id" count="16" stride="1">
            <param name="INTERPOLATION" type="Name" />
          </accessor>
        </technique_common>
      </source>
      <source id="Motion_9_RForeArm_transform_pose_id" name="Motion_9_RForeArm_transform_pose">
        <float_array id="Motion_9_RForeArm_transform_pose_array_id" count="256">-0.41355646 -1.6701932E-07 -0.91047835 22.9 -3.6154262E-08 1 -1.6701932E-07 0 0.91047835 -3.6154262E-08 -0.41355646 0 0 0 0 1 -0.3773067 2.4560844E-05 -0.9260884 22.9 -3.2985554E-08 1 2.6534497E-05 0 0.9260884 1.0042189E-05 -0.3773067 0 0 0 0 1 -0.3395301 1.9789077E-05 -0.94059515 22.9 -2.9683179E-08 1 2.1049602E-05 0 0.94059515 7.174893E-06 -0.3395301 0 0 0 0 1 -0.30802226 -1.7059497E-07 -0.9513791 22.9 -2.692817E-08 1 -1.7059497E-07 0 0.9513791 -2.692817E-08 -0.30802226 0 0 0 0 1 -0.3063413 -2.0369711E-05 -0.95192176 22.9 -2.6780981E-08 1 -2.1389897E-05 0 0.95192176 -6.5271156E-06 -0.3063413 0 0 0 0 1 -0.34211743 -2.5261126E-05 -0.9396573 22.9 -2.9907824E-08 1 -2.687245E-05 0 0.9396573 -9.165428E-06 -0.34211743 0 0 0 0 1 -0.36919284 -1.686694E-07 -0.9293529 22.9 -3.2275857E-08 1 -1.686694E-07 0 0.9293529 -3.2275857E-08 -0.36919284 0 0 0 0 1 -0.3460456 -1.6944438E-07 -0.9382177 22.9 -3.0252274E-08 1 -1.6944438E-07 0 0.9382177 -3.0252274E-08 -0.3460456 0 0 0 0 1 -0.27214968 -3.2997765E-09 -0.96225494 22.9 -2.379207E-08 1 3.2997765E-09 0 0.96225494 2.379207E-08 -0.27214968 0 0 0 0 1 -0.17869294 -1.7343851E-07 -0.98390496 22.9 -1.562183E-08 1 -1.7343851E-07 0 0.98390496 -1.562183E-08 -0.17869294 0 0 0 0 1 -0.10756111 -1.7433838E-07 -0.9941985 22.9 -9.403294E-09 1 -1.7433838E-07 0 0.9941985 -9.403294E-09 -0.10756111 0 0 0 0 1 -0.009458065 -3.9103443E-12 -0.99995524 22.9 -8.2685925E-10 1 3.9103443E-12 0 0.99995524 8.2685925E-10 -0.009458065 0 0 0 0 1 0.22295374 4.654104E-05 -0.974829 22.9 3.8982762E-08 1 4.7751688E-05 0 0.974829 -1.0684418E-05 0.22295374 0 0 0 0 1 0.521525 4.071404E-05 -0.85323596 22.9 9.118594E-08 1 4.7772945E-05 0 0.85323596 -2.499259E-05 0.521525 0 0 0 0 1 0.7943251 2.893751E-05 -0.60749286 22.9 1.3888439E-07 1 4.781592E-05 0 0.60749286 -3.806576E-05 0.7943251 0 0 0 0 1 0.7943251 2.893751E-05 -0.60749286 22.9 1.3888439E-07 1 4.781592E-05 0 0.60749286 -3.806576E-05 0.7943251 0 0 0 0 1</float_array>
        <technique_common>
          <accessor source="#Motion_9_RForeArm_transform_pose_array_id" count="16" stride="16">
            <param name="TRANSFORM" type="float4x4" />
          </accessor>
        </technique_common>
      </source>
      <sampler id="Motion_9_RForeArm_transform_samp_id">
        <input semantic="INPUT" source="#Motion_9_RForeArm_transform_frame_id" />
        <input semantic="INTERPOLATION" source="#Motion_9_RForeArm_transform_interp_id" />
        <input semantic="OUTPUT" source="#Motion_9_RForeArm_transform_pose_id" />
      </sampler>
      <channel source="#Motion_9_RForeArm_transform_samp_id" target="RForeArm_bone_id/transform" />
    </animation>
    <animation id="Motion_9_RHand_transform_id" name="Motion_9_RHand_transform">
      <source id="Motion_9_RHand_transform_frame_id" name="Motion_9_RHand_transform_frame">
        <float_array id="Motion_9_RHand_transform_frame_array_id" count="16">0 0.033333335 0.06666667 0.1 0.13333334 0.16666667 0.2 0.23333333 0.26666668 0.3 0.33333334 0.36666667 0.4 0.43333334 0.46666667 0.5</float_array>
        <technique_common>
          <accessor source="#Motion_9_RHand_transform_frame_array_id" count="16" stride="1">
            <param name="TIME" type="float" />
          </accessor>
        </technique_common>
      </source>
      <source id="Motion_9_RHand_transform_interp_id" name="Motion_9_RHand_transform_interp">
        <Name_array id="Motion_9_RHand_transform_interp_array_id" count="16">LINEAR LINEAR LINEAR LINEAR LINEAR LINEAR LINEAR LINEAR LINEAR LINEAR LINEAR LINEAR LINEAR LINEAR LINEAR LINEAR</Name_array>
        <technique_common>
          <accessor source="#Motion_9_RHand_transform_interp_array_id" count="16" stride="1">
            <param name="INTERPOLATION" type="Name" />
          </accessor>
        </technique_common>
      </source>
      <source id="Motion_9_RHand_transform_pose_id" name="Motion_9_RHand_transform_pose">
        <float_array id="Motion_9_RHand_transform_pose_array_id" count="256">0.9156216 -0.20713502 0.3445754 22.900002 0.2639685 -0.33672535 -0.90384537 0 0.30324537 0.9185373 -0.25363588 0 0 0 0 1 0.9163254 -0.30514342 0.25929773 22.900002 0.14251478 -0.35662878 -0.92331237 0 0.37421566 0.8830083 -0.28330052 0 0 0 0 1 0.9261147 -0.33042932 0.18201104 22.900002 0.057722554 -0.35267472 -0.933964 0 0.37279978 0.87546396 -0.3075441 0 0 0 0 1 0.9479793 -0.2981578 0.11152216 22.900002 0.0047792196 -0.33696318 -0.9415058 0 0.31829613 0.8930609 -0.31800914 0 0 0 0 1 0.9749991 -0.21690325 0.048267275 22.900002 -0.021520883 -0.30836868 -0.9510235 0 0.2211642 0.9262083 -0.30532706 0 0 0 0 1 0.99345404 -0.1126534 -0.018928796 22.900002 -0.04795701 -0.26091063 -0.96417093 0 0.10367841 0.9587673 -0.26460528 0 0 0 0 1 0.99854374 -0.019529076 -0.050289243 22.900002 -0.05349876 -0.23840296 -0.9696919 0 0.006948089 0.97097015 -0.23910058 0 0 0 0 1 0.99947053 0.027471673 -0.01743457 22.900002 -0.009878882 -0.2543261 -0.967068 0 -0.03100104 0.96672827 -0.25392008 0 0 0 0 1 0.99879116 0.037787125 0.03143791 22.900002 0.039965622 -0.25191844 -0.9669228 0 -0.028617442 0.96701044 -0.25312412 0 0 0 0 1 0.99756736 0.03598356 0.059704352 22.900002 0.06514775 -0.1765002 -0.9821424 0 -0.024803158 0.98364276 -0.17841506 0 0 0 0 1 0.99956185 0.011500983 0.02727265 22.900002 0.027094783 0.01534754 -0.999515 0 -0.011913973 0.999816 0.015029192 0 0 0 0 1 0.9941655 0.09028973 -0.05901501 22.900002 -0.08095609 0.2630123 -0.96138996 0 -0.07128197 0.96055835 0.2687872 0 0 0 0 1 0.9724067 0.23322126 0.005751699 22.900002 -0.119005024 0.5170907 -0.8476172 0 -0.20065653 0.8235442 0.53057694 0 0 0 0 1 0.9598362 0.16350529 0.22799248 22.900002 0.010870375 0.79034716 -0.61256284 0 -0.28035045 0.5904383 0.7568264 0 0 0 0 1 0.9545478 -0.047414828 0.2942622 22.900002 0.12568296 0.95923173 -0.2531368 0 -0.27026322 0.27861494 0.9215918 0 0 0 0 1 0.9545478 -0.047414828 0.2942622 22.900002 0.12568296 0.95923173 -0.2531368 0 -0.27026322 0.27861494 0.9215918 0 0 0 0 1</float_array>
        <technique_common>
          <accessor source="#Motion_9_RHand_transform_pose_array_id" count="16" stride="16">
            <param name="TRANSFORM" type="float4x4" />
          </accessor>
        </technique_common>
      </source>
      <sampler id="Motion_9_RHand_transform_samp_id">
        <input semantic="INPUT" source="#Motion_9_RHand_transform_frame_id" />
        <input semantic="INTERPOLATION" source="#Motion_9_RHand_transform_interp_id" />
        <input semantic="OUTPUT" source="#Motion_9_RHand_transform_pose_id" />
      </sampler>
      <channel source="#Motion_9_RHand_transform_samp_id" target="RHand_bone_id/transform" />
    </animation>
    <animation id="Motion_9_Parts_transform_id" name="Motion_9_Parts_transform">
      <source id="Motion_9_Parts_transform_frame_id" name="Motion_9_Parts_transform_frame">
        <float_array id="Motion_9_Parts_transform_frame_array_id" count="16">0 0.033333335 0.06666667 0.1 0.13333334 0.16666667 0.2 0.23333333 0.26666668 0.3 0.33333334 0.36666667 0.4 0.43333334 0.46666667 0.5</float_array>
        <technique_common>
          <accessor source="#Motion_9_Parts_transform_frame_array_id" count="16" stride="1">
            <param name="TIME" type="float" />
          </accessor>
        </technique_common>
      </source>
      <source id="Motion_9_Parts_transform_interp_id" name="Motion_9_Parts_transform_interp">
        <Name_array id="Motion_9_Parts_transform_interp_array_id" count="16">LINEAR LINEAR LINEAR LINEAR LINEAR LINEAR LINEAR LINEAR LINEAR LINEAR LINEAR LINEAR LINEAR LINEAR LINEAR LINEAR</Name_array>
        <technique_common>
          <accessor source="#Motion_9_Parts_transform_interp_array_id" count="16" stride="1">
            <param name="INTERPOLATION" type="Name" />
          </accessor>
        </technique_common>
      </source>
      <source id="Motion_9_Parts_transform_pose_id" name="Motion_9_Parts_transform_pose">
        <float_array id="Motion_9_Parts_transform_pose_array_id" count="256">-0.9147315 -0.025188204 0.40327564 0.5 0.14969297 -0.94816244 0.2803204 0 0.37531015 0.3167855 0.87108505 11.5 0 0 0 1 -0.87434053 0.049299665 0.48280206 0.5 0.05383259 -0.9788356 0.1974397 0 0.48231766 0.19862005 0.8531821 11.5 0 0 0 1 -0.8435068 0.024035208 0.5365798 0.5 -0.014863666 -0.9996598 0.02141234 0 0.53691214 0.01008592 0.84357786 11.5 0 0 0 1 -0.8316417 0.02572764 0.554716 0.5 -0.0664134 -0.99636436 -0.05335713 0 0.55132663 -0.0812146 0.83032715 11.5 0 0 0 1 -0.83114934 0.12321208 0.5422263 0.5 -0.10987563 -0.9923059 0.057062924 0 0.5450853 -0.012149649 0.83829254 11.5 0 0 0 1 -0.8307041 0.25744027 0.4936142 0.5 -0.14663605 -0.95652795 0.25209495 0 0.53705525 0.13703468 0.83234197 11.5 0 0 0 1 -0.84145355 0.3537256 0.40845415 0.5 -0.157169 -0.88347924 0.44131953 0 0.51696664 0.3071534 0.79900086 11.5 0 0 0 1 -0.8671322 0.36347872 0.34053588 0.5 -0.14149576 -0.83529973 0.5312749 0 0.4775567 0.4125013 0.7757462 11.5 0 0 0 1 -0.89399254 0.3058003 0.32751054 0.5 -0.11644024 -0.86435497 0.48921567 0 0.4326877 0.3992198 0.8083346 11.5 0 0 0 1 -0.9153286 0.21701322 0.33923313 0.5 -0.08549841 -0.9278983 0.3628981 0 0.39352748 0.30316705 0.8678858 11.5 0 0 0 1 -0.9309304 0.12904966 0.34163502 0.5 -0.06094036 -0.97726095 0.20309378 0 0.3600758 0.16824685 0.9176265 11.5 0 0 0 1 -0.94821393 0.044982877 0.31443122 0.5 -0.0394619 -0.9989351 0.02390556 0 0.3151717 0.010259531 0.9489792 11.5 0 0 0 1 -0.9713291 -0.008410624 0.23759004 0.5 -0.016713146 -0.9944856 -0.103532165 0 0.23715067 -0.104534686 0.9658323 11.5 0 0 0 1 -0.9972538 -0.01224737 0.073038146 0.5 0.0048364317 -0.99489546 -0.10079259 0 0.073899776 -0.100162566 0.9922229 11.5 0 0 0 1 -0.99518454 -0.016444772 -0.096630245 0.5 0.02001904 -0.99914634 -0.036136772 0 -0.095953494 -0.037897203 0.99466413 11.5 0 0 0 1 -0.99518454 -0.016444772 -0.096630245 0.5 0.02001904 -0.99914634 -0.036136772 0 -0.095953494 -0.037897203 0.99466413 11.5 0 0 0 1</float_array>
        <technique_common>
          <accessor source="#Motion_9_Parts_transform_pose_array_id" count="16" stride="16">
            <param name="TRANSFORM" type="float4x4" />
          </accessor>
        </technique_common>
      </source>
      <sampler id="Motion_9_Parts_transform_samp_id">
        <input semantic="INPUT" source="#Motion_9_Parts_transform_frame_id" />
        <input semantic="INTERPOLATION" source="#Motion_9_Parts_transform_interp_id" />
        <input semantic="OUTPUT" source="#Motion_9_Parts_transform_pose_id" />
      </sampler>
      <channel source="#Motion_9_Parts_transform_samp_id" target="Parts_bone_id/transform" />
    </animation>
    <animation id="Motion_9_Hips_transform_id" name="Motion_9_Hips_transform">
      <source id="Motion_9_Hips_transform_frame_id" name="Motion_9_Hips_transform_frame">
        <float_array id="Motion_9_Hips_transform_frame_array_id" count="16">0 0.033333335 0.06666667 0.1 0.13333334 0.16666667 0.2 0.23333333 0.26666668 0.3 0.33333334 0.36666667 0.4 0.43333334 0.46666667 0.5</float_array>
        <technique_common>
          <accessor source="#Motion_9_Hips_transform_frame_array_id" count="16" stride="1">
            <param name="TIME" type="float" />
          </accessor>
        </technique_common>
      </source>
      <source id="Motion_9_Hips_transform_interp_id" name="Motion_9_Hips_transform_interp">
        <Name_array id="Motion_9_Hips_transform_interp_array_id" count="16">LINEAR LINEAR LINEAR LINEAR LINEAR LINEAR LINEAR LINEAR LINEAR LINEAR LINEAR LINEAR LINEAR LINEAR LINEAR LINEAR</Name_array>
        <technique_common>
          <accessor source="#Motion_9_Hips_transform_interp_array_id" count="16" stride="1">
            <param name="INTERPOLATION" type="Name" />
          </accessor>
        </technique_common>
      </source>
      <source id="Motion_9_Hips_transform_pose_id" name="Motion_9_Hips_transform_pose">
        <float_array id="Motion_9_Hips_transform_pose_array_id" count="256">-0.9999815 0.0025602286 -0.0054720826 -0.010002 -0.0025730697 -0.9999937 0.0023409354 0 -0.005466056 0.0023549728 0.9999823 0 0 0 0 1 -0.99998724 0.002064256 -0.004588086 -0.010002 -0.0020729424 -0.99999595 0.0018892734 0 -0.004584168 0.0018987603 0.99998766 0 0 0 0 1 -0.99999166 0.0015342467 -0.0038096628 -0.010002 -0.001539613 -0.999998 0.0014060675 0 -0.0038074974 0.0014119211 0.9999918 0 0 0 0 1 -0.99999416 0.0011306648 -0.0032145677 -0.010002 -0.0011340057 -0.9999987 0.0010376535 0 -0.0032133905 0.0010412929 0.9999943 0 0 0 0 1 -0.99999547 0.0010124996 -0.0028804848 -0.010002 -0.0010151843 -0.99999917 0.0009307145 0 -0.0028795395 0.0009336344 0.9999954 0 0 0 0 1 -0.9999945 0.0013398749 -0.0029051 -0.010002 -0.0013434582 -0.999998 0.0012318069 0 -0.0029034445 0.0012357036 0.999995 0 0 0 0 1 -0.99998057 0.003012253 -0.005472357 -0.010002 -0.0030270275 -0.9999918 0.0026935784 0 -0.0054641985 0.0027100907 0.9999814 0 0 0 0 1 -0.9998987 0.0065317797 -0.012660052 -0.010002 -0.0066048475 -0.99996185 0.0057383394 0 -0.012622085 0.005821375 0.9999034 0 0 0 0 1 -0.9996561 0.0114762895 -0.023576975 -0.010002 -0.011714822 -0.99988127 0.010004082 0 -0.023459367 0.010276842 0.999672 0 0 0 0 1 -0.9991642 0.017419836 -0.036974497 -0.010002 -0.017989451 -0.99972355 0.01512924 0 -0.036700733 0.015781749 0.99920166 0 0 0 0 1 -0.998381 0.023917034 -0.05160676 -0.010002 -0.025010005 -0.99947405 0.020637946 0 -0.051086023 0.02189522 0.9984542 0 0 0 0 1 -0.9973377 0.030497167 -0.06623421 -0.010002 -0.03227758 -0.9991411 0.025978696 0 -0.06538505 0.02804742 0.99746585 0 0 0 0 1 -0.9961518 0.03661526 -0.07963015 -0.010002 -0.039167024 -0.9987602 0.030722449 0 -0.07840653 0.033723097 0.99635094 0 0 0 0 1 -0.9950168 0.04167288 -0.0905825 -0.010002 -0.044953648 -0.9983938 0.03448443 0 -0.088999934 0.0383846 0.9952917 0 0 0 0 1 -0.99417675 0.045051273 -0.09789116 -0.010002 -0.048864517 -0.99812305 0.036910955 0 -0.09604455 0.04147942 0.9945124 0 0 0 0 1 -0.99417675 0.045051273 -0.09789116 -0.010002 -0.048864517 -0.99812305 0.036910955 0 -0.09604455 0.04147942 0.9945124 0 0 0 0 1</float_array>
        <technique_common>
          <accessor source="#Motion_9_Hips_transform_pose_array_id" count="16" stride="16">
            <param name="TRANSFORM" type="float4x4" />
          </accessor>
        </technique_common>
      </source>
      <sampler id="Motion_9_Hips_transform_samp_id">
        <input semantic="INPUT" source="#Motion_9_Hips_transform_frame_id" />
        <input semantic="INTERPOLATION" source="#Motion_9_Hips_transform_interp_id" />
        <input semantic="OUTPUT" source="#Motion_9_Hips_transform_pose_id" />
      </sampler>
      <channel source="#Motion_9_Hips_transform_samp_id" target="Hips_bone_id/transform" />
    </animation>
    <animation id="Motion_9_LThigh_transform_id" name="Motion_9_LThigh_transform">
      <source id="Motion_9_LThigh_transform_frame_id" name="Motion_9_LThigh_transform_frame">
        <float_array id="Motion_9_LThigh_transform_frame_array_id" count="16">0 0.033333335 0.06666667 0.1 0.13333334 0.16666667 0.2 0.23333333 0.26666668 0.3 0.33333334 0.36666667 0.4 0.43333334 0.46666667 0.5</float_array>
        <technique_common>
          <accessor source="#Motion_9_LThigh_transform_frame_array_id" count="16" stride="1">
            <param name="TIME" type="float" />
          </accessor>
        </technique_common>
      </source>
      <source id="Motion_9_LThigh_transform_interp_id" name="Motion_9_LThigh_transform_interp">
        <Name_array id="Motion_9_LThigh_transform_interp_array_id" count="16">LINEAR LINEAR LINEAR LINEAR LINEAR LINEAR LINEAR LINEAR LINEAR LINEAR LINEAR LINEAR LINEAR LINEAR LINEAR LINEAR</Name_array>
        <technique_common>
          <accessor source="#Motion_9_LThigh_transform_interp_array_id" count="16" stride="1">
            <param name="INTERPOLATION" type="Name" />
          </accessor>
        </technique_common>
      </source>
      <source id="Motion_9_LThigh_transform_pose_id" name="Motion_9_LThigh_transform_pose">
        <float_array id="Motion_9_LThigh_transform_pose_array_id" count="256">0.98449266 -0.16170713 0.06800751 10.510002 0.17181149 0.967094 -0.18764327 7.199996 -0.035426393 0.19641788 0.9798801 0 0 0 0 1 0.98234224 -0.17643218 0.062252663 10.510002 0.1862313 0.9539964 -0.23496531 7.199996 -0.017933378 0.24240975 0.9700082 0 0 0 0 1 0.98117244 -0.17920904 0.07200527 10.510002 0.19175293 0.9484242 -0.25243282 7.199996 -0.0230533 0.26148736 0.96493155 0 0 0 0 1 0.98058736 -0.1760097 0.0864232 10.510002 0.19231312 0.9492902 -0.24872424 7.199996 -0.03826282 0.26051617 0.96471095 0 0 0 0 1 0.98034126 -0.17264432 0.09552491 10.510002 0.19074395 0.95309955 -0.23498514 7.199996 -0.050475895 0.24858642 0.9672936 0 0 0 0 1 0.98086 -0.1702407 0.09450787 10.510002 0.18724349 0.95782936 -0.21795148 7.199996 -0.053418204 0.23147586 0.97137296 0 0 0 0 1 0.9840599 -0.17318942 0.040392548 10.510002 0.1777647 0.96444154 -0.19558164 7.199996 -0.0050835777 0.19964442 0.97985524 0 0 0 0 1 0.9840725 -0.17225434 -0.04392921 10.510002 0.16327919 0.97355187 -0.15980195 7.199996 0.07029394 0.15008397 0.9861712 0 0 0 0 1 0.9793115 -0.15969536 -0.124283284 10.510002 0.14589304 0.9827983 -0.11323786 7.199996 0.14022896 0.09276307 0.9857641 0 0 0 0 1 0.97687405 -0.1346605 -0.16608304 10.510002 0.1258821 0.9900843 -0.06234406 7.199996 0.17283148 0.03999541 0.984139 0 0 0 0 1 0.98156244 -0.08910662 -0.16910125 10.510002 0.08816987 0.9960199 -0.013055645 7.199996 0.16959156 -0.002094707 0.9855122 0 0 0 0 1 0.98897666 -0.0262733 -0.14572199 10.510002 0.031939164 0.9988166 0.036678605 7.199996 0.14458586 -0.04092852 0.98864543 0 0 0 0 1 0.99320716 0.043841794 -0.107784405 10.510002 -0.034411274 0.9955393 0.08784857 7.199996 0.11115505 -0.08354283 0.9902854 0 0 0 0 1 0.99278754 0.106658325 -0.05474372 10.510002 -0.098918945 0.98675144 0.12859476 7.199996 0.067734145 -0.12225208 0.9901851 0 0 0 0 1 0.9882093 0.15266784 0.011616074 10.510002 -0.15268202 0.9769498 0.14918885 7.199996 0.011428019 -0.14920336 0.9887405 0 0 0 0 1 0.9882093 0.15266784 0.011616074 10.510002 -0.15268202 0.9769498 0.14918885 7.199996 0.011428019 -0.14920336 0.9887405 0 0 0 0 1</float_array>
        <technique_common>
          <accessor source="#Motion_9_LThigh_transform_pose_array_id" count="16" stride="16">
            <param name="TRANSFORM" type="float4x4" />
          </accessor>
        </technique_common>
      </source>
      <sampler id="Motion_9_LThigh_transform_samp_id">
        <input semantic="INPUT" source="#Motion_9_LThigh_transform_frame_id" />
        <input semantic="INTERPOLATION" source="#Motion_9_LThigh_transform_interp_id" />
        <input semantic="OUTPUT" source="#Motion_9_LThigh_transform_pose_id" />
      </sampler>
      <channel source="#Motion_9_LThigh_transform_samp_id" target="LThigh_bone_id/transform" />
    </animation>
    <animation id="Motion_9_LLeg_transform_id" name="Motion_9_LLeg_transform">
      <source id="Motion_9_LLeg_transform_frame_id" name="Motion_9_LLeg_transform_frame">
        <float_array id="Motion_9_LLeg_transform_frame_array_id" count="16">0 0.033333335 0.06666667 0.1 0.13333334 0.16666667 0.2 0.23333333 0.26666668 0.3 0.33333334 0.36666667 0.4 0.43333334 0.46666667 0.5</float_array>
        <technique_common>
          <accessor source="#Motion_9_LLeg_transform_frame_array_id" count="16" stride="1">
            <param name="TIME" type="float" />
          </accessor>
        </technique_common>
      </source>
      <source id="Motion_9_LLeg_transform_interp_id" name="Motion_9_LLeg_transform_interp">
        <Name_array id="Motion_9_LLeg_transform_interp_array_id" count="16">LINEAR LINEAR LINEAR LINEAR LINEAR LINEAR LINEAR LINEAR LINEAR LINEAR LINEAR LINEAR LINEAR LINEAR LINEAR LINEAR</Name_array>
        <technique_common>
          <accessor source="#Motion_9_LLeg_transform_interp_array_id" count="16" stride="1">
            <param name="INTERPOLATION" type="Name" />
          </accessor>
        </technique_common>
      </source>
      <source id="Motion_9_LLeg_transform_pose_id" name="Motion_9_LLeg_transform_pose">
        <float_array id="Motion_9_LLeg_transform_pose_array_id" count="256">0.7755501 0 0.63128597 33.899998 0 1 0 0 -0.63128597 0 0.7755501 0 0 0 0 1 0.77682537 0 0.62971604 33.899998 0 1 0 0 -0.62971604 0 0.77682537 0 0 0 0 1 0.79208165 0 0.61041516 33.899998 0 1 0 0 -0.61041516 0 0.79208165 0 0 0 0 1 0.80860966 0 0.58834547 33.899998 0 1 0 0 -0.58834547 0 0.80860966 0 0 0 0 1 0.8155095 0 0.5787437 33.899998 0 1 0 0 -0.5787437 0 0.8155095 0 0 0 0 1 0.8176088 0 0.5757742 33.899998 0 1 0 0 -0.5757742 0 0.8176088 0 0 0 0 1 0.7990959 0 0.60120356 33.899998 0 1 0 0 -0.60120356 0 0.7990959 0 0 0 0 1 0.76514727 0 0.6438553 33.899998 0 1 0 0 -0.6438553 0 0.76514727 0 0 0 0 1 0.73818296 0 0.67460054 33.899998 0 1 0 0 -0.67460054 0 0.73818296 0 0 0 0 1 0.7366395 0 0.6762856 33.899998 0 1 0 0 -0.6762856 0 0.7366395 0 0 0 0 1 0.7631507 0 0.64622056 33.899998 0 1 0 0 -0.64622056 0 0.7631507 0 0 0 0 1 0.8112012 0 0.5847671 33.899998 0 1 0 0 -0.5847671 0 0.8112012 0 0 0 0 1 0.8703824 0 0.49237633 33.899998 0 1 0 0 -0.49237633 0 0.8703824 0 0 0 0 1 0.9296385 0 0.36847293 33.899998 0 1 0 0 -0.36847293 0 0.9296385 0 0 0 0 1 0.9758295 0 0.21853328 33.899998 0 1 0 0 -0.21853328 0 0.9758295 0 0 0 0 1 0.9758295 0 0.21853328 33.899998 0 1 0 0 -0.21853328 0 0.9758295 0 0 0 0 1</float_array>
        <technique_common>
          <accessor source="#Motion_9_LLeg_transform_pose_array_id" count="16" stride="16">
            <param name="TRANSFORM" type="float4x4" />
          </accessor>
        </technique_common>
      </source>
      <sampler id="Motion_9_LLeg_transform_samp_id">
        <input semantic="INPUT" source="#Motion_9_LLeg_transform_frame_id" />
        <input semantic="INTERPOLATION" source="#Motion_9_LLeg_transform_interp_id" />
        <input semantic="OUTPUT" source="#Motion_9_LLeg_transform_pose_id" />
      </sampler>
      <channel source="#Motion_9_LLeg_transform_samp_id" target="LLeg_bone_id/transform" />
    </animation>
    <animation id="Motion_9_LFoot_transform_id" name="Motion_9_LFoot_transform">
      <source id="Motion_9_LFoot_transform_frame_id" name="Motion_9_LFoot_transform_frame">
        <float_array id="Motion_9_LFoot_transform_frame_array_id" count="16">0 0.033333335 0.06666667 0.1 0.13333334 0.16666667 0.2 0.23333333 0.26666668 0.3 0.33333334 0.36666667 0.4 0.43333334 0.46666667 0.5</float_array>
        <technique_common>
          <accessor source="#Motion_9_LFoot_transform_frame_array_id" count="16" stride="1">
            <param name="TIME" type="float" />
          </accessor>
        </technique_common>
      </source>
      <source id="Motion_9_LFoot_transform_interp_id" name="Motion_9_LFoot_transform_interp">
        <Name_array id="Motion_9_LFoot_transform_interp_array_id" count="16">LINEAR LINEAR LINEAR LINEAR LINEAR LINEAR LINEAR LINEAR LINEAR LINEAR LINEAR LINEAR LINEAR LINEAR LINEAR LINEAR</Name_array>
        <technique_common>
          <accessor source="#Motion_9_LFoot_transform_interp_array_id" count="16" stride="1">
            <param name="INTERPOLATION" type="Name" />
          </accessor>
        </technique_common>
      </source>
      <source id="Motion_9_LFoot_transform_pose_id" name="Motion_9_LFoot_transform_pose">
        <float_array id="Motion_9_LFoot_transform_pose_array_id" count="256">-0.42857218 0.079168856 -0.9000323 33.9 0.052187294 0.9966596 0.06281816 4E-06 0.9019991 -0.02004814 -0.43127215 0 0 0 0 1 -0.4224459 0.088762306 -0.90203136 33.9 0.051542915 0.9959355 0.07386376 4E-06 0.90492135 -0.015289882 -0.42530394 0 0 0 0 1 -0.40849054 0.09005512 -0.9083092 33.9 0.042633865 0.9959173 0.07956754 4E-06 0.9117664 -0.0062221475 -0.4106623 0 0 0 0 1 -0.39515126 0.085787326 -0.91460156 33.9 0.030107021 0.9963044 0.08044319 4E-06 0.91812253 0.0042512976 -0.39627373 0 0 0 0 1 -0.3906052 0.079952106 -0.91707957 33.9 0.02021812 0.99672604 0.078284405 4E-06 0.9203361 0.012036674 -0.3909428 0 0 0 0 1 -0.39000595 0.07538084 -0.9177216 33.9 0.017943695 0.99707645 0.07427341 4E-06 0.9206375 0.012499753 -0.39021838 0 0 0 0 1 -0.40168262 0.06911433 -0.91316724 33.9 0.02645357 0.99760765 0.06386896 4E-06 0.9153968 0.0014985204 -0.40254998 0 0 0 0 1 -0.42189813 0.05908561 -0.90471584 33.9 0.04606871 0.99798226 0.04369337 4E-06 0.905472 -0.023244942 -0.42376876 0 0 0 0 1 -0.43556476 0.047830585 -0.8988859 33.9 0.07230298 0.9972198 0.018027855 4E-06 0.89724904 -0.05713982 -0.4378121 0 0 0 0 1 -0.43703878 0.03753708 -0.8986592 33.9 0.10109042 0.99484813 -0.0076076947 4E-06 0.8937439 -0.09417069 -0.43858194 0 0 0 0 1 -0.4208752 0.029387962 -0.90664244 33.9 0.12861311 0.9913115 -0.027571443 4E-06 0.8979548 -0.12821025 -0.4209981 0 0 0 0 1 -0.38795507 0.023205534 -0.9213859 33.9 0.1520056 0.98760474 -0.039129615 4E-06 0.909057 -0.15523638 -0.3866737 0 0 0 0 1 -0.3398069 0.016743034 -0.9403462 33.9 0.17091927 0.9842914 -0.044238515 4E-06 0.92483395 -0.17575583 -0.3373307 0 0 0 0 1 -0.2781284 0.008232199 -0.96050847 33.9 0.18462977 0.9817752 -0.045047626 4E-06 0.94263256 -0.18986751 -0.2745794 0 0 0 0 1 -0.20474541 -0.003439106 -0.97880924 33.9 0.19277215 0.9802669 -0.04376792 4E-06 0.9596449 -0.19764844 -0.20004225 0 0 0 0 1 -0.20474541 -0.003439106 -0.97880924 33.9 0.19277215 0.9802669 -0.04376792 4E-06 0.9596449 -0.19764844 -0.20004225 0 0 0 0 1</float_array>
        <technique_common>
          <accessor source="#Motion_9_LFoot_transform_pose_array_id" count="16" stride="16">
            <param name="TRANSFORM" type="float4x4" />
          </accessor>
        </technique_common>
      </source>
      <sampler id="Motion_9_LFoot_transform_samp_id">
        <input semantic="INPUT" source="#Motion_9_LFoot_transform_frame_id" />
        <input semantic="INTERPOLATION" source="#Motion_9_LFoot_transform_interp_id" />
        <input semantic="OUTPUT" source="#Motion_9_LFoot_transform_pose_id" />
      </sampler>
      <channel source="#Motion_9_LFoot_transform_samp_id" target="LFoot_bone_id/transform" />
    </animation>
    <animation id="Motion_9_RThigh_transform_id" name="Motion_9_RThigh_transform">
      <source id="Motion_9_RThigh_transform_frame_id" name="Motion_9_RThigh_transform_frame">
        <float_array id="Motion_9_RThigh_transform_frame_array_id" count="16">0 0.033333335 0.06666667 0.1 0.13333334 0.16666667 0.2 0.23333333 0.26666668 0.3 0.33333334 0.36666667 0.4 0.43333334 0.46666667 0.5</float_array>
        <technique_common>
          <accessor source="#Motion_9_RThigh_transform_frame_array_id" count="16" stride="1">
            <param name="TIME" type="float" />
          </accessor>
        </technique_common>
      </source>
      <source id="Motion_9_RThigh_transform_interp_id" name="Motion_9_RThigh_transform_interp">
        <Name_array id="Motion_9_RThigh_transform_interp_array_id" count="16">LINEAR LINEAR LINEAR LINEAR LINEAR LINEAR LINEAR LINEAR LINEAR LINEAR LINEAR LINEAR LINEAR LINEAR LINEAR LINEAR</Name_array>
        <technique_common>
          <accessor source="#Motion_9_RThigh_transform_interp_array_id" count="16" stride="1">
            <param name="INTERPOLATION" type="Name" />
          </accessor>
        </technique_common>
      </source>
      <source id="Motion_9_RThigh_transform_pose_id" name="Motion_9_RThigh_transform_pose">
        <float_array id="Motion_9_RThigh_transform_pose_array_id" count="256">0.9795734 -0.1975413 0.03759379 10.510002 0.19821048 0.9800454 -0.01495718 -7.2 -0.03388896 0.02210314 0.99918115 0 0 0 0 1 0.9735878 -0.22418118 0.043238487 10.510002 0.22469035 0.9744033 -0.007236301 -7.2 -0.04050948 0.016760446 0.9990386 0 0 0 0 1 0.9707133 -0.23165584 0.06364942 10.510002 0.23214287 0.97268164 -0.00026370538 -7.2 -0.06184954 0.015031742 0.9979723 0 0 0 0 1 0.9700171 -0.22610055 0.089136995 10.510002 0.2273119 0.97381556 -0.0035472708 -7.2 -0.08600096 0.023702811 0.99601305 0 0 0 0 1 0.97091436 -0.21641469 0.10242036 10.510002 0.21861362 0.9757537 -0.0106196245 -7.2 -0.0976388 0.03270123 0.9946845 0 0 0 0 1 0.9727111 -0.20902704 0.10070155 10.510002 0.21142925 0.9772975 -0.01368386 -7.2 -0.095555075 0.034601696 0.99482256 0 0 0 0 1 0.97853905 -0.20327142 0.033794 10.510002 0.20346358 0.9790798 -0.0023123377 -7.2 -0.032616988 0.009138561 0.9994261 0 0 0 0 1 0.9788031 -0.19209403 -0.071023665 10.510002 0.1946648 0.9803741 0.031179935 -7.2 0.06364029 -0.044344828 0.99698716 0 0 0 0 1 0.970641 -0.17020188 -0.1699628 10.510002 0.18498953 0.97985744 0.07522148 -7.2 0.15373647 -0.10445438 0.98257536 0 0 0 0 1 0.9651443 -0.117812164 -0.23370229 10.510002 0.15058029 0.9803185 0.12767638 -7.2 0.21406083 -0.15841709 0.963889 0 0 0 0 1 0.96351385 -0.0337957 -0.26551628 10.510002 0.07638319 0.98546326 0.15174903 -7.2 0.25652808 -0.16649328 0.95208895 0 0 0 0 1 0.9520009 0.054376237 -0.30122662 10.510002 -0.055297047 0.9984549 0.005475545 -7.2 0.30105895 0.01144422 0.95353687 0 0 0 0 1 0.9168019 0.14088647 -0.3736645 10.510002 -0.24523546 0.93710876 -0.24836826 -7.2 0.31517255 0.3193403 0.89369345 0 0 0 0 1 0.8674468 0.19556189 -0.45748398 10.510002 -0.40570134 0.81029475 -0.42288166 -7.2 0.28799734 0.5524292 0.7822273 0 0 0 0 1 0.8263613 0.21402265 -0.5208851 10.510002 -0.4968145 0.7125764 -0.49538904 -7.2 0.26514596 0.6681536 0.69517505 0 0 0 0 1 0.8263613 0.21402265 -0.5208851 10.510002 -0.4968145 0.7125764 -0.49538904 -7.2 0.26514596 0.6681536 0.69517505 0 0 0 0 1</float_array>
        <technique_common>
          <accessor source="#Motion_9_RThigh_transform_pose_array_id" count="16" stride="16">
            <param name="TRANSFORM" type="float4x4" />
          </accessor>
        </technique_common>
      </source>
      <sampler id="Motion_9_RThigh_transform_samp_id">
        <input semantic="INPUT" source="#Motion_9_RThigh_transform_frame_id" />
        <input semantic="INTERPOLATION" source="#Motion_9_RThigh_transform_interp_id" />
        <input semantic="OUTPUT" source="#Motion_9_RThigh_transform_pose_id" />
      </sampler>
      <channel source="#Motion_9_RThigh_transform_samp_id" target="RThigh_bone_id/transform" />
    </animation>
    <animation id="Motion_9_RLeg_transform_id" name="Motion_9_RLeg_transform">
      <source id="Motion_9_RLeg_transform_frame_id" name="Motion_9_RLeg_transform_frame">
        <float_array id="Motion_9_RLeg_transform_frame_array_id" count="16">0 0.033333335 0.06666667 0.1 0.13333334 0.16666667 0.2 0.23333333 0.26666668 0.3 0.33333334 0.36666667 0.4 0.43333334 0.46666667 0.5</float_array>
        <technique_common>
          <accessor source="#Motion_9_RLeg_transform_frame_array_id" count="16" stride="1">
            <param name="TIME" type="float" />
          </accessor>
        </technique_common>
      </source>
      <source id="Motion_9_RLeg_transform_interp_id" name="Motion_9_RLeg_transform_interp">
        <Name_array id="Motion_9_RLeg_transform_interp_array_id" count="16">LINEAR LINEAR LINEAR LINEAR LINEAR LINEAR LINEAR LINEAR LINEAR LINEAR LINEAR LINEAR LINEAR LINEAR LINEAR LINEAR</Name_array>
        <technique_common>
          <accessor source="#Motion_9_RLeg_transform_interp_array_id" count="16" stride="1">
            <param name="INTERPOLATION" type="Name" />
          </accessor>
        </technique_common>
      </source>
      <source id="Motion_9_RLeg_transform_pose_id" name="Motion_9_RLeg_transform_pose">
        <float_array id="Motion_9_RLeg_transform_pose_array_id" count="256">0.88265544 0 0.47002062 33.899998 0 1 0 0 -0.47002062 0 0.88265544 0 0 0 0 1 0.8982606 0 0.4394632 33.899998 0 1 0 0 -0.4394632 0 0.8982606 0 0 0 0 1 0.9172457 0 0.3983219 33.899998 0 1 0 0 -0.3983219 0 0.9172457 0 0 0 0 1 0.93145525 0 0.36385593 33.899998 0 1 0 0 -0.36385593 0 0.93145525 0 0 0 0 1 0.9346845 0 0.35547844 33.899998 0 1 0 0 -0.35547844 0 0.9346845 0 0 0 0 1 0.9338508 0 0.35766277 33.899998 0 1 0 0 -0.35766277 0 0.9338508 0 0 0 0 1 0.91595805 0 0.401274 33.899998 0 1 0 0 -0.401274 0 0.91595805 0 0 0 0 1 0.88530743 0 0.46500623 33.899998 0 1 0 0 -0.46500623 0 0.88530743 0 0 0 0 1 0.8608001 0 0.5089432 33.899998 0 1 0 0 -0.5089432 0 0.8608001 0 0 0 0 1 0.82897806 0 0.5592811 33.899998 0 1 0 0 -0.5592811 0 0.82897806 0 0 0 0 1 0.77447504 0 0.6326044 33.899998 0 1 0 0 -0.6326044 0 0.77447504 0 0 0 0 1 0.69772243 0 0.7163682 33.899998 0 1 0 0 -0.7163682 0 0.69772243 0 0 0 0 1 0.61836326 0 0.78589237 33.899998 0 1 0 0 -0.78589237 0 0.61836326 0 0 0 0 1 0.56306475 0 0.8264128 33.899998 0 1 0 0 -0.8264128 0 0.56306475 0 0 0 0 1 0.54540145 0 0.83817494 33.899998 0 1 0 0 -0.83817494 0 0.54540145 0 0 0 0 1 0.54540145 0 0.83817494 33.899998 0 1 0 0 -0.83817494 0 0.54540145 0 0 0 0 1</float_array>
        <technique_common>
          <accessor source="#Motion_9_RLeg_transform_pose_array_id" count="16" stride="16">
            <param name="TRANSFORM" type="float4x4" />
          </accessor>
        </technique_common>
      </source>
      <sampler id="Motion_9_RLeg_transform_samp_id">
        <input semantic="INPUT" source="#Motion_9_RLeg_transform_frame_id" />
        <input semantic="INTERPOLATION" source="#Motion_9_RLeg_transform_interp_id" />
        <input semantic="OUTPUT" source="#Motion_9_RLeg_transform_pose_id" />
      </sampler>
      <channel source="#Motion_9_RLeg_transform_samp_id" target="RLeg_bone_id/transform" />
    </animation>
    <animation id="Motion_9_RFoot_transform_id" name="Motion_9_RFoot_transform">
      <source id="Motion_9_RFoot_transform_frame_id" name="Motion_9_RFoot_transform_frame">
        <float_array id="Motion_9_RFoot_transform_frame_array_id" count="16">0 0.033333335 0.06666667 0.1 0.13333334 0.16666667 0.2 0.23333333 0.26666668 0.3 0.33333334 0.36666667 0.4 0.43333334 0.46666667 0.5</float_array>
        <technique_common>
          <accessor source="#Motion_9_RFoot_transform_frame_array_id" count="16" stride="1">
            <param name="TIME" type="float" />
          </accessor>
        </technique_common>
      </source>
      <source id="Motion_9_RFoot_transform_interp_id" name="Motion_9_RFoot_transform_interp">
        <Name_array id="Motion_9_RFoot_transform_interp_array_id" count="16">LINEAR LINEAR LINEAR LINEAR LINEAR LINEAR LINEAR LINEAR LINEAR LINEAR LINEAR LINEAR LINEAR LINEAR LINEAR LINEAR</Name_array>
        <technique_common>
          <accessor source="#Motion_9_RFoot_transform_interp_array_id" count="16" stride="1">
            <param name="INTERPOLATION" type="Name" />
          </accessor>
        </technique_common>
      </source>
      <source id="Motion_9_RFoot_transform_pose_id" name="Motion_9_RFoot_transform_pose">
        <float_array id="Motion_9_RFoot_transform_pose_array_id" count="256">-0.24629152 -0.006353423 -0.9691751 33.9 -0.2095187 0.97668207 0.04684127 0 0.94627833 0.2145969 -0.2418797 0 0 0 0 1 -0.2314589 -0.0067103505 -0.97282153 33.9 -0.26193956 0.96347696 0.055676192 0 0.9369175 0.2677072 -0.22476304 0 0 0 0 1 -0.2119354 -0.0037338585 -0.9772765 33.9 -0.2905512 0.9550164 0.059361085 0 0.93309337 0.2965296 -0.20348656 0 0 0 0 1 -0.19590914 0.001328975 -0.98062116 33.9 -0.29305065 0.9542225 0.059839047 0 0.93581027 0.29909468 -0.18655145 0 0 0 0 1 -0.19279027 0.0025010258 -0.98123693 33.9 -0.28181356 0.95772594 0.057810895 0 0.93990064 0.2876712 -0.1839354 0 0 0 0 1 -0.1929661 0.0013192594 -0.98120457 33.9 -0.26589215 0.9625123 0.05358512 0 0.94449216 0.2712347 -0.18538141 0 0 0 0 1 -0.20608759 -0.0094031915 -0.97848845 33.9 -0.24898207 0.9675467 0.043142147 0 0.94632757 0.25251713 -0.20174062 0 0 0 0 1 -0.22075403 -0.029180847 -0.9748928 33.9 -0.23228198 0.9723647 0.02349262 0 0.9472658 0.23163615 -0.22143161 0 0 0 0 1 -0.22459531 -0.048798025 -0.9732295 33.9 -0.20861858 0.97799665 -0.0008934736 0 0.9518589 0.2028331 -0.22983372 0 0 0 0 1 -0.25046504 -0.09089613 -0.96384925 33.9 -0.18034133 0.98253745 -0.04579521 0 0.9511805 0.16235176 -0.2624836 0 0 0 0 1 -0.31478035 -0.13316372 -0.93977714 33.9 -0.12625611 0.98718554 -0.09759164 0 0.9407301 0.08793266 -0.32755935 0 0 0 0 1 -0.34056103 -0.12040367 -0.93248105 33.9 -0.033070885 0.99268687 -0.11609939 0 0.9396405 -0.008700963 -0.34205234 0 0 0 0 1 -0.28654468 -0.10276389 -0.95253956 33.9 0.024076704 0.99314445 -0.1143873 0 0.95776427 -0.05571109 -0.28210604 0 0 0 0 1 -0.19441044 -0.12901436 -0.972399 33.9 -0.009568322 0.9915153 -0.12963764 0 0.9808736 -0.0158987 -0.19399548 0 0 0 0 1 -0.10409725 -0.16380318 -0.98098534 33.9 -0.06199689 0.98549455 -0.15797731 0 0.9926329 0.044373028 -0.11274254 0 0 0 0 1 -0.10409725 -0.16380318 -0.98098534 33.9 -0.06199689 0.98549455 -0.15797731 0 0.9926329 0.044373028 -0.11274254 0 0 0 0 1</float_array>
        <technique_common>
          <accessor source="#Motion_9_RFoot_transform_pose_array_id" count="16" stride="16">
            <param name="TRANSFORM" type="float4x4" />
          </accessor>
        </technique_common>
      </source>
      <sampler id="Motion_9_RFoot_transform_samp_id">
        <input semantic="INPUT" source="#Motion_9_RFoot_transform_frame_id" />
        <input semantic="INTERPOLATION" source="#Motion_9_RFoot_transform_interp_id" />
        <input semantic="OUTPUT" source="#Motion_9_RFoot_transform_pose_id" />
      </sampler>
      <channel source="#Motion_9_RFoot_transform_samp_id" target="RFoot_bone_id/transform" />
    </animation>
  </library_animations>
  <library_visual_scenes>
    <visual_scene id="tr0018_00_fi_00_clip_id" name="tr0018_00_fi_00_clip">
      <node id="tr0018_00_fi_bone_id" name="tr0018_00_fi" sid="tr0018_00_fi" type="JOINT">
        <matrix sid="transform">1 0 0 0 0 1 0 0 0 0 1 0 0 0 0 1</matrix>
        <node id="Origin_bone_id" name="Origin" sid="Origin" type="JOINT">
          <matrix sid="transform">1 0 0 0 0 1 0 0 0 0 1 0 0 0 0 1</matrix>
          <node id="Waist_bone_id" name="Waist" sid="Waist" type="JOINT">
            <matrix sid="transform">3.1391647E-07 -1 0 0 1 3.1391647E-07 0 88.8 0 0 1 0 0 0 0 1</matrix>
            <node id="Spine2_bone_id" name="Spine2" sid="Spine2" type="JOINT">
              <matrix sid="transform">1 0 0 12.099998 0 1 0 0 0 0 1 0 0 0 0 1</matrix>
              <node id="Spine3_bone_id" name="Spine3" sid="Spine3" type="JOINT">
                <matrix sid="transform">0.9919065 0 0.12697035 12.099991 0 1 0 0 -0.12697035 0 0.9919065 0 0 0 0 1</matrix>
                <node id="Neck_bone_id" name="Neck" sid="Neck" type="JOINT">
                  <matrix sid="transform">0.9441987 0 -0.32937634 15.720233 0 1 0 0 0.32937634 0 0.9441987 0 0 0 0 1</matrix>
                  <node id="Head_bone_id" name="Head" sid="Head" type="JOINT">
                    <matrix sid="transform">0.9783777 0 0.2068263 5.129917 0 1 0 0 -0.2068263 0 0.9783777 0 0 0 0 1</matrix>
                    <node id="Loc_Head_bone_id" name="Loc_Head" sid="Loc_Head" type="JOINT">
                      <matrix sid="transform">3.1391647E-07 1 0 32.86668 -1 3.1391647E-07 0 0 0 0 1 0.935 0 0 0 1</matrix>
                    </node>
                    <node id="Loc_Eye_bone_id" name="Loc_Eye" sid="Loc_Eye" type="JOINT">
                      <matrix sid="transform">3.1391647E-07 1 0 11.39 -1 3.1391647E-07 0 0 0 0 1 13.674489 0 0 0 1</matrix>
                    </node>
                    <node id="Loc_Mouth_bone_id" name="Loc_Mouth" sid="Loc_Mouth" type="JOINT">
                      <matrix sid="transform">3.1391647E-07 1 0 1.209505 -1 3.1391647E-07 0 0 0 0 1 14.4 0 0 0 1</matrix>
                    </node>
                  </node>
                </node>
                <node id="LShoulder_bone_id" name="LShoulder" sid="LShoulder" type="JOINT">
                  <matrix sid="transform">-0.5887142 0.798307 -0.12697051 14.14009 -0.80482084 -0.59351784 -2.6574628E-07 -3.930001 -0.075359486 0.10218836 0.99190646 -0.201936 0 0 0 1</matrix>
                  <node id="LArm_bone_id" name="LArm" sid="LArm" type="JOINT">
                    <matrix sid="transform">0.8048207 -0.593518 0 8.161509 0.593518 0.8048207 0 0 0 0 1 0 0 0 0 1</matrix>
                    <node id="LForeArm_bone_id" name="LForeArm" sid="LForeArm" type="JOINT">
                      <matrix sid="transform">1 0 0 22.9 0 1 0 0 0 0 1 0 0 0 0 1</matrix>
                      <node id="LHand_bone_id" name="LHand" sid="LHand" type="JOINT">
                        <matrix sid="transform">1 0 0 22.900002 0 1 0 0 0 0 1 0 0 0 0 1</matrix>
                      </node>
                    </node>
                  </node>
                </node>
                <node id="RShoulder_bone_id" name="RShoulder" sid="RShoulder" type="JOINT">
                  <matrix sid="transform">-0.58871174 -0.79830885 -0.12696993 14.14009 0.8048227 -0.5935153 -1.4453335E-07 3.93 -0.07535849 -0.10218837 0.9919065 -0.201935 0 0 0 1</matrix>
                  <node id="RArm_bone_id" name="RArm" sid="RArm" type="JOINT">
                    <matrix sid="transform">0.8048231 0.5935148 0 8.161548 -0.5935148 0.8048231 0 0 0 0 1 0 0 0 0 1</matrix>
                    <node id="RForeArm_bone_id" name="RForeArm" sid="RForeArm" type="JOINT">
                      <matrix sid="transform">1 0 0 22.9 0 1 0 0 0 0 1 0 0 0 0 1</matrix>
                      <node id="RHand_bone_id" name="RHand" sid="RHand" type="JOINT">
                        <matrix sid="transform">1 0 0 22.900002 0 1 0 0 0 0 1 0 0 0 0 1</matrix>
                      </node>
                    </node>
                  </node>
                </node>
                <node id="Parts_bone_id" name="Parts" sid="Parts" type="JOINT">
                  <matrix sid="transform">-0.99939084 -3.2584137E-07 -0.03489991 0.5 3.2564287E-07 -1 1.1371834E-08 0 -0.03489991 0 0.99939084 11.5 0 0 0 1</matrix>
                </node>
              </node>
            </node>
            <node id="Hips_bone_id" name="Hips" sid="Hips" type="JOINT">
              <matrix sid="transform">-1 -3.2584137E-07 0 -0.010002 3.2584137E-07 -1 0 0 0 0 1 0 0 0 0 1</matrix>
              <node id="LThigh_bone_id" name="LThigh" sid="LThigh" type="JOINT">
                <matrix sid="transform">1 0 0 10.510002 0 1 0 7.199996 0 0 1 0 0 0 0 1</matrix>
                <node id="LLeg_bone_id" name="LLeg" sid="LLeg" type="JOINT">
                  <matrix sid="transform">1 0 0 33.899998 0 1 0 0 0 0 1 0 0 0 0 1</matrix>
                  <node id="LFoot_bone_id" name="LFoot" sid="LFoot" type="JOINT">
                    <matrix sid="transform">3.1391647E-07 0 -1 33.9 0 1 0 4E-06 1 0 3.1391647E-07 0 0 0 0 1</matrix>
                  </node>
                </node>
              </node>
              <node id="RThigh_bone_id" name="RThigh" sid="RThigh" type="JOINT">
                <matrix sid="transform">1 0 0 10.510002 0 1 0 -7.2 0 0 1 0 0 0 0 1</matrix>
                <node id="RLeg_bone_id" name="RLeg" sid="RLeg" type="JOINT">
                  <matrix sid="transform">1 0 0 33.899998 0 1 0 0 0 0 1 0 0 0 0 1</matrix>
                  <node id="RFoot_bone_id" name="RFoot" sid="RFoot" type="JOINT">
                    <matrix sid="transform">3.1391647E-07 0 -1 33.9 0 1 0 0 1 0 3.1391647E-07 0 0 0 0 1</matrix>
                  </node>
                </node>
              </node>
            </node>
          </node>
          <node id="CamTgtHead_bone_id" name="CamTgtHead" sid="CamTgtHead" type="JOINT">
            <matrix sid="transform">1 0 0 0 0 1 0 145 0 0 1 0 0 0 0 1</matrix>
          </node>
          <node id="CamTgtBust_bone_id" name="CamTgtBust" sid="CamTgtBust" type="JOINT">
            <matrix sid="transform">1 0 0 0 0 1 0 112.99999 0 0 1 0 0 0 0 1</matrix>
          </node>
          <node id="CamTgtBody_bone_id" name="CamTgtBody" sid="CamTgtBody" type="JOINT">
            <matrix sid="transform">1 0 0 0 0 1 0 88.8 0 0 1 0 0 0 0 1</matrix>
          </node>
          <node id="CamTgtFoot_bone_id" name="CamTgtFoot" sid="CamTgtFoot" type="JOINT">
            <matrix sid="transform">1 0 0 0 0 1 0 0 0 0 1 0 0 0 0 1</matrix>
          </node>
        </node>
        <node id="tr0018_00_fi_HeadpartsSkin_bone_id" name="tr0018_00_fi_HeadpartsSkin" sid="tr0018_00_fi_HeadpartsSkin" type="JOINT">
          <matrix sid="transform">1 0 0 0 0 1 0 0 0 0 1 0 0 0 0 1</matrix>
        </node>
        <node id="tr0018_00_fi_FaceSkin_bone_id" name="tr0018_00_fi_FaceSkin" sid="tr0018_00_fi_FaceSkin" type="JOINT">
          <matrix sid="transform">1 0 0 0 0 1 0 0 0 0 1 0 0 0 0 1</matrix>
        </node>
        <node id="tr0018_00_fi_BottomSkin_bone_id" name="tr0018_00_fi_BottomSkin" sid="tr0018_00_fi_BottomSkin" type="JOINT">
          <matrix sid="transform">1 0 0 0 0 1 0 0 0 0 1 0 0 0 0 1</matrix>
        </node>
        <node id="tr0018_00_fi_HeadSkin_bone_id" name="tr0018_00_fi_HeadSkin" sid="tr0018_00_fi_HeadSkin" type="JOINT">
          <matrix sid="transform">1 0 0 0 0 1 0 0 0 0 1 0 0 0 0 1</matrix>
        </node>
        <node id="tr0018_00_fi_BodySkin_bone_id" name="tr0018_00_fi_BodySkin" sid="tr0018_00_fi_BodySkin" type="JOINT">
          <matrix sid="transform">1 0 0 0 0 1 0 0 0 0 1 0 0 0 0 1</matrix>
        </node>
      </node>
    </visual_scene>
  </library_visual_scenes>
  <scene>
    <instance_visual_scene url="#tr0018_00_fi_00_clip_id" />
  </scene>
</COLLADA>