<?xml version="1.0" encoding="utf-8"?>
<COLLADA xmlns:xsi="http://www.w3.org/2001/XMLSchema-instance" xmlns:xsd="http://www.w3.org/2001/XMLSchema" version="1.4.1" xmlns="http://www.collada.org/2005/11/COLLADASchema">
  <asset>
    <created>2026-02-17T05:46:46.4687331-05:00</created>
    <modified>2026-02-17T05:46:46.4687333-05:00</modified>
    <up_axis>Y_UP</up_axis>
  </asset>
  <library_animations>
    <animation id="Motion_31_Waist_transform_id" name="Motion_31_Waist_transform">
      <source id="Motion_31_Waist_transform_frame_id" name="Motion_31_Waist_transform_frame">
        <float_array id="Motion_31_Waist_transform_frame_array_id" count="17">0 0.033333335 0.06666667 0.1 0.13333334 0.16666667 0.2 0.23333333 0.26666668 0.3 0.33333334 0.36666667 0.4 0.43333334 0.46666667 0.5 0.53333336</float_array>
        <technique_common>
          <accessor source="#Motion_31_Waist_transform_frame_array_id" count="17" stride="1">
            <param name="TIME" type="float" />
          </accessor>
        </technique_common>
      </source>
      <source id="Motion_31_Waist_transform_interp_id" name="Motion_31_Waist_transform_interp">
        <Name_array id="Motion_31_Waist_transform_interp_array_id" count="17">LINEAR LINEAR LINEAR LINEAR LINEAR LINEAR LINEAR LINEAR LINEAR LINEAR LINEAR LINEAR LINEAR LINEAR LINEAR LINEAR LINEAR</Name_array>
        <technique_common>
          <accessor source="#Motion_31_Waist_transform_interp_array_id" count="17" stride="1">
            <param name="INTERPOLATION" type="Name" />
          </accessor>
        </technique_common>
      </source>
      <source id="Motion_31_Waist_transform_pose_id" name="Motion_31_Waist_transform_pose">
        <float_array id="Motion_31_Waist_transform_pose_array_id" count="272">5.9604645E-08 -0.99999994 -2.1427347E-06 -0.00029444695 0.99999994 5.9604645E-08 1.6956892E-07 90.106094 -1.6956892E-07 -2.1427347E-06 1 -7.724762E-05 0 0 0 1 -0.0005245209 -0.9993029 -0.037329197 -1.1129284 0.9999332 -9.2983246E-05 -0.01156115 89.95961 0.01154962 -0.037332766 0.99923617 -1.1390986 0 0 0 1 5.00679E-06 -1 0.00013435446 -2.8047223 0.9994546 5.364418E-07 -0.033024088 89.676315 0.033024088 0.00013444573 0.99945456 -3.752659 0 0 0 1 0.0018787384 -0.99911135 0.04210615 -3.0826786 0.999006 0 -0.04457624 89.54109 0.044536628 0.042148042 0.9981182 -6.03498 0 0 0 1 -0.0051802397 -0.9978424 0.06545153 -1.7116967 0.9991984 -0.007763505 -0.03927538 89.8433 0.039698765 0.065195605 0.99708253 -7.0496087 0 0 0 1 -0.02032733 -0.99541944 0.09341733 0.18929702 0.9994318 -0.022743702 -0.024875246 90.404564 0.026885964 0.092858605 0.99531627 -7.3077807 0 0 0 1 -0.03247118 -0.99154097 0.12566712 2.060727 0.9994045 -0.03368044 -0.0075095296 90.706795 0.011678513 0.12534845 0.99204403 -6.7940507 0 0 0 1 -0.039589882 -0.98384655 0.1745812 3.3468053 0.9992089 -0.038322926 0.010623321 90.524994 -0.0037612393 0.17486368 0.98458546 -5.593842 0 0 0 1 -0.039875627 -0.97579986 0.21499875 3.9211965 0.9990904 -0.035682917 0.023348443 90.142525 -0.015111618 0.21573421 0.97633517 -4.0189104 0 0 0 1 -0.03453839 -0.9719054 0.2328239 3.9180856 0.9992108 -0.029008746 0.027133577 89.84104 -0.019617334 0.23357728 0.9721403 -2.501244 0 0 0 1 -0.028868794 -0.9687865 0.24620959 3.5412738 0.99930453 -0.022156596 0.029989503 89.70835 -0.023598224 0.24690413 0.9687525 -1.3142343 0 0 0 1 -0.023197174 -0.9683297 0.24859439 2.9302099 0.9993666 -0.01574874 0.031909324 89.67352 -0.026983693 0.24917716 0.96808195 -0.4277897 0 0 0 1 -0.017799139 -0.97221595 0.23340784 2.1820166 0.99940354 -0.010390639 0.03293208 89.67249 -0.029591814 0.2338548 0.9718211 0.18893409 0 0 0 1 -0.010642886 -0.9796478 0.2004417 1.3907413 0.99959105 -0.005102515 0.028136954 89.73551 -0.026541546 0.20065919 0.9793015 0.47836685 0 0 0 1 -0.0039885044 -0.98825514 0.15276113 0.66478103 0.9998579 -0.0014380217 0.016802214 89.88603 -0.016385198 0.15280643 0.9881203 0.38299334 0 0 0 1 -0.00045621395 -0.9962205 0.08685872 0.16597414 0.9999861 2.2053719E-06 0.005277235 90.03747 -0.0052574836 0.08685991 0.99620664 0.14332533 0 0 0 1 -0.00045621395 -0.9962205 0.08685872 0.16597414 0.9999861 2.2053719E-06 0.005277235 90.03747 -0.0052574836 0.08685991 0.99620664 0.14332533 0 0 0 1</float_array>
        <technique_common>
          <accessor source="#Motion_31_Waist_transform_pose_array_id" count="17" stride="16">
            <param name="TRANSFORM" type="float4x4" />
          </accessor>
        </technique_common>
      </source>
      <sampler id="Motion_31_Waist_transform_samp_id">
        <input semantic="INPUT" source="#Motion_31_Waist_transform_frame_id" />
        <input semantic="INTERPOLATION" source="#Motion_31_Waist_transform_interp_id" />
        <input semantic="OUTPUT" source="#Motion_31_Waist_transform_pose_id" />
      </sampler>
      <channel source="#Motion_31_Waist_transform_samp_id" target="Waist_bone_id/transform" />
    </animation>
    <animation id="Motion_31_Hips_transform_id" name="Motion_31_Hips_transform">
      <source id="Motion_31_Hips_transform_frame_id" name="Motion_31_Hips_transform_frame">
        <float_array id="Motion_31_Hips_transform_frame_array_id" count="17">0 0.033333335 0.06666667 0.1 0.13333334 0.16666667 0.2 0.23333333 0.26666668 0.3 0.33333334 0.36666667 0.4 0.43333334 0.46666667 0.5 0.53333336</float_array>
        <technique_common>
          <accessor source="#Motion_31_Hips_transform_frame_array_id" count="17" stride="1">
            <param name="TIME" type="float" />
          </accessor>
        </technique_common>
      </source>
      <source id="Motion_31_Hips_transform_interp_id" name="Motion_31_Hips_transform_interp">
        <Name_array id="Motion_31_Hips_transform_interp_array_id" count="17">LINEAR LINEAR LINEAR LINEAR LINEAR LINEAR LINEAR LINEAR LINEAR LINEAR LINEAR LINEAR LINEAR LINEAR LINEAR LINEAR LINEAR</Name_array>
        <technique_common>
          <accessor source="#Motion_31_Hips_transform_interp_array_id" count="17" stride="1">
            <param name="INTERPOLATION" type="Name" />
          </accessor>
        </technique_common>
      </source>
      <source id="Motion_31_Hips_transform_pose_id" name="Motion_31_Hips_transform_pose">
        <float_array id="Motion_31_Hips_transform_pose_array_id" count="272">-1 -8.6625147E-07 -3.089002E-07 -0.010002 8.662516E-07 -1 -1.8498422E-07 0 -3.0890004E-07 -1.8498447E-07 1 0 0 0 0 1 -0.9996432 -0.023062952 0.013469425 -0.010002 0.02326464 -0.9996165 0.015014038 0 0.013117992 0.015322044 0.99979657 0 0 0 0 1 -0.99811864 -0.047975916 0.038168997 -0.010002 0.049154576 -0.9983231 0.030564856 0 0.036638625 0.032383543 0.99880373 0 0 0 0 1 -0.99515617 -0.072152495 0.06676833 -0.010002 0.07522316 -0.9961653 0.04467664 0 0.06328878 0.049482763 0.99676776 0 0 0 0 1 -0.99083936 -0.09408648 0.09687808 -0.010002 0.09982881 -0.99341464 0.05622971 0 0.09094964 0.065385826 0.99370664 0 0 0 0 1 -0.98836195 -0.10407314 0.11094853 -0.010002 0.11132018 -0.9918957 0.06124404 0 0.103675514 0.072882086 0.9919373 0 0 0 0 1 -0.99231887 -0.09309403 0.08146919 -0.010002 0.09856748 -0.99294245 0.06595561 0 0.074754134 0.07347919 0.99449116 0 0 0 0 1 -0.997548 -0.06508745 0.02572541 -0.010002 0.0667918 -0.99515545 0.072142646 0 0.0209052 0.07368399 0.9970625 0 0 0 0 1 -0.9995893 -0.028010296 -0.0060833367 -0.010002 0.027484698 -0.9968858 0.073915996 0 -0.008134799 0.07371842 0.9972459 0 0 0 0 1 -0.9999447 0.0047782096 0.009394292 -0.010002 -0.004220667 -0.99827886 0.058498494 0 0.009657638 0.058455594 0.9982433 0 0 0 0 1 -0.99849594 0.024903262 0.048839863 -0.010002 -0.023649858 -0.99938 0.02607575 0 0.049458962 0.024881478 0.9984662 0 0 0 0 1 -0.99538386 0.03527255 0.08926196 -0.010002 -0.03591537 -0.99933946 -0.00560517 0 0.089005254 -0.00878517 0.9959924 0 0 0 0 1 -0.9934331 0.038437128 0.1077655 -0.010002 -0.04080122 -0.99897087 -0.019818192 0 0.10689283 -0.02408501 0.9939788 0 0 0 0 1 -0.9952278 0.03521627 0.09100449 -0.010002 -0.037088815 -0.99913216 -0.01896737 0 0.09025754 -0.0222521 0.99566984 0 0 0 0 1 -0.998178 0.026857737 0.054027315 -0.010002 -0.027741902 -0.9994918 -0.01568213 0 0.053578686 -0.017152378 0.9984163 0 0 0 0 1 -0.99974465 0.0150140235 0.016879413 -0.010002 -0.015173114 -0.9998411 -0.0093368385 0 0.016736552 -0.00959057 0.9998139 0 0 0 0 1 -0.99974465 0.0150140235 0.016879413 -0.010002 -0.015173114 -0.9998411 -0.0093368385 0 0.016736552 -0.00959057 0.9998139 0 0 0 0 1</float_array>
        <technique_common>
          <accessor source="#Motion_31_Hips_transform_pose_array_id" count="17" stride="16">
            <param name="TRANSFORM" type="float4x4" />
          </accessor>
        </technique_common>
      </source>
      <sampler id="Motion_31_Hips_transform_samp_id">
        <input semantic="INPUT" source="#Motion_31_Hips_transform_frame_id" />
        <input semantic="INTERPOLATION" source="#Motion_31_Hips_transform_interp_id" />
        <input semantic="OUTPUT" source="#Motion_31_Hips_transform_pose_id" />
      </sampler>
      <channel source="#Motion_31_Hips_transform_samp_id" target="Hips_bone_id/transform" />
    </animation>
    <animation id="Motion_31_RThigh_transform_id" name="Motion_31_RThigh_transform">
      <source id="Motion_31_RThigh_transform_frame_id" name="Motion_31_RThigh_transform_frame">
        <float_array id="Motion_31_RThigh_transform_frame_array_id" count="17">0 0.033333335 0.06666667 0.1 0.13333334 0.16666667 0.2 0.23333333 0.26666668 0.3 0.33333334 0.36666667 0.4 0.43333334 0.46666667 0.5 0.53333336</float_array>
        <technique_common>
          <accessor source="#Motion_31_RThigh_transform_frame_array_id" count="17" stride="1">
            <param name="TIME" type="float" />
          </accessor>
        </technique_common>
      </source>
      <source id="Motion_31_RThigh_transform_interp_id" name="Motion_31_RThigh_transform_interp">
        <Name_array id="Motion_31_RThigh_transform_interp_array_id" count="17">LINEAR LINEAR LINEAR LINEAR LINEAR LINEAR LINEAR LINEAR LINEAR LINEAR LINEAR LINEAR LINEAR LINEAR LINEAR LINEAR LINEAR</Name_array>
        <technique_common>
          <accessor source="#Motion_31_RThigh_transform_interp_array_id" count="17" stride="1">
            <param name="INTERPOLATION" type="Name" />
          </accessor>
        </technique_common>
      </source>
      <source id="Motion_31_RThigh_transform_pose_id" name="Motion_31_RThigh_transform_pose">
        <float_array id="Motion_31_RThigh_transform_pose_array_id" count="272">0.9976286 0.061867878 -0.03015839 11.299995 -0.06290659 0.9974124 -0.034803834 -7.8 0.027927112 0.03661846 0.99893904 0 0 0 0 1 0.99877733 0.016886285 -0.04646229 11.299995 -0.020266151 0.99710673 -0.07326249 -7.8 0.045090735 0.074114524 0.9962298 0 0 0 0 1 0.9963713 -0.044168986 -0.07275521 11.299995 0.030790089 0.98396397 -0.17568956 -7.8 0.07934854 0.17281191 0.98175347 0 0 0 0 1 0.9960187 -0.07936163 -0.040601667 11.299995 0.06562285 0.96101195 -0.26860696 -7.8 0.060335774 0.26487315 0.96239376 0 0 0 0 1 0.9976434 -0.06744823 0.012586033 11.299995 0.06794396 0.94561523 -0.31811237 -7.8 0.009554574 0.31821787 0.94796944 0 0 0 0 1 0.9995352 -0.028498132 -0.010825306 11.299995 0.024004139 0.95464635 -0.29677284 -7.8 0.018791812 0.29637504 0.95488673 0 0 0 0 1 0.99159586 0.013611519 -0.12865618 11.299995 -0.040199097 0.97764254 -0.20639552 -7.8 0.1229704 0.2098328 0.96997344 0 0 0 0 1 0.95857 0.06031405 -0.2783985 11.299995 -0.0824716 0.99423194 -0.06856592 -7.8 0.27265722 0.0886852 0.95801514 0 0 0 0 1 0.9334692 0.10595886 -0.34264845 11.299995 -0.09992462 0.9943696 0.035271473 -7.8 0.34445655 0.0013141837 0.93880135 0 0 0 0 1 0.93345284 0.12384764 -0.33664152 11.299995 -0.11356544 0.99226415 0.05014707 -7.8 0.3402479 -0.008579085 0.94029665 0 0 0 0 1 0.9568845 0.13814643 -0.2555144 11.299995 -0.13469073 0.9904007 0.031062176 -7.8 0.2573528 0.004692508 0.9663061 0 0 0 0 1 0.9829797 0.14431916 -0.11367862 11.299995 -0.14535038 0.98937994 -0.00079178344 -7.8 0.11235708 0.01730154 0.9935173 0 0 0 0 1 0.9899287 0.14123957 0.009619954 11.299995 -0.14110585 0.98990387 -0.01339478 -7.8 -0.011414702 0.011902446 0.999864 0 0 0 0 1 0.99164325 0.12841551 0.012372633 11.299995 -0.12813441 0.99152744 -0.02132782 -7.8 -0.01500663 0.01956423 0.99969596 0 0 0 0 1 0.9940405 0.109006055 0.001092677 11.299995 -0.10885348 0.993089 -0.04387618 -7.8 -0.0058678943 0.04349576 0.9990364 0 0 0 0 1 0.9959543 0.08365776 -0.03280986 11.299995 -0.08506265 0.9954011 -0.044056684 -7.8 0.028973289 0.046669334 0.9984901 0 0 0 0 1 0.9959543 0.08365776 -0.03280986 11.299995 -0.08506265 0.9954011 -0.044056684 -7.8 0.028973289 0.046669334 0.9984901 0 0 0 0 1</float_array>
        <technique_common>
          <accessor source="#Motion_31_RThigh_transform_pose_array_id" count="17" stride="16">
            <param name="TRANSFORM" type="float4x4" />
          </accessor>
        </technique_common>
      </source>
      <sampler id="Motion_31_RThigh_transform_samp_id">
        <input semantic="INPUT" source="#Motion_31_RThigh_transform_frame_id" />
        <input semantic="INTERPOLATION" source="#Motion_31_RThigh_transform_interp_id" />
        <input semantic="OUTPUT" source="#Motion_31_RThigh_transform_pose_id" />
      </sampler>
      <channel source="#Motion_31_RThigh_transform_samp_id" target="RThigh_bone_id/transform" />
    </animation>
    <animation id="Motion_31_RLeg_transform_id" name="Motion_31_RLeg_transform">
      <source id="Motion_31_RLeg_transform_frame_id" name="Motion_31_RLeg_transform_frame">
        <float_array id="Motion_31_RLeg_transform_frame_array_id" count="17">0 0.033333335 0.06666667 0.1 0.13333334 0.16666667 0.2 0.23333333 0.26666668 0.3 0.33333334 0.36666667 0.4 0.43333334 0.46666667 0.5 0.53333336</float_array>
        <technique_common>
          <accessor source="#Motion_31_RLeg_transform_frame_array_id" count="17" stride="1">
            <param name="TIME" type="float" />
          </accessor>
        </technique_common>
      </source>
      <source id="Motion_31_RLeg_transform_interp_id" name="Motion_31_RLeg_transform_interp">
        <Name_array id="Motion_31_RLeg_transform_interp_array_id" count="17">LINEAR LINEAR LINEAR LINEAR LINEAR LINEAR LINEAR LINEAR LINEAR LINEAR LINEAR LINEAR LINEAR LINEAR LINEAR LINEAR LINEAR</Name_array>
        <technique_common>
          <accessor source="#Motion_31_RLeg_transform_interp_array_id" count="17" stride="1">
            <param name="INTERPOLATION" type="Name" />
          </accessor>
        </technique_common>
      </source>
      <source id="Motion_31_RLeg_transform_pose_id" name="Motion_31_RLeg_transform_pose">
        <float_array id="Motion_31_RLeg_transform_pose_array_id" count="272">0.9927695 0 0.12003664 34.3 0 1 0 0 -0.12003664 0 0.9927695 0 0 0 0 1 0.9896675 0 0.14338145 34.3 0 1 0 0 -0.14338145 0 0.9896675 0 0 0 0 1 0.98241955 0 0.18668634 34.3 0 1 0 0 -0.18668634 0 0.98241955 0 0 0 0 1 0.9865451 0 0.16348928 34.3 0 1 0 0 -0.16348928 0 0.9865451 0 0 0 0 1 0.98958 0 0.14398438 34.3 0 1 0 0 -0.14398438 0 0.98958 0 0 0 0 1 0.9703137 0 0.24184974 34.3 0 1 0 0 -0.24184974 0 0.9703137 0 0 0 0 1 0.90639704 0 0.4224268 34.3 0 1 0 0 -0.4224268 0 0.90639704 0 0 0 0 1 0.78143704 0 0.6239841 34.3 0 1 0 0 -0.6239841 0 0.78143704 0 0 0 0 1 0.6874385 0 0.7262426 34.3 0 1 0 0 -0.7262426 0 0.6874385 0 0 0 0 1 0.6627706 0 0.74882245 34.3 0 1 0 0 -0.74882245 0 0.6627706 0 0 0 0 1 0.7194941 0 0.6944986 34.3 0 1 0 0 -0.6944986 0 0.7194941 0 0 0 0 1 0.8433254 0 0.5374032 34.3 0 1 0 0 -0.5374032 0 0.8433254 0 0 0 0 1 0.93399566 0 0.3572843 34.3 0 1 0 0 -0.3572843 0 0.93399566 0 0 0 0 1 0.9494279 0 0.3139851 34.3 0 1 0 0 -0.3139851 0 0.9494279 0 0 0 0 1 0.9751445 0 0.22156988 34.3 0 1 0 0 -0.22156988 0 0.9751445 0 0 0 0 1 0.98414755 0 0.17735164 34.3 0 1 0 0 -0.17735164 0 0.98414755 0 0 0 0 1 0.98414755 0 0.17735164 34.3 0 1 0 0 -0.17735164 0 0.98414755 0 0 0 0 1</float_array>
        <technique_common>
          <accessor source="#Motion_31_RLeg_transform_pose_array_id" count="17" stride="16">
            <param name="TRANSFORM" type="float4x4" />
          </accessor>
        </technique_common>
      </source>
      <sampler id="Motion_31_RLeg_transform_samp_id">
        <input semantic="INPUT" source="#Motion_31_RLeg_transform_frame_id" />
        <input semantic="INTERPOLATION" source="#Motion_31_RLeg_transform_interp_id" />
        <input semantic="OUTPUT" source="#Motion_31_RLeg_transform_pose_id" />
      </sampler>
      <channel source="#Motion_31_RLeg_transform_samp_id" target="RLeg_bone_id/transform" />
    </animation>
    <animation id="Motion_31_RFoot_transform_id" name="Motion_31_RFoot_transform">
      <source id="Motion_31_RFoot_transform_frame_id" name="Motion_31_RFoot_transform_frame">
        <float_array id="Motion_31_RFoot_transform_frame_array_id" count="17">0 0.033333335 0.06666667 0.1 0.13333334 0.16666667 0.2 0.23333333 0.26666668 0.3 0.33333334 0.36666667 0.4 0.43333334 0.46666667 0.5 0.53333336</float_array>
        <technique_common>
          <accessor source="#Motion_31_RFoot_transform_frame_array_id" count="17" stride="1">
            <param name="TIME" type="float" />
          </accessor>
        </technique_common>
      </source>
      <source id="Motion_31_RFoot_transform_interp_id" name="Motion_31_RFoot_transform_interp">
        <Name_array id="Motion_31_RFoot_transform_interp_array_id" count="17">LINEAR LINEAR LINEAR LINEAR LINEAR LINEAR LINEAR LINEAR LINEAR LINEAR LINEAR LINEAR LINEAR LINEAR LINEAR LINEAR LINEAR</Name_array>
        <technique_common>
          <accessor source="#Motion_31_RFoot_transform_interp_array_id" count="17" stride="1">
            <param name="INTERPOLATION" type="Name" />
          </accessor>
        </technique_common>
      </source>
      <source id="Motion_31_RFoot_transform_pose_id" name="Motion_31_RFoot_transform_pose">
        <float_array id="Motion_31_RFoot_transform_pose_array_id" count="272">-0.07474148 -0.079408705 -0.9940363 34.3 -0.2131213 0.97506493 -0.06186863 0 0.9741628 0.20722613 -0.08980155 0 0 0 0 1 -0.08248186 -0.059480906 -0.9948159 34.3 -0.2213521 0.9743771 -0.039906174 0 0.97169954 0.21691307 -0.09353471 0 0 0 0 1 -0.09716892 -0.027934901 -0.9948757 34.3 -0.24132463 0.97043747 -0.003678657 0 0.9655674 0.2397306 -0.10103774 0 0 0 0 1 -0.08274639 -0.009353995 -0.99652684 34.3 -0.27272257 0.9619964 0.0136155635 0 0.9585278 0.27290195 -0.082152724 0 0 0 0 1 -0.050351977 -0.0028873533 -0.9987272 34.3 -0.32071114 0.9470818 0.013431013 0 0.9458376 0.32097927 -0.04861343 0 0 0 0 1 -0.039963484 -0.033265233 -0.9986473 34.3 -0.4242973 0.90542704 -0.013180718 0 0.90464073 0.4231966 -0.050298333 0 0 0 0 1 -0.035335064 -0.09722319 -0.99463505 34.3 -0.4720082 0.87887883 -0.06913987 0 0.88088566 0.46703288 -0.076945305 0 0 0 0 1 -0.051606894 -0.1617759 -0.9854772 34.3 -0.4567101 0.8813798 -0.12077053 0 0.88811743 0.4438448 -0.11936998 0 0 0 0 1 -0.06920314 -0.18314531 -0.98064715 34.3 -0.39667425 0.9070038 -0.14139888 0 0.9153473 0.37921217 -0.13541651 0 0 0 0 1 -0.09146571 -0.17856805 -0.97966707 34.3 -0.30403543 0.94182384 -0.14328423 0 0.9482597 0.2847479 -0.14043558 0 0 0 0 1 -0.17032433 -0.15978849 -0.97234625 34.3 -0.22475535 0.96705383 -0.11954872 0 0.9594137 0.19817795 -0.20062613 0 0 0 0 1 -0.26188552 -0.13233666 -0.9559828 34.3 -0.15615116 0.98331267 -0.0933433 0 0.9523828 0.12483257 -0.27817988 0 0 0 0 1 -0.26490438 -0.11486817 -0.95740855 34.3 -0.1245349 0.9886397 -0.08415782 0 0.95619917 0.09693701 -0.27620006 0 0 0 0 1 -0.22017479 -0.11158817 -0.96905684 34.3 -0.14085734 0.9866604 -0.08161172 0 0.9652369 0.11852993 -0.23295581 0 0 0 0 1 -0.13840103 -0.10212444 -0.9850968 34.3 -0.17391436 0.981719 -0.0773402 0 0.9749867 0.16061853 -0.15363193 0 0 0 0 1 -0.10770035 -0.08973661 -0.99012524 34.3 -0.19899291 0.97771025 -0.06696604 0 0.9740649 0.18981563 -0.12315667 0 0 0 0 1 -0.10770035 -0.08973661 -0.99012524 34.3 -0.19899291 0.97771025 -0.06696604 0 0.9740649 0.18981563 -0.12315667 0 0 0 0 1</float_array>
        <technique_common>
          <accessor source="#Motion_31_RFoot_transform_pose_array_id" count="17" stride="16">
            <param name="TRANSFORM" type="float4x4" />
          </accessor>
        </technique_common>
      </source>
      <sampler id="Motion_31_RFoot_transform_samp_id">
        <input semantic="INPUT" source="#Motion_31_RFoot_transform_frame_id" />
        <input semantic="INTERPOLATION" source="#Motion_31_RFoot_transform_interp_id" />
        <input semantic="OUTPUT" source="#Motion_31_RFoot_transform_pose_id" />
      </sampler>
      <channel source="#Motion_31_RFoot_transform_samp_id" target="RFoot_bone_id/transform" />
    </animation>
    <animation id="Motion_31_LThigh_transform_id" name="Motion_31_LThigh_transform">
      <source id="Motion_31_LThigh_transform_frame_id" name="Motion_31_LThigh_transform_frame">
        <float_array id="Motion_31_LThigh_transform_frame_array_id" count="17">0 0.033333335 0.06666667 0.1 0.13333334 0.16666667 0.2 0.23333333 0.26666668 0.3 0.33333334 0.36666667 0.4 0.43333334 0.46666667 0.5 0.53333336</float_array>
        <technique_common>
          <accessor source="#Motion_31_LThigh_transform_frame_array_id" count="17" stride="1">
            <param name="TIME" type="float" />
          </accessor>
        </technique_common>
      </source>
      <source id="Motion_31_LThigh_transform_interp_id" name="Motion_31_LThigh_transform_interp">
        <Name_array id="Motion_31_LThigh_transform_interp_array_id" count="17">LINEAR LINEAR LINEAR LINEAR LINEAR LINEAR LINEAR LINEAR LINEAR LINEAR LINEAR LINEAR LINEAR LINEAR LINEAR LINEAR LINEAR</Name_array>
        <technique_common>
          <accessor source="#Motion_31_LThigh_transform_interp_array_id" count="17" stride="1">
            <param name="INTERPOLATION" type="Name" />
          </accessor>
        </technique_common>
      </source>
      <source id="Motion_31_LThigh_transform_pose_id" name="Motion_31_LThigh_transform_pose">
        <float_array id="Motion_31_LThigh_transform_pose_array_id" count="272">0.9893193 -0.045596346 -0.1384496 11.300003 0.045650728 0.9989536 -0.0027842894 7.8 0.13843168 -0.0035657734 0.99036556 0 0 0 0 1 0.9680777 -0.07311996 -0.23974779 11.300003 0.08301451 0.99605286 0.031421147 7.8 0.23650396 -0.050320655 0.9703266 0 0 0 0 1 0.9228486 -0.088173404 -0.3749346 11.300003 0.14996713 0.97888273 0.138919 7.8 0.35476804 -0.18442908 0.91658366 0 0 0 0 1 0.90507966 -0.0922242 -0.41512108 11.300003 0.24640635 0.9093499 0.3352114 7.8 0.34657568 -0.4056815 0.84575874 0 0 0 0 1 0.9331819 -0.12303781 -0.33768815 11.300003 0.29084325 0.81050694 0.5084178 7.8 0.21114399 -0.5726606 0.7921351 0 0 0 0 1 0.97719306 -0.13741279 -0.16189966 11.300003 0.20826006 0.76911557 0.60422593 7.8 0.041491177 -0.6241626 0.780192 0 0 0 0 1 0.9941433 -0.09567206 -0.050258916 11.300003 0.10666943 0.7940628 0.5984028 7.8 -0.017341692 -0.60025924 0.7996175 0 0 0 0 1 0.9986111 -0.027303286 -0.045059606 11.300003 0.04655064 0.8577894 0.511889 7.8 0.024675405 -0.5132756 0.857869 0 0 0 0 1 0.9981131 0.020053683 -0.058035575 11.300003 0.0066320277 0.9044272 0.4265765 7.8 0.06104338 -0.42615646 0.9025876 0 0 0 0 1 0.9985785 0.03415365 -0.0409209 11.300003 -0.017987166 0.938626 0.34446722 7.8 0.050174236 -0.3432415 0.9379061 0 0 0 0 1 0.9994279 0.033816125 -0.00055654394 11.300003 -0.032673392 0.96964294 0.24233244 7.8 0.008734394 -0.24217562 0.9701931 0 0 0 0 1 0.998863 0.029496841 0.037453137 11.300003 -0.034610823 0.988943 0.14420082 7.8 -0.03278555 -0.14533313 0.9888394 0 0 0 0 1 0.9986417 0.02306619 0.046718292 11.300003 -0.026594609 0.99672484 0.07636932 7.8 -0.04480373 -0.077508055 0.9959845 0 0 0 0 1 0.9999042 0.011432779 0.0077983635 11.300003 -0.011719593 0.9992173 0.037782367 7.8 -0.007360302 -0.037870143 0.99925554 0 0 0 0 1 0.99852777 -0.0055546863 -0.053957433 11.300003 0.006134025 0.99992526 0.01057729 7.8 0.053894646 -0.010892694 0.99848723 0 0 0 0 1 0.9939444 -0.0256523 -0.10684786 11.300003 0.025403265 0.99967045 -0.0036913566 7.8 0.106907345 0.0009547187 0.99426854 0 0 0 0 1 0.9939444 -0.0256523 -0.10684786 11.300003 0.025403265 0.99967045 -0.0036913566 7.8 0.106907345 0.0009547187 0.99426854 0 0 0 0 1</float_array>
        <technique_common>
          <accessor source="#Motion_31_LThigh_transform_pose_array_id" count="17" stride="16">
            <param name="TRANSFORM" type="float4x4" />
          </accessor>
        </technique_common>
      </source>
      <sampler id="Motion_31_LThigh_transform_samp_id">
        <input semantic="INPUT" source="#Motion_31_LThigh_transform_frame_id" />
        <input semantic="INTERPOLATION" source="#Motion_31_LThigh_transform_interp_id" />
        <input semantic="OUTPUT" source="#Motion_31_LThigh_transform_pose_id" />
      </sampler>
      <channel source="#Motion_31_LThigh_transform_samp_id" target="LThigh_bone_id/transform" />
    </animation>
    <animation id="Motion_31_LLeg_transform_id" name="Motion_31_LLeg_transform">
      <source id="Motion_31_LLeg_transform_frame_id" name="Motion_31_LLeg_transform_frame">
        <float_array id="Motion_31_LLeg_transform_frame_array_id" count="17">0 0.033333335 0.06666667 0.1 0.13333334 0.16666667 0.2 0.23333333 0.26666668 0.3 0.33333334 0.36666667 0.4 0.43333334 0.46666667 0.5 0.53333336</float_array>
        <technique_common>
          <accessor source="#Motion_31_LLeg_transform_frame_array_id" count="17" stride="1">
            <param name="TIME" type="float" />
          </accessor>
        </technique_common>
      </source>
      <source id="Motion_31_LLeg_transform_interp_id" name="Motion_31_LLeg_transform_interp">
        <Name_array id="Motion_31_LLeg_transform_interp_array_id" count="17">LINEAR LINEAR LINEAR LINEAR LINEAR LINEAR LINEAR LINEAR LINEAR LINEAR LINEAR LINEAR LINEAR LINEAR LINEAR LINEAR LINEAR</Name_array>
        <technique_common>
          <accessor source="#Motion_31_LLeg_transform_interp_array_id" count="17" stride="1">
            <param name="INTERPOLATION" type="Name" />
          </accessor>
        </technique_common>
      </source>
      <source id="Motion_31_LLeg_transform_pose_id" name="Motion_31_LLeg_transform_pose">
        <float_array id="Motion_31_LLeg_transform_pose_array_id" count="272">0.9842569 0 0.17674364 34.299995 0 1 0 0 -0.17674364 0 0.9842569 0 0 0 0 1 0.92554843 0 0.37862918 34.299995 0 1 0 0 -0.37862918 0 0.92554843 0 0 0 0 1 0.8090333 0 0.58776283 34.299995 0 1 0 0 -0.58776283 0 0.8090333 0 0 0 0 1 0.7571658 0 0.65322274 34.299995 0 1 0 0 -0.65322274 0 0.7571658 0 0 0 0 1 0.8070698 0 0.5904561 34.299995 0 1 0 0 -0.5904561 0 0.8070698 0 0 0 0 1 0.9346701 0 0.35551623 34.299995 0 1 0 0 -0.35551623 0 0.9346701 0 0 0 0 1 0.98606354 0 0.16636923 34.299995 0 1 0 0 -0.16636923 0 0.98606354 0 0 0 0 1 0.98872477 0 0.14974411 34.299995 0 1 0 0 -0.14974411 0 0.98872477 0 0 0 0 1 0.98290575 0 0.18410954 34.299995 0 1 0 0 -0.18410954 0 0.98290575 0 0 0 0 1 0.97767466 0 0.21012445 34.299995 0 1 0 0 -0.21012445 0 0.97767466 0 0 0 0 1 0.9778292 0 0.20940398 34.299995 0 1 0 0 -0.20940398 0 0.9778292 0 0 0 0 1 0.97910947 0 0.20333399 34.299995 0 1 0 0 -0.20333399 0 0.97910947 0 0 0 0 1 0.9790711 0 0.20351854 34.299995 0 1 0 0 -0.20351854 0 0.9790711 0 0 0 0 1 0.97823286 0 0.20751005 34.299995 0 1 0 0 -0.20751005 0 0.97823286 0 0 0 0 1 0.9809175 0 0.1944245 34.299995 0 1 0 0 -0.1944245 0 0.9809175 0 0 0 0 1 0.9854191 0 0.1701447 34.299995 0 1 0 0 -0.1701447 0 0.9854191 0 0 0 0 1 0.9854191 0 0.1701447 34.299995 0 1 0 0 -0.1701447 0 0.9854191 0 0 0 0 1</float_array>
        <technique_common>
          <accessor source="#Motion_31_LLeg_transform_pose_array_id" count="17" stride="16">
            <param name="TRANSFORM" type="float4x4" />
          </accessor>
        </technique_common>
      </source>
      <sampler id="Motion_31_LLeg_transform_samp_id">
        <input semantic="INPUT" source="#Motion_31_LLeg_transform_frame_id" />
        <input semantic="INTERPOLATION" source="#Motion_31_LLeg_transform_interp_id" />
        <input semantic="OUTPUT" source="#Motion_31_LLeg_transform_pose_id" />
      </sampler>
      <channel source="#Motion_31_LLeg_transform_samp_id" target="LLeg_bone_id/transform" />
    </animation>
    <animation id="Motion_31_LFoot_transform_id" name="Motion_31_LFoot_transform">
      <source id="Motion_31_LFoot_transform_frame_id" name="Motion_31_LFoot_transform_frame">
        <float_array id="Motion_31_LFoot_transform_frame_array_id" count="17">0 0.033333335 0.06666667 0.1 0.13333334 0.16666667 0.2 0.23333333 0.26666668 0.3 0.33333334 0.36666667 0.4 0.43333334 0.46666667 0.5 0.53333336</float_array>
        <technique_common>
          <accessor source="#Motion_31_LFoot_transform_frame_array_id" count="17" stride="1">
            <param name="TIME" type="float" />
          </accessor>
        </technique_common>
      </source>
      <source id="Motion_31_LFoot_transform_interp_id" name="Motion_31_LFoot_transform_interp">
        <Name_array id="Motion_31_LFoot_transform_interp_array_id" count="17">LINEAR LINEAR LINEAR LINEAR LINEAR LINEAR LINEAR LINEAR LINEAR LINEAR LINEAR LINEAR LINEAR LINEAR LINEAR LINEAR LINEAR</Name_array>
        <technique_common>
          <accessor source="#Motion_31_LFoot_transform_interp_array_id" count="17" stride="1">
            <param name="INTERPOLATION" type="Name" />
          </accessor>
        </technique_common>
      </source>
      <source id="Motion_31_LFoot_transform_pose_id" name="Motion_31_LFoot_transform_pose">
        <float_array id="Motion_31_LFoot_transform_pose_array_id" count="272">-0.029649973 0.051865943 -0.9982139 34.3 0.18274546 0.98210216 0.045600727 0 0.9827131 -0.18106697 -0.038597584 0 0 0 0 1 -0.088492274 0.055520214 -0.9945284 34.3 0.2990461 0.9538667 0.026641443 0 0.95012665 -0.2950523 -0.101012945 0 0 0 0 1 -0.09303784 0.04751627 -0.9945282 34.3 0.3700847 0.92894673 0.0097616315 0 0.9243275 -0.36715144 -0.10401225 0 0 0 0 1 -0.11400437 0.053849697 -0.99201983 34.3 0.35507557 0.93478477 0.009937033 0 0.9278602 -0.35110915 -0.12569034 0 0 0 0 1 -0.16993356 0.11165642 -0.9791095 34.3 0.33449006 0.9411105 0.04926923 0 0.9269514 -0.3191299 -0.19727421 0 0 0 0 1 -0.18371868 0.031267613 -0.98248136 34.3 0.33742717 0.9407675 -0.033157006 0 0.92324984 -0.3376075 -0.18338704 0 0 0 0 1 -0.08898747 0.057836324 -0.99435216 34.3 0.38392588 0.9231614 0.019336894 0 0.9190659 -0.38003677 -0.10435462 0 0 0 0 1 -0.08676052 0.026380569 -0.9958798 34.3 0.41792798 0.90839624 -0.012346506 0 0.9043278 -0.41727725 -0.08983803 0 0 0 0 1 -0.107854486 0.025647014 -0.99383575 34.3 0.37996075 0.92483956 -0.017368168 0 0.9186931 -0.37949184 -0.1094929 0 0 0 0 1 -0.12232387 0.030234888 -0.99202955 34.3 0.34086215 0.94001806 -0.0133809 0 0.93212116 -0.33978212 -0.12529254 0 0 0 0 1 -0.1193912 0.032636866 -0.9923107 34.3 0.3049451 0.9523548 -0.00536716 0 0.9448567 -0.3032411 -0.1236552 0 0 0 0 1 -0.10910785 0.0350627 -0.99341154 34.3 0.27190772 0.9623146 0.0041011423 0 0.9561182 -0.26966876 -0.11452997 0 0 0 0 1 -0.10118151 0.039115787 -0.99409866 34.3 0.24279135 0.96998525 0.013455145 0 0.96478736 -0.23999715 -0.10764146 0 0 0 0 1 -0.08829236 0.043246284 -0.99515533 34.3 0.2186331 0.9755361 0.02299606 0 0.9718045 -0.21554351 -0.09558749 0 0 0 0 1 -0.062327266 0.04615938 -0.9969878 34.3 0.20023713 0.9791977 0.03281779 0 0.97776306 -0.19758853 -0.07027352 0 0 0 0 1 -0.03323698 0.048208676 -0.99828404 34.3 0.18813413 0.981282 0.041123845 0 0.9815807 -0.18644449 -0.041684628 0 0 0 0 1 -0.03323698 0.048208676 -0.99828404 34.3 0.18813413 0.981282 0.041123845 0 0.9815807 -0.18644449 -0.041684628 0 0 0 0 1</float_array>
        <technique_common>
          <accessor source="#Motion_31_LFoot_transform_pose_array_id" count="17" stride="16">
            <param name="TRANSFORM" type="float4x4" />
          </accessor>
        </technique_common>
      </source>
      <sampler id="Motion_31_LFoot_transform_samp_id">
        <input semantic="INPUT" source="#Motion_31_LFoot_transform_frame_id" />
        <input semantic="INTERPOLATION" source="#Motion_31_LFoot_transform_interp_id" />
        <input semantic="OUTPUT" source="#Motion_31_LFoot_transform_pose_id" />
      </sampler>
      <channel source="#Motion_31_LFoot_transform_samp_id" target="LFoot_bone_id/transform" />
    </animation>
    <animation id="Motion_31_Spine2_transform_id" name="Motion_31_Spine2_transform">
      <source id="Motion_31_Spine2_transform_frame_id" name="Motion_31_Spine2_transform_frame">
        <float_array id="Motion_31_Spine2_transform_frame_array_id" count="17">0 0.033333335 0.06666667 0.1 0.13333334 0.16666667 0.2 0.23333333 0.26666668 0.3 0.33333334 0.36666667 0.4 0.43333334 0.46666667 0.5 0.53333336</float_array>
        <technique_common>
          <accessor source="#Motion_31_Spine2_transform_frame_array_id" count="17" stride="1">
            <param name="TIME" type="float" />
          </accessor>
        </technique_common>
      </source>
      <source id="Motion_31_Spine2_transform_interp_id" name="Motion_31_Spine2_transform_interp">
        <Name_array id="Motion_31_Spine2_transform_interp_array_id" count="17">LINEAR LINEAR LINEAR LINEAR LINEAR LINEAR LINEAR LINEAR LINEAR LINEAR LINEAR LINEAR LINEAR LINEAR LINEAR LINEAR LINEAR</Name_array>
        <technique_common>
          <accessor source="#Motion_31_Spine2_transform_interp_array_id" count="17" stride="1">
            <param name="INTERPOLATION" type="Name" />
          </accessor>
        </technique_common>
      </source>
      <source id="Motion_31_Spine2_transform_pose_id" name="Motion_31_Spine2_transform_pose">
        <float_array id="Motion_31_Spine2_transform_pose_array_id" count="272">0.9999947 -0.0017506875 -0.0027538617 13.5 0.0017506807 0.99999845 -4.8211564E-06 0 0.002753866 -2.2737368E-12 0.9999962 0 0 0 0 1 0.99997437 -0.00010827709 -0.007160994 13.5 3.197251E-05 0.99994326 -0.010654841 0 0.007161741 0.010654338 0.99991757 0 0 0 0 1 0.9998259 0.003341802 -0.018357487 13.5 -0.0039687343 0.9994064 -0.03422174 0 0.018232228 0.034288637 0.99924564 0 0 0 0 1 0.9993898 0.007339226 -0.034148607 13.5 -0.0093171485 0.9982657 -0.058127277 0 0.033662777 0.058409974 0.99772495 0 0 0 0 1 0.99854666 0.01069482 -0.052821852 13.5 -0.014663791 0.99705064 -0.075332515 0 0.051860392 0.0759976 0.9957584 0 0 0 0 1 0.9972775 0.012929945 -0.07259777 13.5 -0.01923293 0.9960397 -0.086804725 0 0.07118788 0.08796466 0.99357665 0 0 0 0 1 0.9957616 0.0143882595 -0.09083976 13.5 -0.022929162 0.9953373 -0.09369033 0 0.08906816 0.09537611 0.9914486 0 0 0 0 1 0.99441475 0.015166812 -0.10444777 13.5 -0.025380723 0.99494445 -0.09716655 0 0.10244602 0.099274814 0.9897724 0 0 0 0 1 0.9938584 0.015364516 -0.109587245 13.5 -0.026217341 0.99481225 -0.09829172 0 0.10750853 0.100561135 0.98910534 0 0 0 0 1 0.9945255 0.015024878 -0.10340841 13.5 -0.025120053 0.9949648 -0.09702604 0 0.101429924 0.09909249 0.9898953 0 0 0 0 1 0.9959661 0.013844881 -0.08865587 13.5 -0.022098336 0.9954393 -0.09280214 0 0.0869667 0.094386935 0.99172974 0 0 0 0 1 0.9975675 0.011594287 -0.068736136 13.5 -0.017435562 0.99622834 -0.085000314 0 0.06749137 0.085992 0.9940072 0 0 0 0 1 0.9988195 0.008519515 -0.0478236 13.5 -0.0120035615 0.99725646 -0.07304448 0 0.047070093 0.0735323 0.9961814 0 0 0 0 1 0.99954593 0.00507101 -0.02970215 13.5 -0.0066587483 0.99854016 -0.05360279 0 0.029386967 0.05377623 0.9981205 0 0 0 0 1 0.99988127 0.0017561931 -0.015308879 13.5 -0.0022055963 0.99956566 -0.02938845 0 0.015250618 0.029418726 0.9994508 0 0 0 0 1 0.99998146 -0.0007581949 -0.006044989 13.5 0.0007053584 0.99996156 -0.008737891 0 0.0060513816 0.008733465 0.99994355 0 0 0 0 1 0.99998146 -0.0007581949 -0.006044989 13.5 0.0007053584 0.99996156 -0.008737891 0 0.0060513816 0.008733465 0.99994355 0 0 0 0 1</float_array>
        <technique_common>
          <accessor source="#Motion_31_Spine2_transform_pose_array_id" count="17" stride="16">
            <param name="TRANSFORM" type="float4x4" />
          </accessor>
        </technique_common>
      </source>
      <sampler id="Motion_31_Spine2_transform_samp_id">
        <input semantic="INPUT" source="#Motion_31_Spine2_transform_frame_id" />
        <input semantic="INTERPOLATION" source="#Motion_31_Spine2_transform_interp_id" />
        <input semantic="OUTPUT" source="#Motion_31_Spine2_transform_pose_id" />
      </sampler>
      <channel source="#Motion_31_Spine2_transform_samp_id" target="Spine2_bone_id/transform" />
    </animation>
    <animation id="Motion_31_Spine3_transform_id" name="Motion_31_Spine3_transform">
      <source id="Motion_31_Spine3_transform_frame_id" name="Motion_31_Spine3_transform_frame">
        <float_array id="Motion_31_Spine3_transform_frame_array_id" count="17">0 0.033333335 0.06666667 0.1 0.13333334 0.16666667 0.2 0.23333333 0.26666668 0.3 0.33333334 0.36666667 0.4 0.43333334 0.46666667 0.5 0.53333336</float_array>
        <technique_common>
          <accessor source="#Motion_31_Spine3_transform_frame_array_id" count="17" stride="1">
            <param name="TIME" type="float" />
          </accessor>
        </technique_common>
      </source>
      <source id="Motion_31_Spine3_transform_interp_id" name="Motion_31_Spine3_transform_interp">
        <Name_array id="Motion_31_Spine3_transform_interp_array_id" count="17">LINEAR LINEAR LINEAR LINEAR LINEAR LINEAR LINEAR LINEAR LINEAR LINEAR LINEAR LINEAR LINEAR LINEAR LINEAR LINEAR LINEAR</Name_array>
        <technique_common>
          <accessor source="#Motion_31_Spine3_transform_interp_array_id" count="17" stride="1">
            <param name="INTERPOLATION" type="Name" />
          </accessor>
        </technique_common>
      </source>
      <source id="Motion_31_Spine3_transform_pose_id" name="Motion_31_Spine3_transform_pose">
        <float_array id="Motion_31_Spine3_transform_pose_array_id" count="272">0.9958148 -0.0039713574 0.09130785 13.5 0.0039547677 0.99999213 0.00036261894 0 -0.091308564 1.4551915E-11 0.99582267 0 0 0 0 1 0.9964076 -0.003940316 0.08459503 13.5 0.0055296468 0.9998124 -0.018561432 0 -0.08450603 0.018962534 0.9962425 0 0 0 0 1 0.997458 -0.0037326238 0.07115892 13.5 0.008003741 0.9981764 -0.05983196 0 -0.070805825 0.060249407 0.9956689 0 0 0 0 1 0.99811506 -0.004840849 0.06117894 13.5 0.0109549705 0.9949269 -0.10000223 0 -0.06038448 0.10048394 0.9931046 0 0 0 0 1 0.9983291 -0.007728683 0.057264555 13.5 0.014995541 0.99171484 -0.12758042 0 -0.055804085 0.12822597 0.9901737 0 0 0 0 1 0.9984058 -0.012763424 0.05498074 13.5 0.020754913 0.9888692 -0.14733283 0 -0.05248829 0.14823909 0.98755765 0 0 0 0 1 0.9983683 -0.018612996 0.053983506 13.5 0.027053542 0.98672795 -0.16011254 0 -0.050286863 0.16131173 0.9856215 0 0 0 0 1 0.99828213 -0.023136986 0.05382765 13.5 0.03185158 0.9854169 -0.16714986 0 -0.04917533 0.16857721 0.984461 0 0 0 0 1 0.99821824 -0.02510549 0.054130044 13.5 0.03395113 0.9849864 -0.16926034 0 -0.049067993 0.17079653 0.9840838 0 0 0 0 1 0.9981878 -0.025378432 0.054562267 13.5 0.033656534 0.9870874 -0.15660653 0 -0.049883302 0.1581591 0.9861528 0 0 0 0 1 0.99817455 -0.024654051 0.05513351 13.5 0.03142187 0.9915998 -0.12546922 0 -0.05157705 0.12697257 0.99056435 0 0 0 0 1 0.9981158 -0.023218405 0.056795873 13.5 0.028060675 0.9958997 -0.08600277 0 -0.054566145 0.087434456 0.9946747 0 0 0 0 1 0.9979431 -0.020874528 0.060612064 13.5 0.02383749 0.9985348 -0.048579667 0 -0.059509177 0.049924586 0.9969785 0 0 0 0 1 0.9975706 -0.016891498 0.06758389 13.5 0.01846692 0.99957055 -0.02275411 0 -0.067170516 0.023946896 0.9974541 0 0 0 0 1 0.9968924 -0.011207073 0.07797427 13.5 0.011831247 0.99990153 -0.007547495 0 -0.077882 0.008446573 0.9969268 0 0 0 0 1 0.99616456 -0.0061334665 0.08728431 13.5 0.006272093 0.9999795 -0.0013140574 0 -0.08727446 0.0018564727 0.99618256 0 0 0 0 1 0.99616456 -0.0061334665 0.08728431 13.5 0.006272093 0.9999795 -0.0013140574 0 -0.08727446 0.0018564727 0.99618256 0 0 0 0 1</float_array>
        <technique_common>
          <accessor source="#Motion_31_Spine3_transform_pose_array_id" count="17" stride="16">
            <param name="TRANSFORM" type="float4x4" />
          </accessor>
        </technique_common>
      </source>
      <sampler id="Motion_31_Spine3_transform_samp_id">
        <input semantic="INPUT" source="#Motion_31_Spine3_transform_frame_id" />
        <input semantic="INTERPOLATION" source="#Motion_31_Spine3_transform_interp_id" />
        <input semantic="OUTPUT" source="#Motion_31_Spine3_transform_pose_id" />
      </sampler>
      <channel source="#Motion_31_Spine3_transform_samp_id" target="Spine3_bone_id/transform" />
    </animation>
    <animation id="Motion_31_RShoulder_transform_id" name="Motion_31_RShoulder_transform">
      <source id="Motion_31_RShoulder_transform_frame_id" name="Motion_31_RShoulder_transform_frame">
        <float_array id="Motion_31_RShoulder_transform_frame_array_id" count="17">0 0.033333335 0.06666667 0.1 0.13333334 0.16666667 0.2 0.23333333 0.26666668 0.3 0.33333334 0.36666667 0.4 0.43333334 0.46666667 0.5 0.53333336</float_array>
        <technique_common>
          <accessor source="#Motion_31_RShoulder_transform_frame_array_id" count="17" stride="1">
            <param name="TIME" type="float" />
          </accessor>
        </technique_common>
      </source>
      <source id="Motion_31_RShoulder_transform_interp_id" name="Motion_31_RShoulder_transform_interp">
        <Name_array id="Motion_31_RShoulder_transform_interp_array_id" count="17">LINEAR LINEAR LINEAR LINEAR LINEAR LINEAR LINEAR LINEAR LINEAR LINEAR LINEAR LINEAR LINEAR LINEAR LINEAR LINEAR LINEAR</Name_array>
        <technique_common>
          <accessor source="#Motion_31_RShoulder_transform_interp_array_id" count="17" stride="1">
            <param name="INTERPOLATION" type="Name" />
          </accessor>
        </technique_common>
      </source>
      <source id="Motion_31_RShoulder_transform_pose_id" name="Motion_31_RShoulder_transform_pose">
        <float_array id="Motion_31_RShoulder_transform_pose_array_id" count="272">-0.35109258 -0.89131194 -0.2868753 14.18017 0.85269564 -0.43093014 0.29531297 4.5 -0.3868391 -0.14093515 0.9113138 -0.240233 0 0 0 1 -0.35312164 -0.8908017 -0.28596786 14.18017 0.8514584 -0.43266094 0.2963503 4.5 -0.38771638 -0.13884205 0.9112623 -0.240233 0 0 0 1 -0.35748005 -0.88959634 -0.28429982 14.18017 0.8473954 -0.4369334 0.3016791 4.5 -0.3925927 -0.13307011 0.9100348 -0.240233 0 0 0 1 -0.36158204 -0.8886252 -0.2821414 14.18017 0.83928376 -0.44201946 0.3165781 4.5 -0.40603125 -0.122327745 0.9056349 -0.240233 0 0 0 1 -0.3629452 -0.8888358 -0.27971718 14.18017 0.82583714 -0.4458691 0.3452444 4.5 -0.43158284 -0.10569605 0.8958597 -0.240233 0 0 0 1 -0.36258662 -0.8896574 -0.27756274 14.18017 0.81066954 -0.44800496 0.37697056 4.5 -0.459724 -0.08832723 0.8836584 -0.240233 0 0 0 1 -0.36158562 -0.8906721 -0.275607 14.18017 0.7990092 -0.4483627 0.40069342 4.5 -0.48045832 -0.07532759 0.8737766 -0.240233 0 0 0 1 -0.36076117 -0.8914344 -0.27421874 14.18017 0.79159266 -0.44813752 0.4153958 4.5 -0.49318582 -0.06721084 0.8673237 -0.240233 0 0 0 1 -0.36040723 -0.8916936 -0.2738408 14.18017 0.7888229 -0.44803798 0.42073762 4.5 -0.49786022 -0.06437497 0.86486477 -0.240233 0 0 0 1 -0.3601867 -0.89171064 -0.27407646 14.18017 0.79027927 -0.44777703 0.41827574 4.5 -0.49570602 -0.065939605 0.86598355 -0.240233 0 0 0 1 -0.35995996 -0.89164513 -0.27458677 14.18017 0.7950823 -0.4471606 0.40974596 4.5 -0.48813233 -0.07082698 0.86989105 -0.240233 0 0 0 1 -0.3595581 -0.891602 -0.27525246 14.18017 0.8027424 -0.4459448 0.39590132 4.5 -0.47573382 -0.07860729 0.8760698 -0.240233 0 0 0 1 -0.35867774 -0.89151704 -0.2766724 14.18017 0.8131474 -0.44396377 0.37641388 4.5 -0.4584119 -0.08996415 0.88417476 -0.240233 0 0 0 1 -0.35711682 -0.8913072 -0.2793554 14.18017 0.8260756 -0.44096768 0.350923 4.5 -0.4359668 -0.1054482 0.8937638 -0.240233 0 0 0 1 -0.35492015 -0.89121765 -0.28242293 14.18017 0.838883 -0.4369396 0.32459068 4.5 -0.41268274 -0.12171602 0.902706 -0.240233 0 0 0 1 -0.35262883 -0.8911188 -0.28558725 14.18017 0.8486195 -0.43314135 0.30369946 4.5 -0.394332 -0.13526174 0.90895903 -0.240233 0 0 0 1 -0.35262883 -0.8911188 -0.28558725 14.18017 0.8486195 -0.43314135 0.30369946 4.5 -0.394332 -0.13526174 0.90895903 -0.240233 0 0 0 1</float_array>
        <technique_common>
          <accessor source="#Motion_31_RShoulder_transform_pose_array_id" count="17" stride="16">
            <param name="TRANSFORM" type="float4x4" />
          </accessor>
        </technique_common>
      </source>
      <sampler id="Motion_31_RShoulder_transform_samp_id">
        <input semantic="INPUT" source="#Motion_31_RShoulder_transform_frame_id" />
        <input semantic="INTERPOLATION" source="#Motion_31_RShoulder_transform_interp_id" />
        <input semantic="OUTPUT" source="#Motion_31_RShoulder_transform_pose_id" />
      </sampler>
      <channel source="#Motion_31_RShoulder_transform_samp_id" target="RShoulder_bone_id/transform" />
    </animation>
    <animation id="Motion_31_RArm_transform_id" name="Motion_31_RArm_transform">
      <source id="Motion_31_RArm_transform_frame_id" name="Motion_31_RArm_transform_frame">
        <float_array id="Motion_31_RArm_transform_frame_array_id" count="17">0 0.033333335 0.06666667 0.1 0.13333334 0.16666667 0.2 0.23333333 0.26666668 0.3 0.33333334 0.36666667 0.4 0.43333334 0.46666667 0.5 0.53333336</float_array>
        <technique_common>
          <accessor source="#Motion_31_RArm_transform_frame_array_id" count="17" stride="1">
            <param name="TIME" type="float" />
          </accessor>
        </technique_common>
      </source>
      <source id="Motion_31_RArm_transform_interp_id" name="Motion_31_RArm_transform_interp">
        <Name_array id="Motion_31_RArm_transform_interp_array_id" count="17">LINEAR LINEAR LINEAR LINEAR LINEAR LINEAR LINEAR LINEAR LINEAR LINEAR LINEAR LINEAR LINEAR LINEAR LINEAR LINEAR LINEAR</Name_array>
        <technique_common>
          <accessor source="#Motion_31_RArm_transform_interp_array_id" count="17" stride="1">
            <param name="INTERPOLATION" type="Name" />
          </accessor>
        </technique_common>
      </source>
      <source id="Motion_31_RArm_transform_pose_id" name="Motion_31_RArm_transform_pose">
        <float_array id="Motion_31_RArm_transform_pose_array_id" count="272">0.90485215 -0.3350858 -0.26260257 12.61957 0.41786838 0.5810933 0.69836706 0 -0.08141632 -0.7416522 0.66582537 0 0 0 0 1 0.90085894 -0.35484058 -0.25008276 12.61957 0.42182642 0.57943594 0.697364 0 -0.10254606 -0.73371804 0.67167115 0 0 0 0 1 0.8905493 -0.39486694 -0.22583641 12.61957 0.43125457 0.5749453 0.69531107 0 -0.14471175 -0.7166017 0.6823052 0 0 0 0 1 0.8754399 -0.4395716 -0.20095238 12.61957 0.44629428 0.5755733 0.68522763 0 -0.18554375 -0.68955946 0.7000581 0 0 0 0 1 0.86022836 -0.47674555 -0.180889 12.61957 0.46491212 0.58760035 0.6622557 0 -0.20943703 -0.6537886 0.7271153 0 0 0 0 1 0.8458654 -0.50769633 -0.1635728 12.61957 0.4848186 0.6039224 0.6326362 0 -0.22240181 -0.6144283 0.7569778 0 0 0 0 1 0.8331442 -0.5331018 -0.14721861 12.61957 0.5026239 0.61879635 0.6037055 0 -0.23073813 -0.57696927 0.78349626 0 0 0 0 1 0.82866037 -0.5415635 -0.14153065 12.61957 0.5098617 0.62592983 0.59012955 0 -0.23100437 -0.561178 0.79480577 0 0 0 0 1 0.8382443 -0.5228776 -0.15474313 12.61957 0.4996626 0.6228798 0.60196185 0 -0.21836597 -0.5819105 0.78338784 0 0 0 0 1 0.8571571 -0.48221698 -0.18096557 12.61957 0.4775835 0.6125598 0.62982893 0 -0.19286197 -0.62628853 0.7553588 0 0 0 0 1 0.8793442 -0.4263529 -0.21207784 12.61957 0.45054594 0.6007523 0.6603825 0 -0.15414976 -0.6762543 0.72035956 0 0 0 0 1 0.8985285 -0.36887848 -0.23785537 12.61957 0.42417055 0.5905021 0.68657607 0 -0.112809055 -0.71779937 0.68705034 0 0 0 0 1 0.9103179 -0.32707292 -0.25366238 12.61957 0.40556788 0.5824208 0.70448613 0 -0.082680054 -0.74418366 0.6628384 0 0 0 0 1 0.91350526 -0.31295282 -0.25993973 12.61957 0.40046453 0.57916856 0.71006477 0 -0.07166781 -0.75274456 0.6544 0 0 0 0 1 0.9113161 -0.31758195 -0.26200134 12.61957 0.40520805 0.579243 0.7073076 0 -0.07286567 -0.7507458 0.65656024 0 0 0 0 1 0.9074492 -0.32755396 -0.26314336 12.61957 0.41299638 0.5802015 0.7019974 0 -0.07726584 -0.7457042 0.6617819 0 0 0 0 1 0.9074492 -0.32755396 -0.26314336 12.61957 0.41299638 0.5802015 0.7019974 0 -0.07726584 -0.7457042 0.6617819 0 0 0 0 1</float_array>
        <technique_common>
          <accessor source="#Motion_31_RArm_transform_pose_array_id" count="17" stride="16">
            <param name="TRANSFORM" type="float4x4" />
          </accessor>
        </technique_common>
      </source>
      <sampler id="Motion_31_RArm_transform_samp_id">
        <input semantic="INPUT" source="#Motion_31_RArm_transform_frame_id" />
        <input semantic="INTERPOLATION" source="#Motion_31_RArm_transform_interp_id" />
        <input semantic="OUTPUT" source="#Motion_31_RArm_transform_pose_id" />
      </sampler>
      <channel source="#Motion_31_RArm_transform_samp_id" target="RArm_bone_id/transform" />
    </animation>
    <animation id="Motion_31_RForeArm_transform_id" name="Motion_31_RForeArm_transform">
      <source id="Motion_31_RForeArm_transform_frame_id" name="Motion_31_RForeArm_transform_frame">
        <float_array id="Motion_31_RForeArm_transform_frame_array_id" count="17">0 0.033333335 0.06666667 0.1 0.13333334 0.16666667 0.2 0.23333333 0.26666668 0.3 0.33333334 0.36666667 0.4 0.43333334 0.46666667 0.5 0.53333336</float_array>
        <technique_common>
          <accessor source="#Motion_31_RForeArm_transform_frame_array_id" count="17" stride="1">
            <param name="TIME" type="float" />
          </accessor>
        </technique_common>
      </source>
      <source id="Motion_31_RForeArm_transform_interp_id" name="Motion_31_RForeArm_transform_interp">
        <Name_array id="Motion_31_RForeArm_transform_interp_array_id" count="17">LINEAR LINEAR LINEAR LINEAR LINEAR LINEAR LINEAR LINEAR LINEAR LINEAR LINEAR LINEAR LINEAR LINEAR LINEAR LINEAR LINEAR</Name_array>
        <technique_common>
          <accessor source="#Motion_31_RForeArm_transform_interp_array_id" count="17" stride="1">
            <param name="INTERPOLATION" type="Name" />
          </accessor>
        </technique_common>
      </source>
      <source id="Motion_31_RForeArm_transform_pose_id" name="Motion_31_RForeArm_transform_pose">
        <float_array id="Motion_31_RForeArm_transform_pose_array_id" count="272">0.28290468 1.7484555E-07 -0.95914805 22.6 -4.9464624E-08 1 1.6770278E-07 0 0.95914805 0 0.28290468 0 0 0 0 1 0.28307152 1.748489E-07 -0.9590988 22.6 -4.9480178E-08 1 1.6770167E-07 0 0.9590988 -1.5198509E-11 0.28307152 0 0 0 0 1 0.28560877 1.7489961E-07 -0.9583463 22.6 -4.9716483E-08 1 1.6768483E-07 0 0.9583463 -2.466436E-10 0.28560877 0 0 0 0 1 0.29147178 1.7501537E-07 -0.95657945 22.6 -5.0263367E-08 1 1.6764423E-07 0 0.95657945 -7.826628E-10 0.29147178 0 0 0 0 1 0.29828942 1.751475E-07 -0.95447546 22.6 -5.0900645E-08 1 1.6759404E-07 0 0.95447546 -1.4081039E-09 0.29828942 0 0 0 0 1 0.30382043 1.7525281E-07 -0.9527293 22.6 -5.1418773E-08 1 1.6755098E-07 0 0.9527293 -1.9172433E-09 0.30382043 0 0 0 0 1 0.3071422 1.753152E-07 -0.9516636 22.6 -5.1730417E-08 1 1.6752409E-07 0 0.9516636 -2.2237714E-09 0.3071422 0 0 0 0 1 0.30872744 1.7534474E-07 -0.95115054 22.6 -5.1879283E-08 1 1.67511E-07 0 0.95115054 -2.3702427E-09 0.30872744 0 0 0 0 1 0.3084408 1.7533941E-07 -0.9512436 22.6 -5.1852354E-08 1 1.6751339E-07 0 0.9512436 -2.3437536E-09 0.3084408 0 0 0 0 1 0.30614328 1.7529649E-07 -0.9519854 22.6 -5.1636654E-08 1 1.6753225E-07 0 0.9519854 -2.1315287E-09 0.30614328 0 0 0 0 1 0.30169153 1.7521248E-07 -0.95340556 22.6 -5.1219224E-08 1 1.675678E-07 0 0.95340556 -1.7210908E-09 0.30169153 0 0 0 0 1 0.29520297 1.75088E-07 -0.95543456 22.6 -5.061196E-08 1 1.6761715E-07 0 0.95543456 -1.1246684E-09 0.29520297 0 0 0 0 1 0.28834295 1.7495384E-07 -0.9575272 22.6 -4.9971398E-08 1 1.6766619E-07 0 0.9575272 -4.9639937E-10 0.28834295 0 0 0 0 1 0.28330177 1.7485353E-07 -0.95903087 22.6 -4.9501608E-08 1 1.6770016E-07 0 0.95903087 -3.6202152E-11 0.28330177 0 0 0 0 1 0.28152823 1.748179E-07 -0.959553 22.6 -4.9336514E-08 1 1.677117E-07 0 0.959553 1.254179E-10 0.28152823 0 0 0 0 1 0.28193253 1.7482603E-07 -0.9594342 22.6 -4.9374144E-08 1 1.677091E-07 0 0.9594342 8.859047E-11 0.28193253 0 0 0 0 1 0.28193253 1.7482603E-07 -0.9594342 22.6 -4.9374144E-08 1 1.677091E-07 0 0.9594342 8.859047E-11 0.28193253 0 0 0 0 1</float_array>
        <technique_common>
          <accessor source="#Motion_31_RForeArm_transform_pose_array_id" count="17" stride="16">
            <param name="TRANSFORM" type="float4x4" />
          </accessor>
        </technique_common>
      </source>
      <sampler id="Motion_31_RForeArm_transform_samp_id">
        <input semantic="INPUT" source="#Motion_31_RForeArm_transform_frame_id" />
        <input semantic="INTERPOLATION" source="#Motion_31_RForeArm_transform_interp_id" />
        <input semantic="OUTPUT" source="#Motion_31_RForeArm_transform_pose_id" />
      </sampler>
      <channel source="#Motion_31_RForeArm_transform_samp_id" target="RForeArm_bone_id/transform" />
    </animation>
    <animation id="Motion_31_RHand_transform_id" name="Motion_31_RHand_transform">
      <source id="Motion_31_RHand_transform_frame_id" name="Motion_31_RHand_transform_frame">
        <float_array id="Motion_31_RHand_transform_frame_array_id" count="17">0 0.033333335 0.06666667 0.1 0.13333334 0.16666667 0.2 0.23333333 0.26666668 0.3 0.33333334 0.36666667 0.4 0.43333334 0.46666667 0.5 0.53333336</float_array>
        <technique_common>
          <accessor source="#Motion_31_RHand_transform_frame_array_id" count="17" stride="1">
            <param name="TIME" type="float" />
          </accessor>
        </technique_common>
      </source>
      <source id="Motion_31_RHand_transform_interp_id" name="Motion_31_RHand_transform_interp">
        <Name_array id="Motion_31_RHand_transform_interp_array_id" count="17">LINEAR LINEAR LINEAR LINEAR LINEAR LINEAR LINEAR LINEAR LINEAR LINEAR LINEAR LINEAR LINEAR LINEAR LINEAR LINEAR LINEAR</Name_array>
        <technique_common>
          <accessor source="#Motion_31_RHand_transform_interp_array_id" count="17" stride="1">
            <param name="INTERPOLATION" type="Name" />
          </accessor>
        </technique_common>
      </source>
      <source id="Motion_31_RHand_transform_pose_id" name="Motion_31_RHand_transform_pose">
        <float_array id="Motion_31_RHand_transform_pose_array_id" count="272">0.81502557 0.32215947 -0.48160827 22.600002 -0.49617147 0.8173077 -0.29295394 0 0.29924423 0.47772524 0.82597303 0 0 0 0 1 0.80298895 0.33086327 -0.4957199 22.600002 -0.51044416 0.81115234 -0.28544447 0 0.3076613 0.48224613 0.82023364 0 0 0 0 1 0.7759368 0.34706777 -0.5267505 22.600002 -0.5393359 0.79809713 -0.26862204 0 0.32716805 0.49252915 0.806459 0 0 0 0 1 0.7545024 0.3484414 -0.5561606 22.600002 -0.55070114 0.79710233 -0.24770167 0 0.35700744 0.4931698 0.7933027 0 0 0 0 1 0.7511132 0.32993096 -0.57181686 22.600002 -0.5301106 0.8176542 -0.22455375 0 0.39346123 0.47179145 0.7890507 0 0 0 0 1 0.75640714 0.30216986 -0.58012205 22.600002 -0.4930076 0.8462416 -0.20203644 0 0.4298741 0.43882638 0.7890752 0 0 0 0 1 0.76221865 0.27648374 -0.5853029 22.600002 -0.4562603 0.8708694 -0.18279237 0 0.45918328 0.4063782 0.78994143 0 0 0 0 1 0.7626382 0.26462314 -0.5902182 22.600002 -0.43985328 0.8811972 -0.17326427 0 0.4742489 0.39174736 0.7884301 0 0 0 0 1 0.7541108 0.27831456 -0.59485954 22.600002 -0.4624562 0.8681626 -0.18007775 0 0.46631652 0.41089505 0.7833991 0 0 0 0 1 0.7456453 0.30313274 -0.59340006 22.600002 -0.5005282 0.84266055 -0.19848083 0 0.43986878 0.44500977 0.7800524 0 0 0 0 1 0.74578846 0.32508403 -0.58148086 22.600002 -0.53084433 0.8173606 -0.22388826 0 0.40249702 0.47564906 0.7821471 0 0 0 0 1 0.7526636 0.34179696 -0.56273645 22.600002 -0.5497887 0.7965274 -0.2515482 0 0.36225656 0.49871734 0.78743327 0 0 0 0 1 0.7645161 0.35001096 -0.54130155 22.600002 -0.5540836 0.7859478 -0.27436736 0 0.32940316 0.50968456 0.7948051 0 0 0 0 1 0.78051984 0.34726462 -0.5198038 22.600002 -0.5426191 0.7892413 -0.2875111 0 0.31040823 0.5064636 0.804451 0 0 0 0 1 0.79721904 0.33764207 -0.50043947 22.600002 -0.5229097 0.80046713 -0.2929469 0 0.30167413 0.4952275 0.81470394 0 0 0 0 1 0.809629 0.32771152 -0.48693532 22.600002 -0.50522465 0.81137204 -0.29397863 0 0.2987455 0.48402536 0.8224783 0 0 0 0 1 0.809629 0.32771152 -0.48693532 22.600002 -0.50522465 0.81137204 -0.29397863 0 0.2987455 0.48402536 0.8224783 0 0 0 0 1</float_array>
        <technique_common>
          <accessor source="#Motion_31_RHand_transform_pose_array_id" count="17" stride="16">
            <param name="TRANSFORM" type="float4x4" />
          </accessor>
        </technique_common>
      </source>
      <sampler id="Motion_31_RHand_transform_samp_id">
        <input semantic="INPUT" source="#Motion_31_RHand_transform_frame_id" />
        <input semantic="INTERPOLATION" source="#Motion_31_RHand_transform_interp_id" />
        <input semantic="OUTPUT" source="#Motion_31_RHand_transform_pose_id" />
      </sampler>
      <channel source="#Motion_31_RHand_transform_samp_id" target="RHand_bone_id/transform" />
    </animation>
    <animation id="Motion_31_LShoulder_transform_id" name="Motion_31_LShoulder_transform">
      <source id="Motion_31_LShoulder_transform_frame_id" name="Motion_31_LShoulder_transform_frame">
        <float_array id="Motion_31_LShoulder_transform_frame_array_id" count="17">0 0.033333335 0.06666667 0.1 0.13333334 0.16666667 0.2 0.23333333 0.26666668 0.3 0.33333334 0.36666667 0.4 0.43333334 0.46666667 0.5 0.53333336</float_array>
        <technique_common>
          <accessor source="#Motion_31_LShoulder_transform_frame_array_id" count="17" stride="1">
            <param name="TIME" type="float" />
          </accessor>
        </technique_common>
      </source>
      <source id="Motion_31_LShoulder_transform_interp_id" name="Motion_31_LShoulder_transform_interp">
        <Name_array id="Motion_31_LShoulder_transform_interp_array_id" count="17">LINEAR LINEAR LINEAR LINEAR LINEAR LINEAR LINEAR LINEAR LINEAR LINEAR LINEAR LINEAR LINEAR LINEAR LINEAR LINEAR LINEAR</Name_array>
        <technique_common>
          <accessor source="#Motion_31_LShoulder_transform_interp_array_id" count="17" stride="1">
            <param name="INTERPOLATION" type="Name" />
          </accessor>
        </technique_common>
      </source>
      <source id="Motion_31_LShoulder_transform_pose_id" name="Motion_31_LShoulder_transform_pose">
        <float_array id="Motion_31_LShoulder_transform_pose_array_id" count="272">-0.38144362 0.8645177 -0.32727626 14.18017 -0.8636762 -0.45950162 -0.20717525 -4.5 -0.3294907 0.20363507 0.92193747 -0.240233 0 0 0 1 -0.38375998 0.86343634 -0.32742307 14.18017 -0.8635838 -0.46114206 -0.20388909 -4.5 -0.32703385 0.20451282 0.9226177 -0.240233 0 0 0 1 -0.38836753 0.8613318 -0.32753378 14.18017 -0.8622289 -0.46507668 -0.20066205 -4.5 -0.32516485 0.20447844 0.92328566 -0.240233 0 0 0 1 -0.39348722 0.8590005 -0.3275446 14.18017 -0.8603061 -0.46966505 -0.1982114 -4.5 -0.32410005 0.20379496 0.92381096 -0.240233 0 0 0 1 -0.39693058 0.8573674 -0.32766986 14.18017 -0.8587382 -0.47293997 -0.19722278 -4.5 -0.3240605 0.20309885 0.92397815 -0.240233 0 0 0 1 -0.39766932 0.8572924 -0.32696846 14.18017 -0.8563396 -0.47474003 -0.20323382 -4.5 -0.32945594 0.1991762 0.9229234 -0.240233 0 0 0 1 -0.39672565 0.8579668 -0.32634637 14.18017 -0.85184157 -0.47657132 -0.21736099 -4.5 -0.34201583 0.19176273 0.9199197 -0.240233 0 0 0 1 -0.39549124 0.8587399 -0.3258106 14.18017 -0.8472776 -0.47804546 -0.23150226 -4.5 -0.3545525 0.18449491 0.91665375 -0.240233 0 0 0 1 -0.39516425 0.8589459 -0.3256641 14.18017 -0.84512967 -0.47887623 -0.23755682 -4.5 -0.36000127 0.18135443 0.91515553 -0.240233 0 0 0 1 -0.39584172 0.85855824 -0.32586327 14.18017 -0.84474593 -0.47960067 -0.23745993 -4.5 -0.36015746 0.18127513 0.91510975 -0.240233 0 0 0 1 -0.39688337 0.85792065 -0.3262758 14.18017 -0.8451705 -0.4802295 -0.23466252 -4.5 -0.35800907 0.18262504 0.9156842 -0.240233 0 0 0 1 -0.39786983 0.85726243 -0.3268033 14.18017 -0.84602004 -0.4806229 -0.23076282 -4.5 -0.35489348 0.18466856 0.91648686 -0.240233 0 0 0 1 -0.3982482 0.8568828 -0.32733792 14.18017 -0.8476789 -0.48015165 -0.22559875 -4.5 -0.35048354 0.18763316 0.9175811 -0.240233 0 0 0 1 -0.39607263 0.8577609 -0.3276771 14.18017 -0.8508569 -0.47701418 -0.22022612 -4.5 -0.34520808 0.19158076 0.9187645 -0.240233 0 0 0 1 -0.39006138 0.86050946 -0.32768196 14.18017 -0.85591525 -0.4700557 -0.21553807 -4.5 -0.33950138 0.1963949 0.91987383 -0.240233 0 0 0 1 -0.3840096 0.86329466 -0.32750463 14.18017 -0.8607889 -0.46304286 -0.21126807 -4.5 -0.33403522 0.2007834 0.920927 -0.240233 0 0 0 1 -0.3840096 0.86329466 -0.32750463 14.18017 -0.8607889 -0.46304286 -0.21126807 -4.5 -0.33403522 0.2007834 0.920927 -0.240233 0 0 0 1</float_array>
        <technique_common>
          <accessor source="#Motion_31_LShoulder_transform_pose_array_id" count="17" stride="16">
            <param name="TRANSFORM" type="float4x4" />
          </accessor>
        </technique_common>
      </source>
      <sampler id="Motion_31_LShoulder_transform_samp_id">
        <input semantic="INPUT" source="#Motion_31_LShoulder_transform_frame_id" />
        <input semantic="INTERPOLATION" source="#Motion_31_LShoulder_transform_interp_id" />
        <input semantic="OUTPUT" source="#Motion_31_LShoulder_transform_pose_id" />
      </sampler>
      <channel source="#Motion_31_LShoulder_transform_samp_id" target="LShoulder_bone_id/transform" />
    </animation>
    <animation id="Motion_31_LArm_transform_id" name="Motion_31_LArm_transform">
      <source id="Motion_31_LArm_transform_frame_id" name="Motion_31_LArm_transform_frame">
        <float_array id="Motion_31_LArm_transform_frame_array_id" count="17">0 0.033333335 0.06666667 0.1 0.13333334 0.16666667 0.2 0.23333333 0.26666668 0.3 0.33333334 0.36666667 0.4 0.43333334 0.46666667 0.5 0.53333336</float_array>
        <technique_common>
          <accessor source="#Motion_31_LArm_transform_frame_array_id" count="17" stride="1">
            <param name="TIME" type="float" />
          </accessor>
        </technique_common>
      </source>
      <source id="Motion_31_LArm_transform_interp_id" name="Motion_31_LArm_transform_interp">
        <Name_array id="Motion_31_LArm_transform_interp_array_id" count="17">LINEAR LINEAR LINEAR LINEAR LINEAR LINEAR LINEAR LINEAR LINEAR LINEAR LINEAR LINEAR LINEAR LINEAR LINEAR LINEAR LINEAR</Name_array>
        <technique_common>
          <accessor source="#Motion_31_LArm_transform_interp_array_id" count="17" stride="1">
            <param name="INTERPOLATION" type="Name" />
          </accessor>
        </technique_common>
      </source>
      <source id="Motion_31_LArm_transform_pose_id" name="Motion_31_LArm_transform_pose">
        <float_array id="Motion_31_LArm_transform_pose_array_id" count="272">0.88013834 0.44735107 -0.1588508 12.61957 -0.45073512 0.68248767 -0.5753681 0 -0.1489778 0.5780031 0.80232036 0 0 0 0 1 0.8884404 0.42185578 -0.18086293 12.61957 -0.44400313 0.69001514 -0.571612 0 -0.11633968 0.5881469 0.8003426 0 0 0 0 1 0.904315 0.35737094 -0.23345324 12.61957 -0.42517355 0.70543957 -0.56708246 0 -0.037971646 0.6120793 0.7898842 0 0 0 0 1 0.9158526 0.27918628 -0.28856376 12.61957 -0.39885476 0.71519125 -0.573948 0 0.046139836 0.64074683 0.7663645 0 0 0 0 1 0.9193416 0.21163873 -0.33169264 12.61957 -0.37690192 0.7156805 -0.588002 0 0.11294192 0.66559035 0.7377219 0 0 0 0 1 0.9134259 0.1685375 -0.3704702 12.61957 -0.37162334 0.7165611 -0.5902849 0 0.16597936 0.67685694 0.71715796 0 0 0 0 1 0.9020913 0.1536763 -0.40325525 12.61957 -0.38100973 0.72240776 -0.5770256 0 0.20263955 0.674174 0.71023 0 0 0 0 1 0.8904588 0.16394265 -0.42450663 12.61957 -0.39849538 0.7313683 -0.5534454 0 0.21973738 0.66198426 0.7165837 0 0 0 0 1 0.882643 0.19308278 -0.42855626 12.61957 -0.41772833 0.74023527 -0.52683467 0 0.21550973 0.64402705 0.7340196 0 0 0 0 1 0.8814412 0.23880416 -0.40747273 12.61957 -0.4350587 0.74631023 -0.5037311 0 0.18380798 0.6212838 0.7617224 0 0 0 0 1 0.88411033 0.29114673 -0.36548948 12.61957 -0.448782 0.7469424 -0.4905831 0 0.13016792 0.59775466 0.7910409 0 0 0 0 1 0.8878075 0.33684298 -0.31358352 12.61957 -0.4553562 0.741699 -0.4924767 0 0.06669724 0.58001673 0.8118695 0 0 0 0 1 0.88939834 0.37303102 -0.2642317 12.61957 -0.4571041 0.7322223 -0.5048825 0 0.0051395297 0.5698231 0.82175136 0 0 0 0 1 0.8883188 0.40252438 -0.22105178 12.61957 -0.4562646 0.7190201 -0.52424484 0 -0.05208066 0.5665546 0.8223767 0 0 0 0 1 0.8852412 0.42538375 -0.18813999 12.61957 -0.45410985 0.7028719 -0.5474991 0 -0.10065894 0.570105 0.8153821 0 0 0 0 1 0.8819266 0.44069034 -0.16732457 12.61957 -0.45177573 0.68887484 -0.5668776 0 -0.1345518 0.57553756 0.8066302 0 0 0 0 1 0.8819266 0.44069034 -0.16732457 12.61957 -0.45177573 0.68887484 -0.5668776 0 -0.1345518 0.57553756 0.8066302 0 0 0 0 1</float_array>
        <technique_common>
          <accessor source="#Motion_31_LArm_transform_pose_array_id" count="17" stride="16">
            <param name="TRANSFORM" type="float4x4" />
          </accessor>
        </technique_common>
      </source>
      <sampler id="Motion_31_LArm_transform_samp_id">
        <input semantic="INPUT" source="#Motion_31_LArm_transform_frame_id" />
        <input semantic="INTERPOLATION" source="#Motion_31_LArm_transform_interp_id" />
        <input semantic="OUTPUT" source="#Motion_31_LArm_transform_pose_id" />
      </sampler>
      <channel source="#Motion_31_LArm_transform_samp_id" target="LArm_bone_id/transform" />
    </animation>
    <animation id="Motion_31_LForeArm_transform_id" name="Motion_31_LForeArm_transform">
      <source id="Motion_31_LForeArm_transform_frame_id" name="Motion_31_LForeArm_transform_frame">
        <float_array id="Motion_31_LForeArm_transform_frame_array_id" count="17">0 0.033333335 0.06666667 0.1 0.13333334 0.16666667 0.2 0.23333333 0.26666668 0.3 0.33333334 0.36666667 0.4 0.43333334 0.46666667 0.5 0.53333336</float_array>
        <technique_common>
          <accessor source="#Motion_31_LForeArm_transform_frame_array_id" count="17" stride="1">
            <param name="TIME" type="float" />
          </accessor>
        </technique_common>
      </source>
      <source id="Motion_31_LForeArm_transform_interp_id" name="Motion_31_LForeArm_transform_interp">
        <Name_array id="Motion_31_LForeArm_transform_interp_array_id" count="17">LINEAR LINEAR LINEAR LINEAR LINEAR LINEAR LINEAR LINEAR LINEAR LINEAR LINEAR LINEAR LINEAR LINEAR LINEAR LINEAR LINEAR</Name_array>
        <technique_common>
          <accessor source="#Motion_31_LForeArm_transform_interp_array_id" count="17" stride="1">
            <param name="INTERPOLATION" type="Name" />
          </accessor>
        </technique_common>
      </source>
      <source id="Motion_31_LForeArm_transform_pose_id" name="Motion_31_LForeArm_transform_pose">
        <float_array id="Motion_31_LForeArm_transform_pose_array_id" count="272">0.27434105 -0.0021475381 -0.9616301 22.6 0.0015975961 0.99999714 -0.0017774464 0 0.9616312 -0.0010486697 0.27434367 0 0 0 0 1 0.2786708 -0.0021509668 -0.96038425 22.6 0.0016023944 0.99999714 -0.0017747274 0 0.9603853 -0.00104435 0.2786734 0 0 0 0 1 0.28969312 -0.002159662 -0.95711714 22.6 0.0016146087 0.99999714 -0.0017677199 0 0.9571182 -0.0010332735 0.28969574 0 0 0 0 1 0.30355662 -0.0021705294 -0.9528109 22.6 0.0016299685 0.99999714 -0.0017587284 0 0.95281196 -0.0010191784 0.30355924 0 0 0 0 1 0.31737536 -0.0021812848 -0.9482975 22.6 0.001645277 0.99999714 -0.0017495651 0 0.9482986 -0.0010049432 0.31737804 0 0 0 0 1 0.33516294 -0.002195015 -0.9421577 22.6 0.0016649815 0.9999971 -0.001737468 0 0.94215876 -0.00098634 0.33516562 0 0 0 0 1 0.35372782 -0.002209208 -0.93534577 22.6 0.001685549 0.9999971 -0.0017244703 0 0.93534684 -0.00096657814 0.3537305 0 0 0 0 1 0.3681833 -0.0022201617 -0.9297506 22.6 0.0017015683 0.9999971 -0.0017140794 0 0.9297517 -0.00095093856 0.368186 0 0 0 0 1 0.37374932 -0.0022243564 -0.9275271 22.6 0.0017077375 0.9999971 -0.001710014 0 0.9275282 -0.0009448563 0.373752 0 0 0 0 1 0.3673861 -0.0022195596 -0.9300658 22.6 0.0017006844 0.9999971 -0.0017146585 0 0.9300669 -0.0009518068 0.36738878 0 0 0 0 1 0.3522843 -0.0022081092 -0.9358904 22.6 0.0016839495 0.9999971 -0.0017254947 0 0.93589145 -0.0009681276 0.352287 0 0 0 0 1 0.33304244 -0.0021933853 -0.9429093 22.6 0.0016626325 0.9999971 -0.0017389283 0 0.9429104 -0.0009885747 0.33304513 0 0 0 0 1 0.3143658 -0.0021789493 -0.94929945 22.6 0.0016419434 0.99999714 -0.0017515781 0 0.9493005 -0.0010080595 0.3143685 0 0 0 0 1 0.29880357 -0.0021668128 -0.95431215 22.6 0.001624703 0.99999714 -0.0017618339 0 0.9543132 -0.0010240318 0.2988062 0 0 0 0 1 0.28632867 -0.0021570134 -0.95812905 22.6 0.001610881 0.99999714 -0.0017698721 0 0.9581301 -0.0010366666 0.2863313 0 0 0 0 1 0.27788478 -0.0021503451 -0.960612 22.6 0.0016015235 0.99999714 -0.0017752225 0 0.9606131 -0.0010451354 0.2778874 0 0 0 0 1 0.27788478 -0.0021503451 -0.960612 22.6 0.0016015235 0.99999714 -0.0017752225 0 0.9606131 -0.0010451354 0.2778874 0 0 0 0 1</float_array>
        <technique_common>
          <accessor source="#Motion_31_LForeArm_transform_pose_array_id" count="17" stride="16">
            <param name="TRANSFORM" type="float4x4" />
          </accessor>
        </technique_common>
      </source>
      <sampler id="Motion_31_LForeArm_transform_samp_id">
        <input semantic="INPUT" source="#Motion_31_LForeArm_transform_frame_id" />
        <input semantic="INTERPOLATION" source="#Motion_31_LForeArm_transform_interp_id" />
        <input semantic="OUTPUT" source="#Motion_31_LForeArm_transform_pose_id" />
      </sampler>
      <channel source="#Motion_31_LForeArm_transform_samp_id" target="LForeArm_bone_id/transform" />
    </animation>
    <animation id="Motion_31_LHand_transform_id" name="Motion_31_LHand_transform">
      <source id="Motion_31_LHand_transform_frame_id" name="Motion_31_LHand_transform_frame">
        <float_array id="Motion_31_LHand_transform_frame_array_id" count="17">0 0.033333335 0.06666667 0.1 0.13333334 0.16666667 0.2 0.23333333 0.26666668 0.3 0.33333334 0.36666667 0.4 0.43333334 0.46666667 0.5 0.53333336</float_array>
        <technique_common>
          <accessor source="#Motion_31_LHand_transform_frame_array_id" count="17" stride="1">
            <param name="TIME" type="float" />
          </accessor>
        </technique_common>
      </source>
      <source id="Motion_31_LHand_transform_interp_id" name="Motion_31_LHand_transform_interp">
        <Name_array id="Motion_31_LHand_transform_interp_array_id" count="17">LINEAR LINEAR LINEAR LINEAR LINEAR LINEAR LINEAR LINEAR LINEAR LINEAR LINEAR LINEAR LINEAR LINEAR LINEAR LINEAR LINEAR</Name_array>
        <technique_common>
          <accessor source="#Motion_31_LHand_transform_interp_array_id" count="17" stride="1">
            <param name="INTERPOLATION" type="Name" />
          </accessor>
        </technique_common>
      </source>
      <source id="Motion_31_LHand_transform_pose_id" name="Motion_31_LHand_transform_pose">
        <float_array id="Motion_31_LHand_transform_pose_array_id" count="272">0.85580105 -0.07870894 -0.5112822 22.600002 0.2645061 0.9159666 0.30173132 0 0.44456846 -0.39345923 0.8047041 0 0 0 0 1 0.8580674 -0.07508984 -0.50801754 22.600002 0.26199389 0.91483676 0.30729935 0 0.44167805 -0.39678106 0.80466473 0 0 0 0 1 0.861682 -0.06815394 -0.50285107 22.600002 0.2597644 0.91050273 0.3217254 0 0.43592042 -0.4078478 0.8022678 0 0 0 0 1 0.8615616 -0.068674766 -0.5029865 22.600002 0.27091655 0.90012133 0.34115362 0 0.42932025 -0.43019223 0.79411507 0 0 0 0 1 0.8553995 -0.07685678 -0.51223505 22.600002 0.29348838 0.8867796 0.3570525 0 0.4267977 -0.45575756 0.7811074 0 0 0 0 1 0.8492483 -0.07443198 -0.52272093 22.600002 0.30180758 0.8807632 0.36492255 0 0.43323144 -0.467671 0.7704508 0 0 0 0 1 0.84655595 -0.057672195 -0.5291663 22.600002 0.286609 0.8870918 0.3618334 0 0.44855136 -0.45797604 0.7675022 0 0 0 0 1 0.8473652 -0.033287115 -0.52996624 22.600002 0.25524324 0.90070707 0.3515362 0 0.4656427 -0.4331498 0.7717241 0 0 0 0 1 0.8513117 -0.010084435 -0.5245634 22.600002 0.21834035 0.9159349 0.33673528 0 0.47707015 -0.40120003 0.781948 0 0 0 0 1 0.8567918 0.006889656 -0.5156165 22.600002 0.18530555 0.9290042 0.32033268 0 0.48121688 -0.37000498 0.7946865 0 0 0 0 1 0.8620302 0.013938904 -0.5066652 22.600002 0.1647301 0.93765056 0.30606434 0 0.47934115 -0.34729972 0.805987 0 0 0 0 1 0.8654197 0.007856786 -0.50098604 22.600002 0.16377498 0.94051915 0.29766008 0 0.47352558 -0.3396499 0.81265706 0 0 0 0 1 0.866229 -0.007499151 -0.49959093 22.600002 0.17832267 0.9386785 0.2950994 0 0.46674228 -0.34471205 0.8144478 0 0 0 0 1 0.86487675 -0.02779378 -0.5012142 22.600002 0.20173946 0.9335307 0.2963472 0 0.4596622 -0.35741848 0.8129961 0 0 0 0 1 0.86170137 -0.050594084 -0.5048871 22.600002 0.22941297 0.926358 0.2987148 0 0.452593 -0.3732306 0.80985093 0 0 0 0 1 0.85800827 -0.069741346 -0.5088792 22.600002 0.25307447 0.91953474 0.3006812 0 0.44696215 -0.3867713 0.80661815 0 0 0 0 1 0.85800827 -0.069741346 -0.5088792 22.600002 0.25307447 0.91953474 0.3006812 0 0.44696215 -0.3867713 0.80661815 0 0 0 0 1</float_array>
        <technique_common>
          <accessor source="#Motion_31_LHand_transform_pose_array_id" count="17" stride="16">
            <param name="TRANSFORM" type="float4x4" />
          </accessor>
        </technique_common>
      </source>
      <sampler id="Motion_31_LHand_transform_samp_id">
        <input semantic="INPUT" source="#Motion_31_LHand_transform_frame_id" />
        <input semantic="INTERPOLATION" source="#Motion_31_LHand_transform_interp_id" />
        <input semantic="OUTPUT" source="#Motion_31_LHand_transform_pose_id" />
      </sampler>
      <channel source="#Motion_31_LHand_transform_samp_id" target="LHand_bone_id/transform" />
    </animation>
    <animation id="Motion_31_Neck_transform_id" name="Motion_31_Neck_transform">
      <source id="Motion_31_Neck_transform_frame_id" name="Motion_31_Neck_transform_frame">
        <float_array id="Motion_31_Neck_transform_frame_array_id" count="17">0 0.033333335 0.06666667 0.1 0.13333334 0.16666667 0.2 0.23333333 0.26666668 0.3 0.33333334 0.36666667 0.4 0.43333334 0.46666667 0.5 0.53333336</float_array>
        <technique_common>
          <accessor source="#Motion_31_Neck_transform_frame_array_id" count="17" stride="1">
            <param name="TIME" type="float" />
          </accessor>
        </technique_common>
      </source>
      <source id="Motion_31_Neck_transform_interp_id" name="Motion_31_Neck_transform_interp">
        <Name_array id="Motion_31_Neck_transform_interp_array_id" count="17">LINEAR LINEAR LINEAR LINEAR LINEAR LINEAR LINEAR LINEAR LINEAR LINEAR LINEAR LINEAR LINEAR LINEAR LINEAR LINEAR LINEAR</Name_array>
        <technique_common>
          <accessor source="#Motion_31_Neck_transform_interp_array_id" count="17" stride="1">
            <param name="INTERPOLATION" type="Name" />
          </accessor>
        </technique_common>
      </source>
      <source id="Motion_31_Neck_transform_pose_id" name="Motion_31_Neck_transform_pose">
        <float_array id="Motion_31_Neck_transform_pose_array_id" count="272">0.9344342 8.088595E-07 -0.3561359 16.800177 -8.088595E-07 1 1.4891378E-07 0 0.3561359 1.4891378E-07 0.9344342 0 0 0 0 1 0.9379543 0.0018638272 -0.3467539 16.800177 -0.007715203 0.99985015 -0.015495022 0 0.34667307 0.017208898 0.9378281 0 0 0 0 1 0.9437136 0.006345596 -0.3307028 16.800177 -0.025151297 0.9982979 -0.05261771 0 0.32980606 0.057973657 0.94226694 0 0 0 0 1 0.94971555 0.013017921 -0.31284323 16.800177 -0.046420656 0.993948 -0.09956196 0 0.3096538 0.10907793 0.94457215 0 0 0 0 1 0.95384645 0.020430518 -0.299599 16.800177 -0.06471538 0.9882251 -0.13864727 0 0.29323858 0.15163688 0.9439372 0 0 0 0 1 0.9550997 0.027248519 -0.29502887 16.800177 -0.076682076 0.98456764 -0.1573101 0 0.28618938 0.17287025 0.94244975 0 0 0 0 1 0.9530488 0.033064708 -0.30100617 16.800177 -0.08427709 0.9837103 -0.15878108 0 0.29085281 0.17669404 0.9403105 0 0 0 0 1 0.94878054 0.036453128 -0.31382576 16.800177 -0.09005503 0.9833173 -0.15804143 0 0.30282918 0.17820822 0.9362352 0 0 0 0 1 0.94394445 0.03784375 -0.3279279 16.800177 -0.09379308 0.98321134 -0.15651931 0 0.3164991 0.1785029 0.9316464 0 0 0 0 1 0.9405706 0.029871304 -0.3382819 16.800177 -0.079992354 0.98758304 -0.13520692 0 0.3300427 0.15423162 0.9312811 0 0 0 0 1 0.9382839 0.01194814 -0.34565955 16.800177 -0.045613244 0.9949486 -0.089424364 0 0.34284502 0.0996721 0.93408924 0 0 0 0 1 0.9358138 -0.005983031 -0.35244393 16.800177 -0.009440868 0.99907184 -0.0420276 0 0.35236824 0.042657383 0.9348887 0 0 0 0 1 0.93351537 -0.014007052 -0.35826364 16.800177 0.008914048 0.9998344 -0.015863549 0 0.35842654 0.011615287 0.9334857 0 0 0 0 1 0.93228847 -0.011622051 -0.36152893 16.800177 0.009038234 0.9999201 -0.0088371355 0 0.36160278 0.0049711764 0.932319 0 0 0 0 1 0.93218833 -0.006846971 -0.3619089 16.800177 0.0057994984 0.99997526 -0.003980497 0 0.3619272 0.0016116824 0.93220496 0 0 0 0 1 0.9331046 -0.0021817957 -0.35959855 16.800177 0.0018680089 0.9999975 -0.0012200901 0 0.35960034 0.00046673825 0.9331063 0 0 0 0 1 0.9331046 -0.0021817957 -0.35959855 16.800177 0.0018680089 0.9999975 -0.0012200901 0 0.35960034 0.00046673825 0.9331063 0 0 0 0 1</float_array>
        <technique_common>
          <accessor source="#Motion_31_Neck_transform_pose_array_id" count="17" stride="16">
            <param name="TRANSFORM" type="float4x4" />
          </accessor>
        </technique_common>
      </source>
      <sampler id="Motion_31_Neck_transform_samp_id">
        <input semantic="INPUT" source="#Motion_31_Neck_transform_frame_id" />
        <input semantic="INTERPOLATION" source="#Motion_31_Neck_transform_interp_id" />
        <input semantic="OUTPUT" source="#Motion_31_Neck_transform_pose_id" />
      </sampler>
      <channel source="#Motion_31_Neck_transform_samp_id" target="Neck_bone_id/transform" />
    </animation>
    <animation id="Motion_31_Head_transform_id" name="Motion_31_Head_transform">
      <source id="Motion_31_Head_transform_frame_id" name="Motion_31_Head_transform_frame">
        <float_array id="Motion_31_Head_transform_frame_array_id" count="17">0 0.033333335 0.06666667 0.1 0.13333334 0.16666667 0.2 0.23333333 0.26666668 0.3 0.33333334 0.36666667 0.4 0.43333334 0.46666667 0.5 0.53333336</float_array>
        <technique_common>
          <accessor source="#Motion_31_Head_transform_frame_array_id" count="17" stride="1">
            <param name="TIME" type="float" />
          </accessor>
        </technique_common>
      </source>
      <source id="Motion_31_Head_transform_interp_id" name="Motion_31_Head_transform_interp">
        <Name_array id="Motion_31_Head_transform_interp_array_id" count="17">LINEAR LINEAR LINEAR LINEAR LINEAR LINEAR LINEAR LINEAR LINEAR LINEAR LINEAR LINEAR LINEAR LINEAR LINEAR LINEAR LINEAR</Name_array>
        <technique_common>
          <accessor source="#Motion_31_Head_transform_interp_array_id" count="17" stride="1">
            <param name="INTERPOLATION" type="Name" />
          </accessor>
        </technique_common>
      </source>
      <source id="Motion_31_Head_transform_pose_id" name="Motion_31_Head_transform_pose">
        <float_array id="Motion_31_Head_transform_pose_array_id" count="272">0.9672482 0.017379511 0.25323677 5.120195 -0.015261993 0.99983025 -0.010324039 0 -0.2533732 0.0061210096 0.96734923 0 0 0 0 1 0.96403086 -0.0063826926 0.26571375 5.120195 -0.0031255148 0.9993703 0.035345424 0 -0.26577204 -0.034904573 0.9634038 0 0 0 0 1 0.9574867 -0.041767173 0.28543785 5.120195 0.008703003 0.99319506 0.116137154 0 -0.2883462 -0.108715616 0.95133454 0 0 0 0 1 0.9538737 -0.06235926 0.29366025 5.120195 0.015263541 0.9869972 0.16001119 0 -0.29982004 -0.14814816 0.94242245 0 0 0 0 1 0.9546766 -0.0487383 0.2936274 5.120195 0.02063515 0.99496657 0.09805993 0 -0.29692873 -0.087556474 0.9508771 0 0 0 0 1 0.95557225 -0.017536128 0.2942349 5.120195 0.023881568 0.99955297 -0.017986566 0 -0.293788 0.024214253 0.95556384 0 0 0 0 1 0.9545126 0.0034348574 0.2981509 5.120195 0.021579389 0.9965157 -0.080565535 0 -0.2973888 0.08333474 0.9511126 0 0 0 0 1 0.9496645 0.0009186887 0.31326747 5.120195 0.014727192 0.99875915 -0.047574166 0 -0.31292248 0.049793046 0.94847256 0 0 0 0 1 0.9446591 -0.008258735 0.32794964 5.120195 0.00402595 0.9998996 0.0135836555 0 -0.32802892 -0.0115116155 0.94459754 0 0 0 0 1 0.94359714 -0.008159092 0.3309953 5.120195 -0.007501494 0.9989129 0.046008546 0 -0.33101085 -0.04589649 0.9425101 0 0 0 0 1 0.94650626 0.009277614 0.322552 5.120195 -0.019533793 0.9994008 0.028574623 0 -0.32209364 -0.033346724 0.9461203 0 0 0 0 1 0.95080286 0.030423334 0.3082991 5.120195 -0.030390559 0.999526 -0.00490914 0 -0.3083023 -0.004701758 0.95127684 0 0 0 0 1 0.95468974 0.04043789 0.29484287 5.120195 -0.03550193 0.9991257 -0.022076856 0 -0.29547784 0.010609057 0.9552907 0 0 0 0 1 0.95861787 0.039862342 0.2818914 5.120195 -0.035428047 0.9991555 -0.020811994 0 -0.28248298 0.009963888 0.9592206 0 0 0 0 1 0.9627262 0.034098487 0.26832002 5.120195 -0.030413385 0.9993775 -0.017879764 0 -0.26876265 0.009052796 0.9631639 0 0 0 0 1 0.9659116 0.026062291 0.25755686 5.120195 -0.023197103 0.9996307 -0.014157318 0 -0.25783068 0.007700144 0.9661594 0 0 0 0 1 0.9659116 0.026062291 0.25755686 5.120195 -0.023197103 0.9996307 -0.014157318 0 -0.25783068 0.007700144 0.9661594 0 0 0 0 1</float_array>
        <technique_common>
          <accessor source="#Motion_31_Head_transform_pose_array_id" count="17" stride="16">
            <param name="TRANSFORM" type="float4x4" />
          </accessor>
        </technique_common>
      </source>
      <sampler id="Motion_31_Head_transform_samp_id">
        <input semantic="INPUT" source="#Motion_31_Head_transform_frame_id" />
        <input semantic="INTERPOLATION" source="#Motion_31_Head_transform_interp_id" />
        <input semantic="OUTPUT" source="#Motion_31_Head_transform_pose_id" />
      </sampler>
      <channel source="#Motion_31_Head_transform_samp_id" target="Head_bone_id/transform" />
    </animation>
    <animation id="Motion_31_Loc_Eye_transform_id" name="Motion_31_Loc_Eye_transform">
      <source id="Motion_31_Loc_Eye_transform_frame_id" name="Motion_31_Loc_Eye_transform_frame">
        <float_array id="Motion_31_Loc_Eye_transform_frame_array_id" count="17">0 0.033333335 0.06666667 0.1 0.13333334 0.16666667 0.2 0.23333333 0.26666668 0.3 0.33333334 0.36666667 0.4 0.43333334 0.46666667 0.5 0.53333336</float_array>
        <technique_common>
          <accessor source="#Motion_31_Loc_Eye_transform_frame_array_id" count="17" stride="1">
            <param name="TIME" type="float" />
          </accessor>
        </technique_common>
      </source>
      <source id="Motion_31_Loc_Eye_transform_interp_id" name="Motion_31_Loc_Eye_transform_interp">
        <Name_array id="Motion_31_Loc_Eye_transform_interp_array_id" count="17">LINEAR LINEAR LINEAR LINEAR LINEAR LINEAR LINEAR LINEAR LINEAR LINEAR LINEAR LINEAR LINEAR LINEAR LINEAR LINEAR LINEAR</Name_array>
        <technique_common>
          <accessor source="#Motion_31_Loc_Eye_transform_interp_array_id" count="17" stride="1">
            <param name="INTERPOLATION" type="Name" />
          </accessor>
        </technique_common>
      </source>
      <source id="Motion_31_Loc_Eye_transform_pose_id" name="Motion_31_Loc_Eye_transform_pose">
        <float_array id="Motion_31_Loc_Eye_transform_pose_array_id" count="272">7.1525574E-06 50 0 12.239291 -20 1.7881393E-05 0 0 0 0 400 14.07147 0 0 0 1 7.1535587E-06 50.0028 0 12.239291 -20.0028 1.7882394E-05 0 0 0 0 400.0028 14.07147 0 0 0 1 7.155054E-06 50.00698 0 12.239291 -20.00698 1.7883889E-05 0 0 0 0 400.007 14.07147 0 0 0 1 7.156971E-06 50.012344 0 12.239291 -20.012342 1.7885808E-05 0 0 0 0 400.01233 14.07147 0 0 0 1 7.159242E-06 50.018692 0 12.239291 -20.018692 1.7888078E-05 0 0 0 0 400.01868 14.07147 0 0 0 1 7.1617947E-06 50.02583 0 12.239291 -20.02583 1.789063E-05 0 0 0 0 400.02582 14.07147 0 0 0 1 7.1645586E-06 50.033554 0 12.239291 -20.033558 1.7893393E-05 0 0 0 0 400.03357 14.07147 0 0 0 1 7.167464E-06 50.04168 0 12.239291 -20.041681 1.7896298E-05 0 0 0 0 400.0417 14.07147 0 0 0 1 7.1704385E-06 50.05 0 12.239291 -20.05 1.7899274E-05 0 0 0 0 400.05 14.07147 0 0 0 1 7.173414E-06 50.05832 0 12.239291 -20.05832 1.790225E-05 0 0 0 0 400.05832 14.07147 0 0 0 1 7.176319E-06 50.066444 0 12.239291 -20.066442 1.7905157E-05 0 0 0 0 400.06644 14.07147 0 0 0 1 7.179083E-06 50.07417 0 12.239291 -20.074171 1.7907918E-05 0 0 0 0 400.0742 14.07147 0 0 0 1 7.1816357E-06 50.081306 0 12.239291 -20.081308 1.7910472E-05 0 0 0 0 400.0813 14.07147 0 0 0 1 7.1839063E-06 50.087654 0 12.239291 -20.087658 1.7912742E-05 0 0 0 0 400.08768 14.07147 0 0 0 1 7.185824E-06 50.093018 0 12.239291 -20.09302 1.791466E-05 0 0 0 0 400.09302 14.07147 0 0 0 1 7.187319E-06 50.0972 0 12.239291 -20.0972 1.7916154E-05 0 0 0 0 400.0972 14.07147 0 0 0 1 7.187319E-06 50.0972 0 12.239291 -20.0972 1.7916154E-05 0 0 0 0 400.0972 14.07147 0 0 0 1</float_array>
        <technique_common>
          <accessor source="#Motion_31_Loc_Eye_transform_pose_array_id" count="17" stride="16">
            <param name="TRANSFORM" type="float4x4" />
          </accessor>
        </technique_common>
      </source>
      <sampler id="Motion_31_Loc_Eye_transform_samp_id">
        <input semantic="INPUT" source="#Motion_31_Loc_Eye_transform_frame_id" />
        <input semantic="INTERPOLATION" source="#Motion_31_Loc_Eye_transform_interp_id" />
        <input semantic="OUTPUT" source="#Motion_31_Loc_Eye_transform_pose_id" />
      </sampler>
      <channel source="#Motion_31_Loc_Eye_transform_samp_id" target="Loc_Eye_bone_id/transform" />
    </animation>
  </library_animations>
  <library_visual_scenes>
    <visual_scene id="tr0039_00_fi_00_clip_id" name="tr0039_00_fi_00_clip">
      <node id="tr0039_00_fi_bone_id" name="tr0039_00_fi" sid="tr0039_00_fi" type="JOINT">
        <matrix sid="transform">1 0 0 0 0 1 0 0 0 0 1 0 0 0 0 1</matrix>
        <node id="Origin_bone_id" name="Origin" sid="Origin" type="JOINT">
          <matrix sid="transform">1 0 0 0 0 1 0 0 0 0 1 0 0 0 0 1</matrix>
          <node id="Waist_bone_id" name="Waist" sid="Waist" type="JOINT">
            <matrix sid="transform">3.1391647E-07 -1 0 0 1 3.1391647E-07 0 90.6 0 0 1 0 0 0 0 1</matrix>
            <node id="Spine2_bone_id" name="Spine2" sid="Spine2" type="JOINT">
              <matrix sid="transform">1 0 0 13.5 0 1 0 0 0 0 1 0 0 0 0 1</matrix>
              <node id="Spine3_bone_id" name="Spine3" sid="Spine3" type="JOINT">
                <matrix sid="transform">0.99582267 0 0.091308646 13.5 0 1 0 0 -0.091308646 0 0.99582267 0 0 0 0 1</matrix>
                <node id="Neck_bone_id" name="Neck" sid="Neck" type="JOINT">
                  <matrix sid="transform">0.9344343 0 -0.35613555 16.800177 0 1 0 0 0.35613555 0 0.9344343 0 0 0 0 1</matrix>
                  <node id="Head_bone_id" name="Head" sid="Head" type="JOINT">
                    <matrix sid="transform">0.9630491 0 0.2693259 5.120195 0 1 0 0 -0.2693259 0 0.9630491 0 0 0 0 1</matrix>
                    <node id="Loc_Head_bone_id" name="Loc_Head" sid="Loc_Head" type="JOINT">
                      <matrix sid="transform">3.1391647E-07 1 0 32.57357 -1 3.1391647E-07 0 0 0 0 1 0.155 0 0 0 1</matrix>
                    </node>
                    <node id="Loc_Eye_bone_id" name="Loc_Eye" sid="Loc_Eye" type="JOINT">
                      <matrix sid="transform">3.1391647E-07 1 0 12.239291 -1 3.1391647E-07 0 0 0 0 1 14.07147 0 0 0 1</matrix>
                    </node>
                    <node id="Loc_Mouth_bone_id" name="Loc_Mouth" sid="Loc_Mouth" type="JOINT">
                      <matrix sid="transform">3.1391647E-07 1 0 2.914014 -1 3.1391647E-07 0 0 0 0 1 13.655679 0 0 0 1</matrix>
                    </node>
                  </node>
                </node>
                <node id="LShoulder_bone_id" name="LShoulder" sid="LShoulder" type="JOINT">
                  <matrix sid="transform">-0.44190192 0.8924043 -0.09130862 14.18017 -0.89614785 -0.44375566 -2.0772681E-07 -4.5 -0.040518906 0.08182593 0.9958226 -0.240233 0 0 0 1</matrix>
                  <node id="LArm_bone_id" name="LArm" sid="LArm" type="JOINT">
                    <matrix sid="transform">0.8961479 -0.44375545 0 12.61957 0.44375545 0.8961479 0 0 0 0 1 0 0 0 0 1</matrix>
                    <node id="LForeArm_bone_id" name="LForeArm" sid="LForeArm" type="JOINT">
                      <matrix sid="transform">1 0 0 22.6 0 1 0 0 0 0 1 0 0 0 0 1</matrix>
                      <node id="LHand_bone_id" name="LHand" sid="LHand" type="JOINT">
                        <matrix sid="transform">1 0 0 22.600002 0 1 0 0 0 0 1 0 0 0 0 1</matrix>
                      </node>
                    </node>
                  </node>
                </node>
                <node id="RShoulder_bone_id" name="RShoulder" sid="RShoulder" type="JOINT">
                  <matrix sid="transform">-0.44190192 -0.8924043 -0.09130862 14.18017 0.89614785 -0.44375566 2.0772681E-07 4.5 -0.040518906 -0.08182593 0.9958226 -0.240233 0 0 0 1</matrix>
                  <node id="RArm_bone_id" name="RArm" sid="RArm" type="JOINT">
                    <matrix sid="transform">0.8961479 0.44375545 0 12.61957 -0.44375545 0.8961479 0 0 0 0 1 0 0 0 0 1</matrix>
                    <node id="RForeArm_bone_id" name="RForeArm" sid="RForeArm" type="JOINT">
                      <matrix sid="transform">1 0 0 22.6 0 1 0 0 0 0 1 0 0 0 0 1</matrix>
                      <node id="RHand_bone_id" name="RHand" sid="RHand" type="JOINT">
                        <matrix sid="transform">1 0 0 22.600002 0 1 0 0 0 0 1 0 0 0 0 1</matrix>
                      </node>
                    </node>
                  </node>
                </node>
              </node>
            </node>
            <node id="Hips_bone_id" name="Hips" sid="Hips" type="JOINT">
              <matrix sid="transform">-1 -3.2584137E-07 0 -0.010002 3.2584137E-07 -1 0 0 0 0 1 0 0 0 0 1</matrix>
              <node id="LThigh_bone_id" name="LThigh" sid="LThigh" type="JOINT">
                <matrix sid="transform">1 0 0 11.300003 0 1 0 7.8 0 0 1 0 0 0 0 1</matrix>
                <node id="LLeg_bone_id" name="LLeg" sid="LLeg" type="JOINT">
                  <matrix sid="transform">1 0 0 34.299995 0 1 0 0 0 0 1 0 0 0 0 1</matrix>
                  <node id="LFoot_bone_id" name="LFoot" sid="LFoot" type="JOINT">
                    <matrix sid="transform">3.1391647E-07 0 -1 34.3 0 1 0 0 1 0 3.1391647E-07 0 0 0 0 1</matrix>
                  </node>
                </node>
              </node>
              <node id="RThigh_bone_id" name="RThigh" sid="RThigh" type="JOINT">
                <matrix sid="transform">1 0 0 11.299995 0 1 0 -7.8 0 0 1 0 0 0 0 1</matrix>
                <node id="RLeg_bone_id" name="RLeg" sid="RLeg" type="JOINT">
                  <matrix sid="transform">1 0 0 34.3 0 1 0 0 0 0 1 0 0 0 0 1</matrix>
                  <node id="RFoot_bone_id" name="RFoot" sid="RFoot" type="JOINT">
                    <matrix sid="transform">3.1391647E-07 0 -1 34.3 0 1 0 0 1 0 3.1391647E-07 0 0 0 0 1</matrix>
                  </node>
                </node>
              </node>
            </node>
          </node>
          <node id="CamTgtHead_bone_id" name="CamTgtHead" sid="CamTgtHead" type="JOINT">
            <matrix sid="transform">1 0 0 0 0 1 0 151.50029 0 0 1 0 0 0 0 1</matrix>
          </node>
          <node id="CamTgtBust_bone_id" name="CamTgtBust" sid="CamTgtBust" type="JOINT">
            <matrix sid="transform">1 0 0 0 0 1 0 117.6 0 0 1 0 0 0 0 1</matrix>
          </node>
          <node id="CamTgtBody_bone_id" name="CamTgtBody" sid="CamTgtBody" type="JOINT">
            <matrix sid="transform">1 0 0 0 0 1 0 90.6 0 0 1 0 0 0 0 1</matrix>
          </node>
          <node id="CamTgtFoot_bone_id" name="CamTgtFoot" sid="CamTgtFoot" type="JOINT">
            <matrix sid="transform">1 0 0 0 0 1 0 0 0 0 1 0 0 0 0 1</matrix>
          </node>
        </node>
        <node id="tr0039_00_fi_HairSkin_bone_id" name="tr0039_00_fi_HairSkin" sid="tr0039_00_fi_HairSkin" type="JOINT">
          <matrix sid="transform">1 0 0 0 0 1 0 0 0 0 1 0 0 0 0 1</matrix>
        </node>
        <node id="tr0039_00_fi_FaceSkin_bone_id" name="tr0039_00_fi_FaceSkin" sid="tr0039_00_fi_FaceSkin" type="JOINT">
          <matrix sid="transform">1 0 0 0 0 1 0 0 0 0 1 0 0 0 0 1</matrix>
        </node>
        <node id="tr0039_00_fi_BodySkin_bone_id" name="tr0039_00_fi_BodySkin" sid="tr0039_00_fi_BodySkin" type="JOINT">
          <matrix sid="transform">1 0 0 0 0 1 0 0 0 0 1 0 0 0 0 1</matrix>
        </node>
        <node id="tr0039_00_fi_BodyInsideSkin_bone_id" name="tr0039_00_fi_BodyInsideSkin" sid="tr0039_00_fi_BodyInsideSkin" type="JOINT">
          <matrix sid="transform">1 0 0 0 0 1 0 0 0 0 1 0 0 0 0 1</matrix>
        </node>
        <node id="tr0039_00_fi_HandSkin_bone_id" name="tr0039_00_fi_HandSkin" sid="tr0039_00_fi_HandSkin" type="JOINT">
          <matrix sid="transform">1 0 0 0 0 1 0 0 0 0 1 0 0 0 0 1</matrix>
        </node>
      </node>
    </visual_scene>
  </library_visual_scenes>
  <scene>
    <instance_visual_scene url="#tr0039_00_fi_00_clip_id" />
  </scene>
</COLLADA>