<?xml version="1.0" encoding="utf-8"?>
<COLLADA xmlns:xsi="http://www.w3.org/2001/XMLSchema-instance" xmlns:xsd="http://www.w3.org/2001/XMLSchema" version="1.4.1" xmlns="http://www.collada.org/2005/11/COLLADASchema">
  <asset>
    <created>2026-02-17T05:46:46.6601056-05:00</created>
    <modified>2026-02-17T05:46:46.6601058-05:00</modified>
    <up_axis>Y_UP</up_axis>
  </asset>
  <library_animations>
    <animation id="Motion_54_Waist_transform_id" name="Motion_54_Waist_transform">
      <source id="Motion_54_Waist_transform_frame_id" name="Motion_54_Waist_transform_frame">
        <float_array id="Motion_54_Waist_transform_frame_array_id" count="16">0 0.033333335 0.06666667 0.1 0.13333334 0.16666667 0.2 0.23333333 0.26666668 0.3 0.33333334 0.36666667 0.4 0.43333334 0.46666667 0.5</float_array>
        <technique_common>
          <accessor source="#Motion_54_Waist_transform_frame_array_id" count="16" stride="1">
            <param name="TIME" type="float" />
          </accessor>
        </technique_common>
      </source>
      <source id="Motion_54_Waist_transform_interp_id" name="Motion_54_Waist_transform_interp">
        <Name_array id="Motion_54_Waist_transform_interp_array_id" count="16">LINEAR LINEAR LINEAR LINEAR LINEAR LINEAR LINEAR LINEAR LINEAR LINEAR LINEAR LINEAR LINEAR LINEAR LINEAR LINEAR</Name_array>
        <technique_common>
          <accessor source="#Motion_54_Waist_transform_interp_array_id" count="16" stride="1">
            <param name="INTERPOLATION" type="Name" />
          </accessor>
        </technique_common>
      </source>
      <source id="Motion_54_Waist_transform_pose_id" name="Motion_54_Waist_transform_pose">
        <float_array id="Motion_54_Waist_transform_pose_array_id" count="256">-0.0018587112 -0.9999945 -0.00273302 0 0.99950147 -0.0019439459 0.031510033 47.36186 -0.031515174 -0.0026730886 0.9994997 0 0 0 0 1 -0.00078368187 -0.9999958 -0.0027558822 0 0.999498 -0.00087058544 0.031667903 47.36186 -0.031670175 -0.0027296804 0.9994947 0.02179639 0 0 0 1 0.0011709929 -0.9999957 -0.0027456013 0 0.9994905 0.001082778 0.031904157 47.36186 -0.031901043 -0.0027815653 0.99948716 0.051128954 0 0 0 1 0.0041441917 -0.99998784 -0.002700951 0 0.999473 0.004055083 0.032208364 47.36186 -0.032197017 -0.002833006 0.9994775 0.08524218 0 0 0 1 0.0075624585 -0.9999679 -0.0026317844 0 0.99944156 0.0074727535 0.032565977 47.36186 -0.03254527 -0.002876591 0.9994661 0.12138055 0 0 0 1 0.011038423 -0.99993587 -0.0025453586 0 0.99939656 0.010948539 0.032963496 47.36186 -0.03293351 -0.0029076869 0.9994533 0.15678856 0 0 0 1 0.014185131 -0.99989635 -0.0024492992 0 0.9993431 0.014095485 0.033387363 47.36186 -0.03334938 -0.0029212926 0.9994395 0.18871075 0 0 0 1 0.016815007 -0.99985576 -0.002348354 0 0.9992877 0.016726017 0.0338252 47.36186 -0.033781044 -0.0029154494 0.999425 0.21439156 0 0 0 1 0.019023836 -0.99981654 -0.0022427812 0 0.99923337 0.018935919 0.03426624 47.36186 -0.034217484 -0.0028929375 0.9994102 0.23107547 0 0 0 1 0.020851076 -0.9997803 -0.0021337587 0 0.999182 0.02076453 0.034699373 47.36186 -0.034647442 -0.0028555319 0.9993955 0.2401741 0 0 0 1 0.022334695 -0.9997485 -0.0020225085 0 0.9991357 0.022249937 0.035113513 47.36186 -0.035059683 -0.0028050113 0.9993813 0.24556486 0 0 0 1 0.023513377 -0.9997218 -0.0019102283 0 0.99909514 0.023430824 0.035497576 47.36186 -0.035442937 -0.0027431715 0.99936795 0.24819098 0 0 0 1 0.024426281 -0.9997 -0.0017980691 0 0.9990609 0.024346173 0.035840467 47.36186 -0.035785936 -0.0026718322 0.9993559 0.24899572 0 0 0 1 0.025111675 -0.99968326 -0.0016871672 0 0.99903345 0.025034368 0.036131106 47.36186 -0.036077425 -0.0025928523 0.99934566 0.24892227 0 0 0 1 0.025608242 -0.9996708 -0.001578616 0 0.99901253 0.025533974 0.03635843 47.36186 -0.03630615 -0.0025081318 0.99933755 0.24891391 0 0 0 1 0.025608242 -0.9996708 -0.001578616 0 0.99901253 0.025533974 0.03635843 47.36186 -0.03630615 -0.0025081318 0.99933755 0.24891391 0 0 0 1</float_array>
        <technique_common>
          <accessor source="#Motion_54_Waist_transform_pose_array_id" count="16" stride="16">
            <param name="TRANSFORM" type="float4x4" />
          </accessor>
        </technique_common>
      </source>
      <sampler id="Motion_54_Waist_transform_samp_id">
        <input semantic="INPUT" source="#Motion_54_Waist_transform_frame_id" />
        <input semantic="INTERPOLATION" source="#Motion_54_Waist_transform_interp_id" />
        <input semantic="OUTPUT" source="#Motion_54_Waist_transform_pose_id" />
      </sampler>
      <channel source="#Motion_54_Waist_transform_samp_id" target="Waist_bone_id/transform" />
    </animation>
    <animation id="Motion_54_Hips_transform_id" name="Motion_54_Hips_transform">
      <source id="Motion_54_Hips_transform_frame_id" name="Motion_54_Hips_transform_frame">
        <float_array id="Motion_54_Hips_transform_frame_array_id" count="16">0 0.033333335 0.06666667 0.1 0.13333334 0.16666667 0.2 0.23333333 0.26666668 0.3 0.33333334 0.36666667 0.4 0.43333334 0.46666667 0.5</float_array>
        <technique_common>
          <accessor source="#Motion_54_Hips_transform_frame_array_id" count="16" stride="1">
            <param name="TIME" type="float" />
          </accessor>
        </technique_common>
      </source>
      <source id="Motion_54_Hips_transform_interp_id" name="Motion_54_Hips_transform_interp">
        <Name_array id="Motion_54_Hips_transform_interp_array_id" count="16">LINEAR LINEAR LINEAR LINEAR LINEAR LINEAR LINEAR LINEAR LINEAR LINEAR LINEAR LINEAR LINEAR LINEAR LINEAR LINEAR</Name_array>
        <technique_common>
          <accessor source="#Motion_54_Hips_transform_interp_array_id" count="16" stride="1">
            <param name="INTERPOLATION" type="Name" />
          </accessor>
        </technique_common>
      </source>
      <source id="Motion_54_Hips_transform_pose_id" name="Motion_54_Hips_transform_pose">
        <float_array id="Motion_54_Hips_transform_pose_array_id" count="256">-0.99126506 -3.8998616E-07 0.1318843 -0.010002 3.8713995E-07 -1 -4.722176E-08 0 0.1318843 4.2484007E-09 0.9912651 0 0 0 0 1 -0.99140763 2.9586152E-05 0.13080852 -0.010002 -2.9588975E-05 -1 1.9220151E-06 0 0.13080852 -1.9649897E-06 0.99140763 0 0 0 0 1 -0.9916922 4.2911975E-05 0.12863564 -0.010002 -4.2914748E-05 -1.0000002 2.7501185E-06 0 0.12863564 -2.7930957E-06 0.99169195 0 0 0 0 1 -0.9921633 -1.0383941E-05 0.12494665 -0.010002 1.0381245E-05 -0.9999999 -6.726783E-07 0 0.12494665 6.2969514E-07 0.9921635 0 0 0 0 1 -0.9927558 -9.4394636E-05 0.12014907 -0.010002 9.4392046E-05 -0.9999999 -5.712746E-06 0 0.12014907 5.669755E-06 0.9927559 0 0 0 0 1 -0.99342453 -0.00018890687 0.114486165 -0.010002 0.00018890439 -0.99999964 -1.0870709E-05 0 0.114486165 1.082771E-05 0.99342483 0 0 0 0 1 -0.99412894 -0.00027631124 0.10820183 -0.010002 0.0002763089 -1 -1.5014144E-05 0 0.10820183 1.4971136E-05 0.99412894 0 0 0 0 1 -0.99483156 -0.00034255453 0.101540744 -0.010002 0.00034255232 -1.0000002 -1.7458133E-05 0 0.101540744 1.7415117E-05 0.9948314 0 0 0 0 1 -0.9955014 -0.00037857264 0.09474844 -0.010002 0.0003785706 -1.0000002 -1.7996477E-05 0 0.09474844 1.7953455E-05 0.9955012 0 0 0 0 1 -0.99611425 -0.00038029804 0.08807119 -0.010002 0.00038029611 -1 -1.6800723E-05 0 0.08807119 1.6757693E-05 0.9961142 0 0 0 0 1 -0.99665236 -0.0003489043 0.08175592 -0.010002 0.00034890254 -1 -1.43078905E-05 0 0.08175592 1.4264855E-05 0.99665236 0 0 0 0 1 -0.9971038 -0.00029033519 0.07604993 -0.010002 0.00029033356 -0.99999976 -1.1077485E-05 0 0.07604993 1.10344445E-05 0.997104 0 0 0 0 1 -0.9974619 -0.00021387739 0.07120073 -0.010002 0.00021387584 -0.9999999 -7.6452825E-06 0 0.07120073 7.6022393E-06 0.99746203 0 0 0 0 1 -0.99772227 -0.00013168373 0.06745583 -0.010002 0.00013168227 -1 -4.467979E-06 0 0.06745583 4.4249346E-06 0.99772227 0 0 0 0 1 -0.9978813 -5.5912005E-05 0.06506257 -0.010002 5.59106E-05 -1 -1.842318E-06 0 0.06506257 1.7992726E-06 0.9978812 0 0 0 0 1 -0.9978813 -5.5912005E-05 0.06506257 -0.010002 5.59106E-05 -1 -1.842318E-06 0 0.06506257 1.7992726E-06 0.9978812 0 0 0 0 1</float_array>
        <technique_common>
          <accessor source="#Motion_54_Hips_transform_pose_array_id" count="16" stride="16">
            <param name="TRANSFORM" type="float4x4" />
          </accessor>
        </technique_common>
      </source>
      <sampler id="Motion_54_Hips_transform_samp_id">
        <input semantic="INPUT" source="#Motion_54_Hips_transform_frame_id" />
        <input semantic="INTERPOLATION" source="#Motion_54_Hips_transform_interp_id" />
        <input semantic="OUTPUT" source="#Motion_54_Hips_transform_pose_id" />
      </sampler>
      <channel source="#Motion_54_Hips_transform_samp_id" target="Hips_bone_id/transform" />
    </animation>
    <animation id="Motion_54_RThigh_transform_id" name="Motion_54_RThigh_transform">
      <source id="Motion_54_RThigh_transform_frame_id" name="Motion_54_RThigh_transform_frame">
        <float_array id="Motion_54_RThigh_transform_frame_array_id" count="16">0 0.033333335 0.06666667 0.1 0.13333334 0.16666667 0.2 0.23333333 0.26666668 0.3 0.33333334 0.36666667 0.4 0.43333334 0.46666667 0.5</float_array>
        <technique_common>
          <accessor source="#Motion_54_RThigh_transform_frame_array_id" count="16" stride="1">
            <param name="TIME" type="float" />
          </accessor>
        </technique_common>
      </source>
      <source id="Motion_54_RThigh_transform_interp_id" name="Motion_54_RThigh_transform_interp">
        <Name_array id="Motion_54_RThigh_transform_interp_array_id" count="16">LINEAR LINEAR LINEAR LINEAR LINEAR LINEAR LINEAR LINEAR LINEAR LINEAR LINEAR LINEAR LINEAR LINEAR LINEAR LINEAR</Name_array>
        <technique_common>
          <accessor source="#Motion_54_RThigh_transform_interp_array_id" count="16" stride="1">
            <param name="INTERPOLATION" type="Name" />
          </accessor>
        </technique_common>
      </source>
      <source id="Motion_54_RThigh_transform_pose_id" name="Motion_54_RThigh_transform_pose">
        <float_array id="Motion_54_RThigh_transform_pose_array_id" count="256">0.29774112 -0.0052337595 -0.95463234 6.377262 0.005354434 0.9999784 -0.0038123697 -6.586485 0.9546316 -0.003976417 0.2977627 0 0 0 0 1 0.2966665 -0.0065839863 -0.95495844 6.377262 0.006034821 0.9999692 -0.005019542 -6.586485 0.954962 -0.004273873 0.29669708 0 0 0 0 1 0.29487234 -0.008890686 -0.95549536 6.377262 0.0071092094 0.99994946 -0.0071103713 -6.586485 0.95551026 -0.0046961643 0.29492062 0 0 0 0 1 0.29229832 -0.011890737 -0.9562533 6.377262 0.008476384 0.99991566 -0.009842686 -6.586485 0.95628965 -0.0052285693 0.29237443 0 0 0 0 1 0.28888345 -0.015320592 -0.9572417 6.377262 0.010034312 0.9998655 -0.012974555 -6.586485 0.9573117 -0.005857127 0.2889983 0 0 0 0 1 0.2845683 -0.018916523 -0.95846903 6.377262 0.011681065 0.9997995 -0.016264133 -6.586485 0.95858455 -0.006567684 0.28473222 0 0 0 0 1 0.27946013 -0.022416033 -0.9598956 6.377262 0.013317902 0.99972177 -0.019468755 -6.586485 0.9600649 -0.0073430547 0.2796809 0 0 0 0 1 0.2738679 -0.025559127 -0.9614277 6.377262 0.014852349 0.99964 -0.022344215 -6.586485 0.96165264 -0.008160096 0.27414894 0 0 0 0 1 0.2680372 -0.028087292 -0.9629991 6.377262 0.016196538 0.99956506 -0.024645714 -6.586485 0.96327245 -0.008991281 0.26837552 0 0 0 0 1 0.26221043 -0.030074293 -0.9645419 6.377262 0.017342532 0.9994997 -0.026449708 -6.586485 0.96485484 -0.0097922105 0.26260084 0 0 0 0 1 0.25662702 -0.03176832 -0.9659883 6.377262 0.018335441 0.99943984 -0.027997393 -6.586485 0.9663366 -0.010526933 0.2570657 0 0 0 0 1 0.25153106 -0.033174362 -0.96728057 6.377262 0.019171305 0.9993871 -0.029290212 -6.586485 0.9676594 -0.011176629 0.25201285 0 0 0 0 1 0.24716872 -0.034297846 -0.9683653 6.377262 0.019846521 0.9993429 -0.030329332 -6.586485 0.9687692 -0.011722219 0.24768704 0 0 0 0 1 0.2437852 -0.035144422 -0.96919227 6.377262 0.02035751 0.99930847 -0.031115867 -6.586485 0.9696156 -0.012144753 0.24433208 0 0 0 0 1 0.2416265 -0.035719637 -0.9697117 6.377262 0.020700319 0.9992846 -0.03165099 -6.586485 0.9701485 -0.012425622 0.24219304 0 0 0 0 1 0.2416265 -0.035719637 -0.9697117 6.377262 0.020700319 0.9992846 -0.03165099 -6.586485 0.9701485 -0.012425622 0.24219304 0 0 0 0 1</float_array>
        <technique_common>
          <accessor source="#Motion_54_RThigh_transform_pose_array_id" count="16" stride="16">
            <param name="TRANSFORM" type="float4x4" />
          </accessor>
        </technique_common>
      </source>
      <sampler id="Motion_54_RThigh_transform_samp_id">
        <input semantic="INPUT" source="#Motion_54_RThigh_transform_frame_id" />
        <input semantic="INTERPOLATION" source="#Motion_54_RThigh_transform_interp_id" />
        <input semantic="OUTPUT" source="#Motion_54_RThigh_transform_pose_id" />
      </sampler>
      <channel source="#Motion_54_RThigh_transform_samp_id" target="RThigh_bone_id/transform" />
    </animation>
    <animation id="Motion_54_RLeg_transform_id" name="Motion_54_RLeg_transform">
      <source id="Motion_54_RLeg_transform_frame_id" name="Motion_54_RLeg_transform_frame">
        <float_array id="Motion_54_RLeg_transform_frame_array_id" count="16">0 0.033333335 0.06666667 0.1 0.13333334 0.16666667 0.2 0.23333333 0.26666668 0.3 0.33333334 0.36666667 0.4 0.43333334 0.46666667 0.5</float_array>
        <technique_common>
          <accessor source="#Motion_54_RLeg_transform_frame_array_id" count="16" stride="1">
            <param name="TIME" type="float" />
          </accessor>
        </technique_common>
      </source>
      <source id="Motion_54_RLeg_transform_interp_id" name="Motion_54_RLeg_transform_interp">
        <Name_array id="Motion_54_RLeg_transform_interp_array_id" count="16">LINEAR LINEAR LINEAR LINEAR LINEAR LINEAR LINEAR LINEAR LINEAR LINEAR LINEAR LINEAR LINEAR LINEAR LINEAR LINEAR</Name_array>
        <technique_common>
          <accessor source="#Motion_54_RLeg_transform_interp_array_id" count="16" stride="1">
            <param name="INTERPOLATION" type="Name" />
          </accessor>
        </technique_common>
      </source>
      <source id="Motion_54_RLeg_transform_pose_id" name="Motion_54_RLeg_transform_pose">
        <float_array id="Motion_54_RLeg_transform_pose_array_id" count="256">0.07885486 0 0.9968861 27.28328 0 1 0 0 -0.9968861 0 0.07885486 0 0 0 0 1 0.07742298 0 0.99699837 27.28328 0 1 0 0 -0.99699837 0 0.07742298 0 0 0 0 1 0.075015485 0 0.99718237 27.28328 0 1 0 0 -0.99718237 0 0.075015485 0 0 0 0 1 0.0718528 0 0.9974153 27.28328 0 1 0 0 -0.9974153 0 0.0718528 0 0 0 0 1 0.06815606 0 0.99767464 27.28328 0 1 0 0 -0.99767464 0 0.06815606 0 0 0 0 1 0.064145744 0 0.99794054 27.28328 0 1 0 0 -0.99794054 0 0.064145744 0 0 0 0 1 0.060043275 0 0.99819577 27.28328 0 1 0 0 -0.99819577 0 0.060043275 0 0 0 0 1 0.05607027 0 0.9984268 27.28328 0 1 0 0 -0.9984268 0 0.05607027 0 0 0 0 1 0.052448273 0 0.99862367 27.28328 0 1 0 0 -0.99862367 0 0.052448273 0 0 0 0 1 0.04939866 0 0.9987792 27.28328 0 1 0 0 -0.9987792 0 0.04939866 0 0 0 0 1 0.04691261 0 0.99889904 27.28328 0 1 0 0 -0.99889904 0 0.04691261 0 0 0 0 1 0.044815958 0 0.99899524 27.28328 0 1 0 0 -0.99899524 0 0.044815958 0 0 0 0 1 0.04308349 0 0.9990715 27.28328 0 1 0 0 -0.9990715 0 0.04308349 0 0 0 0 1 0.041689932 0 0.9991306 27.28328 0 1 0 0 -0.9991306 0 0.041689932 0 0 0 0 1 0.040610135 0 0.999175 27.28328 0 1 0 0 -0.999175 0 0.040610135 0 0 0 0 1 0.040610135 0 0.999175 27.28328 0 1 0 0 -0.999175 0 0.040610135 0 0 0 0 1</float_array>
        <technique_common>
          <accessor source="#Motion_54_RLeg_transform_pose_array_id" count="16" stride="16">
            <param name="TRANSFORM" type="float4x4" />
          </accessor>
        </technique_common>
      </source>
      <sampler id="Motion_54_RLeg_transform_samp_id">
        <input semantic="INPUT" source="#Motion_54_RLeg_transform_frame_id" />
        <input semantic="INTERPOLATION" source="#Motion_54_RLeg_transform_interp_id" />
        <input semantic="OUTPUT" source="#Motion_54_RLeg_transform_pose_id" />
      </sampler>
      <channel source="#Motion_54_RLeg_transform_samp_id" target="RLeg_bone_id/transform" />
    </animation>
    <animation id="Motion_54_RFoot_transform_id" name="Motion_54_RFoot_transform">
      <source id="Motion_54_RFoot_transform_frame_id" name="Motion_54_RFoot_transform_frame">
        <float_array id="Motion_54_RFoot_transform_frame_array_id" count="16">0 0.033333335 0.06666667 0.1 0.13333334 0.16666667 0.2 0.23333333 0.26666668 0.3 0.33333334 0.36666667 0.4 0.43333334 0.46666667 0.5</float_array>
        <technique_common>
          <accessor source="#Motion_54_RFoot_transform_frame_array_id" count="16" stride="1">
            <param name="TIME" type="float" />
          </accessor>
        </technique_common>
      </source>
      <source id="Motion_54_RFoot_transform_interp_id" name="Motion_54_RFoot_transform_interp">
        <Name_array id="Motion_54_RFoot_transform_interp_array_id" count="16">LINEAR LINEAR LINEAR LINEAR LINEAR LINEAR LINEAR LINEAR LINEAR LINEAR LINEAR LINEAR LINEAR LINEAR LINEAR LINEAR</Name_array>
        <technique_common>
          <accessor source="#Motion_54_RFoot_transform_interp_array_id" count="16" stride="1">
            <param name="INTERPOLATION" type="Name" />
          </accessor>
        </technique_common>
      </source>
      <source id="Motion_54_RFoot_transform_pose_id" name="Motion_54_RFoot_transform_pose">
        <float_array id="Motion_54_RFoot_transform_pose_array_id" count="256">0.18856382 0.0026440695 -0.98205733 27.28328 -0.13036972 0.9912132 -0.022363435 0 0.9733691 0.13224748 0.18725169 0 0 0 0 1 0.18589842 0.002410747 -0.982566 27.28328 -0.13175017 0.99102765 -0.02249521 0 0.9736959 0.13363507 0.18454808 0 0 0 0 1 0.18154305 0.002019614 -0.9833809 27.28328 -0.13394845 0.99072844 -0.02269366 0 0.97421753 0.13584222 0.18013036 0 0 0 0 1 0.17547822 0.0014641136 -0.9844822 27.28328 -0.1365589 0.99036795 -0.022867963 0 0.9749662 0.13845265 0.17398793 0 0 0 0 1 0.16839767 0.00079138577 -0.98571885 27.28328 -0.13917987 0.99000037 -0.02298231 0 0.9758439 0.14106238 0.16682392 0 0 0 0 1 0.16166985 0.0001064688 -0.98684484 27.28328 -0.14141493 0.9896818 -0.023060512 0 0.97665995 0.14328279 0.16001672 0 0 0 0 1 0.15628827 -0.000502415 -0.9877113 27.28328 -0.14286798 0.9894719 -0.023109697 0 0.97732425 0.1447241 0.15457106 0 0 0 0 1 0.15324938 -0.0009422526 -0.9881871 27.28328 -0.14314386 0.98943126 -0.023142383 0 0.97776496 0.14499947 0.15149486 0 0 0 0 1 0.15354836 -0.0011238977 -0.9881406 27.28328 -0.14184624 0.9896176 -0.023167245 0 0.9779073 0.14372131 0.15179473 0 0 0 0 1 0.15763688 -0.0010130927 -0.98749655 27.28328 -0.13857153 0.99008214 -0.02313631 0 0.97772616 0.14048606 0.15593308 0 0 0 0 1 0.16452688 -0.000662446 -0.9863724 27.28328 -0.13360488 0.9907689 -0.022950683 0 0.97728235 0.13556017 0.16291958 0 0 0 0 1 0.17304641 -0.00014677644 -0.98491365 27.28328 -0.12777823 0.99154526 -0.022598036 0 0.97658986 0.12976104 0.17156458 0 0 0 0 1 0.18204689 0.00043409318 -0.9832898 27.28328 -0.121500194 0.9923463 -0.022056535 0 0.97575444 0.12348522 0.18070632 0 0 0 0 1 0.19038576 0.0010007285 -0.9817089 27.28328 -0.115184054 0.99311525 -0.02132564 0 0.97492874 0.117137305 0.18919027 0 0 0 0 1 0.19692999 0.0014954023 -0.98041636 27.28328 -0.10924666 0.99380475 -0.020427853 0 0.9743119 0.11113007 0.19587332 0 0 0 0 1 0.19692999 0.0014954023 -0.98041636 27.28328 -0.10924666 0.99380475 -0.020427853 0 0.9743119 0.11113007 0.19587332 0 0 0 0 1</float_array>
        <technique_common>
          <accessor source="#Motion_54_RFoot_transform_pose_array_id" count="16" stride="16">
            <param name="TRANSFORM" type="float4x4" />
          </accessor>
        </technique_common>
      </source>
      <sampler id="Motion_54_RFoot_transform_samp_id">
        <input semantic="INPUT" source="#Motion_54_RFoot_transform_frame_id" />
        <input semantic="INTERPOLATION" source="#Motion_54_RFoot_transform_interp_id" />
        <input semantic="OUTPUT" source="#Motion_54_RFoot_transform_pose_id" />
      </sampler>
      <channel source="#Motion_54_RFoot_transform_samp_id" target="RFoot_bone_id/transform" />
    </animation>
    <animation id="Motion_54_LThigh_transform_id" name="Motion_54_LThigh_transform">
      <source id="Motion_54_LThigh_transform_frame_id" name="Motion_54_LThigh_transform_frame">
        <float_array id="Motion_54_LThigh_transform_frame_array_id" count="16">0 0.033333335 0.06666667 0.1 0.13333334 0.16666667 0.2 0.23333333 0.26666668 0.3 0.33333334 0.36666667 0.4 0.43333334 0.46666667 0.5</float_array>
        <technique_common>
          <accessor source="#Motion_54_LThigh_transform_frame_array_id" count="16" stride="1">
            <param name="TIME" type="float" />
          </accessor>
        </technique_common>
      </source>
      <source id="Motion_54_LThigh_transform_interp_id" name="Motion_54_LThigh_transform_interp">
        <Name_array id="Motion_54_LThigh_transform_interp_array_id" count="16">LINEAR LINEAR LINEAR LINEAR LINEAR LINEAR LINEAR LINEAR LINEAR LINEAR LINEAR LINEAR LINEAR LINEAR LINEAR LINEAR</Name_array>
        <technique_common>
          <accessor source="#Motion_54_LThigh_transform_interp_array_id" count="16" stride="1">
            <param name="INTERPOLATION" type="Name" />
          </accessor>
        </technique_common>
      </source>
      <source id="Motion_54_LThigh_transform_pose_id" name="Motion_54_LThigh_transform_pose">
        <float_array id="Motion_54_LThigh_transform_pose_array_id" count="256">0.3088436 0.02476362 -0.9507904 6.377262 0.023773367 0.99914765 0.033745363 6.586485 0.9508157 -0.033025526 0.30799168 0 0 0 0 1 0.30735934 0.02355947 -0.9513019 6.377262 0.024297766 0.9991732 0.032595474 6.586485 0.9512833 -0.033133034 0.3065328 0 0 0 0 1 0.30478305 0.02152945 -0.95217836 6.377262 0.025089884 0.999216 0.030624032 6.586485 0.9520912 -0.033223733 0.30400395 0 0 0 0 1 0.30105263 0.018917903 -0.95341986 6.377262 0.026047185 0.99926704 0.02805229 6.586485 0.9532518 -0.03327912 0.30033922 0 0 0 0 1 0.29610622 0.015969101 -0.9550215 6.377262 0.027066141 0.9993184 0.025101706 6.586485 0.9547714 -0.03328152 0.2954722 0 0 0 0 1 0.29015714 0.012922533 -0.9568917 6.377262 0.028041366 0.9993647 0.021999065 6.586485 0.95656806 -0.033215735 0.2896104 0 0 0 0 1 0.28362155 0.010013235 -0.95888406 6.377262 0.028869927 0.99940306 0.01897559 6.586485 0.95850164 -0.033064794 0.28316313 0 0 0 0 1 0.27674258 0.007477504 -0.96091497 6.377262 0.029455956 0.9994338 0.016260527 6.586485 0.9604925 -0.03280465 0.27636558 0 0 0 0 1 0.26976597 0.0055501424 -0.96290994 6.377262 0.029708888 0.9994594 0.014083967 6.586485 0.96246755 -0.03240636 0.26945525 0 0 0 0 1 0.2629366 0.0042081755 -0.9648038 6.377262 0.029799456 0.999478 0.01248061 6.586485 0.9643527 -0.03203224 0.26267397 0 0 0 0 1 0.25649548 0.0031773 -0.96654016 6.377262 0.029885374 0.9994904 0.011216442 6.586485 0.9660832 -0.03176238 0.2562698 0 0 0 0 1 0.25068885 0.0023351386 -0.96806496 6.377262 0.029881157 0.99950194 0.010148955 6.586485 0.9676065 -0.03147113 0.25049418 0 0 0 0 1 0.24576408 0.0016702302 -0.9693282 6.377262 0.029811855 0.99951243 0.009280757 6.586485 0.9688712 -0.031178351 0.24559444 0 0 0 0 1 0.2419697 0.001171534 -0.97028315 6.377262 0.029702377 0.9995217 0.0086140325 6.586485 0.9698291 -0.030904047 0.2418192 0 0 0 0 1 0.23955381 0.00082836207 -0.9708827 6.377262 0.029577237 0.99952924 0.008150635 6.586485 0.97043246 -0.030668544 0.23941654 0 0 0 0 1 0.23955381 0.00082836207 -0.9708827 6.377262 0.029577237 0.99952924 0.008150635 6.586485 0.97043246 -0.030668544 0.23941654 0 0 0 0 1</float_array>
        <technique_common>
          <accessor source="#Motion_54_LThigh_transform_pose_array_id" count="16" stride="16">
            <param name="TRANSFORM" type="float4x4" />
          </accessor>
        </technique_common>
      </source>
      <sampler id="Motion_54_LThigh_transform_samp_id">
        <input semantic="INPUT" source="#Motion_54_LThigh_transform_frame_id" />
        <input semantic="INTERPOLATION" source="#Motion_54_LThigh_transform_interp_id" />
        <input semantic="OUTPUT" source="#Motion_54_LThigh_transform_pose_id" />
      </sampler>
      <channel source="#Motion_54_LThigh_transform_samp_id" target="LThigh_bone_id/transform" />
    </animation>
    <animation id="Motion_54_LLeg_transform_id" name="Motion_54_LLeg_transform">
      <source id="Motion_54_LLeg_transform_frame_id" name="Motion_54_LLeg_transform_frame">
        <float_array id="Motion_54_LLeg_transform_frame_array_id" count="16">0 0.033333335 0.06666667 0.1 0.13333334 0.16666667 0.2 0.23333333 0.26666668 0.3 0.33333334 0.36666667 0.4 0.43333334 0.46666667 0.5</float_array>
        <technique_common>
          <accessor source="#Motion_54_LLeg_transform_frame_array_id" count="16" stride="1">
            <param name="TIME" type="float" />
          </accessor>
        </technique_common>
      </source>
      <source id="Motion_54_LLeg_transform_interp_id" name="Motion_54_LLeg_transform_interp">
        <Name_array id="Motion_54_LLeg_transform_interp_array_id" count="16">LINEAR LINEAR LINEAR LINEAR LINEAR LINEAR LINEAR LINEAR LINEAR LINEAR LINEAR LINEAR LINEAR LINEAR LINEAR LINEAR</Name_array>
        <technique_common>
          <accessor source="#Motion_54_LLeg_transform_interp_array_id" count="16" stride="1">
            <param name="INTERPOLATION" type="Name" />
          </accessor>
        </technique_common>
      </source>
      <source id="Motion_54_LLeg_transform_pose_id" name="Motion_54_LLeg_transform_pose">
        <float_array id="Motion_54_LLeg_transform_pose_array_id" count="256">0.037010074 0 0.99931496 27.28328 0 1 0 0 -0.99931496 0 0.037010074 0 0 0 0 1 0.035221696 0 0.99937946 27.28328 0 1 0 0 -0.99937946 0 0.035221696 0 0 0 0 1 0.032290816 0 0.9994785 27.28328 0 1 0 0 -0.9994785 0 0.032290816 0 0 0 0 1 0.028546095 0 0.9995925 27.28328 0 1 0 0 -0.9995925 0 0.028546095 0 0 0 0 1 0.024315774 0 0.9997043 27.28328 0 1 0 0 -0.9997043 0 0.024315774 0 0 0 0 1 0.019928575 0 0.9998014 27.28328 0 1 0 0 -0.9998014 0 0.019928575 0 0 0 0 1 0.015712738 0 0.99987656 27.28328 0 1 0 0 -0.99987656 0 0.015712738 0 0 0 0 1 0.011997461 0 0.999928 27.28328 0 1 0 0 -0.999928 0 0.011997461 0 0 0 0 1 0.009111226 0 0.99995846 27.28328 0 1 0 0 -0.99995846 0 0.009111226 0 0 0 0 1 0.006958306 0 0.9999758 27.28328 0 1 0 0 -0.9999758 0 0.006958306 0 0 0 0 1 0.005192876 0 0.9999866 27.28328 0 1 0 0 -0.9999866 0 0.005192876 0 0 0 0 1 0.003770113 0 0.99999297 27.28328 0 1 0 0 -0.99999297 0 0.003770113 0 0 0 0 1 0.0026447773 0 0.9999964 27.28328 0 1 0 0 -0.9999964 0 0.0026447773 0 0 0 0 1 0.00177145 0 0.9999985 27.28328 0 1 0 0 -0.9999985 0 0.00177145 0 0 0 0 1 0.0011048317 0 0.9999994 27.28328 0 1 0 0 -0.9999994 0 0.0011048317 0 0 0 0 1 0.0011048317 0 0.9999994 27.28328 0 1 0 0 -0.9999994 0 0.0011048317 0 0 0 0 1</float_array>
        <technique_common>
          <accessor source="#Motion_54_LLeg_transform_pose_array_id" count="16" stride="16">
            <param name="TRANSFORM" type="float4x4" />
          </accessor>
        </technique_common>
      </source>
      <sampler id="Motion_54_LLeg_transform_samp_id">
        <input semantic="INPUT" source="#Motion_54_LLeg_transform_frame_id" />
        <input semantic="INTERPOLATION" source="#Motion_54_LLeg_transform_interp_id" />
        <input semantic="OUTPUT" source="#Motion_54_LLeg_transform_pose_id" />
      </sampler>
      <channel source="#Motion_54_LLeg_transform_samp_id" target="LLeg_bone_id/transform" />
    </animation>
    <animation id="Motion_54_LFoot_transform_id" name="Motion_54_LFoot_transform">
      <source id="Motion_54_LFoot_transform_frame_id" name="Motion_54_LFoot_transform_frame">
        <float_array id="Motion_54_LFoot_transform_frame_array_id" count="16">0 0.033333335 0.06666667 0.1 0.13333334 0.16666667 0.2 0.23333333 0.26666668 0.3 0.33333334 0.36666667 0.4 0.43333334 0.46666667 0.5</float_array>
        <technique_common>
          <accessor source="#Motion_54_LFoot_transform_frame_array_id" count="16" stride="1">
            <param name="TIME" type="float" />
          </accessor>
        </technique_common>
      </source>
      <source id="Motion_54_LFoot_transform_interp_id" name="Motion_54_LFoot_transform_interp">
        <Name_array id="Motion_54_LFoot_transform_interp_array_id" count="16">LINEAR LINEAR LINEAR LINEAR LINEAR LINEAR LINEAR LINEAR LINEAR LINEAR LINEAR LINEAR LINEAR LINEAR LINEAR LINEAR</Name_array>
        <technique_common>
          <accessor source="#Motion_54_LFoot_transform_interp_array_id" count="16" stride="1">
            <param name="INTERPOLATION" type="Name" />
          </accessor>
        </technique_common>
      </source>
      <source id="Motion_54_LFoot_transform_pose_id" name="Motion_54_LFoot_transform_pose">
        <float_array id="Motion_54_LFoot_transform_pose_array_id" count="256">0.13899505 -0.016586266 -0.9901542 27.28328 0.10681968 0.994277 -0.0016602799 0 0.98451513 -0.10553718 0.13997132 0 0 0 0 1 0.13660622 -0.016322829 -0.9904909 27.28328 0.10794375 0.9941559 -0.0014958829 0 0.9847268 -0.10671296 0.13756979 0 0 0 0 1 0.13276762 -0.015901025 -0.99101967 27.28328 0.109760776 0.9939573 -0.0012434162 0 0.985051 -0.108610004 0.13371062 0 0 0 0 1 0.12788647 -0.015372276 -0.9916697 27.28328 0.11192632 0.99371606 -0.00096989423 0 0.98545295 -0.1108699 0.12880337 0 0 0 0 1 0.12236899 -0.014791451 -0.99237436 27.28328 0.11409644 0.9934694 -0.0007386245 0 0.9859045 -0.11313601 0.12325752 0 0 0 0 1 0.11722517 -0.014254827 -0.9930031 27.28328 0.11593673 0.99325645 -0.0005719997 0 0.98631483 -0.11505847 0.11808729 0 0 0 0 1 0.11343157 -0.013863642 -0.9934491 27.28328 0.11711344 0.9931184 -0.00048706308 0 0.98661935 -0.11629099 0.11427462 0 0 0 0 1 0.111346126 -0.013684504 -0.9936875 27.28328 0.11728396 0.99309826 -0.00053431466 0 0.9868367 -0.116484106 0.11218262 0 0 0 0 1 0.11132538 -0.01378116 -0.9936884 27.28328 0.11610524 0.9932366 -0.000767339 0 0.98697823 -0.11528702 0.112172544 0 0 0 0 1 0.11372399 -0.014209058 -0.99341077 27.28328 0.11323275 0.9935677 -0.0012486167 0 0.98703855 -0.11234464 0.11460137 0 0 0 0 1 0.1182642 -0.014922164 -0.99287 27.28328 0.1088948 0.99405134 -0.0019690841 0 0.9869931 -0.10788552 0.11918563 0 0 0 0 1 0.1239478 -0.015783835 -0.9921632 27.28328 0.103758395 0.9945984 -0.0028603636 0 0.98684907 -0.102590725 0.12491602 0 0 0 0 1 0.13004935 -0.01670976 -0.99136674 27.28328 0.098136276 0.99516535 -0.003900081 0 0.986639 -0.096781835 0.13106048 0 0 0 0 1 0.13584536 -0.017626494 -0.99057317 27.28328 0.09234283 0.9957144 -0.005054269 0 0.98641706 -0.09078574 0.13689089 0 0 0 0 1 0.14061475 -0.018472861 -0.98989195 27.28328 0.08669379 0.9962152 -0.006275963 0 0.9862614 -0.084934995 0.14168406 0 0 0 0 1 0.14061475 -0.018472861 -0.98989195 27.28328 0.08669379 0.9962152 -0.006275963 0 0.9862614 -0.084934995 0.14168406 0 0 0 0 1</float_array>
        <technique_common>
          <accessor source="#Motion_54_LFoot_transform_pose_array_id" count="16" stride="16">
            <param name="TRANSFORM" type="float4x4" />
          </accessor>
        </technique_common>
      </source>
      <sampler id="Motion_54_LFoot_transform_samp_id">
        <input semantic="INPUT" source="#Motion_54_LFoot_transform_frame_id" />
        <input semantic="INTERPOLATION" source="#Motion_54_LFoot_transform_interp_id" />
        <input semantic="OUTPUT" source="#Motion_54_LFoot_transform_pose_id" />
      </sampler>
      <channel source="#Motion_54_LFoot_transform_samp_id" target="LFoot_bone_id/transform" />
    </animation>
    <animation id="Motion_54_Spine2_transform_id" name="Motion_54_Spine2_transform">
      <source id="Motion_54_Spine2_transform_frame_id" name="Motion_54_Spine2_transform_frame">
        <float_array id="Motion_54_Spine2_transform_frame_array_id" count="16">0 0.033333335 0.06666667 0.1 0.13333334 0.16666667 0.2 0.23333333 0.26666668 0.3 0.33333334 0.36666667 0.4 0.43333334 0.46666667 0.5</float_array>
        <technique_common>
          <accessor source="#Motion_54_Spine2_transform_frame_array_id" count="16" stride="1">
            <param name="TIME" type="float" />
          </accessor>
        </technique_common>
      </source>
      <source id="Motion_54_Spine2_transform_interp_id" name="Motion_54_Spine2_transform_interp">
        <Name_array id="Motion_54_Spine2_transform_interp_array_id" count="16">LINEAR LINEAR LINEAR LINEAR LINEAR LINEAR LINEAR LINEAR LINEAR LINEAR LINEAR LINEAR LINEAR LINEAR LINEAR LINEAR</Name_array>
        <technique_common>
          <accessor source="#Motion_54_Spine2_transform_interp_array_id" count="16" stride="1">
            <param name="INTERPOLATION" type="Name" />
          </accessor>
        </technique_common>
      </source>
      <source id="Motion_54_Spine2_transform_pose_id" name="Motion_54_Spine2_transform_pose">
        <float_array id="Motion_54_Spine2_transform_pose_array_id" count="256">0.9937684 -0.0012632256 -0.11145761 11.633057 0.0014836447 0.9999971 0.0018946868 0 0.1114549 -0.0020482433 0.9937674 0 0 0 0 1 0.99412054 -0.0023650324 -0.10825347 11.633057 0.0025672803 0.99999523 0.0017289503 0 0.10824887 -0.001996702 0.99412185 0 0 0 0 1 0.9948993 -0.0041675507 -0.10078749 11.633057 0.004344487 0.9999894 0.0015361069 0 0.100780025 -0.0019661416 0.9949068 0 0 0 0 1 0.99589 -0.006719943 -0.09032133 11.633057 0.0068673333 0.99997556 0.0013211647 0 0.090310246 -0.0019360012 0.9959118 0 0 0 0 1 0.99685067 -0.009695933 -0.078706324 11.633057 0.009813177 0.99995124 0.0011029901 0 0.078691795 -0.0018718756 0.9968972 0 0 0 0 1 0.9976182 -0.012683931 -0.06780139 11.633057 0.012773522 0.99991804 0.000888002 0 0.06778457 -0.0017519497 0.9976984 0 0 0 0 1 0.9981449 -0.0156052485 -0.058848493 11.633057 0.015671127 0.999877 0.00065809104 0 0.058830984 -0.0015790925 0.9982667 0 0 0 0 1 0.9977635 -0.018372787 -0.064268455 11.633057 0.01842911 0.9998301 0.00028361334 0 0.06425233 -0.0014673894 0.9979326 0 0 0 0 1 0.9966947 -0.020916054 -0.07849986 11.633057 0.02096192 0.99978024 -0.00023977656 0 0.07848763 -0.0014065239 0.9969141 0 0 0 0 1 0.9947601 -0.023364492 -0.099531144 11.633057 0.023387928 0.99972606 -0.0009315116 0 0.099525645 -0.0014011966 0.99503404 0 0 0 0 1 0.9918812 -0.02580761 -0.12452177 11.633057 0.025785444 0.9996659 -0.0017899657 0 0.12452636 -0.0014354158 0.9922153 0 0 0 0 1 0.9881888 -0.028111815 -0.1506408 11.633057 0.028011791 0.9996037 -0.0027863341 0 0.15065943 -0.0014662943 0.98858464 0 0 0 0 1 0.9840911 -0.030145662 -0.17508832 11.633057 0.029930236 0.9995445 -0.003871488 0 0.17512527 -0.0014305376 0.9845451 0 0 0 0 1 0.9801217 -0.031769495 -0.1958371 11.633057 0.03141908 0.9994943 -0.0048964596 0 0.19589363 -0.0013538958 0.9806242 0 0 0 0 1 0.97713035 -0.032841153 -0.21008971 11.633057 0.03236991 0.9994598 -0.005682287 0 0.21016285 -0.00124825 0.9776656 0 0 0 0 1 0.97713035 -0.032841153 -0.21008971 11.633057 0.03236991 0.9994598 -0.005682287 0 0.21016285 -0.00124825 0.9776656 0 0 0 0 1</float_array>
        <technique_common>
          <accessor source="#Motion_54_Spine2_transform_pose_array_id" count="16" stride="16">
            <param name="TRANSFORM" type="float4x4" />
          </accessor>
        </technique_common>
      </source>
      <sampler id="Motion_54_Spine2_transform_samp_id">
        <input semantic="INPUT" source="#Motion_54_Spine2_transform_frame_id" />
        <input semantic="INTERPOLATION" source="#Motion_54_Spine2_transform_interp_id" />
        <input semantic="OUTPUT" source="#Motion_54_Spine2_transform_pose_id" />
      </sampler>
      <channel source="#Motion_54_Spine2_transform_samp_id" target="Spine2_bone_id/transform" />
    </animation>
    <animation id="Motion_54_Spine3_transform_id" name="Motion_54_Spine3_transform">
      <source id="Motion_54_Spine3_transform_frame_id" name="Motion_54_Spine3_transform_frame">
        <float_array id="Motion_54_Spine3_transform_frame_array_id" count="16">0 0.033333335 0.06666667 0.1 0.13333334 0.16666667 0.2 0.23333333 0.26666668 0.3 0.33333334 0.36666667 0.4 0.43333334 0.46666667 0.5</float_array>
        <technique_common>
          <accessor source="#Motion_54_Spine3_transform_frame_array_id" count="16" stride="1">
            <param name="TIME" type="float" />
          </accessor>
        </technique_common>
      </source>
      <source id="Motion_54_Spine3_transform_interp_id" name="Motion_54_Spine3_transform_interp">
        <Name_array id="Motion_54_Spine3_transform_interp_array_id" count="16">LINEAR LINEAR LINEAR LINEAR LINEAR LINEAR LINEAR LINEAR LINEAR LINEAR LINEAR LINEAR LINEAR LINEAR LINEAR LINEAR</Name_array>
        <technique_common>
          <accessor source="#Motion_54_Spine3_transform_interp_array_id" count="16" stride="1">
            <param name="INTERPOLATION" type="Name" />
          </accessor>
        </technique_common>
      </source>
      <source id="Motion_54_Spine3_transform_pose_id" name="Motion_54_Spine3_transform_pose">
        <float_array id="Motion_54_Spine3_transform_pose_array_id" count="256">0.9977685 -0.0034827066 0.06667729 11.633057 0.0031154316 0.9999794 0.005611437 0 -0.06669545 -0.0053911866 0.9977588 0 0 0 0 1 0.99796814 -0.0041830493 0.063577265 11.633057 0.0040607797 0.9999896 0.0020522585 0 -0.06358519 -0.0017899153 0.9979748 0 0 0 0 1 0.99843085 -0.00512222 0.055763815 11.633057 0.0052902056 0.9999819 -0.0028652425 0 -0.05574813 0.0031557486 0.99843985 0 0 0 0 1 0.99898225 -0.0063381167 0.044657357 11.633057 0.006763868 0.99993306 -0.009389093 0 -0.04459486 0.009681594 0.99895823 0 0 0 0 1 0.9994537 -0.007887186 0.032095075 11.633057 0.00842286 0.9998269 -0.016589385 0 -0.031958677 0.016850654 0.99934715 0 0 0 0 1 0.9997538 -0.009780833 0.019917823 11.633057 0.010253082 0.99966544 -0.023747433 0 -0.01967889 0.023945805 0.9995195 0 0 0 0 1 0.9998882 -0.0120036425 0.008921437 11.633057 0.012267587 0.9994703 -0.030144345 0 -0.008554868 0.030250419 0.99950576 0 0 0 0 1 0.9998946 -0.0145168295 -0.00013393373 11.633057 0.01450321 0.99928004 -0.035058443 0 0.0006427747 0.035052802 0.99938524 0 0 0 0 1 0.99983627 -0.01724923 -0.0054637035 11.633057 0.017029826 0.999135 -0.03793616 0 0.0061133476 0.0378369 0.99926525 0 0 0 0 1 0.9997771 -0.020146178 -0.006322742 11.633057 0.019902332 0.999135 -0.036512144 0 0.0070528532 0.036378168 0.99931324 0 0 0 0 1 0.9997171 -0.023228126 -0.005117676 11.633057 0.02310208 0.99945813 -0.02344722 0 0.0056595383 0.023322359 0.999712 0 0 0 0 1 0.999641 -0.026561454 -0.0035111473 11.633057 0.026554756 0.9996455 -0.0019402402 0 0.0035614383 0.001846306 0.99999195 0 0 0 0 1 0.99954337 -0.030185869 -0.0013756269 11.633057 0.030209513 0.9992798 0.022962874 0 0.0006814819 -0.022993946 0.99973536 0 0 0 0 1 0.9994169 -0.03412531 0.0011448918 11.633057 0.03403602 0.99835205 0.0462037 0 -0.0027197206 -0.04613779 0.9989314 0 0 0 0 1 0.9992584 -0.038304746 0.003924612 11.633057 0.037975743 0.99722934 0.063964374 0 -0.006363877 -0.0637679 0.9979445 0 0 0 0 1 0.9992584 -0.038304746 0.003924612 11.633057 0.037975743 0.99722934 0.063964374 0 -0.006363877 -0.0637679 0.9979445 0 0 0 0 1</float_array>
        <technique_common>
          <accessor source="#Motion_54_Spine3_transform_pose_array_id" count="16" stride="16">
            <param name="TRANSFORM" type="float4x4" />
          </accessor>
        </technique_common>
      </source>
      <sampler id="Motion_54_Spine3_transform_samp_id">
        <input semantic="INPUT" source="#Motion_54_Spine3_transform_frame_id" />
        <input semantic="INTERPOLATION" source="#Motion_54_Spine3_transform_interp_id" />
        <input semantic="OUTPUT" source="#Motion_54_Spine3_transform_pose_id" />
      </sampler>
      <channel source="#Motion_54_Spine3_transform_samp_id" target="Spine3_bone_id/transform" />
    </animation>
    <animation id="Motion_54_Parts_transform_id" name="Motion_54_Parts_transform">
      <source id="Motion_54_Parts_transform_frame_id" name="Motion_54_Parts_transform_frame">
        <float_array id="Motion_54_Parts_transform_frame_array_id" count="16">0 0.033333335 0.06666667 0.1 0.13333334 0.16666667 0.2 0.23333333 0.26666668 0.3 0.33333334 0.36666667 0.4 0.43333334 0.46666667 0.5</float_array>
        <technique_common>
          <accessor source="#Motion_54_Parts_transform_frame_array_id" count="16" stride="1">
            <param name="TIME" type="float" />
          </accessor>
        </technique_common>
      </source>
      <source id="Motion_54_Parts_transform_interp_id" name="Motion_54_Parts_transform_interp">
        <Name_array id="Motion_54_Parts_transform_interp_array_id" count="16">LINEAR LINEAR LINEAR LINEAR LINEAR LINEAR LINEAR LINEAR LINEAR LINEAR LINEAR LINEAR LINEAR LINEAR LINEAR LINEAR</Name_array>
        <technique_common>
          <accessor source="#Motion_54_Parts_transform_interp_array_id" count="16" stride="1">
            <param name="INTERPOLATION" type="Name" />
          </accessor>
        </technique_common>
      </source>
      <source id="Motion_54_Parts_transform_pose_id" name="Motion_54_Parts_transform_pose">
        <float_array id="Motion_54_Parts_transform_pose_array_id" count="256">-0.99486923 0.006148057 0.10098358 6.5619555 -0.008921755 -0.9995947 -0.027038189 -3.017485E-07 0.10077641 -0.02780041 0.9945206 5.0101676 0 0 0 1 -0.99475396 0.0035273437 0.102236874 6.5628686 -0.0063090078 -0.9996184 -0.026897462 -2.0671374E-05 0.10210297 -0.027401367 0.9943964 5.030533 0 0 0 1 -0.99449325 -0.0011561869 0.104795754 6.5645123 -0.0018067588 -0.9996016 -0.02817419 -0.0002545399 0.10478656 -0.028208377 0.9940946 5.0562587 0 0 0 1 -0.9940462 -0.007950901 0.10866616 6.5667796 0.0046005007 -0.99950707 -0.031048037 -0.0006955931 0.10885949 -0.030363273 0.99359334 5.085649 0 0 0 1 -0.993497 -0.0154893035 0.11279967 6.569567 0.011693866 -0.9993454 -0.034231875 -0.0013375178 0.113256074 -0.0326902 0.9930279 5.117007 0 0 0 1 -0.99291766 -0.023207603 0.11651481 6.5727677 0.019067662 -0.9991509 -0.036521338 -0.002173999 0.11726346 -0.034041017 0.99251723 5.148635 0 0 0 1 -0.99235237 -0.030508466 0.11960988 6.5762773 0.026289899 -0.998981 -0.03669041 -0.0031987233 0.12060735 -0.033265274 0.9921428 5.178837 0 0 0 1 -0.990464 -0.03582957 0.13303277 6.5799904 0.03162374 -0.9989352 -0.03359505 -0.004405377 0.1340948 -0.02906769 0.9905421 5.2059155 0 0 0 1 -0.98799646 -0.03885895 0.14950919 6.5838003 0.035322994 -0.99903154 -0.026234655 -0.0057876464 0.15038386 -0.020638632 0.98841226 5.228174 0 0 0 1 -0.98581386 -0.039483342 0.16313213 6.587603 0.037502464 -0.9991809 -0.015205783 -0.0073392163 0.16359887 -0.008872216 0.98648703 5.2439156 0 0 0 1 -0.98382366 -0.038078547 0.1750467 6.5912924 0.036831684 -0.9992678 -0.010367428 -0.009053772 0.17531328 -0.0037524544 0.98450553 5.2514434 0 0 0 1 -0.98194003 -0.03520672 0.18588777 6.594763 0.03378997 -0.9993708 -0.010785225 -0.010925004 0.1861505 -0.0043093013 0.98251176 5.2534795 0 0 0 1 -0.980139 -0.03134158 0.19581893 6.5979104 0.029064087 -0.9994724 -0.014493992 -0.012946593 0.19616988 -0.008514828 0.98053294 5.254294 0 0 0 1 -0.97853065 -0.02699002 0.20432602 6.600628 0.023487048 -0.9995328 -0.019550202 -0.015112228 0.20475824 -0.014331458 0.9787077 5.254512 0 0 0 1 -0.9772099 -0.022652427 0.21106374 6.602811 0.017882166 -0.99954045 -0.024482584 -0.017415594 0.2115213 -0.020150343 0.97716564 5.2547584 0 0 0 1 -0.9772099 -0.022652427 0.21106374 6.602811 0.017882166 -0.99954045 -0.024482584 -0.017415594 0.2115213 -0.020150343 0.97716564 5.2547584 0 0 0 1</float_array>
        <technique_common>
          <accessor source="#Motion_54_Parts_transform_pose_array_id" count="16" stride="16">
            <param name="TRANSFORM" type="float4x4" />
          </accessor>
        </technique_common>
      </source>
      <sampler id="Motion_54_Parts_transform_samp_id">
        <input semantic="INPUT" source="#Motion_54_Parts_transform_frame_id" />
        <input semantic="INTERPOLATION" source="#Motion_54_Parts_transform_interp_id" />
        <input semantic="OUTPUT" source="#Motion_54_Parts_transform_pose_id" />
      </sampler>
      <channel source="#Motion_54_Parts_transform_samp_id" target="Parts_bone_id/transform" />
    </animation>
    <animation id="Motion_54_RShoulder_transform_id" name="Motion_54_RShoulder_transform">
      <source id="Motion_54_RShoulder_transform_frame_id" name="Motion_54_RShoulder_transform_frame">
        <float_array id="Motion_54_RShoulder_transform_frame_array_id" count="16">0 0.033333335 0.06666667 0.1 0.13333334 0.16666667 0.2 0.23333333 0.26666668 0.3 0.33333334 0.36666667 0.4 0.43333334 0.46666667 0.5</float_array>
        <technique_common>
          <accessor source="#Motion_54_RShoulder_transform_frame_array_id" count="16" stride="1">
            <param name="TIME" type="float" />
          </accessor>
        </technique_common>
      </source>
      <source id="Motion_54_RShoulder_transform_interp_id" name="Motion_54_RShoulder_transform_interp">
        <Name_array id="Motion_54_RShoulder_transform_interp_array_id" count="16">LINEAR LINEAR LINEAR LINEAR LINEAR LINEAR LINEAR LINEAR LINEAR LINEAR LINEAR LINEAR LINEAR LINEAR LINEAR LINEAR</Name_array>
        <technique_common>
          <accessor source="#Motion_54_RShoulder_transform_interp_array_id" count="16" stride="1">
            <param name="INTERPOLATION" type="Name" />
          </accessor>
        </technique_common>
      </source>
      <source id="Motion_54_RShoulder_transform_pose_id" name="Motion_54_RShoulder_transform_pose">
        <float_array id="Motion_54_RShoulder_transform_pose_array_id" count="256">-0.54737127 -0.8349026 -0.057640627 10.605996 0.8299925 -0.5327463 -0.16520905 3.263951 0.10722563 -0.13827196 0.98457277 0.018234 0 0 0 1 -0.546541 -0.83544886 -0.057601817 10.605996 0.83071196 -0.53217447 -0.16342504 3.263951 0.105879046 -0.13716902 0.9848727 0.018234 0 0 0 1 -0.54532146 -0.8362453 -0.057601143 10.605996 0.83170974 -0.53125036 -0.16134323 3.263951 0.1043219 -0.1358914 0.98521596 0.018234 0 0 0 1 -0.5439534 -0.8371343 -0.057623163 10.605996 0.83282715 -0.53021157 -0.15897909 3.263951 0.10253438 -0.1344674 0.9855989 0.018234 0 0 0 1 -0.54268 -0.8379585 -0.057653505 10.605996 0.83390564 -0.5292982 -0.15634856 3.263951 0.10049771 -0.13292482 0.9860178 0.018234 0 0 0 1 -0.54174507 -0.83856165 -0.057679392 10.605996 0.8347876 -0.5287508 -0.15346813 3.263951 0.09819446 -0.13129061 0.9864688 0.018234 0 0 0 1 -0.5413914 -0.83878905 -0.05769015 10.605996 0.83531684 -0.5288092 -0.15035504 3.263951 0.09560908 -0.12959048 0.9869474 0.018234 0 0 0 1 -0.54133415 -0.83882326 -0.05773088 10.605996 0.8356729 -0.5291822 -0.14702713 3.263951 0.09277964 -0.12783495 0.9874463 0.018234 0 0 0 1 -0.54114664 -0.8389357 -0.057858504 10.605996 0.8361247 -0.5294367 -0.14350118 3.263951 0.08975584 -0.12603207 0.9879574 0.018234 0 0 0 1 -0.54086494 -0.83913714 -0.057564996 10.605996 0.8365825 -0.5296018 -0.14018345 3.263951 0.08714662 -0.123978205 0.98845077 0.018234 0 0 0 1 -0.5407934 -0.83917093 -0.057749696 10.605996 0.8366424 -0.52952003 -0.14013754 3.263951 0.08701972 -0.124101266 0.9884465 0.018234 0 0 0 1 -0.54088986 -0.83909166 -0.057992797 10.605996 0.83636785 -0.52927244 -0.14268611 3.263951 0.08903273 -0.12568079 0.98806757 0.018234 0 0 0 1 -0.541085 -0.8389662 -0.057988238 10.605996 0.83588284 -0.5289619 -0.14662553 3.263951 0.09234029 -0.12780826 0.9874909 0.018234 0 0 0 1 -0.54130757 -0.83882827 -0.057903703 10.605996 0.83536893 -0.52868664 -0.15049501 3.263951 0.09562655 -0.12983508 0.98691356 0.018234 0 0 0 1 -0.5414796 -0.838722 -0.057836816 10.605996 0.8350233 -0.5285497 -0.15287608 3.263951 0.0976509 -0.1310744 0.98655146 0.018234 0 0 0 1 -0.5414796 -0.838722 -0.057836816 10.605996 0.8350233 -0.5285497 -0.15287608 3.263951 0.0976509 -0.1310744 0.98655146 0.018234 0 0 0 1</float_array>
        <technique_common>
          <accessor source="#Motion_54_RShoulder_transform_pose_array_id" count="16" stride="16">
            <param name="TRANSFORM" type="float4x4" />
          </accessor>
        </technique_common>
      </source>
      <sampler id="Motion_54_RShoulder_transform_samp_id">
        <input semantic="INPUT" source="#Motion_54_RShoulder_transform_frame_id" />
        <input semantic="INTERPOLATION" source="#Motion_54_RShoulder_transform_interp_id" />
        <input semantic="OUTPUT" source="#Motion_54_RShoulder_transform_pose_id" />
      </sampler>
      <channel source="#Motion_54_RShoulder_transform_samp_id" target="RShoulder_bone_id/transform" />
    </animation>
    <animation id="Motion_54_RArm_transform_id" name="Motion_54_RArm_transform">
      <source id="Motion_54_RArm_transform_frame_id" name="Motion_54_RArm_transform_frame">
        <float_array id="Motion_54_RArm_transform_frame_array_id" count="16">0 0.033333335 0.06666667 0.1 0.13333334 0.16666667 0.2 0.23333333 0.26666668 0.3 0.33333334 0.36666667 0.4 0.43333334 0.46666667 0.5</float_array>
        <technique_common>
          <accessor source="#Motion_54_RArm_transform_frame_array_id" count="16" stride="1">
            <param name="TIME" type="float" />
          </accessor>
        </technique_common>
      </source>
      <source id="Motion_54_RArm_transform_interp_id" name="Motion_54_RArm_transform_interp">
        <Name_array id="Motion_54_RArm_transform_interp_array_id" count="16">LINEAR LINEAR LINEAR LINEAR LINEAR LINEAR LINEAR LINEAR LINEAR LINEAR LINEAR LINEAR LINEAR LINEAR LINEAR LINEAR</Name_array>
        <technique_common>
          <accessor source="#Motion_54_RArm_transform_interp_array_id" count="16" stride="1">
            <param name="INTERPOLATION" type="Name" />
          </accessor>
        </technique_common>
      </source>
      <source id="Motion_54_RArm_transform_pose_id" name="Motion_54_RArm_transform_pose">
        <float_array id="Motion_54_RArm_transform_pose_array_id" count="256">0.69418335 -0.48144373 -0.5350901 8.486271 0.6519991 0.7355417 0.18405315 0 0.30496982 -0.4766449 0.8245017 0 0 0 0 1 0.69357276 -0.48629504 -0.53148276 8.486271 0.65327185 0.73553646 0.179505 0 0.3036325 -0.47170252 0.8278309 0 0 0 0 1 0.69216454 -0.4947789 -0.5254542 8.486271 0.6549547 0.7364632 0.16928194 0 0.30322057 -0.46131963 0.8338114 0 0 0 0 1 0.6896759 -0.50662273 -0.51737857 8.486271 0.6576411 0.73727614 0.15469985 0 0.3030764 -0.44694215 0.8416575 0 0 0 0 1 0.68700117 -0.5198738 -0.50770134 8.486271 0.66055816 0.737945 0.13820322 0 0.30280745 -0.43031204 0.8503759 0 0 0 0 1 0.68506503 -0.5326321 -0.49697977 8.486271 0.6629505 0.7386153 0.122246474 0 0.30196446 -0.41321978 0.8591082 0 0 0 0 1 0.6846497 -0.54356724 -0.48558155 8.486271 0.66416186 0.73968416 0.10842691 0 0.30023965 -0.39673918 0.8674412 0 0 0 0 1 0.68868995 -0.5503833 -0.47200036 8.486271 0.661818 0.7430754 0.099176064 0 0.296147 -0.3806799 0.87600213 0 0 0 0 1 0.6947869 -0.55342925 -0.4593334 8.486271 0.6576718 0.7473772 0.09431353 0 0.29109946 -0.36761844 0.8832428 0 0 0 0 1 0.7006905 -0.5535807 -0.4500902 8.486271 0.65334636 0.75131994 0.093042225 0 0.2866554 -0.3592586 0.88812274 0 0 0 0 1 0.70347303 -0.55114603 -0.44873577 8.486271 0.64972305 0.7546173 0.0917207 0 0.2880723 -0.35607702 0.88894516 0 0 0 0 1 0.70348907 -0.54764885 -0.45297223 8.486271 0.64704424 0.75718796 0.089443594 0 0.29400146 -0.35601568 0.8870265 0 0 0 0 1 0.7011249 -0.5450945 -0.45966926 8.486271 0.6458609 0.7586552 0.08547525 0 0.30213836 -0.35681123 0.8839673 0 0 0 0 1 0.6973828 -0.54451025 -0.46601057 8.486271 0.6462077 0.7589276 0.080277845 0 0.30995613 -0.35712403 0.88112974 0 0 0 0 1 0.694163 -0.54557514 -0.46955878 8.486271 0.64734316 0.7584216 0.07578549 0 0.31477684 -0.3565732 0.8796426 0 0 0 0 1 0.694163 -0.54557514 -0.46955878 8.486271 0.64734316 0.7584216 0.07578549 0 0.31477684 -0.3565732 0.8796426 0 0 0 0 1</float_array>
        <technique_common>
          <accessor source="#Motion_54_RArm_transform_pose_array_id" count="16" stride="16">
            <param name="TRANSFORM" type="float4x4" />
          </accessor>
        </technique_common>
      </source>
      <sampler id="Motion_54_RArm_transform_samp_id">
        <input semantic="INPUT" source="#Motion_54_RArm_transform_frame_id" />
        <input semantic="INTERPOLATION" source="#Motion_54_RArm_transform_interp_id" />
        <input semantic="OUTPUT" source="#Motion_54_RArm_transform_pose_id" />
      </sampler>
      <channel source="#Motion_54_RArm_transform_samp_id" target="RArm_bone_id/transform" />
    </animation>
    <animation id="Motion_54_RForeArm_transform_id" name="Motion_54_RForeArm_transform">
      <source id="Motion_54_RForeArm_transform_frame_id" name="Motion_54_RForeArm_transform_frame">
        <float_array id="Motion_54_RForeArm_transform_frame_array_id" count="16">0 0.033333335 0.06666667 0.1 0.13333334 0.16666667 0.2 0.23333333 0.26666668 0.3 0.33333334 0.36666667 0.4 0.43333334 0.46666667 0.5</float_array>
        <technique_common>
          <accessor source="#Motion_54_RForeArm_transform_frame_array_id" count="16" stride="1">
            <param name="TIME" type="float" />
          </accessor>
        </technique_common>
      </source>
      <source id="Motion_54_RForeArm_transform_interp_id" name="Motion_54_RForeArm_transform_interp">
        <Name_array id="Motion_54_RForeArm_transform_interp_array_id" count="16">LINEAR LINEAR LINEAR LINEAR LINEAR LINEAR LINEAR LINEAR LINEAR LINEAR LINEAR LINEAR LINEAR LINEAR LINEAR LINEAR</Name_array>
        <technique_common>
          <accessor source="#Motion_54_RForeArm_transform_interp_array_id" count="16" stride="1">
            <param name="INTERPOLATION" type="Name" />
          </accessor>
        </technique_common>
      </source>
      <source id="Motion_54_RForeArm_transform_pose_id" name="Motion_54_RForeArm_transform_pose">
        <float_array id="Motion_54_RForeArm_transform_pose_array_id" count="256">0.7618133 -1.7484554E-07 -0.6477967 18.16096 1.3319975E-07 1 -1.13264235E-07 0 0.6477967 -1.6342483E-13 0.7618133 0 0 0 0 1 0.76287645 -1.7486245E-07 -0.6465443 18.16096 1.3330568E-07 1 -1.1316577E-07 0 0.6465443 1.4346213E-10 0.76287645 0 0 0 0 1 0.7647022 -1.7489126E-07 -0.64438385 18.16096 1.3348787E-07 1 -1.1299597E-07 0 0.64438385 3.9084114E-10 0.7647022 0 0 0 0 1 0.76689476 -1.7492533E-07 -0.64177287 18.16096 1.3370706E-07 1 -1.12790815E-07 0 0.64177287 6.891199E-10 0.76689476 0 0 0 0 1 0.7690631 -1.749585E-07 -0.63917285 18.16096 1.3392426E-07 1 -1.1258658E-07 0 0.63917285 9.854162E-10 0.7690631 0 0 0 0 1 0.7707481 -1.7498391E-07 -0.63714004 18.16096 1.3409337E-07 1 -1.1242693E-07 0 0.63714004 1.2165877E-09 0.7707481 0 0 0 0 1 0.7700083 -1.7497278E-07 -0.6380338 18.16096 1.3401909E-07 1 -1.1249712E-07 0 0.6380338 1.1150014E-09 0.7700083 0 0 0 0 1 0.7547085 -1.7472927E-07 -0.6560602 18.16096 1.324944E-07 1 -1.1391424E-07 0 0.6560602 -9.522658E-10 0.7547085 0 0 0 0 1 0.7326081 -1.7433442E-07 -0.6806507 18.16096 1.303276E-07 1 -1.1585289E-07 0 0.6806507 -3.8328167E-09 0.7326081 0 0 0 0 1 0.70748806 -1.7382983E-07 -0.7067253 18.16096 1.2790973E-07 1 -1.1791741E-07 0 0.7067253 -6.9718844E-09 0.70748806 0 0 0 0 1 0.6840271 -1.7331021E-07 -0.72945666 18.16096 1.2568924E-07 1 -1.1972662E-07 0 0.72945666 -9.7885895E-09 0.6840271 0 0 0 0 1 0.663121 -1.7281131E-07 -0.74851227 18.16096 1.2373759E-07 1 -1.2125162E-07 0 0.74851227 -1.2214613E-08 0.663121 0 0 0 0 1 0.6455343 -1.7236731E-07 -0.7637313 18.16096 1.2211358E-07 1 -1.2247608E-07 0 0.7637313 -1.4199461E-08 0.6455343 0 0 0 0 1 0.6320109 -1.7201164E-07 -0.7749595 18.16096 1.208749E-07 1 -1.2338371E-07 0 0.7749595 -1.5693303E-08 0.6320109 0 0 0 0 1 0.6232557 -1.7177504E-07 -0.7820181 18.16096 1.200774E-07 1 -1.2395635E-07 0 0.7820181 -1.6646183E-08 0.6232557 0 0 0 0 1 0.6232557 -1.7177504E-07 -0.7820181 18.16096 1.200774E-07 1 -1.2395635E-07 0 0.7820181 -1.6646183E-08 0.6232557 0 0 0 0 1</float_array>
        <technique_common>
          <accessor source="#Motion_54_RForeArm_transform_pose_array_id" count="16" stride="16">
            <param name="TRANSFORM" type="float4x4" />
          </accessor>
        </technique_common>
      </source>
      <sampler id="Motion_54_RForeArm_transform_samp_id">
        <input semantic="INPUT" source="#Motion_54_RForeArm_transform_frame_id" />
        <input semantic="INTERPOLATION" source="#Motion_54_RForeArm_transform_interp_id" />
        <input semantic="OUTPUT" source="#Motion_54_RForeArm_transform_pose_id" />
      </sampler>
      <channel source="#Motion_54_RForeArm_transform_samp_id" target="RForeArm_bone_id/transform" />
    </animation>
    <animation id="Motion_54_RHand_transform_id" name="Motion_54_RHand_transform">
      <source id="Motion_54_RHand_transform_frame_id" name="Motion_54_RHand_transform_frame">
        <float_array id="Motion_54_RHand_transform_frame_array_id" count="16">0 0.033333335 0.06666667 0.1 0.13333334 0.16666667 0.2 0.23333333 0.26666668 0.3 0.33333334 0.36666667 0.4 0.43333334 0.46666667 0.5</float_array>
        <technique_common>
          <accessor source="#Motion_54_RHand_transform_frame_array_id" count="16" stride="1">
            <param name="TIME" type="float" />
          </accessor>
        </technique_common>
      </source>
      <source id="Motion_54_RHand_transform_interp_id" name="Motion_54_RHand_transform_interp">
        <Name_array id="Motion_54_RHand_transform_interp_array_id" count="16">LINEAR LINEAR LINEAR LINEAR LINEAR LINEAR LINEAR LINEAR LINEAR LINEAR LINEAR LINEAR LINEAR LINEAR LINEAR LINEAR</Name_array>
        <technique_common>
          <accessor source="#Motion_54_RHand_transform_interp_array_id" count="16" stride="1">
            <param name="INTERPOLATION" type="Name" />
          </accessor>
        </technique_common>
      </source>
      <source id="Motion_54_RHand_transform_pose_id" name="Motion_54_RHand_transform_pose">
        <float_array id="Motion_54_RHand_transform_pose_array_id" count="256">0.7593985 0.6504702 0.014227003 18.16096 -0.42540544 0.47986174 0.76730883 0 0.49228457 -0.5887455 0.64111984 0 0 0 0 1 0.7605436 0.6491822 0.011655331 18.16096 -0.42042932 0.47871208 0.7707619 0 0.49478537 -0.59109825 0.63701665 0 0 0 0 1 0.7621625 0.6473447 0.007284403 18.16096 -0.41223463 0.47661424 0.7764673 0 0.49917018 -0.59479713 0.6301154 0 0 0 0 1 0.76419604 0.64498365 0.0007022917 18.16096 -0.40008605 0.4731794 0.78487736 0 0.50590074 -0.60008115 0.6196508 0 0 0 0 1 0.7667372 0.6419235 -0.006942034 18.16096 -0.38558656 0.4691509 0.79449385 0 0.51326114 -0.60649127 0.6072326 0 0 0 0 1 0.76963633 0.63832605 -0.0141350925 18.16096 -0.37064433 0.46469712 0.8041638 0 0.5198872 -0.6136745 0.5942397 0 0 0 0 1 0.7729585 0.63415253 -0.019639999 18.16096 -0.3562219 0.45939314 0.813673 0 0.52501535 -0.6219393 0.5809909 0 0 0 0 1 0.77837825 0.6275361 -0.018046856 18.16096 -0.3456233 0.45234507 0.8221486 0 0.5240914 -0.6337052 0.5689867 0 0 0 0 1 0.78473043 0.61972857 -0.01160267 18.16096 -0.33817476 0.44375074 0.82989347 0 0.51945734 -0.64731896 0.55780125 0 0 0 0 1 0.7911725 0.6115843 -0.0032750368 18.16096 -0.3322683 0.43432033 0.83723575 0 0.51346266 -0.66130966 0.5468324 0 0 0 0 1 0.7974719 0.603344 0.003820926 18.16096 -0.32521856 0.42450738 0.8450008 0 0.5082041 -0.67510706 0.53475136 0 0 0 0 1 0.8035181 0.5952318 0.0075980574 18.16096 -0.31510547 0.41447043 0.8537698 0 0.5050418 -0.6884136 0.5205953 0 0 0 0 1 0.80964243 0.5868666 0.008166119 18.16096 -0.30207384 0.40473187 0.8631011 0 0.50322014 -0.70127 0.5049651 0 0 0 0 1 0.8152959 0.5790058 0.0067070127 18.16096 -0.28789163 0.39527494 0.87228215 0 0.5024053 -0.7130989 0.48895693 0 0 0 0 1 0.8197509 0.5727055 0.00409469 18.16096 -0.27511284 0.38749623 0.8798634 0 0.502316 -0.7223953 0.47520906 0 0 0 0 1 0.8197509 0.5727055 0.00409469 18.16096 -0.27511284 0.38749623 0.8798634 0 0.502316 -0.7223953 0.47520906 0 0 0 0 1</float_array>
        <technique_common>
          <accessor source="#Motion_54_RHand_transform_pose_array_id" count="16" stride="16">
            <param name="TRANSFORM" type="float4x4" />
          </accessor>
        </technique_common>
      </source>
      <sampler id="Motion_54_RHand_transform_samp_id">
        <input semantic="INPUT" source="#Motion_54_RHand_transform_frame_id" />
        <input semantic="INTERPOLATION" source="#Motion_54_RHand_transform_interp_id" />
        <input semantic="OUTPUT" source="#Motion_54_RHand_transform_pose_id" />
      </sampler>
      <channel source="#Motion_54_RHand_transform_samp_id" target="RHand_bone_id/transform" />
    </animation>
    <animation id="Motion_54_LShoulder_transform_id" name="Motion_54_LShoulder_transform">
      <source id="Motion_54_LShoulder_transform_frame_id" name="Motion_54_LShoulder_transform_frame">
        <float_array id="Motion_54_LShoulder_transform_frame_array_id" count="16">0 0.033333335 0.06666667 0.1 0.13333334 0.16666667 0.2 0.23333333 0.26666668 0.3 0.33333334 0.36666667 0.4 0.43333334 0.46666667 0.5</float_array>
        <technique_common>
          <accessor source="#Motion_54_LShoulder_transform_frame_array_id" count="16" stride="1">
            <param name="TIME" type="float" />
          </accessor>
        </technique_common>
      </source>
      <source id="Motion_54_LShoulder_transform_interp_id" name="Motion_54_LShoulder_transform_interp">
        <Name_array id="Motion_54_LShoulder_transform_interp_array_id" count="16">LINEAR LINEAR LINEAR LINEAR LINEAR LINEAR LINEAR LINEAR LINEAR LINEAR LINEAR LINEAR LINEAR LINEAR LINEAR LINEAR</Name_array>
        <technique_common>
          <accessor source="#Motion_54_LShoulder_transform_interp_array_id" count="16" stride="1">
            <param name="INTERPOLATION" type="Name" />
          </accessor>
        </technique_common>
      </source>
      <source id="Motion_54_LShoulder_transform_pose_id" name="Motion_54_LShoulder_transform_pose">
        <float_array id="Motion_54_LShoulder_transform_pose_array_id" count="256">-0.536149 0.8421334 -0.057927787 10.605996 -0.8375006 -0.52210903 0.16122957 -3.263951 0.105532184 0.13495763 0.9852154 0.018234 0 0 0 1 -0.5292605 0.84646636 -0.058121666 10.605996 -0.8430901 -0.51698136 0.1480857 -3.263951 0.09530175 0.1273777 0.98726517 0.018234 0 0 0 1 -0.5121217 0.8569129 -0.05858305 10.605996 -0.85614616 -0.5038128 0.114833295 -3.263951 0.068887234 0.10896425 0.9916559 0.018234 0 0 0 1 -0.48914504 0.8702199 -0.058775164 10.605996 -0.8714945 -0.4849224 0.07312779 -3.263951 0.035135858 0.08699232 0.9955892 0.018234 0 0 0 1 -0.46648562 0.88257575 -0.058744535 10.605996 -0.8845241 -0.46524107 0.034168977 -3.263951 0.002826335 0.0679003 0.9976881 0.018234 0 0 0 1 -0.4492706 0.89147776 -0.05850859 10.605996 -0.89320403 -0.44956648 0.0087474715 -3.263951 -0.018505327 0.05619009 0.9982486 0.018234 0 0 0 1 -0.44361448 0.89432836 -0.05816695 10.605996 -0.8962047 -0.44302607 0.023357516 -3.263951 -0.0048801694 0.06249121 0.9980336 0.018234 0 0 0 1 -0.4436078 0.8943217 -0.058314413 10.605996 -0.8961053 -0.44156575 0.04488603 -3.263951 0.014392899 0.07216766 0.99728864 0.018234 0 0 0 1 -0.44416702 0.89403266 -0.058493193 10.605996 -0.8951779 -0.44014096 0.070232004 -3.263951 0.037044447 0.08355655 0.99581426 0.018234 0 0 0 1 -0.446764 0.8927263 -0.058668304 10.605996 -0.8926234 -0.44037795 0.09638882 -3.263951 0.0602126 0.095431745 0.99361324 0.018234 0 0 0 1 -0.45857573 0.886679 -0.059231997 10.605996 -0.88477796 -0.4493401 0.12353633 -3.263951 0.08292176 0.10905795 0.9905707 0.018234 0 0 0 1 -0.4736669 0.87868863 -0.05954831 10.605996 -0.87516373 -0.46203768 0.14356032 -3.263951 0.098631255 0.1201143 0.9878484 0.018234 0 0 0 1 -0.4927814 0.86812013 -0.05944694 10.605996 -0.8625619 -0.47833657 0.16486658 -3.263951 0.114688344 0.13251986 0.98452276 0.018234 0 0 0 1 -0.51186955 0.8570521 -0.058745667 10.605996 -0.8486941 -0.49391472 0.18912025 -3.263951 0.13307057 0.14666201 0.9801951 0.018234 0 0 0 1 -0.5268322 0.84801286 -0.05763595 10.605996 -0.83566755 -0.5043886 0.21737494 -3.263951 0.15526584 0.16268463 0.974385 0.018234 0 0 0 1 -0.5268322 0.84801286 -0.05763595 10.605996 -0.83566755 -0.5043886 0.21737494 -3.263951 0.15526584 0.16268463 0.974385 0.018234 0 0 0 1</float_array>
        <technique_common>
          <accessor source="#Motion_54_LShoulder_transform_pose_array_id" count="16" stride="16">
            <param name="TRANSFORM" type="float4x4" />
          </accessor>
        </technique_common>
      </source>
      <sampler id="Motion_54_LShoulder_transform_samp_id">
        <input semantic="INPUT" source="#Motion_54_LShoulder_transform_frame_id" />
        <input semantic="INTERPOLATION" source="#Motion_54_LShoulder_transform_interp_id" />
        <input semantic="OUTPUT" source="#Motion_54_LShoulder_transform_pose_id" />
      </sampler>
      <channel source="#Motion_54_LShoulder_transform_samp_id" target="LShoulder_bone_id/transform" />
    </animation>
    <animation id="Motion_54_LArm_transform_id" name="Motion_54_LArm_transform">
      <source id="Motion_54_LArm_transform_frame_id" name="Motion_54_LArm_transform_frame">
        <float_array id="Motion_54_LArm_transform_frame_array_id" count="16">0 0.033333335 0.06666667 0.1 0.13333334 0.16666667 0.2 0.23333333 0.26666668 0.3 0.33333334 0.36666667 0.4 0.43333334 0.46666667 0.5</float_array>
        <technique_common>
          <accessor source="#Motion_54_LArm_transform_frame_array_id" count="16" stride="1">
            <param name="TIME" type="float" />
          </accessor>
        </technique_common>
      </source>
      <source id="Motion_54_LArm_transform_interp_id" name="Motion_54_LArm_transform_interp">
        <Name_array id="Motion_54_LArm_transform_interp_array_id" count="16">LINEAR LINEAR LINEAR LINEAR LINEAR LINEAR LINEAR LINEAR LINEAR LINEAR LINEAR LINEAR LINEAR LINEAR LINEAR LINEAR</Name_array>
        <technique_common>
          <accessor source="#Motion_54_LArm_transform_interp_array_id" count="16" stride="1">
            <param name="INTERPOLATION" type="Name" />
          </accessor>
        </technique_common>
      </source>
      <source id="Motion_54_LArm_transform_pose_id" name="Motion_54_LArm_transform_pose">
        <float_array id="Motion_54_LArm_transform_pose_array_id" count="256">0.7325854 0.46443376 -0.49761423 8.486271 -0.62552047 0.7476259 -0.22311349 0 0.26840785 0.47471762 0.8382126 0 0 0 0 1 0.7381456 0.4753739 -0.4787073 8.486271 -0.62735474 0.7446396 -0.22789896 0 0.2481272 0.46854192 0.8478805 0 0 0 0 1 0.7483431 0.5032766 -0.43208253 8.486271 -0.63240707 0.73785496 -0.23586302 0 0.2001099 0.44975847 0.8704443 0 0 0 0 1 0.75278586 0.5426997 -0.37254593 8.486271 -0.6419637 0.73042774 -0.23314783 0 0.1455886 0.41467133 0.8982492 0 0 0 0 1 0.7476066 0.58883756 -0.30717206 8.486271 -0.65694433 0.72356266 -0.21185192 0 0.097511835 0.36017683 0.9277737 0 0 0 0 1 0.7317815 0.6368618 -0.24269915 8.486271 -0.678164 0.7158209 -0.1664151 0 0.06774571 0.28636932 0.95572126 0 0 0 0 1 0.71919286 0.6707146 -0.18139333 8.486271 -0.6888294 0.72245646 -0.05975479 0 0.09097037 0.16792428 0.9815935 0 0 0 0 1 0.7154709 0.6875635 -0.1239265 8.486271 -0.68774885 0.72434807 0.04818153 0 0.12289377 0.050757814 0.99112093 0 0 0 0 1 0.7197271 0.6902939 -0.07407594 8.486271 -0.6769649 0.72145975 0.14565179 0 0.15398534 -0.054682724 0.9865588 0 0 0 0 1 0.73068774 0.68201685 -0.030797027 8.486271 -0.6591668 0.71651465 0.228267 0 0.17774847 -0.14649151 0.97311133 0 0 0 0 1 0.7452619 0.66644067 0.021010913 8.486271 -0.6390354 0.7049117 0.30778763 0 0.19031134 -0.24280913 0.9512231 0 0 0 0 1 0.75916547 0.64624 0.077728294 8.486271 -0.62291336 0.6866885 0.37475044 0 0.18880358 -0.3329156 0.9238617 0 0 0 0 1 0.7798849 0.61262393 0.12834153 8.486271 -0.5995523 0.67226577 0.43427628 0 0.17976841 -0.41563296 0.8915899 0 0 0 0 1 0.8041276 0.5722937 0.16080666 8.486271 -0.56806463 0.66006964 0.49153906 0 0.17516112 -0.48660868 0.85588 0 0 0 0 1 0.8264029 0.5371307 0.16896383 8.486271 -0.5322391 0.6471977 0.5457625 0 0.18379278 -0.5409488 0.82072806 0 0 0 0 1 0.8264029 0.5371307 0.16896383 8.486271 -0.5322391 0.6471977 0.5457625 0 0.18379278 -0.5409488 0.82072806 0 0 0 0 1</float_array>
        <technique_common>
          <accessor source="#Motion_54_LArm_transform_pose_array_id" count="16" stride="16">
            <param name="TRANSFORM" type="float4x4" />
          </accessor>
        </technique_common>
      </source>
      <sampler id="Motion_54_LArm_transform_samp_id">
        <input semantic="INPUT" source="#Motion_54_LArm_transform_frame_id" />
        <input semantic="INTERPOLATION" source="#Motion_54_LArm_transform_interp_id" />
        <input semantic="OUTPUT" source="#Motion_54_LArm_transform_pose_id" />
      </sampler>
      <channel source="#Motion_54_LArm_transform_samp_id" target="LArm_bone_id/transform" />
    </animation>
    <animation id="Motion_54_LForeArm_transform_id" name="Motion_54_LForeArm_transform">
      <source id="Motion_54_LForeArm_transform_frame_id" name="Motion_54_LForeArm_transform_frame">
        <float_array id="Motion_54_LForeArm_transform_frame_array_id" count="16">0 0.033333335 0.06666667 0.1 0.13333334 0.16666667 0.2 0.23333333 0.26666668 0.3 0.33333334 0.36666667 0.4 0.43333334 0.46666667 0.5</float_array>
        <technique_common>
          <accessor source="#Motion_54_LForeArm_transform_frame_array_id" count="16" stride="1">
            <param name="TIME" type="float" />
          </accessor>
        </technique_common>
      </source>
      <source id="Motion_54_LForeArm_transform_interp_id" name="Motion_54_LForeArm_transform_interp">
        <Name_array id="Motion_54_LForeArm_transform_interp_array_id" count="16">LINEAR LINEAR LINEAR LINEAR LINEAR LINEAR LINEAR LINEAR LINEAR LINEAR LINEAR LINEAR LINEAR LINEAR LINEAR LINEAR</Name_array>
        <technique_common>
          <accessor source="#Motion_54_LForeArm_transform_interp_array_id" count="16" stride="1">
            <param name="INTERPOLATION" type="Name" />
          </accessor>
        </technique_common>
      </source>
      <source id="Motion_54_LForeArm_transform_pose_id" name="Motion_54_LForeArm_transform_pose">
        <float_array id="Motion_54_LForeArm_transform_pose_array_id" count="256">0.7005325 -0.00072494906 -0.7136201 18.16096 0.0006493287 0.9999997 -0.0003784548 0 0.71362025 -0.00019825419 0.7005328 0 0 0 0 1 0.66082823 -0.0009574449 -0.7505366 18.16096 0.00083032786 0.9999995 -0.0005445974 0 0.75053674 -0.00026330605 0.6608287 0 0 0 0 1 0.56142974 -0.0011676806 -0.8275236 18.16096 0.0009792713 0.9999992 -0.0007466709 0 0.8275238 -0.00039116666 0.56143045 0 0 0 0 1 0.43523312 -0.0013458561 -0.9003168 18.16096 0.0010920675 0.9999989 -0.00096693827 0 0.90031713 -0.00056236313 0.43523413 0 0 0 0 1 0.31180662 -0.0014919855 -0.95014435 18.16096 0.0011770907 0.9999986 -0.0011839871 0 0.9501448 -0.0007492312 0.31180793 0 0 0 0 1 0.21439445 -0.0016158418 -0.97674584 18.16096 0.0012503563 0.9999983 -0.0013798571 0 0.9767463 -0.0009254467 0.21439606 0 0 0 0 1 0.19043535 -0.0017561963 -0.98169816 18.16096 0.0013603048 0.9999979 -0.0015250539 0 0.98169875 -0.0010449848 0.19043732 0 0 0 0 1 0.18029189 -0.0018773016 -0.98361146 18.16096 0.0014600139 0.9999976 -0.0016409614 0 0.9836122 -0.001140234 0.18029422 0 0 0 0 1 0.18431765 -0.0019769312 -0.98286486 18.16096 0.0015470718 0.9999973 -0.0017212676 0 0.9828656 -0.0012033023 0.18432021 0 0 0 0 1 0.20225006 -0.0020510054 -0.9793318 18.16096 0.0016169734 0.99999714 -0.0017603498 0 0.9793326 -0.0012275223 0.2022528 0 0 0 0 1 0.23356074 -0.0020933254 -0.97234 18.16096 0.0016629755 0.9999971 -0.0017534129 0 0.9723408 -0.001207449 0.23356354 0 0 0 0 1 0.26288456 -0.0020830645 -0.96482503 18.16096 0.0016601318 0.99999714 -0.0017066674 0 0.96482587 -0.0011530801 0.2628873 0 0 0 0 1 0.29152405 -0.0020134742 -0.9565614 18.16096 0.0016011613 0.99999744 -0.0016169291 0 0.9565622 -0.0010602352 0.2915265 0 0 0 0 1 0.33337605 -0.0019180176 -0.942792 18.16096 0.0015222284 0.99999774 -0.0014961294 0 0.9427927 -0.0009363711 0.3333782 0 0 0 0 1 0.39269334 -0.0018236304 -0.91966766 18.16096 0.0014509808 0.99999803 -0.001363358 0 0.9196684 -0.00079903845 0.3926952 0 0 0 0 1 0.39269334 -0.0018236304 -0.91966766 18.16096 0.0014509808 0.99999803 -0.001363358 0 0.9196684 -0.00079903845 0.3926952 0 0 0 0 1</float_array>
        <technique_common>
          <accessor source="#Motion_54_LForeArm_transform_pose_array_id" count="16" stride="16">
            <param name="TRANSFORM" type="float4x4" />
          </accessor>
        </technique_common>
      </source>
      <sampler id="Motion_54_LForeArm_transform_samp_id">
        <input semantic="INPUT" source="#Motion_54_LForeArm_transform_frame_id" />
        <input semantic="INTERPOLATION" source="#Motion_54_LForeArm_transform_interp_id" />
        <input semantic="OUTPUT" source="#Motion_54_LForeArm_transform_pose_id" />
      </sampler>
      <channel source="#Motion_54_LForeArm_transform_samp_id" target="LForeArm_bone_id/transform" />
    </animation>
    <animation id="Motion_54_LHand_transform_id" name="Motion_54_LHand_transform">
      <source id="Motion_54_LHand_transform_frame_id" name="Motion_54_LHand_transform_frame">
        <float_array id="Motion_54_LHand_transform_frame_array_id" count="16">0 0.033333335 0.06666667 0.1 0.13333334 0.16666667 0.2 0.23333333 0.26666668 0.3 0.33333334 0.36666667 0.4 0.43333334 0.46666667 0.5</float_array>
        <technique_common>
          <accessor source="#Motion_54_LHand_transform_frame_array_id" count="16" stride="1">
            <param name="TIME" type="float" />
          </accessor>
        </technique_common>
      </source>
      <source id="Motion_54_LHand_transform_interp_id" name="Motion_54_LHand_transform_interp">
        <Name_array id="Motion_54_LHand_transform_interp_array_id" count="16">LINEAR LINEAR LINEAR LINEAR LINEAR LINEAR LINEAR LINEAR LINEAR LINEAR LINEAR LINEAR LINEAR LINEAR LINEAR LINEAR</Name_array>
        <technique_common>
          <accessor source="#Motion_54_LHand_transform_interp_array_id" count="16" stride="1">
            <param name="INTERPOLATION" type="Name" />
          </accessor>
        </technique_common>
      </source>
      <source id="Motion_54_LHand_transform_pose_id" name="Motion_54_LHand_transform_pose">
        <float_array id="Motion_54_LHand_transform_pose_array_id" count="256">0.84280276 -0.53807414 0.012636557 18.16096 0.36862147 0.55995786 -0.74200094 0 0.3921756 0.6300186 0.67027974 0 0 0 0 1 0.8693713 -0.49415803 0.0012049824 18.16096 0.3420462 0.59999776 -0.7231923 0 0.35664827 0.6291347 0.6906457 0 0 0 0 1 0.92247325 -0.38602912 -0.0049633384 18.16096 0.28639674 0.69289505 -0.66172 0 0.25888228 0.6089975 0.74973464 0 0 0 0 1 0.9629409 -0.26798198 0.030505333 18.16096 0.23841454 0.7928536 -0.56084013 0 0.1261088 0.5473288 0.82736194 0 0 0 0 1 0.97569925 -0.1988535 0.09202327 18.16096 0.21896353 0.8693043 -0.4431309 0 0.008121897 0.4525122 0.8917212 0 0 0 0 1 0.973864 -0.18484783 0.13198528 18.16096 0.21943173 0.91571885 -0.33661363 0 -0.0586391 0.35677764 0.9323471 0 0 0 0 1 0.95978755 -0.25762087 0.111531936 18.16096 0.26992583 0.95604485 -0.114535294 0 -0.077122845 0.1400349 0.98713845 0 0 0 0 1 0.95063764 -0.30832914 0.034945853 18.16096 0.30542704 0.949633 0.070082314 0 -0.054794155 -0.055949476 0.99692893 0 0 0 0 1 0.94055116 -0.32930118 -0.08321185 18.16096 0.3396454 0.9103403 0.23647735 0 -0.0021211728 -0.25068155 0.9680673 0 0 0 0 1 0.9309209 -0.30707538 -0.19771427 18.16096 0.3616312 0.8507328 0.3814139 0 0.05107916 -0.42656586 0.903013 0 0 0 0 1 0.92928845 -0.26081938 -0.26152676 18.16096 0.36248422 0.779945 0.51018715 0 0.07090978 -0.56891036 0.8193368 0 0 0 0 1 0.9376206 -0.23020397 -0.26052597 18.16096 0.3461482 0.6879612 0.6378799 0 0.032389276 -0.6882699 0.7247313 0 0 0 0 1 0.9408209 -0.24732862 -0.23169939 18.16096 0.33446357 0.5672931 0.7525375 0 -0.054682598 -0.785498 0.61644363 0 0 0 0 1 0.92805904 -0.30646384 -0.21162778 18.16096 0.33428764 0.4349466 0.83610606 0 -0.16418949 -0.8467003 0.50610316 0 0 0 0 1 0.90488887 -0.37293652 -0.2051695 18.16096 0.33353314 0.32178527 0.8861207 0 -0.26444623 -0.87027156 0.41556662 0 0 0 0 1 0.90488887 -0.37293652 -0.2051695 18.16096 0.33353314 0.32178527 0.8861207 0 -0.26444623 -0.87027156 0.41556662 0 0 0 0 1</float_array>
        <technique_common>
          <accessor source="#Motion_54_LHand_transform_pose_array_id" count="16" stride="16">
            <param name="TRANSFORM" type="float4x4" />
          </accessor>
        </technique_common>
      </source>
      <sampler id="Motion_54_LHand_transform_samp_id">
        <input semantic="INPUT" source="#Motion_54_LHand_transform_frame_id" />
        <input semantic="INTERPOLATION" source="#Motion_54_LHand_transform_interp_id" />
        <input semantic="OUTPUT" source="#Motion_54_LHand_transform_pose_id" />
      </sampler>
      <channel source="#Motion_54_LHand_transform_samp_id" target="LHand_bone_id/transform" />
    </animation>
    <animation id="Motion_54_Neck_transform_id" name="Motion_54_Neck_transform">
      <source id="Motion_54_Neck_transform_frame_id" name="Motion_54_Neck_transform_frame">
        <float_array id="Motion_54_Neck_transform_frame_array_id" count="16">0 0.033333335 0.06666667 0.1 0.13333334 0.16666667 0.2 0.23333333 0.26666668 0.3 0.33333334 0.36666667 0.4 0.43333334 0.46666667 0.5</float_array>
        <technique_common>
          <accessor source="#Motion_54_Neck_transform_frame_array_id" count="16" stride="1">
            <param name="TIME" type="float" />
          </accessor>
        </technique_common>
      </source>
      <source id="Motion_54_Neck_transform_interp_id" name="Motion_54_Neck_transform_interp">
        <Name_array id="Motion_54_Neck_transform_interp_array_id" count="16">LINEAR LINEAR LINEAR LINEAR LINEAR LINEAR LINEAR LINEAR LINEAR LINEAR LINEAR LINEAR LINEAR LINEAR LINEAR LINEAR</Name_array>
        <technique_common>
          <accessor source="#Motion_54_Neck_transform_interp_array_id" count="16" stride="1">
            <param name="INTERPOLATION" type="Name" />
          </accessor>
        </technique_common>
      </source>
      <source id="Motion_54_Neck_transform_pose_id" name="Motion_54_Neck_transform_pose">
        <float_array id="Motion_54_Neck_transform_pose_array_id" count="256">0.98579586 0.0061504943 -0.1678354 10.310965 -0.00532965 0.9999715 0.005340781 0 0.16786347 -0.0043704156 0.98580056 0 0 0 0 1 0.9863649 0.0057881763 -0.16447133 10.310965 -0.0046897205 0.99996406 0.007066233 0 0.16450632 -0.00619856 0.98635656 0 0 0 0 1 0.9869293 0.00539879 -0.16106322 10.310965 -0.0038496298 0.9999433 0.009928841 0 0.16110769 -0.0091790315 0.98689413 0 0 0 0 1 0.9874204 0.0050082086 -0.15803769 10.310965 -0.002898544 0.9999036 0.013576788 0 0.15809047 -0.012947918 0.98733974 0 0 0 0 1 0.9877743 0.0046483604 -0.1558215 10.310965 -0.0019198147 0.9998423 0.017656637 0 0.15587899 -0.017141623 0.9876274 0 0 0 0 1 0.9879282 0.004894405 -0.15483521 10.310965 -0.0015276977 0.99976 0.021855334 0 0.154905 -0.02135496 0.98769855 0 0 0 0 1 0.987813 0.007088069 -0.15548404 10.310965 -0.0030933197 0.99965924 0.025919266 0 0.15561478 -0.025122426 0.9874983 0 0 0 0 1 0.9873346 0.012434864 -0.15816365 10.310965 -0.00780914 0.99952435 0.02983439 0 0.15845941 -0.028221402 0.9869621 0 0 0 0 1 0.98649395 0.0206886 -0.16248591 10.310965 -0.015615427 0.99935174 0.03243767 0 0.16305168 -0.02946228 0.9861775 0 0 0 0 1 0.98550326 0.029818725 -0.1670155 10.310965 -0.02478654 0.99917614 0.032134406 0 0.1678361 -0.027528826 0.9854305 0 0 0 0 1 0.9845957 0.037776746 -0.17071679 10.310965 -0.03459928 0.9991689 0.021550596 0 0.17138901 -0.015311945 0.9850844 0 0 0 0 1 0.98399806 0.043375667 -0.17281877 10.310965 -0.043465424 0.9990496 0.0032667047 0 0.1727962 0.0042972094 0.9849482 0 0 0 0 1 0.9850621 0.046394024 -0.16583188 10.310965 -0.05015995 0.9985681 -0.01859155 0 0.1647319 0.026631948 0.9859788 0 0 0 0 1 0.98767173 0.048152927 -0.14894912 10.310965 -0.054622885 0.99771935 -0.039653618 0 0.1467 0.04730079 0.98804945 0 0 0 0 1 0.99013674 0.049511023 -0.1310646 10.310965 -0.057280928 0.99677557 -0.05619042 0 0.12785995 0.0631437 0.9897801 0 0 0 0 1 0.99013674 0.049511023 -0.1310646 10.310965 -0.057280928 0.99677557 -0.05619042 0 0.12785995 0.0631437 0.9897801 0 0 0 0 1</float_array>
        <technique_common>
          <accessor source="#Motion_54_Neck_transform_pose_array_id" count="16" stride="16">
            <param name="TRANSFORM" type="float4x4" />
          </accessor>
        </technique_common>
      </source>
      <sampler id="Motion_54_Neck_transform_samp_id">
        <input semantic="INPUT" source="#Motion_54_Neck_transform_frame_id" />
        <input semantic="INTERPOLATION" source="#Motion_54_Neck_transform_interp_id" />
        <input semantic="OUTPUT" source="#Motion_54_Neck_transform_pose_id" />
      </sampler>
      <channel source="#Motion_54_Neck_transform_samp_id" target="Neck_bone_id/transform" />
    </animation>
    <animation id="Motion_54_Head_transform_id" name="Motion_54_Head_transform">
      <source id="Motion_54_Head_transform_frame_id" name="Motion_54_Head_transform_frame">
        <float_array id="Motion_54_Head_transform_frame_array_id" count="16">0 0.033333335 0.06666667 0.1 0.13333334 0.16666667 0.2 0.23333333 0.26666668 0.3 0.33333334 0.36666667 0.4 0.43333334 0.46666667 0.5</float_array>
        <technique_common>
          <accessor source="#Motion_54_Head_transform_frame_array_id" count="16" stride="1">
            <param name="TIME" type="float" />
          </accessor>
        </technique_common>
      </source>
      <source id="Motion_54_Head_transform_interp_id" name="Motion_54_Head_transform_interp">
        <Name_array id="Motion_54_Head_transform_interp_array_id" count="16">LINEAR LINEAR LINEAR LINEAR LINEAR LINEAR LINEAR LINEAR LINEAR LINEAR LINEAR LINEAR LINEAR LINEAR LINEAR LINEAR</Name_array>
        <technique_common>
          <accessor source="#Motion_54_Head_transform_interp_array_id" count="16" stride="1">
            <param name="INTERPOLATION" type="Name" />
          </accessor>
        </technique_common>
      </source>
      <source id="Motion_54_Head_transform_pose_id" name="Motion_54_Head_transform_pose">
        <float_array id="Motion_54_Head_transform_pose_array_id" count="256">0.9819589 0.00027734012 0.18909407 5.657613 -0.0009070695 0.99999434 0.0032437106 0 -0.1890921 -0.0033567122 0.9819536 0 0 0 0 1 0.9818463 -0.0006778096 0.18967709 5.657613 -0.00031457667 0.9999864 0.005201821 0 -0.18967804 -0.005167057 0.98183274 0 0 0 0 1 0.9810835 -0.001847263 0.19357608 5.657613 0.00047247228 0.99997437 0.0071479953 0 -0.19358431 -0.0069213207 0.98105925 0 0 0 0 1 0.9795059 -0.0030749377 0.20139204 5.657613 0.0012892617 0.9999587 0.0089972345 0 -0.20141138 -0.008553197 0.9794694 0 0 0 0 1 0.9774652 -0.004191246 0.21105492 5.657613 0.0019855127 0.9999412 0.010661823 0 -0.2110872 -0.010002508 0.97741604 0 0 0 0 1 0.9752188 -0.0050223367 0.22118574 5.657613 0.0024168082 0.9999245 0.012048883 0 -0.22122955 -0.011215733 0.97515726 0 0 0 0 1 0.9728799 -0.0063607777 0.23122351 5.657613 0.0034061726 0.9999074 0.0131750945 0 -0.23128591 -0.012030197 0.97281146 0 0 0 0 1 0.9678386 -0.008589389 0.25142536 5.657613 0.0052261655 0.99988776 0.014041306 0 -0.25151774 -0.0122757275 0.9677748 0 0 0 0 1 0.96302587 -0.010744501 0.2691947 5.657613 0.0071122367 0.99987006 0.014464761 0 -0.26931515 -0.012015362 0.9629772 0 0 0 0 1 0.9588646 -0.011935251 0.2836127 5.657613 0.008234123 0.9998647 0.014238525 0 -0.28374425 -0.011317516 0.9588332 0 0 0 0 1 0.9551349 -0.011290382 0.29595578 5.657613 0.007747376 0.99988365 0.013141418 0 -0.29606968 -0.010258947 0.95511127 0 0 0 0 1 0.9521546 -0.007932588 0.3055138 5.657613 0.004822126 0.9999286 0.010934409 0 -0.3055787 -0.008938022 0.95212483 0 0 0 0 1 0.95101494 -0.002061328 0.30913803 5.657613 -0.0004216096 0.9999682 0.00796479 0 -0.3091446 -0.0077049695 0.9509838 0 0 0 0 1 0.9522892 0.004235474 0.30516765 5.657613 -0.0060710567 0.9999687 0.005066267 0 -0.30513665 -0.006677242 0.9522852 0 0 0 0 1 0.9527429 0.00897467 0.3036453 5.657613 -0.010269412 0.99994373 0.002667401 0 -0.3036043 -0.0056596063 0.9527814 0 0 0 0 1 0.9527429 0.00897467 0.3036453 5.657613 -0.010269412 0.99994373 0.002667401 0 -0.3036043 -0.0056596063 0.9527814 0 0 0 0 1</float_array>
        <technique_common>
          <accessor source="#Motion_54_Head_transform_pose_array_id" count="16" stride="16">
            <param name="TRANSFORM" type="float4x4" />
          </accessor>
        </technique_common>
      </source>
      <sampler id="Motion_54_Head_transform_samp_id">
        <input semantic="INPUT" source="#Motion_54_Head_transform_frame_id" />
        <input semantic="INTERPOLATION" source="#Motion_54_Head_transform_interp_id" />
        <input semantic="OUTPUT" source="#Motion_54_Head_transform_pose_id" />
      </sampler>
      <channel source="#Motion_54_Head_transform_samp_id" target="Head_bone_id/transform" />
    </animation>
  </library_animations>
  <library_visual_scenes>
    <visual_scene id="tr0050_00_fi_00_clip_id" name="tr0050_00_fi_00_clip">
      <node id="tr0050_00_fi_bone_id" name="tr0050_00_fi" sid="tr0050_00_fi" type="JOINT">
        <matrix sid="transform">1 0 0 0 0 1 0 0 0 0 1 0 0 0 0 1</matrix>
        <node id="Origin_bone_id" name="Origin" sid="Origin" type="JOINT">
          <matrix sid="transform">1 0 0 0 0 1 0 0 0 0 1 0 0 0 0 1</matrix>
          <node id="Waist_bone_id" name="Waist" sid="Waist" type="JOINT">
            <matrix sid="transform">3.1391647E-07 -1 0 0 1 3.1391647E-07 0 69.29619 0 0 1 0 0 0 0 1</matrix>
            <node id="Spine2_bone_id" name="Spine2" sid="Spine2" type="JOINT">
              <matrix sid="transform">1 0 0 11.633057 0 1 0 0 0 0 1 0 0 0 0 1</matrix>
              <node id="Spine3_bone_id" name="Spine3" sid="Spine3" type="JOINT">
                <matrix sid="transform">0.9980956 0 0.06168681 11.633057 0 1 0 0 -0.06168681 0 0.9980956 0 0 0 0 1</matrix>
                <node id="Neck_bone_id" name="Neck" sid="Neck" type="JOINT">
                  <matrix sid="transform">0.99851894 0 -0.054405127 10.310965 0 1 0 0 0.054405127 0 0.99851894 0 0 0 0 1</matrix>
                  <node id="Head_bone_id" name="Head" sid="Head" type="JOINT">
                    <matrix sid="transform">0.9999734 0 -0.0072939354 5.657613 0 1 0 0 0.0072939354 0 0.9999734 0 0 0 0 1</matrix>
                    <node id="Loc_Head_bone_id" name="Loc_Head" sid="Loc_Head" type="JOINT">
                      <matrix sid="transform">3.1391647E-07 1 0 29.198442 -1 3.1391647E-07 0 0 0 0 1 8.951212 0 0 0 1</matrix>
                    </node>
                    <node id="Loc_Eye_bone_id" name="Loc_Eye" sid="Loc_Eye" type="JOINT">
                      <matrix sid="transform">3.1391647E-07 1 0 8.577759 -1 3.1391647E-07 0 0 0 0 1 10.91977 0 0 0 1</matrix>
                    </node>
                    <node id="Loc_Mouth_bone_id" name="Loc_Mouth" sid="Loc_Mouth" type="JOINT">
                      <matrix sid="transform">3.1391647E-07 1 0 0.84491 -1 3.1391647E-07 0 0 0 0 1 11.023279 0 0 0 1</matrix>
                    </node>
                  </node>
                </node>
                <node id="LShoulder_bone_id" name="LShoulder" sid="LShoulder" type="JOINT">
                  <matrix sid="transform">-0.5120665 0.8567279 -0.061686657 10.605996 -0.8583626 -0.5130436 2.6652492E-07 -3.263951 -0.031647712 0.052949656 0.9980956 0.018234 0 0 0 1</matrix>
                  <node id="LArm_bone_id" name="LArm" sid="LArm" type="JOINT">
                    <matrix sid="transform">0.8583625 -0.5130437 0 8.486271 0.5130437 0.8583625 0 0 0 0 1 0 0 0 0 1</matrix>
                    <node id="LForeArm_bone_id" name="LForeArm" sid="LForeArm" type="JOINT">
                      <matrix sid="transform">1 0 0 18.16096 0 1 0 0 0 0 1 0 0 0 0 1</matrix>
                      <node id="LHand_bone_id" name="LHand" sid="LHand" type="JOINT">
                        <matrix sid="transform">1 0 0 18.16096 0 1 0 0 0 0 1 0 0 0 0 1</matrix>
                      </node>
                    </node>
                  </node>
                </node>
                <node id="RShoulder_bone_id" name="RShoulder" sid="RShoulder" type="JOINT">
                  <matrix sid="transform">-0.5120665 -0.8567279 -0.061686657 10.605996 0.8583626 -0.5130436 -2.6652492E-07 3.263951 -0.031647712 -0.052949656 0.9980956 0.018234 0 0 0 1</matrix>
                  <node id="RArm_bone_id" name="RArm" sid="RArm" type="JOINT">
                    <matrix sid="transform">0.8583625 0.5130437 0 8.486271 -0.5130437 0.8583625 0 0 0 0 1 0 0 0 0 1</matrix>
                    <node id="RForeArm_bone_id" name="RForeArm" sid="RForeArm" type="JOINT">
                      <matrix sid="transform">1 0 0 18.16096 0 1 0 0 0 0 1 0 0 0 0 1</matrix>
                      <node id="RHand_bone_id" name="RHand" sid="RHand" type="JOINT">
                        <matrix sid="transform">1 0 0 18.16096 0 1 0 0 0 0 1 0 0 0 0 1</matrix>
                      </node>
                    </node>
                  </node>
                </node>
                <node id="Parts_bone_id" name="Parts" sid="Parts" type="JOINT">
                  <matrix sid="transform">-0.9986588 -3.2584137E-07 0.05177484 5.840257 3.2540436E-07 -1 -1.6870384E-08 0 0.05177484 0 0.9986588 5.412275 0 0 0 1</matrix>
                </node>
              </node>
            </node>
            <node id="Hips_bone_id" name="Hips" sid="Hips" type="JOINT">
              <matrix sid="transform">-1 -3.2584137E-07 0 -0.010002 3.2584137E-07 -1 0 0 0 0 1 0 0 0 0 1</matrix>
              <node id="LThigh_bone_id" name="LThigh" sid="LThigh" type="JOINT">
                <matrix sid="transform">1 0 0 6.377262 0 1 0 6.586485 0 0 1 0 0 0 0 1</matrix>
                <node id="LLeg_bone_id" name="LLeg" sid="LLeg" type="JOINT">
                  <matrix sid="transform">1 0 0 27.28328 0 1 0 0 0 0 1 0 0 0 0 1</matrix>
                  <node id="LFoot_bone_id" name="LFoot" sid="LFoot" type="JOINT">
                    <matrix sid="transform">3.1391647E-07 0 -1 27.28328 0 1 0 0 1 0 3.1391647E-07 0 0 0 0 1</matrix>
                  </node>
                </node>
              </node>
              <node id="RThigh_bone_id" name="RThigh" sid="RThigh" type="JOINT">
                <matrix sid="transform">1 0 0 6.377262 0 1 0 -6.586485 0 0 1 0 0 0 0 1</matrix>
                <node id="RLeg_bone_id" name="RLeg" sid="RLeg" type="JOINT">
                  <matrix sid="transform">1 0 0 27.28328 0 1 0 0 0 0 1 0 0 0 0 1</matrix>
                  <node id="RFoot_bone_id" name="RFoot" sid="RFoot" type="JOINT">
                    <matrix sid="transform">3.1391647E-07 0 -1 27.28328 0 1 0 0 1 0 3.1391647E-07 0 0 0 0 1</matrix>
                  </node>
                </node>
              </node>
            </node>
          </node>
          <node id="CamTgtHead_bone_id" name="CamTgtHead" sid="CamTgtHead" type="JOINT">
            <matrix sid="transform">1 0 0 0 0 1 0 117.08885 0 0 1 0 0 0 0 1</matrix>
          </node>
          <node id="CamTgtBust_bone_id" name="CamTgtBust" sid="CamTgtBust" type="JOINT">
            <matrix sid="transform">1 0 0 0 0 1 0 92.56231 0 0 1 0 0 0 0 1</matrix>
          </node>
          <node id="CamTgtBody_bone_id" name="CamTgtBody" sid="CamTgtBody" type="JOINT">
            <matrix sid="transform">1 0 0 0 0 1 0 69.29619 0 0 1 0 0 0 0 1</matrix>
          </node>
          <node id="CamTgtFoot_bone_id" name="CamTgtFoot" sid="CamTgtFoot" type="JOINT">
            <matrix sid="transform">1 0 0 0 0 1 0 0 0 0 1 0 0 0 0 1</matrix>
          </node>
        </node>
        <node id="tr0050_00_fi_HeadSkin_bone_id" name="tr0050_00_fi_HeadSkin" sid="tr0050_00_fi_HeadSkin" type="JOINT">
          <matrix sid="transform">1 0 0 0 0 1 0 0 0 0 1 0 0 0 0 1</matrix>
        </node>
        <node id="tr0050_00_fi_FaceSkin_bone_id" name="tr0050_00_fi_FaceSkin" sid="tr0050_00_fi_FaceSkin" type="JOINT">
          <matrix sid="transform">1 0 0 0 0 1 0 0 0 0 1 0 0 0 0 1</matrix>
        </node>
        <node id="tr0050_00_fi_BodySkin_bone_id" name="tr0050_00_fi_BodySkin" sid="tr0050_00_fi_BodySkin" type="JOINT">
          <matrix sid="transform">1 0 0 0 0 1 0 0 0 0 1 0 0 0 0 1</matrix>
        </node>
        <node id="tr0050_00_fi_BottomSkin_bone_id" name="tr0050_00_fi_BottomSkin" sid="tr0050_00_fi_BottomSkin" type="JOINT">
          <matrix sid="transform">1 0 0 0 0 1 0 0 0 0 1 0 0 0 0 1</matrix>
        </node>
      </node>
    </visual_scene>
  </library_visual_scenes>
  <scene>
    <instance_visual_scene url="#tr0050_00_fi_00_clip_id" />
  </scene>
</COLLADA>