<svg xmlns="http://www.w3.org/2000/svg" width="48" height="128">
  <!-- Row 0: Down - Frame 0 (left leg forward) -->
  <g transform="translate(0,0)">
    <rect x="8" y="2" width="8" height="8" fill="#ffd5b5" rx="2"/>
    <rect x="6" y="10" width="12" height="10" fill="#3366cc"/>
    <rect x="4" y="20" width="5" height="10" fill="#2244aa"/>
    <rect x="15" y="22" width="5" height="8" fill="#2244aa"/>
    <rect x="2" y="12" width="4" height="8" fill="#ffd5b5"/>
    <rect x="18" y="12" width="4" height="8" fill="#ffd5b5"/>
    <circle cx="10" cy="5" r="1" fill="#222"/>
    <circle cx="14" cy="5" r="1" fill="#222"/>
    <rect x="8" y="0" width="8" height="3" fill="#442200"/>
  </g>
  <!-- Row 0: Down - Frame 1 (right leg forward) -->
  <g transform="translate(24,0)">
    <rect x="8" y="2" width="8" height="8" fill="#ffd5b5" rx="2"/>
    <rect x="6" y="10" width="12" height="10" fill="#3366cc"/>
    <rect x="5" y="22" width="5" height="8" fill="#2244aa"/>
    <rect x="14" y="20" width="5" height="10" fill="#2244aa"/>
    <rect x="2" y="12" width="4" height="8" fill="#ffd5b5"/>
    <rect x="18" y="12" width="4" height="8" fill="#ffd5b5"/>
    <circle cx="10" cy="5" r="1" fill="#222"/>
    <circle cx="14" cy="5" r="1" fill="#222"/>
    <rect x="8" y="0" width="8" height="3" fill="#442200"/>
  </g>
  <!-- Row 1: Up - Frame 0 (back of head, left leg forward) -->
  <g transform="translate(0,32)">
    <rect x="8" y="2" width="8" height="8" fill="#ffd5b5" rx="2"/>
    <rect x="6" y="10" width="12" height="10" fill="#3366cc"/>
    <rect x="4" y="20" width="5" height="10" fill="#2244aa"/>
    <rect x="15" y="22" width="5" height="8" fill="#2244aa"/>
    <rect x="2" y="12" width="4" height="8" fill="#ffd5b5"/>
    <rect x="18" y="12" width="4" height="8" fill="#ffd5b5"/>
    <rect x="7" y="0" width="10" height="6" fill="#442200"/>
    <rect x="8" y="6" width="8" height="4" fill="#553311"/>
  </g>
  <!-- Row 1: Up - Frame 1 (right leg forward) -->
  <g transform="translate(24,32)">
    <rect x="8" y="2" width="8" height="8" fill="#ffd5b5" rx="2"/>
    <rect x="6" y="10" width="12" height="10" fill="#3366cc"/>
    <rect x="5" y="22" width="5" height="8" fill="#2244aa"/>
    <rect x="14" y="20" width="5" height="10" fill="#2244aa"/>
    <rect x="2" y="12" width="4" height="8" fill="#ffd5b5"/>
    <rect x="18" y="12" width="4" height="8" fill="#ffd5b5"/>
    <rect x="7" y="0" width="10" height="6" fill="#442200"/>
    <rect x="8" y="6" width="8" height="4" fill="#553311"/>
  </g>
  <!-- Row 2: Left - Frame 0 (left leg forward - full side profile) -->
  <g transform="translate(0,64)">
    <rect x="10" y="2" width="8" height="8" fill="#ffd5b5" rx="2"/>
    <polygon points="10,5 8,4 8,7" fill="#ffd5b5"/>
    <rect x="8" y="10" width="10" height="10" fill="#3366cc"/>
    <rect x="2" y="20" width="5" height="10" fill="#2244aa"/>
    <rect x="14" y="22" width="5" height="8" fill="#2244aa"/>
    <rect x="2" y="12" width="4" height="8" fill="#ffd5b5"/>
    <circle cx="12" cy="5" r="1" fill="#222"/>
    <rect x="9" y="0" width="10" height="5" fill="#442200"/>
    <rect x="10" y="5" width="8" height="4" fill="#553311"/>
  </g>
  <!-- Row 2: Left - Frame 1 (right leg forward) -->
  <g transform="translate(24,64)">
    <rect x="10" y="2" width="8" height="8" fill="#ffd5b5" rx="2"/>
    <polygon points="10,5 8,4 8,7" fill="#ffd5b5"/>
    <rect x="8" y="10" width="10" height="10" fill="#3366cc"/>
    <rect x="4" y="22" width="5" height="8" fill="#2244aa"/>
    <rect x="15" y="20" width="5" height="10" fill="#2244aa"/>
    <rect x="2" y="14" width="4" height="6" fill="#ffd5b5"/>
    <circle cx="12" cy="5" r="1" fill="#222"/>
    <rect x="9" y="0" width="10" height="5" fill="#442200"/>
    <rect x="10" y="5" width="8" height="4" fill="#553311"/>
  </g>
  <!-- Row 3: Right - Frame 0 (left leg forward - full side profile) -->
  <g transform="translate(0,96)">
    <rect x="6" y="2" width="8" height="8" fill="#ffd5b5" rx="2"/>
    <polygon points="14,5 16,4 16,7" fill="#ffd5b5"/>
    <rect x="4" y="10" width="10" height="10" fill="#3366cc"/>
    <rect x="3" y="22" width="5" height="8" fill="#2244aa"/>
    <rect x="12" y="20" width="5" height="10" fill="#2244aa"/>
    <rect x="18" y="12" width="4" height="8" fill="#ffd5b5"/>
    <circle cx="12" cy="5" r="1" fill="#222"/>
    <rect x="3" y="0" width="10" height="5" fill="#442200"/>
    <rect x="4" y="5" width="8" height="4" fill="#553311"/>
  </g>
  <!-- Row 3: Right - Frame 1 (right leg forward) -->
  <g transform="translate(24,96)">
    <rect x="6" y="2" width="8" height="8" fill="#ffd5b5" rx="2"/>
    <polygon points="14,5 16,4 16,7" fill="#ffd5b5"/>
    <rect x="4" y="10" width="10" height="10" fill="#3366cc"/>
    <rect x="2" y="20" width="5" height="10" fill="#2244aa"/>
    <rect x="13" y="22" width="5" height="8" fill="#2244aa"/>
    <rect x="18" y="14" width="4" height="6" fill="#ffd5b5"/>
    <circle cx="12" cy="5" r="1" fill="#222"/>
    <rect x="3" y="0" width="10" height="5" fill="#442200"/>
    <rect x="4" y="5" width="8" height="4" fill="#553311"/>
  </g>
</svg>
