<svg xmlns="http://www.w3.org/2000/svg" width="32" height="32" viewBox="0 0 32 32">
  <rect x="0" y="24" width="32" height="8" fill="#1a7021"/>
  <!-- Top row - bases at y=16 -->
  <polygon points="0,16 4,16 1,2" fill="#1e5a18"/>
  <polygon points="4,16 8,16 5,4" fill="#165214"/>
  <polygon points="8,16 12,16 9,0" fill="#186a1e"/>
  <polygon points="12,16 16,16 13,3" fill="#207627"/>
  <polygon points="16,16 20,16 17,1" fill="#217d28"/>
  <polygon points="20,16 24,16 21,4" fill="#186a1e"/>
  <polygon points="24,16 28,16 25,0" fill="#165214"/>
  <polygon points="28,16 32,16 29,3" fill="#1e5a18"/>
  <!-- Bottom row - bases at y=32 -->
  <polygon points="0,32 4,32 1,18" fill="#4acc52"/>
  <polygon points="4,32 8,32 5,14" fill="#32cd32"/>
  <polygon points="8,32 12,32 9,20" fill="#3cb443"/>
  <polygon points="12,32 16,32 13,12" fill="#4acc52"/>
  <polygon points="16,32 20,32 17,18" fill="#32cd32"/>
  <polygon points="20,32 24,32 21,14" fill="#3cb443"/>
  <polygon points="24,32 28,32 25,20" fill="#4acc52"/>
  <polygon points="28,32 32,32 29,16" fill="#32cd32"/>
</svg>
