<svg xmlns="http://www.w3.org/2000/svg" width="32" height="32">
  <rect x="2" y="2" width="4" height="4" fill="#ffea00"/>
  <rect x="10" y="4" width="4" height="4" fill="#ffea00"/>
  <rect x="18" y="2" width="4" height="4" fill="#ffea00"/>
  <rect x="26" y="6" width="4" height="4" fill="#ffea00"/>
  <rect x="4" y="12" width="4" height="4" fill="#ffea00"/>
  <rect x="12" y="10" width="4" height="4" fill="#ffea00"/>
  <rect x="20" y="14" width="4" height="4" fill="#ffea00"/>
  <rect x="28" y="12" width="4" height="4" fill="#ffea00"/>
  <rect x="2" y="20" width="4" height="4" fill="#ffea00"/>
  <rect x="10" y="22" width="4" height="4" fill="#ffea00"/>
  <rect x="18" y="18" width="4" height="4" fill="#ffea00"/>
  <rect x="26" y="24" width="4" height="4" fill="#ffea00"/>
  <rect x="6" y="28" width="4" height="4" fill="#ffea00"/>
  <rect x="14" y="26" width="4" height="4" fill="#ffea00"/>
  <rect x="22" y="30" width="4" height="4" fill="#ffea00"/>
</svg>
