<svg xmlns="http://www.w3.org/2000/svg" width="32" height="32" viewBox="0 0 32 32">
  <polygon points="0,32 2,32 1,14" fill="#8b2500"/>
  <polygon points="2,32 4,32 3,16" fill="#a03000"/>
  <polygon points="4,32 6,32 5,13" fill="#8b2500"/>
  <polygon points="6,32 8,32 7,14" fill="#9a2a00"/>
  <polygon points="8,32 10,32 9,15" fill="#8b2500"/>
  <polygon points="10,32 12,32 11,12" fill="#a03000"/>
  <polygon points="12,32 14,32 13,16" fill="#8b2500"/>
  <polygon points="14,32 16,32 15,14" fill="#9a2a00"/>
  <polygon points="16,32 18,32 17,15" fill="#8b2500"/>
  <polygon points="18,32 20,32 19,13" fill="#a03000"/>
  <polygon points="20,32 22,32 21,12" fill="#8b2500"/>
  <polygon points="22,32 24,32 23,16" fill="#9a2a00"/>
  <polygon points="24,32 26,32 25,14" fill="#8b2500"/>
  <polygon points="26,32 28,32 27,13" fill="#a03000"/>
  <polygon points="28,32 30,32 29,15" fill="#8b2500"/>
  <polygon points="30,32 32,32 31,14" fill="#9a2a00"/>
  <polygon points="0,20 2,20 1,5" fill="#cc4400"/>
  <polygon points="2,20 4,20 3,8" fill="#ff5500"/>
  <polygon points="4,20 6,20 5,4" fill="#cc4400"/>
  <polygon points="6,20 8,20 7,6" fill="#ff6600"/>
  <polygon points="8,20 10,20 9,3" fill="#cc4400"/>
  <polygon points="10,20 12,20 11,7" fill="#ff5500"/>
  <polygon points="12,20 14,20 13,5" fill="#cc4400"/>
  <polygon points="14,20 16,20 15,3" fill="#ff6600"/>
  <polygon points="16,20 18,20 17,6" fill="#cc4400"/>
  <polygon points="18,20 20,20 19,4" fill="#ff5500"/>
  <polygon points="20,20 22,20 21,8" fill="#cc4400"/>
  <polygon points="22,20 24,20 23,5" fill="#ff6600"/>
  <polygon points="24,20 26,20 25,3" fill="#cc4400"/>
  <polygon points="26,20 28,20 27,7" fill="#ff5500"/>
  <polygon points="28,20 30,20 29,4" fill="#cc4400"/>
  <polygon points="30,20 32,20 31,6" fill="#ff6600"/>
  <polygon points="3,32 5,32 4,10" fill="#ff7700"/>
  <polygon points="7,32 9,32 8,8" fill="#ff8800"/>
  <polygon points="11,32 13,32 12,11" fill="#ff7700"/>
  <polygon points="15,32 17,32 16,9" fill="#ff8800"/>
  <polygon points="19,32 21,32 20,10" fill="#ff7700"/>
  <polygon points="23,32 25,32 24,8" fill="#ff8800"/>
  <polygon points="27,32 29,32 28,11" fill="#ff7700"/>
  <polygon points="6,32 8,32 7,7" fill="#ffaa00"/>
  <polygon points="10,32 12,32 11,6" fill="#ffbb00"/>
  <polygon points="14,32 16,32 15,8" fill="#ffaa00"/>
  <polygon points="18,32 20,32 19,5" fill="#ffbb00"/>
  <polygon points="22,32 24,32 23,7" fill="#ffaa00"/>
  <polygon points="26,32 28,32 27,6" fill="#ffbb00"/>
</svg>
