<svg xmlns="http://www.w3.org/2000/svg" width="32" height="32" viewBox="0 0 32 32">
  <ellipse cx="16.3" cy="30" rx="6" ry="2" fill="rgba(0,0,0,0.2)"/>
  <path d="M15.299267411837013,32 Q13.599267411837014,24 15.599267411837014,16" stroke="#1b5e20" stroke-width="2" fill="none"/>
  <path d="M14.47990417502816,32 Q12.779904175028161,24 14.779904175028161,16" stroke="#2e7d32" stroke-width="2" fill="none"/>
  <path d="M15.140943050915814,32 Q13.440943050915815,24 15.440943050915815,16" stroke="#388e3c" stroke-width="2" fill="none"/>
  <ellipse cx="17.269775202204368" cy="22.976300478436194" rx="4" ry="2" fill="#32cd32" transform="rotate(8.510702866367389 17.269775202204368 22.976300478436194)"/>
  <ellipse cx="18.821690371689243" cy="22.733182907445908" rx="4" ry="2" fill="#3cb371" transform="rotate(-17.496389144797057 18.821690371689243 22.733182907445908)"/>
  <ellipse cx="24.8" cy="16.0" rx="4.538225889922225" ry="5.095173544387879" fill="#f4d03f" transform="rotate(0 24.8 16.0)"/>
  <ellipse cx="20.5" cy="23.4" rx="4.538225889922225" ry="5.095173544387879" fill="#f4d03f" transform="rotate(60 20.5 23.4)"/>
  <ellipse cx="12.1" cy="23.4" rx="4.538225889922225" ry="5.095173544387879" fill="#ffdf00" transform="rotate(120 12.1 23.4)"/>
  <ellipse cx="7.8" cy="16.0" rx="4.538225889922225" ry="5.095173544387879" fill="#f4d03f" transform="rotate(180 7.8 16.0)"/>
  <ellipse cx="12.1" cy="8.6" rx="4.538225889922225" ry="5.095173544387879" fill="#f4d03f" transform="rotate(240 12.1 8.6)"/>
  <ellipse cx="20.5" cy="8.6" rx="4.538225889922225" ry="5.095173544387879" fill="#f4d03f" transform="rotate(300 20.5 8.6)"/>
  <circle cx="16.3" cy="16" r="3" fill="#ffeb3b"/>
  <circle cx="15.8" cy="15.5" r="1" fill="#fff" opacity="0.6"/>
</svg>