<svg xmlns="http://www.w3.org/2000/svg" width="32" height="32" viewBox="0 0 32 32">
  <rect x="0" y="28" width="32" height="4" fill="#1a7021"/>
  <polygon points="0.0,32.0 2.0,32.0 1.4,11.2" fill="#1e5a18"/>
  <polygon points="2.0,32.0 4.0,32.0 3.1,11.2" fill="#165214"/>
  <polygon points="4.0,32.0 6.0,32.0 5.1,11.9" fill="#217d28"/>
  <polygon points="6.0,32.0 8.0,32.0 7.3,15.3" fill="#1a7021"/>
  <polygon points="8.0,32.0 10.0,32.0 9.2,11.6" fill="#207627"/>
  <polygon points="10.0,32.0 12.0,32.0 11.1,16.9" fill="#1e5a18"/>
  <polygon points="12.0,32.0 14.0,32.0 12.5,15.6" fill="#1a7021"/>
  <polygon points="14.0,32.0 16.0,32.0 14.8,13.8" fill="#1a7021"/>
  <polygon points="16.0,32.0 18.0,32.0 16.6,13.1" fill="#1e5a18"/>
  <polygon points="18.0,32.0 20.0,32.0 19.3,14.1" fill="#207627"/>
  <polygon points="20.0,32.0 22.0,32.0 21.4,16.3" fill="#165214"/>
  <polygon points="22.0,32.0 24.0,32.0 22.6,13.0" fill="#165214"/>
  <polygon points="24.0,32.0 26.0,32.0 25.4,16.0" fill="#1a7021"/>
  <polygon points="26.0,32.0 28.0,32.0 26.9,12.5" fill="#1a7021"/>
  <polygon points="28.0,32.0 30.0,32.0 29.3,17.6" fill="#1e5a18"/>
  <polygon points="30.0,32.0 32.0,32.0 31.4,17.1" fill="#217d28"/>
  <polygon points="0.0,20.0 2.0,20.0 1.0,1.7" fill="#1f7523"/>
  <polygon points="4.0,20.0 6.0,20.0 4.9,5.5" fill="#228b22"/>
  <polygon points="8.0,20.0 10.0,20.0 9.3,0.9" fill="#2d9633"/>
  <polygon points="12.0,20.0 14.0,20.0 12.8,5.3" fill="#1f7523"/>
  <polygon points="16.0,20.0 18.0,20.0 16.5,6.0" fill="#2d9633"/>
  <polygon points="20.0,20.0 22.0,20.0 20.3,2.3" fill="#1e7a1e"/>
  <polygon points="24.0,20.0 26.0,20.0 25.7,0.1" fill="#268029"/>
  <polygon points="28.0,20.0 30.0,20.0 28.6,0.6" fill="#228b22"/>
  <polygon points="21.8,32.0 23.8,32.0 22.2,13.3" fill="#30a838"/>
  <polygon points="17.9,32.0 19.9,32.0 18.4,15.2" fill="#32cd32"/>
  <polygon points="16.2,32.0 18.2,32.0 17.7,15.1" fill="#2ea32e"/>
  <polygon points="26.6,32.0 28.6,32.0 27.3,12.3" fill="#4acc52"/>
  <polygon points="15.7,32.0 17.7,32.0 17.3,13.9" fill="#2ea32e"/>
  <polygon points="23.9,32.0 25.9,32.0 24.8,14.0" fill="#2ea32e"/>
  <polygon points="22.0,32.0 24.0,32.0 23.4,9.1" fill="#32cd32"/>
  <polygon points="17.0,32.0 19.0,32.0 17.6,10.6" fill="#38b840"/>
  <polygon points="16.4,32.0 18.4,32.0 17.7,8.1" fill="#38b840"/>
  <polygon points="13.6,32.0 15.6,32.0 14.0,11.0" fill="#30a838"/>
  <polygon points="10.0,32.0 12.0,32.0 10.7,12.9" fill="#3cb443"/>
  <polygon points="12.5,32.0 14.5,32.0 13.8,8.4" fill="#2ea32e"/>
  <polygon points="7.8,32.0 9.3,32.0 8.3,13.0" fill="#4dd854" opacity="0.7"/>
  <polygon points="18.1,32.0 19.6,32.0 18.6,14.0" fill="#4dd854" opacity="0.7"/>
  <polygon points="8.9,32.0 10.4,32.0 9.7,13.2" fill="#66ff66" opacity="0.7"/>
  <polygon points="5.2,32.0 6.7,32.0 5.5,13.2" fill="#50dd50" opacity="0.7"/>
  <polygon points="12.9,32.0 14.4,32.0 13.3,11.7" fill="#66ff66" opacity="0.7"/>
</svg>