<svg xmlns="http://www.w3.org/2000/svg" width="32" height="32" viewBox="0 0 32 32">
  <ellipse cx="16" cy="30" rx="6" ry="2" fill="rgba(0,0,0,0.15)"/>
  <path d="M16.77990818153131,32 Q14.779908181531312,24 16.77990818153131,16" stroke="#228b22" stroke-width="2" fill="none"/>
  <path d="M16.575005651719405,32 Q14.575005651719405,24 16.575005651719405,16" stroke="#1b5e20" stroke-width="2" fill="none"/>
  <path d="M17.69926500492695,32 Q15.69926500492695,24 17.69926500492695,16" stroke="#388e3c" stroke-width="2" fill="none"/>
  <ellipse cx="13.536721230268814" cy="22.09537881617219" rx="4" ry="2" fill="#3cb371" transform="rotate(9.44148303914885 13.536721230268814 22.09537881617219)"/>
  <ellipse cx="19.84566021330918" cy="22.33380699173259" rx="4" ry="2" fill="#3cb371" transform="rotate(3.1979584848498774 19.84566021330918 22.33380699173259)"/>
  <ellipse cx="22.7" cy="16.0" rx="4.060202420251539" ry="4.0155009986904915" fill="#c91831" transform="rotate(0 22.7 16.0)"/>
  <ellipse cx="18.1" cy="22.4" rx="4.060202420251539" ry="4.0155009986904915" fill="#d62839" transform="rotate(72 18.1 22.4)"/>
  <ellipse cx="10.6" cy="19.9" rx="4.060202420251539" ry="4.0155009986904915" fill="#ff4d5a" transform="rotate(144 10.6 19.9)"/>
  <ellipse cx="10.6" cy="12.1" rx="4.060202420251539" ry="4.0155009986904915" fill="#e63946" transform="rotate(216 10.6 12.1)"/>
  <ellipse cx="18.1" cy="9.6" rx="4.060202420251539" ry="4.0155009986904915" fill="#d62839" transform="rotate(288 18.1 9.6)"/>
  <circle cx="16" cy="16" r="3" fill="#ffc107"/>
  <circle cx="15.5" cy="15.5" r="1" fill="#fff" opacity="0.6"/>
</svg>