<svg xmlns="http://www.w3.org/2000/svg" width="32" height="32" viewBox="0 0 32 32">
  <ellipse cx="16" cy="30" rx="6" ry="2" fill="rgba(0,0,0,0.2)"/>
  <path d="M16.23741579159974,32 Q14.23741579159974,24 16.23741579159974,16" stroke="#388e3c" stroke-width="2" fill="none"/>
  <path d="M17.830833913679623,32 Q15.830833913679623,24 17.830833913679623,16" stroke="#43a047" stroke-width="2" fill="none"/>
  <path d="M16.555752278564384,32 Q14.555752278564384,24 16.555752278564384,16" stroke="#228b22" stroke-width="2" fill="none"/>
  <ellipse cx="12.707642793984917" cy="24.109873176603518" rx="4" ry="2" fill="#3cb371" transform="rotate(-25.870424507125477 12.707642793984917 24.109873176603518)"/>
  <ellipse cx="13.285830259921882" cy="26.234059335772905" rx="4" ry="2" fill="#32cd32" transform="rotate(-0.5427056413808415 13.285830259921882 26.234059335772905)"/>
  <ellipse cx="22.3" cy="16.0" rx="3.3758915068469437" ry="3.781560874069836" fill="#ffffff" transform="rotate(0 22.3 16.0)"/>
  <ellipse cx="20.5" cy="20.5" rx="3.3758915068469437" ry="3.781560874069836" fill="#ffffff" transform="rotate(45 20.5 20.5)"/>
  <ellipse cx="16.0" cy="22.3" rx="3.3758915068469437" ry="3.781560874069836" fill="#fafafa" transform="rotate(90 16.0 22.3)"/>
  <ellipse cx="11.5" cy="20.5" rx="3.3758915068469437" ry="3.781560874069836" fill="#f5f5f5" transform="rotate(135 11.5 20.5)"/>
  <ellipse cx="9.7" cy="16.0" rx="3.3758915068469437" ry="3.781560874069836" fill="#f5f5f5" transform="rotate(180 9.7 16.0)"/>
  <ellipse cx="11.5" cy="11.5" rx="3.3758915068469437" ry="3.781560874069836" fill="#f0f0f0" transform="rotate(225 11.5 11.5)"/>
  <ellipse cx="16.0" cy="9.7" rx="3.3758915068469437" ry="3.781560874069836" fill="#f5f5f5" transform="rotate(270 16.0 9.7)"/>
  <ellipse cx="20.5" cy="11.5" rx="3.3758915068469437" ry="3.781560874069836" fill="#f0f0f0" transform="rotate(315 20.5 11.5)"/>
  <circle cx="16" cy="16" r="3" fill="#ff9800"/>
  <circle cx="15.5" cy="15.5" r="1" fill="#fff" opacity="0.6"/>
</svg>