<svg xmlns="http://www.w3.org/2000/svg" width="32" height="32" viewBox="0 0 32 32">
  <ellipse cx="16.3" cy="30" rx="6" ry="2" fill="rgba(0,0,0,0.15)"/>
  <path d="M14.16878843315355,32 Q12.46878843315355,24 14.46878843315355,16" stroke="#2e7d32" stroke-width="2" fill="none"/>
  <path d="M17.484288217259706,32 Q15.784288217259707,24 17.784288217259707,16" stroke="#1b5e20" stroke-width="2" fill="none"/>
  <path d="M16.513424874522457,32 Q14.813424874522457,24 16.813424874522457,16" stroke="#2e7d32" stroke-width="2" fill="none"/>
  <ellipse cx="12.812735605478629" cy="25.777406813473164" rx="4" ry="2" fill="#3cb371" transform="rotate(24.666139508907747 12.812735605478629 25.777406813473164)"/>
  <ellipse cx="13.004783439964422" cy="26.546622695655852" rx="4" ry="2" fill="#2e8b57" transform="rotate(26.185612704691295 13.004783439964422 26.546622695655852)"/>
  <ellipse cx="24.3" cy="16.0" rx="3.4533934595311964" ry="4.812632704345804" fill="#ff69b4" transform="rotate(0 24.3 16.0)"/>
  <ellipse cx="21.3" cy="22.3" rx="3.4533934595311964" ry="4.812632704345804" fill="#db7093" transform="rotate(51 21.3 22.3)"/>
  <ellipse cx="14.5" cy="23.8" rx="3.4533934595311964" ry="4.812632704345804" fill="#ffb6c1" transform="rotate(103 14.5 23.8)"/>
  <ellipse cx="9.1" cy="19.5" rx="3.4533934595311964" ry="4.812632704345804" fill="#ff69b4" transform="rotate(154 9.1 19.5)"/>
  <ellipse cx="9.1" cy="12.5" rx="3.4533934595311964" ry="4.812632704345804" fill="#db7093" transform="rotate(206 9.1 12.5)"/>
  <ellipse cx="14.5" cy="8.2" rx="3.4533934595311964" ry="4.812632704345804" fill="#db7093" transform="rotate(257 14.5 8.2)"/>
  <ellipse cx="21.3" cy="9.7" rx="3.4533934595311964" ry="4.812632704345804" fill="#ff85a2" transform="rotate(309 21.3 9.7)"/>
  <circle cx="16.3" cy="16" r="3" fill="#ffd54f"/>
  <circle cx="15.8" cy="15.5" r="1" fill="#fff" opacity="0.6"/>
</svg>