<svg xmlns="http://www.w3.org/2000/svg" width="32" height="32" viewBox="0 0 32 32">
  <rect x="0" y="28" width="32" height="4" fill="#1a7021"/>
  <polygon points="0.0,32.0 2.0,32.0 0.0,15.3" fill="#1a7021"/>
  <polygon points="2.0,32.0 4.0,32.0 1.9,16.3" fill="#207627"/>
  <polygon points="4.0,32.0 6.0,32.0 3.4,14.3" fill="#217d28"/>
  <polygon points="6.0,32.0 8.0,32.0 5.2,10.9" fill="#165214"/>
  <polygon points="8.0,32.0 10.0,32.0 7.7,17.6" fill="#217d28"/>
  <polygon points="10.0,32.0 12.0,32.0 9.6,11.1" fill="#1a7021"/>
  <polygon points="12.0,32.0 14.0,32.0 11.1,16.2" fill="#1e5a18"/>
  <polygon points="14.0,32.0 16.0,32.0 13.6,15.1" fill="#1a7021"/>
  <polygon points="16.0,32.0 18.0,32.0 15.2,11.5" fill="#186a1e"/>
  <polygon points="18.0,32.0 20.0,32.0 17.8,10.6" fill="#217d28"/>
  <polygon points="20.0,32.0 22.0,32.0 19.5,13.1" fill="#1a7021"/>
  <polygon points="22.0,32.0 24.0,32.0 21.8,17.4" fill="#186a1e"/>
  <polygon points="24.0,32.0 26.0,32.0 23.9,14.7" fill="#165214"/>
  <polygon points="26.0,32.0 28.0,32.0 25.8,17.1" fill="#1e5a18"/>
  <polygon points="28.0,32.0 30.0,32.0 27.7,10.5" fill="#1e5a18"/>
  <polygon points="30.0,32.0 32.0,32.0 29.2,14.0" fill="#186a1e"/>
  <polygon points="0.0,20.0 2.0,20.0 0.0,0.6" fill="#2d9633"/>
  <polygon points="4.0,20.0 6.0,20.0 3.5,0.6" fill="#268029"/>
  <polygon points="8.0,20.0 10.0,20.0 6.8,5.6" fill="#2d9633"/>
  <polygon points="12.0,20.0 14.0,20.0 10.9,0.2" fill="#1b6920"/>
  <polygon points="16.0,20.0 18.0,20.0 15.3,0.7" fill="#268029"/>
  <polygon points="20.0,20.0 22.0,20.0 19.4,2.4" fill="#1e7a1e"/>
  <polygon points="24.0,20.0 26.0,20.0 23.6,5.5" fill="#1e7a1e"/>
  <polygon points="28.0,20.0 30.0,20.0 27.9,4.7" fill="#268029"/>
  <polygon points="0.7,32.0 2.7,32.0 0.0,8.5" fill="#3cb443"/>
  <polygon points="19.2,32.0 21.2,32.0 18.3,11.5" fill="#30a838"/>
  <polygon points="27.4,32.0 29.4,32.0 27.5,13.3" fill="#2ea32e"/>
  <polygon points="9.3,32.0 11.3,32.0 9.2,11.3" fill="#2ea32e"/>
  <polygon points="17.5,32.0 19.5,32.0 16.9,13.2" fill="#30a838"/>
  <polygon points="19.8,32.0 21.8,32.0 19.5,9.9" fill="#30a838"/>
  <polygon points="2.5,32.0 4.5,32.0 2.1,13.8" fill="#32cd32"/>
  <polygon points="13.9,32.0 15.9,32.0 13.8,14.4" fill="#32cd32"/>
  <polygon points="15.4,32.0 17.4,32.0 14.5,14.3" fill="#30a838"/>
  <polygon points="4.5,32.0 6.5,32.0 3.8,9.0" fill="#38b840"/>
  <polygon points="10.6,32.0 12.6,32.0 10.0,8.4" fill="#32cd32"/>
  <polygon points="10.1,32.0 12.1,32.0 9.3,14.3" fill="#4acc52"/>
  <polygon points="9.9,32.0 11.4,32.0 9.3,11.0" fill="#4dd854" opacity="0.7"/>
  <polygon points="2.2,32.0 3.7,32.0 1.8,11.3" fill="#4dd854" opacity="0.7"/>
  <polygon points="18.6,32.0 20.1,32.0 17.5,11.9" fill="#4dd854" opacity="0.7"/>
  <polygon points="3.5,32.0 5.0,32.0 2.6,12.4" fill="#50dd50" opacity="0.7"/>
  <polygon points="5.8,32.0 7.3,32.0 5.5,12.8" fill="#4dd854" opacity="0.7"/>
</svg>