<svg xmlns="http://www.w3.org/2000/svg" width="32" height="32" viewBox="0 0 32 32">
  <ellipse cx="15.7" cy="30" rx="6" ry="2" fill="rgba(0,0,0,0.2)"/>
  <path d="M14.782464862234175,32 Q12.482464862234174,24 14.482464862234174,16" stroke="#1b5e20" stroke-width="2" fill="none"/>
  <path d="M15.046717167388051,32 Q12.74671716738805,24 14.74671716738805,16" stroke="#43a047" stroke-width="2" fill="none"/>
  <path d="M15.454939366064472,32 Q13.154939366064472,24 15.154939366064472,16" stroke="#388e3c" stroke-width="2" fill="none"/>
  <ellipse cx="12.840446663433893" cy="26.967022838521295" rx="4" ry="2" fill="#228b22" transform="rotate(23.03300860013487 12.840446663433893 26.967022838521295)"/>
  <ellipse cx="18.52846832593366" cy="26.61892128205808" rx="4" ry="2" fill="#3cb371" transform="rotate(-2.2140312065435737 18.52846832593366 26.61892128205808)"/>
  <ellipse cx="24.0" cy="16.0" rx="4.198438644967246" ry="4.991866493873236" fill="#ffd700" transform="rotate(0 24.0 16.0)"/>
  <ellipse cx="19.9" cy="23.2" rx="4.198438644967246" ry="4.991866493873236" fill="#ffdf00" transform="rotate(60 19.9 23.2)"/>
  <ellipse cx="11.5" cy="23.2" rx="4.198438644967246" ry="4.991866493873236" fill="#ffdf00" transform="rotate(120 11.5 23.2)"/>
  <ellipse cx="7.4" cy="16.0" rx="4.198438644967246" ry="4.991866493873236" fill="#f4d03f" transform="rotate(180 7.4 16.0)"/>
  <ellipse cx="11.5" cy="8.8" rx="4.198438644967246" ry="4.991866493873236" fill="#ffdf00" transform="rotate(240 11.5 8.8)"/>
  <ellipse cx="19.9" cy="8.8" rx="4.198438644967246" ry="4.991866493873236" fill="#f4d03f" transform="rotate(300 19.9 8.8)"/>
  <circle cx="15.7" cy="16" r="3" fill="#ffc107"/>
  <circle cx="15.2" cy="15.5" r="1" fill="#fff" opacity="0.6"/>
</svg>