<svg xmlns="http://www.w3.org/2000/svg" width="32" height="32" viewBox="0 0 32 32">
  <ellipse cx="16" cy="30" rx="6" ry="2" fill="rgba(0,0,0,0.1)"/>
  <path d="M17.367894651073915,32 Q15.367894651073915,24 17.367894651073915,16" stroke="#2e7d32" stroke-width="2" fill="none"/>
  <path d="M16.65464925889608,32 Q14.654649258896079,24 16.65464925889608,16" stroke="#388e3c" stroke-width="2" fill="none"/>
  <path d="M16.277554989921654,32 Q14.277554989921654,24 16.277554989921654,16" stroke="#1b5e20" stroke-width="2" fill="none"/>
  <ellipse cx="15.236407281475332" cy="25.355504275930816" rx="4" ry="2" fill="#00fa9a" transform="rotate(20.740349316382947 15.236407281475332 25.355504275930816)"/>
  <ellipse cx="12.157412529065" cy="26.122292915416086" rx="4" ry="2" fill="#228b22" transform="rotate(-27.992770670909792 12.157412529065 26.122292915416086)"/>
  <ellipse cx="24.2" cy="16.0" rx="3.5154290201679936" ry="4.914931995288902" fill="#7d3c98" transform="rotate(0 24.2 16.0)"/>
  <ellipse cx="21.1" cy="22.4" rx="3.5154290201679936" ry="4.914931995288902" fill="#8e44ad" transform="rotate(51 21.1 22.4)"/>
  <ellipse cx="14.2" cy="24.0" rx="3.5154290201679936" ry="4.914931995288902" fill="#a569bd" transform="rotate(103 14.2 24.0)"/>
  <ellipse cx="8.6" cy="19.6" rx="3.5154290201679936" ry="4.914931995288902" fill="#9b59b6" transform="rotate(154 8.6 19.6)"/>
  <ellipse cx="8.6" cy="12.4" rx="3.5154290201679936" ry="4.914931995288902" fill="#8e44ad" transform="rotate(206 8.6 12.4)"/>
  <ellipse cx="14.2" cy="8.0" rx="3.5154290201679936" ry="4.914931995288902" fill="#a569bd" transform="rotate(257 14.2 8.0)"/>
  <ellipse cx="21.1" cy="9.6" rx="3.5154290201679936" ry="4.914931995288902" fill="#9b59b6" transform="rotate(309 21.1 9.6)"/>
  <circle cx="16" cy="16" r="3" fill="#ff9800"/>
  <circle cx="15.5" cy="15.5" r="1" fill="#fff" opacity="0.6"/>
</svg>