<svg xmlns="http://www.w3.org/2000/svg" width="32" height="32" viewBox="0 0 32 32">
  <ellipse cx="16" cy="30" rx="6" ry="2" fill="rgba(0,0,0,0.15)"/>
  <path d="M17.747442247228438,32 Q15.747442247228438,24 17.747442247228438,16" stroke="#1b5e20" stroke-width="2" fill="none"/>
  <path d="M16.85407066478118,32 Q14.85407066478118,24 16.85407066478118,16" stroke="#1b5e20" stroke-width="2" fill="none"/>
  <path d="M14.768804550528902,32 Q12.768804550528902,24 14.768804550528902,16" stroke="#2e7d32" stroke-width="2" fill="none"/>
  <ellipse cx="19.66776180624392" cy="25.20906853825276" rx="4" ry="2" fill="#32cd32" transform="rotate(-20.09236871734837 19.66776180624392 25.20906853825276)"/>
  <ellipse cx="14.287218571774298" cy="23.068592429658676" rx="4" ry="2" fill="#228b22" transform="rotate(12.002334614285424 14.287218571774298 23.068592429658676)"/>
  <ellipse cx="22.5" cy="16.0" rx="4.40591436689995" ry="3.9261600495903566" fill="#e63946" transform="rotate(0 22.5 16.0)"/>
  <ellipse cx="18.0" cy="22.2" rx="4.40591436689995" ry="3.9261600495903566" fill="#cc2233" transform="rotate(72 18.0 22.2)"/>
  <ellipse cx="10.7" cy="19.8" rx="4.40591436689995" ry="3.9261600495903566" fill="#d62839" transform="rotate(144 10.7 19.8)"/>
  <ellipse cx="10.7" cy="12.2" rx="4.40591436689995" ry="3.9261600495903566" fill="#e63946" transform="rotate(216 10.7 12.2)"/>
  <ellipse cx="18.0" cy="9.8" rx="4.40591436689995" ry="3.9261600495903566" fill="#c91831" transform="rotate(288 18.0 9.8)"/>
  <circle cx="16" cy="16" r="3" fill="#ff9800"/>
  <circle cx="15.5" cy="15.5" r="1" fill="#fff" opacity="0.6"/>
</svg>