<svg xmlns="http://www.w3.org/2000/svg" width="32" height="32" viewBox="0 0 32 32">
  <rect x="0" y="28" width="32" height="4" fill="#1a7021"/>
  <!-- Back layer blades -->
  <polygon points="0,20 2,20 1,5" fill="#1e7a1e"/>
  <polygon points="4,20 6,20 5,3" fill="#228b22"/>
  <polygon points="8,20 10,20 9,5" fill="#268029"/>
  <polygon points="12,20 14,20 13,1" fill="#228b22"/>
  <polygon points="16,20 18,20 17,4" fill="#228b22"/>
  <polygon points="20,20 22,20 21,2" fill="#1e7a1e"/>
  <polygon points="24,20 26,20 25,2" fill="#1f7523"/>
  <polygon points="28,20 30,20 29,6" fill="#2d9633"/>
  <!-- Front layer blades -->
  <polygon points="0,32 2,32 1,10" fill="#30a838"/>
  <polygon points="2,32 4,32 3,14" fill="#38b840"/>
  <polygon points="4,32 6,32 5,11" fill="#32cd32"/>
  <polygon points="6,32 8,32 7,15" fill="#3cb443"/>
  <polygon points="8,32 10,32 9,12" fill="#30a838"/>
  <polygon points="10,32 12,32 11,16" fill="#4acc52"/>
  <polygon points="12,32 14,32 13,13" fill="#38b840"/>
  <polygon points="14,32 16,32 15,17" fill="#32cd32"/>
  <polygon points="16,32 18,32 17,14" fill="#30a838"/>
  <polygon points="18,32 20,32 19,18" fill="#3cb443"/>
  <polygon points="20,32 22,32 21,15" fill="#38b840"/>
  <polygon points="22,32 24,32 23,19" fill="#4acc52"/>
  <polygon points="24,32 26,32 25,16" fill="#30a838"/>
  <polygon points="26,32 28,32 27,20" fill="#32cd32"/>
  <polygon points="28,32 30,32 29,17" fill="#38b840"/>
  <polygon points="30,32 32,32 31,21" fill="#3cb443"/>
</svg>
