<svg xmlns="http://www.w3.org/2000/svg" width="32" height="32" viewBox="0 0 32 32">
  <ellipse cx="16" cy="30" rx="6" ry="2" fill="rgba(0,0,0,0.1)"/>
  <path d="M15.949628830863922,32 Q13.949628830863922,24 15.949628830863922,16" stroke="#1b5e20" stroke-width="2" fill="none"/>
  <path d="M16.087568284053155,32 Q14.087568284053155,24 16.087568284053155,16" stroke="#2e7d32" stroke-width="2" fill="none"/>
  <path d="M16.696210862461577,32 Q14.696210862461577,24 16.696210862461577,16" stroke="#2e7d32" stroke-width="2" fill="none"/>
  <ellipse cx="15.45736313027207" cy="27.984684946939666" rx="4" ry="2" fill="#32cd32" transform="rotate(24.254810239307027 15.45736313027207 27.984684946939666)"/>
  <ellipse cx="18.103751185398433" cy="23.228153467750246" rx="4" ry="2" fill="#3cb371" transform="rotate(12.228798885936293 18.103751185398433 23.228153467750246)"/>
  <ellipse cx="22.3" cy="16.0" rx="3.240287363641098" ry="3.80910544405184" fill="#a569bd" transform="rotate(0 22.3 16.0)"/>
  <ellipse cx="20.0" cy="21.0" rx="3.240287363641098" ry="3.80910544405184" fill="#7d3c98" transform="rotate(51 20.0 21.0)"/>
  <ellipse cx="14.6" cy="22.2" rx="3.240287363641098" ry="3.80910544405184" fill="#7d3c98" transform="rotate(103 14.6 22.2)"/>
  <ellipse cx="10.3" cy="18.8" rx="3.240287363641098" ry="3.80910544405184" fill="#9b59b6" transform="rotate(154 10.3 18.8)"/>
  <ellipse cx="10.3" cy="13.2" rx="3.240287363641098" ry="3.80910544405184" fill="#a569bd" transform="rotate(206 10.3 13.2)"/>
  <ellipse cx="14.6" cy="9.8" rx="3.240287363641098" ry="3.80910544405184" fill="#bb8fce" transform="rotate(257 14.6 9.8)"/>
  <ellipse cx="20.0" cy="11.0" rx="3.240287363641098" ry="3.80910544405184" fill="#8e44ad" transform="rotate(309 20.0 11.0)"/>
  <circle cx="16" cy="16" r="3" fill="#ffeb3b"/>
  <circle cx="15.5" cy="15.5" r="1" fill="#fff" opacity="0.6"/>
</svg>