<svg xmlns="http://www.w3.org/2000/svg" width="32" height="32" viewBox="0 0 32 32">
  <rect x="0" y="24" width="32" height="8" fill="#4a2020"/>
  <!-- Top row - bases at y=16 (darker flames) -->
  <polygon points="0,16 4,16 2,2" fill="#cc4400"/>
  <polygon points="4,16 8,16 6,4" fill="#ff5500"/>
  <polygon points="8,16 12,16 10,0" fill="#cc3300"/>
  <polygon points="12,16 16,16 14,3" fill="#ff6600"/>
  <polygon points="16,16 20,16 18,1" fill="#cc4400"/>
  <polygon points="20,16 24,16 22,4" fill="#ff5500"/>
  <polygon points="24,16 28,16 26,0" fill="#cc3300"/>
  <polygon points="28,16 32,16 30,3" fill="#ff6600"/>
  <!-- Bottom row - bases at y=32 (brighter flames) -->
  <polygon points="0,32 4,32 2,18" fill="#ff8800"/>
  <polygon points="4,32 8,32 6,14" fill="#ffaa00"/>
  <polygon points="8,32 12,32 10,20" fill="#ff7700"/>
  <polygon points="12,32 16,32 14,12" fill="#ff9900"/>
  <polygon points="16,32 20,32 18,18" fill="#ff8800"/>
  <polygon points="20,32 24,32 22,14" fill="#ffaa00"/>
  <polygon points="24,32 28,32 26,20" fill="#ff7700"/>
  <polygon points="28,32 32,32 30,16" fill="#ff9900"/>
</svg>
