<svg xmlns="http://www.w3.org/2000/svg" width="32" height="32" viewBox="0 0 32 32">
  <ellipse cx="16" cy="30" rx="6" ry="2" fill="rgba(0,0,0,0.15)"/>
  <path d="M15.203810692394065,32 Q13.203810692394065,24 15.203810692394065,16" stroke="#43a047" stroke-width="2" fill="none"/>
  <path d="M16.767386437751068,32 Q14.767386437751068,24 16.767386437751068,16" stroke="#2e7d32" stroke-width="2" fill="none"/>
  <path d="M16.352995873593258,32 Q14.352995873593258,24 16.352995873593258,16" stroke="#228b22" stroke-width="2" fill="none"/>
  <ellipse cx="17.81678605350516" cy="24.96800303597376" rx="4" ry="2" fill="#00fa9a" transform="rotate(-10.249729147297202 17.81678605350516 24.96800303597376)"/>
  <ellipse cx="13.15840911919177" cy="23.784940899249605" rx="4" ry="2" fill="#2e8b57" transform="rotate(24.426319624495846 13.15840911919177 23.784940899249605)"/>
  <ellipse cx="24.3" cy="16.0" rx="3.3814389707434174" ry="5.007193065344912" fill="#f0f0f0" transform="rotate(0 24.3 16.0)"/>
  <ellipse cx="21.9" cy="21.9" rx="3.3814389707434174" ry="5.007193065344912" fill="#f5f5f5" transform="rotate(45 21.9 21.9)"/>
  <ellipse cx="16.0" cy="24.3" rx="3.3814389707434174" ry="5.007193065344912" fill="#f8f8ff" transform="rotate(90 16.0 24.3)"/>
  <ellipse cx="10.1" cy="21.9" rx="3.3814389707434174" ry="5.007193065344912" fill="#f8f8ff" transform="rotate(135 10.1 21.9)"/>
  <ellipse cx="7.7" cy="16.0" rx="3.3814389707434174" ry="5.007193065344912" fill="#f0f0f0" transform="rotate(180 7.7 16.0)"/>
  <ellipse cx="10.1" cy="10.1" rx="3.3814389707434174" ry="5.007193065344912" fill="#fafafa" transform="rotate(225 10.1 10.1)"/>
  <ellipse cx="16.0" cy="7.7" rx="3.3814389707434174" ry="5.007193065344912" fill="#ffffff" transform="rotate(270 16.0 7.7)"/>
  <ellipse cx="21.9" cy="10.1" rx="3.3814389707434174" ry="5.007193065344912" fill="#ffffff" transform="rotate(315 21.9 10.1)"/>
  <circle cx="16" cy="16" r="3" fill="#ffc107"/>
  <circle cx="15.5" cy="15.5" r="1" fill="#fff" opacity="0.6"/>
</svg>