<svg xmlns="http://www.w3.org/2000/svg" width="32" height="32" viewBox="0 0 32 32">
  <ellipse cx="15.7" cy="30" rx="6" ry="2" fill="rgba(0,0,0,0.1)"/>
  <path d="M15.011480331891907,32 Q12.711480331891906,24 14.711480331891906,16" stroke="#388e3c" stroke-width="2" fill="none"/>
  <path d="M15.01556968736256,32 Q12.71556968736256,24 14.71556968736256,16" stroke="#1b5e20" stroke-width="2" fill="none"/>
  <path d="M16.663702012348782,32 Q14.363702012348782,24 16.36370201234878,16" stroke="#2e7d32" stroke-width="2" fill="none"/>
  <ellipse cx="19.072692111587475" cy="23.529625893351447" rx="4" ry="2" fill="#00fa9a" transform="rotate(28.96233561400433 19.072692111587475 23.529625893351447)"/>
  <ellipse cx="14.441588593805948" cy="27.530663492870826" rx="4" ry="2" fill="#32cd32" transform="rotate(-0.8856850726928975 14.441588593805948 27.530663492870826)"/>
  <ellipse cx="23.5" cy="16.0" rx="4.954760313944314" ry="4.651619697106825" fill="#f5f5f5" transform="rotate(0 23.5 16.0)"/>
  <ellipse cx="19.6" cy="22.7" rx="4.954760313944314" ry="4.651619697106825" fill="#fafafa" transform="rotate(60 19.6 22.7)"/>
  <ellipse cx="11.8" cy="22.7" rx="4.954760313944314" ry="4.651619697106825" fill="#ffffff" transform="rotate(120 11.8 22.7)"/>
  <ellipse cx="7.9" cy="16.0" rx="4.954760313944314" ry="4.651619697106825" fill="#ffffff" transform="rotate(180 7.9 16.0)"/>
  <ellipse cx="11.8" cy="9.3" rx="4.954760313944314" ry="4.651619697106825" fill="#f5f5f5" transform="rotate(240 11.8 9.3)"/>
  <ellipse cx="19.6" cy="9.3" rx="4.954760313944314" ry="4.651619697106825" fill="#f8f8ff" transform="rotate(300 19.6 9.3)"/>
  <circle cx="15.7" cy="16" r="3" fill="#ff9800"/>
  <circle cx="15.2" cy="15.5" r="1" fill="#fff" opacity="0.6"/>
</svg>