<svg xmlns="http://www.w3.org/2000/svg" width="32" height="32" viewBox="0 0 32 32">
  <ellipse cx="16" cy="30" rx="6" ry="2" fill="rgba(0,0,0,0.2)"/>
  <path d="M15.685021520445598,32 Q13.685021520445598,24 15.685021520445598,16" stroke="#43a047" stroke-width="2" fill="none"/>
  <path d="M17.516556264607495,32 Q15.516556264607495,24 17.516556264607495,16" stroke="#388e3c" stroke-width="2" fill="none"/>
  <path d="M16.47456789131955,32 Q14.474567891319548,24 16.47456789131955,16" stroke="#1b5e20" stroke-width="2" fill="none"/>
  <ellipse cx="16.43235874382423" cy="24.13112807373103" rx="4" ry="2" fill="#3cb371" transform="rotate(-27.30339109772043 16.43235874382423 24.13112807373103)"/>
  <ellipse cx="13.611050129686971" cy="23.305738509309357" rx="4" ry="2" fill="#228b22" transform="rotate(-5.664510715596617 13.611050129686971 23.305738509309357)"/>
  <ellipse cx="22.4" cy="16.0" rx="4.35662370983354" ry="3.8210543633536687" fill="#db7093" transform="rotate(0 22.4 16.0)"/>
  <ellipse cx="18.0" cy="22.1" rx="4.35662370983354" ry="3.8210543633536687" fill="#db7093" transform="rotate(72 18.0 22.1)"/>
  <ellipse cx="10.8" cy="19.7" rx="4.35662370983354" ry="3.8210543633536687" fill="#ff1493" transform="rotate(144 10.8 19.7)"/>
  <ellipse cx="10.8" cy="12.3" rx="4.35662370983354" ry="3.8210543633536687" fill="#ff69b4" transform="rotate(216 10.8 12.3)"/>
  <ellipse cx="18.0" cy="9.9" rx="4.35662370983354" ry="3.8210543633536687" fill="#db7093" transform="rotate(288 18.0 9.9)"/>
  <circle cx="16" cy="16" r="3" fill="#ffc107"/>
  <circle cx="15.5" cy="15.5" r="1" fill="#fff" opacity="0.6"/>
</svg>