<svg xmlns="http://www.w3.org/2000/svg" width="32" height="32" viewBox="0 0 32 32">
  <ellipse cx="16" cy="30" rx="6" ry="2" fill="rgba(0,0,0,0.1)"/>
  <path d="M15.491597653129881,32 Q13.491597653129881,24 15.491597653129881,16" stroke="#2e7d32" stroke-width="2" fill="none"/>
  <path d="M14.51065218472418,32 Q12.51065218472418,24 14.51065218472418,16" stroke="#43a047" stroke-width="2" fill="none"/>
  <path d="M17.032142640572108,32 Q15.032142640572108,24 17.032142640572108,16" stroke="#1b5e20" stroke-width="2" fill="none"/>
  <ellipse cx="12.051864624047589" cy="24.464576878801257" rx="4" ry="2" fill="#32cd32" transform="rotate(6.872922795299871 12.051864624047589 24.464576878801257)"/>
  <ellipse cx="16.44987774102477" cy="24.490308047500584" rx="4" ry="2" fill="#3cb371" transform="rotate(-12.676627627888987 16.44987774102477 24.490308047500584)"/>
  <ellipse cx="23.9" cy="16.0" rx="4.051397085679414" ry="4.756043887676691" fill="#ffd700" transform="rotate(0 23.9 16.0)"/>
  <ellipse cx="21.6" cy="21.6" rx="4.051397085679414" ry="4.756043887676691" fill="#e6c200" transform="rotate(45 21.6 21.6)"/>
  <ellipse cx="16.0" cy="23.9" rx="4.051397085679414" ry="4.756043887676691" fill="#f4d03f" transform="rotate(90 16.0 23.9)"/>
  <ellipse cx="10.4" cy="21.6" rx="4.051397085679414" ry="4.756043887676691" fill="#ffdf00" transform="rotate(135 10.4 21.6)"/>
  <ellipse cx="8.1" cy="16.0" rx="4.051397085679414" ry="4.756043887676691" fill="#ffdf00" transform="rotate(180 8.1 16.0)"/>
  <ellipse cx="10.4" cy="10.4" rx="4.051397085679414" ry="4.756043887676691" fill="#f4d03f" transform="rotate(225 10.4 10.4)"/>
  <ellipse cx="16.0" cy="8.1" rx="4.051397085679414" ry="4.756043887676691" fill="#ffdf00" transform="rotate(270 16.0 8.1)"/>
  <ellipse cx="21.6" cy="10.4" rx="4.051397085679414" ry="4.756043887676691" fill="#f4d03f" transform="rotate(315 21.6 10.4)"/>
  <circle cx="16" cy="16" r="3" fill="#ffd54f"/>
  <circle cx="15.5" cy="15.5" r="1" fill="#fff" opacity="0.6"/>
</svg>