<svg xmlns="http://www.w3.org/2000/svg" width="32" height="32" viewBox="0 0 32 32">
  <ellipse cx="16" cy="30" rx="6" ry="2" fill="rgba(0,0,0,0.1)"/>
  <path d="M16.33428955186824,32 Q14.334289551868238,24 16.33428955186824,16" stroke="#2e7d32" stroke-width="2" fill="none"/>
  <path d="M15.591201782967524,32 Q13.591201782967524,24 15.591201782967524,16" stroke="#228b22" stroke-width="2" fill="none"/>
  <path d="M16.074798704159818,32 Q14.074798704159818,24 16.074798704159818,16" stroke="#1b5e20" stroke-width="2" fill="none"/>
  <ellipse cx="15.787688257073839" cy="25.78161072907113" rx="4" ry="2" fill="#32cd32" transform="rotate(2.610134497569007 15.787688257073839 25.78161072907113)"/>
  <ellipse cx="12.374795913870816" cy="25.395703972967205" rx="4" ry="2" fill="#3cb371" transform="rotate(-27.66356706510464 12.374795913870816 25.395703972967205)"/>
  <ellipse cx="23.1" cy="16.0" rx="4.5975732810784" ry="4.241305715144288" fill="#bb8fce" transform="rotate(0 23.1 16.0)"/>
  <ellipse cx="20.4" cy="21.5" rx="4.5975732810784" ry="4.241305715144288" fill="#9b59b6" transform="rotate(51 20.4 21.5)"/>
  <ellipse cx="14.4" cy="22.9" rx="4.5975732810784" ry="4.241305715144288" fill="#9b59b6" transform="rotate(103 14.4 22.9)"/>
  <ellipse cx="9.6" cy="19.1" rx="4.5975732810784" ry="4.241305715144288" fill="#7d3c98" transform="rotate(154 9.6 19.1)"/>
  <ellipse cx="9.6" cy="12.9" rx="4.5975732810784" ry="4.241305715144288" fill="#8e44ad" transform="rotate(206 9.6 12.9)"/>
  <ellipse cx="14.4" cy="9.1" rx="4.5975732810784" ry="4.241305715144288" fill="#9b59b6" transform="rotate(257 14.4 9.1)"/>
  <ellipse cx="20.4" cy="10.5" rx="4.5975732810784" ry="4.241305715144288" fill="#a569bd" transform="rotate(309 20.4 10.5)"/>
  <circle cx="16" cy="16" r="3" fill="#ffca28"/>
  <circle cx="15.5" cy="15.5" r="1" fill="#fff" opacity="0.6"/>
</svg>