<svg xmlns="http://www.w3.org/2000/svg" width="32" height="32" viewBox="0 0 32 32">
  <rect x="0" y="28" width="32" height="4" fill="#1a7021"/>
  <polygon points="0.0,32.0 2.0,32.0 2.2,15.1" fill="#1a7021"/>
  <polygon points="2.0,32.0 4.0,32.0 4.9,10.0" fill="#1e5a18"/>
  <polygon points="4.0,32.0 6.0,32.0 6.3,15.4" fill="#165214"/>
  <polygon points="6.0,32.0 8.0,32.0 9.0,16.9" fill="#1a7021"/>
  <polygon points="8.0,32.0 10.0,32.0 10.2,11.6" fill="#186a1e"/>
  <polygon points="10.0,32.0 12.0,32.0 12.3,10.9" fill="#1e5a18"/>
  <polygon points="12.0,32.0 14.0,32.0 14.9,11.9" fill="#186a1e"/>
  <polygon points="14.0,32.0 16.0,32.0 16.1,16.5" fill="#207627"/>
  <polygon points="16.0,32.0 18.0,32.0 18.0,15.2" fill="#186a1e"/>
  <polygon points="18.0,32.0 20.0,32.0 20.6,12.4" fill="#1e5a18"/>
  <polygon points="20.0,32.0 22.0,32.0 22.0,14.0" fill="#165214"/>
  <polygon points="22.0,32.0 24.0,32.0 24.9,16.1" fill="#186a1e"/>
  <polygon points="24.0,32.0 26.0,32.0 26.9,16.6" fill="#165214"/>
  <polygon points="26.0,32.0 28.0,32.0 28.6,14.9" fill="#1e5a18"/>
  <polygon points="28.0,32.0 30.0,32.0 30.3,14.9" fill="#1a7021"/>
  <polygon points="30.0,32.0 32.0,32.0 32.0,13.8" fill="#217d28"/>
  <polygon points="0.0,20.0 2.0,20.0 1.8,4.2" fill="#268029"/>
  <polygon points="4.0,20.0 6.0,20.0 7.1,1.8" fill="#1b6920"/>
  <polygon points="8.0,20.0 10.0,20.0 10.9,0.5" fill="#2d9633"/>
  <polygon points="12.0,20.0 14.0,20.0 14.3,4.6" fill="#268029"/>
  <polygon points="16.0,20.0 18.0,20.0 18.1,5.9" fill="#1f7523"/>
  <polygon points="20.0,20.0 22.0,20.0 22.7,4.1" fill="#1f7523"/>
  <polygon points="24.0,20.0 26.0,20.0 26.9,2.3" fill="#2d9633"/>
  <polygon points="28.0,20.0 30.0,20.0 30.4,0.1" fill="#1b6920"/>
  <polygon points="15.8,32.0 17.8,32.0 17.7,11.1" fill="#30a838"/>
  <polygon points="18.1,32.0 20.1,32.0 20.1,15.1" fill="#4acc52"/>
  <polygon points="11.1,32.0 13.1,32.0 14.1,11.8" fill="#30a838"/>
  <polygon points="17.6,32.0 19.6,32.0 20.0,10.1" fill="#2ea32e"/>
  <polygon points="12.3,32.0 14.3,32.0 15.1,9.2" fill="#38b840"/>
  <polygon points="2.8,32.0 4.8,32.0 4.8,12.6" fill="#30a838"/>
  <polygon points="12.9,32.0 14.9,32.0 15.7,9.6" fill="#3cb443"/>
  <polygon points="11.4,32.0 13.4,32.0 14.3,10.7" fill="#38b840"/>
  <polygon points="6.1,32.0 8.1,32.0 8.7,15.6" fill="#2ea32e"/>
  <polygon points="0.6,32.0 2.6,32.0 3.7,13.4" fill="#3cb443"/>
  <polygon points="1.4,32.0 3.4,32.0 3.6,10.1" fill="#38b840"/>
  <polygon points="6.0,32.0 8.0,32.0 8.0,14.0" fill="#30a838"/>
  <polygon points="22.4,32.0 23.9,32.0 24.9,10.5" fill="#58e858" opacity="0.7"/>
  <polygon points="2.1,32.0 3.6,32.0 4.1,12.1" fill="#55ee5c" opacity="0.7"/>
  <polygon points="25.2,32.0 26.7,32.0 27.8,10.5" fill="#58e858" opacity="0.7"/>
  <polygon points="14.6,32.0 16.1,32.0 16.6,12.5" fill="#50dd50" opacity="0.7"/>
  <polygon points="22.7,32.0 24.2,32.0 24.9,10.9" fill="#66ff66" opacity="0.7"/>
</svg>