<svg xmlns="http://www.w3.org/2000/svg" width="32" height="32" viewBox="0 0 32 32">
  <ellipse cx="16" cy="30" rx="6" ry="2" fill="rgba(0,0,0,0.15)"/>
  <path d="M15.812374115834187,32 Q13.812374115834187,24 15.812374115834187,16" stroke="#2e7d32" stroke-width="2" fill="none"/>
  <path d="M16.295940400239054,32 Q14.295940400239054,24 16.295940400239054,16" stroke="#228b22" stroke-width="2" fill="none"/>
  <path d="M17.187587843829576,32 Q15.187587843829576,24 17.187587843829576,16" stroke="#43a047" stroke-width="2" fill="none"/>
  <ellipse cx="15.890167238139625" cy="24.16573715310811" rx="4" ry="2" fill="#228b22" transform="rotate(21.13208773132976 15.890167238139625 24.16573715310811)"/>
  <ellipse cx="19.190032962332495" cy="26.71882248144542" rx="4" ry="2" fill="#228b22" transform="rotate(-29.7689437865135 19.190032962332495 26.71882248144542)"/>
  <ellipse cx="23.7" cy="16.0" rx="3.22994804393032" ry="4.617478227344098" fill="#cc2233" transform="rotate(0 23.7 16.0)"/>
  <ellipse cx="18.4" cy="23.3" rx="3.22994804393032" ry="4.617478227344098" fill="#cc2233" transform="rotate(72 18.4 23.3)"/>
  <ellipse cx="9.8" cy="20.5" rx="3.22994804393032" ry="4.617478227344098" fill="#d62839" transform="rotate(144 9.8 20.5)"/>
  <ellipse cx="9.8" cy="11.5" rx="3.22994804393032" ry="4.617478227344098" fill="#e63946" transform="rotate(216 9.8 11.5)"/>
  <ellipse cx="18.4" cy="8.7" rx="3.22994804393032" ry="4.617478227344098" fill="#ff4d5a" transform="rotate(288 18.4 8.7)"/>
  <circle cx="16" cy="16" r="3" fill="#ffca28"/>
  <circle cx="15.5" cy="15.5" r="1" fill="#fff" opacity="0.6"/>
</svg>