<svg xmlns="http://www.w3.org/2000/svg" width="32" height="32" viewBox="0 0 32 32">
  <ellipse cx="16.3" cy="30" rx="6" ry="2" fill="rgba(0,0,0,0.2)"/>
  <path d="M17.038309679850148,32 Q15.338309679850148,24 17.33830967985015,16" stroke="#2e7d32" stroke-width="2" fill="none"/>
  <path d="M17.94104242508348,32 Q16.24104242508348,24 18.24104242508348,16" stroke="#1b5e20" stroke-width="2" fill="none"/>
  <path d="M16.040924073216004,32 Q14.340924073216005,24 16.340924073216005,16" stroke="#1b5e20" stroke-width="2" fill="none"/>
  <ellipse cx="14.59440307724029" cy="25.54795456097832" rx="4" ry="2" fill="#228b22" transform="rotate(-22.14900970093394 14.59440307724029 25.54795456097832)"/>
  <ellipse cx="14.877667475947025" cy="24.192764521666227" rx="4" ry="2" fill="#00fa9a" transform="rotate(-24.90689992667497 14.877667475947025 24.192764521666227)"/>
  <ellipse cx="24.9" cy="16.0" rx="3.9365820889065892" ry="5.178239089985489" fill="#c91831" transform="rotate(0 24.9 16.0)"/>
  <ellipse cx="21.7" cy="22.7" rx="3.9365820889065892" ry="5.178239089985489" fill="#ff4d5a" transform="rotate(51 21.7 22.7)"/>
  <ellipse cx="14.4" cy="24.4" rx="3.9365820889065892" ry="5.178239089985489" fill="#d62839" transform="rotate(103 14.4 24.4)"/>
  <ellipse cx="8.5" cy="19.7" rx="3.9365820889065892" ry="5.178239089985489" fill="#e63946" transform="rotate(154 8.5 19.7)"/>
  <ellipse cx="8.5" cy="12.3" rx="3.9365820889065892" ry="5.178239089985489" fill="#c91831" transform="rotate(206 8.5 12.3)"/>
  <ellipse cx="14.4" cy="7.6" rx="3.9365820889065892" ry="5.178239089985489" fill="#c91831" transform="rotate(257 14.4 7.6)"/>
  <ellipse cx="21.7" cy="9.3" rx="3.9365820889065892" ry="5.178239089985489" fill="#cc2233" transform="rotate(309 21.7 9.3)"/>
  <circle cx="16.3" cy="16" r="3" fill="#ffca28"/>
  <circle cx="15.8" cy="15.5" r="1" fill="#fff" opacity="0.6"/>
</svg>