<svg xmlns="http://www.w3.org/2000/svg" width="32" height="32" viewBox="0 0 32 32">
  <rect x="0" y="28" width="32" height="4" fill="#4a2020"/>
  <polygon points="0,32 2,32 1,16" fill="#8b2500"/>
  <polygon points="2,32 4,32 3,13" fill="#a03000"/>
  <polygon points="4,32 6,32 5,14" fill="#8b2500"/>
  <polygon points="6,32 8,32 7,15" fill="#9a2a00"/>
  <polygon points="8,32 10,32 9,12" fill="#8b2500"/>
  <polygon points="10,32 12,32 11,16" fill="#a03000"/>
  <polygon points="12,32 14,32 13,14" fill="#8b2500"/>
  <polygon points="14,32 16,32 15,15" fill="#9a2a00"/>
  <polygon points="16,32 18,32 17,13" fill="#8b2500"/>
  <polygon points="18,32 20,32 19,16" fill="#a03000"/>
  <polygon points="20,32 22,32 21,14" fill="#8b2500"/>
  <polygon points="22,32 24,32 23,15" fill="#9a2a00"/>
  <polygon points="24,32 26,32 25,12" fill="#8b2500"/>
  <polygon points="26,32 28,32 27,16" fill="#a03000"/>
  <polygon points="28,32 30,32 29,14" fill="#8b2500"/>
  <polygon points="30,32 32,32 31,15" fill="#9a2a00"/>
  <polygon points="0,20 2,20 1,8" fill="#cc4400"/>
  <polygon points="2,20 4,20 3,4" fill="#ff5500"/>
  <polygon points="4,20 6,20 5,6" fill="#cc4400"/>
  <polygon points="6,20 8,20 7,3" fill="#ff6600"/>
  <polygon points="8,20 10,20 9,7" fill="#cc4400"/>
  <polygon points="10,20 12,20 11,5" fill="#ff5500"/>
  <polygon points="12,20 14,20 13,4" fill="#cc4400"/>
  <polygon points="14,20 16,20 15,6" fill="#ff6600"/>
  <polygon points="16,20 18,20 17,3" fill="#cc4400"/>
  <polygon points="18,20 20,20 19,8" fill="#ff5500"/>
  <polygon points="20,20 22,20 21,5" fill="#cc4400"/>
  <polygon points="22,20 24,20 23,4" fill="#ff6600"/>
  <polygon points="24,20 26,20 25,6" fill="#cc4400"/>
  <polygon points="26,20 28,20 27,3" fill="#ff5500"/>
  <polygon points="28,20 30,20 29,7" fill="#cc4400"/>
  <polygon points="30,20 32,20 31,5" fill="#ff6600"/>
  <polygon points="3,32 5,32 4,12" fill="#ff7700"/>
  <polygon points="7,32 9,32 8,10" fill="#ff8800"/>
  <polygon points="11,32 13,32 12,11" fill="#ff7700"/>
  <polygon points="15,32 17,32 16,9" fill="#ff8800"/>
  <polygon points="19,32 21,32 20,12" fill="#ff7700"/>
  <polygon points="23,32 25,32 24,10" fill="#ff8800"/>
  <polygon points="27,32 29,32 28,11" fill="#ff7700"/>
  <polygon points="6,32 8,32 7,8" fill="#ffaa00"/>
  <polygon points="10,32 12,32 11,7" fill="#ffbb00"/>
  <polygon points="14,32 16,32 15,9" fill="#ffaa00"/>
  <polygon points="18,32 20,32 19,6" fill="#ffbb00"/>
  <polygon points="22,32 24,32 23,8" fill="#ffaa00"/>
  <polygon points="26,32 28,32 27,7" fill="#ffbb00"/>
</svg>
