<svg xmlns="http://www.w3.org/2000/svg" width="32" height="32" viewBox="0 0 32 32">
  <rect x="0" y="28" width="32" height="4" fill="#8b2500"/>
  <polygon points="0,32 2,32 1.5,10.0" fill="#6b1010"/>
  <polygon points="2,32 4,32 3.8,13.9" fill="#962218"/>
  <polygon points="4,32 6,32 6.0,15.0" fill="#801818"/>
  <polygon points="6,32 8,32 7.9,14.6" fill="#962218"/>
  <polygon points="8,32 10,32 9.7,16.2" fill="#6b1010"/>
  <polygon points="10,32 12,32 11.3,10.4" fill="#962218"/>
  <polygon points="12,32 14,32 13.1,14.0" fill="#7d1515"/>
  <polygon points="14,32 16,32 15.0,14.6" fill="#8b1a1a"/>
  <polygon points="16,32 18,32 17.2,14.3" fill="#962218"/>
  <polygon points="18,32 20,32 19.5,16.5" fill="#8b1a1a"/>
  <polygon points="20,32 22,32 21.8,10.8" fill="#6b1010"/>
  <polygon points="22,32 24,32 24.0,14.0" fill="#801818"/>
  <polygon points="24,32 26,32 25.9,14.2" fill="#8b1a1a"/>
  <polygon points="26,32 28,32 27.7,14.1" fill="#8b1a1a"/>
  <polygon points="28,32 30,32 29.3,16.8" fill="#6b1010"/>
  <polygon points="30,32 32,32 31.1,11.2" fill="#7d1515"/>
  <polygon points="0,20 2,20 1.5,0.0" fill="#d04800"/>
  <polygon points="4,20 6,20 6.0,2.4" fill="#d04800"/>
  <polygon points="8,20 10,20 10.2,3.8" fill="#b83200"/>
  <polygon points="12,20 14,20 13.8,4.3" fill="#cc4400"/>
  <polygon points="16,20 18,20 17.2,-1.0" fill="#b83200"/>
  <polygon points="20,20 22,20 20.8,0.8" fill="#b83200"/>
  <polygon points="24,20 26,20 25.0,3.3" fill="#be3e00"/>
  <polygon points="28,20 30,20 29.5,5.5" fill="#dd5500"/>
  <polygon points="0.5,32 2.5,32 2.0,8.0" fill="#ff6a11"/>
  <polygon points="3.2,32 5.2,32 5.3,12.0" fill="#ff6600"/>
  <polygon points="5.9,32 7.9,32 7.8,12.3" fill="#ff8833"/>
  <polygon points="8.600000000000001,32 10.600000000000001,32 9.8,12.0" fill="#ff6600"/>
  <polygon points="11.3,32 13.3,32 12.2,7.4" fill="#ff5500"/>
  <polygon points="14,32 16,32 15.3,11.9" fill="#ff6a11"/>
  <polygon points="16.700000000000003,32 18.700000000000003,32 18.7,12.8" fill="#ee6611"/>
  <polygon points="19.400000000000002,32 21.400000000000002,32 21.4,12.2" fill="#ff8833"/>
  <polygon points="22.1,32 24.1,32 23.5,6.9" fill="#ff7722"/>
  <polygon points="24.8,32 26.8,32 25.7,11.6" fill="#ff7722"/>
  <polygon points="27.5,32 29.5,32 28.7,13.3" fill="#ff5500"/>
  <polygon points="30.200000000000003,32 32,32 32.0,12.6" fill="#ee6611"/>
  <polygon points="1,32 2.5,32 2.3,12.0" fill="#ffcc33" opacity="0.7"/>
  <polygon points="6.5,32 8,32 8.1,14.0" fill="#ffd700" opacity="0.7"/>
  <polygon points="12,32 13.5,32 13.1,16.0" fill="#ffbb22" opacity="0.7"/>
  <polygon points="17.5,32 19,32 18.4,12.0" fill="#ffe044" opacity="0.7"/>
  <polygon points="23,32 24.5,32 24.6,14.0" fill="#ffbb22" opacity="0.7"/>
  <polygon points="28.5,32 30,32 29.9,16.0" fill="#ffe044" opacity="0.7"/>
</svg>