<svg xmlns="http://www.w3.org/2000/svg" width="32" height="32" viewBox="0 0 32 32">
  <rect x="0" y="24" width="32" height="8" fill="#1a7021"/>
  <!-- Top row - bases at y=16 -->
  <polygon points="0,16 4,16 2,2" fill="#1e5a18"/>
  <polygon points="4,16 8,16 6,4" fill="#165214"/>
  <polygon points="8,16 12,16 10,0" fill="#186a1e"/>
  <polygon points="12,16 16,16 14,3" fill="#207627"/>
  <polygon points="16,16 20,16 18,1" fill="#217d28"/>
  <polygon points="20,16 24,16 22,4" fill="#186a1e"/>
  <polygon points="24,16 28,16 26,0" fill="#165214"/>
  <polygon points="28,16 32,16 30,3" fill="#1e5a18"/>
  <!-- Bottom row - bases at y=32 -->
  <polygon points="0,32 4,32 2,18" fill="#4acc52"/>
  <polygon points="4,32 8,32 6,14" fill="#32cd32"/>
  <polygon points="8,32 12,32 10,20" fill="#3cb443"/>
  <polygon points="12,32 16,32 14,12" fill="#4acc52"/>
  <polygon points="16,32 20,32 18,18" fill="#32cd32"/>
  <polygon points="20,32 24,32 22,14" fill="#3cb443"/>
  <polygon points="24,32 28,32 26,20" fill="#4acc52"/>
  <polygon points="28,32 32,32 30,16" fill="#32cd32"/>
</svg>
