<svg xmlns="http://www.w3.org/2000/svg" width="32" height="32" viewBox="0 0 32 32">
  <ellipse cx="16" cy="30" rx="6" ry="2" fill="rgba(0,0,0,0.1)"/>
  <path d="M14.07333183291989,32 Q12.07333183291989,24 14.07333183291989,16" stroke="#1b5e20" stroke-width="2" fill="none"/>
  <path d="M17.049180985916955,32 Q15.049180985916955,24 17.049180985916955,16" stroke="#2e7d32" stroke-width="2" fill="none"/>
  <path d="M16.784685136184414,32 Q14.784685136184414,24 16.784685136184414,16" stroke="#43a047" stroke-width="2" fill="none"/>
  <ellipse cx="19.056491855092574" cy="27.015215876053652" rx="4" ry="2" fill="#00fa9a" transform="rotate(0.32595635872611695 19.056491855092574 27.015215876053652)"/>
  <ellipse cx="18.063449862442653" cy="26.037158014270084" rx="4" ry="2" fill="#32cd32" transform="rotate(23.833953763280974 18.063449862442653 26.037158014270084)"/>
  <ellipse cx="24.4" cy="16.0" rx="4.12486338667798" ry="5.062280059541706" fill="#f4d03f" transform="rotate(0 24.4 16.0)"/>
  <ellipse cx="22.0" cy="22.0" rx="4.12486338667798" ry="5.062280059541706" fill="#f4d03f" transform="rotate(45 22.0 22.0)"/>
  <ellipse cx="16.0" cy="24.4" rx="4.12486338667798" ry="5.062280059541706" fill="#ffec00" transform="rotate(90 16.0 24.4)"/>
  <ellipse cx="10.0" cy="22.0" rx="4.12486338667798" ry="5.062280059541706" fill="#e6c200" transform="rotate(135 10.0 22.0)"/>
  <ellipse cx="7.6" cy="16.0" rx="4.12486338667798" ry="5.062280059541706" fill="#ffec00" transform="rotate(180 7.6 16.0)"/>
  <ellipse cx="10.0" cy="10.0" rx="4.12486338667798" ry="5.062280059541706" fill="#ffdf00" transform="rotate(225 10.0 10.0)"/>
  <ellipse cx="16.0" cy="7.6" rx="4.12486338667798" ry="5.062280059541706" fill="#f4d03f" transform="rotate(270 16.0 7.6)"/>
  <ellipse cx="22.0" cy="10.0" rx="4.12486338667798" ry="5.062280059541706" fill="#ffec00" transform="rotate(315 22.0 10.0)"/>
  <circle cx="16" cy="16" r="3" fill="#ffeb3b"/>
  <circle cx="15.5" cy="15.5" r="1" fill="#fff" opacity="0.6"/>
</svg>