<svg xmlns="http://www.w3.org/2000/svg" width="32" height="32" viewBox="0 0 32 32">
  <ellipse cx="16" cy="30" rx="6" ry="2" fill="rgba(0,0,0,0.2)"/>
  <path d="M16.492121459214072,32 Q14.492121459214072,24 16.492121459214072,16" stroke="#2e7d32" stroke-width="2" fill="none"/>
  <path d="M16.47095108147289,32 Q14.47095108147289,24 16.47095108147289,16" stroke="#43a047" stroke-width="2" fill="none"/>
  <path d="M14.184803009119259,32 Q12.184803009119259,24 14.184803009119259,16" stroke="#388e3c" stroke-width="2" fill="none"/>
  <ellipse cx="13.173922539303975" cy="23.475892484875345" rx="4" ry="2" fill="#32cd32" transform="rotate(-10.258839717255366 13.173922539303975 23.475892484875345)"/>
  <ellipse cx="14.113770485908617" cy="23.908803702289614" rx="4" ry="2" fill="#32cd32" transform="rotate(5.095862762581497 14.113770485908617 23.908803702289614)"/>
  <ellipse cx="22.8" cy="16.0" rx="4.722819329110356" ry="4.107069683311074" fill="#db7093" transform="rotate(0 22.8 16.0)"/>
  <ellipse cx="18.1" cy="22.5" rx="4.722819329110356" ry="4.107069683311074" fill="#ffb6c1" transform="rotate(72 18.1 22.5)"/>
  <ellipse cx="10.5" cy="20.0" rx="4.722819329110356" ry="4.107069683311074" fill="#ff69b4" transform="rotate(144 10.5 20.0)"/>
  <ellipse cx="10.5" cy="12.0" rx="4.722819329110356" ry="4.107069683311074" fill="#ff1493" transform="rotate(216 10.5 12.0)"/>
  <ellipse cx="18.1" cy="9.5" rx="4.722819329110356" ry="4.107069683311074" fill="#ff1493" transform="rotate(288 18.1 9.5)"/>
  <circle cx="16" cy="16" r="3" fill="#ffc107"/>
  <circle cx="15.5" cy="15.5" r="1" fill="#fff" opacity="0.6"/>
</svg>