<svg xmlns="http://www.w3.org/2000/svg" width="32" height="32" viewBox="0 0 32 32">
  <ellipse cx="16.3" cy="30" rx="6" ry="2" fill="rgba(0,0,0,0.15)"/>
  <path d="M16.658761740968917,32 Q14.958761740968917,24 16.958761740968917,16" stroke="#228b22" stroke-width="2" fill="none"/>
  <path d="M15.469645620076752,32 Q13.769645620076753,24 15.769645620076753,16" stroke="#388e3c" stroke-width="2" fill="none"/>
  <path d="M14.1725945473521,32 Q12.4725945473521,24 14.4725945473521,16" stroke="#388e3c" stroke-width="2" fill="none"/>
  <ellipse cx="17.92235260271577" cy="27.22989845519415" rx="4" ry="2" fill="#228b22" transform="rotate(10.952625293728254 17.92235260271577 27.22989845519415)"/>
  <ellipse cx="16.747731020137543" cy="22.071771621737522" rx="4" ry="2" fill="#228b22" transform="rotate(21.581726098238363 16.747731020137543 22.071771621737522)"/>
  <ellipse cx="22.6" cy="16.0" rx="3.5314407947153974" ry="3.7894420624661453" fill="#8e44ad" transform="rotate(0 22.6 16.0)"/>
  <ellipse cx="18.3" cy="22.0" rx="3.5314407947153974" ry="3.7894420624661453" fill="#bb8fce" transform="rotate(72 18.3 22.0)"/>
  <ellipse cx="11.2" cy="19.7" rx="3.5314407947153974" ry="3.7894420624661453" fill="#8e44ad" transform="rotate(144 11.2 19.7)"/>
  <ellipse cx="11.2" cy="12.3" rx="3.5314407947153974" ry="3.7894420624661453" fill="#8e44ad" transform="rotate(216 11.2 12.3)"/>
  <ellipse cx="18.3" cy="10.0" rx="3.5314407947153974" ry="3.7894420624661453" fill="#bb8fce" transform="rotate(288 18.3 10.0)"/>
  <circle cx="16.3" cy="16" r="3" fill="#ffc107"/>
  <circle cx="15.8" cy="15.5" r="1" fill="#fff" opacity="0.6"/>
</svg>