<svg xmlns="http://www.w3.org/2000/svg" width="32" height="32" viewBox="0 0 32 32">
  <ellipse cx="16" cy="30" rx="6" ry="2" fill="rgba(0,0,0,0.2)"/>
  <path d="M15.321579993386557,32 Q13.321579993386557,24 15.321579993386557,16" stroke="#2e7d32" stroke-width="2" fill="none"/>
  <path d="M17.178261519958387,32 Q15.178261519958387,24 17.178261519958387,16" stroke="#388e3c" stroke-width="2" fill="none"/>
  <path d="M16.65139961366141,32 Q14.651399613661411,24 16.65139961366141,16" stroke="#2e7d32" stroke-width="2" fill="none"/>
  <ellipse cx="13.769657374252406" cy="23.50366175244733" rx="4" ry="2" fill="#228b22" transform="rotate(-23.621664044271068 13.769657374252406 23.50366175244733)"/>
  <ellipse cx="14.880169154554684" cy="22.56241345431768" rx="4" ry="2" fill="#228b22" transform="rotate(-6.89098833915358 14.880169154554684 22.56241345431768)"/>
  <ellipse cx="24.6" cy="16.0" rx="4.746325016834924" ry="5.182567263386476" fill="#ff85a2" transform="rotate(0 24.6 16.0)"/>
  <ellipse cx="18.7" cy="24.2" rx="4.746325016834924" ry="5.182567263386476" fill="#ff1493" transform="rotate(72 18.7 24.2)"/>
  <ellipse cx="9.0" cy="21.1" rx="4.746325016834924" ry="5.182567263386476" fill="#ff1493" transform="rotate(144 9.0 21.1)"/>
  <ellipse cx="9.0" cy="10.9" rx="4.746325016834924" ry="5.182567263386476" fill="#ff69b4" transform="rotate(216 9.0 10.9)"/>
  <ellipse cx="18.7" cy="7.8" rx="4.746325016834924" ry="5.182567263386476" fill="#ff1493" transform="rotate(288 18.7 7.8)"/>
  <circle cx="16" cy="16" r="3" fill="#ffc107"/>
  <circle cx="15.5" cy="15.5" r="1" fill="#fff" opacity="0.6"/>
</svg>