<svg xmlns="http://www.w3.org/2000/svg" width="32" height="32" viewBox="0 0 32 32">
  <ellipse cx="15.7" cy="30" rx="6" ry="2" fill="rgba(0,0,0,0.15)"/>
  <path d="M15.691227436853213,32 Q13.391227436853212,24 15.391227436853212,16" stroke="#43a047" stroke-width="2" fill="none"/>
  <path d="M17.5513691918698,32 Q15.251369191869799,24 17.2513691918698,16" stroke="#388e3c" stroke-width="2" fill="none"/>
  <path d="M15.594769001749702,32 Q13.294769001749701,24 15.294769001749701,16" stroke="#2e7d32" stroke-width="2" fill="none"/>
  <ellipse cx="18.99177975994152" cy="25.39822578588418" rx="4" ry="2" fill="#32cd32" transform="rotate(19.06351270576171 18.99177975994152 25.39822578588418)"/>
  <ellipse cx="19.546346858817312" cy="25.17314338831843" rx="4" ry="2" fill="#00fa9a" transform="rotate(26.242618586981024 19.546346858817312 25.17314338831843)"/>
  <ellipse cx="22.7" cy="16.0" rx="4.628744126124654" ry="4.216595650006363" fill="#8e44ad" transform="rotate(0 22.7 16.0)"/>
  <ellipse cx="17.9" cy="22.7" rx="4.628744126124654" ry="4.216595650006363" fill="#9b59b6" transform="rotate(72 17.9 22.7)"/>
  <ellipse cx="10.0" cy="20.1" rx="4.628744126124654" ry="4.216595650006363" fill="#7d3c98" transform="rotate(144 10.0 20.1)"/>
  <ellipse cx="10.0" cy="11.9" rx="4.628744126124654" ry="4.216595650006363" fill="#8e44ad" transform="rotate(216 10.0 11.9)"/>
  <ellipse cx="17.9" cy="9.3" rx="4.628744126124654" ry="4.216595650006363" fill="#8e44ad" transform="rotate(288 17.9 9.3)"/>
  <circle cx="15.7" cy="16" r="3" fill="#ffca28"/>
  <circle cx="15.2" cy="15.5" r="1" fill="#fff" opacity="0.6"/>
</svg>