<svg xmlns="http://www.w3.org/2000/svg" width="32" height="32" viewBox="0 0 32 32">
  <ellipse cx="16" cy="30" rx="6" ry="2" fill="rgba(0,0,0,0.1)"/>
  <path d="M16.909863473339875,32 Q14.909863473339875,24 16.909863473339875,16" stroke="#388e3c" stroke-width="2" fill="none"/>
  <path d="M15.077733040357815,32 Q13.077733040357815,24 15.077733040357815,16" stroke="#1b5e20" stroke-width="2" fill="none"/>
  <path d="M15.793881417156141,32 Q13.793881417156141,24 15.793881417156141,16" stroke="#43a047" stroke-width="2" fill="none"/>
  <ellipse cx="14.846109391584111" cy="25.816205503333457" rx="4" ry="2" fill="#2e8b57" transform="rotate(26.64094450727149 14.846109391584111 25.816205503333457)"/>
  <ellipse cx="12.782358169919977" cy="27.366262140388724" rx="4" ry="2" fill="#228b22" transform="rotate(24.274070288182273 12.782358169919977 27.366262140388724)"/>
  <ellipse cx="22.2" cy="16.0" rx="4.585138619684213" ry="3.699645352409987" fill="#ffdf00" transform="rotate(0 22.2 16.0)"/>
  <ellipse cx="20.4" cy="20.4" rx="4.585138619684213" ry="3.699645352409987" fill="#ffd700" transform="rotate(45 20.4 20.4)"/>
  <ellipse cx="16.0" cy="22.2" rx="4.585138619684213" ry="3.699645352409987" fill="#ffd700" transform="rotate(90 16.0 22.2)"/>
  <ellipse cx="11.6" cy="20.4" rx="4.585138619684213" ry="3.699645352409987" fill="#f4d03f" transform="rotate(135 11.6 20.4)"/>
  <ellipse cx="9.8" cy="16.0" rx="4.585138619684213" ry="3.699645352409987" fill="#e6c200" transform="rotate(180 9.8 16.0)"/>
  <ellipse cx="11.6" cy="11.6" rx="4.585138619684213" ry="3.699645352409987" fill="#ffdf00" transform="rotate(225 11.6 11.6)"/>
  <ellipse cx="16.0" cy="9.8" rx="4.585138619684213" ry="3.699645352409987" fill="#f4d03f" transform="rotate(270 16.0 9.8)"/>
  <ellipse cx="20.4" cy="11.6" rx="4.585138619684213" ry="3.699645352409987" fill="#ffec00" transform="rotate(315 20.4 11.6)"/>
  <circle cx="16" cy="16" r="3" fill="#ffca28"/>
  <circle cx="15.5" cy="15.5" r="1" fill="#fff" opacity="0.6"/>
</svg>