<svg xmlns="http://www.w3.org/2000/svg" width="32" height="32" viewBox="0 0 32 32">
  <rect x="0" y="28" width="32" height="4" fill="#1a7021"/>
  <polygon points="0.0,32.0 2.0,32.0 0.7,11.0" fill="#1e5a18"/>
  <polygon points="2.0,32.0 4.0,32.0 2.8,13.9" fill="#165214"/>
  <polygon points="4.0,32.0 6.0,32.0 5.1,11.5" fill="#1a7021"/>
  <polygon points="6.0,32.0 8.0,32.0 6.6,14.8" fill="#165214"/>
  <polygon points="8.0,32.0 10.0,32.0 8.5,13.9" fill="#207627"/>
  <polygon points="10.0,32.0 12.0,32.0 11.5,15.3" fill="#1e5a18"/>
  <polygon points="12.0,32.0 14.0,32.0 13.4,16.9" fill="#207627"/>
  <polygon points="14.0,32.0 16.0,32.0 14.8,16.7" fill="#186a1e"/>
  <polygon points="16.0,32.0 18.0,32.0 17.3,15.2" fill="#1e5a18"/>
  <polygon points="18.0,32.0 20.0,32.0 18.9,16.9" fill="#1a7021"/>
  <polygon points="20.0,32.0 22.0,32.0 20.6,15.6" fill="#217d28"/>
  <polygon points="22.0,32.0 24.0,32.0 23.5,10.0" fill="#207627"/>
  <polygon points="24.0,32.0 26.0,32.0 24.9,13.7" fill="#207627"/>
  <polygon points="26.0,32.0 28.0,32.0 26.6,15.7" fill="#217d28"/>
  <polygon points="28.0,32.0 30.0,32.0 28.5,11.1" fill="#1a7021"/>
  <polygon points="30.0,32.0 32.0,32.0 30.6,10.1" fill="#207627"/>
  <polygon points="0.0,20.0 2.0,20.0 0.4,4.6" fill="#1e7a1e"/>
  <polygon points="4.0,20.0 6.0,20.0 5.0,3.3" fill="#228b22"/>
  <polygon points="8.0,20.0 10.0,20.0 9.6,4.9" fill="#268029"/>
  <polygon points="12.0,20.0 14.0,20.0 12.4,1.3" fill="#228b22"/>
  <polygon points="16.0,20.0 18.0,20.0 17.4,4.1" fill="#228b22"/>
  <polygon points="20.0,20.0 22.0,20.0 21.0,1.5" fill="#1e7a1e"/>
  <polygon points="24.0,20.0 26.0,20.0 25.4,1.8" fill="#1f7523"/>
  <polygon points="28.0,20.0 30.0,20.0 28.6,5.8" fill="#2d9633"/>
  <polygon points="11.0,32.0 13.0,32.0 12.5,8.3" fill="#30a838"/>
  <polygon points="9.3,32.0 11.3,32.0 10.2,12.3" fill="#4acc52"/>
  <polygon points="4.6,32.0 6.6,32.0 5.6,13.2" fill="#30a838"/>
  <polygon points="2.3,32.0 4.3,32.0 3.8,8.1" fill="#38b840"/>
  <polygon points="5.6,32.0 7.6,32.0 6.0,8.8" fill="#3cb443"/>
  <polygon points="14.5,32.0 16.5,32.0 15.4,13.1" fill="#32cd32"/>
  <polygon points="15.5,32.0 17.5,32.0 16.8,8.2" fill="#38b840"/>
  <polygon points="13.6,32.0 15.6,32.0 14.2,8.7" fill="#38b840"/>
  <polygon points="16.8,32.0 18.8,32.0 17.5,11.4" fill="#4acc52"/>
  <polygon points="12.6,32.0 14.6,32.0 13.6,14.0" fill="#30a838"/>
  <polygon points="14.1,32.0 16.1,32.0 14.9,8.1" fill="#2ea32e"/>
  <polygon points="24.4,32.0 26.4,32.0 25.4,13.4" fill="#32cd32"/>
  <polygon points="26.2,32.0 27.7,32.0 26.9,12.1" fill="#58e858" opacity="0.7"/>
  <polygon points="26.3,32.0 27.8,32.0 26.8,10.4" fill="#4dd854" opacity="0.7"/>
  <polygon points="14.2,32.0 15.7,32.0 15.1,12.8" fill="#4dd854" opacity="0.7"/>
  <polygon points="8.1,32.0 9.6,32.0 8.9,11.4" fill="#4dd854" opacity="0.7"/>
  <polygon points="24.6,32.0 26.1,32.0 25.5,10.6" fill="#50dd50" opacity="0.7"/>
</svg>