<svg xmlns="http://www.w3.org/2000/svg" width="32" height="32" viewBox="0 0 32 32">
  <rect x="0" y="28" width="32" height="4" fill="#1a7021"/>
  <polygon points="0.0,32.0 2.0,32.0 1.1,11.4" fill="#1e5a18"/>
  <polygon points="2.0,32.0 4.0,32.0 3.3,16.7" fill="#217d28"/>
  <polygon points="4.0,32.0 6.0,32.0 4.9,10.5" fill="#217d28"/>
  <polygon points="6.0,32.0 8.0,32.0 7.1,14.5" fill="#217d28"/>
  <polygon points="8.0,32.0 10.0,32.0 9.2,15.1" fill="#186a1e"/>
  <polygon points="10.0,32.0 12.0,32.0 10.7,14.9" fill="#207627"/>
  <polygon points="12.0,32.0 14.0,32.0 13.0,12.2" fill="#217d28"/>
  <polygon points="14.0,32.0 16.0,32.0 15.2,10.0" fill="#165214"/>
  <polygon points="16.0,32.0 18.0,32.0 16.9,10.1" fill="#1e5a18"/>
  <polygon points="18.0,32.0 20.0,32.0 19.2,15.2" fill="#217d28"/>
  <polygon points="20.0,32.0 22.0,32.0 21.2,15.8" fill="#207627"/>
  <polygon points="22.0,32.0 24.0,32.0 23.3,17.8" fill="#1a7021"/>
  <polygon points="24.0,32.0 26.0,32.0 25.0,14.1" fill="#1a7021"/>
  <polygon points="26.0,32.0 28.0,32.0 26.7,14.9" fill="#1e5a18"/>
  <polygon points="28.0,32.0 30.0,32.0 29.5,15.8" fill="#1a7021"/>
  <polygon points="30.0,32.0 32.0,32.0 31.3,16.6" fill="#165214"/>
  <polygon points="0.0,20.0 2.0,20.0 0.6,4.2" fill="#1e7a1e"/>
  <polygon points="4.0,20.0 6.0,20.0 5.4,5.3" fill="#1b6920"/>
  <polygon points="8.0,20.0 10.0,20.0 8.3,0.7" fill="#2d9633"/>
  <polygon points="12.0,20.0 14.0,20.0 13.1,3.8" fill="#1f7523"/>
  <polygon points="16.0,20.0 18.0,20.0 16.8,2.7" fill="#1b6920"/>
  <polygon points="20.0,20.0 22.0,20.0 21.5,2.7" fill="#1e7a1e"/>
  <polygon points="24.0,20.0 26.0,20.0 25.7,3.7" fill="#228b22"/>
  <polygon points="28.0,20.0 30.0,20.0 28.6,0.6" fill="#1e7a1e"/>
  <polygon points="13.3,32.0 15.3,32.0 14.5,15.2" fill="#2ea32e"/>
  <polygon points="4.5,32.0 6.5,32.0 5.4,14.8" fill="#4acc52"/>
  <polygon points="18.2,32.0 20.2,32.0 19.5,15.8" fill="#4acc52"/>
  <polygon points="1.1,32.0 3.1,32.0 1.6,9.1" fill="#38b840"/>
  <polygon points="19.3,32.0 21.3,32.0 20.7,11.5" fill="#2ea32e"/>
  <polygon points="12.3,32.0 14.3,32.0 12.8,8.3" fill="#32cd32"/>
  <polygon points="8.0,32.0 10.0,32.0 9.0,10.6" fill="#2ea32e"/>
  <polygon points="3.9,32.0 5.9,32.0 5.1,14.9" fill="#30a838"/>
  <polygon points="20.0,32.0 22.0,32.0 21.6,14.3" fill="#30a838"/>
  <polygon points="18.6,32.0 20.6,32.0 19.1,8.3" fill="#3cb443"/>
  <polygon points="4.9,32.0 6.9,32.0 5.7,14.1" fill="#30a838"/>
  <polygon points="25.3,32.0 27.3,32.0 26.4,14.1" fill="#3cb443"/>
  <polygon points="16.0,32.0 17.5,32.0 17.0,13.0" fill="#66ff66" opacity="0.7"/>
  <polygon points="19.9,32.0 21.4,32.0 20.7,12.4" fill="#50dd50" opacity="0.7"/>
  <polygon points="1.0,32.0 2.5,32.0 2.0,11.7" fill="#55ee5c" opacity="0.7"/>
  <polygon points="2.5,32.0 4.0,32.0 3.6,10.2" fill="#50dd50" opacity="0.7"/>
  <polygon points="14.2,32.0 15.7,32.0 14.8,12.6" fill="#50dd50" opacity="0.7"/>
</svg>