<svg xmlns="http://www.w3.org/2000/svg" width="32" height="32" viewBox="0 0 32 32">
  <rect x="0" y="28" width="32" height="4" fill="#1a7021"/>
  <polygon points="0,32 2,32 0.8,12" fill="#30a838"/>
  <polygon points="2,32 4,32 2.8,16" fill="#38b840"/>
  <polygon points="4,32 6,32 4.8,13" fill="#32cd32"/>
  <polygon points="6,32 8,32 6.8,17" fill="#3cb443"/>
  <polygon points="8,32 10,32 8.8,14" fill="#30a838"/>
  <polygon points="10,32 12,32 10.8,18" fill="#4acc52"/>
  <polygon points="12,32 14,32 12.8,15" fill="#38b840"/>
  <polygon points="14,32 16,32 14.8,19" fill="#32cd32"/>
  <polygon points="16,32 18,32 16.8,16" fill="#30a838"/>
  <polygon points="18,32 20,32 18.8,20" fill="#3cb443"/>
  <polygon points="20,32 22,32 20.8,17" fill="#38b840"/>
  <polygon points="22,32 24,32 22.8,21" fill="#4acc52"/>
  <polygon points="24,32 26,32 24.8,18" fill="#30a838"/>
  <polygon points="26,32 28,32 26.8,22" fill="#32cd32"/>
  <polygon points="28,32 30,32 28.8,19" fill="#38b840"/>
  <polygon points="30,32 32,32 30.8,23" fill="#3cb443"/>
</svg>
