<svg xmlns="http://www.w3.org/2000/svg" width="32" height="32" viewBox="0 0 32 32">
  <ellipse cx="16.3" cy="30" rx="6" ry="2" fill="rgba(0,0,0,0.1)"/>
  <path d="M16.4297461521019,32 Q14.7297461521019,24 16.7297461521019,16" stroke="#43a047" stroke-width="2" fill="none"/>
  <path d="M15.582650662205484,32 Q13.882650662205485,24 15.882650662205485,16" stroke="#228b22" stroke-width="2" fill="none"/>
  <path d="M16.24504625901815,32 Q14.54504625901815,24 16.54504625901815,16" stroke="#1b5e20" stroke-width="2" fill="none"/>
  <ellipse cx="14.893873978869" cy="26.46842146127877" rx="4" ry="2" fill="#2e8b57" transform="rotate(13.58684064987434 14.893873978869 26.46842146127877)"/>
  <ellipse cx="17.116621782638422" cy="25.049148084153025" rx="4" ry="2" fill="#00fa9a" transform="rotate(19.013857864315554 17.116621782638422 25.049148084153025)"/>
  <ellipse cx="22.5" cy="16.0" rx="3.8351617459371505" ry="3.7304768086087314" fill="#ffffff" transform="rotate(0 22.5 16.0)"/>
  <ellipse cx="19.4" cy="21.4" rx="3.8351617459371505" ry="3.7304768086087314" fill="#ffffff" transform="rotate(60 19.4 21.4)"/>
  <ellipse cx="13.2" cy="21.4" rx="3.8351617459371505" ry="3.7304768086087314" fill="#f8f8ff" transform="rotate(120 13.2 21.4)"/>
  <ellipse cx="10.1" cy="16.0" rx="3.8351617459371505" ry="3.7304768086087314" fill="#f8f8ff" transform="rotate(180 10.1 16.0)"/>
  <ellipse cx="13.2" cy="10.6" rx="3.8351617459371505" ry="3.7304768086087314" fill="#ffffff" transform="rotate(240 13.2 10.6)"/>
  <ellipse cx="19.4" cy="10.6" rx="3.8351617459371505" ry="3.7304768086087314" fill="#fafafa" transform="rotate(300 19.4 10.6)"/>
  <circle cx="16.3" cy="16" r="3" fill="#ffca28"/>
  <circle cx="15.8" cy="15.5" r="1" fill="#fff" opacity="0.6"/>
</svg>