<svg xmlns="http://www.w3.org/2000/svg" width="32" height="32" viewBox="0 0 32 32">
  <ellipse cx="16" cy="30" rx="6" ry="2" fill="rgba(0,0,0,0.2)"/>
  <path d="M16.622076512604057,32 Q14.622076512604057,24 16.622076512604057,16" stroke="#1b5e20" stroke-width="2" fill="none"/>
  <path d="M17.33446741259399,32 Q15.334467412593991,24 17.33446741259399,16" stroke="#388e3c" stroke-width="2" fill="none"/>
  <path d="M15.934340001053336,32 Q13.934340001053336,24 15.934340001053336,16" stroke="#43a047" stroke-width="2" fill="none"/>
  <ellipse cx="17.595829966289845" cy="23.014919996734207" rx="4" ry="2" fill="#3cb371" transform="rotate(-16.20491980863964 17.595829966289845 23.014919996734207)"/>
  <ellipse cx="16.01002907939722" cy="24.960688830800674" rx="4" ry="2" fill="#32cd32" transform="rotate(21.64311828633916 16.01002907939722 24.960688830800674)"/>
  <ellipse cx="23.1" cy="16.0" rx="3.000762462616322" ry="4.253289556807507" fill="#f0f0f0" transform="rotate(0 23.1 16.0)"/>
  <ellipse cx="21.0" cy="21.0" rx="3.000762462616322" ry="4.253289556807507" fill="#ffffff" transform="rotate(45 21.0 21.0)"/>
  <ellipse cx="16.0" cy="23.1" rx="3.000762462616322" ry="4.253289556807507" fill="#ffffff" transform="rotate(90 16.0 23.1)"/>
  <ellipse cx="11.0" cy="21.0" rx="3.000762462616322" ry="4.253289556807507" fill="#f5f5f5" transform="rotate(135 11.0 21.0)"/>
  <ellipse cx="8.9" cy="16.0" rx="3.000762462616322" ry="4.253289556807507" fill="#f8f8ff" transform="rotate(180 8.9 16.0)"/>
  <ellipse cx="11.0" cy="11.0" rx="3.000762462616322" ry="4.253289556807507" fill="#f8f8ff" transform="rotate(225 11.0 11.0)"/>
  <ellipse cx="16.0" cy="8.9" rx="3.000762462616322" ry="4.253289556807507" fill="#f8f8ff" transform="rotate(270 16.0 8.9)"/>
  <ellipse cx="21.0" cy="11.0" rx="3.000762462616322" ry="4.253289556807507" fill="#ffffff" transform="rotate(315 21.0 11.0)"/>
  <circle cx="16" cy="16" r="3" fill="#ff9800"/>
  <circle cx="15.5" cy="15.5" r="1" fill="#fff" opacity="0.6"/>
</svg>