<svg xmlns="http://www.w3.org/2000/svg" width="32" height="32" viewBox="0 0 32 32">
  <polygon points="4,28 3,20 8,14 24,14 29,20 28,28" fill="#4a2a1a"/>
  <polygon points="4,28 3,20 8,14 16,16 14,28" fill="#5a3a2a"/>
  <polygon points="28,28 29,20 24,14 16,16 18,28" fill="#3a1a0a"/>
  <polygon points="8,14 13,10 19,10 24,14 16,16" fill="#6a4a3a"/>
  <polygon points="11,18 14,16 16,17 13,20" fill="#7a5a4a"/>
  <polygon points="19,18 22,16 24,18 21,20" fill="#3a2a1a"/>
  <circle cx="10" cy="20" r="2" fill="#ff6600"/>
  <circle cx="22" cy="18" r="2" fill="#ff5500"/>
  <circle cx="16" cy="22" r="1.5" fill="#ff8800"/>
</svg>
