<svg xmlns="http://www.w3.org/2000/svg" width="32" height="32" viewBox="0 0 32 32">
  <ellipse cx="15.7" cy="30" rx="6" ry="2" fill="rgba(0,0,0,0.15)"/>
  <path d="M16.7505226148062,32 Q14.4505226148062,24 16.4505226148062,16" stroke="#1b5e20" stroke-width="2" fill="none"/>
  <path d="M17.367938996929645,32 Q15.067938996929644,24 17.067938996929644,16" stroke="#388e3c" stroke-width="2" fill="none"/>
  <path d="M17.220096589634238,32 Q14.920096589634237,24 16.920096589634237,16" stroke="#1b5e20" stroke-width="2" fill="none"/>
  <ellipse cx="14.015162659769487" cy="22.39055824297972" rx="4" ry="2" fill="#2e8b57" transform="rotate(-18.599946493562285 14.015162659769487 22.39055824297972)"/>
  <ellipse cx="16.00826497278561" cy="24.06596040821912" rx="4" ry="2" fill="#00fa9a" transform="rotate(-8.992381086103794 16.00826497278561 24.06596040821912)"/>
  <ellipse cx="21.8" cy="16.0" rx="4.756196559293287" ry="3.655202436472849" fill="#ffb6c1" transform="rotate(0 21.8 16.0)"/>
  <ellipse cx="19.5" cy="20.8" rx="4.756196559293287" ry="3.655202436472849" fill="#ffb6c1" transform="rotate(51 19.5 20.8)"/>
  <ellipse cx="14.3" cy="21.9" rx="4.756196559293287" ry="3.655202436472849" fill="#ff69b4" transform="rotate(103 14.3 21.9)"/>
  <ellipse cx="10.2" cy="18.6" rx="4.756196559293287" ry="3.655202436472849" fill="#ff69b4" transform="rotate(154 10.2 18.6)"/>
  <ellipse cx="10.2" cy="13.4" rx="4.756196559293287" ry="3.655202436472849" fill="#ff85a2" transform="rotate(206 10.2 13.4)"/>
  <ellipse cx="14.3" cy="10.1" rx="4.756196559293287" ry="3.655202436472849" fill="#ffb6c1" transform="rotate(257 14.3 10.1)"/>
  <ellipse cx="19.5" cy="11.2" rx="4.756196559293287" ry="3.655202436472849" fill="#ff1493" transform="rotate(309 19.5 11.2)"/>
  <circle cx="15.7" cy="16" r="3" fill="#ffeb3b"/>
  <circle cx="15.2" cy="15.5" r="1" fill="#fff" opacity="0.6"/>
</svg>