<svg xmlns="http://www.w3.org/2000/svg" width="32" height="32" viewBox="0 0 32 32">
  <ellipse cx="15.7" cy="30" rx="6" ry="2" fill="rgba(0,0,0,0.2)"/>
  <path d="M17.42297041575563,32 Q15.122970415755628,24 17.122970415755628,16" stroke="#1b5e20" stroke-width="2" fill="none"/>
  <path d="M16.335906983509616,32 Q14.035906983509616,24 16.035906983509616,16" stroke="#388e3c" stroke-width="2" fill="none"/>
  <path d="M15.526657105203093,32 Q13.226657105203092,24 15.226657105203092,16" stroke="#228b22" stroke-width="2" fill="none"/>
  <ellipse cx="17.07646508467219" cy="26.787437679612747" rx="4" ry="2" fill="#2e8b57" transform="rotate(13.445227166379446 17.07646508467219 26.787437679612747)"/>
  <ellipse cx="16.801767542353723" cy="22.608959436700196" rx="4" ry="2" fill="#00fa9a" transform="rotate(21.020379090225504 16.801767542353723 22.608959436700196)"/>
  <ellipse cx="23.0" cy="16.0" rx="4.3194117552225535" ry="4.365775823949732" fill="#cc2233" transform="rotate(0 23.0 16.0)"/>
  <ellipse cx="20.2" cy="21.7" rx="4.3194117552225535" ry="4.365775823949732" fill="#d62839" transform="rotate(51 20.2 21.7)"/>
  <ellipse cx="14.1" cy="23.1" rx="4.3194117552225535" ry="4.365775823949732" fill="#ff4d5a" transform="rotate(103 14.1 23.1)"/>
  <ellipse cx="9.1" cy="19.2" rx="4.3194117552225535" ry="4.365775823949732" fill="#cc2233" transform="rotate(154 9.1 19.2)"/>
  <ellipse cx="9.1" cy="12.8" rx="4.3194117552225535" ry="4.365775823949732" fill="#cc2233" transform="rotate(206 9.1 12.8)"/>
  <ellipse cx="14.1" cy="8.9" rx="4.3194117552225535" ry="4.365775823949732" fill="#d62839" transform="rotate(257 14.1 8.9)"/>
  <ellipse cx="20.2" cy="10.3" rx="4.3194117552225535" ry="4.365775823949732" fill="#c91831" transform="rotate(309 20.2 10.3)"/>
  <circle cx="15.7" cy="16" r="3" fill="#ffeb3b"/>
  <circle cx="15.2" cy="15.5" r="1" fill="#fff" opacity="0.6"/>
</svg>