<svg xmlns="http://www.w3.org/2000/svg" width="32" height="32" viewBox="0 0 32 32">
  <rect x="0" y="28" width="32" height="4" fill="#1a7021"/>
  <!-- Back layer blades -->
  <polygon points="0,20 2,20 1.2,6" fill="#1e7a1e"/>
  <polygon points="4,20 6,20 5.2,4" fill="#228b22"/>
  <polygon points="8,20 10,20 9.2,6" fill="#268029"/>
  <polygon points="12,20 14,20 13.2,2" fill="#228b22"/>
  <polygon points="16,20 18,20 17.2,5" fill="#228b22"/>
  <polygon points="20,20 22,20 21.2,3" fill="#1e7a1e"/>
  <polygon points="24,20 26,20 25.2,3" fill="#1f7523"/>
  <polygon points="28,20 30,20 29.2,7" fill="#2d9633"/>
  <!-- Front layer blades -->
  <polygon points="0,32 2,32 1.2,11" fill="#30a838"/>
  <polygon points="2,32 4,32 3.2,15" fill="#38b840"/>
  <polygon points="4,32 6,32 5.2,12" fill="#32cd32"/>
  <polygon points="6,32 8,32 7.2,16" fill="#3cb443"/>
  <polygon points="8,32 10,32 9.2,13" fill="#30a838"/>
  <polygon points="10,32 12,32 11.2,17" fill="#4acc52"/>
  <polygon points="12,32 14,32 13.2,14" fill="#38b840"/>
  <polygon points="14,32 16,32 15.2,18" fill="#32cd32"/>
  <polygon points="16,32 18,32 17.2,15" fill="#30a838"/>
  <polygon points="18,32 20,32 19.2,19" fill="#3cb443"/>
  <polygon points="20,32 22,32 21.2,16" fill="#38b840"/>
  <polygon points="22,32 24,32 23.2,20" fill="#4acc52"/>
  <polygon points="24,32 26,32 25.2,17" fill="#30a838"/>
  <polygon points="26,32 28,32 27.2,21" fill="#32cd32"/>
  <polygon points="28,32 30,32 29.2,18" fill="#38b840"/>
  <polygon points="30,32 32,32 31.2,22" fill="#3cb443"/>
</svg>
