<svg xmlns="http://www.w3.org/2000/svg" width="32" height="32">
  <rect width="32" height="32" fill="#2d5a27"/>
  <rect x="0" y="0" width="4" height="4" fill="#3a7a33"/>
  <rect x="8" y="4" width="4" height="4" fill="#3a7a33"/>
  <rect x="16" y="2" width="4" height="4" fill="#3a7a33"/>
  <rect x="24" y="6" width="4" height="4" fill="#3a7a33"/>
  <rect x="4" y="12" width="4" height="4" fill="#3a7a33"/>
  <rect x="12" y="10" width="4" height="4" fill="#3a7a33"/>
  <rect x="20" y="14" width="4" height="4" fill="#3a7a33"/>
  <rect x="28" y="12" width="4" height="4" fill="#3a7a33"/>
  <rect x="2" y="20" width="4" height="4" fill="#3a7a33"/>
  <rect x="10" y="22" width="4" height="4" fill="#3a7a33"/>
  <rect x="18" y="18" width="4" height="4" fill="#3a7a33"/>
  <rect x="26" y="24" width="4" height="4" fill="#3a7a33"/>
  <rect x="6" y="28" width="4" height="4" fill="#3a7a33"/>
  <rect x="14" y="26" width="4" height="4" fill="#3a7a33"/>
  <rect x="22" y="30" width="4" height="4" fill="#3a7a33"/>
</svg>
