<?xml version="1.0" encoding="utf-8"?>
<COLLADA xmlns:xsi="http://www.w3.org/2001/XMLSchema-instance" xmlns:xsd="http://www.w3.org/2001/XMLSchema" version="1.4.1" xmlns="http://www.collada.org/2005/11/COLLADASchema">
  <asset>
    <created>2026-02-17T05:46:52.1395315-05:00</created>
    <modified>2026-02-17T05:46:52.1395317-05:00</modified>
    <up_axis>Y_UP</up_axis>
  </asset>
  <library_animations>
    <animation id="Motion_1_Waist_transform_id" name="Motion_1_Waist_transform">
      <source id="Motion_1_Waist_transform_frame_id" name="Motion_1_Waist_transform_frame">
        <float_array id="Motion_1_Waist_transform_frame_array_id" count="21">0 0.033333335 0.06666667 0.1 0.13333334 0.16666667 0.2 0.23333333 0.26666668 0.3 0.33333334 0.36666667 0.4 0.43333334 0.46666667 0.5 0.53333336 0.56666666 0.6 0.6333333 0.6666667</float_array>
        <technique_common>
          <accessor source="#Motion_1_Waist_transform_frame_array_id" count="21" stride="1">
            <param name="TIME" type="float" />
          </accessor>
        </technique_common>
      </source>
      <source id="Motion_1_Waist_transform_interp_id" name="Motion_1_Waist_transform_interp">
        <Name_array id="Motion_1_Waist_transform_interp_array_id" count="21">LINEAR LINEAR LINEAR LINEAR LINEAR LINEAR LINEAR LINEAR LINEAR LINEAR LINEAR LINEAR LINEAR LINEAR LINEAR LINEAR LINEAR LINEAR LINEAR LINEAR LINEAR</Name_array>
        <technique_common>
          <accessor source="#Motion_1_Waist_transform_interp_array_id" count="21" stride="1">
            <param name="INTERPOLATION" type="Name" />
          </accessor>
        </technique_common>
      </source>
      <source id="Motion_1_Waist_transform_pose_id" name="Motion_1_Waist_transform_pose">
        <float_array id="Motion_1_Waist_transform_pose_array_id" count="336">-0.0019638538 -0.999841 -0.017722197 -0.5794 0.9972683 -0.0006495714 -0.07386048 159.25641 0.07383723 -0.017818836 0.9971111 -12.324301 0 0 0 1 -0.002047062 -0.99978375 -0.020692544 -0.25477868 0.99733543 -0.00053215027 -0.072949305 158.69464 0.07292252 -0.020786742 0.997121 -12.547719 0 0 0 1 -0.0017483234 -0.99982554 -0.018593207 0.044382095 0.99770135 -0.00048458576 -0.06776118 158.06813 0.06774035 -0.018668946 0.9975283 -12.559482 0 0 0 1 -0.0012661219 -0.99991137 -0.013261143 0.30047405 0.9981635 -0.0004605055 -0.060577236 157.32323 0.06056576 -0.013313478 0.9980754 -12.375366 0 0 0 1 -0.00082838535 -0.9999694 -0.0077908207 0.54531705 0.9985042 -0.00040125847 -0.054674603 156.85931 0.054669797 -0.007824458 0.9984738 -12.019968 0 0 0 1 -0.00052142143 -0.99998903 -0.004659081 0.8052962 0.99864435 -0.00027823448 -0.052053172 157.164 0.052051306 -0.004679907 0.99863344 -11.511338 0 0 0 1 -0.00032401085 -0.99999297 -0.0037127472 1.0292099 0.9985504 -0.00012373924 -0.053823378 157.8825 0.053822543 -0.003724806 0.99854356 -11.210332 0 0 0 1 -0.00012922287 -0.999998 -0.002056349 1.1425792 0.99828136 -8.46386E-06 -0.05860441 158.65672 0.05860427 -0.0020603798 0.99827915 -11.264554 0 0 0 1 0.00031465292 -0.99999535 0.0030218381 1.0907362 0.997918 0.000119149685 -0.06449478 159.21182 0.064494126 0.003035836 0.9979135 -11.53499 0 0 0 1 0.0010073185 -0.9999433 0.010602739 0.89859617 0.9975168 0.0002580881 -0.070428066 159.50854 0.07042134 0.0106473565 0.9974605 -11.884933 0 0 0 1 0.0016826391 -0.99984306 0.017639626 0.6002667 0.99726194 0.00037366152 -0.073950015 159.26843 0.07393181 0.017715767 0.99710596 -12.324689 0 0 0 1 0.0020335913 -0.99978405 0.020681582 0.26851785 0.99733514 0.0005194545 -0.07295442 158.714 0.072927915 0.02077483 0.9971208 -12.547971 0 0 0 1 0.0018142462 -0.9998246 0.018645588 -0.029454492 0.9977054 0.0005478263 -0.06770329 158.06519 0.06768119 0.018725641 0.99753124 -12.563842 0 0 0 1 0.0012449622 -0.9999119 0.0132185705 -0.3025643 0.9981607 0.0004413724 -0.0606215 157.31812 0.06061032 0.013269728 0.9980733 -12.385339 0 0 0 1 0.0007482171 -0.99996936 0.0077954475 -0.5620851 0.99850404 0.0003208518 -0.054676957 156.8702 0.054672785 0.007824695 0.99847364 -12.020233 0 0 0 1 0.0004068613 -0.99998903 0.00466232 -0.8137972 0.99864423 0.00016361475 -0.05205393 157.12659 0.0520526 0.0046771746 0.9986334 -11.5378065 0 0 0 1 0.0002490282 -0.9999931 0.0037139263 -1.0216573 0.99855053 4.8816204E-05 -0.05382327 157.79817 0.05382272 0.0037219506 0.99854356 -11.273921 0 0 0 1 6.765127E-05 -0.999998 0.0020569284 -1.1342044 0.99828136 -5.3048134E-05 -0.058604006 158.58665 0.058603987 0.0020573623 0.9982792 -11.283118 0 0 0 1 -0.0003926754 -0.99999547 -0.0029938817 -1.0999769 0.99791646 -0.00019860268 -0.06451952 159.23802 0.06451863 -0.0030129682 0.99791193 -11.505461 0 0 0 1 -0.0011206865 -0.9999446 -0.010464419 -0.8851219 0.99751896 -0.0003812313 -0.07039757 159.50386 0.07038969 -0.010517344 0.9974641 -11.878525 0 0 0 1 -0.0011206865 -0.9999446 -0.010464419 -0.8851219 0.99751896 -0.0003812313 -0.07039757 159.50386 0.07038969 -0.010517344 0.9974641 -11.878525 0 0 0 1</float_array>
        <technique_common>
          <accessor source="#Motion_1_Waist_transform_pose_array_id" count="21" stride="16">
            <param name="TRANSFORM" type="float4x4" />
          </accessor>
        </technique_common>
      </source>
      <sampler id="Motion_1_Waist_transform_samp_id">
        <input semantic="INPUT" source="#Motion_1_Waist_transform_frame_id" />
        <input semantic="INTERPOLATION" source="#Motion_1_Waist_transform_interp_id" />
        <input semantic="OUTPUT" source="#Motion_1_Waist_transform_pose_id" />
      </sampler>
      <channel source="#Motion_1_Waist_transform_samp_id" target="Waist_bone_id/transform" />
    </animation>
    <animation id="Motion_1_Spine2_transform_id" name="Motion_1_Spine2_transform">
      <source id="Motion_1_Spine2_transform_frame_id" name="Motion_1_Spine2_transform_frame">
        <float_array id="Motion_1_Spine2_transform_frame_array_id" count="21">0 0.033333335 0.06666667 0.1 0.13333334 0.16666667 0.2 0.23333333 0.26666668 0.3 0.33333334 0.36666667 0.4 0.43333334 0.46666667 0.5 0.53333336 0.56666666 0.6 0.6333333 0.6666667</float_array>
        <technique_common>
          <accessor source="#Motion_1_Spine2_transform_frame_array_id" count="21" stride="1">
            <param name="TIME" type="float" />
          </accessor>
        </technique_common>
      </source>
      <source id="Motion_1_Spine2_transform_interp_id" name="Motion_1_Spine2_transform_interp">
        <Name_array id="Motion_1_Spine2_transform_interp_array_id" count="21">LINEAR LINEAR LINEAR LINEAR LINEAR LINEAR LINEAR LINEAR LINEAR LINEAR LINEAR LINEAR LINEAR LINEAR LINEAR LINEAR LINEAR LINEAR LINEAR LINEAR LINEAR</Name_array>
        <technique_common>
          <accessor source="#Motion_1_Spine2_transform_interp_array_id" count="21" stride="1">
            <param name="INTERPOLATION" type="Name" />
          </accessor>
        </technique_common>
      </source>
      <source id="Motion_1_Spine2_transform_pose_id" name="Motion_1_Spine2_transform_pose">
        <float_array id="Motion_1_Spine2_transform_pose_array_id" count="336">0.99981815 0 0.01907116 13.5 0 1 0 0 -0.01907116 0 0.99981815 0 0 0 0 1 0.9999393 0 -0.011016753 13.5 0 1 0 0 0.011016753 0 0.9999393 0 0 0 0 1 0.99915797 0 -0.041028325 13.5 0 1 0 0 0.041028325 0 0.99915797 0 0 0 0 1 0.9981386 0 -0.060986 13.5 0 1 0 0 0.060986 0 0.9981386 0 0 0 0 1 0.9981386 0 -0.060986 13.5 0 1 0 0 0.060986 0 0.9981386 0 0 0 0 1 0.99915826 0 -0.041021675 13.5 0 1 0 0 0.041021675 0 0.99915826 0 0 0 0 1 0.9999393 0 -0.011016753 13.5 0 1 0 0 0.011016753 0 0.9999393 0 0 0 0 1 0.9998195 0 0.0189981 13.5 0 1 0 0 -0.0189981 0 0.9998195 0 0 0 0 1 0.99924 0 0.038980037 13.5 0 1 0 0 -0.038980037 0 0.99924 0 0 0 0 1 0.99924 0 0.038980037 13.5 0 1 0 0 -0.038980037 0 0.99924 0 0 0 0 1 0.9998195 0 0.0189981 13.5 0 1 0 0 -0.0189981 0 0.9998195 0 0 0 0 1 0.9999393 0 -0.011016753 13.5 0 1 0 0 0.011016753 0 0.9999393 0 0 0 0 1 0.99915826 0 -0.041021675 13.5 0 1 0 0 0.041021675 0 0.99915826 0 0 0 0 1 0.9981386 0 -0.060986 13.5 0 1 0 0 0.060986 0 0.9981386 0 0 0 0 1 0.9981386 0 -0.060986 13.5 0 1 0 0 0.060986 0 0.9981386 0 0 0 0 1 0.99915826 0 -0.041021675 13.5 0 1 0 0 0.041021675 0 0.99915826 0 0 0 0 1 0.9999393 0 -0.011016753 13.5 0 1 0 0 0.011016753 0 0.9999393 0 0 0 0 1 0.9998195 0 0.0189981 13.5 0 1 0 0 -0.0189981 0 0.9998195 0 0 0 0 1 0.99924 0 0.038980037 13.5 0 1 0 0 -0.038980037 0 0.99924 0 0 0 0 1 0.99924 0 0.038980037 13.5 0 1 0 0 -0.038980037 0 0.99924 0 0 0 0 1 0.99924 0 0.038980037 13.5 0 1 0 0 -0.038980037 0 0.99924 0 0 0 0 1</float_array>
        <technique_common>
          <accessor source="#Motion_1_Spine2_transform_pose_array_id" count="21" stride="16">
            <param name="TRANSFORM" type="float4x4" />
          </accessor>
        </technique_common>
      </source>
      <sampler id="Motion_1_Spine2_transform_samp_id">
        <input semantic="INPUT" source="#Motion_1_Spine2_transform_frame_id" />
        <input semantic="INTERPOLATION" source="#Motion_1_Spine2_transform_interp_id" />
        <input semantic="OUTPUT" source="#Motion_1_Spine2_transform_pose_id" />
      </sampler>
      <channel source="#Motion_1_Spine2_transform_samp_id" target="Spine2_bone_id/transform" />
    </animation>
    <animation id="Motion_1_Spine3_transform_id" name="Motion_1_Spine3_transform">
      <source id="Motion_1_Spine3_transform_frame_id" name="Motion_1_Spine3_transform_frame">
        <float_array id="Motion_1_Spine3_transform_frame_array_id" count="21">0 0.033333335 0.06666667 0.1 0.13333334 0.16666667 0.2 0.23333333 0.26666668 0.3 0.33333334 0.36666667 0.4 0.43333334 0.46666667 0.5 0.53333336 0.56666666 0.6 0.6333333 0.6666667</float_array>
        <technique_common>
          <accessor source="#Motion_1_Spine3_transform_frame_array_id" count="21" stride="1">
            <param name="TIME" type="float" />
          </accessor>
        </technique_common>
      </source>
      <source id="Motion_1_Spine3_transform_interp_id" name="Motion_1_Spine3_transform_interp">
        <Name_array id="Motion_1_Spine3_transform_interp_array_id" count="21">LINEAR LINEAR LINEAR LINEAR LINEAR LINEAR LINEAR LINEAR LINEAR LINEAR LINEAR LINEAR LINEAR LINEAR LINEAR LINEAR LINEAR LINEAR LINEAR LINEAR LINEAR</Name_array>
        <technique_common>
          <accessor source="#Motion_1_Spine3_transform_interp_array_id" count="21" stride="1">
            <param name="INTERPOLATION" type="Name" />
          </accessor>
        </technique_common>
      </source>
      <source id="Motion_1_Spine3_transform_pose_id" name="Motion_1_Spine3_transform_pose">
        <float_array id="Motion_1_Spine3_transform_pose_array_id" count="336">0.9953591 0 -0.09622991 13.5 0 1 0 0 0.09622991 0 0.9953591 0 0 0 0 1 0.99625677 0 -0.08644306 13.5 0 1 0 0 0.08644306 0 0.99625677 0 0 0 0 1 0.9979878 0 -0.06340618 13.5 0 1 0 0 0.06340618 0 0.9979878 0 0 0 0 1 0.9993945 0 -0.034794778 13.5 0 1 0 0 0.034794778 0 0.9993945 0 0 0 0 1 0.9999316 0 -0.011699618 13.5 0 1 0 0 0.011699618 0 0.9999316 0 0 0 0 1 0.9999983 0 -0.0018704672 13.5 0 1 0 0 0.0018704672 0 0.9999983 0 0 0 0 1 0.9999316 0 -0.011699126 13.5 0 1 0 0 0.011699126 0 0.9999316 0 0 0 0 1 0.99938273 0 -0.03513028 13.5 0 1 0 0 0.03513028 0 0.99938273 0 0 0 0 1 0.9980091 0 -0.063070126 13.5 0 1 0 0 0.063070126 0 0.9980091 0 0 0 0 1 0.9962569 0 -0.08644212 13.5 0 1 0 0 0.08644212 0 0.9962569 0 0 0 0 1 0.9953591 0 -0.09622991 13.5 0 1 0 0 0.09622991 0 0.9953591 0 0 0 0 1 0.9962569 0 -0.08644218 13.5 0 1 0 0 0.08644218 0 0.9962569 0 0 0 0 1 0.9980091 0 -0.063070156 13.5 0 1 0 0 0.063070156 0 0.9980091 0 0 0 0 1 0.99938273 0 -0.035130244 13.5 0 1 0 0 0.035130244 0 0.99938273 0 0 0 0 1 0.9999316 0 -0.011699065 13.5 0 1 0 0 0.011699065 0 0.9999316 0 0 0 0 1 0.9999983 0 -0.0018704672 13.5 0 1 0 0 0.0018704672 0 0.9999983 0 0 0 0 1 0.99992704 0 -0.012077609 13.5 0 1 0 0 0.012077609 0 0.99992704 0 0 0 0 1 0.99938273 0 -0.035131242 13.5 0 1 0 0 0.035131242 0 0.99938273 0 0 0 0 1 0.998009 0 -0.06307106 13.5 0 1 0 0 0.06307106 0 0.998009 0 0 0 0 1 0.99625677 0 -0.08644306 13.5 0 1 0 0 0.08644306 0 0.99625677 0 0 0 0 1 0.99625677 0 -0.08644306 13.5 0 1 0 0 0.08644306 0 0.99625677 0 0 0 0 1</float_array>
        <technique_common>
          <accessor source="#Motion_1_Spine3_transform_pose_array_id" count="21" stride="16">
            <param name="TRANSFORM" type="float4x4" />
          </accessor>
        </technique_common>
      </source>
      <sampler id="Motion_1_Spine3_transform_samp_id">
        <input semantic="INPUT" source="#Motion_1_Spine3_transform_frame_id" />
        <input semantic="INTERPOLATION" source="#Motion_1_Spine3_transform_interp_id" />
        <input semantic="OUTPUT" source="#Motion_1_Spine3_transform_pose_id" />
      </sampler>
      <channel source="#Motion_1_Spine3_transform_samp_id" target="Spine3_bone_id/transform" />
    </animation>
    <animation id="Motion_1_Neck_transform_id" name="Motion_1_Neck_transform">
      <source id="Motion_1_Neck_transform_frame_id" name="Motion_1_Neck_transform_frame">
        <float_array id="Motion_1_Neck_transform_frame_array_id" count="21">0 0.033333335 0.06666667 0.1 0.13333334 0.16666667 0.2 0.23333333 0.26666668 0.3 0.33333334 0.36666667 0.4 0.43333334 0.46666667 0.5 0.53333336 0.56666666 0.6 0.6333333 0.6666667</float_array>
        <technique_common>
          <accessor source="#Motion_1_Neck_transform_frame_array_id" count="21" stride="1">
            <param name="TIME" type="float" />
          </accessor>
        </technique_common>
      </source>
      <source id="Motion_1_Neck_transform_interp_id" name="Motion_1_Neck_transform_interp">
        <Name_array id="Motion_1_Neck_transform_interp_array_id" count="21">LINEAR LINEAR LINEAR LINEAR LINEAR LINEAR LINEAR LINEAR LINEAR LINEAR LINEAR LINEAR LINEAR LINEAR LINEAR LINEAR LINEAR LINEAR LINEAR LINEAR LINEAR</Name_array>
        <technique_common>
          <accessor source="#Motion_1_Neck_transform_interp_array_id" count="21" stride="1">
            <param name="INTERPOLATION" type="Name" />
          </accessor>
        </technique_common>
      </source>
      <source id="Motion_1_Neck_transform_pose_id" name="Motion_1_Neck_transform_pose">
        <float_array id="Motion_1_Neck_transform_pose_array_id" count="336">0.9211992 0 -0.38909134 16.800177 0 1 0 0 0.38909134 0 0.9211992 0 0 0 0 1 0.932785 0 -0.36043337 16.800177 0 1 0 0 0.36043337 0 0.932785 0 0 0 0 1 0.932785 0 -0.36043337 16.800177 0 1 0 0 0.36043337 0 0.932785 0 0 0 0 1 0.9213712 0 -0.38868386 16.800177 0 1 0 0 0.38868386 0 0.9213712 0 0 0 0 1 0.90177137 0 -0.43221334 16.800177 0 1 0 0 0.43221334 0 0.90177137 0 0 0 0 1 0.8809391 0 -0.47322965 16.800177 0 1 0 0 0.47322965 0 0.8809391 0 0 0 0 1 0.8658516 0 -0.50030094 16.800177 0 1 0 0 0.50030094 0 0.8658516 0 0 0 0 1 0.8658516 0 -0.50030094 16.800177 0 1 0 0 0.50030094 0 0.8658516 0 0 0 0 1 0.8806912 0 -0.47369087 16.800177 0 1 0 0 0.47369087 0 0.8806912 0 0 0 0 1 0.9022942 0 -0.4311208 16.800177 0 1 0 0 0.4311208 0 0.9022942 0 0 0 0 1 0.9211669 0 -0.3891677 16.800177 0 1 0 0 0.3891677 0 0.9211669 0 0 0 0 1 0.932785 0 -0.36043337 16.800177 0 1 0 0 0.36043337 0 0.932785 0 0 0 0 1 0.9327841 0 -0.3604356 16.800177 0 1 0 0 0.3604356 0 0.9327841 0 0 0 0 1 0.9213705 0 -0.3886854 16.800177 0 1 0 0 0.3886854 0 0.9213705 0 0 0 0 1 0.9017711 0 -0.4322139 16.800177 0 1 0 0 0.4322139 0 0.9017711 0 0 0 0 1 0.8809391 0 -0.47322965 16.800177 0 1 0 0 0.47322965 0 0.8809391 0 0 0 0 1 0.8658516 0 -0.50030094 16.800177 0 1 0 0 0.50030094 0 0.8658516 0 0 0 0 1 0.8658516 0 -0.50030094 16.800177 0 1 0 0 0.50030094 0 0.8658516 0 0 0 0 1 0.88094884 0 -0.47321156 16.800177 0 1 0 0 0.47321156 0 0.88094884 0 0 0 0 1 0.9020328 0 -0.43166754 16.800177 0 1 0 0 0.43166754 0 0.9020328 0 0 0 0 1 0.9020328 0 -0.43166754 16.800177 0 1 0 0 0.43166754 0 0.9020328 0 0 0 0 1</float_array>
        <technique_common>
          <accessor source="#Motion_1_Neck_transform_pose_array_id" count="21" stride="16">
            <param name="TRANSFORM" type="float4x4" />
          </accessor>
        </technique_common>
      </source>
      <sampler id="Motion_1_Neck_transform_samp_id">
        <input semantic="INPUT" source="#Motion_1_Neck_transform_frame_id" />
        <input semantic="INTERPOLATION" source="#Motion_1_Neck_transform_interp_id" />
        <input semantic="OUTPUT" source="#Motion_1_Neck_transform_pose_id" />
      </sampler>
      <channel source="#Motion_1_Neck_transform_samp_id" target="Neck_bone_id/transform" />
    </animation>
    <animation id="Motion_1_Head_transform_id" name="Motion_1_Head_transform">
      <source id="Motion_1_Head_transform_frame_id" name="Motion_1_Head_transform_frame">
        <float_array id="Motion_1_Head_transform_frame_array_id" count="21">0 0.033333335 0.06666667 0.1 0.13333334 0.16666667 0.2 0.23333333 0.26666668 0.3 0.33333334 0.36666667 0.4 0.43333334 0.46666667 0.5 0.53333336 0.56666666 0.6 0.6333333 0.6666667</float_array>
        <technique_common>
          <accessor source="#Motion_1_Head_transform_frame_array_id" count="21" stride="1">
            <param name="TIME" type="float" />
          </accessor>
        </technique_common>
      </source>
      <source id="Motion_1_Head_transform_interp_id" name="Motion_1_Head_transform_interp">
        <Name_array id="Motion_1_Head_transform_interp_array_id" count="21">LINEAR LINEAR LINEAR LINEAR LINEAR LINEAR LINEAR LINEAR LINEAR LINEAR LINEAR LINEAR LINEAR LINEAR LINEAR LINEAR LINEAR LINEAR LINEAR LINEAR LINEAR</Name_array>
        <technique_common>
          <accessor source="#Motion_1_Head_transform_interp_array_id" count="21" stride="1">
            <param name="INTERPOLATION" type="Name" />
          </accessor>
        </technique_common>
      </source>
      <source id="Motion_1_Head_transform_pose_id" name="Motion_1_Head_transform_pose">
        <float_array id="Motion_1_Head_transform_pose_array_id" count="336">0.8553851 0.009880196 0.5178983 5.120195 -0.00076338276 0.99984103 -0.01781361 0 -0.517992 0.014842142 0.8552567 0 0 0 0 1 0.8613829 0.010620081 0.50784516 5.120195 -0.0005871551 0.9998016 -0.019911988 0 -0.5079559 0.016853662 0.8612182 0 0 0 0 1 0.8682074 0.009716458 0.49610633 5.120195 -0.0005700104 0.99982715 -0.018584507 0 -0.49620116 0.01585242 0.86806285 0 0 0 0 1 0.87171876 0.0075309584 0.48994872 5.120195 -0.0008688767 0.9999041 -0.013823528 0 -0.49000582 0.0116245225 0.87164164 0 0 0 0 1 0.87489593 0.005050006 0.48428464 5.120195 -0.00104857 0.99996305 -0.008533059 0 -0.48430985 0.006957732 0.87486887 0 0 0 0 1 0.8750895 0.0030904515 0.48395118 5.120195 -0.0008310857 0.9999877 -0.004883011 0 -0.48396036 0.003870867 0.87508136 0 0 0 0 1 0.8692575 0.002004534 0.49435553 5.120195 -0.00041062024 0.99999434 -0.0033327995 0 -0.4943594 0.0026940687 0.8692534 0 0 0 0 1 0.8622776 0.00058639963 0.5064356 5.120195 0.00013807963 0.99999905 -0.0013929945 0 -0.50643593 0.0012710765 0.8622767 0 0 0 0 1 0.8591231 -0.0021536527 0.51176447 5.120195 0.00069944625 0.9999952 0.003034075 0 -0.5117685 -0.002248692 0.8591204 0 0 0 0 1 0.8558631 -0.005901182 0.5171687 5.120195 0.00065559475 0.9999465 0.010325 0 -0.51720196 -0.008497734 0.8558212 0 0 0 0 1 0.8553871 -0.009342108 0.5179051 5.120195 0.00039908802 0.99984896 0.017376395 0 -0.51798916 -0.014656855 0.85526156 0 0 0 0 1 0.8611819 -0.011008458 0.5081777 5.120195 0.0004909765 0.999783 0.020825883 0 -0.50829667 -0.01768537 0.8610004 0 0 0 0 1 0.8682062 -0.01010113 0.49610078 5.120195 0.0007774909 0.9998192 0.018996708 0 -0.496203 -0.016107347 0.86805713 0 0 0 0 1 0.87171793 -0.007788132 0.48994607 5.120195 0.00098837 0.9998996 0.01413578 0 -0.49000698 -0.011838164 0.8716381 0 0 0 0 1 0.874895 -0.0053716926 0.48428294 5.120195 0.0013212196 0.99996126 0.008704738 0 -0.48431095 -0.006975887 0.87486815 0 0 0 0 1 0.8750889 -0.003394129 0.48395035 5.120195 0.0011343539 0.99998707 0.00496213 0 -0.4839609 -0.003793334 0.8750814 0 0 0 0 1 0.8692576 -0.001889332 0.49435577 5.120195 0.00030266732 0.9999945 0.0032895855 0 -0.49435928 -0.002709872 0.86925346 0 0 0 0 1 0.8622776 -0.00015628344 0.5064359 5.120195 -0.0005527843 0.99999905 0.0012497867 0 -0.50643563 -0.0013576129 0.86227673 0 0 0 0 1 0.8591227 0.0023935176 0.5117641 5.120195 -0.00093944004 0.99999475 -0.0030998867 0 -0.5117689 0.0021824115 0.8591204 0 0 0 0 1 0.8567294 0.0059212726 0.51573217 5.120195 -0.0007948226 0.9999481 -0.0101603465 0 -0.51576555 0.008294753 0.85668963 0 0 0 0 1 0.8567294 0.0059212726 0.51573217 5.120195 -0.0007948226 0.9999481 -0.0101603465 0 -0.51576555 0.008294753 0.85668963 0 0 0 0 1</float_array>
        <technique_common>
          <accessor source="#Motion_1_Head_transform_pose_array_id" count="21" stride="16">
            <param name="TRANSFORM" type="float4x4" />
          </accessor>
        </technique_common>
      </source>
      <sampler id="Motion_1_Head_transform_samp_id">
        <input semantic="INPUT" source="#Motion_1_Head_transform_frame_id" />
        <input semantic="INTERPOLATION" source="#Motion_1_Head_transform_interp_id" />
        <input semantic="OUTPUT" source="#Motion_1_Head_transform_pose_id" />
      </sampler>
      <channel source="#Motion_1_Head_transform_samp_id" target="Head_bone_id/transform" />
    </animation>
    <animation id="Motion_1_LShoulder_transform_id" name="Motion_1_LShoulder_transform">
      <source id="Motion_1_LShoulder_transform_frame_id" name="Motion_1_LShoulder_transform_frame">
        <float_array id="Motion_1_LShoulder_transform_frame_array_id" count="21">0 0.033333335 0.06666667 0.1 0.13333334 0.16666667 0.2 0.23333333 0.26666668 0.3 0.33333334 0.36666667 0.4 0.43333334 0.46666667 0.5 0.53333336 0.56666666 0.6 0.6333333 0.6666667</float_array>
        <technique_common>
          <accessor source="#Motion_1_LShoulder_transform_frame_array_id" count="21" stride="1">
            <param name="TIME" type="float" />
          </accessor>
        </technique_common>
      </source>
      <source id="Motion_1_LShoulder_transform_interp_id" name="Motion_1_LShoulder_transform_interp">
        <Name_array id="Motion_1_LShoulder_transform_interp_array_id" count="21">LINEAR LINEAR LINEAR LINEAR LINEAR LINEAR LINEAR LINEAR LINEAR LINEAR LINEAR LINEAR LINEAR LINEAR LINEAR LINEAR LINEAR LINEAR LINEAR LINEAR LINEAR</Name_array>
        <technique_common>
          <accessor source="#Motion_1_LShoulder_transform_interp_array_id" count="21" stride="1">
            <param name="INTERPOLATION" type="Name" />
          </accessor>
        </technique_common>
      </source>
      <source id="Motion_1_LShoulder_transform_pose_id" name="Motion_1_LShoulder_transform_pose">
        <float_array id="Motion_1_LShoulder_transform_pose_array_id" count="336">-0.49641502 0.8629498 -0.09428406 14.18017 -0.8602782 -0.5035739 -0.079589225 -4.5 -0.11616051 0.041601226 0.99235886 -0.240233 0 0 0 1 -0.49671483 0.8627821 -0.094240144 14.18017 -0.8605515 -0.5037024 -0.07572928 -4.5 -0.11280687 0.04348263 0.99266505 -0.240233 0 0 0 1 -0.497254 0.8624641 -0.09430721 14.18017 -0.8608717 -0.5039873 -0.06997446 -4.5 -0.10788012 0.046391316 0.9930809 -0.240233 0 0 0 1 -0.4977846 0.86216336 -0.09425924 14.18017 -0.8611453 -0.50424945 -0.064507864 -4.5 -0.103146486 0.04905988 0.9934555 -0.240233 0 0 0 1 -0.49806857 0.86201686 -0.09409912 14.18017 -0.86129445 -0.5043675 -0.06152583 -4.5 -0.10049683 0.05040296 0.99365985 -0.240233 0 0 0 1 -0.49798143 0.86204827 -0.09427351 14.18017 -0.8613038 -0.5043137 -0.061835848 -4.5 -0.1008489 0.050405025 0.9936241 -0.240233 0 0 0 1 -0.49764466 0.8622445 -0.09425663 14.18017 -0.8611094 -0.50416493 -0.065638795 -4.5 -0.104117565 0.04850047 0.99338174 -0.240233 0 0 0 1 -0.49723232 0.86248684 -0.094215326 14.18017 -0.8607334 -0.50402224 -0.0714114 -4.5 -0.10907801 0.045586217 0.99298733 -0.240233 0 0 0 1 -0.4966452 0.8628173 -0.09428301 14.18017 -0.86036277 -0.5037235 -0.07770491 -4.5 -0.11453774 0.04252581 0.9925083 -0.240233 0 0 0 1 -0.49613786 0.8631072 -0.09430421 14.18017 -0.86019135 -0.50338686 -0.081685916 -4.5 -0.1179752 0.0405922 0.99218655 -0.240233 0 0 0 1 -0.49619317 0.8630528 -0.094511 14.18017 -0.86026186 -0.5034257 -0.08069863 -4.5 -0.11722644 0.041262098 0.99224764 -0.240233 0 0 0 1 -0.49681163 0.86272717 -0.09423311 14.18017 -0.8604665 -0.5038092 -0.07598407 -4.5 -0.11302905 0.043334663 0.9926462 -0.240233 0 0 0 1 -0.49748194 0.86234426 -0.094203085 14.18017 -0.86075556 -0.50419915 -0.069879845 -4.5 -0.1077576 0.046321865 0.9930975 -0.240233 0 0 0 1 -0.49774063 0.8621979 -0.09417621 14.18017 -0.86098087 -0.5042881 -0.066374704 -4.5 -0.10472006 0.048046533 0.99334043 -0.240233 0 0 0 1 -0.49771798 0.8622137 -0.09415279 14.18017 -0.86111003 -0.50421 -0.065285765 -4.5 -0.10376303 0.04858201 0.9934148 -0.240233 0 0 0 1 -0.4975314 0.86232185 -0.094147384 14.18017 -0.8611156 -0.50407124 -0.06627509 -4.5 -0.10460743 0.04809785 0.99334985 -0.240233 0 0 0 1 -0.49728048 0.862464 -0.094172195 14.18017 -0.8609701 -0.5039537 -0.0690042 -4.5 -0.10697204 0.046765 0.9931616 -0.240233 0 0 0 1 -0.4969417 0.8626538 -0.0942186 14.18017 -0.8607097 -0.5038121 -0.07315755 -4.5 -0.11057812 0.044739824 0.9928599 -0.240233 0 0 0 1 -0.4965557 0.8628716 -0.09425965 14.18017 -0.86044925 -0.5036193 -0.07742357 -4.5 -0.1142776 0.042660527 0.9925325 -0.240233 0 0 0 1 -0.4963349 0.86299604 -0.09428385 14.18017 -0.8602802 -0.50351 -0.079971716 -4.5 -0.116488144 0.04141778 0.9923281 -0.240233 0 0 0 1 -0.4963349 0.86299604 -0.09428385 14.18017 -0.8602802 -0.50351 -0.079971716 -4.5 -0.116488144 0.04141778 0.9923281 -0.240233 0 0 0 1</float_array>
        <technique_common>
          <accessor source="#Motion_1_LShoulder_transform_pose_array_id" count="21" stride="16">
            <param name="TRANSFORM" type="float4x4" />
          </accessor>
        </technique_common>
      </source>
      <sampler id="Motion_1_LShoulder_transform_samp_id">
        <input semantic="INPUT" source="#Motion_1_LShoulder_transform_frame_id" />
        <input semantic="INTERPOLATION" source="#Motion_1_LShoulder_transform_interp_id" />
        <input semantic="OUTPUT" source="#Motion_1_LShoulder_transform_pose_id" />
      </sampler>
      <channel source="#Motion_1_LShoulder_transform_samp_id" target="LShoulder_bone_id/transform" />
    </animation>
    <animation id="Motion_1_LArm_transform_id" name="Motion_1_LArm_transform">
      <source id="Motion_1_LArm_transform_frame_id" name="Motion_1_LArm_transform_frame">
        <float_array id="Motion_1_LArm_transform_frame_array_id" count="21">0 0.033333335 0.06666667 0.1 0.13333334 0.16666667 0.2 0.23333333 0.26666668 0.3 0.33333334 0.36666667 0.4 0.43333334 0.46666667 0.5 0.53333336 0.56666666 0.6 0.6333333 0.6666667</float_array>
        <technique_common>
          <accessor source="#Motion_1_LArm_transform_frame_array_id" count="21" stride="1">
            <param name="TIME" type="float" />
          </accessor>
        </technique_common>
      </source>
      <source id="Motion_1_LArm_transform_interp_id" name="Motion_1_LArm_transform_interp">
        <Name_array id="Motion_1_LArm_transform_interp_array_id" count="21">LINEAR LINEAR LINEAR LINEAR LINEAR LINEAR LINEAR LINEAR LINEAR LINEAR LINEAR LINEAR LINEAR LINEAR LINEAR LINEAR LINEAR LINEAR LINEAR LINEAR LINEAR</Name_array>
        <technique_common>
          <accessor source="#Motion_1_LArm_transform_interp_array_id" count="21" stride="1">
            <param name="INTERPOLATION" type="Name" />
          </accessor>
        </technique_common>
      </source>
      <source id="Motion_1_LArm_transform_pose_id" name="Motion_1_LArm_transform_pose">
        <float_array id="Motion_1_LArm_transform_pose_array_id" count="336">0.6457288 0.45915657 -0.6100898 12.61957 -0.62355655 0.778242 -0.0742735 0 0.44069433 0.428386 0.7888434 0 0 0 0 1 0.6434444 0.46238807 -0.6100628 12.61957 -0.6212715 0.7810351 -0.06329246 0 0.44721478 0.41973972 0.7898212 0 0 0 0 1 0.638248 0.46654373 -0.6123531 12.61957 -0.62170464 0.781484 -0.052592695 0 0.45400736 0.41427 0.7888331 0 0 0 0 1 0.6325303 0.46969017 -0.6158706 12.61957 -0.62457937 0.7795484 -0.04695648 0 0.45804596 0.41436148 0.78644675 0 0 0 0 1 0.6273838 0.47110894 -0.620037 12.61957 -0.6307445 0.7743889 -0.049831524 0 0.45667368 0.42234844 0.7829884 0 0 0 0 1 0.6232168 0.4708677 -0.62440723 12.61957 -0.63874894 0.767148 -0.059022143 0 0.45122117 0.4356231 0.7788658 0 0 0 0 1 0.6218282 0.4685107 -0.6275567 12.61957 -0.6450333 0.7608365 -0.07113272 0 0.4441416 0.4490273 0.77531457 0 0 0 0 1 0.6242103 0.4647131 -0.62801534 12.61957 -0.64714944 0.7578962 -0.08240728 0 0.4376747 0.45785922 0.7738254 0 0 0 0 1 0.6294481 0.46135747 -0.62525547 12.61957 -0.6453383 0.75858516 -0.08992818 0 0.43282047 0.4601064 0.7752216 0 0 0 0 1 0.635442 0.46062776 -0.619706 12.61957 -0.6393631 0.7638745 -0.08780998 0 0.43292984 0.45201528 0.77990633 0 0 0 0 1 0.6398025 0.46156818 -0.61449784 12.61957 -0.63135916 0.77157784 -0.077802405 0 0.43822178 0.437747 0.78507274 0 0 0 0 1 0.64013 0.46391895 -0.6123829 12.61957 -0.62513804 0.7778714 -0.0641761 0 0.4465826 0.4239049 0.7879522 0 0 0 0 1 0.6368907 0.46734443 -0.6131553 12.61957 -0.62349415 0.78002274 -0.053099617 0 0.45345932 0.41611737 0.78817576 0 0 0 0 1 0.632618 0.46940225 -0.61600006 12.61957 -0.6266746 0.77760845 -0.05103001 0 0.45505324 0.41831404 0.78609157 0 0 0 0 1 0.628608 0.4699391 -0.6196848 12.61957 -0.6331639 0.77192414 -0.056891054 0 0.45161438 0.42812422 0.78278613 0 0 0 0 1 0.6250267 0.4697195 -0.6234623 12.61957 -0.6412101 0.7644451 -0.06688239 0 0.44518676 0.44157362 0.77898747 0 0 0 0 1 0.6259669 0.46631116 -0.62507546 12.61957 -0.6443097 0.7608116 -0.07765716 0 0.43935227 0.451353 0.7766917 0 0 0 0 1 0.63089484 0.46252564 -0.62293 12.61957 -0.642135 0.7619058 -0.08463022 0 0.43547028 0.4533979 0.77768624 0 0 0 0 1 0.63748264 0.45952845 -0.618425 12.61957 -0.6366389 0.7662519 -0.08688474 0 0.4339433 0.4491009 0.781026 0 0 0 0 1 0.64307266 0.45843345 -0.61342996 12.61957 -0.6297042 0.7723993 -0.08289762 0 0.4358098 0.4395886 0.7853863 0 0 0 0 1 0.64307266 0.45843345 -0.61342996 12.61957 -0.6297042 0.7723993 -0.08289762 0 0.4358098 0.4395886 0.7853863 0 0 0 0 1</float_array>
        <technique_common>
          <accessor source="#Motion_1_LArm_transform_pose_array_id" count="21" stride="16">
            <param name="TRANSFORM" type="float4x4" />
          </accessor>
        </technique_common>
      </source>
      <sampler id="Motion_1_LArm_transform_samp_id">
        <input semantic="INPUT" source="#Motion_1_LArm_transform_frame_id" />
        <input semantic="INTERPOLATION" source="#Motion_1_LArm_transform_interp_id" />
        <input semantic="OUTPUT" source="#Motion_1_LArm_transform_pose_id" />
      </sampler>
      <channel source="#Motion_1_LArm_transform_samp_id" target="LArm_bone_id/transform" />
    </animation>
    <animation id="Motion_1_LForeArm_transform_id" name="Motion_1_LForeArm_transform">
      <source id="Motion_1_LForeArm_transform_frame_id" name="Motion_1_LForeArm_transform_frame">
        <float_array id="Motion_1_LForeArm_transform_frame_array_id" count="21">0 0.033333335 0.06666667 0.1 0.13333334 0.16666667 0.2 0.23333333 0.26666668 0.3 0.33333334 0.36666667 0.4 0.43333334 0.46666667 0.5 0.53333336 0.56666666 0.6 0.6333333 0.6666667</float_array>
        <technique_common>
          <accessor source="#Motion_1_LForeArm_transform_frame_array_id" count="21" stride="1">
            <param name="TIME" type="float" />
          </accessor>
        </technique_common>
      </source>
      <source id="Motion_1_LForeArm_transform_interp_id" name="Motion_1_LForeArm_transform_interp">
        <Name_array id="Motion_1_LForeArm_transform_interp_array_id" count="21">LINEAR LINEAR LINEAR LINEAR LINEAR LINEAR LINEAR LINEAR LINEAR LINEAR LINEAR LINEAR LINEAR LINEAR LINEAR LINEAR LINEAR LINEAR LINEAR LINEAR LINEAR</Name_array>
        <technique_common>
          <accessor source="#Motion_1_LForeArm_transform_interp_array_id" count="21" stride="1">
            <param name="INTERPOLATION" type="Name" />
          </accessor>
        </technique_common>
      </source>
      <source id="Motion_1_LForeArm_transform_pose_id" name="Motion_1_LForeArm_transform_pose">
        <float_array id="Motion_1_LForeArm_transform_pose_array_id" count="336">0.31487113 -0.0020342702 -0.94913226 22.6 0.0015382005 0.9999975 -0.0016329971 0 0.9491332 -0.00094577204 0.31487346 0 0 0 0 1 0.31058407 -0.002031148 -0.95054376 22.6 0.0015337692 0.9999975 -0.0016356726 0 0.9505447 -0.0009499007 0.3105864 0 0 0 0 1 0.33157593 -0.0020463725 -0.94342625 22.6 0.001555468 0.9999975 -0.0016223965 0 0.9434272 -0.0009295218 0.33157825 0 0 0 0 1 0.35930532 -0.002066229 -0.93321776 22.6 0.001584134 0.99999744 -0.0016041656 0 0.9332187 -0.00090195675 0.35930765 0 0 0 0 1 0.3935688 -0.002090359 -0.9192928 22.6 0.0016195746 0.99999744 -0.0015804971 0 0.91929376 -0.00086682884 0.39357114 0 0 0 0 1 0.43276292 -0.0021174017 -0.90150523 22.6 0.0016601692 0.99999744 -0.0015517786 0 0.9015062 -0.00082509906 0.4327653 0 0 0 0 1 0.447753 -0.0021275838 -0.8941547 22.6 0.001675718 0.99999744 -0.0015403044 0 0.8941557 -0.00080867525 0.4477554 0 0 0 0 1 0.4400788 -0.0021223822 -0.8979566 22.6 0.0016677557 0.99999744 -0.0015462136 0 0.89795756 -0.00081711664 0.44008118 0 0 0 0 1 0.4105134 -0.002102124 -0.9118521 22.6 0.0016371155 0.99999744 -0.0015683034 0 0.9118531 -0.0008489976 0.4105158 0 0 0 0 1 0.36560035 -0.0020706959 -0.9307696 22.6 0.001590643 0.99999744 -0.0015999136 0 0.9307706 -0.0008955932 0.36560267 0 0 0 0 1 0.32597935 -0.0020423296 -0.9453747 22.6 0.0015496829 0.9999975 -0.0016259796 0 0.9453757 -0.00093499525 0.32598168 0 0 0 0 1 0.31465858 -0.0020341158 -0.9492028 22.6 0.001537981 0.9999975 -0.0016331304 0 0.9492037 -0.0009459773 0.3146609 0 0 0 0 1 0.33270627 -0.0020471876 -0.94302833 22.6 0.0015566364 0.9999975 -0.0016216692 0 0.9430293 -0.0009284127 0.3327086 0 0 0 0 1 0.3650549 -0.0020703096 -0.93098366 22.6 0.001590079 0.99999744 -0.0016002837 0 0.9309846 -0.00089614623 0.36505723 0 0 0 0 1 0.40570092 -0.002098794 -0.91400343 22.6 0.0016321325 0.99999744 -0.0015718006 0 0.9140044 -0.0008540938 0.4057033 0 0 0 0 1 0.4476449 -0.0021275107 -0.89420885 22.6 0.0016756058 0.99999744 -0.0015403882 0 0.8942098 -0.0008087947 0.44764727 0 0 0 0 1 0.45919335 -0.0021352933 -0.88833374 22.6 0.001687595 0.9999974 -0.0015313562 0 0.8883347 -0.00079595926 0.45919573 0 0 0 0 1 0.4386353 -0.0021214015 -0.8986627 22.6 0.0016662589 0.99999744 -0.001547317 0 0.89866364 -0.0008186966 0.43863767 0 0 0 0 1 0.39819038 -0.0020935792 -0.91730046 22.6 0.0016243577 0.99999744 -0.0015772043 0 0.9173014 -0.0008619964 0.3981927 0 0 0 0 1 0.35026878 -0.00205979 -0.93664694 22.6 0.0015747914 0.99999744 -0.0016101955 0 0.9366479 -0.00091102236 0.3502711 0 0 0 0 1 0.35026878 -0.00205979 -0.93664694 22.6 0.0015747914 0.99999744 -0.0016101955 0 0.9366479 -0.00091102236 0.3502711 0 0 0 0 1</float_array>
        <technique_common>
          <accessor source="#Motion_1_LForeArm_transform_pose_array_id" count="21" stride="16">
            <param name="TRANSFORM" type="float4x4" />
          </accessor>
        </technique_common>
      </source>
      <sampler id="Motion_1_LForeArm_transform_samp_id">
        <input semantic="INPUT" source="#Motion_1_LForeArm_transform_frame_id" />
        <input semantic="INTERPOLATION" source="#Motion_1_LForeArm_transform_interp_id" />
        <input semantic="OUTPUT" source="#Motion_1_LForeArm_transform_pose_id" />
      </sampler>
      <channel source="#Motion_1_LForeArm_transform_samp_id" target="LForeArm_bone_id/transform" />
    </animation>
    <animation id="Motion_1_LHand_transform_id" name="Motion_1_LHand_transform">
      <source id="Motion_1_LHand_transform_frame_id" name="Motion_1_LHand_transform_frame">
        <float_array id="Motion_1_LHand_transform_frame_array_id" count="21">0 0.033333335 0.06666667 0.1 0.13333334 0.16666667 0.2 0.23333333 0.26666668 0.3 0.33333334 0.36666667 0.4 0.43333334 0.46666667 0.5 0.53333336 0.56666666 0.6 0.6333333 0.6666667</float_array>
        <technique_common>
          <accessor source="#Motion_1_LHand_transform_frame_array_id" count="21" stride="1">
            <param name="TIME" type="float" />
          </accessor>
        </technique_common>
      </source>
      <source id="Motion_1_LHand_transform_interp_id" name="Motion_1_LHand_transform_interp">
        <Name_array id="Motion_1_LHand_transform_interp_array_id" count="21">LINEAR LINEAR LINEAR LINEAR LINEAR LINEAR LINEAR LINEAR LINEAR LINEAR LINEAR LINEAR LINEAR LINEAR LINEAR LINEAR LINEAR LINEAR LINEAR LINEAR LINEAR</Name_array>
        <technique_common>
          <accessor source="#Motion_1_LHand_transform_interp_array_id" count="21" stride="1">
            <param name="INTERPOLATION" type="Name" />
          </accessor>
        </technique_common>
      </source>
      <source id="Motion_1_LHand_transform_pose_id" name="Motion_1_LHand_transform_pose">
        <float_array id="Motion_1_LHand_transform_pose_array_id" count="336">0.991878 -0.07282363 0.10428242 22.600002 0.12719162 0.5638423 -0.8160295 0 0.00062740594 0.8226655 0.5685253 0 0 0 0 1 0.9926503 -0.057527635 0.10647079 22.600002 0.12029222 0.5652749 -0.8160846 0 -0.013237853 0.8228942 0.5680404 0 0 0 0 1 0.9936713 -0.044716477 0.10304259 22.600002 0.11004311 0.57157254 -0.8131392 0 -0.022535589 0.81933224 0.572876 0 0 0 0 1 0.99461406 -0.032355756 0.0984679 22.600002 0.09891741 0.5800446 -0.80855644 0 -0.030954313 0.81394184 0.58012104 0 0 0 0 1 0.9950361 -0.038887 0.09160162 22.600002 0.09698842 0.5850268 -0.8051937 0 -0.02227784 0.8100812 0.5858944 0 0 0 0 1 0.9940708 -0.074809626 0.07890932 22.600002 0.10777761 0.5818484 -0.8061243 0 0.014392592 0.8098494 0.5864613 0 0 0 0 1 0.9899629 -0.12121641 0.0726646 22.600002 0.12942912 0.57110673 -0.8106079 0 0.05675973 0.81187665 0.5810634 0 0 0 0 1 0.9844298 -0.16063748 0.071369395 22.600002 0.15005036 0.55647534 -0.81720257 0 0.091558054 0.8151876 0.5719146 0 0 0 0 1 0.9807878 -0.17901926 0.07750691 22.600002 0.16413791 0.5425886 -0.82380605 0 0.10542279 0.82070076 0.5615481 0 0 0 0 1 0.9828347 -0.1615772 0.08904345 22.600002 0.1633386 0.5377127 -0.8271552 0 0.08576961 0.827501 0.5548745 0 0 0 0 1 0.987658 -0.11960428 0.10112581 22.600002 0.15040587 0.5441129 -0.8254206 0 0.04369998 0.83044326 0.55538666 0 0 0 0 1 0.9915217 -0.0738704 0.10690123 22.600002 0.12993738 0.55737686 -0.82002884 0 0.0009915866 0.8269668 0.5622498 0 0 0 0 1 0.99340725 -0.049981255 0.10316929 22.600002 0.113229945 0.5684449 -0.8148923 0 -0.017916732 0.8212018 0.57035667 0 0 0 0 1 0.9938378 -0.062380943 0.09162466 22.600002 0.11083308 0.57102525 -0.81341636 0 -0.0015783198 0.81855893 0.57442033 0 0 0 0 1 0.9918089 -0.10220701 0.07660878 22.600002 0.1213829 0.56745344 -0.8144095 0 0.03976644 0.8170376 0.5752115 0 0 0 0 1 0.986511 -0.15215603 0.060370762 22.600002 0.13644773 0.56059647 -0.8167702 0 0.090432875 0.81399024 0.5737959 0 0 0 0 1 0.9825681 -0.17741068 0.055546246 22.600002 0.14669849 0.5564055 -0.8178585 0 0.114190586 0.81175023 0.57273215 0 0 0 0 1 0.98425 -0.1651738 0.0630047 22.600002 0.145978 0.5583545 -0.81665826 0 0.09971158 0.81299317 0.5736721 0 0 0 0 1 0.98811203 -0.1329005 0.07727913 22.600002 0.13938561 0.56240463 -0.8150292 0 0.06485566 0.81611174 0.5742432 0 0 0 0 1 0.9908855 -0.09730597 0.093152925 22.600002 0.13204373 0.56479645 -0.81459767 0 0.026652776 0.8194733 0.57249725 0 0 0 0 1 0.9908855 -0.09730597 0.093152925 22.600002 0.13204373 0.56479645 -0.81459767 0 0.026652776 0.8194733 0.57249725 0 0 0 0 1</float_array>
        <technique_common>
          <accessor source="#Motion_1_LHand_transform_pose_array_id" count="21" stride="16">
            <param name="TRANSFORM" type="float4x4" />
          </accessor>
        </technique_common>
      </source>
      <sampler id="Motion_1_LHand_transform_samp_id">
        <input semantic="INPUT" source="#Motion_1_LHand_transform_frame_id" />
        <input semantic="INTERPOLATION" source="#Motion_1_LHand_transform_interp_id" />
        <input semantic="OUTPUT" source="#Motion_1_LHand_transform_pose_id" />
      </sampler>
      <channel source="#Motion_1_LHand_transform_samp_id" target="LHand_bone_id/transform" />
    </animation>
    <animation id="Motion_1_RShoulder_transform_id" name="Motion_1_RShoulder_transform">
      <source id="Motion_1_RShoulder_transform_frame_id" name="Motion_1_RShoulder_transform_frame">
        <float_array id="Motion_1_RShoulder_transform_frame_array_id" count="21">0 0.033333335 0.06666667 0.1 0.13333334 0.16666667 0.2 0.23333333 0.26666668 0.3 0.33333334 0.36666667 0.4 0.43333334 0.46666667 0.5 0.53333336 0.56666666 0.6 0.6333333 0.6666667</float_array>
        <technique_common>
          <accessor source="#Motion_1_RShoulder_transform_frame_array_id" count="21" stride="1">
            <param name="TIME" type="float" />
          </accessor>
        </technique_common>
      </source>
      <source id="Motion_1_RShoulder_transform_interp_id" name="Motion_1_RShoulder_transform_interp">
        <Name_array id="Motion_1_RShoulder_transform_interp_array_id" count="21">LINEAR LINEAR LINEAR LINEAR LINEAR LINEAR LINEAR LINEAR LINEAR LINEAR LINEAR LINEAR LINEAR LINEAR LINEAR LINEAR LINEAR LINEAR LINEAR LINEAR LINEAR</Name_array>
        <technique_common>
          <accessor source="#Motion_1_RShoulder_transform_interp_array_id" count="21" stride="1">
            <param name="INTERPOLATION" type="Name" />
          </accessor>
        </technique_common>
      </source>
      <source id="Motion_1_RShoulder_transform_pose_id" name="Motion_1_RShoulder_transform_pose">
        <float_array id="Motion_1_RShoulder_transform_pose_array_id" count="336">-0.49568224 -0.86341655 -0.09386823 14.18017 0.86622703 -0.49930787 0.018507984 4.5 -0.06284923 -0.07213712 0.9954126 -0.240233 0 0 0 1 -0.495947 -0.8632753 -0.09376814 14.18017 0.86632574 -0.4992702 0.014461847 4.5 -0.05930019 -0.074061446 0.995489 -0.240233 0 0 0 1 -0.4961946 -0.8631357 -0.0937415 14.18017 0.86643994 -0.4991809 0.010006476 4.5 -0.055430926 -0.076256216 0.9955463 -0.240233 0 0 0 1 -0.49638796 -0.8630254 -0.09373567 14.18017 0.8665261 -0.4990915 0.0063530765 4.5 -0.052265532 -0.07807082 0.99557686 -0.240233 0 0 0 1 -0.4964807 -0.86298025 -0.093659244 14.18017 0.86655605 -0.49905682 0.004781492 4.5 -0.050867625 -0.078787066 0.99559283 -0.240233 0 0 0 1 -0.49644017 -0.8630016 -0.0936753 14.18017 0.8665091 -0.49912322 0.0061296485 4.5 -0.052045435 -0.0781275 0.99558395 -0.240233 0 0 0 1 -0.49626863 -0.8630878 -0.09379394 14.18017 0.86636126 -0.49930525 0.010622729 4.5 -0.056000143 -0.0759877 0.99553496 -0.240233 0 0 0 1 -0.49604785 -0.86320305 -0.09389972 14.18017 0.86613905 -0.49953055 0.016506054 4.5 -0.06115385 -0.07314242 0.99544483 -0.240233 0 0 0 1 -0.4958639 -0.8633013 -0.09396783 14.18017 0.8659154 -0.49972177 0.02164816 4.5 -0.065646656 -0.07063366 0.9953399 -0.240233 0 0 0 1 -0.4957875 -0.86334443 -0.09397462 14.18017 0.8658074 -0.49980557 0.023919266 4.5 -0.06761959 -0.06950505 0.99528724 -0.240233 0 0 0 1 -0.49586952 -0.8633037 -0.09391634 14.18017 0.86590856 -0.4997301 0.021733925 4.5 -0.06569579 -0.07054577 0.99534285 -0.240233 0 0 0 1 -0.4960724 -0.8631968 -0.093825765 14.18017 0.8661211 -0.49955797 0.01660598 4.5 -0.061205648 -0.07302672 0.99545014 -0.240233 0 0 0 1 -0.49632263 -0.86306274 -0.09373447 14.18017 0.866307 -0.49938917 0.011056311 4.5 -0.056352284 -0.07571535 0.99553585 -0.240233 0 0 0 1 -0.4965315 -0.86294913 -0.0936753 14.18017 0.8663782 -0.49933028 0.0076075643 4.5 -0.05333987 -0.07738084 0.99557376 -0.240233 0 0 0 1 -0.4966532 -0.8628794 -0.09367199 14.18017 0.8663187 -0.4994365 0.0074035786 4.5 -0.05317162 -0.07747279 0.9955756 -0.240233 0 0 0 1 -0.49665082 -0.8628763 -0.09371312 14.18017 0.8662158 -0.49958313 0.009300925 4.5 -0.054843053 -0.07655648 0.9955558 -0.240233 0 0 0 1 -0.49649966 -0.8629564 -0.09377822 14.18017 0.86612713 -0.49967015 0.012388814 4.5 -0.05754919 -0.075072825 0.995516 -0.240233 0 0 0 1 -0.49626553 -0.8630837 -0.0938452 14.18017 0.866061 -0.49969018 0.015751509 4.5 -0.0604884 -0.07345874 0.9954622 -0.240233 0 0 0 1 -0.49601197 -0.86322415 -0.093892515 14.18017 0.86603725 -0.49963772 0.018473504 4.5 -0.06285904 -0.07215134 0.9954109 -0.240233 0 0 0 1 -0.4957999 -0.86334556 -0.09389943 14.18017 0.8660858 -0.49950957 0.019639429 4.5 -0.06385927 -0.07158774 0.995388 -0.240233 0 0 0 1 -0.4957999 -0.86334556 -0.09389943 14.18017 0.8660858 -0.49950957 0.019639429 4.5 -0.06385927 -0.07158774 0.995388 -0.240233 0 0 0 1</float_array>
        <technique_common>
          <accessor source="#Motion_1_RShoulder_transform_pose_array_id" count="21" stride="16">
            <param name="TRANSFORM" type="float4x4" />
          </accessor>
        </technique_common>
      </source>
      <sampler id="Motion_1_RShoulder_transform_samp_id">
        <input semantic="INPUT" source="#Motion_1_RShoulder_transform_frame_id" />
        <input semantic="INTERPOLATION" source="#Motion_1_RShoulder_transform_interp_id" />
        <input semantic="OUTPUT" source="#Motion_1_RShoulder_transform_pose_id" />
      </sampler>
      <channel source="#Motion_1_RShoulder_transform_samp_id" target="RShoulder_bone_id/transform" />
    </animation>
    <animation id="Motion_1_RArm_transform_id" name="Motion_1_RArm_transform">
      <source id="Motion_1_RArm_transform_frame_id" name="Motion_1_RArm_transform_frame">
        <float_array id="Motion_1_RArm_transform_frame_array_id" count="21">0 0.033333335 0.06666667 0.1 0.13333334 0.16666667 0.2 0.23333333 0.26666668 0.3 0.33333334 0.36666667 0.4 0.43333334 0.46666667 0.5 0.53333336 0.56666666 0.6 0.6333333 0.6666667</float_array>
        <technique_common>
          <accessor source="#Motion_1_RArm_transform_frame_array_id" count="21" stride="1">
            <param name="TIME" type="float" />
          </accessor>
        </technique_common>
      </source>
      <source id="Motion_1_RArm_transform_interp_id" name="Motion_1_RArm_transform_interp">
        <Name_array id="Motion_1_RArm_transform_interp_array_id" count="21">LINEAR LINEAR LINEAR LINEAR LINEAR LINEAR LINEAR LINEAR LINEAR LINEAR LINEAR LINEAR LINEAR LINEAR LINEAR LINEAR LINEAR LINEAR LINEAR LINEAR LINEAR</Name_array>
        <technique_common>
          <accessor source="#Motion_1_RArm_transform_interp_array_id" count="21" stride="1">
            <param name="INTERPOLATION" type="Name" />
          </accessor>
        </technique_common>
      </source>
      <source id="Motion_1_RArm_transform_pose_id" name="Motion_1_RArm_transform_pose">
        <float_array id="Motion_1_RArm_transform_pose_array_id" count="336">0.65093386 -0.4781826 -0.58959866 12.61957 0.6301736 0.7734309 0.06845358 0 0.4232805 -0.41610822 0.8047904 0 0 0 0 1 0.6507058 -0.48063415 -0.5878544 12.61957 0.626404 0.7773521 0.05780819 0 0.42918527 -0.40585044 0.80689865 0 0 0 0 1 0.6473827 -0.48381084 -0.5889166 12.61957 0.6252883 0.7789508 0.047436237 0 0.4357869 -0.39895207 0.8068005 0 0 0 0 1 0.64320153 -0.48608136 -0.59162205 12.61957 0.6267394 0.7780911 0.042094707 0 0.43987435 -0.39786825 0.80511576 0 0 0 0 1 0.63900775 -0.48696765 -0.59542555 12.61957 0.631733 0.7738753 0.045060277 0 0.43884224 -0.40494382 0.80214584 0 0 0 0 1 0.6353939 -0.4864912 -0.5996673 12.61957 0.63876 0.7674968 0.054169595 0 0.43388975 -0.4174625 0.7984139 0 0 0 0 1 0.63459456 -0.48411876 -0.6024274 12.61957 0.64421433 0.7619673 0.066285595 0 0.4269399 -0.4301569 0.7954165 0 0 0 0 1 0.63784224 -0.48043078 -0.6019498 12.61957 0.64562994 0.75967586 0.07781115 0 0.41990387 -0.43826804 0.7947339 0 0 0 0 1 0.6435381 -0.4770615 -0.5985574 12.61957 0.64341915 0.7607293 0.0854556 0 0.41457263 -0.44011724 0.79650885 0 0 0 0 1 0.6496401 -0.4763192 -0.5925266 12.61957 0.6375934 0.7658448 0.083404884 0 0.41405612 -0.43197417 0.8012215 0 0 0 0 1 0.65368617 -0.47738865 -0.587192 12.61957 0.63034576 0.77283585 0.07340911 0 0.41875833 -0.41812053 0.80611205 0 0 0 0 1 0.6530373 -0.479968 -0.5858097 12.61957 0.62535197 0.7780609 0.059633404 0 0.4271735 -0.4052801 0.80825174 0 0 0 0 1 0.6480701 -0.4838364 -0.588139 12.61957 0.62530243 0.77888864 0.048262566 0 0.43474358 -0.3990423 0.80731857 0 0 0 0 1 0.64142543 -0.4865979 -0.5931239 12.61957 0.63026357 0.77503186 0.045754746 0 0.43742576 -0.4031726 0.80381 0 0 0 0 1 0.63455987 -0.487913 -0.5993953 12.61957 0.63854456 0.7678977 0.05093044 0 0.4354247 -0.415059 0.7988313 0 0 0 0 1 0.62818563 -0.48832116 -0.6057435 12.61957 0.648167 0.7591133 0.060220376 0 0.43042108 -0.4304526 0.79337776 0 0 0 0 1 0.6272956 -0.48526895 -0.6091094 12.61957 0.6523433 0.7546265 0.07061991 0 0.42538044 -0.44164798 0.78993577 0 0 0 0 1 0.6317671 -0.4817318 -0.60729307 12.61957 0.6506857 0.7553588 0.07772434 0 0.4212819 -0.4442606 0.7906669 0 0 0 0 1 0.63905686 -0.47888753 -0.6018912 12.61957 0.6451231 0.75983644 0.08040352 0 0.41883463 -0.4396764 0.79452014 0 0 0 0 1 0.6461947 -0.47778744 -0.59510636 12.61957 0.6375126 0.76660615 0.07676354 0 0.41953555 -0.428992 0.79997236 0 0 0 0 1 0.6461947 -0.47778744 -0.59510636 12.61957 0.6375126 0.76660615 0.07676354 0 0.41953555 -0.428992 0.79997236 0 0 0 0 1</float_array>
        <technique_common>
          <accessor source="#Motion_1_RArm_transform_pose_array_id" count="21" stride="16">
            <param name="TRANSFORM" type="float4x4" />
          </accessor>
        </technique_common>
      </source>
      <sampler id="Motion_1_RArm_transform_samp_id">
        <input semantic="INPUT" source="#Motion_1_RArm_transform_frame_id" />
        <input semantic="INTERPOLATION" source="#Motion_1_RArm_transform_interp_id" />
        <input semantic="OUTPUT" source="#Motion_1_RArm_transform_pose_id" />
      </sampler>
      <channel source="#Motion_1_RArm_transform_samp_id" target="RArm_bone_id/transform" />
    </animation>
    <animation id="Motion_1_RForeArm_transform_id" name="Motion_1_RForeArm_transform">
      <source id="Motion_1_RForeArm_transform_frame_id" name="Motion_1_RForeArm_transform_frame">
        <float_array id="Motion_1_RForeArm_transform_frame_array_id" count="21">0 0.033333335 0.06666667 0.1 0.13333334 0.16666667 0.2 0.23333333 0.26666668 0.3 0.33333334 0.36666667 0.4 0.43333334 0.46666667 0.5 0.53333336 0.56666666 0.6 0.6333333 0.6666667</float_array>
        <technique_common>
          <accessor source="#Motion_1_RForeArm_transform_frame_array_id" count="21" stride="1">
            <param name="TIME" type="float" />
          </accessor>
        </technique_common>
      </source>
      <source id="Motion_1_RForeArm_transform_interp_id" name="Motion_1_RForeArm_transform_interp">
        <Name_array id="Motion_1_RForeArm_transform_interp_array_id" count="21">LINEAR LINEAR LINEAR LINEAR LINEAR LINEAR LINEAR LINEAR LINEAR LINEAR LINEAR LINEAR LINEAR LINEAR LINEAR LINEAR LINEAR LINEAR LINEAR LINEAR LINEAR</Name_array>
        <technique_common>
          <accessor source="#Motion_1_RForeArm_transform_interp_array_id" count="21" stride="1">
            <param name="INTERPOLATION" type="Name" />
          </accessor>
        </technique_common>
      </source>
      <source id="Motion_1_RForeArm_transform_pose_id" name="Motion_1_RForeArm_transform_pose">
        <float_array id="Motion_1_RForeArm_transform_pose_array_id" count="336">0.3018499 1.7484552E-07 -0.95335543 22.6 -5.2777217E-08 1 1.6668989E-07 0 0.95335543 1.2789769E-13 0.3018499 0 0 0 0 1 0.29683012 1.7474514E-07 -0.9549303 22.6 -5.23087E-08 1 1.6673293E-07 0 0.9549303 4.5980642E-10 0.29683012 0 0 0 0 1 0.31771493 1.7515336E-07 -0.9481863 22.6 -5.4263325E-08 1 1.6654226E-07 0 0.9481863 -1.461224E-09 0.31771493 0 0 0 0 1 0.34578055 1.7566234E-07 -0.9383154 22.6 -5.6912945E-08 1 1.6623721E-07 0 0.9383154 -4.079311E-09 0.34578055 0 0 0 0 1 0.38078552 1.7623141E-07 -0.92466336 22.6 -6.025729E-08 1 1.6577525E-07 0 0.92466336 -7.4071025E-09 0.38078552 0 0 0 0 1 0.4210276 1.7679147E-07 -0.9070478 22.6 -6.416163E-08 1 1.6512652E-07 0 0.9070478 -1.1325163E-08 0.4210276 0 0 0 0 1 0.43642128 1.7697792E-07 -0.8997425 22.6 -6.5673476E-08 1 1.6484341E-07 0 0.8997425 -1.2851949E-08 0.43642128 0 0 0 0 1 0.42844182 1.7688323E-07 -0.90356934 22.6 -6.488848E-08 1 1.6499264E-07 0 0.90356934 -1.2058507E-08 0.42844182 0 0 0 0 1 0.39805955 1.7648445E-07 -0.9173596 22.6 -6.1925036E-08 1 1.6551263E-07 0 0.9173596 -9.076359E-09 0.39805955 0 0 0 0 1 0.35198015 1.7576849E-07 -0.93600744 22.6 -5.750193E-08 1 1.6616207E-07 0 0.93600744 -4.6635122E-09 0.35198015 0 0 0 0 1 0.3113923 1.7503243E-07 -0.95028144 22.6 -5.3670114E-08 1 1.6660323E-07 0 0.95028144 -8.772574E-10 0.3113923 0 0 0 0 1 0.29985988 1.7480589E-07 -0.95398325 22.6 -5.259139E-08 1 1.6670717E-07 0 0.95398325 1.8251001E-10 0.29985988 0 0 0 0 1 0.31845528 1.7516739E-07 -0.94793785 22.6 -5.4332887E-08 1 1.6653495E-07 0 0.94793785 -1.5297275E-09 0.31845528 0 0 0 0 1 0.35205287 1.7576974E-07 -0.93598014 22.6 -5.7508863E-08 1 1.6616121E-07 0 0.93598014 -4.670383E-09 0.35205287 0 0 0 0 1 0.39442325 1.7643274E-07 -0.91892886 22.6 -6.157296E-08 1 1.6556987E-07 0 0.91892886 -8.7234255E-09 0.39442325 0 0 0 0 1 0.43823546 1.7699884E-07 -0.8988602 22.6 -6.585236E-08 1 1.6480872E-07 0 0.8988602 -1.303296E-08 0.43823546 0 0 0 0 1 0.45068645 1.7713646E-07 -0.8926823 22.6 -6.708419E-08 1 1.6456305E-07 0 0.8926823 -1.42814685E-08 0.45068645 0 0 0 0 1 0.42983878 1.7690013E-07 -0.9029057 22.6 -6.502571E-08 1 1.6496692E-07 0 0.9029057 -1.21971055E-08 0.42983878 0 0 0 0 1 0.38826126 1.763432E-07 -0.9215493 22.6 -6.097757E-08 1 1.6566446E-07 0 0.9215493 -8.127245E-09 0.38826126 0 0 0 0 1 0.33870673 1.7553839E-07 -0.94089204 22.6 -5.624255E-08 1 1.6631948E-07 0 0.94089204 -3.4153658E-09 0.33870673 0 0 0 0 1 0.33870673 1.7553839E-07 -0.94089204 22.6 -5.624255E-08 1 1.6631948E-07 0 0.94089204 -3.4153658E-09 0.33870673 0 0 0 0 1</float_array>
        <technique_common>
          <accessor source="#Motion_1_RForeArm_transform_pose_array_id" count="21" stride="16">
            <param name="TRANSFORM" type="float4x4" />
          </accessor>
        </technique_common>
      </source>
      <sampler id="Motion_1_RForeArm_transform_samp_id">
        <input semantic="INPUT" source="#Motion_1_RForeArm_transform_frame_id" />
        <input semantic="INTERPOLATION" source="#Motion_1_RForeArm_transform_interp_id" />
        <input semantic="OUTPUT" source="#Motion_1_RForeArm_transform_pose_id" />
      </sampler>
      <channel source="#Motion_1_RForeArm_transform_samp_id" target="RForeArm_bone_id/transform" />
    </animation>
    <animation id="Motion_1_RHand_transform_id" name="Motion_1_RHand_transform">
      <source id="Motion_1_RHand_transform_frame_id" name="Motion_1_RHand_transform_frame">
        <float_array id="Motion_1_RHand_transform_frame_array_id" count="21">0 0.033333335 0.06666667 0.1 0.13333334 0.16666667 0.2 0.23333333 0.26666668 0.3 0.33333334 0.36666667 0.4 0.43333334 0.46666667 0.5 0.53333336 0.56666666 0.6 0.6333333 0.6666667</float_array>
        <technique_common>
          <accessor source="#Motion_1_RHand_transform_frame_array_id" count="21" stride="1">
            <param name="TIME" type="float" />
          </accessor>
        </technique_common>
      </source>
      <source id="Motion_1_RHand_transform_interp_id" name="Motion_1_RHand_transform_interp">
        <Name_array id="Motion_1_RHand_transform_interp_array_id" count="21">LINEAR LINEAR LINEAR LINEAR LINEAR LINEAR LINEAR LINEAR LINEAR LINEAR LINEAR LINEAR LINEAR LINEAR LINEAR LINEAR LINEAR LINEAR LINEAR LINEAR LINEAR</Name_array>
        <technique_common>
          <accessor source="#Motion_1_RHand_transform_interp_array_id" count="21" stride="1">
            <param name="INTERPOLATION" type="Name" />
          </accessor>
        </technique_common>
      </source>
      <source id="Motion_1_RHand_transform_pose_id" name="Motion_1_RHand_transform_pose">
        <float_array id="Motion_1_RHand_transform_pose_array_id" count="336">0.9592662 0.059874713 0.27608582 22.600002 -0.25533912 0.6019037 0.7566465 0 -0.120873086 -0.7963209 0.59267414 0 0 0 0 1 0.9598381 0.04449056 0.27700436 22.600002 -0.24660058 0.60462284 0.75737655 0 -0.13378707 -0.7952683 0.59131145 0 0 0 0 1 0.96179086 0.03196487 0.27191272 22.600002 -0.23390049 0.61212295 0.75537807 0 -0.14229846 -0.79011625 0.59621084 0 0 0 0 1 0.9638117 0.020745456 0.26577553 22.600002 -0.22059639 0.62183803 0.7514351 0 -0.14968048 -0.78287107 0.60391116 0 0 0 0 1 0.96643144 0.026501387 0.25555417 22.600002 -0.21488991 0.6285833 0.74746597 0 -0.14082819 -0.7772906 0.61317754 0 0 0 0 1 0.96918386 0.061994933 0.23840997 22.600002 -0.2236214 0.6273618 0.74592936 0 -0.10332546 -0.7762562 0.62189233 0 0 0 0 1 0.9677825 0.10752805 0.2276724 22.600002 -0.24452186 0.6170277 0.74798787 0 -0.06005051 -0.77956045 0.6234416 0 0 0 0 1 0.96374977 0.14625011 0.22315317 22.600002 -0.26570508 0.6020591 0.7529446 0 -0.024233185 -0.7849431 0.6190938 0 0 0 0 1 0.95953274 0.16457325 0.2285008 22.600002 -0.2814288 0.5884976 0.757937 0 -0.009736016 -0.79157203 0.61099833 0 0 0 0 1 0.95883137 0.1474404 0.24270082 22.600002 -0.28244954 0.583645 0.761302 0 -0.029404439 -0.798511 0.6012616 0 0 0 0 1 0.9599661 0.105757035 0.25938487 22.600002 -0.27067298 0.58862174 0.7617483 0 -0.07211931 -0.8014611 0.5936825 0 0 0 0 1 0.9610023 0.060656816 0.2698061 22.600002 -0.2509895 0.6009131 0.75888586 0 -0.11609841 -0.7970096 0.5927031 0 0 0 0 1 0.96232694 0.03717304 0.26934195 22.600002 -0.23517248 0.6109633 0.7559218 0 -0.13645811 -0.79078573 0.5966885 0 0 0 0 1 0.9646126 0.049285024 0.25902423 22.600002 -0.23404923 0.61244 0.7550749 0 -0.12142292 -0.78897923 0.60230243 0 0 0 0 1 0.96586174 0.088394605 0.24351078 22.600002 -0.24600902 0.6075361 0.7552347 0 -0.08118292 -0.78935814 0.6085417 0 0 0 0 1 0.9645914 0.1370098 0.2253702 22.600002 -0.2618558 0.59967256 0.7561907 0 -0.031542778 -0.78842956 0.61431575 0 0 0 0 1 0.96163076 0.16297738 0.22069138 22.600002 -0.27422827 0.5946853 0.75574344 0 -0.008072831 -0.78726596 0.6165607 0 0 0 0 1 0.9613025 0.15119846 0.23029661 22.600002 -0.27451986 0.595992 0.7546074 0 -0.023159467 -0.78862697 0.61443555 0 0 0 0 1 0.9615307 0.119550735 0.24731836 22.600002 -0.2684585 0.5997577 0.75380415 0 -0.05821324 -0.7912006 0.6087798 0 0 0 0 1 0.960565 0.08434882 0.26495326 22.600002 -0.26097715 0.60229695 0.75440663 0 -0.09594722 -0.7938033 0.6005584 0 0 0 0 1 0.960565 0.08434882 0.26495326 22.600002 -0.26097715 0.60229695 0.75440663 0 -0.09594722 -0.7938033 0.6005584 0 0 0 0 1</float_array>
        <technique_common>
          <accessor source="#Motion_1_RHand_transform_pose_array_id" count="21" stride="16">
            <param name="TRANSFORM" type="float4x4" />
          </accessor>
        </technique_common>
      </source>
      <sampler id="Motion_1_RHand_transform_samp_id">
        <input semantic="INPUT" source="#Motion_1_RHand_transform_frame_id" />
        <input semantic="INTERPOLATION" source="#Motion_1_RHand_transform_interp_id" />
        <input semantic="OUTPUT" source="#Motion_1_RHand_transform_pose_id" />
      </sampler>
      <channel source="#Motion_1_RHand_transform_samp_id" target="RHand_bone_id/transform" />
    </animation>
    <animation id="Motion_1_LThigh_transform_id" name="Motion_1_LThigh_transform">
      <source id="Motion_1_LThigh_transform_frame_id" name="Motion_1_LThigh_transform_frame">
        <float_array id="Motion_1_LThigh_transform_frame_array_id" count="21">0 0.033333335 0.06666667 0.1 0.13333334 0.16666667 0.2 0.23333333 0.26666668 0.3 0.33333334 0.36666667 0.4 0.43333334 0.46666667 0.5 0.53333336 0.56666666 0.6 0.6333333 0.6666667</float_array>
        <technique_common>
          <accessor source="#Motion_1_LThigh_transform_frame_array_id" count="21" stride="1">
            <param name="TIME" type="float" />
          </accessor>
        </technique_common>
      </source>
      <source id="Motion_1_LThigh_transform_interp_id" name="Motion_1_LThigh_transform_interp">
        <Name_array id="Motion_1_LThigh_transform_interp_array_id" count="21">LINEAR LINEAR LINEAR LINEAR LINEAR LINEAR LINEAR LINEAR LINEAR LINEAR LINEAR LINEAR LINEAR LINEAR LINEAR LINEAR LINEAR LINEAR LINEAR LINEAR LINEAR</Name_array>
        <technique_common>
          <accessor source="#Motion_1_LThigh_transform_interp_array_id" count="21" stride="1">
            <param name="INTERPOLATION" type="Name" />
          </accessor>
        </technique_common>
      </source>
      <source id="Motion_1_LThigh_transform_pose_id" name="Motion_1_LThigh_transform_pose">
        <float_array id="Motion_1_LThigh_transform_pose_array_id" count="336">0.0960955 -0.45840418 -0.8835334 11.300003 0.458642 0.8081888 -0.3694299 7.8 0.88341004 -0.369725 0.2879067 0 0 0 0 1 0.10498595 -0.4572891 -0.88309944 11.300003 0.45975822 0.80972904 -0.36463854 7.8 0.8818165 -0.3677303 0.29525262 0 0 0 0 1 0.11888528 -0.45719165 -0.88138646 11.300003 0.4633183 0.8106576 -0.3580089 7.8 0.8781813 -0.36580047 0.30820048 0 0 0 0 1 0.12693375 -0.45663148 -0.88055414 11.300003 0.46710217 0.81065995 -0.35305247 7.8 0.87504476 -0.36649445 0.31619364 0 0 0 0 1 0.12980103 -0.4565955 -0.8801546 11.300003 0.47053078 0.80971426 -0.35066167 7.8 0.87278426 -0.36862364 0.31994402 0 0 0 0 1 0.1300326 -0.45684683 -0.8799901 11.300003 0.47230577 0.80890167 -0.35015056 7.8 0.87179065 -0.37009338 0.32095498 0 0 0 0 1 0.1237579 -0.4564442 -0.88110304 11.300003 0.47045434 0.80878496 -0.3529017 7.8 0.87370276 -0.37084442 0.3148297 0 0 0 0 1 0.11330724 -0.45632794 -0.8825681 11.300003 0.46578297 0.8090249 -0.35850388 7.8 0.87761486 -0.37046403 0.3042181 0 0 0 0 1 0.10244584 -0.45643592 -0.8838388 11.300003 0.46015877 0.80947566 -0.3646959 7.8 0.8819063 -0.36934465 0.2929604 0 0 0 0 1 0.09497422 -0.45668527 -0.8845442 11.300003 0.45553115 0.81000894 -0.3692924 7.8 0.88513917 -0.36786416 0.28496432 0 0 0 0 1 0.09471512 -0.45697236 -0.8844237 11.300003 0.4539029 0.81051904 -0.370177 7.8 0.88600284 -0.36638114 0.28418952 0 0 0 0 1 0.10404253 -0.45722175 -0.88324594 11.300003 0.45643705 0.8109734 -0.36604282 7.8 0.88365173 -0.36506215 0.29306865 0 0 0 0 1 0.11851418 -0.4575089 -0.88127184 11.300003 0.4617599 0.8111135 -0.35898852 7.8 0.8790519 -0.36439073 0.3073877 0 0 0 0 1 0.12752682 -0.45732525 -0.8801082 11.300003 0.467513 0.8103092 -0.3533138 7.8 0.874739 -0.36640507 0.31714165 0 0 0 0 1 0.13118947 -0.45771846 -0.87936515 11.300003 0.47297743 0.808465 -0.35025236 7.8 0.87125295 -0.36997047 0.32255262 0 0 0 0 1 0.13165832 -0.45854867 -0.87886244 11.300003 0.47626203 0.806813 -0.3496101 7.8 0.8693909 -0.37253976 0.32461298 0 0 0 0 1 0.12554765 -0.4588076 -0.87962127 11.300003 0.47518927 0.8061232 -0.35264787 7.8 0.8708806 -0.3737124 0.31922728 0 0 0 0 1 0.115130186 -0.45878604 -0.88105637 11.300003 0.47109404 0.8060845 -0.35818732 7.8 0.8745373 -0.37382227 0.30893606 0 0 0 0 1 0.10428953 -0.45863423 -0.8824842 11.300003 0.4657835 0.80651754 -0.36410874 7.8 0.8787317 -0.37307388 0.29773563 0 0 0 0 1 0.096946836 -0.45849302 -0.8833942 11.300003 0.46113607 0.80725354 -0.36836827 7.8 0.8820173 -0.37165284 0.2896884 0 0 0 0 1 0.096946836 -0.45849302 -0.8833942 11.300003 0.46113607 0.80725354 -0.36836827 7.8 0.8820173 -0.37165284 0.2896884 0 0 0 0 1</float_array>
        <technique_common>
          <accessor source="#Motion_1_LThigh_transform_pose_array_id" count="21" stride="16">
            <param name="TRANSFORM" type="float4x4" />
          </accessor>
        </technique_common>
      </source>
      <sampler id="Motion_1_LThigh_transform_samp_id">
        <input semantic="INPUT" source="#Motion_1_LThigh_transform_frame_id" />
        <input semantic="INTERPOLATION" source="#Motion_1_LThigh_transform_interp_id" />
        <input semantic="OUTPUT" source="#Motion_1_LThigh_transform_pose_id" />
      </sampler>
      <channel source="#Motion_1_LThigh_transform_samp_id" target="LThigh_bone_id/transform" />
    </animation>
    <animation id="Motion_1_LLeg_transform_id" name="Motion_1_LLeg_transform">
      <source id="Motion_1_LLeg_transform_frame_id" name="Motion_1_LLeg_transform_frame">
        <float_array id="Motion_1_LLeg_transform_frame_array_id" count="21">0 0.033333335 0.06666667 0.1 0.13333334 0.16666667 0.2 0.23333333 0.26666668 0.3 0.33333334 0.36666667 0.4 0.43333334 0.46666667 0.5 0.53333336 0.56666666 0.6 0.6333333 0.6666667</float_array>
        <technique_common>
          <accessor source="#Motion_1_LLeg_transform_frame_array_id" count="21" stride="1">
            <param name="TIME" type="float" />
          </accessor>
        </technique_common>
      </source>
      <source id="Motion_1_LLeg_transform_interp_id" name="Motion_1_LLeg_transform_interp">
        <Name_array id="Motion_1_LLeg_transform_interp_array_id" count="21">LINEAR LINEAR LINEAR LINEAR LINEAR LINEAR LINEAR LINEAR LINEAR LINEAR LINEAR LINEAR LINEAR LINEAR LINEAR LINEAR LINEAR LINEAR LINEAR LINEAR LINEAR</Name_array>
        <technique_common>
          <accessor source="#Motion_1_LLeg_transform_interp_array_id" count="21" stride="1">
            <param name="INTERPOLATION" type="Name" />
          </accessor>
        </technique_common>
      </source>
      <source id="Motion_1_LLeg_transform_pose_id" name="Motion_1_LLeg_transform_pose">
        <float_array id="Motion_1_LLeg_transform_pose_array_id" count="336">0.3383277 0 0.9410283 34.299995 0 1 0 0 -0.9410283 0 0.3383277 0 0 0 0 1 0.34358037 0 0.9391233 34.299995 0 1 0 0 -0.9391233 0 0.34358037 0 0 0 0 1 0.3451836 0 0.93853515 34.299995 0 1 0 0 -0.93853515 0 0.3451836 0 0 0 0 1 0.33692878 0 0.94153017 34.299995 0 1 0 0 -0.94153017 0 0.33692878 0 0 0 0 1 0.32496715 0 0.9457253 34.299995 0 1 0 0 -0.9457253 0 0.32496715 0 0 0 0 1 0.31729323 0 0.9483275 34.299995 0 1 0 0 -0.9483275 0 0.31729323 0 0 0 0 1 0.31398815 0 0.9494269 34.299995 0 1 0 0 -0.9494269 0 0.31398815 0 0 0 0 1 0.31441283 0 0.94928634 34.299995 0 1 0 0 -0.94928634 0 0.31441283 0 0 0 0 1 0.31791198 0 0.94812024 34.299995 0 1 0 0 -0.94812024 0 0.31791198 0 0 0 0 1 0.3238213 0 0.94611824 34.299995 0 1 0 0 -0.94611824 0 0.3238213 0 0 0 0 1 0.3314662 0 0.94346714 34.299995 0 1 0 0 -0.94346714 0 0.3314662 0 0 0 0 1 0.33864117 0 0.94091564 34.299995 0 1 0 0 -0.94091564 0 0.33864117 0 0 0 0 1 0.34347117 0 0.9391632 34.299995 0 1 0 0 -0.9391632 0 0.34347117 0 0 0 0 1 0.33837903 0 0.94100994 34.299995 0 1 0 0 -0.94100994 0 0.33837903 0 0 0 0 1 0.32947385 0 0.9441647 34.299995 0 1 0 0 -0.9441647 0 0.32947385 0 0 0 0 1 0.32419014 0 0.945992 34.299995 0 1 0 0 -0.945992 0 0.32419014 0 0 0 0 1 0.32266575 0 0.94651294 34.299995 0 1 0 0 -0.94651294 0 0.32266575 0 0 0 0 1 0.3241142 0 0.946018 34.299995 0 1 0 0 -0.946018 0 0.3241142 0 0 0 0 1 0.32773954 0 0.94476813 34.299995 0 1 0 0 -0.94476813 0 0.32773954 0 0 0 0 1 0.3327427 0 0.94301766 34.299995 0 1 0 0 -0.94301766 0 0.3327427 0 0 0 0 1 0.3327427 0 0.94301766 34.299995 0 1 0 0 -0.94301766 0 0.3327427 0 0 0 0 1</float_array>
        <technique_common>
          <accessor source="#Motion_1_LLeg_transform_pose_array_id" count="21" stride="16">
            <param name="TRANSFORM" type="float4x4" />
          </accessor>
        </technique_common>
      </source>
      <sampler id="Motion_1_LLeg_transform_samp_id">
        <input semantic="INPUT" source="#Motion_1_LLeg_transform_frame_id" />
        <input semantic="INTERPOLATION" source="#Motion_1_LLeg_transform_interp_id" />
        <input semantic="OUTPUT" source="#Motion_1_LLeg_transform_pose_id" />
      </sampler>
      <channel source="#Motion_1_LLeg_transform_samp_id" target="LLeg_bone_id/transform" />
    </animation>
    <animation id="Motion_1_LFoot_transform_id" name="Motion_1_LFoot_transform">
      <source id="Motion_1_LFoot_transform_frame_id" name="Motion_1_LFoot_transform_frame">
        <float_array id="Motion_1_LFoot_transform_frame_array_id" count="21">0 0.033333335 0.06666667 0.1 0.13333334 0.16666667 0.2 0.23333333 0.26666668 0.3 0.33333334 0.36666667 0.4 0.43333334 0.46666667 0.5 0.53333336 0.56666666 0.6 0.6333333 0.6666667</float_array>
        <technique_common>
          <accessor source="#Motion_1_LFoot_transform_frame_array_id" count="21" stride="1">
            <param name="TIME" type="float" />
          </accessor>
        </technique_common>
      </source>
      <source id="Motion_1_LFoot_transform_interp_id" name="Motion_1_LFoot_transform_interp">
        <Name_array id="Motion_1_LFoot_transform_interp_array_id" count="21">LINEAR LINEAR LINEAR LINEAR LINEAR LINEAR LINEAR LINEAR LINEAR LINEAR LINEAR LINEAR LINEAR LINEAR LINEAR LINEAR LINEAR LINEAR LINEAR LINEAR LINEAR</Name_array>
        <technique_common>
          <accessor source="#Motion_1_LFoot_transform_interp_array_id" count="21" stride="1">
            <param name="INTERPOLATION" type="Name" />
          </accessor>
        </technique_common>
      </source>
      <source id="Motion_1_LFoot_transform_pose_id" name="Motion_1_LFoot_transform_pose">
        <float_array id="Motion_1_LFoot_transform_pose_array_id" count="336">-0.21172202 0.152083 -0.96542466 34.3 -0.10790153 0.97814226 0.1777497 0 0.9713553 0.14180428 -0.1906842 0 0 0 0 1 -0.20858932 0.1488384 -0.96661156 34.3 -0.11026031 0.97847176 0.17445819 0 0.9717682 0.14296897 -0.18768787 0 0 0 0 1 -0.20592475 0.14206384 -0.96820074 34.3 -0.11869752 0.9784742 0.16881679 0 0.97134227 0.14968659 -0.18462944 0 0 0 0 1 -0.2047764 0.13492689 -0.9694645 34.3 -0.13168478 0.97765124 0.16388159 0 0.9699102 0.1612228 -0.18243217 0 0 0 0 1 -0.20561695 0.12928283 -0.97005546 34.3 -0.14396194 0.976456 0.16065061 0 0.96798587 0.17268357 -0.18216407 0 0 0 0 1 -0.20822251 0.12661396 -0.9698515 34.3 -0.14992322 0.97573584 0.15956995 0 0.9665227 0.17862937 -0.18418777 0 0 0 0 1 -0.21142137 0.12859316 -0.96889883 34.3 -0.1462216 0.97598976 0.16144098 0 0.96639556 0.175806 -0.18754208 0 0 0 0 1 -0.2144742 0.1342436 -0.9674603 34.3 -0.13585 0.9767823 0.16565342 0 0.96723604 0.16695787 -0.19125772 0 0 0 0 1 -0.21659994 0.14121687 -0.96599287 34.3 -0.122867264 0.9776718 0.17047414 0 0.9684978 0.1556136 -0.19441271 0 0 0 0 1 -0.21704996 0.1471397 -0.9650074 34.3 -0.111356646 0.9783889 0.17422646 0 0.9697882 0.14527583 -0.19597435 0 0 0 0 1 -0.21510828 0.14963043 -0.9650593 34.3 -0.10542074 0.9788603 0.17526816 0 0.9708837 0.13943885 -0.19478679 0 0 0 0 1 -0.21090567 0.14704375 -0.9663833 34.3 -0.108262256 0.9790252 0.17259473 0 0.9714926 0.14102408 -0.19056273 0 0 0 0 1 -0.20653999 0.14187823 -0.96809703 34.3 -0.11861016 0.9785035 0.16870838 0 0.97122234 0.14967117 -0.18527186 0 0 0 0 1 -0.20390809 0.13641384 -0.96943927 34.3 -0.13231987 0.9773175 0.16535407 0 0.9700066 0.16199315 -0.18123269 0 0 0 0 1 -0.20392704 0.1316728 -0.97009075 34.3 -0.14502046 0.97591835 0.16294919 0 0.9681853 0.17391275 -0.17992091 0 0 0 0 1 -0.20562196 0.12975498 -0.9699914 34.3 -0.1516834 0.9749674 0.16257498 0 0.9668049 0.18056059 -0.18079305 0 0 0 0 1 -0.20802963 0.13273509 -0.96907425 34.3 -0.14859794 0.97496057 0.16544063 0 0.966769 0.17841901 -0.18309653 0 0 0 0 1 -0.21052086 0.13893898 -0.96766573 34.3 -0.13868983 0.9755922 0.17024979 0 0.9677015 0.17004654 -0.18611312 0 0 0 0 1 -0.21250296 0.14580348 -0.96622145 34.3 -0.12600335 0.9764614 0.17506087 0 0.9690025 0.1589481 -0.18912911 0 0 0 0 1 -0.21286285 0.15080665 -0.9653739 34.3 -0.114668444 0.97733396 0.17795916 0 0.9703301 0.14857881 -0.19074535 0 0 0 0 1 -0.21286285 0.15080665 -0.9653739 34.3 -0.114668444 0.97733396 0.17795916 0 0.9703301 0.14857881 -0.19074535 0 0 0 0 1</float_array>
        <technique_common>
          <accessor source="#Motion_1_LFoot_transform_pose_array_id" count="21" stride="16">
            <param name="TRANSFORM" type="float4x4" />
          </accessor>
        </technique_common>
      </source>
      <sampler id="Motion_1_LFoot_transform_samp_id">
        <input semantic="INPUT" source="#Motion_1_LFoot_transform_frame_id" />
        <input semantic="INTERPOLATION" source="#Motion_1_LFoot_transform_interp_id" />
        <input semantic="OUTPUT" source="#Motion_1_LFoot_transform_pose_id" />
      </sampler>
      <channel source="#Motion_1_LFoot_transform_samp_id" target="LFoot_bone_id/transform" />
    </animation>
    <animation id="Motion_1_RThigh_transform_id" name="Motion_1_RThigh_transform">
      <source id="Motion_1_RThigh_transform_frame_id" name="Motion_1_RThigh_transform_frame">
        <float_array id="Motion_1_RThigh_transform_frame_array_id" count="21">0 0.033333335 0.06666667 0.1 0.13333334 0.16666667 0.2 0.23333333 0.26666668 0.3 0.33333334 0.36666667 0.4 0.43333334 0.46666667 0.5 0.53333336 0.56666666 0.6 0.6333333 0.6666667</float_array>
        <technique_common>
          <accessor source="#Motion_1_RThigh_transform_frame_array_id" count="21" stride="1">
            <param name="TIME" type="float" />
          </accessor>
        </technique_common>
      </source>
      <source id="Motion_1_RThigh_transform_interp_id" name="Motion_1_RThigh_transform_interp">
        <Name_array id="Motion_1_RThigh_transform_interp_array_id" count="21">LINEAR LINEAR LINEAR LINEAR LINEAR LINEAR LINEAR LINEAR LINEAR LINEAR LINEAR LINEAR LINEAR LINEAR LINEAR LINEAR LINEAR LINEAR LINEAR LINEAR LINEAR</Name_array>
        <technique_common>
          <accessor source="#Motion_1_RThigh_transform_interp_array_id" count="21" stride="1">
            <param name="INTERPOLATION" type="Name" />
          </accessor>
        </technique_common>
      </source>
      <source id="Motion_1_RThigh_transform_pose_id" name="Motion_1_RThigh_transform_pose">
        <float_array id="Motion_1_RThigh_transform_pose_array_id" count="336">0.09610546 0.48158336 -0.8711149 11.299995 -0.44029868 0.80545586 0.39670888 -7.8 0.892693 0.34542486 0.28944921 0 0 0 0 1 0.10578483 0.48098284 -0.8703247 11.299995 -0.44297343 0.80638826 0.39180672 -7.8 0.89027196 0.3440835 0.29836625 0 0 0 0 1 0.120536566 0.48129433 -0.868232 11.299995 -0.44815534 0.8067941 0.38501957 -7.8 0.88579226 0.34269384 0.3129428 0 0 0 0 1 0.12944531 0.48117128 -0.86701673 11.299995 -0.45343688 0.8063219 0.37978926 -7.8 0.88183826 0.34397545 0.32255548 0 0 0 0 1 0.13323289 0.48153463 -0.8662409 11.299995 -0.45816198 0.8049586 0.3770004 -7.8 0.8788268 0.34664983 0.3278678 0 0 0 0 1 0.13415653 0.4823824 -0.8656265 11.299995 -0.46133003 0.8034941 0.37626037 -7.8 0.8770271 0.34886172 0.33033144 0 0 0 0 1 0.12822133 0.48268917 -0.8663547 11.299995 -0.46081844 0.80253285 0.37892926 -7.8 0.8781831 0.35064542 0.32533395 0 0 0 0 1 0.11793989 0.48305905 -0.86760825 11.299995 -0.45701802 0.80208045 0.38444954 -7.8 0.8816034 0.35117072 0.315364 0 0 0 0 1 0.10696447 0.4835314 -0.868767 11.299995 -0.45179036 0.8019998 0.39074522 -7.8 0.88568854 0.35070467 0.3042403 0 0 0 0 1 0.099165976 0.48383448 -0.869523 11.299995 -0.44693437 0.80238676 0.39550617 -7.8 0.8890533 0.349399 0.2958117 0 0 0 0 1 0.09843618 0.48367867 -0.86969256 11.299995 -0.44430718 0.8033563 0.3964969 -7.8 0.8904501 0.34738106 0.29398125 0 0 0 0 1 0.1071955 0.48300475 -0.86903137 11.299995 -0.44519162 0.80486405 0.3924261 -7.8 0.8889958 0.34481916 0.30130744 0 0 0 0 1 0.12093949 0.48228213 -0.8676275 11.299995 -0.44871256 0.80620915 0.3855954 -7.8 0.885455 0.34268168 0.31390864 0 0 0 0 1 0.12927115 0.48104602 -0.8671123 11.299995 -0.45249283 0.80671483 0.3800808 -7.8 0.88234866 0.3432286 0.32195485 0 0 0 0 1 0.13239413 0.4802908 -0.8670597 11.299995 -0.45589545 0.80624783 0.37699312 -7.8 0.88013136 0.3453769 0.32570487 0 0 0 0 1 0.13223183 0.48025796 -0.8671027 11.299995 -0.45755145 0.8055827 0.37640828 -7.8 0.879296 0.34697092 0.3262664 0 0 0 0 1 0.12541205 0.480288 -0.8680987 11.299995 -0.4555358 0.80519235 0.37967405 -7.8 0.8813394 0.34783432 0.3197692 0 0 0 0 1 0.11451864 0.48035088 -0.86956817 11.299995 -0.4508961 0.8051032 0.3853591 -7.8 0.8851996 0.34795403 0.30878758 0 0 0 0 1 0.10348034 0.4805838 -0.870822 11.299995 -0.44560087 0.8051437 0.3913866 -7.8 0.8892309 0.34753826 0.2974651 0 0 0 0 1 0.09635222 0.4810099 -0.8714044 11.299995 -0.44158787 0.8052602 0.3956718 -7.8 0.8920293 0.3466778 0.28999674 0 0 0 0 1 0.09635222 0.4810099 -0.8714044 11.299995 -0.44158787 0.8052602 0.3956718 -7.8 0.8920293 0.3466778 0.28999674 0 0 0 0 1</float_array>
        <technique_common>
          <accessor source="#Motion_1_RThigh_transform_pose_array_id" count="21" stride="16">
            <param name="TRANSFORM" type="float4x4" />
          </accessor>
        </technique_common>
      </source>
      <sampler id="Motion_1_RThigh_transform_samp_id">
        <input semantic="INPUT" source="#Motion_1_RThigh_transform_frame_id" />
        <input semantic="INTERPOLATION" source="#Motion_1_RThigh_transform_interp_id" />
        <input semantic="OUTPUT" source="#Motion_1_RThigh_transform_pose_id" />
      </sampler>
      <channel source="#Motion_1_RThigh_transform_samp_id" target="RThigh_bone_id/transform" />
    </animation>
    <animation id="Motion_1_RLeg_transform_id" name="Motion_1_RLeg_transform">
      <source id="Motion_1_RLeg_transform_frame_id" name="Motion_1_RLeg_transform_frame">
        <float_array id="Motion_1_RLeg_transform_frame_array_id" count="21">0 0.033333335 0.06666667 0.1 0.13333334 0.16666667 0.2 0.23333333 0.26666668 0.3 0.33333334 0.36666667 0.4 0.43333334 0.46666667 0.5 0.53333336 0.56666666 0.6 0.6333333 0.6666667</float_array>
        <technique_common>
          <accessor source="#Motion_1_RLeg_transform_frame_array_id" count="21" stride="1">
            <param name="TIME" type="float" />
          </accessor>
        </technique_common>
      </source>
      <source id="Motion_1_RLeg_transform_interp_id" name="Motion_1_RLeg_transform_interp">
        <Name_array id="Motion_1_RLeg_transform_interp_array_id" count="21">LINEAR LINEAR LINEAR LINEAR LINEAR LINEAR LINEAR LINEAR LINEAR LINEAR LINEAR LINEAR LINEAR LINEAR LINEAR LINEAR LINEAR LINEAR LINEAR LINEAR LINEAR</Name_array>
        <technique_common>
          <accessor source="#Motion_1_RLeg_transform_interp_array_id" count="21" stride="1">
            <param name="INTERPOLATION" type="Name" />
          </accessor>
        </technique_common>
      </source>
      <source id="Motion_1_RLeg_transform_pose_id" name="Motion_1_RLeg_transform_pose">
        <float_array id="Motion_1_RLeg_transform_pose_array_id" count="336">0.3449458 0 0.9386226 34.3 0 1 0 0 -0.9386226 0 0.3449458 0 0 0 0 1 0.3528856 0 0.9356665 34.3 0 1 0 0 -0.9356665 0 0.3528856 0 0 0 0 1 0.35731184 0 0.9339851 34.3 0 1 0 0 -0.9339851 0 0.35731184 0 0 0 0 1 0.35204744 0 0.93598217 34.3 0 1 0 0 -0.93598217 0 0.35204744 0 0 0 0 1 0.34305942 0 0.9393137 34.3 0 1 0 0 -0.9393137 0 0.34305942 0 0 0 0 1 0.33802915 0 0.9411357 34.3 0 1 0 0 -0.9411357 0 0.33802915 0 0 0 0 1 0.33678186 0 0.9415827 34.3 0 1 0 0 -0.9415827 0 0.33678186 0 0 0 0 1 0.33845842 0 0.9409813 34.3 0 1 0 0 -0.9409813 0 0.33845842 0 0 0 0 1 0.3421898 0 0.9396308 34.3 0 1 0 0 -0.9396308 0 0.3421898 0 0 0 0 1 0.34710544 0 0.93782616 34.3 0 1 0 0 -0.93782616 0 0.34710544 0 0 0 0 1 0.3523391 0 0.9358724 34.3 0 1 0 0 -0.9358724 0 0.3523391 0 0 0 0 1 0.35753065 0 0.93390137 34.3 0 1 0 0 -0.93390137 0 0.35753065 0 0 0 0 1 0.35884386 0 0.9333976 34.3 0 1 0 0 -0.9333976 0 0.35884386 0 0 0 0 1 0.35088724 0 0.9364177 34.3 0 1 0 0 -0.9364177 0 0.35088724 0 0 0 0 1 0.3391837 0 0.9407202 34.3 0 1 0 0 -0.9407202 0 0.3391837 0 0 0 0 1 0.3313988 0 0.94349074 34.3 0 1 0 0 -0.94349074 0 0.3313988 0 0 0 0 1 0.32790828 0 0.9447096 34.3 0 1 0 0 -0.9447096 0 0.32790828 0 0 0 0 1 0.32813144 0 0.944632 34.3 0 1 0 0 -0.944632 0 0.32813144 0 0 0 0 1 0.3314703 0 0.94346565 34.3 0 1 0 0 -0.94346565 0 0.3314703 0 0 0 0 1 0.33731818 0 0.9413907 34.3 0 1 0 0 -0.9413907 0 0.33731818 0 0 0 0 1 0.33731818 0 0.9413907 34.3 0 1 0 0 -0.9413907 0 0.33731818 0 0 0 0 1</float_array>
        <technique_common>
          <accessor source="#Motion_1_RLeg_transform_pose_array_id" count="21" stride="16">
            <param name="TRANSFORM" type="float4x4" />
          </accessor>
        </technique_common>
      </source>
      <sampler id="Motion_1_RLeg_transform_samp_id">
        <input semantic="INPUT" source="#Motion_1_RLeg_transform_frame_id" />
        <input semantic="INTERPOLATION" source="#Motion_1_RLeg_transform_interp_id" />
        <input semantic="OUTPUT" source="#Motion_1_RLeg_transform_pose_id" />
      </sampler>
      <channel source="#Motion_1_RLeg_transform_samp_id" target="RLeg_bone_id/transform" />
    </animation>
    <animation id="Motion_1_RFoot_transform_id" name="Motion_1_RFoot_transform">
      <source id="Motion_1_RFoot_transform_frame_id" name="Motion_1_RFoot_transform_frame">
        <float_array id="Motion_1_RFoot_transform_frame_array_id" count="21">0 0.033333335 0.06666667 0.1 0.13333334 0.16666667 0.2 0.23333333 0.26666668 0.3 0.33333334 0.36666667 0.4 0.43333334 0.46666667 0.5 0.53333336 0.56666666 0.6 0.6333333 0.6666667</float_array>
        <technique_common>
          <accessor source="#Motion_1_RFoot_transform_frame_array_id" count="21" stride="1">
            <param name="TIME" type="float" />
          </accessor>
        </technique_common>
      </source>
      <source id="Motion_1_RFoot_transform_interp_id" name="Motion_1_RFoot_transform_interp">
        <Name_array id="Motion_1_RFoot_transform_interp_array_id" count="21">LINEAR LINEAR LINEAR LINEAR LINEAR LINEAR LINEAR LINEAR LINEAR LINEAR LINEAR LINEAR LINEAR LINEAR LINEAR LINEAR LINEAR LINEAR LINEAR LINEAR LINEAR</Name_array>
        <technique_common>
          <accessor source="#Motion_1_RFoot_transform_interp_array_id" count="21" stride="1">
            <param name="INTERPOLATION" type="Name" />
          </accessor>
        </technique_common>
      </source>
      <source id="Motion_1_RFoot_transform_pose_id" name="Motion_1_RFoot_transform_pose">
        <float_array id="Motion_1_RFoot_transform_pose_array_id" count="336">-0.19601238 -0.19405586 -0.9612083 34.3 0.072499305 0.97467273 -0.21155842 0 0.9779176 -0.11115502 -0.17697906 0 0 0 0 1 -0.19165158 -0.19194835 -0.96250993 34.3 0.07544047 0.97490656 -0.20944199 0 0.9785593 -0.11275211 -0.17236173 0 0 0 0 1 -0.18788052 -0.18643792 -0.96433496 34.3 0.08459626 0.975099 -0.20500079 0 0.978542 -0.12009477 -0.16743016 0 0 0 0 1 -0.18572497 -0.1807497 -0.96583414 34.3 0.09843384 0.9745686 -0.20131263 0 0.97765887 -0.13245958 -0.16320992 0 0 0 0 1 -0.18556261 -0.17659436 -0.96663386 34.3 0.11160044 0.9735661 -0.19928451 0 0.97627455 -0.1448565 -0.16094947 0 0 0 0 1 -0.18719566 -0.17523406 -0.9665665 34.3 0.11833226 0.9727725 -0.19927666 0 0.97516936 -0.15167972 -0.16136289 0 0 0 0 1 -0.18953991 -0.1780852 -0.9655882 34.3 0.115211144 0.9725872 -0.20199136 0 0.9750904 -0.14953189 -0.1638267 0 0 0 0 1 -0.19193721 -0.18409334 -0.9639864 34.3 0.10523246 0.9727256 -0.20671488 0 0.975749 -0.14111896 -0.16732967 0 0 0 0 1 -0.1937238 -0.19093874 -0.9622959 34.3 0.09240782 0.97296524 -0.21165875 0 0.97669435 -0.12992701 -0.17084229 0 0 0 0 1 -0.19427276 -0.19628544 -0.9611086 34.3 0.08076678 0.9732486 -0.21509045 0 0.9776167 -0.119411916 -0.17322242 0 0 0 0 1 -0.1929897 -0.19778918 -0.9610589 34.3 0.074351355 0.97370833 -0.21532291 0 0.97837967 -0.11301115 -0.17320979 0 0 0 0 1 -0.18995094 -0.19387093 -0.96246177 34.3 0.07627481 0.9744328 -0.21133584 0 0.9788262 -0.11355502 -0.17030704 0 0 0 0 1 -0.18695378 -0.18696958 -0.96441203 34.3 0.08517962 0.9749384 -0.20552263 0 0.97866875 -0.120571524 -0.1663425 0 0 0 0 1 -0.18590093 -0.18031633 -0.96588135 34.3 0.09796325 0.97471756 -0.20082065 0 0.9776727 -0.13195363 -0.16353643 0 0 0 0 1 -0.18752754 -0.17485572 -0.9665707 34.3 0.11024739 0.9740634 -0.19760063 0 0.9760527 -0.14361745 -0.16338623 0 0 0 0 1 -0.19056249 -0.17214982 -0.96646285 34.3 0.11649816 0.97358096 -0.19638826 0 0.974738 -0.15001537 -0.16547287 0 0 0 0 1 -0.19384718 -0.17428315 -0.96542674 34.3 0.11295929 0.9735826 -0.1984365 0 0.9745069 -0.14752024 -0.16903937 0 0 0 0 1 -0.19674361 -0.17997664 -0.9637947 34.3 0.102837145 0.9737975 -0.20283712 0 0.9750469 -0.13902082 -0.17308009 0 0 0 0 1 -0.19857705 -0.18672264 -0.9621339 34.3 0.09014681 0.97404283 -0.20763943 0 0.9759306 -0.12796575 -0.17659009 0 0 0 0 1 -0.19819415 -0.19204037 -0.9611658 34.3 0.07898469 0.9743002 -0.2109514 0 0.9769752 -0.1177267 -0.17793238 0 0 0 0 1 -0.19819415 -0.19204037 -0.9611658 34.3 0.07898469 0.9743002 -0.2109514 0 0.9769752 -0.1177267 -0.17793238 0 0 0 0 1</float_array>
        <technique_common>
          <accessor source="#Motion_1_RFoot_transform_pose_array_id" count="21" stride="16">
            <param name="TRANSFORM" type="float4x4" />
          </accessor>
        </technique_common>
      </source>
      <sampler id="Motion_1_RFoot_transform_samp_id">
        <input semantic="INPUT" source="#Motion_1_RFoot_transform_frame_id" />
        <input semantic="INTERPOLATION" source="#Motion_1_RFoot_transform_interp_id" />
        <input semantic="OUTPUT" source="#Motion_1_RFoot_transform_pose_id" />
      </sampler>
      <channel source="#Motion_1_RFoot_transform_samp_id" target="RFoot_bone_id/transform" />
    </animation>
  </library_animations>
  <library_visual_scenes>
    <visual_scene id="tr0202_00_fi_00_clip_id" name="tr0202_00_fi_00_clip">
      <node id="tr0202_00_fi_bone_id" name="tr0202_00_fi" sid="tr0202_00_fi" type="JOINT">
        <matrix sid="transform">1 0 0 0 0 1 0 0 0 0 1 0 0 0 0 1</matrix>
        <node id="Origin_bone_id" name="Origin" sid="Origin" type="JOINT">
          <matrix sid="transform">1 0 0 0 0 1 0 0 0 0 1 0 0 0 0 1</matrix>
          <node id="Waist_bone_id" name="Waist" sid="Waist" type="JOINT">
            <matrix sid="transform">3.1391647E-07 -1 0 0 1 3.1391647E-07 0 90.6 0 0 1 0 0 0 0 1</matrix>
            <node id="Spine2_bone_id" name="Spine2" sid="Spine2" type="JOINT">
              <matrix sid="transform">1 0 0 13.5 0 1 0 0 0 0 1 0 0 0 0 1</matrix>
              <node id="Spine3_bone_id" name="Spine3" sid="Spine3" type="JOINT">
                <matrix sid="transform">0.99582267 0 0.091308646 13.5 0 1 0 0 -0.091308646 0 0.99582267 0 0 0 0 1</matrix>
                <node id="Neck_bone_id" name="Neck" sid="Neck" type="JOINT">
                  <matrix sid="transform">0.9344343 0 -0.35613555 16.800177 0 1 0 0 0.35613555 0 0.9344343 0 0 0 0 1</matrix>
                  <node id="Head_bone_id" name="Head" sid="Head" type="JOINT">
                    <matrix sid="transform">0.9630491 0 0.2693259 5.120195 0 1 0 0 -0.2693259 0 0.9630491 0 0 0 0 1</matrix>
                    <node id="Loc_Head_bone_id" name="Loc_Head" sid="Loc_Head" type="JOINT">
                      <matrix sid="transform">3.1391647E-07 1 0 33.334972 -1 3.1391647E-07 0 0 0 0 1 0.155 0 0 0 1</matrix>
                    </node>
                    <node id="Loc_Eye_bone_id" name="Loc_Eye" sid="Loc_Eye" type="JOINT">
                      <matrix sid="transform">3.1391647E-07 1 0 10.198341 -1 3.1391647E-07 0 0 0 0 1 13.582737 0 0 0 1</matrix>
                    </node>
                    <node id="Loc_Mouth_bone_id" name="Loc_Mouth" sid="Loc_Mouth" type="JOINT">
                      <matrix sid="transform">3.1391647E-07 1 0 0.474586 -1 3.1391647E-07 0 0 0 0 1 12.860065 0 0 0 1</matrix>
                    </node>
                  </node>
                </node>
                <node id="LShoulder_bone_id" name="LShoulder" sid="LShoulder" type="JOINT">
                  <matrix sid="transform">-0.44190192 0.8924043 -0.09130862 14.18017 -0.89614785 -0.44375566 -2.0772681E-07 -4.5 -0.040518906 0.08182593 0.9958226 -0.240233 0 0 0 1</matrix>
                  <node id="LArm_bone_id" name="LArm" sid="LArm" type="JOINT">
                    <matrix sid="transform">0.8961479 -0.44375545 0 12.61957 0.44375545 0.8961479 0 0 0 0 1 0 0 0 0 1</matrix>
                    <node id="LForeArm_bone_id" name="LForeArm" sid="LForeArm" type="JOINT">
                      <matrix sid="transform">1 0 0 22.6 0 1 0 0 0 0 1 0 0 0 0 1</matrix>
                      <node id="LHand_bone_id" name="LHand" sid="LHand" type="JOINT">
                        <matrix sid="transform">1 0 0 22.600002 0 1 0 0 0 0 1 0 0 0 0 1</matrix>
                      </node>
                    </node>
                  </node>
                </node>
                <node id="RShoulder_bone_id" name="RShoulder" sid="RShoulder" type="JOINT">
                  <matrix sid="transform">-0.44190192 -0.8924043 -0.09130862 14.18017 0.89614785 -0.44375566 2.0772681E-07 4.5 -0.040518906 -0.08182593 0.9958226 -0.240233 0 0 0 1</matrix>
                  <node id="RArm_bone_id" name="RArm" sid="RArm" type="JOINT">
                    <matrix sid="transform">0.8961479 0.44375545 0 12.61957 -0.44375545 0.8961479 0 0 0 0 1 0 0 0 0 1</matrix>
                    <node id="RForeArm_bone_id" name="RForeArm" sid="RForeArm" type="JOINT">
                      <matrix sid="transform">1 0 0 22.6 0 1 0 0 0 0 1 0 0 0 0 1</matrix>
                      <node id="RHand_bone_id" name="RHand" sid="RHand" type="JOINT">
                        <matrix sid="transform">1 0 0 22.600002 0 1 0 0 0 0 1 0 0 0 0 1</matrix>
                      </node>
                    </node>
                  </node>
                </node>
              </node>
            </node>
            <node id="Hips_bone_id" name="Hips" sid="Hips" type="JOINT">
              <matrix sid="transform">-1 -3.2584137E-07 0 -0.010002 3.2584137E-07 -1 0 0 0 0 1 0 0 0 0 1</matrix>
              <node id="LThigh_bone_id" name="LThigh" sid="LThigh" type="JOINT">
                <matrix sid="transform">1 0 0 11.300003 0 1 0 7.8 0 0 1 0 0 0 0 1</matrix>
                <node id="LLeg_bone_id" name="LLeg" sid="LLeg" type="JOINT">
                  <matrix sid="transform">1 0 0 34.299995 0 1 0 0 0 0 1 0 0 0 0 1</matrix>
                  <node id="LFoot_bone_id" name="LFoot" sid="LFoot" type="JOINT">
                    <matrix sid="transform">3.1391647E-07 0 -1 34.3 0 1 0 0 1 0 3.1391647E-07 0 0 0 0 1</matrix>
                  </node>
                </node>
              </node>
              <node id="RThigh_bone_id" name="RThigh" sid="RThigh" type="JOINT">
                <matrix sid="transform">1 0 0 11.299995 0 1 0 -7.8 0 0 1 0 0 0 0 1</matrix>
                <node id="RLeg_bone_id" name="RLeg" sid="RLeg" type="JOINT">
                  <matrix sid="transform">1 0 0 34.3 0 1 0 0 0 0 1 0 0 0 0 1</matrix>
                  <node id="RFoot_bone_id" name="RFoot" sid="RFoot" type="JOINT">
                    <matrix sid="transform">3.1391647E-07 0 -1 34.3 0 1 0 0 1 0 3.1391647E-07 0 0 0 0 1</matrix>
                  </node>
                </node>
              </node>
            </node>
          </node>
          <node id="CamTgtHead_bone_id" name="CamTgtHead" sid="CamTgtHead" type="JOINT">
            <matrix sid="transform">1 0 0 0 0 1 0 149.45934 0 0 1 0 0 0 0 1</matrix>
          </node>
          <node id="CamTgtBust_bone_id" name="CamTgtBust" sid="CamTgtBust" type="JOINT">
            <matrix sid="transform">1 0 0 0 0 1 0 117.6 0 0 1 0 0 0 0 1</matrix>
          </node>
          <node id="CamTgtBody_bone_id" name="CamTgtBody" sid="CamTgtBody" type="JOINT">
            <matrix sid="transform">1 0 0 0 0 1 0 90.6 0 0 1 0 0 0 0 1</matrix>
          </node>
          <node id="CamTgtFoot_bone_id" name="CamTgtFoot" sid="CamTgtFoot" type="JOINT">
            <matrix sid="transform">1 0 0 0 0 1 0 0 0 0 1 0 0 0 0 1</matrix>
          </node>
        </node>
        <node id="tr0202_00_fi_FaceSkin_bone_id" name="tr0202_00_fi_FaceSkin" sid="tr0202_00_fi_FaceSkin" type="JOINT">
          <matrix sid="transform">1 0 0 0 0 1 0 0 0 0 1 0 0 0 0 1</matrix>
        </node>
        <node id="tr0202_00_fi_BodySkin_bone_id" name="tr0202_00_fi_BodySkin" sid="tr0202_00_fi_BodySkin" type="JOINT">
          <matrix sid="transform">1 0 0 0 0 1 0 0 0 0 1 0 0 0 0 1</matrix>
        </node>
        <node id="tr0202_00_fi_BotSkin_bone_id" name="tr0202_00_fi_BotSkin" sid="tr0202_00_fi_BotSkin" type="JOINT">
          <matrix sid="transform">1 0 0 0 0 1 0 0 0 0 1 0 0 0 0 1</matrix>
        </node>
        <node id="tr0202_00_fi_HeadSkin_bone_id" name="tr0202_00_fi_HeadSkin" sid="tr0202_00_fi_HeadSkin" type="JOINT">
          <matrix sid="transform">1 0 0 0 0 1 0 0 0 0 1 0 0 0 0 1</matrix>
        </node>
        <node id="tr0202_00_fi_HelmetSkin_bone_id" name="tr0202_00_fi_HelmetSkin" sid="tr0202_00_fi_HelmetSkin" type="JOINT">
          <matrix sid="transform">1 0 0 0 0 1 0 0 0 0 1 0 0 0 0 1</matrix>
        </node>
      </node>
    </visual_scene>
  </library_visual_scenes>
  <scene>
    <instance_visual_scene url="#tr0202_00_fi_00_clip_id" />
  </scene>
</COLLADA>