<?xml version="1.0" encoding="utf-8"?>
<COLLADA xmlns:xsi="http://www.w3.org/2001/XMLSchema-instance" xmlns:xsd="http://www.w3.org/2001/XMLSchema" version="1.4.1" xmlns="http://www.collada.org/2005/11/COLLADASchema">
  <asset>
    <created>2026-02-17T05:46:44.467322-05:00</created>
    <modified>2026-02-17T05:46:44.4673225-05:00</modified>
    <up_axis>Y_UP</up_axis>
  </asset>
  <library_animations>
    <animation id="Motion_2_Waist_transform_id" name="Motion_2_Waist_transform">
      <source id="Motion_2_Waist_transform_frame_id" name="Motion_2_Waist_transform_frame">
        <float_array id="Motion_2_Waist_transform_frame_array_id" count="21">0 0.033333335 0.06666667 0.1 0.13333334 0.16666667 0.2 0.23333333 0.26666668 0.3 0.33333334 0.36666667 0.4 0.43333334 0.46666667 0.5 0.53333336 0.56666666 0.6 0.6333333 0.6666667</float_array>
        <technique_common>
          <accessor source="#Motion_2_Waist_transform_frame_array_id" count="21" stride="1">
            <param name="TIME" type="float" />
          </accessor>
        </technique_common>
      </source>
      <source id="Motion_2_Waist_transform_interp_id" name="Motion_2_Waist_transform_interp">
        <Name_array id="Motion_2_Waist_transform_interp_array_id" count="21">LINEAR LINEAR LINEAR LINEAR LINEAR LINEAR LINEAR LINEAR LINEAR LINEAR LINEAR LINEAR LINEAR LINEAR LINEAR LINEAR LINEAR LINEAR LINEAR LINEAR LINEAR</Name_array>
        <technique_common>
          <accessor source="#Motion_2_Waist_transform_interp_array_id" count="21" stride="1">
            <param name="INTERPOLATION" type="Name" />
          </accessor>
        </technique_common>
      </source>
      <source id="Motion_2_Waist_transform_pose_id" name="Motion_2_Waist_transform_pose">
        <float_array id="Motion_2_Waist_transform_pose_array_id" count="336">0.054422677 -0.9913664 0.11929302 -4.14307 0.9754454 0.02725023 -0.21854916 79.719696 0.21341152 0.12825784 0.9685068 8.087693 0 0 0 1 0.0690757 -0.9974626 0.017231964 -3.911184 0.9681553 0.062859654 -0.2423301 81.28002 0.24063203 0.033422314 0.9700408 6.797159 0 0 0 1 0.07059997 -0.99326557 -0.091864295 -3.2926922 0.9545514 0.0940066 -0.28283244 85.89444 0.2895636 -0.06772127 0.9547601 7.709962 0 0 0 1 0.05334854 -0.9837063 -0.1716851 -2.3611531 0.94575304 0.104952216 -0.30746743 87.089676 0.3204764 -0.14596877 0.9359423 13.626227 0 0 0 1 0.0325554 -0.976063 -0.215038 -1.2236831 0.9468961 0.09898156 -0.30592573 89.99832 0.31988758 -0.19365907 0.9274525 17.791939 0 0 0 1 0.0048466325 -0.972716 -0.23194847 0.01260215 0.94939053 0.0773235 -0.30443186 91.07811 0.31406078 -0.21873422 0.9238621 19.280577 0 0 0 1 -0.021894693 -0.97096276 -0.23822598 1.240586 0.956851 0.04870832 -0.2864672 90.53158 0.28975254 -0.23421896 0.9280005 18.7076 0 0 0 1 -0.03553188 -0.9714329 -0.2346396 2.3531532 0.9688307 0.02411437 -0.2465477 87.86147 0.24516274 -0.23608628 0.940297 17.471733 0 0 0 1 -0.033263326 -0.9761815 -0.21439062 3.2700832 0.9779092 0.012503266 -0.20865613 81.328384 0.20636682 -0.21659514 0.95420086 15.301922 0 0 0 1 -0.036695957 -0.9830726 -0.17950365 3.9053214 0.9772344 0.0022594333 -0.21215002 79.17439 0.20896444 -0.18320222 0.9606096 11.125354 0 0 0 1 -0.054420114 -0.9913658 -0.11929916 4.1429996 0.9754466 -0.027247071 -0.21854405 79.719696 0.21340655 -0.12826316 0.96850723 8.087693 0 0 0 1 -0.06969094 -0.9973711 -0.019854255 3.9064047 0.9683236 -0.062850595 -0.24165942 81.28002 0.23977625 -0.036066815 0.970158 6.797159 0 0 0 1 -0.07119405 -0.9933421 0.0905692 3.2687383 0.9552339 -0.09403849 -0.28050837 85.603714 0.28715777 0.066544235 0.9555691 11.891483 0 0 0 1 -0.053758144 -0.9835912 0.17221661 2.339007 0.94695926 -0.104937315 -0.3037375 87.089676 0.31682545 0.14675376 0.9370619 16.0951 0 0 0 1 -0.033807874 -0.9762414 0.21403167 1.2262173 0.9482606 -0.09897721 -0.30167055 89.99832 0.31568763 0.19275895 0.9290777 18.38568 0 0 0 1 -0.0066611767 -0.9731775 0.22995885 0.012723923 0.95064706 -0.07749987 -0.30043924 91.07811 0.31020254 0.2166084 0.9256647 19.280577 0 0 0 1 0.020101368 -0.97158253 0.23584601 -1.2181786 0.9580525 -0.04873407 -0.2824189 90.53158 0.28588703 0.23162985 0.9298474 18.7076 0 0 0 1 0.035380244 -0.9715876 0.23402086 -2.3560748 0.9688187 -0.024116397 -0.2465943 87.86147 0.24523172 0.23544835 0.940439 17.471733 0 0 0 1 0.03408456 -0.9758478 0.21577647 -3.2905486 0.9774274 -0.012494206 -0.2109019 81.328384 0.20850408 0.21809436 0.9533944 15.301922 0 0 0 1 0.036978662 -0.982723 0.18135102 -3.911184 0.97737217 -0.0022554398 -0.21151501 79.16299 0.20826967 0.185069 0.9604026 11.125354 0 0 0 1 0.036978662 -0.982723 0.18135102 -3.911184 0.97737217 -0.0022554398 -0.21151501 79.16299 0.20826967 0.185069 0.9604026 11.125354 0 0 0 1</float_array>
        <technique_common>
          <accessor source="#Motion_2_Waist_transform_pose_array_id" count="21" stride="16">
            <param name="TRANSFORM" type="float4x4" />
          </accessor>
        </technique_common>
      </source>
      <sampler id="Motion_2_Waist_transform_samp_id">
        <input semantic="INPUT" source="#Motion_2_Waist_transform_frame_id" />
        <input semantic="INTERPOLATION" source="#Motion_2_Waist_transform_interp_id" />
        <input semantic="OUTPUT" source="#Motion_2_Waist_transform_pose_id" />
      </sampler>
      <channel source="#Motion_2_Waist_transform_samp_id" target="Waist_bone_id/transform" />
    </animation>
    <animation id="Motion_2_Spine2_transform_id" name="Motion_2_Spine2_transform">
      <source id="Motion_2_Spine2_transform_frame_id" name="Motion_2_Spine2_transform_frame">
        <float_array id="Motion_2_Spine2_transform_frame_array_id" count="21">0 0.033333335 0.06666667 0.1 0.13333334 0.16666667 0.2 0.23333333 0.26666668 0.3 0.33333334 0.36666667 0.4 0.43333334 0.46666667 0.5 0.53333336 0.56666666 0.6 0.6333333 0.6666667</float_array>
        <technique_common>
          <accessor source="#Motion_2_Spine2_transform_frame_array_id" count="21" stride="1">
            <param name="TIME" type="float" />
          </accessor>
        </technique_common>
      </source>
      <source id="Motion_2_Spine2_transform_interp_id" name="Motion_2_Spine2_transform_interp">
        <Name_array id="Motion_2_Spine2_transform_interp_array_id" count="21">LINEAR LINEAR LINEAR LINEAR LINEAR LINEAR LINEAR LINEAR LINEAR LINEAR LINEAR LINEAR LINEAR LINEAR LINEAR LINEAR LINEAR LINEAR LINEAR LINEAR LINEAR</Name_array>
        <technique_common>
          <accessor source="#Motion_2_Spine2_transform_interp_array_id" count="21" stride="1">
            <param name="INTERPOLATION" type="Name" />
          </accessor>
        </technique_common>
      </source>
      <source id="Motion_2_Spine2_transform_pose_id" name="Motion_2_Spine2_transform_pose">
        <float_array id="Motion_2_Spine2_transform_pose_array_id" count="336">0.9830972 -0.0067876372 -0.1829586 13.5 0.039737456 0.9834013 0.17703901 0 0.17872006 -0.18131687 0.96704876 0 0 0 0 1 0.9916243 -0.021464163 -0.12736006 13.5 0.03277997 0.9956312 0.087429464 0 0.12492706 -0.090872034 0.9879957 0 0 0 0 1 0.9974309 -0.02950237 -0.065277286 13.5 0.02731435 0.999043 -0.034161318 0 0.06622266 0.03229055 0.99728227 0 0 0 0 1 0.99965507 -0.02388263 -0.010926008 13.5 0.022031153 0.9890177 -0.14614588 0 0.014296364 0.14585477 0.98920274 0 0 0 0 1 0.9997562 -0.006135119 0.021210404 13.5 0.010739779 0.97444665 -0.22436228 0 -0.019291917 0.22453538 0.97427493 0 0 0 0 1 0.99975824 0.010002386 0.019580282 13.5 -0.0045201364 0.965011 -0.26217034 0 -0.021517519 0.26201847 0.96482295 0 0 0 0 1 0.9991053 0.020457778 -0.037014928 13.5 -0.030045304 0.9593 -0.28078607 0 0.029764159 0.281647 0.9590563 0 0 0 0 1 0.9939705 0.012298497 -0.10895583 13.5 -0.042754803 0.9585064 -0.28184652 0 0.10096857 0.28480554 0.9532529 0 0 0 0 1 0.981936 -0.029604698 -0.18688309 13.5 -0.023125058 0.9615029 -0.27382 0 0.18779498 0.27319542 0.9434497 0 0 0 0 1 0.9792805 -0.037438918 -0.19901778 13.5 -0.012234642 0.9700288 -0.24268171 0 0.2021387 0.24008837 0.94947225 0 0 0 0 1 0.9833424 0.00017733127 -0.18176267 13.5 -0.03199543 0.98455346 -0.17213586 0 0.17892453 0.17508405 0.96815884 0 0 0 0 1 0.98968494 0.05183494 -0.13355485 13.5 -0.061252885 0.99584407 -0.067399554 0 0.12950614 0.07488494 0.9887469 0 0 0 0 1 0.99432623 0.077265605 -0.073111795 13.5 -0.07390921 0.9961305 0.047553994 0 0.07650318 -0.041880548 0.99618936 0 0 0 0 1 0.9982225 0.05875151 -0.010008756 13.5 -0.056390144 0.9854335 0.16043968 0 0.01928904 -0.15959011 0.9869949 0 0 0 0 1 0.9987025 0.03618548 0.035830487 13.5 -0.043419227 0.9727251 0.22786099 0 -0.026607953 -0.22912109 0.9730342 0 0 0 0 1 0.99928886 0.017984165 0.033140946 13.5 -0.025879888 0.9663419 0.2559562 0 -0.027422324 -0.25663188 0.9661201 0 0 0 0 1 0.99991614 0.0043817186 -0.012189114 13.5 -0.0009610773 0.963548 0.26753378 0 0.012917054 -0.26749963 0.96347135 0 0 0 0 1 0.99737847 -0.0008251965 -0.07235647 13.5 0.020070171 0.963858 0.2656595 0 0.069522135 -0.2664153 0.96134776 0 0 0 0 1 0.9864059 0.027700897 -0.16197547 13.5 0.014861661 0.9666117 0.25581428 0 0.16365367 -0.25474396 0.9530598 0 0 0 0 1 0.9796521 0.016931424 -0.19998758 13.5 0.028958471 0.97408444 0.22432324 0 0.1986029 -0.22555009 0.95377356 0 0 0 0 1 0.9796521 0.016931424 -0.19998758 13.5 0.028958471 0.97408444 0.22432324 0 0.1986029 -0.22555009 0.95377356 0 0 0 0 1</float_array>
        <technique_common>
          <accessor source="#Motion_2_Spine2_transform_pose_array_id" count="21" stride="16">
            <param name="TRANSFORM" type="float4x4" />
          </accessor>
        </technique_common>
      </source>
      <sampler id="Motion_2_Spine2_transform_samp_id">
        <input semantic="INPUT" source="#Motion_2_Spine2_transform_frame_id" />
        <input semantic="INTERPOLATION" source="#Motion_2_Spine2_transform_interp_id" />
        <input semantic="OUTPUT" source="#Motion_2_Spine2_transform_pose_id" />
      </sampler>
      <channel source="#Motion_2_Spine2_transform_samp_id" target="Spine2_bone_id/transform" />
    </animation>
    <animation id="Motion_2_Spine3_transform_id" name="Motion_2_Spine3_transform">
      <source id="Motion_2_Spine3_transform_frame_id" name="Motion_2_Spine3_transform_frame">
        <float_array id="Motion_2_Spine3_transform_frame_array_id" count="21">0 0.033333335 0.06666667 0.1 0.13333334 0.16666667 0.2 0.23333333 0.26666668 0.3 0.33333334 0.36666667 0.4 0.43333334 0.46666667 0.5 0.53333336 0.56666666 0.6 0.6333333 0.6666667</float_array>
        <technique_common>
          <accessor source="#Motion_2_Spine3_transform_frame_array_id" count="21" stride="1">
            <param name="TIME" type="float" />
          </accessor>
        </technique_common>
      </source>
      <source id="Motion_2_Spine3_transform_interp_id" name="Motion_2_Spine3_transform_interp">
        <Name_array id="Motion_2_Spine3_transform_interp_array_id" count="21">LINEAR LINEAR LINEAR LINEAR LINEAR LINEAR LINEAR LINEAR LINEAR LINEAR LINEAR LINEAR LINEAR LINEAR LINEAR LINEAR LINEAR LINEAR LINEAR LINEAR LINEAR</Name_array>
        <technique_common>
          <accessor source="#Motion_2_Spine3_transform_interp_array_id" count="21" stride="1">
            <param name="INTERPOLATION" type="Name" />
          </accessor>
        </technique_common>
      </source>
      <source id="Motion_2_Spine3_transform_pose_id" name="Motion_2_Spine3_transform_pose">
        <float_array id="Motion_2_Spine3_transform_pose_array_id" count="336">0.9750456 -0.16427663 -0.14932911 13.5 0.18382004 0.97457343 0.1281283 0 0.12448369 -0.15238063 0.98045087 0 0 0 0 1 0.9902911 -0.110991694 -0.08369226 13.5 0.11611193 0.99148184 0.05900614 0 0.076430164 -0.06815092 0.9947431 0 0 0 0 1 0.9992231 -0.03254994 0.02221909 13.5 0.033438057 0.99860585 -0.040844124 0 -0.02085864 0.041555356 0.9989185 0 0 0 0 1 0.99328244 0.046588197 0.10592222 13.5 -0.028659865 0.9858981 -0.16487452 0 -0.11210972 0.16073126 0.9806105 0 0 0 0 1 0.98363805 0.11019239 0.14252666 13.5 -0.07245256 0.966291 -0.2470472 0 -0.16494495 0.2326786 0.9584643 0 0 0 0 1 0.9780558 0.1466057 0.14803252 13.5 -0.10071513 0.9546859 -0.28005588 0 -0.18238235 0.25900114 0.94850147 0 0 0 0 1 0.97839093 0.15938152 0.13171457 13.5 -0.11521678 0.9492187 -0.2927609 0 -0.1716866 0.2712589 0.9470704 0 0 0 0 1 0.9816082 0.15902816 0.10561901 13.5 -0.12326688 0.95043933 -0.28543 0 -0.14577588 0.26716113 0.952562 0 0 0 0 1 0.9870727 0.15676144 0.03336732 13.5 -0.14403215 0.9589312 -0.24434747 0 -0.07030122 0.23638274 0.96911347 0 0 0 0 1 0.9856269 0.14677057 -0.083654135 13.5 -0.16091448 0.9664209 -0.20034266 0 0.0514407 0.21092427 0.97614795 0 0 0 0 1 0.97969335 0.11656401 -0.16313721 13.5 -0.14079303 0.9792404 -0.14582689 0 0.1427524 0.1658342 0.9757668 0 0 0 0 1 0.99322367 0.062354326 -0.09807501 13.5 -0.07044622 0.99419445 -0.08133094 0 0.092434295 0.08768883 0.9918501 0 0 0 0 1 0.99998665 -0.00100622 0.0050732 13.5 0.0008441235 0.9994922 0.031853035 0 -0.0051026754 -0.031848326 0.9994797 0 0 0 0 1 0.99470645 -0.06341296 0.080856994 13.5 0.04627318 0.9790005 0.19853672 0 -0.09174883 -0.19374424 0.97675246 0 0 0 0 1 0.98605406 -0.11881515 0.116534986 13.5 0.08315783 0.95829594 0.27341112 0 -0.14416039 -0.25990734 0.954812 0 0 0 0 1 0.98016626 -0.15522796 0.12320082 13.5 0.11168611 0.9462185 0.3036393 0 -0.1637082 -0.28385717 0.9447882 0 0 0 0 1 0.9789755 -0.17395967 0.10651313 13.5 0.13188902 0.93817747 0.3200443 0 -0.155603 -0.29926762 0.9413961 0 0 0 0 1 0.9773436 -0.18621598 0.10061316 13.5 0.14617349 0.9376185 0.31544393 0 -0.15307747 -0.29359013 0.9435953 0 0 0 0 1 0.9809662 -0.18984663 0.04078718 13.5 0.17271945 0.9490753 0.2634846 0 -0.088731766 -0.25142473 0.96380097 0 0 0 0 1 0.9804496 -0.1847989 -0.067586556 13.5 0.19467318 0.9609996 0.19642314 0 0.028651876 -0.20574027 0.9781871 0 0 0 0 1 0.9804496 -0.1847989 -0.067586556 13.5 0.19467318 0.9609996 0.19642314 0 0.028651876 -0.20574027 0.9781871 0 0 0 0 1</float_array>
        <technique_common>
          <accessor source="#Motion_2_Spine3_transform_pose_array_id" count="21" stride="16">
            <param name="TRANSFORM" type="float4x4" />
          </accessor>
        </technique_common>
      </source>
      <sampler id="Motion_2_Spine3_transform_samp_id">
        <input semantic="INPUT" source="#Motion_2_Spine3_transform_frame_id" />
        <input semantic="INTERPOLATION" source="#Motion_2_Spine3_transform_interp_id" />
        <input semantic="OUTPUT" source="#Motion_2_Spine3_transform_pose_id" />
      </sampler>
      <channel source="#Motion_2_Spine3_transform_samp_id" target="Spine3_bone_id/transform" />
    </animation>
    <animation id="Motion_2_Neck_transform_id" name="Motion_2_Neck_transform">
      <source id="Motion_2_Neck_transform_frame_id" name="Motion_2_Neck_transform_frame">
        <float_array id="Motion_2_Neck_transform_frame_array_id" count="21">0 0.033333335 0.06666667 0.1 0.13333334 0.16666667 0.2 0.23333333 0.26666668 0.3 0.33333334 0.36666667 0.4 0.43333334 0.46666667 0.5 0.53333336 0.56666666 0.6 0.6333333 0.6666667</float_array>
        <technique_common>
          <accessor source="#Motion_2_Neck_transform_frame_array_id" count="21" stride="1">
            <param name="TIME" type="float" />
          </accessor>
        </technique_common>
      </source>
      <source id="Motion_2_Neck_transform_interp_id" name="Motion_2_Neck_transform_interp">
        <Name_array id="Motion_2_Neck_transform_interp_array_id" count="21">LINEAR LINEAR LINEAR LINEAR LINEAR LINEAR LINEAR LINEAR LINEAR LINEAR LINEAR LINEAR LINEAR LINEAR LINEAR LINEAR LINEAR LINEAR LINEAR LINEAR LINEAR</Name_array>
        <technique_common>
          <accessor source="#Motion_2_Neck_transform_interp_array_id" count="21" stride="1">
            <param name="INTERPOLATION" type="Name" />
          </accessor>
        </technique_common>
      </source>
      <source id="Motion_2_Neck_transform_pose_id" name="Motion_2_Neck_transform_pose">
        <float_array id="Motion_2_Neck_transform_pose_array_id" count="336">0.968599 0.1864887 -0.16443211 16.800177 -0.23069875 0.9207215 -0.31472227 0 0.09270403 0.34277394 0.9348326 0 0 0 0 1 0.9445631 0.038197592 -0.32610053 16.800177 -0.11388172 0.96966654 -0.21628158 0 0.30794734 0.24142848 0.9202612 0 0 0 0 1 0.9288328 -0.028445236 -0.36940554 16.800177 0.0311382 0.9995142 0.0013285242 0 0.36918828 -0.012736601 0.92926735 0 0 0 0 1 0.95210004 0.07768596 -0.29575402 16.800177 0.03020434 0.9385683 0.34376925 0 0.30429137 -0.33623576 0.89126444 0 0 0 0 1 0.9685345 0.17019549 -0.18158847 16.800177 -0.039707214 0.8259497 0.5623436 0 0.2456913 -0.53743887 0.8067188 0 0 0 0 1 0.97266895 0.16210918 -0.16623992 16.800177 -0.024752751 0.78425723 0.61994183 0 0.23087314 -0.5988833 0.76683533 0 0 0 0 1 0.98238766 0.114902794 -0.14734918 16.800177 -0.0002626665 0.7894274 0.61384386 0 0.18685386 -0.6029939 0.77555394 0 0 0 0 1 0.9889442 0.0490317 -0.1399475 16.800177 0.03910804 0.8241024 0.56508917 0 0.14303836 -0.56431466 0.81307375 0 0 0 0 1 0.9896257 -0.03979455 -0.13804848 16.800177 0.10166417 0.87291175 0.47716817 0 0.10151546 -0.48625246 0.86790156 0 0 0 0 1 0.9835899 -0.14120455 -0.112304255 16.800177 0.17406563 0.90642744 0.38482523 0 0.047456592 -0.39805853 0.91613173 0 0 0 0 1 0.9718418 -0.16643308 -0.16680394 16.800177 0.20840852 0.9374366 0.2788882 0 0.1099519 -0.30579856 0.9457261 0 0 0 0 1 0.93883115 -0.056187272 -0.33976322 16.800177 0.12341002 0.97596663 0.17960823 0 0.3215059 -0.21055198 0.923202 0 0 0 0 1 0.92146474 0.023684883 -0.38773924 16.800177 -0.023924397 0.9997049 0.0042100567 0 0.38772452 0.0053970087 0.9217595 0 0 0 0 1 0.95301247 -0.011329312 -0.30271906 16.800177 -0.097890705 0.9341699 -0.34313855 0 0.28667855 0.3566487 0.88916653 0 0 0 0 1 0.97416407 -0.04388144 -0.2215372 16.800177 -0.082079716 0.8450701 -0.5283176 0 0.21039781 0.5328517 0.81963515 0 0 0 0 1 0.96891755 -0.029198471 -0.24565476 16.800177 -0.124033585 0.8018408 -0.58452296 0 0.21404317 0.59682393 0.773296 0 0 0 0 1 0.9701206 -2.8416514E-05 -0.24262324 16.800177 -0.14987613 0.78631854 -0.59936655 0 0.1907962 0.6178212 0.7628196 0 0 0 0 1 0.97551554 0.043381415 -0.21560967 16.800177 -0.16194066 0.80501765 -0.5707204 0 0.14881092 0.5916626 0.7923324 0 0 0 0 1 0.9798176 0.10652286 -0.16914564 16.800177 -0.17736483 0.8535526 -0.48988742 0 0.092190504 0.5100008 0.8552193 0 0 0 0 1 0.97364056 0.19641688 -0.11595039 16.800177 -0.22656396 0.8915108 -0.3922719 0 0.026322186 0.40820202 0.91251206 0 0 0 0 1 0.97364056 0.19641688 -0.11595039 16.800177 -0.22656396 0.8915108 -0.3922719 0 0.026322186 0.40820202 0.91251206 0 0 0 0 1</float_array>
        <technique_common>
          <accessor source="#Motion_2_Neck_transform_pose_array_id" count="21" stride="16">
            <param name="TRANSFORM" type="float4x4" />
          </accessor>
        </technique_common>
      </source>
      <sampler id="Motion_2_Neck_transform_samp_id">
        <input semantic="INPUT" source="#Motion_2_Neck_transform_frame_id" />
        <input semantic="INTERPOLATION" source="#Motion_2_Neck_transform_interp_id" />
        <input semantic="OUTPUT" source="#Motion_2_Neck_transform_pose_id" />
      </sampler>
      <channel source="#Motion_2_Neck_transform_samp_id" target="Neck_bone_id/transform" />
    </animation>
    <animation id="Motion_2_Head_transform_id" name="Motion_2_Head_transform">
      <source id="Motion_2_Head_transform_frame_id" name="Motion_2_Head_transform_frame">
        <float_array id="Motion_2_Head_transform_frame_array_id" count="21">0 0.033333335 0.06666667 0.1 0.13333334 0.16666667 0.2 0.23333333 0.26666668 0.3 0.33333334 0.36666667 0.4 0.43333334 0.46666667 0.5 0.53333336 0.56666666 0.6 0.6333333 0.6666667</float_array>
        <technique_common>
          <accessor source="#Motion_2_Head_transform_frame_array_id" count="21" stride="1">
            <param name="TIME" type="float" />
          </accessor>
        </technique_common>
      </source>
      <source id="Motion_2_Head_transform_interp_id" name="Motion_2_Head_transform_interp">
        <Name_array id="Motion_2_Head_transform_interp_array_id" count="21">LINEAR LINEAR LINEAR LINEAR LINEAR LINEAR LINEAR LINEAR LINEAR LINEAR LINEAR LINEAR LINEAR LINEAR LINEAR LINEAR LINEAR LINEAR LINEAR LINEAR LINEAR</Name_array>
        <technique_common>
          <accessor source="#Motion_2_Head_transform_interp_array_id" count="21" stride="1">
            <param name="INTERPOLATION" type="Name" />
          </accessor>
        </technique_common>
      </source>
      <source id="Motion_2_Head_transform_pose_id" name="Motion_2_Head_transform_pose">
        <float_array id="Motion_2_Head_transform_pose_array_id" count="336">0.7528215 -0.034419045 0.65732425 5.1201954 -0.073116064 0.988079 0.13547665 0 -0.65415126 -0.1500507 0.7413305 0 0 0 0 1 0.70272535 -0.00070315227 0.7114609 5.1201954 -0.069583535 0.99513733 0.069712676 0 -0.7080503 -0.098494835 0.6992593 0 0 0 0 1 0.7462707 0.021910433 0.6652819 5.1201954 -0.0014650011 0.99950975 -0.03127457 0 -0.66564095 0.022364656 0.745937 0 0 0 0 1 0.8165113 -0.08804348 0.5705766 5.1201954 0.18690857 0.9753896 -0.116962805 0 -0.5462367 0.20214711 0.8128727 0 0 0 0 1 0.853171 -0.21173394 0.4767264 5.1201954 0.3303377 0.92660993 -0.1796413 0 -0.40370327 0.31074545 0.8605004 0 0 0 0 1 0.85622317 -0.2217533 0.46659124 5.1201954 0.34986782 0.9134372 -0.20790626 0 -0.38009787 0.34125942 0.8596904 0 0 0 0 1 0.86473984 -0.1853994 0.46674624 5.1201954 0.31402177 0.9248894 -0.21440595 0 -0.39193794 0.33197385 0.85800815 0 0 0 0 1 0.8730486 -0.114821956 0.473922 5.1201954 0.23819451 0.94846255 -0.20900288 0 -0.42549914 0.2953553 0.85540384 0 0 0 0 1 0.8496927 -0.021913696 0.5268226 5.1201954 0.13909222 0.9730613 -0.18386124 0 -0.5086016 0.22950248 0.82985115 0 0 0 0 1 0.81602335 0.049760833 0.57587296 5.1201954 0.056223378 0.98473 -0.16475955 0 -0.575278 0.16682518 0.800765 0 0 0 0 1 0.7590802 0.089003734 0.64488417 5.1201954 0.0060276166 0.9896065 -0.14367558 0 -0.6509692 0.1129484 0.75065416 0 0 0 0 1 0.70260197 0.0624865 0.7088342 5.1201954 -0.0022028442 0.99632317 -0.0856463 0 -0.7115797 0.058613807 0.7001563 0 0 0 0 1 0.7227411 0.020990096 0.6908 5.1201954 -0.047160424 0.9987067 0.018995121 0 -0.6895079 -0.046306975 0.7227963 0 0 0 0 1 0.8170057 0.057602208 0.5737453 5.1201954 -0.16439457 0.97697264 0.13601074 0 -0.5526989 -0.20544216 0.80766165 0 0 0 0 1 0.88360333 0.108612165 0.45546526 5.1201954 -0.22761334 0.94969654 0.2151016 0 -0.40919113 -0.29373443 0.8638766 0 0 0 0 1 0.8771794 0.08377448 0.4727982 5.1201954 -0.22658381 0.94035417 0.25375935 0 -0.42333922 -0.32972088 0.84384125 0 0 0 0 1 0.86700696 0.058907196 0.49480185 5.1201954 -0.21650024 0.9388974 0.2675807 0 -0.44880572 -0.33911902 0.82678396 0 0 0 0 1 0.8746619 0.032731816 0.48362714 5.1201954 -0.18429595 0.94524837 0.2693334 0 -0.448332 -0.32470617 0.8328051 0 0 0 0 1 0.8470421 -0.0030924082 0.53151685 5.1201954 -0.14041802 0.96315545 0.22937833 0 -0.5126427 -0.26892763 0.81539893 0 0 0 0 1 0.81251717 -0.03010657 0.5821593 5.1201954 -0.09230177 0.97942257 0.1794764 0 -0.57558334 -0.199562 0.7930188 0 0 0 0 1 0.81251717 -0.03010657 0.5821593 5.1201954 -0.09230177 0.97942257 0.1794764 0 -0.57558334 -0.199562 0.7930188 0 0 0 0 1</float_array>
        <technique_common>
          <accessor source="#Motion_2_Head_transform_pose_array_id" count="21" stride="16">
            <param name="TRANSFORM" type="float4x4" />
          </accessor>
        </technique_common>
      </source>
      <sampler id="Motion_2_Head_transform_samp_id">
        <input semantic="INPUT" source="#Motion_2_Head_transform_frame_id" />
        <input semantic="INTERPOLATION" source="#Motion_2_Head_transform_interp_id" />
        <input semantic="OUTPUT" source="#Motion_2_Head_transform_pose_id" />
      </sampler>
      <channel source="#Motion_2_Head_transform_samp_id" target="Head_bone_id/transform" />
    </animation>
    <animation id="Motion_2_LShoulder_transform_id" name="Motion_2_LShoulder_transform">
      <source id="Motion_2_LShoulder_transform_frame_id" name="Motion_2_LShoulder_transform_frame">
        <float_array id="Motion_2_LShoulder_transform_frame_array_id" count="21">0 0.033333335 0.06666667 0.1 0.13333334 0.16666667 0.2 0.23333333 0.26666668 0.3 0.33333334 0.36666667 0.4 0.43333334 0.46666667 0.5 0.53333336 0.56666666 0.6 0.6333333 0.6666667</float_array>
        <technique_common>
          <accessor source="#Motion_2_LShoulder_transform_frame_array_id" count="21" stride="1">
            <param name="TIME" type="float" />
          </accessor>
        </technique_common>
      </source>
      <source id="Motion_2_LShoulder_transform_interp_id" name="Motion_2_LShoulder_transform_interp">
        <Name_array id="Motion_2_LShoulder_transform_interp_array_id" count="21">LINEAR LINEAR LINEAR LINEAR LINEAR LINEAR LINEAR LINEAR LINEAR LINEAR LINEAR LINEAR LINEAR LINEAR LINEAR LINEAR LINEAR LINEAR LINEAR LINEAR LINEAR</Name_array>
        <technique_common>
          <accessor source="#Motion_2_LShoulder_transform_interp_array_id" count="21" stride="1">
            <param name="INTERPOLATION" type="Name" />
          </accessor>
        </technique_common>
      </source>
      <source id="Motion_2_LShoulder_transform_pose_id" name="Motion_2_LShoulder_transform_pose">
        <float_array id="Motion_2_LShoulder_transform_pose_array_id" count="336">-0.48268187 0.86159456 0.15707642 14.18017 -0.8710004 -0.49099803 0.01671208 -4.5 0.091523245 -0.128747 0.98744506 -0.24023256 0 0 0 1 -0.46325004 0.88153255 0.091102496 14.18017 -0.88621306 -0.46137536 -0.041941155 -4.5 0.005059954 -0.10016547 0.9949579 -0.24023256 0 0 0 1 -0.44657075 0.8942557 -0.029696755 14.18017 -0.8897708 -0.44733775 -0.09053909 -4.5 -0.094249554 -0.014008783 0.99545 -0.24023256 0 0 0 1 -0.42910218 0.89880896 -0.08951798 14.18017 -0.88604 -0.43810856 -0.15163662 -4.5 -0.17551097 0.014248893 0.98437434 -0.24023256 0 0 0 1 -0.41574395 0.90516853 -0.08847004 14.18017 -0.88011587 -0.4249314 -0.2117297 -4.5 -0.22924477 -0.010161452 0.9733158 -0.24023256 0 0 0 1 -0.41296566 0.9045788 -0.10581396 14.18017 -0.88104665 -0.42622173 -0.2051629 -4.5 -0.23068622 0.008501798 0.97299105 -0.24023256 0 0 0 1 -0.42215073 0.8964135 -0.13502541 14.18017 -0.88461405 -0.43990207 -0.15473929 -4.5 -0.19810835 0.054122083 0.9786848 -0.24023256 0 0 0 1 -0.41866636 0.89919126 -0.127174 14.18017 -0.8978709 -0.43085337 -0.090515465 -4.5 -0.13618408 0.076290056 0.9877417 -0.24023256 0 0 0 1 -0.39855385 0.91566205 -0.05213262 14.18017 -0.9169246 -0.39905977 0.00076537766 -4.5 -0.020103207 0.04810673 0.9986399 -0.24023256 0 0 0 1 -0.40962696 0.9111289 0.04527271 14.18017 -0.90568984 -0.41212106 0.09940791 -4.5 0.10923128 -0.00028286874 0.99401635 -0.24023256 0 0 0 1 -0.45248592 0.88557065 0.104981735 14.18017 -0.87018776 -0.46420765 0.1651802 -4.5 0.19501205 -0.01661212 0.98066014 -0.24023256 0 0 0 1 -0.4902023 0.8641159 0.11403999 14.18017 -0.85556465 -0.50203097 0.12638736 -4.5 0.16646495 -0.0356132 0.985404 -0.24023256 0 0 0 1 -0.5219039 0.8450238 0.11640948 14.18017 -0.84868044 -0.52812374 0.028756384 -4.5 0.08577843 -0.08378638 0.9927849 -0.24023256 0 0 0 1 -0.5368962 0.8322646 0.13812274 14.18017 -0.84361225 -0.5281172 -0.097007796 -4.5 -0.0077911764 -0.16860516 0.98565286 -0.24023256 0 0 0 1 -0.5451447 0.83162236 0.10593269 14.18017 -0.83667266 -0.5317277 -0.13131963 -4.5 -0.052880995 -0.16021915 0.98566395 -0.24023256 0 0 0 1 -0.5466361 0.8347152 0.0666291 14.18017 -0.83367103 -0.53502476 -0.13689831 -4.5 -0.07862288 -0.1303803 0.98834175 -0.24023256 0 0 0 1 -0.5419607 0.83859164 0.05516047 14.18017 -0.8367633 -0.5323467 -0.12819566 -4.5 -0.07813931 -0.115633264 0.9902137 -0.24023256 0 0 0 1 -0.532974 0.8449086 0.04548136 14.18017 -0.844718 -0.528208 -0.086303264 -4.5 -0.048894748 -0.0844163 0.9952302 -0.24023256 0 0 0 1 -0.5248294 0.85120624 0.0013714052 14.18017 -0.8512029 -0.5248312 0.0023772488 -4.5 0.0027432856 8.030608E-05 0.99999624 -0.24023256 0 0 0 1 -0.50680375 0.8576688 0.0869177 14.18017 -0.85940856 -0.5105736 0.02705564 -4.5 0.06758264 -0.060985904 0.99584806 -0.24023256 0 0 0 1 -0.50680375 0.8576688 0.0869177 14.18017 -0.85940856 -0.5105736 0.02705564 -4.5 0.06758264 -0.060985904 0.99584806 -0.24023256 0 0 0 1</float_array>
        <technique_common>
          <accessor source="#Motion_2_LShoulder_transform_pose_array_id" count="21" stride="16">
            <param name="TRANSFORM" type="float4x4" />
          </accessor>
        </technique_common>
      </source>
      <sampler id="Motion_2_LShoulder_transform_samp_id">
        <input semantic="INPUT" source="#Motion_2_LShoulder_transform_frame_id" />
        <input semantic="INTERPOLATION" source="#Motion_2_LShoulder_transform_interp_id" />
        <input semantic="OUTPUT" source="#Motion_2_LShoulder_transform_pose_id" />
      </sampler>
      <channel source="#Motion_2_LShoulder_transform_samp_id" target="LShoulder_bone_id/transform" />
    </animation>
    <animation id="Motion_2_LArm_transform_id" name="Motion_2_LArm_transform">
      <source id="Motion_2_LArm_transform_frame_id" name="Motion_2_LArm_transform_frame">
        <float_array id="Motion_2_LArm_transform_frame_array_id" count="21">0 0.033333335 0.06666667 0.1 0.13333334 0.16666667 0.2 0.23333333 0.26666668 0.3 0.33333334 0.36666667 0.4 0.43333334 0.46666667 0.5 0.53333336 0.56666666 0.6 0.6333333 0.6666667</float_array>
        <technique_common>
          <accessor source="#Motion_2_LArm_transform_frame_array_id" count="21" stride="1">
            <param name="TIME" type="float" />
          </accessor>
        </technique_common>
      </source>
      <source id="Motion_2_LArm_transform_interp_id" name="Motion_2_LArm_transform_interp">
        <Name_array id="Motion_2_LArm_transform_interp_array_id" count="21">LINEAR LINEAR LINEAR LINEAR LINEAR LINEAR LINEAR LINEAR LINEAR LINEAR LINEAR LINEAR LINEAR LINEAR LINEAR LINEAR LINEAR LINEAR LINEAR LINEAR LINEAR</Name_array>
        <technique_common>
          <accessor source="#Motion_2_LArm_transform_interp_array_id" count="21" stride="1">
            <param name="INTERPOLATION" type="Name" />
          </accessor>
        </technique_common>
      </source>
      <source id="Motion_2_LArm_transform_pose_id" name="Motion_2_LArm_transform_pose">
        <float_array id="Motion_2_LArm_transform_pose_array_id" count="336">0.71545947 0.69800895 -0.030021988 12.619566 -0.69838125 0.7157205 -0.0028038854 0 0.019530214 0.02297286 0.9995453 0 0 0 0 1 0.6755383 0.7337537 -0.072480865 12.619566 -0.73729694 0.6730969 -0.057739586 0 0.006420009 0.092445225 0.9956971 0 0 0 0 1 0.702131 0.70914435 -0.06423671 12.619566 -0.70605004 0.6816933 -0.191801 0 -0.09222486 0.18002374 0.97932935 0 0 0 0 1 0.7671571 0.63501185 0.09071905 12.619566 -0.5555088 0.7284037 -0.4010462 0 -0.3207492 0.2572702 0.9115547 0 0 0 0 1 0.8006051 0.5295062 0.28045434 12.619566 -0.3368781 0.7848426 -0.52013 0 -0.4955246 0.32193977 0.80672807 0 0 0 0 1 0.7860968 0.47476006 0.3957963 12.619566 -0.2116463 0.8083779 -0.54930043 0 -0.5807389 0.34803444 0.7359445 0 0 0 0 1 0.76784015 0.48578367 0.41765508 12.619566 -0.25631264 0.83042634 -0.49466756 0 -0.58713317 0.27277532 0.7621471 0 0 0 0 1 0.72558856 0.5648355 0.39304215 12.619566 -0.40943098 0.813439 -0.41313827 0 -0.55307096 0.13884477 0.8214832 0 0 0 0 1 0.65190643 0.70494205 0.2794186 12.619566 -0.64157873 0.709175 -0.292314 0 -0.40422112 0.0112923235 0.9145916 0 0 0 0 1 0.63084686 0.74039173 0.23206112 12.619566 -0.7345449 0.6662281 -0.12877858 0 -0.24995223 -0.08921976 0.96413887 0 0 0 0 1 0.6902109 0.69172037 0.21244292 12.619566 -0.708081 0.70613 0.0013213828 0 -0.14909829 -0.15133882 0.9771726 0 0 0 0 1 0.73400974 0.66505766 0.13757893 12.619566 -0.67861986 0.72616017 0.1103019 0 -0.02654722 -0.17432646 0.98433 0 0 0 0 1 0.7563864 0.6530064 0.038240355 12.619566 -0.6468858 0.73806274 0.1918389 0 0.09704825 -0.16984148 0.9806811 0 0 0 0 1 0.80365646 0.5918192 -0.062340047 12.619566 -0.5669312 0.7932563 0.22211133 0 0.1809014 -0.14315869 0.97302634 0 0 0 0 1 0.8447064 0.51066864 -0.16027655 12.619566 -0.4603163 0.84593135 0.26927504 0 0.27309328 -0.15368044 0.94963276 0 0 0 0 1 0.8436396 0.49291986 -0.21284322 12.619566 -0.41939086 0.8525106 0.31198874 0 0.33523655 -0.17394155 0.9259378 0 0 0 0 1 0.8381889 0.4959254 -0.22693028 12.619566 -0.41444913 0.849669 0.32602847 0 0.35450143 -0.1792224 0.91771895 0 0 0 0 1 0.8387521 0.5100579 -0.19061977 12.619566 -0.44834256 0.8455752 0.289813 0 0.30900475 -0.15761834 0.9379086 0 0 0 0 1 0.82034016 0.55649394 -0.13174427 12.619566 -0.5241671 0.8237963 0.21589035 0 0.22867209 -0.108047515 0.96748894 0 0 0 0 1 0.7691848 0.63679045 -0.05340966 12.619566 -0.6299502 0.7696435 0.10397904 0 0.10731926 -0.046333678 0.9931444 0 0 0 0 1 0.7691848 0.63679045 -0.05340966 12.619566 -0.6299502 0.7696435 0.10397904 0 0.10731926 -0.046333678 0.9931444 0 0 0 0 1</float_array>
        <technique_common>
          <accessor source="#Motion_2_LArm_transform_pose_array_id" count="21" stride="16">
            <param name="TRANSFORM" type="float4x4" />
          </accessor>
        </technique_common>
      </source>
      <sampler id="Motion_2_LArm_transform_samp_id">
        <input semantic="INPUT" source="#Motion_2_LArm_transform_frame_id" />
        <input semantic="INTERPOLATION" source="#Motion_2_LArm_transform_interp_id" />
        <input semantic="OUTPUT" source="#Motion_2_LArm_transform_pose_id" />
      </sampler>
      <channel source="#Motion_2_LArm_transform_samp_id" target="LArm_bone_id/transform" />
    </animation>
    <animation id="Motion_2_LForeArm_transform_id" name="Motion_2_LForeArm_transform">
      <source id="Motion_2_LForeArm_transform_frame_id" name="Motion_2_LForeArm_transform_frame">
        <float_array id="Motion_2_LForeArm_transform_frame_array_id" count="21">0 0.033333335 0.06666667 0.1 0.13333334 0.16666667 0.2 0.23333333 0.26666668 0.3 0.33333334 0.36666667 0.4 0.43333334 0.46666667 0.5 0.53333336 0.56666666 0.6 0.6333333 0.6666667</float_array>
        <technique_common>
          <accessor source="#Motion_2_LForeArm_transform_frame_array_id" count="21" stride="1">
            <param name="TIME" type="float" />
          </accessor>
        </technique_common>
      </source>
      <source id="Motion_2_LForeArm_transform_interp_id" name="Motion_2_LForeArm_transform_interp">
        <Name_array id="Motion_2_LForeArm_transform_interp_array_id" count="21">LINEAR LINEAR LINEAR LINEAR LINEAR LINEAR LINEAR LINEAR LINEAR LINEAR LINEAR LINEAR LINEAR LINEAR LINEAR LINEAR LINEAR LINEAR LINEAR LINEAR LINEAR</Name_array>
        <technique_common>
          <accessor source="#Motion_2_LForeArm_transform_interp_array_id" count="21" stride="1">
            <param name="INTERPOLATION" type="Name" />
          </accessor>
        </technique_common>
      </source>
      <source id="Motion_2_LForeArm_transform_pose_id" name="Motion_2_LForeArm_transform_pose">
        <float_array id="Motion_2_LForeArm_transform_pose_array_id" count="336">-0.276376 -0.0031822408 -0.96104413 22.6 0.0018720133 0.9999908 -0.0038495534 0 0.9610476 -0.0028630127 -0.27636755 0 0 0 0 1 -0.19098425 -0.0031693312 -0.9815879 22.6 0.0018858338 0.9999918 -0.0035956735 0 0.9815912 -0.0025378289 -0.19097674 0 0 0 0 1 -0.20640016 -0.0030136623 -0.9784631 22.6 0.0017250485 0.9999926 -0.0034438604 0 0.9784662 -0.0023987093 -0.20639348 0 0 0 0 1 -0.25694048 -0.0028315203 -0.966423 22.6 0.0015270293 0.99999326 -0.003335865 0 0.96642596 -0.0023328753 -0.2569344 0 0 0 0 1 -0.25167453 -0.0027519364 -0.9678079 22.6 0.0014490352 0.99999374 -0.0032202718 0 0.96781075 -0.002212849 -0.25166905 0 0 0 0 1 -0.1659795 -0.0027745895 -0.9861252 22.6 0.0014996596 0.99999416 -0.0030660264 0 0.9861279 -0.00198775 -0.16597438 0 0 0 0 1 -0.01569581 -0.0028137886 -0.99987286 22.6 0.0015974413 0.9999947 -0.002839208 0 0.9998756 -0.001641802 -0.01569128 0 0 0 0 1 0.09890753 -0.0026926752 -0.995093 22.6 0.001529422 0.9999956 -0.0025539242 0 0.9950955 -0.0012693149 0.098911226 0 0 0 0 1 0.2559963 -0.0024486776 -0.9666746 22.6 0.0013712188 0.9999967 -0.0021699572 0 0.9666768 -0.00077002164 0.2559988 0 0 0 0 1 0.40333396 -0.0021834066 -0.91505027 22.6 0.0012024685 0.99999756 -0.0018560782 0 0.91505206 -0.00035169977 0.40333557 0 0 0 0 1 0.38672972 -0.0020524615 -0.9221909 22.6 0.0010597517 0.99999785 -0.0017812144 0 0.9221926 -0.0002884447 0.38673103 0 0 0 0 1 0.36072677 -0.0021084729 -0.9326691 22.6 0.0010978127 0.99999774 -0.0018360824 0 0.9326709 -0.0003615718 0.36072826 0 0 0 0 1 0.28942293 -0.0022819762 -0.9571986 22.6 0.0012249299 0.9999972 -0.0020136335 0 0.9572005 -0.00058970967 0.2894249 0 0 0 0 1 0.15714538 -0.002487636 -0.9875724 22.6 0.0013543388 0.9999964 -0.002303425 0 0.9875745 -0.00097553496 0.15714824 0 0 0 0 1 0.020940125 -0.002689202 -0.99977714 22.6 0.0014890109 0.99999535 -0.002658602 0 0.99977964 -0.0014330077 0.020944059 0 0 0 0 1 -0.10686588 -0.0028523013 -0.9942694 22.6 0.0015989596 0.9999941 -0.0030405833 0 0.99427223 -0.0019147309 -0.10686064 0 0 0 0 1 -0.20687652 -0.0029795533 -0.9783625 22.6 0.0016907832 0.9999928 -0.003402946 0 0.9783656 -0.0023581884 -0.20686996 0 0 0 0 1 -0.2822503 -0.0030618105 -0.9593359 22.6 0.0017498893 0.9999916 -0.0037064094 0 0.95933926 -0.0027248666 -0.28224254 0 0 0 0 1 -0.3375703 -0.0030880212 -0.9412952 22.6 0.0017610855 0.9999908 -0.0039121443 0 0.94129866 -0.0029783251 -0.33756185 0 0 0 0 1 -0.33879435 -0.0031285724 -0.94085544 22.6 0.001801324 0.99999046 -0.0039738533 0 0.9408589 -0.0030411037 -0.33878553 0 0 0 0 1 -0.33879435 -0.0031285724 -0.94085544 22.6 0.001801324 0.99999046 -0.0039738533 0 0.9408589 -0.0030411037 -0.33878553 0 0 0 0 1</float_array>
        <technique_common>
          <accessor source="#Motion_2_LForeArm_transform_pose_array_id" count="21" stride="16">
            <param name="TRANSFORM" type="float4x4" />
          </accessor>
        </technique_common>
      </source>
      <sampler id="Motion_2_LForeArm_transform_samp_id">
        <input semantic="INPUT" source="#Motion_2_LForeArm_transform_frame_id" />
        <input semantic="INTERPOLATION" source="#Motion_2_LForeArm_transform_interp_id" />
        <input semantic="OUTPUT" source="#Motion_2_LForeArm_transform_pose_id" />
      </sampler>
      <channel source="#Motion_2_LForeArm_transform_samp_id" target="LForeArm_bone_id/transform" />
    </animation>
    <animation id="Motion_2_LHand_transform_id" name="Motion_2_LHand_transform">
      <source id="Motion_2_LHand_transform_frame_id" name="Motion_2_LHand_transform_frame">
        <float_array id="Motion_2_LHand_transform_frame_array_id" count="21">0 0.033333335 0.06666667 0.1 0.13333334 0.16666667 0.2 0.23333333 0.26666668 0.3 0.33333334 0.36666667 0.4 0.43333334 0.46666667 0.5 0.53333336 0.56666666 0.6 0.6333333 0.6666667</float_array>
        <technique_common>
          <accessor source="#Motion_2_LHand_transform_frame_array_id" count="21" stride="1">
            <param name="TIME" type="float" />
          </accessor>
        </technique_common>
      </source>
      <source id="Motion_2_LHand_transform_interp_id" name="Motion_2_LHand_transform_interp">
        <Name_array id="Motion_2_LHand_transform_interp_array_id" count="21">LINEAR LINEAR LINEAR LINEAR LINEAR LINEAR LINEAR LINEAR LINEAR LINEAR LINEAR LINEAR LINEAR LINEAR LINEAR LINEAR LINEAR LINEAR LINEAR LINEAR LINEAR</Name_array>
        <technique_common>
          <accessor source="#Motion_2_LHand_transform_interp_array_id" count="21" stride="1">
            <param name="INTERPOLATION" type="Name" />
          </accessor>
        </technique_common>
      </source>
      <source id="Motion_2_LHand_transform_pose_id" name="Motion_2_LHand_transform_pose">
        <float_array id="Motion_2_LHand_transform_pose_array_id" count="336">0.9237629 -0.25326952 -0.28725702 22.600002 0.23542044 0.9671731 -0.09567323 0 0.3020584 0.020753223 0.9530635 0 0 0 0 1 0.9127264 -0.30436277 -0.27256882 22.600002 0.26233435 0.94801384 -0.18014017 0 0.313227 0.09291452 0.94512206 0 0 0 0 1 0.90340734 -0.33030605 -0.27341017 22.600002 0.2661795 0.93191713 -0.24633095 0 0.3361602 0.14976099 0.9298215 0 0 0 0 1 0.9061562 -0.3047033 -0.2933204 22.600002 0.23125605 0.9376219 -0.25958776 0 0.35412088 0.16739495 0.9200964 0 0 0 0 1 0.9227093 -0.24960697 -0.2937753 22.600002 0.18170205 0.9537116 -0.23962156 0 0.33998814 0.16772147 0.9253527 0 0 0 0 1 0.9448656 -0.2054331 -0.2550025 22.600002 0.14650124 0.96164864 -0.23188199 0 0.29285908 0.18173914 0.93872494 0 0 0 0 1 0.95759827 -0.20107916 -0.2063315 22.600002 0.13387582 0.94470954 -0.2993346 0 0.2551133 0.2590195 0.93157184 0 0 0 0 1 0.9680424 -0.20268014 -0.14769794 22.600002 0.13390252 0.9156849 -0.37893444 0 0.21204726 0.34704745 0.91356117 0 0 0 0 1 0.9752845 -0.18266712 -0.12430945 22.600002 0.13596673 0.9396343 -0.314007 0 0.17416418 0.28934422 0.94124746 0 0 0 0 1 0.9798413 -0.15852144 -0.12158118 22.600002 0.13587597 0.9749458 -0.17612042 0 0.14645393 0.1560501 0.97683144 0 0 0 0 1 0.9744409 -0.2012348 -0.099847555 22.600002 0.19397272 0.97791165 -0.07786776 0 0.1133118 0.056509823 0.99195117 0 0 0 0 1 0.9580718 -0.2771906 -0.072551645 22.600002 0.276279 0.96081376 -0.022513865 0 0.075949244 0.0015254039 0.99711055 0 0 0 0 1 0.9517489 -0.3027068 -0.050424438 22.600002 0.3041174 0.9523576 0.022970166 0 0.04106887 -0.037196778 0.9984637 0 0 0 0 1 0.96223384 -0.27079073 -0.027900916 22.600002 0.2720267 0.9603763 0.060652956 0 0.010371119 -0.06595212 0.9977689 0 0 0 0 1 0.9792227 -0.20133549 -0.024226911 22.600002 0.20265025 0.97595036 0.080335006 0 0.0074699773 -0.08357546 0.99647343 0 0 0 0 1 0.9728365 -0.10835274 -0.20456994 22.600002 0.12104116 0.99136066 0.05052849 0 0.19732767 -0.073917344 0.97754693 0 0 0 0 1 0.91575384 -0.10506192 -0.38775873 22.600002 0.057454865 0.98952705 -0.13242024 0 0.39761007 0.09898572 0.91219956 0 0 0 0 1 0.91394436 -0.10658139 -0.39159438 22.600002 0.04522468 0.98563635 -0.16271341 0 0.40331188 0.13100126 0.9056369 0 0 0 0 1 0.92952025 -0.14930686 -0.3371937 22.600002 0.12688392 0.9880312 -0.0877201 0 0.3462551 0.038753144 0.93733966 0 0 0 0 1 0.9295389 -0.20213777 -0.30837923 22.600002 0.19213784 0.9793567 -0.0627973 0 0.31470698 -0.00087878667 0.9491885 0 0 0 0 1 0.9295389 -0.20213777 -0.30837923 22.600002 0.19213784 0.9793567 -0.0627973 0 0.31470698 -0.00087878667 0.9491885 0 0 0 0 1</float_array>
        <technique_common>
          <accessor source="#Motion_2_LHand_transform_pose_array_id" count="21" stride="16">
            <param name="TRANSFORM" type="float4x4" />
          </accessor>
        </technique_common>
      </source>
      <sampler id="Motion_2_LHand_transform_samp_id">
        <input semantic="INPUT" source="#Motion_2_LHand_transform_frame_id" />
        <input semantic="INTERPOLATION" source="#Motion_2_LHand_transform_interp_id" />
        <input semantic="OUTPUT" source="#Motion_2_LHand_transform_pose_id" />
      </sampler>
      <channel source="#Motion_2_LHand_transform_samp_id" target="LHand_bone_id/transform" />
    </animation>
    <animation id="Motion_2_RShoulder_transform_id" name="Motion_2_RShoulder_transform">
      <source id="Motion_2_RShoulder_transform_frame_id" name="Motion_2_RShoulder_transform_frame">
        <float_array id="Motion_2_RShoulder_transform_frame_array_id" count="21">0 0.033333335 0.06666667 0.1 0.13333334 0.16666667 0.2 0.23333333 0.26666668 0.3 0.33333334 0.36666667 0.4 0.43333334 0.46666667 0.5 0.53333336 0.56666666 0.6 0.6333333 0.6666667</float_array>
        <technique_common>
          <accessor source="#Motion_2_RShoulder_transform_frame_array_id" count="21" stride="1">
            <param name="TIME" type="float" />
          </accessor>
        </technique_common>
      </source>
      <source id="Motion_2_RShoulder_transform_interp_id" name="Motion_2_RShoulder_transform_interp">
        <Name_array id="Motion_2_RShoulder_transform_interp_array_id" count="21">LINEAR LINEAR LINEAR LINEAR LINEAR LINEAR LINEAR LINEAR LINEAR LINEAR LINEAR LINEAR LINEAR LINEAR LINEAR LINEAR LINEAR LINEAR LINEAR LINEAR LINEAR</Name_array>
        <technique_common>
          <accessor source="#Motion_2_RShoulder_transform_interp_array_id" count="21" stride="1">
            <param name="INTERPOLATION" type="Name" />
          </accessor>
        </technique_common>
      </source>
      <source id="Motion_2_RShoulder_transform_pose_id" name="Motion_2_RShoulder_transform_pose">
        <float_array id="Motion_2_RShoulder_transform_pose_array_id" count="336">-0.44577217 -0.89013636 0.094573766 14.18017 0.8951446 -0.44348478 0.045135003 4.5 0.0017657317 0.10477713 0.99449414 -0.24023256 0 0 0 1 -0.46998346 -0.8713435 0.14098258 14.18017 0.8819996 -0.45734656 0.11362563 4.5 -0.034529056 0.17774875 0.98346996 -0.24023256 0 0 0 1 -0.5079131 -0.851866 0.12786113 14.18017 0.8551388 -0.4807552 0.19393794 4.5 -0.103739224 0.20784266 0.97264564 -0.24023256 0 0 0 1 -0.53252065 -0.84035987 0.10107763 14.18017 0.8350157 -0.502054 0.22514498 4.5 -0.13845637 0.20429581 0.9690681 -0.24023256 0 0 0 1 -0.5416695 -0.83623874 0.0854318 14.18017 0.8330996 -0.5205233 0.18708375 4.5 -0.11197744 0.1725108 0.978622 -0.24023256 0 0 0 1 -0.5400697 -0.8387743 0.069157906 14.18017 0.8292092 -0.5162457 0.21424966 4.5 -0.14400464 0.17305605 0.9743276 -0.24023256 0 0 0 1 -0.53417134 -0.8419377 0.076169 14.18017 0.8291958 -0.50427246 0.24112962 4.5 -0.1646062 0.19196357 0.96749926 -0.24023256 0 0 0 1 -0.521978 -0.84398794 0.12338091 14.18017 0.8400861 -0.48365796 0.24562164 4.5 -0.14762753 0.23185976 0.96148175 -0.24023256 0 0 0 1 -0.5050254 -0.8473854 0.16397443 14.18017 0.8561417 -0.46774435 0.21962915 4.5 -0.10941243 0.2513036 0.96170443 -0.24023256 0 0 0 1 -0.47429478 -0.8390099 0.26665843 14.18017 0.877995 -0.4285817 0.21317203 4.5 -0.06456852 0.33523116 0.9399207 -0.24023256 0 0 0 1 -0.44588673 -0.8342 0.32449204 14.18017 0.89370584 -0.39476466 0.2131915 4.5 -0.049746364 0.3850597 0.9215499 -0.24023256 0 0 0 1 -0.43732 -0.8793198 0.18854253 14.18017 0.8881326 -0.38934183 0.24420054 4.5 -0.1413229 0.27424446 0.95121914 -0.24023256 0 0 0 1 -0.41824985 -0.9075269 -0.03823612 14.18017 0.8657419 -0.4110242 0.28556997 4.5 -0.2748784 0.086336985 0.9575948 -0.24023256 0 0 0 1 -0.38817525 -0.88829994 -0.24544537 14.18017 0.8565562 -0.44602394 0.2595656 4.5 -0.34004658 -0.10948081 0.9340141 -0.24023256 0 0 0 1 -0.36934268 -0.8664945 -0.33581755 14.18017 0.85471636 -0.45858634 0.24322541 4.5 -0.36475483 -0.19719522 0.90998244 -0.24023256 0 0 0 1 -0.37024724 -0.86153454 -0.34738347 14.18017 0.85287505 -0.46346724 0.24042128 4.5 -0.36813208 -0.2072594 0.9063787 -0.24023256 0 0 0 1 -0.38388622 -0.87290776 -0.3011036 14.18017 0.8610563 -0.45617795 0.22468567 4.5 -0.33348668 -0.17301342 0.9267432 -0.24023256 0 0 0 1 -0.39992154 -0.8875437 -0.22875467 14.18017 0.8799858 -0.4416076 0.17495017 4.5 -0.25629574 -0.1313345 0.95763445 -0.24023256 0 0 0 1 -0.41726947 -0.90766937 -0.04497126 14.18017 0.89493936 -0.41901422 0.1533315 4.5 -0.15801792 0.023734003 0.98715097 -0.24023256 0 0 0 1 -0.43472242 -0.9002972 0.02194647 14.18017 0.8984265 -0.4318831 0.07941661 4.5 -0.06202025 0.054241452 0.9965999 -0.24023256 0 0 0 1 -0.43472242 -0.9002972 0.02194647 14.18017 0.8984265 -0.4318831 0.07941661 4.5 -0.06202025 0.054241452 0.9965999 -0.24023256 0 0 0 1</float_array>
        <technique_common>
          <accessor source="#Motion_2_RShoulder_transform_pose_array_id" count="21" stride="16">
            <param name="TRANSFORM" type="float4x4" />
          </accessor>
        </technique_common>
      </source>
      <sampler id="Motion_2_RShoulder_transform_samp_id">
        <input semantic="INPUT" source="#Motion_2_RShoulder_transform_frame_id" />
        <input semantic="INTERPOLATION" source="#Motion_2_RShoulder_transform_interp_id" />
        <input semantic="OUTPUT" source="#Motion_2_RShoulder_transform_pose_id" />
      </sampler>
      <channel source="#Motion_2_RShoulder_transform_samp_id" target="RShoulder_bone_id/transform" />
    </animation>
    <animation id="Motion_2_RArm_transform_id" name="Motion_2_RArm_transform">
      <source id="Motion_2_RArm_transform_frame_id" name="Motion_2_RArm_transform_frame">
        <float_array id="Motion_2_RArm_transform_frame_array_id" count="21">0 0.033333335 0.06666667 0.1 0.13333334 0.16666667 0.2 0.23333333 0.26666668 0.3 0.33333334 0.36666667 0.4 0.43333334 0.46666667 0.5 0.53333336 0.56666666 0.6 0.6333333 0.6666667</float_array>
        <technique_common>
          <accessor source="#Motion_2_RArm_transform_frame_array_id" count="21" stride="1">
            <param name="TIME" type="float" />
          </accessor>
        </technique_common>
      </source>
      <source id="Motion_2_RArm_transform_interp_id" name="Motion_2_RArm_transform_interp">
        <Name_array id="Motion_2_RArm_transform_interp_array_id" count="21">LINEAR LINEAR LINEAR LINEAR LINEAR LINEAR LINEAR LINEAR LINEAR LINEAR LINEAR LINEAR LINEAR LINEAR LINEAR LINEAR LINEAR LINEAR LINEAR LINEAR LINEAR</Name_array>
        <technique_common>
          <accessor source="#Motion_2_RArm_transform_interp_array_id" count="21" stride="1">
            <param name="INTERPOLATION" type="Name" />
          </accessor>
        </technique_common>
      </source>
      <source id="Motion_2_RArm_transform_pose_id" name="Motion_2_RArm_transform_pose">
        <float_array id="Motion_2_RArm_transform_pose_array_id" count="336">0.6792703 -0.718858 -0.14776666 12.619566 0.7154591 0.69348943 -0.08479799 0 0.16343234 -0.048120227 0.9853803 0 0 0 0 1 0.6100569 -0.76475406 -0.20732075 12.619566 0.7517637 0.64131314 -0.15352139 0 0.25036362 -0.06219941 0.9661518 0 0 0 0 1 0.6053038 -0.74439573 -0.28192598 12.619566 0.7259438 0.6615348 -0.18808877 0 0.32651633 -0.09081155 0.94081897 0 0 0 0 1 0.6278248 -0.73449796 -0.25758258 12.619566 0.7087967 0.6762505 -0.20072989 0 0.32162604 -0.056550488 0.94517654 0 0 0 0 1 0.66600144 -0.7064338 -0.23956922 12.619566 0.6499604 0.70715684 -0.2783535 0 0.36605135 0.029673323 0.9301214 0 0 0 0 1 0.6849425 -0.6798123 -0.2621239 12.619566 0.59458506 0.7294618 -0.33816263 0 0.42109653 0.07576698 0.9038457 0 0 0 0 1 0.69170547 -0.6691711 -0.27157614 12.619566 0.57309985 0.73744464 -0.35739613 0 0.43943152 0.09157261 0.89359635 0 0 0 0 1 0.69135356 -0.67327225 -0.26217306 12.619566 0.6125277 0.7386099 -0.28154066 0 0.38319713 0.03405586 0.92303854 0 0 0 0 1 0.6990018 -0.659374 -0.27680734 12.619566 0.65400326 0.7460046 -0.12552623 0 0.28926829 -0.09328984 0.9526914 0 0 0 0 1 0.66340697 -0.71939975 -0.20580383 12.619566 0.74320155 0.6654333 0.069641694 0 0.08684851 -0.19915451 0.97611207 0 0 0 0 1 0.62019074 -0.7766135 -0.1106116 12.619566 0.7740488 0.58296555 0.24698083 0 -0.1273259 -0.23879398 0.9626866 0 0 0 0 1 0.6131646 -0.77857226 -0.1336209 12.619566 0.77717406 0.5642468 0.27861458 0 -0.14152639 -0.2746833 0.9510622 0 0 0 0 1 0.6679214 -0.7247485 -0.16917622 12.619566 0.74218905 0.63181984 0.22351551 0 -0.05510363 -0.27485153 0.95990634 0 0 0 0 1 0.7676375 -0.63286066 -0.1010945 12.619566 0.6381868 0.7403786 0.21108559 0 -0.058739558 -0.2265544 0.97222567 0 0 0 0 1 0.86174124 -0.5071866 0.012799218 12.619566 0.48478994 0.83060265 0.27400354 0 -0.14960198 -0.22991522 0.9616435 0 0 0 0 1 0.89115334 -0.43006113 0.14454459 12.619566 0.36387327 0.86776847 0.33848807 0 -0.27100182 -0.24904886 0.9298025 0 0 0 0 1 0.8590827 -0.44073826 0.26024365 12.619566 0.32703972 0.86378795 0.38329548 0 -0.39372832 -0.24417251 0.8862042 0 0 0 0 1 0.8194339 -0.47789627 0.3164541 12.619566 0.34135038 0.8504098 0.40035373 0 -0.46044326 -0.22004169 0.8599847 0 0 0 0 1 0.79167485 -0.55995053 0.24434878 12.619566 0.45582035 0.8076696 0.37402895 0 -0.4067908 -0.1847302 0.89464855 0 0 0 0 1 0.77156234 -0.6361101 0.0074531212 12.619566 0.6273815 0.7628095 0.15656966 0 -0.105280854 -0.11612729 0.9876388 0 0 0 0 1 0.77156234 -0.6361101 0.0074531212 12.619566 0.6273815 0.7628095 0.15656966 0 -0.105280854 -0.11612729 0.9876388 0 0 0 0 1</float_array>
        <technique_common>
          <accessor source="#Motion_2_RArm_transform_pose_array_id" count="21" stride="16">
            <param name="TRANSFORM" type="float4x4" />
          </accessor>
        </technique_common>
      </source>
      <sampler id="Motion_2_RArm_transform_samp_id">
        <input semantic="INPUT" source="#Motion_2_RArm_transform_frame_id" />
        <input semantic="INTERPOLATION" source="#Motion_2_RArm_transform_interp_id" />
        <input semantic="OUTPUT" source="#Motion_2_RArm_transform_pose_id" />
      </sampler>
      <channel source="#Motion_2_RArm_transform_samp_id" target="RArm_bone_id/transform" />
    </animation>
    <animation id="Motion_2_RForeArm_transform_id" name="Motion_2_RForeArm_transform">
      <source id="Motion_2_RForeArm_transform_frame_id" name="Motion_2_RForeArm_transform_frame">
        <float_array id="Motion_2_RForeArm_transform_frame_array_id" count="21">0 0.033333335 0.06666667 0.1 0.13333334 0.16666667 0.2 0.23333333 0.26666668 0.3 0.33333334 0.36666667 0.4 0.43333334 0.46666667 0.5 0.53333336 0.56666666 0.6 0.6333333 0.6666667</float_array>
        <technique_common>
          <accessor source="#Motion_2_RForeArm_transform_frame_array_id" count="21" stride="1">
            <param name="TIME" type="float" />
          </accessor>
        </technique_common>
      </source>
      <source id="Motion_2_RForeArm_transform_interp_id" name="Motion_2_RForeArm_transform_interp">
        <Name_array id="Motion_2_RForeArm_transform_interp_array_id" count="21">LINEAR LINEAR LINEAR LINEAR LINEAR LINEAR LINEAR LINEAR LINEAR LINEAR LINEAR LINEAR LINEAR LINEAR LINEAR LINEAR LINEAR LINEAR LINEAR LINEAR LINEAR</Name_array>
        <technique_common>
          <accessor source="#Motion_2_RForeArm_transform_interp_array_id" count="21" stride="1">
            <param name="INTERPOLATION" type="Name" />
          </accessor>
        </technique_common>
      </source>
      <source id="Motion_2_RForeArm_transform_pose_id" name="Motion_2_RForeArm_transform_pose">
        <float_array id="Motion_2_RForeArm_transform_pose_array_id" count="336">0.4821905 -1.7484555E-07 -0.8760664 22.6 8.430885E-08 1 -1.5317632E-07 0 0.8760664 0 0.4821905 0 0 0 0 1 0.4331445 -1.7388305E-07 -0.90132445 22.6 7.964121E-08 1 -1.5464674E-07 0 0.90132445 -4.7981956E-09 0.4331445 0 0 0 0 1 0.32084846 -1.7116105E-07 -0.94713056 22.6 6.926268E-08 1 -1.5725206E-07 0 0.94713056 -1.5146725E-08 0.32084846 0 0 0 0 1 0.1139341 -1.6448195E-07 -0.9934883 22.6 5.0928037E-08 1 -1.5971955E-07 0 0.9934883 -3.239891E-08 0.1139341 0 0 0 0 1 -0.010264277 -1.5951248E-07 -0.9999473 22.6 4.0232635E-08 1 -1.5993386E-07 0 0.9999473 -4.1872127E-08 -0.010264277 0 0 0 0 1 -0.1148777 -1.5476701E-07 -0.9933797 22.6 3.1323346E-08 1 -1.594208E-07 0 0.9933797 -4.942986E-08 -0.1148777 0 0 0 0 1 -0.19577563 -1.507295E-07 -0.9806487 22.6 2.4463574E-08 1 -1.5858777E-07 0 0.9806487 -5.5037795E-08 -0.19577563 0 0 0 0 1 -0.24922228 -1.4787508E-07 -0.9684463 22.6 1.9933559E-08 1 -1.5782285E-07 0 0.9684463 -5.863755E-08 -0.24922228 0 0 0 0 1 -0.27295828 -1.4655713E-07 -0.96202594 22.6 1.7920073E-08 1 -1.5742668E-07 0 0.96202594 -6.0210475E-08 -0.27295828 0 0 0 0 1 -0.26972926 -1.4673827E-07 -0.96293616 22.6 1.819408E-08 1 -1.5748265E-07 0 0.96293616 -5.999742E-08 -0.26972926 0 0 0 0 1 -0.25227404 -1.477074E-07 -0.9676558 22.6 1.9674765E-08 1 -1.5777388E-07 0 0.9676558 -5.8840655E-08 -0.25227404 0 0 0 0 1 -0.22133517 -1.4938365E-07 -0.97519785 22.6 2.229757E-08 1 -1.5824368E-07 0 0.97519785 -5.6769437E-08 -0.22133517 0 0 0 0 1 -0.18584883 -1.5124294E-07 -0.9825784 22.6 2.5304807E-08 1 -1.5871082E-07 0 0.9825784 -5.4360157E-08 -0.18584883 0 0 0 0 1 -0.1374036 -1.536759E-07 -0.9905152 22.6 2.9411808E-08 1 -1.5922744E-07 0 0.9905152 -5.101127E-08 -0.1374036 0 0 0 0 1 -0.056570172 -1.574763E-07 -0.99839866 22.6 3.6281065E-08 1 -1.5978459E-07 0 0.99839866 -4.5261995E-08 -0.056570172 0 0 0 0 1 0.018630505 -1.6073223E-07 -0.9998264 22.6 4.2706862E-08 1 -1.5996434E-07 0 0.9998264 -3.971924E-08 0.018630505 0 0 0 0 1 0.10474616 -1.6413867E-07 -0.99449897 22.6 5.0130748E-08 1 -1.5976654E-07 0 0.99449897 -3.3120045E-08 0.10474616 0 0 0 0 1 0.19282603 -1.672687E-07 -0.981233 22.6 5.782489E-08 1 -1.5910447E-07 0 0.981233 -2.60602E-08 0.19282603 0 0 0 0 1 0.23772252 -1.6872428E-07 -0.9713331 22.6 6.179694E-08 1 -1.5857975E-07 0 0.9713331 -2.2327427E-08 0.23772252 0 0 0 0 1 0.3770911 -1.7261023E-07 -0.92617613 22.6 7.44126E-08 1 -1.5607172E-07 0 0.92617613 -1.0065918E-08 0.3770911 0 0 0 0 1 0.3770911 -1.7261023E-07 -0.92617613 22.6 7.44126E-08 1 -1.5607172E-07 0 0.92617613 -1.0065918E-08 0.3770911 0 0 0 0 1</float_array>
        <technique_common>
          <accessor source="#Motion_2_RForeArm_transform_pose_array_id" count="21" stride="16">
            <param name="TRANSFORM" type="float4x4" />
          </accessor>
        </technique_common>
      </source>
      <sampler id="Motion_2_RForeArm_transform_samp_id">
        <input semantic="INPUT" source="#Motion_2_RForeArm_transform_frame_id" />
        <input semantic="INTERPOLATION" source="#Motion_2_RForeArm_transform_interp_id" />
        <input semantic="OUTPUT" source="#Motion_2_RForeArm_transform_pose_id" />
      </sampler>
      <channel source="#Motion_2_RForeArm_transform_samp_id" target="RForeArm_bone_id/transform" />
    </animation>
    <animation id="Motion_2_RHand_transform_id" name="Motion_2_RHand_transform">
      <source id="Motion_2_RHand_transform_frame_id" name="Motion_2_RHand_transform_frame">
        <float_array id="Motion_2_RHand_transform_frame_array_id" count="21">0 0.033333335 0.06666667 0.1 0.13333334 0.16666667 0.2 0.23333333 0.26666668 0.3 0.33333334 0.36666667 0.4 0.43333334 0.46666667 0.5 0.53333336 0.56666666 0.6 0.6333333 0.6666667</float_array>
        <technique_common>
          <accessor source="#Motion_2_RHand_transform_frame_array_id" count="21" stride="1">
            <param name="TIME" type="float" />
          </accessor>
        </technique_common>
      </source>
      <source id="Motion_2_RHand_transform_interp_id" name="Motion_2_RHand_transform_interp">
        <Name_array id="Motion_2_RHand_transform_interp_array_id" count="21">LINEAR LINEAR LINEAR LINEAR LINEAR LINEAR LINEAR LINEAR LINEAR LINEAR LINEAR LINEAR LINEAR LINEAR LINEAR LINEAR LINEAR LINEAR LINEAR LINEAR LINEAR</Name_array>
        <technique_common>
          <accessor source="#Motion_2_RHand_transform_interp_array_id" count="21" stride="1">
            <param name="INTERPOLATION" type="Name" />
          </accessor>
        </technique_common>
      </source>
      <source id="Motion_2_RHand_transform_pose_id" name="Motion_2_RHand_transform_pose">
        <float_array id="Motion_2_RHand_transform_pose_array_id" count="336">0.9970875 -0.023941595 -0.07241067 22.600002 0.01845349 0.99697256 -0.0755326 0 0.07399982 0.07397638 0.9945107 0 0 0 0 1 0.99733466 0.042312995 -0.059440665 22.600002 -0.045185715 0.9978321 -0.047846325 0 0.057287283 0.050404668 0.9970845 0 0 0 0 1 0.9905888 0.1327016 -0.03352882 22.600002 -0.13320214 0.9910016 -0.013154284 0 0.03148152 0.017496597 0.9993512 0 0 0 0 1 0.9912111 0.13218862 0.005165411 22.600002 -0.13227016 0.99097806 0.021611204 0 -0.002262054 -0.022104496 0.9997531 0 0 0 0 1 0.9966438 0.08115506 0.010724329 22.600002 -0.081686065 0.99449766 0.06558806 0 -0.005342518 -0.06624396 0.99778914 0 0 0 0 1 0.98174554 0.032591615 -0.18738595 22.600002 -0.020154372 0.9974886 0.06789891 0 0.18912828 -0.0628828 0.97993684 0 0 0 0 1 0.91936314 -0.06426218 -0.388126 22.600002 0.016136216 0.9918981 -0.12600674 0 0.3930789 0.109583065 0.9129515 0 0 0 0 1 0.91280794 -0.03055052 -0.40724474 22.600002 -0.009927223 0.99524343 -0.09691187 0 0.4082684 0.09250473 0.90816283 0 0 0 0 1 0.91270924 0.051242992 -0.40538374 22.600002 -0.053157635 0.9985647 0.0065419027 0 0.4051371 0.015578385 0.9141232 0 0 0 0 1 0.92044616 0.061343435 -0.38602576 22.600002 -0.054578926 0.9981035 0.028469961 0 0.3870401 -0.0051361956 0.92204857 0 0 0 0 1 0.9338686 0.0450136 -0.35477206 22.600002 -0.0478561 0.9988539 0.0007630368 0 0.35439983 0.01626543 0.9349525 0 0 0 0 1 0.9515114 -0.00970605 -0.30746034 22.600002 -0.00943925 0.9981102 -0.060720883 0 0.30746862 0.06067881 0.94962156 0 0 0 0 1 0.96770626 -0.0426339 -0.24844915 22.600002 0.011435251 0.9920039 -0.12568782 0 0.2518211 0.11878781 0.96045595 0 0 0 0 1 0.98006904 -0.02860012 -0.19658771 22.600002 -0.011595378 0.9796596 -0.20033118 0 0.19831854 0.1986179 0.9598024 0 0 0 0 1 0.986092 0.009876462 -0.16590676 22.600002 -0.05903914 0.9539434 -0.29411966 0 0.15536079 0.299824 0.941259 0 0 0 0 1 0.9856886 0.055382047 -0.15921925 22.600002 -0.11295608 0.91808814 -0.379941 0 0.1251354 0.3924883 0.91120476 0 0 0 0 1 0.98265326 0.090890676 -0.16165207 22.600002 -0.15399843 0.8855897 -0.43819556 0 0.103329524 0.45548847 0.88422465 0 0 0 0 1 0.98261094 0.10353042 -0.15413354 22.600002 -0.1631443 0.8777585 -0.4504708 0 0.08865458 0.46778357 0.8793855 0 0 0 0 1 0.9941448 0.04811032 -0.096755 22.600002 -0.07288025 0.9596265 -0.27167165 0 0.07977845 0.2771325 0.957514 0 0 0 0 1 0.9971164 -0.0012937307 -0.07587641 22.600002 -0.009033854 0.9907212 -0.13560912 0 0.0753478 0.13590354 0.9878527 0 0 0 0 1 0.9971164 -0.0012937307 -0.07587641 22.600002 -0.009033854 0.9907212 -0.13560912 0 0.0753478 0.13590354 0.9878527 0 0 0 0 1</float_array>
        <technique_common>
          <accessor source="#Motion_2_RHand_transform_pose_array_id" count="21" stride="16">
            <param name="TRANSFORM" type="float4x4" />
          </accessor>
        </technique_common>
      </source>
      <sampler id="Motion_2_RHand_transform_samp_id">
        <input semantic="INPUT" source="#Motion_2_RHand_transform_frame_id" />
        <input semantic="INTERPOLATION" source="#Motion_2_RHand_transform_interp_id" />
        <input semantic="OUTPUT" source="#Motion_2_RHand_transform_pose_id" />
      </sampler>
      <channel source="#Motion_2_RHand_transform_samp_id" target="RHand_bone_id/transform" />
    </animation>
    <animation id="Motion_2_Hips_transform_id" name="Motion_2_Hips_transform">
      <source id="Motion_2_Hips_transform_frame_id" name="Motion_2_Hips_transform_frame">
        <float_array id="Motion_2_Hips_transform_frame_array_id" count="21">0 0.033333335 0.06666667 0.1 0.13333334 0.16666667 0.2 0.23333333 0.26666668 0.3 0.33333334 0.36666667 0.4 0.43333334 0.46666667 0.5 0.53333336 0.56666666 0.6 0.6333333 0.6666667</float_array>
        <technique_common>
          <accessor source="#Motion_2_Hips_transform_frame_array_id" count="21" stride="1">
            <param name="TIME" type="float" />
          </accessor>
        </technique_common>
      </source>
      <source id="Motion_2_Hips_transform_interp_id" name="Motion_2_Hips_transform_interp">
        <Name_array id="Motion_2_Hips_transform_interp_array_id" count="21">LINEAR LINEAR LINEAR LINEAR LINEAR LINEAR LINEAR LINEAR LINEAR LINEAR LINEAR LINEAR LINEAR LINEAR LINEAR LINEAR LINEAR LINEAR LINEAR LINEAR LINEAR</Name_array>
        <technique_common>
          <accessor source="#Motion_2_Hips_transform_interp_array_id" count="21" stride="1">
            <param name="INTERPOLATION" type="Name" />
          </accessor>
        </technique_common>
      </source>
      <source id="Motion_2_Hips_transform_pose_id" name="Motion_2_Hips_transform_pose">
        <float_array id="Motion_2_Hips_transform_pose_array_id" count="336">-1.0000002 -1.5800023E-06 6.8981976E-08 -0.010002 1.5800023E-06 -0.9961952 0.08715272 0 -6.8981976E-08 0.08715272 0.99619496 0 0 0 0 1 -0.9963776 -0.07561483 -0.03891292 -0.010002 0.07916414 -0.99186933 -0.09964138 0 -0.03106216 -0.10236095 0.9942622 0 0 0 0 1 -0.9829118 -0.1342102 -0.1259822 -0.010002 0.15764612 -0.9670923 -0.19969963 0 -0.0950347 -0.21614777 0.9717245 0 0 0 0 1 -0.9769925 -0.13661218 -0.16377634 -0.010002 0.16802248 -0.96598923 -0.19655345 0 -0.13135457 -0.21954937 0.9667182 0 0 0 0 1 -0.9801742 -0.12752421 -0.15164301 -0.010002 0.15396301 -0.9719453 -0.17781243 0 -0.124713354 -0.19763461 0.9723102 0 0 0 0 1 -0.98348856 -0.12498463 -0.13087729 -0.010002 0.14656708 -0.974319 -0.17093982 0 -0.106151395 -0.18729968 0.9765504 0 0 0 0 1 -0.9871377 -0.12248636 -0.10274537 -0.010002 0.13823973 -0.97677565 -0.16370519 0 -0.08030751 -0.17580302 0.98114425 0 0 0 0 1 -0.9904858 -0.11757571 -0.07151073 -0.010002 0.1272326 -0.9804176 -0.15031016 0 -0.052437555 -0.15797856 0.98604923 0 0 0 0 1 -0.99502194 -0.09132512 -0.03989301 -0.010002 0.09603985 -0.9856018 -0.13916121 0 -0.026609702 -0.14229976 0.9894659 0 0 0 0 1 -0.99863446 -0.050144568 -0.014652184 -0.010002 0.0517179 -0.9885527 -0.14173521 0 -0.0073772045 -0.14229946 0.98979616 0 0 0 0 1 -1 -9.989263E-07 -2.4459557E-06 -0.010002 1.2083109E-06 -0.9961945 -0.08715861 0 -2.3495825E-06 -0.08715861 0.9961944 0 0 0 0 1 -0.9967563 0.070719175 -0.038420293 -0.010002 -0.07424592 -0.99223137 0.09982495 0 -0.031062271 0.10235368 0.994263 0 0 0 0 1 -0.9838898 0.12808901 -0.12471496 -0.010002 -0.15142304 -0.9679246 0.20048197 0 -0.09503514 0.21613692 0.9717269 0 0 0 0 1 -0.97692597 0.13706334 -0.16379611 -0.010002 -0.16846381 -0.96592605 0.19648585 0 -0.13128392 0.21954584 0.96672857 0 0 0 0 1 -0.98017466 0.12752214 -0.15164344 -0.010002 -0.15395993 -0.97194755 0.17780393 0 -0.124715544 0.19762594 0.9723117 0 0 0 0 1 -0.98356354 0.124517426 -0.13075776 -0.010002 -0.14608787 -0.9743805 0.17099835 0 -0.10611557 0.18728991 0.9765562 0 0 0 0 1 -0.98714364 0.12244949 -0.102731965 -0.010002 -0.13820082 -0.97678137 0.1637045 0 -0.08030111 0.17579748 0.98114574 0 0 0 0 1 -0.9904858 0.11757562 -0.07150985 -0.010002 -0.12723213 -0.9804182 0.15030564 0 -0.052437298 0.15797396 0.98604995 0 0 0 0 1 -0.99501216 0.091395505 -0.039967302 -0.010002 -0.09611981 -0.98559546 0.13914849 0 -0.02667405 0.14229612 0.98946464 0 0 0 0 1 -0.9987664 0.047554865 -0.014308779 -0.010002 -0.04910554 -0.9886848 0.14174473 0 -0.007406218 0.14227247 0.9897998 0 0 0 0 1 -0.9987664 0.047554865 -0.014308779 -0.010002 -0.04910554 -0.9886848 0.14174473 0 -0.007406218 0.14227247 0.9897998 0 0 0 0 1</float_array>
        <technique_common>
          <accessor source="#Motion_2_Hips_transform_pose_array_id" count="21" stride="16">
            <param name="TRANSFORM" type="float4x4" />
          </accessor>
        </technique_common>
      </source>
      <sampler id="Motion_2_Hips_transform_samp_id">
        <input semantic="INPUT" source="#Motion_2_Hips_transform_frame_id" />
        <input semantic="INTERPOLATION" source="#Motion_2_Hips_transform_interp_id" />
        <input semantic="OUTPUT" source="#Motion_2_Hips_transform_pose_id" />
      </sampler>
      <channel source="#Motion_2_Hips_transform_samp_id" target="Hips_bone_id/transform" />
    </animation>
    <animation id="Motion_2_LThigh_transform_id" name="Motion_2_LThigh_transform">
      <source id="Motion_2_LThigh_transform_frame_id" name="Motion_2_LThigh_transform_frame">
        <float_array id="Motion_2_LThigh_transform_frame_array_id" count="21">0 0.033333335 0.06666667 0.1 0.13333334 0.16666667 0.2 0.23333333 0.26666668 0.3 0.33333334 0.36666667 0.4 0.43333334 0.46666667 0.5 0.53333336 0.56666666 0.6 0.6333333 0.6666667</float_array>
        <technique_common>
          <accessor source="#Motion_2_LThigh_transform_frame_array_id" count="21" stride="1">
            <param name="TIME" type="float" />
          </accessor>
        </technique_common>
      </source>
      <source id="Motion_2_LThigh_transform_interp_id" name="Motion_2_LThigh_transform_interp">
        <Name_array id="Motion_2_LThigh_transform_interp_array_id" count="21">LINEAR LINEAR LINEAR LINEAR LINEAR LINEAR LINEAR LINEAR LINEAR LINEAR LINEAR LINEAR LINEAR LINEAR LINEAR LINEAR LINEAR LINEAR LINEAR LINEAR LINEAR</Name_array>
        <technique_common>
          <accessor source="#Motion_2_LThigh_transform_interp_array_id" count="21" stride="1">
            <param name="INTERPOLATION" type="Name" />
          </accessor>
        </technique_common>
      </source>
      <source id="Motion_2_LThigh_transform_pose_id" name="Motion_2_LThigh_transform_pose">
        <float_array id="Motion_2_LThigh_transform_pose_array_id" count="336">0.6976893 -0.15482895 -0.69946957 11.300003 0.09908305 0.98783785 -0.11982897 7.8 0.70951545 0.014297809 0.7045448 0 0 0 0 1 0.41749406 -0.27074286 -0.8674083 11.300003 0.042129196 0.9593216 -0.27915436 7.8 0.90770257 0.08000207 0.4119172 0 0 0 0 1 0.13969374 -0.33029363 -0.9334837 11.300003 -0.005689025 0.9424441 -0.33431542 7.8 0.99017847 0.0520124 0.12977445 0 0 0 0 1 0.05542755 -0.28398618 -0.9572249 11.300003 0.039549462 0.95857084 -0.28209537 7.8 0.99767905 -0.022221878 0.064362764 0 0 0 0 1 0.0034263134 -0.22606973 -0.9741052 11.300003 0.066504166 0.9720058 -0.22534859 7.8 0.9977804 -0.06400993 0.018364966 0 0 0 0 1 0.03447151 -0.17169309 -0.98454726 11.300003 0.07504009 0.9827965 -0.16876043 7.8 0.99658453 -0.068063065 0.046762347 0 0 0 0 1 0.2636258 -0.11058345 -0.9582655 11.300003 0.09013807 0.9918847 -0.08966546 7.8 0.96040434 -0.062738076 0.27145416 0 0 0 0 1 0.5031239 -0.069777854 -0.86139274 11.300003 0.08898365 0.9956202 -0.028677335 7.8 0.85962105 -0.062221617 0.5071293 0 0 0 0 1 0.5625639 -0.024786316 -0.8263822 11.300003 0.052471213 0.9986058 0.0057680923 7.8 0.82508713 -0.046606198 0.5630801 0 0 0 0 1 0.5056398 0.045525916 -0.86154264 11.300003 -0.021006428 0.9989604 0.0404587 7.8 0.8624889 -0.0023595951 0.5060705 0 0 0 0 1 0.70170534 0.13428724 -0.69969755 11.300003 -0.1009562 0.9909082 0.08893103 7.8 0.70527834 0.008235425 0.7088827 0 0 0 0 1 0.8951332 0.23596479 -0.37822896 11.300003 -0.19049187 0.96952933 0.15403156 7.8 0.40305012 -0.06582923 0.9128073 0 0 0 0 1 0.9502737 0.30258456 -0.07363753 11.300003 -0.29823688 0.95231146 0.06447959 7.8 0.0896364 -0.03931183 0.9951984 0 0 0 0 1 0.9601697 0.26466116 0.089603215 11.300003 -0.2595125 0.96354103 -0.06512995 7.8 -0.10357374 0.039282642 0.99384576 0 0 0 0 1 0.9661075 0.20535006 0.1564213 11.300003 -0.18878807 0.9753314 -0.11440124 7.8 -0.17605492 0.08099342 0.9810427 0 0 0 0 1 0.9761364 0.14115703 0.16502264 11.300003 -0.12475243 0.9865184 -0.105916485 7.8 -0.17774874 0.08280195 0.9805862 0 0 0 0 1 0.99581397 0.08806839 0.024465594 11.300003 -0.085759826 0.992833 -0.083233945 7.8 -0.03162053 0.08078735 0.99622965 0 0 0 0 1 0.99266976 0.05486048 -0.107689686 11.300003 -0.06349638 0.9948921 -0.07847252 7.8 0.102834575 0.08473521 0.9910827 0 0 0 0 1 0.9651606 0.008553031 -0.2615183 11.300003 -0.026962798 0.99739605 -0.066888906 7.8 0.26026523 0.0716098 0.962878 0 0 0 0 1 0.8543509 -0.06903994 -0.5150902 11.300003 0.045012593 0.99724233 -0.059005193 7.8 0.51774347 0.027225591 0.8551026 0 0 0 0 1 0.8543509 -0.06903994 -0.5150902 11.300003 0.045012593 0.99724233 -0.059005193 7.8 0.51774347 0.027225591 0.8551026 0 0 0 0 1</float_array>
        <technique_common>
          <accessor source="#Motion_2_LThigh_transform_pose_array_id" count="21" stride="16">
            <param name="TRANSFORM" type="float4x4" />
          </accessor>
        </technique_common>
      </source>
      <sampler id="Motion_2_LThigh_transform_samp_id">
        <input semantic="INPUT" source="#Motion_2_LThigh_transform_frame_id" />
        <input semantic="INTERPOLATION" source="#Motion_2_LThigh_transform_interp_id" />
        <input semantic="OUTPUT" source="#Motion_2_LThigh_transform_pose_id" />
      </sampler>
      <channel source="#Motion_2_LThigh_transform_samp_id" target="LThigh_bone_id/transform" />
    </animation>
    <animation id="Motion_2_LLeg_transform_id" name="Motion_2_LLeg_transform">
      <source id="Motion_2_LLeg_transform_frame_id" name="Motion_2_LLeg_transform_frame">
        <float_array id="Motion_2_LLeg_transform_frame_array_id" count="21">0 0.033333335 0.06666667 0.1 0.13333334 0.16666667 0.2 0.23333333 0.26666668 0.3 0.33333334 0.36666667 0.4 0.43333334 0.46666667 0.5 0.53333336 0.56666666 0.6 0.6333333 0.6666667</float_array>
        <technique_common>
          <accessor source="#Motion_2_LLeg_transform_frame_array_id" count="21" stride="1">
            <param name="TIME" type="float" />
          </accessor>
        </technique_common>
      </source>
      <source id="Motion_2_LLeg_transform_interp_id" name="Motion_2_LLeg_transform_interp">
        <Name_array id="Motion_2_LLeg_transform_interp_array_id" count="21">LINEAR LINEAR LINEAR LINEAR LINEAR LINEAR LINEAR LINEAR LINEAR LINEAR LINEAR LINEAR LINEAR LINEAR LINEAR LINEAR LINEAR LINEAR LINEAR LINEAR LINEAR</Name_array>
        <technique_common>
          <accessor source="#Motion_2_LLeg_transform_interp_array_id" count="21" stride="1">
            <param name="INTERPOLATION" type="Name" />
          </accessor>
        </technique_common>
      </source>
      <source id="Motion_2_LLeg_transform_pose_id" name="Motion_2_LLeg_transform_pose">
        <float_array id="Motion_2_LLeg_transform_pose_array_id" count="336">-0.3960328 0 0.91823626 34.299995 0 1 0 0 -0.91823626 0 -0.3960328 0 0 0 0 1 -0.40254247 0 0.9154013 34.299995 0 1 0 0 -0.9154013 0 -0.40254247 0 0 0 0 1 -0.13003445 0 0.9915095 34.299995 0 1 0 0 -0.9915095 0 -0.13003445 0 0 0 0 1 0.21436363 0 0.97675395 34.299995 0 1 0 0 -0.97675395 0 0.21436363 0 0 0 0 1 0.5603726 0 0.82824063 34.299995 0 1 0 0 -0.82824063 0 0.5603726 0 0 0 0 1 0.8482549 0 0.5295881 34.299995 0 1 0 0 -0.5295881 0 0.8482549 0 0 0 0 1 0.97197086 0 0.2351013 34.299995 0 1 0 0 -0.2351013 0 0.97197086 0 0 0 0 1 0.9940772 0 0.10867632 34.299995 0 1 0 0 -0.10867632 0 0.9940772 0 0 0 0 1 0.9279044 0 0.37281817 34.299995 0 1 0 0 -0.37281817 0 0.9279044 0 0 0 0 1 0.57861 0 0.8156044 34.299995 0 1 0 0 -0.8156044 0 0.57861 0 0 0 0 1 0.46500403 0 0.88530856 34.299995 0 1 0 0 -0.88530856 0 0.46500403 0 0 0 0 1 0.67315674 0 0.73949987 34.299995 0 1 0 0 -0.73949987 0 0.67315674 0 0 0 0 1 0.90764904 0 0.4197299 34.299995 0 1 0 0 -0.4197299 0 0.90764904 0 0 0 0 1 0.97720355 0 0.21230446 34.299995 0 1 0 0 -0.21230446 0 0.97720355 0 0 0 0 1 0.9327853 0 0.3604326 34.299995 0 1 0 0 -0.3604326 0 0.9327853 0 0 0 0 1 0.836783 0 0.54753464 34.299995 0 1 0 0 -0.54753464 0 0.836783 0 0 0 0 1 0.46520686 0 0.885202 34.299995 0 1 0 0 -0.885202 0 0.46520686 0 0 0 0 1 0.13906205 0 0.9902836 34.299995 0 1 0 0 -0.9902836 0 0.13906205 0 0 0 0 1 -0.15935278 0 0.98722166 34.299995 0 1 0 0 -0.98722166 0 -0.15935278 0 0 0 0 1 -0.3496307 0 0.93688756 34.299995 0 1 0 0 -0.93688756 0 -0.3496307 0 0 0 0 1 -0.3496307 0 0.93688756 34.299995 0 1 0 0 -0.93688756 0 -0.3496307 0 0 0 0 1</float_array>
        <technique_common>
          <accessor source="#Motion_2_LLeg_transform_pose_array_id" count="21" stride="16">
            <param name="TRANSFORM" type="float4x4" />
          </accessor>
        </technique_common>
      </source>
      <sampler id="Motion_2_LLeg_transform_samp_id">
        <input semantic="INPUT" source="#Motion_2_LLeg_transform_frame_id" />
        <input semantic="INTERPOLATION" source="#Motion_2_LLeg_transform_interp_id" />
        <input semantic="OUTPUT" source="#Motion_2_LLeg_transform_pose_id" />
      </sampler>
      <channel source="#Motion_2_LLeg_transform_samp_id" target="LLeg_bone_id/transform" />
    </animation>
    <animation id="Motion_2_LFoot_transform_id" name="Motion_2_LFoot_transform">
      <source id="Motion_2_LFoot_transform_frame_id" name="Motion_2_LFoot_transform_frame">
        <float_array id="Motion_2_LFoot_transform_frame_array_id" count="21">0 0.033333335 0.06666667 0.1 0.13333334 0.16666667 0.2 0.23333333 0.26666668 0.3 0.33333334 0.36666667 0.4 0.43333334 0.46666667 0.5 0.53333336 0.56666666 0.6 0.6333333 0.6666667</float_array>
        <technique_common>
          <accessor source="#Motion_2_LFoot_transform_frame_array_id" count="21" stride="1">
            <param name="TIME" type="float" />
          </accessor>
        </technique_common>
      </source>
      <source id="Motion_2_LFoot_transform_interp_id" name="Motion_2_LFoot_transform_interp">
        <Name_array id="Motion_2_LFoot_transform_interp_array_id" count="21">LINEAR LINEAR LINEAR LINEAR LINEAR LINEAR LINEAR LINEAR LINEAR LINEAR LINEAR LINEAR LINEAR LINEAR LINEAR LINEAR LINEAR LINEAR LINEAR LINEAR LINEAR</Name_array>
        <technique_common>
          <accessor source="#Motion_2_LFoot_transform_interp_array_id" count="21" stride="1">
            <param name="INTERPOLATION" type="Name" />
          </accessor>
        </technique_common>
      </source>
      <source id="Motion_2_LFoot_transform_pose_id" name="Motion_2_LFoot_transform_pose">
        <float_array id="Motion_2_LFoot_transform_pose_array_id" count="336">0.15359873 0.17054471 -0.97330457 34.3 -0.056135036 0.9849086 0.16371924 0 0.9865374 0.029489435 0.16085422 0 0 0 0 1 0.20326322 0.1988881 -0.9587114 34.3 -0.0694868 0.97961336 0.18849188 0 0.97665524 0.028304301 0.2129395 0 0 0 0 1 0.41025716 0.20564692 -0.8884809 34.3 -0.05649115 0.9781034 0.20030598 0 0.9102185 -0.031985655 0.4128912 0 0 0 0 1 0.42860705 0.13395533 -0.89350545 34.3 0.013026204 0.9879288 0.15435995 0 0.9033971 -0.07779874 0.42168832 0 0 0 0 1 0.45119542 0.074625365 -0.8892996 34.3 0.057737105 0.991969 0.11253437 0 0.89055544 -0.10212057 0.44326323 0 0 0 0 1 0.4942475 0.02751916 -0.8688855 34.3 0.0647056 0.9955617 0.06833766 0 0.86690974 -0.08999748 0.4902733 0 0 0 0 1 0.3897124 0.027946707 -0.9205125 34.3 0.03023636 0.9986123 0.043118823 0 0.92044014 -0.044636887 0.3883266 0 0 0 0 1 -0.12211549 0.039092917 -0.99174565 34.3 0.0053069293 0.99923545 0.038734697 0 0.9925017 -0.0005330164 -0.122229576 0 0 0 0 1 0.08417857 -0.016619783 -0.9963121 34.3 -0.0025522024 0.999854 -0.016894503 0 0.9964474 0.0039649457 0.08412391 0 0 0 0 1 -0.1416744 -0.060755394 -0.98804706 34.3 0.021459237 0.99769175 -0.06442545 0 0.9896806 -0.030330183 -0.14004362 0 0 0 0 1 -0.49975574 -0.06400488 -0.8637981 34.3 0.022296635 0.995985 -0.08669939 0 0.8658791 -0.06258833 -0.49632215 0 0 0 0 1 -0.60571957 -0.06368517 -0.7931253 34.3 0.028571965 0.99440795 -0.101668224 0 0.7951648 -0.084243596 -0.60051274 0 0 0 0 1 -0.16272783 -0.05065353 -0.9853698 34.3 0.066909015 0.99581593 -0.06224014 0 0.9843997 -0.07605834 -0.15865779 0 0 0 0 1 0.501326 0.0024263412 -0.8652551 34.3 0.08739856 0.99473965 0.053427897 0 0.86083317 -0.10240684 0.4984768 0 0 0 0 1 0.59042054 0.010571452 -0.80702657 34.3 0.020726176 0.9993859 0.028254487 0 0.80682963 -0.033408605 0.58983886 0 0 0 0 1 0.66254634 0.009936197 -0.748955 34.3 0.00803349 0.9997602 0.020370215 0 0.7489778 -0.019512933 0.6623076 0 0 0 0 1 0.56099534 0.022602238 -0.82751036 34.3 -0.0062528765 0.9997144 0.023066718 0 0.8277954 -0.0077660033 0.5609765 0 0 0 0 1 0.41472894 0.05222849 -0.9084448 34.3 -0.019429732 0.9986321 0.04854337 0 0.9097375 -0.0024815015 0.41517645 0 0 0 0 1 0.22126055 0.11680281 -0.9681947 34.3 -0.011269763 0.99304146 0.11722486 0 0.97514963 -0.015025914 0.22103721 0 0 0 0 1 0.16838849 0.13632384 -0.9762485 34.3 -0.027355563 0.9906554 0.13361719 0 0.9853411 0.00420624 0.17054415 0 0 0 0 1 0.16838849 0.13632384 -0.9762485 34.3 -0.027355563 0.9906554 0.13361719 0 0.9853411 0.00420624 0.17054415 0 0 0 0 1</float_array>
        <technique_common>
          <accessor source="#Motion_2_LFoot_transform_pose_array_id" count="21" stride="16">
            <param name="TRANSFORM" type="float4x4" />
          </accessor>
        </technique_common>
      </source>
      <sampler id="Motion_2_LFoot_transform_samp_id">
        <input semantic="INPUT" source="#Motion_2_LFoot_transform_frame_id" />
        <input semantic="INTERPOLATION" source="#Motion_2_LFoot_transform_interp_id" />
        <input semantic="OUTPUT" source="#Motion_2_LFoot_transform_pose_id" />
      </sampler>
      <channel source="#Motion_2_LFoot_transform_samp_id" target="LFoot_bone_id/transform" />
    </animation>
    <animation id="Motion_2_RThigh_transform_id" name="Motion_2_RThigh_transform">
      <source id="Motion_2_RThigh_transform_frame_id" name="Motion_2_RThigh_transform_frame">
        <float_array id="Motion_2_RThigh_transform_frame_array_id" count="21">0 0.033333335 0.06666667 0.1 0.13333334 0.16666667 0.2 0.23333333 0.26666668 0.3 0.33333334 0.36666667 0.4 0.43333334 0.46666667 0.5 0.53333336 0.56666666 0.6 0.6333333 0.6666667</float_array>
        <technique_common>
          <accessor source="#Motion_2_RThigh_transform_frame_array_id" count="21" stride="1">
            <param name="TIME" type="float" />
          </accessor>
        </technique_common>
      </source>
      <source id="Motion_2_RThigh_transform_interp_id" name="Motion_2_RThigh_transform_interp">
        <Name_array id="Motion_2_RThigh_transform_interp_array_id" count="21">LINEAR LINEAR LINEAR LINEAR LINEAR LINEAR LINEAR LINEAR LINEAR LINEAR LINEAR LINEAR LINEAR LINEAR LINEAR LINEAR LINEAR LINEAR LINEAR LINEAR LINEAR</Name_array>
        <technique_common>
          <accessor source="#Motion_2_RThigh_transform_interp_array_id" count="21" stride="1">
            <param name="INTERPOLATION" type="Name" />
          </accessor>
        </technique_common>
      </source>
      <source id="Motion_2_RThigh_transform_pose_id" name="Motion_2_RThigh_transform_pose">
        <float_array id="Motion_2_RThigh_transform_pose_array_id" count="336">0.7015538 -0.13402063 -0.69990045 11.299995 0.10066522 0.9909452 -0.0888484 -7.8 0.7054705 -0.008123703 0.70869267 0 0 0 0 1 0.90214413 -0.24021116 -0.35837764 11.299995 0.19891798 0.9686918 -0.14855249 -7.8 0.38284147 0.06272802 0.92168194 0 0 0 0 1 0.95110214 -0.30554894 -0.045217372 11.299995 0.30309066 0.95143354 -0.053946633 -7.8 0.059504658 0.03760379 0.9975195 0 0 0 0 1 0.9598624 -0.26539358 0.09072146 11.299995 0.2601752 0.9633442 0.065397486 -7.8 -0.104752064 -0.039169118 0.99372673 0 0 0 0 1 0.95590353 -0.20592159 0.20939124 11.299995 0.18239745 0.975085 0.12625498 -7.8 -0.2301729 -0.082495145 0.9696468 0 0 0 0 1 0.97810036 -0.14189659 0.15226626 11.299995 0.12643267 0.9862002 0.10688251 -7.8 -0.16533127 -0.08529039 0.9825432 0 0 0 0 1 0.9955328 -0.09399948 0.008861838 11.299995 0.09289896 0.9919691 0.08583189 -7.8 -0.016858824 -0.08462521 0.99627024 0 0 0 0 1 0.98393583 -0.07857777 -0.160299 11.299995 0.09159984 0.99292785 0.0755233 -7.8 0.1532309 -0.088993445 0.984175 0 0 0 0 1 0.9378902 -0.044065807 -0.34412235 11.299995 0.06685817 0.996265 0.054644518 -7.8 0.34042913 -0.07425795 0.93733335 0 0 0 0 1 0.8469017 0.02805547 -0.53100884 11.299995 -0.008159921 0.9991753 0.039776515 -7.8 0.5316869 -0.029353809 0.84643215 0 0 0 0 1 0.7008507 0.11931001 -0.7032591 11.299995 -0.071612716 0.9927001 0.097047046 -7.8 0.70970404 -0.0176532 0.7042787 0 0 0 0 1 0.5083841 0.24233583 -0.8263286 11.299995 -0.04965812 0.9662392 0.25281584 -7.8 0.8596974 -0.08749362 0.5032546 0 0 0 0 1 0.31577384 0.31548637 -0.8948493 11.299995 -0.047261134 0.94716275 0.3172524 -7.8 0.94765675 -0.057888433 0.31399947 0 0 0 0 1 0.08622038 0.28711465 -0.9540079 11.299995 -0.0498603 0.95761746 0.28369474 -7.8 0.9950276 0.023106858 0.09688181 0 0 0 0 1 0.0036334395 0.22693744 -0.97390246 11.299995 -0.06533503 0.971882 0.22622286 -7.8 0.99785674 0.06280799 0.01835823 0 0 0 0 1 0.10450214 0.15921 -0.9816983 11.299995 -0.07963933 0.98527265 0.15131204 -7.8 0.99133086 0.062369358 0.11564249 0 0 0 0 1 0.31563646 0.10062108 -0.94353 11.299995 -0.08691431 0.99324733 0.07684789 -7.8 0.9448913 0.057750277 0.3222505 0 0 0 0 1 0.5057639 0.06404336 -0.86029136 11.299995 -0.0849037 0.9960943 0.024238294 -7.8 0.8584837 0.060783073 0.5092261 0 0 0 0 1 0.5747907 0.02390256 -0.81795126 11.299995 -0.05291231 0.9985671 -0.008001937 -7.8 0.816588 0.04787913 0.5752319 0 0 0 0 1 0.5054828 -0.048435442 -0.8614761 11.299995 0.020961126 0.99881786 -0.04385809 -7.8 0.862582 0.0041119996 0.5059005 0 0 0 0 1 0.5054828 -0.048435442 -0.8614761 11.299995 0.020961126 0.99881786 -0.04385809 -7.8 0.862582 0.0041119996 0.5059005 0 0 0 0 1</float_array>
        <technique_common>
          <accessor source="#Motion_2_RThigh_transform_pose_array_id" count="21" stride="16">
            <param name="TRANSFORM" type="float4x4" />
          </accessor>
        </technique_common>
      </source>
      <sampler id="Motion_2_RThigh_transform_samp_id">
        <input semantic="INPUT" source="#Motion_2_RThigh_transform_frame_id" />
        <input semantic="INTERPOLATION" source="#Motion_2_RThigh_transform_interp_id" />
        <input semantic="OUTPUT" source="#Motion_2_RThigh_transform_pose_id" />
      </sampler>
      <channel source="#Motion_2_RThigh_transform_samp_id" target="RThigh_bone_id/transform" />
    </animation>
    <animation id="Motion_2_RLeg_transform_id" name="Motion_2_RLeg_transform">
      <source id="Motion_2_RLeg_transform_frame_id" name="Motion_2_RLeg_transform_frame">
        <float_array id="Motion_2_RLeg_transform_frame_array_id" count="21">0 0.033333335 0.06666667 0.1 0.13333334 0.16666667 0.2 0.23333333 0.26666668 0.3 0.33333334 0.36666667 0.4 0.43333334 0.46666667 0.5 0.53333336 0.56666666 0.6 0.6333333 0.6666667</float_array>
        <technique_common>
          <accessor source="#Motion_2_RLeg_transform_frame_array_id" count="21" stride="1">
            <param name="TIME" type="float" />
          </accessor>
        </technique_common>
      </source>
      <source id="Motion_2_RLeg_transform_interp_id" name="Motion_2_RLeg_transform_interp">
        <Name_array id="Motion_2_RLeg_transform_interp_array_id" count="21">LINEAR LINEAR LINEAR LINEAR LINEAR LINEAR LINEAR LINEAR LINEAR LINEAR LINEAR LINEAR LINEAR LINEAR LINEAR LINEAR LINEAR LINEAR LINEAR LINEAR LINEAR</Name_array>
        <technique_common>
          <accessor source="#Motion_2_RLeg_transform_interp_array_id" count="21" stride="1">
            <param name="INTERPOLATION" type="Name" />
          </accessor>
        </technique_common>
      </source>
      <source id="Motion_2_RLeg_transform_pose_id" name="Motion_2_RLeg_transform_pose">
        <float_array id="Motion_2_RLeg_transform_pose_array_id" count="336">0.4650051 0 0.88530797 34.3 0 1 0 0 -0.88530797 0 0.4650051 0 0 0 0 1 0.6976295 0 0.71645874 34.3 0 1 0 0 -0.71645874 0 0.6976295 0 0 0 0 1 0.9490276 0 0.31519294 34.3 0 1 0 0 -0.31519294 0 0.9490276 0 0 0 0 1 0.98401284 0 0.17809759 34.3 0 1 0 0 -0.17809759 0 0.98401284 0 0 0 0 1 0.95477694 0 0.29732296 34.3 0 1 0 0 -0.29732296 0 0.95477694 0 0 0 0 1 0.7301316 0 0.6833066 34.3 0 1 0 0 -0.6833066 0 0.7301316 0 0 0 0 1 0.33906144 0 0.94076425 34.3 0 1 0 0 -0.94076425 0 0.33906144 0 0 0 0 1 -0.009841561 0 0.99995154 34.3 0 1 0 0 -0.99995154 0 -0.009841561 0 0 0 0 1 -0.24106956 0 0.97050786 34.3 0 1 0 0 -0.97050786 0 -0.24106956 0 0 0 0 1 -0.3630296 0 0.93177766 34.3 0 1 0 0 -0.93177766 0 -0.3630296 0 0 0 0 1 -0.39911163 0 0.91690236 34.3 0 1 0 0 -0.91690236 0 -0.39911163 0 0 0 0 1 -0.3339193 0 0.94260174 34.3 0 1 0 0 -0.94260174 0 -0.3339193 0 0 0 0 1 -0.097263694 0 0.9952587 34.3 0 1 0 0 -0.9952587 0 -0.097263694 0 0 0 0 1 0.17159969 0 0.9851667 34.3 0 1 0 0 -0.9851667 0 0.17159969 0 0 0 0 1 0.5434169 0 0.839463 34.3 0 1 0 0 -0.839463 0 0.5434169 0 0 0 0 1 0.8482777 0 0.5295517 34.3 0 1 0 0 -0.5295517 0 0.8482777 0 0 0 0 1 0.9719799 0 0.23506393 34.3 0 1 0 0 -0.23506393 0 0.9719799 0 0 0 0 1 0.9940849 0 0.10860602 34.3 0 1 0 0 -0.10860602 0 0.9940849 0 0 0 0 1 0.9416813 0 0.33650592 34.3 0 1 0 0 -0.33650592 0 0.9416813 0 0 0 0 1 0.578606 0 0.8156072 34.3 0 1 0 0 -0.8156072 0 0.578606 0 0 0 0 1 0.578606 0 0.8156072 34.3 0 1 0 0 -0.8156072 0 0.578606 0 0 0 0 1</float_array>
        <technique_common>
          <accessor source="#Motion_2_RLeg_transform_pose_array_id" count="21" stride="16">
            <param name="TRANSFORM" type="float4x4" />
          </accessor>
        </technique_common>
      </source>
      <sampler id="Motion_2_RLeg_transform_samp_id">
        <input semantic="INPUT" source="#Motion_2_RLeg_transform_frame_id" />
        <input semantic="INTERPOLATION" source="#Motion_2_RLeg_transform_interp_id" />
        <input semantic="OUTPUT" source="#Motion_2_RLeg_transform_pose_id" />
      </sampler>
      <channel source="#Motion_2_RLeg_transform_samp_id" target="RLeg_bone_id/transform" />
    </animation>
    <animation id="Motion_2_RFoot_transform_id" name="Motion_2_RFoot_transform">
      <source id="Motion_2_RFoot_transform_frame_id" name="Motion_2_RFoot_transform_frame">
        <float_array id="Motion_2_RFoot_transform_frame_array_id" count="21">0 0.033333335 0.06666667 0.1 0.13333334 0.16666667 0.2 0.23333333 0.26666668 0.3 0.33333334 0.36666667 0.4 0.43333334 0.46666667 0.5 0.53333336 0.56666666 0.6 0.6333333 0.6666667</float_array>
        <technique_common>
          <accessor source="#Motion_2_RFoot_transform_frame_array_id" count="21" stride="1">
            <param name="TIME" type="float" />
          </accessor>
        </technique_common>
      </source>
      <source id="Motion_2_RFoot_transform_interp_id" name="Motion_2_RFoot_transform_interp">
        <Name_array id="Motion_2_RFoot_transform_interp_array_id" count="21">LINEAR LINEAR LINEAR LINEAR LINEAR LINEAR LINEAR LINEAR LINEAR LINEAR LINEAR LINEAR LINEAR LINEAR LINEAR LINEAR LINEAR LINEAR LINEAR LINEAR LINEAR</Name_array>
        <technique_common>
          <accessor source="#Motion_2_RFoot_transform_interp_array_id" count="21" stride="1">
            <param name="INTERPOLATION" type="Name" />
          </accessor>
        </technique_common>
      </source>
      <source id="Motion_2_RFoot_transform_pose_id" name="Motion_2_RFoot_transform_pose">
        <float_array id="Motion_2_RFoot_transform_pose_array_id" count="336">-0.49950528 0.064030565 -0.8639412 34.3 -0.02229512 0.9959843 0.08670725 0 0.8660238 0.062572405 -0.49607182 0 0 0 0 1 -0.5958669 0.06468329 -0.8004739 34.3 -0.028895684 0.9943788 0.10186175 0 0.8025631 0.083826296 -0.5906484 0 0 0 0 1 -0.22338736 0.053205073 -0.9732766 34.3 -0.071151964 0.99495524 0.07072102 0 0.97212934 0.08504873 -0.21847475 0 0 0 0 1 0.4550652 0.0035132393 -0.89045113 34.3 -0.0753149 0.9965608 -0.034557797 0 0.8872673 0.0827903 0.45376474 0 0 0 0 1 0.66686684 -0.02692103 -0.7446905 34.3 0.028494362 0.9995376 -0.010617344 0 0.74463195 -0.014139125 0.66732556 0 0 0 0 1 0.5749882 0.035573564 -0.817388 34.3 0.04808046 0.9958585 0.07716279 0 0.8167477 -0.08366808 0.5708965 0 0 0 0 1 0.45745152 0.04371074 -0.8881596 34.3 0.02204963 0.9979265 0.060469694 0 0.88896114 -0.047245547 0.45553917 0 0 0 0 1 0.32633322 -0.002150143 -0.94525236 34.3 -0.0052944124 0.9999776 -0.004102436 0 0.94523996 0.006343317 0.3263145 0 0 0 0 1 0.22227919 0.0034890976 -0.97497684 34.3 -0.061998412 0.99802035 -0.010563094 0 0.9730099 0.06279497 0.2220555 0 0 0 0 1 0.1743663 -0.0070742294 -0.98465556 34.3 -0.07573281 0.9969159 -0.020573359 0 0.98176426 0.07815802 0.17329276 0 0 0 0 1 0.16219425 -0.045772567 -0.9856966 34.3 -0.051410966 0.99717486 -0.054765135 0 0.9854186 0.059558205 0.15938282 0 0 0 0 1 0.19437057 -0.0622633 -0.97895014 34.3 -0.01895203 0.99755883 -0.06720978 0 0.9807451 0.031616695 0.19271606 0 0 0 0 1 0.28146696 -0.07772328 -0.956418 34.3 -0.0012011491 0.99668497 -0.08134906 0 0.9595701 0.024045873 0.2804405 0 0 0 0 1 0.35977292 -0.08071929 -0.9295417 34.3 -0.0040567033 0.996106 -0.0880697 0 0.9330311 0.035455965 0.3580445 0 0 0 0 1 0.43328345 -0.0581996 -0.8993766 34.3 -0.031434298 0.9963297 -0.07961732 0 0.90070933 0.06276813 0.42986375 0 0 0 0 1 0.49321377 -0.0346054 -0.86921954 34.3 -0.038002603 0.99739736 -0.061271906 0 0.8690777 0.063252755 0.490615 0 0 0 0 1 0.38864964 -0.038186558 -0.92059404 34.3 -0.020217566 0.9985468 -0.049955375 0 0.92116386 0.03802731 0.38731283 0 0 0 0 1 -0.12316501 -0.042032644 -0.9914958 34.3 -0.019867392 0.9990068 -0.039883114 0 0.99218744 0.014786235 -0.123877764 0 0 0 0 1 0.10922027 0.0048675425 -0.99400574 34.3 -0.056045853 0.9984274 -0.0012690648 0 0.99243635 0.0558485 0.109321356 0 0 0 0 1 -0.14069319 0.06122843 -0.9881581 34.3 -0.02152357 0.9976608 0.06488175 0 0.98981917 0.030397117 -0.13904619 0 0 0 0 1 -0.14069319 0.06122843 -0.9881581 34.3 -0.02152357 0.9976608 0.06488175 0 0.98981917 0.030397117 -0.13904619 0 0 0 0 1</float_array>
        <technique_common>
          <accessor source="#Motion_2_RFoot_transform_pose_array_id" count="21" stride="16">
            <param name="TRANSFORM" type="float4x4" />
          </accessor>
        </technique_common>
      </source>
      <sampler id="Motion_2_RFoot_transform_samp_id">
        <input semantic="INPUT" source="#Motion_2_RFoot_transform_frame_id" />
        <input semantic="INTERPOLATION" source="#Motion_2_RFoot_transform_interp_id" />
        <input semantic="OUTPUT" source="#Motion_2_RFoot_transform_pose_id" />
      </sampler>
      <channel source="#Motion_2_RFoot_transform_samp_id" target="RFoot_bone_id/transform" />
    </animation>
  </library_animations>
  <library_visual_scenes>
    <visual_scene id="tr0010_00_fi_00_clip_id" name="tr0010_00_fi_00_clip">
      <node id="tr0010_00_fi_bone_id" name="tr0010_00_fi" sid="tr0010_00_fi" type="JOINT">
        <matrix sid="transform">1 0 0 0 0 1 0 0 0 0 1 0 0 0 0 1</matrix>
        <node id="Origin_bone_id" name="Origin" sid="Origin" type="JOINT">
          <matrix sid="transform">1 0 0 0 0 1 0 0 0 0 1 0 0 0 0 1</matrix>
          <node id="Waist_bone_id" name="Waist" sid="Waist" type="JOINT">
            <matrix sid="transform">3.1391647E-07 -1 0 0 1 3.1391647E-07 0 90.6 0 0 1 0 0 0 0 1</matrix>
            <node id="Spine2_bone_id" name="Spine2" sid="Spine2" type="JOINT">
              <matrix sid="transform">1 0 0 13.5 0 1 0 0 0 0 1 0 0 0 0 1</matrix>
              <node id="Spine3_bone_id" name="Spine3" sid="Spine3" type="JOINT">
                <matrix sid="transform">0.99582267 0 0.091308646 13.5 0 1 0 0 -0.091308646 0 0.99582267 0 0 0 0 1</matrix>
                <node id="Neck_bone_id" name="Neck" sid="Neck" type="JOINT">
                  <matrix sid="transform">0.9344343 0 -0.35613555 16.800177 0 1 0 0 0.35613555 0 0.9344343 0 0 0 0 1</matrix>
                  <node id="Head_bone_id" name="Head" sid="Head" type="JOINT">
                    <matrix sid="transform">0.9630491 0 0.2693259 5.120195 0 1 0 0 -0.2693259 0 0.9630491 0 0 0 0 1</matrix>
                    <node id="Loc_Head_bone_id" name="Loc_Head" sid="Loc_Head" type="JOINT">
                      <matrix sid="transform">3.1391647E-07 1 0 32.577007 -1 3.1391647E-07 0 0 0 0 1 0 0 0 0 1</matrix>
                    </node>
                    <node id="Loc_Eye_bone_id" name="Loc_Eye" sid="Loc_Eye" type="JOINT">
                      <matrix sid="transform">3.1391647E-07 1 0 9.7 -1 3.1391647E-07 0 0 0 0 1 13.307532 0 0 0 1</matrix>
                    </node>
                    <node id="Loc_Mouth_bone_id" name="Loc_Mouth" sid="Loc_Mouth" type="JOINT">
                      <matrix sid="transform">3.1391647E-07 1 0 1.681966 -1 3.1391647E-07 0 0 0 0 1 12.569548 0 0 0 1</matrix>
                    </node>
                  </node>
                </node>
                <node id="LShoulder_bone_id" name="LShoulder" sid="LShoulder" type="JOINT">
                  <matrix sid="transform">-0.44190192 0.8924043 -0.09130862 14.18017 -0.89614785 -0.44375566 -2.0772681E-07 -4.5 -0.040518906 0.08182593 0.9958226 -0.240233 0 0 0 1</matrix>
                  <node id="LArm_bone_id" name="LArm" sid="LArm" type="JOINT">
                    <matrix sid="transform">0.8961479 -0.44375545 0 12.619566 0.44375545 0.8961479 0 0 0 0 1 0 0 0 0 1</matrix>
                    <node id="LForeArm_bone_id" name="LForeArm" sid="LForeArm" type="JOINT">
                      <matrix sid="transform">1 0 0 22.6 0 1 0 0 0 0 1 0 0 0 0 1</matrix>
                      <node id="LHand_bone_id" name="LHand" sid="LHand" type="JOINT">
                        <matrix sid="transform">1 0 0 22.600002 0 1 0 0 0 0 1 0 0 0 0 1</matrix>
                      </node>
                    </node>
                  </node>
                </node>
                <node id="RShoulder_bone_id" name="RShoulder" sid="RShoulder" type="JOINT">
                  <matrix sid="transform">-0.44190192 -0.8924043 -0.09130862 14.18017 0.89614785 -0.44375566 2.0772681E-07 4.5 -0.040518906 -0.08182593 0.9958226 -0.240233 0 0 0 1</matrix>
                  <node id="RArm_bone_id" name="RArm" sid="RArm" type="JOINT">
                    <matrix sid="transform">0.8961479 0.44375545 0 12.619566 -0.44375545 0.8961479 0 0 0 0 1 0 0 0 0 1</matrix>
                    <node id="RForeArm_bone_id" name="RForeArm" sid="RForeArm" type="JOINT">
                      <matrix sid="transform">1 0 0 22.6 0 1 0 0 0 0 1 0 0 0 0 1</matrix>
                      <node id="RHand_bone_id" name="RHand" sid="RHand" type="JOINT">
                        <matrix sid="transform">1 0 0 22.600002 0 1 0 0 0 0 1 0 0 0 0 1</matrix>
                      </node>
                    </node>
                  </node>
                </node>
              </node>
            </node>
            <node id="Hips_bone_id" name="Hips" sid="Hips" type="JOINT">
              <matrix sid="transform">-1 -3.2584137E-07 0 -0.010002 3.2584137E-07 -1 0 0 0 0 1 0 0 0 0 1</matrix>
              <node id="LThigh_bone_id" name="LThigh" sid="LThigh" type="JOINT">
                <matrix sid="transform">1 0 0 11.300003 0 1 0 7.8 0 0 1 0 0 0 0 1</matrix>
                <node id="LLeg_bone_id" name="LLeg" sid="LLeg" type="JOINT">
                  <matrix sid="transform">1 0 0 34.299995 0 1 0 0 0 0 1 0 0 0 0 1</matrix>
                  <node id="LFoot_bone_id" name="LFoot" sid="LFoot" type="JOINT">
                    <matrix sid="transform">3.1391647E-07 0 -1 34.3 0 1 0 0 1 0 3.1391647E-07 0 0 0 0 1</matrix>
                  </node>
                </node>
              </node>
              <node id="RThigh_bone_id" name="RThigh" sid="RThigh" type="JOINT">
                <matrix sid="transform">1 0 0 11.299995 0 1 0 -7.8 0 0 1 0 0 0 0 1</matrix>
                <node id="RLeg_bone_id" name="RLeg" sid="RLeg" type="JOINT">
                  <matrix sid="transform">1 0 0 34.3 0 1 0 0 0 0 1 0 0 0 0 1</matrix>
                  <node id="RFoot_bone_id" name="RFoot" sid="RFoot" type="JOINT">
                    <matrix sid="transform">3.1391647E-07 0 -1 34.3 0 1 0 0 1 0 3.1391647E-07 0 0 0 0 1</matrix>
                  </node>
                </node>
              </node>
            </node>
          </node>
          <node id="CamTgtHead_bone_id" name="CamTgtHead" sid="CamTgtHead" type="JOINT">
            <matrix sid="transform">1 0 0 0 0 1 0 148.961 0 0 1 0 0 0 0 1</matrix>
          </node>
          <node id="CamTgtBust_bone_id" name="CamTgtBust" sid="CamTgtBust" type="JOINT">
            <matrix sid="transform">1 0 0 0 0 1 0 117.6 0 0 1 0 0 0 0 1</matrix>
          </node>
          <node id="CamTgtBody_bone_id" name="CamTgtBody" sid="CamTgtBody" type="JOINT">
            <matrix sid="transform">1 0 0 0 0 1 0 90.6 0 0 1 0 0 0 0 1</matrix>
          </node>
          <node id="CamTgtFoot_bone_id" name="CamTgtFoot" sid="CamTgtFoot" type="JOINT">
            <matrix sid="transform">1 0 0 0 0 1 0 0 0 0 1 0 0 0 0 1</matrix>
          </node>
        </node>
        <node id="tr0010_00_fi_BodySkin_bone_id" name="tr0010_00_fi_BodySkin" sid="tr0010_00_fi_BodySkin" type="JOINT">
          <matrix sid="transform">1 0 0 0 0 1 0 0 0 0 1 0 0 0 0 1</matrix>
        </node>
        <node id="tr0010_00_fi_HeadSkin_bone_id" name="tr0010_00_fi_HeadSkin" sid="tr0010_00_fi_HeadSkin" type="JOINT">
          <matrix sid="transform">1 0 0 0 0 1 0 0 0 0 1 0 0 0 0 1</matrix>
        </node>
        <node id="tr0010_00_fi_FaceSkin_bone_id" name="tr0010_00_fi_FaceSkin" sid="tr0010_00_fi_FaceSkin" type="JOINT">
          <matrix sid="transform">1 0 0 0 0 1 0 0 0 0 1 0 0 0 0 1</matrix>
        </node>
      </node>
    </visual_scene>
  </library_visual_scenes>
  <scene>
    <instance_visual_scene url="#tr0010_00_fi_00_clip_id" />
  </scene>
</COLLADA>