<?xml version="1.0" encoding="utf-8"?>
<COLLADA xmlns:xsi="http://www.w3.org/2001/XMLSchema-instance" xmlns:xsd="http://www.w3.org/2001/XMLSchema" version="1.4.1" xmlns="http://www.collada.org/2005/11/COLLADASchema">
  <asset>
    <created>2026-02-17T05:46:53.1234457-05:00</created>
    <modified>2026-02-17T05:46:53.1234458-05:00</modified>
    <up_axis>Y_UP</up_axis>
  </asset>
  <library_animations>
    <animation id="Motion_9_Waist_transform_id" name="Motion_9_Waist_transform">
      <source id="Motion_9_Waist_transform_frame_id" name="Motion_9_Waist_transform_frame">
        <float_array id="Motion_9_Waist_transform_frame_array_id" count="11">0 0.033333335 0.06666667 0.1 0.13333334 0.16666667 0.2 0.23333333 0.26666668 0.3 0.33333334</float_array>
        <technique_common>
          <accessor source="#Motion_9_Waist_transform_frame_array_id" count="11" stride="1">
            <param name="TIME" type="float" />
          </accessor>
        </technique_common>
      </source>
      <source id="Motion_9_Waist_transform_interp_id" name="Motion_9_Waist_transform_interp">
        <Name_array id="Motion_9_Waist_transform_interp_array_id" count="11">LINEAR LINEAR LINEAR LINEAR LINEAR LINEAR LINEAR LINEAR LINEAR LINEAR LINEAR</Name_array>
        <technique_common>
          <accessor source="#Motion_9_Waist_transform_interp_array_id" count="11" stride="1">
            <param name="INTERPOLATION" type="Name" />
          </accessor>
        </technique_common>
      </source>
      <source id="Motion_9_Waist_transform_pose_id" name="Motion_9_Waist_transform_pose">
        <float_array id="Motion_9_Waist_transform_pose_array_id" count="176">0.13771981 -1.4936128 -0.012432483 0.880044 1.4914259 0.1368253 0.08323471 33.165596 -0.08174622 -0.020003468 1.4976373 0.20354569 0 0 0 1 0.123102665 -1.4948527 -0.016165122 0.89383066 1.4943506 0.122591436 0.04344838 32.929493 -0.041978143 -0.019669984 1.4992836 -0.0030147806 0 0 0 1 0.109907895 -1.4958513 -0.018690929 0.90897685 1.4959456 0.109794796 0.009609069 32.937645 -0.008214379 -0.019344483 1.4998528 -0.17759389 0 0 0 1 0.100312114 -1.496513 -0.019659387 0.9164748 1.4965705 0.10049155 -0.013369284 32.986725 0.014655273 -0.01872037 1.4998116 -0.29773697 0 0 0 1 0.09650105 -1.4967692 -0.019220212 0.9073167 1.4967198 0.09677455 -0.021545801 33.088863 0.022739414 -0.017792055 1.4997221 -0.37681025 0 0 0 1 0.09967098 -1.4965795 -0.017751217 0.8724945 1.4965408 0.09990129 -0.019633276 33.257847 0.020770753 -0.016405702 1.4997665 -0.4269761 0 0 0 1 0.10789615 -1.4960352 -0.015403304 0.8030007 1.4960467 0.108032584 -0.0131744 33.493847 0.014248952 -0.014415061 1.499863 -0.46039703 0 0 0 1 0.118559 -1.4952588 -0.012054177 0.6898271 1.4953017 0.11858779 -0.0031439764 33.787006 0.004087025 -0.011767922 1.4999483 -0.48279566 0 0 0 1 0.12903884 -1.4944195 -0.007703997 0.5239661 1.4944125 0.12898842 0.009666931 34.13609 -0.008968483 -0.008506907 1.499949 -0.49432433 0 0 0 1 0.13672131 -1.4937541 -0.0024071254 0.2964097 1.4935608 0.13666418 0.02446748 34.539867 -0.024146289 -0.004626941 1.4997985 -0.49879014 0 0 0 1 0.13672131 -1.4937541 -0.0024071254 0.2964097 1.4935608 0.13666418 0.02446748 34.539867 -0.024146289 -0.004626941 1.4997985 -0.49879014 0 0 0 1</float_array>
        <technique_common>
          <accessor source="#Motion_9_Waist_transform_pose_array_id" count="11" stride="16">
            <param name="TRANSFORM" type="float4x4" />
          </accessor>
        </technique_common>
      </source>
      <sampler id="Motion_9_Waist_transform_samp_id">
        <input semantic="INPUT" source="#Motion_9_Waist_transform_frame_id" />
        <input semantic="INTERPOLATION" source="#Motion_9_Waist_transform_interp_id" />
        <input semantic="OUTPUT" source="#Motion_9_Waist_transform_pose_id" />
      </sampler>
      <channel source="#Motion_9_Waist_transform_samp_id" target="Waist_bone_id/transform" />
    </animation>
    <animation id="Motion_9_RShoulder_transform_id" name="Motion_9_RShoulder_transform">
      <source id="Motion_9_RShoulder_transform_frame_id" name="Motion_9_RShoulder_transform_frame">
        <float_array id="Motion_9_RShoulder_transform_frame_array_id" count="11">0 0.033333335 0.06666667 0.1 0.13333334 0.16666667 0.2 0.23333333 0.26666668 0.3 0.33333334</float_array>
        <technique_common>
          <accessor source="#Motion_9_RShoulder_transform_frame_array_id" count="11" stride="1">
            <param name="TIME" type="float" />
          </accessor>
        </technique_common>
      </source>
      <source id="Motion_9_RShoulder_transform_interp_id" name="Motion_9_RShoulder_transform_interp">
        <Name_array id="Motion_9_RShoulder_transform_interp_array_id" count="11">LINEAR LINEAR LINEAR LINEAR LINEAR LINEAR LINEAR LINEAR LINEAR LINEAR LINEAR</Name_array>
        <technique_common>
          <accessor source="#Motion_9_RShoulder_transform_interp_array_id" count="11" stride="1">
            <param name="INTERPOLATION" type="Name" />
          </accessor>
        </technique_common>
      </source>
      <source id="Motion_9_RShoulder_transform_pose_id" name="Motion_9_RShoulder_transform_pose">
        <float_array id="Motion_9_RShoulder_transform_pose_array_id" count="176">0.64210176 -0.7661789 0.025984831 -0.13824703 0.76661867 0.6416862 -0.023121353 0.697446 0.001040984 0.03476672 0.9993949 0 0 0 0 1 0.65084946 -0.7590728 0.014268792 -0.13824703 0.75903916 0.6501957 -0.033242445 0.697446 0.015955927 0.0324664 0.9993455 0 0 0 0 1 0.6600767 -0.75119144 0.0031972164 -0.13824703 0.7506226 0.65939826 -0.041948814 0.697446 0.029403355 0.030089336 0.99911463 0 0 0 0 1 0.6699373 -0.7423957 -0.0057082567 -0.13824703 0.7413817 0.6693888 -0.047663335 0.697446 0.039206102 0.027699452 0.9988471 0 0 0 0 1 0.67996025 -0.73316866 -0.0108509455 -0.13824703 0.73197585 0.679577 -0.04885094 0.697446 0.043190032 0.025274066 0.9987471 0 0 0 0 1 0.6897689 -0.7239453 -0.01104426 -0.13824703 0.7229238 0.68947804 -0.044735014 0.697446 0.040000483 0.022872662 0.99893785 0 0 0 0 1 0.69884235 -0.7152386 -0.0072909184 -0.13824703 0.71458125 0.69857657 -0.03693877 0.697446 0.0315133 0.020604426 0.99929094 0 0 0 0 1 0.7066239 -0.70758814 -0.0012967009 -0.13824703 0.70729536 0.7063819 -0.027529834 0.697446 0.020395748 0.018536089 0.99962014 0 0 0 0 1 0.7126193 -0.70153195 0.005157088 -0.13824703 0.7014889 0.7124394 -0.018530803 0.697446 0.009325838 0.016823048 0.999815 0 0 0 0 1 0.71642023 -0.6975939 0.010235122 -0.13824703 0.6976683 0.7163216 -0.011928111 0.697446 0.0009893384 0.01568626 0.9998765 0 0 0 0 1 0.71642023 -0.6975939 0.010235122 -0.13824703 0.6976683 0.7163216 -0.011928111 0.697446 0.0009893384 0.01568626 0.9998765 0 0 0 0 1</float_array>
        <technique_common>
          <accessor source="#Motion_9_RShoulder_transform_pose_array_id" count="11" stride="16">
            <param name="TRANSFORM" type="float4x4" />
          </accessor>
        </technique_common>
      </source>
      <sampler id="Motion_9_RShoulder_transform_samp_id">
        <input semantic="INPUT" source="#Motion_9_RShoulder_transform_frame_id" />
        <input semantic="INTERPOLATION" source="#Motion_9_RShoulder_transform_interp_id" />
        <input semantic="OUTPUT" source="#Motion_9_RShoulder_transform_pose_id" />
      </sampler>
      <channel source="#Motion_9_RShoulder_transform_samp_id" target="RShoulder_bone_id/transform" />
    </animation>
    <animation id="Motion_9_RArm1_transform_id" name="Motion_9_RArm1_transform">
      <source id="Motion_9_RArm1_transform_frame_id" name="Motion_9_RArm1_transform_frame">
        <float_array id="Motion_9_RArm1_transform_frame_array_id" count="11">0 0.033333335 0.06666667 0.1 0.13333334 0.16666667 0.2 0.23333333 0.26666668 0.3 0.33333334</float_array>
        <technique_common>
          <accessor source="#Motion_9_RArm1_transform_frame_array_id" count="11" stride="1">
            <param name="TIME" type="float" />
          </accessor>
        </technique_common>
      </source>
      <source id="Motion_9_RArm1_transform_interp_id" name="Motion_9_RArm1_transform_interp">
        <Name_array id="Motion_9_RArm1_transform_interp_array_id" count="11">LINEAR LINEAR LINEAR LINEAR LINEAR LINEAR LINEAR LINEAR LINEAR LINEAR LINEAR</Name_array>
        <technique_common>
          <accessor source="#Motion_9_RArm1_transform_interp_array_id" count="11" stride="1">
            <param name="INTERPOLATION" type="Name" />
          </accessor>
        </technique_common>
      </source>
      <source id="Motion_9_RArm1_transform_pose_id" name="Motion_9_RArm1_transform_pose">
        <float_array id="Motion_9_RArm1_transform_pose_array_id" count="176">0.97937024 -0.044525713 -0.077109806 7.019952 0.040343452 0.98215777 -0.05353103 -1.0486E-07 0.07935164 0.050200924 0.9789172 0 0 0 0 1 0.9804714 -0.02829689 -0.07047834 7.019952 0.02463943 0.9828137 -0.05098867 -1.0486E-07 0.071827 0.049122475 0.97955257 0 0 0 0 1 0.981207 -0.011773206 -0.06468995 7.019952 0.008573448 0.9832109 -0.048520323 -1.0486E-07 0.06518896 0.047898374 0.9800772 0 0 0 0 1 0.9815471 0.0046856822 -0.06027989 7.019952 -0.0075190826 0.9833334 -0.046159245 -1.0486E-07 0.059991986 0.04658202 0.9804723 0 0 0 0 1 0.98149 0.02072184 -0.05778622 7.019952 -0.023299573 0.9831885 -0.043917667 -1.0486E-07 0.056787897 0.045248937 0.9807254 0 0 0 0 1 0.98105234 0.035979643 -0.05774849 7.019952 -0.038427755 0.98280543 -0.041790005 -1.0486E-07 0.056124832 0.043992978 0.98082054 0 0 0 0 1 0.9802389 0.049990643 -0.06105864 7.019952 -0.052463032 0.98223966 -0.039751768 -1.0486E-07 0.0589031 0.04292639 0.98070484 0 0 0 0 1 0.97909653 0.062177673 -0.06784065 7.019952 -0.06482238 0.9815774 -0.037795004 -1.0486E-07 0.065255746 0.042145632 0.98033637 0 0 0 0 1 0.9777209 0.07202713 -0.07729917 7.019952 -0.07495395 0.9809231 -0.03596597 -1.0486E-07 0.07439099 0.04169367 0.97970486 0 0 0 0 1 0.97634065 0.079054885 -0.08725062 7.019952 -0.08229058 0.98038954 -0.03441474 -1.0486E-07 0.084127344 0.041512325 0.9789246 0 0 0 0 1 0.97634065 0.079054885 -0.08725062 7.019952 -0.08229058 0.98038954 -0.03441474 -1.0486E-07 0.084127344 0.041512325 0.9789246 0 0 0 0 1</float_array>
        <technique_common>
          <accessor source="#Motion_9_RArm1_transform_pose_array_id" count="11" stride="16">
            <param name="TRANSFORM" type="float4x4" />
          </accessor>
        </technique_common>
      </source>
      <sampler id="Motion_9_RArm1_transform_samp_id">
        <input semantic="INPUT" source="#Motion_9_RArm1_transform_frame_id" />
        <input semantic="INTERPOLATION" source="#Motion_9_RArm1_transform_interp_id" />
        <input semantic="OUTPUT" source="#Motion_9_RArm1_transform_pose_id" />
      </sampler>
      <channel source="#Motion_9_RArm1_transform_samp_id" target="RArm1_bone_id/transform" />
    </animation>
    <animation id="Motion_9_RArm2_transform_id" name="Motion_9_RArm2_transform">
      <source id="Motion_9_RArm2_transform_frame_id" name="Motion_9_RArm2_transform_frame">
        <float_array id="Motion_9_RArm2_transform_frame_array_id" count="11">0 0.033333335 0.06666667 0.1 0.13333334 0.16666667 0.2 0.23333333 0.26666668 0.3 0.33333334</float_array>
        <technique_common>
          <accessor source="#Motion_9_RArm2_transform_frame_array_id" count="11" stride="1">
            <param name="TIME" type="float" />
          </accessor>
        </technique_common>
      </source>
      <source id="Motion_9_RArm2_transform_interp_id" name="Motion_9_RArm2_transform_interp">
        <Name_array id="Motion_9_RArm2_transform_interp_array_id" count="11">LINEAR LINEAR LINEAR LINEAR LINEAR LINEAR LINEAR LINEAR LINEAR LINEAR LINEAR</Name_array>
        <technique_common>
          <accessor source="#Motion_9_RArm2_transform_interp_array_id" count="11" stride="1">
            <param name="INTERPOLATION" type="Name" />
          </accessor>
        </technique_common>
      </source>
      <source id="Motion_9_RArm2_transform_pose_id" name="Motion_9_RArm2_transform_pose">
        <float_array id="Motion_9_RArm2_transform_pose_array_id" count="176">1.0005498 -0.06628908 0.012782426 2.500008 0.066820264 0.99963313 -0.04860694 4.424E-08 -0.00952663 0.049359266 1.0015635 0 0 0 0 1 1.0010182 -0.060035538 0.0039329757 2.500008 0.060141362 1.000113 -0.047450133 4.424E-08 -0.001081434 0.04761101 1.0016929 0 0 0 0 1 1.0014722 -0.05162409 -0.0067178407 2.500008 0.051253673 1.000685 -0.045797914 4.424E-08 0.009059144 0.045402803 1.001755 0 0 0 0 1 1.0018303 -0.040324815 -0.019141527 2.500008 0.039451785 1.0013146 -0.043681063 4.424E-08 0.020864613 0.042894155 1.0016892 0 0 0 0 1 1.0019796 -0.027070912 -0.030983783 2.500008 0.025785182 1.0018693 -0.041098624 4.424E-08 0.0320567 0.04027619 1.0015022 0 0 0 0 1 1.0019587 -0.0124630425 -0.039737653 2.500008 0.010949208 1.0022589 -0.038126543 4.424E-08 0.04018029 0.03766805 1.0013106 0 0 0 0 1 1.0019015 0.0028814867 -0.04290385 2.500008 -0.0043777074 1.0024256 -0.03493447 4.424E-08 0.042777043 0.035097335 1.0012964 0 0 0 0 1 1.0019419 0.018327363 -0.037845515 2.500008 -0.019539816 1.0023388 -0.032119937 4.424E-08 0.03723202 0.032836303 1.0015945 0 0 0 0 1 1.0018946 0.033148125 -0.027653228 2.500008 -0.033970177 1.002014 -0.030167243 4.424E-08 0.026627883 0.031082846 1.0019884 0 0 0 0 1 1.0015974 0.046623632 -0.016897984 2.500008 -0.047089256 1.0015166 -0.029034305 4.424E-08 0.015522675 0.029798806 1.002261 0 0 0 0 1 1.0015974 0.046623632 -0.016897984 2.500008 -0.047089256 1.0015166 -0.029034305 4.424E-08 0.015522675 0.029798806 1.002261 0 0 0 0 1</float_array>
        <technique_common>
          <accessor source="#Motion_9_RArm2_transform_pose_array_id" count="11" stride="16">
            <param name="TRANSFORM" type="float4x4" />
          </accessor>
        </technique_common>
      </source>
      <sampler id="Motion_9_RArm2_transform_samp_id">
        <input semantic="INPUT" source="#Motion_9_RArm2_transform_frame_id" />
        <input semantic="INTERPOLATION" source="#Motion_9_RArm2_transform_interp_id" />
        <input semantic="OUTPUT" source="#Motion_9_RArm2_transform_pose_id" />
      </sampler>
      <channel source="#Motion_9_RArm2_transform_samp_id" target="RArm2_bone_id/transform" />
    </animation>
    <animation id="Motion_9_RArm3_transform_id" name="Motion_9_RArm3_transform">
      <source id="Motion_9_RArm3_transform_frame_id" name="Motion_9_RArm3_transform_frame">
        <float_array id="Motion_9_RArm3_transform_frame_array_id" count="11">0 0.033333335 0.06666667 0.1 0.13333334 0.16666667 0.2 0.23333333 0.26666668 0.3 0.33333334</float_array>
        <technique_common>
          <accessor source="#Motion_9_RArm3_transform_frame_array_id" count="11" stride="1">
            <param name="TIME" type="float" />
          </accessor>
        </technique_common>
      </source>
      <source id="Motion_9_RArm3_transform_interp_id" name="Motion_9_RArm3_transform_interp">
        <Name_array id="Motion_9_RArm3_transform_interp_array_id" count="11">LINEAR LINEAR LINEAR LINEAR LINEAR LINEAR LINEAR LINEAR LINEAR LINEAR LINEAR</Name_array>
        <technique_common>
          <accessor source="#Motion_9_RArm3_transform_interp_array_id" count="11" stride="1">
            <param name="INTERPOLATION" type="Name" />
          </accessor>
        </technique_common>
      </source>
      <source id="Motion_9_RArm3_transform_pose_id" name="Motion_9_RArm3_transform_pose">
        <float_array id="Motion_9_RArm3_transform_pose_array_id" count="176">1.0757498 -0.368927 0.12681046 2.5000007 0.37464318 1.0801623 -0.03164052 -6.68538E-06 -0.109564245 0.07121248 1.1368892 0 0 0 0 1 1.0509292 -0.32742453 0.12079512 2.5000007 0.33189982 1.056056 -0.024339644 -6.68538E-06 -0.10801377 0.059296247 1.1004965 0 0 0 0 1 1.033622 -0.27557388 0.11520854 2.5000007 0.27873942 1.0394577 -0.016554508 -6.68538E-06 -0.10702229 0.045771886 1.0695686 0 0 0 0 1 1.0222034 -0.21756825 0.110322304 2.5000007 0.21937954 1.0286502 -0.00789054 -6.68538E-06 -0.10625626 0.030735275 1.0450284 0 0 0 0 1 1.0155609 -0.15820082 0.10652106 2.5000007 0.15880412 1.0223982 0.00026678198 -6.68538E-06 -0.10529631 0.016130915 1.0277758 0 0 0 0 1 1.0137254 -0.10177573 0.103916414 2.5000007 0.10145952 1.0206808 0.006667795 -6.68538E-06 -0.104064524 0.0037009616 1.0187833 0 0 0 0 1 1.0177854 -0.05232801 0.102385744 2.5000007 0.05149329 1.0245873 0.010061777 -6.68538E-06 -0.10276453 -0.004858841 1.0190758 0 0 0 0 1 1.0297145 -0.01257392 0.101026095 2.5000007 0.011733697 1.0360447 0.008999759 -6.68538E-06 -0.10112499 -0.007821164 1.0297518 0 0 0 0 1 1.0462005 0.0094599165 0.09853631 2.5000007 -0.009658191 1.0516162 0.0017366456 -6.68538E-06 -0.09851639 -0.0026365127 1.0462419 0 0 0 0 1 1.061782 0.016721388 0.09449004 2.5000007 -0.016134096 1.0657855 -0.007370237 -6.68538E-06 -0.09459258 0.0059093675 1.0618881 0 0 0 0 1 1.061782 0.016721388 0.09449004 2.5000007 -0.016134096 1.0657855 -0.007370237 -6.68538E-06 -0.09459258 0.0059093675 1.0618881 0 0 0 0 1</float_array>
        <technique_common>
          <accessor source="#Motion_9_RArm3_transform_pose_array_id" count="11" stride="16">
            <param name="TRANSFORM" type="float4x4" />
          </accessor>
        </technique_common>
      </source>
      <sampler id="Motion_9_RArm3_transform_samp_id">
        <input semantic="INPUT" source="#Motion_9_RArm3_transform_frame_id" />
        <input semantic="INTERPOLATION" source="#Motion_9_RArm3_transform_interp_id" />
        <input semantic="OUTPUT" source="#Motion_9_RArm3_transform_pose_id" />
      </sampler>
      <channel source="#Motion_9_RArm3_transform_samp_id" target="RArm3_bone_id/transform" />
    </animation>
    <animation id="Motion_9_RHand_transform_id" name="Motion_9_RHand_transform">
      <source id="Motion_9_RHand_transform_frame_id" name="Motion_9_RHand_transform_frame">
        <float_array id="Motion_9_RHand_transform_frame_array_id" count="11">0 0.033333335 0.06666667 0.1 0.13333334 0.16666667 0.2 0.23333333 0.26666668 0.3 0.33333334</float_array>
        <technique_common>
          <accessor source="#Motion_9_RHand_transform_frame_array_id" count="11" stride="1">
            <param name="TIME" type="float" />
          </accessor>
        </technique_common>
      </source>
      <source id="Motion_9_RHand_transform_interp_id" name="Motion_9_RHand_transform_interp">
        <Name_array id="Motion_9_RHand_transform_interp_array_id" count="11">LINEAR LINEAR LINEAR LINEAR LINEAR LINEAR LINEAR LINEAR LINEAR LINEAR LINEAR</Name_array>
        <technique_common>
          <accessor source="#Motion_9_RHand_transform_interp_array_id" count="11" stride="1">
            <param name="INTERPOLATION" type="Name" />
          </accessor>
        </technique_common>
      </source>
      <source id="Motion_9_RHand_transform_pose_id" name="Motion_9_RHand_transform_pose">
        <float_array id="Motion_9_RHand_transform_pose_array_id" count="176">0.9429057 -0.1075211 0.108193405 2.5000236 0.11053233 0.9479377 -0.020038955 1.269785E-05 -0.10518541 0.03228115 0.9488125 0 0 0 0 1 0.9252489 -0.09873194 0.106099494 2.5000236 0.10175003 0.9297074 -0.02017134 1.269785E-05 -0.10331774 0.0314189 0.9302952 0 0 0 0 1 0.90718037 -0.08707724 0.10362722 2.5000236 0.08999933 0.91104627 -0.019723153 1.269785E-05 -0.10122751 0.029624382 0.91115063 0 0 0 0 1 0.89289755 -0.07231035 0.101302356 2.5000236 0.07503622 0.8962274 -0.018803975 1.269785E-05 -0.09941719 0.02699516 0.8956364 0 0 0 0 1 0.8867578 -0.056540996 0.099711664 2.5000236 0.05897988 0.889677 -0.017363453 1.269785E-05 -0.098374784 0.023734463 0.8883984 0 0 0 0 1 0.8933318 -0.041000582 0.09942179 2.5000236 0.0430686 0.8960286 -0.015324697 1.269785E-05 -0.09859308 0.019915884 0.8941464 0 0 0 0 1 0.91689456 -0.026515897 0.100929394 2.5000236 0.028165318 0.9196131 -0.0128579335 1.269785E-05 -0.10050204 0.015809763 0.9171901 0 0 0 0 1 0.95318884 -0.0136695765 0.10375103 2.5000236 0.014886671 0.9562166 -0.010115003 1.269785E-05 -0.10358818 0.011634467 0.9532337 0 0 0 0 1 0.9950004 -0.0036734603 0.10707448 2.5000236 0.0044564414 0.9986914 -0.0070101456 1.269785E-05 -0.10704501 0.0074315933 0.9949825 0 0 0 0 1 1.041527 0.0015442357 0.11078702 2.5000236 -0.0011718347 1.046234 -0.00359905 1.269785E-05 -0.11079161 0.0034510724 1.0415219 0 0 0 0 1 1.041527 0.0015442357 0.11078702 2.5000236 -0.0011718347 1.046234 -0.00359905 1.269785E-05 -0.11079161 0.0034510724 1.0415219 0 0 0 0 1</float_array>
        <technique_common>
          <accessor source="#Motion_9_RHand_transform_pose_array_id" count="11" stride="16">
            <param name="TRANSFORM" type="float4x4" />
          </accessor>
        </technique_common>
      </source>
      <sampler id="Motion_9_RHand_transform_samp_id">
        <input semantic="INPUT" source="#Motion_9_RHand_transform_frame_id" />
        <input semantic="INTERPOLATION" source="#Motion_9_RHand_transform_interp_id" />
        <input semantic="OUTPUT" source="#Motion_9_RHand_transform_pose_id" />
      </sampler>
      <channel source="#Motion_9_RHand_transform_samp_id" target="RHand_bone_id/transform" />
    </animation>
    <animation id="Motion_9_LShoulder_transform_id" name="Motion_9_LShoulder_transform">
      <source id="Motion_9_LShoulder_transform_frame_id" name="Motion_9_LShoulder_transform_frame">
        <float_array id="Motion_9_LShoulder_transform_frame_array_id" count="11">0 0.033333335 0.06666667 0.1 0.13333334 0.16666667 0.2 0.23333333 0.26666668 0.3 0.33333334</float_array>
        <technique_common>
          <accessor source="#Motion_9_LShoulder_transform_frame_array_id" count="11" stride="1">
            <param name="TIME" type="float" />
          </accessor>
        </technique_common>
      </source>
      <source id="Motion_9_LShoulder_transform_interp_id" name="Motion_9_LShoulder_transform_interp">
        <Name_array id="Motion_9_LShoulder_transform_interp_array_id" count="11">LINEAR LINEAR LINEAR LINEAR LINEAR LINEAR LINEAR LINEAR LINEAR LINEAR LINEAR</Name_array>
        <technique_common>
          <accessor source="#Motion_9_LShoulder_transform_interp_array_id" count="11" stride="1">
            <param name="INTERPOLATION" type="Name" />
          </accessor>
        </technique_common>
      </source>
      <source id="Motion_9_LShoulder_transform_pose_id" name="Motion_9_LShoulder_transform_pose">
        <float_array id="Motion_9_LShoulder_transform_pose_array_id" count="176">0.654969 0.7556496 0.0030512055 -0.13825002 -0.7554175 0.65485847 -0.022464361 -0.697446 -0.018973295 0.012408525 0.999743 0 0 0 0 1 0.6604906 0.75078154 -0.00890338 -0.13825002 -0.7508341 0.6604351 -0.008582644 -0.697446 -0.00056358706 0.012353716 0.9999235 0 0 0 0 1 0.6660529 0.7456882 -0.01796218 -0.13825002 -0.74578655 0.66618276 0.0017456445 -0.697446 0.013267801 0.012233261 0.99983716 0 0 0 0 1 0.67177904 0.7404439 -0.021349868 -0.13825002 -0.7405222 0.6720093 0.005518874 -0.697446 0.018433725 0.012102587 0.9997568 0 0 0 0 1 0.6776327 0.73511696 -0.020420322 -0.13825002 -0.73520076 0.6778346 0.0044880994 -0.697446 0.017140878 0.011971753 0.9997814 0 0 0 0 1 0.68336374 0.729875 -0.017216885 -0.13825002 -0.72997004 0.6834783 0.0010861028 -0.697446 0.012560086 0.011825606 0.99985117 0 0 0 0 1 0.6886188 0.7250071 -0.012994814 -0.13825002 -0.7250934 0.68864304 -0.0032153297 -0.697446 0.0066176513 0.011636591 0.9999104 0 0 0 0 1 0.6931137 0.7207817 -0.008196473 -0.13825002 -0.7208283 0.6930679 -0.007962322 -0.697446 -5.8383215E-05 0.011427043 0.99993473 0 0 0 0 1 0.6965811 0.71746856 -0.0036920202 -0.13825002 -0.7174509 0.69650084 -0.012278961 -0.697446 -0.006238274 0.011202136 0.9999178 0 0 0 0 1 0.69877994 0.7153365 -0.0003641001 -0.13825002 -0.71525675 0.6986942 -0.0152994795 -0.697446 -0.010689883 0.010951395 0.9998829 0 0 0 0 1 0.69877994 0.7153365 -0.0003641001 -0.13825002 -0.71525675 0.6986942 -0.0152994795 -0.697446 -0.010689883 0.010951395 0.9998829 0 0 0 0 1</float_array>
        <technique_common>
          <accessor source="#Motion_9_LShoulder_transform_pose_array_id" count="11" stride="16">
            <param name="TRANSFORM" type="float4x4" />
          </accessor>
        </technique_common>
      </source>
      <sampler id="Motion_9_LShoulder_transform_samp_id">
        <input semantic="INPUT" source="#Motion_9_LShoulder_transform_frame_id" />
        <input semantic="INTERPOLATION" source="#Motion_9_LShoulder_transform_interp_id" />
        <input semantic="OUTPUT" source="#Motion_9_LShoulder_transform_pose_id" />
      </sampler>
      <channel source="#Motion_9_LShoulder_transform_samp_id" target="LShoulder_bone_id/transform" />
    </animation>
    <animation id="Motion_9_LArm1_transform_id" name="Motion_9_LArm1_transform">
      <source id="Motion_9_LArm1_transform_frame_id" name="Motion_9_LArm1_transform_frame">
        <float_array id="Motion_9_LArm1_transform_frame_array_id" count="11">0 0.033333335 0.06666667 0.1 0.13333334 0.16666667 0.2 0.23333333 0.26666668 0.3 0.33333334</float_array>
        <technique_common>
          <accessor source="#Motion_9_LArm1_transform_frame_array_id" count="11" stride="1">
            <param name="TIME" type="float" />
          </accessor>
        </technique_common>
      </source>
      <source id="Motion_9_LArm1_transform_interp_id" name="Motion_9_LArm1_transform_interp">
        <Name_array id="Motion_9_LArm1_transform_interp_array_id" count="11">LINEAR LINEAR LINEAR LINEAR LINEAR LINEAR LINEAR LINEAR LINEAR LINEAR LINEAR</Name_array>
        <technique_common>
          <accessor source="#Motion_9_LArm1_transform_interp_array_id" count="11" stride="1">
            <param name="INTERPOLATION" type="Name" />
          </accessor>
        </technique_common>
      </source>
      <source id="Motion_9_LArm1_transform_pose_id" name="Motion_9_LArm1_transform_pose">
        <float_array id="Motion_9_LArm1_transform_pose_array_id" count="176">0.9667168 0.14246769 -0.048185468 7.0199327 -0.14465164 0.96658236 -0.044212535 1.0614E-07 0.04116783 0.05081139 0.97615767 0 0 0 0 1 0.96228397 0.1349062 -0.050110105 7.0199327 -0.13713765 0.9623239 -0.042743955 1.0614E-07 0.043634485 0.049336597 0.9707539 0 0 0 0 1 0.95817155 0.12702978 -0.05232 7.0199327 -0.12931216 0.9584078 -0.041224934 1.0614E-07 0.046393055 0.0477971 0.96567583 0 0 0 0 1 0.9543581 0.11896693 -0.05527917 7.0199327 -0.12132521 0.954837 -0.03968356 1.0614E-07 0.049890973 0.046275936 0.96092546 0 0 0 0 1 0.9508189 0.1108434 -0.05944342 7.0199327 -0.11332198 0.951619 -0.038153805 1.0614E-07 0.054570213 0.044847798 0.9564973 0 0 0 0 1 0.94746643 0.10292679 -0.06584004 7.0199327 -0.10561214 0.9487493 -0.036637723 1.0614E-07 0.061440323 0.043615606 0.95233625 0 0 0 0 1 0.9442495 0.09569669 -0.0743585 7.0199327 -0.098667644 0.9462134 -0.0351995 1.0614E-07 0.070368595 0.04261987 0.94843346 0 0 0 0 1 0.94122446 0.089588046 -0.08375954 7.0199327 -0.092874795 0.9440164 -0.033947602 1.0614E-07 0.080099635 0.041858662 0.9448688 0 0 0 0 1 0.9385038 0.08503032 -0.09277347 7.0199327 -0.08862129 0.9421709 -0.032965474 1.0614E-07 0.08934952 0.041355766 0.9417711 0 0 0 0 1 0.93633574 0.08246846 -0.09932482 7.0199327 -0.08628425 0.9406908 -0.03235551 1.0614E-07 0.09602862 0.04111939 0.9394035 0 0 0 0 1 0.93633574 0.08246846 -0.09932482 7.0199327 -0.08628425 0.9406908 -0.03235551 1.0614E-07 0.09602862 0.04111939 0.9394035 0 0 0 0 1</float_array>
        <technique_common>
          <accessor source="#Motion_9_LArm1_transform_pose_array_id" count="11" stride="16">
            <param name="TRANSFORM" type="float4x4" />
          </accessor>
        </technique_common>
      </source>
      <sampler id="Motion_9_LArm1_transform_samp_id">
        <input semantic="INPUT" source="#Motion_9_LArm1_transform_frame_id" />
        <input semantic="INTERPOLATION" source="#Motion_9_LArm1_transform_interp_id" />
        <input semantic="OUTPUT" source="#Motion_9_LArm1_transform_pose_id" />
      </sampler>
      <channel source="#Motion_9_LArm1_transform_samp_id" target="LArm1_bone_id/transform" />
    </animation>
    <animation id="Motion_9_LArm2_transform_id" name="Motion_9_LArm2_transform">
      <source id="Motion_9_LArm2_transform_frame_id" name="Motion_9_LArm2_transform_frame">
        <float_array id="Motion_9_LArm2_transform_frame_array_id" count="11">0 0.033333335 0.06666667 0.1 0.13333334 0.16666667 0.2 0.23333333 0.26666668 0.3 0.33333334</float_array>
        <technique_common>
          <accessor source="#Motion_9_LArm2_transform_frame_array_id" count="11" stride="1">
            <param name="TIME" type="float" />
          </accessor>
        </technique_common>
      </source>
      <source id="Motion_9_LArm2_transform_interp_id" name="Motion_9_LArm2_transform_interp">
        <Name_array id="Motion_9_LArm2_transform_interp_array_id" count="11">LINEAR LINEAR LINEAR LINEAR LINEAR LINEAR LINEAR LINEAR LINEAR LINEAR LINEAR</Name_array>
        <technique_common>
          <accessor source="#Motion_9_LArm2_transform_interp_array_id" count="11" stride="1">
            <param name="INTERPOLATION" type="Name" />
          </accessor>
        </technique_common>
      </source>
      <source id="Motion_9_LArm2_transform_pose_id" name="Motion_9_LArm2_transform_pose">
        <float_array id="Motion_9_LArm2_transform_pose_array_id" count="176">0.9558883 0.12780996 -0.0041158227 2.4999995 -0.12787189 0.9551059 -0.038681827 2.672E-08 -0.0010502613 0.038886 0.96361893 0 0 0 0 1 0.94693565 0.119228266 -0.018492268 2.4999995 -0.11985662 0.94635564 -0.035915762 2.672E-08 0.0138468575 0.037949573 0.95373607 0 0 0 0 1 0.93845534 0.10996966 -0.032930013 2.4999995 -0.111124925 0.93830127 -0.033437975 2.672E-08 0.028791688 0.037061065 0.94428474 0 0 0 0 1 0.9305145 0.10008499 -0.046427358 2.4999995 -0.10169832 0.9309695 -0.031354 2.672E-08 0.042778015 0.03617477 0.93535626 0 0 0 0 1 0.92333096 0.08998524 -0.055929083 2.4999995 -0.091892496 0.92435426 -0.029840317 2.672E-08 0.052736856 0.035175715 0.9272254 0 0 0 0 1 0.9171586 0.08050603 -0.05901687 2.4999995 -0.08248046 0.9184239 -0.028957779 2.672E-08 0.056224417 0.03406403 0.9202296 0 0 0 0 1 0.91196537 0.072277255 -0.05763359 2.4999995 -0.074177735 0.9131865 -0.028540846 2.672E-08 0.05516608 0.033059258 0.9143797 0 0 0 0 1 0.9076122 0.06590542 -0.05450553 2.4999995 -0.0676903 0.90867126 -0.02844092 2.672E-08 0.052272357 0.032362618 0.90955734 0 0 0 0 1 0.90401614 0.062012266 -0.05155361 2.4999995 -0.06369988 0.90491885 -0.028507158 2.672E-08 0.049453225 0.03201267 0.90569204 0 0 0 0 1 0.9011893 0.06124973 -0.049154293 2.4999995 -0.06286348 0.9019639 -0.028620914 2.672E-08 0.047072902 0.031928714 0.9028148 0 0 0 0 1 0.9011893 0.06124973 -0.049154293 2.4999995 -0.06286348 0.9019639 -0.028620914 2.672E-08 0.047072902 0.031928714 0.9028148 0 0 0 0 1</float_array>
        <technique_common>
          <accessor source="#Motion_9_LArm2_transform_pose_array_id" count="11" stride="16">
            <param name="TRANSFORM" type="float4x4" />
          </accessor>
        </technique_common>
      </source>
      <sampler id="Motion_9_LArm2_transform_samp_id">
        <input semantic="INPUT" source="#Motion_9_LArm2_transform_frame_id" />
        <input semantic="INTERPOLATION" source="#Motion_9_LArm2_transform_interp_id" />
        <input semantic="OUTPUT" source="#Motion_9_LArm2_transform_pose_id" />
      </sampler>
      <channel source="#Motion_9_LArm2_transform_samp_id" target="LArm2_bone_id/transform" />
    </animation>
    <animation id="Motion_9_LArm3_transform_id" name="Motion_9_LArm3_transform">
      <source id="Motion_9_LArm3_transform_frame_id" name="Motion_9_LArm3_transform_frame">
        <float_array id="Motion_9_LArm3_transform_frame_array_id" count="11">0 0.033333335 0.06666667 0.1 0.13333334 0.16666667 0.2 0.23333333 0.26666668 0.3 0.33333334</float_array>
        <technique_common>
          <accessor source="#Motion_9_LArm3_transform_frame_array_id" count="11" stride="1">
            <param name="TIME" type="float" />
          </accessor>
        </technique_common>
      </source>
      <source id="Motion_9_LArm3_transform_interp_id" name="Motion_9_LArm3_transform_interp">
        <Name_array id="Motion_9_LArm3_transform_interp_array_id" count="11">LINEAR LINEAR LINEAR LINEAR LINEAR LINEAR LINEAR LINEAR LINEAR LINEAR LINEAR</Name_array>
        <technique_common>
          <accessor source="#Motion_9_LArm3_transform_interp_array_id" count="11" stride="1">
            <param name="INTERPOLATION" type="Name" />
          </accessor>
        </technique_common>
      </source>
      <source id="Motion_9_LArm3_transform_pose_id" name="Motion_9_LArm3_transform_pose">
        <float_array id="Motion_9_LArm3_transform_pose_array_id" count="176">0.8607104 0.42879474 0.10943423 2.5000007 -0.42798662 0.8672682 -0.032830395 1.163756E-05 -0.11128336 -0.018970503 0.9726715 0 0 0 0 1 0.8562641 0.41333076 0.10762557 2.5000007 -0.4125559 0.86263806 -0.031466253 1.163756E-05 -0.109180644 -0.018007828 0.9629683 0 0 0 0 1 0.8634566 0.38202855 0.10605789 2.5000007 -0.38129625 0.8696236 -0.028957136 1.163756E-05 -0.107256085 -0.016028512 0.9567535 0 0 0 0 1 0.8787031 0.33782563 0.10425618 2.5000007 -0.33713144 0.88460684 -0.02565807 1.163756E-05 -0.10512376 -0.013130571 0.95373666 0 0 0 0 1 0.8980218 0.28452596 0.10172892 2.5000007 -0.28385293 0.9035746 -0.022013871 1.163756E-05 -0.1023544 -0.009494023 0.95358384 0 0 0 0 1 0.91808885 0.22620805 0.09802345 2.5000007 -0.22552902 0.9231774 -0.018508883 1.163756E-05 -0.09851167 -0.0053213155 0.9559124 0 0 0 0 1 0.9365843 0.1674628 0.092742406 2.5000007 -0.16674495 0.94107944 -0.015657533 1.163756E-05 -0.0931718 -0.0008288354 0.9602895 0 0 0 0 1 0.95234454 0.11341558 0.08554238 2.5000007 -0.112628445 0.9561139 -0.013969782 1.163756E-05 -0.08594164 0.0037826095 0.966228 0 0 0 0 1 0.9652656 0.06962021 0.0761114 2.5000007 -0.068748 0.96819156 -0.013895092 1.163756E-05 -0.07647344 0.008378881 0.9731872 0 0 0 0 1 0.97589594 0.041918065 0.064125486 2.5000007 -0.0409775 0.9778979 -0.015747733 1.163756E-05 -0.06447782 0.012963523 0.98057127 0 0 0 0 1 0.97589594 0.041918065 0.064125486 2.5000007 -0.0409775 0.9778979 -0.015747733 1.163756E-05 -0.06447782 0.012963523 0.98057127 0 0 0 0 1</float_array>
        <technique_common>
          <accessor source="#Motion_9_LArm3_transform_pose_array_id" count="11" stride="16">
            <param name="TRANSFORM" type="float4x4" />
          </accessor>
        </technique_common>
      </source>
      <sampler id="Motion_9_LArm3_transform_samp_id">
        <input semantic="INPUT" source="#Motion_9_LArm3_transform_frame_id" />
        <input semantic="INTERPOLATION" source="#Motion_9_LArm3_transform_interp_id" />
        <input semantic="OUTPUT" source="#Motion_9_LArm3_transform_pose_id" />
      </sampler>
      <channel source="#Motion_9_LArm3_transform_samp_id" target="LArm3_bone_id/transform" />
    </animation>
    <animation id="Motion_9_LHand_transform_id" name="Motion_9_LHand_transform">
      <source id="Motion_9_LHand_transform_frame_id" name="Motion_9_LHand_transform_frame">
        <float_array id="Motion_9_LHand_transform_frame_array_id" count="11">0 0.033333335 0.06666667 0.1 0.13333334 0.16666667 0.2 0.23333333 0.26666668 0.3 0.33333334</float_array>
        <technique_common>
          <accessor source="#Motion_9_LHand_transform_frame_array_id" count="11" stride="1">
            <param name="TIME" type="float" />
          </accessor>
        </technique_common>
      </source>
      <source id="Motion_9_LHand_transform_interp_id" name="Motion_9_LHand_transform_interp">
        <Name_array id="Motion_9_LHand_transform_interp_array_id" count="11">LINEAR LINEAR LINEAR LINEAR LINEAR LINEAR LINEAR LINEAR LINEAR LINEAR LINEAR</Name_array>
        <technique_common>
          <accessor source="#Motion_9_LHand_transform_interp_array_id" count="11" stride="1">
            <param name="INTERPOLATION" type="Name" />
          </accessor>
        </technique_common>
      </source>
      <source id="Motion_9_LHand_transform_pose_id" name="Motion_9_LHand_transform_pose">
        <float_array id="Motion_9_LHand_transform_pose_array_id" count="176">0.9765139 -0.07780379 0.16723731 2.5000007 0.075729206 0.99036545 0.019024137 1.163756E-05 -0.16616282 -0.005879132 0.9914988 0 0 0 0 1 0.9736728 -0.041553248 0.16237843 2.5000007 0.04007868 0.9866774 0.0125441225 1.163756E-05 -0.16051711 -0.0056974785 0.9880953 0 0 0 0 1 0.97390807 -0.0074943523 0.15054435 2.5000007 0.006566398 0.98501474 0.006760716 1.163756E-05 -0.14842251 -0.005597615 0.98813015 0 0 0 0 1 0.9773024 0.02253589 0.1340962 2.5000007 -0.023031728 0.9860249 0.0021517794 1.163756E-05 -0.13212988 -0.0051879315 0.99147135 0 0 0 0 1 0.9840297 0.04666692 0.116124146 2.5000007 -0.046867397 0.990467 -0.0010829665 1.163756E-05 -0.11455915 -0.0043555936 0.9979155 0 0 0 0 1 0.9944759 0.062897086 0.09971327 2.5000007 -0.06292588 0.99911517 -0.0029998033 1.163756E-05 -0.09862085 -0.0032504539 1.0074058 0 0 0 0 1 1.009065 0.06959239 0.08802706 2.5000007 -0.0695407 1.0125899 -0.0038242764 1.163756E-05 -0.087341845 -0.0022093458 1.0200262 0 0 0 0 1 1.0283911 0.058981013 0.08443 2.5000007 -0.05890579 1.0315886 -0.0035006518 1.163756E-05 -0.08401664 -0.0013210999 1.0359051 0 0 0 0 1 1.0516294 0.034003243 0.09187582 2.5000007 -0.0339379 1.0554372 -0.002299997 1.163756E-05 -0.091649294 -0.0006602094 1.0550805 0 0 0 0 1 1.0780861 0.009052242 0.104737334 2.5000007 -0.009018955 1.0830668 -0.00078954647 1.163756E-05 -0.10474387 -8.6241824E-05 1.0780869 0 0 0 0 1 1.0780861 0.009052242 0.104737334 2.5000007 -0.009018955 1.0830668 -0.00078954647 1.163756E-05 -0.10474387 -8.6241824E-05 1.0780869 0 0 0 0 1</float_array>
        <technique_common>
          <accessor source="#Motion_9_LHand_transform_pose_array_id" count="11" stride="16">
            <param name="TRANSFORM" type="float4x4" />
          </accessor>
        </technique_common>
      </source>
      <sampler id="Motion_9_LHand_transform_samp_id">
        <input semantic="INPUT" source="#Motion_9_LHand_transform_frame_id" />
        <input semantic="INTERPOLATION" source="#Motion_9_LHand_transform_interp_id" />
        <input semantic="OUTPUT" source="#Motion_9_LHand_transform_pose_id" />
      </sampler>
      <channel source="#Motion_9_LHand_transform_samp_id" target="LHand_bone_id/transform" />
    </animation>
    <animation id="Motion_9_Loc_Head_transform_id" name="Motion_9_Loc_Head_transform">
      <source id="Motion_9_Loc_Head_transform_frame_id" name="Motion_9_Loc_Head_transform_frame">
        <float_array id="Motion_9_Loc_Head_transform_frame_array_id" count="11">0 0.033333335 0.06666667 0.1 0.13333334 0.16666667 0.2 0.23333333 0.26666668 0.3 0.33333334</float_array>
        <technique_common>
          <accessor source="#Motion_9_Loc_Head_transform_frame_array_id" count="11" stride="1">
            <param name="TIME" type="float" />
          </accessor>
        </technique_common>
      </source>
      <source id="Motion_9_Loc_Head_transform_interp_id" name="Motion_9_Loc_Head_transform_interp">
        <Name_array id="Motion_9_Loc_Head_transform_interp_array_id" count="11">LINEAR LINEAR LINEAR LINEAR LINEAR LINEAR LINEAR LINEAR LINEAR LINEAR LINEAR</Name_array>
        <technique_common>
          <accessor source="#Motion_9_Loc_Head_transform_interp_array_id" count="11" stride="1">
            <param name="INTERPOLATION" type="Name" />
          </accessor>
        </technique_common>
      </source>
      <source id="Motion_9_Loc_Head_transform_pose_id" name="Motion_9_Loc_Head_transform_pose">
        <float_array id="Motion_9_Loc_Head_transform_pose_array_id" count="176">3.973643E-08 0.6666666 0 9.931923 -0.6666666 3.973643E-08 0 0 0 0 0.6666667 0 0 0 0 1 3.973643E-08 0.6666666 0 9.931923 -0.6666666 3.973643E-08 0 0 0 0 0.6666667 0 0 0 0 1 3.973643E-08 0.6666666 0 9.931923 -0.6666666 3.973643E-08 0 0 0 0 0.6666667 0 0 0 0 1 3.973643E-08 0.6666666 0 9.931923 -0.6666666 3.973643E-08 0 0 0 0 0.6666667 0 0 0 0 1 3.973643E-08 0.6666666 0 9.931923 -0.6666666 3.973643E-08 0 0 0 0 0.6666667 0 0 0 0 1 3.973643E-08 0.6666666 0 9.931923 -0.6666666 3.973643E-08 0 0 0 0 0.6666667 0 0 0 0 1 3.973643E-08 0.6666666 0 9.931923 -0.6666666 3.973643E-08 0 0 0 0 0.6666667 0 0 0 0 1 3.973643E-08 0.6666666 0 9.931923 -0.6666666 3.973643E-08 0 0 0 0 0.6666667 0 0 0 0 1 3.973643E-08 0.6666666 0 9.931923 -0.6666666 3.973643E-08 0 0 0 0 0.6666667 0 0 0 0 1 3.973643E-08 0.6666666 0 9.931923 -0.6666666 3.973643E-08 0 0 0 0 0.6666667 0 0 0 0 1 3.973643E-08 0.6666666 0 9.931923 -0.6666666 3.973643E-08 0 0 0 0 0.6666667 0 0 0 0 1</float_array>
        <technique_common>
          <accessor source="#Motion_9_Loc_Head_transform_pose_array_id" count="11" stride="16">
            <param name="TRANSFORM" type="float4x4" />
          </accessor>
        </technique_common>
      </source>
      <sampler id="Motion_9_Loc_Head_transform_samp_id">
        <input semantic="INPUT" source="#Motion_9_Loc_Head_transform_frame_id" />
        <input semantic="INTERPOLATION" source="#Motion_9_Loc_Head_transform_interp_id" />
        <input semantic="OUTPUT" source="#Motion_9_Loc_Head_transform_pose_id" />
      </sampler>
      <channel source="#Motion_9_Loc_Head_transform_samp_id" target="Loc_Head_bone_id/transform" />
    </animation>
    <animation id="Motion_9_Loc_Eye_transform_id" name="Motion_9_Loc_Eye_transform">
      <source id="Motion_9_Loc_Eye_transform_frame_id" name="Motion_9_Loc_Eye_transform_frame">
        <float_array id="Motion_9_Loc_Eye_transform_frame_array_id" count="11">0 0.033333335 0.06666667 0.1 0.13333334 0.16666667 0.2 0.23333333 0.26666668 0.3 0.33333334</float_array>
        <technique_common>
          <accessor source="#Motion_9_Loc_Eye_transform_frame_array_id" count="11" stride="1">
            <param name="TIME" type="float" />
          </accessor>
        </technique_common>
      </source>
      <source id="Motion_9_Loc_Eye_transform_interp_id" name="Motion_9_Loc_Eye_transform_interp">
        <Name_array id="Motion_9_Loc_Eye_transform_interp_array_id" count="11">LINEAR LINEAR LINEAR LINEAR LINEAR LINEAR LINEAR LINEAR LINEAR LINEAR LINEAR</Name_array>
        <technique_common>
          <accessor source="#Motion_9_Loc_Eye_transform_interp_array_id" count="11" stride="1">
            <param name="INTERPOLATION" type="Name" />
          </accessor>
        </technique_common>
      </source>
      <source id="Motion_9_Loc_Eye_transform_pose_id" name="Motion_9_Loc_Eye_transform_pose">
        <float_array id="Motion_9_Loc_Eye_transform_pose_array_id" count="176">3.973643E-08 0.6666666 0 1.7958102 -0.6666666 3.973643E-08 0 0 0 0 0.6666667 8.295602 0 0 0 1 3.973643E-08 0.6666666 0 1.7958102 -0.6666666 3.973643E-08 0 0 0 0 0.6666667 8.295602 0 0 0 1 3.973643E-08 0.6666666 0 1.7958102 -0.6666666 3.973643E-08 0 0 0 0 0.6666667 8.295602 0 0 0 1 3.973643E-08 0.6666666 0 1.7958102 -0.6666666 3.973643E-08 0 0 0 0 0.6666667 8.295602 0 0 0 1 3.973643E-08 0.6666666 0 1.7958102 -0.6666666 3.973643E-08 0 0 0 0 0.6666667 8.295602 0 0 0 1 3.973643E-08 0.6666666 0 1.7958102 -0.6666666 3.973643E-08 0 0 0 0 0.6666667 8.295602 0 0 0 1 3.973643E-08 0.6666666 0 1.7958102 -0.6666666 3.973643E-08 0 0 0 0 0.6666667 8.295602 0 0 0 1 3.973643E-08 0.6666666 0 1.7958102 -0.6666666 3.973643E-08 0 0 0 0 0.6666667 8.295602 0 0 0 1 3.973643E-08 0.6666666 0 1.7958102 -0.6666666 3.973643E-08 0 0 0 0 0.6666667 8.295602 0 0 0 1 3.973643E-08 0.6666666 0 1.7958102 -0.6666666 3.973643E-08 0 0 0 0 0.6666667 8.295602 0 0 0 1 3.973643E-08 0.6666666 0 1.7958102 -0.6666666 3.973643E-08 0 0 0 0 0.6666667 8.295602 0 0 0 1</float_array>
        <technique_common>
          <accessor source="#Motion_9_Loc_Eye_transform_pose_array_id" count="11" stride="16">
            <param name="TRANSFORM" type="float4x4" />
          </accessor>
        </technique_common>
      </source>
      <sampler id="Motion_9_Loc_Eye_transform_samp_id">
        <input semantic="INPUT" source="#Motion_9_Loc_Eye_transform_frame_id" />
        <input semantic="INTERPOLATION" source="#Motion_9_Loc_Eye_transform_interp_id" />
        <input semantic="OUTPUT" source="#Motion_9_Loc_Eye_transform_pose_id" />
      </sampler>
      <channel source="#Motion_9_Loc_Eye_transform_samp_id" target="Loc_Eye_bone_id/transform" />
    </animation>
    <animation id="Motion_9_Loc_Mouth_transform_id" name="Motion_9_Loc_Mouth_transform">
      <source id="Motion_9_Loc_Mouth_transform_frame_id" name="Motion_9_Loc_Mouth_transform_frame">
        <float_array id="Motion_9_Loc_Mouth_transform_frame_array_id" count="11">0 0.033333335 0.06666667 0.1 0.13333334 0.16666667 0.2 0.23333333 0.26666668 0.3 0.33333334</float_array>
        <technique_common>
          <accessor source="#Motion_9_Loc_Mouth_transform_frame_array_id" count="11" stride="1">
            <param name="TIME" type="float" />
          </accessor>
        </technique_common>
      </source>
      <source id="Motion_9_Loc_Mouth_transform_interp_id" name="Motion_9_Loc_Mouth_transform_interp">
        <Name_array id="Motion_9_Loc_Mouth_transform_interp_array_id" count="11">LINEAR LINEAR LINEAR LINEAR LINEAR LINEAR LINEAR LINEAR LINEAR LINEAR LINEAR</Name_array>
        <technique_common>
          <accessor source="#Motion_9_Loc_Mouth_transform_interp_array_id" count="11" stride="1">
            <param name="INTERPOLATION" type="Name" />
          </accessor>
        </technique_common>
      </source>
      <source id="Motion_9_Loc_Mouth_transform_pose_id" name="Motion_9_Loc_Mouth_transform_pose">
        <float_array id="Motion_9_Loc_Mouth_transform_pose_array_id" count="176">3.973643E-08 0.6666666 0 -1.4687457 -0.6666666 3.973643E-08 0 0 0 0 0.6666667 8.552171 0 0 0 1 3.973643E-08 0.6666666 0 -1.4687457 -0.6666666 3.973643E-08 0 0 0 0 0.6666667 8.552171 0 0 0 1 3.973643E-08 0.6666666 0 -1.4687457 -0.6666666 3.973643E-08 0 0 0 0 0.6666667 8.552171 0 0 0 1 3.973643E-08 0.6666666 0 -1.4687457 -0.6666666 3.973643E-08 0 0 0 0 0.6666667 8.552171 0 0 0 1 3.973643E-08 0.6666666 0 -1.4687457 -0.6666666 3.973643E-08 0 0 0 0 0.6666667 8.552171 0 0 0 1 3.973643E-08 0.6666666 0 -1.4687457 -0.6666666 3.973643E-08 0 0 0 0 0.6666667 8.552171 0 0 0 1 3.973643E-08 0.6666666 0 -1.4687457 -0.6666666 3.973643E-08 0 0 0 0 0.6666667 8.552171 0 0 0 1 3.973643E-08 0.6666666 0 -1.4687457 -0.6666666 3.973643E-08 0 0 0 0 0.6666667 8.552171 0 0 0 1 3.973643E-08 0.6666666 0 -1.4687457 -0.6666666 3.973643E-08 0 0 0 0 0.6666667 8.552171 0 0 0 1 3.973643E-08 0.6666666 0 -1.4687457 -0.6666666 3.973643E-08 0 0 0 0 0.6666667 8.552171 0 0 0 1 3.973643E-08 0.6666666 0 -1.4687457 -0.6666666 3.973643E-08 0 0 0 0 0.6666667 8.552171 0 0 0 1</float_array>
        <technique_common>
          <accessor source="#Motion_9_Loc_Mouth_transform_pose_array_id" count="11" stride="16">
            <param name="TRANSFORM" type="float4x4" />
          </accessor>
        </technique_common>
      </source>
      <sampler id="Motion_9_Loc_Mouth_transform_samp_id">
        <input semantic="INPUT" source="#Motion_9_Loc_Mouth_transform_frame_id" />
        <input semantic="INTERPOLATION" source="#Motion_9_Loc_Mouth_transform_interp_id" />
        <input semantic="OUTPUT" source="#Motion_9_Loc_Mouth_transform_pose_id" />
      </sampler>
      <channel source="#Motion_9_Loc_Mouth_transform_samp_id" target="Loc_Mouth_bone_id/transform" />
    </animation>
  </library_animations>
  <library_visual_scenes>
    <visual_scene id="pm0871_00_fi_00_clip_id" name="pm0871_00_fi_00_clip">
      <node id="pm0871_00_fi_bone_id" name="pm0871_00_fi" sid="pm0871_00_fi" type="JOINT">
        <matrix sid="transform">1 0 0 0 0 1 0 0 0 0 1 0 0 0 0 1</matrix>
        <node id="Origin_bone_id" name="Origin" sid="Origin" type="JOINT">
          <matrix sid="transform">1 0 0 0 0 1 0 0 0 0 1 0 0 0 0 1</matrix>
          <node id="Waist_bone_id" name="Waist" sid="Waist" type="JOINT">
            <matrix sid="transform">3.1391647E-07 -1 0 0 1 3.1391647E-07 0 10.068077 0 0 1 0 0 0 0 1</matrix>
            <node id="Loc_Head_bone_id" name="Loc_Head" sid="Loc_Head" type="JOINT">
              <matrix sid="transform">3.1391647E-07 1 0 9.931923 -1 3.1391647E-07 0 0 0 0 1 0 0 0 0 1</matrix>
            </node>
            <node id="Loc_Eye_bone_id" name="Loc_Eye" sid="Loc_Eye" type="JOINT">
              <matrix sid="transform">3.1391647E-07 1 0 1.79581 -1 3.1391647E-07 0 0 0 0 1 8.295602 0 0 0 1</matrix>
            </node>
            <node id="Loc_Mouth_bone_id" name="Loc_Mouth" sid="Loc_Mouth" type="JOINT">
              <matrix sid="transform">3.1391647E-07 1 0 -1.468746 -1 3.1391647E-07 0 0 0 0 1 8.552171 0 0 0 1</matrix>
            </node>
            <node id="LShoulder_bone_id" name="LShoulder" sid="LShoulder" type="JOINT">
              <matrix sid="transform">0.78464377 0.6199469 0 -0.13825 -0.6199469 0.78464377 0 -0.697446 0 0 1 0 0 0 0 1</matrix>
              <node id="LArm1_bone_id" name="LArm1" sid="LArm1" type="JOINT">
                <matrix sid="transform">0.96427834 0.26489112 0 7.019933 -0.26489112 0.96427834 0 0 0 0 1 0 0 0 0 1</matrix>
                <node id="LArm2_bone_id" name="LArm2" sid="LArm2" type="JOINT">
                  <matrix sid="transform">1 0 0 2.5 0 1 0 0 0 0 1 0 0 0 0 1</matrix>
                  <node id="LArm3_bone_id" name="LArm3" sid="LArm3" type="JOINT">
                    <matrix sid="transform">1 0 0 2.500001 0 1 0 1.2E-05 0 0 1 0 0 0 0 1</matrix>
                    <node id="LHand_bone_id" name="LHand" sid="LHand" type="JOINT">
                      <matrix sid="transform">1 0 0 2.500001 0 1 0 1.2E-05 0 0 1 0 0 0 0 1</matrix>
                    </node>
                  </node>
                </node>
              </node>
            </node>
            <node id="RShoulder_bone_id" name="RShoulder" sid="RShoulder" type="JOINT">
              <matrix sid="transform">0.784645 -0.6199453 0 -0.138247 0.6199453 0.784645 0 0.697446 0 0 1 0 0 0 0 1</matrix>
              <node id="RArm1_bone_id" name="RArm1" sid="RArm1" type="JOINT">
                <matrix sid="transform">0.96427834 -0.26489112 0 7.019952 0.26489112 0.96427834 0 0 0 0 1 0 0 0 0 1</matrix>
                <node id="RArm2_bone_id" name="RArm2" sid="RArm2" type="JOINT">
                  <matrix sid="transform">1 0 0 2.500008 0 1 0 0 0 0 1 0 0 0 0 1</matrix>
                  <node id="RArm3_bone_id" name="RArm3" sid="RArm3" type="JOINT">
                    <matrix sid="transform">1 0 0 2.500001 0 1 0 -7E-06 0 0 1 0 0 0 0 1</matrix>
                    <node id="RHand_bone_id" name="RHand" sid="RHand" type="JOINT">
                      <matrix sid="transform">1 0 0 2.500024 0 1 0 1.3E-05 0 0 1 0 0 0 0 1</matrix>
                    </node>
                  </node>
                </node>
              </node>
            </node>
          </node>
          <node id="CamTgtHead_bone_id" name="CamTgtHead" sid="CamTgtHead" type="JOINT">
            <matrix sid="transform">1 0 0 0 0 1 0 11.863887 0 0 1 8.295602 0 0 0 1</matrix>
          </node>
        </node>
        <node id="pm0871_00_RingSkin_bone_id" name="pm0871_00_RingSkin" sid="pm0871_00_RingSkin" type="JOINT">
          <matrix sid="transform">1 0 0 0 0 1 0 0 0 0 1 0 0 0 0 1</matrix>
        </node>
        <node id="pm0871_00_BodySkin_bone_id" name="pm0871_00_BodySkin" sid="pm0871_00_BodySkin" type="JOINT">
          <matrix sid="transform">1 0 0 0 0 1 0 0 0 0 1 0 0 0 0 1</matrix>
        </node>
        <node id="pm0871_00_ArmSkin_bone_id" name="pm0871_00_ArmSkin" sid="pm0871_00_ArmSkin" type="JOINT">
          <matrix sid="transform">1 0 0 0 0 1 0 0 0 0 1 0 0 0 0 1</matrix>
        </node>
        <node id="pm0871_00_HandSkin_bone_id" name="pm0871_00_HandSkin" sid="pm0871_00_HandSkin" type="JOINT">
          <matrix sid="transform">1 0 0 0 0 1 0 0 0 0 1 0 0 0 0 1</matrix>
        </node>
      </node>
    </visual_scene>
  </library_visual_scenes>
  <scene>
    <instance_visual_scene url="#pm0871_00_fi_00_clip_id" />
  </scene>
</COLLADA>